<?xml version="1.0" encoding="UTF-8" standalone="no"?>
<!-- Created with Inkscape (http://www.inkscape.org/) -->

<svg
   width="41.299625mm"
   height="41.30014mm"
   viewBox="0 0 41.299626 41.300141"
   version="1.1"
   id="svg1"
   inkscape:version="1.3.2 (091e20e, 2023-11-25, custom)"
   sodipodi:docname="circle.svg"
   inkscape:export-filename="drawing3.png"
   inkscape:export-xdpi="200"
   inkscape:export-ydpi="200"
   xmlns:inkscape="http://www.inkscape.org/namespaces/inkscape"
   xmlns:sodipodi="http://sodipodi.sourceforge.net/DTD/sodipodi-0.dtd"
   xmlns="http://www.w3.org/2000/svg"
   xmlns:svg="http://www.w3.org/2000/svg">
  <sodipodi:namedview
     id="namedview1"
     pagecolor="#ffffff"
     bordercolor="#000000"
     borderopacity="0.25"
     inkscape:showpageshadow="2"
     inkscape:pageopacity="0.0"
     inkscape:pagecheckerboard="0"
     inkscape:deskcolor="#d1d1d1"
     inkscape:document-units="mm"
     inkscape:zoom="4.0515992"
     inkscape:cx="82.683401"
     inkscape:cy="52.695242"
     inkscape:window-width="2560"
     inkscape:window-height="1351"
     inkscape:window-x="-9"
     inkscape:window-y="-9"
     inkscape:window-maximized="1"
     inkscape:current-layer="layer1" />
  <defs
     id="defs1">
    <rect
       x="278.90222"
       y="200.41469"
       width="256.19513"
       height="107.1182"
       id="rect4" />
    <rect
       x="160.9241"
       y="315.92462"
       width="44.426899"
       height="27.643406"
       id="rect2" />
  </defs>
  <g
     inkscape:label="Layer 1"
     inkscape:groupmode="layer"
     id="layer1"
     transform="translate(-43.352496,-101.23971)">
    <text
       xml:space="preserve"
       transform="scale(0.26458333)"
       id="text1"
       style="white-space:pre;shape-inside:url(#rect2);display:inline;fill:#52c543;stroke:#000000;stroke-width:0;-inkscape-stroke:none;paint-order:markers fill stroke" />
    <text
       xml:space="preserve"
       transform="matrix(0.26458333,0,0,0.26458333,31.401714,68.232849)"
       id="text4"
       style="font-style:normal;font-variant:normal;font-weight:500;font-stretch:normal;font-size:29.3333px;font-family:Teachers;-inkscape-font-specification:'Teachers Medium';white-space:pre;shape-inside:url(#rect4);display:inline;fill:#50160e;fill-opacity:1;stroke:#50160e;stroke-width:0.377953;stroke-dasharray:none;stroke-opacity:1;paint-order:markers fill stroke" />
    <path
       id="path4"
       style="fill:#f6f9ee;fill-opacity:1;stroke:#50160e;stroke-width:1.3;stroke-dasharray:none;stroke-opacity:1;paint-order:markers fill stroke"
       d="m 64.002308,101.88971 a 20,20 0 0 0 -19.999812,20.00033 20,20 0 0 0 19.999812,19.99981 20,20 0 0 0 19.999813,-19.99981 20,20 0 0 0 -19.999813,-20.00033 z m 0,4.00027 A 16,16 0 0 1 80.002365,121.89004 16,16 0 0 1 64.002308,137.8901 16,16 0 0 1 48.002251,121.89004 16,16 0 0 1 64.002308,105.88998 Z" />
  </g>
</svg>
