<?xml version="1.0" encoding="UTF-8" standalone="no"?>
<!-- Created with Inkscape (http://www.inkscape.org/) -->

<svg
   width="32.45195mm"
   height="32.45195mm"
   viewBox="0 0 32.451951 32.451951"
   version="1.1"
   id="svg1"
   inkscape:version="1.3.2 (091e20e, 2023-11-25, custom)"
   sodipodi:docname="circle2.svg"
   inkscape:export-filename="circle2.png"
   inkscape:export-xdpi="400"
   inkscape:export-ydpi="400"
   xmlns:inkscape="http://www.inkscape.org/namespaces/inkscape"
   xmlns:sodipodi="http://sodipodi.sourceforge.net/DTD/sodipodi-0.dtd"
   xmlns="http://www.w3.org/2000/svg"
   xmlns:svg="http://www.w3.org/2000/svg">
  <sodipodi:namedview
     id="namedview1"
     pagecolor="#ffffff"
     bordercolor="#000000"
     borderopacity="0.25"
     inkscape:showpageshadow="2"
     inkscape:pageopacity="0.0"
     inkscape:pagecheckerboard="0"
     inkscape:deskcolor="#d1d1d1"
     inkscape:document-units="mm"
     inkscape:zoom="4.0515992"
     inkscape:cx="65.899904"
     inkscape:cy="36.158562"
     inkscape:window-width="2560"
     inkscape:window-height="1351"
     inkscape:window-x="-9"
     inkscape:window-y="-9"
     inkscape:window-maximized="1"
     inkscape:current-layer="layer1" />
  <defs
     id="defs1">
    <rect
       x="278.90222"
       y="200.41469"
       width="256.19513"
       height="107.1182"
       id="rect4" />
    <rect
       x="160.9241"
       y="315.92462"
       width="44.426899"
       height="27.643406"
       id="rect2" />
  </defs>
  <g
     inkscape:label="Layer 1"
     inkscape:groupmode="layer"
     id="layer1"
     transform="translate(-47.776165,-105.6639)">
    <path
       id="path1"
       style="fill:#f6f9ee;fill-rule:evenodd;stroke:#50160e;stroke-width:3;stroke-dasharray:none;paint-order:stroke fill markers"
       d="M 64.002398,107.1639 A 14.725924,14.725924 0 0 0 49.276165,121.88961 14.725924,14.725924 0 0 0 64.002398,136.61585 14.725924,14.725924 0 0 0 78.728114,121.88961 14.725924,14.725924 0 0 0 64.002398,107.1639 Z m 0,5.35471 a 9.3710432,9.3710432 0 0 1 9.371005,9.371 9.3710432,9.3710432 0 0 1 -9.371005,9.37101 9.3710432,9.3710432 0 0 1 -9.371004,-9.37101 9.3710432,9.3710432 0 0 1 9.371004,-9.371 z" />
  </g>
</svg>
