<?xml version="1.0" encoding="UTF-8" standalone="no"?>
<!-- Created with Inkscape (http://www.inkscape.org/) -->

<svg
   width="22.965706mm"
   height="96.510056mm"
   viewBox="0 0 22.965707 96.510058"
   version="1.1"
   id="svg1"
   inkscape:version="1.3.2 (091e20e, 2023-11-25, custom)"
   sodipodi:docname="ellipse.svg"
   inkscape:export-filename="ellipse.png"
   inkscape:export-xdpi="500"
   inkscape:export-ydpi="500"
   xmlns:inkscape="http://www.inkscape.org/namespaces/inkscape"
   xmlns:sodipodi="http://sodipodi.sourceforge.net/DTD/sodipodi-0.dtd"
   xmlns="http://www.w3.org/2000/svg"
   xmlns:svg="http://www.w3.org/2000/svg">
  <sodipodi:namedview
     id="namedview1"
     pagecolor="#ffffff"
     bordercolor="#000000"
     borderopacity="0.25"
     inkscape:showpageshadow="2"
     inkscape:pageopacity="0.0"
     inkscape:pagecheckerboard="0"
     inkscape:deskcolor="#d1d1d1"
     inkscape:document-units="mm"
     inkscape:zoom="2.8649133"
     inkscape:cx="42.933237"
     inkscape:cy="184.12425"
     inkscape:window-width="2560"
     inkscape:window-height="1351"
     inkscape:window-x="-9"
     inkscape:window-y="-9"
     inkscape:window-maximized="1"
     inkscape:current-layer="layer1" />
  <defs
     id="defs1">
    <rect
       x="278.90222"
       y="200.41469"
       width="256.19513"
       height="107.1182"
       id="rect4" />
    <rect
       x="160.9241"
       y="315.92462"
       width="44.426899"
       height="27.643406"
       id="rect2" />
  </defs>
  <g
     inkscape:label="Layer 1"
     inkscape:groupmode="layer"
     id="layer1"
     transform="translate(-52.519195,-73.635014)">
    <path
       id="rect3"
       style="fill:#f6f9ee;fill-rule:evenodd;stroke:#50160e;stroke-width:3;stroke-dasharray:none;paint-order:stroke fill markers"
       d="m 64.002048,75.135014 c -5.530452,0 -9.982853,4.447995 -9.982853,9.973035 v 73.563981 c 0,5.52504 4.452401,9.97304 9.982853,9.97304 5.530452,0 9.982853,-4.448 9.982853,-9.97304 V 85.108049 c 0,-5.52504 -4.452401,-9.973035 -9.982853,-9.973035 z m -0.276986,3.721737 h 0.553972 c 3.702216,0 6.682796,3.006356 6.682796,6.740674 v 72.584715 c 0,3.73432 -2.98058,6.74068 -6.682796,6.74068 h -0.553972 c -3.702216,0 -6.682796,-3.00636 -6.682796,-6.74068 V 85.597425 c 0,-3.734318 2.98058,-6.740674 6.682796,-6.740674 z" />
  </g>
</svg>
