{
 "id": "IA7II6K9CO",
 "fps": {
  "num": 30,
  "den": 1
 },
 "display_ratio": {
  "num": 16,
  "den": 9
 },
 "pixel_ratio": {
  "num": 1,
  "den": 1
 },
 "width": 1920,
 "height": 1080,
 "sample_rate": 44100,
 "channels": 2,
 "channel_layout": 3,
 "settings": {},
 "clips": [
  {
   "alpha": {
    "Points": [
     {
      "co": {
       "X": 1.0,
       "Y": 1.0
      },
      "handle_left": {
       "X": 0.5,
       "Y": 1.0
      },
      "handle_right": {
       "X": 0.5,
       "Y": 0.0
      },
      "handle_type": 0,
      "interpolation": 0
     }
    ]
   },
   "anchor": 0,
   "channel_filter": {
    "Points": [
     {
      "co": {
       "X": 1.0,
       "Y": -1.0
      },
      "handle_left": {
       "X": 0.5,
       "Y": 1.0
      },
      "handle_right": {
       "X": 0.5,
       "Y": 0.0
      },
      "handle_type": 0,
      "interpolation": 0
     }
    ]
   },
   "channel_mapping": {
    "Points": [
     {
      "co": {
       "X": 1.0,
       "Y": -1.0
      },
      "handle_left": {
       "X": 0.5,
       "Y": 1.0
      },
      "handle_right": {
       "X": 0.5,
       "Y": 0.0
      },
      "handle_type": 0,
      "interpolation": 0
     }
    ]
   },
   "display": 0,
   "duration": 120.26663208007812,
   "effects": [],
   "end": 80.62343750000002,
   "gravity": 4,
   "has_audio": {
    "Points": [
     {
      "co": {
       "X": 1.0,
       "Y": -1.0
      },
      "handle_left": {
       "X": 0.5,
       "Y": 1.0
      },
      "handle_right": {
       "X": 0.5,
       "Y": 0.0
      },
      "handle_type": 0,
      "interpolation": 0
     }
    ]
   },
   "has_video": {
    "Points": [
     {
      "co": {
       "X": 1.0,
       "Y": -1.0
      },
      "handle_left": {
       "X": 0.5,
       "Y": 1.0
      },
      "handle_right": {
       "X": 0.5,
       "Y": 0.0
      },
      "handle_type": 0,
      "interpolation": 0
     }
    ]
   },
   "id": "5ZJNDTU9LO",
   "layer": 1000000,
   "location_x": {
    "Points": [
     {
      "co": {
       "X": 1.0,
       "Y": 0.0
      },
      "handle_left": {
       "X": 0.5,
       "Y": 1.0
      },
      "handle_right": {
       "X": 0.5,
       "Y": 0.0
      },
      "handle_type": 0,
      "interpolation": 0
     }
    ]
   },
   "location_y": {
    "Points": [
     {
      "co": {
       "X": 1.0,
       "Y": 0.0
      },
      "handle_left": {
       "X": 0.5,
       "Y": 1.0
      },
      "handle_right": {
       "X": 0.5,
       "Y": 0.0
      },
      "handle_type": 0,
      "interpolation": 0
     }
    ]
   },
   "mixing": 0,
   "origin_x": {
    "Points": [
     {
      "co": {
       "X": 1.0,
       "Y": 0.5
      },
      "handle_left": {
       "X": 0.5,
       "Y": 1.0
      },
      "handle_right": {
       "X": 0.5,
       "Y": 0.0
      },
      "handle_type": 0,
      "interpolation": 0
     }
    ]
   },
   "origin_y": {
    "Points": [
     {
      "co": {
       "X": 1.0,
       "Y": 0.5
      },
      "handle_left": {
       "X": 0.5,
       "Y": 1.0
      },
      "handle_right": {
       "X": 0.5,
       "Y": 0.0
      },
      "handle_type": 0,
      "interpolation": 0
     }
    ]
   },
   "parentObjectId": "",
   "perspective_c1_x": {
    "Points": [
     {
      "co": {
       "X": 1.0,
       "Y": -1.0
      },
      "handle_left": {
       "X": 0.5,
       "Y": 1.0
      },
      "handle_right": {
       "X": 0.5,
       "Y": 0.0
      },
      "handle_type": 0,
      "interpolation": 0
     }
    ]
   },
   "perspective_c1_y": {
    "Points": [
     {
      "co": {
       "X": 1.0,
       "Y": -1.0
      },
      "handle_left": {
       "X": 0.5,
       "Y": 1.0
      },
      "handle_right": {
       "X": 0.5,
       "Y": 0.0
      },
      "handle_type": 0,
      "interpolation": 0
     }
    ]
   },
   "perspective_c2_x": {
    "Points": [
     {
      "co": {
       "X": 1.0,
       "Y": -1.0
      },
      "handle_left": {
       "X": 0.5,
       "Y": 1.0
      },
      "handle_right": {
       "X": 0.5,
       "Y": 0.0
      },
      "handle_type": 0,
      "interpolation": 0
     }
    ]
   },
   "perspective_c2_y": {
    "Points": [
     {
      "co": {
       "X": 1.0,
       "Y": -1.0
      },
      "handle_left": {
       "X": 0.5,
       "Y": 1.0
      },
      "handle_right": {
       "X": 0.5,
       "Y": 0.0
      },
      "handle_type": 0,
      "interpolation": 0
     }
    ]
   },
   "perspective_c3_x": {
    "Points": [
     {
      "co": {
       "X": 1.0,
       "Y": -1.0
      },
      "handle_left": {
       "X": 0.5,
       "Y": 1.0
      },
      "handle_right": {
       "X": 0.5,
       "Y": 0.0
      },
      "handle_type": 0,
      "interpolation": 0
     }
    ]
   },
   "perspective_c3_y": {
    "Points": [
     {
      "co": {
       "X": 1.0,
       "Y": -1.0
      },
      "handle_left": {
       "X": 0.5,
       "Y": 1.0
      },
      "handle_right": {
       "X": 0.5,
       "Y": 0.0
      },
      "handle_type": 0,
      "interpolation": 0
     }
    ]
   },
   "perspective_c4_x": {
    "Points": [
     {
      "co": {
       "X": 1.0,
       "Y": -1.0
      },
      "handle_left": {
       "X": 0.5,
       "Y": 1.0
      },
      "handle_right": {
       "X": 0.5,
       "Y": 0.0
      },
      "handle_type": 0,
      "interpolation": 0
     }
    ]
   },
   "perspective_c4_y": {
    "Points": [
     {
      "co": {
       "X": 1.0,
       "Y": -1.0
      },
      "handle_left": {
       "X": 0.5,
       "Y": 1.0
      },
      "handle_right": {
       "X": 0.5,
       "Y": 0.0
      },
      "handle_type": 0,
      "interpolation": 0
     }
    ]
   },
   "position": 0,
   "reader": {
    "acodec": "",
    "audio_bit_rate": 0,
    "audio_stream_index": -1,
    "audio_timebase": {
     "den": 1,
     "num": 1
    },
    "channel_layout": 4,
    "channels": 0,
    "display_ratio": {
     "den": 9,
     "num": 16
    },
    "duration": 120.26663208007812,
    "file_size": "49436730",
    "fps": {
     "den": 1,
     "num": 30
    },
    "has_audio": false,
    "has_single_image": false,
    "has_video": true,
    "height": 1080,
    "interlaced_frame": false,
    "metadata": {
     "compatible_brands": "mp41isom",
     "creation_time": "2024-05-23T17:39:44.000000Z",
     "encoder": "AVC Coding",
     "handler_name": "VideoHandler",
     "language": "und",
     "major_brand": "mp42",
     "minor_version": "0"
    },
    "path": "./Movie_002.mp4",
    "pixel_format": 0,
    "pixel_ratio": {
     "den": 1,
     "num": 1
    },
    "sample_rate": 0,
    "top_field_first": true,
    "type": "FFmpegReader",
    "vcodec": "h264",
    "video_bit_rate": 411059,
    "video_length": "3608",
    "video_stream_index": 0,
    "video_timebase": {
     "den": 30000,
     "num": 1
    },
    "width": 1920,
    "media_type": "video",
    "id": "6EMORV2KS9"
   },
   "rotation": {
    "Points": [
     {
      "co": {
       "X": 1.0,
       "Y": 0.0
      },
      "handle_left": {
       "X": 0.5,
       "Y": 1.0
      },
      "handle_right": {
       "X": 0.5,
       "Y": 0.0
      },
      "handle_type": 0,
      "interpolation": 0
     }
    ]
   },
   "scale": 1,
   "scale_x": {
    "Points": [
     {
      "co": {
       "X": 1.0,
       "Y": 1.0
      },
      "handle_left": {
       "X": 0.5,
       "Y": 1.0
      },
      "handle_right": {
       "X": 0.5,
       "Y": 0.0
      },
      "handle_type": 0,
      "interpolation": 0
     }
    ]
   },
   "scale_y": {
    "Points": [
     {
      "co": {
       "X": 1.0,
       "Y": 1.0
      },
      "handle_left": {
       "X": 0.5,
       "Y": 1.0
      },
      "handle_right": {
       "X": 0.5,
       "Y": 0.0
      },
      "handle_type": 0,
      "interpolation": 0
     }
    ]
   },
   "shear_x": {
    "Points": [
     {
      "co": {
       "X": 1.0,
       "Y": 0.0
      },
      "handle_left": {
       "X": 0.5,
       "Y": 1.0
      },
      "handle_right": {
       "X": 0.5,
       "Y": 0.0
      },
      "handle_type": 0,
      "interpolation": 0
     }
    ]
   },
   "shear_y": {
    "Points": [
     {
      "co": {
       "X": 1.0,
       "Y": 0.0
      },
      "handle_left": {
       "X": 0.5,
       "Y": 1.0
      },
      "handle_right": {
       "X": 0.5,
       "Y": 0.0
      },
      "handle_type": 0,
      "interpolation": 0
     }
    ]
   },
   "start": 30.466666666666665,
   "time": {
    "Points": [
     {
      "co": {
       "X": 1.0,
       "Y": 1.0
      },
      "handle_left": {
       "X": 0.5,
       "Y": 1.0
      },
      "handle_right": {
       "X": 0.5,
       "Y": 0.0
      },
      "handle_type": 0,
      "interpolation": 0
     }
    ]
   },
   "volume": {
    "Points": [
     {
      "co": {
       "X": 1.0,
       "Y": 1.0
      },
      "handle_left": {
       "X": 0.5,
       "Y": 1.0
      },
      "handle_right": {
       "X": 0.5,
       "Y": 0.0
      },
      "handle_type": 0,
      "interpolation": 0
     }
    ]
   },
   "wave_color": {
    "alpha": {
     "Points": [
      {
       "co": {
        "X": 1.0,
        "Y": 255.0
       },
       "handle_left": {
        "X": 0.5,
        "Y": 1.0
       },
       "handle_right": {
        "X": 0.5,
        "Y": 0.0
       },
       "handle_type": 0,
       "interpolation": 0
      }
     ]
    },
    "blue": {
     "Points": [
      {
       "co": {
        "X": 1.0,
        "Y": 255.0
       },
       "handle_left": {
        "X": 0.5,
        "Y": 1.0
       },
       "handle_right": {
        "X": 0.5,
        "Y": 0.0
       },
       "handle_type": 0,
       "interpolation": 0
      }
     ]
    },
    "green": {
     "Points": [
      {
       "co": {
        "X": 1.0,
        "Y": 123.0
       },
       "handle_left": {
        "X": 0.5,
        "Y": 1.0
       },
       "handle_right": {
        "X": 0.5,
        "Y": 0.0
       },
       "handle_type": 0,
       "interpolation": 0
      }
     ]
    },
    "red": {
     "Points": [
      {
       "co": {
        "X": 1.0,
        "Y": 0.0
       },
       "handle_left": {
        "X": 0.5,
        "Y": 1.0
       },
       "handle_right": {
        "X": 0.5,
        "Y": 0.0
       },
       "handle_type": 0,
       "interpolation": 0
      }
     ]
    }
   },
   "waveform": false,
   "file_id": "6EMORV2KS9",
   "title": "Movie_002.mp4",
   "image": "Tutorial_assets/thumbnail/6EMORV2KS9.png"
  },
  {
   "alpha": {
    "Points": [
     {
      "co": {
       "X": 1.0,
       "Y": 1.0
      },
      "handle_left": {
       "X": 0.5,
       "Y": 1.0
      },
      "handle_right": {
       "X": 0.5,
       "Y": 0.0
      },
      "handle_type": 0,
      "interpolation": 0
     }
    ]
   },
   "anchor": 0,
   "channel_filter": {
    "Points": [
     {
      "co": {
       "X": 1.0,
       "Y": -1.0
      },
      "handle_left": {
       "X": 0.5,
       "Y": 1.0
      },
      "handle_right": {
       "X": 0.5,
       "Y": 0.0
      },
      "handle_type": 0,
      "interpolation": 0
     }
    ]
   },
   "channel_mapping": {
    "Points": [
     {
      "co": {
       "X": 1.0,
       "Y": -1.0
      },
      "handle_left": {
       "X": 0.5,
       "Y": 1.0
      },
      "handle_right": {
       "X": 0.5,
       "Y": 0.0
      },
      "handle_type": 0,
      "interpolation": 0
     }
    ]
   },
   "display": 0,
   "duration": 3600.0,
   "effects": [],
   "end": 5.733333333333334,
   "gravity": 4,
   "has_audio": {
    "Points": [
     {
      "co": {
       "X": 1.0,
       "Y": -1.0
      },
      "handle_left": {
       "X": 0.5,
       "Y": 1.0
      },
      "handle_right": {
       "X": 0.5,
       "Y": 0.0
      },
      "handle_type": 0,
      "interpolation": 0
     }
    ]
   },
   "has_video": {
    "Points": [
     {
      "co": {
       "X": 1.0,
       "Y": -1.0
      },
      "handle_left": {
       "X": 0.5,
       "Y": 1.0
      },
      "handle_right": {
       "X": 0.5,
       "Y": 0.0
      },
      "handle_type": 0,
      "interpolation": 0
     }
    ]
   },
   "id": "WRTL91GLGQ",
   "layer": 2000000,
   "location_x": {
    "Points": [
     {
      "co": {
       "X": 1,
       "Y": 0.2808511213546104
      },
      "handle_left": {
       "X": 0.5,
       "Y": 1.0
      },
      "handle_right": {
       "X": 0.5,
       "Y": 0.0
      },
      "handle_type": 0,
      "interpolation": 0
     }
    ]
   },
   "location_y": {
    "Points": [
     {
      "co": {
       "X": 1,
       "Y": -0.3121211543227687
      },
      "handle_left": {
       "X": 0.5,
       "Y": 1.0
      },
      "handle_right": {
       "X": 0.5,
       "Y": 0.0
      },
      "handle_type": 0,
      "interpolation": 0
     }
    ]
   },
   "mixing": 0,
   "origin_x": {
    "Points": [
     {
      "co": {
       "X": 1.0,
       "Y": 0.5
      },
      "handle_left": {
       "X": 0.5,
       "Y": 1.0
      },
      "handle_right": {
       "X": 0.5,
       "Y": 0.0
      },
      "handle_type": 0,
      "interpolation": 0
     }
    ]
   },
   "origin_y": {
    "Points": [
     {
      "co": {
       "X": 1.0,
       "Y": 0.5
      },
      "handle_left": {
       "X": 0.5,
       "Y": 1.0
      },
      "handle_right": {
       "X": 0.5,
       "Y": 0.0
      },
      "handle_type": 0,
      "interpolation": 0
     }
    ]
   },
   "parentObjectId": "",
   "perspective_c1_x": {
    "Points": [
     {
      "co": {
       "X": 1.0,
       "Y": -1.0
      },
      "handle_left": {
       "X": 0.5,
       "Y": 1.0
      },
      "handle_right": {
       "X": 0.5,
       "Y": 0.0
      },
      "handle_type": 0,
      "interpolation": 0
     }
    ]
   },
   "perspective_c1_y": {
    "Points": [
     {
      "co": {
       "X": 1.0,
       "Y": -1.0
      },
      "handle_left": {
       "X": 0.5,
       "Y": 1.0
      },
      "handle_right": {
       "X": 0.5,
       "Y": 0.0
      },
      "handle_type": 0,
      "interpolation": 0
     }
    ]
   },
   "perspective_c2_x": {
    "Points": [
     {
      "co": {
       "X": 1.0,
       "Y": -1.0
      },
      "handle_left": {
       "X": 0.5,
       "Y": 1.0
      },
      "handle_right": {
       "X": 0.5,
       "Y": 0.0
      },
      "handle_type": 0,
      "interpolation": 0
     }
    ]
   },
   "perspective_c2_y": {
    "Points": [
     {
      "co": {
       "X": 1.0,
       "Y": -1.0
      },
      "handle_left": {
       "X": 0.5,
       "Y": 1.0
      },
      "handle_right": {
       "X": 0.5,
       "Y": 0.0
      },
      "handle_type": 0,
      "interpolation": 0
     }
    ]
   },
   "perspective_c3_x": {
    "Points": [
     {
      "co": {
       "X": 1.0,
       "Y": -1.0
      },
      "handle_left": {
       "X": 0.5,
       "Y": 1.0
      },
      "handle_right": {
       "X": 0.5,
       "Y": 0.0
      },
      "handle_type": 0,
      "interpolation": 0
     }
    ]
   },
   "perspective_c3_y": {
    "Points": [
     {
      "co": {
       "X": 1.0,
       "Y": -1.0
      },
      "handle_left": {
       "X": 0.5,
       "Y": 1.0
      },
      "handle_right": {
       "X": 0.5,
       "Y": 0.0
      },
      "handle_type": 0,
      "interpolation": 0
     }
    ]
   },
   "perspective_c4_x": {
    "Points": [
     {
      "co": {
       "X": 1.0,
       "Y": -1.0
      },
      "handle_left": {
       "X": 0.5,
       "Y": 1.0
      },
      "handle_right": {
       "X": 0.5,
       "Y": 0.0
      },
      "handle_type": 0,
      "interpolation": 0
     }
    ]
   },
   "perspective_c4_y": {
    "Points": [
     {
      "co": {
       "X": 1.0,
       "Y": -1.0
      },
      "handle_left": {
       "X": 0.5,
       "Y": 1.0
      },
      "handle_right": {
       "X": 0.5,
       "Y": 0.0
      },
      "handle_type": 0,
      "interpolation": 0
     }
    ]
   },
   "position": 0.8,
   "reader": {
    "acodec": "",
    "audio_bit_rate": 0,
    "audio_stream_index": -1,
    "audio_timebase": {
     "den": 1,
     "num": 1
    },
    "channel_layout": 4,
    "channels": 0,
    "display_ratio": {
     "den": 171,
     "num": 338
    },
    "duration": 3600.0,
    "file_size": "231192",
    "fps": {
     "den": 1,
     "num": 30
    },
    "has_audio": false,
    "has_single_image": true,
    "has_video": true,
    "height": 171,
    "interlaced_frame": false,
    "metadata": {},
    "path": "./drawing.png",
    "pixel_format": -1,
    "pixel_ratio": {
     "den": 1,
     "num": 1
    },
    "sample_rate": 0,
    "top_field_first": true,
    "type": "QtImageReader",
    "vcodec": "",
    "video_bit_rate": 0,
    "video_length": "108000",
    "video_stream_index": -1,
    "video_timebase": {
     "den": 30,
     "num": 1
    },
    "width": 338,
    "media_type": "image",
    "id": "8OYLCUKPZL",
    "image": "thumbnail/8OYLCUKPZL.png"
   },
   "rotation": {
    "Points": [
     {
      "co": {
       "X": 1.0,
       "Y": 0.0
      },
      "handle_left": {
       "X": 0.5,
       "Y": 1.0
      },
      "handle_right": {
       "X": 0.5,
       "Y": 0.0
      },
      "handle_type": 0,
      "interpolation": 0
     }
    ]
   },
   "scale": 1,
   "scale_x": {
    "Points": [
     {
      "co": {
       "X": 1,
       "Y": 0.2868616580963135
      },
      "handle_left": {
       "X": 0.5,
       "Y": 1.0
      },
      "handle_right": {
       "X": 0.5,
       "Y": 0.0
      },
      "handle_type": 0,
      "interpolation": 0
     }
    ]
   },
   "scale_y": {
    "Points": [
     {
      "co": {
       "X": 1,
       "Y": 0.2868616580963135
      },
      "handle_left": {
       "X": 0.5,
       "Y": 1.0
      },
      "handle_right": {
       "X": 0.5,
       "Y": 0.0
      },
      "handle_type": 0,
      "interpolation": 0
     }
    ]
   },
   "shear_x": {
    "Points": [
     {
      "co": {
       "X": 1.0,
       "Y": 0.0
      },
      "handle_left": {
       "X": 0.5,
       "Y": 1.0
      },
      "handle_right": {
       "X": 0.5,
       "Y": 0.0
      },
      "handle_type": 0,
      "interpolation": 0
     }
    ]
   },
   "shear_y": {
    "Points": [
     {
      "co": {
       "X": 1.0,
       "Y": 0.0
      },
      "handle_left": {
       "X": 0.5,
       "Y": 1.0
      },
      "handle_right": {
       "X": 0.5,
       "Y": 0.0
      },
      "handle_type": 0,
      "interpolation": 0
     }
    ]
   },
   "start": 0,
   "time": {
    "Points": [
     {
      "co": {
       "X": 1.0,
       "Y": 1.0
      },
      "handle_left": {
       "X": 0.5,
       "Y": 1.0
      },
      "handle_right": {
       "X": 0.5,
       "Y": 0.0
      },
      "handle_type": 0,
      "interpolation": 0
     }
    ]
   },
   "volume": {
    "Points": [
     {
      "co": {
       "X": 1.0,
       "Y": 1.0
      },
      "handle_left": {
       "X": 0.5,
       "Y": 1.0
      },
      "handle_right": {
       "X": 0.5,
       "Y": 0.0
      },
      "handle_type": 0,
      "interpolation": 0
     }
    ]
   },
   "wave_color": {
    "alpha": {
     "Points": [
      {
       "co": {
        "X": 1.0,
        "Y": 255.0
       },
       "handle_left": {
        "X": 0.5,
        "Y": 1.0
       },
       "handle_right": {
        "X": 0.5,
        "Y": 0.0
       },
       "handle_type": 0,
       "interpolation": 0
      }
     ]
    },
    "blue": {
     "Points": [
      {
       "co": {
        "X": 1.0,
        "Y": 255.0
       },
       "handle_left": {
        "X": 0.5,
        "Y": 1.0
       },
       "handle_right": {
        "X": 0.5,
        "Y": 0.0
       },
       "handle_type": 0,
       "interpolation": 0
      }
     ]
    },
    "green": {
     "Points": [
      {
       "co": {
        "X": 1.0,
        "Y": 123.0
       },
       "handle_left": {
        "X": 0.5,
        "Y": 1.0
       },
       "handle_right": {
        "X": 0.5,
        "Y": 0.0
       },
       "handle_type": 0,
       "interpolation": 0
      }
     ]
    },
    "red": {
     "Points": [
      {
       "co": {
        "X": 1.0,
        "Y": 0.0
       },
       "handle_left": {
        "X": 0.5,
        "Y": 1.0
       },
       "handle_right": {
        "X": 0.5,
        "Y": 0.0
       },
       "handle_type": 0,
       "interpolation": 0
      }
     ]
    }
   },
   "waveform": false,
   "file_id": "8OYLCUKPZL",
   "title": "drawing.png",
   "image": "Tutorial_assets/thumbnail/8OYLCUKPZL.png"
  },
  {
   "alpha": {
    "Points": [
     {
      "co": {
       "X": 1.0,
       "Y": 1.0
      },
      "handle_left": {
       "X": 0.5,
       "Y": 1.0
      },
      "handle_right": {
       "X": 0.5,
       "Y": 0.0
      },
      "handle_type": 0,
      "interpolation": 0
     }
    ]
   },
   "anchor": 0,
   "channel_filter": {
    "Points": [
     {
      "co": {
       "X": 1.0,
       "Y": -1.0
      },
      "handle_left": {
       "X": 0.5,
       "Y": 1.0
      },
      "handle_right": {
       "X": 0.5,
       "Y": 0.0
      },
      "handle_type": 0,
      "interpolation": 0
     }
    ]
   },
   "channel_mapping": {
    "Points": [
     {
      "co": {
       "X": 1.0,
       "Y": -1.0
      },
      "handle_left": {
       "X": 0.5,
       "Y": 1.0
      },
      "handle_right": {
       "X": 0.5,
       "Y": 0.0
      },
      "handle_type": 0,
      "interpolation": 0
     }
    ]
   },
   "display": 0,
   "duration": 3600.0,
   "effects": [],
   "end": 8.899999999999999,
   "gravity": 4,
   "has_audio": {
    "Points": [
     {
      "co": {
       "X": 1.0,
       "Y": -1.0
      },
      "handle_left": {
       "X": 0.5,
       "Y": 1.0
      },
      "handle_right": {
       "X": 0.5,
       "Y": 0.0
      },
      "handle_type": 0,
      "interpolation": 0
     }
    ]
   },
   "has_video": {
    "Points": [
     {
      "co": {
       "X": 1.0,
       "Y": -1.0
      },
      "handle_left": {
       "X": 0.5,
       "Y": 1.0
      },
      "handle_right": {
       "X": 0.5,
       "Y": 0.0
      },
      "handle_type": 0,
      "interpolation": 0
     }
    ]
   },
   "id": "2LIE3NXDKW",
   "layer": 2000000,
   "location_x": {
    "Points": [
     {
      "co": {
       "X": 1,
       "Y": 0.2776831090450287
      },
      "handle_left": {
       "X": 0.5,
       "Y": 1.0
      },
      "handle_right": {
       "X": 0.5,
       "Y": 0.0
      },
      "handle_type": 0,
      "interpolation": 0
     }
    ]
   },
   "location_y": {
    "Points": [
     {
      "co": {
       "X": 1,
       "Y": -0.30454540541677766
      },
      "handle_left": {
       "X": 0.5,
       "Y": 1.0
      },
      "handle_right": {
       "X": 0.5,
       "Y": 0.0
      },
      "handle_type": 0,
      "interpolation": 0
     }
    ]
   },
   "mixing": 0,
   "origin_x": {
    "Points": [
     {
      "co": {
       "X": 1.0,
       "Y": 0.5
      },
      "handle_left": {
       "X": 0.5,
       "Y": 1.0
      },
      "handle_right": {
       "X": 0.5,
       "Y": 0.0
      },
      "handle_type": 0,
      "interpolation": 0
     }
    ]
   },
   "origin_y": {
    "Points": [
     {
      "co": {
       "X": 1.0,
       "Y": 0.5
      },
      "handle_left": {
       "X": 0.5,
       "Y": 1.0
      },
      "handle_right": {
       "X": 0.5,
       "Y": 0.0
      },
      "handle_type": 0,
      "interpolation": 0
     }
    ]
   },
   "parentObjectId": "",
   "perspective_c1_x": {
    "Points": [
     {
      "co": {
       "X": 1.0,
       "Y": -1.0
      },
      "handle_left": {
       "X": 0.5,
       "Y": 1.0
      },
      "handle_right": {
       "X": 0.5,
       "Y": 0.0
      },
      "handle_type": 0,
      "interpolation": 0
     }
    ]
   },
   "perspective_c1_y": {
    "Points": [
     {
      "co": {
       "X": 1.0,
       "Y": -1.0
      },
      "handle_left": {
       "X": 0.5,
       "Y": 1.0
      },
      "handle_right": {
       "X": 0.5,
       "Y": 0.0
      },
      "handle_type": 0,
      "interpolation": 0
     }
    ]
   },
   "perspective_c2_x": {
    "Points": [
     {
      "co": {
       "X": 1.0,
       "Y": -1.0
      },
      "handle_left": {
       "X": 0.5,
       "Y": 1.0
      },
      "handle_right": {
       "X": 0.5,
       "Y": 0.0
      },
      "handle_type": 0,
      "interpolation": 0
     }
    ]
   },
   "perspective_c2_y": {
    "Points": [
     {
      "co": {
       "X": 1.0,
       "Y": -1.0
      },
      "handle_left": {
       "X": 0.5,
       "Y": 1.0
      },
      "handle_right": {
       "X": 0.5,
       "Y": 0.0
      },
      "handle_type": 0,
      "interpolation": 0
     }
    ]
   },
   "perspective_c3_x": {
    "Points": [
     {
      "co": {
       "X": 1.0,
       "Y": -1.0
      },
      "handle_left": {
       "X": 0.5,
       "Y": 1.0
      },
      "handle_right": {
       "X": 0.5,
       "Y": 0.0
      },
      "handle_type": 0,
      "interpolation": 0
     }
    ]
   },
   "perspective_c3_y": {
    "Points": [
     {
      "co": {
       "X": 1.0,
       "Y": -1.0
      },
      "handle_left": {
       "X": 0.5,
       "Y": 1.0
      },
      "handle_right": {
       "X": 0.5,
       "Y": 0.0
      },
      "handle_type": 0,
      "interpolation": 0
     }
    ]
   },
   "perspective_c4_x": {
    "Points": [
     {
      "co": {
       "X": 1.0,
       "Y": -1.0
      },
      "handle_left": {
       "X": 0.5,
       "Y": 1.0
      },
      "handle_right": {
       "X": 0.5,
       "Y": 0.0
      },
      "handle_type": 0,
      "interpolation": 0
     }
    ]
   },
   "perspective_c4_y": {
    "Points": [
     {
      "co": {
       "X": 1.0,
       "Y": -1.0
      },
      "handle_left": {
       "X": 0.5,
       "Y": 1.0
      },
      "handle_right": {
       "X": 0.5,
       "Y": 0.0
      },
      "handle_type": 0,
      "interpolation": 0
     }
    ]
   },
   "position": 11.433333333333334,
   "reader": {
    "acodec": "",
    "audio_bit_rate": 0,
    "audio_stream_index": -1,
    "audio_timebase": {
     "den": 1,
     "num": 1
    },
    "channel_layout": 4,
    "channels": 0,
    "display_ratio": {
     "den": 374,
     "num": 713
    },
    "duration": 3600.0,
    "file_size": "1066648",
    "fps": {
     "den": 1,
     "num": 30
    },
    "has_audio": false,
    "has_single_image": true,
    "has_video": true,
    "height": 374,
    "interlaced_frame": false,
    "metadata": {},
    "path": "./drawing2.png",
    "pixel_format": -1,
    "pixel_ratio": {
     "den": 1,
     "num": 1
    },
    "sample_rate": 0,
    "top_field_first": true,
    "type": "QtImageReader",
    "vcodec": "",
    "video_bit_rate": 0,
    "video_length": "108000",
    "video_stream_index": -1,
    "video_timebase": {
     "den": 30,
     "num": 1
    },
    "width": 713,
    "media_type": "image",
    "id": "3SUISLE736"
   },
   "rotation": {
    "Points": [
     {
      "co": {
       "X": 1.0,
       "Y": 0.0
      },
      "handle_left": {
       "X": 0.5,
       "Y": 1.0
      },
      "handle_right": {
       "X": 0.5,
       "Y": 0.0
      },
      "handle_type": 0,
      "interpolation": 0
     }
    ]
   },
   "scale": 1,
   "scale_x": {
    "Points": [
     {
      "co": {
       "X": 1,
       "Y": 0.29982970880893467
      },
      "handle_left": {
       "X": 0.5,
       "Y": 1.0
      },
      "handle_right": {
       "X": 0.5,
       "Y": 0.0
      },
      "handle_type": 0,
      "interpolation": 0
     }
    ]
   },
   "scale_y": {
    "Points": [
     {
      "co": {
       "X": 1,
       "Y": 0.29982970880893467
      },
      "handle_left": {
       "X": 0.5,
       "Y": 1.0
      },
      "handle_right": {
       "X": 0.5,
       "Y": 0.0
      },
      "handle_type": 0,
      "interpolation": 0
     }
    ]
   },
   "shear_x": {
    "Points": [
     {
      "co": {
       "X": 1.0,
       "Y": 0.0
      },
      "handle_left": {
       "X": 0.5,
       "Y": 1.0
      },
      "handle_right": {
       "X": 0.5,
       "Y": 0.0
      },
      "handle_type": 0,
      "interpolation": 0
     }
    ]
   },
   "shear_y": {
    "Points": [
     {
      "co": {
       "X": 1.0,
       "Y": 0.0
      },
      "handle_left": {
       "X": 0.5,
       "Y": 1.0
      },
      "handle_right": {
       "X": 0.5,
       "Y": 0.0
      },
      "handle_type": 0,
      "interpolation": 0
     }
    ]
   },
   "start": 0,
   "time": {
    "Points": [
     {
      "co": {
       "X": 1.0,
       "Y": 1.0
      },
      "handle_left": {
       "X": 0.5,
       "Y": 1.0
      },
      "handle_right": {
       "X": 0.5,
       "Y": 0.0
      },
      "handle_type": 0,
      "interpolation": 0
     }
    ]
   },
   "volume": {
    "Points": [
     {
      "co": {
       "X": 1.0,
       "Y": 1.0
      },
      "handle_left": {
       "X": 0.5,
       "Y": 1.0
      },
      "handle_right": {
       "X": 0.5,
       "Y": 0.0
      },
      "handle_type": 0,
      "interpolation": 0
     }
    ]
   },
   "wave_color": {
    "alpha": {
     "Points": [
      {
       "co": {
        "X": 1.0,
        "Y": 255.0
       },
       "handle_left": {
        "X": 0.5,
        "Y": 1.0
       },
       "handle_right": {
        "X": 0.5,
        "Y": 0.0
       },
       "handle_type": 0,
       "interpolation": 0
      }
     ]
    },
    "blue": {
     "Points": [
      {
       "co": {
        "X": 1.0,
        "Y": 255.0
       },
       "handle_left": {
        "X": 0.5,
        "Y": 1.0
       },
       "handle_right": {
        "X": 0.5,
        "Y": 0.0
       },
       "handle_type": 0,
       "interpolation": 0
      }
     ]
    },
    "green": {
     "Points": [
      {
       "co": {
        "X": 1.0,
        "Y": 123.0
       },
       "handle_left": {
        "X": 0.5,
        "Y": 1.0
       },
       "handle_right": {
        "X": 0.5,
        "Y": 0.0
       },
       "handle_type": 0,
       "interpolation": 0
      }
     ]
    },
    "red": {
     "Points": [
      {
       "co": {
        "X": 1.0,
        "Y": 0.0
       },
       "handle_left": {
        "X": 0.5,
        "Y": 1.0
       },
       "handle_right": {
        "X": 0.5,
        "Y": 0.0
       },
       "handle_type": 0,
       "interpolation": 0
      }
     ]
    }
   },
   "waveform": false,
   "file_id": "3SUISLE736",
   "title": "drawing2.png",
   "image": "Tutorial_assets/thumbnail/3SUISLE736.png"
  },
  {
   "alpha": {
    "Points": [
     {
      "co": {
       "X": 1.0,
       "Y": 1.0
      },
      "handle_left": {
       "X": 0.5,
       "Y": 1.0
      },
      "handle_right": {
       "X": 0.5,
       "Y": 0.0
      },
      "handle_type": 0,
      "interpolation": 0
     }
    ]
   },
   "anchor": 0,
   "channel_filter": {
    "Points": [
     {
      "co": {
       "X": 1.0,
       "Y": -1.0
      },
      "handle_left": {
       "X": 0.5,
       "Y": 1.0
      },
      "handle_right": {
       "X": 0.5,
       "Y": 0.0
      },
      "handle_type": 0,
      "interpolation": 0
     }
    ]
   },
   "channel_mapping": {
    "Points": [
     {
      "co": {
       "X": 1.0,
       "Y": -1.0
      },
      "handle_left": {
       "X": 0.5,
       "Y": 1.0
      },
      "handle_right": {
       "X": 0.5,
       "Y": 0.0
      },
      "handle_type": 0,
      "interpolation": 0
     }
    ]
   },
   "display": 0,
   "duration": 3600.0,
   "effects": [],
   "end": 9.95733333333329,
   "gravity": 4,
   "has_audio": {
    "Points": [
     {
      "co": {
       "X": 1.0,
       "Y": -1.0
      },
      "handle_left": {
       "X": 0.5,
       "Y": 1.0
      },
      "handle_right": {
       "X": 0.5,
       "Y": 0.0
      },
      "handle_type": 0,
      "interpolation": 0
     }
    ]
   },
   "has_video": {
    "Points": [
     {
      "co": {
       "X": 1.0,
       "Y": -1.0
      },
      "handle_left": {
       "X": 0.5,
       "Y": 1.0
      },
      "handle_right": {
       "X": 0.5,
       "Y": 0.0
      },
      "handle_type": 0,
      "interpolation": 0
     }
    ]
   },
   "id": "DSRPMV8GIV",
   "layer": 2000000,
   "location_x": {
    "Points": [
     {
      "co": {
       "X": 1,
       "Y": 0.2683134887246907
      },
      "handle_left": {
       "X": 0.5,
       "Y": 1.0
      },
      "handle_right": {
       "X": 0.5,
       "Y": 0.0
      },
      "handle_type": 0,
      "interpolation": 0
     }
    ]
   },
   "location_y": {
    "Points": [
     {
      "co": {
       "X": 1,
       "Y": -0.3621211051940918
      },
      "handle_left": {
       "X": 0.5,
       "Y": 1.0
      },
      "handle_right": {
       "X": 0.5,
       "Y": 0.0
      },
      "handle_type": 0,
      "interpolation": 0
     }
    ]
   },
   "mixing": 0,
   "origin_x": {
    "Points": [
     {
      "co": {
       "X": 1.0,
       "Y": 0.5
      },
      "handle_left": {
       "X": 0.5,
       "Y": 1.0
      },
      "handle_right": {
       "X": 0.5,
       "Y": 0.0
      },
      "handle_type": 0,
      "interpolation": 0
     }
    ]
   },
   "origin_y": {
    "Points": [
     {
      "co": {
       "X": 1.0,
       "Y": 0.5
      },
      "handle_left": {
       "X": 0.5,
       "Y": 1.0
      },
      "handle_right": {
       "X": 0.5,
       "Y": 0.0
      },
      "handle_type": 0,
      "interpolation": 0
     }
    ]
   },
   "parentObjectId": "",
   "perspective_c1_x": {
    "Points": [
     {
      "co": {
       "X": 1.0,
       "Y": -1.0
      },
      "handle_left": {
       "X": 0.5,
       "Y": 1.0
      },
      "handle_right": {
       "X": 0.5,
       "Y": 0.0
      },
      "handle_type": 0,
      "interpolation": 0
     }
    ]
   },
   "perspective_c1_y": {
    "Points": [
     {
      "co": {
       "X": 1.0,
       "Y": -1.0
      },
      "handle_left": {
       "X": 0.5,
       "Y": 1.0
      },
      "handle_right": {
       "X": 0.5,
       "Y": 0.0
      },
      "handle_type": 0,
      "interpolation": 0
     }
    ]
   },
   "perspective_c2_x": {
    "Points": [
     {
      "co": {
       "X": 1.0,
       "Y": -1.0
      },
      "handle_left": {
       "X": 0.5,
       "Y": 1.0
      },
      "handle_right": {
       "X": 0.5,
       "Y": 0.0
      },
      "handle_type": 0,
      "interpolation": 0
     }
    ]
   },
   "perspective_c2_y": {
    "Points": [
     {
      "co": {
       "X": 1.0,
       "Y": -1.0
      },
      "handle_left": {
       "X": 0.5,
       "Y": 1.0
      },
      "handle_right": {
       "X": 0.5,
       "Y": 0.0
      },
      "handle_type": 0,
      "interpolation": 0
     }
    ]
   },
   "perspective_c3_x": {
    "Points": [
     {
      "co": {
       "X": 1.0,
       "Y": -1.0
      },
      "handle_left": {
       "X": 0.5,
       "Y": 1.0
      },
      "handle_right": {
       "X": 0.5,
       "Y": 0.0
      },
      "handle_type": 0,
      "interpolation": 0
     }
    ]
   },
   "perspective_c3_y": {
    "Points": [
     {
      "co": {
       "X": 1.0,
       "Y": -1.0
      },
      "handle_left": {
       "X": 0.5,
       "Y": 1.0
      },
      "handle_right": {
       "X": 0.5,
       "Y": 0.0
      },
      "handle_type": 0,
      "interpolation": 0
     }
    ]
   },
   "perspective_c4_x": {
    "Points": [
     {
      "co": {
       "X": 1.0,
       "Y": -1.0
      },
      "handle_left": {
       "X": 0.5,
       "Y": 1.0
      },
      "handle_right": {
       "X": 0.5,
       "Y": 0.0
      },
      "handle_type": 0,
      "interpolation": 0
     }
    ]
   },
   "perspective_c4_y": {
    "Points": [
     {
      "co": {
       "X": 1.0,
       "Y": -1.0
      },
      "handle_left": {
       "X": 0.5,
       "Y": 1.0
      },
      "handle_right": {
       "X": 0.5,
       "Y": 0.0
      },
      "handle_type": 0,
      "interpolation": 0
     }
    ]
   },
   "position": 20.976000000000017,
   "reader": {
    "acodec": "",
    "audio_bit_rate": 0,
    "audio_stream_index": -1,
    "audio_timebase": {
     "den": 1,
     "num": 1
    },
    "channel_layout": 4,
    "channels": 0,
    "display_ratio": {
     "den": 248,
     "num": 689
    },
    "duration": 3600.0,
    "file_size": "683488",
    "fps": {
     "den": 1,
     "num": 30
    },
    "has_audio": false,
    "has_single_image": true,
    "has_video": true,
    "height": 248,
    "interlaced_frame": false,
    "metadata": {},
    "path": "./drawing3.png",
    "pixel_format": -1,
    "pixel_ratio": {
     "den": 1,
     "num": 1
    },
    "sample_rate": 0,
    "top_field_first": true,
    "type": "QtImageReader",
    "vcodec": "",
    "video_bit_rate": 0,
    "video_length": "108000",
    "video_stream_index": -1,
    "video_timebase": {
     "den": 30,
     "num": 1
    },
    "width": 689,
    "media_type": "image",
    "id": "TW6Y7PTB0B"
   },
   "rotation": {
    "Points": [
     {
      "co": {
       "X": 1.0,
       "Y": 0.0
      },
      "handle_left": {
       "X": 0.5,
       "Y": 1.0
      },
      "handle_right": {
       "X": 0.5,
       "Y": 0.0
      },
      "handle_type": 0,
      "interpolation": 0
     }
    ]
   },
   "scale": 1,
   "scale_x": {
    "Points": [
     {
      "co": {
       "X": 1,
       "Y": 0.2879048333054304
      },
      "handle_left": {
       "X": 0.5,
       "Y": 1.0
      },
      "handle_right": {
       "X": 0.5,
       "Y": 0.0
      },
      "handle_type": 0,
      "interpolation": 0
     }
    ]
   },
   "scale_y": {
    "Points": [
     {
      "co": {
       "X": 1,
       "Y": 0.2879048333054304
      },
      "handle_left": {
       "X": 0.5,
       "Y": 1.0
      },
      "handle_right": {
       "X": 0.5,
       "Y": 0.0
      },
      "handle_type": 0,
      "interpolation": 0
     }
    ]
   },
   "shear_x": {
    "Points": [
     {
      "co": {
       "X": 1.0,
       "Y": 0.0
      },
      "handle_left": {
       "X": 0.5,
       "Y": 1.0
      },
      "handle_right": {
       "X": 0.5,
       "Y": 0.0
      },
      "handle_type": 0,
      "interpolation": 0
     }
    ]
   },
   "shear_y": {
    "Points": [
     {
      "co": {
       "X": 1.0,
       "Y": 0.0
      },
      "handle_left": {
       "X": 0.5,
       "Y": 1.0
      },
      "handle_right": {
       "X": 0.5,
       "Y": 0.0
      },
      "handle_type": 0,
      "interpolation": 0
     }
    ]
   },
   "start": 0,
   "time": {
    "Points": [
     {
      "co": {
       "X": 1.0,
       "Y": 1.0
      },
      "handle_left": {
       "X": 0.5,
       "Y": 1.0
      },
      "handle_right": {
       "X": 0.5,
       "Y": 0.0
      },
      "handle_type": 0,
      "interpolation": 0
     }
    ]
   },
   "volume": {
    "Points": [
     {
      "co": {
       "X": 1.0,
       "Y": 1.0
      },
      "handle_left": {
       "X": 0.5,
       "Y": 1.0
      },
      "handle_right": {
       "X": 0.5,
       "Y": 0.0
      },
      "handle_type": 0,
      "interpolation": 0
     }
    ]
   },
   "wave_color": {
    "alpha": {
     "Points": [
      {
       "co": {
        "X": 1.0,
        "Y": 255.0
       },
       "handle_left": {
        "X": 0.5,
        "Y": 1.0
       },
       "handle_right": {
        "X": 0.5,
        "Y": 0.0
       },
       "handle_type": 0,
       "interpolation": 0
      }
     ]
    },
    "blue": {
     "Points": [
      {
       "co": {
        "X": 1.0,
        "Y": 255.0
       },
       "handle_left": {
        "X": 0.5,
        "Y": 1.0
       },
       "handle_right": {
        "X": 0.5,
        "Y": 0.0
       },
       "handle_type": 0,
       "interpolation": 0
      }
     ]
    },
    "green": {
     "Points": [
      {
       "co": {
        "X": 1.0,
        "Y": 123.0
       },
       "handle_left": {
        "X": 0.5,
        "Y": 1.0
       },
       "handle_right": {
        "X": 0.5,
        "Y": 0.0
       },
       "handle_type": 0,
       "interpolation": 0
      }
     ]
    },
    "red": {
     "Points": [
      {
       "co": {
        "X": 1.0,
        "Y": 0.0
       },
       "handle_left": {
        "X": 0.5,
        "Y": 1.0
       },
       "handle_right": {
        "X": 0.5,
        "Y": 0.0
       },
       "handle_type": 0,
       "interpolation": 0
      }
     ]
    }
   },
   "waveform": false,
   "file_id": "TW6Y7PTB0B",
   "title": "drawing3.png",
   "image": "Tutorial_assets/thumbnail/TW6Y7PTB0B.png"
  },
  {
   "alpha": {
    "Points": [
     {
      "co": {
       "X": 1.0,
       "Y": 1.0
      },
      "handle_left": {
       "X": 0.5,
       "Y": 1.0
      },
      "handle_right": {
       "X": 0.5,
       "Y": 0.0
      },
      "handle_type": 0,
      "interpolation": 0
     }
    ]
   },
   "anchor": 0,
   "channel_filter": {
    "Points": [
     {
      "co": {
       "X": 1.0,
       "Y": -1.0
      },
      "handle_left": {
       "X": 0.5,
       "Y": 1.0
      },
      "handle_right": {
       "X": 0.5,
       "Y": 0.0
      },
      "handle_type": 0,
      "interpolation": 0
     }
    ]
   },
   "channel_mapping": {
    "Points": [
     {
      "co": {
       "X": 1.0,
       "Y": -1.0
      },
      "handle_left": {
       "X": 0.5,
       "Y": 1.0
      },
      "handle_right": {
       "X": 0.5,
       "Y": 0.0
      },
      "handle_type": 0,
      "interpolation": 0
     }
    ]
   },
   "display": 0,
   "duration": 3600.0,
   "effects": [],
   "end": 4.300000000000001,
   "gravity": 4,
   "has_audio": {
    "Points": [
     {
      "co": {
       "X": 1.0,
       "Y": -1.0
      },
      "handle_left": {
       "X": 0.5,
       "Y": 1.0
      },
      "handle_right": {
       "X": 0.5,
       "Y": 0.0
      },
      "handle_type": 0,
      "interpolation": 0
     }
    ]
   },
   "has_video": {
    "Points": [
     {
      "co": {
       "X": 1.0,
       "Y": -1.0
      },
      "handle_left": {
       "X": 0.5,
       "Y": 1.0
      },
      "handle_right": {
       "X": 0.5,
       "Y": 0.0
      },
      "handle_type": 0,
      "interpolation": 0
     }
    ]
   },
   "layer": 4000000,
   "location_x": {
    "Points": [
     {
      "co": {
       "X": 1,
       "Y": -0.05501929453383542
      },
      "handle_left": {
       "X": 0.5,
       "Y": 1.0
      },
      "handle_right": {
       "X": 0.5,
       "Y": 0.0
      },
      "handle_type": 0,
      "interpolation": 0
     }
    ]
   },
   "location_y": {
    "Points": [
     {
      "co": {
       "X": 1,
       "Y": -0.006849315017461777
      },
      "handle_left": {
       "X": 0.5,
       "Y": 1.0
      },
      "handle_right": {
       "X": 0.5,
       "Y": 0.0
      },
      "handle_type": 0,
      "interpolation": 0
     }
    ]
   },
   "mixing": 0,
   "origin_x": {
    "Points": [
     {
      "co": {
       "X": 1.0,
       "Y": 0.5
      },
      "handle_left": {
       "X": 0.5,
       "Y": 1.0
      },
      "handle_right": {
       "X": 0.5,
       "Y": 0.0
      },
      "handle_type": 0,
      "interpolation": 0
     }
    ]
   },
   "origin_y": {
    "Points": [
     {
      "co": {
       "X": 1.0,
       "Y": 0.5
      },
      "handle_left": {
       "X": 0.5,
       "Y": 1.0
      },
      "handle_right": {
       "X": 0.5,
       "Y": 0.0
      },
      "handle_type": 0,
      "interpolation": 0
     }
    ]
   },
   "parentObjectId": "",
   "perspective_c1_x": {
    "Points": [
     {
      "co": {
       "X": 1.0,
       "Y": -1.0
      },
      "handle_left": {
       "X": 0.5,
       "Y": 1.0
      },
      "handle_right": {
       "X": 0.5,
       "Y": 0.0
      },
      "handle_type": 0,
      "interpolation": 0
     }
    ]
   },
   "perspective_c1_y": {
    "Points": [
     {
      "co": {
       "X": 1.0,
       "Y": -1.0
      },
      "handle_left": {
       "X": 0.5,
       "Y": 1.0
      },
      "handle_right": {
       "X": 0.5,
       "Y": 0.0
      },
      "handle_type": 0,
      "interpolation": 0
     }
    ]
   },
   "perspective_c2_x": {
    "Points": [
     {
      "co": {
       "X": 1.0,
       "Y": -1.0
      },
      "handle_left": {
       "X": 0.5,
       "Y": 1.0
      },
      "handle_right": {
       "X": 0.5,
       "Y": 0.0
      },
      "handle_type": 0,
      "interpolation": 0
     }
    ]
   },
   "perspective_c2_y": {
    "Points": [
     {
      "co": {
       "X": 1.0,
       "Y": -1.0
      },
      "handle_left": {
       "X": 0.5,
       "Y": 1.0
      },
      "handle_right": {
       "X": 0.5,
       "Y": 0.0
      },
      "handle_type": 0,
      "interpolation": 0
     }
    ]
   },
   "perspective_c3_x": {
    "Points": [
     {
      "co": {
       "X": 1.0,
       "Y": -1.0
      },
      "handle_left": {
       "X": 0.5,
       "Y": 1.0
      },
      "handle_right": {
       "X": 0.5,
       "Y": 0.0
      },
      "handle_type": 0,
      "interpolation": 0
     }
    ]
   },
   "perspective_c3_y": {
    "Points": [
     {
      "co": {
       "X": 1.0,
       "Y": -1.0
      },
      "handle_left": {
       "X": 0.5,
       "Y": 1.0
      },
      "handle_right": {
       "X": 0.5,
       "Y": 0.0
      },
      "handle_type": 0,
      "interpolation": 0
     }
    ]
   },
   "perspective_c4_x": {
    "Points": [
     {
      "co": {
       "X": 1.0,
       "Y": -1.0
      },
      "handle_left": {
       "X": 0.5,
       "Y": 1.0
      },
      "handle_right": {
       "X": 0.5,
       "Y": 0.0
      },
      "handle_type": 0,
      "interpolation": 0
     }
    ]
   },
   "perspective_c4_y": {
    "Points": [
     {
      "co": {
       "X": 1.0,
       "Y": -1.0
      },
      "handle_left": {
       "X": 0.5,
       "Y": 1.0
      },
      "handle_right": {
       "X": 0.5,
       "Y": 0.0
      },
      "handle_type": 0,
      "interpolation": 0
     }
    ]
   },
   "position": 21.966666666666665,
   "reader": {
    "acodec": "",
    "audio_bit_rate": 0,
    "audio_stream_index": -1,
    "audio_timebase": {
     "den": 1,
     "num": 1
    },
    "channel_layout": 4,
    "channels": 0,
    "display_ratio": {
     "den": 1,
     "num": 1
    },
    "duration": 3600.0,
    "file_size": "422500",
    "fps": {
     "den": 1,
     "num": 30
    },
    "has_audio": false,
    "has_single_image": true,
    "has_video": true,
    "height": 325,
    "interlaced_frame": false,
    "metadata": {},
    "path": "./circle.png",
    "pixel_format": -1,
    "pixel_ratio": {
     "den": 1,
     "num": 1
    },
    "sample_rate": 0,
    "top_field_first": true,
    "type": "QtImageReader",
    "vcodec": "",
    "video_bit_rate": 0,
    "video_length": "108000",
    "video_stream_index": -1,
    "video_timebase": {
     "den": 30,
     "num": 1
    },
    "width": 325,
    "media_type": "image",
    "id": "S5LMSTC1KY"
   },
   "rotation": {
    "Points": [
     {
      "co": {
       "X": 1.0,
       "Y": 0.0
      },
      "handle_left": {
       "X": 0.5,
       "Y": 1.0
      },
      "handle_right": {
       "X": 0.5,
       "Y": 0.0
      },
      "handle_type": 0,
      "interpolation": 0
     }
    ]
   },
   "scale": 1,
   "scale_x": {
    "Points": [
     {
      "co": {
       "X": 1,
       "Y": 0.1198630351318072
      },
      "handle_left": {
       "X": 0.5,
       "Y": 1.0
      },
      "handle_right": {
       "X": 0.5,
       "Y": 0.0
      },
      "handle_type": 0,
      "interpolation": 0
     }
    ]
   },
   "scale_y": {
    "Points": [
     {
      "co": {
       "X": 1,
       "Y": 0.1198630351318072
      },
      "handle_left": {
       "X": 0.5,
       "Y": 1.0
      },
      "handle_right": {
       "X": 0.5,
       "Y": 0.0
      },
      "handle_type": 0,
      "interpolation": 0
     }
    ]
   },
   "shear_x": {
    "Points": [
     {
      "co": {
       "X": 1.0,
       "Y": 0.0
      },
      "handle_left": {
       "X": 0.5,
       "Y": 1.0
      },
      "handle_right": {
       "X": 0.5,
       "Y": 0.0
      },
      "handle_type": 0,
      "interpolation": 0
     }
    ]
   },
   "shear_y": {
    "Points": [
     {
      "co": {
       "X": 1.0,
       "Y": 0.0
      },
      "handle_left": {
       "X": 0.5,
       "Y": 1.0
      },
      "handle_right": {
       "X": 0.5,
       "Y": 0.0
      },
      "handle_type": 0,
      "interpolation": 0
     }
    ]
   },
   "start": 0,
   "time": {
    "Points": [
     {
      "co": {
       "X": 1.0,
       "Y": 1.0
      },
      "handle_left": {
       "X": 0.5,
       "Y": 1.0
      },
      "handle_right": {
       "X": 0.5,
       "Y": 0.0
      },
      "handle_type": 0,
      "interpolation": 0
     }
    ]
   },
   "volume": {
    "Points": [
     {
      "co": {
       "X": 1.0,
       "Y": 1.0
      },
      "handle_left": {
       "X": 0.5,
       "Y": 1.0
      },
      "handle_right": {
       "X": 0.5,
       "Y": 0.0
      },
      "handle_type": 0,
      "interpolation": 0
     }
    ]
   },
   "wave_color": {
    "alpha": {
     "Points": [
      {
       "co": {
        "X": 1.0,
        "Y": 255.0
       },
       "handle_left": {
        "X": 0.5,
        "Y": 1.0
       },
       "handle_right": {
        "X": 0.5,
        "Y": 0.0
       },
       "handle_type": 0,
       "interpolation": 0
      }
     ]
    },
    "blue": {
     "Points": [
      {
       "co": {
        "X": 1.0,
        "Y": 255.0
       },
       "handle_left": {
        "X": 0.5,
        "Y": 1.0
       },
       "handle_right": {
        "X": 0.5,
        "Y": 0.0
       },
       "handle_type": 0,
       "interpolation": 0
      }
     ]
    },
    "green": {
     "Points": [
      {
       "co": {
        "X": 1.0,
        "Y": 123.0
       },
       "handle_left": {
        "X": 0.5,
        "Y": 1.0
       },
       "handle_right": {
        "X": 0.5,
        "Y": 0.0
       },
       "handle_type": 0,
       "interpolation": 0
      }
     ]
    },
    "red": {
     "Points": [
      {
       "co": {
        "X": 1.0,
        "Y": 0.0
       },
       "handle_left": {
        "X": 0.5,
        "Y": 1.0
       },
       "handle_right": {
        "X": 0.5,
        "Y": 0.0
       },
       "handle_type": 0,
       "interpolation": 0
      }
     ]
    }
   },
   "waveform": false,
   "file_id": "S5LMSTC1KY",
   "title": "circle.png",
   "image": "Tutorial_assets/thumbnail/S5LMSTC1KY.png",
   "id": "0NKBWRZ62G"
  },
  {
   "alpha": {
    "Points": [
     {
      "co": {
       "X": 1.0,
       "Y": 1.0
      },
      "handle_left": {
       "X": 0.5,
       "Y": 1.0
      },
      "handle_right": {
       "X": 0.5,
       "Y": 0.0
      },
      "handle_type": 0,
      "interpolation": 0
     }
    ]
   },
   "anchor": 0,
   "channel_filter": {
    "Points": [
     {
      "co": {
       "X": 1.0,
       "Y": -1.0
      },
      "handle_left": {
       "X": 0.5,
       "Y": 1.0
      },
      "handle_right": {
       "X": 0.5,
       "Y": 0.0
      },
      "handle_type": 0,
      "interpolation": 0
     }
    ]
   },
   "channel_mapping": {
    "Points": [
     {
      "co": {
       "X": 1.0,
       "Y": -1.0
      },
      "handle_left": {
       "X": 0.5,
       "Y": 1.0
      },
      "handle_right": {
       "X": 0.5,
       "Y": 0.0
      },
      "handle_type": 0,
      "interpolation": 0
     }
    ]
   },
   "display": 0,
   "duration": 3600.0,
   "effects": [],
   "end": 4.300000000000001,
   "gravity": 4,
   "has_audio": {
    "Points": [
     {
      "co": {
       "X": 1.0,
       "Y": -1.0
      },
      "handle_left": {
       "X": 0.5,
       "Y": 1.0
      },
      "handle_right": {
       "X": 0.5,
       "Y": 0.0
      },
      "handle_type": 0,
      "interpolation": 0
     }
    ]
   },
   "has_video": {
    "Points": [
     {
      "co": {
       "X": 1.0,
       "Y": -1.0
      },
      "handle_left": {
       "X": 0.5,
       "Y": 1.0
      },
      "handle_right": {
       "X": 0.5,
       "Y": 0.0
      },
      "handle_type": 0,
      "interpolation": 0
     }
    ]
   },
   "layer": 3000000,
   "location_x": {
    "Points": [
     {
      "co": {
       "X": 1,
       "Y": -0.013513515081299778
      },
      "handle_left": {
       "X": 0.5,
       "Y": 1.0
      },
      "handle_right": {
       "X": 0.5,
       "Y": 0.0
      },
      "handle_type": 0,
      "interpolation": 0
     }
    ]
   },
   "location_y": {
    "Points": [
     {
      "co": {
       "X": 1,
       "Y": 0.17123281955718994
      },
      "handle_left": {
       "X": 0.5,
       "Y": 1.0
      },
      "handle_right": {
       "X": 0.5,
       "Y": 0.0
      },
      "handle_type": 0,
      "interpolation": 0
     }
    ]
   },
   "mixing": 0,
   "origin_x": {
    "Points": [
     {
      "co": {
       "X": 1.0,
       "Y": 0.5
      },
      "handle_left": {
       "X": 0.5,
       "Y": 1.0
      },
      "handle_right": {
       "X": 0.5,
       "Y": 0.0
      },
      "handle_type": 0,
      "interpolation": 0
     }
    ]
   },
   "origin_y": {
    "Points": [
     {
      "co": {
       "X": 1.0,
       "Y": 0.5
      },
      "handle_left": {
       "X": 0.5,
       "Y": 1.0
      },
      "handle_right": {
       "X": 0.5,
       "Y": 0.0
      },
      "handle_type": 0,
      "interpolation": 0
     }
    ]
   },
   "parentObjectId": "",
   "perspective_c1_x": {
    "Points": [
     {
      "co": {
       "X": 1.0,
       "Y": -1.0
      },
      "handle_left": {
       "X": 0.5,
       "Y": 1.0
      },
      "handle_right": {
       "X": 0.5,
       "Y": 0.0
      },
      "handle_type": 0,
      "interpolation": 0
     }
    ]
   },
   "perspective_c1_y": {
    "Points": [
     {
      "co": {
       "X": 1.0,
       "Y": -1.0
      },
      "handle_left": {
       "X": 0.5,
       "Y": 1.0
      },
      "handle_right": {
       "X": 0.5,
       "Y": 0.0
      },
      "handle_type": 0,
      "interpolation": 0
     }
    ]
   },
   "perspective_c2_x": {
    "Points": [
     {
      "co": {
       "X": 1.0,
       "Y": -1.0
      },
      "handle_left": {
       "X": 0.5,
       "Y": 1.0
      },
      "handle_right": {
       "X": 0.5,
       "Y": 0.0
      },
      "handle_type": 0,
      "interpolation": 0
     }
    ]
   },
   "perspective_c2_y": {
    "Points": [
     {
      "co": {
       "X": 1.0,
       "Y": -1.0
      },
      "handle_left": {
       "X": 0.5,
       "Y": 1.0
      },
      "handle_right": {
       "X": 0.5,
       "Y": 0.0
      },
      "handle_type": 0,
      "interpolation": 0
     }
    ]
   },
   "perspective_c3_x": {
    "Points": [
     {
      "co": {
       "X": 1.0,
       "Y": -1.0
      },
      "handle_left": {
       "X": 0.5,
       "Y": 1.0
      },
      "handle_right": {
       "X": 0.5,
       "Y": 0.0
      },
      "handle_type": 0,
      "interpolation": 0
     }
    ]
   },
   "perspective_c3_y": {
    "Points": [
     {
      "co": {
       "X": 1.0,
       "Y": -1.0
      },
      "handle_left": {
       "X": 0.5,
       "Y": 1.0
      },
      "handle_right": {
       "X": 0.5,
       "Y": 0.0
      },
      "handle_type": 0,
      "interpolation": 0
     }
    ]
   },
   "perspective_c4_x": {
    "Points": [
     {
      "co": {
       "X": 1.0,
       "Y": -1.0
      },
      "handle_left": {
       "X": 0.5,
       "Y": 1.0
      },
      "handle_right": {
       "X": 0.5,
       "Y": 0.0
      },
      "handle_type": 0,
      "interpolation": 0
     }
    ]
   },
   "perspective_c4_y": {
    "Points": [
     {
      "co": {
       "X": 1.0,
       "Y": -1.0
      },
      "handle_left": {
       "X": 0.5,
       "Y": 1.0
      },
      "handle_right": {
       "X": 0.5,
       "Y": 0.0
      },
      "handle_type": 0,
      "interpolation": 0
     }
    ]
   },
   "position": 21.966666666666665,
   "reader": {
    "acodec": "",
    "audio_bit_rate": 0,
    "audio_stream_index": -1,
    "audio_timebase": {
     "den": 1,
     "num": 1
    },
    "channel_layout": 4,
    "channels": 0,
    "display_ratio": {
     "den": 1,
     "num": 1
    },
    "duration": 3600.0,
    "file_size": "422500",
    "fps": {
     "den": 1,
     "num": 30
    },
    "has_audio": false,
    "has_single_image": true,
    "has_video": true,
    "height": 325,
    "interlaced_frame": false,
    "metadata": {},
    "path": "./circle.png",
    "pixel_format": -1,
    "pixel_ratio": {
     "den": 1,
     "num": 1
    },
    "sample_rate": 0,
    "top_field_first": true,
    "type": "QtImageReader",
    "vcodec": "",
    "video_bit_rate": 0,
    "video_length": "108000",
    "video_stream_index": -1,
    "video_timebase": {
     "den": 30,
     "num": 1
    },
    "width": 325,
    "media_type": "image",
    "id": "S5LMSTC1KY"
   },
   "rotation": {
    "Points": [
     {
      "co": {
       "X": 1.0,
       "Y": 0.0
      },
      "handle_left": {
       "X": 0.5,
       "Y": 1.0
      },
      "handle_right": {
       "X": 0.5,
       "Y": 0.0
      },
      "handle_type": 0,
      "interpolation": 0
     }
    ]
   },
   "scale": 1,
   "scale_x": {
    "Points": [
     {
      "co": {
       "X": 1,
       "Y": 0.12671229059565559
      },
      "handle_left": {
       "X": 0.5,
       "Y": 1.0
      },
      "handle_right": {
       "X": 0.5,
       "Y": 0.0
      },
      "handle_type": 0,
      "interpolation": 0
     }
    ]
   },
   "scale_y": {
    "Points": [
     {
      "co": {
       "X": 1,
       "Y": 0.12671229059565559
      },
      "handle_left": {
       "X": 0.5,
       "Y": 1.0
      },
      "handle_right": {
       "X": 0.5,
       "Y": 0.0
      },
      "handle_type": 0,
      "interpolation": 0
     }
    ]
   },
   "shear_x": {
    "Points": [
     {
      "co": {
       "X": 1.0,
       "Y": 0.0
      },
      "handle_left": {
       "X": 0.5,
       "Y": 1.0
      },
      "handle_right": {
       "X": 0.5,
       "Y": 0.0
      },
      "handle_type": 0,
      "interpolation": 0
     }
    ]
   },
   "shear_y": {
    "Points": [
     {
      "co": {
       "X": 1.0,
       "Y": 0.0
      },
      "handle_left": {
       "X": 0.5,
       "Y": 1.0
      },
      "handle_right": {
       "X": 0.5,
       "Y": 0.0
      },
      "handle_type": 0,
      "interpolation": 0
     }
    ]
   },
   "start": 0,
   "time": {
    "Points": [
     {
      "co": {
       "X": 1.0,
       "Y": 1.0
      },
      "handle_left": {
       "X": 0.5,
       "Y": 1.0
      },
      "handle_right": {
       "X": 0.5,
       "Y": 0.0
      },
      "handle_type": 0,
      "interpolation": 0
     }
    ]
   },
   "volume": {
    "Points": [
     {
      "co": {
       "X": 1.0,
       "Y": 1.0
      },
      "handle_left": {
       "X": 0.5,
       "Y": 1.0
      },
      "handle_right": {
       "X": 0.5,
       "Y": 0.0
      },
      "handle_type": 0,
      "interpolation": 0
     }
    ]
   },
   "wave_color": {
    "alpha": {
     "Points": [
      {
       "co": {
        "X": 1.0,
        "Y": 255.0
       },
       "handle_left": {
        "X": 0.5,
        "Y": 1.0
       },
       "handle_right": {
        "X": 0.5,
        "Y": 0.0
       },
       "handle_type": 0,
       "interpolation": 0
      }
     ]
    },
    "blue": {
     "Points": [
      {
       "co": {
        "X": 1.0,
        "Y": 255.0
       },
       "handle_left": {
        "X": 0.5,
        "Y": 1.0
       },
       "handle_right": {
        "X": 0.5,
        "Y": 0.0
       },
       "handle_type": 0,
       "interpolation": 0
      }
     ]
    },
    "green": {
     "Points": [
      {
       "co": {
        "X": 1.0,
        "Y": 123.0
       },
       "handle_left": {
        "X": 0.5,
        "Y": 1.0
       },
       "handle_right": {
        "X": 0.5,
        "Y": 0.0
       },
       "handle_type": 0,
       "interpolation": 0
      }
     ]
    },
    "red": {
     "Points": [
      {
       "co": {
        "X": 1.0,
        "Y": 0.0
       },
       "handle_left": {
        "X": 0.5,
        "Y": 1.0
       },
       "handle_right": {
        "X": 0.5,
        "Y": 0.0
       },
       "handle_type": 0,
       "interpolation": 0
      }
     ]
    }
   },
   "waveform": false,
   "file_id": "S5LMSTC1KY",
   "title": "circle.png",
   "image": "Tutorial_assets/thumbnail/S5LMSTC1KY.png",
   "id": "NAVA9O99UV"
  },
  {
   "alpha": {
    "Points": [
     {
      "co": {
       "X": 1.0,
       "Y": 1.0
      },
      "handle_left": {
       "X": 0.5,
       "Y": 1.0
      },
      "handle_right": {
       "X": 0.5,
       "Y": 0.0
      },
      "handle_type": 0,
      "interpolation": 0
     }
    ]
   },
   "anchor": 0,
   "channel_filter": {
    "Points": [
     {
      "co": {
       "X": 1.0,
       "Y": -1.0
      },
      "handle_left": {
       "X": 0.5,
       "Y": 1.0
      },
      "handle_right": {
       "X": 0.5,
       "Y": 0.0
      },
      "handle_type": 0,
      "interpolation": 0
     }
    ]
   },
   "channel_mapping": {
    "Points": [
     {
      "co": {
       "X": 1.0,
       "Y": -1.0
      },
      "handle_left": {
       "X": 0.5,
       "Y": 1.0
      },
      "handle_right": {
       "X": 0.5,
       "Y": 0.0
      },
      "handle_type": 0,
      "interpolation": 0
     }
    ]
   },
   "display": 0,
   "duration": 3600.0,
   "effects": [],
   "end": 4.300000000000001,
   "gravity": 4,
   "has_audio": {
    "Points": [
     {
      "co": {
       "X": 1.0,
       "Y": -1.0
      },
      "handle_left": {
       "X": 0.5,
       "Y": 1.0
      },
      "handle_right": {
       "X": 0.5,
       "Y": 0.0
      },
      "handle_type": 0,
      "interpolation": 0
     }
    ]
   },
   "has_video": {
    "Points": [
     {
      "co": {
       "X": 1.0,
       "Y": -1.0
      },
      "handle_left": {
       "X": 0.5,
       "Y": 1.0
      },
      "handle_right": {
       "X": 0.5,
       "Y": 0.0
      },
      "handle_type": 0,
      "interpolation": 0
     }
    ]
   },
   "id": "10O9VBBN3K",
   "layer": 6000000,
   "location_x": {
    "Points": [
     {
      "co": {
       "X": 37,
       "Y": -0.13798822462558746
      },
      "interpolation": 0
     }
    ]
   },
   "location_y": {
    "Points": [
     {
      "co": {
       "X": 37,
       "Y": -0.03028408718639857
      },
      "interpolation": 0
     }
    ]
   },
   "mixing": 0,
   "origin_x": {
    "Points": [
     {
      "co": {
       "X": 1.0,
       "Y": 0.5
      },
      "handle_left": {
       "X": 0.5,
       "Y": 1.0
      },
      "handle_right": {
       "X": 0.5,
       "Y": 0.0
      },
      "handle_type": 0,
      "interpolation": 0
     }
    ]
   },
   "origin_y": {
    "Points": [
     {
      "co": {
       "X": 1.0,
       "Y": 0.5
      },
      "handle_left": {
       "X": 0.5,
       "Y": 1.0
      },
      "handle_right": {
       "X": 0.5,
       "Y": 0.0
      },
      "handle_type": 0,
      "interpolation": 0
     }
    ]
   },
   "parentObjectId": "",
   "perspective_c1_x": {
    "Points": [
     {
      "co": {
       "X": 1.0,
       "Y": -1.0
      },
      "handle_left": {
       "X": 0.5,
       "Y": 1.0
      },
      "handle_right": {
       "X": 0.5,
       "Y": 0.0
      },
      "handle_type": 0,
      "interpolation": 0
     }
    ]
   },
   "perspective_c1_y": {
    "Points": [
     {
      "co": {
       "X": 1.0,
       "Y": -1.0
      },
      "handle_left": {
       "X": 0.5,
       "Y": 1.0
      },
      "handle_right": {
       "X": 0.5,
       "Y": 0.0
      },
      "handle_type": 0,
      "interpolation": 0
     }
    ]
   },
   "perspective_c2_x": {
    "Points": [
     {
      "co": {
       "X": 1.0,
       "Y": -1.0
      },
      "handle_left": {
       "X": 0.5,
       "Y": 1.0
      },
      "handle_right": {
       "X": 0.5,
       "Y": 0.0
      },
      "handle_type": 0,
      "interpolation": 0
     }
    ]
   },
   "perspective_c2_y": {
    "Points": [
     {
      "co": {
       "X": 1.0,
       "Y": -1.0
      },
      "handle_left": {
       "X": 0.5,
       "Y": 1.0
      },
      "handle_right": {
       "X": 0.5,
       "Y": 0.0
      },
      "handle_type": 0,
      "interpolation": 0
     }
    ]
   },
   "perspective_c3_x": {
    "Points": [
     {
      "co": {
       "X": 1.0,
       "Y": -1.0
      },
      "handle_left": {
       "X": 0.5,
       "Y": 1.0
      },
      "handle_right": {
       "X": 0.5,
       "Y": 0.0
      },
      "handle_type": 0,
      "interpolation": 0
     }
    ]
   },
   "perspective_c3_y": {
    "Points": [
     {
      "co": {
       "X": 1.0,
       "Y": -1.0
      },
      "handle_left": {
       "X": 0.5,
       "Y": 1.0
      },
      "handle_right": {
       "X": 0.5,
       "Y": 0.0
      },
      "handle_type": 0,
      "interpolation": 0
     }
    ]
   },
   "perspective_c4_x": {
    "Points": [
     {
      "co": {
       "X": 1.0,
       "Y": -1.0
      },
      "handle_left": {
       "X": 0.5,
       "Y": 1.0
      },
      "handle_right": {
       "X": 0.5,
       "Y": 0.0
      },
      "handle_type": 0,
      "interpolation": 0
     }
    ]
   },
   "perspective_c4_y": {
    "Points": [
     {
      "co": {
       "X": 1.0,
       "Y": -1.0
      },
      "handle_left": {
       "X": 0.5,
       "Y": 1.0
      },
      "handle_right": {
       "X": 0.5,
       "Y": 0.0
      },
      "handle_type": 0,
      "interpolation": 0
     }
    ]
   },
   "position": 21.966666666666665,
   "reader": {
    "acodec": "",
    "audio_bit_rate": 0,
    "audio_stream_index": -1,
    "audio_timebase": {
     "den": 1,
     "num": 1
    },
    "channel_layout": 4,
    "channels": 0,
    "display_ratio": {
     "den": 32,
     "num": 293
    },
    "duration": 3600.0,
    "file_size": "37504",
    "fps": {
     "den": 1,
     "num": 30
    },
    "has_audio": false,
    "has_single_image": true,
    "has_video": true,
    "height": 32,
    "interlaced_frame": false,
    "metadata": {},
    "path": "./arrow.png",
    "pixel_format": -1,
    "pixel_ratio": {
     "den": 1,
     "num": 1
    },
    "sample_rate": 0,
    "top_field_first": true,
    "type": "QtImageReader",
    "vcodec": "",
    "video_bit_rate": 0,
    "video_length": "108000",
    "video_stream_index": -1,
    "video_timebase": {
     "den": 30,
     "num": 1
    },
    "width": 293,
    "media_type": "image",
    "id": "N0UHXUNZM4"
   },
   "rotation": {
    "Points": [
     {
      "co": {
       "X": 37,
       "Y": 47.89036032047799
      },
      "interpolation": 0
     }
    ]
   },
   "scale": 1,
   "scale_x": {
    "Points": [
     {
      "co": {
       "X": 37,
       "Y": 0.27413147377231406
      },
      "interpolation": 0
     }
    ]
   },
   "scale_y": {
    "Points": [
     {
      "co": {
       "X": 37,
       "Y": 0.1698843538761139
      },
      "interpolation": 0
     }
    ]
   },
   "shear_x": {
    "Points": [
     {
      "co": {
       "X": 1.0,
       "Y": 0.0
      },
      "handle_left": {
       "X": 0.5,
       "Y": 1.0
      },
      "handle_right": {
       "X": 0.5,
       "Y": 0.0
      },
      "handle_type": 0,
      "interpolation": 0
     }
    ]
   },
   "shear_y": {
    "Points": [
     {
      "co": {
       "X": 1.0,
       "Y": 0.0
      },
      "handle_left": {
       "X": 0.5,
       "Y": 1.0
      },
      "handle_right": {
       "X": 0.5,
       "Y": 0.0
      },
      "handle_type": 0,
      "interpolation": 0
     }
    ]
   },
   "start": 0,
   "time": {
    "Points": [
     {
      "co": {
       "X": 1.0,
       "Y": 1.0
      },
      "handle_left": {
       "X": 0.5,
       "Y": 1.0
      },
      "handle_right": {
       "X": 0.5,
       "Y": 0.0
      },
      "handle_type": 0,
      "interpolation": 0
     }
    ]
   },
   "volume": {
    "Points": [
     {
      "co": {
       "X": 1.0,
       "Y": 1.0
      },
      "handle_left": {
       "X": 0.5,
       "Y": 1.0
      },
      "handle_right": {
       "X": 0.5,
       "Y": 0.0
      },
      "handle_type": 0,
      "interpolation": 0
     }
    ]
   },
   "wave_color": {
    "alpha": {
     "Points": [
      {
       "co": {
        "X": 1.0,
        "Y": 255.0
       },
       "handle_left": {
        "X": 0.5,
        "Y": 1.0
       },
       "handle_right": {
        "X": 0.5,
        "Y": 0.0
       },
       "handle_type": 0,
       "interpolation": 0
      }
     ]
    },
    "blue": {
     "Points": [
      {
       "co": {
        "X": 1.0,
        "Y": 255.0
       },
       "handle_left": {
        "X": 0.5,
        "Y": 1.0
       },
       "handle_right": {
        "X": 0.5,
        "Y": 0.0
       },
       "handle_type": 0,
       "interpolation": 0
      }
     ]
    },
    "green": {
     "Points": [
      {
       "co": {
        "X": 1.0,
        "Y": 123.0
       },
       "handle_left": {
        "X": 0.5,
        "Y": 1.0
       },
       "handle_right": {
        "X": 0.5,
        "Y": 0.0
       },
       "handle_type": 0,
       "interpolation": 0
      }
     ]
    },
    "red": {
     "Points": [
      {
       "co": {
        "X": 1.0,
        "Y": 0.0
       },
       "handle_left": {
        "X": 0.5,
        "Y": 1.0
       },
       "handle_right": {
        "X": 0.5,
        "Y": 0.0
       },
       "handle_type": 0,
       "interpolation": 0
      }
     ]
    }
   },
   "waveform": false,
   "file_id": "N0UHXUNZM4",
   "title": "arrow.png",
   "image": "Tutorial_assets/thumbnail/N0UHXUNZM4.png"
  },
  {
   "alpha": {
    "Points": [
     {
      "co": {
       "X": 1.0,
       "Y": 1.0
      },
      "handle_left": {
       "X": 0.5,
       "Y": 1.0
      },
      "handle_right": {
       "X": 0.5,
       "Y": 0.0
      },
      "handle_type": 0,
      "interpolation": 0
     }
    ]
   },
   "anchor": 0,
   "channel_filter": {
    "Points": [
     {
      "co": {
       "X": 1.0,
       "Y": -1.0
      },
      "handle_left": {
       "X": 0.5,
       "Y": 1.0
      },
      "handle_right": {
       "X": 0.5,
       "Y": 0.0
      },
      "handle_type": 0,
      "interpolation": 0
     }
    ]
   },
   "channel_mapping": {
    "Points": [
     {
      "co": {
       "X": 1.0,
       "Y": -1.0
      },
      "handle_left": {
       "X": 0.5,
       "Y": 1.0
      },
      "handle_right": {
       "X": 0.5,
       "Y": 0.0
      },
      "handle_type": 0,
      "interpolation": 0
     }
    ]
   },
   "display": 0,
   "duration": 3600.0,
   "effects": [],
   "end": 4.300000000000001,
   "gravity": 4,
   "has_audio": {
    "Points": [
     {
      "co": {
       "X": 1.0,
       "Y": -1.0
      },
      "handle_left": {
       "X": 0.5,
       "Y": 1.0
      },
      "handle_right": {
       "X": 0.5,
       "Y": 0.0
      },
      "handle_type": 0,
      "interpolation": 0
     }
    ]
   },
   "has_video": {
    "Points": [
     {
      "co": {
       "X": 1.0,
       "Y": -1.0
      },
      "handle_left": {
       "X": 0.5,
       "Y": 1.0
      },
      "handle_right": {
       "X": 0.5,
       "Y": 0.0
      },
      "handle_type": 0,
      "interpolation": 0
     }
    ]
   },
   "layer": 5000000,
   "location_x": {
    "Points": [
     {
      "co": {
       "X": 1,
       "Y": -0.14906302952482103
      },
      "handle_left": {
       "X": 0.5,
       "Y": 1.0
      },
      "handle_right": {
       "X": 0.5,
       "Y": 0.0
      },
      "handle_type": 0,
      "interpolation": 0
     }
    ]
   },
   "location_y": {
    "Points": [
     {
      "co": {
       "X": 1,
       "Y": -0.12878787662043717
      },
      "handle_left": {
       "X": 0.5,
       "Y": 1.0
      },
      "handle_right": {
       "X": 0.5,
       "Y": 0.0
      },
      "handle_type": 0,
      "interpolation": 0
     }
    ]
   },
   "mixing": 0,
   "origin_x": {
    "Points": [
     {
      "co": {
       "X": 1.0,
       "Y": 0.5
      },
      "handle_left": {
       "X": 0.5,
       "Y": 1.0
      },
      "handle_right": {
       "X": 0.5,
       "Y": 0.0
      },
      "handle_type": 0,
      "interpolation": 0
     }
    ]
   },
   "origin_y": {
    "Points": [
     {
      "co": {
       "X": 1.0,
       "Y": 0.5
      },
      "handle_left": {
       "X": 0.5,
       "Y": 1.0
      },
      "handle_right": {
       "X": 0.5,
       "Y": 0.0
      },
      "handle_type": 0,
      "interpolation": 0
     }
    ]
   },
   "parentObjectId": "",
   "perspective_c1_x": {
    "Points": [
     {
      "co": {
       "X": 1.0,
       "Y": -1.0
      },
      "handle_left": {
       "X": 0.5,
       "Y": 1.0
      },
      "handle_right": {
       "X": 0.5,
       "Y": 0.0
      },
      "handle_type": 0,
      "interpolation": 0
     }
    ]
   },
   "perspective_c1_y": {
    "Points": [
     {
      "co": {
       "X": 1.0,
       "Y": -1.0
      },
      "handle_left": {
       "X": 0.5,
       "Y": 1.0
      },
      "handle_right": {
       "X": 0.5,
       "Y": 0.0
      },
      "handle_type": 0,
      "interpolation": 0
     }
    ]
   },
   "perspective_c2_x": {
    "Points": [
     {
      "co": {
       "X": 1.0,
       "Y": -1.0
      },
      "handle_left": {
       "X": 0.5,
       "Y": 1.0
      },
      "handle_right": {
       "X": 0.5,
       "Y": 0.0
      },
      "handle_type": 0,
      "interpolation": 0
     }
    ]
   },
   "perspective_c2_y": {
    "Points": [
     {
      "co": {
       "X": 1.0,
       "Y": -1.0
      },
      "handle_left": {
       "X": 0.5,
       "Y": 1.0
      },
      "handle_right": {
       "X": 0.5,
       "Y": 0.0
      },
      "handle_type": 0,
      "interpolation": 0
     }
    ]
   },
   "perspective_c3_x": {
    "Points": [
     {
      "co": {
       "X": 1.0,
       "Y": -1.0
      },
      "handle_left": {
       "X": 0.5,
       "Y": 1.0
      },
      "handle_right": {
       "X": 0.5,
       "Y": 0.0
      },
      "handle_type": 0,
      "interpolation": 0
     }
    ]
   },
   "perspective_c3_y": {
    "Points": [
     {
      "co": {
       "X": 1.0,
       "Y": -1.0
      },
      "handle_left": {
       "X": 0.5,
       "Y": 1.0
      },
      "handle_right": {
       "X": 0.5,
       "Y": 0.0
      },
      "handle_type": 0,
      "interpolation": 0
     }
    ]
   },
   "perspective_c4_x": {
    "Points": [
     {
      "co": {
       "X": 1.0,
       "Y": -1.0
      },
      "handle_left": {
       "X": 0.5,
       "Y": 1.0
      },
      "handle_right": {
       "X": 0.5,
       "Y": 0.0
      },
      "handle_type": 0,
      "interpolation": 0
     }
    ]
   },
   "perspective_c4_y": {
    "Points": [
     {
      "co": {
       "X": 1.0,
       "Y": -1.0
      },
      "handle_left": {
       "X": 0.5,
       "Y": 1.0
      },
      "handle_right": {
       "X": 0.5,
       "Y": 0.0
      },
      "handle_type": 0,
      "interpolation": 0
     }
    ]
   },
   "position": 21.966666666666665,
   "reader": {
    "acodec": "",
    "audio_bit_rate": 0,
    "audio_stream_index": -1,
    "audio_timebase": {
     "den": 1,
     "num": 1
    },
    "channel_layout": 4,
    "channels": 0,
    "display_ratio": {
     "den": 32,
     "num": 293
    },
    "duration": 3600.0,
    "file_size": "37504",
    "fps": {
     "den": 1,
     "num": 30
    },
    "has_audio": false,
    "has_single_image": true,
    "has_video": true,
    "height": 32,
    "interlaced_frame": false,
    "metadata": {},
    "path": "./arrow.png",
    "pixel_format": -1,
    "pixel_ratio": {
     "den": 1,
     "num": 1
    },
    "sample_rate": 0,
    "top_field_first": true,
    "type": "QtImageReader",
    "vcodec": "",
    "video_bit_rate": 0,
    "video_length": "108000",
    "video_stream_index": -1,
    "video_timebase": {
     "den": 30,
     "num": 1
    },
    "width": 293,
    "media_type": "image",
    "id": "N0UHXUNZM4"
   },
   "rotation": {
    "Points": [
     {
      "co": {
       "X": 1,
       "Y": 35.352285457945094
      },
      "handle_left": {
       "X": 0.5,
       "Y": 1.0
      },
      "handle_right": {
       "X": 0.5,
       "Y": 0.0
      },
      "handle_type": 0,
      "interpolation": 0
     }
    ]
   },
   "scale": 1,
   "scale_x": {
    "Points": [
     {
      "co": {
       "X": 1,
       "Y": 0.16988435076930808
      },
      "handle_left": {
       "X": 0.5,
       "Y": 1.0
      },
      "handle_right": {
       "X": 0.5,
       "Y": 0.0
      },
      "handle_type": 0,
      "interpolation": 0
     }
    ]
   },
   "scale_y": {
    "Points": [
     {
      "co": {
       "X": 1,
       "Y": 0.16988435076930808
      },
      "handle_left": {
       "X": 0.5,
       "Y": 1.0
      },
      "handle_right": {
       "X": 0.5,
       "Y": 0.0
      },
      "handle_type": 0,
      "interpolation": 0
     }
    ]
   },
   "shear_x": {
    "Points": [
     {
      "co": {
       "X": 1.0,
       "Y": 0.0
      },
      "handle_left": {
       "X": 0.5,
       "Y": 1.0
      },
      "handle_right": {
       "X": 0.5,
       "Y": 0.0
      },
      "handle_type": 0,
      "interpolation": 0
     }
    ]
   },
   "shear_y": {
    "Points": [
     {
      "co": {
       "X": 1.0,
       "Y": 0.0
      },
      "handle_left": {
       "X": 0.5,
       "Y": 1.0
      },
      "handle_right": {
       "X": 0.5,
       "Y": 0.0
      },
      "handle_type": 0,
      "interpolation": 0
     }
    ]
   },
   "start": 0,
   "time": {
    "Points": [
     {
      "co": {
       "X": 1.0,
       "Y": 1.0
      },
      "handle_left": {
       "X": 0.5,
       "Y": 1.0
      },
      "handle_right": {
       "X": 0.5,
       "Y": 0.0
      },
      "handle_type": 0,
      "interpolation": 0
     }
    ]
   },
   "volume": {
    "Points": [
     {
      "co": {
       "X": 1.0,
       "Y": 1.0
      },
      "handle_left": {
       "X": 0.5,
       "Y": 1.0
      },
      "handle_right": {
       "X": 0.5,
       "Y": 0.0
      },
      "handle_type": 0,
      "interpolation": 0
     }
    ]
   },
   "wave_color": {
    "alpha": {
     "Points": [
      {
       "co": {
        "X": 1.0,
        "Y": 255.0
       },
       "handle_left": {
        "X": 0.5,
        "Y": 1.0
       },
       "handle_right": {
        "X": 0.5,
        "Y": 0.0
       },
       "handle_type": 0,
       "interpolation": 0
      }
     ]
    },
    "blue": {
     "Points": [
      {
       "co": {
        "X": 1.0,
        "Y": 255.0
       },
       "handle_left": {
        "X": 0.5,
        "Y": 1.0
       },
       "handle_right": {
        "X": 0.5,
        "Y": 0.0
       },
       "handle_type": 0,
       "interpolation": 0
      }
     ]
    },
    "green": {
     "Points": [
      {
       "co": {
        "X": 1.0,
        "Y": 123.0
       },
       "handle_left": {
        "X": 0.5,
        "Y": 1.0
       },
       "handle_right": {
        "X": 0.5,
        "Y": 0.0
       },
       "handle_type": 0,
       "interpolation": 0
      }
     ]
    },
    "red": {
     "Points": [
      {
       "co": {
        "X": 1.0,
        "Y": 0.0
       },
       "handle_left": {
        "X": 0.5,
        "Y": 1.0
       },
       "handle_right": {
        "X": 0.5,
        "Y": 0.0
       },
       "handle_type": 0,
       "interpolation": 0
      }
     ]
    }
   },
   "waveform": false,
   "file_id": "N0UHXUNZM4",
   "title": "arrow.png",
   "image": "Tutorial_assets/thumbnail/N0UHXUNZM4.png",
   "id": "J6ITGELC0F"
  },
  {
   "alpha": {
    "Points": [
     {
      "co": {
       "X": 1.0,
       "Y": 1.0
      },
      "handle_left": {
       "X": 0.5,
       "Y": 1.0
      },
      "handle_right": {
       "X": 0.5,
       "Y": 0.0
      },
      "handle_type": 0,
      "interpolation": 0
     }
    ]
   },
   "anchor": 0,
   "channel_filter": {
    "Points": [
     {
      "co": {
       "X": 1.0,
       "Y": -1.0
      },
      "handle_left": {
       "X": 0.5,
       "Y": 1.0
      },
      "handle_right": {
       "X": 0.5,
       "Y": 0.0
      },
      "handle_type": 0,
      "interpolation": 0
     }
    ]
   },
   "channel_mapping": {
    "Points": [
     {
      "co": {
       "X": 1.0,
       "Y": -1.0
      },
      "handle_left": {
       "X": 0.5,
       "Y": 1.0
      },
      "handle_right": {
       "X": 0.5,
       "Y": 0.0
      },
      "handle_type": 0,
      "interpolation": 0
     }
    ]
   },
   "display": 0,
   "duration": 3600.0,
   "effects": [],
   "end": 4.300000000000001,
   "gravity": 4,
   "has_audio": {
    "Points": [
     {
      "co": {
       "X": 1.0,
       "Y": -1.0
      },
      "handle_left": {
       "X": 0.5,
       "Y": 1.0
      },
      "handle_right": {
       "X": 0.5,
       "Y": 0.0
      },
      "handle_type": 0,
      "interpolation": 0
     }
    ]
   },
   "has_video": {
    "Points": [
     {
      "co": {
       "X": 1.0,
       "Y": -1.0
      },
      "handle_left": {
       "X": 0.5,
       "Y": 1.0
      },
      "handle_right": {
       "X": 0.5,
       "Y": 0.0
      },
      "handle_type": 0,
      "interpolation": 0
     }
    ]
   },
   "id": "YJQ2QUDUNN",
   "layer": 7000000,
   "location_x": {
    "Points": [
     {
      "co": {
       "X": 1,
       "Y": -0.31274110389492227
      },
      "handle_left": {
       "X": 0.5,
       "Y": 1.0
      },
      "handle_right": {
       "X": 0.5,
       "Y": 0.0
      },
      "handle_type": 0,
      "interpolation": 0
     }
    ]
   },
   "location_y": {
    "Points": [
     {
      "co": {
       "X": 1,
       "Y": -0.32020533084869385
      },
      "handle_left": {
       "X": 0.5,
       "Y": 1.0
      },
      "handle_right": {
       "X": 0.5,
       "Y": 0.0
      },
      "handle_type": 0,
      "interpolation": 0
     }
    ]
   },
   "mixing": 0,
   "origin_x": {
    "Points": [
     {
      "co": {
       "X": 1.0,
       "Y": 0.5
      },
      "handle_left": {
       "X": 0.5,
       "Y": 1.0
      },
      "handle_right": {
       "X": 0.5,
       "Y": 0.0
      },
      "handle_type": 0,
      "interpolation": 0
     }
    ]
   },
   "origin_y": {
    "Points": [
     {
      "co": {
       "X": 1.0,
       "Y": 0.5
      },
      "handle_left": {
       "X": 0.5,
       "Y": 1.0
      },
      "handle_right": {
       "X": 0.5,
       "Y": 0.0
      },
      "handle_type": 0,
      "interpolation": 0
     }
    ]
   },
   "parentObjectId": "",
   "perspective_c1_x": {
    "Points": [
     {
      "co": {
       "X": 1.0,
       "Y": -1.0
      },
      "handle_left": {
       "X": 0.5,
       "Y": 1.0
      },
      "handle_right": {
       "X": 0.5,
       "Y": 0.0
      },
      "handle_type": 0,
      "interpolation": 0
     }
    ]
   },
   "perspective_c1_y": {
    "Points": [
     {
      "co": {
       "X": 1.0,
       "Y": -1.0
      },
      "handle_left": {
       "X": 0.5,
       "Y": 1.0
      },
      "handle_right": {
       "X": 0.5,
       "Y": 0.0
      },
      "handle_type": 0,
      "interpolation": 0
     }
    ]
   },
   "perspective_c2_x": {
    "Points": [
     {
      "co": {
       "X": 1.0,
       "Y": -1.0
      },
      "handle_left": {
       "X": 0.5,
       "Y": 1.0
      },
      "handle_right": {
       "X": 0.5,
       "Y": 0.0
      },
      "handle_type": 0,
      "interpolation": 0
     }
    ]
   },
   "perspective_c2_y": {
    "Points": [
     {
      "co": {
       "X": 1.0,
       "Y": -1.0
      },
      "handle_left": {
       "X": 0.5,
       "Y": 1.0
      },
      "handle_right": {
       "X": 0.5,
       "Y": 0.0
      },
      "handle_type": 0,
      "interpolation": 0
     }
    ]
   },
   "perspective_c3_x": {
    "Points": [
     {
      "co": {
       "X": 1.0,
       "Y": -1.0
      },
      "handle_left": {
       "X": 0.5,
       "Y": 1.0
      },
      "handle_right": {
       "X": 0.5,
       "Y": 0.0
      },
      "handle_type": 0,
      "interpolation": 0
     }
    ]
   },
   "perspective_c3_y": {
    "Points": [
     {
      "co": {
       "X": 1.0,
       "Y": -1.0
      },
      "handle_left": {
       "X": 0.5,
       "Y": 1.0
      },
      "handle_right": {
       "X": 0.5,
       "Y": 0.0
      },
      "handle_type": 0,
      "interpolation": 0
     }
    ]
   },
   "perspective_c4_x": {
    "Points": [
     {
      "co": {
       "X": 1.0,
       "Y": -1.0
      },
      "handle_left": {
       "X": 0.5,
       "Y": 1.0
      },
      "handle_right": {
       "X": 0.5,
       "Y": 0.0
      },
      "handle_type": 0,
      "interpolation": 0
     }
    ]
   },
   "perspective_c4_y": {
    "Points": [
     {
      "co": {
       "X": 1.0,
       "Y": -1.0
      },
      "handle_left": {
       "X": 0.5,
       "Y": 1.0
      },
      "handle_right": {
       "X": 0.5,
       "Y": 0.0
      },
      "handle_type": 0,
      "interpolation": 0
     }
    ]
   },
   "position": 21.966666666666665,
   "reader": {
    "acodec": "",
    "audio_bit_rate": 0,
    "audio_stream_index": -1,
    "audio_timebase": {
     "den": 1,
     "num": 1
    },
    "channel_layout": 4,
    "channels": 0,
    "display_ratio": {
     "den": 305,
     "num": 757
    },
    "duration": 3600.0,
    "file_size": "923540",
    "fps": {
     "den": 1,
     "num": 30
    },
    "has_audio": false,
    "has_single_image": true,
    "has_video": true,
    "height": 305,
    "interlaced_frame": false,
    "metadata": {},
    "path": "./drawing4.png",
    "pixel_format": -1,
    "pixel_ratio": {
     "den": 1,
     "num": 1
    },
    "sample_rate": 0,
    "top_field_first": true,
    "type": "QtImageReader",
    "vcodec": "",
    "video_bit_rate": 0,
    "video_length": "108000",
    "video_stream_index": -1,
    "video_timebase": {
     "den": 30,
     "num": 1
    },
    "width": 757,
    "media_type": "image",
    "id": "99DACAUCOS"
   },
   "rotation": {
    "Points": [
     {
      "co": {
       "X": 1.0,
       "Y": 0.0
      },
      "handle_left": {
       "X": 0.5,
       "Y": 1.0
      },
      "handle_right": {
       "X": 0.5,
       "Y": 0.0
      },
      "handle_type": 0,
      "interpolation": 0
     }
    ]
   },
   "scale": 1,
   "scale_x": {
    "Points": [
     {
      "co": {
       "X": 1,
       "Y": 0.2741312918515739
      },
      "handle_left": {
       "X": 0.5,
       "Y": 1.0
      },
      "handle_right": {
       "X": 0.5,
       "Y": 0.0
      },
      "handle_type": 0,
      "interpolation": 0
     }
    ]
   },
   "scale_y": {
    "Points": [
     {
      "co": {
       "X": 1,
       "Y": 0.2741312918515739
      },
      "handle_left": {
       "X": 0.5,
       "Y": 1.0
      },
      "handle_right": {
       "X": 0.5,
       "Y": 0.0
      },
      "handle_type": 0,
      "interpolation": 0
     }
    ]
   },
   "shear_x": {
    "Points": [
     {
      "co": {
       "X": 1.0,
       "Y": 0.0
      },
      "handle_left": {
       "X": 0.5,
       "Y": 1.0
      },
      "handle_right": {
       "X": 0.5,
       "Y": 0.0
      },
      "handle_type": 0,
      "interpolation": 0
     }
    ]
   },
   "shear_y": {
    "Points": [
     {
      "co": {
       "X": 1.0,
       "Y": 0.0
      },
      "handle_left": {
       "X": 0.5,
       "Y": 1.0
      },
      "handle_right": {
       "X": 0.5,
       "Y": 0.0
      },
      "handle_type": 0,
      "interpolation": 0
     }
    ]
   },
   "start": 0,
   "time": {
    "Points": [
     {
      "co": {
       "X": 1.0,
       "Y": 1.0
      },
      "handle_left": {
       "X": 0.5,
       "Y": 1.0
      },
      "handle_right": {
       "X": 0.5,
       "Y": 0.0
      },
      "handle_type": 0,
      "interpolation": 0
     }
    ]
   },
   "volume": {
    "Points": [
     {
      "co": {
       "X": 1.0,
       "Y": 1.0
      },
      "handle_left": {
       "X": 0.5,
       "Y": 1.0
      },
      "handle_right": {
       "X": 0.5,
       "Y": 0.0
      },
      "handle_type": 0,
      "interpolation": 0
     }
    ]
   },
   "wave_color": {
    "alpha": {
     "Points": [
      {
       "co": {
        "X": 1.0,
        "Y": 255.0
       },
       "handle_left": {
        "X": 0.5,
        "Y": 1.0
       },
       "handle_right": {
        "X": 0.5,
        "Y": 0.0
       },
       "handle_type": 0,
       "interpolation": 0
      }
     ]
    },
    "blue": {
     "Points": [
      {
       "co": {
        "X": 1.0,
        "Y": 255.0
       },
       "handle_left": {
        "X": 0.5,
        "Y": 1.0
       },
       "handle_right": {
        "X": 0.5,
        "Y": 0.0
       },
       "handle_type": 0,
       "interpolation": 0
      }
     ]
    },
    "green": {
     "Points": [
      {
       "co": {
        "X": 1.0,
        "Y": 123.0
       },
       "handle_left": {
        "X": 0.5,
        "Y": 1.0
       },
       "handle_right": {
        "X": 0.5,
        "Y": 0.0
       },
       "handle_type": 0,
       "interpolation": 0
      }
     ]
    },
    "red": {
     "Points": [
      {
       "co": {
        "X": 1.0,
        "Y": 0.0
       },
       "handle_left": {
        "X": 0.5,
        "Y": 1.0
       },
       "handle_right": {
        "X": 0.5,
        "Y": 0.0
       },
       "handle_type": 0,
       "interpolation": 0
      }
     ]
    }
   },
   "waveform": false,
   "file_id": "99DACAUCOS",
   "title": "drawing4.png",
   "image": "Tutorial_assets/thumbnail/99DACAUCOS.png"
  },
  {
   "alpha": {
    "Points": [
     {
      "co": {
       "X": 1.0,
       "Y": 1.0
      },
      "handle_left": {
       "X": 0.5,
       "Y": 1.0
      },
      "handle_right": {
       "X": 0.5,
       "Y": 0.0
      },
      "handle_type": 0,
      "interpolation": 0
     }
    ]
   },
   "anchor": 0,
   "channel_filter": {
    "Points": [
     {
      "co": {
       "X": 1.0,
       "Y": -1.0
      },
      "handle_left": {
       "X": 0.5,
       "Y": 1.0
      },
      "handle_right": {
       "X": 0.5,
       "Y": 0.0
      },
      "handle_type": 0,
      "interpolation": 0
     }
    ]
   },
   "channel_mapping": {
    "Points": [
     {
      "co": {
       "X": 1.0,
       "Y": -1.0
      },
      "handle_left": {
       "X": 0.5,
       "Y": 1.0
      },
      "handle_right": {
       "X": 0.5,
       "Y": 0.0
      },
      "handle_type": 0,
      "interpolation": 0
     }
    ]
   },
   "display": 0,
   "duration": 3600.0,
   "effects": [],
   "end": 4.299999999999976,
   "gravity": 4,
   "has_audio": {
    "Points": [
     {
      "co": {
       "X": 1.0,
       "Y": -1.0
      },
      "handle_left": {
       "X": 0.5,
       "Y": 1.0
      },
      "handle_right": {
       "X": 0.5,
       "Y": 0.0
      },
      "handle_type": 0,
      "interpolation": 0
     }
    ]
   },
   "has_video": {
    "Points": [
     {
      "co": {
       "X": 1.0,
       "Y": -1.0
      },
      "handle_left": {
       "X": 0.5,
       "Y": 1.0
      },
      "handle_right": {
       "X": 0.5,
       "Y": 0.0
      },
      "handle_type": 0,
      "interpolation": 0
     }
    ]
   },
   "id": "GGO0SXT8YW",
   "layer": 3000000,
   "location_x": {
    "Points": [
     {
      "co": {
       "X": 1,
       "Y": 0.04258944320110081
      },
      "handle_left": {
       "X": 0.5,
       "Y": 1.0
      },
      "handle_right": {
       "X": 0.5,
       "Y": 0.0
      },
      "handle_type": 0,
      "interpolation": 0
     }
    ]
   },
   "location_y": {
    "Points": [
     {
      "co": {
       "X": 1,
       "Y": 0.166666641831398
      },
      "handle_left": {
       "X": 0.5,
       "Y": 1.0
      },
      "handle_right": {
       "X": 0.5,
       "Y": 0.0
      },
      "handle_type": 0,
      "interpolation": 0
     }
    ]
   },
   "mixing": 0,
   "origin_x": {
    "Points": [
     {
      "co": {
       "X": 1.0,
       "Y": 0.5
      },
      "handle_left": {
       "X": 0.5,
       "Y": 1.0
      },
      "handle_right": {
       "X": 0.5,
       "Y": 0.0
      },
      "handle_type": 0,
      "interpolation": 0
     }
    ]
   },
   "origin_y": {
    "Points": [
     {
      "co": {
       "X": 1.0,
       "Y": 0.5
      },
      "handle_left": {
       "X": 0.5,
       "Y": 1.0
      },
      "handle_right": {
       "X": 0.5,
       "Y": 0.0
      },
      "handle_type": 0,
      "interpolation": 0
     }
    ]
   },
   "parentObjectId": "",
   "perspective_c1_x": {
    "Points": [
     {
      "co": {
       "X": 1.0,
       "Y": -1.0
      },
      "handle_left": {
       "X": 0.5,
       "Y": 1.0
      },
      "handle_right": {
       "X": 0.5,
       "Y": 0.0
      },
      "handle_type": 0,
      "interpolation": 0
     }
    ]
   },
   "perspective_c1_y": {
    "Points": [
     {
      "co": {
       "X": 1.0,
       "Y": -1.0
      },
      "handle_left": {
       "X": 0.5,
       "Y": 1.0
      },
      "handle_right": {
       "X": 0.5,
       "Y": 0.0
      },
      "handle_type": 0,
      "interpolation": 0
     }
    ]
   },
   "perspective_c2_x": {
    "Points": [
     {
      "co": {
       "X": 1.0,
       "Y": -1.0
      },
      "handle_left": {
       "X": 0.5,
       "Y": 1.0
      },
      "handle_right": {
       "X": 0.5,
       "Y": 0.0
      },
      "handle_type": 0,
      "interpolation": 0
     }
    ]
   },
   "perspective_c2_y": {
    "Points": [
     {
      "co": {
       "X": 1.0,
       "Y": -1.0
      },
      "handle_left": {
       "X": 0.5,
       "Y": 1.0
      },
      "handle_right": {
       "X": 0.5,
       "Y": 0.0
      },
      "handle_type": 0,
      "interpolation": 0
     }
    ]
   },
   "perspective_c3_x": {
    "Points": [
     {
      "co": {
       "X": 1.0,
       "Y": -1.0
      },
      "handle_left": {
       "X": 0.5,
       "Y": 1.0
      },
      "handle_right": {
       "X": 0.5,
       "Y": 0.0
      },
      "handle_type": 0,
      "interpolation": 0
     }
    ]
   },
   "perspective_c3_y": {
    "Points": [
     {
      "co": {
       "X": 1.0,
       "Y": -1.0
      },
      "handle_left": {
       "X": 0.5,
       "Y": 1.0
      },
      "handle_right": {
       "X": 0.5,
       "Y": 0.0
      },
      "handle_type": 0,
      "interpolation": 0
     }
    ]
   },
   "perspective_c4_x": {
    "Points": [
     {
      "co": {
       "X": 1.0,
       "Y": -1.0
      },
      "handle_left": {
       "X": 0.5,
       "Y": 1.0
      },
      "handle_right": {
       "X": 0.5,
       "Y": 0.0
      },
      "handle_type": 0,
      "interpolation": 0
     }
    ]
   },
   "perspective_c4_y": {
    "Points": [
     {
      "co": {
       "X": 1.0,
       "Y": -1.0
      },
      "handle_left": {
       "X": 0.5,
       "Y": 1.0
      },
      "handle_right": {
       "X": 0.5,
       "Y": 0.0
      },
      "handle_type": 0,
      "interpolation": 0
     }
    ]
   },
   "position": 26.633333333333333,
   "reader": {
    "acodec": "",
    "audio_bit_rate": 0,
    "audio_stream_index": -1,
    "audio_timebase": {
     "den": 1,
     "num": 1
    },
    "channel_layout": 4,
    "channels": 0,
    "display_ratio": {
     "den": 1,
     "num": 1
    },
    "duration": 3600.0,
    "file_size": "262144",
    "fps": {
     "den": 1,
     "num": 30
    },
    "has_audio": false,
    "has_single_image": true,
    "has_video": true,
    "height": 256,
    "interlaced_frame": false,
    "metadata": {},
    "path": "./circle2.png",
    "pixel_format": -1,
    "pixel_ratio": {
     "den": 1,
     "num": 1
    },
    "sample_rate": 0,
    "top_field_first": true,
    "type": "QtImageReader",
    "vcodec": "",
    "video_bit_rate": 0,
    "video_length": "108000",
    "video_stream_index": -1,
    "video_timebase": {
     "den": 30,
     "num": 1
    },
    "width": 256,
    "media_type": "image",
    "id": "ZU8X3E6NVA"
   },
   "rotation": {
    "Points": [
     {
      "co": {
       "X": 1.0,
       "Y": 0.0
      },
      "handle_left": {
       "X": 0.5,
       "Y": 1.0
      },
      "handle_right": {
       "X": 0.5,
       "Y": 0.0
      },
      "handle_type": 0,
      "interpolation": 0
     }
    ]
   },
   "scale": 1,
   "scale_x": {
    "Points": [
     {
      "co": {
       "X": 1,
       "Y": 0.1242427213173924
      },
      "handle_left": {
       "X": 0.5,
       "Y": 1.0
      },
      "handle_right": {
       "X": 0.5,
       "Y": 0.0
      },
      "handle_type": 0,
      "interpolation": 0
     }
    ]
   },
   "scale_y": {
    "Points": [
     {
      "co": {
       "X": 1,
       "Y": 0.1242427213173924
      },
      "handle_left": {
       "X": 0.5,
       "Y": 1.0
      },
      "handle_right": {
       "X": 0.5,
       "Y": 0.0
      },
      "handle_type": 0,
      "interpolation": 0
     }
    ]
   },
   "shear_x": {
    "Points": [
     {
      "co": {
       "X": 1.0,
       "Y": 0.0
      },
      "handle_left": {
       "X": 0.5,
       "Y": 1.0
      },
      "handle_right": {
       "X": 0.5,
       "Y": 0.0
      },
      "handle_type": 0,
      "interpolation": 0
     }
    ]
   },
   "shear_y": {
    "Points": [
     {
      "co": {
       "X": 1.0,
       "Y": 0.0
      },
      "handle_left": {
       "X": 0.5,
       "Y": 1.0
      },
      "handle_right": {
       "X": 0.5,
       "Y": 0.0
      },
      "handle_type": 0,
      "interpolation": 0
     }
    ]
   },
   "start": 0,
   "time": {
    "Points": [
     {
      "co": {
       "X": 1.0,
       "Y": 1.0
      },
      "handle_left": {
       "X": 0.5,
       "Y": 1.0
      },
      "handle_right": {
       "X": 0.5,
       "Y": 0.0
      },
      "handle_type": 0,
      "interpolation": 0
     }
    ]
   },
   "volume": {
    "Points": [
     {
      "co": {
       "X": 1.0,
       "Y": 1.0
      },
      "handle_left": {
       "X": 0.5,
       "Y": 1.0
      },
      "handle_right": {
       "X": 0.5,
       "Y": 0.0
      },
      "handle_type": 0,
      "interpolation": 0
     }
    ]
   },
   "wave_color": {
    "alpha": {
     "Points": [
      {
       "co": {
        "X": 1.0,
        "Y": 255.0
       },
       "handle_left": {
        "X": 0.5,
        "Y": 1.0
       },
       "handle_right": {
        "X": 0.5,
        "Y": 0.0
       },
       "handle_type": 0,
       "interpolation": 0
      }
     ]
    },
    "blue": {
     "Points": [
      {
       "co": {
        "X": 1.0,
        "Y": 255.0
       },
       "handle_left": {
        "X": 0.5,
        "Y": 1.0
       },
       "handle_right": {
        "X": 0.5,
        "Y": 0.0
       },
       "handle_type": 0,
       "interpolation": 0
      }
     ]
    },
    "green": {
     "Points": [
      {
       "co": {
        "X": 1.0,
        "Y": 123.0
       },
       "handle_left": {
        "X": 0.5,
        "Y": 1.0
       },
       "handle_right": {
        "X": 0.5,
        "Y": 0.0
       },
       "handle_type": 0,
       "interpolation": 0
      }
     ]
    },
    "red": {
     "Points": [
      {
       "co": {
        "X": 1.0,
        "Y": 0.0
       },
       "handle_left": {
        "X": 0.5,
        "Y": 1.0
       },
       "handle_right": {
        "X": 0.5,
        "Y": 0.0
       },
       "handle_type": 0,
       "interpolation": 0
      }
     ]
    }
   },
   "waveform": false,
   "file_id": "ZU8X3E6NVA",
   "title": "circle2.png",
   "image": "Tutorial_assets/thumbnail/ZU8X3E6NVA.png"
  },
  {
   "alpha": {
    "Points": [
     {
      "co": {
       "X": 1.0,
       "Y": 1.0
      },
      "handle_left": {
       "X": 0.5,
       "Y": 1.0
      },
      "handle_right": {
       "X": 0.5,
       "Y": 0.0
      },
      "handle_type": 0,
      "interpolation": 0
     }
    ]
   },
   "anchor": 0,
   "channel_filter": {
    "Points": [
     {
      "co": {
       "X": 1.0,
       "Y": -1.0
      },
      "handle_left": {
       "X": 0.5,
       "Y": 1.0
      },
      "handle_right": {
       "X": 0.5,
       "Y": 0.0
      },
      "handle_type": 0,
      "interpolation": 0
     }
    ]
   },
   "channel_mapping": {
    "Points": [
     {
      "co": {
       "X": 1.0,
       "Y": -1.0
      },
      "handle_left": {
       "X": 0.5,
       "Y": 1.0
      },
      "handle_right": {
       "X": 0.5,
       "Y": 0.0
      },
      "handle_type": 0,
      "interpolation": 0
     }
    ]
   },
   "display": 0,
   "duration": 3600.0,
   "effects": [],
   "end": 4.2999999999999865,
   "gravity": 4,
   "has_audio": {
    "Points": [
     {
      "co": {
       "X": 1.0,
       "Y": -1.0
      },
      "handle_left": {
       "X": 0.5,
       "Y": 1.0
      },
      "handle_right": {
       "X": 0.5,
       "Y": 0.0
      },
      "handle_type": 0,
      "interpolation": 0
     }
    ]
   },
   "has_video": {
    "Points": [
     {
      "co": {
       "X": 1.0,
       "Y": -1.0
      },
      "handle_left": {
       "X": 0.5,
       "Y": 1.0
      },
      "handle_right": {
       "X": 0.5,
       "Y": 0.0
      },
      "handle_type": 0,
      "interpolation": 0
     }
    ]
   },
   "layer": 4000000,
   "location_x": {
    "Points": [
     {
      "co": {
       "X": 1,
       "Y": -0.006814309792494753
      },
      "handle_left": {
       "X": 0.5,
       "Y": 1.0
      },
      "handle_right": {
       "X": 0.5,
       "Y": 0.0
      },
      "handle_type": 0,
      "interpolation": 0
     }
    ]
   },
   "location_y": {
    "Points": [
     {
      "co": {
       "X": 1,
       "Y": 0.012121212668716908
      },
      "handle_left": {
       "X": 0.5,
       "Y": 1.0
      },
      "handle_right": {
       "X": 0.5,
       "Y": 0.0
      },
      "handle_type": 0,
      "interpolation": 0
     }
    ]
   },
   "mixing": 0,
   "origin_x": {
    "Points": [
     {
      "co": {
       "X": 1.0,
       "Y": 0.5
      },
      "handle_left": {
       "X": 0.5,
       "Y": 1.0
      },
      "handle_right": {
       "X": 0.5,
       "Y": 0.0
      },
      "handle_type": 0,
      "interpolation": 0
     }
    ]
   },
   "origin_y": {
    "Points": [
     {
      "co": {
       "X": 1.0,
       "Y": 0.5
      },
      "handle_left": {
       "X": 0.5,
       "Y": 1.0
      },
      "handle_right": {
       "X": 0.5,
       "Y": 0.0
      },
      "handle_type": 0,
      "interpolation": 0
     }
    ]
   },
   "parentObjectId": "",
   "perspective_c1_x": {
    "Points": [
     {
      "co": {
       "X": 1.0,
       "Y": -1.0
      },
      "handle_left": {
       "X": 0.5,
       "Y": 1.0
      },
      "handle_right": {
       "X": 0.5,
       "Y": 0.0
      },
      "handle_type": 0,
      "interpolation": 0
     }
    ]
   },
   "perspective_c1_y": {
    "Points": [
     {
      "co": {
       "X": 1.0,
       "Y": -1.0
      },
      "handle_left": {
       "X": 0.5,
       "Y": 1.0
      },
      "handle_right": {
       "X": 0.5,
       "Y": 0.0
      },
      "handle_type": 0,
      "interpolation": 0
     }
    ]
   },
   "perspective_c2_x": {
    "Points": [
     {
      "co": {
       "X": 1.0,
       "Y": -1.0
      },
      "handle_left": {
       "X": 0.5,
       "Y": 1.0
      },
      "handle_right": {
       "X": 0.5,
       "Y": 0.0
      },
      "handle_type": 0,
      "interpolation": 0
     }
    ]
   },
   "perspective_c2_y": {
    "Points": [
     {
      "co": {
       "X": 1.0,
       "Y": -1.0
      },
      "handle_left": {
       "X": 0.5,
       "Y": 1.0
      },
      "handle_right": {
       "X": 0.5,
       "Y": 0.0
      },
      "handle_type": 0,
      "interpolation": 0
     }
    ]
   },
   "perspective_c3_x": {
    "Points": [
     {
      "co": {
       "X": 1.0,
       "Y": -1.0
      },
      "handle_left": {
       "X": 0.5,
       "Y": 1.0
      },
      "handle_right": {
       "X": 0.5,
       "Y": 0.0
      },
      "handle_type": 0,
      "interpolation": 0
     }
    ]
   },
   "perspective_c3_y": {
    "Points": [
     {
      "co": {
       "X": 1.0,
       "Y": -1.0
      },
      "handle_left": {
       "X": 0.5,
       "Y": 1.0
      },
      "handle_right": {
       "X": 0.5,
       "Y": 0.0
      },
      "handle_type": 0,
      "interpolation": 0
     }
    ]
   },
   "perspective_c4_x": {
    "Points": [
     {
      "co": {
       "X": 1.0,
       "Y": -1.0
      },
      "handle_left": {
       "X": 0.5,
       "Y": 1.0
      },
      "handle_right": {
       "X": 0.5,
       "Y": 0.0
      },
      "handle_type": 0,
      "interpolation": 0
     }
    ]
   },
   "perspective_c4_y": {
    "Points": [
     {
      "co": {
       "X": 1.0,
       "Y": -1.0
      },
      "handle_left": {
       "X": 0.5,
       "Y": 1.0
      },
      "handle_right": {
       "X": 0.5,
       "Y": 0.0
      },
      "handle_type": 0,
      "interpolation": 0
     }
    ]
   },
   "position": 26.633333333333333,
   "reader": {
    "acodec": "",
    "audio_bit_rate": 0,
    "audio_stream_index": -1,
    "audio_timebase": {
     "den": 1,
     "num": 1
    },
    "channel_layout": 4,
    "channels": 0,
    "display_ratio": {
     "den": 1,
     "num": 1
    },
    "duration": 3600.0,
    "file_size": "262144",
    "fps": {
     "den": 1,
     "num": 30
    },
    "has_audio": false,
    "has_single_image": true,
    "has_video": true,
    "height": 256,
    "interlaced_frame": false,
    "metadata": {},
    "path": "./circle2.png",
    "pixel_format": -1,
    "pixel_ratio": {
     "den": 1,
     "num": 1
    },
    "sample_rate": 0,
    "top_field_first": true,
    "type": "QtImageReader",
    "vcodec": "",
    "video_bit_rate": 0,
    "video_length": "108000",
    "video_stream_index": -1,
    "video_timebase": {
     "den": 30,
     "num": 1
    },
    "width": 256,
    "media_type": "image",
    "id": "ZU8X3E6NVA"
   },
   "rotation": {
    "Points": [
     {
      "co": {
       "X": 1.0,
       "Y": 0.0
      },
      "handle_left": {
       "X": 0.5,
       "Y": 1.0
      },
      "handle_right": {
       "X": 0.5,
       "Y": 0.0
      },
      "handle_type": 0,
      "interpolation": 0
     }
    ]
   },
   "scale": 1,
   "scale_x": {
    "Points": [
     {
      "co": {
       "X": 1,
       "Y": 0.10909121483564377
      },
      "handle_left": {
       "X": 0.5,
       "Y": 1.0
      },
      "handle_right": {
       "X": 0.5,
       "Y": 0.0
      },
      "handle_type": 0,
      "interpolation": 0
     }
    ]
   },
   "scale_y": {
    "Points": [
     {
      "co": {
       "X": 1,
       "Y": 0.10909121483564377
      },
      "handle_left": {
       "X": 0.5,
       "Y": 1.0
      },
      "handle_right": {
       "X": 0.5,
       "Y": 0.0
      },
      "handle_type": 0,
      "interpolation": 0
     }
    ]
   },
   "shear_x": {
    "Points": [
     {
      "co": {
       "X": 1.0,
       "Y": 0.0
      },
      "handle_left": {
       "X": 0.5,
       "Y": 1.0
      },
      "handle_right": {
       "X": 0.5,
       "Y": 0.0
      },
      "handle_type": 0,
      "interpolation": 0
     }
    ]
   },
   "shear_y": {
    "Points": [
     {
      "co": {
       "X": 1.0,
       "Y": 0.0
      },
      "handle_left": {
       "X": 0.5,
       "Y": 1.0
      },
      "handle_right": {
       "X": 0.5,
       "Y": 0.0
      },
      "handle_type": 0,
      "interpolation": 0
     }
    ]
   },
   "start": 0,
   "time": {
    "Points": [
     {
      "co": {
       "X": 1.0,
       "Y": 1.0
      },
      "handle_left": {
       "X": 0.5,
       "Y": 1.0
      },
      "handle_right": {
       "X": 0.5,
       "Y": 0.0
      },
      "handle_type": 0,
      "interpolation": 0
     }
    ]
   },
   "volume": {
    "Points": [
     {
      "co": {
       "X": 1.0,
       "Y": 1.0
      },
      "handle_left": {
       "X": 0.5,
       "Y": 1.0
      },
      "handle_right": {
       "X": 0.5,
       "Y": 0.0
      },
      "handle_type": 0,
      "interpolation": 0
     }
    ]
   },
   "wave_color": {
    "alpha": {
     "Points": [
      {
       "co": {
        "X": 1.0,
        "Y": 255.0
       },
       "handle_left": {
        "X": 0.5,
        "Y": 1.0
       },
       "handle_right": {
        "X": 0.5,
        "Y": 0.0
       },
       "handle_type": 0,
       "interpolation": 0
      }
     ]
    },
    "blue": {
     "Points": [
      {
       "co": {
        "X": 1.0,
        "Y": 255.0
       },
       "handle_left": {
        "X": 0.5,
        "Y": 1.0
       },
       "handle_right": {
        "X": 0.5,
        "Y": 0.0
       },
       "handle_type": 0,
       "interpolation": 0
      }
     ]
    },
    "green": {
     "Points": [
      {
       "co": {
        "X": 1.0,
        "Y": 123.0
       },
       "handle_left": {
        "X": 0.5,
        "Y": 1.0
       },
       "handle_right": {
        "X": 0.5,
        "Y": 0.0
       },
       "handle_type": 0,
       "interpolation": 0
      }
     ]
    },
    "red": {
     "Points": [
      {
       "co": {
        "X": 1.0,
        "Y": 0.0
       },
       "handle_left": {
        "X": 0.5,
        "Y": 1.0
       },
       "handle_right": {
        "X": 0.5,
        "Y": 0.0
       },
       "handle_type": 0,
       "interpolation": 0
      }
     ]
    }
   },
   "waveform": false,
   "file_id": "ZU8X3E6NVA",
   "title": "circle2.png",
   "image": "Tutorial_assets/thumbnail/ZU8X3E6NVA.png",
   "id": "WGJIZQ5TH5"
  },
  {
   "alpha": {
    "Points": [
     {
      "co": {
       "X": 1.0,
       "Y": 1.0
      },
      "handle_left": {
       "X": 0.5,
       "Y": 1.0
      },
      "handle_right": {
       "X": 0.5,
       "Y": 0.0
      },
      "handle_type": 0,
      "interpolation": 0
     }
    ]
   },
   "anchor": 0,
   "channel_filter": {
    "Points": [
     {
      "co": {
       "X": 1.0,
       "Y": -1.0
      },
      "handle_left": {
       "X": 0.5,
       "Y": 1.0
      },
      "handle_right": {
       "X": 0.5,
       "Y": 0.0
      },
      "handle_type": 0,
      "interpolation": 0
     }
    ]
   },
   "channel_mapping": {
    "Points": [
     {
      "co": {
       "X": 1.0,
       "Y": -1.0
      },
      "handle_left": {
       "X": 0.5,
       "Y": 1.0
      },
      "handle_right": {
       "X": 0.5,
       "Y": 0.0
      },
      "handle_type": 0,
      "interpolation": 0
     }
    ]
   },
   "display": 0,
   "duration": 3600.0,
   "effects": [],
   "end": 4.300000000000001,
   "gravity": 4,
   "has_audio": {
    "Points": [
     {
      "co": {
       "X": 1.0,
       "Y": -1.0
      },
      "handle_left": {
       "X": 0.5,
       "Y": 1.0
      },
      "handle_right": {
       "X": 0.5,
       "Y": 0.0
      },
      "handle_type": 0,
      "interpolation": 0
     }
    ]
   },
   "has_video": {
    "Points": [
     {
      "co": {
       "X": 1.0,
       "Y": -1.0
      },
      "handle_left": {
       "X": 0.5,
       "Y": 1.0
      },
      "handle_right": {
       "X": 0.5,
       "Y": 0.0
      },
      "handle_type": 0,
      "interpolation": 0
     }
    ]
   },
   "layer": 6000000,
   "location_x": {
    "Points": [
     {
      "co": {
       "X": 1,
       "Y": 0.1269180029630661
      },
      "interpolation": 0
     }
    ]
   },
   "location_y": {
    "Points": [
     {
      "co": {
       "X": 1,
       "Y": 0.021231097265174893
      },
      "interpolation": 0
     }
    ]
   },
   "mixing": 0,
   "origin_x": {
    "Points": [
     {
      "co": {
       "X": 1.0,
       "Y": 0.5
      },
      "handle_left": {
       "X": 0.5,
       "Y": 1.0
      },
      "handle_right": {
       "X": 0.5,
       "Y": 0.0
      },
      "handle_type": 0,
      "interpolation": 0
     }
    ]
   },
   "origin_y": {
    "Points": [
     {
      "co": {
       "X": 1.0,
       "Y": 0.5
      },
      "handle_left": {
       "X": 0.5,
       "Y": 1.0
      },
      "handle_right": {
       "X": 0.5,
       "Y": 0.0
      },
      "handle_type": 0,
      "interpolation": 0
     }
    ]
   },
   "parentObjectId": "",
   "perspective_c1_x": {
    "Points": [
     {
      "co": {
       "X": 1.0,
       "Y": -1.0
      },
      "handle_left": {
       "X": 0.5,
       "Y": 1.0
      },
      "handle_right": {
       "X": 0.5,
       "Y": 0.0
      },
      "handle_type": 0,
      "interpolation": 0
     }
    ]
   },
   "perspective_c1_y": {
    "Points": [
     {
      "co": {
       "X": 1.0,
       "Y": -1.0
      },
      "handle_left": {
       "X": 0.5,
       "Y": 1.0
      },
      "handle_right": {
       "X": 0.5,
       "Y": 0.0
      },
      "handle_type": 0,
      "interpolation": 0
     }
    ]
   },
   "perspective_c2_x": {
    "Points": [
     {
      "co": {
       "X": 1.0,
       "Y": -1.0
      },
      "handle_left": {
       "X": 0.5,
       "Y": 1.0
      },
      "handle_right": {
       "X": 0.5,
       "Y": 0.0
      },
      "handle_type": 0,
      "interpolation": 0
     }
    ]
   },
   "perspective_c2_y": {
    "Points": [
     {
      "co": {
       "X": 1.0,
       "Y": -1.0
      },
      "handle_left": {
       "X": 0.5,
       "Y": 1.0
      },
      "handle_right": {
       "X": 0.5,
       "Y": 0.0
      },
      "handle_type": 0,
      "interpolation": 0
     }
    ]
   },
   "perspective_c3_x": {
    "Points": [
     {
      "co": {
       "X": 1.0,
       "Y": -1.0
      },
      "handle_left": {
       "X": 0.5,
       "Y": 1.0
      },
      "handle_right": {
       "X": 0.5,
       "Y": 0.0
      },
      "handle_type": 0,
      "interpolation": 0
     }
    ]
   },
   "perspective_c3_y": {
    "Points": [
     {
      "co": {
       "X": 1.0,
       "Y": -1.0
      },
      "handle_left": {
       "X": 0.5,
       "Y": 1.0
      },
      "handle_right": {
       "X": 0.5,
       "Y": 0.0
      },
      "handle_type": 0,
      "interpolation": 0
     }
    ]
   },
   "perspective_c4_x": {
    "Points": [
     {
      "co": {
       "X": 1.0,
       "Y": -1.0
      },
      "handle_left": {
       "X": 0.5,
       "Y": 1.0
      },
      "handle_right": {
       "X": 0.5,
       "Y": 0.0
      },
      "handle_type": 0,
      "interpolation": 0
     }
    ]
   },
   "perspective_c4_y": {
    "Points": [
     {
      "co": {
       "X": 1.0,
       "Y": -1.0
      },
      "handle_left": {
       "X": 0.5,
       "Y": 1.0
      },
      "handle_right": {
       "X": 0.5,
       "Y": 0.0
      },
      "handle_type": 0,
      "interpolation": 0
     }
    ]
   },
   "position": 26.633333333333333,
   "reader": {
    "acodec": "",
    "audio_bit_rate": 0,
    "audio_stream_index": -1,
    "audio_timebase": {
     "den": 1,
     "num": 1
    },
    "channel_layout": 4,
    "channels": 0,
    "display_ratio": {
     "den": 32,
     "num": 293
    },
    "duration": 3600.0,
    "file_size": "37504",
    "fps": {
     "den": 1,
     "num": 30
    },
    "has_audio": false,
    "has_single_image": true,
    "has_video": true,
    "height": 32,
    "interlaced_frame": false,
    "metadata": {},
    "path": "./arrow.png",
    "pixel_format": -1,
    "pixel_ratio": {
     "den": 1,
     "num": 1
    },
    "sample_rate": 0,
    "top_field_first": true,
    "type": "QtImageReader",
    "vcodec": "",
    "video_bit_rate": 0,
    "video_length": "108000",
    "video_stream_index": -1,
    "video_timebase": {
     "den": 30,
     "num": 1
    },
    "width": 293,
    "media_type": "image",
    "id": "N0UHXUNZM4"
   },
   "rotation": {
    "Points": [
     {
      "co": {
       "X": 1,
       "Y": 140.92312222993425
      },
      "interpolation": 0
     }
    ]
   },
   "scale": 1,
   "scale_x": {
    "Points": [
     {
      "co": {
       "X": 1,
       "Y": 0.17000000178813934
      },
      "interpolation": 1
     }
    ]
   },
   "scale_y": {
    "Points": [
     {
      "co": {
       "X": 37,
       "Y": 0.1698843538761139
      },
      "interpolation": 0
     }
    ]
   },
   "shear_x": {
    "Points": [
     {
      "co": {
       "X": 1.0,
       "Y": 0.0
      },
      "handle_left": {
       "X": 0.5,
       "Y": 1.0
      },
      "handle_right": {
       "X": 0.5,
       "Y": 0.0
      },
      "handle_type": 0,
      "interpolation": 0
     }
    ]
   },
   "shear_y": {
    "Points": [
     {
      "co": {
       "X": 1.0,
       "Y": 0.0
      },
      "handle_left": {
       "X": 0.5,
       "Y": 1.0
      },
      "handle_right": {
       "X": 0.5,
       "Y": 0.0
      },
      "handle_type": 0,
      "interpolation": 0
     }
    ]
   },
   "start": 0,
   "time": {
    "Points": [
     {
      "co": {
       "X": 1.0,
       "Y": 1.0
      },
      "handle_left": {
       "X": 0.5,
       "Y": 1.0
      },
      "handle_right": {
       "X": 0.5,
       "Y": 0.0
      },
      "handle_type": 0,
      "interpolation": 0
     }
    ]
   },
   "volume": {
    "Points": [
     {
      "co": {
       "X": 1.0,
       "Y": 1.0
      },
      "handle_left": {
       "X": 0.5,
       "Y": 1.0
      },
      "handle_right": {
       "X": 0.5,
       "Y": 0.0
      },
      "handle_type": 0,
      "interpolation": 0
     }
    ]
   },
   "wave_color": {
    "alpha": {
     "Points": [
      {
       "co": {
        "X": 1.0,
        "Y": 255.0
       },
       "handle_left": {
        "X": 0.5,
        "Y": 1.0
       },
       "handle_right": {
        "X": 0.5,
        "Y": 0.0
       },
       "handle_type": 0,
       "interpolation": 0
      }
     ]
    },
    "blue": {
     "Points": [
      {
       "co": {
        "X": 1.0,
        "Y": 255.0
       },
       "handle_left": {
        "X": 0.5,
        "Y": 1.0
       },
       "handle_right": {
        "X": 0.5,
        "Y": 0.0
       },
       "handle_type": 0,
       "interpolation": 0
      }
     ]
    },
    "green": {
     "Points": [
      {
       "co": {
        "X": 1.0,
        "Y": 123.0
       },
       "handle_left": {
        "X": 0.5,
        "Y": 1.0
       },
       "handle_right": {
        "X": 0.5,
        "Y": 0.0
       },
       "handle_type": 0,
       "interpolation": 0
      }
     ]
    },
    "red": {
     "Points": [
      {
       "co": {
        "X": 1.0,
        "Y": 0.0
       },
       "handle_left": {
        "X": 0.5,
        "Y": 1.0
       },
       "handle_right": {
        "X": 0.5,
        "Y": 0.0
       },
       "handle_type": 0,
       "interpolation": 0
      }
     ]
    }
   },
   "waveform": false,
   "file_id": "N0UHXUNZM4",
   "title": "arrow.png",
   "image": "Tutorial_assets/thumbnail/N0UHXUNZM4.png",
   "id": "JJDLG4L4FA"
  },
  {
   "alpha": {
    "Points": [
     {
      "co": {
       "X": 1.0,
       "Y": 1.0
      },
      "handle_left": {
       "X": 0.5,
       "Y": 1.0
      },
      "handle_right": {
       "X": 0.5,
       "Y": 0.0
      },
      "handle_type": 0,
      "interpolation": 0
     }
    ]
   },
   "anchor": 0,
   "channel_filter": {
    "Points": [
     {
      "co": {
       "X": 1.0,
       "Y": -1.0
      },
      "handle_left": {
       "X": 0.5,
       "Y": 1.0
      },
      "handle_right": {
       "X": 0.5,
       "Y": 0.0
      },
      "handle_type": 0,
      "interpolation": 0
     }
    ]
   },
   "channel_mapping": {
    "Points": [
     {
      "co": {
       "X": 1.0,
       "Y": -1.0
      },
      "handle_left": {
       "X": 0.5,
       "Y": 1.0
      },
      "handle_right": {
       "X": 0.5,
       "Y": 0.0
      },
      "handle_type": 0,
      "interpolation": 0
     }
    ]
   },
   "display": 0,
   "duration": 3600.0,
   "effects": [],
   "end": 4.300000000000001,
   "gravity": 4,
   "has_audio": {
    "Points": [
     {
      "co": {
       "X": 1.0,
       "Y": -1.0
      },
      "handle_left": {
       "X": 0.5,
       "Y": 1.0
      },
      "handle_right": {
       "X": 0.5,
       "Y": 0.0
      },
      "handle_type": 0,
      "interpolation": 0
     }
    ]
   },
   "has_video": {
    "Points": [
     {
      "co": {
       "X": 1.0,
       "Y": -1.0
      },
      "handle_left": {
       "X": 0.5,
       "Y": 1.0
      },
      "handle_right": {
       "X": 0.5,
       "Y": 0.0
      },
      "handle_type": 0,
      "interpolation": 0
     }
    ]
   },
   "layer": 5000000,
   "location_x": {
    "Points": [
     {
      "co": {
       "X": 1,
       "Y": 0.10221466941210033
      },
      "handle_left": {
       "X": 0.5,
       "Y": 1.0
      },
      "handle_right": {
       "X": 0.5,
       "Y": 0.0
      },
      "handle_type": 0,
      "interpolation": 0
     }
    ]
   },
   "location_y": {
    "Points": [
     {
      "co": {
       "X": 1,
       "Y": -0.0469697006046772
      },
      "handle_left": {
       "X": 0.5,
       "Y": 1.0
      },
      "handle_right": {
       "X": 0.5,
       "Y": 0.0
      },
      "handle_type": 0,
      "interpolation": 0
     }
    ]
   },
   "mixing": 0,
   "origin_x": {
    "Points": [
     {
      "co": {
       "X": 1.0,
       "Y": 0.5
      },
      "handle_left": {
       "X": 0.5,
       "Y": 1.0
      },
      "handle_right": {
       "X": 0.5,
       "Y": 0.0
      },
      "handle_type": 0,
      "interpolation": 0
     }
    ]
   },
   "origin_y": {
    "Points": [
     {
      "co": {
       "X": 1.0,
       "Y": 0.5
      },
      "handle_left": {
       "X": 0.5,
       "Y": 1.0
      },
      "handle_right": {
       "X": 0.5,
       "Y": 0.0
      },
      "handle_type": 0,
      "interpolation": 0
     }
    ]
   },
   "parentObjectId": "",
   "perspective_c1_x": {
    "Points": [
     {
      "co": {
       "X": 1.0,
       "Y": -1.0
      },
      "handle_left": {
       "X": 0.5,
       "Y": 1.0
      },
      "handle_right": {
       "X": 0.5,
       "Y": 0.0
      },
      "handle_type": 0,
      "interpolation": 0
     }
    ]
   },
   "perspective_c1_y": {
    "Points": [
     {
      "co": {
       "X": 1.0,
       "Y": -1.0
      },
      "handle_left": {
       "X": 0.5,
       "Y": 1.0
      },
      "handle_right": {
       "X": 0.5,
       "Y": 0.0
      },
      "handle_type": 0,
      "interpolation": 0
     }
    ]
   },
   "perspective_c2_x": {
    "Points": [
     {
      "co": {
       "X": 1.0,
       "Y": -1.0
      },
      "handle_left": {
       "X": 0.5,
       "Y": 1.0
      },
      "handle_right": {
       "X": 0.5,
       "Y": 0.0
      },
      "handle_type": 0,
      "interpolation": 0
     }
    ]
   },
   "perspective_c2_y": {
    "Points": [
     {
      "co": {
       "X": 1.0,
       "Y": -1.0
      },
      "handle_left": {
       "X": 0.5,
       "Y": 1.0
      },
      "handle_right": {
       "X": 0.5,
       "Y": 0.0
      },
      "handle_type": 0,
      "interpolation": 0
     }
    ]
   },
   "perspective_c3_x": {
    "Points": [
     {
      "co": {
       "X": 1.0,
       "Y": -1.0
      },
      "handle_left": {
       "X": 0.5,
       "Y": 1.0
      },
      "handle_right": {
       "X": 0.5,
       "Y": 0.0
      },
      "handle_type": 0,
      "interpolation": 0
     }
    ]
   },
   "perspective_c3_y": {
    "Points": [
     {
      "co": {
       "X": 1.0,
       "Y": -1.0
      },
      "handle_left": {
       "X": 0.5,
       "Y": 1.0
      },
      "handle_right": {
       "X": 0.5,
       "Y": 0.0
      },
      "handle_type": 0,
      "interpolation": 0
     }
    ]
   },
   "perspective_c4_x": {
    "Points": [
     {
      "co": {
       "X": 1.0,
       "Y": -1.0
      },
      "handle_left": {
       "X": 0.5,
       "Y": 1.0
      },
      "handle_right": {
       "X": 0.5,
       "Y": 0.0
      },
      "handle_type": 0,
      "interpolation": 0
     }
    ]
   },
   "perspective_c4_y": {
    "Points": [
     {
      "co": {
       "X": 1.0,
       "Y": -1.0
      },
      "handle_left": {
       "X": 0.5,
       "Y": 1.0
      },
      "handle_right": {
       "X": 0.5,
       "Y": 0.0
      },
      "handle_type": 0,
      "interpolation": 0
     }
    ]
   },
   "position": 26.633333333333333,
   "reader": {
    "acodec": "",
    "audio_bit_rate": 0,
    "audio_stream_index": -1,
    "audio_timebase": {
     "den": 1,
     "num": 1
    },
    "channel_layout": 4,
    "channels": 0,
    "display_ratio": {
     "den": 32,
     "num": 293
    },
    "duration": 3600.0,
    "file_size": "37504",
    "fps": {
     "den": 1,
     "num": 30
    },
    "has_audio": false,
    "has_single_image": true,
    "has_video": true,
    "height": 32,
    "interlaced_frame": false,
    "metadata": {},
    "path": "./arrow.png",
    "pixel_format": -1,
    "pixel_ratio": {
     "den": 1,
     "num": 1
    },
    "sample_rate": 0,
    "top_field_first": true,
    "type": "QtImageReader",
    "vcodec": "",
    "video_bit_rate": 0,
    "video_length": "108000",
    "video_stream_index": -1,
    "video_timebase": {
     "den": 30,
     "num": 1
    },
    "width": 293,
    "media_type": "image",
    "id": "N0UHXUNZM4"
   },
   "rotation": {
    "Points": [
     {
      "co": {
       "X": 1,
       "Y": -200.32921360161285
      },
      "handle_left": {
       "X": 0.5,
       "Y": 1.0
      },
      "handle_right": {
       "X": 0.5,
       "Y": 0.0
      },
      "handle_type": 0,
      "interpolation": 0
     }
    ]
   },
   "scale": 1,
   "scale_x": {
    "Points": [
     {
      "co": {
       "X": 1,
       "Y": 0.16988435076930808
      },
      "handle_left": {
       "X": 0.5,
       "Y": 1.0
      },
      "handle_right": {
       "X": 0.5,
       "Y": 0.0
      },
      "handle_type": 0,
      "interpolation": 0
     }
    ]
   },
   "scale_y": {
    "Points": [
     {
      "co": {
       "X": 1,
       "Y": 0.16988435076930808
      },
      "handle_left": {
       "X": 0.5,
       "Y": 1.0
      },
      "handle_right": {
       "X": 0.5,
       "Y": 0.0
      },
      "handle_type": 0,
      "interpolation": 0
     }
    ]
   },
   "shear_x": {
    "Points": [
     {
      "co": {
       "X": 1.0,
       "Y": 0.0
      },
      "handle_left": {
       "X": 0.5,
       "Y": 1.0
      },
      "handle_right": {
       "X": 0.5,
       "Y": 0.0
      },
      "handle_type": 0,
      "interpolation": 0
     }
    ]
   },
   "shear_y": {
    "Points": [
     {
      "co": {
       "X": 1.0,
       "Y": 0.0
      },
      "handle_left": {
       "X": 0.5,
       "Y": 1.0
      },
      "handle_right": {
       "X": 0.5,
       "Y": 0.0
      },
      "handle_type": 0,
      "interpolation": 0
     }
    ]
   },
   "start": 0,
   "time": {
    "Points": [
     {
      "co": {
       "X": 1.0,
       "Y": 1.0
      },
      "handle_left": {
       "X": 0.5,
       "Y": 1.0
      },
      "handle_right": {
       "X": 0.5,
       "Y": 0.0
      },
      "handle_type": 0,
      "interpolation": 0
     }
    ]
   },
   "volume": {
    "Points": [
     {
      "co": {
       "X": 1.0,
       "Y": 1.0
      },
      "handle_left": {
       "X": 0.5,
       "Y": 1.0
      },
      "handle_right": {
       "X": 0.5,
       "Y": 0.0
      },
      "handle_type": 0,
      "interpolation": 0
     }
    ]
   },
   "wave_color": {
    "alpha": {
     "Points": [
      {
       "co": {
        "X": 1.0,
        "Y": 255.0
       },
       "handle_left": {
        "X": 0.5,
        "Y": 1.0
       },
       "handle_right": {
        "X": 0.5,
        "Y": 0.0
       },
       "handle_type": 0,
       "interpolation": 0
      }
     ]
    },
    "blue": {
     "Points": [
      {
       "co": {
        "X": 1.0,
        "Y": 255.0
       },
       "handle_left": {
        "X": 0.5,
        "Y": 1.0
       },
       "handle_right": {
        "X": 0.5,
        "Y": 0.0
       },
       "handle_type": 0,
       "interpolation": 0
      }
     ]
    },
    "green": {
     "Points": [
      {
       "co": {
        "X": 1.0,
        "Y": 123.0
       },
       "handle_left": {
        "X": 0.5,
        "Y": 1.0
       },
       "handle_right": {
        "X": 0.5,
        "Y": 0.0
       },
       "handle_type": 0,
       "interpolation": 0
      }
     ]
    },
    "red": {
     "Points": [
      {
       "co": {
        "X": 1.0,
        "Y": 0.0
       },
       "handle_left": {
        "X": 0.5,
        "Y": 1.0
       },
       "handle_right": {
        "X": 0.5,
        "Y": 0.0
       },
       "handle_type": 0,
       "interpolation": 0
      }
     ]
    }
   },
   "waveform": false,
   "file_id": "N0UHXUNZM4",
   "title": "arrow.png",
   "image": "Tutorial_assets/thumbnail/N0UHXUNZM4.png",
   "id": "2ESZ4KUDAZ"
  },
  {
   "alpha": {
    "Points": [
     {
      "co": {
       "X": 1.0,
       "Y": 1.0
      },
      "handle_left": {
       "X": 0.5,
       "Y": 1.0
      },
      "handle_right": {
       "X": 0.5,
       "Y": 0.0
      },
      "handle_type": 0,
      "interpolation": 0
     }
    ]
   },
   "anchor": 0,
   "channel_filter": {
    "Points": [
     {
      "co": {
       "X": 1.0,
       "Y": -1.0
      },
      "handle_left": {
       "X": 0.5,
       "Y": 1.0
      },
      "handle_right": {
       "X": 0.5,
       "Y": 0.0
      },
      "handle_type": 0,
      "interpolation": 0
     }
    ]
   },
   "channel_mapping": {
    "Points": [
     {
      "co": {
       "X": 1.0,
       "Y": -1.0
      },
      "handle_left": {
       "X": 0.5,
       "Y": 1.0
      },
      "handle_right": {
       "X": 0.5,
       "Y": 0.0
      },
      "handle_type": 0,
      "interpolation": 0
     }
    ]
   },
   "display": 0,
   "duration": 3600.0,
   "effects": [],
   "end": 4.299999999999994,
   "gravity": 4,
   "has_audio": {
    "Points": [
     {
      "co": {
       "X": 1.0,
       "Y": -1.0
      },
      "handle_left": {
       "X": 0.5,
       "Y": 1.0
      },
      "handle_right": {
       "X": 0.5,
       "Y": 0.0
      },
      "handle_type": 0,
      "interpolation": 0
     }
    ]
   },
   "has_video": {
    "Points": [
     {
      "co": {
       "X": 1.0,
       "Y": -1.0
      },
      "handle_left": {
       "X": 0.5,
       "Y": 1.0
      },
      "handle_right": {
       "X": 0.5,
       "Y": 0.0
      },
      "handle_type": 0,
      "interpolation": 0
     }
    ]
   },
   "id": "3AGMPBKP7R",
   "layer": 7000000,
   "location_x": {
    "Points": [
     {
      "co": {
       "X": 1,
       "Y": 0.2887563917665303
      },
      "handle_left": {
       "X": 0.5,
       "Y": 1.0
      },
      "handle_right": {
       "X": 0.5,
       "Y": 0.0
      },
      "handle_type": 0,
      "interpolation": 0
     }
    ]
   },
   "location_y": {
    "Points": [
     {
      "co": {
       "X": 1,
       "Y": -0.15757574141025543
      },
      "handle_left": {
       "X": 0.5,
       "Y": 1.0
      },
      "handle_right": {
       "X": 0.5,
       "Y": 0.0
      },
      "handle_type": 0,
      "interpolation": 0
     }
    ]
   },
   "mixing": 0,
   "origin_x": {
    "Points": [
     {
      "co": {
       "X": 1.0,
       "Y": 0.5
      },
      "handle_left": {
       "X": 0.5,
       "Y": 1.0
      },
      "handle_right": {
       "X": 0.5,
       "Y": 0.0
      },
      "handle_type": 0,
      "interpolation": 0
     }
    ]
   },
   "origin_y": {
    "Points": [
     {
      "co": {
       "X": 1.0,
       "Y": 0.5
      },
      "handle_left": {
       "X": 0.5,
       "Y": 1.0
      },
      "handle_right": {
       "X": 0.5,
       "Y": 0.0
      },
      "handle_type": 0,
      "interpolation": 0
     }
    ]
   },
   "parentObjectId": "",
   "perspective_c1_x": {
    "Points": [
     {
      "co": {
       "X": 1.0,
       "Y": -1.0
      },
      "handle_left": {
       "X": 0.5,
       "Y": 1.0
      },
      "handle_right": {
       "X": 0.5,
       "Y": 0.0
      },
      "handle_type": 0,
      "interpolation": 0
     }
    ]
   },
   "perspective_c1_y": {
    "Points": [
     {
      "co": {
       "X": 1.0,
       "Y": -1.0
      },
      "handle_left": {
       "X": 0.5,
       "Y": 1.0
      },
      "handle_right": {
       "X": 0.5,
       "Y": 0.0
      },
      "handle_type": 0,
      "interpolation": 0
     }
    ]
   },
   "perspective_c2_x": {
    "Points": [
     {
      "co": {
       "X": 1.0,
       "Y": -1.0
      },
      "handle_left": {
       "X": 0.5,
       "Y": 1.0
      },
      "handle_right": {
       "X": 0.5,
       "Y": 0.0
      },
      "handle_type": 0,
      "interpolation": 0
     }
    ]
   },
   "perspective_c2_y": {
    "Points": [
     {
      "co": {
       "X": 1.0,
       "Y": -1.0
      },
      "handle_left": {
       "X": 0.5,
       "Y": 1.0
      },
      "handle_right": {
       "X": 0.5,
       "Y": 0.0
      },
      "handle_type": 0,
      "interpolation": 0
     }
    ]
   },
   "perspective_c3_x": {
    "Points": [
     {
      "co": {
       "X": 1.0,
       "Y": -1.0
      },
      "handle_left": {
       "X": 0.5,
       "Y": 1.0
      },
      "handle_right": {
       "X": 0.5,
       "Y": 0.0
      },
      "handle_type": 0,
      "interpolation": 0
     }
    ]
   },
   "perspective_c3_y": {
    "Points": [
     {
      "co": {
       "X": 1.0,
       "Y": -1.0
      },
      "handle_left": {
       "X": 0.5,
       "Y": 1.0
      },
      "handle_right": {
       "X": 0.5,
       "Y": 0.0
      },
      "handle_type": 0,
      "interpolation": 0
     }
    ]
   },
   "perspective_c4_x": {
    "Points": [
     {
      "co": {
       "X": 1.0,
       "Y": -1.0
      },
      "handle_left": {
       "X": 0.5,
       "Y": 1.0
      },
      "handle_right": {
       "X": 0.5,
       "Y": 0.0
      },
      "handle_type": 0,
      "interpolation": 0
     }
    ]
   },
   "perspective_c4_y": {
    "Points": [
     {
      "co": {
       "X": 1.0,
       "Y": -1.0
      },
      "handle_left": {
       "X": 0.5,
       "Y": 1.0
      },
      "handle_right": {
       "X": 0.5,
       "Y": 0.0
      },
      "handle_type": 0,
      "interpolation": 0
     }
    ]
   },
   "position": 26.633333333333333,
   "reader": {
    "acodec": "",
    "audio_bit_rate": 0,
    "audio_stream_index": -1,
    "audio_timebase": {
     "den": 1,
     "num": 1
    },
    "channel_layout": 4,
    "channels": 0,
    "display_ratio": {
     "den": 305,
     "num": 657
    },
    "duration": 3600.0,
    "file_size": "801540",
    "fps": {
     "den": 1,
     "num": 30
    },
    "has_audio": false,
    "has_single_image": true,
    "has_video": true,
    "height": 305,
    "interlaced_frame": false,
    "metadata": {},
    "path": "./drawing5.png",
    "pixel_format": -1,
    "pixel_ratio": {
     "den": 1,
     "num": 1
    },
    "sample_rate": 0,
    "top_field_first": true,
    "type": "QtImageReader",
    "vcodec": "",
    "video_bit_rate": 0,
    "video_length": "108000",
    "video_stream_index": -1,
    "video_timebase": {
     "den": 30,
     "num": 1
    },
    "width": 657,
    "media_type": "image",
    "id": "OCHQX178JT"
   },
   "rotation": {
    "Points": [
     {
      "co": {
       "X": 1.0,
       "Y": 0.0
      },
      "handle_left": {
       "X": 0.5,
       "Y": 1.0
      },
      "handle_right": {
       "X": 0.5,
       "Y": 0.0
      },
      "handle_type": 0,
      "interpolation": 0
     }
    ]
   },
   "scale": 1,
   "scale_x": {
    "Points": [
     {
      "co": {
       "X": 1,
       "Y": 0.2299826763811469
      },
      "handle_left": {
       "X": 0.5,
       "Y": 1.0
      },
      "handle_right": {
       "X": 0.5,
       "Y": 0.0
      },
      "handle_type": 0,
      "interpolation": 0
     }
    ]
   },
   "scale_y": {
    "Points": [
     {
      "co": {
       "X": 1,
       "Y": 0.2299826763811469
      },
      "handle_left": {
       "X": 0.5,
       "Y": 1.0
      },
      "handle_right": {
       "X": 0.5,
       "Y": 0.0
      },
      "handle_type": 0,
      "interpolation": 0
     }
    ]
   },
   "shear_x": {
    "Points": [
     {
      "co": {
       "X": 1.0,
       "Y": 0.0
      },
      "handle_left": {
       "X": 0.5,
       "Y": 1.0
      },
      "handle_right": {
       "X": 0.5,
       "Y": 0.0
      },
      "handle_type": 0,
      "interpolation": 0
     }
    ]
   },
   "shear_y": {
    "Points": [
     {
      "co": {
       "X": 1.0,
       "Y": 0.0
      },
      "handle_left": {
       "X": 0.5,
       "Y": 1.0
      },
      "handle_right": {
       "X": 0.5,
       "Y": 0.0
      },
      "handle_type": 0,
      "interpolation": 0
     }
    ]
   },
   "start": 0,
   "time": {
    "Points": [
     {
      "co": {
       "X": 1.0,
       "Y": 1.0
      },
      "handle_left": {
       "X": 0.5,
       "Y": 1.0
      },
      "handle_right": {
       "X": 0.5,
       "Y": 0.0
      },
      "handle_type": 0,
      "interpolation": 0
     }
    ]
   },
   "volume": {
    "Points": [
     {
      "co": {
       "X": 1.0,
       "Y": 1.0
      },
      "handle_left": {
       "X": 0.5,
       "Y": 1.0
      },
      "handle_right": {
       "X": 0.5,
       "Y": 0.0
      },
      "handle_type": 0,
      "interpolation": 0
     }
    ]
   },
   "wave_color": {
    "alpha": {
     "Points": [
      {
       "co": {
        "X": 1.0,
        "Y": 255.0
       },
       "handle_left": {
        "X": 0.5,
        "Y": 1.0
       },
       "handle_right": {
        "X": 0.5,
        "Y": 0.0
       },
       "handle_type": 0,
       "interpolation": 0
      }
     ]
    },
    "blue": {
     "Points": [
      {
       "co": {
        "X": 1.0,
        "Y": 255.0
       },
       "handle_left": {
        "X": 0.5,
        "Y": 1.0
       },
       "handle_right": {
        "X": 0.5,
        "Y": 0.0
       },
       "handle_type": 0,
       "interpolation": 0
      }
     ]
    },
    "green": {
     "Points": [
      {
       "co": {
        "X": 1.0,
        "Y": 123.0
       },
       "handle_left": {
        "X": 0.5,
        "Y": 1.0
       },
       "handle_right": {
        "X": 0.5,
        "Y": 0.0
       },
       "handle_type": 0,
       "interpolation": 0
      }
     ]
    },
    "red": {
     "Points": [
      {
       "co": {
        "X": 1.0,
        "Y": 0.0
       },
       "handle_left": {
        "X": 0.5,
        "Y": 1.0
       },
       "handle_right": {
        "X": 0.5,
        "Y": 0.0
       },
       "handle_type": 0,
       "interpolation": 0
      }
     ]
    }
   },
   "waveform": false,
   "file_id": "OCHQX178JT",
   "title": "drawing5.png",
   "image": "Tutorial_assets/thumbnail/OCHQX178JT.png"
  },
  {
   "alpha": {
    "Points": [
     {
      "co": {
       "X": 1.0,
       "Y": 1.0
      },
      "handle_left": {
       "X": 0.5,
       "Y": 1.0
      },
      "handle_right": {
       "X": 0.5,
       "Y": 0.0
      },
      "handle_type": 0,
      "interpolation": 0
     }
    ]
   },
   "anchor": 0,
   "channel_filter": {
    "Points": [
     {
      "co": {
       "X": 1.0,
       "Y": -1.0
      },
      "handle_left": {
       "X": 0.5,
       "Y": 1.0
      },
      "handle_right": {
       "X": 0.5,
       "Y": 0.0
      },
      "handle_type": 0,
      "interpolation": 0
     }
    ]
   },
   "channel_mapping": {
    "Points": [
     {
      "co": {
       "X": 1.0,
       "Y": -1.0
      },
      "handle_left": {
       "X": 0.5,
       "Y": 1.0
      },
      "handle_right": {
       "X": 0.5,
       "Y": 0.0
      },
      "handle_type": 0,
      "interpolation": 0
     }
    ]
   },
   "display": 0,
   "duration": 3600.0,
   "effects": [],
   "end": 5.0,
   "gravity": 4,
   "has_audio": {
    "Points": [
     {
      "co": {
       "X": 1.0,
       "Y": -1.0
      },
      "handle_left": {
       "X": 0.5,
       "Y": 1.0
      },
      "handle_right": {
       "X": 0.5,
       "Y": 0.0
      },
      "handle_type": 0,
      "interpolation": 0
     }
    ]
   },
   "has_video": {
    "Points": [
     {
      "co": {
       "X": 1.0,
       "Y": -1.0
      },
      "handle_left": {
       "X": 0.5,
       "Y": 1.0
      },
      "handle_right": {
       "X": 0.5,
       "Y": 0.0
      },
      "handle_type": 0,
      "interpolation": 0
     }
    ]
   },
   "id": "WG2FPX54SP",
   "layer": 7000000,
   "location_x": {
    "Points": [
     {
      "co": {
       "X": 1,
       "Y": -0.30323687195777893
      },
      "handle_left": {
       "X": 0.5,
       "Y": 1.0
      },
      "handle_right": {
       "X": 0.5,
       "Y": 0.0
      },
      "handle_type": 0,
      "interpolation": 0
     }
    ]
   },
   "location_y": {
    "Points": [
     {
      "co": {
       "X": 1,
       "Y": 0.27878782442121797
      },
      "handle_left": {
       "X": 0.5,
       "Y": 1.0
      },
      "handle_right": {
       "X": 0.5,
       "Y": 0.0
      },
      "handle_type": 0,
      "interpolation": 0
     }
    ]
   },
   "mixing": 0,
   "origin_x": {
    "Points": [
     {
      "co": {
       "X": 1.0,
       "Y": 0.5
      },
      "handle_left": {
       "X": 0.5,
       "Y": 1.0
      },
      "handle_right": {
       "X": 0.5,
       "Y": 0.0
      },
      "handle_type": 0,
      "interpolation": 0
     }
    ]
   },
   "origin_y": {
    "Points": [
     {
      "co": {
       "X": 1.0,
       "Y": 0.5
      },
      "handle_left": {
       "X": 0.5,
       "Y": 1.0
      },
      "handle_right": {
       "X": 0.5,
       "Y": 0.0
      },
      "handle_type": 0,
      "interpolation": 0
     }
    ]
   },
   "parentObjectId": "",
   "perspective_c1_x": {
    "Points": [
     {
      "co": {
       "X": 1.0,
       "Y": -1.0
      },
      "handle_left": {
       "X": 0.5,
       "Y": 1.0
      },
      "handle_right": {
       "X": 0.5,
       "Y": 0.0
      },
      "handle_type": 0,
      "interpolation": 0
     }
    ]
   },
   "perspective_c1_y": {
    "Points": [
     {
      "co": {
       "X": 1.0,
       "Y": -1.0
      },
      "handle_left": {
       "X": 0.5,
       "Y": 1.0
      },
      "handle_right": {
       "X": 0.5,
       "Y": 0.0
      },
      "handle_type": 0,
      "interpolation": 0
     }
    ]
   },
   "perspective_c2_x": {
    "Points": [
     {
      "co": {
       "X": 1.0,
       "Y": -1.0
      },
      "handle_left": {
       "X": 0.5,
       "Y": 1.0
      },
      "handle_right": {
       "X": 0.5,
       "Y": 0.0
      },
      "handle_type": 0,
      "interpolation": 0
     }
    ]
   },
   "perspective_c2_y": {
    "Points": [
     {
      "co": {
       "X": 1.0,
       "Y": -1.0
      },
      "handle_left": {
       "X": 0.5,
       "Y": 1.0
      },
      "handle_right": {
       "X": 0.5,
       "Y": 0.0
      },
      "handle_type": 0,
      "interpolation": 0
     }
    ]
   },
   "perspective_c3_x": {
    "Points": [
     {
      "co": {
       "X": 1.0,
       "Y": -1.0
      },
      "handle_left": {
       "X": 0.5,
       "Y": 1.0
      },
      "handle_right": {
       "X": 0.5,
       "Y": 0.0
      },
      "handle_type": 0,
      "interpolation": 0
     }
    ]
   },
   "perspective_c3_y": {
    "Points": [
     {
      "co": {
       "X": 1.0,
       "Y": -1.0
      },
      "handle_left": {
       "X": 0.5,
       "Y": 1.0
      },
      "handle_right": {
       "X": 0.5,
       "Y": 0.0
      },
      "handle_type": 0,
      "interpolation": 0
     }
    ]
   },
   "perspective_c4_x": {
    "Points": [
     {
      "co": {
       "X": 1.0,
       "Y": -1.0
      },
      "handle_left": {
       "X": 0.5,
       "Y": 1.0
      },
      "handle_right": {
       "X": 0.5,
       "Y": 0.0
      },
      "handle_type": 0,
      "interpolation": 0
     }
    ]
   },
   "perspective_c4_y": {
    "Points": [
     {
      "co": {
       "X": 1.0,
       "Y": -1.0
      },
      "handle_left": {
       "X": 0.5,
       "Y": 1.0
      },
      "handle_right": {
       "X": 0.5,
       "Y": 0.0
      },
      "handle_type": 0,
      "interpolation": 0
     }
    ]
   },
   "position": 31.333333333333332,
   "reader": {
    "acodec": "",
    "audio_bit_rate": 0,
    "audio_stream_index": -1,
    "audio_timebase": {
     "den": 1,
     "num": 1
    },
    "channel_layout": 4,
    "channels": 0,
    "display_ratio": {
     "den": 899,
     "num": 1646
    },
    "duration": 3600.0,
    "file_size": "5919016",
    "fps": {
     "den": 1,
     "num": 30
    },
    "has_audio": false,
    "has_single_image": true,
    "has_video": true,
    "height": 899,
    "interlaced_frame": false,
    "metadata": {},
    "path": "./drawing6.png",
    "pixel_format": -1,
    "pixel_ratio": {
     "den": 1,
     "num": 1
    },
    "sample_rate": 0,
    "top_field_first": true,
    "type": "QtImageReader",
    "vcodec": "",
    "video_bit_rate": 0,
    "video_length": "108000",
    "video_stream_index": -1,
    "video_timebase": {
     "den": 30,
     "num": 1
    },
    "width": 1646,
    "media_type": "image",
    "id": "XL5CQCWLBY"
   },
   "rotation": {
    "Points": [
     {
      "co": {
       "X": 1.0,
       "Y": 0.0
      },
      "handle_left": {
       "X": 0.5,
       "Y": 1.0
      },
      "handle_right": {
       "X": 0.5,
       "Y": 0.0
      },
      "handle_type": 0,
      "interpolation": 0
     }
    ]
   },
   "scale": 1,
   "scale_x": {
    "Points": [
     {
      "co": {
       "X": 1,
       "Y": 0.3543441936856031
      },
      "handle_left": {
       "X": 0.5,
       "Y": 1.0
      },
      "handle_right": {
       "X": 0.5,
       "Y": 0.0
      },
      "handle_type": 0,
      "interpolation": 0
     }
    ]
   },
   "scale_y": {
    "Points": [
     {
      "co": {
       "X": 1,
       "Y": 0.3543441936856031
      },
      "handle_left": {
       "X": 0.5,
       "Y": 1.0
      },
      "handle_right": {
       "X": 0.5,
       "Y": 0.0
      },
      "handle_type": 0,
      "interpolation": 0
     }
    ]
   },
   "shear_x": {
    "Points": [
     {
      "co": {
       "X": 1.0,
       "Y": 0.0
      },
      "handle_left": {
       "X": 0.5,
       "Y": 1.0
      },
      "handle_right": {
       "X": 0.5,
       "Y": 0.0
      },
      "handle_type": 0,
      "interpolation": 0
     }
    ]
   },
   "shear_y": {
    "Points": [
     {
      "co": {
       "X": 1.0,
       "Y": 0.0
      },
      "handle_left": {
       "X": 0.5,
       "Y": 1.0
      },
      "handle_right": {
       "X": 0.5,
       "Y": 0.0
      },
      "handle_type": 0,
      "interpolation": 0
     }
    ]
   },
   "start": 0,
   "time": {
    "Points": [
     {
      "co": {
       "X": 1.0,
       "Y": 1.0
      },
      "handle_left": {
       "X": 0.5,
       "Y": 1.0
      },
      "handle_right": {
       "X": 0.5,
       "Y": 0.0
      },
      "handle_type": 0,
      "interpolation": 0
     }
    ]
   },
   "volume": {
    "Points": [
     {
      "co": {
       "X": 1.0,
       "Y": 1.0
      },
      "handle_left": {
       "X": 0.5,
       "Y": 1.0
      },
      "handle_right": {
       "X": 0.5,
       "Y": 0.0
      },
      "handle_type": 0,
      "interpolation": 0
     }
    ]
   },
   "wave_color": {
    "alpha": {
     "Points": [
      {
       "co": {
        "X": 1.0,
        "Y": 255.0
       },
       "handle_left": {
        "X": 0.5,
        "Y": 1.0
       },
       "handle_right": {
        "X": 0.5,
        "Y": 0.0
       },
       "handle_type": 0,
       "interpolation": 0
      }
     ]
    },
    "blue": {
     "Points": [
      {
       "co": {
        "X": 1.0,
        "Y": 255.0
       },
       "handle_left": {
        "X": 0.5,
        "Y": 1.0
       },
       "handle_right": {
        "X": 0.5,
        "Y": 0.0
       },
       "handle_type": 0,
       "interpolation": 0
      }
     ]
    },
    "green": {
     "Points": [
      {
       "co": {
        "X": 1.0,
        "Y": 123.0
       },
       "handle_left": {
        "X": 0.5,
        "Y": 1.0
       },
       "handle_right": {
        "X": 0.5,
        "Y": 0.0
       },
       "handle_type": 0,
       "interpolation": 0
      }
     ]
    },
    "red": {
     "Points": [
      {
       "co": {
        "X": 1.0,
        "Y": 0.0
       },
       "handle_left": {
        "X": 0.5,
        "Y": 1.0
       },
       "handle_right": {
        "X": 0.5,
        "Y": 0.0
       },
       "handle_type": 0,
       "interpolation": 0
      }
     ]
    }
   },
   "waveform": false,
   "file_id": "XL5CQCWLBY",
   "title": "drawing6.png",
   "image": "Tutorial_assets/thumbnail/XL5CQCWLBY.png"
  },
  {
   "alpha": {
    "Points": [
     {
      "co": {
       "X": 1.0,
       "Y": 1.0
      },
      "handle_left": {
       "X": 0.5,
       "Y": 1.0
      },
      "handle_right": {
       "X": 0.5,
       "Y": 0.0
      },
      "handle_type": 0,
      "interpolation": 0
     }
    ]
   },
   "anchor": 0,
   "channel_filter": {
    "Points": [
     {
      "co": {
       "X": 1.0,
       "Y": -1.0
      },
      "handle_left": {
       "X": 0.5,
       "Y": 1.0
      },
      "handle_right": {
       "X": 0.5,
       "Y": 0.0
      },
      "handle_type": 0,
      "interpolation": 0
     }
    ]
   },
   "channel_mapping": {
    "Points": [
     {
      "co": {
       "X": 1.0,
       "Y": -1.0
      },
      "handle_left": {
       "X": 0.5,
       "Y": 1.0
      },
      "handle_right": {
       "X": 0.5,
       "Y": 0.0
      },
      "handle_type": 0,
      "interpolation": 0
     }
    ]
   },
   "display": 0,
   "duration": 3600.0,
   "effects": [],
   "end": 5.0,
   "gravity": 4,
   "has_audio": {
    "Points": [
     {
      "co": {
       "X": 1.0,
       "Y": -1.0
      },
      "handle_left": {
       "X": 0.5,
       "Y": 1.0
      },
      "handle_right": {
       "X": 0.5,
       "Y": 0.0
      },
      "handle_type": 0,
      "interpolation": 0
     }
    ]
   },
   "has_video": {
    "Points": [
     {
      "co": {
       "X": 1.0,
       "Y": -1.0
      },
      "handle_left": {
       "X": 0.5,
       "Y": 1.0
      },
      "handle_right": {
       "X": 0.5,
       "Y": 0.0
      },
      "handle_type": 0,
      "interpolation": 0
     }
    ]
   },
   "id": "7U3IQI67K8",
   "layer": 5000000,
   "location_x": {
    "Points": [
     {
      "co": {
       "X": 1,
       "Y": 0.04940374827669264
      },
      "handle_left": {
       "X": 0.5,
       "Y": 1.0
      },
      "handle_right": {
       "X": 0.5,
       "Y": 0.0
      },
      "handle_type": 0,
      "interpolation": 0
     }
    ]
   },
   "location_y": {
    "Points": [
     {
      "co": {
       "X": 1,
       "Y": 3.068566911679227e-08
      },
      "handle_left": {
       "X": 0.5,
       "Y": 1.0
      },
      "handle_right": {
       "X": 0.5,
       "Y": 0.0
      },
      "handle_type": 0,
      "interpolation": 0
     }
    ]
   },
   "mixing": 0,
   "origin_x": {
    "Points": [
     {
      "co": {
       "X": 1.0,
       "Y": 0.5
      },
      "handle_left": {
       "X": 0.5,
       "Y": 1.0
      },
      "handle_right": {
       "X": 0.5,
       "Y": 0.0
      },
      "handle_type": 0,
      "interpolation": 0
     }
    ]
   },
   "origin_y": {
    "Points": [
     {
      "co": {
       "X": 1.0,
       "Y": 0.5
      },
      "handle_left": {
       "X": 0.5,
       "Y": 1.0
      },
      "handle_right": {
       "X": 0.5,
       "Y": 0.0
      },
      "handle_type": 0,
      "interpolation": 0
     }
    ]
   },
   "parentObjectId": "",
   "perspective_c1_x": {
    "Points": [
     {
      "co": {
       "X": 1.0,
       "Y": -1.0
      },
      "handle_left": {
       "X": 0.5,
       "Y": 1.0
      },
      "handle_right": {
       "X": 0.5,
       "Y": 0.0
      },
      "handle_type": 0,
      "interpolation": 0
     }
    ]
   },
   "perspective_c1_y": {
    "Points": [
     {
      "co": {
       "X": 1.0,
       "Y": -1.0
      },
      "handle_left": {
       "X": 0.5,
       "Y": 1.0
      },
      "handle_right": {
       "X": 0.5,
       "Y": 0.0
      },
      "handle_type": 0,
      "interpolation": 0
     }
    ]
   },
   "perspective_c2_x": {
    "Points": [
     {
      "co": {
       "X": 1.0,
       "Y": -1.0
      },
      "handle_left": {
       "X": 0.5,
       "Y": 1.0
      },
      "handle_right": {
       "X": 0.5,
       "Y": 0.0
      },
      "handle_type": 0,
      "interpolation": 0
     }
    ]
   },
   "perspective_c2_y": {
    "Points": [
     {
      "co": {
       "X": 1.0,
       "Y": -1.0
      },
      "handle_left": {
       "X": 0.5,
       "Y": 1.0
      },
      "handle_right": {
       "X": 0.5,
       "Y": 0.0
      },
      "handle_type": 0,
      "interpolation": 0
     }
    ]
   },
   "perspective_c3_x": {
    "Points": [
     {
      "co": {
       "X": 1.0,
       "Y": -1.0
      },
      "handle_left": {
       "X": 0.5,
       "Y": 1.0
      },
      "handle_right": {
       "X": 0.5,
       "Y": 0.0
      },
      "handle_type": 0,
      "interpolation": 0
     }
    ]
   },
   "perspective_c3_y": {
    "Points": [
     {
      "co": {
       "X": 1.0,
       "Y": -1.0
      },
      "handle_left": {
       "X": 0.5,
       "Y": 1.0
      },
      "handle_right": {
       "X": 0.5,
       "Y": 0.0
      },
      "handle_type": 0,
      "interpolation": 0
     }
    ]
   },
   "perspective_c4_x": {
    "Points": [
     {
      "co": {
       "X": 1.0,
       "Y": -1.0
      },
      "handle_left": {
       "X": 0.5,
       "Y": 1.0
      },
      "handle_right": {
       "X": 0.5,
       "Y": 0.0
      },
      "handle_type": 0,
      "interpolation": 0
     }
    ]
   },
   "perspective_c4_y": {
    "Points": [
     {
      "co": {
       "X": 1.0,
       "Y": -1.0
      },
      "handle_left": {
       "X": 0.5,
       "Y": 1.0
      },
      "handle_right": {
       "X": 0.5,
       "Y": 0.0
      },
      "handle_type": 0,
      "interpolation": 0
     }
    ]
   },
   "position": 31.333333333333332,
   "reader": {
    "acodec": "",
    "audio_bit_rate": 0,
    "audio_stream_index": -1,
    "audio_timebase": {
     "den": 1,
     "num": 1
    },
    "channel_layout": 4,
    "channels": 0,
    "display_ratio": {
     "den": 1,
     "num": 1
    },
    "duration": 3600.0,
    "file_size": "1633284",
    "fps": {
     "den": 1,
     "num": 30
    },
    "has_audio": false,
    "has_single_image": true,
    "has_video": true,
    "height": 639,
    "interlaced_frame": false,
    "metadata": {},
    "path": "./ellipse.png",
    "pixel_format": -1,
    "pixel_ratio": {
     "den": 1,
     "num": 1
    },
    "sample_rate": 0,
    "top_field_first": true,
    "type": "QtImageReader",
    "vcodec": "",
    "video_bit_rate": 0,
    "video_length": "108000",
    "video_stream_index": -1,
    "video_timebase": {
     "den": 30,
     "num": 1
    },
    "width": 639,
    "media_type": "image",
    "id": "BKPYQ6QJ6N"
   },
   "rotation": {
    "Points": [
     {
      "co": {
       "X": 1,
       "Y": 3.787234215150598
      },
      "handle_left": {
       "X": 0.5,
       "Y": 1.0
      },
      "handle_right": {
       "X": 0.5,
       "Y": 0.0
      },
      "handle_type": 0,
      "interpolation": 0
     }
    ]
   },
   "scale": 1,
   "scale_x": {
    "Points": [
     {
      "co": {
       "X": 1,
       "Y": 0.48484885981588655
      },
      "handle_left": {
       "X": 0.5,
       "Y": 1.0
      },
      "handle_right": {
       "X": 0.5,
       "Y": 0.0
      },
      "handle_type": 0,
      "interpolation": 0
     }
    ]
   },
   "scale_y": {
    "Points": [
     {
      "co": {
       "X": 1,
       "Y": 0.48484885981588655
      },
      "handle_left": {
       "X": 0.5,
       "Y": 1.0
      },
      "handle_right": {
       "X": 0.5,
       "Y": 0.0
      },
      "handle_type": 0,
      "interpolation": 0
     }
    ]
   },
   "shear_x": {
    "Points": [
     {
      "co": {
       "X": 1.0,
       "Y": 0.0
      },
      "handle_left": {
       "X": 0.5,
       "Y": 1.0
      },
      "handle_right": {
       "X": 0.5,
       "Y": 0.0
      },
      "handle_type": 0,
      "interpolation": 0
     }
    ]
   },
   "shear_y": {
    "Points": [
     {
      "co": {
       "X": 1.0,
       "Y": 0.0
      },
      "handle_left": {
       "X": 0.5,
       "Y": 1.0
      },
      "handle_right": {
       "X": 0.5,
       "Y": 0.0
      },
      "handle_type": 0,
      "interpolation": 0
     }
    ]
   },
   "start": 0,
   "time": {
    "Points": [
     {
      "co": {
       "X": 1.0,
       "Y": 1.0
      },
      "handle_left": {
       "X": 0.5,
       "Y": 1.0
      },
      "handle_right": {
       "X": 0.5,
       "Y": 0.0
      },
      "handle_type": 0,
      "interpolation": 0
     }
    ]
   },
   "volume": {
    "Points": [
     {
      "co": {
       "X": 1.0,
       "Y": 1.0
      },
      "handle_left": {
       "X": 0.5,
       "Y": 1.0
      },
      "handle_right": {
       "X": 0.5,
       "Y": 0.0
      },
      "handle_type": 0,
      "interpolation": 0
     }
    ]
   },
   "wave_color": {
    "alpha": {
     "Points": [
      {
       "co": {
        "X": 1.0,
        "Y": 255.0
       },
       "handle_left": {
        "X": 0.5,
        "Y": 1.0
       },
       "handle_right": {
        "X": 0.5,
        "Y": 0.0
       },
       "handle_type": 0,
       "interpolation": 0
      }
     ]
    },
    "blue": {
     "Points": [
      {
       "co": {
        "X": 1.0,
        "Y": 255.0
       },
       "handle_left": {
        "X": 0.5,
        "Y": 1.0
       },
       "handle_right": {
        "X": 0.5,
        "Y": 0.0
       },
       "handle_type": 0,
       "interpolation": 0
      }
     ]
    },
    "green": {
     "Points": [
      {
       "co": {
        "X": 1.0,
        "Y": 123.0
       },
       "handle_left": {
        "X": 0.5,
        "Y": 1.0
       },
       "handle_right": {
        "X": 0.5,
        "Y": 0.0
       },
       "handle_type": 0,
       "interpolation": 0
      }
     ]
    },
    "red": {
     "Points": [
      {
       "co": {
        "X": 1.0,
        "Y": 0.0
       },
       "handle_left": {
        "X": 0.5,
        "Y": 1.0
       },
       "handle_right": {
        "X": 0.5,
        "Y": 0.0
       },
       "handle_type": 0,
       "interpolation": 0
      }
     ]
    }
   },
   "waveform": false,
   "file_id": "BKPYQ6QJ6N",
   "title": "ellipse.png",
   "image": "Tutorial_assets/thumbnail/BKPYQ6QJ6N.png"
  },
  {
   "alpha": {
    "Points": [
     {
      "co": {
       "X": 1.0,
       "Y": 1.0
      },
      "handle_left": {
       "X": 0.5,
       "Y": 1.0
      },
      "handle_right": {
       "X": 0.5,
       "Y": 0.0
      },
      "handle_type": 0,
      "interpolation": 0
     }
    ]
   },
   "anchor": 0,
   "channel_filter": {
    "Points": [
     {
      "co": {
       "X": 1.0,
       "Y": -1.0
      },
      "handle_left": {
       "X": 0.5,
       "Y": 1.0
      },
      "handle_right": {
       "X": 0.5,
       "Y": 0.0
      },
      "handle_type": 0,
      "interpolation": 0
     }
    ]
   },
   "channel_mapping": {
    "Points": [
     {
      "co": {
       "X": 1.0,
       "Y": -1.0
      },
      "handle_left": {
       "X": 0.5,
       "Y": 1.0
      },
      "handle_right": {
       "X": 0.5,
       "Y": 0.0
      },
      "handle_type": 0,
      "interpolation": 0
     }
    ]
   },
   "display": 0,
   "duration": 3600.0,
   "effects": [],
   "end": 5.0,
   "gravity": 4,
   "has_audio": {
    "Points": [
     {
      "co": {
       "X": 1.0,
       "Y": -1.0
      },
      "handle_left": {
       "X": 0.5,
       "Y": 1.0
      },
      "handle_right": {
       "X": 0.5,
       "Y": 0.0
      },
      "handle_type": 0,
      "interpolation": 0
     }
    ]
   },
   "has_video": {
    "Points": [
     {
      "co": {
       "X": 1.0,
       "Y": -1.0
      },
      "handle_left": {
       "X": 0.5,
       "Y": 1.0
      },
      "handle_right": {
       "X": 0.5,
       "Y": 0.0
      },
      "handle_type": 0,
      "interpolation": 0
     }
    ]
   },
   "layer": 6000000,
   "location_x": {
    "Points": [
     {
      "co": {
       "X": 1,
       "Y": -0.10902896523475647
      },
      "handle_left": {
       "X": 0.5,
       "Y": 1.0
      },
      "handle_right": {
       "X": 0.5,
       "Y": 0.0
      },
      "handle_type": 0,
      "interpolation": 0
     }
    ]
   },
   "location_y": {
    "Points": [
     {
      "co": {
       "X": 1,
       "Y": -0.15757572795405533
      },
      "handle_left": {
       "X": 0.5,
       "Y": 1.0
      },
      "handle_right": {
       "X": 0.5,
       "Y": 0.0
      },
      "handle_type": 0,
      "interpolation": 0
     }
    ]
   },
   "mixing": 0,
   "origin_x": {
    "Points": [
     {
      "co": {
       "X": 1.0,
       "Y": 0.5
      },
      "handle_left": {
       "X": 0.5,
       "Y": 1.0
      },
      "handle_right": {
       "X": 0.5,
       "Y": 0.0
      },
      "handle_type": 0,
      "interpolation": 0
     }
    ]
   },
   "origin_y": {
    "Points": [
     {
      "co": {
       "X": 1.0,
       "Y": 0.5
      },
      "handle_left": {
       "X": 0.5,
       "Y": 1.0
      },
      "handle_right": {
       "X": 0.5,
       "Y": 0.0
      },
      "handle_type": 0,
      "interpolation": 0
     }
    ]
   },
   "parentObjectId": "",
   "perspective_c1_x": {
    "Points": [
     {
      "co": {
       "X": 1.0,
       "Y": -1.0
      },
      "handle_left": {
       "X": 0.5,
       "Y": 1.0
      },
      "handle_right": {
       "X": 0.5,
       "Y": 0.0
      },
      "handle_type": 0,
      "interpolation": 0
     }
    ]
   },
   "perspective_c1_y": {
    "Points": [
     {
      "co": {
       "X": 1.0,
       "Y": -1.0
      },
      "handle_left": {
       "X": 0.5,
       "Y": 1.0
      },
      "handle_right": {
       "X": 0.5,
       "Y": 0.0
      },
      "handle_type": 0,
      "interpolation": 0
     }
    ]
   },
   "perspective_c2_x": {
    "Points": [
     {
      "co": {
       "X": 1.0,
       "Y": -1.0
      },
      "handle_left": {
       "X": 0.5,
       "Y": 1.0
      },
      "handle_right": {
       "X": 0.5,
       "Y": 0.0
      },
      "handle_type": 0,
      "interpolation": 0
     }
    ]
   },
   "perspective_c2_y": {
    "Points": [
     {
      "co": {
       "X": 1.0,
       "Y": -1.0
      },
      "handle_left": {
       "X": 0.5,
       "Y": 1.0
      },
      "handle_right": {
       "X": 0.5,
       "Y": 0.0
      },
      "handle_type": 0,
      "interpolation": 0
     }
    ]
   },
   "perspective_c3_x": {
    "Points": [
     {
      "co": {
       "X": 1.0,
       "Y": -1.0
      },
      "handle_left": {
       "X": 0.5,
       "Y": 1.0
      },
      "handle_right": {
       "X": 0.5,
       "Y": 0.0
      },
      "handle_type": 0,
      "interpolation": 0
     }
    ]
   },
   "perspective_c3_y": {
    "Points": [
     {
      "co": {
       "X": 1.0,
       "Y": -1.0
      },
      "handle_left": {
       "X": 0.5,
       "Y": 1.0
      },
      "handle_right": {
       "X": 0.5,
       "Y": 0.0
      },
      "handle_type": 0,
      "interpolation": 0
     }
    ]
   },
   "perspective_c4_x": {
    "Points": [
     {
      "co": {
       "X": 1.0,
       "Y": -1.0
      },
      "handle_left": {
       "X": 0.5,
       "Y": 1.0
      },
      "handle_right": {
       "X": 0.5,
       "Y": 0.0
      },
      "handle_type": 0,
      "interpolation": 0
     }
    ]
   },
   "perspective_c4_y": {
    "Points": [
     {
      "co": {
       "X": 1.0,
       "Y": -1.0
      },
      "handle_left": {
       "X": 0.5,
       "Y": 1.0
      },
      "handle_right": {
       "X": 0.5,
       "Y": 0.0
      },
      "handle_type": 0,
      "interpolation": 0
     }
    ]
   },
   "position": 31.333333333333332,
   "reader": {
    "acodec": "",
    "audio_bit_rate": 0,
    "audio_stream_index": -1,
    "audio_timebase": {
     "den": 1,
     "num": 1
    },
    "channel_layout": 4,
    "channels": 0,
    "display_ratio": {
     "den": 1,
     "num": 1
    },
    "duration": 3600.0,
    "file_size": "1633284",
    "fps": {
     "den": 1,
     "num": 30
    },
    "has_audio": false,
    "has_single_image": true,
    "has_video": true,
    "height": 639,
    "interlaced_frame": false,
    "metadata": {},
    "path": "./ellipse.png",
    "pixel_format": -1,
    "pixel_ratio": {
     "den": 1,
     "num": 1
    },
    "sample_rate": 0,
    "top_field_first": true,
    "type": "QtImageReader",
    "vcodec": "",
    "video_bit_rate": 0,
    "video_length": "108000",
    "video_stream_index": -1,
    "video_timebase": {
     "den": 30,
     "num": 1
    },
    "width": 639,
    "media_type": "image",
    "id": "BKPYQ6QJ6N"
   },
   "rotation": {
    "Points": [
     {
      "co": {
       "X": 1,
       "Y": -8.582470205749027
      },
      "handle_left": {
       "X": 0.5,
       "Y": 1.0
      },
      "handle_right": {
       "X": 0.5,
       "Y": 0.0
      },
      "handle_type": 0,
      "interpolation": 0
     }
    ]
   },
   "scale": 1,
   "scale_x": {
    "Points": [
     {
      "co": {
       "X": 1,
       "Y": 0.5606063575455636
      },
      "handle_left": {
       "X": 0.5,
       "Y": 1.0
      },
      "handle_right": {
       "X": 0.5,
       "Y": 0.0
      },
      "handle_type": 0,
      "interpolation": 0
     }
    ]
   },
   "scale_y": {
    "Points": [
     {
      "co": {
       "X": 1,
       "Y": 0.5606063575455636
      },
      "handle_left": {
       "X": 0.5,
       "Y": 1.0
      },
      "handle_right": {
       "X": 0.5,
       "Y": 0.0
      },
      "handle_type": 0,
      "interpolation": 0
     }
    ]
   },
   "shear_x": {
    "Points": [
     {
      "co": {
       "X": 1.0,
       "Y": 0.0
      },
      "handle_left": {
       "X": 0.5,
       "Y": 1.0
      },
      "handle_right": {
       "X": 0.5,
       "Y": 0.0
      },
      "handle_type": 0,
      "interpolation": 0
     }
    ]
   },
   "shear_y": {
    "Points": [
     {
      "co": {
       "X": 1.0,
       "Y": 0.0
      },
      "handle_left": {
       "X": 0.5,
       "Y": 1.0
      },
      "handle_right": {
       "X": 0.5,
       "Y": 0.0
      },
      "handle_type": 0,
      "interpolation": 0
     }
    ]
   },
   "start": 0,
   "time": {
    "Points": [
     {
      "co": {
       "X": 1.0,
       "Y": 1.0
      },
      "handle_left": {
       "X": 0.5,
       "Y": 1.0
      },
      "handle_right": {
       "X": 0.5,
       "Y": 0.0
      },
      "handle_type": 0,
      "interpolation": 0
     }
    ]
   },
   "volume": {
    "Points": [
     {
      "co": {
       "X": 1.0,
       "Y": 1.0
      },
      "handle_left": {
       "X": 0.5,
       "Y": 1.0
      },
      "handle_right": {
       "X": 0.5,
       "Y": 0.0
      },
      "handle_type": 0,
      "interpolation": 0
     }
    ]
   },
   "wave_color": {
    "alpha": {
     "Points": [
      {
       "co": {
        "X": 1.0,
        "Y": 255.0
       },
       "handle_left": {
        "X": 0.5,
        "Y": 1.0
       },
       "handle_right": {
        "X": 0.5,
        "Y": 0.0
       },
       "handle_type": 0,
       "interpolation": 0
      }
     ]
    },
    "blue": {
     "Points": [
      {
       "co": {
        "X": 1.0,
        "Y": 255.0
       },
       "handle_left": {
        "X": 0.5,
        "Y": 1.0
       },
       "handle_right": {
        "X": 0.5,
        "Y": 0.0
       },
       "handle_type": 0,
       "interpolation": 0
      }
     ]
    },
    "green": {
     "Points": [
      {
       "co": {
        "X": 1.0,
        "Y": 123.0
       },
       "handle_left": {
        "X": 0.5,
        "Y": 1.0
       },
       "handle_right": {
        "X": 0.5,
        "Y": 0.0
       },
       "handle_type": 0,
       "interpolation": 0
      }
     ]
    },
    "red": {
     "Points": [
      {
       "co": {
        "X": 1.0,
        "Y": 0.0
       },
       "handle_left": {
        "X": 0.5,
        "Y": 1.0
       },
       "handle_right": {
        "X": 0.5,
        "Y": 0.0
       },
       "handle_type": 0,
       "interpolation": 0
      }
     ]
    }
   },
   "waveform": false,
   "file_id": "BKPYQ6QJ6N",
   "title": "ellipse.png",
   "id": "FWLP5E3AE2",
   "image": "Tutorial_assets/thumbnail/BKPYQ6QJ6N.png"
  },
  {
   "alpha": {
    "Points": [
     {
      "co": {
       "X": 1.0,
       "Y": 1.0
      },
      "handle_left": {
       "X": 0.5,
       "Y": 1.0
      },
      "handle_right": {
       "X": 0.5,
       "Y": 0.0
      },
      "handle_type": 0,
      "interpolation": 0
     }
    ]
   },
   "anchor": 0,
   "channel_filter": {
    "Points": [
     {
      "co": {
       "X": 1.0,
       "Y": -1.0
      },
      "handle_left": {
       "X": 0.5,
       "Y": 1.0
      },
      "handle_right": {
       "X": 0.5,
       "Y": 0.0
      },
      "handle_type": 0,
      "interpolation": 0
     }
    ]
   },
   "channel_mapping": {
    "Points": [
     {
      "co": {
       "X": 1.0,
       "Y": -1.0
      },
      "handle_left": {
       "X": 0.5,
       "Y": 1.0
      },
      "handle_right": {
       "X": 0.5,
       "Y": 0.0
      },
      "handle_type": 0,
      "interpolation": 0
     }
    ]
   },
   "display": 0,
   "duration": 3600.0,
   "effects": [],
   "end": 11.500000000000004,
   "gravity": 4,
   "has_audio": {
    "Points": [
     {
      "co": {
       "X": 1.0,
       "Y": -1.0
      },
      "handle_left": {
       "X": 0.5,
       "Y": 1.0
      },
      "handle_right": {
       "X": 0.5,
       "Y": 0.0
      },
      "handle_type": 0,
      "interpolation": 0
     }
    ]
   },
   "has_video": {
    "Points": [
     {
      "co": {
       "X": 1.0,
       "Y": -1.0
      },
      "handle_left": {
       "X": 0.5,
       "Y": 1.0
      },
      "handle_right": {
       "X": 0.5,
       "Y": 0.0
      },
      "handle_type": 0,
      "interpolation": 0
     }
    ]
   },
   "id": "4MB7LK1ZWT",
   "layer": 2000000,
   "location_x": {
    "Points": [
     {
      "co": {
       "X": 1,
       "Y": -0.3313458647699535
      },
      "handle_left": {
       "X": 0.5,
       "Y": 1.0
      },
      "handle_right": {
       "X": 0.5,
       "Y": 0.0
      },
      "handle_type": 0,
      "interpolation": 0
     }
    ]
   },
   "location_y": {
    "Points": [
     {
      "co": {
       "X": 1,
       "Y": -0.3469696640968323
      },
      "handle_left": {
       "X": 0.5,
       "Y": 1.0
      },
      "handle_right": {
       "X": 0.5,
       "Y": 0.0
      },
      "handle_type": 0,
      "interpolation": 0
     }
    ]
   },
   "mixing": 0,
   "origin_x": {
    "Points": [
     {
      "co": {
       "X": 1.0,
       "Y": 0.5
      },
      "handle_left": {
       "X": 0.5,
       "Y": 1.0
      },
      "handle_right": {
       "X": 0.5,
       "Y": 0.0
      },
      "handle_type": 0,
      "interpolation": 0
     }
    ]
   },
   "origin_y": {
    "Points": [
     {
      "co": {
       "X": 1.0,
       "Y": 0.5
      },
      "handle_left": {
       "X": 0.5,
       "Y": 1.0
      },
      "handle_right": {
       "X": 0.5,
       "Y": 0.0
      },
      "handle_type": 0,
      "interpolation": 0
     }
    ]
   },
   "parentObjectId": "",
   "perspective_c1_x": {
    "Points": [
     {
      "co": {
       "X": 1.0,
       "Y": -1.0
      },
      "handle_left": {
       "X": 0.5,
       "Y": 1.0
      },
      "handle_right": {
       "X": 0.5,
       "Y": 0.0
      },
      "handle_type": 0,
      "interpolation": 0
     }
    ]
   },
   "perspective_c1_y": {
    "Points": [
     {
      "co": {
       "X": 1.0,
       "Y": -1.0
      },
      "handle_left": {
       "X": 0.5,
       "Y": 1.0
      },
      "handle_right": {
       "X": 0.5,
       "Y": 0.0
      },
      "handle_type": 0,
      "interpolation": 0
     }
    ]
   },
   "perspective_c2_x": {
    "Points": [
     {
      "co": {
       "X": 1.0,
       "Y": -1.0
      },
      "handle_left": {
       "X": 0.5,
       "Y": 1.0
      },
      "handle_right": {
       "X": 0.5,
       "Y": 0.0
      },
      "handle_type": 0,
      "interpolation": 0
     }
    ]
   },
   "perspective_c2_y": {
    "Points": [
     {
      "co": {
       "X": 1.0,
       "Y": -1.0
      },
      "handle_left": {
       "X": 0.5,
       "Y": 1.0
      },
      "handle_right": {
       "X": 0.5,
       "Y": 0.0
      },
      "handle_type": 0,
      "interpolation": 0
     }
    ]
   },
   "perspective_c3_x": {
    "Points": [
     {
      "co": {
       "X": 1.0,
       "Y": -1.0
      },
      "handle_left": {
       "X": 0.5,
       "Y": 1.0
      },
      "handle_right": {
       "X": 0.5,
       "Y": 0.0
      },
      "handle_type": 0,
      "interpolation": 0
     }
    ]
   },
   "perspective_c3_y": {
    "Points": [
     {
      "co": {
       "X": 1.0,
       "Y": -1.0
      },
      "handle_left": {
       "X": 0.5,
       "Y": 1.0
      },
      "handle_right": {
       "X": 0.5,
       "Y": 0.0
      },
      "handle_type": 0,
      "interpolation": 0
     }
    ]
   },
   "perspective_c4_x": {
    "Points": [
     {
      "co": {
       "X": 1.0,
       "Y": -1.0
      },
      "handle_left": {
       "X": 0.5,
       "Y": 1.0
      },
      "handle_right": {
       "X": 0.5,
       "Y": 0.0
      },
      "handle_type": 0,
      "interpolation": 0
     }
    ]
   },
   "perspective_c4_y": {
    "Points": [
     {
      "co": {
       "X": 1.0,
       "Y": -1.0
      },
      "handle_left": {
       "X": 0.5,
       "Y": 1.0
      },
      "handle_right": {
       "X": 0.5,
       "Y": 0.0
      },
      "handle_type": 0,
      "interpolation": 0
     }
    ]
   },
   "position": 36.7,
   "reader": {
    "acodec": "",
    "audio_bit_rate": 0,
    "audio_stream_index": -1,
    "audio_timebase": {
     "den": 1,
     "num": 1
    },
    "channel_layout": 4,
    "channels": 0,
    "display_ratio": {
     "den": 151,
     "num": 325
    },
    "duration": 3600.0,
    "file_size": "4907500",
    "fps": {
     "den": 1,
     "num": 30
    },
    "has_audio": false,
    "has_single_image": true,
    "has_video": true,
    "height": 755,
    "interlaced_frame": false,
    "metadata": {},
    "path": "./drawing7.png",
    "pixel_format": -1,
    "pixel_ratio": {
     "den": 1,
     "num": 1
    },
    "sample_rate": 0,
    "top_field_first": true,
    "type": "QtImageReader",
    "vcodec": "",
    "video_bit_rate": 0,
    "video_length": "108000",
    "video_stream_index": -1,
    "video_timebase": {
     "den": 30,
     "num": 1
    },
    "width": 1625,
    "media_type": "image",
    "id": "CH4GJCF2OG"
   },
   "rotation": {
    "Points": [
     {
      "co": {
       "X": 1.0,
       "Y": 0.0
      },
      "handle_left": {
       "X": 0.5,
       "Y": 1.0
      },
      "handle_right": {
       "X": 0.5,
       "Y": 0.0
      },
      "handle_type": 0,
      "interpolation": 0
     }
    ]
   },
   "scale": 1,
   "scale_x": {
    "Points": [
     {
      "co": {
       "X": 1,
       "Y": 0.3015332520008087
      },
      "handle_left": {
       "X": 0.5,
       "Y": 1.0
      },
      "handle_right": {
       "X": 0.5,
       "Y": 0.0
      },
      "handle_type": 0,
      "interpolation": 0
     }
    ]
   },
   "scale_y": {
    "Points": [
     {
      "co": {
       "X": 1,
       "Y": 0.3015332520008087
      },
      "handle_left": {
       "X": 0.5,
       "Y": 1.0
      },
      "handle_right": {
       "X": 0.5,
       "Y": 0.0
      },
      "handle_type": 0,
      "interpolation": 0
     }
    ]
   },
   "shear_x": {
    "Points": [
     {
      "co": {
       "X": 1.0,
       "Y": 0.0
      },
      "handle_left": {
       "X": 0.5,
       "Y": 1.0
      },
      "handle_right": {
       "X": 0.5,
       "Y": 0.0
      },
      "handle_type": 0,
      "interpolation": 0
     }
    ]
   },
   "shear_y": {
    "Points": [
     {
      "co": {
       "X": 1.0,
       "Y": 0.0
      },
      "handle_left": {
       "X": 0.5,
       "Y": 1.0
      },
      "handle_right": {
       "X": 0.5,
       "Y": 0.0
      },
      "handle_type": 0,
      "interpolation": 0
     }
    ]
   },
   "start": 0,
   "time": {
    "Points": [
     {
      "co": {
       "X": 1.0,
       "Y": 1.0
      },
      "handle_left": {
       "X": 0.5,
       "Y": 1.0
      },
      "handle_right": {
       "X": 0.5,
       "Y": 0.0
      },
      "handle_type": 0,
      "interpolation": 0
     }
    ]
   },
   "volume": {
    "Points": [
     {
      "co": {
       "X": 1.0,
       "Y": 1.0
      },
      "handle_left": {
       "X": 0.5,
       "Y": 1.0
      },
      "handle_right": {
       "X": 0.5,
       "Y": 0.0
      },
      "handle_type": 0,
      "interpolation": 0
     }
    ]
   },
   "wave_color": {
    "alpha": {
     "Points": [
      {
       "co": {
        "X": 1.0,
        "Y": 255.0
       },
       "handle_left": {
        "X": 0.5,
        "Y": 1.0
       },
       "handle_right": {
        "X": 0.5,
        "Y": 0.0
       },
       "handle_type": 0,
       "interpolation": 0
      }
     ]
    },
    "blue": {
     "Points": [
      {
       "co": {
        "X": 1.0,
        "Y": 255.0
       },
       "handle_left": {
        "X": 0.5,
        "Y": 1.0
       },
       "handle_right": {
        "X": 0.5,
        "Y": 0.0
       },
       "handle_type": 0,
       "interpolation": 0
      }
     ]
    },
    "green": {
     "Points": [
      {
       "co": {
        "X": 1.0,
        "Y": 123.0
       },
       "handle_left": {
        "X": 0.5,
        "Y": 1.0
       },
       "handle_right": {
        "X": 0.5,
        "Y": 0.0
       },
       "handle_type": 0,
       "interpolation": 0
      }
     ]
    },
    "red": {
     "Points": [
      {
       "co": {
        "X": 1.0,
        "Y": 0.0
       },
       "handle_left": {
        "X": 0.5,
        "Y": 1.0
       },
       "handle_right": {
        "X": 0.5,
        "Y": 0.0
       },
       "handle_type": 0,
       "interpolation": 0
      }
     ]
    }
   },
   "waveform": false,
   "file_id": "CH4GJCF2OG",
   "title": "drawing7.png",
   "image": "Tutorial_assets/thumbnail/CH4GJCF2OG.png"
  },
  {
   "alpha": {
    "Points": [
     {
      "co": {
       "X": 1.0,
       "Y": 1.0
      },
      "handle_left": {
       "X": 0.5,
       "Y": 1.0
      },
      "handle_right": {
       "X": 0.5,
       "Y": 0.0
      },
      "handle_type": 0,
      "interpolation": 0
     }
    ]
   },
   "anchor": 0,
   "channel_filter": {
    "Points": [
     {
      "co": {
       "X": 1.0,
       "Y": -1.0
      },
      "handle_left": {
       "X": 0.5,
       "Y": 1.0
      },
      "handle_right": {
       "X": 0.5,
       "Y": 0.0
      },
      "handle_type": 0,
      "interpolation": 0
     }
    ]
   },
   "channel_mapping": {
    "Points": [
     {
      "co": {
       "X": 1.0,
       "Y": -1.0
      },
      "handle_left": {
       "X": 0.5,
       "Y": 1.0
      },
      "handle_right": {
       "X": 0.5,
       "Y": 0.0
      },
      "handle_type": 0,
      "interpolation": 0
     }
    ]
   },
   "display": 0,
   "duration": 3600.0,
   "effects": [],
   "end": 7.566666666666674,
   "gravity": 4,
   "has_audio": {
    "Points": [
     {
      "co": {
       "X": 1.0,
       "Y": -1.0
      },
      "handle_left": {
       "X": 0.5,
       "Y": 1.0
      },
      "handle_right": {
       "X": 0.5,
       "Y": 0.0
      },
      "handle_type": 0,
      "interpolation": 0
     }
    ]
   },
   "has_video": {
    "Points": [
     {
      "co": {
       "X": 1.0,
       "Y": -1.0
      },
      "handle_left": {
       "X": 0.5,
       "Y": 1.0
      },
      "handle_right": {
       "X": 0.5,
       "Y": 0.0
      },
      "handle_type": 0,
      "interpolation": 0
     }
    ]
   },
   "id": "4XPP3EZ7Q8",
   "layer": 3000000,
   "location_x": {
    "Points": [
     {
      "co": {
       "X": 1,
       "Y": 0.3015332818031311
      },
      "handle_left": {
       "X": 0.5,
       "Y": 1.0
      },
      "handle_right": {
       "X": 0.5,
       "Y": 0.0
      },
      "handle_type": 0,
      "interpolation": 0
     }
    ]
   },
   "location_y": {
    "Points": [
     {
      "co": {
       "X": 1,
       "Y": 0.1666666701887593
      },
      "handle_left": {
       "X": 0.5,
       "Y": 1.0
      },
      "handle_right": {
       "X": 0.5,
       "Y": 0.0
      },
      "handle_type": 0,
      "interpolation": 0
     }
    ]
   },
   "mixing": 0,
   "origin_x": {
    "Points": [
     {
      "co": {
       "X": 1.0,
       "Y": 0.5
      },
      "handle_left": {
       "X": 0.5,
       "Y": 1.0
      },
      "handle_right": {
       "X": 0.5,
       "Y": 0.0
      },
      "handle_type": 0,
      "interpolation": 0
     }
    ]
   },
   "origin_y": {
    "Points": [
     {
      "co": {
       "X": 1.0,
       "Y": 0.5
      },
      "handle_left": {
       "X": 0.5,
       "Y": 1.0
      },
      "handle_right": {
       "X": 0.5,
       "Y": 0.0
      },
      "handle_type": 0,
      "interpolation": 0
     }
    ]
   },
   "parentObjectId": "",
   "perspective_c1_x": {
    "Points": [
     {
      "co": {
       "X": 1.0,
       "Y": -1.0
      },
      "handle_left": {
       "X": 0.5,
       "Y": 1.0
      },
      "handle_right": {
       "X": 0.5,
       "Y": 0.0
      },
      "handle_type": 0,
      "interpolation": 0
     }
    ]
   },
   "perspective_c1_y": {
    "Points": [
     {
      "co": {
       "X": 1.0,
       "Y": -1.0
      },
      "handle_left": {
       "X": 0.5,
       "Y": 1.0
      },
      "handle_right": {
       "X": 0.5,
       "Y": 0.0
      },
      "handle_type": 0,
      "interpolation": 0
     }
    ]
   },
   "perspective_c2_x": {
    "Points": [
     {
      "co": {
       "X": 1.0,
       "Y": -1.0
      },
      "handle_left": {
       "X": 0.5,
       "Y": 1.0
      },
      "handle_right": {
       "X": 0.5,
       "Y": 0.0
      },
      "handle_type": 0,
      "interpolation": 0
     }
    ]
   },
   "perspective_c2_y": {
    "Points": [
     {
      "co": {
       "X": 1.0,
       "Y": -1.0
      },
      "handle_left": {
       "X": 0.5,
       "Y": 1.0
      },
      "handle_right": {
       "X": 0.5,
       "Y": 0.0
      },
      "handle_type": 0,
      "interpolation": 0
     }
    ]
   },
   "perspective_c3_x": {
    "Points": [
     {
      "co": {
       "X": 1.0,
       "Y": -1.0
      },
      "handle_left": {
       "X": 0.5,
       "Y": 1.0
      },
      "handle_right": {
       "X": 0.5,
       "Y": 0.0
      },
      "handle_type": 0,
      "interpolation": 0
     }
    ]
   },
   "perspective_c3_y": {
    "Points": [
     {
      "co": {
       "X": 1.0,
       "Y": -1.0
      },
      "handle_left": {
       "X": 0.5,
       "Y": 1.0
      },
      "handle_right": {
       "X": 0.5,
       "Y": 0.0
      },
      "handle_type": 0,
      "interpolation": 0
     }
    ]
   },
   "perspective_c4_x": {
    "Points": [
     {
      "co": {
       "X": 1.0,
       "Y": -1.0
      },
      "handle_left": {
       "X": 0.5,
       "Y": 1.0
      },
      "handle_right": {
       "X": 0.5,
       "Y": 0.0
      },
      "handle_type": 0,
      "interpolation": 0
     }
    ]
   },
   "perspective_c4_y": {
    "Points": [
     {
      "co": {
       "X": 1.0,
       "Y": -1.0
      },
      "handle_left": {
       "X": 0.5,
       "Y": 1.0
      },
      "handle_right": {
       "X": 0.5,
       "Y": 0.0
      },
      "handle_type": 0,
      "interpolation": 0
     }
    ]
   },
   "position": 40.63333333333333,
   "reader": {
    "acodec": "",
    "audio_bit_rate": 0,
    "audio_stream_index": -1,
    "audio_timebase": {
     "den": 1,
     "num": 1
    },
    "channel_layout": 4,
    "channels": 0,
    "display_ratio": {
     "den": 755,
     "num": 1214
    },
    "duration": 3600.0,
    "file_size": "3666280",
    "fps": {
     "den": 1,
     "num": 30
    },
    "has_audio": false,
    "has_single_image": true,
    "has_video": true,
    "height": 755,
    "interlaced_frame": false,
    "metadata": {},
    "path": "./drawing8.png",
    "pixel_format": -1,
    "pixel_ratio": {
     "den": 1,
     "num": 1
    },
    "sample_rate": 0,
    "top_field_first": true,
    "type": "QtImageReader",
    "vcodec": "",
    "video_bit_rate": 0,
    "video_length": "108000",
    "video_stream_index": -1,
    "video_timebase": {
     "den": 30,
     "num": 1
    },
    "width": 1214,
    "media_type": "image",
    "id": "21L4PFXD3I"
   },
   "rotation": {
    "Points": [
     {
      "co": {
       "X": 1.0,
       "Y": 0.0
      },
      "handle_left": {
       "X": 0.5,
       "Y": 1.0
      },
      "handle_right": {
       "X": 0.5,
       "Y": 0.0
      },
      "handle_type": 0,
      "interpolation": 0
     }
    ]
   },
   "scale": 1,
   "scale_x": {
    "Points": [
     {
      "co": {
       "X": 1,
       "Y": 0.264844524225573
      },
      "handle_left": {
       "X": 0.5,
       "Y": 1.0
      },
      "handle_right": {
       "X": 0.5,
       "Y": 0.0
      },
      "handle_type": 0,
      "interpolation": 0
     }
    ]
   },
   "scale_y": {
    "Points": [
     {
      "co": {
       "X": 1,
       "Y": 0.264844524225573
      },
      "handle_left": {
       "X": 0.5,
       "Y": 1.0
      },
      "handle_right": {
       "X": 0.5,
       "Y": 0.0
      },
      "handle_type": 0,
      "interpolation": 0
     }
    ]
   },
   "shear_x": {
    "Points": [
     {
      "co": {
       "X": 1.0,
       "Y": 0.0
      },
      "handle_left": {
       "X": 0.5,
       "Y": 1.0
      },
      "handle_right": {
       "X": 0.5,
       "Y": 0.0
      },
      "handle_type": 0,
      "interpolation": 0
     }
    ]
   },
   "shear_y": {
    "Points": [
     {
      "co": {
       "X": 1.0,
       "Y": 0.0
      },
      "handle_left": {
       "X": 0.5,
       "Y": 1.0
      },
      "handle_right": {
       "X": 0.5,
       "Y": 0.0
      },
      "handle_type": 0,
      "interpolation": 0
     }
    ]
   },
   "start": 0,
   "time": {
    "Points": [
     {
      "co": {
       "X": 1.0,
       "Y": 1.0
      },
      "handle_left": {
       "X": 0.5,
       "Y": 1.0
      },
      "handle_right": {
       "X": 0.5,
       "Y": 0.0
      },
      "handle_type": 0,
      "interpolation": 0
     }
    ]
   },
   "volume": {
    "Points": [
     {
      "co": {
       "X": 1.0,
       "Y": 1.0
      },
      "handle_left": {
       "X": 0.5,
       "Y": 1.0
      },
      "handle_right": {
       "X": 0.5,
       "Y": 0.0
      },
      "handle_type": 0,
      "interpolation": 0
     }
    ]
   },
   "wave_color": {
    "alpha": {
     "Points": [
      {
       "co": {
        "X": 1.0,
        "Y": 255.0
       },
       "handle_left": {
        "X": 0.5,
        "Y": 1.0
       },
       "handle_right": {
        "X": 0.5,
        "Y": 0.0
       },
       "handle_type": 0,
       "interpolation": 0
      }
     ]
    },
    "blue": {
     "Points": [
      {
       "co": {
        "X": 1.0,
        "Y": 255.0
       },
       "handle_left": {
        "X": 0.5,
        "Y": 1.0
       },
       "handle_right": {
        "X": 0.5,
        "Y": 0.0
       },
       "handle_type": 0,
       "interpolation": 0
      }
     ]
    },
    "green": {
     "Points": [
      {
       "co": {
        "X": 1.0,
        "Y": 123.0
       },
       "handle_left": {
        "X": 0.5,
        "Y": 1.0
       },
       "handle_right": {
        "X": 0.5,
        "Y": 0.0
       },
       "handle_type": 0,
       "interpolation": 0
      }
     ]
    },
    "red": {
     "Points": [
      {
       "co": {
        "X": 1.0,
        "Y": 0.0
       },
       "handle_left": {
        "X": 0.5,
        "Y": 1.0
       },
       "handle_right": {
        "X": 0.5,
        "Y": 0.0
       },
       "handle_type": 0,
       "interpolation": 0
      }
     ]
    }
   },
   "waveform": false,
   "file_id": "21L4PFXD3I",
   "title": "drawing8.png",
   "image": "Tutorial_assets/thumbnail/21L4PFXD3I.png"
  },
  {
   "alpha": {
    "Points": [
     {
      "co": {
       "X": 1.0,
       "Y": 1.0
      },
      "handle_left": {
       "X": 0.5,
       "Y": 1.0
      },
      "handle_right": {
       "X": 0.5,
       "Y": 0.0
      },
      "handle_type": 0,
      "interpolation": 0
     }
    ]
   },
   "anchor": 0,
   "channel_filter": {
    "Points": [
     {
      "co": {
       "X": 1.0,
       "Y": -1.0
      },
      "handle_left": {
       "X": 0.5,
       "Y": 1.0
      },
      "handle_right": {
       "X": 0.5,
       "Y": 0.0
      },
      "handle_type": 0,
      "interpolation": 0
     }
    ]
   },
   "channel_mapping": {
    "Points": [
     {
      "co": {
       "X": 1.0,
       "Y": -1.0
      },
      "handle_left": {
       "X": 0.5,
       "Y": 1.0
      },
      "handle_right": {
       "X": 0.5,
       "Y": 0.0
      },
      "handle_type": 0,
      "interpolation": 0
     }
    ]
   },
   "display": 0,
   "duration": 3600.0,
   "effects": [],
   "end": 7.566666666666635,
   "gravity": 4,
   "has_audio": {
    "Points": [
     {
      "co": {
       "X": 1.0,
       "Y": -1.0
      },
      "handle_left": {
       "X": 0.5,
       "Y": 1.0
      },
      "handle_right": {
       "X": 0.5,
       "Y": 0.0
      },
      "handle_type": 0,
      "interpolation": 0
     }
    ]
   },
   "has_video": {
    "Points": [
     {
      "co": {
       "X": 1.0,
       "Y": -1.0
      },
      "handle_left": {
       "X": 0.5,
       "Y": 1.0
      },
      "handle_right": {
       "X": 0.5,
       "Y": 0.0
      },
      "handle_type": 0,
      "interpolation": 0
     }
    ]
   },
   "layer": 5000000,
   "location_x": {
    "Points": [
     {
      "co": {
       "X": 1,
       "Y": 0.09965930879116058
      },
      "handle_left": {
       "X": 0.5,
       "Y": 1.0
      },
      "handle_right": {
       "X": 0.5,
       "Y": 0.0
      },
      "handle_type": 0,
      "interpolation": 0
     }
    ]
   },
   "location_y": {
    "Points": [
     {
      "co": {
       "X": 1,
       "Y": 0.09242424969420289
      },
      "handle_left": {
       "X": 0.5,
       "Y": 1.0
      },
      "handle_right": {
       "X": 0.5,
       "Y": 0.0
      },
      "handle_type": 0,
      "interpolation": 0
     }
    ]
   },
   "mixing": 0,
   "origin_x": {
    "Points": [
     {
      "co": {
       "X": 1.0,
       "Y": 0.5
      },
      "handle_left": {
       "X": 0.5,
       "Y": 1.0
      },
      "handle_right": {
       "X": 0.5,
       "Y": 0.0
      },
      "handle_type": 0,
      "interpolation": 0
     }
    ]
   },
   "origin_y": {
    "Points": [
     {
      "co": {
       "X": 1.0,
       "Y": 0.5
      },
      "handle_left": {
       "X": 0.5,
       "Y": 1.0
      },
      "handle_right": {
       "X": 0.5,
       "Y": 0.0
      },
      "handle_type": 0,
      "interpolation": 0
     }
    ]
   },
   "parentObjectId": "",
   "perspective_c1_x": {
    "Points": [
     {
      "co": {
       "X": 1.0,
       "Y": -1.0
      },
      "handle_left": {
       "X": 0.5,
       "Y": 1.0
      },
      "handle_right": {
       "X": 0.5,
       "Y": 0.0
      },
      "handle_type": 0,
      "interpolation": 0
     }
    ]
   },
   "perspective_c1_y": {
    "Points": [
     {
      "co": {
       "X": 1.0,
       "Y": -1.0
      },
      "handle_left": {
       "X": 0.5,
       "Y": 1.0
      },
      "handle_right": {
       "X": 0.5,
       "Y": 0.0
      },
      "handle_type": 0,
      "interpolation": 0
     }
    ]
   },
   "perspective_c2_x": {
    "Points": [
     {
      "co": {
       "X": 1.0,
       "Y": -1.0
      },
      "handle_left": {
       "X": 0.5,
       "Y": 1.0
      },
      "handle_right": {
       "X": 0.5,
       "Y": 0.0
      },
      "handle_type": 0,
      "interpolation": 0
     }
    ]
   },
   "perspective_c2_y": {
    "Points": [
     {
      "co": {
       "X": 1.0,
       "Y": -1.0
      },
      "handle_left": {
       "X": 0.5,
       "Y": 1.0
      },
      "handle_right": {
       "X": 0.5,
       "Y": 0.0
      },
      "handle_type": 0,
      "interpolation": 0
     }
    ]
   },
   "perspective_c3_x": {
    "Points": [
     {
      "co": {
       "X": 1.0,
       "Y": -1.0
      },
      "handle_left": {
       "X": 0.5,
       "Y": 1.0
      },
      "handle_right": {
       "X": 0.5,
       "Y": 0.0
      },
      "handle_type": 0,
      "interpolation": 0
     }
    ]
   },
   "perspective_c3_y": {
    "Points": [
     {
      "co": {
       "X": 1.0,
       "Y": -1.0
      },
      "handle_left": {
       "X": 0.5,
       "Y": 1.0
      },
      "handle_right": {
       "X": 0.5,
       "Y": 0.0
      },
      "handle_type": 0,
      "interpolation": 0
     }
    ]
   },
   "perspective_c4_x": {
    "Points": [
     {
      "co": {
       "X": 1.0,
       "Y": -1.0
      },
      "handle_left": {
       "X": 0.5,
       "Y": 1.0
      },
      "handle_right": {
       "X": 0.5,
       "Y": 0.0
      },
      "handle_type": 0,
      "interpolation": 0
     }
    ]
   },
   "perspective_c4_y": {
    "Points": [
     {
      "co": {
       "X": 1.0,
       "Y": -1.0
      },
      "handle_left": {
       "X": 0.5,
       "Y": 1.0
      },
      "handle_right": {
       "X": 0.5,
       "Y": 0.0
      },
      "handle_type": 0,
      "interpolation": 0
     }
    ]
   },
   "position": 40.63333333333333,
   "reader": {
    "acodec": "",
    "audio_bit_rate": 0,
    "audio_stream_index": -1,
    "audio_timebase": {
     "den": 1,
     "num": 1
    },
    "channel_layout": 4,
    "channels": 0,
    "display_ratio": {
     "den": 32,
     "num": 293
    },
    "duration": 3600.0,
    "file_size": "37504",
    "fps": {
     "den": 1,
     "num": 30
    },
    "has_audio": false,
    "has_single_image": true,
    "has_video": true,
    "height": 32,
    "interlaced_frame": false,
    "metadata": {},
    "path": "./arrow.png",
    "pixel_format": -1,
    "pixel_ratio": {
     "den": 1,
     "num": 1
    },
    "sample_rate": 0,
    "top_field_first": true,
    "type": "QtImageReader",
    "vcodec": "",
    "video_bit_rate": 0,
    "video_length": "108000",
    "video_stream_index": -1,
    "video_timebase": {
     "den": 30,
     "num": 1
    },
    "width": 293,
    "media_type": "image",
    "id": "N0UHXUNZM4"
   },
   "rotation": {
    "Points": [
     {
      "co": {
       "X": 1,
       "Y": -156.68451450493316
      },
      "handle_left": {
       "X": 0.5,
       "Y": 1.0
      },
      "handle_right": {
       "X": 0.5,
       "Y": 0.0
      },
      "handle_type": 0,
      "interpolation": 0
     }
    ]
   },
   "scale": 1,
   "scale_x": {
    "Points": [
     {
      "co": {
       "X": 1,
       "Y": 0.16988435076930808
      },
      "handle_left": {
       "X": 0.5,
       "Y": 1.0
      },
      "handle_right": {
       "X": 0.5,
       "Y": 0.0
      },
      "handle_type": 0,
      "interpolation": 0
     }
    ]
   },
   "scale_y": {
    "Points": [
     {
      "co": {
       "X": 1,
       "Y": 0.16988435076930808
      },
      "handle_left": {
       "X": 0.5,
       "Y": 1.0
      },
      "handle_right": {
       "X": 0.5,
       "Y": 0.0
      },
      "handle_type": 0,
      "interpolation": 0
     }
    ]
   },
   "shear_x": {
    "Points": [
     {
      "co": {
       "X": 1.0,
       "Y": 0.0
      },
      "handle_left": {
       "X": 0.5,
       "Y": 1.0
      },
      "handle_right": {
       "X": 0.5,
       "Y": 0.0
      },
      "handle_type": 0,
      "interpolation": 0
     }
    ]
   },
   "shear_y": {
    "Points": [
     {
      "co": {
       "X": 1.0,
       "Y": 0.0
      },
      "handle_left": {
       "X": 0.5,
       "Y": 1.0
      },
      "handle_right": {
       "X": 0.5,
       "Y": 0.0
      },
      "handle_type": 0,
      "interpolation": 0
     }
    ]
   },
   "start": 0,
   "time": {
    "Points": [
     {
      "co": {
       "X": 1.0,
       "Y": 1.0
      },
      "handle_left": {
       "X": 0.5,
       "Y": 1.0
      },
      "handle_right": {
       "X": 0.5,
       "Y": 0.0
      },
      "handle_type": 0,
      "interpolation": 0
     }
    ]
   },
   "volume": {
    "Points": [
     {
      "co": {
       "X": 1.0,
       "Y": 1.0
      },
      "handle_left": {
       "X": 0.5,
       "Y": 1.0
      },
      "handle_right": {
       "X": 0.5,
       "Y": 0.0
      },
      "handle_type": 0,
      "interpolation": 0
     }
    ]
   },
   "wave_color": {
    "alpha": {
     "Points": [
      {
       "co": {
        "X": 1.0,
        "Y": 255.0
       },
       "handle_left": {
        "X": 0.5,
        "Y": 1.0
       },
       "handle_right": {
        "X": 0.5,
        "Y": 0.0
       },
       "handle_type": 0,
       "interpolation": 0
      }
     ]
    },
    "blue": {
     "Points": [
      {
       "co": {
        "X": 1.0,
        "Y": 255.0
       },
       "handle_left": {
        "X": 0.5,
        "Y": 1.0
       },
       "handle_right": {
        "X": 0.5,
        "Y": 0.0
       },
       "handle_type": 0,
       "interpolation": 0
      }
     ]
    },
    "green": {
     "Points": [
      {
       "co": {
        "X": 1.0,
        "Y": 123.0
       },
       "handle_left": {
        "X": 0.5,
        "Y": 1.0
       },
       "handle_right": {
        "X": 0.5,
        "Y": 0.0
       },
       "handle_type": 0,
       "interpolation": 0
      }
     ]
    },
    "red": {
     "Points": [
      {
       "co": {
        "X": 1.0,
        "Y": 0.0
       },
       "handle_left": {
        "X": 0.5,
        "Y": 1.0
       },
       "handle_right": {
        "X": 0.5,
        "Y": 0.0
       },
       "handle_type": 0,
       "interpolation": 0
      }
     ]
    }
   },
   "waveform": false,
   "file_id": "N0UHXUNZM4",
   "title": "arrow.png",
   "image": "Tutorial_assets/thumbnail/N0UHXUNZM4.png",
   "id": "9LSPMA3AWU"
  },
  {
   "alpha": {
    "Points": [
     {
      "co": {
       "X": 1.0,
       "Y": 1.0
      },
      "handle_left": {
       "X": 0.5,
       "Y": 1.0
      },
      "handle_right": {
       "X": 0.5,
       "Y": 0.0
      },
      "handle_type": 0,
      "interpolation": 0
     }
    ]
   },
   "anchor": 0,
   "channel_filter": {
    "Points": [
     {
      "co": {
       "X": 1.0,
       "Y": -1.0
      },
      "handle_left": {
       "X": 0.5,
       "Y": 1.0
      },
      "handle_right": {
       "X": 0.5,
       "Y": 0.0
      },
      "handle_type": 0,
      "interpolation": 0
     }
    ]
   },
   "channel_mapping": {
    "Points": [
     {
      "co": {
       "X": 1.0,
       "Y": -1.0
      },
      "handle_left": {
       "X": 0.5,
       "Y": 1.0
      },
      "handle_right": {
       "X": 0.5,
       "Y": 0.0
      },
      "handle_type": 0,
      "interpolation": 0
     }
    ]
   },
   "display": 0,
   "duration": 3600.0,
   "effects": [],
   "end": 7.566666666666639,
   "gravity": 4,
   "has_audio": {
    "Points": [
     {
      "co": {
       "X": 1.0,
       "Y": -1.0
      },
      "handle_left": {
       "X": 0.5,
       "Y": 1.0
      },
      "handle_right": {
       "X": 0.5,
       "Y": 0.0
      },
      "handle_type": 0,
      "interpolation": 0
     }
    ]
   },
   "has_video": {
    "Points": [
     {
      "co": {
       "X": 1.0,
       "Y": -1.0
      },
      "handle_left": {
       "X": 0.5,
       "Y": 1.0
      },
      "handle_right": {
       "X": 0.5,
       "Y": 0.0
      },
      "handle_type": 0,
      "interpolation": 0
     }
    ]
   },
   "layer": 4000000,
   "location_x": {
    "Points": [
     {
      "co": {
       "X": 1,
       "Y": -0.006814309792494753
      },
      "handle_left": {
       "X": 0.5,
       "Y": 1.0
      },
      "handle_right": {
       "X": 0.5,
       "Y": 0.0
      },
      "handle_type": 0,
      "interpolation": 0
     }
    ]
   },
   "location_y": {
    "Points": [
     {
      "co": {
       "X": 1,
       "Y": 0.012121212668716908
      },
      "handle_left": {
       "X": 0.5,
       "Y": 1.0
      },
      "handle_right": {
       "X": 0.5,
       "Y": 0.0
      },
      "handle_type": 0,
      "interpolation": 0
     }
    ]
   },
   "mixing": 0,
   "origin_x": {
    "Points": [
     {
      "co": {
       "X": 1.0,
       "Y": 0.5
      },
      "handle_left": {
       "X": 0.5,
       "Y": 1.0
      },
      "handle_right": {
       "X": 0.5,
       "Y": 0.0
      },
      "handle_type": 0,
      "interpolation": 0
     }
    ]
   },
   "origin_y": {
    "Points": [
     {
      "co": {
       "X": 1.0,
       "Y": 0.5
      },
      "handle_left": {
       "X": 0.5,
       "Y": 1.0
      },
      "handle_right": {
       "X": 0.5,
       "Y": 0.0
      },
      "handle_type": 0,
      "interpolation": 0
     }
    ]
   },
   "parentObjectId": "",
   "perspective_c1_x": {
    "Points": [
     {
      "co": {
       "X": 1.0,
       "Y": -1.0
      },
      "handle_left": {
       "X": 0.5,
       "Y": 1.0
      },
      "handle_right": {
       "X": 0.5,
       "Y": 0.0
      },
      "handle_type": 0,
      "interpolation": 0
     }
    ]
   },
   "perspective_c1_y": {
    "Points": [
     {
      "co": {
       "X": 1.0,
       "Y": -1.0
      },
      "handle_left": {
       "X": 0.5,
       "Y": 1.0
      },
      "handle_right": {
       "X": 0.5,
       "Y": 0.0
      },
      "handle_type": 0,
      "interpolation": 0
     }
    ]
   },
   "perspective_c2_x": {
    "Points": [
     {
      "co": {
       "X": 1.0,
       "Y": -1.0
      },
      "handle_left": {
       "X": 0.5,
       "Y": 1.0
      },
      "handle_right": {
       "X": 0.5,
       "Y": 0.0
      },
      "handle_type": 0,
      "interpolation": 0
     }
    ]
   },
   "perspective_c2_y": {
    "Points": [
     {
      "co": {
       "X": 1.0,
       "Y": -1.0
      },
      "handle_left": {
       "X": 0.5,
       "Y": 1.0
      },
      "handle_right": {
       "X": 0.5,
       "Y": 0.0
      },
      "handle_type": 0,
      "interpolation": 0
     }
    ]
   },
   "perspective_c3_x": {
    "Points": [
     {
      "co": {
       "X": 1.0,
       "Y": -1.0
      },
      "handle_left": {
       "X": 0.5,
       "Y": 1.0
      },
      "handle_right": {
       "X": 0.5,
       "Y": 0.0
      },
      "handle_type": 0,
      "interpolation": 0
     }
    ]
   },
   "perspective_c3_y": {
    "Points": [
     {
      "co": {
       "X": 1.0,
       "Y": -1.0
      },
      "handle_left": {
       "X": 0.5,
       "Y": 1.0
      },
      "handle_right": {
       "X": 0.5,
       "Y": 0.0
      },
      "handle_type": 0,
      "interpolation": 0
     }
    ]
   },
   "perspective_c4_x": {
    "Points": [
     {
      "co": {
       "X": 1.0,
       "Y": -1.0
      },
      "handle_left": {
       "X": 0.5,
       "Y": 1.0
      },
      "handle_right": {
       "X": 0.5,
       "Y": 0.0
      },
      "handle_type": 0,
      "interpolation": 0
     }
    ]
   },
   "perspective_c4_y": {
    "Points": [
     {
      "co": {
       "X": 1.0,
       "Y": -1.0
      },
      "handle_left": {
       "X": 0.5,
       "Y": 1.0
      },
      "handle_right": {
       "X": 0.5,
       "Y": 0.0
      },
      "handle_type": 0,
      "interpolation": 0
     }
    ]
   },
   "position": 40.63333333333333,
   "reader": {
    "acodec": "",
    "audio_bit_rate": 0,
    "audio_stream_index": -1,
    "audio_timebase": {
     "den": 1,
     "num": 1
    },
    "channel_layout": 4,
    "channels": 0,
    "display_ratio": {
     "den": 1,
     "num": 1
    },
    "duration": 3600.0,
    "file_size": "262144",
    "fps": {
     "den": 1,
     "num": 30
    },
    "has_audio": false,
    "has_single_image": true,
    "has_video": true,
    "height": 256,
    "interlaced_frame": false,
    "metadata": {},
    "path": "./circle2.png",
    "pixel_format": -1,
    "pixel_ratio": {
     "den": 1,
     "num": 1
    },
    "sample_rate": 0,
    "top_field_first": true,
    "type": "QtImageReader",
    "vcodec": "",
    "video_bit_rate": 0,
    "video_length": "108000",
    "video_stream_index": -1,
    "video_timebase": {
     "den": 30,
     "num": 1
    },
    "width": 256,
    "media_type": "image",
    "id": "ZU8X3E6NVA"
   },
   "rotation": {
    "Points": [
     {
      "co": {
       "X": 1.0,
       "Y": 0.0
      },
      "handle_left": {
       "X": 0.5,
       "Y": 1.0
      },
      "handle_right": {
       "X": 0.5,
       "Y": 0.0
      },
      "handle_type": 0,
      "interpolation": 0
     }
    ]
   },
   "scale": 1,
   "scale_x": {
    "Points": [
     {
      "co": {
       "X": 1,
       "Y": 0.10909121483564377
      },
      "handle_left": {
       "X": 0.5,
       "Y": 1.0
      },
      "handle_right": {
       "X": 0.5,
       "Y": 0.0
      },
      "handle_type": 0,
      "interpolation": 0
     }
    ]
   },
   "scale_y": {
    "Points": [
     {
      "co": {
       "X": 1,
       "Y": 0.10909121483564377
      },
      "handle_left": {
       "X": 0.5,
       "Y": 1.0
      },
      "handle_right": {
       "X": 0.5,
       "Y": 0.0
      },
      "handle_type": 0,
      "interpolation": 0
     }
    ]
   },
   "shear_x": {
    "Points": [
     {
      "co": {
       "X": 1.0,
       "Y": 0.0
      },
      "handle_left": {
       "X": 0.5,
       "Y": 1.0
      },
      "handle_right": {
       "X": 0.5,
       "Y": 0.0
      },
      "handle_type": 0,
      "interpolation": 0
     }
    ]
   },
   "shear_y": {
    "Points": [
     {
      "co": {
       "X": 1.0,
       "Y": 0.0
      },
      "handle_left": {
       "X": 0.5,
       "Y": 1.0
      },
      "handle_right": {
       "X": 0.5,
       "Y": 0.0
      },
      "handle_type": 0,
      "interpolation": 0
     }
    ]
   },
   "start": 0,
   "time": {
    "Points": [
     {
      "co": {
       "X": 1.0,
       "Y": 1.0
      },
      "handle_left": {
       "X": 0.5,
       "Y": 1.0
      },
      "handle_right": {
       "X": 0.5,
       "Y": 0.0
      },
      "handle_type": 0,
      "interpolation": 0
     }
    ]
   },
   "volume": {
    "Points": [
     {
      "co": {
       "X": 1.0,
       "Y": 1.0
      },
      "handle_left": {
       "X": 0.5,
       "Y": 1.0
      },
      "handle_right": {
       "X": 0.5,
       "Y": 0.0
      },
      "handle_type": 0,
      "interpolation": 0
     }
    ]
   },
   "wave_color": {
    "alpha": {
     "Points": [
      {
       "co": {
        "X": 1.0,
        "Y": 255.0
       },
       "handle_left": {
        "X": 0.5,
        "Y": 1.0
       },
       "handle_right": {
        "X": 0.5,
        "Y": 0.0
       },
       "handle_type": 0,
       "interpolation": 0
      }
     ]
    },
    "blue": {
     "Points": [
      {
       "co": {
        "X": 1.0,
        "Y": 255.0
       },
       "handle_left": {
        "X": 0.5,
        "Y": 1.0
       },
       "handle_right": {
        "X": 0.5,
        "Y": 0.0
       },
       "handle_type": 0,
       "interpolation": 0
      }
     ]
    },
    "green": {
     "Points": [
      {
       "co": {
        "X": 1.0,
        "Y": 123.0
       },
       "handle_left": {
        "X": 0.5,
        "Y": 1.0
       },
       "handle_right": {
        "X": 0.5,
        "Y": 0.0
       },
       "handle_type": 0,
       "interpolation": 0
      }
     ]
    },
    "red": {
     "Points": [
      {
       "co": {
        "X": 1.0,
        "Y": 0.0
       },
       "handle_left": {
        "X": 0.5,
        "Y": 1.0
       },
       "handle_right": {
        "X": 0.5,
        "Y": 0.0
       },
       "handle_type": 0,
       "interpolation": 0
      }
     ]
    }
   },
   "waveform": false,
   "file_id": "ZU8X3E6NVA",
   "title": "circle2.png",
   "image": "Tutorial_assets/thumbnail/ZU8X3E6NVA.png",
   "id": "HM6SYP21VT"
  },
  {
   "alpha": {
    "Points": [
     {
      "co": {
       "X": 1.0,
       "Y": 1.0
      },
      "handle_left": {
       "X": 0.5,
       "Y": 1.0
      },
      "handle_right": {
       "X": 0.5,
       "Y": 0.0
      },
      "handle_type": 0,
      "interpolation": 0
     }
    ]
   },
   "anchor": 0,
   "channel_filter": {
    "Points": [
     {
      "co": {
       "X": 1.0,
       "Y": -1.0
      },
      "handle_left": {
       "X": 0.5,
       "Y": 1.0
      },
      "handle_right": {
       "X": 0.5,
       "Y": 0.0
      },
      "handle_type": 0,
      "interpolation": 0
     }
    ]
   },
   "channel_mapping": {
    "Points": [
     {
      "co": {
       "X": 1.0,
       "Y": -1.0
      },
      "handle_left": {
       "X": 0.5,
       "Y": 1.0
      },
      "handle_right": {
       "X": 0.5,
       "Y": 0.0
      },
      "handle_type": 0,
      "interpolation": 0
     }
    ]
   },
   "display": 0,
   "duration": 3600.0,
   "effects": [],
   "end": 4.299999999999976,
   "gravity": 4,
   "has_audio": {
    "Points": [
     {
      "co": {
       "X": 1.0,
       "Y": -1.0
      },
      "handle_left": {
       "X": 0.5,
       "Y": 1.0
      },
      "handle_right": {
       "X": 0.5,
       "Y": 0.0
      },
      "handle_type": 0,
      "interpolation": 0
     }
    ]
   },
   "has_video": {
    "Points": [
     {
      "co": {
       "X": 1.0,
       "Y": -1.0
      },
      "handle_left": {
       "X": 0.5,
       "Y": 1.0
      },
      "handle_right": {
       "X": 0.5,
       "Y": 0.0
      },
      "handle_type": 0,
      "interpolation": 0
     }
    ]
   },
   "layer": 6000000,
   "location_x": {
    "Points": [
     {
      "co": {
       "X": 1,
       "Y": -0.09114137291908264
      },
      "handle_left": {
       "X": 0.5,
       "Y": 1.0
      },
      "handle_right": {
       "X": 0.5,
       "Y": 0.0
      },
      "handle_type": 0,
      "interpolation": 0
     }
    ]
   },
   "location_y": {
    "Points": [
     {
      "co": {
       "X": 1,
       "Y": 0.03787875403508995
      },
      "handle_left": {
       "X": 0.5,
       "Y": 1.0
      },
      "handle_right": {
       "X": 0.5,
       "Y": 0.0
      },
      "handle_type": 0,
      "interpolation": 0
     }
    ]
   },
   "mixing": 0,
   "origin_x": {
    "Points": [
     {
      "co": {
       "X": 1.0,
       "Y": 0.5
      },
      "handle_left": {
       "X": 0.5,
       "Y": 1.0
      },
      "handle_right": {
       "X": 0.5,
       "Y": 0.0
      },
      "handle_type": 0,
      "interpolation": 0
     }
    ]
   },
   "origin_y": {
    "Points": [
     {
      "co": {
       "X": 1.0,
       "Y": 0.5
      },
      "handle_left": {
       "X": 0.5,
       "Y": 1.0
      },
      "handle_right": {
       "X": 0.5,
       "Y": 0.0
      },
      "handle_type": 0,
      "interpolation": 0
     }
    ]
   },
   "parentObjectId": "",
   "perspective_c1_x": {
    "Points": [
     {
      "co": {
       "X": 1.0,
       "Y": -1.0
      },
      "handle_left": {
       "X": 0.5,
       "Y": 1.0
      },
      "handle_right": {
       "X": 0.5,
       "Y": 0.0
      },
      "handle_type": 0,
      "interpolation": 0
     }
    ]
   },
   "perspective_c1_y": {
    "Points": [
     {
      "co": {
       "X": 1.0,
       "Y": -1.0
      },
      "handle_left": {
       "X": 0.5,
       "Y": 1.0
      },
      "handle_right": {
       "X": 0.5,
       "Y": 0.0
      },
      "handle_type": 0,
      "interpolation": 0
     }
    ]
   },
   "perspective_c2_x": {
    "Points": [
     {
      "co": {
       "X": 1.0,
       "Y": -1.0
      },
      "handle_left": {
       "X": 0.5,
       "Y": 1.0
      },
      "handle_right": {
       "X": 0.5,
       "Y": 0.0
      },
      "handle_type": 0,
      "interpolation": 0
     }
    ]
   },
   "perspective_c2_y": {
    "Points": [
     {
      "co": {
       "X": 1.0,
       "Y": -1.0
      },
      "handle_left": {
       "X": 0.5,
       "Y": 1.0
      },
      "handle_right": {
       "X": 0.5,
       "Y": 0.0
      },
      "handle_type": 0,
      "interpolation": 0
     }
    ]
   },
   "perspective_c3_x": {
    "Points": [
     {
      "co": {
       "X": 1.0,
       "Y": -1.0
      },
      "handle_left": {
       "X": 0.5,
       "Y": 1.0
      },
      "handle_right": {
       "X": 0.5,
       "Y": 0.0
      },
      "handle_type": 0,
      "interpolation": 0
     }
    ]
   },
   "perspective_c3_y": {
    "Points": [
     {
      "co": {
       "X": 1.0,
       "Y": -1.0
      },
      "handle_left": {
       "X": 0.5,
       "Y": 1.0
      },
      "handle_right": {
       "X": 0.5,
       "Y": 0.0
      },
      "handle_type": 0,
      "interpolation": 0
     }
    ]
   },
   "perspective_c4_x": {
    "Points": [
     {
      "co": {
       "X": 1.0,
       "Y": -1.0
      },
      "handle_left": {
       "X": 0.5,
       "Y": 1.0
      },
      "handle_right": {
       "X": 0.5,
       "Y": 0.0
      },
      "handle_type": 0,
      "interpolation": 0
     }
    ]
   },
   "perspective_c4_y": {
    "Points": [
     {
      "co": {
       "X": 1.0,
       "Y": -1.0
      },
      "handle_left": {
       "X": 0.5,
       "Y": 1.0
      },
      "handle_right": {
       "X": 0.5,
       "Y": 0.0
      },
      "handle_type": 0,
      "interpolation": 0
     }
    ]
   },
   "position": 43.9,
   "reader": {
    "acodec": "",
    "audio_bit_rate": 0,
    "audio_stream_index": -1,
    "audio_timebase": {
     "den": 1,
     "num": 1
    },
    "channel_layout": 4,
    "channels": 0,
    "display_ratio": {
     "den": 1,
     "num": 1
    },
    "duration": 3600.0,
    "file_size": "262144",
    "fps": {
     "den": 1,
     "num": 30
    },
    "has_audio": false,
    "has_single_image": true,
    "has_video": true,
    "height": 256,
    "interlaced_frame": false,
    "metadata": {},
    "path": "./circle2.png",
    "pixel_format": -1,
    "pixel_ratio": {
     "den": 1,
     "num": 1
    },
    "sample_rate": 0,
    "top_field_first": true,
    "type": "QtImageReader",
    "vcodec": "",
    "video_bit_rate": 0,
    "video_length": "108000",
    "video_stream_index": -1,
    "video_timebase": {
     "den": 30,
     "num": 1
    },
    "width": 256,
    "media_type": "image",
    "id": "ZU8X3E6NVA"
   },
   "rotation": {
    "Points": [
     {
      "co": {
       "X": 1.0,
       "Y": 0.0
      },
      "handle_left": {
       "X": 0.5,
       "Y": 1.0
      },
      "handle_right": {
       "X": 0.5,
       "Y": 0.0
      },
      "handle_type": 0,
      "interpolation": 0
     }
    ]
   },
   "scale": 1,
   "scale_x": {
    "Points": [
     {
      "co": {
       "X": 1,
       "Y": 0.1242427213173924
      },
      "handle_left": {
       "X": 0.5,
       "Y": 1.0
      },
      "handle_right": {
       "X": 0.5,
       "Y": 0.0
      },
      "handle_type": 0,
      "interpolation": 0
     }
    ]
   },
   "scale_y": {
    "Points": [
     {
      "co": {
       "X": 1,
       "Y": 0.1242427213173924
      },
      "handle_left": {
       "X": 0.5,
       "Y": 1.0
      },
      "handle_right": {
       "X": 0.5,
       "Y": 0.0
      },
      "handle_type": 0,
      "interpolation": 0
     }
    ]
   },
   "shear_x": {
    "Points": [
     {
      "co": {
       "X": 1.0,
       "Y": 0.0
      },
      "handle_left": {
       "X": 0.5,
       "Y": 1.0
      },
      "handle_right": {
       "X": 0.5,
       "Y": 0.0
      },
      "handle_type": 0,
      "interpolation": 0
     }
    ]
   },
   "shear_y": {
    "Points": [
     {
      "co": {
       "X": 1.0,
       "Y": 0.0
      },
      "handle_left": {
       "X": 0.5,
       "Y": 1.0
      },
      "handle_right": {
       "X": 0.5,
       "Y": 0.0
      },
      "handle_type": 0,
      "interpolation": 0
     }
    ]
   },
   "start": 0,
   "time": {
    "Points": [
     {
      "co": {
       "X": 1.0,
       "Y": 1.0
      },
      "handle_left": {
       "X": 0.5,
       "Y": 1.0
      },
      "handle_right": {
       "X": 0.5,
       "Y": 0.0
      },
      "handle_type": 0,
      "interpolation": 0
     }
    ]
   },
   "volume": {
    "Points": [
     {
      "co": {
       "X": 1.0,
       "Y": 1.0
      },
      "handle_left": {
       "X": 0.5,
       "Y": 1.0
      },
      "handle_right": {
       "X": 0.5,
       "Y": 0.0
      },
      "handle_type": 0,
      "interpolation": 0
     }
    ]
   },
   "wave_color": {
    "alpha": {
     "Points": [
      {
       "co": {
        "X": 1.0,
        "Y": 255.0
       },
       "handle_left": {
        "X": 0.5,
        "Y": 1.0
       },
       "handle_right": {
        "X": 0.5,
        "Y": 0.0
       },
       "handle_type": 0,
       "interpolation": 0
      }
     ]
    },
    "blue": {
     "Points": [
      {
       "co": {
        "X": 1.0,
        "Y": 255.0
       },
       "handle_left": {
        "X": 0.5,
        "Y": 1.0
       },
       "handle_right": {
        "X": 0.5,
        "Y": 0.0
       },
       "handle_type": 0,
       "interpolation": 0
      }
     ]
    },
    "green": {
     "Points": [
      {
       "co": {
        "X": 1.0,
        "Y": 123.0
       },
       "handle_left": {
        "X": 0.5,
        "Y": 1.0
       },
       "handle_right": {
        "X": 0.5,
        "Y": 0.0
       },
       "handle_type": 0,
       "interpolation": 0
      }
     ]
    },
    "red": {
     "Points": [
      {
       "co": {
        "X": 1.0,
        "Y": 0.0
       },
       "handle_left": {
        "X": 0.5,
        "Y": 1.0
       },
       "handle_right": {
        "X": 0.5,
        "Y": 0.0
       },
       "handle_type": 0,
       "interpolation": 0
      }
     ]
    }
   },
   "waveform": false,
   "file_id": "ZU8X3E6NVA",
   "title": "circle2.png",
   "image": "Tutorial_assets/thumbnail/ZU8X3E6NVA.png",
   "id": "DI5Q9HOANS"
  },
  {
   "alpha": {
    "Points": [
     {
      "co": {
       "X": 1.0,
       "Y": 1.0
      },
      "handle_left": {
       "X": 0.5,
       "Y": 1.0
      },
      "handle_right": {
       "X": 0.5,
       "Y": 0.0
      },
      "handle_type": 0,
      "interpolation": 0
     }
    ]
   },
   "anchor": 0,
   "channel_filter": {
    "Points": [
     {
      "co": {
       "X": 1.0,
       "Y": -1.0
      },
      "handle_left": {
       "X": 0.5,
       "Y": 1.0
      },
      "handle_right": {
       "X": 0.5,
       "Y": 0.0
      },
      "handle_type": 0,
      "interpolation": 0
     }
    ]
   },
   "channel_mapping": {
    "Points": [
     {
      "co": {
       "X": 1.0,
       "Y": -1.0
      },
      "handle_left": {
       "X": 0.5,
       "Y": 1.0
      },
      "handle_right": {
       "X": 0.5,
       "Y": 0.0
      },
      "handle_type": 0,
      "interpolation": 0
     }
    ]
   },
   "display": 0,
   "duration": 3600.0,
   "effects": [],
   "end": 4.300000000000001,
   "gravity": 4,
   "has_audio": {
    "Points": [
     {
      "co": {
       "X": 1.0,
       "Y": -1.0
      },
      "handle_left": {
       "X": 0.5,
       "Y": 1.0
      },
      "handle_right": {
       "X": 0.5,
       "Y": 0.0
      },
      "handle_type": 0,
      "interpolation": 0
     }
    ]
   },
   "has_video": {
    "Points": [
     {
      "co": {
       "X": 1.0,
       "Y": -1.0
      },
      "handle_left": {
       "X": 0.5,
       "Y": 1.0
      },
      "handle_right": {
       "X": 0.5,
       "Y": 0.0
      },
      "handle_type": 0,
      "interpolation": 0
     }
    ]
   },
   "layer": 7000000,
   "location_x": {
    "Points": [
     {
      "co": {
       "X": 1,
       "Y": -0.18994739877609013
      },
      "interpolation": 0
     }
    ]
   },
   "location_y": {
    "Points": [
     {
      "co": {
       "X": 1,
       "Y": 0.16214017570018768
      },
      "interpolation": 0
     }
    ]
   },
   "mixing": 0,
   "origin_x": {
    "Points": [
     {
      "co": {
       "X": 1.0,
       "Y": 0.5
      },
      "handle_left": {
       "X": 0.5,
       "Y": 1.0
      },
      "handle_right": {
       "X": 0.5,
       "Y": 0.0
      },
      "handle_type": 0,
      "interpolation": 0
     }
    ]
   },
   "origin_y": {
    "Points": [
     {
      "co": {
       "X": 1.0,
       "Y": 0.5
      },
      "handle_left": {
       "X": 0.5,
       "Y": 1.0
      },
      "handle_right": {
       "X": 0.5,
       "Y": 0.0
      },
      "handle_type": 0,
      "interpolation": 0
     }
    ]
   },
   "parentObjectId": "",
   "perspective_c1_x": {
    "Points": [
     {
      "co": {
       "X": 1.0,
       "Y": -1.0
      },
      "handle_left": {
       "X": 0.5,
       "Y": 1.0
      },
      "handle_right": {
       "X": 0.5,
       "Y": 0.0
      },
      "handle_type": 0,
      "interpolation": 0
     }
    ]
   },
   "perspective_c1_y": {
    "Points": [
     {
      "co": {
       "X": 1.0,
       "Y": -1.0
      },
      "handle_left": {
       "X": 0.5,
       "Y": 1.0
      },
      "handle_right": {
       "X": 0.5,
       "Y": 0.0
      },
      "handle_type": 0,
      "interpolation": 0
     }
    ]
   },
   "perspective_c2_x": {
    "Points": [
     {
      "co": {
       "X": 1.0,
       "Y": -1.0
      },
      "handle_left": {
       "X": 0.5,
       "Y": 1.0
      },
      "handle_right": {
       "X": 0.5,
       "Y": 0.0
      },
      "handle_type": 0,
      "interpolation": 0
     }
    ]
   },
   "perspective_c2_y": {
    "Points": [
     {
      "co": {
       "X": 1.0,
       "Y": -1.0
      },
      "handle_left": {
       "X": 0.5,
       "Y": 1.0
      },
      "handle_right": {
       "X": 0.5,
       "Y": 0.0
      },
      "handle_type": 0,
      "interpolation": 0
     }
    ]
   },
   "perspective_c3_x": {
    "Points": [
     {
      "co": {
       "X": 1.0,
       "Y": -1.0
      },
      "handle_left": {
       "X": 0.5,
       "Y": 1.0
      },
      "handle_right": {
       "X": 0.5,
       "Y": 0.0
      },
      "handle_type": 0,
      "interpolation": 0
     }
    ]
   },
   "perspective_c3_y": {
    "Points": [
     {
      "co": {
       "X": 1.0,
       "Y": -1.0
      },
      "handle_left": {
       "X": 0.5,
       "Y": 1.0
      },
      "handle_right": {
       "X": 0.5,
       "Y": 0.0
      },
      "handle_type": 0,
      "interpolation": 0
     }
    ]
   },
   "perspective_c4_x": {
    "Points": [
     {
      "co": {
       "X": 1.0,
       "Y": -1.0
      },
      "handle_left": {
       "X": 0.5,
       "Y": 1.0
      },
      "handle_right": {
       "X": 0.5,
       "Y": 0.0
      },
      "handle_type": 0,
      "interpolation": 0
     }
    ]
   },
   "perspective_c4_y": {
    "Points": [
     {
      "co": {
       "X": 1.0,
       "Y": -1.0
      },
      "handle_left": {
       "X": 0.5,
       "Y": 1.0
      },
      "handle_right": {
       "X": 0.5,
       "Y": 0.0
      },
      "handle_type": 0,
      "interpolation": 0
     }
    ]
   },
   "position": 43.9,
   "reader": {
    "acodec": "",
    "audio_bit_rate": 0,
    "audio_stream_index": -1,
    "audio_timebase": {
     "den": 1,
     "num": 1
    },
    "channel_layout": 4,
    "channels": 0,
    "display_ratio": {
     "den": 32,
     "num": 293
    },
    "duration": 3600.0,
    "file_size": "37504",
    "fps": {
     "den": 1,
     "num": 30
    },
    "has_audio": false,
    "has_single_image": true,
    "has_video": true,
    "height": 32,
    "interlaced_frame": false,
    "metadata": {},
    "path": "./arrow.png",
    "pixel_format": -1,
    "pixel_ratio": {
     "den": 1,
     "num": 1
    },
    "sample_rate": 0,
    "top_field_first": true,
    "type": "QtImageReader",
    "vcodec": "",
    "video_bit_rate": 0,
    "video_length": "108000",
    "video_stream_index": -1,
    "video_timebase": {
     "den": 30,
     "num": 1
    },
    "width": 293,
    "media_type": "image",
    "id": "N0UHXUNZM4"
   },
   "rotation": {
    "Points": [
     {
      "co": {
       "X": 1,
       "Y": 325.9789328398941
      },
      "interpolation": 0
     }
    ]
   },
   "scale": 1,
   "scale_x": {
    "Points": [
     {
      "co": {
       "X": 1,
       "Y": 0.17000000178813934
      },
      "interpolation": 1
     }
    ]
   },
   "scale_y": {
    "Points": [
     {
      "co": {
       "X": 37,
       "Y": 0.1698843538761139
      },
      "interpolation": 0
     }
    ]
   },
   "shear_x": {
    "Points": [
     {
      "co": {
       "X": 1.0,
       "Y": 0.0
      },
      "handle_left": {
       "X": 0.5,
       "Y": 1.0
      },
      "handle_right": {
       "X": 0.5,
       "Y": 0.0
      },
      "handle_type": 0,
      "interpolation": 0
     }
    ]
   },
   "shear_y": {
    "Points": [
     {
      "co": {
       "X": 1.0,
       "Y": 0.0
      },
      "handle_left": {
       "X": 0.5,
       "Y": 1.0
      },
      "handle_right": {
       "X": 0.5,
       "Y": 0.0
      },
      "handle_type": 0,
      "interpolation": 0
     }
    ]
   },
   "start": 0,
   "time": {
    "Points": [
     {
      "co": {
       "X": 1.0,
       "Y": 1.0
      },
      "handle_left": {
       "X": 0.5,
       "Y": 1.0
      },
      "handle_right": {
       "X": 0.5,
       "Y": 0.0
      },
      "handle_type": 0,
      "interpolation": 0
     }
    ]
   },
   "volume": {
    "Points": [
     {
      "co": {
       "X": 1.0,
       "Y": 1.0
      },
      "handle_left": {
       "X": 0.5,
       "Y": 1.0
      },
      "handle_right": {
       "X": 0.5,
       "Y": 0.0
      },
      "handle_type": 0,
      "interpolation": 0
     }
    ]
   },
   "wave_color": {
    "alpha": {
     "Points": [
      {
       "co": {
        "X": 1.0,
        "Y": 255.0
       },
       "handle_left": {
        "X": 0.5,
        "Y": 1.0
       },
       "handle_right": {
        "X": 0.5,
        "Y": 0.0
       },
       "handle_type": 0,
       "interpolation": 0
      }
     ]
    },
    "blue": {
     "Points": [
      {
       "co": {
        "X": 1.0,
        "Y": 255.0
       },
       "handle_left": {
        "X": 0.5,
        "Y": 1.0
       },
       "handle_right": {
        "X": 0.5,
        "Y": 0.0
       },
       "handle_type": 0,
       "interpolation": 0
      }
     ]
    },
    "green": {
     "Points": [
      {
       "co": {
        "X": 1.0,
        "Y": 123.0
       },
       "handle_left": {
        "X": 0.5,
        "Y": 1.0
       },
       "handle_right": {
        "X": 0.5,
        "Y": 0.0
       },
       "handle_type": 0,
       "interpolation": 0
      }
     ]
    },
    "red": {
     "Points": [
      {
       "co": {
        "X": 1.0,
        "Y": 0.0
       },
       "handle_left": {
        "X": 0.5,
        "Y": 1.0
       },
       "handle_right": {
        "X": 0.5,
        "Y": 0.0
       },
       "handle_type": 0,
       "interpolation": 0
      }
     ]
    }
   },
   "waveform": false,
   "file_id": "N0UHXUNZM4",
   "title": "arrow.png",
   "image": "Tutorial_assets/thumbnail/N0UHXUNZM4.png",
   "id": "KM0UZ08G8V"
  },
  {
   "alpha": {
    "Points": [
     {
      "co": {
       "X": 1.0,
       "Y": 1.0
      },
      "handle_left": {
       "X": 0.5,
       "Y": 1.0
      },
      "handle_right": {
       "X": 0.5,
       "Y": 0.0
      },
      "handle_type": 0,
      "interpolation": 0
     }
    ]
   },
   "anchor": 0,
   "channel_filter": {
    "Points": [
     {
      "co": {
       "X": 1.0,
       "Y": -1.0
      },
      "handle_left": {
       "X": 0.5,
       "Y": 1.0
      },
      "handle_right": {
       "X": 0.5,
       "Y": 0.0
      },
      "handle_type": 0,
      "interpolation": 0
     }
    ]
   },
   "channel_mapping": {
    "Points": [
     {
      "co": {
       "X": 1.0,
       "Y": -1.0
      },
      "handle_left": {
       "X": 0.5,
       "Y": 1.0
      },
      "handle_right": {
       "X": 0.5,
       "Y": 0.0
      },
      "handle_type": 0,
      "interpolation": 0
     }
    ]
   },
   "display": 0,
   "duration": 3600.0,
   "effects": [],
   "end": 4.300000000000007,
   "gravity": 4,
   "has_audio": {
    "Points": [
     {
      "co": {
       "X": 1.0,
       "Y": -1.0
      },
      "handle_left": {
       "X": 0.5,
       "Y": 1.0
      },
      "handle_right": {
       "X": 0.5,
       "Y": 0.0
      },
      "handle_type": 0,
      "interpolation": 0
     }
    ]
   },
   "has_video": {
    "Points": [
     {
      "co": {
       "X": 1.0,
       "Y": -1.0
      },
      "handle_left": {
       "X": 0.5,
       "Y": 1.0
      },
      "handle_right": {
       "X": 0.5,
       "Y": 0.0
      },
      "handle_type": 0,
      "interpolation": 0
     }
    ]
   },
   "id": "QJJS0TOKOM",
   "layer": 8000000,
   "location_x": {
    "Points": [
     {
      "co": {
       "X": 1,
       "Y": -0.31942077613161207
      },
      "handle_left": {
       "X": 0.5,
       "Y": 1.0
      },
      "handle_right": {
       "X": 0.5,
       "Y": 0.0
      },
      "handle_type": 0,
      "interpolation": 0
     }
    ]
   },
   "location_y": {
    "Points": [
     {
      "co": {
       "X": 1,
       "Y": 0.3545454144477844
      },
      "handle_left": {
       "X": 0.5,
       "Y": 1.0
      },
      "handle_right": {
       "X": 0.5,
       "Y": 0.0
      },
      "handle_type": 0,
      "interpolation": 0
     }
    ]
   },
   "mixing": 0,
   "origin_x": {
    "Points": [
     {
      "co": {
       "X": 1.0,
       "Y": 0.5
      },
      "handle_left": {
       "X": 0.5,
       "Y": 1.0
      },
      "handle_right": {
       "X": 0.5,
       "Y": 0.0
      },
      "handle_type": 0,
      "interpolation": 0
     }
    ]
   },
   "origin_y": {
    "Points": [
     {
      "co": {
       "X": 1.0,
       "Y": 0.5
      },
      "handle_left": {
       "X": 0.5,
       "Y": 1.0
      },
      "handle_right": {
       "X": 0.5,
       "Y": 0.0
      },
      "handle_type": 0,
      "interpolation": 0
     }
    ]
   },
   "parentObjectId": "",
   "perspective_c1_x": {
    "Points": [
     {
      "co": {
       "X": 1.0,
       "Y": -1.0
      },
      "handle_left": {
       "X": 0.5,
       "Y": 1.0
      },
      "handle_right": {
       "X": 0.5,
       "Y": 0.0
      },
      "handle_type": 0,
      "interpolation": 0
     }
    ]
   },
   "perspective_c1_y": {
    "Points": [
     {
      "co": {
       "X": 1.0,
       "Y": -1.0
      },
      "handle_left": {
       "X": 0.5,
       "Y": 1.0
      },
      "handle_right": {
       "X": 0.5,
       "Y": 0.0
      },
      "handle_type": 0,
      "interpolation": 0
     }
    ]
   },
   "perspective_c2_x": {
    "Points": [
     {
      "co": {
       "X": 1.0,
       "Y": -1.0
      },
      "handle_left": {
       "X": 0.5,
       "Y": 1.0
      },
      "handle_right": {
       "X": 0.5,
       "Y": 0.0
      },
      "handle_type": 0,
      "interpolation": 0
     }
    ]
   },
   "perspective_c2_y": {
    "Points": [
     {
      "co": {
       "X": 1.0,
       "Y": -1.0
      },
      "handle_left": {
       "X": 0.5,
       "Y": 1.0
      },
      "handle_right": {
       "X": 0.5,
       "Y": 0.0
      },
      "handle_type": 0,
      "interpolation": 0
     }
    ]
   },
   "perspective_c3_x": {
    "Points": [
     {
      "co": {
       "X": 1.0,
       "Y": -1.0
      },
      "handle_left": {
       "X": 0.5,
       "Y": 1.0
      },
      "handle_right": {
       "X": 0.5,
       "Y": 0.0
      },
      "handle_type": 0,
      "interpolation": 0
     }
    ]
   },
   "perspective_c3_y": {
    "Points": [
     {
      "co": {
       "X": 1.0,
       "Y": -1.0
      },
      "handle_left": {
       "X": 0.5,
       "Y": 1.0
      },
      "handle_right": {
       "X": 0.5,
       "Y": 0.0
      },
      "handle_type": 0,
      "interpolation": 0
     }
    ]
   },
   "perspective_c4_x": {
    "Points": [
     {
      "co": {
       "X": 1.0,
       "Y": -1.0
      },
      "handle_left": {
       "X": 0.5,
       "Y": 1.0
      },
      "handle_right": {
       "X": 0.5,
       "Y": 0.0
      },
      "handle_type": 0,
      "interpolation": 0
     }
    ]
   },
   "perspective_c4_y": {
    "Points": [
     {
      "co": {
       "X": 1.0,
       "Y": -1.0
      },
      "handle_left": {
       "X": 0.5,
       "Y": 1.0
      },
      "handle_right": {
       "X": 0.5,
       "Y": 0.0
      },
      "handle_type": 0,
      "interpolation": 0
     }
    ]
   },
   "position": 43.9,
   "reader": {
    "acodec": "",
    "audio_bit_rate": 0,
    "audio_stream_index": -1,
    "audio_timebase": {
     "den": 1,
     "num": 1
    },
    "channel_layout": 4,
    "channels": 0,
    "display_ratio": {
     "den": 617,
     "num": 1310
    },
    "duration": 3600.0,
    "file_size": "3233080",
    "fps": {
     "den": 1,
     "num": 30
    },
    "has_audio": false,
    "has_single_image": true,
    "has_video": true,
    "height": 617,
    "interlaced_frame": false,
    "metadata": {},
    "path": "./drawing9.png",
    "pixel_format": -1,
    "pixel_ratio": {
     "den": 1,
     "num": 1
    },
    "sample_rate": 0,
    "top_field_first": true,
    "type": "QtImageReader",
    "vcodec": "",
    "video_bit_rate": 0,
    "video_length": "108000",
    "video_stream_index": -1,
    "video_timebase": {
     "den": 30,
     "num": 1
    },
    "width": 1310,
    "media_type": "image",
    "id": "5WOVU0R980"
   },
   "rotation": {
    "Points": [
     {
      "co": {
       "X": 1.0,
       "Y": 0.0
      },
      "handle_left": {
       "X": 0.5,
       "Y": 1.0
      },
      "handle_right": {
       "X": 0.5,
       "Y": 0.0
      },
      "handle_type": 0,
      "interpolation": 0
     }
    ]
   },
   "scale": 1,
   "scale_x": {
    "Points": [
     {
      "co": {
       "X": 1,
       "Y": 0.24531490874859097
      },
      "handle_left": {
       "X": 0.5,
       "Y": 1.0
      },
      "handle_right": {
       "X": 0.5,
       "Y": 0.0
      },
      "handle_type": 0,
      "interpolation": 0
     }
    ]
   },
   "scale_y": {
    "Points": [
     {
      "co": {
       "X": 1,
       "Y": 0.24531490874859097
      },
      "handle_left": {
       "X": 0.5,
       "Y": 1.0
      },
      "handle_right": {
       "X": 0.5,
       "Y": 0.0
      },
      "handle_type": 0,
      "interpolation": 0
     }
    ]
   },
   "shear_x": {
    "Points": [
     {
      "co": {
       "X": 1.0,
       "Y": 0.0
      },
      "handle_left": {
       "X": 0.5,
       "Y": 1.0
      },
      "handle_right": {
       "X": 0.5,
       "Y": 0.0
      },
      "handle_type": 0,
      "interpolation": 0
     }
    ]
   },
   "shear_y": {
    "Points": [
     {
      "co": {
       "X": 1.0,
       "Y": 0.0
      },
      "handle_left": {
       "X": 0.5,
       "Y": 1.0
      },
      "handle_right": {
       "X": 0.5,
       "Y": 0.0
      },
      "handle_type": 0,
      "interpolation": 0
     }
    ]
   },
   "start": 0,
   "time": {
    "Points": [
     {
      "co": {
       "X": 1.0,
       "Y": 1.0
      },
      "handle_left": {
       "X": 0.5,
       "Y": 1.0
      },
      "handle_right": {
       "X": 0.5,
       "Y": 0.0
      },
      "handle_type": 0,
      "interpolation": 0
     }
    ]
   },
   "volume": {
    "Points": [
     {
      "co": {
       "X": 1.0,
       "Y": 1.0
      },
      "handle_left": {
       "X": 0.5,
       "Y": 1.0
      },
      "handle_right": {
       "X": 0.5,
       "Y": 0.0
      },
      "handle_type": 0,
      "interpolation": 0
     }
    ]
   },
   "wave_color": {
    "alpha": {
     "Points": [
      {
       "co": {
        "X": 1.0,
        "Y": 255.0
       },
       "handle_left": {
        "X": 0.5,
        "Y": 1.0
       },
       "handle_right": {
        "X": 0.5,
        "Y": 0.0
       },
       "handle_type": 0,
       "interpolation": 0
      }
     ]
    },
    "blue": {
     "Points": [
      {
       "co": {
        "X": 1.0,
        "Y": 255.0
       },
       "handle_left": {
        "X": 0.5,
        "Y": 1.0
       },
       "handle_right": {
        "X": 0.5,
        "Y": 0.0
       },
       "handle_type": 0,
       "interpolation": 0
      }
     ]
    },
    "green": {
     "Points": [
      {
       "co": {
        "X": 1.0,
        "Y": 123.0
       },
       "handle_left": {
        "X": 0.5,
        "Y": 1.0
       },
       "handle_right": {
        "X": 0.5,
        "Y": 0.0
       },
       "handle_type": 0,
       "interpolation": 0
      }
     ]
    },
    "red": {
     "Points": [
      {
       "co": {
        "X": 1.0,
        "Y": 0.0
       },
       "handle_left": {
        "X": 0.5,
        "Y": 1.0
       },
       "handle_right": {
        "X": 0.5,
        "Y": 0.0
       },
       "handle_type": 0,
       "interpolation": 0
      }
     ]
    }
   },
   "waveform": false,
   "file_id": "5WOVU0R980",
   "title": "drawing9.png",
   "image": "Tutorial_assets/thumbnail/5WOVU0R980.png"
  },
  {
   "alpha": {
    "Points": [
     {
      "co": {
       "X": 1.0,
       "Y": 1.0
      },
      "handle_left": {
       "X": 0.5,
       "Y": 1.0
      },
      "handle_right": {
       "X": 0.5,
       "Y": 0.0
      },
      "handle_type": 0,
      "interpolation": 0
     }
    ]
   },
   "anchor": 0,
   "channel_filter": {
    "Points": [
     {
      "co": {
       "X": 1.0,
       "Y": -1.0
      },
      "handle_left": {
       "X": 0.5,
       "Y": 1.0
      },
      "handle_right": {
       "X": 0.5,
       "Y": 0.0
      },
      "handle_type": 0,
      "interpolation": 0
     }
    ]
   },
   "channel_mapping": {
    "Points": [
     {
      "co": {
       "X": 1.0,
       "Y": -1.0
      },
      "handle_left": {
       "X": 0.5,
       "Y": 1.0
      },
      "handle_right": {
       "X": 0.5,
       "Y": 0.0
      },
      "handle_type": 0,
      "interpolation": 0
     }
    ]
   },
   "display": 0,
   "duration": 3600.0,
   "effects": [],
   "end": 2.9066666666666716,
   "gravity": 4,
   "has_audio": {
    "Points": [
     {
      "co": {
       "X": 1.0,
       "Y": -1.0
      },
      "handle_left": {
       "X": 0.5,
       "Y": 1.0
      },
      "handle_right": {
       "X": 0.5,
       "Y": 0.0
      },
      "handle_type": 0,
      "interpolation": 0
     }
    ]
   },
   "has_video": {
    "Points": [
     {
      "co": {
       "X": 1.0,
       "Y": -1.0
      },
      "handle_left": {
       "X": 0.5,
       "Y": 1.0
      },
      "handle_right": {
       "X": 0.5,
       "Y": 0.0
      },
      "handle_type": 0,
      "interpolation": 0
     }
    ]
   },
   "id": "AC363MJKU9",
   "layer": 2000000,
   "location_x": {
    "Points": [
     {
      "co": {
       "X": 1.0,
       "Y": 0.0
      },
      "handle_left": {
       "X": 0.5,
       "Y": 1.0
      },
      "handle_right": {
       "X": 0.5,
       "Y": 0.0
      },
      "handle_type": 0,
      "interpolation": 0
     }
    ]
   },
   "location_y": {
    "Points": [
     {
      "co": {
       "X": 1.0,
       "Y": 0.0
      },
      "handle_left": {
       "X": 0.5,
       "Y": 1.0
      },
      "handle_right": {
       "X": 0.5,
       "Y": 0.0
      },
      "handle_type": 0,
      "interpolation": 0
     }
    ]
   },
   "mixing": 0,
   "origin_x": {
    "Points": [
     {
      "co": {
       "X": 1.0,
       "Y": 0.5
      },
      "handle_left": {
       "X": 0.5,
       "Y": 1.0
      },
      "handle_right": {
       "X": 0.5,
       "Y": 0.0
      },
      "handle_type": 0,
      "interpolation": 0
     }
    ]
   },
   "origin_y": {
    "Points": [
     {
      "co": {
       "X": 1.0,
       "Y": 0.5
      },
      "handle_left": {
       "X": 0.5,
       "Y": 1.0
      },
      "handle_right": {
       "X": 0.5,
       "Y": 0.0
      },
      "handle_type": 0,
      "interpolation": 0
     }
    ]
   },
   "parentObjectId": "",
   "perspective_c1_x": {
    "Points": [
     {
      "co": {
       "X": 1.0,
       "Y": -1.0
      },
      "handle_left": {
       "X": 0.5,
       "Y": 1.0
      },
      "handle_right": {
       "X": 0.5,
       "Y": 0.0
      },
      "handle_type": 0,
      "interpolation": 0
     }
    ]
   },
   "perspective_c1_y": {
    "Points": [
     {
      "co": {
       "X": 1.0,
       "Y": -1.0
      },
      "handle_left": {
       "X": 0.5,
       "Y": 1.0
      },
      "handle_right": {
       "X": 0.5,
       "Y": 0.0
      },
      "handle_type": 0,
      "interpolation": 0
     }
    ]
   },
   "perspective_c2_x": {
    "Points": [
     {
      "co": {
       "X": 1.0,
       "Y": -1.0
      },
      "handle_left": {
       "X": 0.5,
       "Y": 1.0
      },
      "handle_right": {
       "X": 0.5,
       "Y": 0.0
      },
      "handle_type": 0,
      "interpolation": 0
     }
    ]
   },
   "perspective_c2_y": {
    "Points": [
     {
      "co": {
       "X": 1.0,
       "Y": -1.0
      },
      "handle_left": {
       "X": 0.5,
       "Y": 1.0
      },
      "handle_right": {
       "X": 0.5,
       "Y": 0.0
      },
      "handle_type": 0,
      "interpolation": 0
     }
    ]
   },
   "perspective_c3_x": {
    "Points": [
     {
      "co": {
       "X": 1.0,
       "Y": -1.0
      },
      "handle_left": {
       "X": 0.5,
       "Y": 1.0
      },
      "handle_right": {
       "X": 0.5,
       "Y": 0.0
      },
      "handle_type": 0,
      "interpolation": 0
     }
    ]
   },
   "perspective_c3_y": {
    "Points": [
     {
      "co": {
       "X": 1.0,
       "Y": -1.0
      },
      "handle_left": {
       "X": 0.5,
       "Y": 1.0
      },
      "handle_right": {
       "X": 0.5,
       "Y": 0.0
      },
      "handle_type": 0,
      "interpolation": 0
     }
    ]
   },
   "perspective_c4_x": {
    "Points": [
     {
      "co": {
       "X": 1.0,
       "Y": -1.0
      },
      "handle_left": {
       "X": 0.5,
       "Y": 1.0
      },
      "handle_right": {
       "X": 0.5,
       "Y": 0.0
      },
      "handle_type": 0,
      "interpolation": 0
     }
    ]
   },
   "perspective_c4_y": {
    "Points": [
     {
      "co": {
       "X": 1.0,
       "Y": -1.0
      },
      "handle_left": {
       "X": 0.5,
       "Y": 1.0
      },
      "handle_right": {
       "X": 0.5,
       "Y": 0.0
      },
      "handle_type": 0,
      "interpolation": 0
     }
    ]
   },
   "position": 49.63333333333333,
   "reader": {
    "acodec": "",
    "audio_bit_rate": 0,
    "audio_stream_index": -1,
    "audio_timebase": {
     "den": 1,
     "num": 1
    },
    "channel_layout": 4,
    "channels": 0,
    "display_ratio": {
     "den": 205,
     "num": 407
    },
    "duration": 3600.0,
    "file_size": "3003660",
    "fps": {
     "den": 1,
     "num": 30
    },
    "has_audio": false,
    "has_single_image": true,
    "has_video": true,
    "height": 615,
    "interlaced_frame": false,
    "metadata": {},
    "path": "./drawing10.png",
    "pixel_format": -1,
    "pixel_ratio": {
     "den": 1,
     "num": 1
    },
    "sample_rate": 0,
    "top_field_first": true,
    "type": "QtImageReader",
    "vcodec": "",
    "video_bit_rate": 0,
    "video_length": "108000",
    "video_stream_index": -1,
    "video_timebase": {
     "den": 30,
     "num": 1
    },
    "width": 1221,
    "media_type": "image",
    "id": "XBS6QBNU3J"
   },
   "rotation": {
    "Points": [
     {
      "co": {
       "X": 1.0,
       "Y": 0.0
      },
      "handle_left": {
       "X": 0.5,
       "Y": 1.0
      },
      "handle_right": {
       "X": 0.5,
       "Y": 0.0
      },
      "handle_type": 0,
      "interpolation": 0
     }
    ]
   },
   "scale": 1,
   "scale_x": {
    "Points": [
     {
      "co": {
       "X": 1,
       "Y": 0.4037480056285858
      },
      "handle_left": {
       "X": 0.5,
       "Y": 1.0
      },
      "handle_right": {
       "X": 0.5,
       "Y": 0.0
      },
      "handle_type": 0,
      "interpolation": 0
     }
    ]
   },
   "scale_y": {
    "Points": [
     {
      "co": {
       "X": 1,
       "Y": 0.4037480056285858
      },
      "handle_left": {
       "X": 0.5,
       "Y": 1.0
      },
      "handle_right": {
       "X": 0.5,
       "Y": 0.0
      },
      "handle_type": 0,
      "interpolation": 0
     }
    ]
   },
   "shear_x": {
    "Points": [
     {
      "co": {
       "X": 1.0,
       "Y": 0.0
      },
      "handle_left": {
       "X": 0.5,
       "Y": 1.0
      },
      "handle_right": {
       "X": 0.5,
       "Y": 0.0
      },
      "handle_type": 0,
      "interpolation": 0
     }
    ]
   },
   "shear_y": {
    "Points": [
     {
      "co": {
       "X": 1.0,
       "Y": 0.0
      },
      "handle_left": {
       "X": 0.5,
       "Y": 1.0
      },
      "handle_right": {
       "X": 0.5,
       "Y": 0.0
      },
      "handle_type": 0,
      "interpolation": 0
     }
    ]
   },
   "start": 0,
   "time": {
    "Points": [
     {
      "co": {
       "X": 1.0,
       "Y": 1.0
      },
      "handle_left": {
       "X": 0.5,
       "Y": 1.0
      },
      "handle_right": {
       "X": 0.5,
       "Y": 0.0
      },
      "handle_type": 0,
      "interpolation": 0
     }
    ]
   },
   "volume": {
    "Points": [
     {
      "co": {
       "X": 1.0,
       "Y": 1.0
      },
      "handle_left": {
       "X": 0.5,
       "Y": 1.0
      },
      "handle_right": {
       "X": 0.5,
       "Y": 0.0
      },
      "handle_type": 0,
      "interpolation": 0
     }
    ]
   },
   "wave_color": {
    "alpha": {
     "Points": [
      {
       "co": {
        "X": 1.0,
        "Y": 255.0
       },
       "handle_left": {
        "X": 0.5,
        "Y": 1.0
       },
       "handle_right": {
        "X": 0.5,
        "Y": 0.0
       },
       "handle_type": 0,
       "interpolation": 0
      }
     ]
    },
    "blue": {
     "Points": [
      {
       "co": {
        "X": 1.0,
        "Y": 255.0
       },
       "handle_left": {
        "X": 0.5,
        "Y": 1.0
       },
       "handle_right": {
        "X": 0.5,
        "Y": 0.0
       },
       "handle_type": 0,
       "interpolation": 0
      }
     ]
    },
    "green": {
     "Points": [
      {
       "co": {
        "X": 1.0,
        "Y": 123.0
       },
       "handle_left": {
        "X": 0.5,
        "Y": 1.0
       },
       "handle_right": {
        "X": 0.5,
        "Y": 0.0
       },
       "handle_type": 0,
       "interpolation": 0
      }
     ]
    },
    "red": {
     "Points": [
      {
       "co": {
        "X": 1.0,
        "Y": 0.0
       },
       "handle_left": {
        "X": 0.5,
        "Y": 1.0
       },
       "handle_right": {
        "X": 0.5,
        "Y": 0.0
       },
       "handle_type": 0,
       "interpolation": 0
      }
     ]
    }
   },
   "waveform": false,
   "file_id": "XBS6QBNU3J",
   "title": "drawing10.png",
   "image": "Tutorial_assets/thumbnail/XBS6QBNU3J.png"
  },
  {
   "alpha": {
    "Points": [
     {
      "co": {
       "X": 1.0,
       "Y": 1.0
      },
      "handle_left": {
       "X": 0.5,
       "Y": 1.0
      },
      "handle_right": {
       "X": 0.5,
       "Y": 0.0
      },
      "handle_type": 0,
      "interpolation": 0
     }
    ]
   },
   "anchor": 0,
   "channel_filter": {
    "Points": [
     {
      "co": {
       "X": 1.0,
       "Y": -1.0
      },
      "handle_left": {
       "X": 0.5,
       "Y": 1.0
      },
      "handle_right": {
       "X": 0.5,
       "Y": 0.0
      },
      "handle_type": 0,
      "interpolation": 0
     }
    ]
   },
   "channel_mapping": {
    "Points": [
     {
      "co": {
       "X": 1.0,
       "Y": -1.0
      },
      "handle_left": {
       "X": 0.5,
       "Y": 1.0
      },
      "handle_right": {
       "X": 0.5,
       "Y": 0.0
      },
      "handle_type": 0,
      "interpolation": 0
     }
    ]
   },
   "display": 0,
   "duration": 3600.0,
   "effects": [],
   "end": 9.577333333333332,
   "gravity": 4,
   "has_audio": {
    "Points": [
     {
      "co": {
       "X": 1.0,
       "Y": -1.0
      },
      "handle_left": {
       "X": 0.5,
       "Y": 1.0
      },
      "handle_right": {
       "X": 0.5,
       "Y": 0.0
      },
      "handle_type": 0,
      "interpolation": 0
     }
    ]
   },
   "has_video": {
    "Points": [
     {
      "co": {
       "X": 1.0,
       "Y": -1.0
      },
      "handle_left": {
       "X": 0.5,
       "Y": 1.0
      },
      "handle_right": {
       "X": 0.5,
       "Y": 0.0
      },
      "handle_type": 0,
      "interpolation": 0
     }
    ]
   },
   "id": "59XSYXM74M",
   "layer": 2000000,
   "location_x": {
    "Points": [
     {
      "co": {
       "X": 1,
       "Y": 0.29727429151535034
      },
      "handle_left": {
       "X": 0.5,
       "Y": 1.0
      },
      "handle_right": {
       "X": 0.5,
       "Y": 0.0
      },
      "handle_type": 0,
      "interpolation": 0
     }
    ]
   },
   "location_y": {
    "Points": [
     {
      "co": {
       "X": 1,
       "Y": -0.22424238631219576
      },
      "handle_left": {
       "X": 0.5,
       "Y": 1.0
      },
      "handle_right": {
       "X": 0.5,
       "Y": 0.0
      },
      "handle_type": 0,
      "interpolation": 0
     }
    ]
   },
   "mixing": 0,
   "origin_x": {
    "Points": [
     {
      "co": {
       "X": 1.0,
       "Y": 0.5
      },
      "handle_left": {
       "X": 0.5,
       "Y": 1.0
      },
      "handle_right": {
       "X": 0.5,
       "Y": 0.0
      },
      "handle_type": 0,
      "interpolation": 0
     }
    ]
   },
   "origin_y": {
    "Points": [
     {
      "co": {
       "X": 1.0,
       "Y": 0.5
      },
      "handle_left": {
       "X": 0.5,
       "Y": 1.0
      },
      "handle_right": {
       "X": 0.5,
       "Y": 0.0
      },
      "handle_type": 0,
      "interpolation": 0
     }
    ]
   },
   "parentObjectId": "",
   "perspective_c1_x": {
    "Points": [
     {
      "co": {
       "X": 1.0,
       "Y": -1.0
      },
      "handle_left": {
       "X": 0.5,
       "Y": 1.0
      },
      "handle_right": {
       "X": 0.5,
       "Y": 0.0
      },
      "handle_type": 0,
      "interpolation": 0
     }
    ]
   },
   "perspective_c1_y": {
    "Points": [
     {
      "co": {
       "X": 1.0,
       "Y": -1.0
      },
      "handle_left": {
       "X": 0.5,
       "Y": 1.0
      },
      "handle_right": {
       "X": 0.5,
       "Y": 0.0
      },
      "handle_type": 0,
      "interpolation": 0
     }
    ]
   },
   "perspective_c2_x": {
    "Points": [
     {
      "co": {
       "X": 1.0,
       "Y": -1.0
      },
      "handle_left": {
       "X": 0.5,
       "Y": 1.0
      },
      "handle_right": {
       "X": 0.5,
       "Y": 0.0
      },
      "handle_type": 0,
      "interpolation": 0
     }
    ]
   },
   "perspective_c2_y": {
    "Points": [
     {
      "co": {
       "X": 1.0,
       "Y": -1.0
      },
      "handle_left": {
       "X": 0.5,
       "Y": 1.0
      },
      "handle_right": {
       "X": 0.5,
       "Y": 0.0
      },
      "handle_type": 0,
      "interpolation": 0
     }
    ]
   },
   "perspective_c3_x": {
    "Points": [
     {
      "co": {
       "X": 1.0,
       "Y": -1.0
      },
      "handle_left": {
       "X": 0.5,
       "Y": 1.0
      },
      "handle_right": {
       "X": 0.5,
       "Y": 0.0
      },
      "handle_type": 0,
      "interpolation": 0
     }
    ]
   },
   "perspective_c3_y": {
    "Points": [
     {
      "co": {
       "X": 1.0,
       "Y": -1.0
      },
      "handle_left": {
       "X": 0.5,
       "Y": 1.0
      },
      "handle_right": {
       "X": 0.5,
       "Y": 0.0
      },
      "handle_type": 0,
      "interpolation": 0
     }
    ]
   },
   "perspective_c4_x": {
    "Points": [
     {
      "co": {
       "X": 1.0,
       "Y": -1.0
      },
      "handle_left": {
       "X": 0.5,
       "Y": 1.0
      },
      "handle_right": {
       "X": 0.5,
       "Y": 0.0
      },
      "handle_type": 0,
      "interpolation": 0
     }
    ]
   },
   "perspective_c4_y": {
    "Points": [
     {
      "co": {
       "X": 1.0,
       "Y": -1.0
      },
      "handle_left": {
       "X": 0.5,
       "Y": 1.0
      },
      "handle_right": {
       "X": 0.5,
       "Y": 0.0
      },
      "handle_type": 0,
      "interpolation": 0
     }
    ]
   },
   "position": 52.68933333333333,
   "reader": {
    "acodec": "",
    "audio_bit_rate": 0,
    "audio_stream_index": -1,
    "audio_timebase": {
     "den": 1,
     "num": 1
    },
    "channel_layout": 4,
    "channels": 0,
    "display_ratio": {
     "den": 617,
     "num": 1448
    },
    "duration": 3600.0,
    "file_size": "3573664",
    "fps": {
     "den": 1,
     "num": 30
    },
    "has_audio": false,
    "has_single_image": true,
    "has_video": true,
    "height": 617,
    "interlaced_frame": false,
    "metadata": {},
    "path": "./drawing11.png",
    "pixel_format": -1,
    "pixel_ratio": {
     "den": 1,
     "num": 1
    },
    "sample_rate": 0,
    "top_field_first": true,
    "type": "QtImageReader",
    "vcodec": "",
    "video_bit_rate": 0,
    "video_length": "108000",
    "video_stream_index": -1,
    "video_timebase": {
     "den": 30,
     "num": 1
    },
    "width": 1448,
    "media_type": "image",
    "id": "NDS5321KSO"
   },
   "rotation": {
    "Points": [
     {
      "co": {
       "X": 1.0,
       "Y": 0.0
      },
      "handle_left": {
       "X": 0.5,
       "Y": 1.0
      },
      "handle_right": {
       "X": 0.5,
       "Y": 0.0
      },
      "handle_type": 0,
      "interpolation": 0
     }
    ]
   },
   "scale": 1,
   "scale_x": {
    "Points": [
     {
      "co": {
       "X": 1,
       "Y": 0.26916537952991726
      },
      "handle_left": {
       "X": 0.5,
       "Y": 1.0
      },
      "handle_right": {
       "X": 0.5,
       "Y": 0.0
      },
      "handle_type": 0,
      "interpolation": 0
     }
    ]
   },
   "scale_y": {
    "Points": [
     {
      "co": {
       "X": 1,
       "Y": 0.26916537952991726
      },
      "handle_left": {
       "X": 0.5,
       "Y": 1.0
      },
      "handle_right": {
       "X": 0.5,
       "Y": 0.0
      },
      "handle_type": 0,
      "interpolation": 0
     }
    ]
   },
   "shear_x": {
    "Points": [
     {
      "co": {
       "X": 1.0,
       "Y": 0.0
      },
      "handle_left": {
       "X": 0.5,
       "Y": 1.0
      },
      "handle_right": {
       "X": 0.5,
       "Y": 0.0
      },
      "handle_type": 0,
      "interpolation": 0
     }
    ]
   },
   "shear_y": {
    "Points": [
     {
      "co": {
       "X": 1.0,
       "Y": 0.0
      },
      "handle_left": {
       "X": 0.5,
       "Y": 1.0
      },
      "handle_right": {
       "X": 0.5,
       "Y": 0.0
      },
      "handle_type": 0,
      "interpolation": 0
     }
    ]
   },
   "start": 0,
   "time": {
    "Points": [
     {
      "co": {
       "X": 1.0,
       "Y": 1.0
      },
      "handle_left": {
       "X": 0.5,
       "Y": 1.0
      },
      "handle_right": {
       "X": 0.5,
       "Y": 0.0
      },
      "handle_type": 0,
      "interpolation": 0
     }
    ]
   },
   "volume": {
    "Points": [
     {
      "co": {
       "X": 1.0,
       "Y": 1.0
      },
      "handle_left": {
       "X": 0.5,
       "Y": 1.0
      },
      "handle_right": {
       "X": 0.5,
       "Y": 0.0
      },
      "handle_type": 0,
      "interpolation": 0
     }
    ]
   },
   "wave_color": {
    "alpha": {
     "Points": [
      {
       "co": {
        "X": 1.0,
        "Y": 255.0
       },
       "handle_left": {
        "X": 0.5,
        "Y": 1.0
       },
       "handle_right": {
        "X": 0.5,
        "Y": 0.0
       },
       "handle_type": 0,
       "interpolation": 0
      }
     ]
    },
    "blue": {
     "Points": [
      {
       "co": {
        "X": 1.0,
        "Y": 255.0
       },
       "handle_left": {
        "X": 0.5,
        "Y": 1.0
       },
       "handle_right": {
        "X": 0.5,
        "Y": 0.0
       },
       "handle_type": 0,
       "interpolation": 0
      }
     ]
    },
    "green": {
     "Points": [
      {
       "co": {
        "X": 1.0,
        "Y": 123.0
       },
       "handle_left": {
        "X": 0.5,
        "Y": 1.0
       },
       "handle_right": {
        "X": 0.5,
        "Y": 0.0
       },
       "handle_type": 0,
       "interpolation": 0
      }
     ]
    },
    "red": {
     "Points": [
      {
       "co": {
        "X": 1.0,
        "Y": 0.0
       },
       "handle_left": {
        "X": 0.5,
        "Y": 1.0
       },
       "handle_right": {
        "X": 0.5,
        "Y": 0.0
       },
       "handle_type": 0,
       "interpolation": 0
      }
     ]
    }
   },
   "waveform": false,
   "file_id": "NDS5321KSO",
   "title": "drawing11.png",
   "image": "Tutorial_assets/thumbnail/NDS5321KSO.png"
  },
  {
   "alpha": {
    "Points": [
     {
      "co": {
       "X": 1.0,
       "Y": 1.0
      },
      "handle_left": {
       "X": 0.5,
       "Y": 1.0
      },
      "handle_right": {
       "X": 0.5,
       "Y": 0.0
      },
      "handle_type": 0,
      "interpolation": 0
     }
    ]
   },
   "anchor": 0,
   "channel_filter": {
    "Points": [
     {
      "co": {
       "X": 1.0,
       "Y": -1.0
      },
      "handle_left": {
       "X": 0.5,
       "Y": 1.0
      },
      "handle_right": {
       "X": 0.5,
       "Y": 0.0
      },
      "handle_type": 0,
      "interpolation": 0
     }
    ]
   },
   "channel_mapping": {
    "Points": [
     {
      "co": {
       "X": 1.0,
       "Y": -1.0
      },
      "handle_left": {
       "X": 0.5,
       "Y": 1.0
      },
      "handle_right": {
       "X": 0.5,
       "Y": 0.0
      },
      "handle_type": 0,
      "interpolation": 0
     }
    ]
   },
   "display": 0,
   "duration": 3600.0,
   "effects": [],
   "end": 28.833333333333343,
   "gravity": 4,
   "has_audio": {
    "Points": [
     {
      "co": {
       "X": 1.0,
       "Y": -1.0
      },
      "handle_left": {
       "X": 0.5,
       "Y": 1.0
      },
      "handle_right": {
       "X": 0.5,
       "Y": 0.0
      },
      "handle_type": 0,
      "interpolation": 0
     }
    ]
   },
   "has_video": {
    "Points": [
     {
      "co": {
       "X": 1.0,
       "Y": -1.0
      },
      "handle_left": {
       "X": 0.5,
       "Y": 1.0
      },
      "handle_right": {
       "X": 0.5,
       "Y": 0.0
      },
      "handle_type": 0,
      "interpolation": 0
     }
    ]
   },
   "id": "RL0NBBVCEH",
   "layer": 3000000,
   "location_x": {
    "Points": [
     {
      "co": {
       "X": 1,
       "Y": -0.3381601359815776
      },
      "handle_left": {
       "X": 0.5,
       "Y": 1.0
      },
      "handle_right": {
       "X": 0.5,
       "Y": 0.0
      },
      "handle_type": 0,
      "interpolation": 0
     }
    ]
   },
   "location_y": {
    "Points": [
     {
      "co": {
       "X": 1,
       "Y": -0.3909091353416443
      },
      "handle_left": {
       "X": 0.5,
       "Y": 1.0
      },
      "handle_right": {
       "X": 0.5,
       "Y": 0.0
      },
      "handle_type": 0,
      "interpolation": 0
     }
    ]
   },
   "mixing": 0,
   "origin_x": {
    "Points": [
     {
      "co": {
       "X": 1.0,
       "Y": 0.5
      },
      "handle_left": {
       "X": 0.5,
       "Y": 1.0
      },
      "handle_right": {
       "X": 0.5,
       "Y": 0.0
      },
      "handle_type": 0,
      "interpolation": 0
     }
    ]
   },
   "origin_y": {
    "Points": [
     {
      "co": {
       "X": 1.0,
       "Y": 0.5
      },
      "handle_left": {
       "X": 0.5,
       "Y": 1.0
      },
      "handle_right": {
       "X": 0.5,
       "Y": 0.0
      },
      "handle_type": 0,
      "interpolation": 0
     }
    ]
   },
   "parentObjectId": "",
   "perspective_c1_x": {
    "Points": [
     {
      "co": {
       "X": 1.0,
       "Y": -1.0
      },
      "handle_left": {
       "X": 0.5,
       "Y": 1.0
      },
      "handle_right": {
       "X": 0.5,
       "Y": 0.0
      },
      "handle_type": 0,
      "interpolation": 0
     }
    ]
   },
   "perspective_c1_y": {
    "Points": [
     {
      "co": {
       "X": 1.0,
       "Y": -1.0
      },
      "handle_left": {
       "X": 0.5,
       "Y": 1.0
      },
      "handle_right": {
       "X": 0.5,
       "Y": 0.0
      },
      "handle_type": 0,
      "interpolation": 0
     }
    ]
   },
   "perspective_c2_x": {
    "Points": [
     {
      "co": {
       "X": 1.0,
       "Y": -1.0
      },
      "handle_left": {
       "X": 0.5,
       "Y": 1.0
      },
      "handle_right": {
       "X": 0.5,
       "Y": 0.0
      },
      "handle_type": 0,
      "interpolation": 0
     }
    ]
   },
   "perspective_c2_y": {
    "Points": [
     {
      "co": {
       "X": 1.0,
       "Y": -1.0
      },
      "handle_left": {
       "X": 0.5,
       "Y": 1.0
      },
      "handle_right": {
       "X": 0.5,
       "Y": 0.0
      },
      "handle_type": 0,
      "interpolation": 0
     }
    ]
   },
   "perspective_c3_x": {
    "Points": [
     {
      "co": {
       "X": 1.0,
       "Y": -1.0
      },
      "handle_left": {
       "X": 0.5,
       "Y": 1.0
      },
      "handle_right": {
       "X": 0.5,
       "Y": 0.0
      },
      "handle_type": 0,
      "interpolation": 0
     }
    ]
   },
   "perspective_c3_y": {
    "Points": [
     {
      "co": {
       "X": 1.0,
       "Y": -1.0
      },
      "handle_left": {
       "X": 0.5,
       "Y": 1.0
      },
      "handle_right": {
       "X": 0.5,
       "Y": 0.0
      },
      "handle_type": 0,
      "interpolation": 0
     }
    ]
   },
   "perspective_c4_x": {
    "Points": [
     {
      "co": {
       "X": 1.0,
       "Y": -1.0
      },
      "handle_left": {
       "X": 0.5,
       "Y": 1.0
      },
      "handle_right": {
       "X": 0.5,
       "Y": 0.0
      },
      "handle_type": 0,
      "interpolation": 0
     }
    ]
   },
   "perspective_c4_y": {
    "Points": [
     {
      "co": {
       "X": 1.0,
       "Y": -1.0
      },
      "handle_left": {
       "X": 0.5,
       "Y": 1.0
      },
      "handle_right": {
       "X": 0.5,
       "Y": 0.0
      },
      "handle_type": 0,
      "interpolation": 0
     }
    ]
   },
   "position": 69.1,
   "reader": {
    "acodec": "",
    "audio_bit_rate": 0,
    "audio_stream_index": -1,
    "audio_timebase": {
     "den": 1,
     "num": 1
    },
    "channel_layout": 4,
    "channels": 0,
    "display_ratio": {
     "den": 401,
     "num": 1368
    },
    "duration": 3600.0,
    "file_size": "2194272",
    "fps": {
     "den": 1,
     "num": 30
    },
    "has_audio": false,
    "has_single_image": true,
    "has_video": true,
    "height": 401,
    "interlaced_frame": false,
    "metadata": {},
    "path": "./drawing12.png",
    "pixel_format": -1,
    "pixel_ratio": {
     "den": 1,
     "num": 1
    },
    "sample_rate": 0,
    "top_field_first": true,
    "type": "QtImageReader",
    "vcodec": "",
    "video_bit_rate": 0,
    "video_length": "108000",
    "video_stream_index": -1,
    "video_timebase": {
     "den": 30,
     "num": 1
    },
    "width": 1368,
    "media_type": "image",
    "id": "78IVN4Z6X3"
   },
   "rotation": {
    "Points": [
     {
      "co": {
       "X": 1.0,
       "Y": 0.0
      },
      "handle_left": {
       "X": 0.5,
       "Y": 1.0
      },
      "handle_right": {
       "X": 0.5,
       "Y": 0.0
      },
      "handle_type": 0,
      "interpolation": 0
     }
    ]
   },
   "scale": 1,
   "scale_x": {
    "Points": [
     {
      "co": {
       "X": 1,
       "Y": 0.2640542984008789
      },
      "handle_left": {
       "X": 0.5,
       "Y": 1.0
      },
      "handle_right": {
       "X": 0.5,
       "Y": 0.0
      },
      "handle_type": 0,
      "interpolation": 0
     }
    ]
   },
   "scale_y": {
    "Points": [
     {
      "co": {
       "X": 1,
       "Y": 0.2640542984008789
      },
      "handle_left": {
       "X": 0.5,
       "Y": 1.0
      },
      "handle_right": {
       "X": 0.5,
       "Y": 0.0
      },
      "handle_type": 0,
      "interpolation": 0
     }
    ]
   },
   "shear_x": {
    "Points": [
     {
      "co": {
       "X": 1.0,
       "Y": 0.0
      },
      "handle_left": {
       "X": 0.5,
       "Y": 1.0
      },
      "handle_right": {
       "X": 0.5,
       "Y": 0.0
      },
      "handle_type": 0,
      "interpolation": 0
     }
    ]
   },
   "shear_y": {
    "Points": [
     {
      "co": {
       "X": 1.0,
       "Y": 0.0
      },
      "handle_left": {
       "X": 0.5,
       "Y": 1.0
      },
      "handle_right": {
       "X": 0.5,
       "Y": 0.0
      },
      "handle_type": 0,
      "interpolation": 0
     }
    ]
   },
   "start": 0,
   "time": {
    "Points": [
     {
      "co": {
       "X": 1.0,
       "Y": 1.0
      },
      "handle_left": {
       "X": 0.5,
       "Y": 1.0
      },
      "handle_right": {
       "X": 0.5,
       "Y": 0.0
      },
      "handle_type": 0,
      "interpolation": 0
     }
    ]
   },
   "volume": {
    "Points": [
     {
      "co": {
       "X": 1.0,
       "Y": 1.0
      },
      "handle_left": {
       "X": 0.5,
       "Y": 1.0
      },
      "handle_right": {
       "X": 0.5,
       "Y": 0.0
      },
      "handle_type": 0,
      "interpolation": 0
     }
    ]
   },
   "wave_color": {
    "alpha": {
     "Points": [
      {
       "co": {
        "X": 1.0,
        "Y": 255.0
       },
       "handle_left": {
        "X": 0.5,
        "Y": 1.0
       },
       "handle_right": {
        "X": 0.5,
        "Y": 0.0
       },
       "handle_type": 0,
       "interpolation": 0
      }
     ]
    },
    "blue": {
     "Points": [
      {
       "co": {
        "X": 1.0,
        "Y": 255.0
       },
       "handle_left": {
        "X": 0.5,
        "Y": 1.0
       },
       "handle_right": {
        "X": 0.5,
        "Y": 0.0
       },
       "handle_type": 0,
       "interpolation": 0
      }
     ]
    },
    "green": {
     "Points": [
      {
       "co": {
        "X": 1.0,
        "Y": 123.0
       },
       "handle_left": {
        "X": 0.5,
        "Y": 1.0
       },
       "handle_right": {
        "X": 0.5,
        "Y": 0.0
       },
       "handle_type": 0,
       "interpolation": 0
      }
     ]
    },
    "red": {
     "Points": [
      {
       "co": {
        "X": 1.0,
        "Y": 0.0
       },
       "handle_left": {
        "X": 0.5,
        "Y": 1.0
       },
       "handle_right": {
        "X": 0.5,
        "Y": 0.0
       },
       "handle_type": 0,
       "interpolation": 0
      }
     ]
    }
   },
   "waveform": false,
   "file_id": "78IVN4Z6X3",
   "title": "drawing12.png",
   "image": "Tutorial_assets/thumbnail/78IVN4Z6X3.png"
  },
  {
   "alpha": {
    "Points": [
     {
      "co": {
       "X": 1.0,
       "Y": 1.0
      },
      "handle_left": {
       "X": 0.5,
       "Y": 1.0
      },
      "handle_right": {
       "X": 0.5,
       "Y": 0.0
      },
      "handle_type": 0,
      "interpolation": 0
     }
    ]
   },
   "anchor": 0,
   "channel_filter": {
    "Points": [
     {
      "co": {
       "X": 1.0,
       "Y": -1.0
      },
      "handle_left": {
       "X": 0.5,
       "Y": 1.0
      },
      "handle_right": {
       "X": 0.5,
       "Y": 0.0
      },
      "handle_type": 0,
      "interpolation": 0
     }
    ]
   },
   "channel_mapping": {
    "Points": [
     {
      "co": {
       "X": 1.0,
       "Y": -1.0
      },
      "handle_left": {
       "X": 0.5,
       "Y": 1.0
      },
      "handle_right": {
       "X": 0.5,
       "Y": 0.0
      },
      "handle_type": 0,
      "interpolation": 0
     }
    ]
   },
   "display": 0,
   "duration": 3600.0,
   "effects": [],
   "end": 1.8916666666666515,
   "gravity": 4,
   "has_audio": {
    "Points": [
     {
      "co": {
       "X": 1.0,
       "Y": -1.0
      },
      "handle_left": {
       "X": 0.5,
       "Y": 1.0
      },
      "handle_right": {
       "X": 0.5,
       "Y": 0.0
      },
      "handle_type": 0,
      "interpolation": 0
     }
    ]
   },
   "has_video": {
    "Points": [
     {
      "co": {
       "X": 1.0,
       "Y": -1.0
      },
      "handle_left": {
       "X": 0.5,
       "Y": 1.0
      },
      "handle_right": {
       "X": 0.5,
       "Y": 0.0
      },
      "handle_type": 0,
      "interpolation": 0
     }
    ]
   },
   "id": "VO2PAH60WW",
   "layer": 1000000,
   "location_x": {
    "Points": [
     {
      "co": {
       "X": 1.0,
       "Y": 0.0
      },
      "handle_left": {
       "X": 0.5,
       "Y": 1.0
      },
      "handle_right": {
       "X": 0.5,
       "Y": 0.0
      },
      "handle_type": 0,
      "interpolation": 0
     }
    ]
   },
   "location_y": {
    "Points": [
     {
      "co": {
       "X": 1.0,
       "Y": 0.0
      },
      "handle_left": {
       "X": 0.5,
       "Y": 1.0
      },
      "handle_right": {
       "X": 0.5,
       "Y": 0.0
      },
      "handle_type": 0,
      "interpolation": 0
     }
    ]
   },
   "mixing": 0,
   "origin_x": {
    "Points": [
     {
      "co": {
       "X": 1.0,
       "Y": 0.5
      },
      "handle_left": {
       "X": 0.5,
       "Y": 1.0
      },
      "handle_right": {
       "X": 0.5,
       "Y": 0.0
      },
      "handle_type": 0,
      "interpolation": 0
     }
    ]
   },
   "origin_y": {
    "Points": [
     {
      "co": {
       "X": 1.0,
       "Y": 0.5
      },
      "handle_left": {
       "X": 0.5,
       "Y": 1.0
      },
      "handle_right": {
       "X": 0.5,
       "Y": 0.0
      },
      "handle_type": 0,
      "interpolation": 0
     }
    ]
   },
   "parentObjectId": "",
   "perspective_c1_x": {
    "Points": [
     {
      "co": {
       "X": 1.0,
       "Y": -1.0
      },
      "handle_left": {
       "X": 0.5,
       "Y": 1.0
      },
      "handle_right": {
       "X": 0.5,
       "Y": 0.0
      },
      "handle_type": 0,
      "interpolation": 0
     }
    ]
   },
   "perspective_c1_y": {
    "Points": [
     {
      "co": {
       "X": 1.0,
       "Y": -1.0
      },
      "handle_left": {
       "X": 0.5,
       "Y": 1.0
      },
      "handle_right": {
       "X": 0.5,
       "Y": 0.0
      },
      "handle_type": 0,
      "interpolation": 0
     }
    ]
   },
   "perspective_c2_x": {
    "Points": [
     {
      "co": {
       "X": 1.0,
       "Y": -1.0
      },
      "handle_left": {
       "X": 0.5,
       "Y": 1.0
      },
      "handle_right": {
       "X": 0.5,
       "Y": 0.0
      },
      "handle_type": 0,
      "interpolation": 0
     }
    ]
   },
   "perspective_c2_y": {
    "Points": [
     {
      "co": {
       "X": 1.0,
       "Y": -1.0
      },
      "handle_left": {
       "X": 0.5,
       "Y": 1.0
      },
      "handle_right": {
       "X": 0.5,
       "Y": 0.0
      },
      "handle_type": 0,
      "interpolation": 0
     }
    ]
   },
   "perspective_c3_x": {
    "Points": [
     {
      "co": {
       "X": 1.0,
       "Y": -1.0
      },
      "handle_left": {
       "X": 0.5,
       "Y": 1.0
      },
      "handle_right": {
       "X": 0.5,
       "Y": 0.0
      },
      "handle_type": 0,
      "interpolation": 0
     }
    ]
   },
   "perspective_c3_y": {
    "Points": [
     {
      "co": {
       "X": 1.0,
       "Y": -1.0
      },
      "handle_left": {
       "X": 0.5,
       "Y": 1.0
      },
      "handle_right": {
       "X": 0.5,
       "Y": 0.0
      },
      "handle_type": 0,
      "interpolation": 0
     }
    ]
   },
   "perspective_c4_x": {
    "Points": [
     {
      "co": {
       "X": 1.0,
       "Y": -1.0
      },
      "handle_left": {
       "X": 0.5,
       "Y": 1.0
      },
      "handle_right": {
       "X": 0.5,
       "Y": 0.0
      },
      "handle_type": 0,
      "interpolation": 0
     }
    ]
   },
   "perspective_c4_y": {
    "Points": [
     {
      "co": {
       "X": 1.0,
       "Y": -1.0
      },
      "handle_left": {
       "X": 0.5,
       "Y": 1.0
      },
      "handle_right": {
       "X": 0.5,
       "Y": 0.0
      },
      "handle_type": 0,
      "interpolation": 0
     }
    ]
   },
   "position": 69.03333333333333,
   "reader": {
    "acodec": "",
    "audio_bit_rate": 0,
    "audio_stream_index": -1,
    "audio_timebase": {
     "den": 1,
     "num": 1
    },
    "channel_layout": 4,
    "channels": 0,
    "display_ratio": {
     "den": 9,
     "num": 16
    },
    "duration": 3600.0,
    "file_size": "8294400",
    "fps": {
     "den": 1,
     "num": 30
    },
    "has_audio": false,
    "has_single_image": true,
    "has_video": true,
    "height": 1080,
    "interlaced_frame": false,
    "metadata": {},
    "path": "./Frame-02072.png",
    "pixel_format": -1,
    "pixel_ratio": {
     "den": 1,
     "num": 1
    },
    "sample_rate": 0,
    "top_field_first": true,
    "type": "QtImageReader",
    "vcodec": "",
    "video_bit_rate": 0,
    "video_length": "108000",
    "video_stream_index": -1,
    "video_timebase": {
     "den": 30,
     "num": 1
    },
    "width": 1920,
    "media_type": "image",
    "id": "IQSMZHOVVA"
   },
   "rotation": {
    "Points": [
     {
      "co": {
       "X": 1.0,
       "Y": 0.0
      },
      "handle_left": {
       "X": 0.5,
       "Y": 1.0
      },
      "handle_right": {
       "X": 0.5,
       "Y": 0.0
      },
      "handle_type": 0,
      "interpolation": 0
     }
    ]
   },
   "scale": 1,
   "scale_x": {
    "Points": [
     {
      "co": {
       "X": 1.0,
       "Y": 1.0
      },
      "handle_left": {
       "X": 0.5,
       "Y": 1.0
      },
      "handle_right": {
       "X": 0.5,
       "Y": 0.0
      },
      "handle_type": 0,
      "interpolation": 0
     }
    ]
   },
   "scale_y": {
    "Points": [
     {
      "co": {
       "X": 1.0,
       "Y": 1.0
      },
      "handle_left": {
       "X": 0.5,
       "Y": 1.0
      },
      "handle_right": {
       "X": 0.5,
       "Y": 0.0
      },
      "handle_type": 0,
      "interpolation": 0
     }
    ]
   },
   "shear_x": {
    "Points": [
     {
      "co": {
       "X": 1.0,
       "Y": 0.0
      },
      "handle_left": {
       "X": 0.5,
       "Y": 1.0
      },
      "handle_right": {
       "X": 0.5,
       "Y": 0.0
      },
      "handle_type": 0,
      "interpolation": 0
     }
    ]
   },
   "shear_y": {
    "Points": [
     {
      "co": {
       "X": 1.0,
       "Y": 0.0
      },
      "handle_left": {
       "X": 0.5,
       "Y": 1.0
      },
      "handle_right": {
       "X": 0.5,
       "Y": 0.0
      },
      "handle_type": 0,
      "interpolation": 0
     }
    ]
   },
   "start": 0,
   "time": {
    "Points": [
     {
      "co": {
       "X": 1.0,
       "Y": 1.0
      },
      "handle_left": {
       "X": 0.5,
       "Y": 1.0
      },
      "handle_right": {
       "X": 0.5,
       "Y": 0.0
      },
      "handle_type": 0,
      "interpolation": 0
     }
    ]
   },
   "volume": {
    "Points": [
     {
      "co": {
       "X": 1.0,
       "Y": 1.0
      },
      "handle_left": {
       "X": 0.5,
       "Y": 1.0
      },
      "handle_right": {
       "X": 0.5,
       "Y": 0.0
      },
      "handle_type": 0,
      "interpolation": 0
     }
    ]
   },
   "wave_color": {
    "alpha": {
     "Points": [
      {
       "co": {
        "X": 1.0,
        "Y": 255.0
       },
       "handle_left": {
        "X": 0.5,
        "Y": 1.0
       },
       "handle_right": {
        "X": 0.5,
        "Y": 0.0
       },
       "handle_type": 0,
       "interpolation": 0
      }
     ]
    },
    "blue": {
     "Points": [
      {
       "co": {
        "X": 1.0,
        "Y": 255.0
       },
       "handle_left": {
        "X": 0.5,
        "Y": 1.0
       },
       "handle_right": {
        "X": 0.5,
        "Y": 0.0
       },
       "handle_type": 0,
       "interpolation": 0
      }
     ]
    },
    "green": {
     "Points": [
      {
       "co": {
        "X": 1.0,
        "Y": 123.0
       },
       "handle_left": {
        "X": 0.5,
        "Y": 1.0
       },
       "handle_right": {
        "X": 0.5,
        "Y": 0.0
       },
       "handle_type": 0,
       "interpolation": 0
      }
     ]
    },
    "red": {
     "Points": [
      {
       "co": {
        "X": 1.0,
        "Y": 0.0
       },
       "handle_left": {
        "X": 0.5,
        "Y": 1.0
       },
       "handle_right": {
        "X": 0.5,
        "Y": 0.0
       },
       "handle_type": 0,
       "interpolation": 0
      }
     ]
    }
   },
   "waveform": false,
   "file_id": "IQSMZHOVVA",
   "title": "Frame-02072.png",
   "image": "Tutorial_assets/thumbnail/IQSMZHOVVA.png"
  },
  {
   "alpha": {
    "Points": [
     {
      "co": {
       "X": 1.0,
       "Y": 1.0
      },
      "handle_left": {
       "X": 0.5,
       "Y": 1.0
      },
      "handle_right": {
       "X": 0.5,
       "Y": 0.0
      },
      "handle_type": 0,
      "interpolation": 0
     }
    ]
   },
   "anchor": 0,
   "channel_filter": {
    "Points": [
     {
      "co": {
       "X": 1.0,
       "Y": -1.0
      },
      "handle_left": {
       "X": 0.5,
       "Y": 1.0
      },
      "handle_right": {
       "X": 0.5,
       "Y": 0.0
      },
      "handle_type": 0,
      "interpolation": 0
     }
    ]
   },
   "channel_mapping": {
    "Points": [
     {
      "co": {
       "X": 1.0,
       "Y": -1.0
      },
      "handle_left": {
       "X": 0.5,
       "Y": 1.0
      },
      "handle_right": {
       "X": 0.5,
       "Y": 0.0
      },
      "handle_type": 0,
      "interpolation": 0
     }
    ]
   },
   "display": 0,
   "duration": 3600.0,
   "effects": [],
   "end": 3.189063680000084,
   "gravity": 4,
   "has_audio": {
    "Points": [
     {
      "co": {
       "X": 1.0,
       "Y": -1.0
      },
      "handle_left": {
       "X": 0.5,
       "Y": 1.0
      },
      "handle_right": {
       "X": 0.5,
       "Y": 0.0
      },
      "handle_type": 0,
      "interpolation": 0
     }
    ]
   },
   "has_video": {
    "Points": [
     {
      "co": {
       "X": 1.0,
       "Y": -1.0
      },
      "handle_left": {
       "X": 0.5,
       "Y": 1.0
      },
      "handle_right": {
       "X": 0.5,
       "Y": 0.0
      },
      "handle_type": 0,
      "interpolation": 0
     }
    ]
   },
   "id": "D4PFQ6RC78",
   "layer": 4000000,
   "location_x": {
    "Points": [
     {
      "co": {
       "X": 1,
       "Y": 0.2802385005979359
      },
      "handle_left": {
       "X": 0.5,
       "Y": 1.0
      },
      "handle_right": {
       "X": 0.5,
       "Y": 0.0
      },
      "handle_type": 0,
      "interpolation": 0
     }
    ]
   },
   "location_y": {
    "Points": [
     {
      "co": {
       "X": 1,
       "Y": -0.1818181723356247
      },
      "handle_left": {
       "X": 0.5,
       "Y": 1.0
      },
      "handle_right": {
       "X": 0.5,
       "Y": 0.0
      },
      "handle_type": 0,
      "interpolation": 0
     }
    ]
   },
   "mixing": 0,
   "origin_x": {
    "Points": [
     {
      "co": {
       "X": 1.0,
       "Y": 0.5
      },
      "handle_left": {
       "X": 0.5,
       "Y": 1.0
      },
      "handle_right": {
       "X": 0.5,
       "Y": 0.0
      },
      "handle_type": 0,
      "interpolation": 0
     }
    ]
   },
   "origin_y": {
    "Points": [
     {
      "co": {
       "X": 1.0,
       "Y": 0.5
      },
      "handle_left": {
       "X": 0.5,
       "Y": 1.0
      },
      "handle_right": {
       "X": 0.5,
       "Y": 0.0
      },
      "handle_type": 0,
      "interpolation": 0
     }
    ]
   },
   "parentObjectId": "",
   "perspective_c1_x": {
    "Points": [
     {
      "co": {
       "X": 1.0,
       "Y": -1.0
      },
      "handle_left": {
       "X": 0.5,
       "Y": 1.0
      },
      "handle_right": {
       "X": 0.5,
       "Y": 0.0
      },
      "handle_type": 0,
      "interpolation": 0
     }
    ]
   },
   "perspective_c1_y": {
    "Points": [
     {
      "co": {
       "X": 1.0,
       "Y": -1.0
      },
      "handle_left": {
       "X": 0.5,
       "Y": 1.0
      },
      "handle_right": {
       "X": 0.5,
       "Y": 0.0
      },
      "handle_type": 0,
      "interpolation": 0
     }
    ]
   },
   "perspective_c2_x": {
    "Points": [
     {
      "co": {
       "X": 1.0,
       "Y": -1.0
      },
      "handle_left": {
       "X": 0.5,
       "Y": 1.0
      },
      "handle_right": {
       "X": 0.5,
       "Y": 0.0
      },
      "handle_type": 0,
      "interpolation": 0
     }
    ]
   },
   "perspective_c2_y": {
    "Points": [
     {
      "co": {
       "X": 1.0,
       "Y": -1.0
      },
      "handle_left": {
       "X": 0.5,
       "Y": 1.0
      },
      "handle_right": {
       "X": 0.5,
       "Y": 0.0
      },
      "handle_type": 0,
      "interpolation": 0
     }
    ]
   },
   "perspective_c3_x": {
    "Points": [
     {
      "co": {
       "X": 1.0,
       "Y": -1.0
      },
      "handle_left": {
       "X": 0.5,
       "Y": 1.0
      },
      "handle_right": {
       "X": 0.5,
       "Y": 0.0
      },
      "handle_type": 0,
      "interpolation": 0
     }
    ]
   },
   "perspective_c3_y": {
    "Points": [
     {
      "co": {
       "X": 1.0,
       "Y": -1.0
      },
      "handle_left": {
       "X": 0.5,
       "Y": 1.0
      },
      "handle_right": {
       "X": 0.5,
       "Y": 0.0
      },
      "handle_type": 0,
      "interpolation": 0
     }
    ]
   },
   "perspective_c4_x": {
    "Points": [
     {
      "co": {
       "X": 1.0,
       "Y": -1.0
      },
      "handle_left": {
       "X": 0.5,
       "Y": 1.0
      },
      "handle_right": {
       "X": 0.5,
       "Y": 0.0
      },
      "handle_type": 0,
      "interpolation": 0
     }
    ]
   },
   "perspective_c4_y": {
    "Points": [
     {
      "co": {
       "X": 1.0,
       "Y": -1.0
      },
      "handle_left": {
       "X": 0.5,
       "Y": 1.0
      },
      "handle_right": {
       "X": 0.5,
       "Y": 0.0
      },
      "handle_type": 0,
      "interpolation": 0
     }
    ]
   },
   "position": 70.4,
   "reader": {
    "acodec": "",
    "audio_bit_rate": 0,
    "audio_stream_index": -1,
    "audio_timebase": {
     "den": 1,
     "num": 1
    },
    "channel_layout": 4,
    "channels": 0,
    "display_ratio": {
     "den": 555,
     "num": 1423
    },
    "duration": 3600.0,
    "file_size": "3159060",
    "fps": {
     "den": 1,
     "num": 30
    },
    "has_audio": false,
    "has_single_image": true,
    "has_video": true,
    "height": 555,
    "interlaced_frame": false,
    "metadata": {},
    "path": "./drawing13.png",
    "pixel_format": -1,
    "pixel_ratio": {
     "den": 1,
     "num": 1
    },
    "sample_rate": 0,
    "top_field_first": true,
    "type": "QtImageReader",
    "vcodec": "",
    "video_bit_rate": 0,
    "video_length": "108000",
    "video_stream_index": -1,
    "video_timebase": {
     "den": 30,
     "num": 1
    },
    "width": 1423,
    "media_type": "image",
    "id": "AMZKQHK3YL",
    "image": "thumbnail/AMZKQHK3YL.png"
   },
   "rotation": {
    "Points": [
     {
      "co": {
       "X": 1.0,
       "Y": 0.0
      },
      "handle_left": {
       "X": 0.5,
       "Y": 1.0
      },
      "handle_right": {
       "X": 0.5,
       "Y": 0.0
      },
      "handle_type": 0,
      "interpolation": 0
     }
    ]
   },
   "scale": 1,
   "scale_x": {
    "Points": [
     {
      "co": {
       "X": 1,
       "Y": 0.28790445399852993
      },
      "handle_left": {
       "X": 0.5,
       "Y": 1.0
      },
      "handle_right": {
       "X": 0.5,
       "Y": 0.0
      },
      "handle_type": 0,
      "interpolation": 0
     }
    ]
   },
   "scale_y": {
    "Points": [
     {
      "co": {
       "X": 1,
       "Y": 0.28790445399852993
      },
      "handle_left": {
       "X": 0.5,
       "Y": 1.0
      },
      "handle_right": {
       "X": 0.5,
       "Y": 0.0
      },
      "handle_type": 0,
      "interpolation": 0
     }
    ]
   },
   "shear_x": {
    "Points": [
     {
      "co": {
       "X": 1.0,
       "Y": 0.0
      },
      "handle_left": {
       "X": 0.5,
       "Y": 1.0
      },
      "handle_right": {
       "X": 0.5,
       "Y": 0.0
      },
      "handle_type": 0,
      "interpolation": 0
     }
    ]
   },
   "shear_y": {
    "Points": [
     {
      "co": {
       "X": 1.0,
       "Y": 0.0
      },
      "handle_left": {
       "X": 0.5,
       "Y": 1.0
      },
      "handle_right": {
       "X": 0.5,
       "Y": 0.0
      },
      "handle_type": 0,
      "interpolation": 0
     }
    ]
   },
   "start": 0,
   "time": {
    "Points": [
     {
      "co": {
       "X": 1.0,
       "Y": 1.0
      },
      "handle_left": {
       "X": 0.5,
       "Y": 1.0
      },
      "handle_right": {
       "X": 0.5,
       "Y": 0.0
      },
      "handle_type": 0,
      "interpolation": 0
     }
    ]
   },
   "volume": {
    "Points": [
     {
      "co": {
       "X": 1.0,
       "Y": 1.0
      },
      "handle_left": {
       "X": 0.5,
       "Y": 1.0
      },
      "handle_right": {
       "X": 0.5,
       "Y": 0.0
      },
      "handle_type": 0,
      "interpolation": 0
     }
    ]
   },
   "wave_color": {
    "alpha": {
     "Points": [
      {
       "co": {
        "X": 1.0,
        "Y": 255.0
       },
       "handle_left": {
        "X": 0.5,
        "Y": 1.0
       },
       "handle_right": {
        "X": 0.5,
        "Y": 0.0
       },
       "handle_type": 0,
       "interpolation": 0
      }
     ]
    },
    "blue": {
     "Points": [
      {
       "co": {
        "X": 1.0,
        "Y": 255.0
       },
       "handle_left": {
        "X": 0.5,
        "Y": 1.0
       },
       "handle_right": {
        "X": 0.5,
        "Y": 0.0
       },
       "handle_type": 0,
       "interpolation": 0
      }
     ]
    },
    "green": {
     "Points": [
      {
       "co": {
        "X": 1.0,
        "Y": 123.0
       },
       "handle_left": {
        "X": 0.5,
        "Y": 1.0
       },
       "handle_right": {
        "X": 0.5,
        "Y": 0.0
       },
       "handle_type": 0,
       "interpolation": 0
      }
     ]
    },
    "red": {
     "Points": [
      {
       "co": {
        "X": 1.0,
        "Y": 0.0
       },
       "handle_left": {
        "X": 0.5,
        "Y": 1.0
       },
       "handle_right": {
        "X": 0.5,
        "Y": 0.0
       },
       "handle_type": 0,
       "interpolation": 0
      }
     ]
    }
   },
   "waveform": false,
   "file_id": "AMZKQHK3YL",
   "title": "drawing13.png",
   "image": "Tutorial_assets/thumbnail/AMZKQHK3YL.png"
  },
  {
   "alpha": {
    "Points": [
     {
      "co": {
       "X": 1.0,
       "Y": 1.0
      },
      "handle_left": {
       "X": 0.5,
       "Y": 1.0
      },
      "handle_right": {
       "X": 0.5,
       "Y": 0.0
      },
      "handle_type": 0,
      "interpolation": 0
     }
    ]
   },
   "anchor": 0,
   "channel_filter": {
    "Points": [
     {
      "co": {
       "X": 1.0,
       "Y": -1.0
      },
      "handle_left": {
       "X": 0.5,
       "Y": 1.0
      },
      "handle_right": {
       "X": 0.5,
       "Y": 0.0
      },
      "handle_type": 0,
      "interpolation": 0
     }
    ]
   },
   "channel_mapping": {
    "Points": [
     {
      "co": {
       "X": 1.0,
       "Y": -1.0
      },
      "handle_left": {
       "X": 0.5,
       "Y": 1.0
      },
      "handle_right": {
       "X": 0.5,
       "Y": 0.0
      },
      "handle_type": 0,
      "interpolation": 0
     }
    ]
   },
   "display": 0,
   "duration": 3600.0,
   "effects": [],
   "end": 2.0666666666666664,
   "gravity": 4,
   "has_audio": {
    "Points": [
     {
      "co": {
       "X": 1.0,
       "Y": -1.0
      },
      "handle_left": {
       "X": 0.5,
       "Y": 1.0
      },
      "handle_right": {
       "X": 0.5,
       "Y": 0.0
      },
      "handle_type": 0,
      "interpolation": 0
     }
    ]
   },
   "has_video": {
    "Points": [
     {
      "co": {
       "X": 1.0,
       "Y": -1.0
      },
      "handle_left": {
       "X": 0.5,
       "Y": 1.0
      },
      "handle_right": {
       "X": 0.5,
       "Y": 0.0
      },
      "handle_type": 0,
      "interpolation": 0
     }
    ]
   },
   "id": "SUN9QYDY9A",
   "layer": 1000000,
   "location_x": {
    "Points": [
     {
      "co": {
       "X": 1.0,
       "Y": 0.0
      },
      "handle_left": {
       "X": 0.5,
       "Y": 1.0
      },
      "handle_right": {
       "X": 0.5,
       "Y": 0.0
      },
      "handle_type": 0,
      "interpolation": 0
     }
    ]
   },
   "location_y": {
    "Points": [
     {
      "co": {
       "X": 1.0,
       "Y": 0.0
      },
      "handle_left": {
       "X": 0.5,
       "Y": 1.0
      },
      "handle_right": {
       "X": 0.5,
       "Y": 0.0
      },
      "handle_type": 0,
      "interpolation": 0
     }
    ]
   },
   "mixing": 0,
   "origin_x": {
    "Points": [
     {
      "co": {
       "X": 1.0,
       "Y": 0.5
      },
      "handle_left": {
       "X": 0.5,
       "Y": 1.0
      },
      "handle_right": {
       "X": 0.5,
       "Y": 0.0
      },
      "handle_type": 0,
      "interpolation": 0
     }
    ]
   },
   "origin_y": {
    "Points": [
     {
      "co": {
       "X": 1.0,
       "Y": 0.5
      },
      "handle_left": {
       "X": 0.5,
       "Y": 1.0
      },
      "handle_right": {
       "X": 0.5,
       "Y": 0.0
      },
      "handle_type": 0,
      "interpolation": 0
     }
    ]
   },
   "parentObjectId": "",
   "perspective_c1_x": {
    "Points": [
     {
      "co": {
       "X": 1.0,
       "Y": -1.0
      },
      "handle_left": {
       "X": 0.5,
       "Y": 1.0
      },
      "handle_right": {
       "X": 0.5,
       "Y": 0.0
      },
      "handle_type": 0,
      "interpolation": 0
     }
    ]
   },
   "perspective_c1_y": {
    "Points": [
     {
      "co": {
       "X": 1.0,
       "Y": -1.0
      },
      "handle_left": {
       "X": 0.5,
       "Y": 1.0
      },
      "handle_right": {
       "X": 0.5,
       "Y": 0.0
      },
      "handle_type": 0,
      "interpolation": 0
     }
    ]
   },
   "perspective_c2_x": {
    "Points": [
     {
      "co": {
       "X": 1.0,
       "Y": -1.0
      },
      "handle_left": {
       "X": 0.5,
       "Y": 1.0
      },
      "handle_right": {
       "X": 0.5,
       "Y": 0.0
      },
      "handle_type": 0,
      "interpolation": 0
     }
    ]
   },
   "perspective_c2_y": {
    "Points": [
     {
      "co": {
       "X": 1.0,
       "Y": -1.0
      },
      "handle_left": {
       "X": 0.5,
       "Y": 1.0
      },
      "handle_right": {
       "X": 0.5,
       "Y": 0.0
      },
      "handle_type": 0,
      "interpolation": 0
     }
    ]
   },
   "perspective_c3_x": {
    "Points": [
     {
      "co": {
       "X": 1.0,
       "Y": -1.0
      },
      "handle_left": {
       "X": 0.5,
       "Y": 1.0
      },
      "handle_right": {
       "X": 0.5,
       "Y": 0.0
      },
      "handle_type": 0,
      "interpolation": 0
     }
    ]
   },
   "perspective_c3_y": {
    "Points": [
     {
      "co": {
       "X": 1.0,
       "Y": -1.0
      },
      "handle_left": {
       "X": 0.5,
       "Y": 1.0
      },
      "handle_right": {
       "X": 0.5,
       "Y": 0.0
      },
      "handle_type": 0,
      "interpolation": 0
     }
    ]
   },
   "perspective_c4_x": {
    "Points": [
     {
      "co": {
       "X": 1.0,
       "Y": -1.0
      },
      "handle_left": {
       "X": 0.5,
       "Y": 1.0
      },
      "handle_right": {
       "X": 0.5,
       "Y": 0.0
      },
      "handle_type": 0,
      "interpolation": 0
     }
    ]
   },
   "perspective_c4_y": {
    "Points": [
     {
      "co": {
       "X": 1.0,
       "Y": -1.0
      },
      "handle_left": {
       "X": 0.5,
       "Y": 1.0
      },
      "handle_right": {
       "X": 0.5,
       "Y": 0.0
      },
      "handle_type": 0,
      "interpolation": 0
     }
    ]
   },
   "position": 72.03333333333333,
   "reader": {
    "acodec": "",
    "audio_bit_rate": 0,
    "audio_stream_index": -1,
    "audio_timebase": {
     "den": 1,
     "num": 1
    },
    "channel_layout": 4,
    "channels": 0,
    "display_ratio": {
     "den": 9,
     "num": 16
    },
    "duration": 3600.0,
    "file_size": "8294400",
    "fps": {
     "den": 1,
     "num": 30
    },
    "has_audio": false,
    "has_single_image": true,
    "has_video": true,
    "height": 1080,
    "interlaced_frame": false,
    "metadata": {},
    "path": "./Frame-02160.png",
    "pixel_format": -1,
    "pixel_ratio": {
     "den": 1,
     "num": 1
    },
    "sample_rate": 0,
    "top_field_first": true,
    "type": "QtImageReader",
    "vcodec": "",
    "video_bit_rate": 0,
    "video_length": "108000",
    "video_stream_index": -1,
    "video_timebase": {
     "den": 30,
     "num": 1
    },
    "width": 1920,
    "media_type": "image",
    "id": "YMNTH3B508"
   },
   "rotation": {
    "Points": [
     {
      "co": {
       "X": 1.0,
       "Y": 0.0
      },
      "handle_left": {
       "X": 0.5,
       "Y": 1.0
      },
      "handle_right": {
       "X": 0.5,
       "Y": 0.0
      },
      "handle_type": 0,
      "interpolation": 0
     }
    ]
   },
   "scale": 1,
   "scale_x": {
    "Points": [
     {
      "co": {
       "X": 1.0,
       "Y": 1.0
      },
      "handle_left": {
       "X": 0.5,
       "Y": 1.0
      },
      "handle_right": {
       "X": 0.5,
       "Y": 0.0
      },
      "handle_type": 0,
      "interpolation": 0
     }
    ]
   },
   "scale_y": {
    "Points": [
     {
      "co": {
       "X": 1.0,
       "Y": 1.0
      },
      "handle_left": {
       "X": 0.5,
       "Y": 1.0
      },
      "handle_right": {
       "X": 0.5,
       "Y": 0.0
      },
      "handle_type": 0,
      "interpolation": 0
     }
    ]
   },
   "shear_x": {
    "Points": [
     {
      "co": {
       "X": 1.0,
       "Y": 0.0
      },
      "handle_left": {
       "X": 0.5,
       "Y": 1.0
      },
      "handle_right": {
       "X": 0.5,
       "Y": 0.0
      },
      "handle_type": 0,
      "interpolation": 0
     }
    ]
   },
   "shear_y": {
    "Points": [
     {
      "co": {
       "X": 1.0,
       "Y": 0.0
      },
      "handle_left": {
       "X": 0.5,
       "Y": 1.0
      },
      "handle_right": {
       "X": 0.5,
       "Y": 0.0
      },
      "handle_type": 0,
      "interpolation": 0
     }
    ]
   },
   "start": 0,
   "time": {
    "Points": [
     {
      "co": {
       "X": 1.0,
       "Y": 1.0
      },
      "handle_left": {
       "X": 0.5,
       "Y": 1.0
      },
      "handle_right": {
       "X": 0.5,
       "Y": 0.0
      },
      "handle_type": 0,
      "interpolation": 0
     }
    ]
   },
   "volume": {
    "Points": [
     {
      "co": {
       "X": 1.0,
       "Y": 1.0
      },
      "handle_left": {
       "X": 0.5,
       "Y": 1.0
      },
      "handle_right": {
       "X": 0.5,
       "Y": 0.0
      },
      "handle_type": 0,
      "interpolation": 0
     }
    ]
   },
   "wave_color": {
    "alpha": {
     "Points": [
      {
       "co": {
        "X": 1.0,
        "Y": 255.0
       },
       "handle_left": {
        "X": 0.5,
        "Y": 1.0
       },
       "handle_right": {
        "X": 0.5,
        "Y": 0.0
       },
       "handle_type": 0,
       "interpolation": 0
      }
     ]
    },
    "blue": {
     "Points": [
      {
       "co": {
        "X": 1.0,
        "Y": 255.0
       },
       "handle_left": {
        "X": 0.5,
        "Y": 1.0
       },
       "handle_right": {
        "X": 0.5,
        "Y": 0.0
       },
       "handle_type": 0,
       "interpolation": 0
      }
     ]
    },
    "green": {
     "Points": [
      {
       "co": {
        "X": 1.0,
        "Y": 123.0
       },
       "handle_left": {
        "X": 0.5,
        "Y": 1.0
       },
       "handle_right": {
        "X": 0.5,
        "Y": 0.0
       },
       "handle_type": 0,
       "interpolation": 0
      }
     ]
    },
    "red": {
     "Points": [
      {
       "co": {
        "X": 1.0,
        "Y": 0.0
       },
       "handle_left": {
        "X": 0.5,
        "Y": 1.0
       },
       "handle_right": {
        "X": 0.5,
        "Y": 0.0
       },
       "handle_type": 0,
       "interpolation": 0
      }
     ]
    }
   },
   "waveform": false,
   "file_id": "YMNTH3B508",
   "title": "Frame-02160.png",
   "image": "Tutorial_assets/thumbnail/YMNTH3B508.png"
  },
  {
   "alpha": {
    "Points": [
     {
      "co": {
       "X": 1.0,
       "Y": 1.0
      },
      "handle_left": {
       "X": 0.5,
       "Y": 1.0
      },
      "handle_right": {
       "X": 0.5,
       "Y": 0.0
      },
      "handle_type": 0,
      "interpolation": 0
     }
    ]
   },
   "anchor": 0,
   "channel_filter": {
    "Points": [
     {
      "co": {
       "X": 1.0,
       "Y": -1.0
      },
      "handle_left": {
       "X": 0.5,
       "Y": 1.0
      },
      "handle_right": {
       "X": 0.5,
       "Y": 0.0
      },
      "handle_type": 0,
      "interpolation": 0
     }
    ]
   },
   "channel_mapping": {
    "Points": [
     {
      "co": {
       "X": 1.0,
       "Y": -1.0
      },
      "handle_left": {
       "X": 0.5,
       "Y": 1.0
      },
      "handle_right": {
       "X": 0.5,
       "Y": 0.0
      },
      "handle_type": 0,
      "interpolation": 0
     }
    ]
   },
   "display": 0,
   "duration": 3600.0,
   "effects": [],
   "end": 6.624000000000005,
   "gravity": 4,
   "has_audio": {
    "Points": [
     {
      "co": {
       "X": 1.0,
       "Y": -1.0
      },
      "handle_left": {
       "X": 0.5,
       "Y": 1.0
      },
      "handle_right": {
       "X": 0.5,
       "Y": 0.0
      },
      "handle_type": 0,
      "interpolation": 0
     }
    ]
   },
   "has_video": {
    "Points": [
     {
      "co": {
       "X": 1.0,
       "Y": -1.0
      },
      "handle_left": {
       "X": 0.5,
       "Y": 1.0
      },
      "handle_right": {
       "X": 0.5,
       "Y": 0.0
      },
      "handle_type": 0,
      "interpolation": 0
     }
    ]
   },
   "id": "LEPKSGFPUA",
   "layer": 4000000,
   "location_x": {
    "Points": [
     {
      "co": {
       "X": 1,
       "Y": 0.25553667545318604
      },
      "handle_left": {
       "X": 0.5,
       "Y": 1.0
      },
      "handle_right": {
       "X": 0.5,
       "Y": 0.0
      },
      "handle_type": 0,
      "interpolation": 0
     }
    ]
   },
   "location_y": {
    "Points": [
     {
      "co": {
       "X": 1,
       "Y": -0.22727273260102127
      },
      "handle_left": {
       "X": 0.5,
       "Y": 1.0
      },
      "handle_right": {
       "X": 0.5,
       "Y": 0.0
      },
      "handle_type": 0,
      "interpolation": 0
     }
    ]
   },
   "mixing": 0,
   "origin_x": {
    "Points": [
     {
      "co": {
       "X": 1.0,
       "Y": 0.5
      },
      "handle_left": {
       "X": 0.5,
       "Y": 1.0
      },
      "handle_right": {
       "X": 0.5,
       "Y": 0.0
      },
      "handle_type": 0,
      "interpolation": 0
     }
    ]
   },
   "origin_y": {
    "Points": [
     {
      "co": {
       "X": 1.0,
       "Y": 0.5
      },
      "handle_left": {
       "X": 0.5,
       "Y": 1.0
      },
      "handle_right": {
       "X": 0.5,
       "Y": 0.0
      },
      "handle_type": 0,
      "interpolation": 0
     }
    ]
   },
   "parentObjectId": "",
   "perspective_c1_x": {
    "Points": [
     {
      "co": {
       "X": 1.0,
       "Y": -1.0
      },
      "handle_left": {
       "X": 0.5,
       "Y": 1.0
      },
      "handle_right": {
       "X": 0.5,
       "Y": 0.0
      },
      "handle_type": 0,
      "interpolation": 0
     }
    ]
   },
   "perspective_c1_y": {
    "Points": [
     {
      "co": {
       "X": 1.0,
       "Y": -1.0
      },
      "handle_left": {
       "X": 0.5,
       "Y": 1.0
      },
      "handle_right": {
       "X": 0.5,
       "Y": 0.0
      },
      "handle_type": 0,
      "interpolation": 0
     }
    ]
   },
   "perspective_c2_x": {
    "Points": [
     {
      "co": {
       "X": 1.0,
       "Y": -1.0
      },
      "handle_left": {
       "X": 0.5,
       "Y": 1.0
      },
      "handle_right": {
       "X": 0.5,
       "Y": 0.0
      },
      "handle_type": 0,
      "interpolation": 0
     }
    ]
   },
   "perspective_c2_y": {
    "Points": [
     {
      "co": {
       "X": 1.0,
       "Y": -1.0
      },
      "handle_left": {
       "X": 0.5,
       "Y": 1.0
      },
      "handle_right": {
       "X": 0.5,
       "Y": 0.0
      },
      "handle_type": 0,
      "interpolation": 0
     }
    ]
   },
   "perspective_c3_x": {
    "Points": [
     {
      "co": {
       "X": 1.0,
       "Y": -1.0
      },
      "handle_left": {
       "X": 0.5,
       "Y": 1.0
      },
      "handle_right": {
       "X": 0.5,
       "Y": 0.0
      },
      "handle_type": 0,
      "interpolation": 0
     }
    ]
   },
   "perspective_c3_y": {
    "Points": [
     {
      "co": {
       "X": 1.0,
       "Y": -1.0
      },
      "handle_left": {
       "X": 0.5,
       "Y": 1.0
      },
      "handle_right": {
       "X": 0.5,
       "Y": 0.0
      },
      "handle_type": 0,
      "interpolation": 0
     }
    ]
   },
   "perspective_c4_x": {
    "Points": [
     {
      "co": {
       "X": 1.0,
       "Y": -1.0
      },
      "handle_left": {
       "X": 0.5,
       "Y": 1.0
      },
      "handle_right": {
       "X": 0.5,
       "Y": 0.0
      },
      "handle_type": 0,
      "interpolation": 0
     }
    ]
   },
   "perspective_c4_y": {
    "Points": [
     {
      "co": {
       "X": 1.0,
       "Y": -1.0
      },
      "handle_left": {
       "X": 0.5,
       "Y": 1.0
      },
      "handle_right": {
       "X": 0.5,
       "Y": 0.0
      },
      "handle_type": 0,
      "interpolation": 0
     }
    ]
   },
   "position": 73.90080000000002,
   "reader": {
    "acodec": "",
    "audio_bit_rate": 0,
    "audio_stream_index": -1,
    "audio_timebase": {
     "den": 1,
     "num": 1
    },
    "channel_layout": 4,
    "channels": 0,
    "display_ratio": {
     "den": 721,
     "num": 1700
    },
    "duration": 3600.0,
    "file_size": "4902800",
    "fps": {
     "den": 1,
     "num": 30
    },
    "has_audio": false,
    "has_single_image": true,
    "has_video": true,
    "height": 721,
    "interlaced_frame": false,
    "metadata": {},
    "path": "./drawing14.png",
    "pixel_format": -1,
    "pixel_ratio": {
     "den": 1,
     "num": 1
    },
    "sample_rate": 0,
    "top_field_first": true,
    "type": "QtImageReader",
    "vcodec": "",
    "video_bit_rate": 0,
    "video_length": "108000",
    "video_stream_index": -1,
    "video_timebase": {
     "den": 30,
     "num": 1
    },
    "width": 1700,
    "media_type": "image",
    "id": "ISEGZDGP9H"
   },
   "rotation": {
    "Points": [
     {
      "co": {
       "X": 1.0,
       "Y": 0.0
      },
      "handle_left": {
       "X": 0.5,
       "Y": 1.0
      },
      "handle_right": {
       "X": 0.5,
       "Y": 0.0
      },
      "handle_type": 0,
      "interpolation": 0
     }
    ]
   },
   "scale": 1,
   "scale_x": {
    "Points": [
     {
      "co": {
       "X": 1,
       "Y": 0.3066437542438507
      },
      "handle_left": {
       "X": 0.5,
       "Y": 1.0
      },
      "handle_right": {
       "X": 0.5,
       "Y": 0.0
      },
      "handle_type": 0,
      "interpolation": 0
     }
    ]
   },
   "scale_y": {
    "Points": [
     {
      "co": {
       "X": 1,
       "Y": 0.3066437542438507
      },
      "handle_left": {
       "X": 0.5,
       "Y": 1.0
      },
      "handle_right": {
       "X": 0.5,
       "Y": 0.0
      },
      "handle_type": 0,
      "interpolation": 0
     }
    ]
   },
   "shear_x": {
    "Points": [
     {
      "co": {
       "X": 1.0,
       "Y": 0.0
      },
      "handle_left": {
       "X": 0.5,
       "Y": 1.0
      },
      "handle_right": {
       "X": 0.5,
       "Y": 0.0
      },
      "handle_type": 0,
      "interpolation": 0
     }
    ]
   },
   "shear_y": {
    "Points": [
     {
      "co": {
       "X": 1.0,
       "Y": 0.0
      },
      "handle_left": {
       "X": 0.5,
       "Y": 1.0
      },
      "handle_right": {
       "X": 0.5,
       "Y": 0.0
      },
      "handle_type": 0,
      "interpolation": 0
     }
    ]
   },
   "start": 0,
   "time": {
    "Points": [
     {
      "co": {
       "X": 1.0,
       "Y": 1.0
      },
      "handle_left": {
       "X": 0.5,
       "Y": 1.0
      },
      "handle_right": {
       "X": 0.5,
       "Y": 0.0
      },
      "handle_type": 0,
      "interpolation": 0
     }
    ]
   },
   "volume": {
    "Points": [
     {
      "co": {
       "X": 1.0,
       "Y": 1.0
      },
      "handle_left": {
       "X": 0.5,
       "Y": 1.0
      },
      "handle_right": {
       "X": 0.5,
       "Y": 0.0
      },
      "handle_type": 0,
      "interpolation": 0
     }
    ]
   },
   "wave_color": {
    "alpha": {
     "Points": [
      {
       "co": {
        "X": 1.0,
        "Y": 255.0
       },
       "handle_left": {
        "X": 0.5,
        "Y": 1.0
       },
       "handle_right": {
        "X": 0.5,
        "Y": 0.0
       },
       "handle_type": 0,
       "interpolation": 0
      }
     ]
    },
    "blue": {
     "Points": [
      {
       "co": {
        "X": 1.0,
        "Y": 255.0
       },
       "handle_left": {
        "X": 0.5,
        "Y": 1.0
       },
       "handle_right": {
        "X": 0.5,
        "Y": 0.0
       },
       "handle_type": 0,
       "interpolation": 0
      }
     ]
    },
    "green": {
     "Points": [
      {
       "co": {
        "X": 1.0,
        "Y": 123.0
       },
       "handle_left": {
        "X": 0.5,
        "Y": 1.0
       },
       "handle_right": {
        "X": 0.5,
        "Y": 0.0
       },
       "handle_type": 0,
       "interpolation": 0
      }
     ]
    },
    "red": {
     "Points": [
      {
       "co": {
        "X": 1.0,
        "Y": 0.0
       },
       "handle_left": {
        "X": 0.5,
        "Y": 1.0
       },
       "handle_right": {
        "X": 0.5,
        "Y": 0.0
       },
       "handle_type": 0,
       "interpolation": 0
      }
     ]
    }
   },
   "waveform": false,
   "file_id": "ISEGZDGP9H",
   "title": "drawing14.png",
   "image": "Tutorial_assets/thumbnail/ISEGZDGP9H.png"
  },
  {
   "alpha": {
    "Points": [
     {
      "co": {
       "X": 1.0,
       "Y": 1.0
      },
      "handle_left": {
       "X": 0.5,
       "Y": 1.0
      },
      "handle_right": {
       "X": 0.5,
       "Y": 0.0
      },
      "handle_type": 0,
      "interpolation": 0
     }
    ]
   },
   "anchor": 0,
   "channel_filter": {
    "Points": [
     {
      "co": {
       "X": 1.0,
       "Y": -1.0
      },
      "handle_left": {
       "X": 0.5,
       "Y": 1.0
      },
      "handle_right": {
       "X": 0.5,
       "Y": 0.0
      },
      "handle_type": 0,
      "interpolation": 0
     }
    ]
   },
   "channel_mapping": {
    "Points": [
     {
      "co": {
       "X": 1.0,
       "Y": -1.0
      },
      "handle_left": {
       "X": 0.5,
       "Y": 1.0
      },
      "handle_right": {
       "X": 0.5,
       "Y": 0.0
      },
      "handle_type": 0,
      "interpolation": 0
     }
    ]
   },
   "display": 0,
   "duration": 3600.0,
   "effects": [],
   "end": 5.166666666666653,
   "gravity": 4,
   "has_audio": {
    "Points": [
     {
      "co": {
       "X": 1.0,
       "Y": -1.0
      },
      "handle_left": {
       "X": 0.5,
       "Y": 1.0
      },
      "handle_right": {
       "X": 0.5,
       "Y": 0.0
      },
      "handle_type": 0,
      "interpolation": 0
     }
    ]
   },
   "has_video": {
    "Points": [
     {
      "co": {
       "X": 1.0,
       "Y": -1.0
      },
      "handle_left": {
       "X": 0.5,
       "Y": 1.0
      },
      "handle_right": {
       "X": 0.5,
       "Y": 0.0
      },
      "handle_type": 0,
      "interpolation": 0
     }
    ]
   },
   "id": "138INDLFGT",
   "layer": 1000000,
   "location_x": {
    "Points": [
     {
      "co": {
       "X": 1.0,
       "Y": 0.0
      },
      "handle_left": {
       "X": 0.5,
       "Y": 1.0
      },
      "handle_right": {
       "X": 0.5,
       "Y": 0.0
      },
      "handle_type": 0,
      "interpolation": 0
     }
    ]
   },
   "location_y": {
    "Points": [
     {
      "co": {
       "X": 1.0,
       "Y": 0.0
      },
      "handle_left": {
       "X": 0.5,
       "Y": 1.0
      },
      "handle_right": {
       "X": 0.5,
       "Y": 0.0
      },
      "handle_type": 0,
      "interpolation": 0
     }
    ]
   },
   "mixing": 0,
   "origin_x": {
    "Points": [
     {
      "co": {
       "X": 1.0,
       "Y": 0.5
      },
      "handle_left": {
       "X": 0.5,
       "Y": 1.0
      },
      "handle_right": {
       "X": 0.5,
       "Y": 0.0
      },
      "handle_type": 0,
      "interpolation": 0
     }
    ]
   },
   "origin_y": {
    "Points": [
     {
      "co": {
       "X": 1.0,
       "Y": 0.5
      },
      "handle_left": {
       "X": 0.5,
       "Y": 1.0
      },
      "handle_right": {
       "X": 0.5,
       "Y": 0.0
      },
      "handle_type": 0,
      "interpolation": 0
     }
    ]
   },
   "parentObjectId": "",
   "perspective_c1_x": {
    "Points": [
     {
      "co": {
       "X": 1.0,
       "Y": -1.0
      },
      "handle_left": {
       "X": 0.5,
       "Y": 1.0
      },
      "handle_right": {
       "X": 0.5,
       "Y": 0.0
      },
      "handle_type": 0,
      "interpolation": 0
     }
    ]
   },
   "perspective_c1_y": {
    "Points": [
     {
      "co": {
       "X": 1.0,
       "Y": -1.0
      },
      "handle_left": {
       "X": 0.5,
       "Y": 1.0
      },
      "handle_right": {
       "X": 0.5,
       "Y": 0.0
      },
      "handle_type": 0,
      "interpolation": 0
     }
    ]
   },
   "perspective_c2_x": {
    "Points": [
     {
      "co": {
       "X": 1.0,
       "Y": -1.0
      },
      "handle_left": {
       "X": 0.5,
       "Y": 1.0
      },
      "handle_right": {
       "X": 0.5,
       "Y": 0.0
      },
      "handle_type": 0,
      "interpolation": 0
     }
    ]
   },
   "perspective_c2_y": {
    "Points": [
     {
      "co": {
       "X": 1.0,
       "Y": -1.0
      },
      "handle_left": {
       "X": 0.5,
       "Y": 1.0
      },
      "handle_right": {
       "X": 0.5,
       "Y": 0.0
      },
      "handle_type": 0,
      "interpolation": 0
     }
    ]
   },
   "perspective_c3_x": {
    "Points": [
     {
      "co": {
       "X": 1.0,
       "Y": -1.0
      },
      "handle_left": {
       "X": 0.5,
       "Y": 1.0
      },
      "handle_right": {
       "X": 0.5,
       "Y": 0.0
      },
      "handle_type": 0,
      "interpolation": 0
     }
    ]
   },
   "perspective_c3_y": {
    "Points": [
     {
      "co": {
       "X": 1.0,
       "Y": -1.0
      },
      "handle_left": {
       "X": 0.5,
       "Y": 1.0
      },
      "handle_right": {
       "X": 0.5,
       "Y": 0.0
      },
      "handle_type": 0,
      "interpolation": 0
     }
    ]
   },
   "perspective_c4_x": {
    "Points": [
     {
      "co": {
       "X": 1.0,
       "Y": -1.0
      },
      "handle_left": {
       "X": 0.5,
       "Y": 1.0
      },
      "handle_right": {
       "X": 0.5,
       "Y": 0.0
      },
      "handle_type": 0,
      "interpolation": 0
     }
    ]
   },
   "perspective_c4_y": {
    "Points": [
     {
      "co": {
       "X": 1.0,
       "Y": -1.0
      },
      "handle_left": {
       "X": 0.5,
       "Y": 1.0
      },
      "handle_right": {
       "X": 0.5,
       "Y": 0.0
      },
      "handle_type": 0,
      "interpolation": 0
     }
    ]
   },
   "position": 74.4,
   "reader": {
    "acodec": "",
    "audio_bit_rate": 0,
    "audio_stream_index": -1,
    "audio_timebase": {
     "den": 1,
     "num": 1
    },
    "channel_layout": 4,
    "channels": 0,
    "display_ratio": {
     "den": 9,
     "num": 16
    },
    "duration": 3600.0,
    "file_size": "8294400",
    "fps": {
     "den": 1,
     "num": 30
    },
    "has_audio": false,
    "has_single_image": true,
    "has_video": true,
    "height": 1080,
    "interlaced_frame": false,
    "metadata": {},
    "path": "./Frame-02231.png",
    "pixel_format": -1,
    "pixel_ratio": {
     "den": 1,
     "num": 1
    },
    "sample_rate": 0,
    "top_field_first": true,
    "type": "QtImageReader",
    "vcodec": "",
    "video_bit_rate": 0,
    "video_length": "108000",
    "video_stream_index": -1,
    "video_timebase": {
     "den": 30,
     "num": 1
    },
    "width": 1920,
    "media_type": "image",
    "id": "RJ03CCT5K6"
   },
   "rotation": {
    "Points": [
     {
      "co": {
       "X": 1.0,
       "Y": 0.0
      },
      "handle_left": {
       "X": 0.5,
       "Y": 1.0
      },
      "handle_right": {
       "X": 0.5,
       "Y": 0.0
      },
      "handle_type": 0,
      "interpolation": 0
     }
    ]
   },
   "scale": 1,
   "scale_x": {
    "Points": [
     {
      "co": {
       "X": 1.0,
       "Y": 1.0
      },
      "handle_left": {
       "X": 0.5,
       "Y": 1.0
      },
      "handle_right": {
       "X": 0.5,
       "Y": 0.0
      },
      "handle_type": 0,
      "interpolation": 0
     }
    ]
   },
   "scale_y": {
    "Points": [
     {
      "co": {
       "X": 1.0,
       "Y": 1.0
      },
      "handle_left": {
       "X": 0.5,
       "Y": 1.0
      },
      "handle_right": {
       "X": 0.5,
       "Y": 0.0
      },
      "handle_type": 0,
      "interpolation": 0
     }
    ]
   },
   "shear_x": {
    "Points": [
     {
      "co": {
       "X": 1.0,
       "Y": 0.0
      },
      "handle_left": {
       "X": 0.5,
       "Y": 1.0
      },
      "handle_right": {
       "X": 0.5,
       "Y": 0.0
      },
      "handle_type": 0,
      "interpolation": 0
     }
    ]
   },
   "shear_y": {
    "Points": [
     {
      "co": {
       "X": 1.0,
       "Y": 0.0
      },
      "handle_left": {
       "X": 0.5,
       "Y": 1.0
      },
      "handle_right": {
       "X": 0.5,
       "Y": 0.0
      },
      "handle_type": 0,
      "interpolation": 0
     }
    ]
   },
   "start": 0,
   "time": {
    "Points": [
     {
      "co": {
       "X": 1.0,
       "Y": 1.0
      },
      "handle_left": {
       "X": 0.5,
       "Y": 1.0
      },
      "handle_right": {
       "X": 0.5,
       "Y": 0.0
      },
      "handle_type": 0,
      "interpolation": 0
     }
    ]
   },
   "volume": {
    "Points": [
     {
      "co": {
       "X": 1.0,
       "Y": 1.0
      },
      "handle_left": {
       "X": 0.5,
       "Y": 1.0
      },
      "handle_right": {
       "X": 0.5,
       "Y": 0.0
      },
      "handle_type": 0,
      "interpolation": 0
     }
    ]
   },
   "wave_color": {
    "alpha": {
     "Points": [
      {
       "co": {
        "X": 1.0,
        "Y": 255.0
       },
       "handle_left": {
        "X": 0.5,
        "Y": 1.0
       },
       "handle_right": {
        "X": 0.5,
        "Y": 0.0
       },
       "handle_type": 0,
       "interpolation": 0
      }
     ]
    },
    "blue": {
     "Points": [
      {
       "co": {
        "X": 1.0,
        "Y": 255.0
       },
       "handle_left": {
        "X": 0.5,
        "Y": 1.0
       },
       "handle_right": {
        "X": 0.5,
        "Y": 0.0
       },
       "handle_type": 0,
       "interpolation": 0
      }
     ]
    },
    "green": {
     "Points": [
      {
       "co": {
        "X": 1.0,
        "Y": 123.0
       },
       "handle_left": {
        "X": 0.5,
        "Y": 1.0
       },
       "handle_right": {
        "X": 0.5,
        "Y": 0.0
       },
       "handle_type": 0,
       "interpolation": 0
      }
     ]
    },
    "red": {
     "Points": [
      {
       "co": {
        "X": 1.0,
        "Y": 0.0
       },
       "handle_left": {
        "X": 0.5,
        "Y": 1.0
       },
       "handle_right": {
        "X": 0.5,
        "Y": 0.0
       },
       "handle_type": 0,
       "interpolation": 0
      }
     ]
    }
   },
   "waveform": false,
   "file_id": "RJ03CCT5K6",
   "title": "Frame-02231.png",
   "image": "Tutorial_assets/thumbnail/RJ03CCT5K6.png"
  },
  {
   "alpha": {
    "Points": [
     {
      "co": {
       "X": 1.0,
       "Y": 1.0
      },
      "handle_left": {
       "X": 0.5,
       "Y": 1.0
      },
      "handle_right": {
       "X": 0.5,
       "Y": 0.0
      },
      "handle_type": 0,
      "interpolation": 0
     }
    ]
   },
   "anchor": 0,
   "channel_filter": {
    "Points": [
     {
      "co": {
       "X": 1.0,
       "Y": -1.0
      },
      "handle_left": {
       "X": 0.5,
       "Y": 1.0
      },
      "handle_right": {
       "X": 0.5,
       "Y": 0.0
      },
      "handle_type": 0,
      "interpolation": 0
     }
    ]
   },
   "channel_mapping": {
    "Points": [
     {
      "co": {
       "X": 1.0,
       "Y": -1.0
      },
      "handle_left": {
       "X": 0.5,
       "Y": 1.0
      },
      "handle_right": {
       "X": 0.5,
       "Y": 0.0
      },
      "handle_type": 0,
      "interpolation": 0
     }
    ]
   },
   "display": 0,
   "duration": 3600.0,
   "effects": [],
   "end": 5.166666666666652,
   "gravity": 4,
   "has_audio": {
    "Points": [
     {
      "co": {
       "X": 1.0,
       "Y": -1.0
      },
      "handle_left": {
       "X": 0.5,
       "Y": 1.0
      },
      "handle_right": {
       "X": 0.5,
       "Y": 0.0
      },
      "handle_type": 0,
      "interpolation": 0
     }
    ]
   },
   "has_video": {
    "Points": [
     {
      "co": {
       "X": 1.0,
       "Y": -1.0
      },
      "handle_left": {
       "X": 0.5,
       "Y": 1.0
      },
      "handle_right": {
       "X": 0.5,
       "Y": 0.0
      },
      "handle_type": 0,
      "interpolation": 0
     }
    ]
   },
   "layer": 2000000,
   "location_x": {
    "Points": [
     {
      "co": {
       "X": 1,
       "Y": -0.43100517130182386
      },
      "handle_left": {
       "X": 0.5,
       "Y": 1.0
      },
      "handle_right": {
       "X": 0.5,
       "Y": 0.0
      },
      "handle_type": 0,
      "interpolation": 0
     }
    ]
   },
   "location_y": {
    "Points": [
     {
      "co": {
       "X": 1,
       "Y": 0.39848482608795166
      },
      "handle_left": {
       "X": 0.5,
       "Y": 1.0
      },
      "handle_right": {
       "X": 0.5,
       "Y": 0.0
      },
      "handle_type": 0,
      "interpolation": 0
     }
    ]
   },
   "mixing": 0,
   "origin_x": {
    "Points": [
     {
      "co": {
       "X": 1.0,
       "Y": 0.5
      },
      "handle_left": {
       "X": 0.5,
       "Y": 1.0
      },
      "handle_right": {
       "X": 0.5,
       "Y": 0.0
      },
      "handle_type": 0,
      "interpolation": 0
     }
    ]
   },
   "origin_y": {
    "Points": [
     {
      "co": {
       "X": 1.0,
       "Y": 0.5
      },
      "handle_left": {
       "X": 0.5,
       "Y": 1.0
      },
      "handle_right": {
       "X": 0.5,
       "Y": 0.0
      },
      "handle_type": 0,
      "interpolation": 0
     }
    ]
   },
   "parentObjectId": "",
   "perspective_c1_x": {
    "Points": [
     {
      "co": {
       "X": 1.0,
       "Y": -1.0
      },
      "handle_left": {
       "X": 0.5,
       "Y": 1.0
      },
      "handle_right": {
       "X": 0.5,
       "Y": 0.0
      },
      "handle_type": 0,
      "interpolation": 0
     }
    ]
   },
   "perspective_c1_y": {
    "Points": [
     {
      "co": {
       "X": 1.0,
       "Y": -1.0
      },
      "handle_left": {
       "X": 0.5,
       "Y": 1.0
      },
      "handle_right": {
       "X": 0.5,
       "Y": 0.0
      },
      "handle_type": 0,
      "interpolation": 0
     }
    ]
   },
   "perspective_c2_x": {
    "Points": [
     {
      "co": {
       "X": 1.0,
       "Y": -1.0
      },
      "handle_left": {
       "X": 0.5,
       "Y": 1.0
      },
      "handle_right": {
       "X": 0.5,
       "Y": 0.0
      },
      "handle_type": 0,
      "interpolation": 0
     }
    ]
   },
   "perspective_c2_y": {
    "Points": [
     {
      "co": {
       "X": 1.0,
       "Y": -1.0
      },
      "handle_left": {
       "X": 0.5,
       "Y": 1.0
      },
      "handle_right": {
       "X": 0.5,
       "Y": 0.0
      },
      "handle_type": 0,
      "interpolation": 0
     }
    ]
   },
   "perspective_c3_x": {
    "Points": [
     {
      "co": {
       "X": 1.0,
       "Y": -1.0
      },
      "handle_left": {
       "X": 0.5,
       "Y": 1.0
      },
      "handle_right": {
       "X": 0.5,
       "Y": 0.0
      },
      "handle_type": 0,
      "interpolation": 0
     }
    ]
   },
   "perspective_c3_y": {
    "Points": [
     {
      "co": {
       "X": 1.0,
       "Y": -1.0
      },
      "handle_left": {
       "X": 0.5,
       "Y": 1.0
      },
      "handle_right": {
       "X": 0.5,
       "Y": 0.0
      },
      "handle_type": 0,
      "interpolation": 0
     }
    ]
   },
   "perspective_c4_x": {
    "Points": [
     {
      "co": {
       "X": 1.0,
       "Y": -1.0
      },
      "handle_left": {
       "X": 0.5,
       "Y": 1.0
      },
      "handle_right": {
       "X": 0.5,
       "Y": 0.0
      },
      "handle_type": 0,
      "interpolation": 0
     }
    ]
   },
   "perspective_c4_y": {
    "Points": [
     {
      "co": {
       "X": 1.0,
       "Y": -1.0
      },
      "handle_left": {
       "X": 0.5,
       "Y": 1.0
      },
      "handle_right": {
       "X": 0.5,
       "Y": 0.0
      },
      "handle_type": 0,
      "interpolation": 0
     }
    ]
   },
   "position": 74.4,
   "reader": {
    "acodec": "",
    "audio_bit_rate": 0,
    "audio_stream_index": -1,
    "audio_timebase": {
     "den": 1,
     "num": 1
    },
    "channel_layout": 4,
    "channels": 0,
    "display_ratio": {
     "den": 376,
     "num": 311
    },
    "duration": 3600.0,
    "file_size": "1870976",
    "fps": {
     "den": 1,
     "num": 30
    },
    "has_audio": false,
    "has_single_image": true,
    "has_video": true,
    "height": 752,
    "interlaced_frame": false,
    "metadata": {},
    "path": "./pause.png",
    "pixel_format": -1,
    "pixel_ratio": {
     "den": 1,
     "num": 1
    },
    "sample_rate": 0,
    "top_field_first": true,
    "type": "QtImageReader",
    "vcodec": "",
    "video_bit_rate": 0,
    "video_length": "108000",
    "video_stream_index": -1,
    "video_timebase": {
     "den": 30,
     "num": 1
    },
    "width": 622,
    "media_type": "image",
    "id": "FC81BKO2ES"
   },
   "rotation": {
    "Points": [
     {
      "co": {
       "X": 1.0,
       "Y": 0.0
      },
      "handle_left": {
       "X": 0.5,
       "Y": 1.0
      },
      "handle_right": {
       "X": 0.5,
       "Y": 0.0
      },
      "handle_type": 0,
      "interpolation": 0
     }
    ]
   },
   "scale": 1,
   "scale_x": {
    "Points": [
     {
      "co": {
       "X": 1,
       "Y": 0.12999999523162842
      },
      "handle_left": {
       "X": 0.5,
       "Y": 1.0
      },
      "handle_right": {
       "X": 0.5,
       "Y": 0.0
      },
      "handle_type": 0,
      "interpolation": 0
     }
    ]
   },
   "scale_y": {
    "Points": [
     {
      "co": {
       "X": 1,
       "Y": 0.125660191386035
      },
      "handle_left": {
       "X": 0.5,
       "Y": 1.0
      },
      "handle_right": {
       "X": 0.5,
       "Y": 0.0
      },
      "handle_type": 0,
      "interpolation": 0
     }
    ]
   },
   "shear_x": {
    "Points": [
     {
      "co": {
       "X": 1.0,
       "Y": 0.0
      },
      "handle_left": {
       "X": 0.5,
       "Y": 1.0
      },
      "handle_right": {
       "X": 0.5,
       "Y": 0.0
      },
      "handle_type": 0,
      "interpolation": 0
     }
    ]
   },
   "shear_y": {
    "Points": [
     {
      "co": {
       "X": 1.0,
       "Y": 0.0
      },
      "handle_left": {
       "X": 0.5,
       "Y": 1.0
      },
      "handle_right": {
       "X": 0.5,
       "Y": 0.0
      },
      "handle_type": 0,
      "interpolation": 0
     }
    ]
   },
   "start": 0,
   "time": {
    "Points": [
     {
      "co": {
       "X": 1.0,
       "Y": 1.0
      },
      "handle_left": {
       "X": 0.5,
       "Y": 1.0
      },
      "handle_right": {
       "X": 0.5,
       "Y": 0.0
      },
      "handle_type": 0,
      "interpolation": 0
     }
    ]
   },
   "volume": {
    "Points": [
     {
      "co": {
       "X": 1.0,
       "Y": 1.0
      },
      "handle_left": {
       "X": 0.5,
       "Y": 1.0
      },
      "handle_right": {
       "X": 0.5,
       "Y": 0.0
      },
      "handle_type": 0,
      "interpolation": 0
     }
    ]
   },
   "wave_color": {
    "alpha": {
     "Points": [
      {
       "co": {
        "X": 1.0,
        "Y": 255.0
       },
       "handle_left": {
        "X": 0.5,
        "Y": 1.0
       },
       "handle_right": {
        "X": 0.5,
        "Y": 0.0
       },
       "handle_type": 0,
       "interpolation": 0
      }
     ]
    },
    "blue": {
     "Points": [
      {
       "co": {
        "X": 1.0,
        "Y": 255.0
       },
       "handle_left": {
        "X": 0.5,
        "Y": 1.0
       },
       "handle_right": {
        "X": 0.5,
        "Y": 0.0
       },
       "handle_type": 0,
       "interpolation": 0
      }
     ]
    },
    "green": {
     "Points": [
      {
       "co": {
        "X": 1.0,
        "Y": 123.0
       },
       "handle_left": {
        "X": 0.5,
        "Y": 1.0
       },
       "handle_right": {
        "X": 0.5,
        "Y": 0.0
       },
       "handle_type": 0,
       "interpolation": 0
      }
     ]
    },
    "red": {
     "Points": [
      {
       "co": {
        "X": 1.0,
        "Y": 0.0
       },
       "handle_left": {
        "X": 0.5,
        "Y": 1.0
       },
       "handle_right": {
        "X": 0.5,
        "Y": 0.0
       },
       "handle_type": 0,
       "interpolation": 0
      }
     ]
    }
   },
   "waveform": false,
   "file_id": "FC81BKO2ES",
   "title": "pause.png",
   "image": "Tutorial_assets/thumbnail/FC81BKO2ES.png",
   "id": "NKOG5130C9"
  },
  {
   "alpha": {
    "Points": [
     {
      "co": {
       "X": 1.0,
       "Y": 1.0
      },
      "handle_left": {
       "X": 0.5,
       "Y": 1.0
      },
      "handle_right": {
       "X": 0.5,
       "Y": 0.0
      },
      "handle_type": 0,
      "interpolation": 0
     }
    ]
   },
   "anchor": 0,
   "channel_filter": {
    "Points": [
     {
      "co": {
       "X": 1.0,
       "Y": -1.0
      },
      "handle_left": {
       "X": 0.5,
       "Y": 1.0
      },
      "handle_right": {
       "X": 0.5,
       "Y": 0.0
      },
      "handle_type": 0,
      "interpolation": 0
     }
    ]
   },
   "channel_mapping": {
    "Points": [
     {
      "co": {
       "X": 1.0,
       "Y": -1.0
      },
      "handle_left": {
       "X": 0.5,
       "Y": 1.0
      },
      "handle_right": {
       "X": 0.5,
       "Y": 0.0
      },
      "handle_type": 0,
      "interpolation": 0
     }
    ]
   },
   "display": 0,
   "duration": 86.86666870117188,
   "effects": [],
   "end": 34.013333333333335,
   "gravity": 4,
   "has_audio": {
    "Points": [
     {
      "co": {
       "X": 1.0,
       "Y": -1.0
      },
      "handle_left": {
       "X": 0.5,
       "Y": 1.0
      },
      "handle_right": {
       "X": 0.5,
       "Y": 0.0
      },
      "handle_type": 0,
      "interpolation": 0
     }
    ]
   },
   "has_video": {
    "Points": [
     {
      "co": {
       "X": 1.0,
       "Y": -1.0
      },
      "handle_left": {
       "X": 0.5,
       "Y": 1.0
      },
      "handle_right": {
       "X": 0.5,
       "Y": 0.0
      },
      "handle_type": 0,
      "interpolation": 0
     }
    ]
   },
   "id": "6BSPXZNRXY",
   "layer": 1000000,
   "location_x": {
    "Points": [
     {
      "co": {
       "X": 1.0,
       "Y": 0.0
      },
      "handle_left": {
       "X": 0.5,
       "Y": 1.0
      },
      "handle_right": {
       "X": 0.5,
       "Y": 0.0
      },
      "handle_type": 0,
      "interpolation": 0
     }
    ]
   },
   "location_y": {
    "Points": [
     {
      "co": {
       "X": 1.0,
       "Y": 0.0
      },
      "handle_left": {
       "X": 0.5,
       "Y": 1.0
      },
      "handle_right": {
       "X": 0.5,
       "Y": 0.0
      },
      "handle_type": 0,
      "interpolation": 0
     }
    ]
   },
   "mixing": 0,
   "origin_x": {
    "Points": [
     {
      "co": {
       "X": 1.0,
       "Y": 0.5
      },
      "handle_left": {
       "X": 0.5,
       "Y": 1.0
      },
      "handle_right": {
       "X": 0.5,
       "Y": 0.0
      },
      "handle_type": 0,
      "interpolation": 0
     }
    ]
   },
   "origin_y": {
    "Points": [
     {
      "co": {
       "X": 1.0,
       "Y": 0.5
      },
      "handle_left": {
       "X": 0.5,
       "Y": 1.0
      },
      "handle_right": {
       "X": 0.5,
       "Y": 0.0
      },
      "handle_type": 0,
      "interpolation": 0
     }
    ]
   },
   "parentObjectId": "",
   "perspective_c1_x": {
    "Points": [
     {
      "co": {
       "X": 1.0,
       "Y": -1.0
      },
      "handle_left": {
       "X": 0.5,
       "Y": 1.0
      },
      "handle_right": {
       "X": 0.5,
       "Y": 0.0
      },
      "handle_type": 0,
      "interpolation": 0
     }
    ]
   },
   "perspective_c1_y": {
    "Points": [
     {
      "co": {
       "X": 1.0,
       "Y": -1.0
      },
      "handle_left": {
       "X": 0.5,
       "Y": 1.0
      },
      "handle_right": {
       "X": 0.5,
       "Y": 0.0
      },
      "handle_type": 0,
      "interpolation": 0
     }
    ]
   },
   "perspective_c2_x": {
    "Points": [
     {
      "co": {
       "X": 1.0,
       "Y": -1.0
      },
      "handle_left": {
       "X": 0.5,
       "Y": 1.0
      },
      "handle_right": {
       "X": 0.5,
       "Y": 0.0
      },
      "handle_type": 0,
      "interpolation": 0
     }
    ]
   },
   "perspective_c2_y": {
    "Points": [
     {
      "co": {
       "X": 1.0,
       "Y": -1.0
      },
      "handle_left": {
       "X": 0.5,
       "Y": 1.0
      },
      "handle_right": {
       "X": 0.5,
       "Y": 0.0
      },
      "handle_type": 0,
      "interpolation": 0
     }
    ]
   },
   "perspective_c3_x": {
    "Points": [
     {
      "co": {
       "X": 1.0,
       "Y": -1.0
      },
      "handle_left": {
       "X": 0.5,
       "Y": 1.0
      },
      "handle_right": {
       "X": 0.5,
       "Y": 0.0
      },
      "handle_type": 0,
      "interpolation": 0
     }
    ]
   },
   "perspective_c3_y": {
    "Points": [
     {
      "co": {
       "X": 1.0,
       "Y": -1.0
      },
      "handle_left": {
       "X": 0.5,
       "Y": 1.0
      },
      "handle_right": {
       "X": 0.5,
       "Y": 0.0
      },
      "handle_type": 0,
      "interpolation": 0
     }
    ]
   },
   "perspective_c4_x": {
    "Points": [
     {
      "co": {
       "X": 1.0,
       "Y": -1.0
      },
      "handle_left": {
       "X": 0.5,
       "Y": 1.0
      },
      "handle_right": {
       "X": 0.5,
       "Y": 0.0
      },
      "handle_type": 0,
      "interpolation": 0
     }
    ]
   },
   "perspective_c4_y": {
    "Points": [
     {
      "co": {
       "X": 1.0,
       "Y": -1.0
      },
      "handle_left": {
       "X": 0.5,
       "Y": 1.0
      },
      "handle_right": {
       "X": 0.5,
       "Y": 0.0
      },
      "handle_type": 0,
      "interpolation": 0
     }
    ]
   },
   "position": 52.13333333333333,
   "reader": {
    "acodec": "",
    "audio_bit_rate": 0,
    "audio_stream_index": -1,
    "audio_timebase": {
     "den": 1,
     "num": 1
    },
    "channel_layout": 4,
    "channels": 0,
    "display_ratio": {
     "den": 9,
     "num": 16
    },
    "duration": 86.86666870117188,
    "file_size": "101829535",
    "fps": {
     "den": 1,
     "num": 30
    },
    "has_audio": false,
    "has_single_image": false,
    "has_video": true,
    "height": 1080,
    "interlaced_frame": false,
    "metadata": {
     "comment": "Create videos with https://clipchamp.com/en/video-editor - free online video editor, video compressor, video converter.",
     "compatible_brands": "isomiso2avc1mp41",
     "encoder": "https://clipchamp.com",
     "handler_name": "VideoHandler",
     "language": "und",
     "major_brand": "isom",
     "minor_version": "512"
    },
    "path": "./movie_003_001.mp4",
    "pixel_format": 0,
    "pixel_ratio": {
     "den": 1,
     "num": 1
    },
    "sample_rate": 0,
    "top_field_first": true,
    "type": "FFmpegReader",
    "vcodec": "h264",
    "video_bit_rate": 1172246,
    "video_length": "2606",
    "video_stream_index": 0,
    "video_timebase": {
     "den": 15360,
     "num": 1
    },
    "width": 1920,
    "media_type": "video",
    "id": "OA9LAYW3S1"
   },
   "rotation": {
    "Points": [
     {
      "co": {
       "X": 1.0,
       "Y": 0.0
      },
      "handle_left": {
       "X": 0.5,
       "Y": 1.0
      },
      "handle_right": {
       "X": 0.5,
       "Y": 0.0
      },
      "handle_type": 0,
      "interpolation": 0
     }
    ]
   },
   "scale": 1,
   "scale_x": {
    "Points": [
     {
      "co": {
       "X": 1.0,
       "Y": 1.0
      },
      "handle_left": {
       "X": 0.5,
       "Y": 1.0
      },
      "handle_right": {
       "X": 0.5,
       "Y": 0.0
      },
      "handle_type": 0,
      "interpolation": 0
     }
    ]
   },
   "scale_y": {
    "Points": [
     {
      "co": {
       "X": 1.0,
       "Y": 1.0
      },
      "handle_left": {
       "X": 0.5,
       "Y": 1.0
      },
      "handle_right": {
       "X": 0.5,
       "Y": 0.0
      },
      "handle_type": 0,
      "interpolation": 0
     }
    ]
   },
   "shear_x": {
    "Points": [
     {
      "co": {
       "X": 1.0,
       "Y": 0.0
      },
      "handle_left": {
       "X": 0.5,
       "Y": 1.0
      },
      "handle_right": {
       "X": 0.5,
       "Y": 0.0
      },
      "handle_type": 0,
      "interpolation": 0
     }
    ]
   },
   "shear_y": {
    "Points": [
     {
      "co": {
       "X": 1.0,
       "Y": 0.0
      },
      "handle_left": {
       "X": 0.5,
       "Y": 1.0
      },
      "handle_right": {
       "X": 0.5,
       "Y": 0.0
      },
      "handle_type": 0,
      "interpolation": 0
     }
    ]
   },
   "start": 17.11333333333333,
   "time": {
    "Points": [
     {
      "co": {
       "X": 1.0,
       "Y": 1.0
      },
      "handle_left": {
       "X": 0.5,
       "Y": 1.0
      },
      "handle_right": {
       "X": 0.5,
       "Y": 0.0
      },
      "handle_type": 0,
      "interpolation": 0
     }
    ]
   },
   "volume": {
    "Points": [
     {
      "co": {
       "X": 1.0,
       "Y": 1.0
      },
      "handle_left": {
       "X": 0.5,
       "Y": 1.0
      },
      "handle_right": {
       "X": 0.5,
       "Y": 0.0
      },
      "handle_type": 0,
      "interpolation": 0
     }
    ]
   },
   "wave_color": {
    "alpha": {
     "Points": [
      {
       "co": {
        "X": 1.0,
        "Y": 255.0
       },
       "handle_left": {
        "X": 0.5,
        "Y": 1.0
       },
       "handle_right": {
        "X": 0.5,
        "Y": 0.0
       },
       "handle_type": 0,
       "interpolation": 0
      }
     ]
    },
    "blue": {
     "Points": [
      {
       "co": {
        "X": 1.0,
        "Y": 255.0
       },
       "handle_left": {
        "X": 0.5,
        "Y": 1.0
       },
       "handle_right": {
        "X": 0.5,
        "Y": 0.0
       },
       "handle_type": 0,
       "interpolation": 0
      }
     ]
    },
    "green": {
     "Points": [
      {
       "co": {
        "X": 1.0,
        "Y": 123.0
       },
       "handle_left": {
        "X": 0.5,
        "Y": 1.0
       },
       "handle_right": {
        "X": 0.5,
        "Y": 0.0
       },
       "handle_type": 0,
       "interpolation": 0
      }
     ]
    },
    "red": {
     "Points": [
      {
       "co": {
        "X": 1.0,
        "Y": 0.0
       },
       "handle_left": {
        "X": 0.5,
        "Y": 1.0
       },
       "handle_right": {
        "X": 0.5,
        "Y": 0.0
       },
       "handle_type": 0,
       "interpolation": 0
      }
     ]
    }
   },
   "waveform": false,
   "file_id": "OA9LAYW3S1",
   "title": "movie_003_001.mp4",
   "image": "Tutorial_assets/thumbnail/OA9LAYW3S1.png"
  },
  {
   "alpha": {
    "Points": [
     {
      "co": {
       "X": 1.0,
       "Y": 1.0
      },
      "handle_left": {
       "X": 0.5,
       "Y": 1.0
      },
      "handle_right": {
       "X": 0.5,
       "Y": 0.0
      },
      "handle_type": 0,
      "interpolation": 0
     }
    ]
   },
   "anchor": 0,
   "channel_filter": {
    "Points": [
     {
      "co": {
       "X": 1.0,
       "Y": -1.0
      },
      "handle_left": {
       "X": 0.5,
       "Y": 1.0
      },
      "handle_right": {
       "X": 0.5,
       "Y": 0.0
      },
      "handle_type": 0,
      "interpolation": 0
     }
    ]
   },
   "channel_mapping": {
    "Points": [
     {
      "co": {
       "X": 1.0,
       "Y": -1.0
      },
      "handle_left": {
       "X": 0.5,
       "Y": 1.0
      },
      "handle_right": {
       "X": 0.5,
       "Y": 0.0
      },
      "handle_type": 0,
      "interpolation": 0
     }
    ]
   },
   "display": 0,
   "duration": 86.86666870117188,
   "effects": [],
   "end": 35.133333333333304,
   "gravity": 4,
   "has_audio": {
    "Points": [
     {
      "co": {
       "X": 1.0,
       "Y": -1.0
      },
      "handle_left": {
       "X": 0.5,
       "Y": 1.0
      },
      "handle_right": {
       "X": 0.5,
       "Y": 0.0
      },
      "handle_type": 0,
      "interpolation": 0
     }
    ]
   },
   "has_video": {
    "Points": [
     {
      "co": {
       "X": 1.0,
       "Y": -1.0
      },
      "handle_left": {
       "X": 0.5,
       "Y": 1.0
      },
      "handle_right": {
       "X": 0.5,
       "Y": 0.0
      },
      "handle_type": 0,
      "interpolation": 0
     }
    ]
   },
   "layer": 1000000,
   "location_x": {
    "Points": [
     {
      "co": {
       "X": 1.0,
       "Y": 0.0
      },
      "handle_left": {
       "X": 0.5,
       "Y": 1.0
      },
      "handle_right": {
       "X": 0.5,
       "Y": 0.0
      },
      "handle_type": 0,
      "interpolation": 0
     }
    ]
   },
   "location_y": {
    "Points": [
     {
      "co": {
       "X": 1.0,
       "Y": 0.0
      },
      "handle_left": {
       "X": 0.5,
       "Y": 1.0
      },
      "handle_right": {
       "X": 0.5,
       "Y": 0.0
      },
      "handle_type": 0,
      "interpolation": 0
     }
    ]
   },
   "mixing": 0,
   "origin_x": {
    "Points": [
     {
      "co": {
       "X": 1.0,
       "Y": 0.5
      },
      "handle_left": {
       "X": 0.5,
       "Y": 1.0
      },
      "handle_right": {
       "X": 0.5,
       "Y": 0.0
      },
      "handle_type": 0,
      "interpolation": 0
     }
    ]
   },
   "origin_y": {
    "Points": [
     {
      "co": {
       "X": 1.0,
       "Y": 0.5
      },
      "handle_left": {
       "X": 0.5,
       "Y": 1.0
      },
      "handle_right": {
       "X": 0.5,
       "Y": 0.0
      },
      "handle_type": 0,
      "interpolation": 0
     }
    ]
   },
   "parentObjectId": "",
   "perspective_c1_x": {
    "Points": [
     {
      "co": {
       "X": 1.0,
       "Y": -1.0
      },
      "handle_left": {
       "X": 0.5,
       "Y": 1.0
      },
      "handle_right": {
       "X": 0.5,
       "Y": 0.0
      },
      "handle_type": 0,
      "interpolation": 0
     }
    ]
   },
   "perspective_c1_y": {
    "Points": [
     {
      "co": {
       "X": 1.0,
       "Y": -1.0
      },
      "handle_left": {
       "X": 0.5,
       "Y": 1.0
      },
      "handle_right": {
       "X": 0.5,
       "Y": 0.0
      },
      "handle_type": 0,
      "interpolation": 0
     }
    ]
   },
   "perspective_c2_x": {
    "Points": [
     {
      "co": {
       "X": 1.0,
       "Y": -1.0
      },
      "handle_left": {
       "X": 0.5,
       "Y": 1.0
      },
      "handle_right": {
       "X": 0.5,
       "Y": 0.0
      },
      "handle_type": 0,
      "interpolation": 0
     }
    ]
   },
   "perspective_c2_y": {
    "Points": [
     {
      "co": {
       "X": 1.0,
       "Y": -1.0
      },
      "handle_left": {
       "X": 0.5,
       "Y": 1.0
      },
      "handle_right": {
       "X": 0.5,
       "Y": 0.0
      },
      "handle_type": 0,
      "interpolation": 0
     }
    ]
   },
   "perspective_c3_x": {
    "Points": [
     {
      "co": {
       "X": 1.0,
       "Y": -1.0
      },
      "handle_left": {
       "X": 0.5,
       "Y": 1.0
      },
      "handle_right": {
       "X": 0.5,
       "Y": 0.0
      },
      "handle_type": 0,
      "interpolation": 0
     }
    ]
   },
   "perspective_c3_y": {
    "Points": [
     {
      "co": {
       "X": 1.0,
       "Y": -1.0
      },
      "handle_left": {
       "X": 0.5,
       "Y": 1.0
      },
      "handle_right": {
       "X": 0.5,
       "Y": 0.0
      },
      "handle_type": 0,
      "interpolation": 0
     }
    ]
   },
   "perspective_c4_x": {
    "Points": [
     {
      "co": {
       "X": 1.0,
       "Y": -1.0
      },
      "handle_left": {
       "X": 0.5,
       "Y": 1.0
      },
      "handle_right": {
       "X": 0.5,
       "Y": 0.0
      },
      "handle_type": 0,
      "interpolation": 0
     }
    ]
   },
   "perspective_c4_y": {
    "Points": [
     {
      "co": {
       "X": 1.0,
       "Y": -1.0
      },
      "handle_left": {
       "X": 0.5,
       "Y": 1.0
      },
      "handle_right": {
       "X": 0.5,
       "Y": 0.0
      },
      "handle_type": 0,
      "interpolation": 0
     }
    ]
   },
   "position": 70.92499999999997,
   "reader": {
    "acodec": "",
    "audio_bit_rate": 0,
    "audio_stream_index": -1,
    "audio_timebase": {
     "den": 1,
     "num": 1
    },
    "channel_layout": 4,
    "channels": 0,
    "display_ratio": {
     "den": 9,
     "num": 16
    },
    "duration": 86.86666870117188,
    "file_size": "101829535",
    "fps": {
     "den": 1,
     "num": 30
    },
    "has_audio": false,
    "has_single_image": false,
    "has_video": true,
    "height": 1080,
    "interlaced_frame": false,
    "metadata": {
     "comment": "Create videos with https://clipchamp.com/en/video-editor - free online video editor, video compressor, video converter.",
     "compatible_brands": "isomiso2avc1mp41",
     "encoder": "https://clipchamp.com",
     "handler_name": "VideoHandler",
     "language": "und",
     "major_brand": "isom",
     "minor_version": "512"
    },
    "path": "./movie_003_001.mp4",
    "pixel_format": 0,
    "pixel_ratio": {
     "den": 1,
     "num": 1
    },
    "sample_rate": 0,
    "top_field_first": true,
    "type": "FFmpegReader",
    "vcodec": "h264",
    "video_bit_rate": 1172246,
    "video_length": "2606",
    "video_stream_index": 0,
    "video_timebase": {
     "den": 15360,
     "num": 1
    },
    "width": 1920,
    "media_type": "video",
    "id": "OA9LAYW3S1"
   },
   "rotation": {
    "Points": [
     {
      "co": {
       "X": 1.0,
       "Y": 0.0
      },
      "handle_left": {
       "X": 0.5,
       "Y": 1.0
      },
      "handle_right": {
       "X": 0.5,
       "Y": 0.0
      },
      "handle_type": 0,
      "interpolation": 0
     }
    ]
   },
   "scale": 1,
   "scale_x": {
    "Points": [
     {
      "co": {
       "X": 1.0,
       "Y": 1.0
      },
      "handle_left": {
       "X": 0.5,
       "Y": 1.0
      },
      "handle_right": {
       "X": 0.5,
       "Y": 0.0
      },
      "handle_type": 0,
      "interpolation": 0
     }
    ]
   },
   "scale_y": {
    "Points": [
     {
      "co": {
       "X": 1.0,
       "Y": 1.0
      },
      "handle_left": {
       "X": 0.5,
       "Y": 1.0
      },
      "handle_right": {
       "X": 0.5,
       "Y": 0.0
      },
      "handle_type": 0,
      "interpolation": 0
     }
    ]
   },
   "shear_x": {
    "Points": [
     {
      "co": {
       "X": 1.0,
       "Y": 0.0
      },
      "handle_left": {
       "X": 0.5,
       "Y": 1.0
      },
      "handle_right": {
       "X": 0.5,
       "Y": 0.0
      },
      "handle_type": 0,
      "interpolation": 0
     }
    ]
   },
   "shear_y": {
    "Points": [
     {
      "co": {
       "X": 1.0,
       "Y": 0.0
      },
      "handle_left": {
       "X": 0.5,
       "Y": 1.0
      },
      "handle_right": {
       "X": 0.5,
       "Y": 0.0
      },
      "handle_type": 0,
      "interpolation": 0
     }
    ]
   },
   "start": 34.02499999999997,
   "time": {
    "Points": [
     {
      "co": {
       "X": 1.0,
       "Y": 1.0
      },
      "handle_left": {
       "X": 0.5,
       "Y": 1.0
      },
      "handle_right": {
       "X": 0.5,
       "Y": 0.0
      },
      "handle_type": 0,
      "interpolation": 0
     }
    ]
   },
   "volume": {
    "Points": [
     {
      "co": {
       "X": 1.0,
       "Y": 1.0
      },
      "handle_left": {
       "X": 0.5,
       "Y": 1.0
      },
      "handle_right": {
       "X": 0.5,
       "Y": 0.0
      },
      "handle_type": 0,
      "interpolation": 0
     }
    ]
   },
   "wave_color": {
    "alpha": {
     "Points": [
      {
       "co": {
        "X": 1.0,
        "Y": 255.0
       },
       "handle_left": {
        "X": 0.5,
        "Y": 1.0
       },
       "handle_right": {
        "X": 0.5,
        "Y": 0.0
       },
       "handle_type": 0,
       "interpolation": 0
      }
     ]
    },
    "blue": {
     "Points": [
      {
       "co": {
        "X": 1.0,
        "Y": 255.0
       },
       "handle_left": {
        "X": 0.5,
        "Y": 1.0
       },
       "handle_right": {
        "X": 0.5,
        "Y": 0.0
       },
       "handle_type": 0,
       "interpolation": 0
      }
     ]
    },
    "green": {
     "Points": [
      {
       "co": {
        "X": 1.0,
        "Y": 123.0
       },
       "handle_left": {
        "X": 0.5,
        "Y": 1.0
       },
       "handle_right": {
        "X": 0.5,
        "Y": 0.0
       },
       "handle_type": 0,
       "interpolation": 0
      }
     ]
    },
    "red": {
     "Points": [
      {
       "co": {
        "X": 1.0,
        "Y": 0.0
       },
       "handle_left": {
        "X": 0.5,
        "Y": 1.0
       },
       "handle_right": {
        "X": 0.5,
        "Y": 0.0
       },
       "handle_type": 0,
       "interpolation": 0
      }
     ]
    }
   },
   "waveform": false,
   "file_id": "OA9LAYW3S1",
   "title": "movie_003_001.mp4",
   "id": "2UFHBIUEJM",
   "image": "Tutorial_assets/thumbnail/OA9LAYW3S1.png"
  },
  {
   "alpha": {
    "Points": [
     {
      "co": {
       "X": 1.0,
       "Y": 1.0
      },
      "handle_left": {
       "X": 0.5,
       "Y": 1.0
      },
      "handle_right": {
       "X": 0.5,
       "Y": 0.0
      },
      "handle_type": 0,
      "interpolation": 0
     }
    ]
   },
   "anchor": 0,
   "channel_filter": {
    "Points": [
     {
      "co": {
       "X": 1.0,
       "Y": -1.0
      },
      "handle_left": {
       "X": 0.5,
       "Y": 1.0
      },
      "handle_right": {
       "X": 0.5,
       "Y": 0.0
      },
      "handle_type": 0,
      "interpolation": 0
     }
    ]
   },
   "channel_mapping": {
    "Points": [
     {
      "co": {
       "X": 1.0,
       "Y": -1.0
      },
      "handle_left": {
       "X": 0.5,
       "Y": 1.0
      },
      "handle_right": {
       "X": 0.5,
       "Y": 0.0
      },
      "handle_type": 0,
      "interpolation": 0
     }
    ]
   },
   "display": 0,
   "duration": 86.86666870117188,
   "effects": [],
   "end": 35.46999999999999,
   "gravity": 4,
   "has_audio": {
    "Points": [
     {
      "co": {
       "X": 1.0,
       "Y": -1.0
      },
      "handle_left": {
       "X": 0.5,
       "Y": 1.0
      },
      "handle_right": {
       "X": 0.5,
       "Y": 0.0
      },
      "handle_type": 0,
      "interpolation": 0
     }
    ]
   },
   "has_video": {
    "Points": [
     {
      "co": {
       "X": 1.0,
       "Y": -1.0
      },
      "handle_left": {
       "X": 0.5,
       "Y": 1.0
      },
      "handle_right": {
       "X": 0.5,
       "Y": 0.0
      },
      "handle_type": 0,
      "interpolation": 0
     }
    ]
   },
   "layer": 1000000,
   "location_x": {
    "Points": [
     {
      "co": {
       "X": 1.0,
       "Y": 0.0
      },
      "handle_left": {
       "X": 0.5,
       "Y": 1.0
      },
      "handle_right": {
       "X": 0.5,
       "Y": 0.0
      },
      "handle_type": 0,
      "interpolation": 0
     }
    ]
   },
   "location_y": {
    "Points": [
     {
      "co": {
       "X": 1.0,
       "Y": 0.0
      },
      "handle_left": {
       "X": 0.5,
       "Y": 1.0
      },
      "handle_right": {
       "X": 0.5,
       "Y": 0.0
      },
      "handle_type": 0,
      "interpolation": 0
     }
    ]
   },
   "mixing": 0,
   "origin_x": {
    "Points": [
     {
      "co": {
       "X": 1.0,
       "Y": 0.5
      },
      "handle_left": {
       "X": 0.5,
       "Y": 1.0
      },
      "handle_right": {
       "X": 0.5,
       "Y": 0.0
      },
      "handle_type": 0,
      "interpolation": 0
     }
    ]
   },
   "origin_y": {
    "Points": [
     {
      "co": {
       "X": 1.0,
       "Y": 0.5
      },
      "handle_left": {
       "X": 0.5,
       "Y": 1.0
      },
      "handle_right": {
       "X": 0.5,
       "Y": 0.0
      },
      "handle_type": 0,
      "interpolation": 0
     }
    ]
   },
   "parentObjectId": "",
   "perspective_c1_x": {
    "Points": [
     {
      "co": {
       "X": 1.0,
       "Y": -1.0
      },
      "handle_left": {
       "X": 0.5,
       "Y": 1.0
      },
      "handle_right": {
       "X": 0.5,
       "Y": 0.0
      },
      "handle_type": 0,
      "interpolation": 0
     }
    ]
   },
   "perspective_c1_y": {
    "Points": [
     {
      "co": {
       "X": 1.0,
       "Y": -1.0
      },
      "handle_left": {
       "X": 0.5,
       "Y": 1.0
      },
      "handle_right": {
       "X": 0.5,
       "Y": 0.0
      },
      "handle_type": 0,
      "interpolation": 0
     }
    ]
   },
   "perspective_c2_x": {
    "Points": [
     {
      "co": {
       "X": 1.0,
       "Y": -1.0
      },
      "handle_left": {
       "X": 0.5,
       "Y": 1.0
      },
      "handle_right": {
       "X": 0.5,
       "Y": 0.0
      },
      "handle_type": 0,
      "interpolation": 0
     }
    ]
   },
   "perspective_c2_y": {
    "Points": [
     {
      "co": {
       "X": 1.0,
       "Y": -1.0
      },
      "handle_left": {
       "X": 0.5,
       "Y": 1.0
      },
      "handle_right": {
       "X": 0.5,
       "Y": 0.0
      },
      "handle_type": 0,
      "interpolation": 0
     }
    ]
   },
   "perspective_c3_x": {
    "Points": [
     {
      "co": {
       "X": 1.0,
       "Y": -1.0
      },
      "handle_left": {
       "X": 0.5,
       "Y": 1.0
      },
      "handle_right": {
       "X": 0.5,
       "Y": 0.0
      },
      "handle_type": 0,
      "interpolation": 0
     }
    ]
   },
   "perspective_c3_y": {
    "Points": [
     {
      "co": {
       "X": 1.0,
       "Y": -1.0
      },
      "handle_left": {
       "X": 0.5,
       "Y": 1.0
      },
      "handle_right": {
       "X": 0.5,
       "Y": 0.0
      },
      "handle_type": 0,
      "interpolation": 0
     }
    ]
   },
   "perspective_c4_x": {
    "Points": [
     {
      "co": {
       "X": 1.0,
       "Y": -1.0
      },
      "handle_left": {
       "X": 0.5,
       "Y": 1.0
      },
      "handle_right": {
       "X": 0.5,
       "Y": 0.0
      },
      "handle_type": 0,
      "interpolation": 0
     }
    ]
   },
   "perspective_c4_y": {
    "Points": [
     {
      "co": {
       "X": 1.0,
       "Y": -1.0
      },
      "handle_left": {
       "X": 0.5,
       "Y": 1.0
      },
      "handle_right": {
       "X": 0.5,
       "Y": 0.0
      },
      "handle_type": 0,
      "interpolation": 0
     }
    ]
   },
   "position": 74.1,
   "reader": {
    "acodec": "",
    "audio_bit_rate": 0,
    "audio_stream_index": -1,
    "audio_timebase": {
     "den": 1,
     "num": 1
    },
    "channel_layout": 4,
    "channels": 0,
    "display_ratio": {
     "den": 9,
     "num": 16
    },
    "duration": 86.86666870117188,
    "file_size": "101829535",
    "fps": {
     "den": 1,
     "num": 30
    },
    "has_audio": false,
    "has_single_image": false,
    "has_video": true,
    "height": 1080,
    "interlaced_frame": false,
    "metadata": {
     "comment": "Create videos with https://clipchamp.com/en/video-editor - free online video editor, video compressor, video converter.",
     "compatible_brands": "isomiso2avc1mp41",
     "encoder": "https://clipchamp.com",
     "handler_name": "VideoHandler",
     "language": "und",
     "major_brand": "isom",
     "minor_version": "512"
    },
    "path": "./movie_003_001.mp4",
    "pixel_format": 0,
    "pixel_ratio": {
     "den": 1,
     "num": 1
    },
    "sample_rate": 0,
    "top_field_first": true,
    "type": "FFmpegReader",
    "vcodec": "h264",
    "video_bit_rate": 1172246,
    "video_length": "2606",
    "video_stream_index": 0,
    "video_timebase": {
     "den": 15360,
     "num": 1
    },
    "width": 1920,
    "media_type": "video",
    "id": "OA9LAYW3S1"
   },
   "rotation": {
    "Points": [
     {
      "co": {
       "X": 1.0,
       "Y": 0.0
      },
      "handle_left": {
       "X": 0.5,
       "Y": 1.0
      },
      "handle_right": {
       "X": 0.5,
       "Y": 0.0
      },
      "handle_type": 0,
      "interpolation": 0
     }
    ]
   },
   "scale": 1,
   "scale_x": {
    "Points": [
     {
      "co": {
       "X": 1.0,
       "Y": 1.0
      },
      "handle_left": {
       "X": 0.5,
       "Y": 1.0
      },
      "handle_right": {
       "X": 0.5,
       "Y": 0.0
      },
      "handle_type": 0,
      "interpolation": 0
     }
    ]
   },
   "scale_y": {
    "Points": [
     {
      "co": {
       "X": 1.0,
       "Y": 1.0
      },
      "handle_left": {
       "X": 0.5,
       "Y": 1.0
      },
      "handle_right": {
       "X": 0.5,
       "Y": 0.0
      },
      "handle_type": 0,
      "interpolation": 0
     }
    ]
   },
   "shear_x": {
    "Points": [
     {
      "co": {
       "X": 1.0,
       "Y": 0.0
      },
      "handle_left": {
       "X": 0.5,
       "Y": 1.0
      },
      "handle_right": {
       "X": 0.5,
       "Y": 0.0
      },
      "handle_type": 0,
      "interpolation": 0
     }
    ]
   },
   "shear_y": {
    "Points": [
     {
      "co": {
       "X": 1.0,
       "Y": 0.0
      },
      "handle_left": {
       "X": 0.5,
       "Y": 1.0
      },
      "handle_right": {
       "X": 0.5,
       "Y": 0.0
      },
      "handle_type": 0,
      "interpolation": 0
     }
    ]
   },
   "start": 35.16999999999998,
   "time": {
    "Points": [
     {
      "co": {
       "X": 1.0,
       "Y": 1.0
      },
      "handle_left": {
       "X": 0.5,
       "Y": 1.0
      },
      "handle_right": {
       "X": 0.5,
       "Y": 0.0
      },
      "handle_type": 0,
      "interpolation": 0
     }
    ]
   },
   "volume": {
    "Points": [
     {
      "co": {
       "X": 1.0,
       "Y": 1.0
      },
      "handle_left": {
       "X": 0.5,
       "Y": 1.0
      },
      "handle_right": {
       "X": 0.5,
       "Y": 0.0
      },
      "handle_type": 0,
      "interpolation": 0
     }
    ]
   },
   "wave_color": {
    "alpha": {
     "Points": [
      {
       "co": {
        "X": 1.0,
        "Y": 255.0
       },
       "handle_left": {
        "X": 0.5,
        "Y": 1.0
       },
       "handle_right": {
        "X": 0.5,
        "Y": 0.0
       },
       "handle_type": 0,
       "interpolation": 0
      }
     ]
    },
    "blue": {
     "Points": [
      {
       "co": {
        "X": 1.0,
        "Y": 255.0
       },
       "handle_left": {
        "X": 0.5,
        "Y": 1.0
       },
       "handle_right": {
        "X": 0.5,
        "Y": 0.0
       },
       "handle_type": 0,
       "interpolation": 0
      }
     ]
    },
    "green": {
     "Points": [
      {
       "co": {
        "X": 1.0,
        "Y": 123.0
       },
       "handle_left": {
        "X": 0.5,
        "Y": 1.0
       },
       "handle_right": {
        "X": 0.5,
        "Y": 0.0
       },
       "handle_type": 0,
       "interpolation": 0
      }
     ]
    },
    "red": {
     "Points": [
      {
       "co": {
        "X": 1.0,
        "Y": 0.0
       },
       "handle_left": {
        "X": 0.5,
        "Y": 1.0
       },
       "handle_right": {
        "X": 0.5,
        "Y": 0.0
       },
       "handle_type": 0,
       "interpolation": 0
      }
     ]
    }
   },
   "waveform": false,
   "file_id": "OA9LAYW3S1",
   "title": "movie_003_001.mp4",
   "image": "Tutorial_assets/thumbnail/OA9LAYW3S1.png",
   "id": "TKU1LL107X"
  },
  {
   "alpha": {
    "Points": [
     {
      "co": {
       "X": 1.0,
       "Y": 1.0
      },
      "handle_left": {
       "X": 0.5,
       "Y": 1.0
      },
      "handle_right": {
       "X": 0.5,
       "Y": 0.0
      },
      "handle_type": 0,
      "interpolation": 0
     }
    ]
   },
   "anchor": 0,
   "channel_filter": {
    "Points": [
     {
      "co": {
       "X": 1.0,
       "Y": -1.0
      },
      "handle_left": {
       "X": 0.5,
       "Y": 1.0
      },
      "handle_right": {
       "X": 0.5,
       "Y": 0.0
      },
      "handle_type": 0,
      "interpolation": 0
     }
    ]
   },
   "channel_mapping": {
    "Points": [
     {
      "co": {
       "X": 1.0,
       "Y": -1.0
      },
      "handle_left": {
       "X": 0.5,
       "Y": 1.0
      },
      "handle_right": {
       "X": 0.5,
       "Y": 0.0
      },
      "handle_type": 0,
      "interpolation": 0
     }
    ]
   },
   "display": 0,
   "duration": 86.86666870117188,
   "effects": [],
   "end": 68.43666666666667,
   "gravity": 4,
   "has_audio": {
    "Points": [
     {
      "co": {
       "X": 1.0,
       "Y": -1.0
      },
      "handle_left": {
       "X": 0.5,
       "Y": 1.0
      },
      "handle_right": {
       "X": 0.5,
       "Y": 0.0
      },
      "handle_type": 0,
      "interpolation": 0
     }
    ]
   },
   "has_video": {
    "Points": [
     {
      "co": {
       "X": 1.0,
       "Y": -1.0
      },
      "handle_left": {
       "X": 0.5,
       "Y": 1.0
      },
      "handle_right": {
       "X": 0.5,
       "Y": 0.0
      },
      "handle_type": 0,
      "interpolation": 0
     }
    ]
   },
   "layer": 1000000,
   "location_x": {
    "Points": [
     {
      "co": {
       "X": 1.0,
       "Y": 0.0
      },
      "handle_left": {
       "X": 0.5,
       "Y": 1.0
      },
      "handle_right": {
       "X": 0.5,
       "Y": 0.0
      },
      "handle_type": 0,
      "interpolation": 0
     }
    ]
   },
   "location_y": {
    "Points": [
     {
      "co": {
       "X": 1.0,
       "Y": 0.0
      },
      "handle_left": {
       "X": 0.5,
       "Y": 1.0
      },
      "handle_right": {
       "X": 0.5,
       "Y": 0.0
      },
      "handle_type": 0,
      "interpolation": 0
     }
    ]
   },
   "mixing": 0,
   "origin_x": {
    "Points": [
     {
      "co": {
       "X": 1.0,
       "Y": 0.5
      },
      "handle_left": {
       "X": 0.5,
       "Y": 1.0
      },
      "handle_right": {
       "X": 0.5,
       "Y": 0.0
      },
      "handle_type": 0,
      "interpolation": 0
     }
    ]
   },
   "origin_y": {
    "Points": [
     {
      "co": {
       "X": 1.0,
       "Y": 0.5
      },
      "handle_left": {
       "X": 0.5,
       "Y": 1.0
      },
      "handle_right": {
       "X": 0.5,
       "Y": 0.0
      },
      "handle_type": 0,
      "interpolation": 0
     }
    ]
   },
   "parentObjectId": "",
   "perspective_c1_x": {
    "Points": [
     {
      "co": {
       "X": 1.0,
       "Y": -1.0
      },
      "handle_left": {
       "X": 0.5,
       "Y": 1.0
      },
      "handle_right": {
       "X": 0.5,
       "Y": 0.0
      },
      "handle_type": 0,
      "interpolation": 0
     }
    ]
   },
   "perspective_c1_y": {
    "Points": [
     {
      "co": {
       "X": 1.0,
       "Y": -1.0
      },
      "handle_left": {
       "X": 0.5,
       "Y": 1.0
      },
      "handle_right": {
       "X": 0.5,
       "Y": 0.0
      },
      "handle_type": 0,
      "interpolation": 0
     }
    ]
   },
   "perspective_c2_x": {
    "Points": [
     {
      "co": {
       "X": 1.0,
       "Y": -1.0
      },
      "handle_left": {
       "X": 0.5,
       "Y": 1.0
      },
      "handle_right": {
       "X": 0.5,
       "Y": 0.0
      },
      "handle_type": 0,
      "interpolation": 0
     }
    ]
   },
   "perspective_c2_y": {
    "Points": [
     {
      "co": {
       "X": 1.0,
       "Y": -1.0
      },
      "handle_left": {
       "X": 0.5,
       "Y": 1.0
      },
      "handle_right": {
       "X": 0.5,
       "Y": 0.0
      },
      "handle_type": 0,
      "interpolation": 0
     }
    ]
   },
   "perspective_c3_x": {
    "Points": [
     {
      "co": {
       "X": 1.0,
       "Y": -1.0
      },
      "handle_left": {
       "X": 0.5,
       "Y": 1.0
      },
      "handle_right": {
       "X": 0.5,
       "Y": 0.0
      },
      "handle_type": 0,
      "interpolation": 0
     }
    ]
   },
   "perspective_c3_y": {
    "Points": [
     {
      "co": {
       "X": 1.0,
       "Y": -1.0
      },
      "handle_left": {
       "X": 0.5,
       "Y": 1.0
      },
      "handle_right": {
       "X": 0.5,
       "Y": 0.0
      },
      "handle_type": 0,
      "interpolation": 0
     }
    ]
   },
   "perspective_c4_x": {
    "Points": [
     {
      "co": {
       "X": 1.0,
       "Y": -1.0
      },
      "handle_left": {
       "X": 0.5,
       "Y": 1.0
      },
      "handle_right": {
       "X": 0.5,
       "Y": 0.0
      },
      "handle_type": 0,
      "interpolation": 0
     }
    ]
   },
   "perspective_c4_y": {
    "Points": [
     {
      "co": {
       "X": 1.0,
       "Y": -1.0
      },
      "handle_left": {
       "X": 0.5,
       "Y": 1.0
      },
      "handle_right": {
       "X": 0.5,
       "Y": 0.0
      },
      "handle_type": 0,
      "interpolation": 0
     }
    ]
   },
   "position": 79.56666666666666,
   "reader": {
    "acodec": "",
    "audio_bit_rate": 0,
    "audio_stream_index": -1,
    "audio_timebase": {
     "den": 1,
     "num": 1
    },
    "channel_layout": 4,
    "channels": 0,
    "display_ratio": {
     "den": 9,
     "num": 16
    },
    "duration": 86.86666870117188,
    "file_size": "101829535",
    "fps": {
     "den": 1,
     "num": 30
    },
    "has_audio": false,
    "has_single_image": false,
    "has_video": true,
    "height": 1080,
    "interlaced_frame": false,
    "metadata": {
     "comment": "Create videos with https://clipchamp.com/en/video-editor - free online video editor, video compressor, video converter.",
     "compatible_brands": "isomiso2avc1mp41",
     "encoder": "https://clipchamp.com",
     "handler_name": "VideoHandler",
     "language": "und",
     "major_brand": "isom",
     "minor_version": "512"
    },
    "path": "./movie_003_001.mp4",
    "pixel_format": 0,
    "pixel_ratio": {
     "den": 1,
     "num": 1
    },
    "sample_rate": 0,
    "top_field_first": true,
    "type": "FFmpegReader",
    "vcodec": "h264",
    "video_bit_rate": 1172246,
    "video_length": "2606",
    "video_stream_index": 0,
    "video_timebase": {
     "den": 15360,
     "num": 1
    },
    "width": 1920,
    "media_type": "video",
    "id": "OA9LAYW3S1"
   },
   "rotation": {
    "Points": [
     {
      "co": {
       "X": 1.0,
       "Y": 0.0
      },
      "handle_left": {
       "X": 0.5,
       "Y": 1.0
      },
      "handle_right": {
       "X": 0.5,
       "Y": 0.0
      },
      "handle_type": 0,
      "interpolation": 0
     }
    ]
   },
   "scale": 1,
   "scale_x": {
    "Points": [
     {
      "co": {
       "X": 1.0,
       "Y": 1.0
      },
      "handle_left": {
       "X": 0.5,
       "Y": 1.0
      },
      "handle_right": {
       "X": 0.5,
       "Y": 0.0
      },
      "handle_type": 0,
      "interpolation": 0
     }
    ]
   },
   "scale_y": {
    "Points": [
     {
      "co": {
       "X": 1.0,
       "Y": 1.0
      },
      "handle_left": {
       "X": 0.5,
       "Y": 1.0
      },
      "handle_right": {
       "X": 0.5,
       "Y": 0.0
      },
      "handle_type": 0,
      "interpolation": 0
     }
    ]
   },
   "shear_x": {
    "Points": [
     {
      "co": {
       "X": 1.0,
       "Y": 0.0
      },
      "handle_left": {
       "X": 0.5,
       "Y": 1.0
      },
      "handle_right": {
       "X": 0.5,
       "Y": 0.0
      },
      "handle_type": 0,
      "interpolation": 0
     }
    ]
   },
   "shear_y": {
    "Points": [
     {
      "co": {
       "X": 1.0,
       "Y": 0.0
      },
      "handle_left": {
       "X": 0.5,
       "Y": 1.0
      },
      "handle_right": {
       "X": 0.5,
       "Y": 0.0
      },
      "handle_type": 0,
      "interpolation": 0
     }
    ]
   },
   "start": 35.46999999999999,
   "time": {
    "Points": [
     {
      "co": {
       "X": 1.0,
       "Y": 1.0
      },
      "handle_left": {
       "X": 0.5,
       "Y": 1.0
      },
      "handle_right": {
       "X": 0.5,
       "Y": 0.0
      },
      "handle_type": 0,
      "interpolation": 0
     }
    ]
   },
   "volume": {
    "Points": [
     {
      "co": {
       "X": 1.0,
       "Y": 1.0
      },
      "handle_left": {
       "X": 0.5,
       "Y": 1.0
      },
      "handle_right": {
       "X": 0.5,
       "Y": 0.0
      },
      "handle_type": 0,
      "interpolation": 0
     }
    ]
   },
   "wave_color": {
    "alpha": {
     "Points": [
      {
       "co": {
        "X": 1.0,
        "Y": 255.0
       },
       "handle_left": {
        "X": 0.5,
        "Y": 1.0
       },
       "handle_right": {
        "X": 0.5,
        "Y": 0.0
       },
       "handle_type": 0,
       "interpolation": 0
      }
     ]
    },
    "blue": {
     "Points": [
      {
       "co": {
        "X": 1.0,
        "Y": 255.0
       },
       "handle_left": {
        "X": 0.5,
        "Y": 1.0
       },
       "handle_right": {
        "X": 0.5,
        "Y": 0.0
       },
       "handle_type": 0,
       "interpolation": 0
      }
     ]
    },
    "green": {
     "Points": [
      {
       "co": {
        "X": 1.0,
        "Y": 123.0
       },
       "handle_left": {
        "X": 0.5,
        "Y": 1.0
       },
       "handle_right": {
        "X": 0.5,
        "Y": 0.0
       },
       "handle_type": 0,
       "interpolation": 0
      }
     ]
    },
    "red": {
     "Points": [
      {
       "co": {
        "X": 1.0,
        "Y": 0.0
       },
       "handle_left": {
        "X": 0.5,
        "Y": 1.0
       },
       "handle_right": {
        "X": 0.5,
        "Y": 0.0
       },
       "handle_type": 0,
       "interpolation": 0
      }
     ]
    }
   },
   "waveform": false,
   "file_id": "OA9LAYW3S1",
   "title": "movie_003_001.mp4",
   "image": "Tutorial_assets/thumbnail/OA9LAYW3S1.png",
   "id": "NX7GT9FXC0"
  },
  {
   "alpha": {
    "Points": [
     {
      "co": {
       "X": 1.0,
       "Y": 1.0
      },
      "handle_left": {
       "X": 0.5,
       "Y": 1.0
      },
      "handle_right": {
       "X": 0.5,
       "Y": 0.0
      },
      "handle_type": 0,
      "interpolation": 0
     }
    ]
   },
   "anchor": 0,
   "channel_filter": {
    "Points": [
     {
      "co": {
       "X": 1.0,
       "Y": -1.0
      },
      "handle_left": {
       "X": 0.5,
       "Y": 1.0
      },
      "handle_right": {
       "X": 0.5,
       "Y": 0.0
      },
      "handle_type": 0,
      "interpolation": 0
     }
    ]
   },
   "channel_mapping": {
    "Points": [
     {
      "co": {
       "X": 1.0,
       "Y": -1.0
      },
      "handle_left": {
       "X": 0.5,
       "Y": 1.0
      },
      "handle_right": {
       "X": 0.5,
       "Y": 0.0
      },
      "handle_type": 0,
      "interpolation": 0
     }
    ]
   },
   "display": 0,
   "duration": 3600.0,
   "effects": [],
   "end": 5.233333333333321,
   "gravity": 4,
   "has_audio": {
    "Points": [
     {
      "co": {
       "X": 1.0,
       "Y": -1.0
      },
      "handle_left": {
       "X": 0.5,
       "Y": 1.0
      },
      "handle_right": {
       "X": 0.5,
       "Y": 0.0
      },
      "handle_type": 0,
      "interpolation": 0
     }
    ]
   },
   "has_video": {
    "Points": [
     {
      "co": {
       "X": 1.0,
       "Y": -1.0
      },
      "handle_left": {
       "X": 0.5,
       "Y": 1.0
      },
      "handle_right": {
       "X": 0.5,
       "Y": 0.0
      },
      "handle_type": 0,
      "interpolation": 0
     }
    ]
   },
   "id": "M66RV8I5GD",
   "layer": 4000000,
   "location_x": {
    "Points": [
     {
      "co": {
       "X": 1,
       "Y": 0.2707253906084466
      },
      "handle_left": {
       "X": 0.5,
       "Y": 1.0
      },
      "handle_right": {
       "X": 0.5,
       "Y": 0.0
      },
      "handle_type": 0,
      "interpolation": 0
     }
    ]
   },
   "location_y": {
    "Points": [
     {
      "co": {
       "X": 1,
       "Y": -0.2551723643966105
      },
      "handle_left": {
       "X": 0.5,
       "Y": 1.0
      },
      "handle_right": {
       "X": 0.5,
       "Y": 0.0
      },
      "handle_type": 0,
      "interpolation": 0
     }
    ]
   },
   "mixing": 0,
   "origin_x": {
    "Points": [
     {
      "co": {
       "X": 1.0,
       "Y": 0.5
      },
      "handle_left": {
       "X": 0.5,
       "Y": 1.0
      },
      "handle_right": {
       "X": 0.5,
       "Y": 0.0
      },
      "handle_type": 0,
      "interpolation": 0
     }
    ]
   },
   "origin_y": {
    "Points": [
     {
      "co": {
       "X": 1.0,
       "Y": 0.5
      },
      "handle_left": {
       "X": 0.5,
       "Y": 1.0
      },
      "handle_right": {
       "X": 0.5,
       "Y": 0.0
      },
      "handle_type": 0,
      "interpolation": 0
     }
    ]
   },
   "parentObjectId": "",
   "perspective_c1_x": {
    "Points": [
     {
      "co": {
       "X": 1.0,
       "Y": -1.0
      },
      "handle_left": {
       "X": 0.5,
       "Y": 1.0
      },
      "handle_right": {
       "X": 0.5,
       "Y": 0.0
      },
      "handle_type": 0,
      "interpolation": 0
     }
    ]
   },
   "perspective_c1_y": {
    "Points": [
     {
      "co": {
       "X": 1.0,
       "Y": -1.0
      },
      "handle_left": {
       "X": 0.5,
       "Y": 1.0
      },
      "handle_right": {
       "X": 0.5,
       "Y": 0.0
      },
      "handle_type": 0,
      "interpolation": 0
     }
    ]
   },
   "perspective_c2_x": {
    "Points": [
     {
      "co": {
       "X": 1.0,
       "Y": -1.0
      },
      "handle_left": {
       "X": 0.5,
       "Y": 1.0
      },
      "handle_right": {
       "X": 0.5,
       "Y": 0.0
      },
      "handle_type": 0,
      "interpolation": 0
     }
    ]
   },
   "perspective_c2_y": {
    "Points": [
     {
      "co": {
       "X": 1.0,
       "Y": -1.0
      },
      "handle_left": {
       "X": 0.5,
       "Y": 1.0
      },
      "handle_right": {
       "X": 0.5,
       "Y": 0.0
      },
      "handle_type": 0,
      "interpolation": 0
     }
    ]
   },
   "perspective_c3_x": {
    "Points": [
     {
      "co": {
       "X": 1.0,
       "Y": -1.0
      },
      "handle_left": {
       "X": 0.5,
       "Y": 1.0
      },
      "handle_right": {
       "X": 0.5,
       "Y": 0.0
      },
      "handle_type": 0,
      "interpolation": 0
     }
    ]
   },
   "perspective_c3_y": {
    "Points": [
     {
      "co": {
       "X": 1.0,
       "Y": -1.0
      },
      "handle_left": {
       "X": 0.5,
       "Y": 1.0
      },
      "handle_right": {
       "X": 0.5,
       "Y": 0.0
      },
      "handle_type": 0,
      "interpolation": 0
     }
    ]
   },
   "perspective_c4_x": {
    "Points": [
     {
      "co": {
       "X": 1.0,
       "Y": -1.0
      },
      "handle_left": {
       "X": 0.5,
       "Y": 1.0
      },
      "handle_right": {
       "X": 0.5,
       "Y": 0.0
      },
      "handle_type": 0,
      "interpolation": 0
     }
    ]
   },
   "perspective_c4_y": {
    "Points": [
     {
      "co": {
       "X": 1.0,
       "Y": -1.0
      },
      "handle_left": {
       "X": 0.5,
       "Y": 1.0
      },
      "handle_right": {
       "X": 0.5,
       "Y": 0.0
      },
      "handle_type": 0,
      "interpolation": 0
     }
    ]
   },
   "position": 80.76666666666667,
   "reader": {
    "acodec": "",
    "audio_bit_rate": 0,
    "audio_stream_index": -1,
    "audio_timebase": {
     "den": 1,
     "num": 1
    },
    "channel_layout": 4,
    "channels": 0,
    "display_ratio": {
     "den": 637,
     "num": 1476
    },
    "duration": 3600.0,
    "file_size": "3760848",
    "fps": {
     "den": 1,
     "num": 30
    },
    "has_audio": false,
    "has_single_image": true,
    "has_video": true,
    "height": 637,
    "interlaced_frame": false,
    "metadata": {},
    "path": "./drawing15.png",
    "pixel_format": -1,
    "pixel_ratio": {
     "den": 1,
     "num": 1
    },
    "sample_rate": 0,
    "top_field_first": true,
    "type": "QtImageReader",
    "vcodec": "",
    "video_bit_rate": 0,
    "video_length": "108000",
    "video_stream_index": -1,
    "video_timebase": {
     "den": 30,
     "num": 1
    },
    "width": 1476,
    "media_type": "image",
    "id": "KNAVOY2XZV"
   },
   "rotation": {
    "Points": [
     {
      "co": {
       "X": 1.0,
       "Y": 0.0
      },
      "handle_left": {
       "X": 0.5,
       "Y": 1.0
      },
      "handle_right": {
       "X": 0.5,
       "Y": 0.0
      },
      "handle_type": 0,
      "interpolation": 0
     }
    ]
   },
   "scale": 1,
   "scale_x": {
    "Points": [
     {
      "co": {
       "X": 1,
       "Y": 0.29792697967025283
      },
      "handle_left": {
       "X": 0.5,
       "Y": 1.0
      },
      "handle_right": {
       "X": 0.5,
       "Y": 0.0
      },
      "handle_type": 0,
      "interpolation": 0
     }
    ]
   },
   "scale_y": {
    "Points": [
     {
      "co": {
       "X": 1,
       "Y": 0.29792697967025283
      },
      "handle_left": {
       "X": 0.5,
       "Y": 1.0
      },
      "handle_right": {
       "X": 0.5,
       "Y": 0.0
      },
      "handle_type": 0,
      "interpolation": 0
     }
    ]
   },
   "shear_x": {
    "Points": [
     {
      "co": {
       "X": 1.0,
       "Y": 0.0
      },
      "handle_left": {
       "X": 0.5,
       "Y": 1.0
      },
      "handle_right": {
       "X": 0.5,
       "Y": 0.0
      },
      "handle_type": 0,
      "interpolation": 0
     }
    ]
   },
   "shear_y": {
    "Points": [
     {
      "co": {
       "X": 1.0,
       "Y": 0.0
      },
      "handle_left": {
       "X": 0.5,
       "Y": 1.0
      },
      "handle_right": {
       "X": 0.5,
       "Y": 0.0
      },
      "handle_type": 0,
      "interpolation": 0
     }
    ]
   },
   "start": 0,
   "time": {
    "Points": [
     {
      "co": {
       "X": 1.0,
       "Y": 1.0
      },
      "handle_left": {
       "X": 0.5,
       "Y": 1.0
      },
      "handle_right": {
       "X": 0.5,
       "Y": 0.0
      },
      "handle_type": 0,
      "interpolation": 0
     }
    ]
   },
   "volume": {
    "Points": [
     {
      "co": {
       "X": 1.0,
       "Y": 1.0
      },
      "handle_left": {
       "X": 0.5,
       "Y": 1.0
      },
      "handle_right": {
       "X": 0.5,
       "Y": 0.0
      },
      "handle_type": 0,
      "interpolation": 0
     }
    ]
   },
   "wave_color": {
    "alpha": {
     "Points": [
      {
       "co": {
        "X": 1.0,
        "Y": 255.0
       },
       "handle_left": {
        "X": 0.5,
        "Y": 1.0
       },
       "handle_right": {
        "X": 0.5,
        "Y": 0.0
       },
       "handle_type": 0,
       "interpolation": 0
      }
     ]
    },
    "blue": {
     "Points": [
      {
       "co": {
        "X": 1.0,
        "Y": 255.0
       },
       "handle_left": {
        "X": 0.5,
        "Y": 1.0
       },
       "handle_right": {
        "X": 0.5,
        "Y": 0.0
       },
       "handle_type": 0,
       "interpolation": 0
      }
     ]
    },
    "green": {
     "Points": [
      {
       "co": {
        "X": 1.0,
        "Y": 123.0
       },
       "handle_left": {
        "X": 0.5,
        "Y": 1.0
       },
       "handle_right": {
        "X": 0.5,
        "Y": 0.0
       },
       "handle_type": 0,
       "interpolation": 0
      }
     ]
    },
    "red": {
     "Points": [
      {
       "co": {
        "X": 1.0,
        "Y": 0.0
       },
       "handle_left": {
        "X": 0.5,
        "Y": 1.0
       },
       "handle_right": {
        "X": 0.5,
        "Y": 0.0
       },
       "handle_type": 0,
       "interpolation": 0
      }
     ]
    }
   },
   "waveform": false,
   "file_id": "KNAVOY2XZV",
   "title": "drawing15.png",
   "image": "Tutorial_assets/thumbnail/KNAVOY2XZV.png"
  },
  {
   "alpha": {
    "Points": [
     {
      "co": {
       "X": 1.0,
       "Y": 1.0
      },
      "handle_left": {
       "X": 0.5,
       "Y": 1.0
      },
      "handle_right": {
       "X": 0.5,
       "Y": 0.0
      },
      "handle_type": 0,
      "interpolation": 0
     }
    ]
   },
   "anchor": 0,
   "channel_filter": {
    "Points": [
     {
      "co": {
       "X": 1.0,
       "Y": -1.0
      },
      "handle_left": {
       "X": 0.5,
       "Y": 1.0
      },
      "handle_right": {
       "X": 0.5,
       "Y": 0.0
      },
      "handle_type": 0,
      "interpolation": 0
     }
    ]
   },
   "channel_mapping": {
    "Points": [
     {
      "co": {
       "X": 1.0,
       "Y": -1.0
      },
      "handle_left": {
       "X": 0.5,
       "Y": 1.0
      },
      "handle_right": {
       "X": 0.5,
       "Y": 0.0
      },
      "handle_type": 0,
      "interpolation": 0
     }
    ]
   },
   "display": 0,
   "duration": 3600.0,
   "effects": [],
   "end": 4.2,
   "gravity": 4,
   "has_audio": {
    "Points": [
     {
      "co": {
       "X": 1.0,
       "Y": -1.0
      },
      "handle_left": {
       "X": 0.5,
       "Y": 1.0
      },
      "handle_right": {
       "X": 0.5,
       "Y": 0.0
      },
      "handle_type": 0,
      "interpolation": 0
     }
    ]
   },
   "has_video": {
    "Points": [
     {
      "co": {
       "X": 1.0,
       "Y": -1.0
      },
      "handle_left": {
       "X": 0.5,
       "Y": 1.0
      },
      "handle_right": {
       "X": 0.5,
       "Y": 0.0
      },
      "handle_type": 0,
      "interpolation": 0
     }
    ]
   },
   "id": "SVOTHSNNO7",
   "layer": 4000000,
   "location_x": {
    "Points": [
     {
      "co": {
       "X": 1,
       "Y": 0.22797929136555428
      },
      "handle_left": {
       "X": 0.5,
       "Y": 1.0
      },
      "handle_right": {
       "X": 0.5,
       "Y": 0.0
      },
      "handle_type": 0,
      "interpolation": 0
     }
    ]
   },
   "location_y": {
    "Points": [
     {
      "co": {
       "X": 1,
       "Y": -0.2758620753370482
      },
      "handle_left": {
       "X": 0.5,
       "Y": 1.0
      },
      "handle_right": {
       "X": 0.5,
       "Y": 0.0
      },
      "handle_type": 0,
      "interpolation": 0
     }
    ]
   },
   "mixing": 0,
   "origin_x": {
    "Points": [
     {
      "co": {
       "X": 1.0,
       "Y": 0.5
      },
      "handle_left": {
       "X": 0.5,
       "Y": 1.0
      },
      "handle_right": {
       "X": 0.5,
       "Y": 0.0
      },
      "handle_type": 0,
      "interpolation": 0
     }
    ]
   },
   "origin_y": {
    "Points": [
     {
      "co": {
       "X": 1.0,
       "Y": 0.5
      },
      "handle_left": {
       "X": 0.5,
       "Y": 1.0
      },
      "handle_right": {
       "X": 0.5,
       "Y": 0.0
      },
      "handle_type": 0,
      "interpolation": 0
     }
    ]
   },
   "parentObjectId": "",
   "perspective_c1_x": {
    "Points": [
     {
      "co": {
       "X": 1.0,
       "Y": -1.0
      },
      "handle_left": {
       "X": 0.5,
       "Y": 1.0
      },
      "handle_right": {
       "X": 0.5,
       "Y": 0.0
      },
      "handle_type": 0,
      "interpolation": 0
     }
    ]
   },
   "perspective_c1_y": {
    "Points": [
     {
      "co": {
       "X": 1.0,
       "Y": -1.0
      },
      "handle_left": {
       "X": 0.5,
       "Y": 1.0
      },
      "handle_right": {
       "X": 0.5,
       "Y": 0.0
      },
      "handle_type": 0,
      "interpolation": 0
     }
    ]
   },
   "perspective_c2_x": {
    "Points": [
     {
      "co": {
       "X": 1.0,
       "Y": -1.0
      },
      "handle_left": {
       "X": 0.5,
       "Y": 1.0
      },
      "handle_right": {
       "X": 0.5,
       "Y": 0.0
      },
      "handle_type": 0,
      "interpolation": 0
     }
    ]
   },
   "perspective_c2_y": {
    "Points": [
     {
      "co": {
       "X": 1.0,
       "Y": -1.0
      },
      "handle_left": {
       "X": 0.5,
       "Y": 1.0
      },
      "handle_right": {
       "X": 0.5,
       "Y": 0.0
      },
      "handle_type": 0,
      "interpolation": 0
     }
    ]
   },
   "perspective_c3_x": {
    "Points": [
     {
      "co": {
       "X": 1.0,
       "Y": -1.0
      },
      "handle_left": {
       "X": 0.5,
       "Y": 1.0
      },
      "handle_right": {
       "X": 0.5,
       "Y": 0.0
      },
      "handle_type": 0,
      "interpolation": 0
     }
    ]
   },
   "perspective_c3_y": {
    "Points": [
     {
      "co": {
       "X": 1.0,
       "Y": -1.0
      },
      "handle_left": {
       "X": 0.5,
       "Y": 1.0
      },
      "handle_right": {
       "X": 0.5,
       "Y": 0.0
      },
      "handle_type": 0,
      "interpolation": 0
     }
    ]
   },
   "perspective_c4_x": {
    "Points": [
     {
      "co": {
       "X": 1.0,
       "Y": -1.0
      },
      "handle_left": {
       "X": 0.5,
       "Y": 1.0
      },
      "handle_right": {
       "X": 0.5,
       "Y": 0.0
      },
      "handle_type": 0,
      "interpolation": 0
     }
    ]
   },
   "perspective_c4_y": {
    "Points": [
     {
      "co": {
       "X": 1.0,
       "Y": -1.0
      },
      "handle_left": {
       "X": 0.5,
       "Y": 1.0
      },
      "handle_right": {
       "X": 0.5,
       "Y": 0.0
      },
      "handle_type": 0,
      "interpolation": 0
     }
    ]
   },
   "position": 86.43333333333334,
   "reader": {
    "acodec": "",
    "audio_bit_rate": 0,
    "audio_stream_index": -1,
    "audio_timebase": {
     "den": 1,
     "num": 1
    },
    "channel_layout": 4,
    "channels": 0,
    "display_ratio": {
     "den": 645,
     "num": 1802
    },
    "duration": 3600.0,
    "file_size": "4649160",
    "fps": {
     "den": 1,
     "num": 30
    },
    "has_audio": false,
    "has_single_image": true,
    "has_video": true,
    "height": 645,
    "interlaced_frame": false,
    "metadata": {},
    "path": "./drawing16.png",
    "pixel_format": -1,
    "pixel_ratio": {
     "den": 1,
     "num": 1
    },
    "sample_rate": 0,
    "top_field_first": true,
    "type": "QtImageReader",
    "vcodec": "",
    "video_bit_rate": 0,
    "video_length": "108000",
    "video_stream_index": -1,
    "video_timebase": {
     "den": 30,
     "num": 1
    },
    "width": 1802,
    "media_type": "image",
    "id": "TZMDAP4IBO"
   },
   "rotation": {
    "Points": [
     {
      "co": {
       "X": 1.0,
       "Y": 0.0
      },
      "handle_left": {
       "X": 0.5,
       "Y": 1.0
      },
      "handle_right": {
       "X": 0.5,
       "Y": 0.0
      },
      "handle_type": 0,
      "interpolation": 0
     }
    ]
   },
   "scale": 1,
   "scale_x": {
    "Points": [
     {
      "co": {
       "X": 1,
       "Y": 0.3652849793434143
      },
      "handle_left": {
       "X": 0.5,
       "Y": 1.0
      },
      "handle_right": {
       "X": 0.5,
       "Y": 0.0
      },
      "handle_type": 0,
      "interpolation": 0
     }
    ]
   },
   "scale_y": {
    "Points": [
     {
      "co": {
       "X": 1,
       "Y": 0.3652849793434143
      },
      "handle_left": {
       "X": 0.5,
       "Y": 1.0
      },
      "handle_right": {
       "X": 0.5,
       "Y": 0.0
      },
      "handle_type": 0,
      "interpolation": 0
     }
    ]
   },
   "shear_x": {
    "Points": [
     {
      "co": {
       "X": 1.0,
       "Y": 0.0
      },
      "handle_left": {
       "X": 0.5,
       "Y": 1.0
      },
      "handle_right": {
       "X": 0.5,
       "Y": 0.0
      },
      "handle_type": 0,
      "interpolation": 0
     }
    ]
   },
   "shear_y": {
    "Points": [
     {
      "co": {
       "X": 1.0,
       "Y": 0.0
      },
      "handle_left": {
       "X": 0.5,
       "Y": 1.0
      },
      "handle_right": {
       "X": 0.5,
       "Y": 0.0
      },
      "handle_type": 0,
      "interpolation": 0
     }
    ]
   },
   "start": 0,
   "time": {
    "Points": [
     {
      "co": {
       "X": 1.0,
       "Y": 1.0
      },
      "handle_left": {
       "X": 0.5,
       "Y": 1.0
      },
      "handle_right": {
       "X": 0.5,
       "Y": 0.0
      },
      "handle_type": 0,
      "interpolation": 0
     }
    ]
   },
   "volume": {
    "Points": [
     {
      "co": {
       "X": 1.0,
       "Y": 1.0
      },
      "handle_left": {
       "X": 0.5,
       "Y": 1.0
      },
      "handle_right": {
       "X": 0.5,
       "Y": 0.0
      },
      "handle_type": 0,
      "interpolation": 0
     }
    ]
   },
   "wave_color": {
    "alpha": {
     "Points": [
      {
       "co": {
        "X": 1.0,
        "Y": 255.0
       },
       "handle_left": {
        "X": 0.5,
        "Y": 1.0
       },
       "handle_right": {
        "X": 0.5,
        "Y": 0.0
       },
       "handle_type": 0,
       "interpolation": 0
      }
     ]
    },
    "blue": {
     "Points": [
      {
       "co": {
        "X": 1.0,
        "Y": 255.0
       },
       "handle_left": {
        "X": 0.5,
        "Y": 1.0
       },
       "handle_right": {
        "X": 0.5,
        "Y": 0.0
       },
       "handle_type": 0,
       "interpolation": 0
      }
     ]
    },
    "green": {
     "Points": [
      {
       "co": {
        "X": 1.0,
        "Y": 123.0
       },
       "handle_left": {
        "X": 0.5,
        "Y": 1.0
       },
       "handle_right": {
        "X": 0.5,
        "Y": 0.0
       },
       "handle_type": 0,
       "interpolation": 0
      }
     ]
    },
    "red": {
     "Points": [
      {
       "co": {
        "X": 1.0,
        "Y": 0.0
       },
       "handle_left": {
        "X": 0.5,
        "Y": 1.0
       },
       "handle_right": {
        "X": 0.5,
        "Y": 0.0
       },
       "handle_type": 0,
       "interpolation": 0
      }
     ]
    }
   },
   "waveform": false,
   "file_id": "TZMDAP4IBO",
   "title": "drawing16.png",
   "image": "Tutorial_assets/thumbnail/TZMDAP4IBO.png"
  },
  {
   "alpha": {
    "Points": [
     {
      "co": {
       "X": 1.0,
       "Y": 1.0
      },
      "handle_left": {
       "X": 0.5,
       "Y": 1.0
      },
      "handle_right": {
       "X": 0.5,
       "Y": 0.0
      },
      "handle_type": 0,
      "interpolation": 0
     }
    ]
   },
   "anchor": 0,
   "channel_filter": {
    "Points": [
     {
      "co": {
       "X": 1.0,
       "Y": -1.0
      },
      "handle_left": {
       "X": 0.5,
       "Y": 1.0
      },
      "handle_right": {
       "X": 0.5,
       "Y": 0.0
      },
      "handle_type": 0,
      "interpolation": 0
     }
    ]
   },
   "channel_mapping": {
    "Points": [
     {
      "co": {
       "X": 1.0,
       "Y": -1.0
      },
      "handle_left": {
       "X": 0.5,
       "Y": 1.0
      },
      "handle_right": {
       "X": 0.5,
       "Y": 0.0
      },
      "handle_type": 0,
      "interpolation": 0
     }
    ]
   },
   "display": 0,
   "duration": 3600.0,
   "effects": [],
   "end": 7.066666666666679,
   "gravity": 4,
   "has_audio": {
    "Points": [
     {
      "co": {
       "X": 1.0,
       "Y": -1.0
      },
      "handle_left": {
       "X": 0.5,
       "Y": 1.0
      },
      "handle_right": {
       "X": 0.5,
       "Y": 0.0
      },
      "handle_type": 0,
      "interpolation": 0
     }
    ]
   },
   "has_video": {
    "Points": [
     {
      "co": {
       "X": 1.0,
       "Y": -1.0
      },
      "handle_left": {
       "X": 0.5,
       "Y": 1.0
      },
      "handle_right": {
       "X": 0.5,
       "Y": 0.0
      },
      "handle_type": 0,
      "interpolation": 0
     }
    ]
   },
   "id": "BTR84VTY9I",
   "layer": 4000000,
   "location_x": {
    "Points": [
     {
      "co": {
       "X": 1,
       "Y": 0.24481864273548126
      },
      "handle_left": {
       "X": 0.5,
       "Y": 1.0
      },
      "handle_right": {
       "X": 0.5,
       "Y": 0.0
      },
      "handle_type": 0,
      "interpolation": 0
     }
    ]
   },
   "location_y": {
    "Points": [
     {
      "co": {
       "X": 1,
       "Y": -0.2758621163751887
      },
      "handle_left": {
       "X": 0.5,
       "Y": 1.0
      },
      "handle_right": {
       "X": 0.5,
       "Y": 0.0
      },
      "handle_type": 0,
      "interpolation": 0
     }
    ]
   },
   "mixing": 0,
   "origin_x": {
    "Points": [
     {
      "co": {
       "X": 1.0,
       "Y": 0.5
      },
      "handle_left": {
       "X": 0.5,
       "Y": 1.0
      },
      "handle_right": {
       "X": 0.5,
       "Y": 0.0
      },
      "handle_type": 0,
      "interpolation": 0
     }
    ]
   },
   "origin_y": {
    "Points": [
     {
      "co": {
       "X": 1.0,
       "Y": 0.5
      },
      "handle_left": {
       "X": 0.5,
       "Y": 1.0
      },
      "handle_right": {
       "X": 0.5,
       "Y": 0.0
      },
      "handle_type": 0,
      "interpolation": 0
     }
    ]
   },
   "parentObjectId": "",
   "perspective_c1_x": {
    "Points": [
     {
      "co": {
       "X": 1.0,
       "Y": -1.0
      },
      "handle_left": {
       "X": 0.5,
       "Y": 1.0
      },
      "handle_right": {
       "X": 0.5,
       "Y": 0.0
      },
      "handle_type": 0,
      "interpolation": 0
     }
    ]
   },
   "perspective_c1_y": {
    "Points": [
     {
      "co": {
       "X": 1.0,
       "Y": -1.0
      },
      "handle_left": {
       "X": 0.5,
       "Y": 1.0
      },
      "handle_right": {
       "X": 0.5,
       "Y": 0.0
      },
      "handle_type": 0,
      "interpolation": 0
     }
    ]
   },
   "perspective_c2_x": {
    "Points": [
     {
      "co": {
       "X": 1.0,
       "Y": -1.0
      },
      "handle_left": {
       "X": 0.5,
       "Y": 1.0
      },
      "handle_right": {
       "X": 0.5,
       "Y": 0.0
      },
      "handle_type": 0,
      "interpolation": 0
     }
    ]
   },
   "perspective_c2_y": {
    "Points": [
     {
      "co": {
       "X": 1.0,
       "Y": -1.0
      },
      "handle_left": {
       "X": 0.5,
       "Y": 1.0
      },
      "handle_right": {
       "X": 0.5,
       "Y": 0.0
      },
      "handle_type": 0,
      "interpolation": 0
     }
    ]
   },
   "perspective_c3_x": {
    "Points": [
     {
      "co": {
       "X": 1.0,
       "Y": -1.0
      },
      "handle_left": {
       "X": 0.5,
       "Y": 1.0
      },
      "handle_right": {
       "X": 0.5,
       "Y": 0.0
      },
      "handle_type": 0,
      "interpolation": 0
     }
    ]
   },
   "perspective_c3_y": {
    "Points": [
     {
      "co": {
       "X": 1.0,
       "Y": -1.0
      },
      "handle_left": {
       "X": 0.5,
       "Y": 1.0
      },
      "handle_right": {
       "X": 0.5,
       "Y": 0.0
      },
      "handle_type": 0,
      "interpolation": 0
     }
    ]
   },
   "perspective_c4_x": {
    "Points": [
     {
      "co": {
       "X": 1.0,
       "Y": -1.0
      },
      "handle_left": {
       "X": 0.5,
       "Y": 1.0
      },
      "handle_right": {
       "X": 0.5,
       "Y": 0.0
      },
      "handle_type": 0,
      "interpolation": 0
     }
    ]
   },
   "perspective_c4_y": {
    "Points": [
     {
      "co": {
       "X": 1.0,
       "Y": -1.0
      },
      "handle_left": {
       "X": 0.5,
       "Y": 1.0
      },
      "handle_right": {
       "X": 0.5,
       "Y": 0.0
      },
      "handle_type": 0,
      "interpolation": 0
     }
    ]
   },
   "position": 90.86666666666666,
   "reader": {
    "acodec": "",
    "audio_bit_rate": 0,
    "audio_stream_index": -1,
    "audio_timebase": {
     "den": 1,
     "num": 1
    },
    "channel_layout": 4,
    "channels": 0,
    "display_ratio": {
     "den": 401,
     "num": 1026
    },
    "duration": 3600.0,
    "file_size": "6582816",
    "fps": {
     "den": 1,
     "num": 30
    },
    "has_audio": false,
    "has_single_image": true,
    "has_video": true,
    "height": 802,
    "interlaced_frame": false,
    "metadata": {},
    "path": "./drawing17.png",
    "pixel_format": -1,
    "pixel_ratio": {
     "den": 1,
     "num": 1
    },
    "sample_rate": 0,
    "top_field_first": true,
    "type": "QtImageReader",
    "vcodec": "",
    "video_bit_rate": 0,
    "video_length": "108000",
    "video_stream_index": -1,
    "video_timebase": {
     "den": 30,
     "num": 1
    },
    "width": 2052,
    "media_type": "image",
    "id": "OUZ5F8GT0J"
   },
   "rotation": {
    "Points": [
     {
      "co": {
       "X": 1.0,
       "Y": 0.0
      },
      "handle_left": {
       "X": 0.5,
       "Y": 1.0
      },
      "handle_right": {
       "X": 0.5,
       "Y": 0.0
      },
      "handle_type": 0,
      "interpolation": 0
     }
    ]
   },
   "scale": 1,
   "scale_x": {
    "Points": [
     {
      "co": {
       "X": 1,
       "Y": 0.3445597338861752
      },
      "handle_left": {
       "X": 0.5,
       "Y": 1.0
      },
      "handle_right": {
       "X": 0.5,
       "Y": 0.0
      },
      "handle_type": 0,
      "interpolation": 0
     }
    ]
   },
   "scale_y": {
    "Points": [
     {
      "co": {
       "X": 1,
       "Y": 0.3445597338861752
      },
      "handle_left": {
       "X": 0.5,
       "Y": 1.0
      },
      "handle_right": {
       "X": 0.5,
       "Y": 0.0
      },
      "handle_type": 0,
      "interpolation": 0
     }
    ]
   },
   "shear_x": {
    "Points": [
     {
      "co": {
       "X": 1.0,
       "Y": 0.0
      },
      "handle_left": {
       "X": 0.5,
       "Y": 1.0
      },
      "handle_right": {
       "X": 0.5,
       "Y": 0.0
      },
      "handle_type": 0,
      "interpolation": 0
     }
    ]
   },
   "shear_y": {
    "Points": [
     {
      "co": {
       "X": 1.0,
       "Y": 0.0
      },
      "handle_left": {
       "X": 0.5,
       "Y": 1.0
      },
      "handle_right": {
       "X": 0.5,
       "Y": 0.0
      },
      "handle_type": 0,
      "interpolation": 0
     }
    ]
   },
   "start": 0,
   "time": {
    "Points": [
     {
      "co": {
       "X": 1.0,
       "Y": 1.0
      },
      "handle_left": {
       "X": 0.5,
       "Y": 1.0
      },
      "handle_right": {
       "X": 0.5,
       "Y": 0.0
      },
      "handle_type": 0,
      "interpolation": 0
     }
    ]
   },
   "volume": {
    "Points": [
     {
      "co": {
       "X": 1.0,
       "Y": 1.0
      },
      "handle_left": {
       "X": 0.5,
       "Y": 1.0
      },
      "handle_right": {
       "X": 0.5,
       "Y": 0.0
      },
      "handle_type": 0,
      "interpolation": 0
     }
    ]
   },
   "wave_color": {
    "alpha": {
     "Points": [
      {
       "co": {
        "X": 1.0,
        "Y": 255.0
       },
       "handle_left": {
        "X": 0.5,
        "Y": 1.0
       },
       "handle_right": {
        "X": 0.5,
        "Y": 0.0
       },
       "handle_type": 0,
       "interpolation": 0
      }
     ]
    },
    "blue": {
     "Points": [
      {
       "co": {
        "X": 1.0,
        "Y": 255.0
       },
       "handle_left": {
        "X": 0.5,
        "Y": 1.0
       },
       "handle_right": {
        "X": 0.5,
        "Y": 0.0
       },
       "handle_type": 0,
       "interpolation": 0
      }
     ]
    },
    "green": {
     "Points": [
      {
       "co": {
        "X": 1.0,
        "Y": 123.0
       },
       "handle_left": {
        "X": 0.5,
        "Y": 1.0
       },
       "handle_right": {
        "X": 0.5,
        "Y": 0.0
       },
       "handle_type": 0,
       "interpolation": 0
      }
     ]
    },
    "red": {
     "Points": [
      {
       "co": {
        "X": 1.0,
        "Y": 0.0
       },
       "handle_left": {
        "X": 0.5,
        "Y": 1.0
       },
       "handle_right": {
        "X": 0.5,
        "Y": 0.0
       },
       "handle_type": 0,
       "interpolation": 0
      }
     ]
    }
   },
   "waveform": false,
   "file_id": "OUZ5F8GT0J",
   "title": "drawing17.png",
   "image": "Tutorial_assets/thumbnail/OUZ5F8GT0J.png"
  },
  {
   "alpha": {
    "Points": [
     {
      "co": {
       "X": 1.0,
       "Y": 1.0
      },
      "handle_left": {
       "X": 0.5,
       "Y": 1.0
      },
      "handle_right": {
       "X": 0.5,
       "Y": 0.0
      },
      "handle_type": 0,
      "interpolation": 0
     }
    ]
   },
   "anchor": 0,
   "channel_filter": {
    "Points": [
     {
      "co": {
       "X": 1.0,
       "Y": -1.0
      },
      "handle_left": {
       "X": 0.5,
       "Y": 1.0
      },
      "handle_right": {
       "X": 0.5,
       "Y": 0.0
      },
      "handle_type": 0,
      "interpolation": 0
     }
    ]
   },
   "channel_mapping": {
    "Points": [
     {
      "co": {
       "X": 1.0,
       "Y": -1.0
      },
      "handle_left": {
       "X": 0.5,
       "Y": 1.0
      },
      "handle_right": {
       "X": 0.5,
       "Y": 0.0
      },
      "handle_type": 0,
      "interpolation": 0
     }
    ]
   },
   "display": 0,
   "duration": 3600.0,
   "effects": [],
   "end": 10,
   "gravity": 4,
   "has_audio": {
    "Points": [
     {
      "co": {
       "X": 1.0,
       "Y": -1.0
      },
      "handle_left": {
       "X": 0.5,
       "Y": 1.0
      },
      "handle_right": {
       "X": 0.5,
       "Y": 0.0
      },
      "handle_type": 0,
      "interpolation": 0
     }
    ]
   },
   "has_video": {
    "Points": [
     {
      "co": {
       "X": 1.0,
       "Y": -1.0
      },
      "handle_left": {
       "X": 0.5,
       "Y": 1.0
      },
      "handle_right": {
       "X": 0.5,
       "Y": 0.0
      },
      "handle_type": 0,
      "interpolation": 0
     }
    ]
   },
   "id": "UC5UFCR0YE",
   "layer": 4000000,
   "location_x": {
    "Points": [
     {
      "co": {
       "X": 1,
       "Y": -0.2840466995260904
      },
      "handle_left": {
       "X": 0.5,
       "Y": 1.0
      },
      "handle_right": {
       "X": 0.5,
       "Y": 0.0
      },
      "handle_type": 0,
      "interpolation": 0
     }
    ]
   },
   "location_y": {
    "Points": [
     {
      "co": {
       "X": 1,
       "Y": -0.29885056614875793
      },
      "handle_left": {
       "X": 0.5,
       "Y": 1.0
      },
      "handle_right": {
       "X": 0.5,
       "Y": 0.0
      },
      "handle_type": 0,
      "interpolation": 0
     }
    ]
   },
   "mixing": 0,
   "origin_x": {
    "Points": [
     {
      "co": {
       "X": 1.0,
       "Y": 0.5
      },
      "handle_left": {
       "X": 0.5,
       "Y": 1.0
      },
      "handle_right": {
       "X": 0.5,
       "Y": 0.0
      },
      "handle_type": 0,
      "interpolation": 0
     }
    ]
   },
   "origin_y": {
    "Points": [
     {
      "co": {
       "X": 1.0,
       "Y": 0.5
      },
      "handle_left": {
       "X": 0.5,
       "Y": 1.0
      },
      "handle_right": {
       "X": 0.5,
       "Y": 0.0
      },
      "handle_type": 0,
      "interpolation": 0
     }
    ]
   },
   "parentObjectId": "",
   "perspective_c1_x": {
    "Points": [
     {
      "co": {
       "X": 1.0,
       "Y": -1.0
      },
      "handle_left": {
       "X": 0.5,
       "Y": 1.0
      },
      "handle_right": {
       "X": 0.5,
       "Y": 0.0
      },
      "handle_type": 0,
      "interpolation": 0
     }
    ]
   },
   "perspective_c1_y": {
    "Points": [
     {
      "co": {
       "X": 1.0,
       "Y": -1.0
      },
      "handle_left": {
       "X": 0.5,
       "Y": 1.0
      },
      "handle_right": {
       "X": 0.5,
       "Y": 0.0
      },
      "handle_type": 0,
      "interpolation": 0
     }
    ]
   },
   "perspective_c2_x": {
    "Points": [
     {
      "co": {
       "X": 1.0,
       "Y": -1.0
      },
      "handle_left": {
       "X": 0.5,
       "Y": 1.0
      },
      "handle_right": {
       "X": 0.5,
       "Y": 0.0
      },
      "handle_type": 0,
      "interpolation": 0
     }
    ]
   },
   "perspective_c2_y": {
    "Points": [
     {
      "co": {
       "X": 1.0,
       "Y": -1.0
      },
      "handle_left": {
       "X": 0.5,
       "Y": 1.0
      },
      "handle_right": {
       "X": 0.5,
       "Y": 0.0
      },
      "handle_type": 0,
      "interpolation": 0
     }
    ]
   },
   "perspective_c3_x": {
    "Points": [
     {
      "co": {
       "X": 1.0,
       "Y": -1.0
      },
      "handle_left": {
       "X": 0.5,
       "Y": 1.0
      },
      "handle_right": {
       "X": 0.5,
       "Y": 0.0
      },
      "handle_type": 0,
      "interpolation": 0
     }
    ]
   },
   "perspective_c3_y": {
    "Points": [
     {
      "co": {
       "X": 1.0,
       "Y": -1.0
      },
      "handle_left": {
       "X": 0.5,
       "Y": 1.0
      },
      "handle_right": {
       "X": 0.5,
       "Y": 0.0
      },
      "handle_type": 0,
      "interpolation": 0
     }
    ]
   },
   "perspective_c4_x": {
    "Points": [
     {
      "co": {
       "X": 1.0,
       "Y": -1.0
      },
      "handle_left": {
       "X": 0.5,
       "Y": 1.0
      },
      "handle_right": {
       "X": 0.5,
       "Y": 0.0
      },
      "handle_type": 0,
      "interpolation": 0
     }
    ]
   },
   "perspective_c4_y": {
    "Points": [
     {
      "co": {
       "X": 1.0,
       "Y": -1.0
      },
      "handle_left": {
       "X": 0.5,
       "Y": 1.0
      },
      "handle_right": {
       "X": 0.5,
       "Y": 0.0
      },
      "handle_type": 0,
      "interpolation": 0
     }
    ]
   },
   "position": 100.33333333333333,
   "reader": {
    "acodec": "",
    "audio_bit_rate": 0,
    "audio_stream_index": -1,
    "audio_timebase": {
     "den": 1,
     "num": 1
    },
    "channel_layout": 4,
    "channels": 0,
    "display_ratio": {
     "den": 672,
     "num": 1691
    },
    "duration": 3600.0,
    "file_size": "4545408",
    "fps": {
     "den": 1,
     "num": 30
    },
    "has_audio": false,
    "has_single_image": true,
    "has_video": true,
    "height": 672,
    "interlaced_frame": false,
    "metadata": {},
    "path": "./drawing18.png",
    "pixel_format": -1,
    "pixel_ratio": {
     "den": 1,
     "num": 1
    },
    "sample_rate": 0,
    "top_field_first": true,
    "type": "QtImageReader",
    "vcodec": "",
    "video_bit_rate": 0,
    "video_length": "108000",
    "video_stream_index": -1,
    "video_timebase": {
     "den": 30,
     "num": 1
    },
    "width": 1691,
    "media_type": "image",
    "id": "2VA43RX5BP"
   },
   "rotation": {
    "Points": [
     {
      "co": {
       "X": 1,
       "Y": 0.0
      },
      "handle_left": {
       "X": 0.5,
       "Y": 1.0
      },
      "handle_right": {
       "X": 0.5,
       "Y": 0.0
      },
      "handle_type": 0,
      "interpolation": 0
     }
    ]
   },
   "scale": 1,
   "scale_x": {
    "Points": [
     {
      "co": {
       "X": 1,
       "Y": 0.30276625370546384
      },
      "handle_left": {
       "X": 0.5,
       "Y": 1.0
      },
      "handle_right": {
       "X": 0.5,
       "Y": 0.0
      },
      "handle_type": 0,
      "interpolation": 0
     }
    ]
   },
   "scale_y": {
    "Points": [
     {
      "co": {
       "X": 1,
       "Y": 0.30276625370546384
      },
      "handle_left": {
       "X": 0.5,
       "Y": 1.0
      },
      "handle_right": {
       "X": 0.5,
       "Y": 0.0
      },
      "handle_type": 0,
      "interpolation": 0
     }
    ]
   },
   "shear_x": {
    "Points": [
     {
      "co": {
       "X": 1.0,
       "Y": 0.0
      },
      "handle_left": {
       "X": 0.5,
       "Y": 1.0
      },
      "handle_right": {
       "X": 0.5,
       "Y": 0.0
      },
      "handle_type": 0,
      "interpolation": 0
     }
    ]
   },
   "shear_y": {
    "Points": [
     {
      "co": {
       "X": 1.0,
       "Y": 0.0
      },
      "handle_left": {
       "X": 0.5,
       "Y": 1.0
      },
      "handle_right": {
       "X": 0.5,
       "Y": 0.0
      },
      "handle_type": 0,
      "interpolation": 0
     }
    ]
   },
   "start": 0,
   "time": {
    "Points": [
     {
      "co": {
       "X": 1.0,
       "Y": 1.0
      },
      "handle_left": {
       "X": 0.5,
       "Y": 1.0
      },
      "handle_right": {
       "X": 0.5,
       "Y": 0.0
      },
      "handle_type": 0,
      "interpolation": 0
     }
    ]
   },
   "volume": {
    "Points": [
     {
      "co": {
       "X": 1.0,
       "Y": 1.0
      },
      "handle_left": {
       "X": 0.5,
       "Y": 1.0
      },
      "handle_right": {
       "X": 0.5,
       "Y": 0.0
      },
      "handle_type": 0,
      "interpolation": 0
     }
    ]
   },
   "wave_color": {
    "alpha": {
     "Points": [
      {
       "co": {
        "X": 1.0,
        "Y": 255.0
       },
       "handle_left": {
        "X": 0.5,
        "Y": 1.0
       },
       "handle_right": {
        "X": 0.5,
        "Y": 0.0
       },
       "handle_type": 0,
       "interpolation": 0
      }
     ]
    },
    "blue": {
     "Points": [
      {
       "co": {
        "X": 1.0,
        "Y": 255.0
       },
       "handle_left": {
        "X": 0.5,
        "Y": 1.0
       },
       "handle_right": {
        "X": 0.5,
        "Y": 0.0
       },
       "handle_type": 0,
       "interpolation": 0
      }
     ]
    },
    "green": {
     "Points": [
      {
       "co": {
        "X": 1.0,
        "Y": 123.0
       },
       "handle_left": {
        "X": 0.5,
        "Y": 1.0
       },
       "handle_right": {
        "X": 0.5,
        "Y": 0.0
       },
       "handle_type": 0,
       "interpolation": 0
      }
     ]
    },
    "red": {
     "Points": [
      {
       "co": {
        "X": 1.0,
        "Y": 0.0
       },
       "handle_left": {
        "X": 0.5,
        "Y": 1.0
       },
       "handle_right": {
        "X": 0.5,
        "Y": 0.0
       },
       "handle_type": 0,
       "interpolation": 0
      }
     ]
    }
   },
   "waveform": false,
   "file_id": "2VA43RX5BP",
   "title": "drawing18.png",
   "image": "Tutorial_assets/thumbnail/2VA43RX5BP.png"
  },
  {
   "alpha": {
    "Points": [
     {
      "co": {
       "X": 1.0,
       "Y": 1.0
      },
      "handle_left": {
       "X": 0.5,
       "Y": 1.0
      },
      "handle_right": {
       "X": 0.5,
       "Y": 0.0
      },
      "handle_type": 0,
      "interpolation": 0
     }
    ]
   },
   "anchor": 0,
   "channel_filter": {
    "Points": [
     {
      "co": {
       "X": 1.0,
       "Y": -1.0
      },
      "handle_left": {
       "X": 0.5,
       "Y": 1.0
      },
      "handle_right": {
       "X": 0.5,
       "Y": 0.0
      },
      "handle_type": 0,
      "interpolation": 0
     }
    ]
   },
   "channel_mapping": {
    "Points": [
     {
      "co": {
       "X": 1.0,
       "Y": -1.0
      },
      "handle_left": {
       "X": 0.5,
       "Y": 1.0
      },
      "handle_right": {
       "X": 0.5,
       "Y": 0.0
      },
      "handle_type": 0,
      "interpolation": 0
     }
    ]
   },
   "display": 0,
   "duration": 3600.0,
   "effects": [],
   "end": 10,
   "gravity": 4,
   "has_audio": {
    "Points": [
     {
      "co": {
       "X": 1.0,
       "Y": -1.0
      },
      "handle_left": {
       "X": 0.5,
       "Y": 1.0
      },
      "handle_right": {
       "X": 0.5,
       "Y": 0.0
      },
      "handle_type": 0,
      "interpolation": 0
     }
    ]
   },
   "has_video": {
    "Points": [
     {
      "co": {
       "X": 1.0,
       "Y": -1.0
      },
      "handle_left": {
       "X": 0.5,
       "Y": 1.0
      },
      "handle_right": {
       "X": 0.5,
       "Y": 0.0
      },
      "handle_type": 0,
      "interpolation": 0
     }
    ]
   },
   "id": "DA57O2QTNF",
   "layer": 4000000,
   "location_x": {
    "Points": [
     {
      "co": {
       "X": 1,
       "Y": -0.2840467591307352
      },
      "handle_left": {
       "X": 0.5,
       "Y": 1.0
      },
      "handle_right": {
       "X": 0.5,
       "Y": 0.0
      },
      "handle_type": 0,
      "interpolation": 0
     }
    ]
   },
   "location_y": {
    "Points": [
     {
      "co": {
       "X": 1,
       "Y": -0.278160959482193
      },
      "handle_left": {
       "X": 0.5,
       "Y": 1.0
      },
      "handle_right": {
       "X": 0.5,
       "Y": 0.0
      },
      "handle_type": 0,
      "interpolation": 0
     }
    ]
   },
   "mixing": 0,
   "origin_x": {
    "Points": [
     {
      "co": {
       "X": 1.0,
       "Y": 0.5
      },
      "handle_left": {
       "X": 0.5,
       "Y": 1.0
      },
      "handle_right": {
       "X": 0.5,
       "Y": 0.0
      },
      "handle_type": 0,
      "interpolation": 0
     }
    ]
   },
   "origin_y": {
    "Points": [
     {
      "co": {
       "X": 1.0,
       "Y": 0.5
      },
      "handle_left": {
       "X": 0.5,
       "Y": 1.0
      },
      "handle_right": {
       "X": 0.5,
       "Y": 0.0
      },
      "handle_type": 0,
      "interpolation": 0
     }
    ]
   },
   "parentObjectId": "",
   "perspective_c1_x": {
    "Points": [
     {
      "co": {
       "X": 1.0,
       "Y": -1.0
      },
      "handle_left": {
       "X": 0.5,
       "Y": 1.0
      },
      "handle_right": {
       "X": 0.5,
       "Y": 0.0
      },
      "handle_type": 0,
      "interpolation": 0
     }
    ]
   },
   "perspective_c1_y": {
    "Points": [
     {
      "co": {
       "X": 1.0,
       "Y": -1.0
      },
      "handle_left": {
       "X": 0.5,
       "Y": 1.0
      },
      "handle_right": {
       "X": 0.5,
       "Y": 0.0
      },
      "handle_type": 0,
      "interpolation": 0
     }
    ]
   },
   "perspective_c2_x": {
    "Points": [
     {
      "co": {
       "X": 1.0,
       "Y": -1.0
      },
      "handle_left": {
       "X": 0.5,
       "Y": 1.0
      },
      "handle_right": {
       "X": 0.5,
       "Y": 0.0
      },
      "handle_type": 0,
      "interpolation": 0
     }
    ]
   },
   "perspective_c2_y": {
    "Points": [
     {
      "co": {
       "X": 1.0,
       "Y": -1.0
      },
      "handle_left": {
       "X": 0.5,
       "Y": 1.0
      },
      "handle_right": {
       "X": 0.5,
       "Y": 0.0
      },
      "handle_type": 0,
      "interpolation": 0
     }
    ]
   },
   "perspective_c3_x": {
    "Points": [
     {
      "co": {
       "X": 1.0,
       "Y": -1.0
      },
      "handle_left": {
       "X": 0.5,
       "Y": 1.0
      },
      "handle_right": {
       "X": 0.5,
       "Y": 0.0
      },
      "handle_type": 0,
      "interpolation": 0
     }
    ]
   },
   "perspective_c3_y": {
    "Points": [
     {
      "co": {
       "X": 1.0,
       "Y": -1.0
      },
      "handle_left": {
       "X": 0.5,
       "Y": 1.0
      },
      "handle_right": {
       "X": 0.5,
       "Y": 0.0
      },
      "handle_type": 0,
      "interpolation": 0
     }
    ]
   },
   "perspective_c4_x": {
    "Points": [
     {
      "co": {
       "X": 1.0,
       "Y": -1.0
      },
      "handle_left": {
       "X": 0.5,
       "Y": 1.0
      },
      "handle_right": {
       "X": 0.5,
       "Y": 0.0
      },
      "handle_type": 0,
      "interpolation": 0
     }
    ]
   },
   "perspective_c4_y": {
    "Points": [
     {
      "co": {
       "X": 1.0,
       "Y": -1.0
      },
      "handle_left": {
       "X": 0.5,
       "Y": 1.0
      },
      "handle_right": {
       "X": 0.5,
       "Y": 0.0
      },
      "handle_type": 0,
      "interpolation": 0
     }
    ]
   },
   "position": 110.5,
   "reader": {
    "acodec": "",
    "audio_bit_rate": 0,
    "audio_stream_index": -1,
    "audio_timebase": {
     "den": 1,
     "num": 1
    },
    "channel_layout": 4,
    "channels": 0,
    "display_ratio": {
     "den": 672,
     "num": 1691
    },
    "duration": 3600.0,
    "file_size": "4545408",
    "fps": {
     "den": 1,
     "num": 30
    },
    "has_audio": false,
    "has_single_image": true,
    "has_video": true,
    "height": 672,
    "interlaced_frame": false,
    "metadata": {},
    "path": "./drawing19.png",
    "pixel_format": -1,
    "pixel_ratio": {
     "den": 1,
     "num": 1
    },
    "sample_rate": 0,
    "top_field_first": true,
    "type": "QtImageReader",
    "vcodec": "",
    "video_bit_rate": 0,
    "video_length": "108000",
    "video_stream_index": -1,
    "video_timebase": {
     "den": 30,
     "num": 1
    },
    "width": 1691,
    "media_type": "image",
    "id": "M0RYE826C5"
   },
   "rotation": {
    "Points": [
     {
      "co": {
       "X": 1.0,
       "Y": 0.0
      },
      "handle_left": {
       "X": 0.5,
       "Y": 1.0
      },
      "handle_right": {
       "X": 0.5,
       "Y": 0.0
      },
      "handle_type": 0,
      "interpolation": 0
     }
    ]
   },
   "scale": 1,
   "scale_x": {
    "Points": [
     {
      "co": {
       "X": 1,
       "Y": 0.3203634023666382
      },
      "handle_left": {
       "X": 0.5,
       "Y": 1.0
      },
      "handle_right": {
       "X": 0.5,
       "Y": 0.0
      },
      "handle_type": 0,
      "interpolation": 0
     }
    ]
   },
   "scale_y": {
    "Points": [
     {
      "co": {
       "X": 1,
       "Y": 0.3203634023666382
      },
      "handle_left": {
       "X": 0.5,
       "Y": 1.0
      },
      "handle_right": {
       "X": 0.5,
       "Y": 0.0
      },
      "handle_type": 0,
      "interpolation": 0
     }
    ]
   },
   "shear_x": {
    "Points": [
     {
      "co": {
       "X": 1.0,
       "Y": 0.0
      },
      "handle_left": {
       "X": 0.5,
       "Y": 1.0
      },
      "handle_right": {
       "X": 0.5,
       "Y": 0.0
      },
      "handle_type": 0,
      "interpolation": 0
     }
    ]
   },
   "shear_y": {
    "Points": [
     {
      "co": {
       "X": 1.0,
       "Y": 0.0
      },
      "handle_left": {
       "X": 0.5,
       "Y": 1.0
      },
      "handle_right": {
       "X": 0.5,
       "Y": 0.0
      },
      "handle_type": 0,
      "interpolation": 0
     }
    ]
   },
   "start": 0,
   "time": {
    "Points": [
     {
      "co": {
       "X": 1.0,
       "Y": 1.0
      },
      "handle_left": {
       "X": 0.5,
       "Y": 1.0
      },
      "handle_right": {
       "X": 0.5,
       "Y": 0.0
      },
      "handle_type": 0,
      "interpolation": 0
     }
    ]
   },
   "volume": {
    "Points": [
     {
      "co": {
       "X": 1.0,
       "Y": 1.0
      },
      "handle_left": {
       "X": 0.5,
       "Y": 1.0
      },
      "handle_right": {
       "X": 0.5,
       "Y": 0.0
      },
      "handle_type": 0,
      "interpolation": 0
     }
    ]
   },
   "wave_color": {
    "alpha": {
     "Points": [
      {
       "co": {
        "X": 1.0,
        "Y": 255.0
       },
       "handle_left": {
        "X": 0.5,
        "Y": 1.0
       },
       "handle_right": {
        "X": 0.5,
        "Y": 0.0
       },
       "handle_type": 0,
       "interpolation": 0
      }
     ]
    },
    "blue": {
     "Points": [
      {
       "co": {
        "X": 1.0,
        "Y": 255.0
       },
       "handle_left": {
        "X": 0.5,
        "Y": 1.0
       },
       "handle_right": {
        "X": 0.5,
        "Y": 0.0
       },
       "handle_type": 0,
       "interpolation": 0
      }
     ]
    },
    "green": {
     "Points": [
      {
       "co": {
        "X": 1.0,
        "Y": 123.0
       },
       "handle_left": {
        "X": 0.5,
        "Y": 1.0
       },
       "handle_right": {
        "X": 0.5,
        "Y": 0.0
       },
       "handle_type": 0,
       "interpolation": 0
      }
     ]
    },
    "red": {
     "Points": [
      {
       "co": {
        "X": 1.0,
        "Y": 0.0
       },
       "handle_left": {
        "X": 0.5,
        "Y": 1.0
       },
       "handle_right": {
        "X": 0.5,
        "Y": 0.0
       },
       "handle_type": 0,
       "interpolation": 0
      }
     ]
    }
   },
   "waveform": false,
   "file_id": "M0RYE826C5",
   "title": "drawing19.png",
   "image": "Tutorial_assets/thumbnail/M0RYE826C5.png"
  },
  {
   "alpha": {
    "Points": [
     {
      "co": {
       "X": 1.0,
       "Y": 1.0
      },
      "handle_left": {
       "X": 0.5,
       "Y": 1.0
      },
      "handle_right": {
       "X": 0.5,
       "Y": 0.0
      },
      "handle_type": 0,
      "interpolation": 0
     }
    ]
   },
   "anchor": 0,
   "channel_filter": {
    "Points": [
     {
      "co": {
       "X": 1.0,
       "Y": -1.0
      },
      "handle_left": {
       "X": 0.5,
       "Y": 1.0
      },
      "handle_right": {
       "X": 0.5,
       "Y": 0.0
      },
      "handle_type": 0,
      "interpolation": 0
     }
    ]
   },
   "channel_mapping": {
    "Points": [
     {
      "co": {
       "X": 1.0,
       "Y": -1.0
      },
      "handle_left": {
       "X": 0.5,
       "Y": 1.0
      },
      "handle_right": {
       "X": 0.5,
       "Y": 0.0
      },
      "handle_type": 0,
      "interpolation": 0
     }
    ]
   },
   "display": 0,
   "duration": 3600.0,
   "effects": [],
   "end": 10,
   "gravity": 4,
   "has_audio": {
    "Points": [
     {
      "co": {
       "X": 1.0,
       "Y": -1.0
      },
      "handle_left": {
       "X": 0.5,
       "Y": 1.0
      },
      "handle_right": {
       "X": 0.5,
       "Y": 0.0
      },
      "handle_type": 0,
      "interpolation": 0
     }
    ]
   },
   "has_video": {
    "Points": [
     {
      "co": {
       "X": 1.0,
       "Y": -1.0
      },
      "handle_left": {
       "X": 0.5,
       "Y": 1.0
      },
      "handle_right": {
       "X": 0.5,
       "Y": 0.0
      },
      "handle_type": 0,
      "interpolation": 0
     }
    ]
   },
   "id": "510LV1Y8ZG",
   "layer": 4000000,
   "location_x": {
    "Points": [
     {
      "co": {
       "X": 1,
       "Y": 0.2436472326517105
      },
      "handle_left": {
       "X": 0.5,
       "Y": 1.0
      },
      "handle_right": {
       "X": 0.5,
       "Y": 0.0
      },
      "handle_type": 0,
      "interpolation": 0
     }
    ]
   },
   "location_y": {
    "Points": [
     {
      "co": {
       "X": 1,
       "Y": -0.2785146236419678
      },
      "handle_left": {
       "X": 0.5,
       "Y": 1.0
      },
      "handle_right": {
       "X": 0.5,
       "Y": 0.0
      },
      "handle_type": 0,
      "interpolation": 0
     }
    ]
   },
   "mixing": 0,
   "origin_x": {
    "Points": [
     {
      "co": {
       "X": 1.0,
       "Y": 0.5
      },
      "handle_left": {
       "X": 0.5,
       "Y": 1.0
      },
      "handle_right": {
       "X": 0.5,
       "Y": 0.0
      },
      "handle_type": 0,
      "interpolation": 0
     }
    ]
   },
   "origin_y": {
    "Points": [
     {
      "co": {
       "X": 1.0,
       "Y": 0.5
      },
      "handle_left": {
       "X": 0.5,
       "Y": 1.0
      },
      "handle_right": {
       "X": 0.5,
       "Y": 0.0
      },
      "handle_type": 0,
      "interpolation": 0
     }
    ]
   },
   "parentObjectId": "",
   "perspective_c1_x": {
    "Points": [
     {
      "co": {
       "X": 1.0,
       "Y": -1.0
      },
      "handle_left": {
       "X": 0.5,
       "Y": 1.0
      },
      "handle_right": {
       "X": 0.5,
       "Y": 0.0
      },
      "handle_type": 0,
      "interpolation": 0
     }
    ]
   },
   "perspective_c1_y": {
    "Points": [
     {
      "co": {
       "X": 1.0,
       "Y": -1.0
      },
      "handle_left": {
       "X": 0.5,
       "Y": 1.0
      },
      "handle_right": {
       "X": 0.5,
       "Y": 0.0
      },
      "handle_type": 0,
      "interpolation": 0
     }
    ]
   },
   "perspective_c2_x": {
    "Points": [
     {
      "co": {
       "X": 1.0,
       "Y": -1.0
      },
      "handle_left": {
       "X": 0.5,
       "Y": 1.0
      },
      "handle_right": {
       "X": 0.5,
       "Y": 0.0
      },
      "handle_type": 0,
      "interpolation": 0
     }
    ]
   },
   "perspective_c2_y": {
    "Points": [
     {
      "co": {
       "X": 1.0,
       "Y": -1.0
      },
      "handle_left": {
       "X": 0.5,
       "Y": 1.0
      },
      "handle_right": {
       "X": 0.5,
       "Y": 0.0
      },
      "handle_type": 0,
      "interpolation": 0
     }
    ]
   },
   "perspective_c3_x": {
    "Points": [
     {
      "co": {
       "X": 1.0,
       "Y": -1.0
      },
      "handle_left": {
       "X": 0.5,
       "Y": 1.0
      },
      "handle_right": {
       "X": 0.5,
       "Y": 0.0
      },
      "handle_type": 0,
      "interpolation": 0
     }
    ]
   },
   "perspective_c3_y": {
    "Points": [
     {
      "co": {
       "X": 1.0,
       "Y": -1.0
      },
      "handle_left": {
       "X": 0.5,
       "Y": 1.0
      },
      "handle_right": {
       "X": 0.5,
       "Y": 0.0
      },
      "handle_type": 0,
      "interpolation": 0
     }
    ]
   },
   "perspective_c4_x": {
    "Points": [
     {
      "co": {
       "X": 1.0,
       "Y": -1.0
      },
      "handle_left": {
       "X": 0.5,
       "Y": 1.0
      },
      "handle_right": {
       "X": 0.5,
       "Y": 0.0
      },
      "handle_type": 0,
      "interpolation": 0
     }
    ]
   },
   "perspective_c4_y": {
    "Points": [
     {
      "co": {
       "X": 1.0,
       "Y": -1.0
      },
      "handle_left": {
       "X": 0.5,
       "Y": 1.0
      },
      "handle_right": {
       "X": 0.5,
       "Y": 0.0
      },
      "handle_type": 0,
      "interpolation": 0
     }
    ]
   },
   "position": 122,
   "reader": {
    "acodec": "",
    "audio_bit_rate": 0,
    "audio_stream_index": -1,
    "audio_timebase": {
     "den": 1,
     "num": 1
    },
    "channel_layout": 4,
    "channels": 0,
    "display_ratio": {
     "den": 8,
     "num": 21
    },
    "duration": 3600.0,
    "file_size": "4741632",
    "fps": {
     "den": 1,
     "num": 30
    },
    "has_audio": false,
    "has_single_image": true,
    "has_video": true,
    "height": 672,
    "interlaced_frame": false,
    "metadata": {},
    "path": "./drawing20.png",
    "pixel_format": -1,
    "pixel_ratio": {
     "den": 1,
     "num": 1
    },
    "sample_rate": 0,
    "top_field_first": true,
    "type": "QtImageReader",
    "vcodec": "",
    "video_bit_rate": 0,
    "video_length": "108000",
    "video_stream_index": -1,
    "video_timebase": {
     "den": 30,
     "num": 1
    },
    "width": 1764,
    "media_type": "image",
    "id": "GIQWT7MK66"
   },
   "rotation": {
    "Points": [
     {
      "co": {
       "X": 1.0,
       "Y": 0.0
      },
      "handle_left": {
       "X": 0.5,
       "Y": 1.0
      },
      "handle_right": {
       "X": 0.5,
       "Y": 0.0
      },
      "handle_type": 0,
      "interpolation": 0
     }
    ]
   },
   "scale": 1,
   "scale_x": {
    "Points": [
     {
      "co": {
       "X": 1,
       "Y": 0.3512707585176545
      },
      "handle_left": {
       "X": 0.5,
       "Y": 1.0
      },
      "handle_right": {
       "X": 0.5,
       "Y": 0.0
      },
      "handle_type": 0,
      "interpolation": 0
     }
    ]
   },
   "scale_y": {
    "Points": [
     {
      "co": {
       "X": 1,
       "Y": 0.3512707585176545
      },
      "handle_left": {
       "X": 0.5,
       "Y": 1.0
      },
      "handle_right": {
       "X": 0.5,
       "Y": 0.0
      },
      "handle_type": 0,
      "interpolation": 0
     }
    ]
   },
   "shear_x": {
    "Points": [
     {
      "co": {
       "X": 1.0,
       "Y": 0.0
      },
      "handle_left": {
       "X": 0.5,
       "Y": 1.0
      },
      "handle_right": {
       "X": 0.5,
       "Y": 0.0
      },
      "handle_type": 0,
      "interpolation": 0
     }
    ]
   },
   "shear_y": {
    "Points": [
     {
      "co": {
       "X": 1.0,
       "Y": 0.0
      },
      "handle_left": {
       "X": 0.5,
       "Y": 1.0
      },
      "handle_right": {
       "X": 0.5,
       "Y": 0.0
      },
      "handle_type": 0,
      "interpolation": 0
     }
    ]
   },
   "start": 0,
   "time": {
    "Points": [
     {
      "co": {
       "X": 1.0,
       "Y": 1.0
      },
      "handle_left": {
       "X": 0.5,
       "Y": 1.0
      },
      "handle_right": {
       "X": 0.5,
       "Y": 0.0
      },
      "handle_type": 0,
      "interpolation": 0
     }
    ]
   },
   "volume": {
    "Points": [
     {
      "co": {
       "X": 1.0,
       "Y": 1.0
      },
      "handle_left": {
       "X": 0.5,
       "Y": 1.0
      },
      "handle_right": {
       "X": 0.5,
       "Y": 0.0
      },
      "handle_type": 0,
      "interpolation": 0
     }
    ]
   },
   "wave_color": {
    "alpha": {
     "Points": [
      {
       "co": {
        "X": 1.0,
        "Y": 255.0
       },
       "handle_left": {
        "X": 0.5,
        "Y": 1.0
       },
       "handle_right": {
        "X": 0.5,
        "Y": 0.0
       },
       "handle_type": 0,
       "interpolation": 0
      }
     ]
    },
    "blue": {
     "Points": [
      {
       "co": {
        "X": 1.0,
        "Y": 255.0
       },
       "handle_left": {
        "X": 0.5,
        "Y": 1.0
       },
       "handle_right": {
        "X": 0.5,
        "Y": 0.0
       },
       "handle_type": 0,
       "interpolation": 0
      }
     ]
    },
    "green": {
     "Points": [
      {
       "co": {
        "X": 1.0,
        "Y": 123.0
       },
       "handle_left": {
        "X": 0.5,
        "Y": 1.0
       },
       "handle_right": {
        "X": 0.5,
        "Y": 0.0
       },
       "handle_type": 0,
       "interpolation": 0
      }
     ]
    },
    "red": {
     "Points": [
      {
       "co": {
        "X": 1.0,
        "Y": 0.0
       },
       "handle_left": {
        "X": 0.5,
        "Y": 1.0
       },
       "handle_right": {
        "X": 0.5,
        "Y": 0.0
       },
       "handle_type": 0,
       "interpolation": 0
      }
     ]
    }
   },
   "waveform": false,
   "file_id": "GIQWT7MK66",
   "title": "drawing20.png",
   "image": "Tutorial_assets/thumbnail/GIQWT7MK66.png"
  },
  {
   "alpha": {
    "Points": [
     {
      "co": {
       "X": 1.0,
       "Y": 1.0
      },
      "handle_left": {
       "X": 0.5,
       "Y": 1.0
      },
      "handle_right": {
       "X": 0.5,
       "Y": 0.0
      },
      "handle_type": 0,
      "interpolation": 0
     }
    ]
   },
   "anchor": 0,
   "channel_filter": {
    "Points": [
     {
      "co": {
       "X": 1.0,
       "Y": -1.0
      },
      "handle_left": {
       "X": 0.5,
       "Y": 1.0
      },
      "handle_right": {
       "X": 0.5,
       "Y": 0.0
      },
      "handle_type": 0,
      "interpolation": 0
     }
    ]
   },
   "channel_mapping": {
    "Points": [
     {
      "co": {
       "X": 1.0,
       "Y": -1.0
      },
      "handle_left": {
       "X": 0.5,
       "Y": 1.0
      },
      "handle_right": {
       "X": 0.5,
       "Y": 0.0
      },
      "handle_type": 0,
      "interpolation": 0
     }
    ]
   },
   "display": 0,
   "duration": 73.5999984741211,
   "effects": [],
   "end": 13.266676839192739,
   "gravity": 4,
   "has_audio": {
    "Points": [
     {
      "co": {
       "X": 1.0,
       "Y": -1.0
      },
      "handle_left": {
       "X": 0.5,
       "Y": 1.0
      },
      "handle_right": {
       "X": 0.5,
       "Y": 0.0
      },
      "handle_type": 0,
      "interpolation": 0
     }
    ]
   },
   "has_video": {
    "Points": [
     {
      "co": {
       "X": 1.0,
       "Y": -1.0
      },
      "handle_left": {
       "X": 0.5,
       "Y": 1.0
      },
      "handle_right": {
       "X": 0.5,
       "Y": 0.0
      },
      "handle_type": 0,
      "interpolation": 0
     }
    ]
   },
   "id": "ETJC5APUAT",
   "layer": 1000000,
   "location_x": {
    "Points": [
     {
      "co": {
       "X": 1.0,
       "Y": 0.0
      },
      "handle_left": {
       "X": 0.5,
       "Y": 1.0
      },
      "handle_right": {
       "X": 0.5,
       "Y": 0.0
      },
      "handle_type": 0,
      "interpolation": 0
     }
    ]
   },
   "location_y": {
    "Points": [
     {
      "co": {
       "X": 1.0,
       "Y": 0.0
      },
      "handle_left": {
       "X": 0.5,
       "Y": 1.0
      },
      "handle_right": {
       "X": 0.5,
       "Y": 0.0
      },
      "handle_type": 0,
      "interpolation": 0
     }
    ]
   },
   "mixing": 0,
   "origin_x": {
    "Points": [
     {
      "co": {
       "X": 1.0,
       "Y": 0.5
      },
      "handle_left": {
       "X": 0.5,
       "Y": 1.0
      },
      "handle_right": {
       "X": 0.5,
       "Y": 0.0
      },
      "handle_type": 0,
      "interpolation": 0
     }
    ]
   },
   "origin_y": {
    "Points": [
     {
      "co": {
       "X": 1.0,
       "Y": 0.5
      },
      "handle_left": {
       "X": 0.5,
       "Y": 1.0
      },
      "handle_right": {
       "X": 0.5,
       "Y": 0.0
      },
      "handle_type": 0,
      "interpolation": 0
     }
    ]
   },
   "parentObjectId": "",
   "perspective_c1_x": {
    "Points": [
     {
      "co": {
       "X": 1.0,
       "Y": -1.0
      },
      "handle_left": {
       "X": 0.5,
       "Y": 1.0
      },
      "handle_right": {
       "X": 0.5,
       "Y": 0.0
      },
      "handle_type": 0,
      "interpolation": 0
     }
    ]
   },
   "perspective_c1_y": {
    "Points": [
     {
      "co": {
       "X": 1.0,
       "Y": -1.0
      },
      "handle_left": {
       "X": 0.5,
       "Y": 1.0
      },
      "handle_right": {
       "X": 0.5,
       "Y": 0.0
      },
      "handle_type": 0,
      "interpolation": 0
     }
    ]
   },
   "perspective_c2_x": {
    "Points": [
     {
      "co": {
       "X": 1.0,
       "Y": -1.0
      },
      "handle_left": {
       "X": 0.5,
       "Y": 1.0
      },
      "handle_right": {
       "X": 0.5,
       "Y": 0.0
      },
      "handle_type": 0,
      "interpolation": 0
     }
    ]
   },
   "perspective_c2_y": {
    "Points": [
     {
      "co": {
       "X": 1.0,
       "Y": -1.0
      },
      "handle_left": {
       "X": 0.5,
       "Y": 1.0
      },
      "handle_right": {
       "X": 0.5,
       "Y": 0.0
      },
      "handle_type": 0,
      "interpolation": 0
     }
    ]
   },
   "perspective_c3_x": {
    "Points": [
     {
      "co": {
       "X": 1.0,
       "Y": -1.0
      },
      "handle_left": {
       "X": 0.5,
       "Y": 1.0
      },
      "handle_right": {
       "X": 0.5,
       "Y": 0.0
      },
      "handle_type": 0,
      "interpolation": 0
     }
    ]
   },
   "perspective_c3_y": {
    "Points": [
     {
      "co": {
       "X": 1.0,
       "Y": -1.0
      },
      "handle_left": {
       "X": 0.5,
       "Y": 1.0
      },
      "handle_right": {
       "X": 0.5,
       "Y": 0.0
      },
      "handle_type": 0,
      "interpolation": 0
     }
    ]
   },
   "perspective_c4_x": {
    "Points": [
     {
      "co": {
       "X": 1.0,
       "Y": -1.0
      },
      "handle_left": {
       "X": 0.5,
       "Y": 1.0
      },
      "handle_right": {
       "X": 0.5,
       "Y": 0.0
      },
      "handle_type": 0,
      "interpolation": 0
     }
    ]
   },
   "perspective_c4_y": {
    "Points": [
     {
      "co": {
       "X": 1.0,
       "Y": -1.0
      },
      "handle_left": {
       "X": 0.5,
       "Y": 1.0
      },
      "handle_right": {
       "X": 0.5,
       "Y": 0.0
      },
      "handle_type": 0,
      "interpolation": 0
     }
    ]
   },
   "position": 125.03333333333333,
   "reader": {
    "acodec": "",
    "audio_bit_rate": 0,
    "audio_stream_index": -1,
    "audio_timebase": {
     "den": 1,
     "num": 1
    },
    "channel_layout": 4,
    "channels": 0,
    "display_ratio": {
     "den": 9,
     "num": 16
    },
    "duration": 73.5999984741211,
    "file_size": "57616868",
    "fps": {
     "den": 1,
     "num": 30
    },
    "has_audio": false,
    "has_single_image": false,
    "has_video": true,
    "height": 1080,
    "interlaced_frame": false,
    "metadata": {
     "comment": "Create videos with https://clipchamp.com/en/video-editor - free online video editor, video compressor, video converter.",
     "compatible_brands": "isomiso2avc1mp41",
     "encoder": "https://clipchamp.com",
     "handler_name": "VideoHandler",
     "language": "und",
     "major_brand": "isom",
     "minor_version": "512"
    },
    "path": "./movie_003_002.mp4",
    "pixel_format": 0,
    "pixel_ratio": {
     "den": 1,
     "num": 1
    },
    "sample_rate": 0,
    "top_field_first": true,
    "type": "FFmpegReader",
    "vcodec": "h264",
    "video_bit_rate": 782837,
    "video_length": "2208",
    "video_stream_index": 0,
    "video_timebase": {
     "den": 15360,
     "num": 1
    },
    "width": 1920,
    "media_type": "video",
    "id": "L20DIPWUJ9"
   },
   "rotation": {
    "Points": [
     {
      "co": {
       "X": 1.0,
       "Y": 0.0
      },
      "handle_left": {
       "X": 0.5,
       "Y": 1.0
      },
      "handle_right": {
       "X": 0.5,
       "Y": 0.0
      },
      "handle_type": 0,
      "interpolation": 0
     }
    ]
   },
   "scale": 1,
   "scale_x": {
    "Points": [
     {
      "co": {
       "X": 1.0,
       "Y": 1.0
      },
      "handle_left": {
       "X": 0.5,
       "Y": 1.0
      },
      "handle_right": {
       "X": 0.5,
       "Y": 0.0
      },
      "handle_type": 0,
      "interpolation": 0
     }
    ]
   },
   "scale_y": {
    "Points": [
     {
      "co": {
       "X": 1.0,
       "Y": 1.0
      },
      "handle_left": {
       "X": 0.5,
       "Y": 1.0
      },
      "handle_right": {
       "X": 0.5,
       "Y": 0.0
      },
      "handle_type": 0,
      "interpolation": 0
     }
    ]
   },
   "shear_x": {
    "Points": [
     {
      "co": {
       "X": 1.0,
       "Y": 0.0
      },
      "handle_left": {
       "X": 0.5,
       "Y": 1.0
      },
      "handle_right": {
       "X": 0.5,
       "Y": 0.0
      },
      "handle_type": 0,
      "interpolation": 0
     }
    ]
   },
   "shear_y": {
    "Points": [
     {
      "co": {
       "X": 1.0,
       "Y": 0.0
      },
      "handle_left": {
       "X": 0.5,
       "Y": 1.0
      },
      "handle_right": {
       "X": 0.5,
       "Y": 0.0
      },
      "handle_type": 0,
      "interpolation": 0
     }
    ]
   },
   "start": 3.5000101725260593,
   "time": {
    "Points": [
     {
      "co": {
       "X": 1.0,
       "Y": 1.0
      },
      "handle_left": {
       "X": 0.5,
       "Y": 1.0
      },
      "handle_right": {
       "X": 0.5,
       "Y": 0.0
      },
      "handle_type": 0,
      "interpolation": 0
     }
    ]
   },
   "volume": {
    "Points": [
     {
      "co": {
       "X": 1.0,
       "Y": 1.0
      },
      "handle_left": {
       "X": 0.5,
       "Y": 1.0
      },
      "handle_right": {
       "X": 0.5,
       "Y": 0.0
      },
      "handle_type": 0,
      "interpolation": 0
     }
    ]
   },
   "wave_color": {
    "alpha": {
     "Points": [
      {
       "co": {
        "X": 1.0,
        "Y": 255.0
       },
       "handle_left": {
        "X": 0.5,
        "Y": 1.0
       },
       "handle_right": {
        "X": 0.5,
        "Y": 0.0
       },
       "handle_type": 0,
       "interpolation": 0
      }
     ]
    },
    "blue": {
     "Points": [
      {
       "co": {
        "X": 1.0,
        "Y": 255.0
       },
       "handle_left": {
        "X": 0.5,
        "Y": 1.0
       },
       "handle_right": {
        "X": 0.5,
        "Y": 0.0
       },
       "handle_type": 0,
       "interpolation": 0
      }
     ]
    },
    "green": {
     "Points": [
      {
       "co": {
        "X": 1.0,
        "Y": 123.0
       },
       "handle_left": {
        "X": 0.5,
        "Y": 1.0
       },
       "handle_right": {
        "X": 0.5,
        "Y": 0.0
       },
       "handle_type": 0,
       "interpolation": 0
      }
     ]
    },
    "red": {
     "Points": [
      {
       "co": {
        "X": 1.0,
        "Y": 0.0
       },
       "handle_left": {
        "X": 0.5,
        "Y": 1.0
       },
       "handle_right": {
        "X": 0.5,
        "Y": 0.0
       },
       "handle_type": 0,
       "interpolation": 0
      }
     ]
    }
   },
   "waveform": false,
   "file_id": "L20DIPWUJ9",
   "title": "movie_003_002.mp4",
   "image": "Tutorial_assets/thumbnail/L20DIPWUJ9.png"
  },
  {
   "alpha": {
    "Points": [
     {
      "co": {
       "X": 1.0,
       "Y": 1.0
      },
      "handle_left": {
       "X": 0.5,
       "Y": 1.0
      },
      "handle_right": {
       "X": 0.5,
       "Y": 0.0
      },
      "handle_type": 0,
      "interpolation": 0
     }
    ]
   },
   "anchor": 0,
   "channel_filter": {
    "Points": [
     {
      "co": {
       "X": 1.0,
       "Y": -1.0
      },
      "handle_left": {
       "X": 0.5,
       "Y": 1.0
      },
      "handle_right": {
       "X": 0.5,
       "Y": 0.0
      },
      "handle_type": 0,
      "interpolation": 0
     }
    ]
   },
   "channel_mapping": {
    "Points": [
     {
      "co": {
       "X": 1.0,
       "Y": -1.0
      },
      "handle_left": {
       "X": 0.5,
       "Y": 1.0
      },
      "handle_right": {
       "X": 0.5,
       "Y": 0.0
      },
      "handle_type": 0,
      "interpolation": 0
     }
    ]
   },
   "display": 0,
   "duration": 86.86666870117188,
   "effects": [],
   "end": 86.86666870117188,
   "gravity": 4,
   "has_audio": {
    "Points": [
     {
      "co": {
       "X": 1.0,
       "Y": -1.0
      },
      "handle_left": {
       "X": 0.5,
       "Y": 1.0
      },
      "handle_right": {
       "X": 0.5,
       "Y": 0.0
      },
      "handle_type": 0,
      "interpolation": 0
     }
    ]
   },
   "has_video": {
    "Points": [
     {
      "co": {
       "X": 1.0,
       "Y": -1.0
      },
      "handle_left": {
       "X": 0.5,
       "Y": 1.0
      },
      "handle_right": {
       "X": 0.5,
       "Y": 0.0
      },
      "handle_type": 0,
      "interpolation": 0
     }
    ]
   },
   "layer": 1000000,
   "location_x": {
    "Points": [
     {
      "co": {
       "X": 1.0,
       "Y": 0.0
      },
      "handle_left": {
       "X": 0.5,
       "Y": 1.0
      },
      "handle_right": {
       "X": 0.5,
       "Y": 0.0
      },
      "handle_type": 0,
      "interpolation": 0
     }
    ]
   },
   "location_y": {
    "Points": [
     {
      "co": {
       "X": 1.0,
       "Y": 0.0
      },
      "handle_left": {
       "X": 0.5,
       "Y": 1.0
      },
      "handle_right": {
       "X": 0.5,
       "Y": 0.0
      },
      "handle_type": 0,
      "interpolation": 0
     }
    ]
   },
   "mixing": 0,
   "origin_x": {
    "Points": [
     {
      "co": {
       "X": 1.0,
       "Y": 0.5
      },
      "handle_left": {
       "X": 0.5,
       "Y": 1.0
      },
      "handle_right": {
       "X": 0.5,
       "Y": 0.0
      },
      "handle_type": 0,
      "interpolation": 0
     }
    ]
   },
   "origin_y": {
    "Points": [
     {
      "co": {
       "X": 1.0,
       "Y": 0.5
      },
      "handle_left": {
       "X": 0.5,
       "Y": 1.0
      },
      "handle_right": {
       "X": 0.5,
       "Y": 0.0
      },
      "handle_type": 0,
      "interpolation": 0
     }
    ]
   },
   "parentObjectId": "",
   "perspective_c1_x": {
    "Points": [
     {
      "co": {
       "X": 1.0,
       "Y": -1.0
      },
      "handle_left": {
       "X": 0.5,
       "Y": 1.0
      },
      "handle_right": {
       "X": 0.5,
       "Y": 0.0
      },
      "handle_type": 0,
      "interpolation": 0
     }
    ]
   },
   "perspective_c1_y": {
    "Points": [
     {
      "co": {
       "X": 1.0,
       "Y": -1.0
      },
      "handle_left": {
       "X": 0.5,
       "Y": 1.0
      },
      "handle_right": {
       "X": 0.5,
       "Y": 0.0
      },
      "handle_type": 0,
      "interpolation": 0
     }
    ]
   },
   "perspective_c2_x": {
    "Points": [
     {
      "co": {
       "X": 1.0,
       "Y": -1.0
      },
      "handle_left": {
       "X": 0.5,
       "Y": 1.0
      },
      "handle_right": {
       "X": 0.5,
       "Y": 0.0
      },
      "handle_type": 0,
      "interpolation": 0
     }
    ]
   },
   "perspective_c2_y": {
    "Points": [
     {
      "co": {
       "X": 1.0,
       "Y": -1.0
      },
      "handle_left": {
       "X": 0.5,
       "Y": 1.0
      },
      "handle_right": {
       "X": 0.5,
       "Y": 0.0
      },
      "handle_type": 0,
      "interpolation": 0
     }
    ]
   },
   "perspective_c3_x": {
    "Points": [
     {
      "co": {
       "X": 1.0,
       "Y": -1.0
      },
      "handle_left": {
       "X": 0.5,
       "Y": 1.0
      },
      "handle_right": {
       "X": 0.5,
       "Y": 0.0
      },
      "handle_type": 0,
      "interpolation": 0
     }
    ]
   },
   "perspective_c3_y": {
    "Points": [
     {
      "co": {
       "X": 1.0,
       "Y": -1.0
      },
      "handle_left": {
       "X": 0.5,
       "Y": 1.0
      },
      "handle_right": {
       "X": 0.5,
       "Y": 0.0
      },
      "handle_type": 0,
      "interpolation": 0
     }
    ]
   },
   "perspective_c4_x": {
    "Points": [
     {
      "co": {
       "X": 1.0,
       "Y": -1.0
      },
      "handle_left": {
       "X": 0.5,
       "Y": 1.0
      },
      "handle_right": {
       "X": 0.5,
       "Y": 0.0
      },
      "handle_type": 0,
      "interpolation": 0
     }
    ]
   },
   "perspective_c4_y": {
    "Points": [
     {
      "co": {
       "X": 1.0,
       "Y": -1.0
      },
      "handle_left": {
       "X": 0.5,
       "Y": 1.0
      },
      "handle_right": {
       "X": 0.5,
       "Y": 0.0
      },
      "handle_type": 0,
      "interpolation": 0
     }
    ]
   },
   "position": 110.5,
   "reader": {
    "acodec": "",
    "audio_bit_rate": 0,
    "audio_stream_index": -1,
    "audio_timebase": {
     "den": 1,
     "num": 1
    },
    "channel_layout": 4,
    "channels": 0,
    "display_ratio": {
     "den": 9,
     "num": 16
    },
    "duration": 86.86666870117188,
    "file_size": "101829535",
    "fps": {
     "den": 1,
     "num": 30
    },
    "has_audio": false,
    "has_single_image": false,
    "has_video": true,
    "height": 1080,
    "interlaced_frame": false,
    "metadata": {
     "comment": "Create videos with https://clipchamp.com/en/video-editor - free online video editor, video compressor, video converter.",
     "compatible_brands": "isomiso2avc1mp41",
     "encoder": "https://clipchamp.com",
     "handler_name": "VideoHandler",
     "language": "und",
     "major_brand": "isom",
     "minor_version": "512"
    },
    "path": "./movie_003_001.mp4",
    "pixel_format": 0,
    "pixel_ratio": {
     "den": 1,
     "num": 1
    },
    "sample_rate": 0,
    "top_field_first": true,
    "type": "FFmpegReader",
    "vcodec": "h264",
    "video_bit_rate": 1172246,
    "video_length": "2606",
    "video_stream_index": 0,
    "video_timebase": {
     "den": 15360,
     "num": 1
    },
    "width": 1920,
    "media_type": "video",
    "id": "OA9LAYW3S1"
   },
   "rotation": {
    "Points": [
     {
      "co": {
       "X": 1.0,
       "Y": 0.0
      },
      "handle_left": {
       "X": 0.5,
       "Y": 1.0
      },
      "handle_right": {
       "X": 0.5,
       "Y": 0.0
      },
      "handle_type": 0,
      "interpolation": 0
     }
    ]
   },
   "scale": 1,
   "scale_x": {
    "Points": [
     {
      "co": {
       "X": 1.0,
       "Y": 1.0
      },
      "handle_left": {
       "X": 0.5,
       "Y": 1.0
      },
      "handle_right": {
       "X": 0.5,
       "Y": 0.0
      },
      "handle_type": 0,
      "interpolation": 0
     }
    ]
   },
   "scale_y": {
    "Points": [
     {
      "co": {
       "X": 1.0,
       "Y": 1.0
      },
      "handle_left": {
       "X": 0.5,
       "Y": 1.0
      },
      "handle_right": {
       "X": 0.5,
       "Y": 0.0
      },
      "handle_type": 0,
      "interpolation": 0
     }
    ]
   },
   "shear_x": {
    "Points": [
     {
      "co": {
       "X": 1.0,
       "Y": 0.0
      },
      "handle_left": {
       "X": 0.5,
       "Y": 1.0
      },
      "handle_right": {
       "X": 0.5,
       "Y": 0.0
      },
      "handle_type": 0,
      "interpolation": 0
     }
    ]
   },
   "shear_y": {
    "Points": [
     {
      "co": {
       "X": 1.0,
       "Y": 0.0
      },
      "handle_left": {
       "X": 0.5,
       "Y": 1.0
      },
      "handle_right": {
       "X": 0.5,
       "Y": 0.0
      },
      "handle_type": 0,
      "interpolation": 0
     }
    ]
   },
   "start": 70.90333333333334,
   "time": {
    "Points": [
     {
      "co": {
       "X": 1.0,
       "Y": 1.0
      },
      "handle_left": {
       "X": 0.5,
       "Y": 1.0
      },
      "handle_right": {
       "X": 0.5,
       "Y": 0.0
      },
      "handle_type": 0,
      "interpolation": 0
     }
    ]
   },
   "volume": {
    "Points": [
     {
      "co": {
       "X": 1.0,
       "Y": 1.0
      },
      "handle_left": {
       "X": 0.5,
       "Y": 1.0
      },
      "handle_right": {
       "X": 0.5,
       "Y": 0.0
      },
      "handle_type": 0,
      "interpolation": 0
     }
    ]
   },
   "wave_color": {
    "alpha": {
     "Points": [
      {
       "co": {
        "X": 1.0,
        "Y": 255.0
       },
       "handle_left": {
        "X": 0.5,
        "Y": 1.0
       },
       "handle_right": {
        "X": 0.5,
        "Y": 0.0
       },
       "handle_type": 0,
       "interpolation": 0
      }
     ]
    },
    "blue": {
     "Points": [
      {
       "co": {
        "X": 1.0,
        "Y": 255.0
       },
       "handle_left": {
        "X": 0.5,
        "Y": 1.0
       },
       "handle_right": {
        "X": 0.5,
        "Y": 0.0
       },
       "handle_type": 0,
       "interpolation": 0
      }
     ]
    },
    "green": {
     "Points": [
      {
       "co": {
        "X": 1.0,
        "Y": 123.0
       },
       "handle_left": {
        "X": 0.5,
        "Y": 1.0
       },
       "handle_right": {
        "X": 0.5,
        "Y": 0.0
       },
       "handle_type": 0,
       "interpolation": 0
      }
     ]
    },
    "red": {
     "Points": [
      {
       "co": {
        "X": 1.0,
        "Y": 0.0
       },
       "handle_left": {
        "X": 0.5,
        "Y": 1.0
       },
       "handle_right": {
        "X": 0.5,
        "Y": 0.0
       },
       "handle_type": 0,
       "interpolation": 0
      }
     ]
    }
   },
   "waveform": false,
   "file_id": "OA9LAYW3S1",
   "title": "movie_003_001.mp4",
   "image": "Tutorial_assets/thumbnail/OA9LAYW3S1.png",
   "id": "APRXKMXVRV"
  },
  {
   "alpha": {
    "Points": [
     {
      "co": {
       "X": 1.0,
       "Y": 1.0
      },
      "handle_left": {
       "X": 0.5,
       "Y": 1.0
      },
      "handle_right": {
       "X": 0.5,
       "Y": 0.0
      },
      "handle_type": 0,
      "interpolation": 0
     }
    ]
   },
   "anchor": 0,
   "channel_filter": {
    "Points": [
     {
      "co": {
       "X": 1.0,
       "Y": -1.0
      },
      "handle_left": {
       "X": 0.5,
       "Y": 1.0
      },
      "handle_right": {
       "X": 0.5,
       "Y": 0.0
      },
      "handle_type": 0,
      "interpolation": 0
     }
    ]
   },
   "channel_mapping": {
    "Points": [
     {
      "co": {
       "X": 1.0,
       "Y": -1.0
      },
      "handle_left": {
       "X": 0.5,
       "Y": 1.0
      },
      "handle_right": {
       "X": 0.5,
       "Y": 0.0
      },
      "handle_type": 0,
      "interpolation": 0
     }
    ]
   },
   "display": 0,
   "duration": 73.5999984741211,
   "effects": [],
   "end": 28.53334350585942,
   "gravity": 4,
   "has_audio": {
    "Points": [
     {
      "co": {
       "X": 1.0,
       "Y": -1.0
      },
      "handle_left": {
       "X": 0.5,
       "Y": 1.0
      },
      "handle_right": {
       "X": 0.5,
       "Y": 0.0
      },
      "handle_type": 0,
      "interpolation": 0
     }
    ]
   },
   "has_video": {
    "Points": [
     {
      "co": {
       "X": 1.0,
       "Y": -1.0
      },
      "handle_left": {
       "X": 0.5,
       "Y": 1.0
      },
      "handle_right": {
       "X": 0.5,
       "Y": 0.0
      },
      "handle_type": 0,
      "interpolation": 0
     }
    ]
   },
   "layer": 1000000,
   "location_x": {
    "Points": [
     {
      "co": {
       "X": 1.0,
       "Y": 0.0
      },
      "handle_left": {
       "X": 0.5,
       "Y": 1.0
      },
      "handle_right": {
       "X": 0.5,
       "Y": 0.0
      },
      "handle_type": 0,
      "interpolation": 0
     }
    ]
   },
   "location_y": {
    "Points": [
     {
      "co": {
       "X": 1.0,
       "Y": 0.0
      },
      "handle_left": {
       "X": 0.5,
       "Y": 1.0
      },
      "handle_right": {
       "X": 0.5,
       "Y": 0.0
      },
      "handle_type": 0,
      "interpolation": 0
     }
    ]
   },
   "mixing": 0,
   "origin_x": {
    "Points": [
     {
      "co": {
       "X": 1.0,
       "Y": 0.5
      },
      "handle_left": {
       "X": 0.5,
       "Y": 1.0
      },
      "handle_right": {
       "X": 0.5,
       "Y": 0.0
      },
      "handle_type": 0,
      "interpolation": 0
     }
    ]
   },
   "origin_y": {
    "Points": [
     {
      "co": {
       "X": 1.0,
       "Y": 0.5
      },
      "handle_left": {
       "X": 0.5,
       "Y": 1.0
      },
      "handle_right": {
       "X": 0.5,
       "Y": 0.0
      },
      "handle_type": 0,
      "interpolation": 0
     }
    ]
   },
   "parentObjectId": "",
   "perspective_c1_x": {
    "Points": [
     {
      "co": {
       "X": 1.0,
       "Y": -1.0
      },
      "handle_left": {
       "X": 0.5,
       "Y": 1.0
      },
      "handle_right": {
       "X": 0.5,
       "Y": 0.0
      },
      "handle_type": 0,
      "interpolation": 0
     }
    ]
   },
   "perspective_c1_y": {
    "Points": [
     {
      "co": {
       "X": 1.0,
       "Y": -1.0
      },
      "handle_left": {
       "X": 0.5,
       "Y": 1.0
      },
      "handle_right": {
       "X": 0.5,
       "Y": 0.0
      },
      "handle_type": 0,
      "interpolation": 0
     }
    ]
   },
   "perspective_c2_x": {
    "Points": [
     {
      "co": {
       "X": 1.0,
       "Y": -1.0
      },
      "handle_left": {
       "X": 0.5,
       "Y": 1.0
      },
      "handle_right": {
       "X": 0.5,
       "Y": 0.0
      },
      "handle_type": 0,
      "interpolation": 0
     }
    ]
   },
   "perspective_c2_y": {
    "Points": [
     {
      "co": {
       "X": 1.0,
       "Y": -1.0
      },
      "handle_left": {
       "X": 0.5,
       "Y": 1.0
      },
      "handle_right": {
       "X": 0.5,
       "Y": 0.0
      },
      "handle_type": 0,
      "interpolation": 0
     }
    ]
   },
   "perspective_c3_x": {
    "Points": [
     {
      "co": {
       "X": 1.0,
       "Y": -1.0
      },
      "handle_left": {
       "X": 0.5,
       "Y": 1.0
      },
      "handle_right": {
       "X": 0.5,
       "Y": 0.0
      },
      "handle_type": 0,
      "interpolation": 0
     }
    ]
   },
   "perspective_c3_y": {
    "Points": [
     {
      "co": {
       "X": 1.0,
       "Y": -1.0
      },
      "handle_left": {
       "X": 0.5,
       "Y": 1.0
      },
      "handle_right": {
       "X": 0.5,
       "Y": 0.0
      },
      "handle_type": 0,
      "interpolation": 0
     }
    ]
   },
   "perspective_c4_x": {
    "Points": [
     {
      "co": {
       "X": 1.0,
       "Y": -1.0
      },
      "handle_left": {
       "X": 0.5,
       "Y": 1.0
      },
      "handle_right": {
       "X": 0.5,
       "Y": 0.0
      },
      "handle_type": 0,
      "interpolation": 0
     }
    ]
   },
   "perspective_c4_y": {
    "Points": [
     {
      "co": {
       "X": 1.0,
       "Y": -1.0
      },
      "handle_left": {
       "X": 0.5,
       "Y": 1.0
      },
      "handle_right": {
       "X": 0.5,
       "Y": 0.0
      },
      "handle_type": 0,
      "interpolation": 0
     }
    ]
   },
   "position": 133.53333333333333,
   "reader": {
    "acodec": "",
    "audio_bit_rate": 0,
    "audio_stream_index": -1,
    "audio_timebase": {
     "den": 1,
     "num": 1
    },
    "channel_layout": 4,
    "channels": 0,
    "display_ratio": {
     "den": 9,
     "num": 16
    },
    "duration": 73.5999984741211,
    "file_size": "57616868",
    "fps": {
     "den": 1,
     "num": 30
    },
    "has_audio": false,
    "has_single_image": false,
    "has_video": true,
    "height": 1080,
    "interlaced_frame": false,
    "metadata": {
     "comment": "Create videos with https://clipchamp.com/en/video-editor - free online video editor, video compressor, video converter.",
     "compatible_brands": "isomiso2avc1mp41",
     "encoder": "https://clipchamp.com",
     "handler_name": "VideoHandler",
     "language": "und",
     "major_brand": "isom",
     "minor_version": "512"
    },
    "path": "./movie_003_002.mp4",
    "pixel_format": 0,
    "pixel_ratio": {
     "den": 1,
     "num": 1
    },
    "sample_rate": 0,
    "top_field_first": true,
    "type": "FFmpegReader",
    "vcodec": "h264",
    "video_bit_rate": 782837,
    "video_length": "2208",
    "video_stream_index": 0,
    "video_timebase": {
     "den": 15360,
     "num": 1
    },
    "width": 1920,
    "media_type": "video",
    "id": "L20DIPWUJ9"
   },
   "rotation": {
    "Points": [
     {
      "co": {
       "X": 1.0,
       "Y": 0.0
      },
      "handle_left": {
       "X": 0.5,
       "Y": 1.0
      },
      "handle_right": {
       "X": 0.5,
       "Y": 0.0
      },
      "handle_type": 0,
      "interpolation": 0
     }
    ]
   },
   "scale": 1,
   "scale_x": {
    "Points": [
     {
      "co": {
       "X": 1.0,
       "Y": 1.0
      },
      "handle_left": {
       "X": 0.5,
       "Y": 1.0
      },
      "handle_right": {
       "X": 0.5,
       "Y": 0.0
      },
      "handle_type": 0,
      "interpolation": 0
     }
    ]
   },
   "scale_y": {
    "Points": [
     {
      "co": {
       "X": 1.0,
       "Y": 1.0
      },
      "handle_left": {
       "X": 0.5,
       "Y": 1.0
      },
      "handle_right": {
       "X": 0.5,
       "Y": 0.0
      },
      "handle_type": 0,
      "interpolation": 0
     }
    ]
   },
   "shear_x": {
    "Points": [
     {
      "co": {
       "X": 1.0,
       "Y": 0.0
      },
      "handle_left": {
       "X": 0.5,
       "Y": 1.0
      },
      "handle_right": {
       "X": 0.5,
       "Y": 0.0
      },
      "handle_type": 0,
      "interpolation": 0
     }
    ]
   },
   "shear_y": {
    "Points": [
     {
      "co": {
       "X": 1.0,
       "Y": 0.0
      },
      "handle_left": {
       "X": 0.5,
       "Y": 1.0
      },
      "handle_right": {
       "X": 0.5,
       "Y": 0.0
      },
      "handle_type": 0,
      "interpolation": 0
     }
    ]
   },
   "start": 17.26667683919274,
   "time": {
    "Points": [
     {
      "co": {
       "X": 1.0,
       "Y": 1.0
      },
      "handle_left": {
       "X": 0.5,
       "Y": 1.0
      },
      "handle_right": {
       "X": 0.5,
       "Y": 0.0
      },
      "handle_type": 0,
      "interpolation": 0
     }
    ]
   },
   "volume": {
    "Points": [
     {
      "co": {
       "X": 1.0,
       "Y": 1.0
      },
      "handle_left": {
       "X": 0.5,
       "Y": 1.0
      },
      "handle_right": {
       "X": 0.5,
       "Y": 0.0
      },
      "handle_type": 0,
      "interpolation": 0
     }
    ]
   },
   "wave_color": {
    "alpha": {
     "Points": [
      {
       "co": {
        "X": 1.0,
        "Y": 255.0
       },
       "handle_left": {
        "X": 0.5,
        "Y": 1.0
       },
       "handle_right": {
        "X": 0.5,
        "Y": 0.0
       },
       "handle_type": 0,
       "interpolation": 0
      }
     ]
    },
    "blue": {
     "Points": [
      {
       "co": {
        "X": 1.0,
        "Y": 255.0
       },
       "handle_left": {
        "X": 0.5,
        "Y": 1.0
       },
       "handle_right": {
        "X": 0.5,
        "Y": 0.0
       },
       "handle_type": 0,
       "interpolation": 0
      }
     ]
    },
    "green": {
     "Points": [
      {
       "co": {
        "X": 1.0,
        "Y": 123.0
       },
       "handle_left": {
        "X": 0.5,
        "Y": 1.0
       },
       "handle_right": {
        "X": 0.5,
        "Y": 0.0
       },
       "handle_type": 0,
       "interpolation": 0
      }
     ]
    },
    "red": {
     "Points": [
      {
       "co": {
        "X": 1.0,
        "Y": 0.0
       },
       "handle_left": {
        "X": 0.5,
        "Y": 1.0
       },
       "handle_right": {
        "X": 0.5,
        "Y": 0.0
       },
       "handle_type": 0,
       "interpolation": 0
      }
     ]
    }
   },
   "waveform": false,
   "file_id": "L20DIPWUJ9",
   "title": "movie_003_002.mp4",
   "image": "Tutorial_assets/thumbnail/L20DIPWUJ9.png",
   "id": "ZUHLIQ0LRR"
  },
  {
   "alpha": {
    "Points": [
     {
      "co": {
       "X": 1.0,
       "Y": 1.0
      },
      "handle_left": {
       "X": 0.5,
       "Y": 1.0
      },
      "handle_right": {
       "X": 0.5,
       "Y": 0.0
      },
      "handle_type": 0,
      "interpolation": 0
     }
    ]
   },
   "anchor": 0,
   "channel_filter": {
    "Points": [
     {
      "co": {
       "X": 1.0,
       "Y": -1.0
      },
      "handle_left": {
       "X": 0.5,
       "Y": 1.0
      },
      "handle_right": {
       "X": 0.5,
       "Y": 0.0
      },
      "handle_type": 0,
      "interpolation": 0
     }
    ]
   },
   "channel_mapping": {
    "Points": [
     {
      "co": {
       "X": 1.0,
       "Y": -1.0
      },
      "handle_left": {
       "X": 0.5,
       "Y": 1.0
      },
      "handle_right": {
       "X": 0.5,
       "Y": 0.0
      },
      "handle_type": 0,
      "interpolation": 0
     }
    ]
   },
   "display": 0,
   "duration": 3600.0,
   "effects": [],
   "end": 10,
   "gravity": 4,
   "has_audio": {
    "Points": [
     {
      "co": {
       "X": 1.0,
       "Y": -1.0
      },
      "handle_left": {
       "X": 0.5,
       "Y": 1.0
      },
      "handle_right": {
       "X": 0.5,
       "Y": 0.0
      },
      "handle_type": 0,
      "interpolation": 0
     }
    ]
   },
   "has_video": {
    "Points": [
     {
      "co": {
       "X": 1.0,
       "Y": -1.0
      },
      "handle_left": {
       "X": 0.5,
       "Y": 1.0
      },
      "handle_right": {
       "X": 0.5,
       "Y": 0.0
      },
      "handle_type": 0,
      "interpolation": 0
     }
    ]
   },
   "id": "TBN8KF80DS",
   "layer": 4000000,
   "location_x": {
    "Points": [
     {
      "co": {
       "X": 1,
       "Y": -0.29812605453106167
      },
      "handle_left": {
       "X": 0.5,
       "Y": 1.0
      },
      "handle_right": {
       "X": 0.5,
       "Y": 0.0
      },
      "handle_type": 0,
      "interpolation": 0
     }
    ]
   },
   "location_y": {
    "Points": [
     {
      "co": {
       "X": 1,
       "Y": -0.3530302062179103
      },
      "handle_left": {
       "X": 0.5,
       "Y": 1.0
      },
      "handle_right": {
       "X": 0.5,
       "Y": 0.0
      },
      "handle_type": 0,
      "interpolation": 0
     }
    ]
   },
   "mixing": 0,
   "origin_x": {
    "Points": [
     {
      "co": {
       "X": 1.0,
       "Y": 0.5
      },
      "handle_left": {
       "X": 0.5,
       "Y": 1.0
      },
      "handle_right": {
       "X": 0.5,
       "Y": 0.0
      },
      "handle_type": 0,
      "interpolation": 0
     }
    ]
   },
   "origin_y": {
    "Points": [
     {
      "co": {
       "X": 1.0,
       "Y": 0.5
      },
      "handle_left": {
       "X": 0.5,
       "Y": 1.0
      },
      "handle_right": {
       "X": 0.5,
       "Y": 0.0
      },
      "handle_type": 0,
      "interpolation": 0
     }
    ]
   },
   "parentObjectId": "",
   "perspective_c1_x": {
    "Points": [
     {
      "co": {
       "X": 1.0,
       "Y": -1.0
      },
      "handle_left": {
       "X": 0.5,
       "Y": 1.0
      },
      "handle_right": {
       "X": 0.5,
       "Y": 0.0
      },
      "handle_type": 0,
      "interpolation": 0
     }
    ]
   },
   "perspective_c1_y": {
    "Points": [
     {
      "co": {
       "X": 1.0,
       "Y": -1.0
      },
      "handle_left": {
       "X": 0.5,
       "Y": 1.0
      },
      "handle_right": {
       "X": 0.5,
       "Y": 0.0
      },
      "handle_type": 0,
      "interpolation": 0
     }
    ]
   },
   "perspective_c2_x": {
    "Points": [
     {
      "co": {
       "X": 1.0,
       "Y": -1.0
      },
      "handle_left": {
       "X": 0.5,
       "Y": 1.0
      },
      "handle_right": {
       "X": 0.5,
       "Y": 0.0
      },
      "handle_type": 0,
      "interpolation": 0
     }
    ]
   },
   "perspective_c2_y": {
    "Points": [
     {
      "co": {
       "X": 1.0,
       "Y": -1.0
      },
      "handle_left": {
       "X": 0.5,
       "Y": 1.0
      },
      "handle_right": {
       "X": 0.5,
       "Y": 0.0
      },
      "handle_type": 0,
      "interpolation": 0
     }
    ]
   },
   "perspective_c3_x": {
    "Points": [
     {
      "co": {
       "X": 1.0,
       "Y": -1.0
      },
      "handle_left": {
       "X": 0.5,
       "Y": 1.0
      },
      "handle_right": {
       "X": 0.5,
       "Y": 0.0
      },
      "handle_type": 0,
      "interpolation": 0
     }
    ]
   },
   "perspective_c3_y": {
    "Points": [
     {
      "co": {
       "X": 1.0,
       "Y": -1.0
      },
      "handle_left": {
       "X": 0.5,
       "Y": 1.0
      },
      "handle_right": {
       "X": 0.5,
       "Y": 0.0
      },
      "handle_type": 0,
      "interpolation": 0
     }
    ]
   },
   "perspective_c4_x": {
    "Points": [
     {
      "co": {
       "X": 1.0,
       "Y": -1.0
      },
      "handle_left": {
       "X": 0.5,
       "Y": 1.0
      },
      "handle_right": {
       "X": 0.5,
       "Y": 0.0
      },
      "handle_type": 0,
      "interpolation": 0
     }
    ]
   },
   "perspective_c4_y": {
    "Points": [
     {
      "co": {
       "X": 1.0,
       "Y": -1.0
      },
      "handle_left": {
       "X": 0.5,
       "Y": 1.0
      },
      "handle_right": {
       "X": 0.5,
       "Y": 0.0
      },
      "handle_type": 0,
      "interpolation": 0
     }
    ]
   },
   "position": 133.56666666666666,
   "reader": {
    "acodec": "",
    "audio_bit_rate": 0,
    "audio_stream_index": -1,
    "audio_timebase": {
     "den": 1,
     "num": 1
    },
    "channel_layout": 4,
    "channels": 0,
    "display_ratio": {
     "den": 593,
     "num": 1720
    },
    "duration": 3600.0,
    "file_size": "4079840",
    "fps": {
     "den": 1,
     "num": 30
    },
    "has_audio": false,
    "has_single_image": true,
    "has_video": true,
    "height": 593,
    "interlaced_frame": false,
    "metadata": {},
    "path": "./drawing21.png",
    "pixel_format": -1,
    "pixel_ratio": {
     "den": 1,
     "num": 1
    },
    "sample_rate": 0,
    "top_field_first": true,
    "type": "QtImageReader",
    "vcodec": "",
    "video_bit_rate": 0,
    "video_length": "108000",
    "video_stream_index": -1,
    "video_timebase": {
     "den": 30,
     "num": 1
    },
    "width": 1720,
    "media_type": "image",
    "id": "N9SC9AW7A9"
   },
   "rotation": {
    "Points": [
     {
      "co": {
       "X": 1.0,
       "Y": 0.0
      },
      "handle_left": {
       "X": 0.5,
       "Y": 1.0
      },
      "handle_right": {
       "X": 0.5,
       "Y": 0.0
      },
      "handle_type": 0,
      "interpolation": 0
     }
    ]
   },
   "scale": 1,
   "scale_x": {
    "Points": [
     {
      "co": {
       "X": 1,
       "Y": 0.3696760788077593
      },
      "handle_left": {
       "X": 0.5,
       "Y": 1.0
      },
      "handle_right": {
       "X": 0.5,
       "Y": 0.0
      },
      "handle_type": 0,
      "interpolation": 0
     }
    ]
   },
   "scale_y": {
    "Points": [
     {
      "co": {
       "X": 1,
       "Y": 0.3696760788077593
      },
      "handle_left": {
       "X": 0.5,
       "Y": 1.0
      },
      "handle_right": {
       "X": 0.5,
       "Y": 0.0
      },
      "handle_type": 0,
      "interpolation": 0
     }
    ]
   },
   "shear_x": {
    "Points": [
     {
      "co": {
       "X": 1.0,
       "Y": 0.0
      },
      "handle_left": {
       "X": 0.5,
       "Y": 1.0
      },
      "handle_right": {
       "X": 0.5,
       "Y": 0.0
      },
      "handle_type": 0,
      "interpolation": 0
     }
    ]
   },
   "shear_y": {
    "Points": [
     {
      "co": {
       "X": 1.0,
       "Y": 0.0
      },
      "handle_left": {
       "X": 0.5,
       "Y": 1.0
      },
      "handle_right": {
       "X": 0.5,
       "Y": 0.0
      },
      "handle_type": 0,
      "interpolation": 0
     }
    ]
   },
   "start": 0,
   "time": {
    "Points": [
     {
      "co": {
       "X": 1.0,
       "Y": 1.0
      },
      "handle_left": {
       "X": 0.5,
       "Y": 1.0
      },
      "handle_right": {
       "X": 0.5,
       "Y": 0.0
      },
      "handle_type": 0,
      "interpolation": 0
     }
    ]
   },
   "volume": {
    "Points": [
     {
      "co": {
       "X": 1.0,
       "Y": 1.0
      },
      "handle_left": {
       "X": 0.5,
       "Y": 1.0
      },
      "handle_right": {
       "X": 0.5,
       "Y": 0.0
      },
      "handle_type": 0,
      "interpolation": 0
     }
    ]
   },
   "wave_color": {
    "alpha": {
     "Points": [
      {
       "co": {
        "X": 1.0,
        "Y": 255.0
       },
       "handle_left": {
        "X": 0.5,
        "Y": 1.0
       },
       "handle_right": {
        "X": 0.5,
        "Y": 0.0
       },
       "handle_type": 0,
       "interpolation": 0
      }
     ]
    },
    "blue": {
     "Points": [
      {
       "co": {
        "X": 1.0,
        "Y": 255.0
       },
       "handle_left": {
        "X": 0.5,
        "Y": 1.0
       },
       "handle_right": {
        "X": 0.5,
        "Y": 0.0
       },
       "handle_type": 0,
       "interpolation": 0
      }
     ]
    },
    "green": {
     "Points": [
      {
       "co": {
        "X": 1.0,
        "Y": 123.0
       },
       "handle_left": {
        "X": 0.5,
        "Y": 1.0
       },
       "handle_right": {
        "X": 0.5,
        "Y": 0.0
       },
       "handle_type": 0,
       "interpolation": 0
      }
     ]
    },
    "red": {
     "Points": [
      {
       "co": {
        "X": 1.0,
        "Y": 0.0
       },
       "handle_left": {
        "X": 0.5,
        "Y": 1.0
       },
       "handle_right": {
        "X": 0.5,
        "Y": 0.0
       },
       "handle_type": 0,
       "interpolation": 0
      }
     ]
    }
   },
   "waveform": false,
   "file_id": "N9SC9AW7A9",
   "title": "drawing21.png",
   "image": "Tutorial_assets/thumbnail/N9SC9AW7A9.png"
  },
  {
   "alpha": {
    "Points": [
     {
      "co": {
       "X": 1.0,
       "Y": 1.0
      },
      "handle_left": {
       "X": 0.5,
       "Y": 1.0
      },
      "handle_right": {
       "X": 0.5,
       "Y": 0.0
      },
      "handle_type": 0,
      "interpolation": 0
     }
    ]
   },
   "anchor": 0,
   "channel_filter": {
    "Points": [
     {
      "co": {
       "X": 1.0,
       "Y": -1.0
      },
      "handle_left": {
       "X": 0.5,
       "Y": 1.0
      },
      "handle_right": {
       "X": 0.5,
       "Y": 0.0
      },
      "handle_type": 0,
      "interpolation": 0
     }
    ]
   },
   "channel_mapping": {
    "Points": [
     {
      "co": {
       "X": 1.0,
       "Y": -1.0
      },
      "handle_left": {
       "X": 0.5,
       "Y": 1.0
      },
      "handle_right": {
       "X": 0.5,
       "Y": 0.0
      },
      "handle_type": 0,
      "interpolation": 0
     }
    ]
   },
   "display": 0,
   "duration": 73.5999984741211,
   "effects": [],
   "end": 40.60001017252608,
   "gravity": 4,
   "has_audio": {
    "Points": [
     {
      "co": {
       "X": 1.0,
       "Y": -1.0
      },
      "handle_left": {
       "X": 0.5,
       "Y": 1.0
      },
      "handle_right": {
       "X": 0.5,
       "Y": 0.0
      },
      "handle_type": 0,
      "interpolation": 0
     }
    ]
   },
   "has_video": {
    "Points": [
     {
      "co": {
       "X": 1.0,
       "Y": -1.0
      },
      "handle_left": {
       "X": 0.5,
       "Y": 1.0
      },
      "handle_right": {
       "X": 0.5,
       "Y": 0.0
      },
      "handle_type": 0,
      "interpolation": 0
     }
    ]
   },
   "layer": 1000000,
   "location_x": {
    "Points": [
     {
      "co": {
       "X": 1.0,
       "Y": 0.0
      },
      "handle_left": {
       "X": 0.5,
       "Y": 1.0
      },
      "handle_right": {
       "X": 0.5,
       "Y": 0.0
      },
      "handle_type": 0,
      "interpolation": 0
     }
    ]
   },
   "location_y": {
    "Points": [
     {
      "co": {
       "X": 1.0,
       "Y": 0.0
      },
      "handle_left": {
       "X": 0.5,
       "Y": 1.0
      },
      "handle_right": {
       "X": 0.5,
       "Y": 0.0
      },
      "handle_type": 0,
      "interpolation": 0
     }
    ]
   },
   "mixing": 0,
   "origin_x": {
    "Points": [
     {
      "co": {
       "X": 1.0,
       "Y": 0.5
      },
      "handle_left": {
       "X": 0.5,
       "Y": 1.0
      },
      "handle_right": {
       "X": 0.5,
       "Y": 0.0
      },
      "handle_type": 0,
      "interpolation": 0
     }
    ]
   },
   "origin_y": {
    "Points": [
     {
      "co": {
       "X": 1.0,
       "Y": 0.5
      },
      "handle_left": {
       "X": 0.5,
       "Y": 1.0
      },
      "handle_right": {
       "X": 0.5,
       "Y": 0.0
      },
      "handle_type": 0,
      "interpolation": 0
     }
    ]
   },
   "parentObjectId": "",
   "perspective_c1_x": {
    "Points": [
     {
      "co": {
       "X": 1.0,
       "Y": -1.0
      },
      "handle_left": {
       "X": 0.5,
       "Y": 1.0
      },
      "handle_right": {
       "X": 0.5,
       "Y": 0.0
      },
      "handle_type": 0,
      "interpolation": 0
     }
    ]
   },
   "perspective_c1_y": {
    "Points": [
     {
      "co": {
       "X": 1.0,
       "Y": -1.0
      },
      "handle_left": {
       "X": 0.5,
       "Y": 1.0
      },
      "handle_right": {
       "X": 0.5,
       "Y": 0.0
      },
      "handle_type": 0,
      "interpolation": 0
     }
    ]
   },
   "perspective_c2_x": {
    "Points": [
     {
      "co": {
       "X": 1.0,
       "Y": -1.0
      },
      "handle_left": {
       "X": 0.5,
       "Y": 1.0
      },
      "handle_right": {
       "X": 0.5,
       "Y": 0.0
      },
      "handle_type": 0,
      "interpolation": 0
     }
    ]
   },
   "perspective_c2_y": {
    "Points": [
     {
      "co": {
       "X": 1.0,
       "Y": -1.0
      },
      "handle_left": {
       "X": 0.5,
       "Y": 1.0
      },
      "handle_right": {
       "X": 0.5,
       "Y": 0.0
      },
      "handle_type": 0,
      "interpolation": 0
     }
    ]
   },
   "perspective_c3_x": {
    "Points": [
     {
      "co": {
       "X": 1.0,
       "Y": -1.0
      },
      "handle_left": {
       "X": 0.5,
       "Y": 1.0
      },
      "handle_right": {
       "X": 0.5,
       "Y": 0.0
      },
      "handle_type": 0,
      "interpolation": 0
     }
    ]
   },
   "perspective_c3_y": {
    "Points": [
     {
      "co": {
       "X": 1.0,
       "Y": -1.0
      },
      "handle_left": {
       "X": 0.5,
       "Y": 1.0
      },
      "handle_right": {
       "X": 0.5,
       "Y": 0.0
      },
      "handle_type": 0,
      "interpolation": 0
     }
    ]
   },
   "perspective_c4_x": {
    "Points": [
     {
      "co": {
       "X": 1.0,
       "Y": -1.0
      },
      "handle_left": {
       "X": 0.5,
       "Y": 1.0
      },
      "handle_right": {
       "X": 0.5,
       "Y": 0.0
      },
      "handle_type": 0,
      "interpolation": 0
     }
    ]
   },
   "perspective_c4_y": {
    "Points": [
     {
      "co": {
       "X": 1.0,
       "Y": -1.0
      },
      "handle_left": {
       "X": 0.5,
       "Y": 1.0
      },
      "handle_right": {
       "X": 0.5,
       "Y": 0.0
      },
      "handle_type": 0,
      "interpolation": 0
     }
    ]
   },
   "position": 143.56666666666666,
   "reader": {
    "acodec": "",
    "audio_bit_rate": 0,
    "audio_stream_index": -1,
    "audio_timebase": {
     "den": 1,
     "num": 1
    },
    "channel_layout": 4,
    "channels": 0,
    "display_ratio": {
     "den": 9,
     "num": 16
    },
    "duration": 73.5999984741211,
    "file_size": "57616868",
    "fps": {
     "den": 1,
     "num": 30
    },
    "has_audio": false,
    "has_single_image": false,
    "has_video": true,
    "height": 1080,
    "interlaced_frame": false,
    "metadata": {
     "comment": "Create videos with https://clipchamp.com/en/video-editor - free online video editor, video compressor, video converter.",
     "compatible_brands": "isomiso2avc1mp41",
     "encoder": "https://clipchamp.com",
     "handler_name": "VideoHandler",
     "language": "und",
     "major_brand": "isom",
     "minor_version": "512"
    },
    "path": "./movie_003_002.mp4",
    "pixel_format": 0,
    "pixel_ratio": {
     "den": 1,
     "num": 1
    },
    "sample_rate": 0,
    "top_field_first": true,
    "type": "FFmpegReader",
    "vcodec": "h264",
    "video_bit_rate": 782837,
    "video_length": "2208",
    "video_stream_index": 0,
    "video_timebase": {
     "den": 15360,
     "num": 1
    },
    "width": 1920,
    "media_type": "video",
    "id": "L20DIPWUJ9"
   },
   "rotation": {
    "Points": [
     {
      "co": {
       "X": 1.0,
       "Y": 0.0
      },
      "handle_left": {
       "X": 0.5,
       "Y": 1.0
      },
      "handle_right": {
       "X": 0.5,
       "Y": 0.0
      },
      "handle_type": 0,
      "interpolation": 0
     }
    ]
   },
   "scale": 1,
   "scale_x": {
    "Points": [
     {
      "co": {
       "X": 1.0,
       "Y": 1.0
      },
      "handle_left": {
       "X": 0.5,
       "Y": 1.0
      },
      "handle_right": {
       "X": 0.5,
       "Y": 0.0
      },
      "handle_type": 0,
      "interpolation": 0
     }
    ]
   },
   "scale_y": {
    "Points": [
     {
      "co": {
       "X": 1.0,
       "Y": 1.0
      },
      "handle_left": {
       "X": 0.5,
       "Y": 1.0
      },
      "handle_right": {
       "X": 0.5,
       "Y": 0.0
      },
      "handle_type": 0,
      "interpolation": 0
     }
    ]
   },
   "shear_x": {
    "Points": [
     {
      "co": {
       "X": 1.0,
       "Y": 0.0
      },
      "handle_left": {
       "X": 0.5,
       "Y": 1.0
      },
      "handle_right": {
       "X": 0.5,
       "Y": 0.0
      },
      "handle_type": 0,
      "interpolation": 0
     }
    ]
   },
   "shear_y": {
    "Points": [
     {
      "co": {
       "X": 1.0,
       "Y": 0.0
      },
      "handle_left": {
       "X": 0.5,
       "Y": 1.0
      },
      "handle_right": {
       "X": 0.5,
       "Y": 0.0
      },
      "handle_type": 0,
      "interpolation": 0
     }
    ]
   },
   "start": 37.400010172526066,
   "time": {
    "Points": [
     {
      "co": {
       "X": 1.0,
       "Y": 1.0
      },
      "handle_left": {
       "X": 0.5,
       "Y": 1.0
      },
      "handle_right": {
       "X": 0.5,
       "Y": 0.0
      },
      "handle_type": 0,
      "interpolation": 0
     }
    ]
   },
   "volume": {
    "Points": [
     {
      "co": {
       "X": 1.0,
       "Y": 1.0
      },
      "handle_left": {
       "X": 0.5,
       "Y": 1.0
      },
      "handle_right": {
       "X": 0.5,
       "Y": 0.0
      },
      "handle_type": 0,
      "interpolation": 0
     }
    ]
   },
   "wave_color": {
    "alpha": {
     "Points": [
      {
       "co": {
        "X": 1.0,
        "Y": 255.0
       },
       "handle_left": {
        "X": 0.5,
        "Y": 1.0
       },
       "handle_right": {
        "X": 0.5,
        "Y": 0.0
       },
       "handle_type": 0,
       "interpolation": 0
      }
     ]
    },
    "blue": {
     "Points": [
      {
       "co": {
        "X": 1.0,
        "Y": 255.0
       },
       "handle_left": {
        "X": 0.5,
        "Y": 1.0
       },
       "handle_right": {
        "X": 0.5,
        "Y": 0.0
       },
       "handle_type": 0,
       "interpolation": 0
      }
     ]
    },
    "green": {
     "Points": [
      {
       "co": {
        "X": 1.0,
        "Y": 123.0
       },
       "handle_left": {
        "X": 0.5,
        "Y": 1.0
       },
       "handle_right": {
        "X": 0.5,
        "Y": 0.0
       },
       "handle_type": 0,
       "interpolation": 0
      }
     ]
    },
    "red": {
     "Points": [
      {
       "co": {
        "X": 1.0,
        "Y": 0.0
       },
       "handle_left": {
        "X": 0.5,
        "Y": 1.0
       },
       "handle_right": {
        "X": 0.5,
        "Y": 0.0
       },
       "handle_type": 0,
       "interpolation": 0
      }
     ]
    }
   },
   "waveform": false,
   "file_id": "L20DIPWUJ9",
   "title": "movie_003_002.mp4",
   "image": "Tutorial_assets/thumbnail/L20DIPWUJ9.png",
   "id": "K9BOUQLEQP"
  },
  {
   "alpha": {
    "Points": [
     {
      "co": {
       "X": 1.0,
       "Y": 1.0
      },
      "handle_left": {
       "X": 0.5,
       "Y": 1.0
      },
      "handle_right": {
       "X": 0.5,
       "Y": 0.0
      },
      "handle_type": 0,
      "interpolation": 0
     }
    ]
   },
   "anchor": 0,
   "channel_filter": {
    "Points": [
     {
      "co": {
       "X": 1.0,
       "Y": -1.0
      },
      "handle_left": {
       "X": 0.5,
       "Y": 1.0
      },
      "handle_right": {
       "X": 0.5,
       "Y": 0.0
      },
      "handle_type": 0,
      "interpolation": 0
     }
    ]
   },
   "channel_mapping": {
    "Points": [
     {
      "co": {
       "X": 1.0,
       "Y": -1.0
      },
      "handle_left": {
       "X": 0.5,
       "Y": 1.0
      },
      "handle_right": {
       "X": 0.5,
       "Y": 0.0
      },
      "handle_type": 0,
      "interpolation": 0
     }
    ]
   },
   "display": 0,
   "duration": 3600.0,
   "effects": [],
   "end": 4.966666666666673,
   "gravity": 4,
   "has_audio": {
    "Points": [
     {
      "co": {
       "X": 1.0,
       "Y": -1.0
      },
      "handle_left": {
       "X": 0.5,
       "Y": 1.0
      },
      "handle_right": {
       "X": 0.5,
       "Y": 0.0
      },
      "handle_type": 0,
      "interpolation": 0
     }
    ]
   },
   "has_video": {
    "Points": [
     {
      "co": {
       "X": 1.0,
       "Y": -1.0
      },
      "handle_left": {
       "X": 0.5,
       "Y": 1.0
      },
      "handle_right": {
       "X": 0.5,
       "Y": 0.0
      },
      "handle_type": 0,
      "interpolation": 0
     }
    ]
   },
   "id": "Q869VWNDLE",
   "layer": 3000000,
   "location_x": {
    "Points": [
     {
      "co": {
       "X": 1,
       "Y": 0.27086882925317884
      },
      "handle_left": {
       "X": 0.5,
       "Y": 1.0
      },
      "handle_right": {
       "X": 0.5,
       "Y": 0.0
      },
      "handle_type": 0,
      "interpolation": 0
     }
    ]
   },
   "location_y": {
    "Points": [
     {
      "co": {
       "X": 1,
       "Y": -0.2818181812763214
      },
      "handle_left": {
       "X": 0.5,
       "Y": 1.0
      },
      "handle_right": {
       "X": 0.5,
       "Y": 0.0
      },
      "handle_type": 0,
      "interpolation": 0
     }
    ]
   },
   "mixing": 0,
   "origin_x": {
    "Points": [
     {
      "co": {
       "X": 1.0,
       "Y": 0.5
      },
      "handle_left": {
       "X": 0.5,
       "Y": 1.0
      },
      "handle_right": {
       "X": 0.5,
       "Y": 0.0
      },
      "handle_type": 0,
      "interpolation": 0
     }
    ]
   },
   "origin_y": {
    "Points": [
     {
      "co": {
       "X": 1.0,
       "Y": 0.5
      },
      "handle_left": {
       "X": 0.5,
       "Y": 1.0
      },
      "handle_right": {
       "X": 0.5,
       "Y": 0.0
      },
      "handle_type": 0,
      "interpolation": 0
     }
    ]
   },
   "parentObjectId": "",
   "perspective_c1_x": {
    "Points": [
     {
      "co": {
       "X": 1.0,
       "Y": -1.0
      },
      "handle_left": {
       "X": 0.5,
       "Y": 1.0
      },
      "handle_right": {
       "X": 0.5,
       "Y": 0.0
      },
      "handle_type": 0,
      "interpolation": 0
     }
    ]
   },
   "perspective_c1_y": {
    "Points": [
     {
      "co": {
       "X": 1.0,
       "Y": -1.0
      },
      "handle_left": {
       "X": 0.5,
       "Y": 1.0
      },
      "handle_right": {
       "X": 0.5,
       "Y": 0.0
      },
      "handle_type": 0,
      "interpolation": 0
     }
    ]
   },
   "perspective_c2_x": {
    "Points": [
     {
      "co": {
       "X": 1.0,
       "Y": -1.0
      },
      "handle_left": {
       "X": 0.5,
       "Y": 1.0
      },
      "handle_right": {
       "X": 0.5,
       "Y": 0.0
      },
      "handle_type": 0,
      "interpolation": 0
     }
    ]
   },
   "perspective_c2_y": {
    "Points": [
     {
      "co": {
       "X": 1.0,
       "Y": -1.0
      },
      "handle_left": {
       "X": 0.5,
       "Y": 1.0
      },
      "handle_right": {
       "X": 0.5,
       "Y": 0.0
      },
      "handle_type": 0,
      "interpolation": 0
     }
    ]
   },
   "perspective_c3_x": {
    "Points": [
     {
      "co": {
       "X": 1.0,
       "Y": -1.0
      },
      "handle_left": {
       "X": 0.5,
       "Y": 1.0
      },
      "handle_right": {
       "X": 0.5,
       "Y": 0.0
      },
      "handle_type": 0,
      "interpolation": 0
     }
    ]
   },
   "perspective_c3_y": {
    "Points": [
     {
      "co": {
       "X": 1.0,
       "Y": -1.0
      },
      "handle_left": {
       "X": 0.5,
       "Y": 1.0
      },
      "handle_right": {
       "X": 0.5,
       "Y": 0.0
      },
      "handle_type": 0,
      "interpolation": 0
     }
    ]
   },
   "perspective_c4_x": {
    "Points": [
     {
      "co": {
       "X": 1.0,
       "Y": -1.0
      },
      "handle_left": {
       "X": 0.5,
       "Y": 1.0
      },
      "handle_right": {
       "X": 0.5,
       "Y": 0.0
      },
      "handle_type": 0,
      "interpolation": 0
     }
    ]
   },
   "perspective_c4_y": {
    "Points": [
     {
      "co": {
       "X": 1.0,
       "Y": -1.0
      },
      "handle_left": {
       "X": 0.5,
       "Y": 1.0
      },
      "handle_right": {
       "X": 0.5,
       "Y": 0.0
      },
      "handle_type": 0,
      "interpolation": 0
     }
    ]
   },
   "position": 147.5,
   "reader": {
    "acodec": "",
    "audio_bit_rate": 0,
    "audio_stream_index": -1,
    "audio_timebase": {
     "den": 1,
     "num": 1
    },
    "channel_layout": 4,
    "channels": 0,
    "display_ratio": {
     "den": 72,
     "num": 235
    },
    "duration": 3600.0,
    "file_size": "4331520",
    "fps": {
     "den": 1,
     "num": 30
    },
    "has_audio": false,
    "has_single_image": true,
    "has_video": true,
    "height": 576,
    "interlaced_frame": false,
    "metadata": {},
    "path": "./drawing23.png",
    "pixel_format": -1,
    "pixel_ratio": {
     "den": 1,
     "num": 1
    },
    "sample_rate": 0,
    "top_field_first": true,
    "type": "QtImageReader",
    "vcodec": "",
    "video_bit_rate": 0,
    "video_length": "108000",
    "video_stream_index": -1,
    "video_timebase": {
     "den": 30,
     "num": 1
    },
    "width": 1880,
    "media_type": "image",
    "id": "LBT23IQHIV"
   },
   "rotation": {
    "Points": [
     {
      "co": {
       "X": 1.0,
       "Y": 0.0
      },
      "handle_left": {
       "X": 0.5,
       "Y": 1.0
      },
      "handle_right": {
       "X": 0.5,
       "Y": 0.0
      },
      "handle_type": 0,
      "interpolation": 0
     }
    ]
   },
   "scale": 1,
   "scale_x": {
    "Points": [
     {
      "co": {
       "X": 1,
       "Y": 0.37308328079608677
      },
      "handle_left": {
       "X": 0.5,
       "Y": 1.0
      },
      "handle_right": {
       "X": 0.5,
       "Y": 0.0
      },
      "handle_type": 0,
      "interpolation": 0
     }
    ]
   },
   "scale_y": {
    "Points": [
     {
      "co": {
       "X": 1,
       "Y": 0.37308328079608677
      },
      "handle_left": {
       "X": 0.5,
       "Y": 1.0
      },
      "handle_right": {
       "X": 0.5,
       "Y": 0.0
      },
      "handle_type": 0,
      "interpolation": 0
     }
    ]
   },
   "shear_x": {
    "Points": [
     {
      "co": {
       "X": 1.0,
       "Y": 0.0
      },
      "handle_left": {
       "X": 0.5,
       "Y": 1.0
      },
      "handle_right": {
       "X": 0.5,
       "Y": 0.0
      },
      "handle_type": 0,
      "interpolation": 0
     }
    ]
   },
   "shear_y": {
    "Points": [
     {
      "co": {
       "X": 1.0,
       "Y": 0.0
      },
      "handle_left": {
       "X": 0.5,
       "Y": 1.0
      },
      "handle_right": {
       "X": 0.5,
       "Y": 0.0
      },
      "handle_type": 0,
      "interpolation": 0
     }
    ]
   },
   "start": 0,
   "time": {
    "Points": [
     {
      "co": {
       "X": 1.0,
       "Y": 1.0
      },
      "handle_left": {
       "X": 0.5,
       "Y": 1.0
      },
      "handle_right": {
       "X": 0.5,
       "Y": 0.0
      },
      "handle_type": 0,
      "interpolation": 0
     }
    ]
   },
   "volume": {
    "Points": [
     {
      "co": {
       "X": 1.0,
       "Y": 1.0
      },
      "handle_left": {
       "X": 0.5,
       "Y": 1.0
      },
      "handle_right": {
       "X": 0.5,
       "Y": 0.0
      },
      "handle_type": 0,
      "interpolation": 0
     }
    ]
   },
   "wave_color": {
    "alpha": {
     "Points": [
      {
       "co": {
        "X": 1.0,
        "Y": 255.0
       },
       "handle_left": {
        "X": 0.5,
        "Y": 1.0
       },
       "handle_right": {
        "X": 0.5,
        "Y": 0.0
       },
       "handle_type": 0,
       "interpolation": 0
      }
     ]
    },
    "blue": {
     "Points": [
      {
       "co": {
        "X": 1.0,
        "Y": 255.0
       },
       "handle_left": {
        "X": 0.5,
        "Y": 1.0
       },
       "handle_right": {
        "X": 0.5,
        "Y": 0.0
       },
       "handle_type": 0,
       "interpolation": 0
      }
     ]
    },
    "green": {
     "Points": [
      {
       "co": {
        "X": 1.0,
        "Y": 123.0
       },
       "handle_left": {
        "X": 0.5,
        "Y": 1.0
       },
       "handle_right": {
        "X": 0.5,
        "Y": 0.0
       },
       "handle_type": 0,
       "interpolation": 0
      }
     ]
    },
    "red": {
     "Points": [
      {
       "co": {
        "X": 1.0,
        "Y": 0.0
       },
       "handle_left": {
        "X": 0.5,
        "Y": 1.0
       },
       "handle_right": {
        "X": 0.5,
        "Y": 0.0
       },
       "handle_type": 0,
       "interpolation": 0
      }
     ]
    }
   },
   "waveform": false,
   "file_id": "LBT23IQHIV",
   "title": "drawing23.png",
   "image": "Tutorial_assets/thumbnail/LBT23IQHIV.png"
  },
  {
   "alpha": {
    "Points": [
     {
      "co": {
       "X": 1.0,
       "Y": 1.0
      },
      "handle_left": {
       "X": 0.5,
       "Y": 1.0
      },
      "handle_right": {
       "X": 0.5,
       "Y": 0.0
      },
      "handle_type": 0,
      "interpolation": 0
     }
    ]
   },
   "anchor": 0,
   "channel_filter": {
    "Points": [
     {
      "co": {
       "X": 1.0,
       "Y": -1.0
      },
      "handle_left": {
       "X": 0.5,
       "Y": 1.0
      },
      "handle_right": {
       "X": 0.5,
       "Y": 0.0
      },
      "handle_type": 0,
      "interpolation": 0
     }
    ]
   },
   "channel_mapping": {
    "Points": [
     {
      "co": {
       "X": 1.0,
       "Y": -1.0
      },
      "handle_left": {
       "X": 0.5,
       "Y": 1.0
      },
      "handle_right": {
       "X": 0.5,
       "Y": 0.0
      },
      "handle_type": 0,
      "interpolation": 0
     }
    ]
   },
   "display": 0,
   "duration": 73.5999984741211,
   "effects": [],
   "end": 42.03334350585942,
   "gravity": 4,
   "has_audio": {
    "Points": [
     {
      "co": {
       "X": 1.0,
       "Y": -1.0
      },
      "handle_left": {
       "X": 0.5,
       "Y": 1.0
      },
      "handle_right": {
       "X": 0.5,
       "Y": 0.0
      },
      "handle_type": 0,
      "interpolation": 0
     }
    ]
   },
   "has_video": {
    "Points": [
     {
      "co": {
       "X": 1.0,
       "Y": -1.0
      },
      "handle_left": {
       "X": 0.5,
       "Y": 1.0
      },
      "handle_right": {
       "X": 0.5,
       "Y": 0.0
      },
      "handle_type": 0,
      "interpolation": 0
     }
    ]
   },
   "layer": 1000000,
   "location_x": {
    "Points": [
     {
      "co": {
       "X": 1.0,
       "Y": 0.0
      },
      "handle_left": {
       "X": 0.5,
       "Y": 1.0
      },
      "handle_right": {
       "X": 0.5,
       "Y": 0.0
      },
      "handle_type": 0,
      "interpolation": 0
     }
    ]
   },
   "location_y": {
    "Points": [
     {
      "co": {
       "X": 1.0,
       "Y": 0.0
      },
      "handle_left": {
       "X": 0.5,
       "Y": 1.0
      },
      "handle_right": {
       "X": 0.5,
       "Y": 0.0
      },
      "handle_type": 0,
      "interpolation": 0
     }
    ]
   },
   "mixing": 0,
   "origin_x": {
    "Points": [
     {
      "co": {
       "X": 1.0,
       "Y": 0.5
      },
      "handle_left": {
       "X": 0.5,
       "Y": 1.0
      },
      "handle_right": {
       "X": 0.5,
       "Y": 0.0
      },
      "handle_type": 0,
      "interpolation": 0
     }
    ]
   },
   "origin_y": {
    "Points": [
     {
      "co": {
       "X": 1.0,
       "Y": 0.5
      },
      "handle_left": {
       "X": 0.5,
       "Y": 1.0
      },
      "handle_right": {
       "X": 0.5,
       "Y": 0.0
      },
      "handle_type": 0,
      "interpolation": 0
     }
    ]
   },
   "parentObjectId": "",
   "perspective_c1_x": {
    "Points": [
     {
      "co": {
       "X": 1.0,
       "Y": -1.0
      },
      "handle_left": {
       "X": 0.5,
       "Y": 1.0
      },
      "handle_right": {
       "X": 0.5,
       "Y": 0.0
      },
      "handle_type": 0,
      "interpolation": 0
     }
    ]
   },
   "perspective_c1_y": {
    "Points": [
     {
      "co": {
       "X": 1.0,
       "Y": -1.0
      },
      "handle_left": {
       "X": 0.5,
       "Y": 1.0
      },
      "handle_right": {
       "X": 0.5,
       "Y": 0.0
      },
      "handle_type": 0,
      "interpolation": 0
     }
    ]
   },
   "perspective_c2_x": {
    "Points": [
     {
      "co": {
       "X": 1.0,
       "Y": -1.0
      },
      "handle_left": {
       "X": 0.5,
       "Y": 1.0
      },
      "handle_right": {
       "X": 0.5,
       "Y": 0.0
      },
      "handle_type": 0,
      "interpolation": 0
     }
    ]
   },
   "perspective_c2_y": {
    "Points": [
     {
      "co": {
       "X": 1.0,
       "Y": -1.0
      },
      "handle_left": {
       "X": 0.5,
       "Y": 1.0
      },
      "handle_right": {
       "X": 0.5,
       "Y": 0.0
      },
      "handle_type": 0,
      "interpolation": 0
     }
    ]
   },
   "perspective_c3_x": {
    "Points": [
     {
      "co": {
       "X": 1.0,
       "Y": -1.0
      },
      "handle_left": {
       "X": 0.5,
       "Y": 1.0
      },
      "handle_right": {
       "X": 0.5,
       "Y": 0.0
      },
      "handle_type": 0,
      "interpolation": 0
     }
    ]
   },
   "perspective_c3_y": {
    "Points": [
     {
      "co": {
       "X": 1.0,
       "Y": -1.0
      },
      "handle_left": {
       "X": 0.5,
       "Y": 1.0
      },
      "handle_right": {
       "X": 0.5,
       "Y": 0.0
      },
      "handle_type": 0,
      "interpolation": 0
     }
    ]
   },
   "perspective_c4_x": {
    "Points": [
     {
      "co": {
       "X": 1.0,
       "Y": -1.0
      },
      "handle_left": {
       "X": 0.5,
       "Y": 1.0
      },
      "handle_right": {
       "X": 0.5,
       "Y": 0.0
      },
      "handle_type": 0,
      "interpolation": 0
     }
    ]
   },
   "perspective_c4_y": {
    "Points": [
     {
      "co": {
       "X": 1.0,
       "Y": -1.0
      },
      "handle_left": {
       "X": 0.5,
       "Y": 1.0
      },
      "handle_right": {
       "X": 0.5,
       "Y": 0.0
      },
      "handle_type": 0,
      "interpolation": 0
     }
    ]
   },
   "position": 147.5,
   "reader": {
    "acodec": "",
    "audio_bit_rate": 0,
    "audio_stream_index": -1,
    "audio_timebase": {
     "den": 1,
     "num": 1
    },
    "channel_layout": 4,
    "channels": 0,
    "display_ratio": {
     "den": 9,
     "num": 16
    },
    "duration": 73.5999984741211,
    "file_size": "57616868",
    "fps": {
     "den": 1,
     "num": 30
    },
    "has_audio": false,
    "has_single_image": false,
    "has_video": true,
    "height": 1080,
    "interlaced_frame": false,
    "metadata": {
     "comment": "Create videos with https://clipchamp.com/en/video-editor - free online video editor, video compressor, video converter.",
     "compatible_brands": "isomiso2avc1mp41",
     "encoder": "https://clipchamp.com",
     "handler_name": "VideoHandler",
     "language": "und",
     "major_brand": "isom",
     "minor_version": "512"
    },
    "path": "./movie_003_002.mp4",
    "pixel_format": 0,
    "pixel_ratio": {
     "den": 1,
     "num": 1
    },
    "sample_rate": 0,
    "top_field_first": true,
    "type": "FFmpegReader",
    "vcodec": "h264",
    "video_bit_rate": 782837,
    "video_length": "2208",
    "video_stream_index": 0,
    "video_timebase": {
     "den": 15360,
     "num": 1
    },
    "width": 1920,
    "media_type": "video",
    "id": "L20DIPWUJ9"
   },
   "rotation": {
    "Points": [
     {
      "co": {
       "X": 1.0,
       "Y": 0.0
      },
      "handle_left": {
       "X": 0.5,
       "Y": 1.0
      },
      "handle_right": {
       "X": 0.5,
       "Y": 0.0
      },
      "handle_type": 0,
      "interpolation": 0
     }
    ]
   },
   "scale": 1,
   "scale_x": {
    "Points": [
     {
      "co": {
       "X": 1.0,
       "Y": 1.0
      },
      "handle_left": {
       "X": 0.5,
       "Y": 1.0
      },
      "handle_right": {
       "X": 0.5,
       "Y": 0.0
      },
      "handle_type": 0,
      "interpolation": 0
     }
    ]
   },
   "scale_y": {
    "Points": [
     {
      "co": {
       "X": 1.0,
       "Y": 1.0
      },
      "handle_left": {
       "X": 0.5,
       "Y": 1.0
      },
      "handle_right": {
       "X": 0.5,
       "Y": 0.0
      },
      "handle_type": 0,
      "interpolation": 0
     }
    ]
   },
   "shear_x": {
    "Points": [
     {
      "co": {
       "X": 1.0,
       "Y": 0.0
      },
      "handle_left": {
       "X": 0.5,
       "Y": 1.0
      },
      "handle_right": {
       "X": 0.5,
       "Y": 0.0
      },
      "handle_type": 0,
      "interpolation": 0
     }
    ]
   },
   "shear_y": {
    "Points": [
     {
      "co": {
       "X": 1.0,
       "Y": 0.0
      },
      "handle_left": {
       "X": 0.5,
       "Y": 1.0
      },
      "handle_right": {
       "X": 0.5,
       "Y": 0.0
      },
      "handle_type": 0,
      "interpolation": 0
     }
    ]
   },
   "start": 40.60001017252608,
   "time": {
    "Points": [
     {
      "co": {
       "X": 1.0,
       "Y": 1.0
      },
      "handle_left": {
       "X": 0.5,
       "Y": 1.0
      },
      "handle_right": {
       "X": 0.5,
       "Y": 0.0
      },
      "handle_type": 0,
      "interpolation": 0
     }
    ]
   },
   "volume": {
    "Points": [
     {
      "co": {
       "X": 1.0,
       "Y": 1.0
      },
      "handle_left": {
       "X": 0.5,
       "Y": 1.0
      },
      "handle_right": {
       "X": 0.5,
       "Y": 0.0
      },
      "handle_type": 0,
      "interpolation": 0
     }
    ]
   },
   "wave_color": {
    "alpha": {
     "Points": [
      {
       "co": {
        "X": 1.0,
        "Y": 255.0
       },
       "handle_left": {
        "X": 0.5,
        "Y": 1.0
       },
       "handle_right": {
        "X": 0.5,
        "Y": 0.0
       },
       "handle_type": 0,
       "interpolation": 0
      }
     ]
    },
    "blue": {
     "Points": [
      {
       "co": {
        "X": 1.0,
        "Y": 255.0
       },
       "handle_left": {
        "X": 0.5,
        "Y": 1.0
       },
       "handle_right": {
        "X": 0.5,
        "Y": 0.0
       },
       "handle_type": 0,
       "interpolation": 0
      }
     ]
    },
    "green": {
     "Points": [
      {
       "co": {
        "X": 1.0,
        "Y": 123.0
       },
       "handle_left": {
        "X": 0.5,
        "Y": 1.0
       },
       "handle_right": {
        "X": 0.5,
        "Y": 0.0
       },
       "handle_type": 0,
       "interpolation": 0
      }
     ]
    },
    "red": {
     "Points": [
      {
       "co": {
        "X": 1.0,
        "Y": 0.0
       },
       "handle_left": {
        "X": 0.5,
        "Y": 1.0
       },
       "handle_right": {
        "X": 0.5,
        "Y": 0.0
       },
       "handle_type": 0,
       "interpolation": 0
      }
     ]
    }
   },
   "waveform": false,
   "file_id": "L20DIPWUJ9",
   "title": "movie_003_002.mp4",
   "image": "Tutorial_assets/thumbnail/L20DIPWUJ9.png",
   "id": "V0GLHMLDE2"
  },
  {
   "alpha": {
    "Points": [
     {
      "co": {
       "X": 1.0,
       "Y": 1.0
      },
      "handle_left": {
       "X": 0.5,
       "Y": 1.0
      },
      "handle_right": {
       "X": 0.5,
       "Y": 0.0
      },
      "handle_type": 0,
      "interpolation": 0
     }
    ]
   },
   "anchor": 0,
   "channel_filter": {
    "Points": [
     {
      "co": {
       "X": 1.0,
       "Y": -1.0
      },
      "handle_left": {
       "X": 0.5,
       "Y": 1.0
      },
      "handle_right": {
       "X": 0.5,
       "Y": 0.0
      },
      "handle_type": 0,
      "interpolation": 0
     }
    ]
   },
   "channel_mapping": {
    "Points": [
     {
      "co": {
       "X": 1.0,
       "Y": -1.0
      },
      "handle_left": {
       "X": 0.5,
       "Y": 1.0
      },
      "handle_right": {
       "X": 0.5,
       "Y": 0.0
      },
      "handle_type": 0,
      "interpolation": 0
     }
    ]
   },
   "display": 0,
   "duration": 3600.0,
   "effects": [],
   "end": 1.0333333333333314,
   "gravity": 4,
   "has_audio": {
    "Points": [
     {
      "co": {
       "X": 1.0,
       "Y": -1.0
      },
      "handle_left": {
       "X": 0.5,
       "Y": 1.0
      },
      "handle_right": {
       "X": 0.5,
       "Y": 0.0
      },
      "handle_type": 0,
      "interpolation": 0
     }
    ]
   },
   "has_video": {
    "Points": [
     {
      "co": {
       "X": 1.0,
       "Y": -1.0
      },
      "handle_left": {
       "X": 0.5,
       "Y": 1.0
      },
      "handle_right": {
       "X": 0.5,
       "Y": 0.0
      },
      "handle_type": 0,
      "interpolation": 0
     }
    ]
   },
   "id": "ZXYHVRRMIS",
   "layer": 1000000,
   "location_x": {
    "Points": [
     {
      "co": {
       "X": 1.0,
       "Y": 0.0
      },
      "handle_left": {
       "X": 0.5,
       "Y": 1.0
      },
      "handle_right": {
       "X": 0.5,
       "Y": 0.0
      },
      "handle_type": 0,
      "interpolation": 0
     }
    ]
   },
   "location_y": {
    "Points": [
     {
      "co": {
       "X": 1.0,
       "Y": 0.0
      },
      "handle_left": {
       "X": 0.5,
       "Y": 1.0
      },
      "handle_right": {
       "X": 0.5,
       "Y": 0.0
      },
      "handle_type": 0,
      "interpolation": 0
     }
    ]
   },
   "mixing": 0,
   "origin_x": {
    "Points": [
     {
      "co": {
       "X": 1.0,
       "Y": 0.5
      },
      "handle_left": {
       "X": 0.5,
       "Y": 1.0
      },
      "handle_right": {
       "X": 0.5,
       "Y": 0.0
      },
      "handle_type": 0,
      "interpolation": 0
     }
    ]
   },
   "origin_y": {
    "Points": [
     {
      "co": {
       "X": 1.0,
       "Y": 0.5
      },
      "handle_left": {
       "X": 0.5,
       "Y": 1.0
      },
      "handle_right": {
       "X": 0.5,
       "Y": 0.0
      },
      "handle_type": 0,
      "interpolation": 0
     }
    ]
   },
   "parentObjectId": "",
   "perspective_c1_x": {
    "Points": [
     {
      "co": {
       "X": 1.0,
       "Y": -1.0
      },
      "handle_left": {
       "X": 0.5,
       "Y": 1.0
      },
      "handle_right": {
       "X": 0.5,
       "Y": 0.0
      },
      "handle_type": 0,
      "interpolation": 0
     }
    ]
   },
   "perspective_c1_y": {
    "Points": [
     {
      "co": {
       "X": 1.0,
       "Y": -1.0
      },
      "handle_left": {
       "X": 0.5,
       "Y": 1.0
      },
      "handle_right": {
       "X": 0.5,
       "Y": 0.0
      },
      "handle_type": 0,
      "interpolation": 0
     }
    ]
   },
   "perspective_c2_x": {
    "Points": [
     {
      "co": {
       "X": 1.0,
       "Y": -1.0
      },
      "handle_left": {
       "X": 0.5,
       "Y": 1.0
      },
      "handle_right": {
       "X": 0.5,
       "Y": 0.0
      },
      "handle_type": 0,
      "interpolation": 0
     }
    ]
   },
   "perspective_c2_y": {
    "Points": [
     {
      "co": {
       "X": 1.0,
       "Y": -1.0
      },
      "handle_left": {
       "X": 0.5,
       "Y": 1.0
      },
      "handle_right": {
       "X": 0.5,
       "Y": 0.0
      },
      "handle_type": 0,
      "interpolation": 0
     }
    ]
   },
   "perspective_c3_x": {
    "Points": [
     {
      "co": {
       "X": 1.0,
       "Y": -1.0
      },
      "handle_left": {
       "X": 0.5,
       "Y": 1.0
      },
      "handle_right": {
       "X": 0.5,
       "Y": 0.0
      },
      "handle_type": 0,
      "interpolation": 0
     }
    ]
   },
   "perspective_c3_y": {
    "Points": [
     {
      "co": {
       "X": 1.0,
       "Y": -1.0
      },
      "handle_left": {
       "X": 0.5,
       "Y": 1.0
      },
      "handle_right": {
       "X": 0.5,
       "Y": 0.0
      },
      "handle_type": 0,
      "interpolation": 0
     }
    ]
   },
   "perspective_c4_x": {
    "Points": [
     {
      "co": {
       "X": 1.0,
       "Y": -1.0
      },
      "handle_left": {
       "X": 0.5,
       "Y": 1.0
      },
      "handle_right": {
       "X": 0.5,
       "Y": 0.0
      },
      "handle_type": 0,
      "interpolation": 0
     }
    ]
   },
   "perspective_c4_y": {
    "Points": [
     {
      "co": {
       "X": 1.0,
       "Y": -1.0
      },
      "handle_left": {
       "X": 0.5,
       "Y": 1.0
      },
      "handle_right": {
       "X": 0.5,
       "Y": 0.0
      },
      "handle_type": 0,
      "interpolation": 0
     }
    ]
   },
   "position": 145.76666666666668,
   "reader": {
    "acodec": "",
    "audio_bit_rate": 0,
    "audio_stream_index": -1,
    "audio_timebase": {
     "den": 1,
     "num": 1
    },
    "channel_layout": 4,
    "channels": 0,
    "display_ratio": {
     "den": 9,
     "num": 16
    },
    "duration": 3600.0,
    "file_size": "8294400",
    "fps": {
     "den": 1,
     "num": 30
    },
    "has_audio": false,
    "has_single_image": true,
    "has_video": true,
    "height": 1080,
    "interlaced_frame": false,
    "metadata": {},
    "path": "./Frame-04403.png",
    "pixel_format": -1,
    "pixel_ratio": {
     "den": 1,
     "num": 1
    },
    "sample_rate": 0,
    "top_field_first": true,
    "type": "QtImageReader",
    "vcodec": "",
    "video_bit_rate": 0,
    "video_length": "108000",
    "video_stream_index": -1,
    "video_timebase": {
     "den": 30,
     "num": 1
    },
    "width": 1920,
    "media_type": "image",
    "id": "O4IZAKEGQP"
   },
   "rotation": {
    "Points": [
     {
      "co": {
       "X": 1.0,
       "Y": 0.0
      },
      "handle_left": {
       "X": 0.5,
       "Y": 1.0
      },
      "handle_right": {
       "X": 0.5,
       "Y": 0.0
      },
      "handle_type": 0,
      "interpolation": 0
     }
    ]
   },
   "scale": 1,
   "scale_x": {
    "Points": [
     {
      "co": {
       "X": 1.0,
       "Y": 1.0
      },
      "handle_left": {
       "X": 0.5,
       "Y": 1.0
      },
      "handle_right": {
       "X": 0.5,
       "Y": 0.0
      },
      "handle_type": 0,
      "interpolation": 0
     }
    ]
   },
   "scale_y": {
    "Points": [
     {
      "co": {
       "X": 1.0,
       "Y": 1.0
      },
      "handle_left": {
       "X": 0.5,
       "Y": 1.0
      },
      "handle_right": {
       "X": 0.5,
       "Y": 0.0
      },
      "handle_type": 0,
      "interpolation": 0
     }
    ]
   },
   "shear_x": {
    "Points": [
     {
      "co": {
       "X": 1.0,
       "Y": 0.0
      },
      "handle_left": {
       "X": 0.5,
       "Y": 1.0
      },
      "handle_right": {
       "X": 0.5,
       "Y": 0.0
      },
      "handle_type": 0,
      "interpolation": 0
     }
    ]
   },
   "shear_y": {
    "Points": [
     {
      "co": {
       "X": 1.0,
       "Y": 0.0
      },
      "handle_left": {
       "X": 0.5,
       "Y": 1.0
      },
      "handle_right": {
       "X": 0.5,
       "Y": 0.0
      },
      "handle_type": 0,
      "interpolation": 0
     }
    ]
   },
   "start": 0,
   "time": {
    "Points": [
     {
      "co": {
       "X": 1.0,
       "Y": 1.0
      },
      "handle_left": {
       "X": 0.5,
       "Y": 1.0
      },
      "handle_right": {
       "X": 0.5,
       "Y": 0.0
      },
      "handle_type": 0,
      "interpolation": 0
     }
    ]
   },
   "volume": {
    "Points": [
     {
      "co": {
       "X": 1.0,
       "Y": 1.0
      },
      "handle_left": {
       "X": 0.5,
       "Y": 1.0
      },
      "handle_right": {
       "X": 0.5,
       "Y": 0.0
      },
      "handle_type": 0,
      "interpolation": 0
     }
    ]
   },
   "wave_color": {
    "alpha": {
     "Points": [
      {
       "co": {
        "X": 1.0,
        "Y": 255.0
       },
       "handle_left": {
        "X": 0.5,
        "Y": 1.0
       },
       "handle_right": {
        "X": 0.5,
        "Y": 0.0
       },
       "handle_type": 0,
       "interpolation": 0
      }
     ]
    },
    "blue": {
     "Points": [
      {
       "co": {
        "X": 1.0,
        "Y": 255.0
       },
       "handle_left": {
        "X": 0.5,
        "Y": 1.0
       },
       "handle_right": {
        "X": 0.5,
        "Y": 0.0
       },
       "handle_type": 0,
       "interpolation": 0
      }
     ]
    },
    "green": {
     "Points": [
      {
       "co": {
        "X": 1.0,
        "Y": 123.0
       },
       "handle_left": {
        "X": 0.5,
        "Y": 1.0
       },
       "handle_right": {
        "X": 0.5,
        "Y": 0.0
       },
       "handle_type": 0,
       "interpolation": 0
      }
     ]
    },
    "red": {
     "Points": [
      {
       "co": {
        "X": 1.0,
        "Y": 0.0
       },
       "handle_left": {
        "X": 0.5,
        "Y": 1.0
       },
       "handle_right": {
        "X": 0.5,
        "Y": 0.0
       },
       "handle_type": 0,
       "interpolation": 0
      }
     ]
    }
   },
   "waveform": false,
   "file_id": "O4IZAKEGQP",
   "title": "Frame-04403.png",
   "image": "Tutorial_assets/thumbnail/O4IZAKEGQP.png"
  },
  {
   "alpha": {
    "Points": [
     {
      "co": {
       "X": 1.0,
       "Y": 1.0
      },
      "handle_left": {
       "X": 0.5,
       "Y": 1.0
      },
      "handle_right": {
       "X": 0.5,
       "Y": 0.0
      },
      "handle_type": 0,
      "interpolation": 0
     }
    ]
   },
   "anchor": 0,
   "channel_filter": {
    "Points": [
     {
      "co": {
       "X": 1.0,
       "Y": -1.0
      },
      "handle_left": {
       "X": 0.5,
       "Y": 1.0
      },
      "handle_right": {
       "X": 0.5,
       "Y": 0.0
      },
      "handle_type": 0,
      "interpolation": 0
     }
    ]
   },
   "channel_mapping": {
    "Points": [
     {
      "co": {
       "X": 1.0,
       "Y": -1.0
      },
      "handle_left": {
       "X": 0.5,
       "Y": 1.0
      },
      "handle_right": {
       "X": 0.5,
       "Y": 0.0
      },
      "handle_type": 0,
      "interpolation": 0
     }
    ]
   },
   "display": 0,
   "duration": 73.5999984741211,
   "effects": [],
   "end": 42.166676839192746,
   "gravity": 4,
   "has_audio": {
    "Points": [
     {
      "co": {
       "X": 1.0,
       "Y": -1.0
      },
      "handle_left": {
       "X": 0.5,
       "Y": 1.0
      },
      "handle_right": {
       "X": 0.5,
       "Y": 0.0
      },
      "handle_type": 0,
      "interpolation": 0
     }
    ]
   },
   "has_video": {
    "Points": [
     {
      "co": {
       "X": 1.0,
       "Y": -1.0
      },
      "handle_left": {
       "X": 0.5,
       "Y": 1.0
      },
      "handle_right": {
       "X": 0.5,
       "Y": 0.0
      },
      "handle_type": 0,
      "interpolation": 0
     }
    ]
   },
   "layer": 1000000,
   "location_x": {
    "Points": [
     {
      "co": {
       "X": 1.0,
       "Y": 0.0
      },
      "handle_left": {
       "X": 0.5,
       "Y": 1.0
      },
      "handle_right": {
       "X": 0.5,
       "Y": 0.0
      },
      "handle_type": 0,
      "interpolation": 0
     }
    ]
   },
   "location_y": {
    "Points": [
     {
      "co": {
       "X": 1.0,
       "Y": 0.0
      },
      "handle_left": {
       "X": 0.5,
       "Y": 1.0
      },
      "handle_right": {
       "X": 0.5,
       "Y": 0.0
      },
      "handle_type": 0,
      "interpolation": 0
     }
    ]
   },
   "mixing": 0,
   "origin_x": {
    "Points": [
     {
      "co": {
       "X": 1.0,
       "Y": 0.5
      },
      "handle_left": {
       "X": 0.5,
       "Y": 1.0
      },
      "handle_right": {
       "X": 0.5,
       "Y": 0.0
      },
      "handle_type": 0,
      "interpolation": 0
     }
    ]
   },
   "origin_y": {
    "Points": [
     {
      "co": {
       "X": 1.0,
       "Y": 0.5
      },
      "handle_left": {
       "X": 0.5,
       "Y": 1.0
      },
      "handle_right": {
       "X": 0.5,
       "Y": 0.0
      },
      "handle_type": 0,
      "interpolation": 0
     }
    ]
   },
   "parentObjectId": "",
   "perspective_c1_x": {
    "Points": [
     {
      "co": {
       "X": 1.0,
       "Y": -1.0
      },
      "handle_left": {
       "X": 0.5,
       "Y": 1.0
      },
      "handle_right": {
       "X": 0.5,
       "Y": 0.0
      },
      "handle_type": 0,
      "interpolation": 0
     }
    ]
   },
   "perspective_c1_y": {
    "Points": [
     {
      "co": {
       "X": 1.0,
       "Y": -1.0
      },
      "handle_left": {
       "X": 0.5,
       "Y": 1.0
      },
      "handle_right": {
       "X": 0.5,
       "Y": 0.0
      },
      "handle_type": 0,
      "interpolation": 0
     }
    ]
   },
   "perspective_c2_x": {
    "Points": [
     {
      "co": {
       "X": 1.0,
       "Y": -1.0
      },
      "handle_left": {
       "X": 0.5,
       "Y": 1.0
      },
      "handle_right": {
       "X": 0.5,
       "Y": 0.0
      },
      "handle_type": 0,
      "interpolation": 0
     }
    ]
   },
   "perspective_c2_y": {
    "Points": [
     {
      "co": {
       "X": 1.0,
       "Y": -1.0
      },
      "handle_left": {
       "X": 0.5,
       "Y": 1.0
      },
      "handle_right": {
       "X": 0.5,
       "Y": 0.0
      },
      "handle_type": 0,
      "interpolation": 0
     }
    ]
   },
   "perspective_c3_x": {
    "Points": [
     {
      "co": {
       "X": 1.0,
       "Y": -1.0
      },
      "handle_left": {
       "X": 0.5,
       "Y": 1.0
      },
      "handle_right": {
       "X": 0.5,
       "Y": 0.0
      },
      "handle_type": 0,
      "interpolation": 0
     }
    ]
   },
   "perspective_c3_y": {
    "Points": [
     {
      "co": {
       "X": 1.0,
       "Y": -1.0
      },
      "handle_left": {
       "X": 0.5,
       "Y": 1.0
      },
      "handle_right": {
       "X": 0.5,
       "Y": 0.0
      },
      "handle_type": 0,
      "interpolation": 0
     }
    ]
   },
   "perspective_c4_x": {
    "Points": [
     {
      "co": {
       "X": 1.0,
       "Y": -1.0
      },
      "handle_left": {
       "X": 0.5,
       "Y": 1.0
      },
      "handle_right": {
       "X": 0.5,
       "Y": 0.0
      },
      "handle_type": 0,
      "interpolation": 0
     }
    ]
   },
   "perspective_c4_y": {
    "Points": [
     {
      "co": {
       "X": 1.0,
       "Y": -1.0
      },
      "handle_left": {
       "X": 0.5,
       "Y": 1.0
      },
      "handle_right": {
       "X": 0.5,
       "Y": 0.0
      },
      "handle_type": 0,
      "interpolation": 0
     }
    ]
   },
   "position": 157.93333333333334,
   "reader": {
    "acodec": "",
    "audio_bit_rate": 0,
    "audio_stream_index": -1,
    "audio_timebase": {
     "den": 1,
     "num": 1
    },
    "channel_layout": 4,
    "channels": 0,
    "display_ratio": {
     "den": 9,
     "num": 16
    },
    "duration": 73.5999984741211,
    "file_size": "57616868",
    "fps": {
     "den": 1,
     "num": 30
    },
    "has_audio": false,
    "has_single_image": false,
    "has_video": true,
    "height": 1080,
    "interlaced_frame": false,
    "metadata": {
     "comment": "Create videos with https://clipchamp.com/en/video-editor - free online video editor, video compressor, video converter.",
     "compatible_brands": "isomiso2avc1mp41",
     "encoder": "https://clipchamp.com",
     "handler_name": "VideoHandler",
     "language": "und",
     "major_brand": "isom",
     "minor_version": "512"
    },
    "path": "./movie_003_002.mp4",
    "pixel_format": 0,
    "pixel_ratio": {
     "den": 1,
     "num": 1
    },
    "sample_rate": 0,
    "top_field_first": true,
    "type": "FFmpegReader",
    "vcodec": "h264",
    "video_bit_rate": 782837,
    "video_length": "2208",
    "video_stream_index": 0,
    "video_timebase": {
     "den": 15360,
     "num": 1
    },
    "width": 1920,
    "media_type": "video",
    "id": "L20DIPWUJ9"
   },
   "rotation": {
    "Points": [
     {
      "co": {
       "X": 1.0,
       "Y": 0.0
      },
      "handle_left": {
       "X": 0.5,
       "Y": 1.0
      },
      "handle_right": {
       "X": 0.5,
       "Y": 0.0
      },
      "handle_type": 0,
      "interpolation": 0
     }
    ]
   },
   "scale": 1,
   "scale_x": {
    "Points": [
     {
      "co": {
       "X": 1.0,
       "Y": 1.0
      },
      "handle_left": {
       "X": 0.5,
       "Y": 1.0
      },
      "handle_right": {
       "X": 0.5,
       "Y": 0.0
      },
      "handle_type": 0,
      "interpolation": 0
     }
    ]
   },
   "scale_y": {
    "Points": [
     {
      "co": {
       "X": 1.0,
       "Y": 1.0
      },
      "handle_left": {
       "X": 0.5,
       "Y": 1.0
      },
      "handle_right": {
       "X": 0.5,
       "Y": 0.0
      },
      "handle_type": 0,
      "interpolation": 0
     }
    ]
   },
   "shear_x": {
    "Points": [
     {
      "co": {
       "X": 1.0,
       "Y": 0.0
      },
      "handle_left": {
       "X": 0.5,
       "Y": 1.0
      },
      "handle_right": {
       "X": 0.5,
       "Y": 0.0
      },
      "handle_type": 0,
      "interpolation": 0
     }
    ]
   },
   "shear_y": {
    "Points": [
     {
      "co": {
       "X": 1.0,
       "Y": 0.0
      },
      "handle_left": {
       "X": 0.5,
       "Y": 1.0
      },
      "handle_right": {
       "X": 0.5,
       "Y": 0.0
      },
      "handle_type": 0,
      "interpolation": 0
     }
    ]
   },
   "start": 42.03334350585942,
   "time": {
    "Points": [
     {
      "co": {
       "X": 1.0,
       "Y": 1.0
      },
      "handle_left": {
       "X": 0.5,
       "Y": 1.0
      },
      "handle_right": {
       "X": 0.5,
       "Y": 0.0
      },
      "handle_type": 0,
      "interpolation": 0
     }
    ]
   },
   "volume": {
    "Points": [
     {
      "co": {
       "X": 1.0,
       "Y": 1.0
      },
      "handle_left": {
       "X": 0.5,
       "Y": 1.0
      },
      "handle_right": {
       "X": 0.5,
       "Y": 0.0
      },
      "handle_type": 0,
      "interpolation": 0
     }
    ]
   },
   "wave_color": {
    "alpha": {
     "Points": [
      {
       "co": {
        "X": 1.0,
        "Y": 255.0
       },
       "handle_left": {
        "X": 0.5,
        "Y": 1.0
       },
       "handle_right": {
        "X": 0.5,
        "Y": 0.0
       },
       "handle_type": 0,
       "interpolation": 0
      }
     ]
    },
    "blue": {
     "Points": [
      {
       "co": {
        "X": 1.0,
        "Y": 255.0
       },
       "handle_left": {
        "X": 0.5,
        "Y": 1.0
       },
       "handle_right": {
        "X": 0.5,
        "Y": 0.0
       },
       "handle_type": 0,
       "interpolation": 0
      }
     ]
    },
    "green": {
     "Points": [
      {
       "co": {
        "X": 1.0,
        "Y": 123.0
       },
       "handle_left": {
        "X": 0.5,
        "Y": 1.0
       },
       "handle_right": {
        "X": 0.5,
        "Y": 0.0
       },
       "handle_type": 0,
       "interpolation": 0
      }
     ]
    },
    "red": {
     "Points": [
      {
       "co": {
        "X": 1.0,
        "Y": 0.0
       },
       "handle_left": {
        "X": 0.5,
        "Y": 1.0
       },
       "handle_right": {
        "X": 0.5,
        "Y": 0.0
       },
       "handle_type": 0,
       "interpolation": 0
      }
     ]
    }
   },
   "waveform": false,
   "file_id": "L20DIPWUJ9",
   "title": "movie_003_002.mp4",
   "image": "Tutorial_assets/thumbnail/L20DIPWUJ9.png",
   "id": "68YMFCPHL7"
  },
  {
   "alpha": {
    "Points": [
     {
      "co": {
       "X": 1.0,
       "Y": 1.0
      },
      "handle_left": {
       "X": 0.5,
       "Y": 1.0
      },
      "handle_right": {
       "X": 0.5,
       "Y": 0.0
      },
      "handle_type": 0,
      "interpolation": 0
     }
    ]
   },
   "anchor": 0,
   "channel_filter": {
    "Points": [
     {
      "co": {
       "X": 1.0,
       "Y": -1.0
      },
      "handle_left": {
       "X": 0.5,
       "Y": 1.0
      },
      "handle_right": {
       "X": 0.5,
       "Y": 0.0
      },
      "handle_type": 0,
      "interpolation": 0
     }
    ]
   },
   "channel_mapping": {
    "Points": [
     {
      "co": {
       "X": 1.0,
       "Y": -1.0
      },
      "handle_left": {
       "X": 0.5,
       "Y": 1.0
      },
      "handle_right": {
       "X": 0.5,
       "Y": 0.0
      },
      "handle_type": 0,
      "interpolation": 0
     }
    ]
   },
   "display": 0,
   "duration": 3600.0,
   "effects": [],
   "end": 9.033333333333342,
   "gravity": 4,
   "has_audio": {
    "Points": [
     {
      "co": {
       "X": 1.0,
       "Y": -1.0
      },
      "handle_left": {
       "X": 0.5,
       "Y": 1.0
      },
      "handle_right": {
       "X": 0.5,
       "Y": 0.0
      },
      "handle_type": 0,
      "interpolation": 0
     }
    ]
   },
   "has_video": {
    "Points": [
     {
      "co": {
       "X": 1.0,
       "Y": -1.0
      },
      "handle_left": {
       "X": 0.5,
       "Y": 1.0
      },
      "handle_right": {
       "X": 0.5,
       "Y": 0.0
      },
      "handle_type": 0,
      "interpolation": 0
     }
    ]
   },
   "id": "O0M3M59XOS",
   "layer": 1000000,
   "location_x": {
    "Points": [
     {
      "co": {
       "X": 1.0,
       "Y": 0.0
      },
      "handle_left": {
       "X": 0.5,
       "Y": 1.0
      },
      "handle_right": {
       "X": 0.5,
       "Y": 0.0
      },
      "handle_type": 0,
      "interpolation": 0
     }
    ]
   },
   "location_y": {
    "Points": [
     {
      "co": {
       "X": 1.0,
       "Y": 0.0
      },
      "handle_left": {
       "X": 0.5,
       "Y": 1.0
      },
      "handle_right": {
       "X": 0.5,
       "Y": 0.0
      },
      "handle_type": 0,
      "interpolation": 0
     }
    ]
   },
   "mixing": 0,
   "origin_x": {
    "Points": [
     {
      "co": {
       "X": 1.0,
       "Y": 0.5
      },
      "handle_left": {
       "X": 0.5,
       "Y": 1.0
      },
      "handle_right": {
       "X": 0.5,
       "Y": 0.0
      },
      "handle_type": 0,
      "interpolation": 0
     }
    ]
   },
   "origin_y": {
    "Points": [
     {
      "co": {
       "X": 1.0,
       "Y": 0.5
      },
      "handle_left": {
       "X": 0.5,
       "Y": 1.0
      },
      "handle_right": {
       "X": 0.5,
       "Y": 0.0
      },
      "handle_type": 0,
      "interpolation": 0
     }
    ]
   },
   "parentObjectId": "",
   "perspective_c1_x": {
    "Points": [
     {
      "co": {
       "X": 1.0,
       "Y": -1.0
      },
      "handle_left": {
       "X": 0.5,
       "Y": 1.0
      },
      "handle_right": {
       "X": 0.5,
       "Y": 0.0
      },
      "handle_type": 0,
      "interpolation": 0
     }
    ]
   },
   "perspective_c1_y": {
    "Points": [
     {
      "co": {
       "X": 1.0,
       "Y": -1.0
      },
      "handle_left": {
       "X": 0.5,
       "Y": 1.0
      },
      "handle_right": {
       "X": 0.5,
       "Y": 0.0
      },
      "handle_type": 0,
      "interpolation": 0
     }
    ]
   },
   "perspective_c2_x": {
    "Points": [
     {
      "co": {
       "X": 1.0,
       "Y": -1.0
      },
      "handle_left": {
       "X": 0.5,
       "Y": 1.0
      },
      "handle_right": {
       "X": 0.5,
       "Y": 0.0
      },
      "handle_type": 0,
      "interpolation": 0
     }
    ]
   },
   "perspective_c2_y": {
    "Points": [
     {
      "co": {
       "X": 1.0,
       "Y": -1.0
      },
      "handle_left": {
       "X": 0.5,
       "Y": 1.0
      },
      "handle_right": {
       "X": 0.5,
       "Y": 0.0
      },
      "handle_type": 0,
      "interpolation": 0
     }
    ]
   },
   "perspective_c3_x": {
    "Points": [
     {
      "co": {
       "X": 1.0,
       "Y": -1.0
      },
      "handle_left": {
       "X": 0.5,
       "Y": 1.0
      },
      "handle_right": {
       "X": 0.5,
       "Y": 0.0
      },
      "handle_type": 0,
      "interpolation": 0
     }
    ]
   },
   "perspective_c3_y": {
    "Points": [
     {
      "co": {
       "X": 1.0,
       "Y": -1.0
      },
      "handle_left": {
       "X": 0.5,
       "Y": 1.0
      },
      "handle_right": {
       "X": 0.5,
       "Y": 0.0
      },
      "handle_type": 0,
      "interpolation": 0
     }
    ]
   },
   "perspective_c4_x": {
    "Points": [
     {
      "co": {
       "X": 1.0,
       "Y": -1.0
      },
      "handle_left": {
       "X": 0.5,
       "Y": 1.0
      },
      "handle_right": {
       "X": 0.5,
       "Y": 0.0
      },
      "handle_type": 0,
      "interpolation": 0
     }
    ]
   },
   "perspective_c4_y": {
    "Points": [
     {
      "co": {
       "X": 1.0,
       "Y": -1.0
      },
      "handle_left": {
       "X": 0.5,
       "Y": 1.0
      },
      "handle_right": {
       "X": 0.5,
       "Y": 0.0
      },
      "handle_type": 0,
      "interpolation": 0
     }
    ]
   },
   "position": 148.9,
   "reader": {
    "acodec": "",
    "audio_bit_rate": 0,
    "audio_stream_index": -1,
    "audio_timebase": {
     "den": 1,
     "num": 1
    },
    "channel_layout": 4,
    "channels": 0,
    "display_ratio": {
     "den": 9,
     "num": 16
    },
    "duration": 3600.0,
    "file_size": "8294400",
    "fps": {
     "den": 1,
     "num": 30
    },
    "has_audio": false,
    "has_single_image": true,
    "has_video": true,
    "height": 1080,
    "interlaced_frame": false,
    "metadata": {},
    "path": "./Frame-04475.png",
    "pixel_format": -1,
    "pixel_ratio": {
     "den": 1,
     "num": 1
    },
    "sample_rate": 0,
    "top_field_first": true,
    "type": "QtImageReader",
    "vcodec": "",
    "video_bit_rate": 0,
    "video_length": "108000",
    "video_stream_index": -1,
    "video_timebase": {
     "den": 30,
     "num": 1
    },
    "width": 1920,
    "media_type": "image",
    "id": "B8SPS2SEDK"
   },
   "rotation": {
    "Points": [
     {
      "co": {
       "X": 1.0,
       "Y": 0.0
      },
      "handle_left": {
       "X": 0.5,
       "Y": 1.0
      },
      "handle_right": {
       "X": 0.5,
       "Y": 0.0
      },
      "handle_type": 0,
      "interpolation": 0
     }
    ]
   },
   "scale": 1,
   "scale_x": {
    "Points": [
     {
      "co": {
       "X": 1.0,
       "Y": 1.0
      },
      "handle_left": {
       "X": 0.5,
       "Y": 1.0
      },
      "handle_right": {
       "X": 0.5,
       "Y": 0.0
      },
      "handle_type": 0,
      "interpolation": 0
     }
    ]
   },
   "scale_y": {
    "Points": [
     {
      "co": {
       "X": 1.0,
       "Y": 1.0
      },
      "handle_left": {
       "X": 0.5,
       "Y": 1.0
      },
      "handle_right": {
       "X": 0.5,
       "Y": 0.0
      },
      "handle_type": 0,
      "interpolation": 0
     }
    ]
   },
   "shear_x": {
    "Points": [
     {
      "co": {
       "X": 1.0,
       "Y": 0.0
      },
      "handle_left": {
       "X": 0.5,
       "Y": 1.0
      },
      "handle_right": {
       "X": 0.5,
       "Y": 0.0
      },
      "handle_type": 0,
      "interpolation": 0
     }
    ]
   },
   "shear_y": {
    "Points": [
     {
      "co": {
       "X": 1.0,
       "Y": 0.0
      },
      "handle_left": {
       "X": 0.5,
       "Y": 1.0
      },
      "handle_right": {
       "X": 0.5,
       "Y": 0.0
      },
      "handle_type": 0,
      "interpolation": 0
     }
    ]
   },
   "start": 0,
   "time": {
    "Points": [
     {
      "co": {
       "X": 1.0,
       "Y": 1.0
      },
      "handle_left": {
       "X": 0.5,
       "Y": 1.0
      },
      "handle_right": {
       "X": 0.5,
       "Y": 0.0
      },
      "handle_type": 0,
      "interpolation": 0
     }
    ]
   },
   "volume": {
    "Points": [
     {
      "co": {
       "X": 1.0,
       "Y": 1.0
      },
      "handle_left": {
       "X": 0.5,
       "Y": 1.0
      },
      "handle_right": {
       "X": 0.5,
       "Y": 0.0
      },
      "handle_type": 0,
      "interpolation": 0
     }
    ]
   },
   "wave_color": {
    "alpha": {
     "Points": [
      {
       "co": {
        "X": 1.0,
        "Y": 255.0
       },
       "handle_left": {
        "X": 0.5,
        "Y": 1.0
       },
       "handle_right": {
        "X": 0.5,
        "Y": 0.0
       },
       "handle_type": 0,
       "interpolation": 0
      }
     ]
    },
    "blue": {
     "Points": [
      {
       "co": {
        "X": 1.0,
        "Y": 255.0
       },
       "handle_left": {
        "X": 0.5,
        "Y": 1.0
       },
       "handle_right": {
        "X": 0.5,
        "Y": 0.0
       },
       "handle_type": 0,
       "interpolation": 0
      }
     ]
    },
    "green": {
     "Points": [
      {
       "co": {
        "X": 1.0,
        "Y": 123.0
       },
       "handle_left": {
        "X": 0.5,
        "Y": 1.0
       },
       "handle_right": {
        "X": 0.5,
        "Y": 0.0
       },
       "handle_type": 0,
       "interpolation": 0
      }
     ]
    },
    "red": {
     "Points": [
      {
       "co": {
        "X": 1.0,
        "Y": 0.0
       },
       "handle_left": {
        "X": 0.5,
        "Y": 1.0
       },
       "handle_right": {
        "X": 0.5,
        "Y": 0.0
       },
       "handle_type": 0,
       "interpolation": 0
      }
     ]
    }
   },
   "waveform": false,
   "file_id": "B8SPS2SEDK",
   "title": "Frame-04475.png",
   "image": "Tutorial_assets/thumbnail/B8SPS2SEDK.png"
  },
  {
   "alpha": {
    "Points": [
     {
      "co": {
       "X": 1.0,
       "Y": 1.0
      },
      "handle_left": {
       "X": 0.5,
       "Y": 1.0
      },
      "handle_right": {
       "X": 0.5,
       "Y": 0.0
      },
      "handle_type": 0,
      "interpolation": 0
     }
    ]
   },
   "anchor": 0,
   "channel_filter": {
    "Points": [
     {
      "co": {
       "X": 1.0,
       "Y": -1.0
      },
      "handle_left": {
       "X": 0.5,
       "Y": 1.0
      },
      "handle_right": {
       "X": 0.5,
       "Y": 0.0
      },
      "handle_type": 0,
      "interpolation": 0
     }
    ]
   },
   "channel_mapping": {
    "Points": [
     {
      "co": {
       "X": 1.0,
       "Y": -1.0
      },
      "handle_left": {
       "X": 0.5,
       "Y": 1.0
      },
      "handle_right": {
       "X": 0.5,
       "Y": 0.0
      },
      "handle_type": 0,
      "interpolation": 0
     }
    ]
   },
   "display": 0,
   "duration": 73.5999984741211,
   "effects": [],
   "end": 43.96667683919276,
   "gravity": 4,
   "has_audio": {
    "Points": [
     {
      "co": {
       "X": 1.0,
       "Y": -1.0
      },
      "handle_left": {
       "X": 0.5,
       "Y": 1.0
      },
      "handle_right": {
       "X": 0.5,
       "Y": 0.0
      },
      "handle_type": 0,
      "interpolation": 0
     }
    ]
   },
   "has_video": {
    "Points": [
     {
      "co": {
       "X": 1.0,
       "Y": -1.0
      },
      "handle_left": {
       "X": 0.5,
       "Y": 1.0
      },
      "handle_right": {
       "X": 0.5,
       "Y": 0.0
      },
      "handle_type": 0,
      "interpolation": 0
     }
    ]
   },
   "layer": 1000000,
   "location_x": {
    "Points": [
     {
      "co": {
       "X": 1.0,
       "Y": 0.0
      },
      "handle_left": {
       "X": 0.5,
       "Y": 1.0
      },
      "handle_right": {
       "X": 0.5,
       "Y": 0.0
      },
      "handle_type": 0,
      "interpolation": 0
     }
    ]
   },
   "location_y": {
    "Points": [
     {
      "co": {
       "X": 1.0,
       "Y": 0.0
      },
      "handle_left": {
       "X": 0.5,
       "Y": 1.0
      },
      "handle_right": {
       "X": 0.5,
       "Y": 0.0
      },
      "handle_type": 0,
      "interpolation": 0
     }
    ]
   },
   "mixing": 0,
   "origin_x": {
    "Points": [
     {
      "co": {
       "X": 1.0,
       "Y": 0.5
      },
      "handle_left": {
       "X": 0.5,
       "Y": 1.0
      },
      "handle_right": {
       "X": 0.5,
       "Y": 0.0
      },
      "handle_type": 0,
      "interpolation": 0
     }
    ]
   },
   "origin_y": {
    "Points": [
     {
      "co": {
       "X": 1.0,
       "Y": 0.5
      },
      "handle_left": {
       "X": 0.5,
       "Y": 1.0
      },
      "handle_right": {
       "X": 0.5,
       "Y": 0.0
      },
      "handle_type": 0,
      "interpolation": 0
     }
    ]
   },
   "parentObjectId": "",
   "perspective_c1_x": {
    "Points": [
     {
      "co": {
       "X": 1.0,
       "Y": -1.0
      },
      "handle_left": {
       "X": 0.5,
       "Y": 1.0
      },
      "handle_right": {
       "X": 0.5,
       "Y": 0.0
      },
      "handle_type": 0,
      "interpolation": 0
     }
    ]
   },
   "perspective_c1_y": {
    "Points": [
     {
      "co": {
       "X": 1.0,
       "Y": -1.0
      },
      "handle_left": {
       "X": 0.5,
       "Y": 1.0
      },
      "handle_right": {
       "X": 0.5,
       "Y": 0.0
      },
      "handle_type": 0,
      "interpolation": 0
     }
    ]
   },
   "perspective_c2_x": {
    "Points": [
     {
      "co": {
       "X": 1.0,
       "Y": -1.0
      },
      "handle_left": {
       "X": 0.5,
       "Y": 1.0
      },
      "handle_right": {
       "X": 0.5,
       "Y": 0.0
      },
      "handle_type": 0,
      "interpolation": 0
     }
    ]
   },
   "perspective_c2_y": {
    "Points": [
     {
      "co": {
       "X": 1.0,
       "Y": -1.0
      },
      "handle_left": {
       "X": 0.5,
       "Y": 1.0
      },
      "handle_right": {
       "X": 0.5,
       "Y": 0.0
      },
      "handle_type": 0,
      "interpolation": 0
     }
    ]
   },
   "perspective_c3_x": {
    "Points": [
     {
      "co": {
       "X": 1.0,
       "Y": -1.0
      },
      "handle_left": {
       "X": 0.5,
       "Y": 1.0
      },
      "handle_right": {
       "X": 0.5,
       "Y": 0.0
      },
      "handle_type": 0,
      "interpolation": 0
     }
    ]
   },
   "perspective_c3_y": {
    "Points": [
     {
      "co": {
       "X": 1.0,
       "Y": -1.0
      },
      "handle_left": {
       "X": 0.5,
       "Y": 1.0
      },
      "handle_right": {
       "X": 0.5,
       "Y": 0.0
      },
      "handle_type": 0,
      "interpolation": 0
     }
    ]
   },
   "perspective_c4_x": {
    "Points": [
     {
      "co": {
       "X": 1.0,
       "Y": -1.0
      },
      "handle_left": {
       "X": 0.5,
       "Y": 1.0
      },
      "handle_right": {
       "X": 0.5,
       "Y": 0.0
      },
      "handle_type": 0,
      "interpolation": 0
     }
    ]
   },
   "perspective_c4_y": {
    "Points": [
     {
      "co": {
       "X": 1.0,
       "Y": -1.0
      },
      "handle_left": {
       "X": 0.5,
       "Y": 1.0
      },
      "handle_right": {
       "X": 0.5,
       "Y": 0.0
      },
      "handle_type": 0,
      "interpolation": 0
     }
    ]
   },
   "position": 158.06666666666666,
   "reader": {
    "acodec": "",
    "audio_bit_rate": 0,
    "audio_stream_index": -1,
    "audio_timebase": {
     "den": 1,
     "num": 1
    },
    "channel_layout": 4,
    "channels": 0,
    "display_ratio": {
     "den": 9,
     "num": 16
    },
    "duration": 73.5999984741211,
    "file_size": "57616868",
    "fps": {
     "den": 1,
     "num": 30
    },
    "has_audio": false,
    "has_single_image": false,
    "has_video": true,
    "height": 1080,
    "interlaced_frame": false,
    "metadata": {
     "comment": "Create videos with https://clipchamp.com/en/video-editor - free online video editor, video compressor, video converter.",
     "compatible_brands": "isomiso2avc1mp41",
     "encoder": "https://clipchamp.com",
     "handler_name": "VideoHandler",
     "language": "und",
     "major_brand": "isom",
     "minor_version": "512"
    },
    "path": "./movie_003_002.mp4",
    "pixel_format": 0,
    "pixel_ratio": {
     "den": 1,
     "num": 1
    },
    "sample_rate": 0,
    "top_field_first": true,
    "type": "FFmpegReader",
    "vcodec": "h264",
    "video_bit_rate": 782837,
    "video_length": "2208",
    "video_stream_index": 0,
    "video_timebase": {
     "den": 15360,
     "num": 1
    },
    "width": 1920,
    "media_type": "video",
    "id": "L20DIPWUJ9"
   },
   "rotation": {
    "Points": [
     {
      "co": {
       "X": 1.0,
       "Y": 0.0
      },
      "handle_left": {
       "X": 0.5,
       "Y": 1.0
      },
      "handle_right": {
       "X": 0.5,
       "Y": 0.0
      },
      "handle_type": 0,
      "interpolation": 0
     }
    ]
   },
   "scale": 1,
   "scale_x": {
    "Points": [
     {
      "co": {
       "X": 1.0,
       "Y": 1.0
      },
      "handle_left": {
       "X": 0.5,
       "Y": 1.0
      },
      "handle_right": {
       "X": 0.5,
       "Y": 0.0
      },
      "handle_type": 0,
      "interpolation": 0
     }
    ]
   },
   "scale_y": {
    "Points": [
     {
      "co": {
       "X": 1.0,
       "Y": 1.0
      },
      "handle_left": {
       "X": 0.5,
       "Y": 1.0
      },
      "handle_right": {
       "X": 0.5,
       "Y": 0.0
      },
      "handle_type": 0,
      "interpolation": 0
     }
    ]
   },
   "shear_x": {
    "Points": [
     {
      "co": {
       "X": 1.0,
       "Y": 0.0
      },
      "handle_left": {
       "X": 0.5,
       "Y": 1.0
      },
      "handle_right": {
       "X": 0.5,
       "Y": 0.0
      },
      "handle_type": 0,
      "interpolation": 0
     }
    ]
   },
   "shear_y": {
    "Points": [
     {
      "co": {
       "X": 1.0,
       "Y": 0.0
      },
      "handle_left": {
       "X": 0.5,
       "Y": 1.0
      },
      "handle_right": {
       "X": 0.5,
       "Y": 0.0
      },
      "handle_type": 0,
      "interpolation": 0
     }
    ]
   },
   "start": 42.166676839192746,
   "time": {
    "Points": [
     {
      "co": {
       "X": 1.0,
       "Y": 1.0
      },
      "handle_left": {
       "X": 0.5,
       "Y": 1.0
      },
      "handle_right": {
       "X": 0.5,
       "Y": 0.0
      },
      "handle_type": 0,
      "interpolation": 0
     }
    ]
   },
   "volume": {
    "Points": [
     {
      "co": {
       "X": 1.0,
       "Y": 1.0
      },
      "handle_left": {
       "X": 0.5,
       "Y": 1.0
      },
      "handle_right": {
       "X": 0.5,
       "Y": 0.0
      },
      "handle_type": 0,
      "interpolation": 0
     }
    ]
   },
   "wave_color": {
    "alpha": {
     "Points": [
      {
       "co": {
        "X": 1.0,
        "Y": 255.0
       },
       "handle_left": {
        "X": 0.5,
        "Y": 1.0
       },
       "handle_right": {
        "X": 0.5,
        "Y": 0.0
       },
       "handle_type": 0,
       "interpolation": 0
      }
     ]
    },
    "blue": {
     "Points": [
      {
       "co": {
        "X": 1.0,
        "Y": 255.0
       },
       "handle_left": {
        "X": 0.5,
        "Y": 1.0
       },
       "handle_right": {
        "X": 0.5,
        "Y": 0.0
       },
       "handle_type": 0,
       "interpolation": 0
      }
     ]
    },
    "green": {
     "Points": [
      {
       "co": {
        "X": 1.0,
        "Y": 123.0
       },
       "handle_left": {
        "X": 0.5,
        "Y": 1.0
       },
       "handle_right": {
        "X": 0.5,
        "Y": 0.0
       },
       "handle_type": 0,
       "interpolation": 0
      }
     ]
    },
    "red": {
     "Points": [
      {
       "co": {
        "X": 1.0,
        "Y": 0.0
       },
       "handle_left": {
        "X": 0.5,
        "Y": 1.0
       },
       "handle_right": {
        "X": 0.5,
        "Y": 0.0
       },
       "handle_type": 0,
       "interpolation": 0
      }
     ]
    }
   },
   "waveform": false,
   "file_id": "L20DIPWUJ9",
   "title": "movie_003_002.mp4",
   "image": "Tutorial_assets/thumbnail/L20DIPWUJ9.png",
   "id": "VY7NCV6MOC"
  },
  {
   "alpha": {
    "Points": [
     {
      "co": {
       "X": 1.0,
       "Y": 1.0
      },
      "handle_left": {
       "X": 0.5,
       "Y": 1.0
      },
      "handle_right": {
       "X": 0.5,
       "Y": 0.0
      },
      "handle_type": 0,
      "interpolation": 0
     }
    ]
   },
   "anchor": 0,
   "channel_filter": {
    "Points": [
     {
      "co": {
       "X": 1.0,
       "Y": -1.0
      },
      "handle_left": {
       "X": 0.5,
       "Y": 1.0
      },
      "handle_right": {
       "X": 0.5,
       "Y": 0.0
      },
      "handle_type": 0,
      "interpolation": 0
     }
    ]
   },
   "channel_mapping": {
    "Points": [
     {
      "co": {
       "X": 1.0,
       "Y": -1.0
      },
      "handle_left": {
       "X": 0.5,
       "Y": 1.0
      },
      "handle_right": {
       "X": 0.5,
       "Y": 0.0
      },
      "handle_type": 0,
      "interpolation": 0
     }
    ]
   },
   "display": 0,
   "duration": 73.5999984741211,
   "effects": [],
   "end": 47.80001017252607,
   "gravity": 4,
   "has_audio": {
    "Points": [
     {
      "co": {
       "X": 1.0,
       "Y": -1.0
      },
      "handle_left": {
       "X": 0.5,
       "Y": 1.0
      },
      "handle_right": {
       "X": 0.5,
       "Y": 0.0
      },
      "handle_type": 0,
      "interpolation": 0
     }
    ]
   },
   "has_video": {
    "Points": [
     {
      "co": {
       "X": 1.0,
       "Y": -1.0
      },
      "handle_left": {
       "X": 0.5,
       "Y": 1.0
      },
      "handle_right": {
       "X": 0.5,
       "Y": 0.0
      },
      "handle_type": 0,
      "interpolation": 0
     }
    ]
   },
   "layer": 1000000,
   "location_x": {
    "Points": [
     {
      "co": {
       "X": 1.0,
       "Y": 0.0
      },
      "handle_left": {
       "X": 0.5,
       "Y": 1.0
      },
      "handle_right": {
       "X": 0.5,
       "Y": 0.0
      },
      "handle_type": 0,
      "interpolation": 0
     }
    ]
   },
   "location_y": {
    "Points": [
     {
      "co": {
       "X": 1.0,
       "Y": 0.0
      },
      "handle_left": {
       "X": 0.5,
       "Y": 1.0
      },
      "handle_right": {
       "X": 0.5,
       "Y": 0.0
      },
      "handle_type": 0,
      "interpolation": 0
     }
    ]
   },
   "mixing": 0,
   "origin_x": {
    "Points": [
     {
      "co": {
       "X": 1.0,
       "Y": 0.5
      },
      "handle_left": {
       "X": 0.5,
       "Y": 1.0
      },
      "handle_right": {
       "X": 0.5,
       "Y": 0.0
      },
      "handle_type": 0,
      "interpolation": 0
     }
    ]
   },
   "origin_y": {
    "Points": [
     {
      "co": {
       "X": 1.0,
       "Y": 0.5
      },
      "handle_left": {
       "X": 0.5,
       "Y": 1.0
      },
      "handle_right": {
       "X": 0.5,
       "Y": 0.0
      },
      "handle_type": 0,
      "interpolation": 0
     }
    ]
   },
   "parentObjectId": "",
   "perspective_c1_x": {
    "Points": [
     {
      "co": {
       "X": 1.0,
       "Y": -1.0
      },
      "handle_left": {
       "X": 0.5,
       "Y": 1.0
      },
      "handle_right": {
       "X": 0.5,
       "Y": 0.0
      },
      "handle_type": 0,
      "interpolation": 0
     }
    ]
   },
   "perspective_c1_y": {
    "Points": [
     {
      "co": {
       "X": 1.0,
       "Y": -1.0
      },
      "handle_left": {
       "X": 0.5,
       "Y": 1.0
      },
      "handle_right": {
       "X": 0.5,
       "Y": 0.0
      },
      "handle_type": 0,
      "interpolation": 0
     }
    ]
   },
   "perspective_c2_x": {
    "Points": [
     {
      "co": {
       "X": 1.0,
       "Y": -1.0
      },
      "handle_left": {
       "X": 0.5,
       "Y": 1.0
      },
      "handle_right": {
       "X": 0.5,
       "Y": 0.0
      },
      "handle_type": 0,
      "interpolation": 0
     }
    ]
   },
   "perspective_c2_y": {
    "Points": [
     {
      "co": {
       "X": 1.0,
       "Y": -1.0
      },
      "handle_left": {
       "X": 0.5,
       "Y": 1.0
      },
      "handle_right": {
       "X": 0.5,
       "Y": 0.0
      },
      "handle_type": 0,
      "interpolation": 0
     }
    ]
   },
   "perspective_c3_x": {
    "Points": [
     {
      "co": {
       "X": 1.0,
       "Y": -1.0
      },
      "handle_left": {
       "X": 0.5,
       "Y": 1.0
      },
      "handle_right": {
       "X": 0.5,
       "Y": 0.0
      },
      "handle_type": 0,
      "interpolation": 0
     }
    ]
   },
   "perspective_c3_y": {
    "Points": [
     {
      "co": {
       "X": 1.0,
       "Y": -1.0
      },
      "handle_left": {
       "X": 0.5,
       "Y": 1.0
      },
      "handle_right": {
       "X": 0.5,
       "Y": 0.0
      },
      "handle_type": 0,
      "interpolation": 0
     }
    ]
   },
   "perspective_c4_x": {
    "Points": [
     {
      "co": {
       "X": 1.0,
       "Y": -1.0
      },
      "handle_left": {
       "X": 0.5,
       "Y": 1.0
      },
      "handle_right": {
       "X": 0.5,
       "Y": 0.0
      },
      "handle_type": 0,
      "interpolation": 0
     }
    ]
   },
   "perspective_c4_y": {
    "Points": [
     {
      "co": {
       "X": 1.0,
       "Y": -1.0
      },
      "handle_left": {
       "X": 0.5,
       "Y": 1.0
      },
      "handle_right": {
       "X": 0.5,
       "Y": 0.0
      },
      "handle_type": 0,
      "interpolation": 0
     }
    ]
   },
   "position": 167.33333333333334,
   "reader": {
    "acodec": "",
    "audio_bit_rate": 0,
    "audio_stream_index": -1,
    "audio_timebase": {
     "den": 1,
     "num": 1
    },
    "channel_layout": 4,
    "channels": 0,
    "display_ratio": {
     "den": 9,
     "num": 16
    },
    "duration": 73.5999984741211,
    "file_size": "57616868",
    "fps": {
     "den": 1,
     "num": 30
    },
    "has_audio": false,
    "has_single_image": false,
    "has_video": true,
    "height": 1080,
    "interlaced_frame": false,
    "metadata": {
     "comment": "Create videos with https://clipchamp.com/en/video-editor - free online video editor, video compressor, video converter.",
     "compatible_brands": "isomiso2avc1mp41",
     "encoder": "https://clipchamp.com",
     "handler_name": "VideoHandler",
     "language": "und",
     "major_brand": "isom",
     "minor_version": "512"
    },
    "path": "./movie_003_002.mp4",
    "pixel_format": 0,
    "pixel_ratio": {
     "den": 1,
     "num": 1
    },
    "sample_rate": 0,
    "top_field_first": true,
    "type": "FFmpegReader",
    "vcodec": "h264",
    "video_bit_rate": 782837,
    "video_length": "2208",
    "video_stream_index": 0,
    "video_timebase": {
     "den": 15360,
     "num": 1
    },
    "width": 1920,
    "media_type": "video",
    "id": "L20DIPWUJ9"
   },
   "rotation": {
    "Points": [
     {
      "co": {
       "X": 1.0,
       "Y": 0.0
      },
      "handle_left": {
       "X": 0.5,
       "Y": 1.0
      },
      "handle_right": {
       "X": 0.5,
       "Y": 0.0
      },
      "handle_type": 0,
      "interpolation": 0
     }
    ]
   },
   "scale": 1,
   "scale_x": {
    "Points": [
     {
      "co": {
       "X": 1.0,
       "Y": 1.0
      },
      "handle_left": {
       "X": 0.5,
       "Y": 1.0
      },
      "handle_right": {
       "X": 0.5,
       "Y": 0.0
      },
      "handle_type": 0,
      "interpolation": 0
     }
    ]
   },
   "scale_y": {
    "Points": [
     {
      "co": {
       "X": 1.0,
       "Y": 1.0
      },
      "handle_left": {
       "X": 0.5,
       "Y": 1.0
      },
      "handle_right": {
       "X": 0.5,
       "Y": 0.0
      },
      "handle_type": 0,
      "interpolation": 0
     }
    ]
   },
   "shear_x": {
    "Points": [
     {
      "co": {
       "X": 1.0,
       "Y": 0.0
      },
      "handle_left": {
       "X": 0.5,
       "Y": 1.0
      },
      "handle_right": {
       "X": 0.5,
       "Y": 0.0
      },
      "handle_type": 0,
      "interpolation": 0
     }
    ]
   },
   "shear_y": {
    "Points": [
     {
      "co": {
       "X": 1.0,
       "Y": 0.0
      },
      "handle_left": {
       "X": 0.5,
       "Y": 1.0
      },
      "handle_right": {
       "X": 0.5,
       "Y": 0.0
      },
      "handle_type": 0,
      "interpolation": 0
     }
    ]
   },
   "start": 43.96667683919276,
   "time": {
    "Points": [
     {
      "co": {
       "X": 1.0,
       "Y": 1.0
      },
      "handle_left": {
       "X": 0.5,
       "Y": 1.0
      },
      "handle_right": {
       "X": 0.5,
       "Y": 0.0
      },
      "handle_type": 0,
      "interpolation": 0
     }
    ]
   },
   "volume": {
    "Points": [
     {
      "co": {
       "X": 1.0,
       "Y": 1.0
      },
      "handle_left": {
       "X": 0.5,
       "Y": 1.0
      },
      "handle_right": {
       "X": 0.5,
       "Y": 0.0
      },
      "handle_type": 0,
      "interpolation": 0
     }
    ]
   },
   "wave_color": {
    "alpha": {
     "Points": [
      {
       "co": {
        "X": 1.0,
        "Y": 255.0
       },
       "handle_left": {
        "X": 0.5,
        "Y": 1.0
       },
       "handle_right": {
        "X": 0.5,
        "Y": 0.0
       },
       "handle_type": 0,
       "interpolation": 0
      }
     ]
    },
    "blue": {
     "Points": [
      {
       "co": {
        "X": 1.0,
        "Y": 255.0
       },
       "handle_left": {
        "X": 0.5,
        "Y": 1.0
       },
       "handle_right": {
        "X": 0.5,
        "Y": 0.0
       },
       "handle_type": 0,
       "interpolation": 0
      }
     ]
    },
    "green": {
     "Points": [
      {
       "co": {
        "X": 1.0,
        "Y": 123.0
       },
       "handle_left": {
        "X": 0.5,
        "Y": 1.0
       },
       "handle_right": {
        "X": 0.5,
        "Y": 0.0
       },
       "handle_type": 0,
       "interpolation": 0
      }
     ]
    },
    "red": {
     "Points": [
      {
       "co": {
        "X": 1.0,
        "Y": 0.0
       },
       "handle_left": {
        "X": 0.5,
        "Y": 1.0
       },
       "handle_right": {
        "X": 0.5,
        "Y": 0.0
       },
       "handle_type": 0,
       "interpolation": 0
      }
     ]
    }
   },
   "waveform": false,
   "file_id": "L20DIPWUJ9",
   "title": "movie_003_002.mp4",
   "image": "Tutorial_assets/thumbnail/L20DIPWUJ9.png",
   "id": "S5HA8XIHH6"
  },
  {
   "alpha": {
    "Points": [
     {
      "co": {
       "X": 1.0,
       "Y": 1.0
      },
      "handle_left": {
       "X": 0.5,
       "Y": 1.0
      },
      "handle_right": {
       "X": 0.5,
       "Y": 0.0
      },
      "handle_type": 0,
      "interpolation": 0
     }
    ]
   },
   "anchor": 0,
   "channel_filter": {
    "Points": [
     {
      "co": {
       "X": 1.0,
       "Y": -1.0
      },
      "handle_left": {
       "X": 0.5,
       "Y": 1.0
      },
      "handle_right": {
       "X": 0.5,
       "Y": 0.0
      },
      "handle_type": 0,
      "interpolation": 0
     }
    ]
   },
   "channel_mapping": {
    "Points": [
     {
      "co": {
       "X": 1.0,
       "Y": -1.0
      },
      "handle_left": {
       "X": 0.5,
       "Y": 1.0
      },
      "handle_right": {
       "X": 0.5,
       "Y": 0.0
      },
      "handle_type": 0,
      "interpolation": 0
     }
    ]
   },
   "display": 0,
   "duration": 3600.0,
   "effects": [],
   "end": 7.466666666666677,
   "gravity": 4,
   "has_audio": {
    "Points": [
     {
      "co": {
       "X": 1.0,
       "Y": -1.0
      },
      "handle_left": {
       "X": 0.5,
       "Y": 1.0
      },
      "handle_right": {
       "X": 0.5,
       "Y": 0.0
      },
      "handle_type": 0,
      "interpolation": 0
     }
    ]
   },
   "has_video": {
    "Points": [
     {
      "co": {
       "X": 1.0,
       "Y": -1.0
      },
      "handle_left": {
       "X": 0.5,
       "Y": 1.0
      },
      "handle_right": {
       "X": 0.5,
       "Y": 0.0
      },
      "handle_type": 0,
      "interpolation": 0
     }
    ]
   },
   "id": "RVIP8DWPQX",
   "layer": 1000000,
   "location_x": {
    "Points": [
     {
      "co": {
       "X": 1.0,
       "Y": 0.0
      },
      "handle_left": {
       "X": 0.5,
       "Y": 1.0
      },
      "handle_right": {
       "X": 0.5,
       "Y": 0.0
      },
      "handle_type": 0,
      "interpolation": 0
     }
    ]
   },
   "location_y": {
    "Points": [
     {
      "co": {
       "X": 1.0,
       "Y": 0.0
      },
      "handle_left": {
       "X": 0.5,
       "Y": 1.0
      },
      "handle_right": {
       "X": 0.5,
       "Y": 0.0
      },
      "handle_type": 0,
      "interpolation": 0
     }
    ]
   },
   "mixing": 0,
   "origin_x": {
    "Points": [
     {
      "co": {
       "X": 1.0,
       "Y": 0.5
      },
      "handle_left": {
       "X": 0.5,
       "Y": 1.0
      },
      "handle_right": {
       "X": 0.5,
       "Y": 0.0
      },
      "handle_type": 0,
      "interpolation": 0
     }
    ]
   },
   "origin_y": {
    "Points": [
     {
      "co": {
       "X": 1.0,
       "Y": 0.5
      },
      "handle_left": {
       "X": 0.5,
       "Y": 1.0
      },
      "handle_right": {
       "X": 0.5,
       "Y": 0.0
      },
      "handle_type": 0,
      "interpolation": 0
     }
    ]
   },
   "parentObjectId": "",
   "perspective_c1_x": {
    "Points": [
     {
      "co": {
       "X": 1.0,
       "Y": -1.0
      },
      "handle_left": {
       "X": 0.5,
       "Y": 1.0
      },
      "handle_right": {
       "X": 0.5,
       "Y": 0.0
      },
      "handle_type": 0,
      "interpolation": 0
     }
    ]
   },
   "perspective_c1_y": {
    "Points": [
     {
      "co": {
       "X": 1.0,
       "Y": -1.0
      },
      "handle_left": {
       "X": 0.5,
       "Y": 1.0
      },
      "handle_right": {
       "X": 0.5,
       "Y": 0.0
      },
      "handle_type": 0,
      "interpolation": 0
     }
    ]
   },
   "perspective_c2_x": {
    "Points": [
     {
      "co": {
       "X": 1.0,
       "Y": -1.0
      },
      "handle_left": {
       "X": 0.5,
       "Y": 1.0
      },
      "handle_right": {
       "X": 0.5,
       "Y": 0.0
      },
      "handle_type": 0,
      "interpolation": 0
     }
    ]
   },
   "perspective_c2_y": {
    "Points": [
     {
      "co": {
       "X": 1.0,
       "Y": -1.0
      },
      "handle_left": {
       "X": 0.5,
       "Y": 1.0
      },
      "handle_right": {
       "X": 0.5,
       "Y": 0.0
      },
      "handle_type": 0,
      "interpolation": 0
     }
    ]
   },
   "perspective_c3_x": {
    "Points": [
     {
      "co": {
       "X": 1.0,
       "Y": -1.0
      },
      "handle_left": {
       "X": 0.5,
       "Y": 1.0
      },
      "handle_right": {
       "X": 0.5,
       "Y": 0.0
      },
      "handle_type": 0,
      "interpolation": 0
     }
    ]
   },
   "perspective_c3_y": {
    "Points": [
     {
      "co": {
       "X": 1.0,
       "Y": -1.0
      },
      "handle_left": {
       "X": 0.5,
       "Y": 1.0
      },
      "handle_right": {
       "X": 0.5,
       "Y": 0.0
      },
      "handle_type": 0,
      "interpolation": 0
     }
    ]
   },
   "perspective_c4_x": {
    "Points": [
     {
      "co": {
       "X": 1.0,
       "Y": -1.0
      },
      "handle_left": {
       "X": 0.5,
       "Y": 1.0
      },
      "handle_right": {
       "X": 0.5,
       "Y": 0.0
      },
      "handle_type": 0,
      "interpolation": 0
     }
    ]
   },
   "perspective_c4_y": {
    "Points": [
     {
      "co": {
       "X": 1.0,
       "Y": -1.0
      },
      "handle_left": {
       "X": 0.5,
       "Y": 1.0
      },
      "handle_right": {
       "X": 0.5,
       "Y": 0.0
      },
      "handle_type": 0,
      "interpolation": 0
     }
    ]
   },
   "position": 159.86666666666667,
   "reader": {
    "acodec": "",
    "audio_bit_rate": 0,
    "audio_stream_index": -1,
    "audio_timebase": {
     "den": 1,
     "num": 1
    },
    "channel_layout": 4,
    "channels": 0,
    "display_ratio": {
     "den": 9,
     "num": 16
    },
    "duration": 3600.0,
    "file_size": "8294400",
    "fps": {
     "den": 1,
     "num": 30
    },
    "has_audio": false,
    "has_single_image": true,
    "has_video": true,
    "height": 1080,
    "interlaced_frame": false,
    "metadata": {},
    "path": "./Frame-04537.png",
    "pixel_format": -1,
    "pixel_ratio": {
     "den": 1,
     "num": 1
    },
    "sample_rate": 0,
    "top_field_first": true,
    "type": "QtImageReader",
    "vcodec": "",
    "video_bit_rate": 0,
    "video_length": "108000",
    "video_stream_index": -1,
    "video_timebase": {
     "den": 30,
     "num": 1
    },
    "width": 1920,
    "media_type": "image",
    "id": "HH45NJEHXV"
   },
   "rotation": {
    "Points": [
     {
      "co": {
       "X": 1.0,
       "Y": 0.0
      },
      "handle_left": {
       "X": 0.5,
       "Y": 1.0
      },
      "handle_right": {
       "X": 0.5,
       "Y": 0.0
      },
      "handle_type": 0,
      "interpolation": 0
     }
    ]
   },
   "scale": 1,
   "scale_x": {
    "Points": [
     {
      "co": {
       "X": 1.0,
       "Y": 1.0
      },
      "handle_left": {
       "X": 0.5,
       "Y": 1.0
      },
      "handle_right": {
       "X": 0.5,
       "Y": 0.0
      },
      "handle_type": 0,
      "interpolation": 0
     }
    ]
   },
   "scale_y": {
    "Points": [
     {
      "co": {
       "X": 1.0,
       "Y": 1.0
      },
      "handle_left": {
       "X": 0.5,
       "Y": 1.0
      },
      "handle_right": {
       "X": 0.5,
       "Y": 0.0
      },
      "handle_type": 0,
      "interpolation": 0
     }
    ]
   },
   "shear_x": {
    "Points": [
     {
      "co": {
       "X": 1.0,
       "Y": 0.0
      },
      "handle_left": {
       "X": 0.5,
       "Y": 1.0
      },
      "handle_right": {
       "X": 0.5,
       "Y": 0.0
      },
      "handle_type": 0,
      "interpolation": 0
     }
    ]
   },
   "shear_y": {
    "Points": [
     {
      "co": {
       "X": 1.0,
       "Y": 0.0
      },
      "handle_left": {
       "X": 0.5,
       "Y": 1.0
      },
      "handle_right": {
       "X": 0.5,
       "Y": 0.0
      },
      "handle_type": 0,
      "interpolation": 0
     }
    ]
   },
   "start": 0,
   "time": {
    "Points": [
     {
      "co": {
       "X": 1.0,
       "Y": 1.0
      },
      "handle_left": {
       "X": 0.5,
       "Y": 1.0
      },
      "handle_right": {
       "X": 0.5,
       "Y": 0.0
      },
      "handle_type": 0,
      "interpolation": 0
     }
    ]
   },
   "volume": {
    "Points": [
     {
      "co": {
       "X": 1.0,
       "Y": 1.0
      },
      "handle_left": {
       "X": 0.5,
       "Y": 1.0
      },
      "handle_right": {
       "X": 0.5,
       "Y": 0.0
      },
      "handle_type": 0,
      "interpolation": 0
     }
    ]
   },
   "wave_color": {
    "alpha": {
     "Points": [
      {
       "co": {
        "X": 1.0,
        "Y": 255.0
       },
       "handle_left": {
        "X": 0.5,
        "Y": 1.0
       },
       "handle_right": {
        "X": 0.5,
        "Y": 0.0
       },
       "handle_type": 0,
       "interpolation": 0
      }
     ]
    },
    "blue": {
     "Points": [
      {
       "co": {
        "X": 1.0,
        "Y": 255.0
       },
       "handle_left": {
        "X": 0.5,
        "Y": 1.0
       },
       "handle_right": {
        "X": 0.5,
        "Y": 0.0
       },
       "handle_type": 0,
       "interpolation": 0
      }
     ]
    },
    "green": {
     "Points": [
      {
       "co": {
        "X": 1.0,
        "Y": 123.0
       },
       "handle_left": {
        "X": 0.5,
        "Y": 1.0
       },
       "handle_right": {
        "X": 0.5,
        "Y": 0.0
       },
       "handle_type": 0,
       "interpolation": 0
      }
     ]
    },
    "red": {
     "Points": [
      {
       "co": {
        "X": 1.0,
        "Y": 0.0
       },
       "handle_left": {
        "X": 0.5,
        "Y": 1.0
       },
       "handle_right": {
        "X": 0.5,
        "Y": 0.0
       },
       "handle_type": 0,
       "interpolation": 0
      }
     ]
    }
   },
   "waveform": false,
   "file_id": "HH45NJEHXV",
   "title": "Frame-04537.png",
   "image": "Tutorial_assets/thumbnail/HH45NJEHXV.png"
  },
  {
   "alpha": {
    "Points": [
     {
      "co": {
       "X": 1.0,
       "Y": 1.0
      },
      "handle_left": {
       "X": 0.5,
       "Y": 1.0
      },
      "handle_right": {
       "X": 0.5,
       "Y": 0.0
      },
      "handle_type": 0,
      "interpolation": 0
     }
    ]
   },
   "anchor": 0,
   "channel_filter": {
    "Points": [
     {
      "co": {
       "X": 1.0,
       "Y": -1.0
      },
      "handle_left": {
       "X": 0.5,
       "Y": 1.0
      },
      "handle_right": {
       "X": 0.5,
       "Y": 0.0
      },
      "handle_type": 0,
      "interpolation": 0
     }
    ]
   },
   "channel_mapping": {
    "Points": [
     {
      "co": {
       "X": 1.0,
       "Y": -1.0
      },
      "handle_left": {
       "X": 0.5,
       "Y": 1.0
      },
      "handle_right": {
       "X": 0.5,
       "Y": 0.0
      },
      "handle_type": 0,
      "interpolation": 0
     }
    ]
   },
   "display": 0,
   "duration": 3600.0,
   "effects": [],
   "end": 4.7666666666666515,
   "gravity": 4,
   "has_audio": {
    "Points": [
     {
      "co": {
       "X": 1.0,
       "Y": -1.0
      },
      "handle_left": {
       "X": 0.5,
       "Y": 1.0
      },
      "handle_right": {
       "X": 0.5,
       "Y": 0.0
      },
      "handle_type": 0,
      "interpolation": 0
     }
    ]
   },
   "has_video": {
    "Points": [
     {
      "co": {
       "X": 1.0,
       "Y": -1.0
      },
      "handle_left": {
       "X": 0.5,
       "Y": 1.0
      },
      "handle_right": {
       "X": 0.5,
       "Y": 0.0
      },
      "handle_type": 0,
      "interpolation": 0
     }
    ]
   },
   "id": "EF1BFCDWOF",
   "layer": 3000000,
   "location_x": {
    "Points": [
     {
      "co": {
       "X": 1,
       "Y": 0.2913117751961469
      },
      "handle_left": {
       "X": 0.5,
       "Y": 1.0
      },
      "handle_right": {
       "X": 0.5,
       "Y": 0.0
      },
      "handle_type": 0,
      "interpolation": 0
     }
    ]
   },
   "location_y": {
    "Points": [
     {
      "co": {
       "X": 1,
       "Y": -0.2757575511932373
      },
      "handle_left": {
       "X": 0.5,
       "Y": 1.0
      },
      "handle_right": {
       "X": 0.5,
       "Y": 0.0
      },
      "handle_type": 0,
      "interpolation": 0
     }
    ]
   },
   "mixing": 0,
   "origin_x": {
    "Points": [
     {
      "co": {
       "X": 1.0,
       "Y": 0.5
      },
      "handle_left": {
       "X": 0.5,
       "Y": 1.0
      },
      "handle_right": {
       "X": 0.5,
       "Y": 0.0
      },
      "handle_type": 0,
      "interpolation": 0
     }
    ]
   },
   "origin_y": {
    "Points": [
     {
      "co": {
       "X": 1.0,
       "Y": 0.5
      },
      "handle_left": {
       "X": 0.5,
       "Y": 1.0
      },
      "handle_right": {
       "X": 0.5,
       "Y": 0.0
      },
      "handle_type": 0,
      "interpolation": 0
     }
    ]
   },
   "parentObjectId": "",
   "perspective_c1_x": {
    "Points": [
     {
      "co": {
       "X": 1.0,
       "Y": -1.0
      },
      "handle_left": {
       "X": 0.5,
       "Y": 1.0
      },
      "handle_right": {
       "X": 0.5,
       "Y": 0.0
      },
      "handle_type": 0,
      "interpolation": 0
     }
    ]
   },
   "perspective_c1_y": {
    "Points": [
     {
      "co": {
       "X": 1.0,
       "Y": -1.0
      },
      "handle_left": {
       "X": 0.5,
       "Y": 1.0
      },
      "handle_right": {
       "X": 0.5,
       "Y": 0.0
      },
      "handle_type": 0,
      "interpolation": 0
     }
    ]
   },
   "perspective_c2_x": {
    "Points": [
     {
      "co": {
       "X": 1.0,
       "Y": -1.0
      },
      "handle_left": {
       "X": 0.5,
       "Y": 1.0
      },
      "handle_right": {
       "X": 0.5,
       "Y": 0.0
      },
      "handle_type": 0,
      "interpolation": 0
     }
    ]
   },
   "perspective_c2_y": {
    "Points": [
     {
      "co": {
       "X": 1.0,
       "Y": -1.0
      },
      "handle_left": {
       "X": 0.5,
       "Y": 1.0
      },
      "handle_right": {
       "X": 0.5,
       "Y": 0.0
      },
      "handle_type": 0,
      "interpolation": 0
     }
    ]
   },
   "perspective_c3_x": {
    "Points": [
     {
      "co": {
       "X": 1.0,
       "Y": -1.0
      },
      "handle_left": {
       "X": 0.5,
       "Y": 1.0
      },
      "handle_right": {
       "X": 0.5,
       "Y": 0.0
      },
      "handle_type": 0,
      "interpolation": 0
     }
    ]
   },
   "perspective_c3_y": {
    "Points": [
     {
      "co": {
       "X": 1.0,
       "Y": -1.0
      },
      "handle_left": {
       "X": 0.5,
       "Y": 1.0
      },
      "handle_right": {
       "X": 0.5,
       "Y": 0.0
      },
      "handle_type": 0,
      "interpolation": 0
     }
    ]
   },
   "perspective_c4_x": {
    "Points": [
     {
      "co": {
       "X": 1.0,
       "Y": -1.0
      },
      "handle_left": {
       "X": 0.5,
       "Y": 1.0
      },
      "handle_right": {
       "X": 0.5,
       "Y": 0.0
      },
      "handle_type": 0,
      "interpolation": 0
     }
    ]
   },
   "perspective_c4_y": {
    "Points": [
     {
      "co": {
       "X": 1.0,
       "Y": -1.0
      },
      "handle_left": {
       "X": 0.5,
       "Y": 1.0
      },
      "handle_right": {
       "X": 0.5,
       "Y": 0.0
      },
      "handle_type": 0,
      "interpolation": 0
     }
    ]
   },
   "position": 152.96666666666667,
   "reader": {
    "acodec": "",
    "audio_bit_rate": 0,
    "audio_stream_index": -1,
    "audio_timebase": {
     "den": 1,
     "num": 1
    },
    "channel_layout": 4,
    "channels": 0,
    "display_ratio": {
     "den": 721,
     "num": 1700
    },
    "duration": 3600.0,
    "file_size": "4902800",
    "fps": {
     "den": 1,
     "num": 30
    },
    "has_audio": false,
    "has_single_image": true,
    "has_video": true,
    "height": 721,
    "interlaced_frame": false,
    "metadata": {},
    "path": "./drawing24.png",
    "pixel_format": -1,
    "pixel_ratio": {
     "den": 1,
     "num": 1
    },
    "sample_rate": 0,
    "top_field_first": true,
    "type": "QtImageReader",
    "vcodec": "",
    "video_bit_rate": 0,
    "video_length": "108000",
    "video_stream_index": -1,
    "video_timebase": {
     "den": 30,
     "num": 1
    },
    "width": 1700,
    "media_type": "image",
    "id": "2BWKIQFT1A"
   },
   "rotation": {
    "Points": [
     {
      "co": {
       "X": 1.0,
       "Y": 0.0
      },
      "handle_left": {
       "X": 0.5,
       "Y": 1.0
      },
      "handle_right": {
       "X": 0.5,
       "Y": 0.0
      },
      "handle_type": 0,
      "interpolation": 0
     }
    ]
   },
   "scale": 1,
   "scale_x": {
    "Points": [
     {
      "co": {
       "X": 1,
       "Y": 0.3390117974053859
      },
      "handle_left": {
       "X": 0.5,
       "Y": 1.0
      },
      "handle_right": {
       "X": 0.5,
       "Y": 0.0
      },
      "handle_type": 0,
      "interpolation": 0
     }
    ]
   },
   "scale_y": {
    "Points": [
     {
      "co": {
       "X": 1,
       "Y": 0.3390117974053859
      },
      "handle_left": {
       "X": 0.5,
       "Y": 1.0
      },
      "handle_right": {
       "X": 0.5,
       "Y": 0.0
      },
      "handle_type": 0,
      "interpolation": 0
     }
    ]
   },
   "shear_x": {
    "Points": [
     {
      "co": {
       "X": 1.0,
       "Y": 0.0
      },
      "handle_left": {
       "X": 0.5,
       "Y": 1.0
      },
      "handle_right": {
       "X": 0.5,
       "Y": 0.0
      },
      "handle_type": 0,
      "interpolation": 0
     }
    ]
   },
   "shear_y": {
    "Points": [
     {
      "co": {
       "X": 1.0,
       "Y": 0.0
      },
      "handle_left": {
       "X": 0.5,
       "Y": 1.0
      },
      "handle_right": {
       "X": 0.5,
       "Y": 0.0
      },
      "handle_type": 0,
      "interpolation": 0
     }
    ]
   },
   "start": 0,
   "time": {
    "Points": [
     {
      "co": {
       "X": 1.0,
       "Y": 1.0
      },
      "handle_left": {
       "X": 0.5,
       "Y": 1.0
      },
      "handle_right": {
       "X": 0.5,
       "Y": 0.0
      },
      "handle_type": 0,
      "interpolation": 0
     }
    ]
   },
   "volume": {
    "Points": [
     {
      "co": {
       "X": 1.0,
       "Y": 1.0
      },
      "handle_left": {
       "X": 0.5,
       "Y": 1.0
      },
      "handle_right": {
       "X": 0.5,
       "Y": 0.0
      },
      "handle_type": 0,
      "interpolation": 0
     }
    ]
   },
   "wave_color": {
    "alpha": {
     "Points": [
      {
       "co": {
        "X": 1.0,
        "Y": 255.0
       },
       "handle_left": {
        "X": 0.5,
        "Y": 1.0
       },
       "handle_right": {
        "X": 0.5,
        "Y": 0.0
       },
       "handle_type": 0,
       "interpolation": 0
      }
     ]
    },
    "blue": {
     "Points": [
      {
       "co": {
        "X": 1.0,
        "Y": 255.0
       },
       "handle_left": {
        "X": 0.5,
        "Y": 1.0
       },
       "handle_right": {
        "X": 0.5,
        "Y": 0.0
       },
       "handle_type": 0,
       "interpolation": 0
      }
     ]
    },
    "green": {
     "Points": [
      {
       "co": {
        "X": 1.0,
        "Y": 123.0
       },
       "handle_left": {
        "X": 0.5,
        "Y": 1.0
       },
       "handle_right": {
        "X": 0.5,
        "Y": 0.0
       },
       "handle_type": 0,
       "interpolation": 0
      }
     ]
    },
    "red": {
     "Points": [
      {
       "co": {
        "X": 1.0,
        "Y": 0.0
       },
       "handle_left": {
        "X": 0.5,
        "Y": 1.0
       },
       "handle_right": {
        "X": 0.5,
        "Y": 0.0
       },
       "handle_type": 0,
       "interpolation": 0
      }
     ]
    }
   },
   "waveform": false,
   "file_id": "2BWKIQFT1A",
   "title": "drawing24.png",
   "image": "Tutorial_assets/thumbnail/2BWKIQFT1A.png"
  },
  {
   "alpha": {
    "Points": [
     {
      "co": {
       "X": 1.0,
       "Y": 1.0
      },
      "handle_left": {
       "X": 0.5,
       "Y": 1.0
      },
      "handle_right": {
       "X": 0.5,
       "Y": 0.0
      },
      "handle_type": 0,
      "interpolation": 0
     }
    ]
   },
   "anchor": 0,
   "channel_filter": {
    "Points": [
     {
      "co": {
       "X": 1.0,
       "Y": -1.0
      },
      "handle_left": {
       "X": 0.5,
       "Y": 1.0
      },
      "handle_right": {
       "X": 0.5,
       "Y": 0.0
      },
      "handle_type": 0,
      "interpolation": 0
     }
    ]
   },
   "channel_mapping": {
    "Points": [
     {
      "co": {
       "X": 1.0,
       "Y": -1.0
      },
      "handle_left": {
       "X": 0.5,
       "Y": 1.0
      },
      "handle_right": {
       "X": 0.5,
       "Y": 0.0
      },
      "handle_type": 0,
      "interpolation": 0
     }
    ]
   },
   "display": 0,
   "duration": 3600.0,
   "effects": [],
   "end": 4.739999999999998,
   "gravity": 4,
   "has_audio": {
    "Points": [
     {
      "co": {
       "X": 1.0,
       "Y": -1.0
      },
      "handle_left": {
       "X": 0.5,
       "Y": 1.0
      },
      "handle_right": {
       "X": 0.5,
       "Y": 0.0
      },
      "handle_type": 0,
      "interpolation": 0
     }
    ]
   },
   "has_video": {
    "Points": [
     {
      "co": {
       "X": 1.0,
       "Y": -1.0
      },
      "handle_left": {
       "X": 0.5,
       "Y": 1.0
      },
      "handle_right": {
       "X": 0.5,
       "Y": 0.0
      },
      "handle_type": 0,
      "interpolation": 0
     }
    ]
   },
   "id": "5MJ6OWGMF5",
   "layer": 3000000,
   "location_x": {
    "Points": [
     {
      "co": {
       "X": 1,
       "Y": 0.28620097041130066
      },
      "handle_left": {
       "X": 0.5,
       "Y": 1.0
      },
      "handle_right": {
       "X": 0.5,
       "Y": 0.0
      },
      "handle_type": 0,
      "interpolation": 0
     }
    ]
   },
   "location_y": {
    "Points": [
     {
      "co": {
       "X": 1,
       "Y": -0.26818177248492386
      },
      "handle_left": {
       "X": 0.5,
       "Y": 1.0
      },
      "handle_right": {
       "X": 0.5,
       "Y": 0.0
      },
      "handle_type": 0,
      "interpolation": 0
     }
    ]
   },
   "mixing": 0,
   "origin_x": {
    "Points": [
     {
      "co": {
       "X": 1.0,
       "Y": 0.5
      },
      "handle_left": {
       "X": 0.5,
       "Y": 1.0
      },
      "handle_right": {
       "X": 0.5,
       "Y": 0.0
      },
      "handle_type": 0,
      "interpolation": 0
     }
    ]
   },
   "origin_y": {
    "Points": [
     {
      "co": {
       "X": 1.0,
       "Y": 0.5
      },
      "handle_left": {
       "X": 0.5,
       "Y": 1.0
      },
      "handle_right": {
       "X": 0.5,
       "Y": 0.0
      },
      "handle_type": 0,
      "interpolation": 0
     }
    ]
   },
   "parentObjectId": "",
   "perspective_c1_x": {
    "Points": [
     {
      "co": {
       "X": 1.0,
       "Y": -1.0
      },
      "handle_left": {
       "X": 0.5,
       "Y": 1.0
      },
      "handle_right": {
       "X": 0.5,
       "Y": 0.0
      },
      "handle_type": 0,
      "interpolation": 0
     }
    ]
   },
   "perspective_c1_y": {
    "Points": [
     {
      "co": {
       "X": 1.0,
       "Y": -1.0
      },
      "handle_left": {
       "X": 0.5,
       "Y": 1.0
      },
      "handle_right": {
       "X": 0.5,
       "Y": 0.0
      },
      "handle_type": 0,
      "interpolation": 0
     }
    ]
   },
   "perspective_c2_x": {
    "Points": [
     {
      "co": {
       "X": 1.0,
       "Y": -1.0
      },
      "handle_left": {
       "X": 0.5,
       "Y": 1.0
      },
      "handle_right": {
       "X": 0.5,
       "Y": 0.0
      },
      "handle_type": 0,
      "interpolation": 0
     }
    ]
   },
   "perspective_c2_y": {
    "Points": [
     {
      "co": {
       "X": 1.0,
       "Y": -1.0
      },
      "handle_left": {
       "X": 0.5,
       "Y": 1.0
      },
      "handle_right": {
       "X": 0.5,
       "Y": 0.0
      },
      "handle_type": 0,
      "interpolation": 0
     }
    ]
   },
   "perspective_c3_x": {
    "Points": [
     {
      "co": {
       "X": 1.0,
       "Y": -1.0
      },
      "handle_left": {
       "X": 0.5,
       "Y": 1.0
      },
      "handle_right": {
       "X": 0.5,
       "Y": 0.0
      },
      "handle_type": 0,
      "interpolation": 0
     }
    ]
   },
   "perspective_c3_y": {
    "Points": [
     {
      "co": {
       "X": 1.0,
       "Y": -1.0
      },
      "handle_left": {
       "X": 0.5,
       "Y": 1.0
      },
      "handle_right": {
       "X": 0.5,
       "Y": 0.0
      },
      "handle_type": 0,
      "interpolation": 0
     }
    ]
   },
   "perspective_c4_x": {
    "Points": [
     {
      "co": {
       "X": 1.0,
       "Y": -1.0
      },
      "handle_left": {
       "X": 0.5,
       "Y": 1.0
      },
      "handle_right": {
       "X": 0.5,
       "Y": 0.0
      },
      "handle_type": 0,
      "interpolation": 0
     }
    ]
   },
   "perspective_c4_y": {
    "Points": [
     {
      "co": {
       "X": 1.0,
       "Y": -1.0
      },
      "handle_left": {
       "X": 0.5,
       "Y": 1.0
      },
      "handle_right": {
       "X": 0.5,
       "Y": 0.0
      },
      "handle_type": 0,
      "interpolation": 0
     }
    ]
   },
   "position": 159.4,
   "reader": {
    "acodec": "",
    "audio_bit_rate": 0,
    "audio_stream_index": -1,
    "audio_timebase": {
     "den": 1,
     "num": 1
    },
    "channel_layout": 4,
    "channels": 0,
    "display_ratio": {
     "den": 103,
     "num": 220
    },
    "duration": 3600.0,
    "file_size": "4441360",
    "fps": {
     "den": 1,
     "num": 30
    },
    "has_audio": false,
    "has_single_image": true,
    "has_video": true,
    "height": 721,
    "interlaced_frame": false,
    "metadata": {},
    "path": "./drawing25.png",
    "pixel_format": -1,
    "pixel_ratio": {
     "den": 1,
     "num": 1
    },
    "sample_rate": 0,
    "top_field_first": true,
    "type": "QtImageReader",
    "vcodec": "",
    "video_bit_rate": 0,
    "video_length": "108000",
    "video_stream_index": -1,
    "video_timebase": {
     "den": 30,
     "num": 1
    },
    "width": 1540,
    "media_type": "image",
    "id": "E7QSHFOYDY"
   },
   "rotation": {
    "Points": [
     {
      "co": {
       "X": 1.0,
       "Y": 0.0
      },
      "handle_left": {
       "X": 0.5,
       "Y": 1.0
      },
      "handle_right": {
       "X": 0.5,
       "Y": 0.0
      },
      "handle_type": 0,
      "interpolation": 0
     }
    ]
   },
   "scale": 1,
   "scale_x": {
    "Points": [
     {
      "co": {
       "X": 1,
       "Y": 0.32708676385310886
      },
      "handle_left": {
       "X": 0.5,
       "Y": 1.0
      },
      "handle_right": {
       "X": 0.5,
       "Y": 0.0
      },
      "handle_type": 0,
      "interpolation": 0
     }
    ]
   },
   "scale_y": {
    "Points": [
     {
      "co": {
       "X": 1,
       "Y": 0.32708676385310886
      },
      "handle_left": {
       "X": 0.5,
       "Y": 1.0
      },
      "handle_right": {
       "X": 0.5,
       "Y": 0.0
      },
      "handle_type": 0,
      "interpolation": 0
     }
    ]
   },
   "shear_x": {
    "Points": [
     {
      "co": {
       "X": 1.0,
       "Y": 0.0
      },
      "handle_left": {
       "X": 0.5,
       "Y": 1.0
      },
      "handle_right": {
       "X": 0.5,
       "Y": 0.0
      },
      "handle_type": 0,
      "interpolation": 0
     }
    ]
   },
   "shear_y": {
    "Points": [
     {
      "co": {
       "X": 1.0,
       "Y": 0.0
      },
      "handle_left": {
       "X": 0.5,
       "Y": 1.0
      },
      "handle_right": {
       "X": 0.5,
       "Y": 0.0
      },
      "handle_type": 0,
      "interpolation": 0
     }
    ]
   },
   "start": 0,
   "time": {
    "Points": [
     {
      "co": {
       "X": 1.0,
       "Y": 1.0
      },
      "handle_left": {
       "X": 0.5,
       "Y": 1.0
      },
      "handle_right": {
       "X": 0.5,
       "Y": 0.0
      },
      "handle_type": 0,
      "interpolation": 0
     }
    ]
   },
   "volume": {
    "Points": [
     {
      "co": {
       "X": 1.0,
       "Y": 1.0
      },
      "handle_left": {
       "X": 0.5,
       "Y": 1.0
      },
      "handle_right": {
       "X": 0.5,
       "Y": 0.0
      },
      "handle_type": 0,
      "interpolation": 0
     }
    ]
   },
   "wave_color": {
    "alpha": {
     "Points": [
      {
       "co": {
        "X": 1.0,
        "Y": 255.0
       },
       "handle_left": {
        "X": 0.5,
        "Y": 1.0
       },
       "handle_right": {
        "X": 0.5,
        "Y": 0.0
       },
       "handle_type": 0,
       "interpolation": 0
      }
     ]
    },
    "blue": {
     "Points": [
      {
       "co": {
        "X": 1.0,
        "Y": 255.0
       },
       "handle_left": {
        "X": 0.5,
        "Y": 1.0
       },
       "handle_right": {
        "X": 0.5,
        "Y": 0.0
       },
       "handle_type": 0,
       "interpolation": 0
      }
     ]
    },
    "green": {
     "Points": [
      {
       "co": {
        "X": 1.0,
        "Y": 123.0
       },
       "handle_left": {
        "X": 0.5,
        "Y": 1.0
       },
       "handle_right": {
        "X": 0.5,
        "Y": 0.0
       },
       "handle_type": 0,
       "interpolation": 0
      }
     ]
    },
    "red": {
     "Points": [
      {
       "co": {
        "X": 1.0,
        "Y": 0.0
       },
       "handle_left": {
        "X": 0.5,
        "Y": 1.0
       },
       "handle_right": {
        "X": 0.5,
        "Y": 0.0
       },
       "handle_type": 0,
       "interpolation": 0
      }
     ]
    }
   },
   "waveform": false,
   "file_id": "E7QSHFOYDY",
   "title": "drawing25.png",
   "image": "Tutorial_assets/thumbnail/E7QSHFOYDY.png"
  },
  {
   "alpha": {
    "Points": [
     {
      "co": {
       "X": 1.0,
       "Y": 1.0
      },
      "handle_left": {
       "X": 0.5,
       "Y": 1.0
      },
      "handle_right": {
       "X": 0.5,
       "Y": 0.0
      },
      "handle_type": 0,
      "interpolation": 0
     }
    ]
   },
   "anchor": 0,
   "channel_filter": {
    "Points": [
     {
      "co": {
       "X": 1.0,
       "Y": -1.0
      },
      "handle_left": {
       "X": 0.5,
       "Y": 1.0
      },
      "handle_right": {
       "X": 0.5,
       "Y": 0.0
      },
      "handle_type": 0,
      "interpolation": 0
     }
    ]
   },
   "channel_mapping": {
    "Points": [
     {
      "co": {
       "X": 1.0,
       "Y": -1.0
      },
      "handle_left": {
       "X": 0.5,
       "Y": 1.0
      },
      "handle_right": {
       "X": 0.5,
       "Y": 0.0
      },
      "handle_type": 0,
      "interpolation": 0
     }
    ]
   },
   "display": 0,
   "duration": 3600.0,
   "effects": [],
   "end": 6.566666666666642,
   "gravity": 4,
   "has_audio": {
    "Points": [
     {
      "co": {
       "X": 1.0,
       "Y": -1.0
      },
      "handle_left": {
       "X": 0.5,
       "Y": 1.0
      },
      "handle_right": {
       "X": 0.5,
       "Y": 0.0
      },
      "handle_type": 0,
      "interpolation": 0
     }
    ]
   },
   "has_video": {
    "Points": [
     {
      "co": {
       "X": 1.0,
       "Y": -1.0
      },
      "handle_left": {
       "X": 0.5,
       "Y": 1.0
      },
      "handle_right": {
       "X": 0.5,
       "Y": 0.0
      },
      "handle_type": 0,
      "interpolation": 0
     }
    ]
   },
   "id": "FG1N334L8E",
   "layer": 3000000,
   "location_x": {
    "Points": [
     {
      "co": {
       "X": 1,
       "Y": 0.29131174945546984
      },
      "handle_left": {
       "X": 0.5,
       "Y": 1.0
      },
      "handle_right": {
       "X": 0.5,
       "Y": 0.0
      },
      "handle_type": 0,
      "interpolation": 0
     }
    ]
   },
   "location_y": {
    "Points": [
     {
      "co": {
       "X": 1,
       "Y": -0.2712121307849884
      },
      "handle_left": {
       "X": 0.5,
       "Y": 1.0
      },
      "handle_right": {
       "X": 0.5,
       "Y": 0.0
      },
      "handle_type": 0,
      "interpolation": 0
     }
    ]
   },
   "mixing": 0,
   "origin_x": {
    "Points": [
     {
      "co": {
       "X": 1.0,
       "Y": 0.5
      },
      "handle_left": {
       "X": 0.5,
       "Y": 1.0
      },
      "handle_right": {
       "X": 0.5,
       "Y": 0.0
      },
      "handle_type": 0,
      "interpolation": 0
     }
    ]
   },
   "origin_y": {
    "Points": [
     {
      "co": {
       "X": 1.0,
       "Y": 0.5
      },
      "handle_left": {
       "X": 0.5,
       "Y": 1.0
      },
      "handle_right": {
       "X": 0.5,
       "Y": 0.0
      },
      "handle_type": 0,
      "interpolation": 0
     }
    ]
   },
   "parentObjectId": "",
   "perspective_c1_x": {
    "Points": [
     {
      "co": {
       "X": 1.0,
       "Y": -1.0
      },
      "handle_left": {
       "X": 0.5,
       "Y": 1.0
      },
      "handle_right": {
       "X": 0.5,
       "Y": 0.0
      },
      "handle_type": 0,
      "interpolation": 0
     }
    ]
   },
   "perspective_c1_y": {
    "Points": [
     {
      "co": {
       "X": 1.0,
       "Y": -1.0
      },
      "handle_left": {
       "X": 0.5,
       "Y": 1.0
      },
      "handle_right": {
       "X": 0.5,
       "Y": 0.0
      },
      "handle_type": 0,
      "interpolation": 0
     }
    ]
   },
   "perspective_c2_x": {
    "Points": [
     {
      "co": {
       "X": 1.0,
       "Y": -1.0
      },
      "handle_left": {
       "X": 0.5,
       "Y": 1.0
      },
      "handle_right": {
       "X": 0.5,
       "Y": 0.0
      },
      "handle_type": 0,
      "interpolation": 0
     }
    ]
   },
   "perspective_c2_y": {
    "Points": [
     {
      "co": {
       "X": 1.0,
       "Y": -1.0
      },
      "handle_left": {
       "X": 0.5,
       "Y": 1.0
      },
      "handle_right": {
       "X": 0.5,
       "Y": 0.0
      },
      "handle_type": 0,
      "interpolation": 0
     }
    ]
   },
   "perspective_c3_x": {
    "Points": [
     {
      "co": {
       "X": 1.0,
       "Y": -1.0
      },
      "handle_left": {
       "X": 0.5,
       "Y": 1.0
      },
      "handle_right": {
       "X": 0.5,
       "Y": 0.0
      },
      "handle_type": 0,
      "interpolation": 0
     }
    ]
   },
   "perspective_c3_y": {
    "Points": [
     {
      "co": {
       "X": 1.0,
       "Y": -1.0
      },
      "handle_left": {
       "X": 0.5,
       "Y": 1.0
      },
      "handle_right": {
       "X": 0.5,
       "Y": 0.0
      },
      "handle_type": 0,
      "interpolation": 0
     }
    ]
   },
   "perspective_c4_x": {
    "Points": [
     {
      "co": {
       "X": 1.0,
       "Y": -1.0
      },
      "handle_left": {
       "X": 0.5,
       "Y": 1.0
      },
      "handle_right": {
       "X": 0.5,
       "Y": 0.0
      },
      "handle_type": 0,
      "interpolation": 0
     }
    ]
   },
   "perspective_c4_y": {
    "Points": [
     {
      "co": {
       "X": 1.0,
       "Y": -1.0
      },
      "handle_left": {
       "X": 0.5,
       "Y": 1.0
      },
      "handle_right": {
       "X": 0.5,
       "Y": 0.0
      },
      "handle_type": 0,
      "interpolation": 0
     }
    ]
   },
   "position": 164.3,
   "reader": {
    "acodec": "",
    "audio_bit_rate": 0,
    "audio_stream_index": -1,
    "audio_timebase": {
     "den": 1,
     "num": 1
    },
    "channel_layout": 4,
    "channels": 0,
    "display_ratio": {
     "den": 605,
     "num": 1327
    },
    "duration": 3600.0,
    "file_size": "3211340",
    "fps": {
     "den": 1,
     "num": 30
    },
    "has_audio": false,
    "has_single_image": true,
    "has_video": true,
    "height": 605,
    "interlaced_frame": false,
    "metadata": {},
    "path": "./drawing26.png",
    "pixel_format": -1,
    "pixel_ratio": {
     "den": 1,
     "num": 1
    },
    "sample_rate": 0,
    "top_field_first": true,
    "type": "QtImageReader",
    "vcodec": "",
    "video_bit_rate": 0,
    "video_length": "108000",
    "video_stream_index": -1,
    "video_timebase": {
     "den": 30,
     "num": 1
    },
    "width": 1327,
    "media_type": "image",
    "id": "GN2CUI4Y1E"
   },
   "rotation": {
    "Points": [
     {
      "co": {
       "X": 1.0,
       "Y": 0.0
      },
      "handle_left": {
       "X": 0.5,
       "Y": 1.0
      },
      "handle_right": {
       "X": 0.5,
       "Y": 0.0
      },
      "handle_type": 0,
      "interpolation": 0
     }
    ]
   },
   "scale": 1,
   "scale_x": {
    "Points": [
     {
      "co": {
       "X": 1,
       "Y": 0.29642249417873623
      },
      "handle_left": {
       "X": 0.5,
       "Y": 1.0
      },
      "handle_right": {
       "X": 0.5,
       "Y": 0.0
      },
      "handle_type": 0,
      "interpolation": 0
     }
    ]
   },
   "scale_y": {
    "Points": [
     {
      "co": {
       "X": 1,
       "Y": 0.29642249417873623
      },
      "handle_left": {
       "X": 0.5,
       "Y": 1.0
      },
      "handle_right": {
       "X": 0.5,
       "Y": 0.0
      },
      "handle_type": 0,
      "interpolation": 0
     }
    ]
   },
   "shear_x": {
    "Points": [
     {
      "co": {
       "X": 1.0,
       "Y": 0.0
      },
      "handle_left": {
       "X": 0.5,
       "Y": 1.0
      },
      "handle_right": {
       "X": 0.5,
       "Y": 0.0
      },
      "handle_type": 0,
      "interpolation": 0
     }
    ]
   },
   "shear_y": {
    "Points": [
     {
      "co": {
       "X": 1.0,
       "Y": 0.0
      },
      "handle_left": {
       "X": 0.5,
       "Y": 1.0
      },
      "handle_right": {
       "X": 0.5,
       "Y": 0.0
      },
      "handle_type": 0,
      "interpolation": 0
     }
    ]
   },
   "start": 0,
   "time": {
    "Points": [
     {
      "co": {
       "X": 1.0,
       "Y": 1.0
      },
      "handle_left": {
       "X": 0.5,
       "Y": 1.0
      },
      "handle_right": {
       "X": 0.5,
       "Y": 0.0
      },
      "handle_type": 0,
      "interpolation": 0
     }
    ]
   },
   "volume": {
    "Points": [
     {
      "co": {
       "X": 1.0,
       "Y": 1.0
      },
      "handle_left": {
       "X": 0.5,
       "Y": 1.0
      },
      "handle_right": {
       "X": 0.5,
       "Y": 0.0
      },
      "handle_type": 0,
      "interpolation": 0
     }
    ]
   },
   "wave_color": {
    "alpha": {
     "Points": [
      {
       "co": {
        "X": 1.0,
        "Y": 255.0
       },
       "handle_left": {
        "X": 0.5,
        "Y": 1.0
       },
       "handle_right": {
        "X": 0.5,
        "Y": 0.0
       },
       "handle_type": 0,
       "interpolation": 0
      }
     ]
    },
    "blue": {
     "Points": [
      {
       "co": {
        "X": 1.0,
        "Y": 255.0
       },
       "handle_left": {
        "X": 0.5,
        "Y": 1.0
       },
       "handle_right": {
        "X": 0.5,
        "Y": 0.0
       },
       "handle_type": 0,
       "interpolation": 0
      }
     ]
    },
    "green": {
     "Points": [
      {
       "co": {
        "X": 1.0,
        "Y": 123.0
       },
       "handle_left": {
        "X": 0.5,
        "Y": 1.0
       },
       "handle_right": {
        "X": 0.5,
        "Y": 0.0
       },
       "handle_type": 0,
       "interpolation": 0
      }
     ]
    },
    "red": {
     "Points": [
      {
       "co": {
        "X": 1.0,
        "Y": 0.0
       },
       "handle_left": {
        "X": 0.5,
        "Y": 1.0
       },
       "handle_right": {
        "X": 0.5,
        "Y": 0.0
       },
       "handle_type": 0,
       "interpolation": 0
      }
     ]
    }
   },
   "waveform": false,
   "file_id": "GN2CUI4Y1E",
   "title": "drawing26.png",
   "image": "Tutorial_assets/thumbnail/GN2CUI4Y1E.png"
  },
  {
   "alpha": {
    "Points": [
     {
      "co": {
       "X": 1.0,
       "Y": 1.0
      },
      "handle_left": {
       "X": 0.5,
       "Y": 1.0
      },
      "handle_right": {
       "X": 0.5,
       "Y": 0.0
      },
      "handle_type": 0,
      "interpolation": 0
     }
    ]
   },
   "anchor": 0,
   "channel_filter": {
    "Points": [
     {
      "co": {
       "X": 1.0,
       "Y": -1.0
      },
      "handle_left": {
       "X": 0.5,
       "Y": 1.0
      },
      "handle_right": {
       "X": 0.5,
       "Y": 0.0
      },
      "handle_type": 0,
      "interpolation": 0
     }
    ]
   },
   "channel_mapping": {
    "Points": [
     {
      "co": {
       "X": 1.0,
       "Y": -1.0
      },
      "handle_left": {
       "X": 0.5,
       "Y": 1.0
      },
      "handle_right": {
       "X": 0.5,
       "Y": 0.0
      },
      "handle_type": 0,
      "interpolation": 0
     }
    ]
   },
   "display": 0,
   "duration": 73.5999984741211,
   "effects": [],
   "end": 51.133343505859415,
   "gravity": 4,
   "has_audio": {
    "Points": [
     {
      "co": {
       "X": 1.0,
       "Y": -1.0
      },
      "handle_left": {
       "X": 0.5,
       "Y": 1.0
      },
      "handle_right": {
       "X": 0.5,
       "Y": 0.0
      },
      "handle_type": 0,
      "interpolation": 0
     }
    ]
   },
   "has_video": {
    "Points": [
     {
      "co": {
       "X": 1.0,
       "Y": -1.0
      },
      "handle_left": {
       "X": 0.5,
       "Y": 1.0
      },
      "handle_right": {
       "X": 0.5,
       "Y": 0.0
      },
      "handle_type": 0,
      "interpolation": 0
     }
    ]
   },
   "layer": 1000000,
   "location_x": {
    "Points": [
     {
      "co": {
       "X": 1.0,
       "Y": 0.0
      },
      "handle_left": {
       "X": 0.5,
       "Y": 1.0
      },
      "handle_right": {
       "X": 0.5,
       "Y": 0.0
      },
      "handle_type": 0,
      "interpolation": 0
     }
    ]
   },
   "location_y": {
    "Points": [
     {
      "co": {
       "X": 1.0,
       "Y": 0.0
      },
      "handle_left": {
       "X": 0.5,
       "Y": 1.0
      },
      "handle_right": {
       "X": 0.5,
       "Y": 0.0
      },
      "handle_type": 0,
      "interpolation": 0
     }
    ]
   },
   "mixing": 0,
   "origin_x": {
    "Points": [
     {
      "co": {
       "X": 1.0,
       "Y": 0.5
      },
      "handle_left": {
       "X": 0.5,
       "Y": 1.0
      },
      "handle_right": {
       "X": 0.5,
       "Y": 0.0
      },
      "handle_type": 0,
      "interpolation": 0
     }
    ]
   },
   "origin_y": {
    "Points": [
     {
      "co": {
       "X": 1.0,
       "Y": 0.5
      },
      "handle_left": {
       "X": 0.5,
       "Y": 1.0
      },
      "handle_right": {
       "X": 0.5,
       "Y": 0.0
      },
      "handle_type": 0,
      "interpolation": 0
     }
    ]
   },
   "parentObjectId": "",
   "perspective_c1_x": {
    "Points": [
     {
      "co": {
       "X": 1.0,
       "Y": -1.0
      },
      "handle_left": {
       "X": 0.5,
       "Y": 1.0
      },
      "handle_right": {
       "X": 0.5,
       "Y": 0.0
      },
      "handle_type": 0,
      "interpolation": 0
     }
    ]
   },
   "perspective_c1_y": {
    "Points": [
     {
      "co": {
       "X": 1.0,
       "Y": -1.0
      },
      "handle_left": {
       "X": 0.5,
       "Y": 1.0
      },
      "handle_right": {
       "X": 0.5,
       "Y": 0.0
      },
      "handle_type": 0,
      "interpolation": 0
     }
    ]
   },
   "perspective_c2_x": {
    "Points": [
     {
      "co": {
       "X": 1.0,
       "Y": -1.0
      },
      "handle_left": {
       "X": 0.5,
       "Y": 1.0
      },
      "handle_right": {
       "X": 0.5,
       "Y": 0.0
      },
      "handle_type": 0,
      "interpolation": 0
     }
    ]
   },
   "perspective_c2_y": {
    "Points": [
     {
      "co": {
       "X": 1.0,
       "Y": -1.0
      },
      "handle_left": {
       "X": 0.5,
       "Y": 1.0
      },
      "handle_right": {
       "X": 0.5,
       "Y": 0.0
      },
      "handle_type": 0,
      "interpolation": 0
     }
    ]
   },
   "perspective_c3_x": {
    "Points": [
     {
      "co": {
       "X": 1.0,
       "Y": -1.0
      },
      "handle_left": {
       "X": 0.5,
       "Y": 1.0
      },
      "handle_right": {
       "X": 0.5,
       "Y": 0.0
      },
      "handle_type": 0,
      "interpolation": 0
     }
    ]
   },
   "perspective_c3_y": {
    "Points": [
     {
      "co": {
       "X": 1.0,
       "Y": -1.0
      },
      "handle_left": {
       "X": 0.5,
       "Y": 1.0
      },
      "handle_right": {
       "X": 0.5,
       "Y": 0.0
      },
      "handle_type": 0,
      "interpolation": 0
     }
    ]
   },
   "perspective_c4_x": {
    "Points": [
     {
      "co": {
       "X": 1.0,
       "Y": -1.0
      },
      "handle_left": {
       "X": 0.5,
       "Y": 1.0
      },
      "handle_right": {
       "X": 0.5,
       "Y": 0.0
      },
      "handle_type": 0,
      "interpolation": 0
     }
    ]
   },
   "perspective_c4_y": {
    "Points": [
     {
      "co": {
       "X": 1.0,
       "Y": -1.0
      },
      "handle_left": {
       "X": 0.5,
       "Y": 1.0
      },
      "handle_right": {
       "X": 0.5,
       "Y": 0.0
      },
      "handle_type": 0,
      "interpolation": 0
     }
    ]
   },
   "position": 175.43333333333334,
   "reader": {
    "acodec": "",
    "audio_bit_rate": 0,
    "audio_stream_index": -1,
    "audio_timebase": {
     "den": 1,
     "num": 1
    },
    "channel_layout": 4,
    "channels": 0,
    "display_ratio": {
     "den": 9,
     "num": 16
    },
    "duration": 73.5999984741211,
    "file_size": "57616868",
    "fps": {
     "den": 1,
     "num": 30
    },
    "has_audio": false,
    "has_single_image": false,
    "has_video": true,
    "height": 1080,
    "interlaced_frame": false,
    "metadata": {
     "comment": "Create videos with https://clipchamp.com/en/video-editor - free online video editor, video compressor, video converter.",
     "compatible_brands": "isomiso2avc1mp41",
     "encoder": "https://clipchamp.com",
     "handler_name": "VideoHandler",
     "language": "und",
     "major_brand": "isom",
     "minor_version": "512"
    },
    "path": "./movie_003_002.mp4",
    "pixel_format": 0,
    "pixel_ratio": {
     "den": 1,
     "num": 1
    },
    "sample_rate": 0,
    "top_field_first": true,
    "type": "FFmpegReader",
    "vcodec": "h264",
    "video_bit_rate": 782837,
    "video_length": "2208",
    "video_stream_index": 0,
    "video_timebase": {
     "den": 15360,
     "num": 1
    },
    "width": 1920,
    "media_type": "video",
    "id": "L20DIPWUJ9"
   },
   "rotation": {
    "Points": [
     {
      "co": {
       "X": 1.0,
       "Y": 0.0
      },
      "handle_left": {
       "X": 0.5,
       "Y": 1.0
      },
      "handle_right": {
       "X": 0.5,
       "Y": 0.0
      },
      "handle_type": 0,
      "interpolation": 0
     }
    ]
   },
   "scale": 1,
   "scale_x": {
    "Points": [
     {
      "co": {
       "X": 1.0,
       "Y": 1.0
      },
      "handle_left": {
       "X": 0.5,
       "Y": 1.0
      },
      "handle_right": {
       "X": 0.5,
       "Y": 0.0
      },
      "handle_type": 0,
      "interpolation": 0
     }
    ]
   },
   "scale_y": {
    "Points": [
     {
      "co": {
       "X": 1.0,
       "Y": 1.0
      },
      "handle_left": {
       "X": 0.5,
       "Y": 1.0
      },
      "handle_right": {
       "X": 0.5,
       "Y": 0.0
      },
      "handle_type": 0,
      "interpolation": 0
     }
    ]
   },
   "shear_x": {
    "Points": [
     {
      "co": {
       "X": 1.0,
       "Y": 0.0
      },
      "handle_left": {
       "X": 0.5,
       "Y": 1.0
      },
      "handle_right": {
       "X": 0.5,
       "Y": 0.0
      },
      "handle_type": 0,
      "interpolation": 0
     }
    ]
   },
   "shear_y": {
    "Points": [
     {
      "co": {
       "X": 1.0,
       "Y": 0.0
      },
      "handle_left": {
       "X": 0.5,
       "Y": 1.0
      },
      "handle_right": {
       "X": 0.5,
       "Y": 0.0
      },
      "handle_type": 0,
      "interpolation": 0
     }
    ]
   },
   "start": 47.80001017252607,
   "time": {
    "Points": [
     {
      "co": {
       "X": 1.0,
       "Y": 1.0
      },
      "handle_left": {
       "X": 0.5,
       "Y": 1.0
      },
      "handle_right": {
       "X": 0.5,
       "Y": 0.0
      },
      "handle_type": 0,
      "interpolation": 0
     }
    ]
   },
   "volume": {
    "Points": [
     {
      "co": {
       "X": 1.0,
       "Y": 1.0
      },
      "handle_left": {
       "X": 0.5,
       "Y": 1.0
      },
      "handle_right": {
       "X": 0.5,
       "Y": 0.0
      },
      "handle_type": 0,
      "interpolation": 0
     }
    ]
   },
   "wave_color": {
    "alpha": {
     "Points": [
      {
       "co": {
        "X": 1.0,
        "Y": 255.0
       },
       "handle_left": {
        "X": 0.5,
        "Y": 1.0
       },
       "handle_right": {
        "X": 0.5,
        "Y": 0.0
       },
       "handle_type": 0,
       "interpolation": 0
      }
     ]
    },
    "blue": {
     "Points": [
      {
       "co": {
        "X": 1.0,
        "Y": 255.0
       },
       "handle_left": {
        "X": 0.5,
        "Y": 1.0
       },
       "handle_right": {
        "X": 0.5,
        "Y": 0.0
       },
       "handle_type": 0,
       "interpolation": 0
      }
     ]
    },
    "green": {
     "Points": [
      {
       "co": {
        "X": 1.0,
        "Y": 123.0
       },
       "handle_left": {
        "X": 0.5,
        "Y": 1.0
       },
       "handle_right": {
        "X": 0.5,
        "Y": 0.0
       },
       "handle_type": 0,
       "interpolation": 0
      }
     ]
    },
    "red": {
     "Points": [
      {
       "co": {
        "X": 1.0,
        "Y": 0.0
       },
       "handle_left": {
        "X": 0.5,
        "Y": 1.0
       },
       "handle_right": {
        "X": 0.5,
        "Y": 0.0
       },
       "handle_type": 0,
       "interpolation": 0
      }
     ]
    }
   },
   "waveform": false,
   "file_id": "L20DIPWUJ9",
   "title": "movie_003_002.mp4",
   "image": "Tutorial_assets/thumbnail/L20DIPWUJ9.png",
   "id": "HHGLYHPP6A"
  },
  {
   "alpha": {
    "Points": [
     {
      "co": {
       "X": 1.0,
       "Y": 1.0
      },
      "handle_left": {
       "X": 0.5,
       "Y": 1.0
      },
      "handle_right": {
       "X": 0.5,
       "Y": 0.0
      },
      "handle_type": 0,
      "interpolation": 0
     }
    ]
   },
   "anchor": 0,
   "channel_filter": {
    "Points": [
     {
      "co": {
       "X": 1.0,
       "Y": -1.0
      },
      "handle_left": {
       "X": 0.5,
       "Y": 1.0
      },
      "handle_right": {
       "X": 0.5,
       "Y": 0.0
      },
      "handle_type": 0,
      "interpolation": 0
     }
    ]
   },
   "channel_mapping": {
    "Points": [
     {
      "co": {
       "X": 1.0,
       "Y": -1.0
      },
      "handle_left": {
       "X": 0.5,
       "Y": 1.0
      },
      "handle_right": {
       "X": 0.5,
       "Y": 0.0
      },
      "handle_type": 0,
      "interpolation": 0
     }
    ]
   },
   "display": 0,
   "duration": 3600.0,
   "effects": [],
   "end": 4.30416666666667,
   "gravity": 4,
   "has_audio": {
    "Points": [
     {
      "co": {
       "X": 1.0,
       "Y": -1.0
      },
      "handle_left": {
       "X": 0.5,
       "Y": 1.0
      },
      "handle_right": {
       "X": 0.5,
       "Y": 0.0
      },
      "handle_type": 0,
      "interpolation": 0
     }
    ]
   },
   "has_video": {
    "Points": [
     {
      "co": {
       "X": 1.0,
       "Y": -1.0
      },
      "handle_left": {
       "X": 0.5,
       "Y": 1.0
      },
      "handle_right": {
       "X": 0.5,
       "Y": 0.0
      },
      "handle_type": 0,
      "interpolation": 0
     }
    ]
   },
   "id": "YVN9K6AQXY",
   "layer": 1000000,
   "location_x": {
    "Points": [
     {
      "co": {
       "X": 1.0,
       "Y": 0.0
      },
      "handle_left": {
       "X": 0.5,
       "Y": 1.0
      },
      "handle_right": {
       "X": 0.5,
       "Y": 0.0
      },
      "handle_type": 0,
      "interpolation": 0
     }
    ]
   },
   "location_y": {
    "Points": [
     {
      "co": {
       "X": 1.0,
       "Y": 0.0
      },
      "handle_left": {
       "X": 0.5,
       "Y": 1.0
      },
      "handle_right": {
       "X": 0.5,
       "Y": 0.0
      },
      "handle_type": 0,
      "interpolation": 0
     }
    ]
   },
   "mixing": 0,
   "origin_x": {
    "Points": [
     {
      "co": {
       "X": 1.0,
       "Y": 0.5
      },
      "handle_left": {
       "X": 0.5,
       "Y": 1.0
      },
      "handle_right": {
       "X": 0.5,
       "Y": 0.0
      },
      "handle_type": 0,
      "interpolation": 0
     }
    ]
   },
   "origin_y": {
    "Points": [
     {
      "co": {
       "X": 1.0,
       "Y": 0.5
      },
      "handle_left": {
       "X": 0.5,
       "Y": 1.0
      },
      "handle_right": {
       "X": 0.5,
       "Y": 0.0
      },
      "handle_type": 0,
      "interpolation": 0
     }
    ]
   },
   "parentObjectId": "",
   "perspective_c1_x": {
    "Points": [
     {
      "co": {
       "X": 1.0,
       "Y": -1.0
      },
      "handle_left": {
       "X": 0.5,
       "Y": 1.0
      },
      "handle_right": {
       "X": 0.5,
       "Y": 0.0
      },
      "handle_type": 0,
      "interpolation": 0
     }
    ]
   },
   "perspective_c1_y": {
    "Points": [
     {
      "co": {
       "X": 1.0,
       "Y": -1.0
      },
      "handle_left": {
       "X": 0.5,
       "Y": 1.0
      },
      "handle_right": {
       "X": 0.5,
       "Y": 0.0
      },
      "handle_type": 0,
      "interpolation": 0
     }
    ]
   },
   "perspective_c2_x": {
    "Points": [
     {
      "co": {
       "X": 1.0,
       "Y": -1.0
      },
      "handle_left": {
       "X": 0.5,
       "Y": 1.0
      },
      "handle_right": {
       "X": 0.5,
       "Y": 0.0
      },
      "handle_type": 0,
      "interpolation": 0
     }
    ]
   },
   "perspective_c2_y": {
    "Points": [
     {
      "co": {
       "X": 1.0,
       "Y": -1.0
      },
      "handle_left": {
       "X": 0.5,
       "Y": 1.0
      },
      "handle_right": {
       "X": 0.5,
       "Y": 0.0
      },
      "handle_type": 0,
      "interpolation": 0
     }
    ]
   },
   "perspective_c3_x": {
    "Points": [
     {
      "co": {
       "X": 1.0,
       "Y": -1.0
      },
      "handle_left": {
       "X": 0.5,
       "Y": 1.0
      },
      "handle_right": {
       "X": 0.5,
       "Y": 0.0
      },
      "handle_type": 0,
      "interpolation": 0
     }
    ]
   },
   "perspective_c3_y": {
    "Points": [
     {
      "co": {
       "X": 1.0,
       "Y": -1.0
      },
      "handle_left": {
       "X": 0.5,
       "Y": 1.0
      },
      "handle_right": {
       "X": 0.5,
       "Y": 0.0
      },
      "handle_type": 0,
      "interpolation": 0
     }
    ]
   },
   "perspective_c4_x": {
    "Points": [
     {
      "co": {
       "X": 1.0,
       "Y": -1.0
      },
      "handle_left": {
       "X": 0.5,
       "Y": 1.0
      },
      "handle_right": {
       "X": 0.5,
       "Y": 0.0
      },
      "handle_type": 0,
      "interpolation": 0
     }
    ]
   },
   "perspective_c4_y": {
    "Points": [
     {
      "co": {
       "X": 1.0,
       "Y": -1.0
      },
      "handle_left": {
       "X": 0.5,
       "Y": 1.0
      },
      "handle_right": {
       "X": 0.5,
       "Y": 0.0
      },
      "handle_type": 0,
      "interpolation": 0
     }
    ]
   },
   "position": 171.13333333333333,
   "reader": {
    "acodec": "",
    "audio_bit_rate": 0,
    "audio_stream_index": -1,
    "audio_timebase": {
     "den": 1,
     "num": 1
    },
    "channel_layout": 4,
    "channels": 0,
    "display_ratio": {
     "den": 9,
     "num": 16
    },
    "duration": 3600.0,
    "file_size": "8294400",
    "fps": {
     "den": 1,
     "num": 30
    },
    "has_audio": false,
    "has_single_image": true,
    "has_video": true,
    "height": 1080,
    "interlaced_frame": false,
    "metadata": {},
    "path": "./Frame-04657.png",
    "pixel_format": -1,
    "pixel_ratio": {
     "den": 1,
     "num": 1
    },
    "sample_rate": 0,
    "top_field_first": true,
    "type": "QtImageReader",
    "vcodec": "",
    "video_bit_rate": 0,
    "video_length": "108000",
    "video_stream_index": -1,
    "video_timebase": {
     "den": 30,
     "num": 1
    },
    "width": 1920,
    "media_type": "image",
    "id": "SS021DPO08"
   },
   "rotation": {
    "Points": [
     {
      "co": {
       "X": 1.0,
       "Y": 0.0
      },
      "handle_left": {
       "X": 0.5,
       "Y": 1.0
      },
      "handle_right": {
       "X": 0.5,
       "Y": 0.0
      },
      "handle_type": 0,
      "interpolation": 0
     }
    ]
   },
   "scale": 1,
   "scale_x": {
    "Points": [
     {
      "co": {
       "X": 1.0,
       "Y": 1.0
      },
      "handle_left": {
       "X": 0.5,
       "Y": 1.0
      },
      "handle_right": {
       "X": 0.5,
       "Y": 0.0
      },
      "handle_type": 0,
      "interpolation": 0
     }
    ]
   },
   "scale_y": {
    "Points": [
     {
      "co": {
       "X": 1.0,
       "Y": 1.0
      },
      "handle_left": {
       "X": 0.5,
       "Y": 1.0
      },
      "handle_right": {
       "X": 0.5,
       "Y": 0.0
      },
      "handle_type": 0,
      "interpolation": 0
     }
    ]
   },
   "shear_x": {
    "Points": [
     {
      "co": {
       "X": 1.0,
       "Y": 0.0
      },
      "handle_left": {
       "X": 0.5,
       "Y": 1.0
      },
      "handle_right": {
       "X": 0.5,
       "Y": 0.0
      },
      "handle_type": 0,
      "interpolation": 0
     }
    ]
   },
   "shear_y": {
    "Points": [
     {
      "co": {
       "X": 1.0,
       "Y": 0.0
      },
      "handle_left": {
       "X": 0.5,
       "Y": 1.0
      },
      "handle_right": {
       "X": 0.5,
       "Y": 0.0
      },
      "handle_type": 0,
      "interpolation": 0
     }
    ]
   },
   "start": 0,
   "time": {
    "Points": [
     {
      "co": {
       "X": 1.0,
       "Y": 1.0
      },
      "handle_left": {
       "X": 0.5,
       "Y": 1.0
      },
      "handle_right": {
       "X": 0.5,
       "Y": 0.0
      },
      "handle_type": 0,
      "interpolation": 0
     }
    ]
   },
   "volume": {
    "Points": [
     {
      "co": {
       "X": 1.0,
       "Y": 1.0
      },
      "handle_left": {
       "X": 0.5,
       "Y": 1.0
      },
      "handle_right": {
       "X": 0.5,
       "Y": 0.0
      },
      "handle_type": 0,
      "interpolation": 0
     }
    ]
   },
   "wave_color": {
    "alpha": {
     "Points": [
      {
       "co": {
        "X": 1.0,
        "Y": 255.0
       },
       "handle_left": {
        "X": 0.5,
        "Y": 1.0
       },
       "handle_right": {
        "X": 0.5,
        "Y": 0.0
       },
       "handle_type": 0,
       "interpolation": 0
      }
     ]
    },
    "blue": {
     "Points": [
      {
       "co": {
        "X": 1.0,
        "Y": 255.0
       },
       "handle_left": {
        "X": 0.5,
        "Y": 1.0
       },
       "handle_right": {
        "X": 0.5,
        "Y": 0.0
       },
       "handle_type": 0,
       "interpolation": 0
      }
     ]
    },
    "green": {
     "Points": [
      {
       "co": {
        "X": 1.0,
        "Y": 123.0
       },
       "handle_left": {
        "X": 0.5,
        "Y": 1.0
       },
       "handle_right": {
        "X": 0.5,
        "Y": 0.0
       },
       "handle_type": 0,
       "interpolation": 0
      }
     ]
    },
    "red": {
     "Points": [
      {
       "co": {
        "X": 1.0,
        "Y": 0.0
       },
       "handle_left": {
        "X": 0.5,
        "Y": 1.0
       },
       "handle_right": {
        "X": 0.5,
        "Y": 0.0
       },
       "handle_type": 0,
       "interpolation": 0
      }
     ]
    }
   },
   "waveform": false,
   "file_id": "SS021DPO08",
   "title": "Frame-04657.png",
   "image": "Tutorial_assets/thumbnail/SS021DPO08.png"
  },
  {
   "alpha": {
    "Points": [
     {
      "co": {
       "X": 1.0,
       "Y": 1.0
      },
      "handle_left": {
       "X": 0.5,
       "Y": 1.0
      },
      "handle_right": {
       "X": 0.5,
       "Y": 0.0
      },
      "handle_type": 0,
      "interpolation": 0
     }
    ]
   },
   "anchor": 0,
   "channel_filter": {
    "Points": [
     {
      "co": {
       "X": 1.0,
       "Y": -1.0
      },
      "handle_left": {
       "X": 0.5,
       "Y": 1.0
      },
      "handle_right": {
       "X": 0.5,
       "Y": 0.0
      },
      "handle_type": 0,
      "interpolation": 0
     }
    ]
   },
   "channel_mapping": {
    "Points": [
     {
      "co": {
       "X": 1.0,
       "Y": -1.0
      },
      "handle_left": {
       "X": 0.5,
       "Y": 1.0
      },
      "handle_right": {
       "X": 0.5,
       "Y": 0.0
      },
      "handle_type": 0,
      "interpolation": 0
     }
    ]
   },
   "display": 0,
   "duration": 3600.0,
   "effects": [],
   "end": 2.0,
   "gravity": 4,
   "has_audio": {
    "Points": [
     {
      "co": {
       "X": 1.0,
       "Y": -1.0
      },
      "handle_left": {
       "X": 0.5,
       "Y": 1.0
      },
      "handle_right": {
       "X": 0.5,
       "Y": 0.0
      },
      "handle_type": 0,
      "interpolation": 0
     }
    ]
   },
   "has_video": {
    "Points": [
     {
      "co": {
       "X": 1.0,
       "Y": -1.0
      },
      "handle_left": {
       "X": 0.5,
       "Y": 1.0
      },
      "handle_right": {
       "X": 0.5,
       "Y": 0.0
      },
      "handle_type": 0,
      "interpolation": 0
     }
    ]
   },
   "id": "TUY0ZNKPKH",
   "layer": 4000000,
   "location_x": {
    "Points": [
     {
      "co": {
       "X": 1,
       "Y": -0.2640545070171356
      },
      "handle_left": {
       "X": 0.5,
       "Y": 1.0
      },
      "handle_right": {
       "X": 0.5,
       "Y": 0.0
      },
      "handle_type": 0,
      "interpolation": 0
     }
    ]
   },
   "location_y": {
    "Points": [
     {
      "co": {
       "X": 1,
       "Y": -0.3287878646995082
      },
      "handle_left": {
       "X": 0.5,
       "Y": 1.0
      },
      "handle_right": {
       "X": 0.5,
       "Y": 0.0
      },
      "handle_type": 0,
      "interpolation": 0
     }
    ]
   },
   "mixing": 0,
   "origin_x": {
    "Points": [
     {
      "co": {
       "X": 1.0,
       "Y": 0.5
      },
      "handle_left": {
       "X": 0.5,
       "Y": 1.0
      },
      "handle_right": {
       "X": 0.5,
       "Y": 0.0
      },
      "handle_type": 0,
      "interpolation": 0
     }
    ]
   },
   "origin_y": {
    "Points": [
     {
      "co": {
       "X": 1.0,
       "Y": 0.5
      },
      "handle_left": {
       "X": 0.5,
       "Y": 1.0
      },
      "handle_right": {
       "X": 0.5,
       "Y": 0.0
      },
      "handle_type": 0,
      "interpolation": 0
     }
    ]
   },
   "parentObjectId": "",
   "perspective_c1_x": {
    "Points": [
     {
      "co": {
       "X": 1.0,
       "Y": -1.0
      },
      "handle_left": {
       "X": 0.5,
       "Y": 1.0
      },
      "handle_right": {
       "X": 0.5,
       "Y": 0.0
      },
      "handle_type": 0,
      "interpolation": 0
     }
    ]
   },
   "perspective_c1_y": {
    "Points": [
     {
      "co": {
       "X": 1.0,
       "Y": -1.0
      },
      "handle_left": {
       "X": 0.5,
       "Y": 1.0
      },
      "handle_right": {
       "X": 0.5,
       "Y": 0.0
      },
      "handle_type": 0,
      "interpolation": 0
     }
    ]
   },
   "perspective_c2_x": {
    "Points": [
     {
      "co": {
       "X": 1.0,
       "Y": -1.0
      },
      "handle_left": {
       "X": 0.5,
       "Y": 1.0
      },
      "handle_right": {
       "X": 0.5,
       "Y": 0.0
      },
      "handle_type": 0,
      "interpolation": 0
     }
    ]
   },
   "perspective_c2_y": {
    "Points": [
     {
      "co": {
       "X": 1.0,
       "Y": -1.0
      },
      "handle_left": {
       "X": 0.5,
       "Y": 1.0
      },
      "handle_right": {
       "X": 0.5,
       "Y": 0.0
      },
      "handle_type": 0,
      "interpolation": 0
     }
    ]
   },
   "perspective_c3_x": {
    "Points": [
     {
      "co": {
       "X": 1.0,
       "Y": -1.0
      },
      "handle_left": {
       "X": 0.5,
       "Y": 1.0
      },
      "handle_right": {
       "X": 0.5,
       "Y": 0.0
      },
      "handle_type": 0,
      "interpolation": 0
     }
    ]
   },
   "perspective_c3_y": {
    "Points": [
     {
      "co": {
       "X": 1.0,
       "Y": -1.0
      },
      "handle_left": {
       "X": 0.5,
       "Y": 1.0
      },
      "handle_right": {
       "X": 0.5,
       "Y": 0.0
      },
      "handle_type": 0,
      "interpolation": 0
     }
    ]
   },
   "perspective_c4_x": {
    "Points": [
     {
      "co": {
       "X": 1.0,
       "Y": -1.0
      },
      "handle_left": {
       "X": 0.5,
       "Y": 1.0
      },
      "handle_right": {
       "X": 0.5,
       "Y": 0.0
      },
      "handle_type": 0,
      "interpolation": 0
     }
    ]
   },
   "perspective_c4_y": {
    "Points": [
     {
      "co": {
       "X": 1.0,
       "Y": -1.0
      },
      "handle_left": {
       "X": 0.5,
       "Y": 1.0
      },
      "handle_right": {
       "X": 0.5,
       "Y": 0.0
      },
      "handle_type": 0,
      "interpolation": 0
     }
    ]
   },
   "position": 144.8,
   "reader": {
    "acodec": "",
    "audio_bit_rate": 0,
    "audio_stream_index": -1,
    "audio_timebase": {
     "den": 1,
     "num": 1
    },
    "channel_layout": 4,
    "channels": 0,
    "display_ratio": {
     "den": 328,
     "num": 1327
    },
    "duration": 3600.0,
    "file_size": "1741024",
    "fps": {
     "den": 1,
     "num": 30
    },
    "has_audio": false,
    "has_single_image": true,
    "has_video": true,
    "height": 328,
    "interlaced_frame": false,
    "metadata": {},
    "path": "./drawing27.png",
    "pixel_format": -1,
    "pixel_ratio": {
     "den": 1,
     "num": 1
    },
    "sample_rate": 0,
    "top_field_first": true,
    "type": "QtImageReader",
    "vcodec": "",
    "video_bit_rate": 0,
    "video_length": "108000",
    "video_stream_index": -1,
    "video_timebase": {
     "den": 30,
     "num": 1
    },
    "width": 1327,
    "media_type": "image",
    "id": "L88S3GWKTF"
   },
   "rotation": {
    "Points": [
     {
      "co": {
       "X": 1.0,
       "Y": 0.0
      },
      "handle_left": {
       "X": 0.5,
       "Y": 1.0
      },
      "handle_right": {
       "X": 0.5,
       "Y": 0.0
      },
      "handle_type": 0,
      "interpolation": 0
     }
    ]
   },
   "scale": 1,
   "scale_x": {
    "Points": [
     {
      "co": {
       "X": 1,
       "Y": 0.31175469895237756
      },
      "handle_left": {
       "X": 0.5,
       "Y": 1.0
      },
      "handle_right": {
       "X": 0.5,
       "Y": 0.0
      },
      "handle_type": 0,
      "interpolation": 0
     }
    ]
   },
   "scale_y": {
    "Points": [
     {
      "co": {
       "X": 1,
       "Y": 0.31175469895237756
      },
      "handle_left": {
       "X": 0.5,
       "Y": 1.0
      },
      "handle_right": {
       "X": 0.5,
       "Y": 0.0
      },
      "handle_type": 0,
      "interpolation": 0
     }
    ]
   },
   "shear_x": {
    "Points": [
     {
      "co": {
       "X": 1.0,
       "Y": 0.0
      },
      "handle_left": {
       "X": 0.5,
       "Y": 1.0
      },
      "handle_right": {
       "X": 0.5,
       "Y": 0.0
      },
      "handle_type": 0,
      "interpolation": 0
     }
    ]
   },
   "shear_y": {
    "Points": [
     {
      "co": {
       "X": 1.0,
       "Y": 0.0
      },
      "handle_left": {
       "X": 0.5,
       "Y": 1.0
      },
      "handle_right": {
       "X": 0.5,
       "Y": 0.0
      },
      "handle_type": 0,
      "interpolation": 0
     }
    ]
   },
   "start": 0,
   "time": {
    "Points": [
     {
      "co": {
       "X": 1.0,
       "Y": 1.0
      },
      "handle_left": {
       "X": 0.5,
       "Y": 1.0
      },
      "handle_right": {
       "X": 0.5,
       "Y": 0.0
      },
      "handle_type": 0,
      "interpolation": 0
     }
    ]
   },
   "volume": {
    "Points": [
     {
      "co": {
       "X": 1.0,
       "Y": 1.0
      },
      "handle_left": {
       "X": 0.5,
       "Y": 1.0
      },
      "handle_right": {
       "X": 0.5,
       "Y": 0.0
      },
      "handle_type": 0,
      "interpolation": 0
     }
    ]
   },
   "wave_color": {
    "alpha": {
     "Points": [
      {
       "co": {
        "X": 1.0,
        "Y": 255.0
       },
       "handle_left": {
        "X": 0.5,
        "Y": 1.0
       },
       "handle_right": {
        "X": 0.5,
        "Y": 0.0
       },
       "handle_type": 0,
       "interpolation": 0
      }
     ]
    },
    "blue": {
     "Points": [
      {
       "co": {
        "X": 1.0,
        "Y": 255.0
       },
       "handle_left": {
        "X": 0.5,
        "Y": 1.0
       },
       "handle_right": {
        "X": 0.5,
        "Y": 0.0
       },
       "handle_type": 0,
       "interpolation": 0
      }
     ]
    },
    "green": {
     "Points": [
      {
       "co": {
        "X": 1.0,
        "Y": 123.0
       },
       "handle_left": {
        "X": 0.5,
        "Y": 1.0
       },
       "handle_right": {
        "X": 0.5,
        "Y": 0.0
       },
       "handle_type": 0,
       "interpolation": 0
      }
     ]
    },
    "red": {
     "Points": [
      {
       "co": {
        "X": 1.0,
        "Y": 0.0
       },
       "handle_left": {
        "X": 0.5,
        "Y": 1.0
       },
       "handle_right": {
        "X": 0.5,
        "Y": 0.0
       },
       "handle_type": 0,
       "interpolation": 0
      }
     ]
    }
   },
   "waveform": false,
   "file_id": "L88S3GWKTF",
   "title": "drawing27.png",
   "image": "Tutorial_assets/thumbnail/L88S3GWKTF.png"
  },
  {
   "alpha": {
    "Points": [
     {
      "co": {
       "X": 1.0,
       "Y": 1.0
      },
      "handle_left": {
       "X": 0.5,
       "Y": 1.0
      },
      "handle_right": {
       "X": 0.5,
       "Y": 0.0
      },
      "handle_type": 0,
      "interpolation": 0
     }
    ]
   },
   "anchor": 0,
   "channel_filter": {
    "Points": [
     {
      "co": {
       "X": 1.0,
       "Y": -1.0
      },
      "handle_left": {
       "X": 0.5,
       "Y": 1.0
      },
      "handle_right": {
       "X": 0.5,
       "Y": 0.0
      },
      "handle_type": 0,
      "interpolation": 0
     }
    ]
   },
   "channel_mapping": {
    "Points": [
     {
      "co": {
       "X": 1.0,
       "Y": -1.0
      },
      "handle_left": {
       "X": 0.5,
       "Y": 1.0
      },
      "handle_right": {
       "X": 0.5,
       "Y": 0.0
      },
      "handle_type": 0,
      "interpolation": 0
     }
    ]
   },
   "display": 0,
   "duration": 3600.0,
   "effects": [],
   "end": 4.866666666666642,
   "gravity": 4,
   "has_audio": {
    "Points": [
     {
      "co": {
       "X": 1.0,
       "Y": -1.0
      },
      "handle_left": {
       "X": 0.5,
       "Y": 1.0
      },
      "handle_right": {
       "X": 0.5,
       "Y": 0.0
      },
      "handle_type": 0,
      "interpolation": 0
     }
    ]
   },
   "has_video": {
    "Points": [
     {
      "co": {
       "X": 1.0,
       "Y": -1.0
      },
      "handle_left": {
       "X": 0.5,
       "Y": 1.0
      },
      "handle_right": {
       "X": 0.5,
       "Y": 0.0
      },
      "handle_type": 0,
      "interpolation": 0
     }
    ]
   },
   "layer": 1000000,
   "location_x": {
    "Points": [
     {
      "co": {
       "X": 1.0,
       "Y": 0.0
      },
      "handle_left": {
       "X": 0.5,
       "Y": 1.0
      },
      "handle_right": {
       "X": 0.5,
       "Y": 0.0
      },
      "handle_type": 0,
      "interpolation": 0
     }
    ]
   },
   "location_y": {
    "Points": [
     {
      "co": {
       "X": 1.0,
       "Y": 0.0
      },
      "handle_left": {
       "X": 0.5,
       "Y": 1.0
      },
      "handle_right": {
       "X": 0.5,
       "Y": 0.0
      },
      "handle_type": 0,
      "interpolation": 0
     }
    ]
   },
   "mixing": 0,
   "origin_x": {
    "Points": [
     {
      "co": {
       "X": 1.0,
       "Y": 0.5
      },
      "handle_left": {
       "X": 0.5,
       "Y": 1.0
      },
      "handle_right": {
       "X": 0.5,
       "Y": 0.0
      },
      "handle_type": 0,
      "interpolation": 0
     }
    ]
   },
   "origin_y": {
    "Points": [
     {
      "co": {
       "X": 1.0,
       "Y": 0.5
      },
      "handle_left": {
       "X": 0.5,
       "Y": 1.0
      },
      "handle_right": {
       "X": 0.5,
       "Y": 0.0
      },
      "handle_type": 0,
      "interpolation": 0
     }
    ]
   },
   "parentObjectId": "",
   "perspective_c1_x": {
    "Points": [
     {
      "co": {
       "X": 1.0,
       "Y": -1.0
      },
      "handle_left": {
       "X": 0.5,
       "Y": 1.0
      },
      "handle_right": {
       "X": 0.5,
       "Y": 0.0
      },
      "handle_type": 0,
      "interpolation": 0
     }
    ]
   },
   "perspective_c1_y": {
    "Points": [
     {
      "co": {
       "X": 1.0,
       "Y": -1.0
      },
      "handle_left": {
       "X": 0.5,
       "Y": 1.0
      },
      "handle_right": {
       "X": 0.5,
       "Y": 0.0
      },
      "handle_type": 0,
      "interpolation": 0
     }
    ]
   },
   "perspective_c2_x": {
    "Points": [
     {
      "co": {
       "X": 1.0,
       "Y": -1.0
      },
      "handle_left": {
       "X": 0.5,
       "Y": 1.0
      },
      "handle_right": {
       "X": 0.5,
       "Y": 0.0
      },
      "handle_type": 0,
      "interpolation": 0
     }
    ]
   },
   "perspective_c2_y": {
    "Points": [
     {
      "co": {
       "X": 1.0,
       "Y": -1.0
      },
      "handle_left": {
       "X": 0.5,
       "Y": 1.0
      },
      "handle_right": {
       "X": 0.5,
       "Y": 0.0
      },
      "handle_type": 0,
      "interpolation": 0
     }
    ]
   },
   "perspective_c3_x": {
    "Points": [
     {
      "co": {
       "X": 1.0,
       "Y": -1.0
      },
      "handle_left": {
       "X": 0.5,
       "Y": 1.0
      },
      "handle_right": {
       "X": 0.5,
       "Y": 0.0
      },
      "handle_type": 0,
      "interpolation": 0
     }
    ]
   },
   "perspective_c3_y": {
    "Points": [
     {
      "co": {
       "X": 1.0,
       "Y": -1.0
      },
      "handle_left": {
       "X": 0.5,
       "Y": 1.0
      },
      "handle_right": {
       "X": 0.5,
       "Y": 0.0
      },
      "handle_type": 0,
      "interpolation": 0
     }
    ]
   },
   "perspective_c4_x": {
    "Points": [
     {
      "co": {
       "X": 1.0,
       "Y": -1.0
      },
      "handle_left": {
       "X": 0.5,
       "Y": 1.0
      },
      "handle_right": {
       "X": 0.5,
       "Y": 0.0
      },
      "handle_type": 0,
      "interpolation": 0
     }
    ]
   },
   "perspective_c4_y": {
    "Points": [
     {
      "co": {
       "X": 1.0,
       "Y": -1.0
      },
      "handle_left": {
       "X": 0.5,
       "Y": 1.0
      },
      "handle_right": {
       "X": 0.5,
       "Y": 0.0
      },
      "handle_type": 0,
      "interpolation": 0
     }
    ]
   },
   "position": 146.8,
   "reader": {
    "acodec": "",
    "audio_bit_rate": 0,
    "audio_stream_index": -1,
    "audio_timebase": {
     "den": 1,
     "num": 1
    },
    "channel_layout": 4,
    "channels": 0,
    "display_ratio": {
     "den": 9,
     "num": 16
    },
    "duration": 3600.0,
    "file_size": "8294400",
    "fps": {
     "den": 1,
     "num": 30
    },
    "has_audio": false,
    "has_single_image": true,
    "has_video": true,
    "height": 1080,
    "interlaced_frame": false,
    "metadata": {},
    "path": "./Frame-04403.png",
    "pixel_format": -1,
    "pixel_ratio": {
     "den": 1,
     "num": 1
    },
    "sample_rate": 0,
    "top_field_first": true,
    "type": "QtImageReader",
    "vcodec": "",
    "video_bit_rate": 0,
    "video_length": "108000",
    "video_stream_index": -1,
    "video_timebase": {
     "den": 30,
     "num": 1
    },
    "width": 1920,
    "media_type": "image",
    "id": "O4IZAKEGQP"
   },
   "rotation": {
    "Points": [
     {
      "co": {
       "X": 1.0,
       "Y": 0.0
      },
      "handle_left": {
       "X": 0.5,
       "Y": 1.0
      },
      "handle_right": {
       "X": 0.5,
       "Y": 0.0
      },
      "handle_type": 0,
      "interpolation": 0
     }
    ]
   },
   "scale": 1,
   "scale_x": {
    "Points": [
     {
      "co": {
       "X": 1.0,
       "Y": 1.0
      },
      "handle_left": {
       "X": 0.5,
       "Y": 1.0
      },
      "handle_right": {
       "X": 0.5,
       "Y": 0.0
      },
      "handle_type": 0,
      "interpolation": 0
     }
    ]
   },
   "scale_y": {
    "Points": [
     {
      "co": {
       "X": 1.0,
       "Y": 1.0
      },
      "handle_left": {
       "X": 0.5,
       "Y": 1.0
      },
      "handle_right": {
       "X": 0.5,
       "Y": 0.0
      },
      "handle_type": 0,
      "interpolation": 0
     }
    ]
   },
   "shear_x": {
    "Points": [
     {
      "co": {
       "X": 1.0,
       "Y": 0.0
      },
      "handle_left": {
       "X": 0.5,
       "Y": 1.0
      },
      "handle_right": {
       "X": 0.5,
       "Y": 0.0
      },
      "handle_type": 0,
      "interpolation": 0
     }
    ]
   },
   "shear_y": {
    "Points": [
     {
      "co": {
       "X": 1.0,
       "Y": 0.0
      },
      "handle_left": {
       "X": 0.5,
       "Y": 1.0
      },
      "handle_right": {
       "X": 0.5,
       "Y": 0.0
      },
      "handle_type": 0,
      "interpolation": 0
     }
    ]
   },
   "start": 3,
   "time": {
    "Points": [
     {
      "co": {
       "X": 1.0,
       "Y": 1.0
      },
      "handle_left": {
       "X": 0.5,
       "Y": 1.0
      },
      "handle_right": {
       "X": 0.5,
       "Y": 0.0
      },
      "handle_type": 0,
      "interpolation": 0
     }
    ]
   },
   "volume": {
    "Points": [
     {
      "co": {
       "X": 1.0,
       "Y": 1.0
      },
      "handle_left": {
       "X": 0.5,
       "Y": 1.0
      },
      "handle_right": {
       "X": 0.5,
       "Y": 0.0
      },
      "handle_type": 0,
      "interpolation": 0
     }
    ]
   },
   "wave_color": {
    "alpha": {
     "Points": [
      {
       "co": {
        "X": 1.0,
        "Y": 255.0
       },
       "handle_left": {
        "X": 0.5,
        "Y": 1.0
       },
       "handle_right": {
        "X": 0.5,
        "Y": 0.0
       },
       "handle_type": 0,
       "interpolation": 0
      }
     ]
    },
    "blue": {
     "Points": [
      {
       "co": {
        "X": 1.0,
        "Y": 255.0
       },
       "handle_left": {
        "X": 0.5,
        "Y": 1.0
       },
       "handle_right": {
        "X": 0.5,
        "Y": 0.0
       },
       "handle_type": 0,
       "interpolation": 0
      }
     ]
    },
    "green": {
     "Points": [
      {
       "co": {
        "X": 1.0,
        "Y": 123.0
       },
       "handle_left": {
        "X": 0.5,
        "Y": 1.0
       },
       "handle_right": {
        "X": 0.5,
        "Y": 0.0
       },
       "handle_type": 0,
       "interpolation": 0
      }
     ]
    },
    "red": {
     "Points": [
      {
       "co": {
        "X": 1.0,
        "Y": 0.0
       },
       "handle_left": {
        "X": 0.5,
        "Y": 1.0
       },
       "handle_right": {
        "X": 0.5,
        "Y": 0.0
       },
       "handle_type": 0,
       "interpolation": 0
      }
     ]
    }
   },
   "waveform": false,
   "file_id": "O4IZAKEGQP",
   "title": "Frame-04403.png",
   "image": "Tutorial_assets/thumbnail/O4IZAKEGQP.png",
   "id": "FKYSTZ17R5"
  },
  {
   "alpha": {
    "Points": [
     {
      "co": {
       "X": 1.0,
       "Y": 1.0
      },
      "handle_left": {
       "X": 0.5,
       "Y": 1.0
      },
      "handle_right": {
       "X": 0.5,
       "Y": 0.0
      },
      "handle_type": 0,
      "interpolation": 0
     }
    ]
   },
   "anchor": 0,
   "channel_filter": {
    "Points": [
     {
      "co": {
       "X": 1.0,
       "Y": -1.0
      },
      "handle_left": {
       "X": 0.5,
       "Y": 1.0
      },
      "handle_right": {
       "X": 0.5,
       "Y": 0.0
      },
      "handle_type": 0,
      "interpolation": 0
     }
    ]
   },
   "channel_mapping": {
    "Points": [
     {
      "co": {
       "X": 1.0,
       "Y": -1.0
      },
      "handle_left": {
       "X": 0.5,
       "Y": 1.0
      },
      "handle_right": {
       "X": 0.5,
       "Y": 0.0
      },
      "handle_type": 0,
      "interpolation": 0
     }
    ]
   },
   "display": 0,
   "duration": 3600.0,
   "effects": [],
   "end": 43.01041666666667,
   "gravity": 4,
   "has_audio": {
    "Points": [
     {
      "co": {
       "X": 1.0,
       "Y": -1.0
      },
      "handle_left": {
       "X": 0.5,
       "Y": 1.0
      },
      "handle_right": {
       "X": 0.5,
       "Y": 0.0
      },
      "handle_type": 0,
      "interpolation": 0
     }
    ]
   },
   "has_video": {
    "Points": [
     {
      "co": {
       "X": 1.0,
       "Y": -1.0
      },
      "handle_left": {
       "X": 0.5,
       "Y": 1.0
      },
      "handle_right": {
       "X": 0.5,
       "Y": 0.0
      },
      "handle_type": 0,
      "interpolation": 0
     }
    ]
   },
   "layer": 4000000,
   "location_x": {
    "Points": [
     {
      "co": {
       "X": 1,
       "Y": -0.2640545070171356
      },
      "handle_left": {
       "X": 0.5,
       "Y": 1.0
      },
      "handle_right": {
       "X": 0.5,
       "Y": 0.0
      },
      "handle_type": 0,
      "interpolation": 0
     }
    ]
   },
   "location_y": {
    "Points": [
     {
      "co": {
       "X": 1,
       "Y": -0.3287878646995082
      },
      "handle_left": {
       "X": 0.5,
       "Y": 1.0
      },
      "handle_right": {
       "X": 0.5,
       "Y": 0.0
      },
      "handle_type": 0,
      "interpolation": 0
     }
    ]
   },
   "mixing": 0,
   "origin_x": {
    "Points": [
     {
      "co": {
       "X": 1.0,
       "Y": 0.5
      },
      "handle_left": {
       "X": 0.5,
       "Y": 1.0
      },
      "handle_right": {
       "X": 0.5,
       "Y": 0.0
      },
      "handle_type": 0,
      "interpolation": 0
     }
    ]
   },
   "origin_y": {
    "Points": [
     {
      "co": {
       "X": 1.0,
       "Y": 0.5
      },
      "handle_left": {
       "X": 0.5,
       "Y": 1.0
      },
      "handle_right": {
       "X": 0.5,
       "Y": 0.0
      },
      "handle_type": 0,
      "interpolation": 0
     }
    ]
   },
   "parentObjectId": "",
   "perspective_c1_x": {
    "Points": [
     {
      "co": {
       "X": 1.0,
       "Y": -1.0
      },
      "handle_left": {
       "X": 0.5,
       "Y": 1.0
      },
      "handle_right": {
       "X": 0.5,
       "Y": 0.0
      },
      "handle_type": 0,
      "interpolation": 0
     }
    ]
   },
   "perspective_c1_y": {
    "Points": [
     {
      "co": {
       "X": 1.0,
       "Y": -1.0
      },
      "handle_left": {
       "X": 0.5,
       "Y": 1.0
      },
      "handle_right": {
       "X": 0.5,
       "Y": 0.0
      },
      "handle_type": 0,
      "interpolation": 0
     }
    ]
   },
   "perspective_c2_x": {
    "Points": [
     {
      "co": {
       "X": 1.0,
       "Y": -1.0
      },
      "handle_left": {
       "X": 0.5,
       "Y": 1.0
      },
      "handle_right": {
       "X": 0.5,
       "Y": 0.0
      },
      "handle_type": 0,
      "interpolation": 0
     }
    ]
   },
   "perspective_c2_y": {
    "Points": [
     {
      "co": {
       "X": 1.0,
       "Y": -1.0
      },
      "handle_left": {
       "X": 0.5,
       "Y": 1.0
      },
      "handle_right": {
       "X": 0.5,
       "Y": 0.0
      },
      "handle_type": 0,
      "interpolation": 0
     }
    ]
   },
   "perspective_c3_x": {
    "Points": [
     {
      "co": {
       "X": 1.0,
       "Y": -1.0
      },
      "handle_left": {
       "X": 0.5,
       "Y": 1.0
      },
      "handle_right": {
       "X": 0.5,
       "Y": 0.0
      },
      "handle_type": 0,
      "interpolation": 0
     }
    ]
   },
   "perspective_c3_y": {
    "Points": [
     {
      "co": {
       "X": 1.0,
       "Y": -1.0
      },
      "handle_left": {
       "X": 0.5,
       "Y": 1.0
      },
      "handle_right": {
       "X": 0.5,
       "Y": 0.0
      },
      "handle_type": 0,
      "interpolation": 0
     }
    ]
   },
   "perspective_c4_x": {
    "Points": [
     {
      "co": {
       "X": 1.0,
       "Y": -1.0
      },
      "handle_left": {
       "X": 0.5,
       "Y": 1.0
      },
      "handle_right": {
       "X": 0.5,
       "Y": 0.0
      },
      "handle_type": 0,
      "interpolation": 0
     }
    ]
   },
   "perspective_c4_y": {
    "Points": [
     {
      "co": {
       "X": 1.0,
       "Y": -1.0
      },
      "handle_left": {
       "X": 0.5,
       "Y": 1.0
      },
      "handle_right": {
       "X": 0.5,
       "Y": 0.0
      },
      "handle_type": 0,
      "interpolation": 0
     }
    ]
   },
   "position": 146.8,
   "reader": {
    "acodec": "",
    "audio_bit_rate": 0,
    "audio_stream_index": -1,
    "audio_timebase": {
     "den": 1,
     "num": 1
    },
    "channel_layout": 4,
    "channels": 0,
    "display_ratio": {
     "den": 328,
     "num": 1327
    },
    "duration": 3600.0,
    "file_size": "1741024",
    "fps": {
     "den": 1,
     "num": 30
    },
    "has_audio": false,
    "has_single_image": true,
    "has_video": true,
    "height": 328,
    "interlaced_frame": false,
    "metadata": {},
    "path": "./drawing27.png",
    "pixel_format": -1,
    "pixel_ratio": {
     "den": 1,
     "num": 1
    },
    "sample_rate": 0,
    "top_field_first": true,
    "type": "QtImageReader",
    "vcodec": "",
    "video_bit_rate": 0,
    "video_length": "108000",
    "video_stream_index": -1,
    "video_timebase": {
     "den": 30,
     "num": 1
    },
    "width": 1327,
    "media_type": "image",
    "id": "L88S3GWKTF"
   },
   "rotation": {
    "Points": [
     {
      "co": {
       "X": 1.0,
       "Y": 0.0
      },
      "handle_left": {
       "X": 0.5,
       "Y": 1.0
      },
      "handle_right": {
       "X": 0.5,
       "Y": 0.0
      },
      "handle_type": 0,
      "interpolation": 0
     }
    ]
   },
   "scale": 1,
   "scale_x": {
    "Points": [
     {
      "co": {
       "X": 1,
       "Y": 0.31175469895237756
      },
      "handle_left": {
       "X": 0.5,
       "Y": 1.0
      },
      "handle_right": {
       "X": 0.5,
       "Y": 0.0
      },
      "handle_type": 0,
      "interpolation": 0
     }
    ]
   },
   "scale_y": {
    "Points": [
     {
      "co": {
       "X": 1,
       "Y": 0.31175469895237756
      },
      "handle_left": {
       "X": 0.5,
       "Y": 1.0
      },
      "handle_right": {
       "X": 0.5,
       "Y": 0.0
      },
      "handle_type": 0,
      "interpolation": 0
     }
    ]
   },
   "shear_x": {
    "Points": [
     {
      "co": {
       "X": 1.0,
       "Y": 0.0
      },
      "handle_left": {
       "X": 0.5,
       "Y": 1.0
      },
      "handle_right": {
       "X": 0.5,
       "Y": 0.0
      },
      "handle_type": 0,
      "interpolation": 0
     }
    ]
   },
   "shear_y": {
    "Points": [
     {
      "co": {
       "X": 1.0,
       "Y": 0.0
      },
      "handle_left": {
       "X": 0.5,
       "Y": 1.0
      },
      "handle_right": {
       "X": 0.5,
       "Y": 0.0
      },
      "handle_type": 0,
      "interpolation": 0
     }
    ]
   },
   "start": 3.9666666666666686,
   "time": {
    "Points": [
     {
      "co": {
       "X": 1.0,
       "Y": 1.0
      },
      "handle_left": {
       "X": 0.5,
       "Y": 1.0
      },
      "handle_right": {
       "X": 0.5,
       "Y": 0.0
      },
      "handle_type": 0,
      "interpolation": 0
     }
    ]
   },
   "volume": {
    "Points": [
     {
      "co": {
       "X": 1.0,
       "Y": 1.0
      },
      "handle_left": {
       "X": 0.5,
       "Y": 1.0
      },
      "handle_right": {
       "X": 0.5,
       "Y": 0.0
      },
      "handle_type": 0,
      "interpolation": 0
     }
    ]
   },
   "wave_color": {
    "alpha": {
     "Points": [
      {
       "co": {
        "X": 1.0,
        "Y": 255.0
       },
       "handle_left": {
        "X": 0.5,
        "Y": 1.0
       },
       "handle_right": {
        "X": 0.5,
        "Y": 0.0
       },
       "handle_type": 0,
       "interpolation": 0
      }
     ]
    },
    "blue": {
     "Points": [
      {
       "co": {
        "X": 1.0,
        "Y": 255.0
       },
       "handle_left": {
        "X": 0.5,
        "Y": 1.0
       },
       "handle_right": {
        "X": 0.5,
        "Y": 0.0
       },
       "handle_type": 0,
       "interpolation": 0
      }
     ]
    },
    "green": {
     "Points": [
      {
       "co": {
        "X": 1.0,
        "Y": 123.0
       },
       "handle_left": {
        "X": 0.5,
        "Y": 1.0
       },
       "handle_right": {
        "X": 0.5,
        "Y": 0.0
       },
       "handle_type": 0,
       "interpolation": 0
      }
     ]
    },
    "red": {
     "Points": [
      {
       "co": {
        "X": 1.0,
        "Y": 0.0
       },
       "handle_left": {
        "X": 0.5,
        "Y": 1.0
       },
       "handle_right": {
        "X": 0.5,
        "Y": 0.0
       },
       "handle_type": 0,
       "interpolation": 0
      }
     ]
    }
   },
   "waveform": false,
   "file_id": "L88S3GWKTF",
   "title": "drawing27.png",
   "id": "X53EACSZQI",
   "image": "Tutorial_assets/thumbnail/L88S3GWKTF.png"
  },
  {
   "alpha": {
    "Points": [
     {
      "co": {
       "X": 1.0,
       "Y": 1.0
      },
      "handle_left": {
       "X": 0.5,
       "Y": 1.0
      },
      "handle_right": {
       "X": 0.5,
       "Y": 0.0
      },
      "handle_type": 0,
      "interpolation": 0
     }
    ]
   },
   "anchor": 0,
   "channel_filter": {
    "Points": [
     {
      "co": {
       "X": 1.0,
       "Y": -1.0
      },
      "handle_left": {
       "X": 0.5,
       "Y": 1.0
      },
      "handle_right": {
       "X": 0.5,
       "Y": 0.0
      },
      "handle_type": 0,
      "interpolation": 0
     }
    ]
   },
   "channel_mapping": {
    "Points": [
     {
      "co": {
       "X": 1.0,
       "Y": -1.0
      },
      "handle_left": {
       "X": 0.5,
       "Y": 1.0
      },
      "handle_right": {
       "X": 0.5,
       "Y": 0.0
      },
      "handle_type": 0,
      "interpolation": 0
     }
    ]
   },
   "display": 0,
   "duration": 3600.0,
   "effects": [],
   "end": 6.452499999999986,
   "gravity": 4,
   "has_audio": {
    "Points": [
     {
      "co": {
       "X": 1.0,
       "Y": -1.0
      },
      "handle_left": {
       "X": 0.5,
       "Y": 1.0
      },
      "handle_right": {
       "X": 0.5,
       "Y": 0.0
      },
      "handle_type": 0,
      "interpolation": 0
     }
    ]
   },
   "has_video": {
    "Points": [
     {
      "co": {
       "X": 1.0,
       "Y": -1.0
      },
      "handle_left": {
       "X": 0.5,
       "Y": 1.0
      },
      "handle_right": {
       "X": 0.5,
       "Y": 0.0
      },
      "handle_type": 0,
      "interpolation": 0
     }
    ]
   },
   "id": "RTK5K87Y73",
   "layer": 3000000,
   "location_x": {
    "Points": [
     {
      "co": {
       "X": 1,
       "Y": -0.29131173635666374
      },
      "handle_left": {
       "X": 0.5,
       "Y": 1.0
      },
      "handle_right": {
       "X": 0.5,
       "Y": 0.0
      },
      "handle_type": 0,
      "interpolation": 0
     }
    ]
   },
   "location_y": {
    "Points": [
     {
      "co": {
       "X": 1,
       "Y": -0.10606057941913605
      },
      "handle_left": {
       "X": 0.5,
       "Y": 1.0
      },
      "handle_right": {
       "X": 0.5,
       "Y": 0.0
      },
      "handle_type": 0,
      "interpolation": 0
     }
    ]
   },
   "mixing": 0,
   "origin_x": {
    "Points": [
     {
      "co": {
       "X": 1.0,
       "Y": 0.5
      },
      "handle_left": {
       "X": 0.5,
       "Y": 1.0
      },
      "handle_right": {
       "X": 0.5,
       "Y": 0.0
      },
      "handle_type": 0,
      "interpolation": 0
     }
    ]
   },
   "origin_y": {
    "Points": [
     {
      "co": {
       "X": 1.0,
       "Y": 0.5
      },
      "handle_left": {
       "X": 0.5,
       "Y": 1.0
      },
      "handle_right": {
       "X": 0.5,
       "Y": 0.0
      },
      "handle_type": 0,
      "interpolation": 0
     }
    ]
   },
   "parentObjectId": "",
   "perspective_c1_x": {
    "Points": [
     {
      "co": {
       "X": 1.0,
       "Y": -1.0
      },
      "handle_left": {
       "X": 0.5,
       "Y": 1.0
      },
      "handle_right": {
       "X": 0.5,
       "Y": 0.0
      },
      "handle_type": 0,
      "interpolation": 0
     }
    ]
   },
   "perspective_c1_y": {
    "Points": [
     {
      "co": {
       "X": 1.0,
       "Y": -1.0
      },
      "handle_left": {
       "X": 0.5,
       "Y": 1.0
      },
      "handle_right": {
       "X": 0.5,
       "Y": 0.0
      },
      "handle_type": 0,
      "interpolation": 0
     }
    ]
   },
   "perspective_c2_x": {
    "Points": [
     {
      "co": {
       "X": 1.0,
       "Y": -1.0
      },
      "handle_left": {
       "X": 0.5,
       "Y": 1.0
      },
      "handle_right": {
       "X": 0.5,
       "Y": 0.0
      },
      "handle_type": 0,
      "interpolation": 0
     }
    ]
   },
   "perspective_c2_y": {
    "Points": [
     {
      "co": {
       "X": 1.0,
       "Y": -1.0
      },
      "handle_left": {
       "X": 0.5,
       "Y": 1.0
      },
      "handle_right": {
       "X": 0.5,
       "Y": 0.0
      },
      "handle_type": 0,
      "interpolation": 0
     }
    ]
   },
   "perspective_c3_x": {
    "Points": [
     {
      "co": {
       "X": 1.0,
       "Y": -1.0
      },
      "handle_left": {
       "X": 0.5,
       "Y": 1.0
      },
      "handle_right": {
       "X": 0.5,
       "Y": 0.0
      },
      "handle_type": 0,
      "interpolation": 0
     }
    ]
   },
   "perspective_c3_y": {
    "Points": [
     {
      "co": {
       "X": 1.0,
       "Y": -1.0
      },
      "handle_left": {
       "X": 0.5,
       "Y": 1.0
      },
      "handle_right": {
       "X": 0.5,
       "Y": 0.0
      },
      "handle_type": 0,
      "interpolation": 0
     }
    ]
   },
   "perspective_c4_x": {
    "Points": [
     {
      "co": {
       "X": 1.0,
       "Y": -1.0
      },
      "handle_left": {
       "X": 0.5,
       "Y": 1.0
      },
      "handle_right": {
       "X": 0.5,
       "Y": 0.0
      },
      "handle_type": 0,
      "interpolation": 0
     }
    ]
   },
   "perspective_c4_y": {
    "Points": [
     {
      "co": {
       "X": 1.0,
       "Y": -1.0
      },
      "handle_left": {
       "X": 0.5,
       "Y": 1.0
      },
      "handle_right": {
       "X": 0.5,
       "Y": 0.0
      },
      "handle_type": 0,
      "interpolation": 0
     }
    ]
   },
   "position": 171.36,
   "reader": {
    "acodec": "",
    "audio_bit_rate": 0,
    "audio_stream_index": -1,
    "audio_timebase": {
     "den": 1,
     "num": 1
    },
    "channel_layout": 4,
    "channels": 0,
    "display_ratio": {
     "den": 445,
     "num": 1612
    },
    "duration": 3600.0,
    "file_size": "2869360",
    "fps": {
     "den": 1,
     "num": 30
    },
    "has_audio": false,
    "has_single_image": true,
    "has_video": true,
    "height": 445,
    "interlaced_frame": false,
    "metadata": {},
    "path": "./drawing28.png",
    "pixel_format": -1,
    "pixel_ratio": {
     "den": 1,
     "num": 1
    },
    "sample_rate": 0,
    "top_field_first": true,
    "type": "QtImageReader",
    "vcodec": "",
    "video_bit_rate": 0,
    "video_length": "108000",
    "video_stream_index": -1,
    "video_timebase": {
     "den": 30,
     "num": 1
    },
    "width": 1612,
    "media_type": "image",
    "id": "RFL6E4KZIT"
   },
   "rotation": {
    "Points": [
     {
      "co": {
       "X": 1.0,
       "Y": 0.0
      },
      "handle_left": {
       "X": 0.5,
       "Y": 1.0
      },
      "handle_right": {
       "X": 0.5,
       "Y": 0.0
      },
      "handle_type": 0,
      "interpolation": 0
     }
    ]
   },
   "scale": 1,
   "scale_x": {
    "Points": [
     {
      "co": {
       "X": 1,
       "Y": 0.3560475878658652
      },
      "handle_left": {
       "X": 0.5,
       "Y": 1.0
      },
      "handle_right": {
       "X": 0.5,
       "Y": 0.0
      },
      "handle_type": 0,
      "interpolation": 0
     }
    ]
   },
   "scale_y": {
    "Points": [
     {
      "co": {
       "X": 1,
       "Y": 0.3560475878658652
      },
      "handle_left": {
       "X": 0.5,
       "Y": 1.0
      },
      "handle_right": {
       "X": 0.5,
       "Y": 0.0
      },
      "handle_type": 0,
      "interpolation": 0
     }
    ]
   },
   "shear_x": {
    "Points": [
     {
      "co": {
       "X": 1.0,
       "Y": 0.0
      },
      "handle_left": {
       "X": 0.5,
       "Y": 1.0
      },
      "handle_right": {
       "X": 0.5,
       "Y": 0.0
      },
      "handle_type": 0,
      "interpolation": 0
     }
    ]
   },
   "shear_y": {
    "Points": [
     {
      "co": {
       "X": 1.0,
       "Y": 0.0
      },
      "handle_left": {
       "X": 0.5,
       "Y": 1.0
      },
      "handle_right": {
       "X": 0.5,
       "Y": 0.0
      },
      "handle_type": 0,
      "interpolation": 0
     }
    ]
   },
   "start": 0,
   "time": {
    "Points": [
     {
      "co": {
       "X": 1.0,
       "Y": 1.0
      },
      "handle_left": {
       "X": 0.5,
       "Y": 1.0
      },
      "handle_right": {
       "X": 0.5,
       "Y": 0.0
      },
      "handle_type": 0,
      "interpolation": 0
     }
    ]
   },
   "volume": {
    "Points": [
     {
      "co": {
       "X": 1.0,
       "Y": 1.0
      },
      "handle_left": {
       "X": 0.5,
       "Y": 1.0
      },
      "handle_right": {
       "X": 0.5,
       "Y": 0.0
      },
      "handle_type": 0,
      "interpolation": 0
     }
    ]
   },
   "wave_color": {
    "alpha": {
     "Points": [
      {
       "co": {
        "X": 1.0,
        "Y": 255.0
       },
       "handle_left": {
        "X": 0.5,
        "Y": 1.0
       },
       "handle_right": {
        "X": 0.5,
        "Y": 0.0
       },
       "handle_type": 0,
       "interpolation": 0
      }
     ]
    },
    "blue": {
     "Points": [
      {
       "co": {
        "X": 1.0,
        "Y": 255.0
       },
       "handle_left": {
        "X": 0.5,
        "Y": 1.0
       },
       "handle_right": {
        "X": 0.5,
        "Y": 0.0
       },
       "handle_type": 0,
       "interpolation": 0
      }
     ]
    },
    "green": {
     "Points": [
      {
       "co": {
        "X": 1.0,
        "Y": 123.0
       },
       "handle_left": {
        "X": 0.5,
        "Y": 1.0
       },
       "handle_right": {
        "X": 0.5,
        "Y": 0.0
       },
       "handle_type": 0,
       "interpolation": 0
      }
     ]
    },
    "red": {
     "Points": [
      {
       "co": {
        "X": 1.0,
        "Y": 0.0
       },
       "handle_left": {
        "X": 0.5,
        "Y": 1.0
       },
       "handle_right": {
        "X": 0.5,
        "Y": 0.0
       },
       "handle_type": 0,
       "interpolation": 0
      }
     ]
    }
   },
   "waveform": false,
   "file_id": "RFL6E4KZIT",
   "title": "drawing28.png",
   "image": "Tutorial_assets/thumbnail/RFL6E4KZIT.png"
  },
  {
   "alpha": {
    "Points": [
     {
      "co": {
       "X": 1.0,
       "Y": 1.0
      },
      "handle_left": {
       "X": 0.5,
       "Y": 1.0
      },
      "handle_right": {
       "X": 0.5,
       "Y": 0.0
      },
      "handle_type": 0,
      "interpolation": 0
     }
    ]
   },
   "anchor": 0,
   "channel_filter": {
    "Points": [
     {
      "co": {
       "X": 1.0,
       "Y": -1.0
      },
      "handle_left": {
       "X": 0.5,
       "Y": 1.0
      },
      "handle_right": {
       "X": 0.5,
       "Y": 0.0
      },
      "handle_type": 0,
      "interpolation": 0
     }
    ]
   },
   "channel_mapping": {
    "Points": [
     {
      "co": {
       "X": 1.0,
       "Y": -1.0
      },
      "handle_left": {
       "X": 0.5,
       "Y": 1.0
      },
      "handle_right": {
       "X": 0.5,
       "Y": 0.0
      },
      "handle_type": 0,
      "interpolation": 0
     }
    ]
   },
   "display": 0,
   "duration": 73.5999984741211,
   "effects": [],
   "end": 56.56667683919275,
   "gravity": 4,
   "has_audio": {
    "Points": [
     {
      "co": {
       "X": 1.0,
       "Y": -1.0
      },
      "handle_left": {
       "X": 0.5,
       "Y": 1.0
      },
      "handle_right": {
       "X": 0.5,
       "Y": 0.0
      },
      "handle_type": 0,
      "interpolation": 0
     }
    ]
   },
   "has_video": {
    "Points": [
     {
      "co": {
       "X": 1.0,
       "Y": -1.0
      },
      "handle_left": {
       "X": 0.5,
       "Y": 1.0
      },
      "handle_right": {
       "X": 0.5,
       "Y": 0.0
      },
      "handle_type": 0,
      "interpolation": 0
     }
    ]
   },
   "layer": 1000000,
   "location_x": {
    "Points": [
     {
      "co": {
       "X": 1.0,
       "Y": 0.0
      },
      "handle_left": {
       "X": 0.5,
       "Y": 1.0
      },
      "handle_right": {
       "X": 0.5,
       "Y": 0.0
      },
      "handle_type": 0,
      "interpolation": 0
     }
    ]
   },
   "location_y": {
    "Points": [
     {
      "co": {
       "X": 1.0,
       "Y": 0.0
      },
      "handle_left": {
       "X": 0.5,
       "Y": 1.0
      },
      "handle_right": {
       "X": 0.5,
       "Y": 0.0
      },
      "handle_type": 0,
      "interpolation": 0
     }
    ]
   },
   "mixing": 0,
   "origin_x": {
    "Points": [
     {
      "co": {
       "X": 1.0,
       "Y": 0.5
      },
      "handle_left": {
       "X": 0.5,
       "Y": 1.0
      },
      "handle_right": {
       "X": 0.5,
       "Y": 0.0
      },
      "handle_type": 0,
      "interpolation": 0
     }
    ]
   },
   "origin_y": {
    "Points": [
     {
      "co": {
       "X": 1.0,
       "Y": 0.5
      },
      "handle_left": {
       "X": 0.5,
       "Y": 1.0
      },
      "handle_right": {
       "X": 0.5,
       "Y": 0.0
      },
      "handle_type": 0,
      "interpolation": 0
     }
    ]
   },
   "parentObjectId": "",
   "perspective_c1_x": {
    "Points": [
     {
      "co": {
       "X": 1.0,
       "Y": -1.0
      },
      "handle_left": {
       "X": 0.5,
       "Y": 1.0
      },
      "handle_right": {
       "X": 0.5,
       "Y": 0.0
      },
      "handle_type": 0,
      "interpolation": 0
     }
    ]
   },
   "perspective_c1_y": {
    "Points": [
     {
      "co": {
       "X": 1.0,
       "Y": -1.0
      },
      "handle_left": {
       "X": 0.5,
       "Y": 1.0
      },
      "handle_right": {
       "X": 0.5,
       "Y": 0.0
      },
      "handle_type": 0,
      "interpolation": 0
     }
    ]
   },
   "perspective_c2_x": {
    "Points": [
     {
      "co": {
       "X": 1.0,
       "Y": -1.0
      },
      "handle_left": {
       "X": 0.5,
       "Y": 1.0
      },
      "handle_right": {
       "X": 0.5,
       "Y": 0.0
      },
      "handle_type": 0,
      "interpolation": 0
     }
    ]
   },
   "perspective_c2_y": {
    "Points": [
     {
      "co": {
       "X": 1.0,
       "Y": -1.0
      },
      "handle_left": {
       "X": 0.5,
       "Y": 1.0
      },
      "handle_right": {
       "X": 0.5,
       "Y": 0.0
      },
      "handle_type": 0,
      "interpolation": 0
     }
    ]
   },
   "perspective_c3_x": {
    "Points": [
     {
      "co": {
       "X": 1.0,
       "Y": -1.0
      },
      "handle_left": {
       "X": 0.5,
       "Y": 1.0
      },
      "handle_right": {
       "X": 0.5,
       "Y": 0.0
      },
      "handle_type": 0,
      "interpolation": 0
     }
    ]
   },
   "perspective_c3_y": {
    "Points": [
     {
      "co": {
       "X": 1.0,
       "Y": -1.0
      },
      "handle_left": {
       "X": 0.5,
       "Y": 1.0
      },
      "handle_right": {
       "X": 0.5,
       "Y": 0.0
      },
      "handle_type": 0,
      "interpolation": 0
     }
    ]
   },
   "perspective_c4_x": {
    "Points": [
     {
      "co": {
       "X": 1.0,
       "Y": -1.0
      },
      "handle_left": {
       "X": 0.5,
       "Y": 1.0
      },
      "handle_right": {
       "X": 0.5,
       "Y": 0.0
      },
      "handle_type": 0,
      "interpolation": 0
     }
    ]
   },
   "perspective_c4_y": {
    "Points": [
     {
      "co": {
       "X": 1.0,
       "Y": -1.0
      },
      "handle_left": {
       "X": 0.5,
       "Y": 1.0
      },
      "handle_right": {
       "X": 0.5,
       "Y": 0.0
      },
      "handle_type": 0,
      "interpolation": 0
     }
    ]
   },
   "position": 181.33333333333334,
   "reader": {
    "acodec": "",
    "audio_bit_rate": 0,
    "audio_stream_index": -1,
    "audio_timebase": {
     "den": 1,
     "num": 1
    },
    "channel_layout": 4,
    "channels": 0,
    "display_ratio": {
     "den": 9,
     "num": 16
    },
    "duration": 73.5999984741211,
    "file_size": "57616868",
    "fps": {
     "den": 1,
     "num": 30
    },
    "has_audio": false,
    "has_single_image": false,
    "has_video": true,
    "height": 1080,
    "interlaced_frame": false,
    "metadata": {
     "comment": "Create videos with https://clipchamp.com/en/video-editor - free online video editor, video compressor, video converter.",
     "compatible_brands": "isomiso2avc1mp41",
     "encoder": "https://clipchamp.com",
     "handler_name": "VideoHandler",
     "language": "und",
     "major_brand": "isom",
     "minor_version": "512"
    },
    "path": "./movie_003_002.mp4",
    "pixel_format": 0,
    "pixel_ratio": {
     "den": 1,
     "num": 1
    },
    "sample_rate": 0,
    "top_field_first": true,
    "type": "FFmpegReader",
    "vcodec": "h264",
    "video_bit_rate": 782837,
    "video_length": "2208",
    "video_stream_index": 0,
    "video_timebase": {
     "den": 15360,
     "num": 1
    },
    "width": 1920,
    "media_type": "video",
    "id": "L20DIPWUJ9"
   },
   "rotation": {
    "Points": [
     {
      "co": {
       "X": 1.0,
       "Y": 0.0
      },
      "handle_left": {
       "X": 0.5,
       "Y": 1.0
      },
      "handle_right": {
       "X": 0.5,
       "Y": 0.0
      },
      "handle_type": 0,
      "interpolation": 0
     }
    ]
   },
   "scale": 1,
   "scale_x": {
    "Points": [
     {
      "co": {
       "X": 1.0,
       "Y": 1.0
      },
      "handle_left": {
       "X": 0.5,
       "Y": 1.0
      },
      "handle_right": {
       "X": 0.5,
       "Y": 0.0
      },
      "handle_type": 0,
      "interpolation": 0
     }
    ]
   },
   "scale_y": {
    "Points": [
     {
      "co": {
       "X": 1.0,
       "Y": 1.0
      },
      "handle_left": {
       "X": 0.5,
       "Y": 1.0
      },
      "handle_right": {
       "X": 0.5,
       "Y": 0.0
      },
      "handle_type": 0,
      "interpolation": 0
     }
    ]
   },
   "shear_x": {
    "Points": [
     {
      "co": {
       "X": 1.0,
       "Y": 0.0
      },
      "handle_left": {
       "X": 0.5,
       "Y": 1.0
      },
      "handle_right": {
       "X": 0.5,
       "Y": 0.0
      },
      "handle_type": 0,
      "interpolation": 0
     }
    ]
   },
   "shear_y": {
    "Points": [
     {
      "co": {
       "X": 1.0,
       "Y": 0.0
      },
      "handle_left": {
       "X": 0.5,
       "Y": 1.0
      },
      "handle_right": {
       "X": 0.5,
       "Y": 0.0
      },
      "handle_type": 0,
      "interpolation": 0
     }
    ]
   },
   "start": 51.133343505859415,
   "time": {
    "Points": [
     {
      "co": {
       "X": 1.0,
       "Y": 1.0
      },
      "handle_left": {
       "X": 0.5,
       "Y": 1.0
      },
      "handle_right": {
       "X": 0.5,
       "Y": 0.0
      },
      "handle_type": 0,
      "interpolation": 0
     }
    ]
   },
   "volume": {
    "Points": [
     {
      "co": {
       "X": 1.0,
       "Y": 1.0
      },
      "handle_left": {
       "X": 0.5,
       "Y": 1.0
      },
      "handle_right": {
       "X": 0.5,
       "Y": 0.0
      },
      "handle_type": 0,
      "interpolation": 0
     }
    ]
   },
   "wave_color": {
    "alpha": {
     "Points": [
      {
       "co": {
        "X": 1.0,
        "Y": 255.0
       },
       "handle_left": {
        "X": 0.5,
        "Y": 1.0
       },
       "handle_right": {
        "X": 0.5,
        "Y": 0.0
       },
       "handle_type": 0,
       "interpolation": 0
      }
     ]
    },
    "blue": {
     "Points": [
      {
       "co": {
        "X": 1.0,
        "Y": 255.0
       },
       "handle_left": {
        "X": 0.5,
        "Y": 1.0
       },
       "handle_right": {
        "X": 0.5,
        "Y": 0.0
       },
       "handle_type": 0,
       "interpolation": 0
      }
     ]
    },
    "green": {
     "Points": [
      {
       "co": {
        "X": 1.0,
        "Y": 123.0
       },
       "handle_left": {
        "X": 0.5,
        "Y": 1.0
       },
       "handle_right": {
        "X": 0.5,
        "Y": 0.0
       },
       "handle_type": 0,
       "interpolation": 0
      }
     ]
    },
    "red": {
     "Points": [
      {
       "co": {
        "X": 1.0,
        "Y": 0.0
       },
       "handle_left": {
        "X": 0.5,
        "Y": 1.0
       },
       "handle_right": {
        "X": 0.5,
        "Y": 0.0
       },
       "handle_type": 0,
       "interpolation": 0
      }
     ]
    }
   },
   "waveform": false,
   "file_id": "L20DIPWUJ9",
   "title": "movie_003_002.mp4",
   "image": "Tutorial_assets/thumbnail/L20DIPWUJ9.png",
   "id": "GQNMAXDDPS"
  },
  {
   "alpha": {
    "Points": [
     {
      "co": {
       "X": 1.0,
       "Y": 1.0
      },
      "handle_left": {
       "X": 0.5,
       "Y": 1.0
      },
      "handle_right": {
       "X": 0.5,
       "Y": 0.0
      },
      "handle_type": 0,
      "interpolation": 0
     }
    ]
   },
   "anchor": 0,
   "channel_filter": {
    "Points": [
     {
      "co": {
       "X": 1.0,
       "Y": -1.0
      },
      "handle_left": {
       "X": 0.5,
       "Y": 1.0
      },
      "handle_right": {
       "X": 0.5,
       "Y": 0.0
      },
      "handle_type": 0,
      "interpolation": 0
     }
    ]
   },
   "channel_mapping": {
    "Points": [
     {
      "co": {
       "X": 1.0,
       "Y": -1.0
      },
      "handle_left": {
       "X": 0.5,
       "Y": 1.0
      },
      "handle_right": {
       "X": 0.5,
       "Y": 0.0
      },
      "handle_type": 0,
      "interpolation": 0
     }
    ]
   },
   "display": 0,
   "duration": 3600.0,
   "effects": [],
   "end": 2.6000000000000227,
   "gravity": 4,
   "has_audio": {
    "Points": [
     {
      "co": {
       "X": 1.0,
       "Y": -1.0
      },
      "handle_left": {
       "X": 0.5,
       "Y": 1.0
      },
      "handle_right": {
       "X": 0.5,
       "Y": 0.0
      },
      "handle_type": 0,
      "interpolation": 0
     }
    ]
   },
   "has_video": {
    "Points": [
     {
      "co": {
       "X": 1.0,
       "Y": -1.0
      },
      "handle_left": {
       "X": 0.5,
       "Y": 1.0
      },
      "handle_right": {
       "X": 0.5,
       "Y": 0.0
      },
      "handle_type": 0,
      "interpolation": 0
     }
    ]
   },
   "id": "M9CE7GB5WO",
   "layer": 1000000,
   "location_x": {
    "Points": [
     {
      "co": {
       "X": 1.0,
       "Y": 0.0
      },
      "handle_left": {
       "X": 0.5,
       "Y": 1.0
      },
      "handle_right": {
       "X": 0.5,
       "Y": 0.0
      },
      "handle_type": 0,
      "interpolation": 0
     }
    ]
   },
   "location_y": {
    "Points": [
     {
      "co": {
       "X": 1.0,
       "Y": 0.0
      },
      "handle_left": {
       "X": 0.5,
       "Y": 1.0
      },
      "handle_right": {
       "X": 0.5,
       "Y": 0.0
      },
      "handle_type": 0,
      "interpolation": 0
     }
    ]
   },
   "mixing": 0,
   "origin_x": {
    "Points": [
     {
      "co": {
       "X": 1.0,
       "Y": 0.5
      },
      "handle_left": {
       "X": 0.5,
       "Y": 1.0
      },
      "handle_right": {
       "X": 0.5,
       "Y": 0.0
      },
      "handle_type": 0,
      "interpolation": 0
     }
    ]
   },
   "origin_y": {
    "Points": [
     {
      "co": {
       "X": 1.0,
       "Y": 0.5
      },
      "handle_left": {
       "X": 0.5,
       "Y": 1.0
      },
      "handle_right": {
       "X": 0.5,
       "Y": 0.0
      },
      "handle_type": 0,
      "interpolation": 0
     }
    ]
   },
   "parentObjectId": "",
   "perspective_c1_x": {
    "Points": [
     {
      "co": {
       "X": 1.0,
       "Y": -1.0
      },
      "handle_left": {
       "X": 0.5,
       "Y": 1.0
      },
      "handle_right": {
       "X": 0.5,
       "Y": 0.0
      },
      "handle_type": 0,
      "interpolation": 0
     }
    ]
   },
   "perspective_c1_y": {
    "Points": [
     {
      "co": {
       "X": 1.0,
       "Y": -1.0
      },
      "handle_left": {
       "X": 0.5,
       "Y": 1.0
      },
      "handle_right": {
       "X": 0.5,
       "Y": 0.0
      },
      "handle_type": 0,
      "interpolation": 0
     }
    ]
   },
   "perspective_c2_x": {
    "Points": [
     {
      "co": {
       "X": 1.0,
       "Y": -1.0
      },
      "handle_left": {
       "X": 0.5,
       "Y": 1.0
      },
      "handle_right": {
       "X": 0.5,
       "Y": 0.0
      },
      "handle_type": 0,
      "interpolation": 0
     }
    ]
   },
   "perspective_c2_y": {
    "Points": [
     {
      "co": {
       "X": 1.0,
       "Y": -1.0
      },
      "handle_left": {
       "X": 0.5,
       "Y": 1.0
      },
      "handle_right": {
       "X": 0.5,
       "Y": 0.0
      },
      "handle_type": 0,
      "interpolation": 0
     }
    ]
   },
   "perspective_c3_x": {
    "Points": [
     {
      "co": {
       "X": 1.0,
       "Y": -1.0
      },
      "handle_left": {
       "X": 0.5,
       "Y": 1.0
      },
      "handle_right": {
       "X": 0.5,
       "Y": 0.0
      },
      "handle_type": 0,
      "interpolation": 0
     }
    ]
   },
   "perspective_c3_y": {
    "Points": [
     {
      "co": {
       "X": 1.0,
       "Y": -1.0
      },
      "handle_left": {
       "X": 0.5,
       "Y": 1.0
      },
      "handle_right": {
       "X": 0.5,
       "Y": 0.0
      },
      "handle_type": 0,
      "interpolation": 0
     }
    ]
   },
   "perspective_c4_x": {
    "Points": [
     {
      "co": {
       "X": 1.0,
       "Y": -1.0
      },
      "handle_left": {
       "X": 0.5,
       "Y": 1.0
      },
      "handle_right": {
       "X": 0.5,
       "Y": 0.0
      },
      "handle_type": 0,
      "interpolation": 0
     }
    ]
   },
   "perspective_c4_y": {
    "Points": [
     {
      "co": {
       "X": 1.0,
       "Y": -1.0
      },
      "handle_left": {
       "X": 0.5,
       "Y": 1.0
      },
      "handle_right": {
       "X": 0.5,
       "Y": 0.0
      },
      "handle_type": 0,
      "interpolation": 0
     }
    ]
   },
   "position": 178.73333333333332,
   "reader": {
    "acodec": "",
    "audio_bit_rate": 0,
    "audio_stream_index": -1,
    "audio_timebase": {
     "den": 1,
     "num": 1
    },
    "channel_layout": 4,
    "channels": 0,
    "display_ratio": {
     "den": 9,
     "num": 16
    },
    "duration": 3600.0,
    "file_size": "8294400",
    "fps": {
     "den": 1,
     "num": 30
    },
    "has_audio": false,
    "has_single_image": true,
    "has_video": true,
    "height": 1080,
    "interlaced_frame": false,
    "metadata": {},
    "path": "./Frame-05363.png",
    "pixel_format": -1,
    "pixel_ratio": {
     "den": 1,
     "num": 1
    },
    "sample_rate": 0,
    "top_field_first": true,
    "type": "QtImageReader",
    "vcodec": "",
    "video_bit_rate": 0,
    "video_length": "108000",
    "video_stream_index": -1,
    "video_timebase": {
     "den": 30,
     "num": 1
    },
    "width": 1920,
    "media_type": "image",
    "id": "F5XRLCY2E6"
   },
   "rotation": {
    "Points": [
     {
      "co": {
       "X": 1.0,
       "Y": 0.0
      },
      "handle_left": {
       "X": 0.5,
       "Y": 1.0
      },
      "handle_right": {
       "X": 0.5,
       "Y": 0.0
      },
      "handle_type": 0,
      "interpolation": 0
     }
    ]
   },
   "scale": 1,
   "scale_x": {
    "Points": [
     {
      "co": {
       "X": 1.0,
       "Y": 1.0
      },
      "handle_left": {
       "X": 0.5,
       "Y": 1.0
      },
      "handle_right": {
       "X": 0.5,
       "Y": 0.0
      },
      "handle_type": 0,
      "interpolation": 0
     }
    ]
   },
   "scale_y": {
    "Points": [
     {
      "co": {
       "X": 1.0,
       "Y": 1.0
      },
      "handle_left": {
       "X": 0.5,
       "Y": 1.0
      },
      "handle_right": {
       "X": 0.5,
       "Y": 0.0
      },
      "handle_type": 0,
      "interpolation": 0
     }
    ]
   },
   "shear_x": {
    "Points": [
     {
      "co": {
       "X": 1.0,
       "Y": 0.0
      },
      "handle_left": {
       "X": 0.5,
       "Y": 1.0
      },
      "handle_right": {
       "X": 0.5,
       "Y": 0.0
      },
      "handle_type": 0,
      "interpolation": 0
     }
    ]
   },
   "shear_y": {
    "Points": [
     {
      "co": {
       "X": 1.0,
       "Y": 0.0
      },
      "handle_left": {
       "X": 0.5,
       "Y": 1.0
      },
      "handle_right": {
       "X": 0.5,
       "Y": 0.0
      },
      "handle_type": 0,
      "interpolation": 0
     }
    ]
   },
   "start": 0,
   "time": {
    "Points": [
     {
      "co": {
       "X": 1.0,
       "Y": 1.0
      },
      "handle_left": {
       "X": 0.5,
       "Y": 1.0
      },
      "handle_right": {
       "X": 0.5,
       "Y": 0.0
      },
      "handle_type": 0,
      "interpolation": 0
     }
    ]
   },
   "volume": {
    "Points": [
     {
      "co": {
       "X": 1.0,
       "Y": 1.0
      },
      "handle_left": {
       "X": 0.5,
       "Y": 1.0
      },
      "handle_right": {
       "X": 0.5,
       "Y": 0.0
      },
      "handle_type": 0,
      "interpolation": 0
     }
    ]
   },
   "wave_color": {
    "alpha": {
     "Points": [
      {
       "co": {
        "X": 1.0,
        "Y": 255.0
       },
       "handle_left": {
        "X": 0.5,
        "Y": 1.0
       },
       "handle_right": {
        "X": 0.5,
        "Y": 0.0
       },
       "handle_type": 0,
       "interpolation": 0
      }
     ]
    },
    "blue": {
     "Points": [
      {
       "co": {
        "X": 1.0,
        "Y": 255.0
       },
       "handle_left": {
        "X": 0.5,
        "Y": 1.0
       },
       "handle_right": {
        "X": 0.5,
        "Y": 0.0
       },
       "handle_type": 0,
       "interpolation": 0
      }
     ]
    },
    "green": {
     "Points": [
      {
       "co": {
        "X": 1.0,
        "Y": 123.0
       },
       "handle_left": {
        "X": 0.5,
        "Y": 1.0
       },
       "handle_right": {
        "X": 0.5,
        "Y": 0.0
       },
       "handle_type": 0,
       "interpolation": 0
      }
     ]
    },
    "red": {
     "Points": [
      {
       "co": {
        "X": 1.0,
        "Y": 0.0
       },
       "handle_left": {
        "X": 0.5,
        "Y": 1.0
       },
       "handle_right": {
        "X": 0.5,
        "Y": 0.0
       },
       "handle_type": 0,
       "interpolation": 0
      }
     ]
    }
   },
   "waveform": false,
   "file_id": "F5XRLCY2E6",
   "title": "Frame-05363.png",
   "image": "Tutorial_assets/thumbnail/F5XRLCY2E6.png"
  },
  {
   "alpha": {
    "Points": [
     {
      "co": {
       "X": 1.0,
       "Y": 1.0
      },
      "handle_left": {
       "X": 0.5,
       "Y": 1.0
      },
      "handle_right": {
       "X": 0.5,
       "Y": 0.0
      },
      "handle_type": 0,
      "interpolation": 0
     }
    ]
   },
   "anchor": 0,
   "channel_filter": {
    "Points": [
     {
      "co": {
       "X": 1.0,
       "Y": -1.0
      },
      "handle_left": {
       "X": 0.5,
       "Y": 1.0
      },
      "handle_right": {
       "X": 0.5,
       "Y": 0.0
      },
      "handle_type": 0,
      "interpolation": 0
     }
    ]
   },
   "channel_mapping": {
    "Points": [
     {
      "co": {
       "X": 1.0,
       "Y": -1.0
      },
      "handle_left": {
       "X": 0.5,
       "Y": 1.0
      },
      "handle_right": {
       "X": 0.5,
       "Y": 0.0
      },
      "handle_type": 0,
      "interpolation": 0
     }
    ]
   },
   "display": 0,
   "duration": 3600.0,
   "effects": [],
   "end": 7.07708333333332,
   "gravity": 4,
   "has_audio": {
    "Points": [
     {
      "co": {
       "X": 1.0,
       "Y": -1.0
      },
      "handle_left": {
       "X": 0.5,
       "Y": 1.0
      },
      "handle_right": {
       "X": 0.5,
       "Y": 0.0
      },
      "handle_type": 0,
      "interpolation": 0
     }
    ]
   },
   "has_video": {
    "Points": [
     {
      "co": {
       "X": 1.0,
       "Y": -1.0
      },
      "handle_left": {
       "X": 0.5,
       "Y": 1.0
      },
      "handle_right": {
       "X": 0.5,
       "Y": 0.0
      },
      "handle_type": 0,
      "interpolation": 0
     }
    ]
   },
   "id": "ZZXG9S0P9X",
   "layer": 3000000,
   "location_x": {
    "Points": [
     {
      "co": {
       "X": 1,
       "Y": 0.273424169781667
      },
      "handle_left": {
       "X": 0.5,
       "Y": 1.0
      },
      "handle_right": {
       "X": 0.5,
       "Y": 0.0
      },
      "handle_type": 0,
      "interpolation": 0
     }
    ]
   },
   "location_y": {
    "Points": [
     {
      "co": {
       "X": 1,
       "Y": -0.2924242630149379
      },
      "handle_left": {
       "X": 0.5,
       "Y": 1.0
      },
      "handle_right": {
       "X": 0.5,
       "Y": 0.0
      },
      "handle_type": 0,
      "interpolation": 0
     }
    ]
   },
   "mixing": 0,
   "origin_x": {
    "Points": [
     {
      "co": {
       "X": 1.0,
       "Y": 0.5
      },
      "handle_left": {
       "X": 0.5,
       "Y": 1.0
      },
      "handle_right": {
       "X": 0.5,
       "Y": 0.0
      },
      "handle_type": 0,
      "interpolation": 0
     }
    ]
   },
   "origin_y": {
    "Points": [
     {
      "co": {
       "X": 1.0,
       "Y": 0.5
      },
      "handle_left": {
       "X": 0.5,
       "Y": 1.0
      },
      "handle_right": {
       "X": 0.5,
       "Y": 0.0
      },
      "handle_type": 0,
      "interpolation": 0
     }
    ]
   },
   "parentObjectId": "",
   "perspective_c1_x": {
    "Points": [
     {
      "co": {
       "X": 1.0,
       "Y": -1.0
      },
      "handle_left": {
       "X": 0.5,
       "Y": 1.0
      },
      "handle_right": {
       "X": 0.5,
       "Y": 0.0
      },
      "handle_type": 0,
      "interpolation": 0
     }
    ]
   },
   "perspective_c1_y": {
    "Points": [
     {
      "co": {
       "X": 1.0,
       "Y": -1.0
      },
      "handle_left": {
       "X": 0.5,
       "Y": 1.0
      },
      "handle_right": {
       "X": 0.5,
       "Y": 0.0
      },
      "handle_type": 0,
      "interpolation": 0
     }
    ]
   },
   "perspective_c2_x": {
    "Points": [
     {
      "co": {
       "X": 1.0,
       "Y": -1.0
      },
      "handle_left": {
       "X": 0.5,
       "Y": 1.0
      },
      "handle_right": {
       "X": 0.5,
       "Y": 0.0
      },
      "handle_type": 0,
      "interpolation": 0
     }
    ]
   },
   "perspective_c2_y": {
    "Points": [
     {
      "co": {
       "X": 1.0,
       "Y": -1.0
      },
      "handle_left": {
       "X": 0.5,
       "Y": 1.0
      },
      "handle_right": {
       "X": 0.5,
       "Y": 0.0
      },
      "handle_type": 0,
      "interpolation": 0
     }
    ]
   },
   "perspective_c3_x": {
    "Points": [
     {
      "co": {
       "X": 1.0,
       "Y": -1.0
      },
      "handle_left": {
       "X": 0.5,
       "Y": 1.0
      },
      "handle_right": {
       "X": 0.5,
       "Y": 0.0
      },
      "handle_type": 0,
      "interpolation": 0
     }
    ]
   },
   "perspective_c3_y": {
    "Points": [
     {
      "co": {
       "X": 1.0,
       "Y": -1.0
      },
      "handle_left": {
       "X": 0.5,
       "Y": 1.0
      },
      "handle_right": {
       "X": 0.5,
       "Y": 0.0
      },
      "handle_type": 0,
      "interpolation": 0
     }
    ]
   },
   "perspective_c4_x": {
    "Points": [
     {
      "co": {
       "X": 1.0,
       "Y": -1.0
      },
      "handle_left": {
       "X": 0.5,
       "Y": 1.0
      },
      "handle_right": {
       "X": 0.5,
       "Y": 0.0
      },
      "handle_type": 0,
      "interpolation": 0
     }
    ]
   },
   "perspective_c4_y": {
    "Points": [
     {
      "co": {
       "X": 1.0,
       "Y": -1.0
      },
      "handle_left": {
       "X": 0.5,
       "Y": 1.0
      },
      "handle_right": {
       "X": 0.5,
       "Y": 0.0
      },
      "handle_type": 0,
      "interpolation": 0
     }
    ]
   },
   "position": 178.76666666666668,
   "reader": {
    "acodec": "",
    "audio_bit_rate": 0,
    "audio_stream_index": -1,
    "audio_timebase": {
     "den": 1,
     "num": 1
    },
    "channel_layout": 4,
    "channels": 0,
    "display_ratio": {
     "den": 147,
     "num": 383
    },
    "duration": 3600.0,
    "file_size": "3603264",
    "fps": {
     "den": 1,
     "num": 30
    },
    "has_audio": false,
    "has_single_image": true,
    "has_video": true,
    "height": 588,
    "interlaced_frame": false,
    "metadata": {},
    "path": "./drawing29.png",
    "pixel_format": -1,
    "pixel_ratio": {
     "den": 1,
     "num": 1
    },
    "sample_rate": 0,
    "top_field_first": true,
    "type": "QtImageReader",
    "vcodec": "",
    "video_bit_rate": 0,
    "video_length": "108000",
    "video_stream_index": -1,
    "video_timebase": {
     "den": 30,
     "num": 1
    },
    "width": 1532,
    "media_type": "image",
    "id": "6D4BSVP4DU"
   },
   "rotation": {
    "Points": [
     {
      "co": {
       "X": 1.0,
       "Y": 0.0
      },
      "handle_left": {
       "X": 0.5,
       "Y": 1.0
      },
      "handle_right": {
       "X": 0.5,
       "Y": 0.0
      },
      "handle_type": 0,
      "interpolation": 0
     }
    ]
   },
   "scale": 1,
   "scale_x": {
    "Points": [
     {
      "co": {
       "X": 1,
       "Y": 0.34071533156009914
      },
      "handle_left": {
       "X": 0.5,
       "Y": 1.0
      },
      "handle_right": {
       "X": 0.5,
       "Y": 0.0
      },
      "handle_type": 0,
      "interpolation": 0
     }
    ]
   },
   "scale_y": {
    "Points": [
     {
      "co": {
       "X": 1,
       "Y": 0.34071533156009914
      },
      "handle_left": {
       "X": 0.5,
       "Y": 1.0
      },
      "handle_right": {
       "X": 0.5,
       "Y": 0.0
      },
      "handle_type": 0,
      "interpolation": 0
     }
    ]
   },
   "shear_x": {
    "Points": [
     {
      "co": {
       "X": 1.0,
       "Y": 0.0
      },
      "handle_left": {
       "X": 0.5,
       "Y": 1.0
      },
      "handle_right": {
       "X": 0.5,
       "Y": 0.0
      },
      "handle_type": 0,
      "interpolation": 0
     }
    ]
   },
   "shear_y": {
    "Points": [
     {
      "co": {
       "X": 1.0,
       "Y": 0.0
      },
      "handle_left": {
       "X": 0.5,
       "Y": 1.0
      },
      "handle_right": {
       "X": 0.5,
       "Y": 0.0
      },
      "handle_type": 0,
      "interpolation": 0
     }
    ]
   },
   "start": 0,
   "time": {
    "Points": [
     {
      "co": {
       "X": 1.0,
       "Y": 1.0
      },
      "handle_left": {
       "X": 0.5,
       "Y": 1.0
      },
      "handle_right": {
       "X": 0.5,
       "Y": 0.0
      },
      "handle_type": 0,
      "interpolation": 0
     }
    ]
   },
   "volume": {
    "Points": [
     {
      "co": {
       "X": 1.0,
       "Y": 1.0
      },
      "handle_left": {
       "X": 0.5,
       "Y": 1.0
      },
      "handle_right": {
       "X": 0.5,
       "Y": 0.0
      },
      "handle_type": 0,
      "interpolation": 0
     }
    ]
   },
   "wave_color": {
    "alpha": {
     "Points": [
      {
       "co": {
        "X": 1.0,
        "Y": 255.0
       },
       "handle_left": {
        "X": 0.5,
        "Y": 1.0
       },
       "handle_right": {
        "X": 0.5,
        "Y": 0.0
       },
       "handle_type": 0,
       "interpolation": 0
      }
     ]
    },
    "blue": {
     "Points": [
      {
       "co": {
        "X": 1.0,
        "Y": 255.0
       },
       "handle_left": {
        "X": 0.5,
        "Y": 1.0
       },
       "handle_right": {
        "X": 0.5,
        "Y": 0.0
       },
       "handle_type": 0,
       "interpolation": 0
      }
     ]
    },
    "green": {
     "Points": [
      {
       "co": {
        "X": 1.0,
        "Y": 123.0
       },
       "handle_left": {
        "X": 0.5,
        "Y": 1.0
       },
       "handle_right": {
        "X": 0.5,
        "Y": 0.0
       },
       "handle_type": 0,
       "interpolation": 0
      }
     ]
    },
    "red": {
     "Points": [
      {
       "co": {
        "X": 1.0,
        "Y": 0.0
       },
       "handle_left": {
        "X": 0.5,
        "Y": 1.0
       },
       "handle_right": {
        "X": 0.5,
        "Y": 0.0
       },
       "handle_type": 0,
       "interpolation": 0
      }
     ]
    }
   },
   "waveform": false,
   "file_id": "6D4BSVP4DU",
   "title": "drawing29.png",
   "image": "Tutorial_assets/thumbnail/6D4BSVP4DU.png"
  },
  {
   "alpha": {
    "Points": [
     {
      "co": {
       "X": 1.0,
       "Y": 1.0
      },
      "handle_left": {
       "X": 0.5,
       "Y": 1.0
      },
      "handle_right": {
       "X": 0.5,
       "Y": 0.0
      },
      "handle_type": 0,
      "interpolation": 0
     }
    ]
   },
   "anchor": 0,
   "channel_filter": {
    "Points": [
     {
      "co": {
       "X": 1.0,
       "Y": -1.0
      },
      "handle_left": {
       "X": 0.5,
       "Y": 1.0
      },
      "handle_right": {
       "X": 0.5,
       "Y": 0.0
      },
      "handle_type": 0,
      "interpolation": 0
     }
    ]
   },
   "channel_mapping": {
    "Points": [
     {
      "co": {
       "X": 1.0,
       "Y": -1.0
      },
      "handle_left": {
       "X": 0.5,
       "Y": 1.0
      },
      "handle_right": {
       "X": 0.5,
       "Y": 0.0
      },
      "handle_type": 0,
      "interpolation": 0
     }
    ]
   },
   "display": 0,
   "duration": 73.5999984741211,
   "effects": [],
   "end": 65.00001017252609,
   "gravity": 4,
   "has_audio": {
    "Points": [
     {
      "co": {
       "X": 1.0,
       "Y": -1.0
      },
      "handle_left": {
       "X": 0.5,
       "Y": 1.0
      },
      "handle_right": {
       "X": 0.5,
       "Y": 0.0
      },
      "handle_type": 0,
      "interpolation": 0
     }
    ]
   },
   "has_video": {
    "Points": [
     {
      "co": {
       "X": 1.0,
       "Y": -1.0
      },
      "handle_left": {
       "X": 0.5,
       "Y": 1.0
      },
      "handle_right": {
       "X": 0.5,
       "Y": 0.0
      },
      "handle_type": 0,
      "interpolation": 0
     }
    ]
   },
   "layer": 1000000,
   "location_x": {
    "Points": [
     {
      "co": {
       "X": 1.0,
       "Y": 0.0
      },
      "handle_left": {
       "X": 0.5,
       "Y": 1.0
      },
      "handle_right": {
       "X": 0.5,
       "Y": 0.0
      },
      "handle_type": 0,
      "interpolation": 0
     }
    ]
   },
   "location_y": {
    "Points": [
     {
      "co": {
       "X": 1.0,
       "Y": 0.0
      },
      "handle_left": {
       "X": 0.5,
       "Y": 1.0
      },
      "handle_right": {
       "X": 0.5,
       "Y": 0.0
      },
      "handle_type": 0,
      "interpolation": 0
     }
    ]
   },
   "mixing": 0,
   "origin_x": {
    "Points": [
     {
      "co": {
       "X": 1.0,
       "Y": 0.5
      },
      "handle_left": {
       "X": 0.5,
       "Y": 1.0
      },
      "handle_right": {
       "X": 0.5,
       "Y": 0.0
      },
      "handle_type": 0,
      "interpolation": 0
     }
    ]
   },
   "origin_y": {
    "Points": [
     {
      "co": {
       "X": 1.0,
       "Y": 0.5
      },
      "handle_left": {
       "X": 0.5,
       "Y": 1.0
      },
      "handle_right": {
       "X": 0.5,
       "Y": 0.0
      },
      "handle_type": 0,
      "interpolation": 0
     }
    ]
   },
   "parentObjectId": "",
   "perspective_c1_x": {
    "Points": [
     {
      "co": {
       "X": 1.0,
       "Y": -1.0
      },
      "handle_left": {
       "X": 0.5,
       "Y": 1.0
      },
      "handle_right": {
       "X": 0.5,
       "Y": 0.0
      },
      "handle_type": 0,
      "interpolation": 0
     }
    ]
   },
   "perspective_c1_y": {
    "Points": [
     {
      "co": {
       "X": 1.0,
       "Y": -1.0
      },
      "handle_left": {
       "X": 0.5,
       "Y": 1.0
      },
      "handle_right": {
       "X": 0.5,
       "Y": 0.0
      },
      "handle_type": 0,
      "interpolation": 0
     }
    ]
   },
   "perspective_c2_x": {
    "Points": [
     {
      "co": {
       "X": 1.0,
       "Y": -1.0
      },
      "handle_left": {
       "X": 0.5,
       "Y": 1.0
      },
      "handle_right": {
       "X": 0.5,
       "Y": 0.0
      },
      "handle_type": 0,
      "interpolation": 0
     }
    ]
   },
   "perspective_c2_y": {
    "Points": [
     {
      "co": {
       "X": 1.0,
       "Y": -1.0
      },
      "handle_left": {
       "X": 0.5,
       "Y": 1.0
      },
      "handle_right": {
       "X": 0.5,
       "Y": 0.0
      },
      "handle_type": 0,
      "interpolation": 0
     }
    ]
   },
   "perspective_c3_x": {
    "Points": [
     {
      "co": {
       "X": 1.0,
       "Y": -1.0
      },
      "handle_left": {
       "X": 0.5,
       "Y": 1.0
      },
      "handle_right": {
       "X": 0.5,
       "Y": 0.0
      },
      "handle_type": 0,
      "interpolation": 0
     }
    ]
   },
   "perspective_c3_y": {
    "Points": [
     {
      "co": {
       "X": 1.0,
       "Y": -1.0
      },
      "handle_left": {
       "X": 0.5,
       "Y": 1.0
      },
      "handle_right": {
       "X": 0.5,
       "Y": 0.0
      },
      "handle_type": 0,
      "interpolation": 0
     }
    ]
   },
   "perspective_c4_x": {
    "Points": [
     {
      "co": {
       "X": 1.0,
       "Y": -1.0
      },
      "handle_left": {
       "X": 0.5,
       "Y": 1.0
      },
      "handle_right": {
       "X": 0.5,
       "Y": 0.0
      },
      "handle_type": 0,
      "interpolation": 0
     }
    ]
   },
   "perspective_c4_y": {
    "Points": [
     {
      "co": {
       "X": 1.0,
       "Y": -1.0
      },
      "handle_left": {
       "X": 0.5,
       "Y": 1.0
      },
      "handle_right": {
       "X": 0.5,
       "Y": 0.0
      },
      "handle_type": 0,
      "interpolation": 0
     }
    ]
   },
   "position": 185.86666666666667,
   "reader": {
    "acodec": "",
    "audio_bit_rate": 0,
    "audio_stream_index": -1,
    "audio_timebase": {
     "den": 1,
     "num": 1
    },
    "channel_layout": 4,
    "channels": 0,
    "display_ratio": {
     "den": 9,
     "num": 16
    },
    "duration": 73.5999984741211,
    "file_size": "57616868",
    "fps": {
     "den": 1,
     "num": 30
    },
    "has_audio": false,
    "has_single_image": false,
    "has_video": true,
    "height": 1080,
    "interlaced_frame": false,
    "metadata": {
     "comment": "Create videos with https://clipchamp.com/en/video-editor - free online video editor, video compressor, video converter.",
     "compatible_brands": "isomiso2avc1mp41",
     "encoder": "https://clipchamp.com",
     "handler_name": "VideoHandler",
     "language": "und",
     "major_brand": "isom",
     "minor_version": "512"
    },
    "path": "./movie_003_002.mp4",
    "pixel_format": 0,
    "pixel_ratio": {
     "den": 1,
     "num": 1
    },
    "sample_rate": 0,
    "top_field_first": true,
    "type": "FFmpegReader",
    "vcodec": "h264",
    "video_bit_rate": 782837,
    "video_length": "2208",
    "video_stream_index": 0,
    "video_timebase": {
     "den": 15360,
     "num": 1
    },
    "width": 1920,
    "media_type": "video",
    "id": "L20DIPWUJ9"
   },
   "rotation": {
    "Points": [
     {
      "co": {
       "X": 1.0,
       "Y": 0.0
      },
      "handle_left": {
       "X": 0.5,
       "Y": 1.0
      },
      "handle_right": {
       "X": 0.5,
       "Y": 0.0
      },
      "handle_type": 0,
      "interpolation": 0
     }
    ]
   },
   "scale": 1,
   "scale_x": {
    "Points": [
     {
      "co": {
       "X": 1.0,
       "Y": 1.0
      },
      "handle_left": {
       "X": 0.5,
       "Y": 1.0
      },
      "handle_right": {
       "X": 0.5,
       "Y": 0.0
      },
      "handle_type": 0,
      "interpolation": 0
     }
    ]
   },
   "scale_y": {
    "Points": [
     {
      "co": {
       "X": 1.0,
       "Y": 1.0
      },
      "handle_left": {
       "X": 0.5,
       "Y": 1.0
      },
      "handle_right": {
       "X": 0.5,
       "Y": 0.0
      },
      "handle_type": 0,
      "interpolation": 0
     }
    ]
   },
   "shear_x": {
    "Points": [
     {
      "co": {
       "X": 1.0,
       "Y": 0.0
      },
      "handle_left": {
       "X": 0.5,
       "Y": 1.0
      },
      "handle_right": {
       "X": 0.5,
       "Y": 0.0
      },
      "handle_type": 0,
      "interpolation": 0
     }
    ]
   },
   "shear_y": {
    "Points": [
     {
      "co": {
       "X": 1.0,
       "Y": 0.0
      },
      "handle_left": {
       "X": 0.5,
       "Y": 1.0
      },
      "handle_right": {
       "X": 0.5,
       "Y": 0.0
      },
      "handle_type": 0,
      "interpolation": 0
     }
    ]
   },
   "start": 63.60001017252608,
   "time": {
    "Points": [
     {
      "co": {
       "X": 1.0,
       "Y": 1.0
      },
      "handle_left": {
       "X": 0.5,
       "Y": 1.0
      },
      "handle_right": {
       "X": 0.5,
       "Y": 0.0
      },
      "handle_type": 0,
      "interpolation": 0
     }
    ]
   },
   "volume": {
    "Points": [
     {
      "co": {
       "X": 1.0,
       "Y": 1.0
      },
      "handle_left": {
       "X": 0.5,
       "Y": 1.0
      },
      "handle_right": {
       "X": 0.5,
       "Y": 0.0
      },
      "handle_type": 0,
      "interpolation": 0
     }
    ]
   },
   "wave_color": {
    "alpha": {
     "Points": [
      {
       "co": {
        "X": 1.0,
        "Y": 255.0
       },
       "handle_left": {
        "X": 0.5,
        "Y": 1.0
       },
       "handle_right": {
        "X": 0.5,
        "Y": 0.0
       },
       "handle_type": 0,
       "interpolation": 0
      }
     ]
    },
    "blue": {
     "Points": [
      {
       "co": {
        "X": 1.0,
        "Y": 255.0
       },
       "handle_left": {
        "X": 0.5,
        "Y": 1.0
       },
       "handle_right": {
        "X": 0.5,
        "Y": 0.0
       },
       "handle_type": 0,
       "interpolation": 0
      }
     ]
    },
    "green": {
     "Points": [
      {
       "co": {
        "X": 1.0,
        "Y": 123.0
       },
       "handle_left": {
        "X": 0.5,
        "Y": 1.0
       },
       "handle_right": {
        "X": 0.5,
        "Y": 0.0
       },
       "handle_type": 0,
       "interpolation": 0
      }
     ]
    },
    "red": {
     "Points": [
      {
       "co": {
        "X": 1.0,
        "Y": 0.0
       },
       "handle_left": {
        "X": 0.5,
        "Y": 1.0
       },
       "handle_right": {
        "X": 0.5,
        "Y": 0.0
       },
       "handle_type": 0,
       "interpolation": 0
      }
     ]
    }
   },
   "waveform": false,
   "file_id": "L20DIPWUJ9",
   "title": "movie_003_002.mp4",
   "image": "Tutorial_assets/thumbnail/L20DIPWUJ9.png",
   "id": "Y1HNU4A2RR"
  },
  {
   "alpha": {
    "Points": [
     {
      "co": {
       "X": 1.0,
       "Y": 1.0
      },
      "handle_left": {
       "X": 0.5,
       "Y": 1.0
      },
      "handle_right": {
       "X": 0.5,
       "Y": 0.0
      },
      "handle_type": 0,
      "interpolation": 0
     }
    ]
   },
   "anchor": 0,
   "channel_filter": {
    "Points": [
     {
      "co": {
       "X": 1.0,
       "Y": -1.0
      },
      "handle_left": {
       "X": 0.5,
       "Y": 1.0
      },
      "handle_right": {
       "X": 0.5,
       "Y": 0.0
      },
      "handle_type": 0,
      "interpolation": 0
     }
    ]
   },
   "channel_mapping": {
    "Points": [
     {
      "co": {
       "X": 1.0,
       "Y": -1.0
      },
      "handle_left": {
       "X": 0.5,
       "Y": 1.0
      },
      "handle_right": {
       "X": 0.5,
       "Y": 0.0
      },
      "handle_type": 0,
      "interpolation": 0
     }
    ]
   },
   "display": 0,
   "duration": 3600.0,
   "effects": [],
   "end": 28.20000000000001,
   "gravity": 4,
   "has_audio": {
    "Points": [
     {
      "co": {
       "X": 1.0,
       "Y": -1.0
      },
      "handle_left": {
       "X": 0.5,
       "Y": 1.0
      },
      "handle_right": {
       "X": 0.5,
       "Y": 0.0
      },
      "handle_type": 0,
      "interpolation": 0
     }
    ]
   },
   "has_video": {
    "Points": [
     {
      "co": {
       "X": 1.0,
       "Y": -1.0
      },
      "handle_left": {
       "X": 0.5,
       "Y": 1.0
      },
      "handle_right": {
       "X": 0.5,
       "Y": 0.0
      },
      "handle_type": 0,
      "interpolation": 0
     }
    ]
   },
   "id": "TJLNBR0N7R",
   "layer": 4000000,
   "location_x": {
    "Points": [
     {
      "co": {
       "X": 1,
       "Y": -0.28705285263630154
      },
      "handle_left": {
       "X": 0.5,
       "Y": 1.0
      },
      "handle_right": {
       "X": 0.5,
       "Y": 0.0
      },
      "handle_type": 0,
      "interpolation": 0
     }
    ]
   },
   "location_y": {
    "Points": [
     {
      "co": {
       "X": 1,
       "Y": -0.3287879228591919
      },
      "handle_left": {
       "X": 0.5,
       "Y": 1.0
      },
      "handle_right": {
       "X": 0.5,
       "Y": 0.0
      },
      "handle_type": 0,
      "interpolation": 0
     }
    ]
   },
   "mixing": 0,
   "origin_x": {
    "Points": [
     {
      "co": {
       "X": 1.0,
       "Y": 0.5
      },
      "handle_left": {
       "X": 0.5,
       "Y": 1.0
      },
      "handle_right": {
       "X": 0.5,
       "Y": 0.0
      },
      "handle_type": 0,
      "interpolation": 0
     }
    ]
   },
   "origin_y": {
    "Points": [
     {
      "co": {
       "X": 1.0,
       "Y": 0.5
      },
      "handle_left": {
       "X": 0.5,
       "Y": 1.0
      },
      "handle_right": {
       "X": 0.5,
       "Y": 0.0
      },
      "handle_type": 0,
      "interpolation": 0
     }
    ]
   },
   "parentObjectId": "",
   "perspective_c1_x": {
    "Points": [
     {
      "co": {
       "X": 1.0,
       "Y": -1.0
      },
      "handle_left": {
       "X": 0.5,
       "Y": 1.0
      },
      "handle_right": {
       "X": 0.5,
       "Y": 0.0
      },
      "handle_type": 0,
      "interpolation": 0
     }
    ]
   },
   "perspective_c1_y": {
    "Points": [
     {
      "co": {
       "X": 1.0,
       "Y": -1.0
      },
      "handle_left": {
       "X": 0.5,
       "Y": 1.0
      },
      "handle_right": {
       "X": 0.5,
       "Y": 0.0
      },
      "handle_type": 0,
      "interpolation": 0
     }
    ]
   },
   "perspective_c2_x": {
    "Points": [
     {
      "co": {
       "X": 1.0,
       "Y": -1.0
      },
      "handle_left": {
       "X": 0.5,
       "Y": 1.0
      },
      "handle_right": {
       "X": 0.5,
       "Y": 0.0
      },
      "handle_type": 0,
      "interpolation": 0
     }
    ]
   },
   "perspective_c2_y": {
    "Points": [
     {
      "co": {
       "X": 1.0,
       "Y": -1.0
      },
      "handle_left": {
       "X": 0.5,
       "Y": 1.0
      },
      "handle_right": {
       "X": 0.5,
       "Y": 0.0
      },
      "handle_type": 0,
      "interpolation": 0
     }
    ]
   },
   "perspective_c3_x": {
    "Points": [
     {
      "co": {
       "X": 1.0,
       "Y": -1.0
      },
      "handle_left": {
       "X": 0.5,
       "Y": 1.0
      },
      "handle_right": {
       "X": 0.5,
       "Y": 0.0
      },
      "handle_type": 0,
      "interpolation": 0
     }
    ]
   },
   "perspective_c3_y": {
    "Points": [
     {
      "co": {
       "X": 1.0,
       "Y": -1.0
      },
      "handle_left": {
       "X": 0.5,
       "Y": 1.0
      },
      "handle_right": {
       "X": 0.5,
       "Y": 0.0
      },
      "handle_type": 0,
      "interpolation": 0
     }
    ]
   },
   "perspective_c4_x": {
    "Points": [
     {
      "co": {
       "X": 1.0,
       "Y": -1.0
      },
      "handle_left": {
       "X": 0.5,
       "Y": 1.0
      },
      "handle_right": {
       "X": 0.5,
       "Y": 0.0
      },
      "handle_type": 0,
      "interpolation": 0
     }
    ]
   },
   "perspective_c4_y": {
    "Points": [
     {
      "co": {
       "X": 1.0,
       "Y": -1.0
      },
      "handle_left": {
       "X": 0.5,
       "Y": 1.0
      },
      "handle_right": {
       "X": 0.5,
       "Y": 0.0
      },
      "handle_type": 0,
      "interpolation": 0
     }
    ]
   },
   "position": 186.63333333333333,
   "reader": {
    "acodec": "",
    "audio_bit_rate": 0,
    "audio_stream_index": -1,
    "audio_timebase": {
     "den": 1,
     "num": 1
    },
    "channel_layout": 4,
    "channels": 0,
    "display_ratio": {
     "den": 149,
     "num": 518
    },
    "duration": 3600.0,
    "file_size": "4939648",
    "fps": {
     "den": 1,
     "num": 30
    },
    "has_audio": false,
    "has_single_image": true,
    "has_video": true,
    "height": 596,
    "interlaced_frame": false,
    "metadata": {},
    "path": "./drawing22.png",
    "pixel_format": -1,
    "pixel_ratio": {
     "den": 1,
     "num": 1
    },
    "sample_rate": 0,
    "top_field_first": true,
    "type": "QtImageReader",
    "vcodec": "",
    "video_bit_rate": 0,
    "video_length": "108000",
    "video_stream_index": -1,
    "video_timebase": {
     "den": 30,
     "num": 1
    },
    "width": 2072,
    "media_type": "image",
    "id": "8CMJX0Z6FC",
    "image": "Tutorial_assets/thumbnail/8CMJX0Z6FC.png"
   },
   "rotation": {
    "Points": [
     {
      "co": {
       "X": 1.0,
       "Y": 0.0
      },
      "handle_left": {
       "X": 0.5,
       "Y": 1.0
      },
      "handle_right": {
       "X": 0.5,
       "Y": 0.0
      },
      "handle_type": 0,
      "interpolation": 0
     }
    ]
   },
   "scale": 1,
   "scale_x": {
    "Points": [
     {
      "co": {
       "X": 1,
       "Y": 0.3747870497646689
      },
      "handle_left": {
       "X": 0.5,
       "Y": 1.0
      },
      "handle_right": {
       "X": 0.5,
       "Y": 0.0
      },
      "handle_type": 0,
      "interpolation": 0
     }
    ]
   },
   "scale_y": {
    "Points": [
     {
      "co": {
       "X": 1,
       "Y": 0.3747870497646689
      },
      "handle_left": {
       "X": 0.5,
       "Y": 1.0
      },
      "handle_right": {
       "X": 0.5,
       "Y": 0.0
      },
      "handle_type": 0,
      "interpolation": 0
     }
    ]
   },
   "shear_x": {
    "Points": [
     {
      "co": {
       "X": 1.0,
       "Y": 0.0
      },
      "handle_left": {
       "X": 0.5,
       "Y": 1.0
      },
      "handle_right": {
       "X": 0.5,
       "Y": 0.0
      },
      "handle_type": 0,
      "interpolation": 0
     }
    ]
   },
   "shear_y": {
    "Points": [
     {
      "co": {
       "X": 1.0,
       "Y": 0.0
      },
      "handle_left": {
       "X": 0.5,
       "Y": 1.0
      },
      "handle_right": {
       "X": 0.5,
       "Y": 0.0
      },
      "handle_type": 0,
      "interpolation": 0
     }
    ]
   },
   "start": 0,
   "time": {
    "Points": [
     {
      "co": {
       "X": 1.0,
       "Y": 1.0
      },
      "handle_left": {
       "X": 0.5,
       "Y": 1.0
      },
      "handle_right": {
       "X": 0.5,
       "Y": 0.0
      },
      "handle_type": 0,
      "interpolation": 0
     }
    ]
   },
   "volume": {
    "Points": [
     {
      "co": {
       "X": 1.0,
       "Y": 1.0
      },
      "handle_left": {
       "X": 0.5,
       "Y": 1.0
      },
      "handle_right": {
       "X": 0.5,
       "Y": 0.0
      },
      "handle_type": 0,
      "interpolation": 0
     }
    ]
   },
   "wave_color": {
    "alpha": {
     "Points": [
      {
       "co": {
        "X": 1.0,
        "Y": 255.0
       },
       "handle_left": {
        "X": 0.5,
        "Y": 1.0
       },
       "handle_right": {
        "X": 0.5,
        "Y": 0.0
       },
       "handle_type": 0,
       "interpolation": 0
      }
     ]
    },
    "blue": {
     "Points": [
      {
       "co": {
        "X": 1.0,
        "Y": 255.0
       },
       "handle_left": {
        "X": 0.5,
        "Y": 1.0
       },
       "handle_right": {
        "X": 0.5,
        "Y": 0.0
       },
       "handle_type": 0,
       "interpolation": 0
      }
     ]
    },
    "green": {
     "Points": [
      {
       "co": {
        "X": 1.0,
        "Y": 123.0
       },
       "handle_left": {
        "X": 0.5,
        "Y": 1.0
       },
       "handle_right": {
        "X": 0.5,
        "Y": 0.0
       },
       "handle_type": 0,
       "interpolation": 0
      }
     ]
    },
    "red": {
     "Points": [
      {
       "co": {
        "X": 1.0,
        "Y": 0.0
       },
       "handle_left": {
        "X": 0.5,
        "Y": 1.0
       },
       "handle_right": {
        "X": 0.5,
        "Y": 0.0
       },
       "handle_type": 0,
       "interpolation": 0
      }
     ]
    }
   },
   "waveform": false,
   "file_id": "8CMJX0Z6FC",
   "title": "drawing22.png",
   "image": "Tutorial_assets/thumbnail/8CMJX0Z6FC.png"
  },
  {
   "alpha": {
    "Points": [
     {
      "co": {
       "X": 1.0,
       "Y": 1.0
      },
      "handle_left": {
       "X": 0.5,
       "Y": 1.0
      },
      "handle_right": {
       "X": 0.5,
       "Y": 0.0
      },
      "handle_type": 0,
      "interpolation": 0
     }
    ]
   },
   "anchor": 0,
   "channel_filter": {
    "Points": [
     {
      "co": {
       "X": 1.0,
       "Y": -1.0
      },
      "handle_left": {
       "X": 0.5,
       "Y": 1.0
      },
      "handle_right": {
       "X": 0.5,
       "Y": 0.0
      },
      "handle_type": 0,
      "interpolation": 0
     }
    ]
   },
   "channel_mapping": {
    "Points": [
     {
      "co": {
       "X": 1.0,
       "Y": -1.0
      },
      "handle_left": {
       "X": 0.5,
       "Y": 1.0
      },
      "handle_right": {
       "X": 0.5,
       "Y": 0.0
      },
      "handle_type": 0,
      "interpolation": 0
     }
    ]
   },
   "display": 0,
   "duration": 73.5999984741211,
   "effects": [],
   "end": 71.96667683919273,
   "gravity": 4,
   "has_audio": {
    "Points": [
     {
      "co": {
       "X": 1.0,
       "Y": -1.0
      },
      "handle_left": {
       "X": 0.5,
       "Y": 1.0
      },
      "handle_right": {
       "X": 0.5,
       "Y": 0.0
      },
      "handle_type": 0,
      "interpolation": 0
     }
    ]
   },
   "has_video": {
    "Points": [
     {
      "co": {
       "X": 1.0,
       "Y": -1.0
      },
      "handle_left": {
       "X": 0.5,
       "Y": 1.0
      },
      "handle_right": {
       "X": 0.5,
       "Y": 0.0
      },
      "handle_type": 0,
      "interpolation": 0
     }
    ]
   },
   "layer": 1000000,
   "location_x": {
    "Points": [
     {
      "co": {
       "X": 1.0,
       "Y": 0.0
      },
      "handle_left": {
       "X": 0.5,
       "Y": 1.0
      },
      "handle_right": {
       "X": 0.5,
       "Y": 0.0
      },
      "handle_type": 0,
      "interpolation": 0
     }
    ]
   },
   "location_y": {
    "Points": [
     {
      "co": {
       "X": 1.0,
       "Y": 0.0
      },
      "handle_left": {
       "X": 0.5,
       "Y": 1.0
      },
      "handle_right": {
       "X": 0.5,
       "Y": 0.0
      },
      "handle_type": 0,
      "interpolation": 0
     }
    ]
   },
   "mixing": 0,
   "origin_x": {
    "Points": [
     {
      "co": {
       "X": 1.0,
       "Y": 0.5
      },
      "handle_left": {
       "X": 0.5,
       "Y": 1.0
      },
      "handle_right": {
       "X": 0.5,
       "Y": 0.0
      },
      "handle_type": 0,
      "interpolation": 0
     }
    ]
   },
   "origin_y": {
    "Points": [
     {
      "co": {
       "X": 1.0,
       "Y": 0.5
      },
      "handle_left": {
       "X": 0.5,
       "Y": 1.0
      },
      "handle_right": {
       "X": 0.5,
       "Y": 0.0
      },
      "handle_type": 0,
      "interpolation": 0
     }
    ]
   },
   "parentObjectId": "",
   "perspective_c1_x": {
    "Points": [
     {
      "co": {
       "X": 1.0,
       "Y": -1.0
      },
      "handle_left": {
       "X": 0.5,
       "Y": 1.0
      },
      "handle_right": {
       "X": 0.5,
       "Y": 0.0
      },
      "handle_type": 0,
      "interpolation": 0
     }
    ]
   },
   "perspective_c1_y": {
    "Points": [
     {
      "co": {
       "X": 1.0,
       "Y": -1.0
      },
      "handle_left": {
       "X": 0.5,
       "Y": 1.0
      },
      "handle_right": {
       "X": 0.5,
       "Y": 0.0
      },
      "handle_type": 0,
      "interpolation": 0
     }
    ]
   },
   "perspective_c2_x": {
    "Points": [
     {
      "co": {
       "X": 1.0,
       "Y": -1.0
      },
      "handle_left": {
       "X": 0.5,
       "Y": 1.0
      },
      "handle_right": {
       "X": 0.5,
       "Y": 0.0
      },
      "handle_type": 0,
      "interpolation": 0
     }
    ]
   },
   "perspective_c2_y": {
    "Points": [
     {
      "co": {
       "X": 1.0,
       "Y": -1.0
      },
      "handle_left": {
       "X": 0.5,
       "Y": 1.0
      },
      "handle_right": {
       "X": 0.5,
       "Y": 0.0
      },
      "handle_type": 0,
      "interpolation": 0
     }
    ]
   },
   "perspective_c3_x": {
    "Points": [
     {
      "co": {
       "X": 1.0,
       "Y": -1.0
      },
      "handle_left": {
       "X": 0.5,
       "Y": 1.0
      },
      "handle_right": {
       "X": 0.5,
       "Y": 0.0
      },
      "handle_type": 0,
      "interpolation": 0
     }
    ]
   },
   "perspective_c3_y": {
    "Points": [
     {
      "co": {
       "X": 1.0,
       "Y": -1.0
      },
      "handle_left": {
       "X": 0.5,
       "Y": 1.0
      },
      "handle_right": {
       "X": 0.5,
       "Y": 0.0
      },
      "handle_type": 0,
      "interpolation": 0
     }
    ]
   },
   "perspective_c4_x": {
    "Points": [
     {
      "co": {
       "X": 1.0,
       "Y": -1.0
      },
      "handle_left": {
       "X": 0.5,
       "Y": 1.0
      },
      "handle_right": {
       "X": 0.5,
       "Y": 0.0
      },
      "handle_type": 0,
      "interpolation": 0
     }
    ]
   },
   "perspective_c4_y": {
    "Points": [
     {
      "co": {
       "X": 1.0,
       "Y": -1.0
      },
      "handle_left": {
       "X": 0.5,
       "Y": 1.0
      },
      "handle_right": {
       "X": 0.5,
       "Y": 0.0
      },
      "handle_type": 0,
      "interpolation": 0
     }
    ]
   },
   "position": 193.26666666666668,
   "reader": {
    "acodec": "",
    "audio_bit_rate": 0,
    "audio_stream_index": -1,
    "audio_timebase": {
     "den": 1,
     "num": 1
    },
    "channel_layout": 4,
    "channels": 0,
    "display_ratio": {
     "den": 9,
     "num": 16
    },
    "duration": 73.5999984741211,
    "file_size": "57616868",
    "fps": {
     "den": 1,
     "num": 30
    },
    "has_audio": false,
    "has_single_image": false,
    "has_video": true,
    "height": 1080,
    "interlaced_frame": false,
    "metadata": {
     "comment": "Create videos with https://clipchamp.com/en/video-editor - free online video editor, video compressor, video converter.",
     "compatible_brands": "isomiso2avc1mp41",
     "encoder": "https://clipchamp.com",
     "handler_name": "VideoHandler",
     "language": "und",
     "major_brand": "isom",
     "minor_version": "512"
    },
    "path": "./movie_003_002.mp4",
    "pixel_format": 0,
    "pixel_ratio": {
     "den": 1,
     "num": 1
    },
    "sample_rate": 0,
    "top_field_first": true,
    "type": "FFmpegReader",
    "vcodec": "h264",
    "video_bit_rate": 782837,
    "video_length": "2208",
    "video_stream_index": 0,
    "video_timebase": {
     "den": 15360,
     "num": 1
    },
    "width": 1920,
    "media_type": "video",
    "id": "L20DIPWUJ9"
   },
   "rotation": {
    "Points": [
     {
      "co": {
       "X": 1.0,
       "Y": 0.0
      },
      "handle_left": {
       "X": 0.5,
       "Y": 1.0
      },
      "handle_right": {
       "X": 0.5,
       "Y": 0.0
      },
      "handle_type": 0,
      "interpolation": 0
     }
    ]
   },
   "scale": 1,
   "scale_x": {
    "Points": [
     {
      "co": {
       "X": 1.0,
       "Y": 1.0
      },
      "handle_left": {
       "X": 0.5,
       "Y": 1.0
      },
      "handle_right": {
       "X": 0.5,
       "Y": 0.0
      },
      "handle_type": 0,
      "interpolation": 0
     }
    ]
   },
   "scale_y": {
    "Points": [
     {
      "co": {
       "X": 1.0,
       "Y": 1.0
      },
      "handle_left": {
       "X": 0.5,
       "Y": 1.0
      },
      "handle_right": {
       "X": 0.5,
       "Y": 0.0
      },
      "handle_type": 0,
      "interpolation": 0
     }
    ]
   },
   "shear_x": {
    "Points": [
     {
      "co": {
       "X": 1.0,
       "Y": 0.0
      },
      "handle_left": {
       "X": 0.5,
       "Y": 1.0
      },
      "handle_right": {
       "X": 0.5,
       "Y": 0.0
      },
      "handle_type": 0,
      "interpolation": 0
     }
    ]
   },
   "shear_y": {
    "Points": [
     {
      "co": {
       "X": 1.0,
       "Y": 0.0
      },
      "handle_left": {
       "X": 0.5,
       "Y": 1.0
      },
      "handle_right": {
       "X": 0.5,
       "Y": 0.0
      },
      "handle_type": 0,
      "interpolation": 0
     }
    ]
   },
   "start": 65.00001017252609,
   "time": {
    "Points": [
     {
      "co": {
       "X": 1.0,
       "Y": 1.0
      },
      "handle_left": {
       "X": 0.5,
       "Y": 1.0
      },
      "handle_right": {
       "X": 0.5,
       "Y": 0.0
      },
      "handle_type": 0,
      "interpolation": 0
     }
    ]
   },
   "volume": {
    "Points": [
     {
      "co": {
       "X": 1.0,
       "Y": 1.0
      },
      "handle_left": {
       "X": 0.5,
       "Y": 1.0
      },
      "handle_right": {
       "X": 0.5,
       "Y": 0.0
      },
      "handle_type": 0,
      "interpolation": 0
     }
    ]
   },
   "wave_color": {
    "alpha": {
     "Points": [
      {
       "co": {
        "X": 1.0,
        "Y": 255.0
       },
       "handle_left": {
        "X": 0.5,
        "Y": 1.0
       },
       "handle_right": {
        "X": 0.5,
        "Y": 0.0
       },
       "handle_type": 0,
       "interpolation": 0
      }
     ]
    },
    "blue": {
     "Points": [
      {
       "co": {
        "X": 1.0,
        "Y": 255.0
       },
       "handle_left": {
        "X": 0.5,
        "Y": 1.0
       },
       "handle_right": {
        "X": 0.5,
        "Y": 0.0
       },
       "handle_type": 0,
       "interpolation": 0
      }
     ]
    },
    "green": {
     "Points": [
      {
       "co": {
        "X": 1.0,
        "Y": 123.0
       },
       "handle_left": {
        "X": 0.5,
        "Y": 1.0
       },
       "handle_right": {
        "X": 0.5,
        "Y": 0.0
       },
       "handle_type": 0,
       "interpolation": 0
      }
     ]
    },
    "red": {
     "Points": [
      {
       "co": {
        "X": 1.0,
        "Y": 0.0
       },
       "handle_left": {
        "X": 0.5,
        "Y": 1.0
       },
       "handle_right": {
        "X": 0.5,
        "Y": 0.0
       },
       "handle_type": 0,
       "interpolation": 0
      }
     ]
    }
   },
   "waveform": false,
   "file_id": "L20DIPWUJ9",
   "title": "movie_003_002.mp4",
   "image": "Tutorial_assets/thumbnail/L20DIPWUJ9.png",
   "id": "5MXH45BSMY"
  },
  {
   "alpha": {
    "Points": [
     {
      "co": {
       "X": 1.0,
       "Y": 1.0
      },
      "handle_left": {
       "X": 0.5,
       "Y": 1.0
      },
      "handle_right": {
       "X": 0.5,
       "Y": 0.0
      },
      "handle_type": 0,
      "interpolation": 0
     }
    ]
   },
   "anchor": 0,
   "channel_filter": {
    "Points": [
     {
      "co": {
       "X": 1.0,
       "Y": -1.0
      },
      "handle_left": {
       "X": 0.5,
       "Y": 1.0
      },
      "handle_right": {
       "X": 0.5,
       "Y": 0.0
      },
      "handle_type": 0,
      "interpolation": 0
     }
    ]
   },
   "channel_mapping": {
    "Points": [
     {
      "co": {
       "X": 1.0,
       "Y": -1.0
      },
      "handle_left": {
       "X": 0.5,
       "Y": 1.0
      },
      "handle_right": {
       "X": 0.5,
       "Y": 0.0
      },
      "handle_type": 0,
      "interpolation": 0
     }
    ]
   },
   "display": 0,
   "duration": 3600.0,
   "effects": [],
   "end": 6,
   "gravity": 4,
   "has_audio": {
    "Points": [
     {
      "co": {
       "X": 1.0,
       "Y": -1.0
      },
      "handle_left": {
       "X": 0.5,
       "Y": 1.0
      },
      "handle_right": {
       "X": 0.5,
       "Y": 0.0
      },
      "handle_type": 0,
      "interpolation": 0
     }
    ]
   },
   "has_video": {
    "Points": [
     {
      "co": {
       "X": 1.0,
       "Y": -1.0
      },
      "handle_left": {
       "X": 0.5,
       "Y": 1.0
      },
      "handle_right": {
       "X": 0.5,
       "Y": 0.0
      },
      "handle_type": 0,
      "interpolation": 0
     }
    ]
   },
   "id": "2BOTIRGDXS",
   "layer": 1000000,
   "location_x": {
    "Points": [
     {
      "co": {
       "X": 1.0,
       "Y": 0.0
      },
      "handle_left": {
       "X": 0.5,
       "Y": 1.0
      },
      "handle_right": {
       "X": 0.5,
       "Y": 0.0
      },
      "handle_type": 0,
      "interpolation": 0
     }
    ]
   },
   "location_y": {
    "Points": [
     {
      "co": {
       "X": 1.0,
       "Y": 0.0
      },
      "handle_left": {
       "X": 0.5,
       "Y": 1.0
      },
      "handle_right": {
       "X": 0.5,
       "Y": 0.0
      },
      "handle_type": 0,
      "interpolation": 0
     }
    ]
   },
   "mixing": 0,
   "origin_x": {
    "Points": [
     {
      "co": {
       "X": 1.0,
       "Y": 0.5
      },
      "handle_left": {
       "X": 0.5,
       "Y": 1.0
      },
      "handle_right": {
       "X": 0.5,
       "Y": 0.0
      },
      "handle_type": 0,
      "interpolation": 0
     }
    ]
   },
   "origin_y": {
    "Points": [
     {
      "co": {
       "X": 1.0,
       "Y": 0.5
      },
      "handle_left": {
       "X": 0.5,
       "Y": 1.0
      },
      "handle_right": {
       "X": 0.5,
       "Y": 0.0
      },
      "handle_type": 0,
      "interpolation": 0
     }
    ]
   },
   "parentObjectId": "",
   "perspective_c1_x": {
    "Points": [
     {
      "co": {
       "X": 1.0,
       "Y": -1.0
      },
      "handle_left": {
       "X": 0.5,
       "Y": 1.0
      },
      "handle_right": {
       "X": 0.5,
       "Y": 0.0
      },
      "handle_type": 0,
      "interpolation": 0
     }
    ]
   },
   "perspective_c1_y": {
    "Points": [
     {
      "co": {
       "X": 1.0,
       "Y": -1.0
      },
      "handle_left": {
       "X": 0.5,
       "Y": 1.0
      },
      "handle_right": {
       "X": 0.5,
       "Y": 0.0
      },
      "handle_type": 0,
      "interpolation": 0
     }
    ]
   },
   "perspective_c2_x": {
    "Points": [
     {
      "co": {
       "X": 1.0,
       "Y": -1.0
      },
      "handle_left": {
       "X": 0.5,
       "Y": 1.0
      },
      "handle_right": {
       "X": 0.5,
       "Y": 0.0
      },
      "handle_type": 0,
      "interpolation": 0
     }
    ]
   },
   "perspective_c2_y": {
    "Points": [
     {
      "co": {
       "X": 1.0,
       "Y": -1.0
      },
      "handle_left": {
       "X": 0.5,
       "Y": 1.0
      },
      "handle_right": {
       "X": 0.5,
       "Y": 0.0
      },
      "handle_type": 0,
      "interpolation": 0
     }
    ]
   },
   "perspective_c3_x": {
    "Points": [
     {
      "co": {
       "X": 1.0,
       "Y": -1.0
      },
      "handle_left": {
       "X": 0.5,
       "Y": 1.0
      },
      "handle_right": {
       "X": 0.5,
       "Y": 0.0
      },
      "handle_type": 0,
      "interpolation": 0
     }
    ]
   },
   "perspective_c3_y": {
    "Points": [
     {
      "co": {
       "X": 1.0,
       "Y": -1.0
      },
      "handle_left": {
       "X": 0.5,
       "Y": 1.0
      },
      "handle_right": {
       "X": 0.5,
       "Y": 0.0
      },
      "handle_type": 0,
      "interpolation": 0
     }
    ]
   },
   "perspective_c4_x": {
    "Points": [
     {
      "co": {
       "X": 1.0,
       "Y": -1.0
      },
      "handle_left": {
       "X": 0.5,
       "Y": 1.0
      },
      "handle_right": {
       "X": 0.5,
       "Y": 0.0
      },
      "handle_type": 0,
      "interpolation": 0
     }
    ]
   },
   "perspective_c4_y": {
    "Points": [
     {
      "co": {
       "X": 1.0,
       "Y": -1.0
      },
      "handle_left": {
       "X": 0.5,
       "Y": 1.0
      },
      "handle_right": {
       "X": 0.5,
       "Y": 0.0
      },
      "handle_type": 0,
      "interpolation": 0
     }
    ]
   },
   "position": 187.26666666666668,
   "reader": {
    "acodec": "",
    "audio_bit_rate": 0,
    "audio_stream_index": -1,
    "audio_timebase": {
     "den": 1,
     "num": 1
    },
    "channel_layout": 4,
    "channels": 0,
    "display_ratio": {
     "den": 9,
     "num": 16
    },
    "duration": 3600.0,
    "file_size": "8294400",
    "fps": {
     "den": 1,
     "num": 30
    },
    "has_audio": false,
    "has_single_image": true,
    "has_video": true,
    "height": 1080,
    "interlaced_frame": false,
    "metadata": {},
    "path": "./Frame-05618.png",
    "pixel_format": -1,
    "pixel_ratio": {
     "den": 1,
     "num": 1
    },
    "sample_rate": 0,
    "top_field_first": true,
    "type": "QtImageReader",
    "vcodec": "",
    "video_bit_rate": 0,
    "video_length": "108000",
    "video_stream_index": -1,
    "video_timebase": {
     "den": 30,
     "num": 1
    },
    "width": 1920,
    "media_type": "image",
    "id": "GBEHHA9AF7"
   },
   "rotation": {
    "Points": [
     {
      "co": {
       "X": 1.0,
       "Y": 0.0
      },
      "handle_left": {
       "X": 0.5,
       "Y": 1.0
      },
      "handle_right": {
       "X": 0.5,
       "Y": 0.0
      },
      "handle_type": 0,
      "interpolation": 0
     }
    ]
   },
   "scale": 1,
   "scale_x": {
    "Points": [
     {
      "co": {
       "X": 1.0,
       "Y": 1.0
      },
      "handle_left": {
       "X": 0.5,
       "Y": 1.0
      },
      "handle_right": {
       "X": 0.5,
       "Y": 0.0
      },
      "handle_type": 0,
      "interpolation": 0
     }
    ]
   },
   "scale_y": {
    "Points": [
     {
      "co": {
       "X": 1.0,
       "Y": 1.0
      },
      "handle_left": {
       "X": 0.5,
       "Y": 1.0
      },
      "handle_right": {
       "X": 0.5,
       "Y": 0.0
      },
      "handle_type": 0,
      "interpolation": 0
     }
    ]
   },
   "shear_x": {
    "Points": [
     {
      "co": {
       "X": 1.0,
       "Y": 0.0
      },
      "handle_left": {
       "X": 0.5,
       "Y": 1.0
      },
      "handle_right": {
       "X": 0.5,
       "Y": 0.0
      },
      "handle_type": 0,
      "interpolation": 0
     }
    ]
   },
   "shear_y": {
    "Points": [
     {
      "co": {
       "X": 1.0,
       "Y": 0.0
      },
      "handle_left": {
       "X": 0.5,
       "Y": 1.0
      },
      "handle_right": {
       "X": 0.5,
       "Y": 0.0
      },
      "handle_type": 0,
      "interpolation": 0
     }
    ]
   },
   "start": 0,
   "time": {
    "Points": [
     {
      "co": {
       "X": 1.0,
       "Y": 1.0
      },
      "handle_left": {
       "X": 0.5,
       "Y": 1.0
      },
      "handle_right": {
       "X": 0.5,
       "Y": 0.0
      },
      "handle_type": 0,
      "interpolation": 0
     }
    ]
   },
   "volume": {
    "Points": [
     {
      "co": {
       "X": 1.0,
       "Y": 1.0
      },
      "handle_left": {
       "X": 0.5,
       "Y": 1.0
      },
      "handle_right": {
       "X": 0.5,
       "Y": 0.0
      },
      "handle_type": 0,
      "interpolation": 0
     }
    ]
   },
   "wave_color": {
    "alpha": {
     "Points": [
      {
       "co": {
        "X": 1.0,
        "Y": 255.0
       },
       "handle_left": {
        "X": 0.5,
        "Y": 1.0
       },
       "handle_right": {
        "X": 0.5,
        "Y": 0.0
       },
       "handle_type": 0,
       "interpolation": 0
      }
     ]
    },
    "blue": {
     "Points": [
      {
       "co": {
        "X": 1.0,
        "Y": 255.0
       },
       "handle_left": {
        "X": 0.5,
        "Y": 1.0
       },
       "handle_right": {
        "X": 0.5,
        "Y": 0.0
       },
       "handle_type": 0,
       "interpolation": 0
      }
     ]
    },
    "green": {
     "Points": [
      {
       "co": {
        "X": 1.0,
        "Y": 123.0
       },
       "handle_left": {
        "X": 0.5,
        "Y": 1.0
       },
       "handle_right": {
        "X": 0.5,
        "Y": 0.0
       },
       "handle_type": 0,
       "interpolation": 0
      }
     ]
    },
    "red": {
     "Points": [
      {
       "co": {
        "X": 1.0,
        "Y": 0.0
       },
       "handle_left": {
        "X": 0.5,
        "Y": 1.0
       },
       "handle_right": {
        "X": 0.5,
        "Y": 0.0
       },
       "handle_type": 0,
       "interpolation": 0
      }
     ]
    }
   },
   "waveform": false,
   "file_id": "GBEHHA9AF7",
   "title": "Frame-05618.png",
   "image": "Tutorial_assets/thumbnail/GBEHHA9AF7.png"
  },
  {
   "alpha": {
    "Points": [
     {
      "co": {
       "X": 1.0,
       "Y": 1.0
      },
      "handle_left": {
       "X": 0.5,
       "Y": 1.0
      },
      "handle_right": {
       "X": 0.5,
       "Y": 0.0
      },
      "handle_type": 0,
      "interpolation": 0
     }
    ]
   },
   "anchor": 0,
   "channel_filter": {
    "Points": [
     {
      "co": {
       "X": 1.0,
       "Y": -1.0
      },
      "handle_left": {
       "X": 0.5,
       "Y": 1.0
      },
      "handle_right": {
       "X": 0.5,
       "Y": 0.0
      },
      "handle_type": 0,
      "interpolation": 0
     }
    ]
   },
   "channel_mapping": {
    "Points": [
     {
      "co": {
       "X": 1.0,
       "Y": -1.0
      },
      "handle_left": {
       "X": 0.5,
       "Y": 1.0
      },
      "handle_right": {
       "X": 0.5,
       "Y": 0.0
      },
      "handle_type": 0,
      "interpolation": 0
     }
    ]
   },
   "display": 0,
   "duration": 3600.0,
   "effects": [],
   "end": 6.1916666666666424,
   "gravity": 4,
   "has_audio": {
    "Points": [
     {
      "co": {
       "X": 1.0,
       "Y": -1.0
      },
      "handle_left": {
       "X": 0.5,
       "Y": 1.0
      },
      "handle_right": {
       "X": 0.5,
       "Y": 0.0
      },
      "handle_type": 0,
      "interpolation": 0
     }
    ]
   },
   "has_video": {
    "Points": [
     {
      "co": {
       "X": 1.0,
       "Y": -1.0
      },
      "handle_left": {
       "X": 0.5,
       "Y": 1.0
      },
      "handle_right": {
       "X": 0.5,
       "Y": 0.0
      },
      "handle_type": 0,
      "interpolation": 0
     }
    ]
   },
   "id": "W1E9DYXZNO",
   "layer": 3000000,
   "location_x": {
    "Points": [
     {
      "co": {
       "X": 1,
       "Y": 0.2972743682804465
      },
      "handle_left": {
       "X": 0.5,
       "Y": 1.0
      },
      "handle_right": {
       "X": 0.5,
       "Y": 0.0
      },
      "handle_type": 0,
      "interpolation": 0
     }
    ]
   },
   "location_y": {
    "Points": [
     {
      "co": {
       "X": 1,
       "Y": -0.28787877866716094
      },
      "handle_left": {
       "X": 0.5,
       "Y": 1.0
      },
      "handle_right": {
       "X": 0.5,
       "Y": 0.0
      },
      "handle_type": 0,
      "interpolation": 0
     }
    ]
   },
   "mixing": 0,
   "origin_x": {
    "Points": [
     {
      "co": {
       "X": 1.0,
       "Y": 0.5
      },
      "handle_left": {
       "X": 0.5,
       "Y": 1.0
      },
      "handle_right": {
       "X": 0.5,
       "Y": 0.0
      },
      "handle_type": 0,
      "interpolation": 0
     }
    ]
   },
   "origin_y": {
    "Points": [
     {
      "co": {
       "X": 1.0,
       "Y": 0.5
      },
      "handle_left": {
       "X": 0.5,
       "Y": 1.0
      },
      "handle_right": {
       "X": 0.5,
       "Y": 0.0
      },
      "handle_type": 0,
      "interpolation": 0
     }
    ]
   },
   "parentObjectId": "",
   "perspective_c1_x": {
    "Points": [
     {
      "co": {
       "X": 1.0,
       "Y": -1.0
      },
      "handle_left": {
       "X": 0.5,
       "Y": 1.0
      },
      "handle_right": {
       "X": 0.5,
       "Y": 0.0
      },
      "handle_type": 0,
      "interpolation": 0
     }
    ]
   },
   "perspective_c1_y": {
    "Points": [
     {
      "co": {
       "X": 1.0,
       "Y": -1.0
      },
      "handle_left": {
       "X": 0.5,
       "Y": 1.0
      },
      "handle_right": {
       "X": 0.5,
       "Y": 0.0
      },
      "handle_type": 0,
      "interpolation": 0
     }
    ]
   },
   "perspective_c2_x": {
    "Points": [
     {
      "co": {
       "X": 1.0,
       "Y": -1.0
      },
      "handle_left": {
       "X": 0.5,
       "Y": 1.0
      },
      "handle_right": {
       "X": 0.5,
       "Y": 0.0
      },
      "handle_type": 0,
      "interpolation": 0
     }
    ]
   },
   "perspective_c2_y": {
    "Points": [
     {
      "co": {
       "X": 1.0,
       "Y": -1.0
      },
      "handle_left": {
       "X": 0.5,
       "Y": 1.0
      },
      "handle_right": {
       "X": 0.5,
       "Y": 0.0
      },
      "handle_type": 0,
      "interpolation": 0
     }
    ]
   },
   "perspective_c3_x": {
    "Points": [
     {
      "co": {
       "X": 1.0,
       "Y": -1.0
      },
      "handle_left": {
       "X": 0.5,
       "Y": 1.0
      },
      "handle_right": {
       "X": 0.5,
       "Y": 0.0
      },
      "handle_type": 0,
      "interpolation": 0
     }
    ]
   },
   "perspective_c3_y": {
    "Points": [
     {
      "co": {
       "X": 1.0,
       "Y": -1.0
      },
      "handle_left": {
       "X": 0.5,
       "Y": 1.0
      },
      "handle_right": {
       "X": 0.5,
       "Y": 0.0
      },
      "handle_type": 0,
      "interpolation": 0
     }
    ]
   },
   "perspective_c4_x": {
    "Points": [
     {
      "co": {
       "X": 1.0,
       "Y": -1.0
      },
      "handle_left": {
       "X": 0.5,
       "Y": 1.0
      },
      "handle_right": {
       "X": 0.5,
       "Y": 0.0
      },
      "handle_type": 0,
      "interpolation": 0
     }
    ]
   },
   "perspective_c4_y": {
    "Points": [
     {
      "co": {
       "X": 1.0,
       "Y": -1.0
      },
      "handle_left": {
       "X": 0.5,
       "Y": 1.0
      },
      "handle_right": {
       "X": 0.5,
       "Y": 0.0
      },
      "handle_type": 0,
      "interpolation": 0
     }
    ]
   },
   "position": 191.86666666666667,
   "reader": {
    "acodec": "",
    "audio_bit_rate": 0,
    "audio_stream_index": -1,
    "audio_timebase": {
     "den": 1,
     "num": 1
    },
    "channel_layout": 4,
    "channels": 0,
    "display_ratio": {
     "den": 613,
     "num": 1854
    },
    "duration": 3600.0,
    "file_size": "4546008",
    "fps": {
     "den": 1,
     "num": 30
    },
    "has_audio": false,
    "has_single_image": true,
    "has_video": true,
    "height": 613,
    "interlaced_frame": false,
    "metadata": {},
    "path": "./drawing30.png",
    "pixel_format": -1,
    "pixel_ratio": {
     "den": 1,
     "num": 1
    },
    "sample_rate": 0,
    "top_field_first": true,
    "type": "QtImageReader",
    "vcodec": "",
    "video_bit_rate": 0,
    "video_length": "108000",
    "video_stream_index": -1,
    "video_timebase": {
     "den": 30,
     "num": 1
    },
    "width": 1854,
    "media_type": "image",
    "id": "A97ZXTVQOK"
   },
   "rotation": {
    "Points": [
     {
      "co": {
       "X": 1.0,
       "Y": 0.0
      },
      "handle_left": {
       "X": 0.5,
       "Y": 1.0
      },
      "handle_right": {
       "X": 0.5,
       "Y": 0.0
      },
      "handle_type": 0,
      "interpolation": 0
     }
    ]
   },
   "scale": 1,
   "scale_x": {
    "Points": [
     {
      "co": {
       "X": 1,
       "Y": 0.35093677043914795
      },
      "handle_left": {
       "X": 0.5,
       "Y": 1.0
      },
      "handle_right": {
       "X": 0.5,
       "Y": 0.0
      },
      "handle_type": 0,
      "interpolation": 0
     }
    ]
   },
   "scale_y": {
    "Points": [
     {
      "co": {
       "X": 1,
       "Y": 0.35093677043914795
      },
      "handle_left": {
       "X": 0.5,
       "Y": 1.0
      },
      "handle_right": {
       "X": 0.5,
       "Y": 0.0
      },
      "handle_type": 0,
      "interpolation": 0
     }
    ]
   },
   "shear_x": {
    "Points": [
     {
      "co": {
       "X": 1.0,
       "Y": 0.0
      },
      "handle_left": {
       "X": 0.5,
       "Y": 1.0
      },
      "handle_right": {
       "X": 0.5,
       "Y": 0.0
      },
      "handle_type": 0,
      "interpolation": 0
     }
    ]
   },
   "shear_y": {
    "Points": [
     {
      "co": {
       "X": 1.0,
       "Y": 0.0
      },
      "handle_left": {
       "X": 0.5,
       "Y": 1.0
      },
      "handle_right": {
       "X": 0.5,
       "Y": 0.0
      },
      "handle_type": 0,
      "interpolation": 0
     }
    ]
   },
   "start": 0,
   "time": {
    "Points": [
     {
      "co": {
       "X": 1.0,
       "Y": 1.0
      },
      "handle_left": {
       "X": 0.5,
       "Y": 1.0
      },
      "handle_right": {
       "X": 0.5,
       "Y": 0.0
      },
      "handle_type": 0,
      "interpolation": 0
     }
    ]
   },
   "volume": {
    "Points": [
     {
      "co": {
       "X": 1.0,
       "Y": 1.0
      },
      "handle_left": {
       "X": 0.5,
       "Y": 1.0
      },
      "handle_right": {
       "X": 0.5,
       "Y": 0.0
      },
      "handle_type": 0,
      "interpolation": 0
     }
    ]
   },
   "wave_color": {
    "alpha": {
     "Points": [
      {
       "co": {
        "X": 1.0,
        "Y": 255.0
       },
       "handle_left": {
        "X": 0.5,
        "Y": 1.0
       },
       "handle_right": {
        "X": 0.5,
        "Y": 0.0
       },
       "handle_type": 0,
       "interpolation": 0
      }
     ]
    },
    "blue": {
     "Points": [
      {
       "co": {
        "X": 1.0,
        "Y": 255.0
       },
       "handle_left": {
        "X": 0.5,
        "Y": 1.0
       },
       "handle_right": {
        "X": 0.5,
        "Y": 0.0
       },
       "handle_type": 0,
       "interpolation": 0
      }
     ]
    },
    "green": {
     "Points": [
      {
       "co": {
        "X": 1.0,
        "Y": 123.0
       },
       "handle_left": {
        "X": 0.5,
        "Y": 1.0
       },
       "handle_right": {
        "X": 0.5,
        "Y": 0.0
       },
       "handle_type": 0,
       "interpolation": 0
      }
     ]
    },
    "red": {
     "Points": [
      {
       "co": {
        "X": 1.0,
        "Y": 0.0
       },
       "handle_left": {
        "X": 0.5,
        "Y": 1.0
       },
       "handle_right": {
        "X": 0.5,
        "Y": 0.0
       },
       "handle_type": 0,
       "interpolation": 0
      }
     ]
    }
   },
   "waveform": false,
   "file_id": "A97ZXTVQOK",
   "title": "drawing30.png",
   "image": "Tutorial_assets/thumbnail/A97ZXTVQOK.png"
  },
  {
   "alpha": {
    "Points": [
     {
      "co": {
       "X": 1.0,
       "Y": 1.0
      },
      "handle_left": {
       "X": 0.5,
       "Y": 1.0
      },
      "handle_right": {
       "X": 0.5,
       "Y": 0.0
      },
      "handle_type": 0,
      "interpolation": 0
     }
    ]
   },
   "anchor": 0,
   "channel_filter": {
    "Points": [
     {
      "co": {
       "X": 1.0,
       "Y": -1.0
      },
      "handle_left": {
       "X": 0.5,
       "Y": 1.0
      },
      "handle_right": {
       "X": 0.5,
       "Y": 0.0
      },
      "handle_type": 0,
      "interpolation": 0
     }
    ]
   },
   "channel_mapping": {
    "Points": [
     {
      "co": {
       "X": 1.0,
       "Y": -1.0
      },
      "handle_left": {
       "X": 0.5,
       "Y": 1.0
      },
      "handle_right": {
       "X": 0.5,
       "Y": 0.0
      },
      "handle_type": 0,
      "interpolation": 0
     }
    ]
   },
   "display": 0,
   "duration": 65.06666564941406,
   "effects": [],
   "end": 12.433333333333344,
   "gravity": 4,
   "has_audio": {
    "Points": [
     {
      "co": {
       "X": 1.0,
       "Y": -1.0
      },
      "handle_left": {
       "X": 0.5,
       "Y": 1.0
      },
      "handle_right": {
       "X": 0.5,
       "Y": 0.0
      },
      "handle_type": 0,
      "interpolation": 0
     }
    ]
   },
   "has_video": {
    "Points": [
     {
      "co": {
       "X": 1.0,
       "Y": -1.0
      },
      "handle_left": {
       "X": 0.5,
       "Y": 1.0
      },
      "handle_right": {
       "X": 0.5,
       "Y": 0.0
      },
      "handle_type": 0,
      "interpolation": 0
     }
    ]
   },
   "id": "HIWNOZK7SM",
   "layer": 1000000,
   "location_x": {
    "Points": [
     {
      "co": {
       "X": 1.0,
       "Y": 0.0
      },
      "handle_left": {
       "X": 0.5,
       "Y": 1.0
      },
      "handle_right": {
       "X": 0.5,
       "Y": 0.0
      },
      "handle_type": 0,
      "interpolation": 0
     }
    ]
   },
   "location_y": {
    "Points": [
     {
      "co": {
       "X": 1.0,
       "Y": 0.0
      },
      "handle_left": {
       "X": 0.5,
       "Y": 1.0
      },
      "handle_right": {
       "X": 0.5,
       "Y": 0.0
      },
      "handle_type": 0,
      "interpolation": 0
     }
    ]
   },
   "mixing": 0,
   "origin_x": {
    "Points": [
     {
      "co": {
       "X": 1.0,
       "Y": 0.5
      },
      "handle_left": {
       "X": 0.5,
       "Y": 1.0
      },
      "handle_right": {
       "X": 0.5,
       "Y": 0.0
      },
      "handle_type": 0,
      "interpolation": 0
     }
    ]
   },
   "origin_y": {
    "Points": [
     {
      "co": {
       "X": 1.0,
       "Y": 0.5
      },
      "handle_left": {
       "X": 0.5,
       "Y": 1.0
      },
      "handle_right": {
       "X": 0.5,
       "Y": 0.0
      },
      "handle_type": 0,
      "interpolation": 0
     }
    ]
   },
   "parentObjectId": "",
   "perspective_c1_x": {
    "Points": [
     {
      "co": {
       "X": 1.0,
       "Y": -1.0
      },
      "handle_left": {
       "X": 0.5,
       "Y": 1.0
      },
      "handle_right": {
       "X": 0.5,
       "Y": 0.0
      },
      "handle_type": 0,
      "interpolation": 0
     }
    ]
   },
   "perspective_c1_y": {
    "Points": [
     {
      "co": {
       "X": 1.0,
       "Y": -1.0
      },
      "handle_left": {
       "X": 0.5,
       "Y": 1.0
      },
      "handle_right": {
       "X": 0.5,
       "Y": 0.0
      },
      "handle_type": 0,
      "interpolation": 0
     }
    ]
   },
   "perspective_c2_x": {
    "Points": [
     {
      "co": {
       "X": 1.0,
       "Y": -1.0
      },
      "handle_left": {
       "X": 0.5,
       "Y": 1.0
      },
      "handle_right": {
       "X": 0.5,
       "Y": 0.0
      },
      "handle_type": 0,
      "interpolation": 0
     }
    ]
   },
   "perspective_c2_y": {
    "Points": [
     {
      "co": {
       "X": 1.0,
       "Y": -1.0
      },
      "handle_left": {
       "X": 0.5,
       "Y": 1.0
      },
      "handle_right": {
       "X": 0.5,
       "Y": 0.0
      },
      "handle_type": 0,
      "interpolation": 0
     }
    ]
   },
   "perspective_c3_x": {
    "Points": [
     {
      "co": {
       "X": 1.0,
       "Y": -1.0
      },
      "handle_left": {
       "X": 0.5,
       "Y": 1.0
      },
      "handle_right": {
       "X": 0.5,
       "Y": 0.0
      },
      "handle_type": 0,
      "interpolation": 0
     }
    ]
   },
   "perspective_c3_y": {
    "Points": [
     {
      "co": {
       "X": 1.0,
       "Y": -1.0
      },
      "handle_left": {
       "X": 0.5,
       "Y": 1.0
      },
      "handle_right": {
       "X": 0.5,
       "Y": 0.0
      },
      "handle_type": 0,
      "interpolation": 0
     }
    ]
   },
   "perspective_c4_x": {
    "Points": [
     {
      "co": {
       "X": 1.0,
       "Y": -1.0
      },
      "handle_left": {
       "X": 0.5,
       "Y": 1.0
      },
      "handle_right": {
       "X": 0.5,
       "Y": 0.0
      },
      "handle_type": 0,
      "interpolation": 0
     }
    ]
   },
   "perspective_c4_y": {
    "Points": [
     {
      "co": {
       "X": 1.0,
       "Y": -1.0
      },
      "handle_left": {
       "X": 0.5,
       "Y": 1.0
      },
      "handle_right": {
       "X": 0.5,
       "Y": 0.0
      },
      "handle_type": 0,
      "interpolation": 0
     }
    ]
   },
   "position": 209.83333333333334,
   "reader": {
    "acodec": "",
    "audio_bit_rate": 0,
    "audio_stream_index": -1,
    "audio_timebase": {
     "den": 1,
     "num": 1
    },
    "channel_layout": 4,
    "channels": 0,
    "display_ratio": {
     "den": 9,
     "num": 16
    },
    "duration": 65.06666564941406,
    "file_size": "44795656",
    "fps": {
     "den": 1,
     "num": 30
    },
    "has_audio": false,
    "has_single_image": false,
    "has_video": true,
    "height": 1080,
    "interlaced_frame": false,
    "metadata": {
     "comment": "Create videos with https://clipchamp.com/en/video-editor - free online video editor, video compressor, video converter.",
     "compatible_brands": "isomiso2avc1mp41",
     "encoder": "https://clipchamp.com",
     "handler_name": "VideoHandler",
     "language": "und",
     "major_brand": "isom",
     "minor_version": "512"
    },
    "path": "./movie_003_003.mp4",
    "pixel_format": 0,
    "pixel_ratio": {
     "den": 1,
     "num": 1
    },
    "sample_rate": 0,
    "top_field_first": true,
    "type": "FFmpegReader",
    "vcodec": "h264",
    "video_bit_rate": 688454,
    "video_length": "1952",
    "video_stream_index": 0,
    "video_timebase": {
     "den": 15360,
     "num": 1
    },
    "width": 1920,
    "media_type": "video",
    "id": "J920Z8D3MS"
   },
   "rotation": {
    "Points": [
     {
      "co": {
       "X": 1.0,
       "Y": 0.0
      },
      "handle_left": {
       "X": 0.5,
       "Y": 1.0
      },
      "handle_right": {
       "X": 0.5,
       "Y": 0.0
      },
      "handle_type": 0,
      "interpolation": 0
     }
    ]
   },
   "scale": 1,
   "scale_x": {
    "Points": [
     {
      "co": {
       "X": 1.0,
       "Y": 1.0
      },
      "handle_left": {
       "X": 0.5,
       "Y": 1.0
      },
      "handle_right": {
       "X": 0.5,
       "Y": 0.0
      },
      "handle_type": 0,
      "interpolation": 0
     }
    ]
   },
   "scale_y": {
    "Points": [
     {
      "co": {
       "X": 1.0,
       "Y": 1.0
      },
      "handle_left": {
       "X": 0.5,
       "Y": 1.0
      },
      "handle_right": {
       "X": 0.5,
       "Y": 0.0
      },
      "handle_type": 0,
      "interpolation": 0
     }
    ]
   },
   "shear_x": {
    "Points": [
     {
      "co": {
       "X": 1.0,
       "Y": 0.0
      },
      "handle_left": {
       "X": 0.5,
       "Y": 1.0
      },
      "handle_right": {
       "X": 0.5,
       "Y": 0.0
      },
      "handle_type": 0,
      "interpolation": 0
     }
    ]
   },
   "shear_y": {
    "Points": [
     {
      "co": {
       "X": 1.0,
       "Y": 0.0
      },
      "handle_left": {
       "X": 0.5,
       "Y": 1.0
      },
      "handle_right": {
       "X": 0.5,
       "Y": 0.0
      },
      "handle_type": 0,
      "interpolation": 0
     }
    ]
   },
   "start": 7.000000000000008,
   "time": {
    "Points": [
     {
      "co": {
       "X": 1.0,
       "Y": 1.0
      },
      "handle_left": {
       "X": 0.5,
       "Y": 1.0
      },
      "handle_right": {
       "X": 0.5,
       "Y": 0.0
      },
      "handle_type": 0,
      "interpolation": 0
     }
    ]
   },
   "volume": {
    "Points": [
     {
      "co": {
       "X": 1.0,
       "Y": 1.0
      },
      "handle_left": {
       "X": 0.5,
       "Y": 1.0
      },
      "handle_right": {
       "X": 0.5,
       "Y": 0.0
      },
      "handle_type": 0,
      "interpolation": 0
     }
    ]
   },
   "wave_color": {
    "alpha": {
     "Points": [
      {
       "co": {
        "X": 1.0,
        "Y": 255.0
       },
       "handle_left": {
        "X": 0.5,
        "Y": 1.0
       },
       "handle_right": {
        "X": 0.5,
        "Y": 0.0
       },
       "handle_type": 0,
       "interpolation": 0
      }
     ]
    },
    "blue": {
     "Points": [
      {
       "co": {
        "X": 1.0,
        "Y": 255.0
       },
       "handle_left": {
        "X": 0.5,
        "Y": 1.0
       },
       "handle_right": {
        "X": 0.5,
        "Y": 0.0
       },
       "handle_type": 0,
       "interpolation": 0
      }
     ]
    },
    "green": {
     "Points": [
      {
       "co": {
        "X": 1.0,
        "Y": 123.0
       },
       "handle_left": {
        "X": 0.5,
        "Y": 1.0
       },
       "handle_right": {
        "X": 0.5,
        "Y": 0.0
       },
       "handle_type": 0,
       "interpolation": 0
      }
     ]
    },
    "red": {
     "Points": [
      {
       "co": {
        "X": 1.0,
        "Y": 0.0
       },
       "handle_left": {
        "X": 0.5,
        "Y": 1.0
       },
       "handle_right": {
        "X": 0.5,
        "Y": 0.0
       },
       "handle_type": 0,
       "interpolation": 0
      }
     ]
    }
   },
   "waveform": false,
   "file_id": "J920Z8D3MS",
   "title": "movie_003_003.mp4",
   "image": "Tutorial_assets/thumbnail/J920Z8D3MS.png"
  },
  {
   "alpha": {
    "Points": [
     {
      "co": {
       "X": 1.0,
       "Y": 1.0
      },
      "handle_left": {
       "X": 0.5,
       "Y": 1.0
      },
      "handle_right": {
       "X": 0.5,
       "Y": 0.0
      },
      "handle_type": 0,
      "interpolation": 0
     }
    ]
   },
   "anchor": 0,
   "channel_filter": {
    "Points": [
     {
      "co": {
       "X": 1.0,
       "Y": -1.0
      },
      "handle_left": {
       "X": 0.5,
       "Y": 1.0
      },
      "handle_right": {
       "X": 0.5,
       "Y": 0.0
      },
      "handle_type": 0,
      "interpolation": 0
     }
    ]
   },
   "channel_mapping": {
    "Points": [
     {
      "co": {
       "X": 1.0,
       "Y": -1.0
      },
      "handle_left": {
       "X": 0.5,
       "Y": 1.0
      },
      "handle_right": {
       "X": 0.5,
       "Y": 0.0
      },
      "handle_type": 0,
      "interpolation": 0
     }
    ]
   },
   "display": 0,
   "duration": 73.5999984741211,
   "effects": [],
   "end": 73.5999984741211,
   "gravity": 4,
   "has_audio": {
    "Points": [
     {
      "co": {
       "X": 1.0,
       "Y": -1.0
      },
      "handle_left": {
       "X": 0.5,
       "Y": 1.0
      },
      "handle_right": {
       "X": 0.5,
       "Y": 0.0
      },
      "handle_type": 0,
      "interpolation": 0
     }
    ]
   },
   "has_video": {
    "Points": [
     {
      "co": {
       "X": 1.0,
       "Y": -1.0
      },
      "handle_left": {
       "X": 0.5,
       "Y": 1.0
      },
      "handle_right": {
       "X": 0.5,
       "Y": 0.0
      },
      "handle_type": 0,
      "interpolation": 0
     }
    ]
   },
   "layer": 1000000,
   "location_x": {
    "Points": [
     {
      "co": {
       "X": 1.0,
       "Y": 0.0
      },
      "handle_left": {
       "X": 0.5,
       "Y": 1.0
      },
      "handle_right": {
       "X": 0.5,
       "Y": 0.0
      },
      "handle_type": 0,
      "interpolation": 0
     }
    ]
   },
   "location_y": {
    "Points": [
     {
      "co": {
       "X": 1.0,
       "Y": 0.0
      },
      "handle_left": {
       "X": 0.5,
       "Y": 1.0
      },
      "handle_right": {
       "X": 0.5,
       "Y": 0.0
      },
      "handle_type": 0,
      "interpolation": 0
     }
    ]
   },
   "mixing": 0,
   "origin_x": {
    "Points": [
     {
      "co": {
       "X": 1.0,
       "Y": 0.5
      },
      "handle_left": {
       "X": 0.5,
       "Y": 1.0
      },
      "handle_right": {
       "X": 0.5,
       "Y": 0.0
      },
      "handle_type": 0,
      "interpolation": 0
     }
    ]
   },
   "origin_y": {
    "Points": [
     {
      "co": {
       "X": 1.0,
       "Y": 0.5
      },
      "handle_left": {
       "X": 0.5,
       "Y": 1.0
      },
      "handle_right": {
       "X": 0.5,
       "Y": 0.0
      },
      "handle_type": 0,
      "interpolation": 0
     }
    ]
   },
   "parentObjectId": "",
   "perspective_c1_x": {
    "Points": [
     {
      "co": {
       "X": 1.0,
       "Y": -1.0
      },
      "handle_left": {
       "X": 0.5,
       "Y": 1.0
      },
      "handle_right": {
       "X": 0.5,
       "Y": 0.0
      },
      "handle_type": 0,
      "interpolation": 0
     }
    ]
   },
   "perspective_c1_y": {
    "Points": [
     {
      "co": {
       "X": 1.0,
       "Y": -1.0
      },
      "handle_left": {
       "X": 0.5,
       "Y": 1.0
      },
      "handle_right": {
       "X": 0.5,
       "Y": 0.0
      },
      "handle_type": 0,
      "interpolation": 0
     }
    ]
   },
   "perspective_c2_x": {
    "Points": [
     {
      "co": {
       "X": 1.0,
       "Y": -1.0
      },
      "handle_left": {
       "X": 0.5,
       "Y": 1.0
      },
      "handle_right": {
       "X": 0.5,
       "Y": 0.0
      },
      "handle_type": 0,
      "interpolation": 0
     }
    ]
   },
   "perspective_c2_y": {
    "Points": [
     {
      "co": {
       "X": 1.0,
       "Y": -1.0
      },
      "handle_left": {
       "X": 0.5,
       "Y": 1.0
      },
      "handle_right": {
       "X": 0.5,
       "Y": 0.0
      },
      "handle_type": 0,
      "interpolation": 0
     }
    ]
   },
   "perspective_c3_x": {
    "Points": [
     {
      "co": {
       "X": 1.0,
       "Y": -1.0
      },
      "handle_left": {
       "X": 0.5,
       "Y": 1.0
      },
      "handle_right": {
       "X": 0.5,
       "Y": 0.0
      },
      "handle_type": 0,
      "interpolation": 0
     }
    ]
   },
   "perspective_c3_y": {
    "Points": [
     {
      "co": {
       "X": 1.0,
       "Y": -1.0
      },
      "handle_left": {
       "X": 0.5,
       "Y": 1.0
      },
      "handle_right": {
       "X": 0.5,
       "Y": 0.0
      },
      "handle_type": 0,
      "interpolation": 0
     }
    ]
   },
   "perspective_c4_x": {
    "Points": [
     {
      "co": {
       "X": 1.0,
       "Y": -1.0
      },
      "handle_left": {
       "X": 0.5,
       "Y": 1.0
      },
      "handle_right": {
       "X": 0.5,
       "Y": 0.0
      },
      "handle_type": 0,
      "interpolation": 0
     }
    ]
   },
   "perspective_c4_y": {
    "Points": [
     {
      "co": {
       "X": 1.0,
       "Y": -1.0
      },
      "handle_left": {
       "X": 0.5,
       "Y": 1.0
      },
      "handle_right": {
       "X": 0.5,
       "Y": 0.0
      },
      "handle_type": 0,
      "interpolation": 0
     }
    ]
   },
   "position": 208.23333333333332,
   "reader": {
    "acodec": "",
    "audio_bit_rate": 0,
    "audio_stream_index": -1,
    "audio_timebase": {
     "den": 1,
     "num": 1
    },
    "channel_layout": 4,
    "channels": 0,
    "display_ratio": {
     "den": 9,
     "num": 16
    },
    "duration": 73.5999984741211,
    "file_size": "57616868",
    "fps": {
     "den": 1,
     "num": 30
    },
    "has_audio": false,
    "has_single_image": false,
    "has_video": true,
    "height": 1080,
    "interlaced_frame": false,
    "metadata": {
     "comment": "Create videos with https://clipchamp.com/en/video-editor - free online video editor, video compressor, video converter.",
     "compatible_brands": "isomiso2avc1mp41",
     "encoder": "https://clipchamp.com",
     "handler_name": "VideoHandler",
     "language": "und",
     "major_brand": "isom",
     "minor_version": "512"
    },
    "path": "./movie_003_002.mp4",
    "pixel_format": 0,
    "pixel_ratio": {
     "den": 1,
     "num": 1
    },
    "sample_rate": 0,
    "top_field_first": true,
    "type": "FFmpegReader",
    "vcodec": "h264",
    "video_bit_rate": 782837,
    "video_length": "2208",
    "video_stream_index": 0,
    "video_timebase": {
     "den": 15360,
     "num": 1
    },
    "width": 1920,
    "media_type": "video",
    "id": "L20DIPWUJ9"
   },
   "rotation": {
    "Points": [
     {
      "co": {
       "X": 1.0,
       "Y": 0.0
      },
      "handle_left": {
       "X": 0.5,
       "Y": 1.0
      },
      "handle_right": {
       "X": 0.5,
       "Y": 0.0
      },
      "handle_type": 0,
      "interpolation": 0
     }
    ]
   },
   "scale": 1,
   "scale_x": {
    "Points": [
     {
      "co": {
       "X": 1.0,
       "Y": 1.0
      },
      "handle_left": {
       "X": 0.5,
       "Y": 1.0
      },
      "handle_right": {
       "X": 0.5,
       "Y": 0.0
      },
      "handle_type": 0,
      "interpolation": 0
     }
    ]
   },
   "scale_y": {
    "Points": [
     {
      "co": {
       "X": 1.0,
       "Y": 1.0
      },
      "handle_left": {
       "X": 0.5,
       "Y": 1.0
      },
      "handle_right": {
       "X": 0.5,
       "Y": 0.0
      },
      "handle_type": 0,
      "interpolation": 0
     }
    ]
   },
   "shear_x": {
    "Points": [
     {
      "co": {
       "X": 1.0,
       "Y": 0.0
      },
      "handle_left": {
       "X": 0.5,
       "Y": 1.0
      },
      "handle_right": {
       "X": 0.5,
       "Y": 0.0
      },
      "handle_type": 0,
      "interpolation": 0
     }
    ]
   },
   "shear_y": {
    "Points": [
     {
      "co": {
       "X": 1.0,
       "Y": 0.0
      },
      "handle_left": {
       "X": 0.5,
       "Y": 1.0
      },
      "handle_right": {
       "X": 0.5,
       "Y": 0.0
      },
      "handle_type": 0,
      "interpolation": 0
     }
    ]
   },
   "start": 72.00001017252609,
   "time": {
    "Points": [
     {
      "co": {
       "X": 1.0,
       "Y": 1.0
      },
      "handle_left": {
       "X": 0.5,
       "Y": 1.0
      },
      "handle_right": {
       "X": 0.5,
       "Y": 0.0
      },
      "handle_type": 0,
      "interpolation": 0
     }
    ]
   },
   "volume": {
    "Points": [
     {
      "co": {
       "X": 1.0,
       "Y": 1.0
      },
      "handle_left": {
       "X": 0.5,
       "Y": 1.0
      },
      "handle_right": {
       "X": 0.5,
       "Y": 0.0
      },
      "handle_type": 0,
      "interpolation": 0
     }
    ]
   },
   "wave_color": {
    "alpha": {
     "Points": [
      {
       "co": {
        "X": 1.0,
        "Y": 255.0
       },
       "handle_left": {
        "X": 0.5,
        "Y": 1.0
       },
       "handle_right": {
        "X": 0.5,
        "Y": 0.0
       },
       "handle_type": 0,
       "interpolation": 0
      }
     ]
    },
    "blue": {
     "Points": [
      {
       "co": {
        "X": 1.0,
        "Y": 255.0
       },
       "handle_left": {
        "X": 0.5,
        "Y": 1.0
       },
       "handle_right": {
        "X": 0.5,
        "Y": 0.0
       },
       "handle_type": 0,
       "interpolation": 0
      }
     ]
    },
    "green": {
     "Points": [
      {
       "co": {
        "X": 1.0,
        "Y": 123.0
       },
       "handle_left": {
        "X": 0.5,
        "Y": 1.0
       },
       "handle_right": {
        "X": 0.5,
        "Y": 0.0
       },
       "handle_type": 0,
       "interpolation": 0
      }
     ]
    },
    "red": {
     "Points": [
      {
       "co": {
        "X": 1.0,
        "Y": 0.0
       },
       "handle_left": {
        "X": 0.5,
        "Y": 1.0
       },
       "handle_right": {
        "X": 0.5,
        "Y": 0.0
       },
       "handle_type": 0,
       "interpolation": 0
      }
     ]
    }
   },
   "waveform": false,
   "file_id": "L20DIPWUJ9",
   "title": "movie_003_002.mp4",
   "image": "Tutorial_assets/thumbnail/L20DIPWUJ9.png",
   "id": "QG0GDCP8QK"
  },
  {
   "alpha": {
    "Points": [
     {
      "co": {
       "X": 1.0,
       "Y": 1.0
      },
      "handle_left": {
       "X": 0.5,
       "Y": 1.0
      },
      "handle_right": {
       "X": 0.5,
       "Y": 0.0
      },
      "handle_type": 0,
      "interpolation": 0
     }
    ]
   },
   "anchor": 0,
   "channel_filter": {
    "Points": [
     {
      "co": {
       "X": 1.0,
       "Y": -1.0
      },
      "handle_left": {
       "X": 0.5,
       "Y": 1.0
      },
      "handle_right": {
       "X": 0.5,
       "Y": 0.0
      },
      "handle_type": 0,
      "interpolation": 0
     }
    ]
   },
   "channel_mapping": {
    "Points": [
     {
      "co": {
       "X": 1.0,
       "Y": -1.0
      },
      "handle_left": {
       "X": 0.5,
       "Y": 1.0
      },
      "handle_right": {
       "X": 0.5,
       "Y": 0.0
      },
      "handle_type": 0,
      "interpolation": 0
     }
    ]
   },
   "display": 0,
   "duration": 73.5999984741211,
   "effects": [],
   "end": 72.00001017252609,
   "gravity": 4,
   "has_audio": {
    "Points": [
     {
      "co": {
       "X": 1.0,
       "Y": -1.0
      },
      "handle_left": {
       "X": 0.5,
       "Y": 1.0
      },
      "handle_right": {
       "X": 0.5,
       "Y": 0.0
      },
      "handle_type": 0,
      "interpolation": 0
     }
    ]
   },
   "has_video": {
    "Points": [
     {
      "co": {
       "X": 1.0,
       "Y": -1.0
      },
      "handle_left": {
       "X": 0.5,
       "Y": 1.0
      },
      "handle_right": {
       "X": 0.5,
       "Y": 0.0
      },
      "handle_type": 0,
      "interpolation": 0
     }
    ]
   },
   "layer": 1000000,
   "location_x": {
    "Points": [
     {
      "co": {
       "X": 1.0,
       "Y": 0.0
      },
      "handle_left": {
       "X": 0.5,
       "Y": 1.0
      },
      "handle_right": {
       "X": 0.5,
       "Y": 0.0
      },
      "handle_type": 0,
      "interpolation": 0
     }
    ]
   },
   "location_y": {
    "Points": [
     {
      "co": {
       "X": 1.0,
       "Y": 0.0
      },
      "handle_left": {
       "X": 0.5,
       "Y": 1.0
      },
      "handle_right": {
       "X": 0.5,
       "Y": 0.0
      },
      "handle_type": 0,
      "interpolation": 0
     }
    ]
   },
   "mixing": 0,
   "origin_x": {
    "Points": [
     {
      "co": {
       "X": 1.0,
       "Y": 0.5
      },
      "handle_left": {
       "X": 0.5,
       "Y": 1.0
      },
      "handle_right": {
       "X": 0.5,
       "Y": 0.0
      },
      "handle_type": 0,
      "interpolation": 0
     }
    ]
   },
   "origin_y": {
    "Points": [
     {
      "co": {
       "X": 1.0,
       "Y": 0.5
      },
      "handle_left": {
       "X": 0.5,
       "Y": 1.0
      },
      "handle_right": {
       "X": 0.5,
       "Y": 0.0
      },
      "handle_type": 0,
      "interpolation": 0
     }
    ]
   },
   "parentObjectId": "",
   "perspective_c1_x": {
    "Points": [
     {
      "co": {
       "X": 1.0,
       "Y": -1.0
      },
      "handle_left": {
       "X": 0.5,
       "Y": 1.0
      },
      "handle_right": {
       "X": 0.5,
       "Y": 0.0
      },
      "handle_type": 0,
      "interpolation": 0
     }
    ]
   },
   "perspective_c1_y": {
    "Points": [
     {
      "co": {
       "X": 1.0,
       "Y": -1.0
      },
      "handle_left": {
       "X": 0.5,
       "Y": 1.0
      },
      "handle_right": {
       "X": 0.5,
       "Y": 0.0
      },
      "handle_type": 0,
      "interpolation": 0
     }
    ]
   },
   "perspective_c2_x": {
    "Points": [
     {
      "co": {
       "X": 1.0,
       "Y": -1.0
      },
      "handle_left": {
       "X": 0.5,
       "Y": 1.0
      },
      "handle_right": {
       "X": 0.5,
       "Y": 0.0
      },
      "handle_type": 0,
      "interpolation": 0
     }
    ]
   },
   "perspective_c2_y": {
    "Points": [
     {
      "co": {
       "X": 1.0,
       "Y": -1.0
      },
      "handle_left": {
       "X": 0.5,
       "Y": 1.0
      },
      "handle_right": {
       "X": 0.5,
       "Y": 0.0
      },
      "handle_type": 0,
      "interpolation": 0
     }
    ]
   },
   "perspective_c3_x": {
    "Points": [
     {
      "co": {
       "X": 1.0,
       "Y": -1.0
      },
      "handle_left": {
       "X": 0.5,
       "Y": 1.0
      },
      "handle_right": {
       "X": 0.5,
       "Y": 0.0
      },
      "handle_type": 0,
      "interpolation": 0
     }
    ]
   },
   "perspective_c3_y": {
    "Points": [
     {
      "co": {
       "X": 1.0,
       "Y": -1.0
      },
      "handle_left": {
       "X": 0.5,
       "Y": 1.0
      },
      "handle_right": {
       "X": 0.5,
       "Y": 0.0
      },
      "handle_type": 0,
      "interpolation": 0
     }
    ]
   },
   "perspective_c4_x": {
    "Points": [
     {
      "co": {
       "X": 1.0,
       "Y": -1.0
      },
      "handle_left": {
       "X": 0.5,
       "Y": 1.0
      },
      "handle_right": {
       "X": 0.5,
       "Y": 0.0
      },
      "handle_type": 0,
      "interpolation": 0
     }
    ]
   },
   "perspective_c4_y": {
    "Points": [
     {
      "co": {
       "X": 1.0,
       "Y": -1.0
      },
      "handle_left": {
       "X": 0.5,
       "Y": 1.0
      },
      "handle_right": {
       "X": 0.5,
       "Y": 0.0
      },
      "handle_type": 0,
      "interpolation": 0
     }
    ]
   },
   "position": 208.2,
   "reader": {
    "acodec": "",
    "audio_bit_rate": 0,
    "audio_stream_index": -1,
    "audio_timebase": {
     "den": 1,
     "num": 1
    },
    "channel_layout": 4,
    "channels": 0,
    "display_ratio": {
     "den": 9,
     "num": 16
    },
    "duration": 73.5999984741211,
    "file_size": "57616868",
    "fps": {
     "den": 1,
     "num": 30
    },
    "has_audio": false,
    "has_single_image": false,
    "has_video": true,
    "height": 1080,
    "interlaced_frame": false,
    "metadata": {
     "comment": "Create videos with https://clipchamp.com/en/video-editor - free online video editor, video compressor, video converter.",
     "compatible_brands": "isomiso2avc1mp41",
     "encoder": "https://clipchamp.com",
     "handler_name": "VideoHandler",
     "language": "und",
     "major_brand": "isom",
     "minor_version": "512"
    },
    "path": "./movie_003_002.mp4",
    "pixel_format": 0,
    "pixel_ratio": {
     "den": 1,
     "num": 1
    },
    "sample_rate": 0,
    "top_field_first": true,
    "type": "FFmpegReader",
    "vcodec": "h264",
    "video_bit_rate": 782837,
    "video_length": "2208",
    "video_stream_index": 0,
    "video_timebase": {
     "den": 15360,
     "num": 1
    },
    "width": 1920,
    "media_type": "video",
    "id": "L20DIPWUJ9"
   },
   "rotation": {
    "Points": [
     {
      "co": {
       "X": 1.0,
       "Y": 0.0
      },
      "handle_left": {
       "X": 0.5,
       "Y": 1.0
      },
      "handle_right": {
       "X": 0.5,
       "Y": 0.0
      },
      "handle_type": 0,
      "interpolation": 0
     }
    ]
   },
   "scale": 1,
   "scale_x": {
    "Points": [
     {
      "co": {
       "X": 1.0,
       "Y": 1.0
      },
      "handle_left": {
       "X": 0.5,
       "Y": 1.0
      },
      "handle_right": {
       "X": 0.5,
       "Y": 0.0
      },
      "handle_type": 0,
      "interpolation": 0
     }
    ]
   },
   "scale_y": {
    "Points": [
     {
      "co": {
       "X": 1.0,
       "Y": 1.0
      },
      "handle_left": {
       "X": 0.5,
       "Y": 1.0
      },
      "handle_right": {
       "X": 0.5,
       "Y": 0.0
      },
      "handle_type": 0,
      "interpolation": 0
     }
    ]
   },
   "shear_x": {
    "Points": [
     {
      "co": {
       "X": 1.0,
       "Y": 0.0
      },
      "handle_left": {
       "X": 0.5,
       "Y": 1.0
      },
      "handle_right": {
       "X": 0.5,
       "Y": 0.0
      },
      "handle_type": 0,
      "interpolation": 0
     }
    ]
   },
   "shear_y": {
    "Points": [
     {
      "co": {
       "X": 1.0,
       "Y": 0.0
      },
      "handle_left": {
       "X": 0.5,
       "Y": 1.0
      },
      "handle_right": {
       "X": 0.5,
       "Y": 0.0
      },
      "handle_type": 0,
      "interpolation": 0
     }
    ]
   },
   "start": 71.96667683919273,
   "time": {
    "Points": [
     {
      "co": {
       "X": 1.0,
       "Y": 1.0
      },
      "handle_left": {
       "X": 0.5,
       "Y": 1.0
      },
      "handle_right": {
       "X": 0.5,
       "Y": 0.0
      },
      "handle_type": 0,
      "interpolation": 0
     }
    ]
   },
   "volume": {
    "Points": [
     {
      "co": {
       "X": 1.0,
       "Y": 1.0
      },
      "handle_left": {
       "X": 0.5,
       "Y": 1.0
      },
      "handle_right": {
       "X": 0.5,
       "Y": 0.0
      },
      "handle_type": 0,
      "interpolation": 0
     }
    ]
   },
   "wave_color": {
    "alpha": {
     "Points": [
      {
       "co": {
        "X": 1.0,
        "Y": 255.0
       },
       "handle_left": {
        "X": 0.5,
        "Y": 1.0
       },
       "handle_right": {
        "X": 0.5,
        "Y": 0.0
       },
       "handle_type": 0,
       "interpolation": 0
      }
     ]
    },
    "blue": {
     "Points": [
      {
       "co": {
        "X": 1.0,
        "Y": 255.0
       },
       "handle_left": {
        "X": 0.5,
        "Y": 1.0
       },
       "handle_right": {
        "X": 0.5,
        "Y": 0.0
       },
       "handle_type": 0,
       "interpolation": 0
      }
     ]
    },
    "green": {
     "Points": [
      {
       "co": {
        "X": 1.0,
        "Y": 123.0
       },
       "handle_left": {
        "X": 0.5,
        "Y": 1.0
       },
       "handle_right": {
        "X": 0.5,
        "Y": 0.0
       },
       "handle_type": 0,
       "interpolation": 0
      }
     ]
    },
    "red": {
     "Points": [
      {
       "co": {
        "X": 1.0,
        "Y": 0.0
       },
       "handle_left": {
        "X": 0.5,
        "Y": 1.0
       },
       "handle_right": {
        "X": 0.5,
        "Y": 0.0
       },
       "handle_type": 0,
       "interpolation": 0
      }
     ]
    }
   },
   "waveform": false,
   "file_id": "L20DIPWUJ9",
   "title": "movie_003_002.mp4",
   "image": "Tutorial_assets/thumbnail/L20DIPWUJ9.png",
   "id": "IJX0XZWZ4X"
  },
  {
   "alpha": {
    "Points": [
     {
      "co": {
       "X": 1.0,
       "Y": 1.0
      },
      "handle_left": {
       "X": 0.5,
       "Y": 1.0
      },
      "handle_right": {
       "X": 0.5,
       "Y": 0.0
      },
      "handle_type": 0,
      "interpolation": 0
     }
    ]
   },
   "anchor": 0,
   "channel_filter": {
    "Points": [
     {
      "co": {
       "X": 1.0,
       "Y": -1.0
      },
      "handle_left": {
       "X": 0.5,
       "Y": 1.0
      },
      "handle_right": {
       "X": 0.5,
       "Y": 0.0
      },
      "handle_type": 0,
      "interpolation": 0
     }
    ]
   },
   "channel_mapping": {
    "Points": [
     {
      "co": {
       "X": 1.0,
       "Y": -1.0
      },
      "handle_left": {
       "X": 0.5,
       "Y": 1.0
      },
      "handle_right": {
       "X": 0.5,
       "Y": 0.0
      },
      "handle_type": 0,
      "interpolation": 0
     }
    ]
   },
   "display": 0,
   "duration": 3600.0,
   "effects": [],
   "end": 7.8854283650719,
   "gravity": 4,
   "has_audio": {
    "Points": [
     {
      "co": {
       "X": 1.0,
       "Y": -1.0
      },
      "handle_left": {
       "X": 0.5,
       "Y": 1.0
      },
      "handle_right": {
       "X": 0.5,
       "Y": 0.0
      },
      "handle_type": 0,
      "interpolation": 0
     }
    ]
   },
   "has_video": {
    "Points": [
     {
      "co": {
       "X": 1.0,
       "Y": -1.0
      },
      "handle_left": {
       "X": 0.5,
       "Y": 1.0
      },
      "handle_right": {
       "X": 0.5,
       "Y": 0.0
      },
      "handle_type": 0,
      "interpolation": 0
     }
    ]
   },
   "id": "AEUYPJT8UU",
   "layer": 3000000,
   "location_x": {
    "Points": [
     {
      "co": {
       "X": 1,
       "Y": -0.3160136554269612
      },
      "handle_left": {
       "X": 0.5,
       "Y": 1.0
      },
      "handle_right": {
       "X": 0.5,
       "Y": 0.0
      },
      "handle_type": 0,
      "interpolation": 0
     }
    ]
   },
   "location_y": {
    "Points": [
     {
      "co": {
       "X": 1,
       "Y": -0.0878787845824704
      },
      "handle_left": {
       "X": 0.5,
       "Y": 1.0
      },
      "handle_right": {
       "X": 0.5,
       "Y": 0.0
      },
      "handle_type": 0,
      "interpolation": 0
     }
    ]
   },
   "mixing": 0,
   "origin_x": {
    "Points": [
     {
      "co": {
       "X": 1.0,
       "Y": 0.5
      },
      "handle_left": {
       "X": 0.5,
       "Y": 1.0
      },
      "handle_right": {
       "X": 0.5,
       "Y": 0.0
      },
      "handle_type": 0,
      "interpolation": 0
     }
    ]
   },
   "origin_y": {
    "Points": [
     {
      "co": {
       "X": 1.0,
       "Y": 0.5
      },
      "handle_left": {
       "X": 0.5,
       "Y": 1.0
      },
      "handle_right": {
       "X": 0.5,
       "Y": 0.0
      },
      "handle_type": 0,
      "interpolation": 0
     }
    ]
   },
   "parentObjectId": "",
   "perspective_c1_x": {
    "Points": [
     {
      "co": {
       "X": 1.0,
       "Y": -1.0
      },
      "handle_left": {
       "X": 0.5,
       "Y": 1.0
      },
      "handle_right": {
       "X": 0.5,
       "Y": 0.0
      },
      "handle_type": 0,
      "interpolation": 0
     }
    ]
   },
   "perspective_c1_y": {
    "Points": [
     {
      "co": {
       "X": 1.0,
       "Y": -1.0
      },
      "handle_left": {
       "X": 0.5,
       "Y": 1.0
      },
      "handle_right": {
       "X": 0.5,
       "Y": 0.0
      },
      "handle_type": 0,
      "interpolation": 0
     }
    ]
   },
   "perspective_c2_x": {
    "Points": [
     {
      "co": {
       "X": 1.0,
       "Y": -1.0
      },
      "handle_left": {
       "X": 0.5,
       "Y": 1.0
      },
      "handle_right": {
       "X": 0.5,
       "Y": 0.0
      },
      "handle_type": 0,
      "interpolation": 0
     }
    ]
   },
   "perspective_c2_y": {
    "Points": [
     {
      "co": {
       "X": 1.0,
       "Y": -1.0
      },
      "handle_left": {
       "X": 0.5,
       "Y": 1.0
      },
      "handle_right": {
       "X": 0.5,
       "Y": 0.0
      },
      "handle_type": 0,
      "interpolation": 0
     }
    ]
   },
   "perspective_c3_x": {
    "Points": [
     {
      "co": {
       "X": 1.0,
       "Y": -1.0
      },
      "handle_left": {
       "X": 0.5,
       "Y": 1.0
      },
      "handle_right": {
       "X": 0.5,
       "Y": 0.0
      },
      "handle_type": 0,
      "interpolation": 0
     }
    ]
   },
   "perspective_c3_y": {
    "Points": [
     {
      "co": {
       "X": 1.0,
       "Y": -1.0
      },
      "handle_left": {
       "X": 0.5,
       "Y": 1.0
      },
      "handle_right": {
       "X": 0.5,
       "Y": 0.0
      },
      "handle_type": 0,
      "interpolation": 0
     }
    ]
   },
   "perspective_c4_x": {
    "Points": [
     {
      "co": {
       "X": 1.0,
       "Y": -1.0
      },
      "handle_left": {
       "X": 0.5,
       "Y": 1.0
      },
      "handle_right": {
       "X": 0.5,
       "Y": 0.0
      },
      "handle_type": 0,
      "interpolation": 0
     }
    ]
   },
   "perspective_c4_y": {
    "Points": [
     {
      "co": {
       "X": 1.0,
       "Y": -1.0
      },
      "handle_left": {
       "X": 0.5,
       "Y": 1.0
      },
      "handle_right": {
       "X": 0.5,
       "Y": 0.0
      },
      "handle_type": 0,
      "interpolation": 0
     }
    ]
   },
   "position": 199.83332163492832,
   "reader": {
    "acodec": "",
    "audio_bit_rate": 0,
    "audio_stream_index": -1,
    "audio_timebase": {
     "den": 1,
     "num": 1
    },
    "channel_layout": 4,
    "channels": 0,
    "display_ratio": {
     "den": 293,
     "num": 869
    },
    "duration": 3600.0,
    "file_size": "4073872",
    "fps": {
     "den": 1,
     "num": 30
    },
    "has_audio": false,
    "has_single_image": true,
    "has_video": true,
    "height": 586,
    "interlaced_frame": false,
    "metadata": {},
    "path": "./drawing31.png",
    "pixel_format": -1,
    "pixel_ratio": {
     "den": 1,
     "num": 1
    },
    "sample_rate": 0,
    "top_field_first": true,
    "type": "QtImageReader",
    "vcodec": "",
    "video_bit_rate": 0,
    "video_length": "108000",
    "video_stream_index": -1,
    "video_timebase": {
     "den": 30,
     "num": 1
    },
    "width": 1738,
    "media_type": "image",
    "id": "QBUIFMDBP2"
   },
   "rotation": {
    "Points": [
     {
      "co": {
       "X": 1.0,
       "Y": 0.0
      },
      "handle_left": {
       "X": 0.5,
       "Y": 1.0
      },
      "handle_right": {
       "X": 0.5,
       "Y": 0.0
      },
      "handle_type": 0,
      "interpolation": 0
     }
    ]
   },
   "scale": 1,
   "scale_x": {
    "Points": [
     {
      "co": {
       "X": 1,
       "Y": 0.31175461411476135
      },
      "handle_left": {
       "X": 0.5,
       "Y": 1.0
      },
      "handle_right": {
       "X": 0.5,
       "Y": 0.0
      },
      "handle_type": 0,
      "interpolation": 0
     }
    ]
   },
   "scale_y": {
    "Points": [
     {
      "co": {
       "X": 1,
       "Y": 0.31175461411476135
      },
      "handle_left": {
       "X": 0.5,
       "Y": 1.0
      },
      "handle_right": {
       "X": 0.5,
       "Y": 0.0
      },
      "handle_type": 0,
      "interpolation": 0
     }
    ]
   },
   "shear_x": {
    "Points": [
     {
      "co": {
       "X": 1.0,
       "Y": 0.0
      },
      "handle_left": {
       "X": 0.5,
       "Y": 1.0
      },
      "handle_right": {
       "X": 0.5,
       "Y": 0.0
      },
      "handle_type": 0,
      "interpolation": 0
     }
    ]
   },
   "shear_y": {
    "Points": [
     {
      "co": {
       "X": 1.0,
       "Y": 0.0
      },
      "handle_left": {
       "X": 0.5,
       "Y": 1.0
      },
      "handle_right": {
       "X": 0.5,
       "Y": 0.0
      },
      "handle_type": 0,
      "interpolation": 0
     }
    ]
   },
   "start": 0,
   "time": {
    "Points": [
     {
      "co": {
       "X": 1.0,
       "Y": 1.0
      },
      "handle_left": {
       "X": 0.5,
       "Y": 1.0
      },
      "handle_right": {
       "X": 0.5,
       "Y": 0.0
      },
      "handle_type": 0,
      "interpolation": 0
     }
    ]
   },
   "volume": {
    "Points": [
     {
      "co": {
       "X": 1.0,
       "Y": 1.0
      },
      "handle_left": {
       "X": 0.5,
       "Y": 1.0
      },
      "handle_right": {
       "X": 0.5,
       "Y": 0.0
      },
      "handle_type": 0,
      "interpolation": 0
     }
    ]
   },
   "wave_color": {
    "alpha": {
     "Points": [
      {
       "co": {
        "X": 1.0,
        "Y": 255.0
       },
       "handle_left": {
        "X": 0.5,
        "Y": 1.0
       },
       "handle_right": {
        "X": 0.5,
        "Y": 0.0
       },
       "handle_type": 0,
       "interpolation": 0
      }
     ]
    },
    "blue": {
     "Points": [
      {
       "co": {
        "X": 1.0,
        "Y": 255.0
       },
       "handle_left": {
        "X": 0.5,
        "Y": 1.0
       },
       "handle_right": {
        "X": 0.5,
        "Y": 0.0
       },
       "handle_type": 0,
       "interpolation": 0
      }
     ]
    },
    "green": {
     "Points": [
      {
       "co": {
        "X": 1.0,
        "Y": 123.0
       },
       "handle_left": {
        "X": 0.5,
        "Y": 1.0
       },
       "handle_right": {
        "X": 0.5,
        "Y": 0.0
       },
       "handle_type": 0,
       "interpolation": 0
      }
     ]
    },
    "red": {
     "Points": [
      {
       "co": {
        "X": 1.0,
        "Y": 0.0
       },
       "handle_left": {
        "X": 0.5,
        "Y": 1.0
       },
       "handle_right": {
        "X": 0.5,
        "Y": 0.0
       },
       "handle_type": 0,
       "interpolation": 0
      }
     ]
    }
   },
   "waveform": false,
   "file_id": "QBUIFMDBP2",
   "title": "drawing31.png",
   "image": "Tutorial_assets/thumbnail/QBUIFMDBP2.png"
  },
  {
   "alpha": {
    "Points": [
     {
      "co": {
       "X": 1.0,
       "Y": 1.0
      },
      "handle_left": {
       "X": 0.5,
       "Y": 1.0
      },
      "handle_right": {
       "X": 0.5,
       "Y": 0.0
      },
      "handle_type": 0,
      "interpolation": 0
     }
    ]
   },
   "anchor": 0,
   "channel_filter": {
    "Points": [
     {
      "co": {
       "X": 1.0,
       "Y": -1.0
      },
      "handle_left": {
       "X": 0.5,
       "Y": 1.0
      },
      "handle_right": {
       "X": 0.5,
       "Y": 0.0
      },
      "handle_type": 0,
      "interpolation": 0
     }
    ]
   },
   "channel_mapping": {
    "Points": [
     {
      "co": {
       "X": 1.0,
       "Y": -1.0
      },
      "handle_left": {
       "X": 0.5,
       "Y": 1.0
      },
      "handle_right": {
       "X": 0.5,
       "Y": 0.0
      },
      "handle_type": 0,
      "interpolation": 0
     }
    ]
   },
   "display": 0,
   "duration": 3600.0,
   "effects": [],
   "end": 8.000000000000027,
   "gravity": 4,
   "has_audio": {
    "Points": [
     {
      "co": {
       "X": 1.0,
       "Y": -1.0
      },
      "handle_left": {
       "X": 0.5,
       "Y": 1.0
      },
      "handle_right": {
       "X": 0.5,
       "Y": 0.0
      },
      "handle_type": 0,
      "interpolation": 0
     }
    ]
   },
   "has_video": {
    "Points": [
     {
      "co": {
       "X": 1.0,
       "Y": -1.0
      },
      "handle_left": {
       "X": 0.5,
       "Y": 1.0
      },
      "handle_right": {
       "X": 0.5,
       "Y": 0.0
      },
      "handle_type": 0,
      "interpolation": 0
     }
    ]
   },
   "id": "1RNKN1OIVY",
   "layer": 1000000,
   "location_x": {
    "Points": [
     {
      "co": {
       "X": 1.0,
       "Y": 0.0
      },
      "handle_left": {
       "X": 0.5,
       "Y": 1.0
      },
      "handle_right": {
       "X": 0.5,
       "Y": 0.0
      },
      "handle_type": 0,
      "interpolation": 0
     }
    ]
   },
   "location_y": {
    "Points": [
     {
      "co": {
       "X": 1.0,
       "Y": 0.0
      },
      "handle_left": {
       "X": 0.5,
       "Y": 1.0
      },
      "handle_right": {
       "X": 0.5,
       "Y": 0.0
      },
      "handle_type": 0,
      "interpolation": 0
     }
    ]
   },
   "mixing": 0,
   "origin_x": {
    "Points": [
     {
      "co": {
       "X": 1.0,
       "Y": 0.5
      },
      "handle_left": {
       "X": 0.5,
       "Y": 1.0
      },
      "handle_right": {
       "X": 0.5,
       "Y": 0.0
      },
      "handle_type": 0,
      "interpolation": 0
     }
    ]
   },
   "origin_y": {
    "Points": [
     {
      "co": {
       "X": 1.0,
       "Y": 0.5
      },
      "handle_left": {
       "X": 0.5,
       "Y": 1.0
      },
      "handle_right": {
       "X": 0.5,
       "Y": 0.0
      },
      "handle_type": 0,
      "interpolation": 0
     }
    ]
   },
   "parentObjectId": "",
   "perspective_c1_x": {
    "Points": [
     {
      "co": {
       "X": 1.0,
       "Y": -1.0
      },
      "handle_left": {
       "X": 0.5,
       "Y": 1.0
      },
      "handle_right": {
       "X": 0.5,
       "Y": 0.0
      },
      "handle_type": 0,
      "interpolation": 0
     }
    ]
   },
   "perspective_c1_y": {
    "Points": [
     {
      "co": {
       "X": 1.0,
       "Y": -1.0
      },
      "handle_left": {
       "X": 0.5,
       "Y": 1.0
      },
      "handle_right": {
       "X": 0.5,
       "Y": 0.0
      },
      "handle_type": 0,
      "interpolation": 0
     }
    ]
   },
   "perspective_c2_x": {
    "Points": [
     {
      "co": {
       "X": 1.0,
       "Y": -1.0
      },
      "handle_left": {
       "X": 0.5,
       "Y": 1.0
      },
      "handle_right": {
       "X": 0.5,
       "Y": 0.0
      },
      "handle_type": 0,
      "interpolation": 0
     }
    ]
   },
   "perspective_c2_y": {
    "Points": [
     {
      "co": {
       "X": 1.0,
       "Y": -1.0
      },
      "handle_left": {
       "X": 0.5,
       "Y": 1.0
      },
      "handle_right": {
       "X": 0.5,
       "Y": 0.0
      },
      "handle_type": 0,
      "interpolation": 0
     }
    ]
   },
   "perspective_c3_x": {
    "Points": [
     {
      "co": {
       "X": 1.0,
       "Y": -1.0
      },
      "handle_left": {
       "X": 0.5,
       "Y": 1.0
      },
      "handle_right": {
       "X": 0.5,
       "Y": 0.0
      },
      "handle_type": 0,
      "interpolation": 0
     }
    ]
   },
   "perspective_c3_y": {
    "Points": [
     {
      "co": {
       "X": 1.0,
       "Y": -1.0
      },
      "handle_left": {
       "X": 0.5,
       "Y": 1.0
      },
      "handle_right": {
       "X": 0.5,
       "Y": 0.0
      },
      "handle_type": 0,
      "interpolation": 0
     }
    ]
   },
   "perspective_c4_x": {
    "Points": [
     {
      "co": {
       "X": 1.0,
       "Y": -1.0
      },
      "handle_left": {
       "X": 0.5,
       "Y": 1.0
      },
      "handle_right": {
       "X": 0.5,
       "Y": 0.0
      },
      "handle_type": 0,
      "interpolation": 0
     }
    ]
   },
   "perspective_c4_y": {
    "Points": [
     {
      "co": {
       "X": 1.0,
       "Y": -1.0
      },
      "handle_left": {
       "X": 0.5,
       "Y": 1.0
      },
      "handle_right": {
       "X": 0.5,
       "Y": 0.0
      },
      "handle_type": 0,
      "interpolation": 0
     }
    ]
   },
   "position": 200.23333333333332,
   "reader": {
    "acodec": "",
    "audio_bit_rate": 0,
    "audio_stream_index": -1,
    "audio_timebase": {
     "den": 1,
     "num": 1
    },
    "channel_layout": 4,
    "channels": 0,
    "display_ratio": {
     "den": 9,
     "num": 16
    },
    "duration": 3600.0,
    "file_size": "8294400",
    "fps": {
     "den": 1,
     "num": 30
    },
    "has_audio": false,
    "has_single_image": true,
    "has_video": true,
    "height": 1080,
    "interlaced_frame": false,
    "metadata": {},
    "path": "./Frame-06007.png",
    "pixel_format": -1,
    "pixel_ratio": {
     "den": 1,
     "num": 1
    },
    "sample_rate": 0,
    "top_field_first": true,
    "type": "QtImageReader",
    "vcodec": "",
    "video_bit_rate": 0,
    "video_length": "108000",
    "video_stream_index": -1,
    "video_timebase": {
     "den": 30,
     "num": 1
    },
    "width": 1920,
    "media_type": "image",
    "id": "E7VJAVKOU3"
   },
   "rotation": {
    "Points": [
     {
      "co": {
       "X": 1.0,
       "Y": 0.0
      },
      "handle_left": {
       "X": 0.5,
       "Y": 1.0
      },
      "handle_right": {
       "X": 0.5,
       "Y": 0.0
      },
      "handle_type": 0,
      "interpolation": 0
     }
    ]
   },
   "scale": 1,
   "scale_x": {
    "Points": [
     {
      "co": {
       "X": 1.0,
       "Y": 1.0
      },
      "handle_left": {
       "X": 0.5,
       "Y": 1.0
      },
      "handle_right": {
       "X": 0.5,
       "Y": 0.0
      },
      "handle_type": 0,
      "interpolation": 0
     }
    ]
   },
   "scale_y": {
    "Points": [
     {
      "co": {
       "X": 1.0,
       "Y": 1.0
      },
      "handle_left": {
       "X": 0.5,
       "Y": 1.0
      },
      "handle_right": {
       "X": 0.5,
       "Y": 0.0
      },
      "handle_type": 0,
      "interpolation": 0
     }
    ]
   },
   "shear_x": {
    "Points": [
     {
      "co": {
       "X": 1.0,
       "Y": 0.0
      },
      "handle_left": {
       "X": 0.5,
       "Y": 1.0
      },
      "handle_right": {
       "X": 0.5,
       "Y": 0.0
      },
      "handle_type": 0,
      "interpolation": 0
     }
    ]
   },
   "shear_y": {
    "Points": [
     {
      "co": {
       "X": 1.0,
       "Y": 0.0
      },
      "handle_left": {
       "X": 0.5,
       "Y": 1.0
      },
      "handle_right": {
       "X": 0.5,
       "Y": 0.0
      },
      "handle_type": 0,
      "interpolation": 0
     }
    ]
   },
   "start": 0,
   "time": {
    "Points": [
     {
      "co": {
       "X": 1.0,
       "Y": 1.0
      },
      "handle_left": {
       "X": 0.5,
       "Y": 1.0
      },
      "handle_right": {
       "X": 0.5,
       "Y": 0.0
      },
      "handle_type": 0,
      "interpolation": 0
     }
    ]
   },
   "volume": {
    "Points": [
     {
      "co": {
       "X": 1.0,
       "Y": 1.0
      },
      "handle_left": {
       "X": 0.5,
       "Y": 1.0
      },
      "handle_right": {
       "X": 0.5,
       "Y": 0.0
      },
      "handle_type": 0,
      "interpolation": 0
     }
    ]
   },
   "wave_color": {
    "alpha": {
     "Points": [
      {
       "co": {
        "X": 1.0,
        "Y": 255.0
       },
       "handle_left": {
        "X": 0.5,
        "Y": 1.0
       },
       "handle_right": {
        "X": 0.5,
        "Y": 0.0
       },
       "handle_type": 0,
       "interpolation": 0
      }
     ]
    },
    "blue": {
     "Points": [
      {
       "co": {
        "X": 1.0,
        "Y": 255.0
       },
       "handle_left": {
        "X": 0.5,
        "Y": 1.0
       },
       "handle_right": {
        "X": 0.5,
        "Y": 0.0
       },
       "handle_type": 0,
       "interpolation": 0
      }
     ]
    },
    "green": {
     "Points": [
      {
       "co": {
        "X": 1.0,
        "Y": 123.0
       },
       "handle_left": {
        "X": 0.5,
        "Y": 1.0
       },
       "handle_right": {
        "X": 0.5,
        "Y": 0.0
       },
       "handle_type": 0,
       "interpolation": 0
      }
     ]
    },
    "red": {
     "Points": [
      {
       "co": {
        "X": 1.0,
        "Y": 0.0
       },
       "handle_left": {
        "X": 0.5,
        "Y": 1.0
       },
       "handle_right": {
        "X": 0.5,
        "Y": 0.0
       },
       "handle_type": 0,
       "interpolation": 0
      }
     ]
    }
   },
   "waveform": false,
   "file_id": "E7VJAVKOU3",
   "title": "Frame-06007.png",
   "image": "Tutorial_assets/thumbnail/E7VJAVKOU3.png"
  },
  {
   "alpha": {
    "Points": [
     {
      "co": {
       "X": 1.0,
       "Y": 1.0
      },
      "handle_left": {
       "X": 0.5,
       "Y": 1.0
      },
      "handle_right": {
       "X": 0.5,
       "Y": 0.0
      },
      "handle_type": 0,
      "interpolation": 0
     }
    ]
   },
   "anchor": 0,
   "channel_filter": {
    "Points": [
     {
      "co": {
       "X": 1.0,
       "Y": -1.0
      },
      "handle_left": {
       "X": 0.5,
       "Y": 1.0
      },
      "handle_right": {
       "X": 0.5,
       "Y": 0.0
      },
      "handle_type": 0,
      "interpolation": 0
     }
    ]
   },
   "channel_mapping": {
    "Points": [
     {
      "co": {
       "X": 1.0,
       "Y": -1.0
      },
      "handle_left": {
       "X": 0.5,
       "Y": 1.0
      },
      "handle_right": {
       "X": 0.5,
       "Y": 0.0
      },
      "handle_type": 0,
      "interpolation": 0
     }
    ]
   },
   "display": 0,
   "duration": 3600.0,
   "effects": [],
   "end": 4.999999999999995,
   "gravity": 4,
   "has_audio": {
    "Points": [
     {
      "co": {
       "X": 1.0,
       "Y": -1.0
      },
      "handle_left": {
       "X": 0.5,
       "Y": 1.0
      },
      "handle_right": {
       "X": 0.5,
       "Y": 0.0
      },
      "handle_type": 0,
      "interpolation": 0
     }
    ]
   },
   "has_video": {
    "Points": [
     {
      "co": {
       "X": 1.0,
       "Y": -1.0
      },
      "handle_left": {
       "X": 0.5,
       "Y": 1.0
      },
      "handle_right": {
       "X": 0.5,
       "Y": 0.0
      },
      "handle_type": 0,
      "interpolation": 0
     }
    ]
   },
   "id": "6PPA5V8DJJ",
   "layer": 3000000,
   "location_x": {
    "Points": [
     {
      "co": {
       "X": 1,
       "Y": -0.30664390325546265
      },
      "handle_left": {
       "X": 0.5,
       "Y": 1.0
      },
      "handle_right": {
       "X": 0.5,
       "Y": 0.0
      },
      "handle_type": 0,
      "interpolation": 0
     }
    ]
   },
   "location_y": {
    "Points": [
     {
      "co": {
       "X": 1,
       "Y": -0.08333332236066009
      },
      "handle_left": {
       "X": 0.5,
       "Y": 1.0
      },
      "handle_right": {
       "X": 0.5,
       "Y": 0.0
      },
      "handle_type": 0,
      "interpolation": 0
     }
    ]
   },
   "mixing": 0,
   "origin_x": {
    "Points": [
     {
      "co": {
       "X": 1.0,
       "Y": 0.5
      },
      "handle_left": {
       "X": 0.5,
       "Y": 1.0
      },
      "handle_right": {
       "X": 0.5,
       "Y": 0.0
      },
      "handle_type": 0,
      "interpolation": 0
     }
    ]
   },
   "origin_y": {
    "Points": [
     {
      "co": {
       "X": 1.0,
       "Y": 0.5
      },
      "handle_left": {
       "X": 0.5,
       "Y": 1.0
      },
      "handle_right": {
       "X": 0.5,
       "Y": 0.0
      },
      "handle_type": 0,
      "interpolation": 0
     }
    ]
   },
   "parentObjectId": "",
   "perspective_c1_x": {
    "Points": [
     {
      "co": {
       "X": 1.0,
       "Y": -1.0
      },
      "handle_left": {
       "X": 0.5,
       "Y": 1.0
      },
      "handle_right": {
       "X": 0.5,
       "Y": 0.0
      },
      "handle_type": 0,
      "interpolation": 0
     }
    ]
   },
   "perspective_c1_y": {
    "Points": [
     {
      "co": {
       "X": 1.0,
       "Y": -1.0
      },
      "handle_left": {
       "X": 0.5,
       "Y": 1.0
      },
      "handle_right": {
       "X": 0.5,
       "Y": 0.0
      },
      "handle_type": 0,
      "interpolation": 0
     }
    ]
   },
   "perspective_c2_x": {
    "Points": [
     {
      "co": {
       "X": 1.0,
       "Y": -1.0
      },
      "handle_left": {
       "X": 0.5,
       "Y": 1.0
      },
      "handle_right": {
       "X": 0.5,
       "Y": 0.0
      },
      "handle_type": 0,
      "interpolation": 0
     }
    ]
   },
   "perspective_c2_y": {
    "Points": [
     {
      "co": {
       "X": 1.0,
       "Y": -1.0
      },
      "handle_left": {
       "X": 0.5,
       "Y": 1.0
      },
      "handle_right": {
       "X": 0.5,
       "Y": 0.0
      },
      "handle_type": 0,
      "interpolation": 0
     }
    ]
   },
   "perspective_c3_x": {
    "Points": [
     {
      "co": {
       "X": 1.0,
       "Y": -1.0
      },
      "handle_left": {
       "X": 0.5,
       "Y": 1.0
      },
      "handle_right": {
       "X": 0.5,
       "Y": 0.0
      },
      "handle_type": 0,
      "interpolation": 0
     }
    ]
   },
   "perspective_c3_y": {
    "Points": [
     {
      "co": {
       "X": 1.0,
       "Y": -1.0
      },
      "handle_left": {
       "X": 0.5,
       "Y": 1.0
      },
      "handle_right": {
       "X": 0.5,
       "Y": 0.0
      },
      "handle_type": 0,
      "interpolation": 0
     }
    ]
   },
   "perspective_c4_x": {
    "Points": [
     {
      "co": {
       "X": 1.0,
       "Y": -1.0
      },
      "handle_left": {
       "X": 0.5,
       "Y": 1.0
      },
      "handle_right": {
       "X": 0.5,
       "Y": 0.0
      },
      "handle_type": 0,
      "interpolation": 0
     }
    ]
   },
   "perspective_c4_y": {
    "Points": [
     {
      "co": {
       "X": 1.0,
       "Y": -1.0
      },
      "handle_left": {
       "X": 0.5,
       "Y": 1.0
      },
      "handle_right": {
       "X": 0.5,
       "Y": 0.0
      },
      "handle_type": 0,
      "interpolation": 0
     }
    ]
   },
   "position": 209.83333333333334,
   "reader": {
    "acodec": "",
    "audio_bit_rate": 0,
    "audio_stream_index": -1,
    "audio_timebase": {
     "den": 1,
     "num": 1
    },
    "channel_layout": 4,
    "channels": 0,
    "display_ratio": {
     "den": 613,
     "num": 1691
    },
    "duration": 3600.0,
    "file_size": "4146332",
    "fps": {
     "den": 1,
     "num": 30
    },
    "has_audio": false,
    "has_single_image": true,
    "has_video": true,
    "height": 613,
    "interlaced_frame": false,
    "metadata": {},
    "path": "./drawing32.png",
    "pixel_format": -1,
    "pixel_ratio": {
     "den": 1,
     "num": 1
    },
    "sample_rate": 0,
    "top_field_first": true,
    "type": "QtImageReader",
    "vcodec": "",
    "video_bit_rate": 0,
    "video_length": "108000",
    "video_stream_index": -1,
    "video_timebase": {
     "den": 30,
     "num": 1
    },
    "width": 1691,
    "media_type": "image",
    "id": "KR9NBF5CR8"
   },
   "rotation": {
    "Points": [
     {
      "co": {
       "X": 1.0,
       "Y": 0.0
      },
      "handle_left": {
       "X": 0.5,
       "Y": 1.0
      },
      "handle_right": {
       "X": 0.5,
       "Y": 0.0
      },
      "handle_type": 0,
      "interpolation": 0
     }
    ]
   },
   "scale": 1,
   "scale_x": {
    "Points": [
     {
      "co": {
       "X": 1,
       "Y": 0.32879047321704624
      },
      "handle_left": {
       "X": 0.5,
       "Y": 1.0
      },
      "handle_right": {
       "X": 0.5,
       "Y": 0.0
      },
      "handle_type": 0,
      "interpolation": 0
     }
    ]
   },
   "scale_y": {
    "Points": [
     {
      "co": {
       "X": 1,
       "Y": 0.32879047321704624
      },
      "handle_left": {
       "X": 0.5,
       "Y": 1.0
      },
      "handle_right": {
       "X": 0.5,
       "Y": 0.0
      },
      "handle_type": 0,
      "interpolation": 0
     }
    ]
   },
   "shear_x": {
    "Points": [
     {
      "co": {
       "X": 1.0,
       "Y": 0.0
      },
      "handle_left": {
       "X": 0.5,
       "Y": 1.0
      },
      "handle_right": {
       "X": 0.5,
       "Y": 0.0
      },
      "handle_type": 0,
      "interpolation": 0
     }
    ]
   },
   "shear_y": {
    "Points": [
     {
      "co": {
       "X": 1.0,
       "Y": 0.0
      },
      "handle_left": {
       "X": 0.5,
       "Y": 1.0
      },
      "handle_right": {
       "X": 0.5,
       "Y": 0.0
      },
      "handle_type": 0,
      "interpolation": 0
     }
    ]
   },
   "start": 0,
   "time": {
    "Points": [
     {
      "co": {
       "X": 1.0,
       "Y": 1.0
      },
      "handle_left": {
       "X": 0.5,
       "Y": 1.0
      },
      "handle_right": {
       "X": 0.5,
       "Y": 0.0
      },
      "handle_type": 0,
      "interpolation": 0
     }
    ]
   },
   "volume": {
    "Points": [
     {
      "co": {
       "X": 1.0,
       "Y": 1.0
      },
      "handle_left": {
       "X": 0.5,
       "Y": 1.0
      },
      "handle_right": {
       "X": 0.5,
       "Y": 0.0
      },
      "handle_type": 0,
      "interpolation": 0
     }
    ]
   },
   "wave_color": {
    "alpha": {
     "Points": [
      {
       "co": {
        "X": 1.0,
        "Y": 255.0
       },
       "handle_left": {
        "X": 0.5,
        "Y": 1.0
       },
       "handle_right": {
        "X": 0.5,
        "Y": 0.0
       },
       "handle_type": 0,
       "interpolation": 0
      }
     ]
    },
    "blue": {
     "Points": [
      {
       "co": {
        "X": 1.0,
        "Y": 255.0
       },
       "handle_left": {
        "X": 0.5,
        "Y": 1.0
       },
       "handle_right": {
        "X": 0.5,
        "Y": 0.0
       },
       "handle_type": 0,
       "interpolation": 0
      }
     ]
    },
    "green": {
     "Points": [
      {
       "co": {
        "X": 1.0,
        "Y": 123.0
       },
       "handle_left": {
        "X": 0.5,
        "Y": 1.0
       },
       "handle_right": {
        "X": 0.5,
        "Y": 0.0
       },
       "handle_type": 0,
       "interpolation": 0
      }
     ]
    },
    "red": {
     "Points": [
      {
       "co": {
        "X": 1.0,
        "Y": 0.0
       },
       "handle_left": {
        "X": 0.5,
        "Y": 1.0
       },
       "handle_right": {
        "X": 0.5,
        "Y": 0.0
       },
       "handle_type": 0,
       "interpolation": 0
      }
     ]
    }
   },
   "waveform": false,
   "file_id": "KR9NBF5CR8",
   "title": "drawing32.png",
   "image": "Tutorial_assets/thumbnail/KR9NBF5CR8.png"
  },
  {
   "alpha": {
    "Points": [
     {
      "co": {
       "X": 1.0,
       "Y": 1.0
      },
      "handle_left": {
       "X": 0.5,
       "Y": 1.0
      },
      "handle_right": {
       "X": 0.5,
       "Y": 0.0
      },
      "handle_type": 0,
      "interpolation": 0
     }
    ]
   },
   "anchor": 0,
   "channel_filter": {
    "Points": [
     {
      "co": {
       "X": 1.0,
       "Y": -1.0
      },
      "handle_left": {
       "X": 0.5,
       "Y": 1.0
      },
      "handle_right": {
       "X": 0.5,
       "Y": 0.0
      },
      "handle_type": 0,
      "interpolation": 0
     }
    ]
   },
   "channel_mapping": {
    "Points": [
     {
      "co": {
       "X": 1.0,
       "Y": -1.0
      },
      "handle_left": {
       "X": 0.5,
       "Y": 1.0
      },
      "handle_right": {
       "X": 0.5,
       "Y": 0.0
      },
      "handle_type": 0,
      "interpolation": 0
     }
    ]
   },
   "display": 0,
   "duration": 3600.0,
   "effects": [],
   "end": 10,
   "gravity": 4,
   "has_audio": {
    "Points": [
     {
      "co": {
       "X": 1.0,
       "Y": -1.0
      },
      "handle_left": {
       "X": 0.5,
       "Y": 1.0
      },
      "handle_right": {
       "X": 0.5,
       "Y": 0.0
      },
      "handle_type": 0,
      "interpolation": 0
     }
    ]
   },
   "has_video": {
    "Points": [
     {
      "co": {
       "X": 1.0,
       "Y": -1.0
      },
      "handle_left": {
       "X": 0.5,
       "Y": 1.0
      },
      "handle_right": {
       "X": 0.5,
       "Y": 0.0
      },
      "handle_type": 0,
      "interpolation": 0
     }
    ]
   },
   "id": "JQIXE0X6L2",
   "layer": 3000000,
   "location_x": {
    "Points": [
     {
      "co": {
       "X": 1.0,
       "Y": 0.0
      },
      "handle_left": {
       "X": 0.5,
       "Y": 1.0
      },
      "handle_right": {
       "X": 0.5,
       "Y": 0.0
      },
      "handle_type": 0,
      "interpolation": 0
     },
     {
      "co": {
       "X": 60,
       "Y": -0.2776830792427063
      },
      "interpolation": 0
     }
    ]
   },
   "location_y": {
    "Points": [
     {
      "co": {
       "X": 1.0,
       "Y": 0.0
      },
      "handle_left": {
       "X": 0.5,
       "Y": 1.0
      },
      "handle_right": {
       "X": 0.5,
       "Y": 0.0
      },
      "handle_type": 0,
      "interpolation": 0
     },
     {
      "co": {
       "X": 60,
       "Y": 0.24545453344330642
      },
      "interpolation": 0
     }
    ]
   },
   "mixing": 0,
   "origin_x": {
    "Points": [
     {
      "co": {
       "X": 1.0,
       "Y": 0.5
      },
      "handle_left": {
       "X": 0.5,
       "Y": 1.0
      },
      "handle_right": {
       "X": 0.5,
       "Y": 0.0
      },
      "handle_type": 0,
      "interpolation": 0
     }
    ]
   },
   "origin_y": {
    "Points": [
     {
      "co": {
       "X": 1.0,
       "Y": 0.5
      },
      "handle_left": {
       "X": 0.5,
       "Y": 1.0
      },
      "handle_right": {
       "X": 0.5,
       "Y": 0.0
      },
      "handle_type": 0,
      "interpolation": 0
     }
    ]
   },
   "parentObjectId": "",
   "perspective_c1_x": {
    "Points": [
     {
      "co": {
       "X": 1.0,
       "Y": -1.0
      },
      "handle_left": {
       "X": 0.5,
       "Y": 1.0
      },
      "handle_right": {
       "X": 0.5,
       "Y": 0.0
      },
      "handle_type": 0,
      "interpolation": 0
     }
    ]
   },
   "perspective_c1_y": {
    "Points": [
     {
      "co": {
       "X": 1.0,
       "Y": -1.0
      },
      "handle_left": {
       "X": 0.5,
       "Y": 1.0
      },
      "handle_right": {
       "X": 0.5,
       "Y": 0.0
      },
      "handle_type": 0,
      "interpolation": 0
     }
    ]
   },
   "perspective_c2_x": {
    "Points": [
     {
      "co": {
       "X": 1.0,
       "Y": -1.0
      },
      "handle_left": {
       "X": 0.5,
       "Y": 1.0
      },
      "handle_right": {
       "X": 0.5,
       "Y": 0.0
      },
      "handle_type": 0,
      "interpolation": 0
     }
    ]
   },
   "perspective_c2_y": {
    "Points": [
     {
      "co": {
       "X": 1.0,
       "Y": -1.0
      },
      "handle_left": {
       "X": 0.5,
       "Y": 1.0
      },
      "handle_right": {
       "X": 0.5,
       "Y": 0.0
      },
      "handle_type": 0,
      "interpolation": 0
     }
    ]
   },
   "perspective_c3_x": {
    "Points": [
     {
      "co": {
       "X": 1.0,
       "Y": -1.0
      },
      "handle_left": {
       "X": 0.5,
       "Y": 1.0
      },
      "handle_right": {
       "X": 0.5,
       "Y": 0.0
      },
      "handle_type": 0,
      "interpolation": 0
     }
    ]
   },
   "perspective_c3_y": {
    "Points": [
     {
      "co": {
       "X": 1.0,
       "Y": -1.0
      },
      "handle_left": {
       "X": 0.5,
       "Y": 1.0
      },
      "handle_right": {
       "X": 0.5,
       "Y": 0.0
      },
      "handle_type": 0,
      "interpolation": 0
     }
    ]
   },
   "perspective_c4_x": {
    "Points": [
     {
      "co": {
       "X": 1.0,
       "Y": -1.0
      },
      "handle_left": {
       "X": 0.5,
       "Y": 1.0
      },
      "handle_right": {
       "X": 0.5,
       "Y": 0.0
      },
      "handle_type": 0,
      "interpolation": 0
     }
    ]
   },
   "perspective_c4_y": {
    "Points": [
     {
      "co": {
       "X": 1.0,
       "Y": -1.0
      },
      "handle_left": {
       "X": 0.5,
       "Y": 1.0
      },
      "handle_right": {
       "X": 0.5,
       "Y": 0.0
      },
      "handle_type": 0,
      "interpolation": 0
     }
    ]
   },
   "position": 216.8,
   "reader": {
    "acodec": "",
    "audio_bit_rate": 0,
    "audio_stream_index": -1,
    "audio_timebase": {
     "den": 1,
     "num": 1
    },
    "channel_layout": 4,
    "channels": 0,
    "display_ratio": {
     "den": 613,
     "num": 1691
    },
    "duration": 3600.0,
    "file_size": "4146332",
    "fps": {
     "den": 1,
     "num": 30
    },
    "has_audio": false,
    "has_single_image": true,
    "has_video": true,
    "height": 613,
    "interlaced_frame": false,
    "metadata": {},
    "path": "./drawing33.png",
    "pixel_format": -1,
    "pixel_ratio": {
     "den": 1,
     "num": 1
    },
    "sample_rate": 0,
    "top_field_first": true,
    "type": "QtImageReader",
    "vcodec": "",
    "video_bit_rate": 0,
    "video_length": "108000",
    "video_stream_index": -1,
    "video_timebase": {
     "den": 30,
     "num": 1
    },
    "width": 1691,
    "media_type": "image",
    "id": "FPNO7V8AD4"
   },
   "rotation": {
    "Points": [
     {
      "co": {
       "X": 1.0,
       "Y": 0.0
      },
      "handle_left": {
       "X": 0.5,
       "Y": 1.0
      },
      "handle_right": {
       "X": 0.5,
       "Y": 0.0
      },
      "handle_type": 0,
      "interpolation": 0
     }
    ]
   },
   "scale": 1,
   "scale_x": {
    "Points": [
     {
      "co": {
       "X": 1.0,
       "Y": 1.0
      },
      "handle_left": {
       "X": 0.5,
       "Y": 1.0
      },
      "handle_right": {
       "X": 0.5,
       "Y": 0.0
      },
      "handle_type": 0,
      "interpolation": 0
     },
     {
      "co": {
       "X": 60,
       "Y": 0.4054514214878797
      },
      "interpolation": 0
     }
    ]
   },
   "scale_y": {
    "Points": [
     {
      "co": {
       "X": 1.0,
       "Y": 1.0
      },
      "handle_left": {
       "X": 0.5,
       "Y": 1.0
      },
      "handle_right": {
       "X": 0.5,
       "Y": 0.0
      },
      "handle_type": 0,
      "interpolation": 0
     },
     {
      "co": {
       "X": 60,
       "Y": 0.4054514214878797
      },
      "interpolation": 0
     }
    ]
   },
   "shear_x": {
    "Points": [
     {
      "co": {
       "X": 1.0,
       "Y": 0.0
      },
      "handle_left": {
       "X": 0.5,
       "Y": 1.0
      },
      "handle_right": {
       "X": 0.5,
       "Y": 0.0
      },
      "handle_type": 0,
      "interpolation": 0
     }
    ]
   },
   "shear_y": {
    "Points": [
     {
      "co": {
       "X": 1.0,
       "Y": 0.0
      },
      "handle_left": {
       "X": 0.5,
       "Y": 1.0
      },
      "handle_right": {
       "X": 0.5,
       "Y": 0.0
      },
      "handle_type": 0,
      "interpolation": 0
     }
    ]
   },
   "start": 1.9562499999997578,
   "time": {
    "Points": [
     {
      "co": {
       "X": 1.0,
       "Y": 1.0
      },
      "handle_left": {
       "X": 0.5,
       "Y": 1.0
      },
      "handle_right": {
       "X": 0.5,
       "Y": 0.0
      },
      "handle_type": 0,
      "interpolation": 0
     }
    ]
   },
   "volume": {
    "Points": [
     {
      "co": {
       "X": 1.0,
       "Y": 1.0
      },
      "handle_left": {
       "X": 0.5,
       "Y": 1.0
      },
      "handle_right": {
       "X": 0.5,
       "Y": 0.0
      },
      "handle_type": 0,
      "interpolation": 0
     }
    ]
   },
   "wave_color": {
    "alpha": {
     "Points": [
      {
       "co": {
        "X": 1.0,
        "Y": 255.0
       },
       "handle_left": {
        "X": 0.5,
        "Y": 1.0
       },
       "handle_right": {
        "X": 0.5,
        "Y": 0.0
       },
       "handle_type": 0,
       "interpolation": 0
      }
     ]
    },
    "blue": {
     "Points": [
      {
       "co": {
        "X": 1.0,
        "Y": 255.0
       },
       "handle_left": {
        "X": 0.5,
        "Y": 1.0
       },
       "handle_right": {
        "X": 0.5,
        "Y": 0.0
       },
       "handle_type": 0,
       "interpolation": 0
      }
     ]
    },
    "green": {
     "Points": [
      {
       "co": {
        "X": 1.0,
        "Y": 123.0
       },
       "handle_left": {
        "X": 0.5,
        "Y": 1.0
       },
       "handle_right": {
        "X": 0.5,
        "Y": 0.0
       },
       "handle_type": 0,
       "interpolation": 0
      }
     ]
    },
    "red": {
     "Points": [
      {
       "co": {
        "X": 1.0,
        "Y": 0.0
       },
       "handle_left": {
        "X": 0.5,
        "Y": 1.0
       },
       "handle_right": {
        "X": 0.5,
        "Y": 0.0
       },
       "handle_type": 0,
       "interpolation": 0
      }
     ]
    }
   },
   "waveform": false,
   "file_id": "FPNO7V8AD4",
   "title": "drawing33.png",
   "image": "Tutorial_assets/thumbnail/FPNO7V8AD4.png"
  },
  {
   "alpha": {
    "Points": [
     {
      "co": {
       "X": 1.0,
       "Y": 1.0
      },
      "handle_left": {
       "X": 0.5,
       "Y": 1.0
      },
      "handle_right": {
       "X": 0.5,
       "Y": 0.0
      },
      "handle_type": 0,
      "interpolation": 0
     }
    ]
   },
   "anchor": 0,
   "channel_filter": {
    "Points": [
     {
      "co": {
       "X": 1.0,
       "Y": -1.0
      },
      "handle_left": {
       "X": 0.5,
       "Y": 1.0
      },
      "handle_right": {
       "X": 0.5,
       "Y": 0.0
      },
      "handle_type": 0,
      "interpolation": 0
     }
    ]
   },
   "channel_mapping": {
    "Points": [
     {
      "co": {
       "X": 1.0,
       "Y": -1.0
      },
      "handle_left": {
       "X": 0.5,
       "Y": 1.0
      },
      "handle_right": {
       "X": 0.5,
       "Y": 0.0
      },
      "handle_type": 0,
      "interpolation": 0
     }
    ]
   },
   "display": 0,
   "duration": 65.06666564941406,
   "effects": [],
   "end": 27.099999999999962,
   "gravity": 4,
   "has_audio": {
    "Points": [
     {
      "co": {
       "X": 1.0,
       "Y": -1.0
      },
      "handle_left": {
       "X": 0.5,
       "Y": 1.0
      },
      "handle_right": {
       "X": 0.5,
       "Y": 0.0
      },
      "handle_type": 0,
      "interpolation": 0
     }
    ]
   },
   "has_video": {
    "Points": [
     {
      "co": {
       "X": 1.0,
       "Y": -1.0
      },
      "handle_left": {
       "X": 0.5,
       "Y": 1.0
      },
      "handle_right": {
       "X": 0.5,
       "Y": 0.0
      },
      "handle_type": 0,
      "interpolation": 0
     }
    ]
   },
   "layer": 1000000,
   "location_x": {
    "Points": [
     {
      "co": {
       "X": 1.0,
       "Y": 0.0
      },
      "handle_left": {
       "X": 0.5,
       "Y": 1.0
      },
      "handle_right": {
       "X": 0.5,
       "Y": 0.0
      },
      "handle_type": 0,
      "interpolation": 0
     }
    ]
   },
   "location_y": {
    "Points": [
     {
      "co": {
       "X": 1.0,
       "Y": 0.0
      },
      "handle_left": {
       "X": 0.5,
       "Y": 1.0
      },
      "handle_right": {
       "X": 0.5,
       "Y": 0.0
      },
      "handle_type": 0,
      "interpolation": 0
     }
    ]
   },
   "mixing": 0,
   "origin_x": {
    "Points": [
     {
      "co": {
       "X": 1.0,
       "Y": 0.5
      },
      "handle_left": {
       "X": 0.5,
       "Y": 1.0
      },
      "handle_right": {
       "X": 0.5,
       "Y": 0.0
      },
      "handle_type": 0,
      "interpolation": 0
     }
    ]
   },
   "origin_y": {
    "Points": [
     {
      "co": {
       "X": 1.0,
       "Y": 0.5
      },
      "handle_left": {
       "X": 0.5,
       "Y": 1.0
      },
      "handle_right": {
       "X": 0.5,
       "Y": 0.0
      },
      "handle_type": 0,
      "interpolation": 0
     }
    ]
   },
   "parentObjectId": "",
   "perspective_c1_x": {
    "Points": [
     {
      "co": {
       "X": 1.0,
       "Y": -1.0
      },
      "handle_left": {
       "X": 0.5,
       "Y": 1.0
      },
      "handle_right": {
       "X": 0.5,
       "Y": 0.0
      },
      "handle_type": 0,
      "interpolation": 0
     }
    ]
   },
   "perspective_c1_y": {
    "Points": [
     {
      "co": {
       "X": 1.0,
       "Y": -1.0
      },
      "handle_left": {
       "X": 0.5,
       "Y": 1.0
      },
      "handle_right": {
       "X": 0.5,
       "Y": 0.0
      },
      "handle_type": 0,
      "interpolation": 0
     }
    ]
   },
   "perspective_c2_x": {
    "Points": [
     {
      "co": {
       "X": 1.0,
       "Y": -1.0
      },
      "handle_left": {
       "X": 0.5,
       "Y": 1.0
      },
      "handle_right": {
       "X": 0.5,
       "Y": 0.0
      },
      "handle_type": 0,
      "interpolation": 0
     }
    ]
   },
   "perspective_c2_y": {
    "Points": [
     {
      "co": {
       "X": 1.0,
       "Y": -1.0
      },
      "handle_left": {
       "X": 0.5,
       "Y": 1.0
      },
      "handle_right": {
       "X": 0.5,
       "Y": 0.0
      },
      "handle_type": 0,
      "interpolation": 0
     }
    ]
   },
   "perspective_c3_x": {
    "Points": [
     {
      "co": {
       "X": 1.0,
       "Y": -1.0
      },
      "handle_left": {
       "X": 0.5,
       "Y": 1.0
      },
      "handle_right": {
       "X": 0.5,
       "Y": 0.0
      },
      "handle_type": 0,
      "interpolation": 0
     }
    ]
   },
   "perspective_c3_y": {
    "Points": [
     {
      "co": {
       "X": 1.0,
       "Y": -1.0
      },
      "handle_left": {
       "X": 0.5,
       "Y": 1.0
      },
      "handle_right": {
       "X": 0.5,
       "Y": 0.0
      },
      "handle_type": 0,
      "interpolation": 0
     }
    ]
   },
   "perspective_c4_x": {
    "Points": [
     {
      "co": {
       "X": 1.0,
       "Y": -1.0
      },
      "handle_left": {
       "X": 0.5,
       "Y": 1.0
      },
      "handle_right": {
       "X": 0.5,
       "Y": 0.0
      },
      "handle_type": 0,
      "interpolation": 0
     }
    ]
   },
   "perspective_c4_y": {
    "Points": [
     {
      "co": {
       "X": 1.0,
       "Y": -1.0
      },
      "handle_left": {
       "X": 0.5,
       "Y": 1.0
      },
      "handle_right": {
       "X": 0.5,
       "Y": 0.0
      },
      "handle_type": 0,
      "interpolation": 0
     }
    ]
   },
   "position": 214.36666666666667,
   "reader": {
    "acodec": "",
    "audio_bit_rate": 0,
    "audio_stream_index": -1,
    "audio_timebase": {
     "den": 1,
     "num": 1
    },
    "channel_layout": 4,
    "channels": 0,
    "display_ratio": {
     "den": 9,
     "num": 16
    },
    "duration": 65.06666564941406,
    "file_size": "44795656",
    "fps": {
     "den": 1,
     "num": 30
    },
    "has_audio": false,
    "has_single_image": false,
    "has_video": true,
    "height": 1080,
    "interlaced_frame": false,
    "metadata": {
     "comment": "Create videos with https://clipchamp.com/en/video-editor - free online video editor, video compressor, video converter.",
     "compatible_brands": "isomiso2avc1mp41",
     "encoder": "https://clipchamp.com",
     "handler_name": "VideoHandler",
     "language": "und",
     "major_brand": "isom",
     "minor_version": "512"
    },
    "path": "./movie_003_003.mp4",
    "pixel_format": 0,
    "pixel_ratio": {
     "den": 1,
     "num": 1
    },
    "sample_rate": 0,
    "top_field_first": true,
    "type": "FFmpegReader",
    "vcodec": "h264",
    "video_bit_rate": 688454,
    "video_length": "1952",
    "video_stream_index": 0,
    "video_timebase": {
     "den": 15360,
     "num": 1
    },
    "width": 1920,
    "media_type": "video",
    "id": "J920Z8D3MS"
   },
   "rotation": {
    "Points": [
     {
      "co": {
       "X": 1.0,
       "Y": 0.0
      },
      "handle_left": {
       "X": 0.5,
       "Y": 1.0
      },
      "handle_right": {
       "X": 0.5,
       "Y": 0.0
      },
      "handle_type": 0,
      "interpolation": 0
     }
    ]
   },
   "scale": 1,
   "scale_x": {
    "Points": [
     {
      "co": {
       "X": 1.0,
       "Y": 1.0
      },
      "handle_left": {
       "X": 0.5,
       "Y": 1.0
      },
      "handle_right": {
       "X": 0.5,
       "Y": 0.0
      },
      "handle_type": 0,
      "interpolation": 0
     }
    ]
   },
   "scale_y": {
    "Points": [
     {
      "co": {
       "X": 1.0,
       "Y": 1.0
      },
      "handle_left": {
       "X": 0.5,
       "Y": 1.0
      },
      "handle_right": {
       "X": 0.5,
       "Y": 0.0
      },
      "handle_type": 0,
      "interpolation": 0
     }
    ]
   },
   "shear_x": {
    "Points": [
     {
      "co": {
       "X": 1.0,
       "Y": 0.0
      },
      "handle_left": {
       "X": 0.5,
       "Y": 1.0
      },
      "handle_right": {
       "X": 0.5,
       "Y": 0.0
      },
      "handle_type": 0,
      "interpolation": 0
     }
    ]
   },
   "shear_y": {
    "Points": [
     {
      "co": {
       "X": 1.0,
       "Y": 0.0
      },
      "handle_left": {
       "X": 0.5,
       "Y": 1.0
      },
      "handle_right": {
       "X": 0.5,
       "Y": 0.0
      },
      "handle_type": 0,
      "interpolation": 0
     }
    ]
   },
   "start": 13.666666666666664,
   "time": {
    "Points": [
     {
      "co": {
       "X": 1.0,
       "Y": 1.0
      },
      "handle_left": {
       "X": 0.5,
       "Y": 1.0
      },
      "handle_right": {
       "X": 0.5,
       "Y": 0.0
      },
      "handle_type": 0,
      "interpolation": 0
     }
    ]
   },
   "volume": {
    "Points": [
     {
      "co": {
       "X": 1.0,
       "Y": 1.0
      },
      "handle_left": {
       "X": 0.5,
       "Y": 1.0
      },
      "handle_right": {
       "X": 0.5,
       "Y": 0.0
      },
      "handle_type": 0,
      "interpolation": 0
     }
    ]
   },
   "wave_color": {
    "alpha": {
     "Points": [
      {
       "co": {
        "X": 1.0,
        "Y": 255.0
       },
       "handle_left": {
        "X": 0.5,
        "Y": 1.0
       },
       "handle_right": {
        "X": 0.5,
        "Y": 0.0
       },
       "handle_type": 0,
       "interpolation": 0
      }
     ]
    },
    "blue": {
     "Points": [
      {
       "co": {
        "X": 1.0,
        "Y": 255.0
       },
       "handle_left": {
        "X": 0.5,
        "Y": 1.0
       },
       "handle_right": {
        "X": 0.5,
        "Y": 0.0
       },
       "handle_type": 0,
       "interpolation": 0
      }
     ]
    },
    "green": {
     "Points": [
      {
       "co": {
        "X": 1.0,
        "Y": 123.0
       },
       "handle_left": {
        "X": 0.5,
        "Y": 1.0
       },
       "handle_right": {
        "X": 0.5,
        "Y": 0.0
       },
       "handle_type": 0,
       "interpolation": 0
      }
     ]
    },
    "red": {
     "Points": [
      {
       "co": {
        "X": 1.0,
        "Y": 0.0
       },
       "handle_left": {
        "X": 0.5,
        "Y": 1.0
       },
       "handle_right": {
        "X": 0.5,
        "Y": 0.0
       },
       "handle_type": 0,
       "interpolation": 0
      }
     ]
    }
   },
   "waveform": false,
   "file_id": "J920Z8D3MS",
   "title": "movie_003_003.mp4",
   "image": "Tutorial_assets/thumbnail/J920Z8D3MS.png",
   "id": "3PFWCPEFYI"
  },
  {
   "alpha": {
    "Points": [
     {
      "co": {
       "X": 1.0,
       "Y": 1.0
      },
      "handle_left": {
       "X": 0.5,
       "Y": 1.0
      },
      "handle_right": {
       "X": 0.5,
       "Y": 0.0
      },
      "handle_type": 0,
      "interpolation": 0
     }
    ]
   },
   "anchor": 0,
   "channel_filter": {
    "Points": [
     {
      "co": {
       "X": 1.0,
       "Y": -1.0
      },
      "handle_left": {
       "X": 0.5,
       "Y": 1.0
      },
      "handle_right": {
       "X": 0.5,
       "Y": 0.0
      },
      "handle_type": 0,
      "interpolation": 0
     }
    ]
   },
   "channel_mapping": {
    "Points": [
     {
      "co": {
       "X": 1.0,
       "Y": -1.0
      },
      "handle_left": {
       "X": 0.5,
       "Y": 1.0
      },
      "handle_right": {
       "X": 0.5,
       "Y": 0.0
      },
      "handle_type": 0,
      "interpolation": 0
     }
    ]
   },
   "display": 0,
   "duration": 43.29999923706055,
   "effects": [],
   "end": 25.56666666666672,
   "gravity": 4,
   "has_audio": {
    "Points": [
     {
      "co": {
       "X": 1.0,
       "Y": -1.0
      },
      "handle_left": {
       "X": 0.5,
       "Y": 1.0
      },
      "handle_right": {
       "X": 0.5,
       "Y": 0.0
      },
      "handle_type": 0,
      "interpolation": 0
     }
    ]
   },
   "has_video": {
    "Points": [
     {
      "co": {
       "X": 1.0,
       "Y": -1.0
      },
      "handle_left": {
       "X": 0.5,
       "Y": 1.0
      },
      "handle_right": {
       "X": 0.5,
       "Y": 0.0
      },
      "handle_type": 0,
      "interpolation": 0
     }
    ]
   },
   "id": "2TTJOGV3F8",
   "layer": 1000000,
   "location_x": {
    "Points": [
     {
      "co": {
       "X": 1.0,
       "Y": 0.0
      },
      "handle_left": {
       "X": 0.5,
       "Y": 1.0
      },
      "handle_right": {
       "X": 0.5,
       "Y": 0.0
      },
      "handle_type": 0,
      "interpolation": 0
     }
    ]
   },
   "location_y": {
    "Points": [
     {
      "co": {
       "X": 1.0,
       "Y": 0.0
      },
      "handle_left": {
       "X": 0.5,
       "Y": 1.0
      },
      "handle_right": {
       "X": 0.5,
       "Y": 0.0
      },
      "handle_type": 0,
      "interpolation": 0
     }
    ]
   },
   "mixing": 0,
   "origin_x": {
    "Points": [
     {
      "co": {
       "X": 1.0,
       "Y": 0.5
      },
      "handle_left": {
       "X": 0.5,
       "Y": 1.0
      },
      "handle_right": {
       "X": 0.5,
       "Y": 0.0
      },
      "handle_type": 0,
      "interpolation": 0
     }
    ]
   },
   "origin_y": {
    "Points": [
     {
      "co": {
       "X": 1.0,
       "Y": 0.5
      },
      "handle_left": {
       "X": 0.5,
       "Y": 1.0
      },
      "handle_right": {
       "X": 0.5,
       "Y": 0.0
      },
      "handle_type": 0,
      "interpolation": 0
     }
    ]
   },
   "parentObjectId": "",
   "perspective_c1_x": {
    "Points": [
     {
      "co": {
       "X": 1.0,
       "Y": -1.0
      },
      "handle_left": {
       "X": 0.5,
       "Y": 1.0
      },
      "handle_right": {
       "X": 0.5,
       "Y": 0.0
      },
      "handle_type": 0,
      "interpolation": 0
     }
    ]
   },
   "perspective_c1_y": {
    "Points": [
     {
      "co": {
       "X": 1.0,
       "Y": -1.0
      },
      "handle_left": {
       "X": 0.5,
       "Y": 1.0
      },
      "handle_right": {
       "X": 0.5,
       "Y": 0.0
      },
      "handle_type": 0,
      "interpolation": 0
     }
    ]
   },
   "perspective_c2_x": {
    "Points": [
     {
      "co": {
       "X": 1.0,
       "Y": -1.0
      },
      "handle_left": {
       "X": 0.5,
       "Y": 1.0
      },
      "handle_right": {
       "X": 0.5,
       "Y": 0.0
      },
      "handle_type": 0,
      "interpolation": 0
     }
    ]
   },
   "perspective_c2_y": {
    "Points": [
     {
      "co": {
       "X": 1.0,
       "Y": -1.0
      },
      "handle_left": {
       "X": 0.5,
       "Y": 1.0
      },
      "handle_right": {
       "X": 0.5,
       "Y": 0.0
      },
      "handle_type": 0,
      "interpolation": 0
     }
    ]
   },
   "perspective_c3_x": {
    "Points": [
     {
      "co": {
       "X": 1.0,
       "Y": -1.0
      },
      "handle_left": {
       "X": 0.5,
       "Y": 1.0
      },
      "handle_right": {
       "X": 0.5,
       "Y": 0.0
      },
      "handle_type": 0,
      "interpolation": 0
     }
    ]
   },
   "perspective_c3_y": {
    "Points": [
     {
      "co": {
       "X": 1.0,
       "Y": -1.0
      },
      "handle_left": {
       "X": 0.5,
       "Y": 1.0
      },
      "handle_right": {
       "X": 0.5,
       "Y": 0.0
      },
      "handle_type": 0,
      "interpolation": 0
     }
    ]
   },
   "perspective_c4_x": {
    "Points": [
     {
      "co": {
       "X": 1.0,
       "Y": -1.0
      },
      "handle_left": {
       "X": 0.5,
       "Y": 1.0
      },
      "handle_right": {
       "X": 0.5,
       "Y": 0.0
      },
      "handle_type": 0,
      "interpolation": 0
     }
    ]
   },
   "perspective_c4_y": {
    "Points": [
     {
      "co": {
       "X": 1.0,
       "Y": -1.0
      },
      "handle_left": {
       "X": 0.5,
       "Y": 1.0
      },
      "handle_right": {
       "X": 0.5,
       "Y": 0.0
      },
      "handle_type": 0,
      "interpolation": 0
     }
    ]
   },
   "position": 225.93333333333334,
   "reader": {
    "acodec": "",
    "audio_bit_rate": 0,
    "audio_stream_index": -1,
    "audio_timebase": {
     "den": 1,
     "num": 1
    },
    "channel_layout": 4,
    "channels": 0,
    "display_ratio": {
     "den": 9,
     "num": 16
    },
    "duration": 43.29999923706055,
    "file_size": "20461332",
    "fps": {
     "den": 1,
     "num": 30
    },
    "has_audio": false,
    "has_single_image": false,
    "has_video": true,
    "height": 1080,
    "interlaced_frame": false,
    "metadata": {
     "compatible_brands": "mp41isom",
     "creation_time": "2024-05-23T17:52:53.000000Z",
     "encoder": "AVC Coding",
     "handler_name": "VideoHandler",
     "language": "und",
     "major_brand": "mp42",
     "minor_version": "0"
    },
    "path": "./Movie_005.mp4",
    "pixel_format": 0,
    "pixel_ratio": {
     "den": 1,
     "num": 1
    },
    "sample_rate": 0,
    "top_field_first": true,
    "type": "FFmpegReader",
    "vcodec": "h264",
    "video_bit_rate": 472548,
    "video_length": "1299",
    "video_stream_index": 0,
    "video_timebase": {
     "den": 30000,
     "num": 1
    },
    "width": 1920,
    "media_type": "video",
    "id": "H2KZ1ELZ4W",
    "image": "Tutorial_assets/thumbnail/H2KZ1ELZ4W.png"
   },
   "rotation": {
    "Points": [
     {
      "co": {
       "X": 1.0,
       "Y": 0.0
      },
      "handle_left": {
       "X": 0.5,
       "Y": 1.0
      },
      "handle_right": {
       "X": 0.5,
       "Y": 0.0
      },
      "handle_type": 0,
      "interpolation": 0
     }
    ]
   },
   "scale": 1,
   "scale_x": {
    "Points": [
     {
      "co": {
       "X": 1.0,
       "Y": 1.0
      },
      "handle_left": {
       "X": 0.5,
       "Y": 1.0
      },
      "handle_right": {
       "X": 0.5,
       "Y": 0.0
      },
      "handle_type": 0,
      "interpolation": 0
     }
    ]
   },
   "scale_y": {
    "Points": [
     {
      "co": {
       "X": 1.0,
       "Y": 1.0
      },
      "handle_left": {
       "X": 0.5,
       "Y": 1.0
      },
      "handle_right": {
       "X": 0.5,
       "Y": 0.0
      },
      "handle_type": 0,
      "interpolation": 0
     }
    ]
   },
   "shear_x": {
    "Points": [
     {
      "co": {
       "X": 1.0,
       "Y": 0.0
      },
      "handle_left": {
       "X": 0.5,
       "Y": 1.0
      },
      "handle_right": {
       "X": 0.5,
       "Y": 0.0
      },
      "handle_type": 0,
      "interpolation": 0
     }
    ]
   },
   "shear_y": {
    "Points": [
     {
      "co": {
       "X": 1.0,
       "Y": 0.0
      },
      "handle_left": {
       "X": 0.5,
       "Y": 1.0
      },
      "handle_right": {
       "X": 0.5,
       "Y": 0.0
      },
      "handle_type": 0,
      "interpolation": 0
     }
    ]
   },
   "start": 23.03333333333339,
   "time": {
    "Points": [
     {
      "co": {
       "X": 1.0,
       "Y": 1.0
      },
      "handle_left": {
       "X": 0.5,
       "Y": 1.0
      },
      "handle_right": {
       "X": 0.5,
       "Y": 0.0
      },
      "handle_type": 0,
      "interpolation": 0
     }
    ]
   },
   "volume": {
    "Points": [
     {
      "co": {
       "X": 1.0,
       "Y": 1.0
      },
      "handle_left": {
       "X": 0.5,
       "Y": 1.0
      },
      "handle_right": {
       "X": 0.5,
       "Y": 0.0
      },
      "handle_type": 0,
      "interpolation": 0
     }
    ]
   },
   "wave_color": {
    "alpha": {
     "Points": [
      {
       "co": {
        "X": 1.0,
        "Y": 255.0
       },
       "handle_left": {
        "X": 0.5,
        "Y": 1.0
       },
       "handle_right": {
        "X": 0.5,
        "Y": 0.0
       },
       "handle_type": 0,
       "interpolation": 0
      }
     ]
    },
    "blue": {
     "Points": [
      {
       "co": {
        "X": 1.0,
        "Y": 255.0
       },
       "handle_left": {
        "X": 0.5,
        "Y": 1.0
       },
       "handle_right": {
        "X": 0.5,
        "Y": 0.0
       },
       "handle_type": 0,
       "interpolation": 0
      }
     ]
    },
    "green": {
     "Points": [
      {
       "co": {
        "X": 1.0,
        "Y": 123.0
       },
       "handle_left": {
        "X": 0.5,
        "Y": 1.0
       },
       "handle_right": {
        "X": 0.5,
        "Y": 0.0
       },
       "handle_type": 0,
       "interpolation": 0
      }
     ]
    },
    "red": {
     "Points": [
      {
       "co": {
        "X": 1.0,
        "Y": 0.0
       },
       "handle_left": {
        "X": 0.5,
        "Y": 1.0
       },
       "handle_right": {
        "X": 0.5,
        "Y": 0.0
       },
       "handle_type": 0,
       "interpolation": 0
      }
     ]
    }
   },
   "waveform": false,
   "file_id": "H2KZ1ELZ4W",
   "title": "Movie_005.mp4",
   "image": "Tutorial_assets/thumbnail/H2KZ1ELZ4W.png"
  },
  {
   "alpha": {
    "Points": [
     {
      "co": {
       "X": 1.0,
       "Y": 1.0
      },
      "handle_left": {
       "X": 0.5,
       "Y": 1.0
      },
      "handle_right": {
       "X": 0.5,
       "Y": 0.0
      },
      "handle_type": 0,
      "interpolation": 0
     }
    ]
   },
   "anchor": 0,
   "channel_filter": {
    "Points": [
     {
      "co": {
       "X": 1.0,
       "Y": -1.0
      },
      "handle_left": {
       "X": 0.5,
       "Y": 1.0
      },
      "handle_right": {
       "X": 0.5,
       "Y": 0.0
      },
      "handle_type": 0,
      "interpolation": 0
     }
    ]
   },
   "channel_mapping": {
    "Points": [
     {
      "co": {
       "X": 1.0,
       "Y": -1.0
      },
      "handle_left": {
       "X": 0.5,
       "Y": 1.0
      },
      "handle_right": {
       "X": 0.5,
       "Y": 0.0
      },
      "handle_type": 0,
      "interpolation": 0
     }
    ]
   },
   "display": 0,
   "duration": 3600.0,
   "effects": [],
   "end": 19.635999999999967,
   "gravity": 4,
   "has_audio": {
    "Points": [
     {
      "co": {
       "X": 1.0,
       "Y": -1.0
      },
      "handle_left": {
       "X": 0.5,
       "Y": 1.0
      },
      "handle_right": {
       "X": 0.5,
       "Y": 0.0
      },
      "handle_type": 0,
      "interpolation": 0
     }
    ]
   },
   "has_video": {
    "Points": [
     {
      "co": {
       "X": 1.0,
       "Y": -1.0
      },
      "handle_left": {
       "X": 0.5,
       "Y": 1.0
      },
      "handle_right": {
       "X": 0.5,
       "Y": 0.0
      },
      "handle_type": 0,
      "interpolation": 0
     }
    ]
   },
   "id": "49L57APBWS",
   "layer": 3000000,
   "location_x": {
    "Points": [
     {
      "co": {
       "X": 1,
       "Y": -0.2989778514107407
      },
      "handle_left": {
       "X": 0.5,
       "Y": 1.0
      },
      "handle_right": {
       "X": 0.5,
       "Y": 0.0
      },
      "handle_type": 0,
      "interpolation": 0
     }
    ]
   },
   "location_y": {
    "Points": [
     {
      "co": {
       "X": 1,
       "Y": -0.33787873820825054
      },
      "handle_left": {
       "X": 0.5,
       "Y": 1.0
      },
      "handle_right": {
       "X": 0.5,
       "Y": 0.0
      },
      "handle_type": 0,
      "interpolation": 0
     }
    ]
   },
   "mixing": 0,
   "origin_x": {
    "Points": [
     {
      "co": {
       "X": 1.0,
       "Y": 0.5
      },
      "handle_left": {
       "X": 0.5,
       "Y": 1.0
      },
      "handle_right": {
       "X": 0.5,
       "Y": 0.0
      },
      "handle_type": 0,
      "interpolation": 0
     }
    ]
   },
   "origin_y": {
    "Points": [
     {
      "co": {
       "X": 1.0,
       "Y": 0.5
      },
      "handle_left": {
       "X": 0.5,
       "Y": 1.0
      },
      "handle_right": {
       "X": 0.5,
       "Y": 0.0
      },
      "handle_type": 0,
      "interpolation": 0
     }
    ]
   },
   "parentObjectId": "",
   "perspective_c1_x": {
    "Points": [
     {
      "co": {
       "X": 1.0,
       "Y": -1.0
      },
      "handle_left": {
       "X": 0.5,
       "Y": 1.0
      },
      "handle_right": {
       "X": 0.5,
       "Y": 0.0
      },
      "handle_type": 0,
      "interpolation": 0
     }
    ]
   },
   "perspective_c1_y": {
    "Points": [
     {
      "co": {
       "X": 1.0,
       "Y": -1.0
      },
      "handle_left": {
       "X": 0.5,
       "Y": 1.0
      },
      "handle_right": {
       "X": 0.5,
       "Y": 0.0
      },
      "handle_type": 0,
      "interpolation": 0
     }
    ]
   },
   "perspective_c2_x": {
    "Points": [
     {
      "co": {
       "X": 1.0,
       "Y": -1.0
      },
      "handle_left": {
       "X": 0.5,
       "Y": 1.0
      },
      "handle_right": {
       "X": 0.5,
       "Y": 0.0
      },
      "handle_type": 0,
      "interpolation": 0
     }
    ]
   },
   "perspective_c2_y": {
    "Points": [
     {
      "co": {
       "X": 1.0,
       "Y": -1.0
      },
      "handle_left": {
       "X": 0.5,
       "Y": 1.0
      },
      "handle_right": {
       "X": 0.5,
       "Y": 0.0
      },
      "handle_type": 0,
      "interpolation": 0
     }
    ]
   },
   "perspective_c3_x": {
    "Points": [
     {
      "co": {
       "X": 1.0,
       "Y": -1.0
      },
      "handle_left": {
       "X": 0.5,
       "Y": 1.0
      },
      "handle_right": {
       "X": 0.5,
       "Y": 0.0
      },
      "handle_type": 0,
      "interpolation": 0
     }
    ]
   },
   "perspective_c3_y": {
    "Points": [
     {
      "co": {
       "X": 1.0,
       "Y": -1.0
      },
      "handle_left": {
       "X": 0.5,
       "Y": 1.0
      },
      "handle_right": {
       "X": 0.5,
       "Y": 0.0
      },
      "handle_type": 0,
      "interpolation": 0
     }
    ]
   },
   "perspective_c4_x": {
    "Points": [
     {
      "co": {
       "X": 1.0,
       "Y": -1.0
      },
      "handle_left": {
       "X": 0.5,
       "Y": 1.0
      },
      "handle_right": {
       "X": 0.5,
       "Y": 0.0
      },
      "handle_type": 0,
      "interpolation": 0
     }
    ]
   },
   "perspective_c4_y": {
    "Points": [
     {
      "co": {
       "X": 1.0,
       "Y": -1.0
      },
      "handle_left": {
       "X": 0.5,
       "Y": 1.0
      },
      "handle_right": {
       "X": 0.5,
       "Y": 0.0
      },
      "handle_type": 0,
      "interpolation": 0
     }
    ]
   },
   "position": 227.1,
   "reader": {
    "acodec": "",
    "audio_bit_rate": 0,
    "audio_stream_index": -1,
    "audio_timebase": {
     "den": 1,
     "num": 1
    },
    "channel_layout": 4,
    "channels": 0,
    "display_ratio": {
     "den": 221,
     "num": 725
    },
    "duration": 3600.0,
    "file_size": "2563600",
    "fps": {
     "den": 1,
     "num": 30
    },
    "has_audio": false,
    "has_single_image": true,
    "has_video": true,
    "height": 442,
    "interlaced_frame": false,
    "metadata": {},
    "path": "./drawing34.png",
    "pixel_format": -1,
    "pixel_ratio": {
     "den": 1,
     "num": 1
    },
    "sample_rate": 0,
    "top_field_first": true,
    "type": "QtImageReader",
    "vcodec": "",
    "video_bit_rate": 0,
    "video_length": "108000",
    "video_stream_index": -1,
    "video_timebase": {
     "den": 30,
     "num": 1
    },
    "width": 1450,
    "media_type": "image",
    "id": "0ZSIJWDFFG"
   },
   "rotation": {
    "Points": [
     {
      "co": {
       "X": 1.0,
       "Y": 0.0
      },
      "handle_left": {
       "X": 0.5,
       "Y": 1.0
      },
      "handle_right": {
       "X": 0.5,
       "Y": 0.0
      },
      "handle_type": 0,
      "interpolation": 0
     }
    ]
   },
   "scale": 1,
   "scale_x": {
    "Points": [
     {
      "co": {
       "X": 1,
       "Y": 0.30834736155894993
      },
      "handle_left": {
       "X": 0.5,
       "Y": 1.0
      },
      "handle_right": {
       "X": 0.5,
       "Y": 0.0
      },
      "handle_type": 0,
      "interpolation": 0
     }
    ]
   },
   "scale_y": {
    "Points": [
     {
      "co": {
       "X": 1,
       "Y": 0.30834736155894993
      },
      "handle_left": {
       "X": 0.5,
       "Y": 1.0
      },
      "handle_right": {
       "X": 0.5,
       "Y": 0.0
      },
      "handle_type": 0,
      "interpolation": 0
     }
    ]
   },
   "shear_x": {
    "Points": [
     {
      "co": {
       "X": 1.0,
       "Y": 0.0
      },
      "handle_left": {
       "X": 0.5,
       "Y": 1.0
      },
      "handle_right": {
       "X": 0.5,
       "Y": 0.0
      },
      "handle_type": 0,
      "interpolation": 0
     }
    ]
   },
   "shear_y": {
    "Points": [
     {
      "co": {
       "X": 1.0,
       "Y": 0.0
      },
      "handle_left": {
       "X": 0.5,
       "Y": 1.0
      },
      "handle_right": {
       "X": 0.5,
       "Y": 0.0
      },
      "handle_type": 0,
      "interpolation": 0
     }
    ]
   },
   "start": 0,
   "time": {
    "Points": [
     {
      "co": {
       "X": 1.0,
       "Y": 1.0
      },
      "handle_left": {
       "X": 0.5,
       "Y": 1.0
      },
      "handle_right": {
       "X": 0.5,
       "Y": 0.0
      },
      "handle_type": 0,
      "interpolation": 0
     }
    ]
   },
   "volume": {
    "Points": [
     {
      "co": {
       "X": 1.0,
       "Y": 1.0
      },
      "handle_left": {
       "X": 0.5,
       "Y": 1.0
      },
      "handle_right": {
       "X": 0.5,
       "Y": 0.0
      },
      "handle_type": 0,
      "interpolation": 0
     }
    ]
   },
   "wave_color": {
    "alpha": {
     "Points": [
      {
       "co": {
        "X": 1.0,
        "Y": 255.0
       },
       "handle_left": {
        "X": 0.5,
        "Y": 1.0
       },
       "handle_right": {
        "X": 0.5,
        "Y": 0.0
       },
       "handle_type": 0,
       "interpolation": 0
      }
     ]
    },
    "blue": {
     "Points": [
      {
       "co": {
        "X": 1.0,
        "Y": 255.0
       },
       "handle_left": {
        "X": 0.5,
        "Y": 1.0
       },
       "handle_right": {
        "X": 0.5,
        "Y": 0.0
       },
       "handle_type": 0,
       "interpolation": 0
      }
     ]
    },
    "green": {
     "Points": [
      {
       "co": {
        "X": 1.0,
        "Y": 123.0
       },
       "handle_left": {
        "X": 0.5,
        "Y": 1.0
       },
       "handle_right": {
        "X": 0.5,
        "Y": 0.0
       },
       "handle_type": 0,
       "interpolation": 0
      }
     ]
    },
    "red": {
     "Points": [
      {
       "co": {
        "X": 1.0,
        "Y": 0.0
       },
       "handle_left": {
        "X": 0.5,
        "Y": 1.0
       },
       "handle_right": {
        "X": 0.5,
        "Y": 0.0
       },
       "handle_type": 0,
       "interpolation": 0
      }
     ]
    }
   },
   "waveform": false,
   "file_id": "0ZSIJWDFFG",
   "title": "drawing34.png",
   "image": "Tutorial_assets/thumbnail/0ZSIJWDFFG.png"
  },
  {
   "alpha": {
    "Points": [
     {
      "co": {
       "X": 1.0,
       "Y": 1.0
      },
      "handle_left": {
       "X": 0.5,
       "Y": 1.0
      },
      "handle_right": {
       "X": 0.5,
       "Y": 0.0
      },
      "handle_type": 0,
      "interpolation": 0
     }
    ]
   },
   "anchor": 0,
   "channel_filter": {
    "Points": [
     {
      "co": {
       "X": 1.0,
       "Y": -1.0
      },
      "handle_left": {
       "X": 0.5,
       "Y": 1.0
      },
      "handle_right": {
       "X": 0.5,
       "Y": 0.0
      },
      "handle_type": 0,
      "interpolation": 0
     }
    ]
   },
   "channel_mapping": {
    "Points": [
     {
      "co": {
       "X": 1.0,
       "Y": -1.0
      },
      "handle_left": {
       "X": 0.5,
       "Y": 1.0
      },
      "handle_right": {
       "X": 0.5,
       "Y": 0.0
      },
      "handle_type": 0,
      "interpolation": 0
     }
    ]
   },
   "display": 0,
   "duration": 3600.0,
   "effects": [],
   "end": 5.5,
   "gravity": 4,
   "has_audio": {
    "Points": [
     {
      "co": {
       "X": 1.0,
       "Y": -1.0
      },
      "handle_left": {
       "X": 0.5,
       "Y": 1.0
      },
      "handle_right": {
       "X": 0.5,
       "Y": 0.0
      },
      "handle_type": 0,
      "interpolation": 0
     }
    ]
   },
   "has_video": {
    "Points": [
     {
      "co": {
       "X": 1.0,
       "Y": -1.0
      },
      "handle_left": {
       "X": 0.5,
       "Y": 1.0
      },
      "handle_right": {
       "X": 0.5,
       "Y": 0.0
      },
      "handle_type": 0,
      "interpolation": 0
     }
    ]
   },
   "id": "MTVD4DDSZX",
   "layer": 2000000,
   "location_x": {
    "Points": [
     {
      "co": {
       "X": 1,
       "Y": -0.2214650809764862
      },
      "handle_left": {
       "X": 0.5,
       "Y": 1.0
      },
      "handle_right": {
       "X": 0.5,
       "Y": 0.0
      },
      "handle_type": 0,
      "interpolation": 0
     }
    ]
   },
   "location_y": {
    "Points": [
     {
      "co": {
       "X": 1,
       "Y": -0.08787878747239257
      },
      "handle_left": {
       "X": 0.5,
       "Y": 1.0
      },
      "handle_right": {
       "X": 0.5,
       "Y": 0.0
      },
      "handle_type": 0,
      "interpolation": 0
     }
    ]
   },
   "mixing": 0,
   "origin_x": {
    "Points": [
     {
      "co": {
       "X": 1.0,
       "Y": 0.5
      },
      "handle_left": {
       "X": 0.5,
       "Y": 1.0
      },
      "handle_right": {
       "X": 0.5,
       "Y": 0.0
      },
      "handle_type": 0,
      "interpolation": 0
     }
    ]
   },
   "origin_y": {
    "Points": [
     {
      "co": {
       "X": 1.0,
       "Y": 0.5
      },
      "handle_left": {
       "X": 0.5,
       "Y": 1.0
      },
      "handle_right": {
       "X": 0.5,
       "Y": 0.0
      },
      "handle_type": 0,
      "interpolation": 0
     }
    ]
   },
   "parentObjectId": "",
   "perspective_c1_x": {
    "Points": [
     {
      "co": {
       "X": 1.0,
       "Y": -1.0
      },
      "handle_left": {
       "X": 0.5,
       "Y": 1.0
      },
      "handle_right": {
       "X": 0.5,
       "Y": 0.0
      },
      "handle_type": 0,
      "interpolation": 0
     }
    ]
   },
   "perspective_c1_y": {
    "Points": [
     {
      "co": {
       "X": 1.0,
       "Y": -1.0
      },
      "handle_left": {
       "X": 0.5,
       "Y": 1.0
      },
      "handle_right": {
       "X": 0.5,
       "Y": 0.0
      },
      "handle_type": 0,
      "interpolation": 0
     }
    ]
   },
   "perspective_c2_x": {
    "Points": [
     {
      "co": {
       "X": 1.0,
       "Y": -1.0
      },
      "handle_left": {
       "X": 0.5,
       "Y": 1.0
      },
      "handle_right": {
       "X": 0.5,
       "Y": 0.0
      },
      "handle_type": 0,
      "interpolation": 0
     }
    ]
   },
   "perspective_c2_y": {
    "Points": [
     {
      "co": {
       "X": 1.0,
       "Y": -1.0
      },
      "handle_left": {
       "X": 0.5,
       "Y": 1.0
      },
      "handle_right": {
       "X": 0.5,
       "Y": 0.0
      },
      "handle_type": 0,
      "interpolation": 0
     }
    ]
   },
   "perspective_c3_x": {
    "Points": [
     {
      "co": {
       "X": 1.0,
       "Y": -1.0
      },
      "handle_left": {
       "X": 0.5,
       "Y": 1.0
      },
      "handle_right": {
       "X": 0.5,
       "Y": 0.0
      },
      "handle_type": 0,
      "interpolation": 0
     }
    ]
   },
   "perspective_c3_y": {
    "Points": [
     {
      "co": {
       "X": 1.0,
       "Y": -1.0
      },
      "handle_left": {
       "X": 0.5,
       "Y": 1.0
      },
      "handle_right": {
       "X": 0.5,
       "Y": 0.0
      },
      "handle_type": 0,
      "interpolation": 0
     }
    ]
   },
   "perspective_c4_x": {
    "Points": [
     {
      "co": {
       "X": 1.0,
       "Y": -1.0
      },
      "handle_left": {
       "X": 0.5,
       "Y": 1.0
      },
      "handle_right": {
       "X": 0.5,
       "Y": 0.0
      },
      "handle_type": 0,
      "interpolation": 0
     }
    ]
   },
   "perspective_c4_y": {
    "Points": [
     {
      "co": {
       "X": 1.0,
       "Y": -1.0
      },
      "handle_left": {
       "X": 0.5,
       "Y": 1.0
      },
      "handle_right": {
       "X": 0.5,
       "Y": 0.0
      },
      "handle_type": 0,
      "interpolation": 0
     }
    ]
   },
   "position": 241.23333333333332,
   "reader": {
    "acodec": "",
    "audio_bit_rate": 0,
    "audio_stream_index": -1,
    "audio_timebase": {
     "den": 1,
     "num": 1
    },
    "channel_layout": 4,
    "channels": 0,
    "display_ratio": {
     "den": 18,
     "num": 53
    },
    "duration": 3600.0,
    "file_size": "6731424",
    "fps": {
     "den": 1,
     "num": 30
    },
    "has_audio": false,
    "has_single_image": true,
    "has_video": true,
    "height": 756,
    "interlaced_frame": false,
    "metadata": {},
    "path": "./drawing35.png",
    "pixel_format": -1,
    "pixel_ratio": {
     "den": 1,
     "num": 1
    },
    "sample_rate": 0,
    "top_field_first": true,
    "type": "QtImageReader",
    "vcodec": "",
    "video_bit_rate": 0,
    "video_length": "108000",
    "video_stream_index": -1,
    "video_timebase": {
     "den": 30,
     "num": 1
    },
    "width": 2226,
    "media_type": "image",
    "id": "IG6W43TDYJ"
   },
   "rotation": {
    "Points": [
     {
      "co": {
       "X": 1.0,
       "Y": 0.0
      },
      "handle_left": {
       "X": 0.5,
       "Y": 1.0
      },
      "handle_right": {
       "X": 0.5,
       "Y": 0.0
      },
      "handle_type": 0,
      "interpolation": 0
     }
    ]
   },
   "scale": 1,
   "scale_x": {
    "Points": [
     {
      "co": {
       "X": 1,
       "Y": 0.4684840955563664
      },
      "handle_left": {
       "X": 0.5,
       "Y": 1.0
      },
      "handle_right": {
       "X": 0.5,
       "Y": 0.0
      },
      "handle_type": 0,
      "interpolation": 0
     }
    ]
   },
   "scale_y": {
    "Points": [
     {
      "co": {
       "X": 1,
       "Y": 0.4684840955563664
      },
      "handle_left": {
       "X": 0.5,
       "Y": 1.0
      },
      "handle_right": {
       "X": 0.5,
       "Y": 0.0
      },
      "handle_type": 0,
      "interpolation": 0
     }
    ]
   },
   "shear_x": {
    "Points": [
     {
      "co": {
       "X": 1.0,
       "Y": 0.0
      },
      "handle_left": {
       "X": 0.5,
       "Y": 1.0
      },
      "handle_right": {
       "X": 0.5,
       "Y": 0.0
      },
      "handle_type": 0,
      "interpolation": 0
     }
    ]
   },
   "shear_y": {
    "Points": [
     {
      "co": {
       "X": 1.0,
       "Y": 0.0
      },
      "handle_left": {
       "X": 0.5,
       "Y": 1.0
      },
      "handle_right": {
       "X": 0.5,
       "Y": 0.0
      },
      "handle_type": 0,
      "interpolation": 0
     }
    ]
   },
   "start": 0,
   "time": {
    "Points": [
     {
      "co": {
       "X": 1.0,
       "Y": 1.0
      },
      "handle_left": {
       "X": 0.5,
       "Y": 1.0
      },
      "handle_right": {
       "X": 0.5,
       "Y": 0.0
      },
      "handle_type": 0,
      "interpolation": 0
     }
    ]
   },
   "volume": {
    "Points": [
     {
      "co": {
       "X": 1.0,
       "Y": 1.0
      },
      "handle_left": {
       "X": 0.5,
       "Y": 1.0
      },
      "handle_right": {
       "X": 0.5,
       "Y": 0.0
      },
      "handle_type": 0,
      "interpolation": 0
     }
    ]
   },
   "wave_color": {
    "alpha": {
     "Points": [
      {
       "co": {
        "X": 1.0,
        "Y": 255.0
       },
       "handle_left": {
        "X": 0.5,
        "Y": 1.0
       },
       "handle_right": {
        "X": 0.5,
        "Y": 0.0
       },
       "handle_type": 0,
       "interpolation": 0
      }
     ]
    },
    "blue": {
     "Points": [
      {
       "co": {
        "X": 1.0,
        "Y": 255.0
       },
       "handle_left": {
        "X": 0.5,
        "Y": 1.0
       },
       "handle_right": {
        "X": 0.5,
        "Y": 0.0
       },
       "handle_type": 0,
       "interpolation": 0
      }
     ]
    },
    "green": {
     "Points": [
      {
       "co": {
        "X": 1.0,
        "Y": 123.0
       },
       "handle_left": {
        "X": 0.5,
        "Y": 1.0
       },
       "handle_right": {
        "X": 0.5,
        "Y": 0.0
       },
       "handle_type": 0,
       "interpolation": 0
      }
     ]
    },
    "red": {
     "Points": [
      {
       "co": {
        "X": 1.0,
        "Y": 0.0
       },
       "handle_left": {
        "X": 0.5,
        "Y": 1.0
       },
       "handle_right": {
        "X": 0.5,
        "Y": 0.0
       },
       "handle_type": 0,
       "interpolation": 0
      }
     ]
    }
   },
   "waveform": false,
   "file_id": "IG6W43TDYJ",
   "title": "drawing35.png",
   "image": "Tutorial_assets/thumbnail/IG6W43TDYJ.png"
  },
  {
   "alpha": {
    "Points": [
     {
      "co": {
       "X": 1.0,
       "Y": 1.0
      },
      "handle_left": {
       "X": 0.5,
       "Y": 1.0
      },
      "handle_right": {
       "X": 0.5,
       "Y": 0.0
      },
      "handle_type": 0,
      "interpolation": 0
     }
    ]
   },
   "anchor": 0,
   "channel_filter": {
    "Points": [
     {
      "co": {
       "X": 1.0,
       "Y": -1.0
      },
      "handle_left": {
       "X": 0.5,
       "Y": 1.0
      },
      "handle_right": {
       "X": 0.5,
       "Y": 0.0
      },
      "handle_type": 0,
      "interpolation": 0
     }
    ]
   },
   "channel_mapping": {
    "Points": [
     {
      "co": {
       "X": 1.0,
       "Y": -1.0
      },
      "handle_left": {
       "X": 0.5,
       "Y": 1.0
      },
      "handle_right": {
       "X": 0.5,
       "Y": 0.0
      },
      "handle_type": 0,
      "interpolation": 0
     }
    ]
   },
   "display": 0,
   "duration": 43.29999923706055,
   "effects": [],
   "end": 37.06666666666671,
   "gravity": 4,
   "has_audio": {
    "Points": [
     {
      "co": {
       "X": 1.0,
       "Y": -1.0
      },
      "handle_left": {
       "X": 0.5,
       "Y": 1.0
      },
      "handle_right": {
       "X": 0.5,
       "Y": 0.0
      },
      "handle_type": 0,
      "interpolation": 0
     }
    ]
   },
   "has_video": {
    "Points": [
     {
      "co": {
       "X": 1.0,
       "Y": -1.0
      },
      "handle_left": {
       "X": 0.5,
       "Y": 1.0
      },
      "handle_right": {
       "X": 0.5,
       "Y": 0.0
      },
      "handle_type": 0,
      "interpolation": 0
     }
    ]
   },
   "layer": 1000000,
   "location_x": {
    "Points": [
     {
      "co": {
       "X": 1.0,
       "Y": 0.0
      },
      "handle_left": {
       "X": 0.5,
       "Y": 1.0
      },
      "handle_right": {
       "X": 0.5,
       "Y": 0.0
      },
      "handle_type": 0,
      "interpolation": 0
     }
    ]
   },
   "location_y": {
    "Points": [
     {
      "co": {
       "X": 1.0,
       "Y": 0.0
      },
      "handle_left": {
       "X": 0.5,
       "Y": 1.0
      },
      "handle_right": {
       "X": 0.5,
       "Y": 0.0
      },
      "handle_type": 0,
      "interpolation": 0
     }
    ]
   },
   "mixing": 0,
   "origin_x": {
    "Points": [
     {
      "co": {
       "X": 1.0,
       "Y": 0.5
      },
      "handle_left": {
       "X": 0.5,
       "Y": 1.0
      },
      "handle_right": {
       "X": 0.5,
       "Y": 0.0
      },
      "handle_type": 0,
      "interpolation": 0
     }
    ]
   },
   "origin_y": {
    "Points": [
     {
      "co": {
       "X": 1.0,
       "Y": 0.5
      },
      "handle_left": {
       "X": 0.5,
       "Y": 1.0
      },
      "handle_right": {
       "X": 0.5,
       "Y": 0.0
      },
      "handle_type": 0,
      "interpolation": 0
     }
    ]
   },
   "parentObjectId": "",
   "perspective_c1_x": {
    "Points": [
     {
      "co": {
       "X": 1.0,
       "Y": -1.0
      },
      "handle_left": {
       "X": 0.5,
       "Y": 1.0
      },
      "handle_right": {
       "X": 0.5,
       "Y": 0.0
      },
      "handle_type": 0,
      "interpolation": 0
     }
    ]
   },
   "perspective_c1_y": {
    "Points": [
     {
      "co": {
       "X": 1.0,
       "Y": -1.0
      },
      "handle_left": {
       "X": 0.5,
       "Y": 1.0
      },
      "handle_right": {
       "X": 0.5,
       "Y": 0.0
      },
      "handle_type": 0,
      "interpolation": 0
     }
    ]
   },
   "perspective_c2_x": {
    "Points": [
     {
      "co": {
       "X": 1.0,
       "Y": -1.0
      },
      "handle_left": {
       "X": 0.5,
       "Y": 1.0
      },
      "handle_right": {
       "X": 0.5,
       "Y": 0.0
      },
      "handle_type": 0,
      "interpolation": 0
     }
    ]
   },
   "perspective_c2_y": {
    "Points": [
     {
      "co": {
       "X": 1.0,
       "Y": -1.0
      },
      "handle_left": {
       "X": 0.5,
       "Y": 1.0
      },
      "handle_right": {
       "X": 0.5,
       "Y": 0.0
      },
      "handle_type": 0,
      "interpolation": 0
     }
    ]
   },
   "perspective_c3_x": {
    "Points": [
     {
      "co": {
       "X": 1.0,
       "Y": -1.0
      },
      "handle_left": {
       "X": 0.5,
       "Y": 1.0
      },
      "handle_right": {
       "X": 0.5,
       "Y": 0.0
      },
      "handle_type": 0,
      "interpolation": 0
     }
    ]
   },
   "perspective_c3_y": {
    "Points": [
     {
      "co": {
       "X": 1.0,
       "Y": -1.0
      },
      "handle_left": {
       "X": 0.5,
       "Y": 1.0
      },
      "handle_right": {
       "X": 0.5,
       "Y": 0.0
      },
      "handle_type": 0,
      "interpolation": 0
     }
    ]
   },
   "perspective_c4_x": {
    "Points": [
     {
      "co": {
       "X": 1.0,
       "Y": -1.0
      },
      "handle_left": {
       "X": 0.5,
       "Y": 1.0
      },
      "handle_right": {
       "X": 0.5,
       "Y": 0.0
      },
      "handle_type": 0,
      "interpolation": 0
     }
    ]
   },
   "perspective_c4_y": {
    "Points": [
     {
      "co": {
       "X": 1.0,
       "Y": -1.0
      },
      "handle_left": {
       "X": 0.5,
       "Y": 1.0
      },
      "handle_right": {
       "X": 0.5,
       "Y": 0.0
      },
      "handle_type": 0,
      "interpolation": 0
     }
    ]
   },
   "position": 246.9,
   "reader": {
    "acodec": "",
    "audio_bit_rate": 0,
    "audio_stream_index": -1,
    "audio_timebase": {
     "den": 1,
     "num": 1
    },
    "channel_layout": 4,
    "channels": 0,
    "display_ratio": {
     "den": 9,
     "num": 16
    },
    "duration": 43.29999923706055,
    "file_size": "20461332",
    "fps": {
     "den": 1,
     "num": 30
    },
    "has_audio": false,
    "has_single_image": false,
    "has_video": true,
    "height": 1080,
    "interlaced_frame": false,
    "metadata": {
     "compatible_brands": "mp41isom",
     "creation_time": "2024-05-23T17:52:53.000000Z",
     "encoder": "AVC Coding",
     "handler_name": "VideoHandler",
     "language": "und",
     "major_brand": "mp42",
     "minor_version": "0"
    },
    "path": "./Movie_005.mp4",
    "pixel_format": 0,
    "pixel_ratio": {
     "den": 1,
     "num": 1
    },
    "sample_rate": 0,
    "top_field_first": true,
    "type": "FFmpegReader",
    "vcodec": "h264",
    "video_bit_rate": 472548,
    "video_length": "1299",
    "video_stream_index": 0,
    "video_timebase": {
     "den": 30000,
     "num": 1
    },
    "width": 1920,
    "media_type": "video",
    "id": "H2KZ1ELZ4W",
    "image": "Tutorial_assets/thumbnail/H2KZ1ELZ4W.png"
   },
   "rotation": {
    "Points": [
     {
      "co": {
       "X": 1.0,
       "Y": 0.0
      },
      "handle_left": {
       "X": 0.5,
       "Y": 1.0
      },
      "handle_right": {
       "X": 0.5,
       "Y": 0.0
      },
      "handle_type": 0,
      "interpolation": 0
     }
    ]
   },
   "scale": 1,
   "scale_x": {
    "Points": [
     {
      "co": {
       "X": 1.0,
       "Y": 1.0
      },
      "handle_left": {
       "X": 0.5,
       "Y": 1.0
      },
      "handle_right": {
       "X": 0.5,
       "Y": 0.0
      },
      "handle_type": 0,
      "interpolation": 0
     }
    ]
   },
   "scale_y": {
    "Points": [
     {
      "co": {
       "X": 1.0,
       "Y": 1.0
      },
      "handle_left": {
       "X": 0.5,
       "Y": 1.0
      },
      "handle_right": {
       "X": 0.5,
       "Y": 0.0
      },
      "handle_type": 0,
      "interpolation": 0
     }
    ]
   },
   "shear_x": {
    "Points": [
     {
      "co": {
       "X": 1.0,
       "Y": 0.0
      },
      "handle_left": {
       "X": 0.5,
       "Y": 1.0
      },
      "handle_right": {
       "X": 0.5,
       "Y": 0.0
      },
      "handle_type": 0,
      "interpolation": 0
     }
    ]
   },
   "shear_y": {
    "Points": [
     {
      "co": {
       "X": 1.0,
       "Y": 0.0
      },
      "handle_left": {
       "X": 0.5,
       "Y": 1.0
      },
      "handle_right": {
       "X": 0.5,
       "Y": 0.0
      },
      "handle_type": 0,
      "interpolation": 0
     }
    ]
   },
   "start": 33.966666666666725,
   "time": {
    "Points": [
     {
      "co": {
       "X": 1.0,
       "Y": 1.0
      },
      "handle_left": {
       "X": 0.5,
       "Y": 1.0
      },
      "handle_right": {
       "X": 0.5,
       "Y": 0.0
      },
      "handle_type": 0,
      "interpolation": 0
     }
    ]
   },
   "volume": {
    "Points": [
     {
      "co": {
       "X": 1.0,
       "Y": 1.0
      },
      "handle_left": {
       "X": 0.5,
       "Y": 1.0
      },
      "handle_right": {
       "X": 0.5,
       "Y": 0.0
      },
      "handle_type": 0,
      "interpolation": 0
     }
    ]
   },
   "wave_color": {
    "alpha": {
     "Points": [
      {
       "co": {
        "X": 1.0,
        "Y": 255.0
       },
       "handle_left": {
        "X": 0.5,
        "Y": 1.0
       },
       "handle_right": {
        "X": 0.5,
        "Y": 0.0
       },
       "handle_type": 0,
       "interpolation": 0
      }
     ]
    },
    "blue": {
     "Points": [
      {
       "co": {
        "X": 1.0,
        "Y": 255.0
       },
       "handle_left": {
        "X": 0.5,
        "Y": 1.0
       },
       "handle_right": {
        "X": 0.5,
        "Y": 0.0
       },
       "handle_type": 0,
       "interpolation": 0
      }
     ]
    },
    "green": {
     "Points": [
      {
       "co": {
        "X": 1.0,
        "Y": 123.0
       },
       "handle_left": {
        "X": 0.5,
        "Y": 1.0
       },
       "handle_right": {
        "X": 0.5,
        "Y": 0.0
       },
       "handle_type": 0,
       "interpolation": 0
      }
     ]
    },
    "red": {
     "Points": [
      {
       "co": {
        "X": 1.0,
        "Y": 0.0
       },
       "handle_left": {
        "X": 0.5,
        "Y": 1.0
       },
       "handle_right": {
        "X": 0.5,
        "Y": 0.0
       },
       "handle_type": 0,
       "interpolation": 0
      }
     ]
    }
   },
   "waveform": false,
   "file_id": "H2KZ1ELZ4W",
   "title": "Movie_005.mp4",
   "image": "Tutorial_assets/thumbnail/H2KZ1ELZ4W.png",
   "id": "31653Z6GUE"
  },
  {
   "alpha": {
    "Points": [
     {
      "co": {
       "X": 1.0,
       "Y": 1.0
      },
      "handle_left": {
       "X": 0.5,
       "Y": 1.0
      },
      "handle_right": {
       "X": 0.5,
       "Y": 0.0
      },
      "handle_type": 0,
      "interpolation": 0
     }
    ]
   },
   "anchor": 0,
   "channel_filter": {
    "Points": [
     {
      "co": {
       "X": 1.0,
       "Y": -1.0
      },
      "handle_left": {
       "X": 0.5,
       "Y": 1.0
      },
      "handle_right": {
       "X": 0.5,
       "Y": 0.0
      },
      "handle_type": 0,
      "interpolation": 0
     }
    ]
   },
   "channel_mapping": {
    "Points": [
     {
      "co": {
       "X": 1.0,
       "Y": -1.0
      },
      "handle_left": {
       "X": 0.5,
       "Y": 1.0
      },
      "handle_right": {
       "X": 0.5,
       "Y": 0.0
      },
      "handle_type": 0,
      "interpolation": 0
     }
    ]
   },
   "display": 0,
   "duration": 3600.0,
   "effects": [],
   "end": 5.366666666666642,
   "gravity": 4,
   "has_audio": {
    "Points": [
     {
      "co": {
       "X": 1.0,
       "Y": -1.0
      },
      "handle_left": {
       "X": 0.5,
       "Y": 1.0
      },
      "handle_right": {
       "X": 0.5,
       "Y": 0.0
      },
      "handle_type": 0,
      "interpolation": 0
     }
    ]
   },
   "has_video": {
    "Points": [
     {
      "co": {
       "X": 1.0,
       "Y": -1.0
      },
      "handle_left": {
       "X": 0.5,
       "Y": 1.0
      },
      "handle_right": {
       "X": 0.5,
       "Y": 0.0
      },
      "handle_type": 0,
      "interpolation": 0
     }
    ]
   },
   "id": "PAYLWLYYO0",
   "layer": 1000000,
   "location_x": {
    "Points": [
     {
      "co": {
       "X": 1.0,
       "Y": 0.0
      },
      "handle_left": {
       "X": 0.5,
       "Y": 1.0
      },
      "handle_right": {
       "X": 0.5,
       "Y": 0.0
      },
      "handle_type": 0,
      "interpolation": 0
     }
    ]
   },
   "location_y": {
    "Points": [
     {
      "co": {
       "X": 1.0,
       "Y": 0.0
      },
      "handle_left": {
       "X": 0.5,
       "Y": 1.0
      },
      "handle_right": {
       "X": 0.5,
       "Y": 0.0
      },
      "handle_type": 0,
      "interpolation": 0
     }
    ]
   },
   "mixing": 0,
   "origin_x": {
    "Points": [
     {
      "co": {
       "X": 1.0,
       "Y": 0.5
      },
      "handle_left": {
       "X": 0.5,
       "Y": 1.0
      },
      "handle_right": {
       "X": 0.5,
       "Y": 0.0
      },
      "handle_type": 0,
      "interpolation": 0
     }
    ]
   },
   "origin_y": {
    "Points": [
     {
      "co": {
       "X": 1.0,
       "Y": 0.5
      },
      "handle_left": {
       "X": 0.5,
       "Y": 1.0
      },
      "handle_right": {
       "X": 0.5,
       "Y": 0.0
      },
      "handle_type": 0,
      "interpolation": 0
     }
    ]
   },
   "parentObjectId": "",
   "perspective_c1_x": {
    "Points": [
     {
      "co": {
       "X": 1.0,
       "Y": -1.0
      },
      "handle_left": {
       "X": 0.5,
       "Y": 1.0
      },
      "handle_right": {
       "X": 0.5,
       "Y": 0.0
      },
      "handle_type": 0,
      "interpolation": 0
     }
    ]
   },
   "perspective_c1_y": {
    "Points": [
     {
      "co": {
       "X": 1.0,
       "Y": -1.0
      },
      "handle_left": {
       "X": 0.5,
       "Y": 1.0
      },
      "handle_right": {
       "X": 0.5,
       "Y": 0.0
      },
      "handle_type": 0,
      "interpolation": 0
     }
    ]
   },
   "perspective_c2_x": {
    "Points": [
     {
      "co": {
       "X": 1.0,
       "Y": -1.0
      },
      "handle_left": {
       "X": 0.5,
       "Y": 1.0
      },
      "handle_right": {
       "X": 0.5,
       "Y": 0.0
      },
      "handle_type": 0,
      "interpolation": 0
     }
    ]
   },
   "perspective_c2_y": {
    "Points": [
     {
      "co": {
       "X": 1.0,
       "Y": -1.0
      },
      "handle_left": {
       "X": 0.5,
       "Y": 1.0
      },
      "handle_right": {
       "X": 0.5,
       "Y": 0.0
      },
      "handle_type": 0,
      "interpolation": 0
     }
    ]
   },
   "perspective_c3_x": {
    "Points": [
     {
      "co": {
       "X": 1.0,
       "Y": -1.0
      },
      "handle_left": {
       "X": 0.5,
       "Y": 1.0
      },
      "handle_right": {
       "X": 0.5,
       "Y": 0.0
      },
      "handle_type": 0,
      "interpolation": 0
     }
    ]
   },
   "perspective_c3_y": {
    "Points": [
     {
      "co": {
       "X": 1.0,
       "Y": -1.0
      },
      "handle_left": {
       "X": 0.5,
       "Y": 1.0
      },
      "handle_right": {
       "X": 0.5,
       "Y": 0.0
      },
      "handle_type": 0,
      "interpolation": 0
     }
    ]
   },
   "perspective_c4_x": {
    "Points": [
     {
      "co": {
       "X": 1.0,
       "Y": -1.0
      },
      "handle_left": {
       "X": 0.5,
       "Y": 1.0
      },
      "handle_right": {
       "X": 0.5,
       "Y": 0.0
      },
      "handle_type": 0,
      "interpolation": 0
     }
    ]
   },
   "perspective_c4_y": {
    "Points": [
     {
      "co": {
       "X": 1.0,
       "Y": -1.0
      },
      "handle_left": {
       "X": 0.5,
       "Y": 1.0
      },
      "handle_right": {
       "X": 0.5,
       "Y": 0.0
      },
      "handle_type": 0,
      "interpolation": 0
     }
    ]
   },
   "position": 241.53333333333333,
   "reader": {
    "acodec": "",
    "audio_bit_rate": 0,
    "audio_stream_index": -1,
    "audio_timebase": {
     "den": 1,
     "num": 1
    },
    "channel_layout": 4,
    "channels": 0,
    "display_ratio": {
     "den": 9,
     "num": 16
    },
    "duration": 3600.0,
    "file_size": "8294400",
    "fps": {
     "den": 1,
     "num": 30
    },
    "has_audio": false,
    "has_single_image": true,
    "has_video": true,
    "height": 1080,
    "interlaced_frame": false,
    "metadata": {},
    "path": "./Frame-07117.png",
    "pixel_format": -1,
    "pixel_ratio": {
     "den": 1,
     "num": 1
    },
    "sample_rate": 0,
    "top_field_first": true,
    "type": "QtImageReader",
    "vcodec": "",
    "video_bit_rate": 0,
    "video_length": "108000",
    "video_stream_index": -1,
    "video_timebase": {
     "den": 30,
     "num": 1
    },
    "width": 1920,
    "media_type": "image",
    "id": "84TP24E78M"
   },
   "rotation": {
    "Points": [
     {
      "co": {
       "X": 1.0,
       "Y": 0.0
      },
      "handle_left": {
       "X": 0.5,
       "Y": 1.0
      },
      "handle_right": {
       "X": 0.5,
       "Y": 0.0
      },
      "handle_type": 0,
      "interpolation": 0
     }
    ]
   },
   "scale": 1,
   "scale_x": {
    "Points": [
     {
      "co": {
       "X": 1.0,
       "Y": 1.0
      },
      "handle_left": {
       "X": 0.5,
       "Y": 1.0
      },
      "handle_right": {
       "X": 0.5,
       "Y": 0.0
      },
      "handle_type": 0,
      "interpolation": 0
     }
    ]
   },
   "scale_y": {
    "Points": [
     {
      "co": {
       "X": 1.0,
       "Y": 1.0
      },
      "handle_left": {
       "X": 0.5,
       "Y": 1.0
      },
      "handle_right": {
       "X": 0.5,
       "Y": 0.0
      },
      "handle_type": 0,
      "interpolation": 0
     }
    ]
   },
   "shear_x": {
    "Points": [
     {
      "co": {
       "X": 1.0,
       "Y": 0.0
      },
      "handle_left": {
       "X": 0.5,
       "Y": 1.0
      },
      "handle_right": {
       "X": 0.5,
       "Y": 0.0
      },
      "handle_type": 0,
      "interpolation": 0
     }
    ]
   },
   "shear_y": {
    "Points": [
     {
      "co": {
       "X": 1.0,
       "Y": 0.0
      },
      "handle_left": {
       "X": 0.5,
       "Y": 1.0
      },
      "handle_right": {
       "X": 0.5,
       "Y": 0.0
      },
      "handle_type": 0,
      "interpolation": 0
     }
    ]
   },
   "start": 0,
   "time": {
    "Points": [
     {
      "co": {
       "X": 1.0,
       "Y": 1.0
      },
      "handle_left": {
       "X": 0.5,
       "Y": 1.0
      },
      "handle_right": {
       "X": 0.5,
       "Y": 0.0
      },
      "handle_type": 0,
      "interpolation": 0
     }
    ]
   },
   "volume": {
    "Points": [
     {
      "co": {
       "X": 1.0,
       "Y": 1.0
      },
      "handle_left": {
       "X": 0.5,
       "Y": 1.0
      },
      "handle_right": {
       "X": 0.5,
       "Y": 0.0
      },
      "handle_type": 0,
      "interpolation": 0
     }
    ]
   },
   "wave_color": {
    "alpha": {
     "Points": [
      {
       "co": {
        "X": 1.0,
        "Y": 255.0
       },
       "handle_left": {
        "X": 0.5,
        "Y": 1.0
       },
       "handle_right": {
        "X": 0.5,
        "Y": 0.0
       },
       "handle_type": 0,
       "interpolation": 0
      }
     ]
    },
    "blue": {
     "Points": [
      {
       "co": {
        "X": 1.0,
        "Y": 255.0
       },
       "handle_left": {
        "X": 0.5,
        "Y": 1.0
       },
       "handle_right": {
        "X": 0.5,
        "Y": 0.0
       },
       "handle_type": 0,
       "interpolation": 0
      }
     ]
    },
    "green": {
     "Points": [
      {
       "co": {
        "X": 1.0,
        "Y": 123.0
       },
       "handle_left": {
        "X": 0.5,
        "Y": 1.0
       },
       "handle_right": {
        "X": 0.5,
        "Y": 0.0
       },
       "handle_type": 0,
       "interpolation": 0
      }
     ]
    },
    "red": {
     "Points": [
      {
       "co": {
        "X": 1.0,
        "Y": 0.0
       },
       "handle_left": {
        "X": 0.5,
        "Y": 1.0
       },
       "handle_right": {
        "X": 0.5,
        "Y": 0.0
       },
       "handle_type": 0,
       "interpolation": 0
      }
     ]
    }
   },
   "waveform": false,
   "file_id": "84TP24E78M",
   "title": "Frame-07117.png",
   "image": "Tutorial_assets/thumbnail/84TP24E78M.png"
  },
  {
   "alpha": {
    "Points": [
     {
      "co": {
       "X": 1.0,
       "Y": 1.0
      },
      "handle_left": {
       "X": 0.5,
       "Y": 1.0
      },
      "handle_right": {
       "X": 0.5,
       "Y": 0.0
      },
      "handle_type": 0,
      "interpolation": 0
     }
    ]
   },
   "anchor": 0,
   "channel_filter": {
    "Points": [
     {
      "co": {
       "X": 1.0,
       "Y": -1.0
      },
      "handle_left": {
       "X": 0.5,
       "Y": 1.0
      },
      "handle_right": {
       "X": 0.5,
       "Y": 0.0
      },
      "handle_type": 0,
      "interpolation": 0
     }
    ]
   },
   "channel_mapping": {
    "Points": [
     {
      "co": {
       "X": 1.0,
       "Y": -1.0
      },
      "handle_left": {
       "X": 0.5,
       "Y": 1.0
      },
      "handle_right": {
       "X": 0.5,
       "Y": 0.0
      },
      "handle_type": 0,
      "interpolation": 0
     }
    ]
   },
   "display": 0,
   "duration": 3600.0,
   "effects": [],
   "end": 8.458333333333321,
   "gravity": 4,
   "has_audio": {
    "Points": [
     {
      "co": {
       "X": 1.0,
       "Y": -1.0
      },
      "handle_left": {
       "X": 0.5,
       "Y": 1.0
      },
      "handle_right": {
       "X": 0.5,
       "Y": 0.0
      },
      "handle_type": 0,
      "interpolation": 0
     }
    ]
   },
   "has_video": {
    "Points": [
     {
      "co": {
       "X": 1.0,
       "Y": -1.0
      },
      "handle_left": {
       "X": 0.5,
       "Y": 1.0
      },
      "handle_right": {
       "X": 0.5,
       "Y": 0.0
      },
      "handle_type": 0,
      "interpolation": 0
     }
    ]
   },
   "id": "T0HJF7LXYS",
   "layer": 2000000,
   "location_x": {
    "Points": [
     {
      "co": {
       "X": 1,
       "Y": -0.2614991366863251
      },
      "handle_left": {
       "X": 0.5,
       "Y": 1.0
      },
      "handle_right": {
       "X": 0.5,
       "Y": 0.0
      },
      "handle_type": 0,
      "interpolation": 0
     }
    ]
   },
   "location_y": {
    "Points": [
     {
      "co": {
       "X": 1,
       "Y": -0.08030304023713776
      },
      "handle_left": {
       "X": 0.5,
       "Y": 1.0
      },
      "handle_right": {
       "X": 0.5,
       "Y": 0.0
      },
      "handle_type": 0,
      "interpolation": 0
     }
    ]
   },
   "mixing": 0,
   "origin_x": {
    "Points": [
     {
      "co": {
       "X": 1.0,
       "Y": 0.5
      },
      "handle_left": {
       "X": 0.5,
       "Y": 1.0
      },
      "handle_right": {
       "X": 0.5,
       "Y": 0.0
      },
      "handle_type": 0,
      "interpolation": 0
     }
    ]
   },
   "origin_y": {
    "Points": [
     {
      "co": {
       "X": 1.0,
       "Y": 0.5
      },
      "handle_left": {
       "X": 0.5,
       "Y": 1.0
      },
      "handle_right": {
       "X": 0.5,
       "Y": 0.0
      },
      "handle_type": 0,
      "interpolation": 0
     }
    ]
   },
   "parentObjectId": "",
   "perspective_c1_x": {
    "Points": [
     {
      "co": {
       "X": 1.0,
       "Y": -1.0
      },
      "handle_left": {
       "X": 0.5,
       "Y": 1.0
      },
      "handle_right": {
       "X": 0.5,
       "Y": 0.0
      },
      "handle_type": 0,
      "interpolation": 0
     }
    ]
   },
   "perspective_c1_y": {
    "Points": [
     {
      "co": {
       "X": 1.0,
       "Y": -1.0
      },
      "handle_left": {
       "X": 0.5,
       "Y": 1.0
      },
      "handle_right": {
       "X": 0.5,
       "Y": 0.0
      },
      "handle_type": 0,
      "interpolation": 0
     }
    ]
   },
   "perspective_c2_x": {
    "Points": [
     {
      "co": {
       "X": 1.0,
       "Y": -1.0
      },
      "handle_left": {
       "X": 0.5,
       "Y": 1.0
      },
      "handle_right": {
       "X": 0.5,
       "Y": 0.0
      },
      "handle_type": 0,
      "interpolation": 0
     }
    ]
   },
   "perspective_c2_y": {
    "Points": [
     {
      "co": {
       "X": 1.0,
       "Y": -1.0
      },
      "handle_left": {
       "X": 0.5,
       "Y": 1.0
      },
      "handle_right": {
       "X": 0.5,
       "Y": 0.0
      },
      "handle_type": 0,
      "interpolation": 0
     }
    ]
   },
   "perspective_c3_x": {
    "Points": [
     {
      "co": {
       "X": 1.0,
       "Y": -1.0
      },
      "handle_left": {
       "X": 0.5,
       "Y": 1.0
      },
      "handle_right": {
       "X": 0.5,
       "Y": 0.0
      },
      "handle_type": 0,
      "interpolation": 0
     }
    ]
   },
   "perspective_c3_y": {
    "Points": [
     {
      "co": {
       "X": 1.0,
       "Y": -1.0
      },
      "handle_left": {
       "X": 0.5,
       "Y": 1.0
      },
      "handle_right": {
       "X": 0.5,
       "Y": 0.0
      },
      "handle_type": 0,
      "interpolation": 0
     }
    ]
   },
   "perspective_c4_x": {
    "Points": [
     {
      "co": {
       "X": 1.0,
       "Y": -1.0
      },
      "handle_left": {
       "X": 0.5,
       "Y": 1.0
      },
      "handle_right": {
       "X": 0.5,
       "Y": 0.0
      },
      "handle_type": 0,
      "interpolation": 0
     }
    ]
   },
   "perspective_c4_y": {
    "Points": [
     {
      "co": {
       "X": 1.0,
       "Y": -1.0
      },
      "handle_left": {
       "X": 0.5,
       "Y": 1.0
      },
      "handle_right": {
       "X": 0.5,
       "Y": 0.0
      },
      "handle_type": 0,
      "interpolation": 0
     }
    ]
   },
   "position": 228.73333333333332,
   "reader": {
    "acodec": "",
    "audio_bit_rate": 0,
    "audio_stream_index": -1,
    "audio_timebase": {
     "den": 1,
     "num": 1
    },
    "channel_layout": 4,
    "channels": 0,
    "display_ratio": {
     "den": 613,
     "num": 1854
    },
    "duration": 3600.0,
    "file_size": "4546008",
    "fps": {
     "den": 1,
     "num": 30
    },
    "has_audio": false,
    "has_single_image": true,
    "has_video": true,
    "height": 613,
    "interlaced_frame": false,
    "metadata": {},
    "path": "./drawing36.png",
    "pixel_format": -1,
    "pixel_ratio": {
     "den": 1,
     "num": 1
    },
    "sample_rate": 0,
    "top_field_first": true,
    "type": "QtImageReader",
    "vcodec": "",
    "video_bit_rate": 0,
    "video_length": "108000",
    "video_stream_index": -1,
    "video_timebase": {
     "den": 30,
     "num": 1
    },
    "width": 1854,
    "media_type": "image",
    "id": "7VE1IFXBD7",
    "image": "Tutorial_assets/thumbnail/7VE1IFXBD7.png"
   },
   "rotation": {
    "Points": [
     {
      "co": {
       "X": 1.0,
       "Y": 0.0
      },
      "handle_left": {
       "X": 0.5,
       "Y": 1.0
      },
      "handle_right": {
       "X": 0.5,
       "Y": 0.0
      },
      "handle_type": 0,
      "interpolation": 0
     }
    ]
   },
   "scale": 1,
   "scale_x": {
    "Points": [
     {
      "co": {
       "X": 1,
       "Y": 0.3833049237728119
      },
      "handle_left": {
       "X": 0.5,
       "Y": 1.0
      },
      "handle_right": {
       "X": 0.5,
       "Y": 0.0
      },
      "handle_type": 0,
      "interpolation": 0
     }
    ]
   },
   "scale_y": {
    "Points": [
     {
      "co": {
       "X": 1,
       "Y": 0.3833049237728119
      },
      "handle_left": {
       "X": 0.5,
       "Y": 1.0
      },
      "handle_right": {
       "X": 0.5,
       "Y": 0.0
      },
      "handle_type": 0,
      "interpolation": 0
     }
    ]
   },
   "shear_x": {
    "Points": [
     {
      "co": {
       "X": 1.0,
       "Y": 0.0
      },
      "handle_left": {
       "X": 0.5,
       "Y": 1.0
      },
      "handle_right": {
       "X": 0.5,
       "Y": 0.0
      },
      "handle_type": 0,
      "interpolation": 0
     }
    ]
   },
   "shear_y": {
    "Points": [
     {
      "co": {
       "X": 1.0,
       "Y": 0.0
      },
      "handle_left": {
       "X": 0.5,
       "Y": 1.0
      },
      "handle_right": {
       "X": 0.5,
       "Y": 0.0
      },
      "handle_type": 0,
      "interpolation": 0
     }
    ]
   },
   "start": 0,
   "time": {
    "Points": [
     {
      "co": {
       "X": 1.0,
       "Y": 1.0
      },
      "handle_left": {
       "X": 0.5,
       "Y": 1.0
      },
      "handle_right": {
       "X": 0.5,
       "Y": 0.0
      },
      "handle_type": 0,
      "interpolation": 0
     }
    ]
   },
   "volume": {
    "Points": [
     {
      "co": {
       "X": 1.0,
       "Y": 1.0
      },
      "handle_left": {
       "X": 0.5,
       "Y": 1.0
      },
      "handle_right": {
       "X": 0.5,
       "Y": 0.0
      },
      "handle_type": 0,
      "interpolation": 0
     }
    ]
   },
   "wave_color": {
    "alpha": {
     "Points": [
      {
       "co": {
        "X": 1.0,
        "Y": 255.0
       },
       "handle_left": {
        "X": 0.5,
        "Y": 1.0
       },
       "handle_right": {
        "X": 0.5,
        "Y": 0.0
       },
       "handle_type": 0,
       "interpolation": 0
      }
     ]
    },
    "blue": {
     "Points": [
      {
       "co": {
        "X": 1.0,
        "Y": 255.0
       },
       "handle_left": {
        "X": 0.5,
        "Y": 1.0
       },
       "handle_right": {
        "X": 0.5,
        "Y": 0.0
       },
       "handle_type": 0,
       "interpolation": 0
      }
     ]
    },
    "green": {
     "Points": [
      {
       "co": {
        "X": 1.0,
        "Y": 123.0
       },
       "handle_left": {
        "X": 0.5,
        "Y": 1.0
       },
       "handle_right": {
        "X": 0.5,
        "Y": 0.0
       },
       "handle_type": 0,
       "interpolation": 0
      }
     ]
    },
    "red": {
     "Points": [
      {
       "co": {
        "X": 1.0,
        "Y": 0.0
       },
       "handle_left": {
        "X": 0.5,
        "Y": 1.0
       },
       "handle_right": {
        "X": 0.5,
        "Y": 0.0
       },
       "handle_type": 0,
       "interpolation": 0
      }
     ]
    }
   },
   "waveform": false,
   "file_id": "7VE1IFXBD7",
   "title": "drawing36.png",
   "image": "Tutorial_assets/thumbnail/7VE1IFXBD7.png"
  },
  {
   "alpha": {
    "Points": [
     {
      "co": {
       "X": 1.0,
       "Y": 1.0
      },
      "handle_left": {
       "X": 0.5,
       "Y": 1.0
      },
      "handle_right": {
       "X": 0.5,
       "Y": 0.0
      },
      "handle_type": 0,
      "interpolation": 0
     }
    ]
   },
   "anchor": 0,
   "channel_filter": {
    "Points": [
     {
      "co": {
       "X": 1.0,
       "Y": -1.0
      },
      "handle_left": {
       "X": 0.5,
       "Y": 1.0
      },
      "handle_right": {
       "X": 0.5,
       "Y": 0.0
      },
      "handle_type": 0,
      "interpolation": 0
     }
    ]
   },
   "channel_mapping": {
    "Points": [
     {
      "co": {
       "X": 1.0,
       "Y": -1.0
      },
      "handle_left": {
       "X": 0.5,
       "Y": 1.0
      },
      "handle_right": {
       "X": 0.5,
       "Y": 0.0
      },
      "handle_type": 0,
      "interpolation": 0
     }
    ]
   },
   "display": 0,
   "duration": 3600.0,
   "effects": [],
   "end": 4.7,
   "gravity": 4,
   "has_audio": {
    "Points": [
     {
      "co": {
       "X": 1.0,
       "Y": -1.0
      },
      "handle_left": {
       "X": 0.5,
       "Y": 1.0
      },
      "handle_right": {
       "X": 0.5,
       "Y": 0.0
      },
      "handle_type": 0,
      "interpolation": 0
     }
    ]
   },
   "has_video": {
    "Points": [
     {
      "co": {
       "X": 1.0,
       "Y": -1.0
      },
      "handle_left": {
       "X": 0.5,
       "Y": 1.0
      },
      "handle_right": {
       "X": 0.5,
       "Y": 0.0
      },
      "handle_type": 0,
      "interpolation": 0
     }
    ]
   },
   "id": "30CPLEA4BX",
   "layer": 1000000,
   "location_x": {
    "Points": [
     {
      "co": {
       "X": 1.0,
       "Y": 0.0
      },
      "handle_left": {
       "X": 0.5,
       "Y": 1.0
      },
      "handle_right": {
       "X": 0.5,
       "Y": 0.0
      },
      "handle_type": 0,
      "interpolation": 0
     }
    ]
   },
   "location_y": {
    "Points": [
     {
      "co": {
       "X": 1.0,
       "Y": 0.0
      },
      "handle_left": {
       "X": 0.5,
       "Y": 1.0
      },
      "handle_right": {
       "X": 0.5,
       "Y": 0.0
      },
      "handle_type": 0,
      "interpolation": 0
     }
    ]
   },
   "mixing": 0,
   "origin_x": {
    "Points": [
     {
      "co": {
       "X": 1.0,
       "Y": 0.5
      },
      "handle_left": {
       "X": 0.5,
       "Y": 1.0
      },
      "handle_right": {
       "X": 0.5,
       "Y": 0.0
      },
      "handle_type": 0,
      "interpolation": 0
     }
    ]
   },
   "origin_y": {
    "Points": [
     {
      "co": {
       "X": 1.0,
       "Y": 0.5
      },
      "handle_left": {
       "X": 0.5,
       "Y": 1.0
      },
      "handle_right": {
       "X": 0.5,
       "Y": 0.0
      },
      "handle_type": 0,
      "interpolation": 0
     }
    ]
   },
   "parentObjectId": "",
   "perspective_c1_x": {
    "Points": [
     {
      "co": {
       "X": 1.0,
       "Y": -1.0
      },
      "handle_left": {
       "X": 0.5,
       "Y": 1.0
      },
      "handle_right": {
       "X": 0.5,
       "Y": 0.0
      },
      "handle_type": 0,
      "interpolation": 0
     }
    ]
   },
   "perspective_c1_y": {
    "Points": [
     {
      "co": {
       "X": 1.0,
       "Y": -1.0
      },
      "handle_left": {
       "X": 0.5,
       "Y": 1.0
      },
      "handle_right": {
       "X": 0.5,
       "Y": 0.0
      },
      "handle_type": 0,
      "interpolation": 0
     }
    ]
   },
   "perspective_c2_x": {
    "Points": [
     {
      "co": {
       "X": 1.0,
       "Y": -1.0
      },
      "handle_left": {
       "X": 0.5,
       "Y": 1.0
      },
      "handle_right": {
       "X": 0.5,
       "Y": 0.0
      },
      "handle_type": 0,
      "interpolation": 0
     }
    ]
   },
   "perspective_c2_y": {
    "Points": [
     {
      "co": {
       "X": 1.0,
       "Y": -1.0
      },
      "handle_left": {
       "X": 0.5,
       "Y": 1.0
      },
      "handle_right": {
       "X": 0.5,
       "Y": 0.0
      },
      "handle_type": 0,
      "interpolation": 0
     }
    ]
   },
   "perspective_c3_x": {
    "Points": [
     {
      "co": {
       "X": 1.0,
       "Y": -1.0
      },
      "handle_left": {
       "X": 0.5,
       "Y": 1.0
      },
      "handle_right": {
       "X": 0.5,
       "Y": 0.0
      },
      "handle_type": 0,
      "interpolation": 0
     }
    ]
   },
   "perspective_c3_y": {
    "Points": [
     {
      "co": {
       "X": 1.0,
       "Y": -1.0
      },
      "handle_left": {
       "X": 0.5,
       "Y": 1.0
      },
      "handle_right": {
       "X": 0.5,
       "Y": 0.0
      },
      "handle_type": 0,
      "interpolation": 0
     }
    ]
   },
   "perspective_c4_x": {
    "Points": [
     {
      "co": {
       "X": 1.0,
       "Y": -1.0
      },
      "handle_left": {
       "X": 0.5,
       "Y": 1.0
      },
      "handle_right": {
       "X": 0.5,
       "Y": 0.0
      },
      "handle_type": 0,
      "interpolation": 0
     }
    ]
   },
   "perspective_c4_y": {
    "Points": [
     {
      "co": {
       "X": 1.0,
       "Y": -1.0
      },
      "handle_left": {
       "X": 0.5,
       "Y": 1.0
      },
      "handle_right": {
       "X": 0.5,
       "Y": 0.0
      },
      "handle_type": 0,
      "interpolation": 0
     }
    ]
   },
   "position": 228.43333333333334,
   "reader": {
    "acodec": "",
    "audio_bit_rate": 0,
    "audio_stream_index": -1,
    "audio_timebase": {
     "den": 1,
     "num": 1
    },
    "channel_layout": 4,
    "channels": 0,
    "display_ratio": {
     "den": 9,
     "num": 16
    },
    "duration": 3600.0,
    "file_size": "8294400",
    "fps": {
     "den": 1,
     "num": 30
    },
    "has_audio": false,
    "has_single_image": true,
    "has_video": true,
    "height": 1080,
    "interlaced_frame": false,
    "metadata": {},
    "path": "./Frame-06854.png",
    "pixel_format": -1,
    "pixel_ratio": {
     "den": 1,
     "num": 1
    },
    "sample_rate": 0,
    "top_field_first": true,
    "type": "QtImageReader",
    "vcodec": "",
    "video_bit_rate": 0,
    "video_length": "108000",
    "video_stream_index": -1,
    "video_timebase": {
     "den": 30,
     "num": 1
    },
    "width": 1920,
    "media_type": "image",
    "id": "4QMICLJUOE"
   },
   "rotation": {
    "Points": [
     {
      "co": {
       "X": 1.0,
       "Y": 0.0
      },
      "handle_left": {
       "X": 0.5,
       "Y": 1.0
      },
      "handle_right": {
       "X": 0.5,
       "Y": 0.0
      },
      "handle_type": 0,
      "interpolation": 0
     }
    ]
   },
   "scale": 1,
   "scale_x": {
    "Points": [
     {
      "co": {
       "X": 1.0,
       "Y": 1.0
      },
      "handle_left": {
       "X": 0.5,
       "Y": 1.0
      },
      "handle_right": {
       "X": 0.5,
       "Y": 0.0
      },
      "handle_type": 0,
      "interpolation": 0
     }
    ]
   },
   "scale_y": {
    "Points": [
     {
      "co": {
       "X": 1.0,
       "Y": 1.0
      },
      "handle_left": {
       "X": 0.5,
       "Y": 1.0
      },
      "handle_right": {
       "X": 0.5,
       "Y": 0.0
      },
      "handle_type": 0,
      "interpolation": 0
     }
    ]
   },
   "shear_x": {
    "Points": [
     {
      "co": {
       "X": 1.0,
       "Y": 0.0
      },
      "handle_left": {
       "X": 0.5,
       "Y": 1.0
      },
      "handle_right": {
       "X": 0.5,
       "Y": 0.0
      },
      "handle_type": 0,
      "interpolation": 0
     }
    ]
   },
   "shear_y": {
    "Points": [
     {
      "co": {
       "X": 1.0,
       "Y": 0.0
      },
      "handle_left": {
       "X": 0.5,
       "Y": 1.0
      },
      "handle_right": {
       "X": 0.5,
       "Y": 0.0
      },
      "handle_type": 0,
      "interpolation": 0
     }
    ]
   },
   "start": 0,
   "time": {
    "Points": [
     {
      "co": {
       "X": 1.0,
       "Y": 1.0
      },
      "handle_left": {
       "X": 0.5,
       "Y": 1.0
      },
      "handle_right": {
       "X": 0.5,
       "Y": 0.0
      },
      "handle_type": 0,
      "interpolation": 0
     }
    ]
   },
   "volume": {
    "Points": [
     {
      "co": {
       "X": 1.0,
       "Y": 1.0
      },
      "handle_left": {
       "X": 0.5,
       "Y": 1.0
      },
      "handle_right": {
       "X": 0.5,
       "Y": 0.0
      },
      "handle_type": 0,
      "interpolation": 0
     }
    ]
   },
   "wave_color": {
    "alpha": {
     "Points": [
      {
       "co": {
        "X": 1.0,
        "Y": 255.0
       },
       "handle_left": {
        "X": 0.5,
        "Y": 1.0
       },
       "handle_right": {
        "X": 0.5,
        "Y": 0.0
       },
       "handle_type": 0,
       "interpolation": 0
      }
     ]
    },
    "blue": {
     "Points": [
      {
       "co": {
        "X": 1.0,
        "Y": 255.0
       },
       "handle_left": {
        "X": 0.5,
        "Y": 1.0
       },
       "handle_right": {
        "X": 0.5,
        "Y": 0.0
       },
       "handle_type": 0,
       "interpolation": 0
      }
     ]
    },
    "green": {
     "Points": [
      {
       "co": {
        "X": 1.0,
        "Y": 123.0
       },
       "handle_left": {
        "X": 0.5,
        "Y": 1.0
       },
       "handle_right": {
        "X": 0.5,
        "Y": 0.0
       },
       "handle_type": 0,
       "interpolation": 0
      }
     ]
    },
    "red": {
     "Points": [
      {
       "co": {
        "X": 1.0,
        "Y": 0.0
       },
       "handle_left": {
        "X": 0.5,
        "Y": 1.0
       },
       "handle_right": {
        "X": 0.5,
        "Y": 0.0
       },
       "handle_type": 0,
       "interpolation": 0
      }
     ]
    }
   },
   "waveform": false,
   "file_id": "4QMICLJUOE",
   "title": "Frame-06854.png",
   "image": "Tutorial_assets/thumbnail/4QMICLJUOE.png"
  },
  {
   "alpha": {
    "Points": [
     {
      "co": {
       "X": 1.0,
       "Y": 1.0
      },
      "handle_left": {
       "X": 0.5,
       "Y": 1.0
      },
      "handle_right": {
       "X": 0.5,
       "Y": 0.0
      },
      "handle_type": 0,
      "interpolation": 0
     }
    ]
   },
   "anchor": 0,
   "channel_filter": {
    "Points": [
     {
      "co": {
       "X": 1.0,
       "Y": -1.0
      },
      "handle_left": {
       "X": 0.5,
       "Y": 1.0
      },
      "handle_right": {
       "X": 0.5,
       "Y": 0.0
      },
      "handle_type": 0,
      "interpolation": 0
     }
    ]
   },
   "channel_mapping": {
    "Points": [
     {
      "co": {
       "X": 1.0,
       "Y": -1.0
      },
      "handle_left": {
       "X": 0.5,
       "Y": 1.0
      },
      "handle_right": {
       "X": 0.5,
       "Y": 0.0
      },
      "handle_type": 0,
      "interpolation": 0
     }
    ]
   },
   "display": 0,
   "duration": 43.29999923706055,
   "effects": [],
   "end": 33.966666666666725,
   "gravity": 4,
   "has_audio": {
    "Points": [
     {
      "co": {
       "X": 1.0,
       "Y": -1.0
      },
      "handle_left": {
       "X": 0.5,
       "Y": 1.0
      },
      "handle_right": {
       "X": 0.5,
       "Y": 0.0
      },
      "handle_type": 0,
      "interpolation": 0
     }
    ]
   },
   "has_video": {
    "Points": [
     {
      "co": {
       "X": 1.0,
       "Y": -1.0
      },
      "handle_left": {
       "X": 0.5,
       "Y": 1.0
      },
      "handle_right": {
       "X": 0.5,
       "Y": 0.0
      },
      "handle_type": 0,
      "interpolation": 0
     }
    ]
   },
   "layer": 1000000,
   "location_x": {
    "Points": [
     {
      "co": {
       "X": 1.0,
       "Y": 0.0
      },
      "handle_left": {
       "X": 0.5,
       "Y": 1.0
      },
      "handle_right": {
       "X": 0.5,
       "Y": 0.0
      },
      "handle_type": 0,
      "interpolation": 0
     }
    ]
   },
   "location_y": {
    "Points": [
     {
      "co": {
       "X": 1.0,
       "Y": 0.0
      },
      "handle_left": {
       "X": 0.5,
       "Y": 1.0
      },
      "handle_right": {
       "X": 0.5,
       "Y": 0.0
      },
      "handle_type": 0,
      "interpolation": 0
     }
    ]
   },
   "mixing": 0,
   "origin_x": {
    "Points": [
     {
      "co": {
       "X": 1.0,
       "Y": 0.5
      },
      "handle_left": {
       "X": 0.5,
       "Y": 1.0
      },
      "handle_right": {
       "X": 0.5,
       "Y": 0.0
      },
      "handle_type": 0,
      "interpolation": 0
     }
    ]
   },
   "origin_y": {
    "Points": [
     {
      "co": {
       "X": 1.0,
       "Y": 0.5
      },
      "handle_left": {
       "X": 0.5,
       "Y": 1.0
      },
      "handle_right": {
       "X": 0.5,
       "Y": 0.0
      },
      "handle_type": 0,
      "interpolation": 0
     }
    ]
   },
   "parentObjectId": "",
   "perspective_c1_x": {
    "Points": [
     {
      "co": {
       "X": 1.0,
       "Y": -1.0
      },
      "handle_left": {
       "X": 0.5,
       "Y": 1.0
      },
      "handle_right": {
       "X": 0.5,
       "Y": 0.0
      },
      "handle_type": 0,
      "interpolation": 0
     }
    ]
   },
   "perspective_c1_y": {
    "Points": [
     {
      "co": {
       "X": 1.0,
       "Y": -1.0
      },
      "handle_left": {
       "X": 0.5,
       "Y": 1.0
      },
      "handle_right": {
       "X": 0.5,
       "Y": 0.0
      },
      "handle_type": 0,
      "interpolation": 0
     }
    ]
   },
   "perspective_c2_x": {
    "Points": [
     {
      "co": {
       "X": 1.0,
       "Y": -1.0
      },
      "handle_left": {
       "X": 0.5,
       "Y": 1.0
      },
      "handle_right": {
       "X": 0.5,
       "Y": 0.0
      },
      "handle_type": 0,
      "interpolation": 0
     }
    ]
   },
   "perspective_c2_y": {
    "Points": [
     {
      "co": {
       "X": 1.0,
       "Y": -1.0
      },
      "handle_left": {
       "X": 0.5,
       "Y": 1.0
      },
      "handle_right": {
       "X": 0.5,
       "Y": 0.0
      },
      "handle_type": 0,
      "interpolation": 0
     }
    ]
   },
   "perspective_c3_x": {
    "Points": [
     {
      "co": {
       "X": 1.0,
       "Y": -1.0
      },
      "handle_left": {
       "X": 0.5,
       "Y": 1.0
      },
      "handle_right": {
       "X": 0.5,
       "Y": 0.0
      },
      "handle_type": 0,
      "interpolation": 0
     }
    ]
   },
   "perspective_c3_y": {
    "Points": [
     {
      "co": {
       "X": 1.0,
       "Y": -1.0
      },
      "handle_left": {
       "X": 0.5,
       "Y": 1.0
      },
      "handle_right": {
       "X": 0.5,
       "Y": 0.0
      },
      "handle_type": 0,
      "interpolation": 0
     }
    ]
   },
   "perspective_c4_x": {
    "Points": [
     {
      "co": {
       "X": 1.0,
       "Y": -1.0
      },
      "handle_left": {
       "X": 0.5,
       "Y": 1.0
      },
      "handle_right": {
       "X": 0.5,
       "Y": 0.0
      },
      "handle_type": 0,
      "interpolation": 0
     }
    ]
   },
   "perspective_c4_y": {
    "Points": [
     {
      "co": {
       "X": 1.0,
       "Y": -1.0
      },
      "handle_left": {
       "X": 0.5,
       "Y": 1.0
      },
      "handle_right": {
       "X": 0.5,
       "Y": 0.0
      },
      "handle_type": 0,
      "interpolation": 0
     }
    ]
   },
   "position": 233.13333333333333,
   "reader": {
    "acodec": "",
    "audio_bit_rate": 0,
    "audio_stream_index": -1,
    "audio_timebase": {
     "den": 1,
     "num": 1
    },
    "channel_layout": 4,
    "channels": 0,
    "display_ratio": {
     "den": 9,
     "num": 16
    },
    "duration": 43.29999923706055,
    "file_size": "20461332",
    "fps": {
     "den": 1,
     "num": 30
    },
    "has_audio": false,
    "has_single_image": false,
    "has_video": true,
    "height": 1080,
    "interlaced_frame": false,
    "metadata": {
     "compatible_brands": "mp41isom",
     "creation_time": "2024-05-23T17:52:53.000000Z",
     "encoder": "AVC Coding",
     "handler_name": "VideoHandler",
     "language": "und",
     "major_brand": "mp42",
     "minor_version": "0"
    },
    "path": "./Movie_005.mp4",
    "pixel_format": 0,
    "pixel_ratio": {
     "den": 1,
     "num": 1
    },
    "sample_rate": 0,
    "top_field_first": true,
    "type": "FFmpegReader",
    "vcodec": "h264",
    "video_bit_rate": 472548,
    "video_length": "1299",
    "video_stream_index": 0,
    "video_timebase": {
     "den": 30000,
     "num": 1
    },
    "width": 1920,
    "media_type": "video",
    "id": "H2KZ1ELZ4W",
    "image": "Tutorial_assets/thumbnail/H2KZ1ELZ4W.png"
   },
   "rotation": {
    "Points": [
     {
      "co": {
       "X": 1.0,
       "Y": 0.0
      },
      "handle_left": {
       "X": 0.5,
       "Y": 1.0
      },
      "handle_right": {
       "X": 0.5,
       "Y": 0.0
      },
      "handle_type": 0,
      "interpolation": 0
     }
    ]
   },
   "scale": 1,
   "scale_x": {
    "Points": [
     {
      "co": {
       "X": 1.0,
       "Y": 1.0
      },
      "handle_left": {
       "X": 0.5,
       "Y": 1.0
      },
      "handle_right": {
       "X": 0.5,
       "Y": 0.0
      },
      "handle_type": 0,
      "interpolation": 0
     }
    ]
   },
   "scale_y": {
    "Points": [
     {
      "co": {
       "X": 1.0,
       "Y": 1.0
      },
      "handle_left": {
       "X": 0.5,
       "Y": 1.0
      },
      "handle_right": {
       "X": 0.5,
       "Y": 0.0
      },
      "handle_type": 0,
      "interpolation": 0
     }
    ]
   },
   "shear_x": {
    "Points": [
     {
      "co": {
       "X": 1.0,
       "Y": 0.0
      },
      "handle_left": {
       "X": 0.5,
       "Y": 1.0
      },
      "handle_right": {
       "X": 0.5,
       "Y": 0.0
      },
      "handle_type": 0,
      "interpolation": 0
     }
    ]
   },
   "shear_y": {
    "Points": [
     {
      "co": {
       "X": 1.0,
       "Y": 0.0
      },
      "handle_left": {
       "X": 0.5,
       "Y": 1.0
      },
      "handle_right": {
       "X": 0.5,
       "Y": 0.0
      },
      "handle_type": 0,
      "interpolation": 0
     }
    ]
   },
   "start": 25.56666666666672,
   "time": {
    "Points": [
     {
      "co": {
       "X": 1.0,
       "Y": 1.0
      },
      "handle_left": {
       "X": 0.5,
       "Y": 1.0
      },
      "handle_right": {
       "X": 0.5,
       "Y": 0.0
      },
      "handle_type": 0,
      "interpolation": 0
     }
    ]
   },
   "volume": {
    "Points": [
     {
      "co": {
       "X": 1.0,
       "Y": 1.0
      },
      "handle_left": {
       "X": 0.5,
       "Y": 1.0
      },
      "handle_right": {
       "X": 0.5,
       "Y": 0.0
      },
      "handle_type": 0,
      "interpolation": 0
     }
    ]
   },
   "wave_color": {
    "alpha": {
     "Points": [
      {
       "co": {
        "X": 1.0,
        "Y": 255.0
       },
       "handle_left": {
        "X": 0.5,
        "Y": 1.0
       },
       "handle_right": {
        "X": 0.5,
        "Y": 0.0
       },
       "handle_type": 0,
       "interpolation": 0
      }
     ]
    },
    "blue": {
     "Points": [
      {
       "co": {
        "X": 1.0,
        "Y": 255.0
       },
       "handle_left": {
        "X": 0.5,
        "Y": 1.0
       },
       "handle_right": {
        "X": 0.5,
        "Y": 0.0
       },
       "handle_type": 0,
       "interpolation": 0
      }
     ]
    },
    "green": {
     "Points": [
      {
       "co": {
        "X": 1.0,
        "Y": 123.0
       },
       "handle_left": {
        "X": 0.5,
        "Y": 1.0
       },
       "handle_right": {
        "X": 0.5,
        "Y": 0.0
       },
       "handle_type": 0,
       "interpolation": 0
      }
     ]
    },
    "red": {
     "Points": [
      {
       "co": {
        "X": 1.0,
        "Y": 0.0
       },
       "handle_left": {
        "X": 0.5,
        "Y": 1.0
       },
       "handle_right": {
        "X": 0.5,
        "Y": 0.0
       },
       "handle_type": 0,
       "interpolation": 0
      }
     ]
    }
   },
   "waveform": false,
   "file_id": "H2KZ1ELZ4W",
   "title": "Movie_005.mp4",
   "image": "Tutorial_assets/thumbnail/H2KZ1ELZ4W.png",
   "id": "UW596GRYMH"
  },
  {
   "alpha": {
    "Points": [
     {
      "co": {
       "X": 1.0,
       "Y": 1.0
      },
      "handle_left": {
       "X": 0.5,
       "Y": 1.0
      },
      "handle_right": {
       "X": 0.5,
       "Y": 0.0
      },
      "handle_type": 0,
      "interpolation": 0
     }
    ]
   },
   "anchor": 0,
   "channel_filter": {
    "Points": [
     {
      "co": {
       "X": 1.0,
       "Y": -1.0
      },
      "handle_left": {
       "X": 0.5,
       "Y": 1.0
      },
      "handle_right": {
       "X": 0.5,
       "Y": 0.0
      },
      "handle_type": 0,
      "interpolation": 0
     }
    ]
   },
   "channel_mapping": {
    "Points": [
     {
      "co": {
       "X": 1.0,
       "Y": -1.0
      },
      "handle_left": {
       "X": 0.5,
       "Y": 1.0
      },
      "handle_right": {
       "X": 0.5,
       "Y": 0.0
      },
      "handle_type": 0,
      "interpolation": 0
     }
    ]
   },
   "display": 0,
   "duration": 55.400001525878906,
   "effects": [],
   "end": 25.12376408068844,
   "gravity": 4,
   "has_audio": {
    "Points": [
     {
      "co": {
       "X": 1.0,
       "Y": -1.0
      },
      "handle_left": {
       "X": 0.5,
       "Y": 1.0
      },
      "handle_right": {
       "X": 0.5,
       "Y": 0.0
      },
      "handle_type": 0,
      "interpolation": 0
     }
    ]
   },
   "has_video": {
    "Points": [
     {
      "co": {
       "X": 1.0,
       "Y": -1.0
      },
      "handle_left": {
       "X": 0.5,
       "Y": 1.0
      },
      "handle_right": {
       "X": 0.5,
       "Y": 0.0
      },
      "handle_type": 0,
      "interpolation": 0
     }
    ]
   },
   "id": "MI3SR152FM",
   "layer": 1000000,
   "location_x": {
    "Points": [
     {
      "co": {
       "X": 1.0,
       "Y": 0.0
      },
      "handle_left": {
       "X": 0.5,
       "Y": 1.0
      },
      "handle_right": {
       "X": 0.5,
       "Y": 0.0
      },
      "handle_type": 0,
      "interpolation": 0
     }
    ]
   },
   "location_y": {
    "Points": [
     {
      "co": {
       "X": 1.0,
       "Y": 0.0
      },
      "handle_left": {
       "X": 0.5,
       "Y": 1.0
      },
      "handle_right": {
       "X": 0.5,
       "Y": 0.0
      },
      "handle_type": 0,
      "interpolation": 0
     }
    ]
   },
   "mixing": 0,
   "origin_x": {
    "Points": [
     {
      "co": {
       "X": 1.0,
       "Y": 0.5
      },
      "handle_left": {
       "X": 0.5,
       "Y": 1.0
      },
      "handle_right": {
       "X": 0.5,
       "Y": 0.0
      },
      "handle_type": 0,
      "interpolation": 0
     }
    ]
   },
   "origin_y": {
    "Points": [
     {
      "co": {
       "X": 1.0,
       "Y": 0.5
      },
      "handle_left": {
       "X": 0.5,
       "Y": 1.0
      },
      "handle_right": {
       "X": 0.5,
       "Y": 0.0
      },
      "handle_type": 0,
      "interpolation": 0
     }
    ]
   },
   "parentObjectId": "",
   "perspective_c1_x": {
    "Points": [
     {
      "co": {
       "X": 1.0,
       "Y": -1.0
      },
      "handle_left": {
       "X": 0.5,
       "Y": 1.0
      },
      "handle_right": {
       "X": 0.5,
       "Y": 0.0
      },
      "handle_type": 0,
      "interpolation": 0
     }
    ]
   },
   "perspective_c1_y": {
    "Points": [
     {
      "co": {
       "X": 1.0,
       "Y": -1.0
      },
      "handle_left": {
       "X": 0.5,
       "Y": 1.0
      },
      "handle_right": {
       "X": 0.5,
       "Y": 0.0
      },
      "handle_type": 0,
      "interpolation": 0
     }
    ]
   },
   "perspective_c2_x": {
    "Points": [
     {
      "co": {
       "X": 1.0,
       "Y": -1.0
      },
      "handle_left": {
       "X": 0.5,
       "Y": 1.0
      },
      "handle_right": {
       "X": 0.5,
       "Y": 0.0
      },
      "handle_type": 0,
      "interpolation": 0
     }
    ]
   },
   "perspective_c2_y": {
    "Points": [
     {
      "co": {
       "X": 1.0,
       "Y": -1.0
      },
      "handle_left": {
       "X": 0.5,
       "Y": 1.0
      },
      "handle_right": {
       "X": 0.5,
       "Y": 0.0
      },
      "handle_type": 0,
      "interpolation": 0
     }
    ]
   },
   "perspective_c3_x": {
    "Points": [
     {
      "co": {
       "X": 1.0,
       "Y": -1.0
      },
      "handle_left": {
       "X": 0.5,
       "Y": 1.0
      },
      "handle_right": {
       "X": 0.5,
       "Y": 0.0
      },
      "handle_type": 0,
      "interpolation": 0
     }
    ]
   },
   "perspective_c3_y": {
    "Points": [
     {
      "co": {
       "X": 1.0,
       "Y": -1.0
      },
      "handle_left": {
       "X": 0.5,
       "Y": 1.0
      },
      "handle_right": {
       "X": 0.5,
       "Y": 0.0
      },
      "handle_type": 0,
      "interpolation": 0
     }
    ]
   },
   "perspective_c4_x": {
    "Points": [
     {
      "co": {
       "X": 1.0,
       "Y": -1.0
      },
      "handle_left": {
       "X": 0.5,
       "Y": 1.0
      },
      "handle_right": {
       "X": 0.5,
       "Y": 0.0
      },
      "handle_type": 0,
      "interpolation": 0
     }
    ]
   },
   "perspective_c4_y": {
    "Points": [
     {
      "co": {
       "X": 1.0,
       "Y": -1.0
      },
      "handle_left": {
       "X": 0.5,
       "Y": 1.0
      },
      "handle_right": {
       "X": 0.5,
       "Y": 0.0
      },
      "handle_type": 0,
      "interpolation": 0
     }
    ]
   },
   "position": 248.8,
   "reader": {
    "acodec": "",
    "audio_bit_rate": 0,
    "audio_stream_index": -1,
    "audio_timebase": {
     "den": 1,
     "num": 1
    },
    "channel_layout": 4,
    "channels": 0,
    "display_ratio": {
     "den": 9,
     "num": 16
    },
    "duration": 55.400001525878906,
    "file_size": "29160211",
    "fps": {
     "den": 1,
     "num": 30
    },
    "has_audio": false,
    "has_single_image": false,
    "has_video": true,
    "height": 1080,
    "interlaced_frame": false,
    "metadata": {
     "compatible_brands": "mp41isom",
     "creation_time": "2024-05-26T21:25:52.000000Z",
     "encoder": "AVC Coding",
     "handler_name": "VideoHandler",
     "language": "und",
     "major_brand": "mp42",
     "minor_version": "0"
    },
    "path": "./Movie_012.mp4",
    "pixel_format": 0,
    "pixel_ratio": {
     "den": 1,
     "num": 1
    },
    "sample_rate": 0,
    "top_field_first": true,
    "type": "FFmpegReader",
    "vcodec": "h264",
    "video_bit_rate": 526357,
    "video_length": "1662",
    "video_stream_index": 0,
    "video_timebase": {
     "den": 30000,
     "num": 1
    },
    "width": 1920,
    "media_type": "video",
    "id": "KBSWRPDX0A"
   },
   "rotation": {
    "Points": [
     {
      "co": {
       "X": 1.0,
       "Y": 0.0
      },
      "handle_left": {
       "X": 0.5,
       "Y": 1.0
      },
      "handle_right": {
       "X": 0.5,
       "Y": 0.0
      },
      "handle_type": 0,
      "interpolation": 0
     }
    ]
   },
   "scale": 1,
   "scale_x": {
    "Points": [
     {
      "co": {
       "X": 1.0,
       "Y": 1.0
      },
      "handle_left": {
       "X": 0.5,
       "Y": 1.0
      },
      "handle_right": {
       "X": 0.5,
       "Y": 0.0
      },
      "handle_type": 0,
      "interpolation": 0
     }
    ]
   },
   "scale_y": {
    "Points": [
     {
      "co": {
       "X": 1.0,
       "Y": 1.0
      },
      "handle_left": {
       "X": 0.5,
       "Y": 1.0
      },
      "handle_right": {
       "X": 0.5,
       "Y": 0.0
      },
      "handle_type": 0,
      "interpolation": 0
     }
    ]
   },
   "shear_x": {
    "Points": [
     {
      "co": {
       "X": 1.0,
       "Y": 0.0
      },
      "handle_left": {
       "X": 0.5,
       "Y": 1.0
      },
      "handle_right": {
       "X": 0.5,
       "Y": 0.0
      },
      "handle_type": 0,
      "interpolation": 0
     }
    ]
   },
   "shear_y": {
    "Points": [
     {
      "co": {
       "X": 1.0,
       "Y": 0.0
      },
      "handle_left": {
       "X": 0.5,
       "Y": 1.0
      },
      "handle_right": {
       "X": 0.5,
       "Y": 0.0
      },
      "handle_type": 0,
      "interpolation": 0
     }
    ]
   },
   "start": 12.423764080688448,
   "time": {
    "Points": [
     {
      "co": {
       "X": 1.0,
       "Y": 1.0
      },
      "handle_left": {
       "X": 0.5,
       "Y": 1.0
      },
      "handle_right": {
       "X": 0.5,
       "Y": 0.0
      },
      "handle_type": 0,
      "interpolation": 0
     }
    ]
   },
   "volume": {
    "Points": [
     {
      "co": {
       "X": 1.0,
       "Y": 1.0
      },
      "handle_left": {
       "X": 0.5,
       "Y": 1.0
      },
      "handle_right": {
       "X": 0.5,
       "Y": 0.0
      },
      "handle_type": 0,
      "interpolation": 0
     }
    ]
   },
   "wave_color": {
    "alpha": {
     "Points": [
      {
       "co": {
        "X": 1.0,
        "Y": 255.0
       },
       "handle_left": {
        "X": 0.5,
        "Y": 1.0
       },
       "handle_right": {
        "X": 0.5,
        "Y": 0.0
       },
       "handle_type": 0,
       "interpolation": 0
      }
     ]
    },
    "blue": {
     "Points": [
      {
       "co": {
        "X": 1.0,
        "Y": 255.0
       },
       "handle_left": {
        "X": 0.5,
        "Y": 1.0
       },
       "handle_right": {
        "X": 0.5,
        "Y": 0.0
       },
       "handle_type": 0,
       "interpolation": 0
      }
     ]
    },
    "green": {
     "Points": [
      {
       "co": {
        "X": 1.0,
        "Y": 123.0
       },
       "handle_left": {
        "X": 0.5,
        "Y": 1.0
       },
       "handle_right": {
        "X": 0.5,
        "Y": 0.0
       },
       "handle_type": 0,
       "interpolation": 0
      }
     ]
    },
    "red": {
     "Points": [
      {
       "co": {
        "X": 1.0,
        "Y": 0.0
       },
       "handle_left": {
        "X": 0.5,
        "Y": 1.0
       },
       "handle_right": {
        "X": 0.5,
        "Y": 0.0
       },
       "handle_type": 0,
       "interpolation": 0
      }
     ]
    }
   },
   "waveform": false,
   "file_id": "KBSWRPDX0A",
   "title": "Movie_012.mp4",
   "image": "Tutorial_assets/thumbnail/KBSWRPDX0A.png"
  },
  {
   "alpha": {
    "Points": [
     {
      "co": {
       "X": 1.0,
       "Y": 1.0
      },
      "handle_left": {
       "X": 0.5,
       "Y": 1.0
      },
      "handle_right": {
       "X": 0.5,
       "Y": 0.0
      },
      "handle_type": 0,
      "interpolation": 0
     }
    ]
   },
   "anchor": 0,
   "channel_filter": {
    "Points": [
     {
      "co": {
       "X": 1.0,
       "Y": -1.0
      },
      "handle_left": {
       "X": 0.5,
       "Y": 1.0
      },
      "handle_right": {
       "X": 0.5,
       "Y": 0.0
      },
      "handle_type": 0,
      "interpolation": 0
     }
    ]
   },
   "channel_mapping": {
    "Points": [
     {
      "co": {
       "X": 1.0,
       "Y": -1.0
      },
      "handle_left": {
       "X": 0.5,
       "Y": 1.0
      },
      "handle_right": {
       "X": 0.5,
       "Y": 0.0
      },
      "handle_type": 0,
      "interpolation": 0
     }
    ]
   },
   "display": 0,
   "duration": 3600.0,
   "effects": [],
   "end": 42.384191519882044,
   "gravity": 4,
   "has_audio": {
    "Points": [
     {
      "co": {
       "X": 1.0,
       "Y": -1.0
      },
      "handle_left": {
       "X": 0.5,
       "Y": 1.0
      },
      "handle_right": {
       "X": 0.5,
       "Y": 0.0
      },
      "handle_type": 0,
      "interpolation": 0
     }
    ]
   },
   "has_video": {
    "Points": [
     {
      "co": {
       "X": 1.0,
       "Y": -1.0
      },
      "handle_left": {
       "X": 0.5,
       "Y": 1.0
      },
      "handle_right": {
       "X": 0.5,
       "Y": 0.0
      },
      "handle_type": 0,
      "interpolation": 0
     }
    ]
   },
   "id": "0V90ZX1CR5",
   "layer": 3000000,
   "location_x": {
    "Points": [
     {
      "co": {
       "X": 1,
       "Y": -0.30494044089033007
      },
      "handle_left": {
       "X": 0.5,
       "Y": 1.0
      },
      "handle_right": {
       "X": 0.5,
       "Y": 0.0
      },
      "handle_type": 0,
      "interpolation": 0
     }
    ]
   },
   "location_y": {
    "Points": [
     {
      "co": {
       "X": 1,
       "Y": -0.34242424513354447
      },
      "handle_left": {
       "X": 0.5,
       "Y": 1.0
      },
      "handle_right": {
       "X": 0.5,
       "Y": 0.0
      },
      "handle_type": 0,
      "interpolation": 0
     }
    ]
   },
   "mixing": 0,
   "origin_x": {
    "Points": [
     {
      "co": {
       "X": 1.0,
       "Y": 0.5
      },
      "handle_left": {
       "X": 0.5,
       "Y": 1.0
      },
      "handle_right": {
       "X": 0.5,
       "Y": 0.0
      },
      "handle_type": 0,
      "interpolation": 0
     }
    ]
   },
   "origin_y": {
    "Points": [
     {
      "co": {
       "X": 1.0,
       "Y": 0.5
      },
      "handle_left": {
       "X": 0.5,
       "Y": 1.0
      },
      "handle_right": {
       "X": 0.5,
       "Y": 0.0
      },
      "handle_type": 0,
      "interpolation": 0
     }
    ]
   },
   "parentObjectId": "",
   "perspective_c1_x": {
    "Points": [
     {
      "co": {
       "X": 1.0,
       "Y": -1.0
      },
      "handle_left": {
       "X": 0.5,
       "Y": 1.0
      },
      "handle_right": {
       "X": 0.5,
       "Y": 0.0
      },
      "handle_type": 0,
      "interpolation": 0
     }
    ]
   },
   "perspective_c1_y": {
    "Points": [
     {
      "co": {
       "X": 1.0,
       "Y": -1.0
      },
      "handle_left": {
       "X": 0.5,
       "Y": 1.0
      },
      "handle_right": {
       "X": 0.5,
       "Y": 0.0
      },
      "handle_type": 0,
      "interpolation": 0
     }
    ]
   },
   "perspective_c2_x": {
    "Points": [
     {
      "co": {
       "X": 1.0,
       "Y": -1.0
      },
      "handle_left": {
       "X": 0.5,
       "Y": 1.0
      },
      "handle_right": {
       "X": 0.5,
       "Y": 0.0
      },
      "handle_type": 0,
      "interpolation": 0
     }
    ]
   },
   "perspective_c2_y": {
    "Points": [
     {
      "co": {
       "X": 1.0,
       "Y": -1.0
      },
      "handle_left": {
       "X": 0.5,
       "Y": 1.0
      },
      "handle_right": {
       "X": 0.5,
       "Y": 0.0
      },
      "handle_type": 0,
      "interpolation": 0
     }
    ]
   },
   "perspective_c3_x": {
    "Points": [
     {
      "co": {
       "X": 1.0,
       "Y": -1.0
      },
      "handle_left": {
       "X": 0.5,
       "Y": 1.0
      },
      "handle_right": {
       "X": 0.5,
       "Y": 0.0
      },
      "handle_type": 0,
      "interpolation": 0
     }
    ]
   },
   "perspective_c3_y": {
    "Points": [
     {
      "co": {
       "X": 1.0,
       "Y": -1.0
      },
      "handle_left": {
       "X": 0.5,
       "Y": 1.0
      },
      "handle_right": {
       "X": 0.5,
       "Y": 0.0
      },
      "handle_type": 0,
      "interpolation": 0
     }
    ]
   },
   "perspective_c4_x": {
    "Points": [
     {
      "co": {
       "X": 1.0,
       "Y": -1.0
      },
      "handle_left": {
       "X": 0.5,
       "Y": 1.0
      },
      "handle_right": {
       "X": 0.5,
       "Y": 0.0
      },
      "handle_type": 0,
      "interpolation": 0
     }
    ]
   },
   "perspective_c4_y": {
    "Points": [
     {
      "co": {
       "X": 1.0,
       "Y": -1.0
      },
      "handle_left": {
       "X": 0.5,
       "Y": 1.0
      },
      "handle_right": {
       "X": 0.5,
       "Y": 0.0
      },
      "handle_type": 0,
      "interpolation": 0
     }
    ]
   },
   "position": 248.8,
   "reader": {
    "acodec": "",
    "audio_bit_rate": 0,
    "audio_stream_index": -1,
    "audio_timebase": {
     "den": 1,
     "num": 1
    },
    "channel_layout": 4,
    "channels": 0,
    "display_ratio": {
     "den": 389,
     "num": 1371
    },
    "duration": 3600.0,
    "file_size": "2133276",
    "fps": {
     "den": 1,
     "num": 30
    },
    "has_audio": false,
    "has_single_image": true,
    "has_video": true,
    "height": 389,
    "interlaced_frame": false,
    "metadata": {},
    "path": "./drawing37.png",
    "pixel_format": -1,
    "pixel_ratio": {
     "den": 1,
     "num": 1
    },
    "sample_rate": 0,
    "top_field_first": true,
    "type": "QtImageReader",
    "vcodec": "",
    "video_bit_rate": 0,
    "video_length": "108000",
    "video_stream_index": -1,
    "video_timebase": {
     "den": 30,
     "num": 1
    },
    "width": 1371,
    "media_type": "image",
    "id": "3JD0NA6KLK"
   },
   "rotation": {
    "Points": [
     {
      "co": {
       "X": 1.0,
       "Y": 0.0
      },
      "handle_left": {
       "X": 0.5,
       "Y": 1.0
      },
      "handle_right": {
       "X": 0.5,
       "Y": 0.0
      },
      "handle_type": 0,
      "interpolation": 0
     }
    ]
   },
   "scale": 1,
   "scale_x": {
    "Points": [
     {
      "co": {
       "X": 1,
       "Y": 0.2793866693973541
      },
      "handle_left": {
       "X": 0.5,
       "Y": 1.0
      },
      "handle_right": {
       "X": 0.5,
       "Y": 0.0
      },
      "handle_type": 0,
      "interpolation": 0
     }
    ]
   },
   "scale_y": {
    "Points": [
     {
      "co": {
       "X": 1,
       "Y": 0.2793866693973541
      },
      "handle_left": {
       "X": 0.5,
       "Y": 1.0
      },
      "handle_right": {
       "X": 0.5,
       "Y": 0.0
      },
      "handle_type": 0,
      "interpolation": 0
     }
    ]
   },
   "shear_x": {
    "Points": [
     {
      "co": {
       "X": 1.0,
       "Y": 0.0
      },
      "handle_left": {
       "X": 0.5,
       "Y": 1.0
      },
      "handle_right": {
       "X": 0.5,
       "Y": 0.0
      },
      "handle_type": 0,
      "interpolation": 0
     }
    ]
   },
   "shear_y": {
    "Points": [
     {
      "co": {
       "X": 1.0,
       "Y": 0.0
      },
      "handle_left": {
       "X": 0.5,
       "Y": 1.0
      },
      "handle_right": {
       "X": 0.5,
       "Y": 0.0
      },
      "handle_type": 0,
      "interpolation": 0
     }
    ]
   },
   "start": 0,
   "time": {
    "Points": [
     {
      "co": {
       "X": 1.0,
       "Y": 1.0
      },
      "handle_left": {
       "X": 0.5,
       "Y": 1.0
      },
      "handle_right": {
       "X": 0.5,
       "Y": 0.0
      },
      "handle_type": 0,
      "interpolation": 0
     }
    ]
   },
   "volume": {
    "Points": [
     {
      "co": {
       "X": 1.0,
       "Y": 1.0
      },
      "handle_left": {
       "X": 0.5,
       "Y": 1.0
      },
      "handle_right": {
       "X": 0.5,
       "Y": 0.0
      },
      "handle_type": 0,
      "interpolation": 0
     }
    ]
   },
   "wave_color": {
    "alpha": {
     "Points": [
      {
       "co": {
        "X": 1.0,
        "Y": 255.0
       },
       "handle_left": {
        "X": 0.5,
        "Y": 1.0
       },
       "handle_right": {
        "X": 0.5,
        "Y": 0.0
       },
       "handle_type": 0,
       "interpolation": 0
      }
     ]
    },
    "blue": {
     "Points": [
      {
       "co": {
        "X": 1.0,
        "Y": 255.0
       },
       "handle_left": {
        "X": 0.5,
        "Y": 1.0
       },
       "handle_right": {
        "X": 0.5,
        "Y": 0.0
       },
       "handle_type": 0,
       "interpolation": 0
      }
     ]
    },
    "green": {
     "Points": [
      {
       "co": {
        "X": 1.0,
        "Y": 123.0
       },
       "handle_left": {
        "X": 0.5,
        "Y": 1.0
       },
       "handle_right": {
        "X": 0.5,
        "Y": 0.0
       },
       "handle_type": 0,
       "interpolation": 0
      }
     ]
    },
    "red": {
     "Points": [
      {
       "co": {
        "X": 1.0,
        "Y": 0.0
       },
       "handle_left": {
        "X": 0.5,
        "Y": 1.0
       },
       "handle_right": {
        "X": 0.5,
        "Y": 0.0
       },
       "handle_type": 0,
       "interpolation": 0
      }
     ]
    }
   },
   "waveform": false,
   "file_id": "3JD0NA6KLK",
   "title": "drawing37.png",
   "image": "Tutorial_assets/thumbnail/3JD0NA6KLK.png"
  },
  {
   "alpha": {
    "Points": [
     {
      "co": {
       "X": 1.0,
       "Y": 1.0
      },
      "handle_left": {
       "X": 0.5,
       "Y": 1.0
      },
      "handle_right": {
       "X": 0.5,
       "Y": 0.0
      },
      "handle_type": 0,
      "interpolation": 0
     }
    ]
   },
   "anchor": 0,
   "channel_filter": {
    "Points": [
     {
      "co": {
       "X": 1.0,
       "Y": -1.0
      },
      "handle_left": {
       "X": 0.5,
       "Y": 1.0
      },
      "handle_right": {
       "X": 0.5,
       "Y": 0.0
      },
      "handle_type": 0,
      "interpolation": 0
     }
    ]
   },
   "channel_mapping": {
    "Points": [
     {
      "co": {
       "X": 1.0,
       "Y": -1.0
      },
      "handle_left": {
       "X": 0.5,
       "Y": 1.0
      },
      "handle_right": {
       "X": 0.5,
       "Y": 0.0
      },
      "handle_type": 0,
      "interpolation": 0
     }
    ]
   },
   "display": 0,
   "duration": 3600.0,
   "effects": [],
   "end": 6.688108626591777,
   "gravity": 4,
   "has_audio": {
    "Points": [
     {
      "co": {
       "X": 1.0,
       "Y": -1.0
      },
      "handle_left": {
       "X": 0.5,
       "Y": 1.0
      },
      "handle_right": {
       "X": 0.5,
       "Y": 0.0
      },
      "handle_type": 0,
      "interpolation": 0
     }
    ]
   },
   "has_video": {
    "Points": [
     {
      "co": {
       "X": 1.0,
       "Y": -1.0
      },
      "handle_left": {
       "X": 0.5,
       "Y": 1.0
      },
      "handle_right": {
       "X": 0.5,
       "Y": 0.0
      },
      "handle_type": 0,
      "interpolation": 0
     }
    ]
   },
   "id": "S7M6VUUWCA",
   "layer": 2000000,
   "location_x": {
    "Points": [
     {
      "co": {
       "X": 1,
       "Y": -0.2896081380787253
      },
      "handle_left": {
       "X": 0.5,
       "Y": 1.0
      },
      "handle_right": {
       "X": 0.5,
       "Y": 0.0
      },
      "handle_type": 0,
      "interpolation": 0
     }
    ]
   },
   "location_y": {
    "Points": [
     {
      "co": {
       "X": 1,
       "Y": 0.36212119604602006
      },
      "handle_left": {
       "X": 0.5,
       "Y": 1.0
      },
      "handle_right": {
       "X": 0.5,
       "Y": 0.0
      },
      "handle_type": 0,
      "interpolation": 0
     }
    ]
   },
   "mixing": 0,
   "origin_x": {
    "Points": [
     {
      "co": {
       "X": 1.0,
       "Y": 0.5
      },
      "handle_left": {
       "X": 0.5,
       "Y": 1.0
      },
      "handle_right": {
       "X": 0.5,
       "Y": 0.0
      },
      "handle_type": 0,
      "interpolation": 0
     }
    ]
   },
   "origin_y": {
    "Points": [
     {
      "co": {
       "X": 1.0,
       "Y": 0.5
      },
      "handle_left": {
       "X": 0.5,
       "Y": 1.0
      },
      "handle_right": {
       "X": 0.5,
       "Y": 0.0
      },
      "handle_type": 0,
      "interpolation": 0
     }
    ]
   },
   "parentObjectId": "",
   "perspective_c1_x": {
    "Points": [
     {
      "co": {
       "X": 1.0,
       "Y": -1.0
      },
      "handle_left": {
       "X": 0.5,
       "Y": 1.0
      },
      "handle_right": {
       "X": 0.5,
       "Y": 0.0
      },
      "handle_type": 0,
      "interpolation": 0
     }
    ]
   },
   "perspective_c1_y": {
    "Points": [
     {
      "co": {
       "X": 1.0,
       "Y": -1.0
      },
      "handle_left": {
       "X": 0.5,
       "Y": 1.0
      },
      "handle_right": {
       "X": 0.5,
       "Y": 0.0
      },
      "handle_type": 0,
      "interpolation": 0
     }
    ]
   },
   "perspective_c2_x": {
    "Points": [
     {
      "co": {
       "X": 1.0,
       "Y": -1.0
      },
      "handle_left": {
       "X": 0.5,
       "Y": 1.0
      },
      "handle_right": {
       "X": 0.5,
       "Y": 0.0
      },
      "handle_type": 0,
      "interpolation": 0
     }
    ]
   },
   "perspective_c2_y": {
    "Points": [
     {
      "co": {
       "X": 1.0,
       "Y": -1.0
      },
      "handle_left": {
       "X": 0.5,
       "Y": 1.0
      },
      "handle_right": {
       "X": 0.5,
       "Y": 0.0
      },
      "handle_type": 0,
      "interpolation": 0
     }
    ]
   },
   "perspective_c3_x": {
    "Points": [
     {
      "co": {
       "X": 1.0,
       "Y": -1.0
      },
      "handle_left": {
       "X": 0.5,
       "Y": 1.0
      },
      "handle_right": {
       "X": 0.5,
       "Y": 0.0
      },
      "handle_type": 0,
      "interpolation": 0
     }
    ]
   },
   "perspective_c3_y": {
    "Points": [
     {
      "co": {
       "X": 1.0,
       "Y": -1.0
      },
      "handle_left": {
       "X": 0.5,
       "Y": 1.0
      },
      "handle_right": {
       "X": 0.5,
       "Y": 0.0
      },
      "handle_type": 0,
      "interpolation": 0
     }
    ]
   },
   "perspective_c4_x": {
    "Points": [
     {
      "co": {
       "X": 1.0,
       "Y": -1.0
      },
      "handle_left": {
       "X": 0.5,
       "Y": 1.0
      },
      "handle_right": {
       "X": 0.5,
       "Y": 0.0
      },
      "handle_type": 0,
      "interpolation": 0
     }
    ]
   },
   "perspective_c4_y": {
    "Points": [
     {
      "co": {
       "X": 1.0,
       "Y": -1.0
      },
      "handle_left": {
       "X": 0.5,
       "Y": 1.0
      },
      "handle_right": {
       "X": 0.5,
       "Y": 0.0
      },
      "handle_type": 0,
      "interpolation": 0
     }
    ]
   },
   "position": 250.66666666666666,
   "reader": {
    "acodec": "",
    "audio_bit_rate": 0,
    "audio_stream_index": -1,
    "audio_timebase": {
     "den": 1,
     "num": 1
    },
    "channel_layout": 4,
    "channels": 0,
    "display_ratio": {
     "den": 51,
     "num": 169
    },
    "duration": 3600.0,
    "file_size": "5826444",
    "fps": {
     "den": 1,
     "num": 30
    },
    "has_audio": false,
    "has_single_image": true,
    "has_video": true,
    "height": 663,
    "interlaced_frame": false,
    "metadata": {},
    "path": "./drawing38.png",
    "pixel_format": -1,
    "pixel_ratio": {
     "den": 1,
     "num": 1
    },
    "sample_rate": 0,
    "top_field_first": true,
    "type": "QtImageReader",
    "vcodec": "",
    "video_bit_rate": 0,
    "video_length": "108000",
    "video_stream_index": -1,
    "video_timebase": {
     "den": 30,
     "num": 1
    },
    "width": 2197,
    "media_type": "image",
    "id": "FQ1W6KUCBI"
   },
   "rotation": {
    "Points": [
     {
      "co": {
       "X": 1.0,
       "Y": 0.0
      },
      "handle_left": {
       "X": 0.5,
       "Y": 1.0
      },
      "handle_right": {
       "X": 0.5,
       "Y": 0.0
      },
      "handle_type": 0,
      "interpolation": 0
     }
    ]
   },
   "scale": 1,
   "scale_x": {
    "Points": [
     {
      "co": {
       "X": 1,
       "Y": 0.39352642225650547
      },
      "handle_left": {
       "X": 0.5,
       "Y": 1.0
      },
      "handle_right": {
       "X": 0.5,
       "Y": 0.0
      },
      "handle_type": 0,
      "interpolation": 0
     }
    ]
   },
   "scale_y": {
    "Points": [
     {
      "co": {
       "X": 1,
       "Y": 0.39352642225650547
      },
      "handle_left": {
       "X": 0.5,
       "Y": 1.0
      },
      "handle_right": {
       "X": 0.5,
       "Y": 0.0
      },
      "handle_type": 0,
      "interpolation": 0
     }
    ]
   },
   "shear_x": {
    "Points": [
     {
      "co": {
       "X": 1.0,
       "Y": 0.0
      },
      "handle_left": {
       "X": 0.5,
       "Y": 1.0
      },
      "handle_right": {
       "X": 0.5,
       "Y": 0.0
      },
      "handle_type": 0,
      "interpolation": 0
     }
    ]
   },
   "shear_y": {
    "Points": [
     {
      "co": {
       "X": 1.0,
       "Y": 0.0
      },
      "handle_left": {
       "X": 0.5,
       "Y": 1.0
      },
      "handle_right": {
       "X": 0.5,
       "Y": 0.0
      },
      "handle_type": 0,
      "interpolation": 0
     }
    ]
   },
   "start": 0,
   "time": {
    "Points": [
     {
      "co": {
       "X": 1.0,
       "Y": 1.0
      },
      "handle_left": {
       "X": 0.5,
       "Y": 1.0
      },
      "handle_right": {
       "X": 0.5,
       "Y": 0.0
      },
      "handle_type": 0,
      "interpolation": 0
     }
    ]
   },
   "volume": {
    "Points": [
     {
      "co": {
       "X": 1.0,
       "Y": 1.0
      },
      "handle_left": {
       "X": 0.5,
       "Y": 1.0
      },
      "handle_right": {
       "X": 0.5,
       "Y": 0.0
      },
      "handle_type": 0,
      "interpolation": 0
     }
    ]
   },
   "wave_color": {
    "alpha": {
     "Points": [
      {
       "co": {
        "X": 1.0,
        "Y": 255.0
       },
       "handle_left": {
        "X": 0.5,
        "Y": 1.0
       },
       "handle_right": {
        "X": 0.5,
        "Y": 0.0
       },
       "handle_type": 0,
       "interpolation": 0
      }
     ]
    },
    "blue": {
     "Points": [
      {
       "co": {
        "X": 1.0,
        "Y": 255.0
       },
       "handle_left": {
        "X": 0.5,
        "Y": 1.0
       },
       "handle_right": {
        "X": 0.5,
        "Y": 0.0
       },
       "handle_type": 0,
       "interpolation": 0
      }
     ]
    },
    "green": {
     "Points": [
      {
       "co": {
        "X": 1.0,
        "Y": 123.0
       },
       "handle_left": {
        "X": 0.5,
        "Y": 1.0
       },
       "handle_right": {
        "X": 0.5,
        "Y": 0.0
       },
       "handle_type": 0,
       "interpolation": 0
      }
     ]
    },
    "red": {
     "Points": [
      {
       "co": {
        "X": 1.0,
        "Y": 0.0
       },
       "handle_left": {
        "X": 0.5,
        "Y": 1.0
       },
       "handle_right": {
        "X": 0.5,
        "Y": 0.0
       },
       "handle_type": 0,
       "interpolation": 0
      }
     ]
    }
   },
   "waveform": false,
   "file_id": "FQ1W6KUCBI",
   "title": "drawing38.png",
   "image": "Tutorial_assets/thumbnail/FQ1W6KUCBI.png"
  },
  {
   "alpha": {
    "Points": [
     {
      "co": {
       "X": 1.0,
       "Y": 1.0
      },
      "handle_left": {
       "X": 0.5,
       "Y": 1.0
      },
      "handle_right": {
       "X": 0.5,
       "Y": 0.0
      },
      "handle_type": 0,
      "interpolation": 0
     }
    ]
   },
   "anchor": 0,
   "channel_filter": {
    "Points": [
     {
      "co": {
       "X": 1.0,
       "Y": -1.0
      },
      "handle_left": {
       "X": 0.5,
       "Y": 1.0
      },
      "handle_right": {
       "X": 0.5,
       "Y": 0.0
      },
      "handle_type": 0,
      "interpolation": 0
     }
    ]
   },
   "channel_mapping": {
    "Points": [
     {
      "co": {
       "X": 1.0,
       "Y": -1.0
      },
      "handle_left": {
       "X": 0.5,
       "Y": 1.0
      },
      "handle_right": {
       "X": 0.5,
       "Y": 0.0
      },
      "handle_type": 0,
      "interpolation": 0
     }
    ]
   },
   "display": 0,
   "duration": 55.400001525878906,
   "effects": [],
   "end": 27.823764080688484,
   "gravity": 4,
   "has_audio": {
    "Points": [
     {
      "co": {
       "X": 1.0,
       "Y": -1.0
      },
      "handle_left": {
       "X": 0.5,
       "Y": 1.0
      },
      "handle_right": {
       "X": 0.5,
       "Y": 0.0
      },
      "handle_type": 0,
      "interpolation": 0
     }
    ]
   },
   "has_video": {
    "Points": [
     {
      "co": {
       "X": 1.0,
       "Y": -1.0
      },
      "handle_left": {
       "X": 0.5,
       "Y": 1.0
      },
      "handle_right": {
       "X": 0.5,
       "Y": 0.0
      },
      "handle_type": 0,
      "interpolation": 0
     }
    ]
   },
   "layer": 1000000,
   "location_x": {
    "Points": [
     {
      "co": {
       "X": 1.0,
       "Y": 0.0
      },
      "handle_left": {
       "X": 0.5,
       "Y": 1.0
      },
      "handle_right": {
       "X": 0.5,
       "Y": 0.0
      },
      "handle_type": 0,
      "interpolation": 0
     }
    ]
   },
   "location_y": {
    "Points": [
     {
      "co": {
       "X": 1.0,
       "Y": 0.0
      },
      "handle_left": {
       "X": 0.5,
       "Y": 1.0
      },
      "handle_right": {
       "X": 0.5,
       "Y": 0.0
      },
      "handle_type": 0,
      "interpolation": 0
     }
    ]
   },
   "mixing": 0,
   "origin_x": {
    "Points": [
     {
      "co": {
       "X": 1.0,
       "Y": 0.5
      },
      "handle_left": {
       "X": 0.5,
       "Y": 1.0
      },
      "handle_right": {
       "X": 0.5,
       "Y": 0.0
      },
      "handle_type": 0,
      "interpolation": 0
     }
    ]
   },
   "origin_y": {
    "Points": [
     {
      "co": {
       "X": 1.0,
       "Y": 0.5
      },
      "handle_left": {
       "X": 0.5,
       "Y": 1.0
      },
      "handle_right": {
       "X": 0.5,
       "Y": 0.0
      },
      "handle_type": 0,
      "interpolation": 0
     }
    ]
   },
   "parentObjectId": "",
   "perspective_c1_x": {
    "Points": [
     {
      "co": {
       "X": 1.0,
       "Y": -1.0
      },
      "handle_left": {
       "X": 0.5,
       "Y": 1.0
      },
      "handle_right": {
       "X": 0.5,
       "Y": 0.0
      },
      "handle_type": 0,
      "interpolation": 0
     }
    ]
   },
   "perspective_c1_y": {
    "Points": [
     {
      "co": {
       "X": 1.0,
       "Y": -1.0
      },
      "handle_left": {
       "X": 0.5,
       "Y": 1.0
      },
      "handle_right": {
       "X": 0.5,
       "Y": 0.0
      },
      "handle_type": 0,
      "interpolation": 0
     }
    ]
   },
   "perspective_c2_x": {
    "Points": [
     {
      "co": {
       "X": 1.0,
       "Y": -1.0
      },
      "handle_left": {
       "X": 0.5,
       "Y": 1.0
      },
      "handle_right": {
       "X": 0.5,
       "Y": 0.0
      },
      "handle_type": 0,
      "interpolation": 0
     }
    ]
   },
   "perspective_c2_y": {
    "Points": [
     {
      "co": {
       "X": 1.0,
       "Y": -1.0
      },
      "handle_left": {
       "X": 0.5,
       "Y": 1.0
      },
      "handle_right": {
       "X": 0.5,
       "Y": 0.0
      },
      "handle_type": 0,
      "interpolation": 0
     }
    ]
   },
   "perspective_c3_x": {
    "Points": [
     {
      "co": {
       "X": 1.0,
       "Y": -1.0
      },
      "handle_left": {
       "X": 0.5,
       "Y": 1.0
      },
      "handle_right": {
       "X": 0.5,
       "Y": 0.0
      },
      "handle_type": 0,
      "interpolation": 0
     }
    ]
   },
   "perspective_c3_y": {
    "Points": [
     {
      "co": {
       "X": 1.0,
       "Y": -1.0
      },
      "handle_left": {
       "X": 0.5,
       "Y": 1.0
      },
      "handle_right": {
       "X": 0.5,
       "Y": 0.0
      },
      "handle_type": 0,
      "interpolation": 0
     }
    ]
   },
   "perspective_c4_x": {
    "Points": [
     {
      "co": {
       "X": 1.0,
       "Y": -1.0
      },
      "handle_left": {
       "X": 0.5,
       "Y": 1.0
      },
      "handle_right": {
       "X": 0.5,
       "Y": 0.0
      },
      "handle_type": 0,
      "interpolation": 0
     }
    ]
   },
   "perspective_c4_y": {
    "Points": [
     {
      "co": {
       "X": 1.0,
       "Y": -1.0
      },
      "handle_left": {
       "X": 0.5,
       "Y": 1.0
      },
      "handle_right": {
       "X": 0.5,
       "Y": 0.0
      },
      "handle_type": 0,
      "interpolation": 0
     }
    ]
   },
   "position": 267.9,
   "reader": {
    "acodec": "",
    "audio_bit_rate": 0,
    "audio_stream_index": -1,
    "audio_timebase": {
     "den": 1,
     "num": 1
    },
    "channel_layout": 4,
    "channels": 0,
    "display_ratio": {
     "den": 9,
     "num": 16
    },
    "duration": 55.400001525878906,
    "file_size": "29160211",
    "fps": {
     "den": 1,
     "num": 30
    },
    "has_audio": false,
    "has_single_image": false,
    "has_video": true,
    "height": 1080,
    "interlaced_frame": false,
    "metadata": {
     "compatible_brands": "mp41isom",
     "creation_time": "2024-05-26T21:25:52.000000Z",
     "encoder": "AVC Coding",
     "handler_name": "VideoHandler",
     "language": "und",
     "major_brand": "mp42",
     "minor_version": "0"
    },
    "path": "./Movie_012.mp4",
    "pixel_format": 0,
    "pixel_ratio": {
     "den": 1,
     "num": 1
    },
    "sample_rate": 0,
    "top_field_first": true,
    "type": "FFmpegReader",
    "vcodec": "h264",
    "video_bit_rate": 526357,
    "video_length": "1662",
    "video_stream_index": 0,
    "video_timebase": {
     "den": 30000,
     "num": 1
    },
    "width": 1920,
    "media_type": "video",
    "id": "KBSWRPDX0A"
   },
   "rotation": {
    "Points": [
     {
      "co": {
       "X": 1.0,
       "Y": 0.0
      },
      "handle_left": {
       "X": 0.5,
       "Y": 1.0
      },
      "handle_right": {
       "X": 0.5,
       "Y": 0.0
      },
      "handle_type": 0,
      "interpolation": 0
     }
    ]
   },
   "scale": 1,
   "scale_x": {
    "Points": [
     {
      "co": {
       "X": 1.0,
       "Y": 1.0
      },
      "handle_left": {
       "X": 0.5,
       "Y": 1.0
      },
      "handle_right": {
       "X": 0.5,
       "Y": 0.0
      },
      "handle_type": 0,
      "interpolation": 0
     }
    ]
   },
   "scale_y": {
    "Points": [
     {
      "co": {
       "X": 1.0,
       "Y": 1.0
      },
      "handle_left": {
       "X": 0.5,
       "Y": 1.0
      },
      "handle_right": {
       "X": 0.5,
       "Y": 0.0
      },
      "handle_type": 0,
      "interpolation": 0
     }
    ]
   },
   "shear_x": {
    "Points": [
     {
      "co": {
       "X": 1.0,
       "Y": 0.0
      },
      "handle_left": {
       "X": 0.5,
       "Y": 1.0
      },
      "handle_right": {
       "X": 0.5,
       "Y": 0.0
      },
      "handle_type": 0,
      "interpolation": 0
     }
    ]
   },
   "shear_y": {
    "Points": [
     {
      "co": {
       "X": 1.0,
       "Y": 0.0
      },
      "handle_left": {
       "X": 0.5,
       "Y": 1.0
      },
      "handle_right": {
       "X": 0.5,
       "Y": 0.0
      },
      "handle_type": 0,
      "interpolation": 0
     }
    ]
   },
   "start": 25.12376408068844,
   "time": {
    "Points": [
     {
      "co": {
       "X": 1.0,
       "Y": 1.0
      },
      "handle_left": {
       "X": 0.5,
       "Y": 1.0
      },
      "handle_right": {
       "X": 0.5,
       "Y": 0.0
      },
      "handle_type": 0,
      "interpolation": 0
     }
    ]
   },
   "volume": {
    "Points": [
     {
      "co": {
       "X": 1.0,
       "Y": 1.0
      },
      "handle_left": {
       "X": 0.5,
       "Y": 1.0
      },
      "handle_right": {
       "X": 0.5,
       "Y": 0.0
      },
      "handle_type": 0,
      "interpolation": 0
     }
    ]
   },
   "wave_color": {
    "alpha": {
     "Points": [
      {
       "co": {
        "X": 1.0,
        "Y": 255.0
       },
       "handle_left": {
        "X": 0.5,
        "Y": 1.0
       },
       "handle_right": {
        "X": 0.5,
        "Y": 0.0
       },
       "handle_type": 0,
       "interpolation": 0
      }
     ]
    },
    "blue": {
     "Points": [
      {
       "co": {
        "X": 1.0,
        "Y": 255.0
       },
       "handle_left": {
        "X": 0.5,
        "Y": 1.0
       },
       "handle_right": {
        "X": 0.5,
        "Y": 0.0
       },
       "handle_type": 0,
       "interpolation": 0
      }
     ]
    },
    "green": {
     "Points": [
      {
       "co": {
        "X": 1.0,
        "Y": 123.0
       },
       "handle_left": {
        "X": 0.5,
        "Y": 1.0
       },
       "handle_right": {
        "X": 0.5,
        "Y": 0.0
       },
       "handle_type": 0,
       "interpolation": 0
      }
     ]
    },
    "red": {
     "Points": [
      {
       "co": {
        "X": 1.0,
        "Y": 0.0
       },
       "handle_left": {
        "X": 0.5,
        "Y": 1.0
       },
       "handle_right": {
        "X": 0.5,
        "Y": 0.0
       },
       "handle_type": 0,
       "interpolation": 0
      }
     ]
    }
   },
   "waveform": false,
   "file_id": "KBSWRPDX0A",
   "title": "Movie_012.mp4",
   "image": "Tutorial_assets/thumbnail/KBSWRPDX0A.png",
   "id": "L1431SK307"
  },
  {
   "alpha": {
    "Points": [
     {
      "co": {
       "X": 1.0,
       "Y": 1.0
      },
      "handle_left": {
       "X": 0.5,
       "Y": 1.0
      },
      "handle_right": {
       "X": 0.5,
       "Y": 0.0
      },
      "handle_type": 0,
      "interpolation": 0
     }
    ]
   },
   "anchor": 0,
   "channel_filter": {
    "Points": [
     {
      "co": {
       "X": 1.0,
       "Y": -1.0
      },
      "handle_left": {
       "X": 0.5,
       "Y": 1.0
      },
      "handle_right": {
       "X": 0.5,
       "Y": 0.0
      },
      "handle_type": 0,
      "interpolation": 0
     }
    ]
   },
   "channel_mapping": {
    "Points": [
     {
      "co": {
       "X": 1.0,
       "Y": -1.0
      },
      "handle_left": {
       "X": 0.5,
       "Y": 1.0
      },
      "handle_right": {
       "X": 0.5,
       "Y": 0.0
      },
      "handle_type": 0,
      "interpolation": 0
     }
    ]
   },
   "display": 0,
   "duration": 3600.0,
   "effects": [],
   "end": 6.900000000000026,
   "gravity": 4,
   "has_audio": {
    "Points": [
     {
      "co": {
       "X": 1.0,
       "Y": -1.0
      },
      "handle_left": {
       "X": 0.5,
       "Y": 1.0
      },
      "handle_right": {
       "X": 0.5,
       "Y": 0.0
      },
      "handle_type": 0,
      "interpolation": 0
     }
    ]
   },
   "has_video": {
    "Points": [
     {
      "co": {
       "X": 1.0,
       "Y": -1.0
      },
      "handle_left": {
       "X": 0.5,
       "Y": 1.0
      },
      "handle_right": {
       "X": 0.5,
       "Y": 0.0
      },
      "handle_type": 0,
      "interpolation": 0
     }
    ]
   },
   "id": "A9CPND3NZX",
   "layer": 2000000,
   "location_x": {
    "Points": [
     {
      "co": {
       "X": 1,
       "Y": -0.277683087822932
      },
      "handle_left": {
       "X": 0.5,
       "Y": 1.0
      },
      "handle_right": {
       "X": 0.5,
       "Y": 0.0
      },
      "handle_type": 0,
      "interpolation": 0
     }
    ]
   },
   "location_y": {
    "Points": [
     {
      "co": {
       "X": 1,
       "Y": -0.1303030238007054
      },
      "handle_left": {
       "X": 0.5,
       "Y": 1.0
      },
      "handle_right": {
       "X": 0.5,
       "Y": 0.0
      },
      "handle_type": 0,
      "interpolation": 0
     }
    ]
   },
   "mixing": 0,
   "origin_x": {
    "Points": [
     {
      "co": {
       "X": 1.0,
       "Y": 0.5
      },
      "handle_left": {
       "X": 0.5,
       "Y": 1.0
      },
      "handle_right": {
       "X": 0.5,
       "Y": 0.0
      },
      "handle_type": 0,
      "interpolation": 0
     }
    ]
   },
   "origin_y": {
    "Points": [
     {
      "co": {
       "X": 1.0,
       "Y": 0.5
      },
      "handle_left": {
       "X": 0.5,
       "Y": 1.0
      },
      "handle_right": {
       "X": 0.5,
       "Y": 0.0
      },
      "handle_type": 0,
      "interpolation": 0
     }
    ]
   },
   "parentObjectId": "",
   "perspective_c1_x": {
    "Points": [
     {
      "co": {
       "X": 1.0,
       "Y": -1.0
      },
      "handle_left": {
       "X": 0.5,
       "Y": 1.0
      },
      "handle_right": {
       "X": 0.5,
       "Y": 0.0
      },
      "handle_type": 0,
      "interpolation": 0
     }
    ]
   },
   "perspective_c1_y": {
    "Points": [
     {
      "co": {
       "X": 1.0,
       "Y": -1.0
      },
      "handle_left": {
       "X": 0.5,
       "Y": 1.0
      },
      "handle_right": {
       "X": 0.5,
       "Y": 0.0
      },
      "handle_type": 0,
      "interpolation": 0
     }
    ]
   },
   "perspective_c2_x": {
    "Points": [
     {
      "co": {
       "X": 1.0,
       "Y": -1.0
      },
      "handle_left": {
       "X": 0.5,
       "Y": 1.0
      },
      "handle_right": {
       "X": 0.5,
       "Y": 0.0
      },
      "handle_type": 0,
      "interpolation": 0
     }
    ]
   },
   "perspective_c2_y": {
    "Points": [
     {
      "co": {
       "X": 1.0,
       "Y": -1.0
      },
      "handle_left": {
       "X": 0.5,
       "Y": 1.0
      },
      "handle_right": {
       "X": 0.5,
       "Y": 0.0
      },
      "handle_type": 0,
      "interpolation": 0
     }
    ]
   },
   "perspective_c3_x": {
    "Points": [
     {
      "co": {
       "X": 1.0,
       "Y": -1.0
      },
      "handle_left": {
       "X": 0.5,
       "Y": 1.0
      },
      "handle_right": {
       "X": 0.5,
       "Y": 0.0
      },
      "handle_type": 0,
      "interpolation": 0
     }
    ]
   },
   "perspective_c3_y": {
    "Points": [
     {
      "co": {
       "X": 1.0,
       "Y": -1.0
      },
      "handle_left": {
       "X": 0.5,
       "Y": 1.0
      },
      "handle_right": {
       "X": 0.5,
       "Y": 0.0
      },
      "handle_type": 0,
      "interpolation": 0
     }
    ]
   },
   "perspective_c4_x": {
    "Points": [
     {
      "co": {
       "X": 1.0,
       "Y": -1.0
      },
      "handle_left": {
       "X": 0.5,
       "Y": 1.0
      },
      "handle_right": {
       "X": 0.5,
       "Y": 0.0
      },
      "handle_type": 0,
      "interpolation": 0
     }
    ]
   },
   "perspective_c4_y": {
    "Points": [
     {
      "co": {
       "X": 1.0,
       "Y": -1.0
      },
      "handle_left": {
       "X": 0.5,
       "Y": 1.0
      },
      "handle_right": {
       "X": 0.5,
       "Y": 0.0
      },
      "handle_type": 0,
      "interpolation": 0
     }
    ]
   },
   "position": 260.8333333333333,
   "reader": {
    "acodec": "",
    "audio_bit_rate": 0,
    "audio_stream_index": -1,
    "audio_timebase": {
     "den": 1,
     "num": 1
    },
    "channel_layout": 4,
    "channels": 0,
    "display_ratio": {
     "den": 721,
     "num": 1700
    },
    "duration": 3600.0,
    "file_size": "4902800",
    "fps": {
     "den": 1,
     "num": 30
    },
    "has_audio": false,
    "has_single_image": true,
    "has_video": true,
    "height": 721,
    "interlaced_frame": false,
    "metadata": {},
    "path": "./drawing39.png",
    "pixel_format": -1,
    "pixel_ratio": {
     "den": 1,
     "num": 1
    },
    "sample_rate": 0,
    "top_field_first": true,
    "type": "QtImageReader",
    "vcodec": "",
    "video_bit_rate": 0,
    "video_length": "108000",
    "video_stream_index": -1,
    "video_timebase": {
     "den": 30,
     "num": 1
    },
    "width": 1700,
    "media_type": "image",
    "id": "IBXEJYB8PQ"
   },
   "rotation": {
    "Points": [
     {
      "co": {
       "X": 1.0,
       "Y": 0.0
      },
      "handle_left": {
       "X": 0.5,
       "Y": 1.0
      },
      "handle_right": {
       "X": 0.5,
       "Y": 0.0
      },
      "handle_type": 0,
      "interpolation": 0
     }
    ]
   },
   "scale": 1,
   "scale_x": {
    "Points": [
     {
      "co": {
       "X": 1,
       "Y": 0.3304939396438241
      },
      "handle_left": {
       "X": 0.5,
       "Y": 1.0
      },
      "handle_right": {
       "X": 0.5,
       "Y": 0.0
      },
      "handle_type": 0,
      "interpolation": 0
     }
    ]
   },
   "scale_y": {
    "Points": [
     {
      "co": {
       "X": 1,
       "Y": 0.3304939396438241
      },
      "handle_left": {
       "X": 0.5,
       "Y": 1.0
      },
      "handle_right": {
       "X": 0.5,
       "Y": 0.0
      },
      "handle_type": 0,
      "interpolation": 0
     }
    ]
   },
   "shear_x": {
    "Points": [
     {
      "co": {
       "X": 1.0,
       "Y": 0.0
      },
      "handle_left": {
       "X": 0.5,
       "Y": 1.0
      },
      "handle_right": {
       "X": 0.5,
       "Y": 0.0
      },
      "handle_type": 0,
      "interpolation": 0
     }
    ]
   },
   "shear_y": {
    "Points": [
     {
      "co": {
       "X": 1.0,
       "Y": 0.0
      },
      "handle_left": {
       "X": 0.5,
       "Y": 1.0
      },
      "handle_right": {
       "X": 0.5,
       "Y": 0.0
      },
      "handle_type": 0,
      "interpolation": 0
     }
    ]
   },
   "start": 0,
   "time": {
    "Points": [
     {
      "co": {
       "X": 1.0,
       "Y": 1.0
      },
      "handle_left": {
       "X": 0.5,
       "Y": 1.0
      },
      "handle_right": {
       "X": 0.5,
       "Y": 0.0
      },
      "handle_type": 0,
      "interpolation": 0
     }
    ]
   },
   "volume": {
    "Points": [
     {
      "co": {
       "X": 1.0,
       "Y": 1.0
      },
      "handle_left": {
       "X": 0.5,
       "Y": 1.0
      },
      "handle_right": {
       "X": 0.5,
       "Y": 0.0
      },
      "handle_type": 0,
      "interpolation": 0
     }
    ]
   },
   "wave_color": {
    "alpha": {
     "Points": [
      {
       "co": {
        "X": 1.0,
        "Y": 255.0
       },
       "handle_left": {
        "X": 0.5,
        "Y": 1.0
       },
       "handle_right": {
        "X": 0.5,
        "Y": 0.0
       },
       "handle_type": 0,
       "interpolation": 0
      }
     ]
    },
    "blue": {
     "Points": [
      {
       "co": {
        "X": 1.0,
        "Y": 255.0
       },
       "handle_left": {
        "X": 0.5,
        "Y": 1.0
       },
       "handle_right": {
        "X": 0.5,
        "Y": 0.0
       },
       "handle_type": 0,
       "interpolation": 0
      }
     ]
    },
    "green": {
     "Points": [
      {
       "co": {
        "X": 1.0,
        "Y": 123.0
       },
       "handle_left": {
        "X": 0.5,
        "Y": 1.0
       },
       "handle_right": {
        "X": 0.5,
        "Y": 0.0
       },
       "handle_type": 0,
       "interpolation": 0
      }
     ]
    },
    "red": {
     "Points": [
      {
       "co": {
        "X": 1.0,
        "Y": 0.0
       },
       "handle_left": {
        "X": 0.5,
        "Y": 1.0
       },
       "handle_right": {
        "X": 0.5,
        "Y": 0.0
       },
       "handle_type": 0,
       "interpolation": 0
      }
     ]
    }
   },
   "waveform": false,
   "file_id": "IBXEJYB8PQ",
   "title": "drawing39.png",
   "image": "Tutorial_assets/thumbnail/IBXEJYB8PQ.png"
  },
  {
   "alpha": {
    "Points": [
     {
      "co": {
       "X": 1.0,
       "Y": 1.0
      },
      "handle_left": {
       "X": 0.5,
       "Y": 1.0
      },
      "handle_right": {
       "X": 0.5,
       "Y": 0.0
      },
      "handle_type": 0,
      "interpolation": 0
     }
    ]
   },
   "anchor": 0,
   "channel_filter": {
    "Points": [
     {
      "co": {
       "X": 1.0,
       "Y": -1.0
      },
      "handle_left": {
       "X": 0.5,
       "Y": 1.0
      },
      "handle_right": {
       "X": 0.5,
       "Y": 0.0
      },
      "handle_type": 0,
      "interpolation": 0
     }
    ]
   },
   "channel_mapping": {
    "Points": [
     {
      "co": {
       "X": 1.0,
       "Y": -1.0
      },
      "handle_left": {
       "X": 0.5,
       "Y": 1.0
      },
      "handle_right": {
       "X": 0.5,
       "Y": 0.0
      },
      "handle_type": 0,
      "interpolation": 0
     }
    ]
   },
   "display": 0,
   "duration": 3600.0,
   "effects": [],
   "end": 6.413838263126907,
   "gravity": 4,
   "has_audio": {
    "Points": [
     {
      "co": {
       "X": 1.0,
       "Y": -1.0
      },
      "handle_left": {
       "X": 0.5,
       "Y": 1.0
      },
      "handle_right": {
       "X": 0.5,
       "Y": 0.0
      },
      "handle_type": 0,
      "interpolation": 0
     }
    ]
   },
   "has_video": {
    "Points": [
     {
      "co": {
       "X": 1.0,
       "Y": -1.0
      },
      "handle_left": {
       "X": 0.5,
       "Y": 1.0
      },
      "handle_right": {
       "X": 0.5,
       "Y": 0.0
      },
      "handle_type": 0,
      "interpolation": 0
     }
    ]
   },
   "id": "T4LJLPFXUS",
   "layer": 1000000,
   "location_x": {
    "Points": [
     {
      "co": {
       "X": 1.0,
       "Y": 0.0
      },
      "handle_left": {
       "X": 0.5,
       "Y": 1.0
      },
      "handle_right": {
       "X": 0.5,
       "Y": 0.0
      },
      "handle_type": 0,
      "interpolation": 0
     }
    ]
   },
   "location_y": {
    "Points": [
     {
      "co": {
       "X": 1.0,
       "Y": 0.0
      },
      "handle_left": {
       "X": 0.5,
       "Y": 1.0
      },
      "handle_right": {
       "X": 0.5,
       "Y": 0.0
      },
      "handle_type": 0,
      "interpolation": 0
     }
    ]
   },
   "mixing": 0,
   "origin_x": {
    "Points": [
     {
      "co": {
       "X": 1.0,
       "Y": 0.5
      },
      "handle_left": {
       "X": 0.5,
       "Y": 1.0
      },
      "handle_right": {
       "X": 0.5,
       "Y": 0.0
      },
      "handle_type": 0,
      "interpolation": 0
     }
    ]
   },
   "origin_y": {
    "Points": [
     {
      "co": {
       "X": 1.0,
       "Y": 0.5
      },
      "handle_left": {
       "X": 0.5,
       "Y": 1.0
      },
      "handle_right": {
       "X": 0.5,
       "Y": 0.0
      },
      "handle_type": 0,
      "interpolation": 0
     }
    ]
   },
   "parentObjectId": "",
   "perspective_c1_x": {
    "Points": [
     {
      "co": {
       "X": 1.0,
       "Y": -1.0
      },
      "handle_left": {
       "X": 0.5,
       "Y": 1.0
      },
      "handle_right": {
       "X": 0.5,
       "Y": 0.0
      },
      "handle_type": 0,
      "interpolation": 0
     }
    ]
   },
   "perspective_c1_y": {
    "Points": [
     {
      "co": {
       "X": 1.0,
       "Y": -1.0
      },
      "handle_left": {
       "X": 0.5,
       "Y": 1.0
      },
      "handle_right": {
       "X": 0.5,
       "Y": 0.0
      },
      "handle_type": 0,
      "interpolation": 0
     }
    ]
   },
   "perspective_c2_x": {
    "Points": [
     {
      "co": {
       "X": 1.0,
       "Y": -1.0
      },
      "handle_left": {
       "X": 0.5,
       "Y": 1.0
      },
      "handle_right": {
       "X": 0.5,
       "Y": 0.0
      },
      "handle_type": 0,
      "interpolation": 0
     }
    ]
   },
   "perspective_c2_y": {
    "Points": [
     {
      "co": {
       "X": 1.0,
       "Y": -1.0
      },
      "handle_left": {
       "X": 0.5,
       "Y": 1.0
      },
      "handle_right": {
       "X": 0.5,
       "Y": 0.0
      },
      "handle_type": 0,
      "interpolation": 0
     }
    ]
   },
   "perspective_c3_x": {
    "Points": [
     {
      "co": {
       "X": 1.0,
       "Y": -1.0
      },
      "handle_left": {
       "X": 0.5,
       "Y": 1.0
      },
      "handle_right": {
       "X": 0.5,
       "Y": 0.0
      },
      "handle_type": 0,
      "interpolation": 0
     }
    ]
   },
   "perspective_c3_y": {
    "Points": [
     {
      "co": {
       "X": 1.0,
       "Y": -1.0
      },
      "handle_left": {
       "X": 0.5,
       "Y": 1.0
      },
      "handle_right": {
       "X": 0.5,
       "Y": 0.0
      },
      "handle_type": 0,
      "interpolation": 0
     }
    ]
   },
   "perspective_c4_x": {
    "Points": [
     {
      "co": {
       "X": 1.0,
       "Y": -1.0
      },
      "handle_left": {
       "X": 0.5,
       "Y": 1.0
      },
      "handle_right": {
       "X": 0.5,
       "Y": 0.0
      },
      "handle_type": 0,
      "interpolation": 0
     }
    ]
   },
   "perspective_c4_y": {
    "Points": [
     {
      "co": {
       "X": 1.0,
       "Y": -1.0
      },
      "handle_left": {
       "X": 0.5,
       "Y": 1.0
      },
      "handle_right": {
       "X": 0.5,
       "Y": 0.0
      },
      "handle_type": 0,
      "interpolation": 0
     }
    ]
   },
   "position": 261.5,
   "reader": {
    "acodec": "",
    "audio_bit_rate": 0,
    "audio_stream_index": -1,
    "audio_timebase": {
     "den": 1,
     "num": 1
    },
    "channel_layout": 4,
    "channels": 0,
    "display_ratio": {
     "den": 9,
     "num": 16
    },
    "duration": 3600.0,
    "file_size": "8294400",
    "fps": {
     "den": 1,
     "num": 30
    },
    "has_audio": false,
    "has_single_image": true,
    "has_video": true,
    "height": 1080,
    "interlaced_frame": false,
    "metadata": {},
    "path": "./Frame-07845.png",
    "pixel_format": -1,
    "pixel_ratio": {
     "den": 1,
     "num": 1
    },
    "sample_rate": 0,
    "top_field_first": true,
    "type": "QtImageReader",
    "vcodec": "",
    "video_bit_rate": 0,
    "video_length": "108000",
    "video_stream_index": -1,
    "video_timebase": {
     "den": 30,
     "num": 1
    },
    "width": 1920,
    "media_type": "image",
    "id": "53LOR2W8NW",
    "image": "Tutorial_assets/thumbnail/53LOR2W8NW.png"
   },
   "rotation": {
    "Points": [
     {
      "co": {
       "X": 1.0,
       "Y": 0.0
      },
      "handle_left": {
       "X": 0.5,
       "Y": 1.0
      },
      "handle_right": {
       "X": 0.5,
       "Y": 0.0
      },
      "handle_type": 0,
      "interpolation": 0
     }
    ]
   },
   "scale": 1,
   "scale_x": {
    "Points": [
     {
      "co": {
       "X": 1.0,
       "Y": 1.0
      },
      "handle_left": {
       "X": 0.5,
       "Y": 1.0
      },
      "handle_right": {
       "X": 0.5,
       "Y": 0.0
      },
      "handle_type": 0,
      "interpolation": 0
     }
    ]
   },
   "scale_y": {
    "Points": [
     {
      "co": {
       "X": 1.0,
       "Y": 1.0
      },
      "handle_left": {
       "X": 0.5,
       "Y": 1.0
      },
      "handle_right": {
       "X": 0.5,
       "Y": 0.0
      },
      "handle_type": 0,
      "interpolation": 0
     }
    ]
   },
   "shear_x": {
    "Points": [
     {
      "co": {
       "X": 1.0,
       "Y": 0.0
      },
      "handle_left": {
       "X": 0.5,
       "Y": 1.0
      },
      "handle_right": {
       "X": 0.5,
       "Y": 0.0
      },
      "handle_type": 0,
      "interpolation": 0
     }
    ]
   },
   "shear_y": {
    "Points": [
     {
      "co": {
       "X": 1.0,
       "Y": 0.0
      },
      "handle_left": {
       "X": 0.5,
       "Y": 1.0
      },
      "handle_right": {
       "X": 0.5,
       "Y": 0.0
      },
      "handle_type": 0,
      "interpolation": 0
     }
    ]
   },
   "start": 0,
   "time": {
    "Points": [
     {
      "co": {
       "X": 1.0,
       "Y": 1.0
      },
      "handle_left": {
       "X": 0.5,
       "Y": 1.0
      },
      "handle_right": {
       "X": 0.5,
       "Y": 0.0
      },
      "handle_type": 0,
      "interpolation": 0
     }
    ]
   },
   "volume": {
    "Points": [
     {
      "co": {
       "X": 1.0,
       "Y": 1.0
      },
      "handle_left": {
       "X": 0.5,
       "Y": 1.0
      },
      "handle_right": {
       "X": 0.5,
       "Y": 0.0
      },
      "handle_type": 0,
      "interpolation": 0
     }
    ]
   },
   "wave_color": {
    "alpha": {
     "Points": [
      {
       "co": {
        "X": 1.0,
        "Y": 255.0
       },
       "handle_left": {
        "X": 0.5,
        "Y": 1.0
       },
       "handle_right": {
        "X": 0.5,
        "Y": 0.0
       },
       "handle_type": 0,
       "interpolation": 0
      }
     ]
    },
    "blue": {
     "Points": [
      {
       "co": {
        "X": 1.0,
        "Y": 255.0
       },
       "handle_left": {
        "X": 0.5,
        "Y": 1.0
       },
       "handle_right": {
        "X": 0.5,
        "Y": 0.0
       },
       "handle_type": 0,
       "interpolation": 0
      }
     ]
    },
    "green": {
     "Points": [
      {
       "co": {
        "X": 1.0,
        "Y": 123.0
       },
       "handle_left": {
        "X": 0.5,
        "Y": 1.0
       },
       "handle_right": {
        "X": 0.5,
        "Y": 0.0
       },
       "handle_type": 0,
       "interpolation": 0
      }
     ]
    },
    "red": {
     "Points": [
      {
       "co": {
        "X": 1.0,
        "Y": 0.0
       },
       "handle_left": {
        "X": 0.5,
        "Y": 1.0
       },
       "handle_right": {
        "X": 0.5,
        "Y": 0.0
       },
       "handle_type": 0,
       "interpolation": 0
      }
     ]
    }
   },
   "waveform": false,
   "file_id": "53LOR2W8NW",
   "title": "Frame-07845.png",
   "image": "Tutorial_assets/thumbnail/53LOR2W8NW.png"
  },
  {
   "alpha": {
    "Points": [
     {
      "co": {
       "X": 1.0,
       "Y": 1.0
      },
      "handle_left": {
       "X": 0.5,
       "Y": 1.0
      },
      "handle_right": {
       "X": 0.5,
       "Y": 0.0
      },
      "handle_type": 0,
      "interpolation": 0
     }
    ]
   },
   "anchor": 0,
   "channel_filter": {
    "Points": [
     {
      "co": {
       "X": 1.0,
       "Y": -1.0
      },
      "handle_left": {
       "X": 0.5,
       "Y": 1.0
      },
      "handle_right": {
       "X": 0.5,
       "Y": 0.0
      },
      "handle_type": 0,
      "interpolation": 0
     }
    ]
   },
   "channel_mapping": {
    "Points": [
     {
      "co": {
       "X": 1.0,
       "Y": -1.0
      },
      "handle_left": {
       "X": 0.5,
       "Y": 1.0
      },
      "handle_right": {
       "X": 0.5,
       "Y": 0.0
      },
      "handle_type": 0,
      "interpolation": 0
     }
    ]
   },
   "display": 0,
   "duration": 55.400001525878906,
   "effects": [],
   "end": 39.72376408068852,
   "gravity": 4,
   "has_audio": {
    "Points": [
     {
      "co": {
       "X": 1.0,
       "Y": -1.0
      },
      "handle_left": {
       "X": 0.5,
       "Y": 1.0
      },
      "handle_right": {
       "X": 0.5,
       "Y": 0.0
      },
      "handle_type": 0,
      "interpolation": 0
     }
    ]
   },
   "has_video": {
    "Points": [
     {
      "co": {
       "X": 1.0,
       "Y": -1.0
      },
      "handle_left": {
       "X": 0.5,
       "Y": 1.0
      },
      "handle_right": {
       "X": 0.5,
       "Y": 0.0
      },
      "handle_type": 0,
      "interpolation": 0
     }
    ]
   },
   "layer": 1000000,
   "location_x": {
    "Points": [
     {
      "co": {
       "X": 1.0,
       "Y": 0.0
      },
      "handle_left": {
       "X": 0.5,
       "Y": 1.0
      },
      "handle_right": {
       "X": 0.5,
       "Y": 0.0
      },
      "handle_type": 0,
      "interpolation": 0
     }
    ]
   },
   "location_y": {
    "Points": [
     {
      "co": {
       "X": 1.0,
       "Y": 0.0
      },
      "handle_left": {
       "X": 0.5,
       "Y": 1.0
      },
      "handle_right": {
       "X": 0.5,
       "Y": 0.0
      },
      "handle_type": 0,
      "interpolation": 0
     }
    ]
   },
   "mixing": 0,
   "origin_x": {
    "Points": [
     {
      "co": {
       "X": 1.0,
       "Y": 0.5
      },
      "handle_left": {
       "X": 0.5,
       "Y": 1.0
      },
      "handle_right": {
       "X": 0.5,
       "Y": 0.0
      },
      "handle_type": 0,
      "interpolation": 0
     }
    ]
   },
   "origin_y": {
    "Points": [
     {
      "co": {
       "X": 1.0,
       "Y": 0.5
      },
      "handle_left": {
       "X": 0.5,
       "Y": 1.0
      },
      "handle_right": {
       "X": 0.5,
       "Y": 0.0
      },
      "handle_type": 0,
      "interpolation": 0
     }
    ]
   },
   "parentObjectId": "",
   "perspective_c1_x": {
    "Points": [
     {
      "co": {
       "X": 1.0,
       "Y": -1.0
      },
      "handle_left": {
       "X": 0.5,
       "Y": 1.0
      },
      "handle_right": {
       "X": 0.5,
       "Y": 0.0
      },
      "handle_type": 0,
      "interpolation": 0
     }
    ]
   },
   "perspective_c1_y": {
    "Points": [
     {
      "co": {
       "X": 1.0,
       "Y": -1.0
      },
      "handle_left": {
       "X": 0.5,
       "Y": 1.0
      },
      "handle_right": {
       "X": 0.5,
       "Y": 0.0
      },
      "handle_type": 0,
      "interpolation": 0
     }
    ]
   },
   "perspective_c2_x": {
    "Points": [
     {
      "co": {
       "X": 1.0,
       "Y": -1.0
      },
      "handle_left": {
       "X": 0.5,
       "Y": 1.0
      },
      "handle_right": {
       "X": 0.5,
       "Y": 0.0
      },
      "handle_type": 0,
      "interpolation": 0
     }
    ]
   },
   "perspective_c2_y": {
    "Points": [
     {
      "co": {
       "X": 1.0,
       "Y": -1.0
      },
      "handle_left": {
       "X": 0.5,
       "Y": 1.0
      },
      "handle_right": {
       "X": 0.5,
       "Y": 0.0
      },
      "handle_type": 0,
      "interpolation": 0
     }
    ]
   },
   "perspective_c3_x": {
    "Points": [
     {
      "co": {
       "X": 1.0,
       "Y": -1.0
      },
      "handle_left": {
       "X": 0.5,
       "Y": 1.0
      },
      "handle_right": {
       "X": 0.5,
       "Y": 0.0
      },
      "handle_type": 0,
      "interpolation": 0
     }
    ]
   },
   "perspective_c3_y": {
    "Points": [
     {
      "co": {
       "X": 1.0,
       "Y": -1.0
      },
      "handle_left": {
       "X": 0.5,
       "Y": 1.0
      },
      "handle_right": {
       "X": 0.5,
       "Y": 0.0
      },
      "handle_type": 0,
      "interpolation": 0
     }
    ]
   },
   "perspective_c4_x": {
    "Points": [
     {
      "co": {
       "X": 1.0,
       "Y": -1.0
      },
      "handle_left": {
       "X": 0.5,
       "Y": 1.0
      },
      "handle_right": {
       "X": 0.5,
       "Y": 0.0
      },
      "handle_type": 0,
      "interpolation": 0
     }
    ]
   },
   "perspective_c4_y": {
    "Points": [
     {
      "co": {
       "X": 1.0,
       "Y": -1.0
      },
      "handle_left": {
       "X": 0.5,
       "Y": 1.0
      },
      "handle_right": {
       "X": 0.5,
       "Y": 0.0
      },
      "handle_type": 0,
      "interpolation": 0
     }
    ]
   },
   "position": 273.3333333333333,
   "reader": {
    "acodec": "",
    "audio_bit_rate": 0,
    "audio_stream_index": -1,
    "audio_timebase": {
     "den": 1,
     "num": 1
    },
    "channel_layout": 4,
    "channels": 0,
    "display_ratio": {
     "den": 9,
     "num": 16
    },
    "duration": 55.400001525878906,
    "file_size": "29160211",
    "fps": {
     "den": 1,
     "num": 30
    },
    "has_audio": false,
    "has_single_image": false,
    "has_video": true,
    "height": 1080,
    "interlaced_frame": false,
    "metadata": {
     "compatible_brands": "mp41isom",
     "creation_time": "2024-05-26T21:25:52.000000Z",
     "encoder": "AVC Coding",
     "handler_name": "VideoHandler",
     "language": "und",
     "major_brand": "mp42",
     "minor_version": "0"
    },
    "path": "./Movie_012.mp4",
    "pixel_format": 0,
    "pixel_ratio": {
     "den": 1,
     "num": 1
    },
    "sample_rate": 0,
    "top_field_first": true,
    "type": "FFmpegReader",
    "vcodec": "h264",
    "video_bit_rate": 526357,
    "video_length": "1662",
    "video_stream_index": 0,
    "video_timebase": {
     "den": 30000,
     "num": 1
    },
    "width": 1920,
    "media_type": "video",
    "id": "KBSWRPDX0A"
   },
   "rotation": {
    "Points": [
     {
      "co": {
       "X": 1.0,
       "Y": 0.0
      },
      "handle_left": {
       "X": 0.5,
       "Y": 1.0
      },
      "handle_right": {
       "X": 0.5,
       "Y": 0.0
      },
      "handle_type": 0,
      "interpolation": 0
     }
    ]
   },
   "scale": 1,
   "scale_x": {
    "Points": [
     {
      "co": {
       "X": 1.0,
       "Y": 1.0
      },
      "handle_left": {
       "X": 0.5,
       "Y": 1.0
      },
      "handle_right": {
       "X": 0.5,
       "Y": 0.0
      },
      "handle_type": 0,
      "interpolation": 0
     }
    ]
   },
   "scale_y": {
    "Points": [
     {
      "co": {
       "X": 1.0,
       "Y": 1.0
      },
      "handle_left": {
       "X": 0.5,
       "Y": 1.0
      },
      "handle_right": {
       "X": 0.5,
       "Y": 0.0
      },
      "handle_type": 0,
      "interpolation": 0
     }
    ]
   },
   "shear_x": {
    "Points": [
     {
      "co": {
       "X": 1.0,
       "Y": 0.0
      },
      "handle_left": {
       "X": 0.5,
       "Y": 1.0
      },
      "handle_right": {
       "X": 0.5,
       "Y": 0.0
      },
      "handle_type": 0,
      "interpolation": 0
     }
    ]
   },
   "shear_y": {
    "Points": [
     {
      "co": {
       "X": 1.0,
       "Y": 0.0
      },
      "handle_left": {
       "X": 0.5,
       "Y": 1.0
      },
      "handle_right": {
       "X": 0.5,
       "Y": 0.0
      },
      "handle_type": 0,
      "interpolation": 0
     }
    ]
   },
   "start": 27.823764080688484,
   "time": {
    "Points": [
     {
      "co": {
       "X": 1.0,
       "Y": 1.0
      },
      "handle_left": {
       "X": 0.5,
       "Y": 1.0
      },
      "handle_right": {
       "X": 0.5,
       "Y": 0.0
      },
      "handle_type": 0,
      "interpolation": 0
     }
    ]
   },
   "volume": {
    "Points": [
     {
      "co": {
       "X": 1.0,
       "Y": 1.0
      },
      "handle_left": {
       "X": 0.5,
       "Y": 1.0
      },
      "handle_right": {
       "X": 0.5,
       "Y": 0.0
      },
      "handle_type": 0,
      "interpolation": 0
     }
    ]
   },
   "wave_color": {
    "alpha": {
     "Points": [
      {
       "co": {
        "X": 1.0,
        "Y": 255.0
       },
       "handle_left": {
        "X": 0.5,
        "Y": 1.0
       },
       "handle_right": {
        "X": 0.5,
        "Y": 0.0
       },
       "handle_type": 0,
       "interpolation": 0
      }
     ]
    },
    "blue": {
     "Points": [
      {
       "co": {
        "X": 1.0,
        "Y": 255.0
       },
       "handle_left": {
        "X": 0.5,
        "Y": 1.0
       },
       "handle_right": {
        "X": 0.5,
        "Y": 0.0
       },
       "handle_type": 0,
       "interpolation": 0
      }
     ]
    },
    "green": {
     "Points": [
      {
       "co": {
        "X": 1.0,
        "Y": 123.0
       },
       "handle_left": {
        "X": 0.5,
        "Y": 1.0
       },
       "handle_right": {
        "X": 0.5,
        "Y": 0.0
       },
       "handle_type": 0,
       "interpolation": 0
      }
     ]
    },
    "red": {
     "Points": [
      {
       "co": {
        "X": 1.0,
        "Y": 0.0
       },
       "handle_left": {
        "X": 0.5,
        "Y": 1.0
       },
       "handle_right": {
        "X": 0.5,
        "Y": 0.0
       },
       "handle_type": 0,
       "interpolation": 0
      }
     ]
    }
   },
   "waveform": false,
   "file_id": "KBSWRPDX0A",
   "title": "Movie_012.mp4",
   "image": "Tutorial_assets/thumbnail/KBSWRPDX0A.png",
   "id": "6J3GN894Z6"
  },
  {
   "alpha": {
    "Points": [
     {
      "co": {
       "X": 1.0,
       "Y": 1.0
      },
      "handle_left": {
       "X": 0.5,
       "Y": 1.0
      },
      "handle_right": {
       "X": 0.5,
       "Y": 0.0
      },
      "handle_type": 0,
      "interpolation": 0
     }
    ]
   },
   "anchor": 0,
   "channel_filter": {
    "Points": [
     {
      "co": {
       "X": 1.0,
       "Y": -1.0
      },
      "handle_left": {
       "X": 0.5,
       "Y": 1.0
      },
      "handle_right": {
       "X": 0.5,
       "Y": 0.0
      },
      "handle_type": 0,
      "interpolation": 0
     }
    ]
   },
   "channel_mapping": {
    "Points": [
     {
      "co": {
       "X": 1.0,
       "Y": -1.0
      },
      "handle_left": {
       "X": 0.5,
       "Y": 1.0
      },
      "handle_right": {
       "X": 0.5,
       "Y": 0.0
      },
      "handle_type": 0,
      "interpolation": 0
     }
    ]
   },
   "display": 0,
   "duration": 3600.0,
   "effects": [],
   "end": 3.1410617590481467,
   "gravity": 4,
   "has_audio": {
    "Points": [
     {
      "co": {
       "X": 1.0,
       "Y": -1.0
      },
      "handle_left": {
       "X": 0.5,
       "Y": 1.0
      },
      "handle_right": {
       "X": 0.5,
       "Y": 0.0
      },
      "handle_type": 0,
      "interpolation": 0
     }
    ]
   },
   "has_video": {
    "Points": [
     {
      "co": {
       "X": 1.0,
       "Y": -1.0
      },
      "handle_left": {
       "X": 0.5,
       "Y": 1.0
      },
      "handle_right": {
       "X": 0.5,
       "Y": 0.0
      },
      "handle_type": 0,
      "interpolation": 0
     }
    ]
   },
   "id": "BGSWGUY5BG",
   "layer": 2000000,
   "location_x": {
    "Points": [
     {
      "co": {
       "X": 1,
       "Y": -0.2563883874444783
      },
      "handle_left": {
       "X": 0.5,
       "Y": 1.0
      },
      "handle_right": {
       "X": 0.5,
       "Y": 0.0
      },
      "handle_type": 0,
      "interpolation": 0
     }
    ]
   },
   "location_y": {
    "Points": [
     {
      "co": {
       "X": 1,
       "Y": -0.15909089148044586
      },
      "handle_left": {
       "X": 0.5,
       "Y": 1.0
      },
      "handle_right": {
       "X": 0.5,
       "Y": 0.0
      },
      "handle_type": 0,
      "interpolation": 0
     }
    ]
   },
   "mixing": 0,
   "origin_x": {
    "Points": [
     {
      "co": {
       "X": 1.0,
       "Y": 0.5
      },
      "handle_left": {
       "X": 0.5,
       "Y": 1.0
      },
      "handle_right": {
       "X": 0.5,
       "Y": 0.0
      },
      "handle_type": 0,
      "interpolation": 0
     }
    ]
   },
   "origin_y": {
    "Points": [
     {
      "co": {
       "X": 1.0,
       "Y": 0.5
      },
      "handle_left": {
       "X": 0.5,
       "Y": 1.0
      },
      "handle_right": {
       "X": 0.5,
       "Y": 0.0
      },
      "handle_type": 0,
      "interpolation": 0
     }
    ]
   },
   "parentObjectId": "",
   "perspective_c1_x": {
    "Points": [
     {
      "co": {
       "X": 1.0,
       "Y": -1.0
      },
      "handle_left": {
       "X": 0.5,
       "Y": 1.0
      },
      "handle_right": {
       "X": 0.5,
       "Y": 0.0
      },
      "handle_type": 0,
      "interpolation": 0
     }
    ]
   },
   "perspective_c1_y": {
    "Points": [
     {
      "co": {
       "X": 1.0,
       "Y": -1.0
      },
      "handle_left": {
       "X": 0.5,
       "Y": 1.0
      },
      "handle_right": {
       "X": 0.5,
       "Y": 0.0
      },
      "handle_type": 0,
      "interpolation": 0
     }
    ]
   },
   "perspective_c2_x": {
    "Points": [
     {
      "co": {
       "X": 1.0,
       "Y": -1.0
      },
      "handle_left": {
       "X": 0.5,
       "Y": 1.0
      },
      "handle_right": {
       "X": 0.5,
       "Y": 0.0
      },
      "handle_type": 0,
      "interpolation": 0
     }
    ]
   },
   "perspective_c2_y": {
    "Points": [
     {
      "co": {
       "X": 1.0,
       "Y": -1.0
      },
      "handle_left": {
       "X": 0.5,
       "Y": 1.0
      },
      "handle_right": {
       "X": 0.5,
       "Y": 0.0
      },
      "handle_type": 0,
      "interpolation": 0
     }
    ]
   },
   "perspective_c3_x": {
    "Points": [
     {
      "co": {
       "X": 1.0,
       "Y": -1.0
      },
      "handle_left": {
       "X": 0.5,
       "Y": 1.0
      },
      "handle_right": {
       "X": 0.5,
       "Y": 0.0
      },
      "handle_type": 0,
      "interpolation": 0
     }
    ]
   },
   "perspective_c3_y": {
    "Points": [
     {
      "co": {
       "X": 1.0,
       "Y": -1.0
      },
      "handle_left": {
       "X": 0.5,
       "Y": 1.0
      },
      "handle_right": {
       "X": 0.5,
       "Y": 0.0
      },
      "handle_type": 0,
      "interpolation": 0
     }
    ]
   },
   "perspective_c4_x": {
    "Points": [
     {
      "co": {
       "X": 1.0,
       "Y": -1.0
      },
      "handle_left": {
       "X": 0.5,
       "Y": 1.0
      },
      "handle_right": {
       "X": 0.5,
       "Y": 0.0
      },
      "handle_type": 0,
      "interpolation": 0
     }
    ]
   },
   "perspective_c4_y": {
    "Points": [
     {
      "co": {
       "X": 1.0,
       "Y": -1.0
      },
      "handle_left": {
       "X": 0.5,
       "Y": 1.0
      },
      "handle_right": {
       "X": 0.5,
       "Y": 0.0
      },
      "handle_type": 0,
      "interpolation": 0
     }
    ]
   },
   "position": 269.03333333333336,
   "reader": {
    "acodec": "",
    "audio_bit_rate": 0,
    "audio_stream_index": -1,
    "audio_timebase": {
     "den": 1,
     "num": 1
    },
    "channel_layout": 4,
    "channels": 0,
    "display_ratio": {
     "den": 231,
     "num": 908
    },
    "duration": 3600.0,
    "file_size": "3355968",
    "fps": {
     "den": 1,
     "num": 30
    },
    "has_audio": false,
    "has_single_image": true,
    "has_video": true,
    "height": 462,
    "interlaced_frame": false,
    "metadata": {},
    "path": "./drawing40.png",
    "pixel_format": -1,
    "pixel_ratio": {
     "den": 1,
     "num": 1
    },
    "sample_rate": 0,
    "top_field_first": true,
    "type": "QtImageReader",
    "vcodec": "",
    "video_bit_rate": 0,
    "video_length": "108000",
    "video_stream_index": -1,
    "video_timebase": {
     "den": 30,
     "num": 1
    },
    "width": 1816,
    "media_type": "image",
    "id": "29GXOB1GD2",
    "image": "Tutorial_assets/thumbnail/29GXOB1GD2.png"
   },
   "rotation": {
    "Points": [
     {
      "co": {
       "X": 1.0,
       "Y": 0.0
      },
      "handle_left": {
       "X": 0.5,
       "Y": 1.0
      },
      "handle_right": {
       "X": 0.5,
       "Y": 0.0
      },
      "handle_type": 0,
      "interpolation": 0
     }
    ]
   },
   "scale": 1,
   "scale_x": {
    "Points": [
     {
      "co": {
       "X": 1,
       "Y": 0.37989766669842007
      },
      "handle_left": {
       "X": 0.5,
       "Y": 1.0
      },
      "handle_right": {
       "X": 0.5,
       "Y": 0.0
      },
      "handle_type": 0,
      "interpolation": 0
     }
    ]
   },
   "scale_y": {
    "Points": [
     {
      "co": {
       "X": 1,
       "Y": 0.37989766669842007
      },
      "handle_left": {
       "X": 0.5,
       "Y": 1.0
      },
      "handle_right": {
       "X": 0.5,
       "Y": 0.0
      },
      "handle_type": 0,
      "interpolation": 0
     }
    ]
   },
   "shear_x": {
    "Points": [
     {
      "co": {
       "X": 1.0,
       "Y": 0.0
      },
      "handle_left": {
       "X": 0.5,
       "Y": 1.0
      },
      "handle_right": {
       "X": 0.5,
       "Y": 0.0
      },
      "handle_type": 0,
      "interpolation": 0
     }
    ]
   },
   "shear_y": {
    "Points": [
     {
      "co": {
       "X": 1.0,
       "Y": 0.0
      },
      "handle_left": {
       "X": 0.5,
       "Y": 1.0
      },
      "handle_right": {
       "X": 0.5,
       "Y": 0.0
      },
      "handle_type": 0,
      "interpolation": 0
     }
    ]
   },
   "start": 0,
   "time": {
    "Points": [
     {
      "co": {
       "X": 1.0,
       "Y": 1.0
      },
      "handle_left": {
       "X": 0.5,
       "Y": 1.0
      },
      "handle_right": {
       "X": 0.5,
       "Y": 0.0
      },
      "handle_type": 0,
      "interpolation": 0
     }
    ]
   },
   "volume": {
    "Points": [
     {
      "co": {
       "X": 1.0,
       "Y": 1.0
      },
      "handle_left": {
       "X": 0.5,
       "Y": 1.0
      },
      "handle_right": {
       "X": 0.5,
       "Y": 0.0
      },
      "handle_type": 0,
      "interpolation": 0
     }
    ]
   },
   "wave_color": {
    "alpha": {
     "Points": [
      {
       "co": {
        "X": 1.0,
        "Y": 255.0
       },
       "handle_left": {
        "X": 0.5,
        "Y": 1.0
       },
       "handle_right": {
        "X": 0.5,
        "Y": 0.0
       },
       "handle_type": 0,
       "interpolation": 0
      }
     ]
    },
    "blue": {
     "Points": [
      {
       "co": {
        "X": 1.0,
        "Y": 255.0
       },
       "handle_left": {
        "X": 0.5,
        "Y": 1.0
       },
       "handle_right": {
        "X": 0.5,
        "Y": 0.0
       },
       "handle_type": 0,
       "interpolation": 0
      }
     ]
    },
    "green": {
     "Points": [
      {
       "co": {
        "X": 1.0,
        "Y": 123.0
       },
       "handle_left": {
        "X": 0.5,
        "Y": 1.0
       },
       "handle_right": {
        "X": 0.5,
        "Y": 0.0
       },
       "handle_type": 0,
       "interpolation": 0
      }
     ]
    },
    "red": {
     "Points": [
      {
       "co": {
        "X": 1.0,
        "Y": 0.0
       },
       "handle_left": {
        "X": 0.5,
        "Y": 1.0
       },
       "handle_right": {
        "X": 0.5,
        "Y": 0.0
       },
       "handle_type": 0,
       "interpolation": 0
      }
     ]
    }
   },
   "waveform": false,
   "file_id": "29GXOB1GD2",
   "title": "drawing40.png",
   "image": "Tutorial_assets/thumbnail/29GXOB1GD2.png"
  },
  {
   "alpha": {
    "Points": [
     {
      "co": {
       "X": 1.0,
       "Y": 1.0
      },
      "handle_left": {
       "X": 0.5,
       "Y": 1.0
      },
      "handle_right": {
       "X": 0.5,
       "Y": 0.0
      },
      "handle_type": 0,
      "interpolation": 0
     }
    ]
   },
   "anchor": 0,
   "channel_filter": {
    "Points": [
     {
      "co": {
       "X": 1.0,
       "Y": -1.0
      },
      "handle_left": {
       "X": 0.5,
       "Y": 1.0
      },
      "handle_right": {
       "X": 0.5,
       "Y": 0.0
      },
      "handle_type": 0,
      "interpolation": 0
     }
    ]
   },
   "channel_mapping": {
    "Points": [
     {
      "co": {
       "X": 1.0,
       "Y": -1.0
      },
      "handle_left": {
       "X": 0.5,
       "Y": 1.0
      },
      "handle_right": {
       "X": 0.5,
       "Y": 0.0
      },
      "handle_type": 0,
      "interpolation": 0
     }
    ]
   },
   "display": 0,
   "duration": 3600.0,
   "effects": [],
   "end": 2.733333333333322,
   "gravity": 4,
   "has_audio": {
    "Points": [
     {
      "co": {
       "X": 1.0,
       "Y": -1.0
      },
      "handle_left": {
       "X": 0.5,
       "Y": 1.0
      },
      "handle_right": {
       "X": 0.5,
       "Y": 0.0
      },
      "handle_type": 0,
      "interpolation": 0
     }
    ]
   },
   "has_video": {
    "Points": [
     {
      "co": {
       "X": 1.0,
       "Y": -1.0
      },
      "handle_left": {
       "X": 0.5,
       "Y": 1.0
      },
      "handle_right": {
       "X": 0.5,
       "Y": 0.0
      },
      "handle_type": 0,
      "interpolation": 0
     }
    ]
   },
   "id": "8ESNB2A0H8",
   "layer": 1000000,
   "location_x": {
    "Points": [
     {
      "co": {
       "X": 1.0,
       "Y": 0.0
      },
      "handle_left": {
       "X": 0.5,
       "Y": 1.0
      },
      "handle_right": {
       "X": 0.5,
       "Y": 0.0
      },
      "handle_type": 0,
      "interpolation": 0
     }
    ]
   },
   "location_y": {
    "Points": [
     {
      "co": {
       "X": 1.0,
       "Y": 0.0
      },
      "handle_left": {
       "X": 0.5,
       "Y": 1.0
      },
      "handle_right": {
       "X": 0.5,
       "Y": 0.0
      },
      "handle_type": 0,
      "interpolation": 0
     }
    ]
   },
   "mixing": 0,
   "origin_x": {
    "Points": [
     {
      "co": {
       "X": 1.0,
       "Y": 0.5
      },
      "handle_left": {
       "X": 0.5,
       "Y": 1.0
      },
      "handle_right": {
       "X": 0.5,
       "Y": 0.0
      },
      "handle_type": 0,
      "interpolation": 0
     }
    ]
   },
   "origin_y": {
    "Points": [
     {
      "co": {
       "X": 1.0,
       "Y": 0.5
      },
      "handle_left": {
       "X": 0.5,
       "Y": 1.0
      },
      "handle_right": {
       "X": 0.5,
       "Y": 0.0
      },
      "handle_type": 0,
      "interpolation": 0
     }
    ]
   },
   "parentObjectId": "",
   "perspective_c1_x": {
    "Points": [
     {
      "co": {
       "X": 1.0,
       "Y": -1.0
      },
      "handle_left": {
       "X": 0.5,
       "Y": 1.0
      },
      "handle_right": {
       "X": 0.5,
       "Y": 0.0
      },
      "handle_type": 0,
      "interpolation": 0
     }
    ]
   },
   "perspective_c1_y": {
    "Points": [
     {
      "co": {
       "X": 1.0,
       "Y": -1.0
      },
      "handle_left": {
       "X": 0.5,
       "Y": 1.0
      },
      "handle_right": {
       "X": 0.5,
       "Y": 0.0
      },
      "handle_type": 0,
      "interpolation": 0
     }
    ]
   },
   "perspective_c2_x": {
    "Points": [
     {
      "co": {
       "X": 1.0,
       "Y": -1.0
      },
      "handle_left": {
       "X": 0.5,
       "Y": 1.0
      },
      "handle_right": {
       "X": 0.5,
       "Y": 0.0
      },
      "handle_type": 0,
      "interpolation": 0
     }
    ]
   },
   "perspective_c2_y": {
    "Points": [
     {
      "co": {
       "X": 1.0,
       "Y": -1.0
      },
      "handle_left": {
       "X": 0.5,
       "Y": 1.0
      },
      "handle_right": {
       "X": 0.5,
       "Y": 0.0
      },
      "handle_type": 0,
      "interpolation": 0
     }
    ]
   },
   "perspective_c3_x": {
    "Points": [
     {
      "co": {
       "X": 1.0,
       "Y": -1.0
      },
      "handle_left": {
       "X": 0.5,
       "Y": 1.0
      },
      "handle_right": {
       "X": 0.5,
       "Y": 0.0
      },
      "handle_type": 0,
      "interpolation": 0
     }
    ]
   },
   "perspective_c3_y": {
    "Points": [
     {
      "co": {
       "X": 1.0,
       "Y": -1.0
      },
      "handle_left": {
       "X": 0.5,
       "Y": 1.0
      },
      "handle_right": {
       "X": 0.5,
       "Y": 0.0
      },
      "handle_type": 0,
      "interpolation": 0
     }
    ]
   },
   "perspective_c4_x": {
    "Points": [
     {
      "co": {
       "X": 1.0,
       "Y": -1.0
      },
      "handle_left": {
       "X": 0.5,
       "Y": 1.0
      },
      "handle_right": {
       "X": 0.5,
       "Y": 0.0
      },
      "handle_type": 0,
      "interpolation": 0
     }
    ]
   },
   "perspective_c4_y": {
    "Points": [
     {
      "co": {
       "X": 1.0,
       "Y": -1.0
      },
      "handle_left": {
       "X": 0.5,
       "Y": 1.0
      },
      "handle_right": {
       "X": 0.5,
       "Y": 0.0
      },
      "handle_type": 0,
      "interpolation": 0
     }
    ]
   },
   "position": 270.6,
   "reader": {
    "acodec": "",
    "audio_bit_rate": 0,
    "audio_stream_index": -1,
    "audio_timebase": {
     "den": 1,
     "num": 1
    },
    "channel_layout": 4,
    "channels": 0,
    "display_ratio": {
     "den": 9,
     "num": 16
    },
    "duration": 3600.0,
    "file_size": "8294400",
    "fps": {
     "den": 1,
     "num": 30
    },
    "has_audio": false,
    "has_single_image": true,
    "has_video": true,
    "height": 1080,
    "interlaced_frame": false,
    "metadata": {},
    "path": "./Frame-08118.png",
    "pixel_format": -1,
    "pixel_ratio": {
     "den": 1,
     "num": 1
    },
    "sample_rate": 0,
    "top_field_first": true,
    "type": "QtImageReader",
    "vcodec": "",
    "video_bit_rate": 0,
    "video_length": "108000",
    "video_stream_index": -1,
    "video_timebase": {
     "den": 30,
     "num": 1
    },
    "width": 1920,
    "media_type": "image",
    "id": "QY4ODDQIKF"
   },
   "rotation": {
    "Points": [
     {
      "co": {
       "X": 1.0,
       "Y": 0.0
      },
      "handle_left": {
       "X": 0.5,
       "Y": 1.0
      },
      "handle_right": {
       "X": 0.5,
       "Y": 0.0
      },
      "handle_type": 0,
      "interpolation": 0
     }
    ]
   },
   "scale": 1,
   "scale_x": {
    "Points": [
     {
      "co": {
       "X": 1.0,
       "Y": 1.0
      },
      "handle_left": {
       "X": 0.5,
       "Y": 1.0
      },
      "handle_right": {
       "X": 0.5,
       "Y": 0.0
      },
      "handle_type": 0,
      "interpolation": 0
     }
    ]
   },
   "scale_y": {
    "Points": [
     {
      "co": {
       "X": 1.0,
       "Y": 1.0
      },
      "handle_left": {
       "X": 0.5,
       "Y": 1.0
      },
      "handle_right": {
       "X": 0.5,
       "Y": 0.0
      },
      "handle_type": 0,
      "interpolation": 0
     }
    ]
   },
   "shear_x": {
    "Points": [
     {
      "co": {
       "X": 1.0,
       "Y": 0.0
      },
      "handle_left": {
       "X": 0.5,
       "Y": 1.0
      },
      "handle_right": {
       "X": 0.5,
       "Y": 0.0
      },
      "handle_type": 0,
      "interpolation": 0
     }
    ]
   },
   "shear_y": {
    "Points": [
     {
      "co": {
       "X": 1.0,
       "Y": 0.0
      },
      "handle_left": {
       "X": 0.5,
       "Y": 1.0
      },
      "handle_right": {
       "X": 0.5,
       "Y": 0.0
      },
      "handle_type": 0,
      "interpolation": 0
     }
    ]
   },
   "start": 0,
   "time": {
    "Points": [
     {
      "co": {
       "X": 1.0,
       "Y": 1.0
      },
      "handle_left": {
       "X": 0.5,
       "Y": 1.0
      },
      "handle_right": {
       "X": 0.5,
       "Y": 0.0
      },
      "handle_type": 0,
      "interpolation": 0
     }
    ]
   },
   "volume": {
    "Points": [
     {
      "co": {
       "X": 1.0,
       "Y": 1.0
      },
      "handle_left": {
       "X": 0.5,
       "Y": 1.0
      },
      "handle_right": {
       "X": 0.5,
       "Y": 0.0
      },
      "handle_type": 0,
      "interpolation": 0
     }
    ]
   },
   "wave_color": {
    "alpha": {
     "Points": [
      {
       "co": {
        "X": 1.0,
        "Y": 255.0
       },
       "handle_left": {
        "X": 0.5,
        "Y": 1.0
       },
       "handle_right": {
        "X": 0.5,
        "Y": 0.0
       },
       "handle_type": 0,
       "interpolation": 0
      }
     ]
    },
    "blue": {
     "Points": [
      {
       "co": {
        "X": 1.0,
        "Y": 255.0
       },
       "handle_left": {
        "X": 0.5,
        "Y": 1.0
       },
       "handle_right": {
        "X": 0.5,
        "Y": 0.0
       },
       "handle_type": 0,
       "interpolation": 0
      }
     ]
    },
    "green": {
     "Points": [
      {
       "co": {
        "X": 1.0,
        "Y": 123.0
       },
       "handle_left": {
        "X": 0.5,
        "Y": 1.0
       },
       "handle_right": {
        "X": 0.5,
        "Y": 0.0
       },
       "handle_type": 0,
       "interpolation": 0
      }
     ]
    },
    "red": {
     "Points": [
      {
       "co": {
        "X": 1.0,
        "Y": 0.0
       },
       "handle_left": {
        "X": 0.5,
        "Y": 1.0
       },
       "handle_right": {
        "X": 0.5,
        "Y": 0.0
       },
       "handle_type": 0,
       "interpolation": 0
      }
     ]
    }
   },
   "waveform": false,
   "file_id": "QY4ODDQIKF",
   "title": "Frame-08118.png",
   "image": "Tutorial_assets/thumbnail/QY4ODDQIKF.png"
  },
  {
   "alpha": {
    "Points": [
     {
      "co": {
       "X": 1.0,
       "Y": 1.0
      },
      "handle_left": {
       "X": 0.5,
       "Y": 1.0
      },
      "handle_right": {
       "X": 0.5,
       "Y": 0.0
      },
      "handle_type": 0,
      "interpolation": 0
     }
    ]
   },
   "anchor": 0,
   "channel_filter": {
    "Points": [
     {
      "co": {
       "X": 1.0,
       "Y": -1.0
      },
      "handle_left": {
       "X": 0.5,
       "Y": 1.0
      },
      "handle_right": {
       "X": 0.5,
       "Y": 0.0
      },
      "handle_type": 0,
      "interpolation": 0
     }
    ]
   },
   "channel_mapping": {
    "Points": [
     {
      "co": {
       "X": 1.0,
       "Y": -1.0
      },
      "handle_left": {
       "X": 0.5,
       "Y": 1.0
      },
      "handle_right": {
       "X": 0.5,
       "Y": 0.0
      },
      "handle_type": 0,
      "interpolation": 0
     }
    ]
   },
   "display": 0,
   "duration": 3600.0,
   "effects": [],
   "end": 4.866666666666668,
   "gravity": 4,
   "has_audio": {
    "Points": [
     {
      "co": {
       "X": 1.0,
       "Y": -1.0
      },
      "handle_left": {
       "X": 0.5,
       "Y": 1.0
      },
      "handle_right": {
       "X": 0.5,
       "Y": 0.0
      },
      "handle_type": 0,
      "interpolation": 0
     }
    ]
   },
   "has_video": {
    "Points": [
     {
      "co": {
       "X": 1.0,
       "Y": -1.0
      },
      "handle_left": {
       "X": 0.5,
       "Y": 1.0
      },
      "handle_right": {
       "X": 0.5,
       "Y": 0.0
      },
      "handle_type": 0,
      "interpolation": 0
     }
    ]
   },
   "id": "287GW227P4",
   "layer": 2000000,
   "location_x": {
    "Points": [
     {
      "co": {
       "X": 1,
       "Y": -0.2844974484415233
      },
      "handle_left": {
       "X": 0.5,
       "Y": 1.0
      },
      "handle_right": {
       "X": 0.5,
       "Y": 0.0
      },
      "handle_type": 0,
      "interpolation": 0
     }
    ]
   },
   "location_y": {
    "Points": [
     {
      "co": {
       "X": 1,
       "Y": -0.1348484769011989
      },
      "handle_left": {
       "X": 0.5,
       "Y": 1.0
      },
      "handle_right": {
       "X": 0.5,
       "Y": 0.0
      },
      "handle_type": 0,
      "interpolation": 0
     }
    ]
   },
   "mixing": 0,
   "origin_x": {
    "Points": [
     {
      "co": {
       "X": 1.0,
       "Y": 0.5
      },
      "handle_left": {
       "X": 0.5,
       "Y": 1.0
      },
      "handle_right": {
       "X": 0.5,
       "Y": 0.0
      },
      "handle_type": 0,
      "interpolation": 0
     }
    ]
   },
   "origin_y": {
    "Points": [
     {
      "co": {
       "X": 1.0,
       "Y": 0.5
      },
      "handle_left": {
       "X": 0.5,
       "Y": 1.0
      },
      "handle_right": {
       "X": 0.5,
       "Y": 0.0
      },
      "handle_type": 0,
      "interpolation": 0
     }
    ]
   },
   "parentObjectId": "",
   "perspective_c1_x": {
    "Points": [
     {
      "co": {
       "X": 1.0,
       "Y": -1.0
      },
      "handle_left": {
       "X": 0.5,
       "Y": 1.0
      },
      "handle_right": {
       "X": 0.5,
       "Y": 0.0
      },
      "handle_type": 0,
      "interpolation": 0
     }
    ]
   },
   "perspective_c1_y": {
    "Points": [
     {
      "co": {
       "X": 1.0,
       "Y": -1.0
      },
      "handle_left": {
       "X": 0.5,
       "Y": 1.0
      },
      "handle_right": {
       "X": 0.5,
       "Y": 0.0
      },
      "handle_type": 0,
      "interpolation": 0
     }
    ]
   },
   "perspective_c2_x": {
    "Points": [
     {
      "co": {
       "X": 1.0,
       "Y": -1.0
      },
      "handle_left": {
       "X": 0.5,
       "Y": 1.0
      },
      "handle_right": {
       "X": 0.5,
       "Y": 0.0
      },
      "handle_type": 0,
      "interpolation": 0
     }
    ]
   },
   "perspective_c2_y": {
    "Points": [
     {
      "co": {
       "X": 1.0,
       "Y": -1.0
      },
      "handle_left": {
       "X": 0.5,
       "Y": 1.0
      },
      "handle_right": {
       "X": 0.5,
       "Y": 0.0
      },
      "handle_type": 0,
      "interpolation": 0
     }
    ]
   },
   "perspective_c3_x": {
    "Points": [
     {
      "co": {
       "X": 1.0,
       "Y": -1.0
      },
      "handle_left": {
       "X": 0.5,
       "Y": 1.0
      },
      "handle_right": {
       "X": 0.5,
       "Y": 0.0
      },
      "handle_type": 0,
      "interpolation": 0
     }
    ]
   },
   "perspective_c3_y": {
    "Points": [
     {
      "co": {
       "X": 1.0,
       "Y": -1.0
      },
      "handle_left": {
       "X": 0.5,
       "Y": 1.0
      },
      "handle_right": {
       "X": 0.5,
       "Y": 0.0
      },
      "handle_type": 0,
      "interpolation": 0
     }
    ]
   },
   "perspective_c4_x": {
    "Points": [
     {
      "co": {
       "X": 1.0,
       "Y": -1.0
      },
      "handle_left": {
       "X": 0.5,
       "Y": 1.0
      },
      "handle_right": {
       "X": 0.5,
       "Y": 0.0
      },
      "handle_type": 0,
      "interpolation": 0
     }
    ]
   },
   "perspective_c4_y": {
    "Points": [
     {
      "co": {
       "X": 1.0,
       "Y": -1.0
      },
      "handle_left": {
       "X": 0.5,
       "Y": 1.0
      },
      "handle_right": {
       "X": 0.5,
       "Y": 0.0
      },
      "handle_type": 0,
      "interpolation": 0
     }
    ]
   },
   "position": 273.3333333333333,
   "reader": {
    "acodec": "",
    "audio_bit_rate": 0,
    "audio_stream_index": -1,
    "audio_timebase": {
     "den": 1,
     "num": 1
    },
    "channel_layout": 4,
    "channels": 0,
    "display_ratio": {
     "den": 394,
     "num": 969
    },
    "duration": 3600.0,
    "file_size": "6108576",
    "fps": {
     "den": 1,
     "num": 30
    },
    "has_audio": false,
    "has_single_image": true,
    "has_video": true,
    "height": 788,
    "interlaced_frame": false,
    "metadata": {},
    "path": "./drawing41.png",
    "pixel_format": -1,
    "pixel_ratio": {
     "den": 1,
     "num": 1
    },
    "sample_rate": 0,
    "top_field_first": true,
    "type": "QtImageReader",
    "vcodec": "",
    "video_bit_rate": 0,
    "video_length": "108000",
    "video_stream_index": -1,
    "video_timebase": {
     "den": 30,
     "num": 1
    },
    "width": 1938,
    "media_type": "image",
    "id": "EAX12W7LLS"
   },
   "rotation": {
    "Points": [
     {
      "co": {
       "X": 1.0,
       "Y": 0.0
      },
      "handle_left": {
       "X": 0.5,
       "Y": 1.0
      },
      "handle_right": {
       "X": 0.5,
       "Y": 0.0
      },
      "handle_type": 0,
      "interpolation": 0
     }
    ]
   },
   "scale": 1,
   "scale_x": {
    "Points": [
     {
      "co": {
       "X": 1,
       "Y": 0.32197601867290737
      },
      "handle_left": {
       "X": 0.5,
       "Y": 1.0
      },
      "handle_right": {
       "X": 0.5,
       "Y": 0.0
      },
      "handle_type": 0,
      "interpolation": 0
     }
    ]
   },
   "scale_y": {
    "Points": [
     {
      "co": {
       "X": 1,
       "Y": 0.32197601867290737
      },
      "handle_left": {
       "X": 0.5,
       "Y": 1.0
      },
      "handle_right": {
       "X": 0.5,
       "Y": 0.0
      },
      "handle_type": 0,
      "interpolation": 0
     }
    ]
   },
   "shear_x": {
    "Points": [
     {
      "co": {
       "X": 1.0,
       "Y": 0.0
      },
      "handle_left": {
       "X": 0.5,
       "Y": 1.0
      },
      "handle_right": {
       "X": 0.5,
       "Y": 0.0
      },
      "handle_type": 0,
      "interpolation": 0
     }
    ]
   },
   "shear_y": {
    "Points": [
     {
      "co": {
       "X": 1.0,
       "Y": 0.0
      },
      "handle_left": {
       "X": 0.5,
       "Y": 1.0
      },
      "handle_right": {
       "X": 0.5,
       "Y": 0.0
      },
      "handle_type": 0,
      "interpolation": 0
     }
    ]
   },
   "start": 0,
   "time": {
    "Points": [
     {
      "co": {
       "X": 1.0,
       "Y": 1.0
      },
      "handle_left": {
       "X": 0.5,
       "Y": 1.0
      },
      "handle_right": {
       "X": 0.5,
       "Y": 0.0
      },
      "handle_type": 0,
      "interpolation": 0
     }
    ]
   },
   "volume": {
    "Points": [
     {
      "co": {
       "X": 1.0,
       "Y": 1.0
      },
      "handle_left": {
       "X": 0.5,
       "Y": 1.0
      },
      "handle_right": {
       "X": 0.5,
       "Y": 0.0
      },
      "handle_type": 0,
      "interpolation": 0
     }
    ]
   },
   "wave_color": {
    "alpha": {
     "Points": [
      {
       "co": {
        "X": 1.0,
        "Y": 255.0
       },
       "handle_left": {
        "X": 0.5,
        "Y": 1.0
       },
       "handle_right": {
        "X": 0.5,
        "Y": 0.0
       },
       "handle_type": 0,
       "interpolation": 0
      }
     ]
    },
    "blue": {
     "Points": [
      {
       "co": {
        "X": 1.0,
        "Y": 255.0
       },
       "handle_left": {
        "X": 0.5,
        "Y": 1.0
       },
       "handle_right": {
        "X": 0.5,
        "Y": 0.0
       },
       "handle_type": 0,
       "interpolation": 0
      }
     ]
    },
    "green": {
     "Points": [
      {
       "co": {
        "X": 1.0,
        "Y": 123.0
       },
       "handle_left": {
        "X": 0.5,
        "Y": 1.0
       },
       "handle_right": {
        "X": 0.5,
        "Y": 0.0
       },
       "handle_type": 0,
       "interpolation": 0
      }
     ]
    },
    "red": {
     "Points": [
      {
       "co": {
        "X": 1.0,
        "Y": 0.0
       },
       "handle_left": {
        "X": 0.5,
        "Y": 1.0
       },
       "handle_right": {
        "X": 0.5,
        "Y": 0.0
       },
       "handle_type": 0,
       "interpolation": 0
      }
     ]
    }
   },
   "waveform": false,
   "file_id": "EAX12W7LLS",
   "title": "drawing41.png",
   "image": "Tutorial_assets/thumbnail/EAX12W7LLS.png"
  },
  {
   "alpha": {
    "Points": [
     {
      "co": {
       "X": 1.0,
       "Y": 1.0
      },
      "handle_left": {
       "X": 0.5,
       "Y": 1.0
      },
      "handle_right": {
       "X": 0.5,
       "Y": 0.0
      },
      "handle_type": 0,
      "interpolation": 0
     }
    ]
   },
   "anchor": 0,
   "channel_filter": {
    "Points": [
     {
      "co": {
       "X": 1.0,
       "Y": -1.0
      },
      "handle_left": {
       "X": 0.5,
       "Y": 1.0
      },
      "handle_right": {
       "X": 0.5,
       "Y": 0.0
      },
      "handle_type": 0,
      "interpolation": 0
     }
    ]
   },
   "channel_mapping": {
    "Points": [
     {
      "co": {
       "X": 1.0,
       "Y": -1.0
      },
      "handle_left": {
       "X": 0.5,
       "Y": 1.0
      },
      "handle_right": {
       "X": 0.5,
       "Y": 0.0
      },
      "handle_type": 0,
      "interpolation": 0
     }
    ]
   },
   "display": 0,
   "duration": 3600.0,
   "effects": [],
   "end": 5.587084283324854,
   "gravity": 4,
   "has_audio": {
    "Points": [
     {
      "co": {
       "X": 1.0,
       "Y": -1.0
      },
      "handle_left": {
       "X": 0.5,
       "Y": 1.0
      },
      "handle_right": {
       "X": 0.5,
       "Y": 0.0
      },
      "handle_type": 0,
      "interpolation": 0
     }
    ]
   },
   "has_video": {
    "Points": [
     {
      "co": {
       "X": 1.0,
       "Y": -1.0
      },
      "handle_left": {
       "X": 0.5,
       "Y": 1.0
      },
      "handle_right": {
       "X": 0.5,
       "Y": 0.0
      },
      "handle_type": 0,
      "interpolation": 0
     }
    ]
   },
   "id": "YP8QSVLKF1",
   "layer": 2000000,
   "location_x": {
    "Points": [
     {
      "co": {
       "X": 1,
       "Y": -0.25127769780727627
      },
      "handle_left": {
       "X": 0.5,
       "Y": 1.0
      },
      "handle_right": {
       "X": 0.5,
       "Y": 0.0
      },
      "handle_type": 0,
      "interpolation": 0
     }
    ]
   },
   "location_y": {
    "Points": [
     {
      "co": {
       "X": 1,
       "Y": -0.13787879049777985
      },
      "handle_left": {
       "X": 0.5,
       "Y": 1.0
      },
      "handle_right": {
       "X": 0.5,
       "Y": 0.0
      },
      "handle_type": 0,
      "interpolation": 0
     }
    ]
   },
   "mixing": 0,
   "origin_x": {
    "Points": [
     {
      "co": {
       "X": 1.0,
       "Y": 0.5
      },
      "handle_left": {
       "X": 0.5,
       "Y": 1.0
      },
      "handle_right": {
       "X": 0.5,
       "Y": 0.0
      },
      "handle_type": 0,
      "interpolation": 0
     }
    ]
   },
   "origin_y": {
    "Points": [
     {
      "co": {
       "X": 1.0,
       "Y": 0.5
      },
      "handle_left": {
       "X": 0.5,
       "Y": 1.0
      },
      "handle_right": {
       "X": 0.5,
       "Y": 0.0
      },
      "handle_type": 0,
      "interpolation": 0
     }
    ]
   },
   "parentObjectId": "",
   "perspective_c1_x": {
    "Points": [
     {
      "co": {
       "X": 1.0,
       "Y": -1.0
      },
      "handle_left": {
       "X": 0.5,
       "Y": 1.0
      },
      "handle_right": {
       "X": 0.5,
       "Y": 0.0
      },
      "handle_type": 0,
      "interpolation": 0
     }
    ]
   },
   "perspective_c1_y": {
    "Points": [
     {
      "co": {
       "X": 1.0,
       "Y": -1.0
      },
      "handle_left": {
       "X": 0.5,
       "Y": 1.0
      },
      "handle_right": {
       "X": 0.5,
       "Y": 0.0
      },
      "handle_type": 0,
      "interpolation": 0
     }
    ]
   },
   "perspective_c2_x": {
    "Points": [
     {
      "co": {
       "X": 1.0,
       "Y": -1.0
      },
      "handle_left": {
       "X": 0.5,
       "Y": 1.0
      },
      "handle_right": {
       "X": 0.5,
       "Y": 0.0
      },
      "handle_type": 0,
      "interpolation": 0
     }
    ]
   },
   "perspective_c2_y": {
    "Points": [
     {
      "co": {
       "X": 1.0,
       "Y": -1.0
      },
      "handle_left": {
       "X": 0.5,
       "Y": 1.0
      },
      "handle_right": {
       "X": 0.5,
       "Y": 0.0
      },
      "handle_type": 0,
      "interpolation": 0
     }
    ]
   },
   "perspective_c3_x": {
    "Points": [
     {
      "co": {
       "X": 1.0,
       "Y": -1.0
      },
      "handle_left": {
       "X": 0.5,
       "Y": 1.0
      },
      "handle_right": {
       "X": 0.5,
       "Y": 0.0
      },
      "handle_type": 0,
      "interpolation": 0
     }
    ]
   },
   "perspective_c3_y": {
    "Points": [
     {
      "co": {
       "X": 1.0,
       "Y": -1.0
      },
      "handle_left": {
       "X": 0.5,
       "Y": 1.0
      },
      "handle_right": {
       "X": 0.5,
       "Y": 0.0
      },
      "handle_type": 0,
      "interpolation": 0
     }
    ]
   },
   "perspective_c4_x": {
    "Points": [
     {
      "co": {
       "X": 1.0,
       "Y": -1.0
      },
      "handle_left": {
       "X": 0.5,
       "Y": 1.0
      },
      "handle_right": {
       "X": 0.5,
       "Y": 0.0
      },
      "handle_type": 0,
      "interpolation": 0
     }
    ]
   },
   "perspective_c4_y": {
    "Points": [
     {
      "co": {
       "X": 1.0,
       "Y": -1.0
      },
      "handle_left": {
       "X": 0.5,
       "Y": 1.0
      },
      "handle_right": {
       "X": 0.5,
       "Y": 0.0
      },
      "handle_type": 0,
      "interpolation": 0
     }
    ]
   },
   "position": 281.73333333333335,
   "reader": {
    "acodec": "",
    "audio_bit_rate": 0,
    "audio_stream_index": -1,
    "audio_timebase": {
     "den": 1,
     "num": 1
    },
    "channel_layout": 4,
    "channels": 0,
    "display_ratio": {
     "den": 677,
     "num": 1953
    },
    "duration": 3600.0,
    "file_size": "5288724",
    "fps": {
     "den": 1,
     "num": 30
    },
    "has_audio": false,
    "has_single_image": true,
    "has_video": true,
    "height": 677,
    "interlaced_frame": false,
    "metadata": {},
    "path": "./drawing42.png",
    "pixel_format": -1,
    "pixel_ratio": {
     "den": 1,
     "num": 1
    },
    "sample_rate": 0,
    "top_field_first": true,
    "type": "QtImageReader",
    "vcodec": "",
    "video_bit_rate": 0,
    "video_length": "108000",
    "video_stream_index": -1,
    "video_timebase": {
     "den": 30,
     "num": 1
    },
    "width": 1953,
    "media_type": "image",
    "id": "2L7KFP8PY2"
   },
   "rotation": {
    "Points": [
     {
      "co": {
       "X": 1.0,
       "Y": 0.0
      },
      "handle_left": {
       "X": 0.5,
       "Y": 1.0
      },
      "handle_right": {
       "X": 0.5,
       "Y": 0.0
      },
      "handle_type": 0,
      "interpolation": 0
     }
    ]
   },
   "scale": 1,
   "scale_x": {
    "Points": [
     {
      "co": {
       "X": 1,
       "Y": 0.3884156048297882
      },
      "handle_left": {
       "X": 0.5,
       "Y": 1.0
      },
      "handle_right": {
       "X": 0.5,
       "Y": 0.0
      },
      "handle_type": 0,
      "interpolation": 0
     }
    ]
   },
   "scale_y": {
    "Points": [
     {
      "co": {
       "X": 1,
       "Y": 0.3884156048297882
      },
      "handle_left": {
       "X": 0.5,
       "Y": 1.0
      },
      "handle_right": {
       "X": 0.5,
       "Y": 0.0
      },
      "handle_type": 0,
      "interpolation": 0
     }
    ]
   },
   "shear_x": {
    "Points": [
     {
      "co": {
       "X": 1.0,
       "Y": 0.0
      },
      "handle_left": {
       "X": 0.5,
       "Y": 1.0
      },
      "handle_right": {
       "X": 0.5,
       "Y": 0.0
      },
      "handle_type": 0,
      "interpolation": 0
     }
    ]
   },
   "shear_y": {
    "Points": [
     {
      "co": {
       "X": 1.0,
       "Y": 0.0
      },
      "handle_left": {
       "X": 0.5,
       "Y": 1.0
      },
      "handle_right": {
       "X": 0.5,
       "Y": 0.0
      },
      "handle_type": 0,
      "interpolation": 0
     }
    ]
   },
   "start": 0,
   "time": {
    "Points": [
     {
      "co": {
       "X": 1.0,
       "Y": 1.0
      },
      "handle_left": {
       "X": 0.5,
       "Y": 1.0
      },
      "handle_right": {
       "X": 0.5,
       "Y": 0.0
      },
      "handle_type": 0,
      "interpolation": 0
     }
    ]
   },
   "volume": {
    "Points": [
     {
      "co": {
       "X": 1.0,
       "Y": 1.0
      },
      "handle_left": {
       "X": 0.5,
       "Y": 1.0
      },
      "handle_right": {
       "X": 0.5,
       "Y": 0.0
      },
      "handle_type": 0,
      "interpolation": 0
     }
    ]
   },
   "wave_color": {
    "alpha": {
     "Points": [
      {
       "co": {
        "X": 1.0,
        "Y": 255.0
       },
       "handle_left": {
        "X": 0.5,
        "Y": 1.0
       },
       "handle_right": {
        "X": 0.5,
        "Y": 0.0
       },
       "handle_type": 0,
       "interpolation": 0
      }
     ]
    },
    "blue": {
     "Points": [
      {
       "co": {
        "X": 1.0,
        "Y": 255.0
       },
       "handle_left": {
        "X": 0.5,
        "Y": 1.0
       },
       "handle_right": {
        "X": 0.5,
        "Y": 0.0
       },
       "handle_type": 0,
       "interpolation": 0
      }
     ]
    },
    "green": {
     "Points": [
      {
       "co": {
        "X": 1.0,
        "Y": 123.0
       },
       "handle_left": {
        "X": 0.5,
        "Y": 1.0
       },
       "handle_right": {
        "X": 0.5,
        "Y": 0.0
       },
       "handle_type": 0,
       "interpolation": 0
      }
     ]
    },
    "red": {
     "Points": [
      {
       "co": {
        "X": 1.0,
        "Y": 0.0
       },
       "handle_left": {
        "X": 0.5,
        "Y": 1.0
       },
       "handle_right": {
        "X": 0.5,
        "Y": 0.0
       },
       "handle_type": 0,
       "interpolation": 0
      }
     ]
    }
   },
   "waveform": false,
   "file_id": "2L7KFP8PY2",
   "title": "drawing42.png",
   "image": "Tutorial_assets/thumbnail/2L7KFP8PY2.png"
  },
  {
   "alpha": {
    "Points": [
     {
      "co": {
       "X": 1.0,
       "Y": 1.0
      },
      "handle_left": {
       "X": 0.5,
       "Y": 1.0
      },
      "handle_right": {
       "X": 0.5,
       "Y": 0.0
      },
      "handle_type": 0,
      "interpolation": 0
     }
    ]
   },
   "anchor": 0,
   "channel_filter": {
    "Points": [
     {
      "co": {
       "X": 1.0,
       "Y": -1.0
      },
      "handle_left": {
       "X": 0.5,
       "Y": 1.0
      },
      "handle_right": {
       "X": 0.5,
       "Y": 0.0
      },
      "handle_type": 0,
      "interpolation": 0
     }
    ]
   },
   "channel_mapping": {
    "Points": [
     {
      "co": {
       "X": 1.0,
       "Y": -1.0
      },
      "handle_left": {
       "X": 0.5,
       "Y": 1.0
      },
      "handle_right": {
       "X": 0.5,
       "Y": 0.0
      },
      "handle_type": 0,
      "interpolation": 0
     }
    ]
   },
   "display": 0,
   "duration": 55.400001525878906,
   "effects": [],
   "end": 50.42376408068851,
   "gravity": 4,
   "has_audio": {
    "Points": [
     {
      "co": {
       "X": 1.0,
       "Y": -1.0
      },
      "handle_left": {
       "X": 0.5,
       "Y": 1.0
      },
      "handle_right": {
       "X": 0.5,
       "Y": 0.0
      },
      "handle_type": 0,
      "interpolation": 0
     }
    ]
   },
   "has_video": {
    "Points": [
     {
      "co": {
       "X": 1.0,
       "Y": -1.0
      },
      "handle_left": {
       "X": 0.5,
       "Y": 1.0
      },
      "handle_right": {
       "X": 0.5,
       "Y": 0.0
      },
      "handle_type": 0,
      "interpolation": 0
     }
    ]
   },
   "layer": 1000000,
   "location_x": {
    "Points": [
     {
      "co": {
       "X": 1.0,
       "Y": 0.0
      },
      "handle_left": {
       "X": 0.5,
       "Y": 1.0
      },
      "handle_right": {
       "X": 0.5,
       "Y": 0.0
      },
      "handle_type": 0,
      "interpolation": 0
     }
    ]
   },
   "location_y": {
    "Points": [
     {
      "co": {
       "X": 1.0,
       "Y": 0.0
      },
      "handle_left": {
       "X": 0.5,
       "Y": 1.0
      },
      "handle_right": {
       "X": 0.5,
       "Y": 0.0
      },
      "handle_type": 0,
      "interpolation": 0
     }
    ]
   },
   "mixing": 0,
   "origin_x": {
    "Points": [
     {
      "co": {
       "X": 1.0,
       "Y": 0.5
      },
      "handle_left": {
       "X": 0.5,
       "Y": 1.0
      },
      "handle_right": {
       "X": 0.5,
       "Y": 0.0
      },
      "handle_type": 0,
      "interpolation": 0
     }
    ]
   },
   "origin_y": {
    "Points": [
     {
      "co": {
       "X": 1.0,
       "Y": 0.5
      },
      "handle_left": {
       "X": 0.5,
       "Y": 1.0
      },
      "handle_right": {
       "X": 0.5,
       "Y": 0.0
      },
      "handle_type": 0,
      "interpolation": 0
     }
    ]
   },
   "parentObjectId": "",
   "perspective_c1_x": {
    "Points": [
     {
      "co": {
       "X": 1.0,
       "Y": -1.0
      },
      "handle_left": {
       "X": 0.5,
       "Y": 1.0
      },
      "handle_right": {
       "X": 0.5,
       "Y": 0.0
      },
      "handle_type": 0,
      "interpolation": 0
     }
    ]
   },
   "perspective_c1_y": {
    "Points": [
     {
      "co": {
       "X": 1.0,
       "Y": -1.0
      },
      "handle_left": {
       "X": 0.5,
       "Y": 1.0
      },
      "handle_right": {
       "X": 0.5,
       "Y": 0.0
      },
      "handle_type": 0,
      "interpolation": 0
     }
    ]
   },
   "perspective_c2_x": {
    "Points": [
     {
      "co": {
       "X": 1.0,
       "Y": -1.0
      },
      "handle_left": {
       "X": 0.5,
       "Y": 1.0
      },
      "handle_right": {
       "X": 0.5,
       "Y": 0.0
      },
      "handle_type": 0,
      "interpolation": 0
     }
    ]
   },
   "perspective_c2_y": {
    "Points": [
     {
      "co": {
       "X": 1.0,
       "Y": -1.0
      },
      "handle_left": {
       "X": 0.5,
       "Y": 1.0
      },
      "handle_right": {
       "X": 0.5,
       "Y": 0.0
      },
      "handle_type": 0,
      "interpolation": 0
     }
    ]
   },
   "perspective_c3_x": {
    "Points": [
     {
      "co": {
       "X": 1.0,
       "Y": -1.0
      },
      "handle_left": {
       "X": 0.5,
       "Y": 1.0
      },
      "handle_right": {
       "X": 0.5,
       "Y": 0.0
      },
      "handle_type": 0,
      "interpolation": 0
     }
    ]
   },
   "perspective_c3_y": {
    "Points": [
     {
      "co": {
       "X": 1.0,
       "Y": -1.0
      },
      "handle_left": {
       "X": 0.5,
       "Y": 1.0
      },
      "handle_right": {
       "X": 0.5,
       "Y": 0.0
      },
      "handle_type": 0,
      "interpolation": 0
     }
    ]
   },
   "perspective_c4_x": {
    "Points": [
     {
      "co": {
       "X": 1.0,
       "Y": -1.0
      },
      "handle_left": {
       "X": 0.5,
       "Y": 1.0
      },
      "handle_right": {
       "X": 0.5,
       "Y": 0.0
      },
      "handle_type": 0,
      "interpolation": 0
     }
    ]
   },
   "perspective_c4_y": {
    "Points": [
     {
      "co": {
       "X": 1.0,
       "Y": -1.0
      },
      "handle_left": {
       "X": 0.5,
       "Y": 1.0
      },
      "handle_right": {
       "X": 0.5,
       "Y": 0.0
      },
      "handle_type": 0,
      "interpolation": 0
     }
    ]
   },
   "position": 288.1333333333333,
   "reader": {
    "acodec": "",
    "audio_bit_rate": 0,
    "audio_stream_index": -1,
    "audio_timebase": {
     "den": 1,
     "num": 1
    },
    "channel_layout": 4,
    "channels": 0,
    "display_ratio": {
     "den": 9,
     "num": 16
    },
    "duration": 55.400001525878906,
    "file_size": "29160211",
    "fps": {
     "den": 1,
     "num": 30
    },
    "has_audio": false,
    "has_single_image": false,
    "has_video": true,
    "height": 1080,
    "interlaced_frame": false,
    "metadata": {
     "compatible_brands": "mp41isom",
     "creation_time": "2024-05-26T21:25:52.000000Z",
     "encoder": "AVC Coding",
     "handler_name": "VideoHandler",
     "language": "und",
     "major_brand": "mp42",
     "minor_version": "0"
    },
    "path": "./Movie_012.mp4",
    "pixel_format": 0,
    "pixel_ratio": {
     "den": 1,
     "num": 1
    },
    "sample_rate": 0,
    "top_field_first": true,
    "type": "FFmpegReader",
    "vcodec": "h264",
    "video_bit_rate": 526357,
    "video_length": "1662",
    "video_stream_index": 0,
    "video_timebase": {
     "den": 30000,
     "num": 1
    },
    "width": 1920,
    "media_type": "video",
    "id": "KBSWRPDX0A"
   },
   "rotation": {
    "Points": [
     {
      "co": {
       "X": 1.0,
       "Y": 0.0
      },
      "handle_left": {
       "X": 0.5,
       "Y": 1.0
      },
      "handle_right": {
       "X": 0.5,
       "Y": 0.0
      },
      "handle_type": 0,
      "interpolation": 0
     }
    ]
   },
   "scale": 1,
   "scale_x": {
    "Points": [
     {
      "co": {
       "X": 1.0,
       "Y": 1.0
      },
      "handle_left": {
       "X": 0.5,
       "Y": 1.0
      },
      "handle_right": {
       "X": 0.5,
       "Y": 0.0
      },
      "handle_type": 0,
      "interpolation": 0
     }
    ]
   },
   "scale_y": {
    "Points": [
     {
      "co": {
       "X": 1.0,
       "Y": 1.0
      },
      "handle_left": {
       "X": 0.5,
       "Y": 1.0
      },
      "handle_right": {
       "X": 0.5,
       "Y": 0.0
      },
      "handle_type": 0,
      "interpolation": 0
     }
    ]
   },
   "shear_x": {
    "Points": [
     {
      "co": {
       "X": 1.0,
       "Y": 0.0
      },
      "handle_left": {
       "X": 0.5,
       "Y": 1.0
      },
      "handle_right": {
       "X": 0.5,
       "Y": 0.0
      },
      "handle_type": 0,
      "interpolation": 0
     }
    ]
   },
   "shear_y": {
    "Points": [
     {
      "co": {
       "X": 1.0,
       "Y": 0.0
      },
      "handle_left": {
       "X": 0.5,
       "Y": 1.0
      },
      "handle_right": {
       "X": 0.5,
       "Y": 0.0
      },
      "handle_type": 0,
      "interpolation": 0
     }
    ]
   },
   "start": 39.72376408068852,
   "time": {
    "Points": [
     {
      "co": {
       "X": 1.0,
       "Y": 1.0
      },
      "handle_left": {
       "X": 0.5,
       "Y": 1.0
      },
      "handle_right": {
       "X": 0.5,
       "Y": 0.0
      },
      "handle_type": 0,
      "interpolation": 0
     }
    ]
   },
   "volume": {
    "Points": [
     {
      "co": {
       "X": 1.0,
       "Y": 1.0
      },
      "handle_left": {
       "X": 0.5,
       "Y": 1.0
      },
      "handle_right": {
       "X": 0.5,
       "Y": 0.0
      },
      "handle_type": 0,
      "interpolation": 0
     }
    ]
   },
   "wave_color": {
    "alpha": {
     "Points": [
      {
       "co": {
        "X": 1.0,
        "Y": 255.0
       },
       "handle_left": {
        "X": 0.5,
        "Y": 1.0
       },
       "handle_right": {
        "X": 0.5,
        "Y": 0.0
       },
       "handle_type": 0,
       "interpolation": 0
      }
     ]
    },
    "blue": {
     "Points": [
      {
       "co": {
        "X": 1.0,
        "Y": 255.0
       },
       "handle_left": {
        "X": 0.5,
        "Y": 1.0
       },
       "handle_right": {
        "X": 0.5,
        "Y": 0.0
       },
       "handle_type": 0,
       "interpolation": 0
      }
     ]
    },
    "green": {
     "Points": [
      {
       "co": {
        "X": 1.0,
        "Y": 123.0
       },
       "handle_left": {
        "X": 0.5,
        "Y": 1.0
       },
       "handle_right": {
        "X": 0.5,
        "Y": 0.0
       },
       "handle_type": 0,
       "interpolation": 0
      }
     ]
    },
    "red": {
     "Points": [
      {
       "co": {
        "X": 1.0,
        "Y": 0.0
       },
       "handle_left": {
        "X": 0.5,
        "Y": 1.0
       },
       "handle_right": {
        "X": 0.5,
        "Y": 0.0
       },
       "handle_type": 0,
       "interpolation": 0
      }
     ]
    }
   },
   "waveform": false,
   "file_id": "KBSWRPDX0A",
   "title": "Movie_012.mp4",
   "image": "Tutorial_assets/thumbnail/KBSWRPDX0A.png",
   "id": "NGWZYV53Y3"
  },
  {
   "alpha": {
    "Points": [
     {
      "co": {
       "X": 1.0,
       "Y": 1.0
      },
      "handle_left": {
       "X": 0.5,
       "Y": 1.0
      },
      "handle_right": {
       "X": 0.5,
       "Y": 0.0
      },
      "handle_type": 0,
      "interpolation": 0
     }
    ]
   },
   "anchor": 0,
   "channel_filter": {
    "Points": [
     {
      "co": {
       "X": 1.0,
       "Y": -1.0
      },
      "handle_left": {
       "X": 0.5,
       "Y": 1.0
      },
      "handle_right": {
       "X": 0.5,
       "Y": 0.0
      },
      "handle_type": 0,
      "interpolation": 0
     }
    ]
   },
   "channel_mapping": {
    "Points": [
     {
      "co": {
       "X": 1.0,
       "Y": -1.0
      },
      "handle_left": {
       "X": 0.5,
       "Y": 1.0
      },
      "handle_right": {
       "X": 0.5,
       "Y": 0.0
      },
      "handle_type": 0,
      "interpolation": 0
     }
    ]
   },
   "display": 0,
   "duration": 3600.0,
   "effects": [],
   "end": 2.887215663947533,
   "gravity": 4,
   "has_audio": {
    "Points": [
     {
      "co": {
       "X": 1.0,
       "Y": -1.0
      },
      "handle_left": {
       "X": 0.5,
       "Y": 1.0
      },
      "handle_right": {
       "X": 0.5,
       "Y": 0.0
      },
      "handle_type": 0,
      "interpolation": 0
     }
    ]
   },
   "has_video": {
    "Points": [
     {
      "co": {
       "X": 1.0,
       "Y": -1.0
      },
      "handle_left": {
       "X": 0.5,
       "Y": 1.0
      },
      "handle_right": {
       "X": 0.5,
       "Y": 0.0
      },
      "handle_type": 0,
      "interpolation": 0
     }
    ]
   },
   "id": "ZF78T4QIVJ",
   "layer": 1000000,
   "location_x": {
    "Points": [
     {
      "co": {
       "X": 1.0,
       "Y": 0.0
      },
      "handle_left": {
       "X": 0.5,
       "Y": 1.0
      },
      "handle_right": {
       "X": 0.5,
       "Y": 0.0
      },
      "handle_type": 0,
      "interpolation": 0
     }
    ]
   },
   "location_y": {
    "Points": [
     {
      "co": {
       "X": 1.0,
       "Y": 0.0
      },
      "handle_left": {
       "X": 0.5,
       "Y": 1.0
      },
      "handle_right": {
       "X": 0.5,
       "Y": 0.0
      },
      "handle_type": 0,
      "interpolation": 0
     }
    ]
   },
   "mixing": 0,
   "origin_x": {
    "Points": [
     {
      "co": {
       "X": 1.0,
       "Y": 0.5
      },
      "handle_left": {
       "X": 0.5,
       "Y": 1.0
      },
      "handle_right": {
       "X": 0.5,
       "Y": 0.0
      },
      "handle_type": 0,
      "interpolation": 0
     }
    ]
   },
   "origin_y": {
    "Points": [
     {
      "co": {
       "X": 1.0,
       "Y": 0.5
      },
      "handle_left": {
       "X": 0.5,
       "Y": 1.0
      },
      "handle_right": {
       "X": 0.5,
       "Y": 0.0
      },
      "handle_type": 0,
      "interpolation": 0
     }
    ]
   },
   "parentObjectId": "",
   "perspective_c1_x": {
    "Points": [
     {
      "co": {
       "X": 1.0,
       "Y": -1.0
      },
      "handle_left": {
       "X": 0.5,
       "Y": 1.0
      },
      "handle_right": {
       "X": 0.5,
       "Y": 0.0
      },
      "handle_type": 0,
      "interpolation": 0
     }
    ]
   },
   "perspective_c1_y": {
    "Points": [
     {
      "co": {
       "X": 1.0,
       "Y": -1.0
      },
      "handle_left": {
       "X": 0.5,
       "Y": 1.0
      },
      "handle_right": {
       "X": 0.5,
       "Y": 0.0
      },
      "handle_type": 0,
      "interpolation": 0
     }
    ]
   },
   "perspective_c2_x": {
    "Points": [
     {
      "co": {
       "X": 1.0,
       "Y": -1.0
      },
      "handle_left": {
       "X": 0.5,
       "Y": 1.0
      },
      "handle_right": {
       "X": 0.5,
       "Y": 0.0
      },
      "handle_type": 0,
      "interpolation": 0
     }
    ]
   },
   "perspective_c2_y": {
    "Points": [
     {
      "co": {
       "X": 1.0,
       "Y": -1.0
      },
      "handle_left": {
       "X": 0.5,
       "Y": 1.0
      },
      "handle_right": {
       "X": 0.5,
       "Y": 0.0
      },
      "handle_type": 0,
      "interpolation": 0
     }
    ]
   },
   "perspective_c3_x": {
    "Points": [
     {
      "co": {
       "X": 1.0,
       "Y": -1.0
      },
      "handle_left": {
       "X": 0.5,
       "Y": 1.0
      },
      "handle_right": {
       "X": 0.5,
       "Y": 0.0
      },
      "handle_type": 0,
      "interpolation": 0
     }
    ]
   },
   "perspective_c3_y": {
    "Points": [
     {
      "co": {
       "X": 1.0,
       "Y": -1.0
      },
      "handle_left": {
       "X": 0.5,
       "Y": 1.0
      },
      "handle_right": {
       "X": 0.5,
       "Y": 0.0
      },
      "handle_type": 0,
      "interpolation": 0
     }
    ]
   },
   "perspective_c4_x": {
    "Points": [
     {
      "co": {
       "X": 1.0,
       "Y": -1.0
      },
      "handle_left": {
       "X": 0.5,
       "Y": 1.0
      },
      "handle_right": {
       "X": 0.5,
       "Y": 0.0
      },
      "handle_type": 0,
      "interpolation": 0
     }
    ]
   },
   "perspective_c4_y": {
    "Points": [
     {
      "co": {
       "X": 1.0,
       "Y": -1.0
      },
      "handle_left": {
       "X": 0.5,
       "Y": 1.0
      },
      "handle_right": {
       "X": 0.5,
       "Y": 0.0
      },
      "handle_type": 0,
      "interpolation": 0
     }
    ]
   },
   "position": 285.23333333333335,
   "reader": {
    "acodec": "",
    "audio_bit_rate": 0,
    "audio_stream_index": -1,
    "audio_timebase": {
     "den": 1,
     "num": 1
    },
    "channel_layout": 4,
    "channels": 0,
    "display_ratio": {
     "den": 9,
     "num": 16
    },
    "duration": 3600.0,
    "file_size": "8294400",
    "fps": {
     "den": 1,
     "num": 30
    },
    "has_audio": false,
    "has_single_image": true,
    "has_video": true,
    "height": 1080,
    "interlaced_frame": false,
    "metadata": {},
    "path": "./Frame-08557.png",
    "pixel_format": -1,
    "pixel_ratio": {
     "den": 1,
     "num": 1
    },
    "sample_rate": 0,
    "top_field_first": true,
    "type": "QtImageReader",
    "vcodec": "",
    "video_bit_rate": 0,
    "video_length": "108000",
    "video_stream_index": -1,
    "video_timebase": {
     "den": 30,
     "num": 1
    },
    "width": 1920,
    "media_type": "image",
    "id": "TJV79I9UKE"
   },
   "rotation": {
    "Points": [
     {
      "co": {
       "X": 1.0,
       "Y": 0.0
      },
      "handle_left": {
       "X": 0.5,
       "Y": 1.0
      },
      "handle_right": {
       "X": 0.5,
       "Y": 0.0
      },
      "handle_type": 0,
      "interpolation": 0
     }
    ]
   },
   "scale": 1,
   "scale_x": {
    "Points": [
     {
      "co": {
       "X": 1.0,
       "Y": 1.0
      },
      "handle_left": {
       "X": 0.5,
       "Y": 1.0
      },
      "handle_right": {
       "X": 0.5,
       "Y": 0.0
      },
      "handle_type": 0,
      "interpolation": 0
     }
    ]
   },
   "scale_y": {
    "Points": [
     {
      "co": {
       "X": 1.0,
       "Y": 1.0
      },
      "handle_left": {
       "X": 0.5,
       "Y": 1.0
      },
      "handle_right": {
       "X": 0.5,
       "Y": 0.0
      },
      "handle_type": 0,
      "interpolation": 0
     }
    ]
   },
   "shear_x": {
    "Points": [
     {
      "co": {
       "X": 1.0,
       "Y": 0.0
      },
      "handle_left": {
       "X": 0.5,
       "Y": 1.0
      },
      "handle_right": {
       "X": 0.5,
       "Y": 0.0
      },
      "handle_type": 0,
      "interpolation": 0
     }
    ]
   },
   "shear_y": {
    "Points": [
     {
      "co": {
       "X": 1.0,
       "Y": 0.0
      },
      "handle_left": {
       "X": 0.5,
       "Y": 1.0
      },
      "handle_right": {
       "X": 0.5,
       "Y": 0.0
      },
      "handle_type": 0,
      "interpolation": 0
     }
    ]
   },
   "start": 0,
   "time": {
    "Points": [
     {
      "co": {
       "X": 1.0,
       "Y": 1.0
      },
      "handle_left": {
       "X": 0.5,
       "Y": 1.0
      },
      "handle_right": {
       "X": 0.5,
       "Y": 0.0
      },
      "handle_type": 0,
      "interpolation": 0
     }
    ]
   },
   "volume": {
    "Points": [
     {
      "co": {
       "X": 1.0,
       "Y": 1.0
      },
      "handle_left": {
       "X": 0.5,
       "Y": 1.0
      },
      "handle_right": {
       "X": 0.5,
       "Y": 0.0
      },
      "handle_type": 0,
      "interpolation": 0
     }
    ]
   },
   "wave_color": {
    "alpha": {
     "Points": [
      {
       "co": {
        "X": 1.0,
        "Y": 255.0
       },
       "handle_left": {
        "X": 0.5,
        "Y": 1.0
       },
       "handle_right": {
        "X": 0.5,
        "Y": 0.0
       },
       "handle_type": 0,
       "interpolation": 0
      }
     ]
    },
    "blue": {
     "Points": [
      {
       "co": {
        "X": 1.0,
        "Y": 255.0
       },
       "handle_left": {
        "X": 0.5,
        "Y": 1.0
       },
       "handle_right": {
        "X": 0.5,
        "Y": 0.0
       },
       "handle_type": 0,
       "interpolation": 0
      }
     ]
    },
    "green": {
     "Points": [
      {
       "co": {
        "X": 1.0,
        "Y": 123.0
       },
       "handle_left": {
        "X": 0.5,
        "Y": 1.0
       },
       "handle_right": {
        "X": 0.5,
        "Y": 0.0
       },
       "handle_type": 0,
       "interpolation": 0
      }
     ]
    },
    "red": {
     "Points": [
      {
       "co": {
        "X": 1.0,
        "Y": 0.0
       },
       "handle_left": {
        "X": 0.5,
        "Y": 1.0
       },
       "handle_right": {
        "X": 0.5,
        "Y": 0.0
       },
       "handle_type": 0,
       "interpolation": 0
      }
     ]
    }
   },
   "waveform": false,
   "file_id": "TJV79I9UKE",
   "title": "Frame-08557.png",
   "image": "Tutorial_assets/thumbnail/TJV79I9UKE.png"
  },
  {
   "alpha": {
    "Points": [
     {
      "co": {
       "X": 1.0,
       "Y": 1.0
      },
      "handle_left": {
       "X": 0.5,
       "Y": 1.0
      },
      "handle_right": {
       "X": 0.5,
       "Y": 0.0
      },
      "handle_type": 0,
      "interpolation": 0
     }
    ]
   },
   "anchor": 0,
   "channel_filter": {
    "Points": [
     {
      "co": {
       "X": 1.0,
       "Y": -1.0
      },
      "handle_left": {
       "X": 0.5,
       "Y": 1.0
      },
      "handle_right": {
       "X": 0.5,
       "Y": 0.0
      },
      "handle_type": 0,
      "interpolation": 0
     }
    ]
   },
   "channel_mapping": {
    "Points": [
     {
      "co": {
       "X": 1.0,
       "Y": -1.0
      },
      "handle_left": {
       "X": 0.5,
       "Y": 1.0
      },
      "handle_right": {
       "X": 0.5,
       "Y": 0.0
      },
      "handle_type": 0,
      "interpolation": 0
     }
    ]
   },
   "display": 0,
   "duration": 76.30000305175781,
   "effects": [],
   "end": 15.633333333333326,
   "gravity": 4,
   "has_audio": {
    "Points": [
     {
      "co": {
       "X": 1.0,
       "Y": -1.0
      },
      "handle_left": {
       "X": 0.5,
       "Y": 1.0
      },
      "handle_right": {
       "X": 0.5,
       "Y": 0.0
      },
      "handle_type": 0,
      "interpolation": 0
     }
    ]
   },
   "has_video": {
    "Points": [
     {
      "co": {
       "X": 1.0,
       "Y": -1.0
      },
      "handle_left": {
       "X": 0.5,
       "Y": 1.0
      },
      "handle_right": {
       "X": 0.5,
       "Y": 0.0
      },
      "handle_type": 0,
      "interpolation": 0
     }
    ]
   },
   "id": "ZC71WFXV2G",
   "layer": 1000000,
   "location_x": {
    "Points": [
     {
      "co": {
       "X": 1.0,
       "Y": 0.0
      },
      "handle_left": {
       "X": 0.5,
       "Y": 1.0
      },
      "handle_right": {
       "X": 0.5,
       "Y": 0.0
      },
      "handle_type": 0,
      "interpolation": 0
     }
    ]
   },
   "location_y": {
    "Points": [
     {
      "co": {
       "X": 1.0,
       "Y": 0.0
      },
      "handle_left": {
       "X": 0.5,
       "Y": 1.0
      },
      "handle_right": {
       "X": 0.5,
       "Y": 0.0
      },
      "handle_type": 0,
      "interpolation": 0
     }
    ]
   },
   "mixing": 0,
   "origin_x": {
    "Points": [
     {
      "co": {
       "X": 1.0,
       "Y": 0.5
      },
      "handle_left": {
       "X": 0.5,
       "Y": 1.0
      },
      "handle_right": {
       "X": 0.5,
       "Y": 0.0
      },
      "handle_type": 0,
      "interpolation": 0
     }
    ]
   },
   "origin_y": {
    "Points": [
     {
      "co": {
       "X": 1.0,
       "Y": 0.5
      },
      "handle_left": {
       "X": 0.5,
       "Y": 1.0
      },
      "handle_right": {
       "X": 0.5,
       "Y": 0.0
      },
      "handle_type": 0,
      "interpolation": 0
     }
    ]
   },
   "parentObjectId": "",
   "perspective_c1_x": {
    "Points": [
     {
      "co": {
       "X": 1.0,
       "Y": -1.0
      },
      "handle_left": {
       "X": 0.5,
       "Y": 1.0
      },
      "handle_right": {
       "X": 0.5,
       "Y": 0.0
      },
      "handle_type": 0,
      "interpolation": 0
     }
    ]
   },
   "perspective_c1_y": {
    "Points": [
     {
      "co": {
       "X": 1.0,
       "Y": -1.0
      },
      "handle_left": {
       "X": 0.5,
       "Y": 1.0
      },
      "handle_right": {
       "X": 0.5,
       "Y": 0.0
      },
      "handle_type": 0,
      "interpolation": 0
     }
    ]
   },
   "perspective_c2_x": {
    "Points": [
     {
      "co": {
       "X": 1.0,
       "Y": -1.0
      },
      "handle_left": {
       "X": 0.5,
       "Y": 1.0
      },
      "handle_right": {
       "X": 0.5,
       "Y": 0.0
      },
      "handle_type": 0,
      "interpolation": 0
     }
    ]
   },
   "perspective_c2_y": {
    "Points": [
     {
      "co": {
       "X": 1.0,
       "Y": -1.0
      },
      "handle_left": {
       "X": 0.5,
       "Y": 1.0
      },
      "handle_right": {
       "X": 0.5,
       "Y": 0.0
      },
      "handle_type": 0,
      "interpolation": 0
     }
    ]
   },
   "perspective_c3_x": {
    "Points": [
     {
      "co": {
       "X": 1.0,
       "Y": -1.0
      },
      "handle_left": {
       "X": 0.5,
       "Y": 1.0
      },
      "handle_right": {
       "X": 0.5,
       "Y": 0.0
      },
      "handle_type": 0,
      "interpolation": 0
     }
    ]
   },
   "perspective_c3_y": {
    "Points": [
     {
      "co": {
       "X": 1.0,
       "Y": -1.0
      },
      "handle_left": {
       "X": 0.5,
       "Y": 1.0
      },
      "handle_right": {
       "X": 0.5,
       "Y": 0.0
      },
      "handle_type": 0,
      "interpolation": 0
     }
    ]
   },
   "perspective_c4_x": {
    "Points": [
     {
      "co": {
       "X": 1.0,
       "Y": -1.0
      },
      "handle_left": {
       "X": 0.5,
       "Y": 1.0
      },
      "handle_right": {
       "X": 0.5,
       "Y": 0.0
      },
      "handle_type": 0,
      "interpolation": 0
     }
    ]
   },
   "perspective_c4_y": {
    "Points": [
     {
      "co": {
       "X": 1.0,
       "Y": -1.0
      },
      "handle_left": {
       "X": 0.5,
       "Y": 1.0
      },
      "handle_right": {
       "X": 0.5,
       "Y": 0.0
      },
      "handle_type": 0,
      "interpolation": 0
     }
    ]
   },
   "position": 297.26666666666665,
   "reader": {
    "acodec": "",
    "audio_bit_rate": 0,
    "audio_stream_index": -1,
    "audio_timebase": {
     "den": 1,
     "num": 1
    },
    "channel_layout": 4,
    "channels": 0,
    "display_ratio": {
     "den": 9,
     "num": 16
    },
    "duration": 76.30000305175781,
    "file_size": "46445188",
    "fps": {
     "den": 1,
     "num": 30
    },
    "has_audio": false,
    "has_single_image": false,
    "has_video": true,
    "height": 1080,
    "interlaced_frame": false,
    "metadata": {
     "compatible_brands": "mp41isom",
     "creation_time": "2024-05-23T17:55:51.000000Z",
     "encoder": "AVC Coding",
     "handler_name": "VideoHandler",
     "language": "und",
     "major_brand": "mp42",
     "minor_version": "0"
    },
    "path": "./Movie_006.mp4",
    "pixel_format": 0,
    "pixel_ratio": {
     "den": 1,
     "num": 1
    },
    "sample_rate": 0,
    "top_field_first": true,
    "type": "FFmpegReader",
    "vcodec": "h264",
    "video_bit_rate": 608718,
    "video_length": "2289",
    "video_stream_index": 0,
    "video_timebase": {
     "den": 30000,
     "num": 1
    },
    "width": 1920,
    "media_type": "video",
    "id": "BNQY1GBT71",
    "image": "Tutorial_assets/thumbnail/BNQY1GBT71.png"
   },
   "rotation": {
    "Points": [
     {
      "co": {
       "X": 1.0,
       "Y": 0.0
      },
      "handle_left": {
       "X": 0.5,
       "Y": 1.0
      },
      "handle_right": {
       "X": 0.5,
       "Y": 0.0
      },
      "handle_type": 0,
      "interpolation": 0
     }
    ]
   },
   "scale": 1,
   "scale_x": {
    "Points": [
     {
      "co": {
       "X": 1.0,
       "Y": 1.0
      },
      "handle_left": {
       "X": 0.5,
       "Y": 1.0
      },
      "handle_right": {
       "X": 0.5,
       "Y": 0.0
      },
      "handle_type": 0,
      "interpolation": 0
     }
    ]
   },
   "scale_y": {
    "Points": [
     {
      "co": {
       "X": 1.0,
       "Y": 1.0
      },
      "handle_left": {
       "X": 0.5,
       "Y": 1.0
      },
      "handle_right": {
       "X": 0.5,
       "Y": 0.0
      },
      "handle_type": 0,
      "interpolation": 0
     }
    ]
   },
   "shear_x": {
    "Points": [
     {
      "co": {
       "X": 1.0,
       "Y": 0.0
      },
      "handle_left": {
       "X": 0.5,
       "Y": 1.0
      },
      "handle_right": {
       "X": 0.5,
       "Y": 0.0
      },
      "handle_type": 0,
      "interpolation": 0
     }
    ]
   },
   "shear_y": {
    "Points": [
     {
      "co": {
       "X": 1.0,
       "Y": 0.0
      },
      "handle_left": {
       "X": 0.5,
       "Y": 1.0
      },
      "handle_right": {
       "X": 0.5,
       "Y": 0.0
      },
      "handle_type": 0,
      "interpolation": 0
     }
    ]
   },
   "start": 14.133333333333326,
   "time": {
    "Points": [
     {
      "co": {
       "X": 1.0,
       "Y": 1.0
      },
      "handle_left": {
       "X": 0.5,
       "Y": 1.0
      },
      "handle_right": {
       "X": 0.5,
       "Y": 0.0
      },
      "handle_type": 0,
      "interpolation": 0
     }
    ]
   },
   "volume": {
    "Points": [
     {
      "co": {
       "X": 1.0,
       "Y": 1.0
      },
      "handle_left": {
       "X": 0.5,
       "Y": 1.0
      },
      "handle_right": {
       "X": 0.5,
       "Y": 0.0
      },
      "handle_type": 0,
      "interpolation": 0
     }
    ]
   },
   "wave_color": {
    "alpha": {
     "Points": [
      {
       "co": {
        "X": 1.0,
        "Y": 255.0
       },
       "handle_left": {
        "X": 0.5,
        "Y": 1.0
       },
       "handle_right": {
        "X": 0.5,
        "Y": 0.0
       },
       "handle_type": 0,
       "interpolation": 0
      }
     ]
    },
    "blue": {
     "Points": [
      {
       "co": {
        "X": 1.0,
        "Y": 255.0
       },
       "handle_left": {
        "X": 0.5,
        "Y": 1.0
       },
       "handle_right": {
        "X": 0.5,
        "Y": 0.0
       },
       "handle_type": 0,
       "interpolation": 0
      }
     ]
    },
    "green": {
     "Points": [
      {
       "co": {
        "X": 1.0,
        "Y": 123.0
       },
       "handle_left": {
        "X": 0.5,
        "Y": 1.0
       },
       "handle_right": {
        "X": 0.5,
        "Y": 0.0
       },
       "handle_type": 0,
       "interpolation": 0
      }
     ]
    },
    "red": {
     "Points": [
      {
       "co": {
        "X": 1.0,
        "Y": 0.0
       },
       "handle_left": {
        "X": 0.5,
        "Y": 1.0
       },
       "handle_right": {
        "X": 0.5,
        "Y": 0.0
       },
       "handle_type": 0,
       "interpolation": 0
      }
     ]
    }
   },
   "waveform": false,
   "file_id": "BNQY1GBT71",
   "title": "Movie_006.mp4",
   "image": "Tutorial_assets/thumbnail/BNQY1GBT71.png"
  },
  {
   "alpha": {
    "Points": [
     {
      "co": {
       "X": 1.0,
       "Y": 1.0
      },
      "handle_left": {
       "X": 0.5,
       "Y": 1.0
      },
      "handle_right": {
       "X": 0.5,
       "Y": 0.0
      },
      "handle_type": 0,
      "interpolation": 0
     }
    ]
   },
   "anchor": 0,
   "channel_filter": {
    "Points": [
     {
      "co": {
       "X": 1.0,
       "Y": -1.0
      },
      "handle_left": {
       "X": 0.5,
       "Y": 1.0
      },
      "handle_right": {
       "X": 0.5,
       "Y": 0.0
      },
      "handle_type": 0,
      "interpolation": 0
     }
    ]
   },
   "channel_mapping": {
    "Points": [
     {
      "co": {
       "X": 1.0,
       "Y": -1.0
      },
      "handle_left": {
       "X": 0.5,
       "Y": 1.0
      },
      "handle_right": {
       "X": 0.5,
       "Y": 0.0
      },
      "handle_type": 0,
      "interpolation": 0
     }
    ]
   },
   "display": 0,
   "duration": 76.30000305175781,
   "effects": [],
   "end": 52.79999999999999,
   "gravity": 4,
   "has_audio": {
    "Points": [
     {
      "co": {
       "X": 1.0,
       "Y": -1.0
      },
      "handle_left": {
       "X": 0.5,
       "Y": 1.0
      },
      "handle_right": {
       "X": 0.5,
       "Y": 0.0
      },
      "handle_type": 0,
      "interpolation": 0
     }
    ]
   },
   "has_video": {
    "Points": [
     {
      "co": {
       "X": 1.0,
       "Y": -1.0
      },
      "handle_left": {
       "X": 0.5,
       "Y": 1.0
      },
      "handle_right": {
       "X": 0.5,
       "Y": 0.0
      },
      "handle_type": 0,
      "interpolation": 0
     }
    ]
   },
   "layer": 1000000,
   "location_x": {
    "Points": [
     {
      "co": {
       "X": 1.0,
       "Y": 0.0
      },
      "handle_left": {
       "X": 0.5,
       "Y": 1.0
      },
      "handle_right": {
       "X": 0.5,
       "Y": 0.0
      },
      "handle_type": 0,
      "interpolation": 0
     }
    ]
   },
   "location_y": {
    "Points": [
     {
      "co": {
       "X": 1.0,
       "Y": 0.0
      },
      "handle_left": {
       "X": 0.5,
       "Y": 1.0
      },
      "handle_right": {
       "X": 0.5,
       "Y": 0.0
      },
      "handle_type": 0,
      "interpolation": 0
     }
    ]
   },
   "mixing": 0,
   "origin_x": {
    "Points": [
     {
      "co": {
       "X": 1.0,
       "Y": 0.5
      },
      "handle_left": {
       "X": 0.5,
       "Y": 1.0
      },
      "handle_right": {
       "X": 0.5,
       "Y": 0.0
      },
      "handle_type": 0,
      "interpolation": 0
     }
    ]
   },
   "origin_y": {
    "Points": [
     {
      "co": {
       "X": 1.0,
       "Y": 0.5
      },
      "handle_left": {
       "X": 0.5,
       "Y": 1.0
      },
      "handle_right": {
       "X": 0.5,
       "Y": 0.0
      },
      "handle_type": 0,
      "interpolation": 0
     }
    ]
   },
   "parentObjectId": "",
   "perspective_c1_x": {
    "Points": [
     {
      "co": {
       "X": 1.0,
       "Y": -1.0
      },
      "handle_left": {
       "X": 0.5,
       "Y": 1.0
      },
      "handle_right": {
       "X": 0.5,
       "Y": 0.0
      },
      "handle_type": 0,
      "interpolation": 0
     }
    ]
   },
   "perspective_c1_y": {
    "Points": [
     {
      "co": {
       "X": 1.0,
       "Y": -1.0
      },
      "handle_left": {
       "X": 0.5,
       "Y": 1.0
      },
      "handle_right": {
       "X": 0.5,
       "Y": 0.0
      },
      "handle_type": 0,
      "interpolation": 0
     }
    ]
   },
   "perspective_c2_x": {
    "Points": [
     {
      "co": {
       "X": 1.0,
       "Y": -1.0
      },
      "handle_left": {
       "X": 0.5,
       "Y": 1.0
      },
      "handle_right": {
       "X": 0.5,
       "Y": 0.0
      },
      "handle_type": 0,
      "interpolation": 0
     }
    ]
   },
   "perspective_c2_y": {
    "Points": [
     {
      "co": {
       "X": 1.0,
       "Y": -1.0
      },
      "handle_left": {
       "X": 0.5,
       "Y": 1.0
      },
      "handle_right": {
       "X": 0.5,
       "Y": 0.0
      },
      "handle_type": 0,
      "interpolation": 0
     }
    ]
   },
   "perspective_c3_x": {
    "Points": [
     {
      "co": {
       "X": 1.0,
       "Y": -1.0
      },
      "handle_left": {
       "X": 0.5,
       "Y": 1.0
      },
      "handle_right": {
       "X": 0.5,
       "Y": 0.0
      },
      "handle_type": 0,
      "interpolation": 0
     }
    ]
   },
   "perspective_c3_y": {
    "Points": [
     {
      "co": {
       "X": 1.0,
       "Y": -1.0
      },
      "handle_left": {
       "X": 0.5,
       "Y": 1.0
      },
      "handle_right": {
       "X": 0.5,
       "Y": 0.0
      },
      "handle_type": 0,
      "interpolation": 0
     }
    ]
   },
   "perspective_c4_x": {
    "Points": [
     {
      "co": {
       "X": 1.0,
       "Y": -1.0
      },
      "handle_left": {
       "X": 0.5,
       "Y": 1.0
      },
      "handle_right": {
       "X": 0.5,
       "Y": 0.0
      },
      "handle_type": 0,
      "interpolation": 0
     }
    ]
   },
   "perspective_c4_y": {
    "Points": [
     {
      "co": {
       "X": 1.0,
       "Y": -1.0
      },
      "handle_left": {
       "X": 0.5,
       "Y": 1.0
      },
      "handle_right": {
       "X": 0.5,
       "Y": 0.0
      },
      "handle_type": 0,
      "interpolation": 0
     }
    ]
   },
   "position": 313.26666666666665,
   "reader": {
    "acodec": "",
    "audio_bit_rate": 0,
    "audio_stream_index": -1,
    "audio_timebase": {
     "den": 1,
     "num": 1
    },
    "channel_layout": 4,
    "channels": 0,
    "display_ratio": {
     "den": 9,
     "num": 16
    },
    "duration": 76.30000305175781,
    "file_size": "46445188",
    "fps": {
     "den": 1,
     "num": 30
    },
    "has_audio": false,
    "has_single_image": false,
    "has_video": true,
    "height": 1080,
    "interlaced_frame": false,
    "metadata": {
     "compatible_brands": "mp41isom",
     "creation_time": "2024-05-23T17:55:51.000000Z",
     "encoder": "AVC Coding",
     "handler_name": "VideoHandler",
     "language": "und",
     "major_brand": "mp42",
     "minor_version": "0"
    },
    "path": "./Movie_006.mp4",
    "pixel_format": 0,
    "pixel_ratio": {
     "den": 1,
     "num": 1
    },
    "sample_rate": 0,
    "top_field_first": true,
    "type": "FFmpegReader",
    "vcodec": "h264",
    "video_bit_rate": 608718,
    "video_length": "2289",
    "video_stream_index": 0,
    "video_timebase": {
     "den": 30000,
     "num": 1
    },
    "width": 1920,
    "media_type": "video",
    "id": "BNQY1GBT71",
    "image": "Tutorial_assets/thumbnail/BNQY1GBT71.png"
   },
   "rotation": {
    "Points": [
     {
      "co": {
       "X": 1.0,
       "Y": 0.0
      },
      "handle_left": {
       "X": 0.5,
       "Y": 1.0
      },
      "handle_right": {
       "X": 0.5,
       "Y": 0.0
      },
      "handle_type": 0,
      "interpolation": 0
     }
    ]
   },
   "scale": 1,
   "scale_x": {
    "Points": [
     {
      "co": {
       "X": 1.0,
       "Y": 1.0
      },
      "handle_left": {
       "X": 0.5,
       "Y": 1.0
      },
      "handle_right": {
       "X": 0.5,
       "Y": 0.0
      },
      "handle_type": 0,
      "interpolation": 0
     }
    ]
   },
   "scale_y": {
    "Points": [
     {
      "co": {
       "X": 1.0,
       "Y": 1.0
      },
      "handle_left": {
       "X": 0.5,
       "Y": 1.0
      },
      "handle_right": {
       "X": 0.5,
       "Y": 0.0
      },
      "handle_type": 0,
      "interpolation": 0
     }
    ]
   },
   "shear_x": {
    "Points": [
     {
      "co": {
       "X": 1.0,
       "Y": 0.0
      },
      "handle_left": {
       "X": 0.5,
       "Y": 1.0
      },
      "handle_right": {
       "X": 0.5,
       "Y": 0.0
      },
      "handle_type": 0,
      "interpolation": 0
     }
    ]
   },
   "shear_y": {
    "Points": [
     {
      "co": {
       "X": 1.0,
       "Y": 0.0
      },
      "handle_left": {
       "X": 0.5,
       "Y": 1.0
      },
      "handle_right": {
       "X": 0.5,
       "Y": 0.0
      },
      "handle_type": 0,
      "interpolation": 0
     }
    ]
   },
   "start": 15.633333333333326,
   "time": {
    "Points": [
     {
      "co": {
       "X": 1.0,
       "Y": 1.0
      },
      "handle_left": {
       "X": 0.5,
       "Y": 1.0
      },
      "handle_right": {
       "X": 0.5,
       "Y": 0.0
      },
      "handle_type": 0,
      "interpolation": 0
     }
    ]
   },
   "volume": {
    "Points": [
     {
      "co": {
       "X": 1.0,
       "Y": 1.0
      },
      "handle_left": {
       "X": 0.5,
       "Y": 1.0
      },
      "handle_right": {
       "X": 0.5,
       "Y": 0.0
      },
      "handle_type": 0,
      "interpolation": 0
     }
    ]
   },
   "wave_color": {
    "alpha": {
     "Points": [
      {
       "co": {
        "X": 1.0,
        "Y": 255.0
       },
       "handle_left": {
        "X": 0.5,
        "Y": 1.0
       },
       "handle_right": {
        "X": 0.5,
        "Y": 0.0
       },
       "handle_type": 0,
       "interpolation": 0
      }
     ]
    },
    "blue": {
     "Points": [
      {
       "co": {
        "X": 1.0,
        "Y": 255.0
       },
       "handle_left": {
        "X": 0.5,
        "Y": 1.0
       },
       "handle_right": {
        "X": 0.5,
        "Y": 0.0
       },
       "handle_type": 0,
       "interpolation": 0
      }
     ]
    },
    "green": {
     "Points": [
      {
       "co": {
        "X": 1.0,
        "Y": 123.0
       },
       "handle_left": {
        "X": 0.5,
        "Y": 1.0
       },
       "handle_right": {
        "X": 0.5,
        "Y": 0.0
       },
       "handle_type": 0,
       "interpolation": 0
      }
     ]
    },
    "red": {
     "Points": [
      {
       "co": {
        "X": 1.0,
        "Y": 0.0
       },
       "handle_left": {
        "X": 0.5,
        "Y": 1.0
       },
       "handle_right": {
        "X": 0.5,
        "Y": 0.0
       },
       "handle_type": 0,
       "interpolation": 0
      }
     ]
    }
   },
   "waveform": false,
   "file_id": "BNQY1GBT71",
   "title": "Movie_006.mp4",
   "image": "Tutorial_assets/thumbnail/BNQY1GBT71.png",
   "id": "OBV2MR7BH1"
  },
  {
   "alpha": {
    "Points": [
     {
      "co": {
       "X": 1.0,
       "Y": 1.0
      },
      "handle_left": {
       "X": 0.5,
       "Y": 1.0
      },
      "handle_right": {
       "X": 0.5,
       "Y": 0.0
      },
      "handle_type": 0,
      "interpolation": 0
     }
    ]
   },
   "anchor": 0,
   "channel_filter": {
    "Points": [
     {
      "co": {
       "X": 1.0,
       "Y": -1.0
      },
      "handle_left": {
       "X": 0.5,
       "Y": 1.0
      },
      "handle_right": {
       "X": 0.5,
       "Y": 0.0
      },
      "handle_type": 0,
      "interpolation": 0
     }
    ]
   },
   "channel_mapping": {
    "Points": [
     {
      "co": {
       "X": 1.0,
       "Y": -1.0
      },
      "handle_left": {
       "X": 0.5,
       "Y": 1.0
      },
      "handle_right": {
       "X": 0.5,
       "Y": 0.0
      },
      "handle_type": 0,
      "interpolation": 0
     }
    ]
   },
   "display": 0,
   "duration": 3600.0,
   "effects": [],
   "end": 14.506419732978625,
   "gravity": 4,
   "has_audio": {
    "Points": [
     {
      "co": {
       "X": 1.0,
       "Y": -1.0
      },
      "handle_left": {
       "X": 0.5,
       "Y": 1.0
      },
      "handle_right": {
       "X": 0.5,
       "Y": 0.0
      },
      "handle_type": 0,
      "interpolation": 0
     }
    ]
   },
   "has_video": {
    "Points": [
     {
      "co": {
       "X": 1.0,
       "Y": -1.0
      },
      "handle_left": {
       "X": 0.5,
       "Y": 1.0
      },
      "handle_right": {
       "X": 0.5,
       "Y": 0.0
      },
      "handle_type": 0,
      "interpolation": 0
     }
    ]
   },
   "id": "4HQ24MMPCP",
   "layer": 1000000,
   "location_x": {
    "Points": [
     {
      "co": {
       "X": 1.0,
       "Y": 0.0
      },
      "handle_left": {
       "X": 0.5,
       "Y": 1.0
      },
      "handle_right": {
       "X": 0.5,
       "Y": 0.0
      },
      "handle_type": 0,
      "interpolation": 0
     }
    ]
   },
   "location_y": {
    "Points": [
     {
      "co": {
       "X": 1.0,
       "Y": 0.0
      },
      "handle_left": {
       "X": 0.5,
       "Y": 1.0
      },
      "handle_right": {
       "X": 0.5,
       "Y": 0.0
      },
      "handle_type": 0,
      "interpolation": 0
     }
    ]
   },
   "mixing": 0,
   "origin_x": {
    "Points": [
     {
      "co": {
       "X": 1.0,
       "Y": 0.5
      },
      "handle_left": {
       "X": 0.5,
       "Y": 1.0
      },
      "handle_right": {
       "X": 0.5,
       "Y": 0.0
      },
      "handle_type": 0,
      "interpolation": 0
     }
    ]
   },
   "origin_y": {
    "Points": [
     {
      "co": {
       "X": 1.0,
       "Y": 0.5
      },
      "handle_left": {
       "X": 0.5,
       "Y": 1.0
      },
      "handle_right": {
       "X": 0.5,
       "Y": 0.0
      },
      "handle_type": 0,
      "interpolation": 0
     }
    ]
   },
   "parentObjectId": "",
   "perspective_c1_x": {
    "Points": [
     {
      "co": {
       "X": 1.0,
       "Y": -1.0
      },
      "handle_left": {
       "X": 0.5,
       "Y": 1.0
      },
      "handle_right": {
       "X": 0.5,
       "Y": 0.0
      },
      "handle_type": 0,
      "interpolation": 0
     }
    ]
   },
   "perspective_c1_y": {
    "Points": [
     {
      "co": {
       "X": 1.0,
       "Y": -1.0
      },
      "handle_left": {
       "X": 0.5,
       "Y": 1.0
      },
      "handle_right": {
       "X": 0.5,
       "Y": 0.0
      },
      "handle_type": 0,
      "interpolation": 0
     }
    ]
   },
   "perspective_c2_x": {
    "Points": [
     {
      "co": {
       "X": 1.0,
       "Y": -1.0
      },
      "handle_left": {
       "X": 0.5,
       "Y": 1.0
      },
      "handle_right": {
       "X": 0.5,
       "Y": 0.0
      },
      "handle_type": 0,
      "interpolation": 0
     }
    ]
   },
   "perspective_c2_y": {
    "Points": [
     {
      "co": {
       "X": 1.0,
       "Y": -1.0
      },
      "handle_left": {
       "X": 0.5,
       "Y": 1.0
      },
      "handle_right": {
       "X": 0.5,
       "Y": 0.0
      },
      "handle_type": 0,
      "interpolation": 0
     }
    ]
   },
   "perspective_c3_x": {
    "Points": [
     {
      "co": {
       "X": 1.0,
       "Y": -1.0
      },
      "handle_left": {
       "X": 0.5,
       "Y": 1.0
      },
      "handle_right": {
       "X": 0.5,
       "Y": 0.0
      },
      "handle_type": 0,
      "interpolation": 0
     }
    ]
   },
   "perspective_c3_y": {
    "Points": [
     {
      "co": {
       "X": 1.0,
       "Y": -1.0
      },
      "handle_left": {
       "X": 0.5,
       "Y": 1.0
      },
      "handle_right": {
       "X": 0.5,
       "Y": 0.0
      },
      "handle_type": 0,
      "interpolation": 0
     }
    ]
   },
   "perspective_c4_x": {
    "Points": [
     {
      "co": {
       "X": 1.0,
       "Y": -1.0
      },
      "handle_left": {
       "X": 0.5,
       "Y": 1.0
      },
      "handle_right": {
       "X": 0.5,
       "Y": 0.0
      },
      "handle_type": 0,
      "interpolation": 0
     }
    ]
   },
   "perspective_c4_y": {
    "Points": [
     {
      "co": {
       "X": 1.0,
       "Y": -1.0
      },
      "handle_left": {
       "X": 0.5,
       "Y": 1.0
      },
      "handle_right": {
       "X": 0.5,
       "Y": 0.0
      },
      "handle_type": 0,
      "interpolation": 0
     }
    ]
   },
   "position": 298.76666666666665,
   "reader": {
    "acodec": "",
    "audio_bit_rate": 0,
    "audio_stream_index": -1,
    "audio_timebase": {
     "den": 1,
     "num": 1
    },
    "channel_layout": 4,
    "channels": 0,
    "display_ratio": {
     "den": 9,
     "num": 16
    },
    "duration": 3600.0,
    "file_size": "8294400",
    "fps": {
     "den": 1,
     "num": 30
    },
    "has_audio": false,
    "has_single_image": true,
    "has_video": true,
    "height": 1080,
    "interlaced_frame": false,
    "metadata": {},
    "path": "./Frame-08963.png",
    "pixel_format": -1,
    "pixel_ratio": {
     "den": 1,
     "num": 1
    },
    "sample_rate": 0,
    "top_field_first": true,
    "type": "QtImageReader",
    "vcodec": "",
    "video_bit_rate": 0,
    "video_length": "108000",
    "video_stream_index": -1,
    "video_timebase": {
     "den": 30,
     "num": 1
    },
    "width": 1920,
    "media_type": "image",
    "id": "INIFRP1LE2"
   },
   "rotation": {
    "Points": [
     {
      "co": {
       "X": 1.0,
       "Y": 0.0
      },
      "handle_left": {
       "X": 0.5,
       "Y": 1.0
      },
      "handle_right": {
       "X": 0.5,
       "Y": 0.0
      },
      "handle_type": 0,
      "interpolation": 0
     }
    ]
   },
   "scale": 1,
   "scale_x": {
    "Points": [
     {
      "co": {
       "X": 1.0,
       "Y": 1.0
      },
      "handle_left": {
       "X": 0.5,
       "Y": 1.0
      },
      "handle_right": {
       "X": 0.5,
       "Y": 0.0
      },
      "handle_type": 0,
      "interpolation": 0
     }
    ]
   },
   "scale_y": {
    "Points": [
     {
      "co": {
       "X": 1.0,
       "Y": 1.0
      },
      "handle_left": {
       "X": 0.5,
       "Y": 1.0
      },
      "handle_right": {
       "X": 0.5,
       "Y": 0.0
      },
      "handle_type": 0,
      "interpolation": 0
     }
    ]
   },
   "shear_x": {
    "Points": [
     {
      "co": {
       "X": 1.0,
       "Y": 0.0
      },
      "handle_left": {
       "X": 0.5,
       "Y": 1.0
      },
      "handle_right": {
       "X": 0.5,
       "Y": 0.0
      },
      "handle_type": 0,
      "interpolation": 0
     }
    ]
   },
   "shear_y": {
    "Points": [
     {
      "co": {
       "X": 1.0,
       "Y": 0.0
      },
      "handle_left": {
       "X": 0.5,
       "Y": 1.0
      },
      "handle_right": {
       "X": 0.5,
       "Y": 0.0
      },
      "handle_type": 0,
      "interpolation": 0
     }
    ]
   },
   "start": 0,
   "time": {
    "Points": [
     {
      "co": {
       "X": 1.0,
       "Y": 1.0
      },
      "handle_left": {
       "X": 0.5,
       "Y": 1.0
      },
      "handle_right": {
       "X": 0.5,
       "Y": 0.0
      },
      "handle_type": 0,
      "interpolation": 0
     }
    ]
   },
   "volume": {
    "Points": [
     {
      "co": {
       "X": 1.0,
       "Y": 1.0
      },
      "handle_left": {
       "X": 0.5,
       "Y": 1.0
      },
      "handle_right": {
       "X": 0.5,
       "Y": 0.0
      },
      "handle_type": 0,
      "interpolation": 0
     }
    ]
   },
   "wave_color": {
    "alpha": {
     "Points": [
      {
       "co": {
        "X": 1.0,
        "Y": 255.0
       },
       "handle_left": {
        "X": 0.5,
        "Y": 1.0
       },
       "handle_right": {
        "X": 0.5,
        "Y": 0.0
       },
       "handle_type": 0,
       "interpolation": 0
      }
     ]
    },
    "blue": {
     "Points": [
      {
       "co": {
        "X": 1.0,
        "Y": 255.0
       },
       "handle_left": {
        "X": 0.5,
        "Y": 1.0
       },
       "handle_right": {
        "X": 0.5,
        "Y": 0.0
       },
       "handle_type": 0,
       "interpolation": 0
      }
     ]
    },
    "green": {
     "Points": [
      {
       "co": {
        "X": 1.0,
        "Y": 123.0
       },
       "handle_left": {
        "X": 0.5,
        "Y": 1.0
       },
       "handle_right": {
        "X": 0.5,
        "Y": 0.0
       },
       "handle_type": 0,
       "interpolation": 0
      }
     ]
    },
    "red": {
     "Points": [
      {
       "co": {
        "X": 1.0,
        "Y": 0.0
       },
       "handle_left": {
        "X": 0.5,
        "Y": 1.0
       },
       "handle_right": {
        "X": 0.5,
        "Y": 0.0
       },
       "handle_type": 0,
       "interpolation": 0
      }
     ]
    }
   },
   "waveform": false,
   "file_id": "INIFRP1LE2",
   "title": "Frame-08963.png",
   "image": "Tutorial_assets/thumbnail/INIFRP1LE2.png"
  },
  {
   "alpha": {
    "Points": [
     {
      "co": {
       "X": 1.0,
       "Y": 1.0
      },
      "handle_left": {
       "X": 0.5,
       "Y": 1.0
      },
      "handle_right": {
       "X": 0.5,
       "Y": 0.0
      },
      "handle_type": 0,
      "interpolation": 0
     }
    ]
   },
   "anchor": 0,
   "channel_filter": {
    "Points": [
     {
      "co": {
       "X": 1.0,
       "Y": -1.0
      },
      "handle_left": {
       "X": 0.5,
       "Y": 1.0
      },
      "handle_right": {
       "X": 0.5,
       "Y": 0.0
      },
      "handle_type": 0,
      "interpolation": 0
     }
    ]
   },
   "channel_mapping": {
    "Points": [
     {
      "co": {
       "X": 1.0,
       "Y": -1.0
      },
      "handle_left": {
       "X": 0.5,
       "Y": 1.0
      },
      "handle_right": {
       "X": 0.5,
       "Y": 0.0
      },
      "handle_type": 0,
      "interpolation": 0
     }
    ]
   },
   "display": 0,
   "duration": 3600.0,
   "effects": [],
   "end": 30.733333333333345,
   "gravity": 4,
   "has_audio": {
    "Points": [
     {
      "co": {
       "X": 1.0,
       "Y": -1.0
      },
      "handle_left": {
       "X": 0.5,
       "Y": 1.0
      },
      "handle_right": {
       "X": 0.5,
       "Y": 0.0
      },
      "handle_type": 0,
      "interpolation": 0
     }
    ]
   },
   "has_video": {
    "Points": [
     {
      "co": {
       "X": 1.0,
       "Y": -1.0
      },
      "handle_left": {
       "X": 0.5,
       "Y": 1.0
      },
      "handle_right": {
       "X": 0.5,
       "Y": 0.0
      },
      "handle_type": 0,
      "interpolation": 0
     }
    ]
   },
   "id": "SW5IG7WFAN",
   "layer": 3000000,
   "location_x": {
    "Points": [
     {
      "co": {
       "X": 1,
       "Y": -0.3006814379606783
      },
      "handle_left": {
       "X": 0.5,
       "Y": 1.0
      },
      "handle_right": {
       "X": 0.5,
       "Y": 0.0
      },
      "handle_type": 0,
      "interpolation": 0
     }
    ]
   },
   "location_y": {
    "Points": [
     {
      "co": {
       "X": 1,
       "Y": -0.3484848468592673
      },
      "handle_left": {
       "X": 0.5,
       "Y": 1.0
      },
      "handle_right": {
       "X": 0.5,
       "Y": 0.0
      },
      "handle_type": 0,
      "interpolation": 0
     }
    ]
   },
   "mixing": 0,
   "origin_x": {
    "Points": [
     {
      "co": {
       "X": 1.0,
       "Y": 0.5
      },
      "handle_left": {
       "X": 0.5,
       "Y": 1.0
      },
      "handle_right": {
       "X": 0.5,
       "Y": 0.0
      },
      "handle_type": 0,
      "interpolation": 0
     }
    ]
   },
   "origin_y": {
    "Points": [
     {
      "co": {
       "X": 1.0,
       "Y": 0.5
      },
      "handle_left": {
       "X": 0.5,
       "Y": 1.0
      },
      "handle_right": {
       "X": 0.5,
       "Y": 0.0
      },
      "handle_type": 0,
      "interpolation": 0
     }
    ]
   },
   "parentObjectId": "",
   "perspective_c1_x": {
    "Points": [
     {
      "co": {
       "X": 1.0,
       "Y": -1.0
      },
      "handle_left": {
       "X": 0.5,
       "Y": 1.0
      },
      "handle_right": {
       "X": 0.5,
       "Y": 0.0
      },
      "handle_type": 0,
      "interpolation": 0
     }
    ]
   },
   "perspective_c1_y": {
    "Points": [
     {
      "co": {
       "X": 1.0,
       "Y": -1.0
      },
      "handle_left": {
       "X": 0.5,
       "Y": 1.0
      },
      "handle_right": {
       "X": 0.5,
       "Y": 0.0
      },
      "handle_type": 0,
      "interpolation": 0
     }
    ]
   },
   "perspective_c2_x": {
    "Points": [
     {
      "co": {
       "X": 1.0,
       "Y": -1.0
      },
      "handle_left": {
       "X": 0.5,
       "Y": 1.0
      },
      "handle_right": {
       "X": 0.5,
       "Y": 0.0
      },
      "handle_type": 0,
      "interpolation": 0
     }
    ]
   },
   "perspective_c2_y": {
    "Points": [
     {
      "co": {
       "X": 1.0,
       "Y": -1.0
      },
      "handle_left": {
       "X": 0.5,
       "Y": 1.0
      },
      "handle_right": {
       "X": 0.5,
       "Y": 0.0
      },
      "handle_type": 0,
      "interpolation": 0
     }
    ]
   },
   "perspective_c3_x": {
    "Points": [
     {
      "co": {
       "X": 1.0,
       "Y": -1.0
      },
      "handle_left": {
       "X": 0.5,
       "Y": 1.0
      },
      "handle_right": {
       "X": 0.5,
       "Y": 0.0
      },
      "handle_type": 0,
      "interpolation": 0
     }
    ]
   },
   "perspective_c3_y": {
    "Points": [
     {
      "co": {
       "X": 1.0,
       "Y": -1.0
      },
      "handle_left": {
       "X": 0.5,
       "Y": 1.0
      },
      "handle_right": {
       "X": 0.5,
       "Y": 0.0
      },
      "handle_type": 0,
      "interpolation": 0
     }
    ]
   },
   "perspective_c4_x": {
    "Points": [
     {
      "co": {
       "X": 1.0,
       "Y": -1.0
      },
      "handle_left": {
       "X": 0.5,
       "Y": 1.0
      },
      "handle_right": {
       "X": 0.5,
       "Y": 0.0
      },
      "handle_type": 0,
      "interpolation": 0
     }
    ]
   },
   "perspective_c4_y": {
    "Points": [
     {
      "co": {
       "X": 1.0,
       "Y": -1.0
      },
      "handle_left": {
       "X": 0.5,
       "Y": 1.0
      },
      "handle_right": {
       "X": 0.5,
       "Y": 0.0
      },
      "handle_type": 0,
      "interpolation": 0
     }
    ]
   },
   "position": 298.8333333333333,
   "reader": {
    "acodec": "",
    "audio_bit_rate": 0,
    "audio_stream_index": -1,
    "audio_timebase": {
     "den": 1,
     "num": 1
    },
    "channel_layout": 4,
    "channels": 0,
    "display_ratio": {
     "den": 509,
     "num": 1362
    },
    "duration": 3600.0,
    "file_size": "2773032",
    "fps": {
     "den": 1,
     "num": 30
    },
    "has_audio": false,
    "has_single_image": true,
    "has_video": true,
    "height": 509,
    "interlaced_frame": false,
    "metadata": {},
    "path": "./drawing43.png",
    "pixel_format": -1,
    "pixel_ratio": {
     "den": 1,
     "num": 1
    },
    "sample_rate": 0,
    "top_field_first": true,
    "type": "QtImageReader",
    "vcodec": "",
    "video_bit_rate": 0,
    "video_length": "108000",
    "video_stream_index": -1,
    "video_timebase": {
     "den": 30,
     "num": 1
    },
    "width": 1362,
    "media_type": "image",
    "id": "YDCKY6EQHI"
   },
   "rotation": {
    "Points": [
     {
      "co": {
       "X": 1.0,
       "Y": 0.0
      },
      "handle_left": {
       "X": 0.5,
       "Y": 1.0
      },
      "handle_right": {
       "X": 0.5,
       "Y": 0.0
      },
      "handle_type": 0,
      "interpolation": 0
     }
    ]
   },
   "scale": 1,
   "scale_x": {
    "Points": [
     {
      "co": {
       "X": 1,
       "Y": 0.31345828915779594
      },
      "handle_left": {
       "X": 0.5,
       "Y": 1.0
      },
      "handle_right": {
       "X": 0.5,
       "Y": 0.0
      },
      "handle_type": 0,
      "interpolation": 0
     }
    ]
   },
   "scale_y": {
    "Points": [
     {
      "co": {
       "X": 1,
       "Y": 0.31345828915779594
      },
      "handle_left": {
       "X": 0.5,
       "Y": 1.0
      },
      "handle_right": {
       "X": 0.5,
       "Y": 0.0
      },
      "handle_type": 0,
      "interpolation": 0
     }
    ]
   },
   "shear_x": {
    "Points": [
     {
      "co": {
       "X": 1.0,
       "Y": 0.0
      },
      "handle_left": {
       "X": 0.5,
       "Y": 1.0
      },
      "handle_right": {
       "X": 0.5,
       "Y": 0.0
      },
      "handle_type": 0,
      "interpolation": 0
     }
    ]
   },
   "shear_y": {
    "Points": [
     {
      "co": {
       "X": 1.0,
       "Y": 0.0
      },
      "handle_left": {
       "X": 0.5,
       "Y": 1.0
      },
      "handle_right": {
       "X": 0.5,
       "Y": 0.0
      },
      "handle_type": 0,
      "interpolation": 0
     }
    ]
   },
   "start": 0,
   "time": {
    "Points": [
     {
      "co": {
       "X": 1.0,
       "Y": 1.0
      },
      "handle_left": {
       "X": 0.5,
       "Y": 1.0
      },
      "handle_right": {
       "X": 0.5,
       "Y": 0.0
      },
      "handle_type": 0,
      "interpolation": 0
     }
    ]
   },
   "volume": {
    "Points": [
     {
      "co": {
       "X": 1.0,
       "Y": 1.0
      },
      "handle_left": {
       "X": 0.5,
       "Y": 1.0
      },
      "handle_right": {
       "X": 0.5,
       "Y": 0.0
      },
      "handle_type": 0,
      "interpolation": 0
     }
    ]
   },
   "wave_color": {
    "alpha": {
     "Points": [
      {
       "co": {
        "X": 1.0,
        "Y": 255.0
       },
       "handle_left": {
        "X": 0.5,
        "Y": 1.0
       },
       "handle_right": {
        "X": 0.5,
        "Y": 0.0
       },
       "handle_type": 0,
       "interpolation": 0
      }
     ]
    },
    "blue": {
     "Points": [
      {
       "co": {
        "X": 1.0,
        "Y": 255.0
       },
       "handle_left": {
        "X": 0.5,
        "Y": 1.0
       },
       "handle_right": {
        "X": 0.5,
        "Y": 0.0
       },
       "handle_type": 0,
       "interpolation": 0
      }
     ]
    },
    "green": {
     "Points": [
      {
       "co": {
        "X": 1.0,
        "Y": 123.0
       },
       "handle_left": {
        "X": 0.5,
        "Y": 1.0
       },
       "handle_right": {
        "X": 0.5,
        "Y": 0.0
       },
       "handle_type": 0,
       "interpolation": 0
      }
     ]
    },
    "red": {
     "Points": [
      {
       "co": {
        "X": 1.0,
        "Y": 0.0
       },
       "handle_left": {
        "X": 0.5,
        "Y": 1.0
       },
       "handle_right": {
        "X": 0.5,
        "Y": 0.0
       },
       "handle_type": 0,
       "interpolation": 0
      }
     ]
    }
   },
   "waveform": false,
   "file_id": "YDCKY6EQHI",
   "title": "drawing43.png",
   "image": "Tutorial_assets/thumbnail/YDCKY6EQHI.png"
  },
  {
   "alpha": {
    "Points": [
     {
      "co": {
       "X": 1.0,
       "Y": 1.0
      },
      "handle_left": {
       "X": 0.5,
       "Y": 1.0
      },
      "handle_right": {
       "X": 0.5,
       "Y": 0.0
      },
      "handle_type": 0,
      "interpolation": 0
     }
    ]
   },
   "anchor": 0,
   "channel_filter": {
    "Points": [
     {
      "co": {
       "X": 1.0,
       "Y": -1.0
      },
      "handle_left": {
       "X": 0.5,
       "Y": 1.0
      },
      "handle_right": {
       "X": 0.5,
       "Y": 0.0
      },
      "handle_type": 0,
      "interpolation": 0
     }
    ]
   },
   "channel_mapping": {
    "Points": [
     {
      "co": {
       "X": 1.0,
       "Y": -1.0
      },
      "handle_left": {
       "X": 0.5,
       "Y": 1.0
      },
      "handle_right": {
       "X": 0.5,
       "Y": 0.0
      },
      "handle_type": 0,
      "interpolation": 0
     }
    ]
   },
   "display": 0,
   "duration": 3600.0,
   "effects": [],
   "end": 4.1333333333333035,
   "gravity": 4,
   "has_audio": {
    "Points": [
     {
      "co": {
       "X": 1.0,
       "Y": -1.0
      },
      "handle_left": {
       "X": 0.5,
       "Y": 1.0
      },
      "handle_right": {
       "X": 0.5,
       "Y": 0.0
      },
      "handle_type": 0,
      "interpolation": 0
     }
    ]
   },
   "has_video": {
    "Points": [
     {
      "co": {
       "X": 1.0,
       "Y": -1.0
      },
      "handle_left": {
       "X": 0.5,
       "Y": 1.0
      },
      "handle_right": {
       "X": 0.5,
       "Y": 0.0
      },
      "handle_type": 0,
      "interpolation": 0
     }
    ]
   },
   "id": "BPSO7IHCM5",
   "layer": 2000000,
   "location_x": {
    "Points": [
     {
      "co": {
       "X": 1,
       "Y": -0.24105621242238878
      },
      "handle_left": {
       "X": 0.5,
       "Y": 1.0
      },
      "handle_right": {
       "X": 0.5,
       "Y": 0.0
      },
      "handle_type": 0,
      "interpolation": 0
     }
    ]
   },
   "location_y": {
    "Points": [
     {
      "co": {
       "X": 1,
       "Y": -0.08939393609762192
      },
      "handle_left": {
       "X": 0.5,
       "Y": 1.0
      },
      "handle_right": {
       "X": 0.5,
       "Y": 0.0
      },
      "handle_type": 0,
      "interpolation": 0
     }
    ]
   },
   "mixing": 0,
   "origin_x": {
    "Points": [
     {
      "co": {
       "X": 1.0,
       "Y": 0.5
      },
      "handle_left": {
       "X": 0.5,
       "Y": 1.0
      },
      "handle_right": {
       "X": 0.5,
       "Y": 0.0
      },
      "handle_type": 0,
      "interpolation": 0
     }
    ]
   },
   "origin_y": {
    "Points": [
     {
      "co": {
       "X": 1.0,
       "Y": 0.5
      },
      "handle_left": {
       "X": 0.5,
       "Y": 1.0
      },
      "handle_right": {
       "X": 0.5,
       "Y": 0.0
      },
      "handle_type": 0,
      "interpolation": 0
     }
    ]
   },
   "parentObjectId": "",
   "perspective_c1_x": {
    "Points": [
     {
      "co": {
       "X": 1.0,
       "Y": -1.0
      },
      "handle_left": {
       "X": 0.5,
       "Y": 1.0
      },
      "handle_right": {
       "X": 0.5,
       "Y": 0.0
      },
      "handle_type": 0,
      "interpolation": 0
     }
    ]
   },
   "perspective_c1_y": {
    "Points": [
     {
      "co": {
       "X": 1.0,
       "Y": -1.0
      },
      "handle_left": {
       "X": 0.5,
       "Y": 1.0
      },
      "handle_right": {
       "X": 0.5,
       "Y": 0.0
      },
      "handle_type": 0,
      "interpolation": 0
     }
    ]
   },
   "perspective_c2_x": {
    "Points": [
     {
      "co": {
       "X": 1.0,
       "Y": -1.0
      },
      "handle_left": {
       "X": 0.5,
       "Y": 1.0
      },
      "handle_right": {
       "X": 0.5,
       "Y": 0.0
      },
      "handle_type": 0,
      "interpolation": 0
     }
    ]
   },
   "perspective_c2_y": {
    "Points": [
     {
      "co": {
       "X": 1.0,
       "Y": -1.0
      },
      "handle_left": {
       "X": 0.5,
       "Y": 1.0
      },
      "handle_right": {
       "X": 0.5,
       "Y": 0.0
      },
      "handle_type": 0,
      "interpolation": 0
     }
    ]
   },
   "perspective_c3_x": {
    "Points": [
     {
      "co": {
       "X": 1.0,
       "Y": -1.0
      },
      "handle_left": {
       "X": 0.5,
       "Y": 1.0
      },
      "handle_right": {
       "X": 0.5,
       "Y": 0.0
      },
      "handle_type": 0,
      "interpolation": 0
     }
    ]
   },
   "perspective_c3_y": {
    "Points": [
     {
      "co": {
       "X": 1.0,
       "Y": -1.0
      },
      "handle_left": {
       "X": 0.5,
       "Y": 1.0
      },
      "handle_right": {
       "X": 0.5,
       "Y": 0.0
      },
      "handle_type": 0,
      "interpolation": 0
     }
    ]
   },
   "perspective_c4_x": {
    "Points": [
     {
      "co": {
       "X": 1.0,
       "Y": -1.0
      },
      "handle_left": {
       "X": 0.5,
       "Y": 1.0
      },
      "handle_right": {
       "X": 0.5,
       "Y": 0.0
      },
      "handle_type": 0,
      "interpolation": 0
     }
    ]
   },
   "perspective_c4_y": {
    "Points": [
     {
      "co": {
       "X": 1.0,
       "Y": -1.0
      },
      "handle_left": {
       "X": 0.5,
       "Y": 1.0
      },
      "handle_right": {
       "X": 0.5,
       "Y": 0.0
      },
      "handle_type": 0,
      "interpolation": 0
     }
    ]
   },
   "position": 300.6666666666667,
   "reader": {
    "acodec": "",
    "audio_bit_rate": 0,
    "audio_stream_index": -1,
    "audio_timebase": {
     "den": 1,
     "num": 1
    },
    "channel_layout": 4,
    "channels": 0,
    "display_ratio": {
     "den": 625,
     "num": 1909
    },
    "duration": 3600.0,
    "file_size": "4772500",
    "fps": {
     "den": 1,
     "num": 30
    },
    "has_audio": false,
    "has_single_image": true,
    "has_video": true,
    "height": 625,
    "interlaced_frame": false,
    "metadata": {},
    "path": "./drawing44.png",
    "pixel_format": -1,
    "pixel_ratio": {
     "den": 1,
     "num": 1
    },
    "sample_rate": 0,
    "top_field_first": true,
    "type": "QtImageReader",
    "vcodec": "",
    "video_bit_rate": 0,
    "video_length": "108000",
    "video_stream_index": -1,
    "video_timebase": {
     "den": 30,
     "num": 1
    },
    "width": 1909,
    "media_type": "image",
    "id": "SQRCZDSQFQ"
   },
   "rotation": {
    "Points": [
     {
      "co": {
       "X": 1.0,
       "Y": 0.0
      },
      "handle_left": {
       "X": 0.5,
       "Y": 1.0
      },
      "handle_right": {
       "X": 0.5,
       "Y": 0.0
      },
      "handle_type": 0,
      "interpolation": 0
     }
    ]
   },
   "scale": 1,
   "scale_x": {
    "Points": [
     {
      "co": {
       "X": 1,
       "Y": 0.43100497938908344
      },
      "handle_left": {
       "X": 0.5,
       "Y": 1.0
      },
      "handle_right": {
       "X": 0.5,
       "Y": 0.0
      },
      "handle_type": 0,
      "interpolation": 0
     }
    ]
   },
   "scale_y": {
    "Points": [
     {
      "co": {
       "X": 1,
       "Y": 0.43100497938908344
      },
      "handle_left": {
       "X": 0.5,
       "Y": 1.0
      },
      "handle_right": {
       "X": 0.5,
       "Y": 0.0
      },
      "handle_type": 0,
      "interpolation": 0
     }
    ]
   },
   "shear_x": {
    "Points": [
     {
      "co": {
       "X": 1.0,
       "Y": 0.0
      },
      "handle_left": {
       "X": 0.5,
       "Y": 1.0
      },
      "handle_right": {
       "X": 0.5,
       "Y": 0.0
      },
      "handle_type": 0,
      "interpolation": 0
     }
    ]
   },
   "shear_y": {
    "Points": [
     {
      "co": {
       "X": 1.0,
       "Y": 0.0
      },
      "handle_left": {
       "X": 0.5,
       "Y": 1.0
      },
      "handle_right": {
       "X": 0.5,
       "Y": 0.0
      },
      "handle_type": 0,
      "interpolation": 0
     }
    ]
   },
   "start": 0,
   "time": {
    "Points": [
     {
      "co": {
       "X": 1.0,
       "Y": 1.0
      },
      "handle_left": {
       "X": 0.5,
       "Y": 1.0
      },
      "handle_right": {
       "X": 0.5,
       "Y": 0.0
      },
      "handle_type": 0,
      "interpolation": 0
     }
    ]
   },
   "volume": {
    "Points": [
     {
      "co": {
       "X": 1.0,
       "Y": 1.0
      },
      "handle_left": {
       "X": 0.5,
       "Y": 1.0
      },
      "handle_right": {
       "X": 0.5,
       "Y": 0.0
      },
      "handle_type": 0,
      "interpolation": 0
     }
    ]
   },
   "wave_color": {
    "alpha": {
     "Points": [
      {
       "co": {
        "X": 1.0,
        "Y": 255.0
       },
       "handle_left": {
        "X": 0.5,
        "Y": 1.0
       },
       "handle_right": {
        "X": 0.5,
        "Y": 0.0
       },
       "handle_type": 0,
       "interpolation": 0
      }
     ]
    },
    "blue": {
     "Points": [
      {
       "co": {
        "X": 1.0,
        "Y": 255.0
       },
       "handle_left": {
        "X": 0.5,
        "Y": 1.0
       },
       "handle_right": {
        "X": 0.5,
        "Y": 0.0
       },
       "handle_type": 0,
       "interpolation": 0
      }
     ]
    },
    "green": {
     "Points": [
      {
       "co": {
        "X": 1.0,
        "Y": 123.0
       },
       "handle_left": {
        "X": 0.5,
        "Y": 1.0
       },
       "handle_right": {
        "X": 0.5,
        "Y": 0.0
       },
       "handle_type": 0,
       "interpolation": 0
      }
     ]
    },
    "red": {
     "Points": [
      {
       "co": {
        "X": 1.0,
        "Y": 0.0
       },
       "handle_left": {
        "X": 0.5,
        "Y": 1.0
       },
       "handle_right": {
        "X": 0.5,
        "Y": 0.0
       },
       "handle_type": 0,
       "interpolation": 0
      }
     ]
    }
   },
   "waveform": false,
   "file_id": "SQRCZDSQFQ",
   "title": "drawing44.png",
   "image": "Tutorial_assets/thumbnail/SQRCZDSQFQ.png"
  },
  {
   "alpha": {
    "Points": [
     {
      "co": {
       "X": 1.0,
       "Y": 1.0
      },
      "handle_left": {
       "X": 0.5,
       "Y": 1.0
      },
      "handle_right": {
       "X": 0.5,
       "Y": 0.0
      },
      "handle_type": 0,
      "interpolation": 0
     }
    ]
   },
   "anchor": 0,
   "channel_filter": {
    "Points": [
     {
      "co": {
       "X": 1.0,
       "Y": -1.0
      },
      "handle_left": {
       "X": 0.5,
       "Y": 1.0
      },
      "handle_right": {
       "X": 0.5,
       "Y": 0.0
      },
      "handle_type": 0,
      "interpolation": 0
     }
    ]
   },
   "channel_mapping": {
    "Points": [
     {
      "co": {
       "X": 1.0,
       "Y": -1.0
      },
      "handle_left": {
       "X": 0.5,
       "Y": 1.0
      },
      "handle_right": {
       "X": 0.5,
       "Y": 0.0
      },
      "handle_type": 0,
      "interpolation": 0
     }
    ]
   },
   "display": 0,
   "duration": 3600.0,
   "effects": [],
   "end": 6.400864633705904,
   "gravity": 4,
   "has_audio": {
    "Points": [
     {
      "co": {
       "X": 1.0,
       "Y": -1.0
      },
      "handle_left": {
       "X": 0.5,
       "Y": 1.0
      },
      "handle_right": {
       "X": 0.5,
       "Y": 0.0
      },
      "handle_type": 0,
      "interpolation": 0
     }
    ]
   },
   "has_video": {
    "Points": [
     {
      "co": {
       "X": 1.0,
       "Y": -1.0
      },
      "handle_left": {
       "X": 0.5,
       "Y": 1.0
      },
      "handle_right": {
       "X": 0.5,
       "Y": 0.0
      },
      "handle_type": 0,
      "interpolation": 0
     }
    ]
   },
   "id": "82GVSDNT1T",
   "layer": 2000000,
   "location_x": {
    "Points": [
     {
      "co": {
       "X": 1,
       "Y": -0.23339011633111834
      },
      "handle_left": {
       "X": 0.5,
       "Y": 1.0
      },
      "handle_right": {
       "X": 0.5,
       "Y": 0.0
      },
      "handle_type": 0,
      "interpolation": 0
     }
    ]
   },
   "location_y": {
    "Points": [
     {
      "co": {
       "X": 1,
       "Y": -0.08787877857685089
      },
      "handle_left": {
       "X": 0.5,
       "Y": 1.0
      },
      "handle_right": {
       "X": 0.5,
       "Y": 0.0
      },
      "handle_type": 0,
      "interpolation": 0
     }
    ]
   },
   "mixing": 0,
   "origin_x": {
    "Points": [
     {
      "co": {
       "X": 1.0,
       "Y": 0.5
      },
      "handle_left": {
       "X": 0.5,
       "Y": 1.0
      },
      "handle_right": {
       "X": 0.5,
       "Y": 0.0
      },
      "handle_type": 0,
      "interpolation": 0
     }
    ]
   },
   "origin_y": {
    "Points": [
     {
      "co": {
       "X": 1.0,
       "Y": 0.5
      },
      "handle_left": {
       "X": 0.5,
       "Y": 1.0
      },
      "handle_right": {
       "X": 0.5,
       "Y": 0.0
      },
      "handle_type": 0,
      "interpolation": 0
     }
    ]
   },
   "parentObjectId": "",
   "perspective_c1_x": {
    "Points": [
     {
      "co": {
       "X": 1.0,
       "Y": -1.0
      },
      "handle_left": {
       "X": 0.5,
       "Y": 1.0
      },
      "handle_right": {
       "X": 0.5,
       "Y": 0.0
      },
      "handle_type": 0,
      "interpolation": 0
     }
    ]
   },
   "perspective_c1_y": {
    "Points": [
     {
      "co": {
       "X": 1.0,
       "Y": -1.0
      },
      "handle_left": {
       "X": 0.5,
       "Y": 1.0
      },
      "handle_right": {
       "X": 0.5,
       "Y": 0.0
      },
      "handle_type": 0,
      "interpolation": 0
     }
    ]
   },
   "perspective_c2_x": {
    "Points": [
     {
      "co": {
       "X": 1.0,
       "Y": -1.0
      },
      "handle_left": {
       "X": 0.5,
       "Y": 1.0
      },
      "handle_right": {
       "X": 0.5,
       "Y": 0.0
      },
      "handle_type": 0,
      "interpolation": 0
     }
    ]
   },
   "perspective_c2_y": {
    "Points": [
     {
      "co": {
       "X": 1.0,
       "Y": -1.0
      },
      "handle_left": {
       "X": 0.5,
       "Y": 1.0
      },
      "handle_right": {
       "X": 0.5,
       "Y": 0.0
      },
      "handle_type": 0,
      "interpolation": 0
     }
    ]
   },
   "perspective_c3_x": {
    "Points": [
     {
      "co": {
       "X": 1.0,
       "Y": -1.0
      },
      "handle_left": {
       "X": 0.5,
       "Y": 1.0
      },
      "handle_right": {
       "X": 0.5,
       "Y": 0.0
      },
      "handle_type": 0,
      "interpolation": 0
     }
    ]
   },
   "perspective_c3_y": {
    "Points": [
     {
      "co": {
       "X": 1.0,
       "Y": -1.0
      },
      "handle_left": {
       "X": 0.5,
       "Y": 1.0
      },
      "handle_right": {
       "X": 0.5,
       "Y": 0.0
      },
      "handle_type": 0,
      "interpolation": 0
     }
    ]
   },
   "perspective_c4_x": {
    "Points": [
     {
      "co": {
       "X": 1.0,
       "Y": -1.0
      },
      "handle_left": {
       "X": 0.5,
       "Y": 1.0
      },
      "handle_right": {
       "X": 0.5,
       "Y": 0.0
      },
      "handle_type": 0,
      "interpolation": 0
     }
    ]
   },
   "perspective_c4_y": {
    "Points": [
     {
      "co": {
       "X": 1.0,
       "Y": -1.0
      },
      "handle_left": {
       "X": 0.5,
       "Y": 1.0
      },
      "handle_right": {
       "X": 0.5,
       "Y": 0.0
      },
      "handle_type": 0,
      "interpolation": 0
     }
    ]
   },
   "position": 306.8722217659394,
   "reader": {
    "acodec": "",
    "audio_bit_rate": 0,
    "audio_stream_index": -1,
    "audio_timebase": {
     "den": 1,
     "num": 1
    },
    "channel_layout": 4,
    "channels": 0,
    "display_ratio": {
     "den": 625,
     "num": 1909
    },
    "duration": 3600.0,
    "file_size": "4772500",
    "fps": {
     "den": 1,
     "num": 30
    },
    "has_audio": false,
    "has_single_image": true,
    "has_video": true,
    "height": 625,
    "interlaced_frame": false,
    "metadata": {},
    "path": "./drawing45.png",
    "pixel_format": -1,
    "pixel_ratio": {
     "den": 1,
     "num": 1
    },
    "sample_rate": 0,
    "top_field_first": true,
    "type": "QtImageReader",
    "vcodec": "",
    "video_bit_rate": 0,
    "video_length": "108000",
    "video_stream_index": -1,
    "video_timebase": {
     "den": 30,
     "num": 1
    },
    "width": 1909,
    "media_type": "image",
    "id": "JZM21MVCN4"
   },
   "rotation": {
    "Points": [
     {
      "co": {
       "X": 1.0,
       "Y": 0.0
      },
      "handle_left": {
       "X": 0.5,
       "Y": 1.0
      },
      "handle_right": {
       "X": 0.5,
       "Y": 0.0
      },
      "handle_type": 0,
      "interpolation": 0
     }
    ]
   },
   "scale": 1,
   "scale_x": {
    "Points": [
     {
      "co": {
       "X": 1,
       "Y": 0.4463372564600111
      },
      "handle_left": {
       "X": 0.5,
       "Y": 1.0
      },
      "handle_right": {
       "X": 0.5,
       "Y": 0.0
      },
      "handle_type": 0,
      "interpolation": 0
     }
    ]
   },
   "scale_y": {
    "Points": [
     {
      "co": {
       "X": 1,
       "Y": 0.4463372564600111
      },
      "handle_left": {
       "X": 0.5,
       "Y": 1.0
      },
      "handle_right": {
       "X": 0.5,
       "Y": 0.0
      },
      "handle_type": 0,
      "interpolation": 0
     }
    ]
   },
   "shear_x": {
    "Points": [
     {
      "co": {
       "X": 1.0,
       "Y": 0.0
      },
      "handle_left": {
       "X": 0.5,
       "Y": 1.0
      },
      "handle_right": {
       "X": 0.5,
       "Y": 0.0
      },
      "handle_type": 0,
      "interpolation": 0
     }
    ]
   },
   "shear_y": {
    "Points": [
     {
      "co": {
       "X": 1.0,
       "Y": 0.0
      },
      "handle_left": {
       "X": 0.5,
       "Y": 1.0
      },
      "handle_right": {
       "X": 0.5,
       "Y": 0.0
      },
      "handle_type": 0,
      "interpolation": 0
     }
    ]
   },
   "start": 0,
   "time": {
    "Points": [
     {
      "co": {
       "X": 1.0,
       "Y": 1.0
      },
      "handle_left": {
       "X": 0.5,
       "Y": 1.0
      },
      "handle_right": {
       "X": 0.5,
       "Y": 0.0
      },
      "handle_type": 0,
      "interpolation": 0
     }
    ]
   },
   "volume": {
    "Points": [
     {
      "co": {
       "X": 1.0,
       "Y": 1.0
      },
      "handle_left": {
       "X": 0.5,
       "Y": 1.0
      },
      "handle_right": {
       "X": 0.5,
       "Y": 0.0
      },
      "handle_type": 0,
      "interpolation": 0
     }
    ]
   },
   "wave_color": {
    "alpha": {
     "Points": [
      {
       "co": {
        "X": 1.0,
        "Y": 255.0
       },
       "handle_left": {
        "X": 0.5,
        "Y": 1.0
       },
       "handle_right": {
        "X": 0.5,
        "Y": 0.0
       },
       "handle_type": 0,
       "interpolation": 0
      }
     ]
    },
    "blue": {
     "Points": [
      {
       "co": {
        "X": 1.0,
        "Y": 255.0
       },
       "handle_left": {
        "X": 0.5,
        "Y": 1.0
       },
       "handle_right": {
        "X": 0.5,
        "Y": 0.0
       },
       "handle_type": 0,
       "interpolation": 0
      }
     ]
    },
    "green": {
     "Points": [
      {
       "co": {
        "X": 1.0,
        "Y": 123.0
       },
       "handle_left": {
        "X": 0.5,
        "Y": 1.0
       },
       "handle_right": {
        "X": 0.5,
        "Y": 0.0
       },
       "handle_type": 0,
       "interpolation": 0
      }
     ]
    },
    "red": {
     "Points": [
      {
       "co": {
        "X": 1.0,
        "Y": 0.0
       },
       "handle_left": {
        "X": 0.5,
        "Y": 1.0
       },
       "handle_right": {
        "X": 0.5,
        "Y": 0.0
       },
       "handle_type": 0,
       "interpolation": 0
      }
     ]
    }
   },
   "waveform": false,
   "file_id": "JZM21MVCN4",
   "title": "drawing45.png",
   "image": "Tutorial_assets/thumbnail/JZM21MVCN4.png"
  },
  {
   "alpha": {
    "Points": [
     {
      "co": {
       "X": 1.0,
       "Y": 1.0
      },
      "handle_left": {
       "X": 0.5,
       "Y": 1.0
      },
      "handle_right": {
       "X": 0.5,
       "Y": 0.0
      },
      "handle_type": 0,
      "interpolation": 0
     }
    ]
   },
   "anchor": 0,
   "channel_filter": {
    "Points": [
     {
      "co": {
       "X": 1.0,
       "Y": -1.0
      },
      "handle_left": {
       "X": 0.5,
       "Y": 1.0
      },
      "handle_right": {
       "X": 0.5,
       "Y": 0.0
      },
      "handle_type": 0,
      "interpolation": 0
     }
    ]
   },
   "channel_mapping": {
    "Points": [
     {
      "co": {
       "X": 1.0,
       "Y": -1.0
      },
      "handle_left": {
       "X": 0.5,
       "Y": 1.0
      },
      "handle_right": {
       "X": 0.5,
       "Y": 0.0
      },
      "handle_type": 0,
      "interpolation": 0
     }
    ]
   },
   "display": 0,
   "duration": 3600.0,
   "effects": [],
   "end": 11.386153434957627,
   "gravity": 4,
   "has_audio": {
    "Points": [
     {
      "co": {
       "X": 1.0,
       "Y": -1.0
      },
      "handle_left": {
       "X": 0.5,
       "Y": 1.0
      },
      "handle_right": {
       "X": 0.5,
       "Y": 0.0
      },
      "handle_type": 0,
      "interpolation": 0
     }
    ]
   },
   "has_video": {
    "Points": [
     {
      "co": {
       "X": 1.0,
       "Y": -1.0
      },
      "handle_left": {
       "X": 0.5,
       "Y": 1.0
      },
      "handle_right": {
       "X": 0.5,
       "Y": 0.0
      },
      "handle_type": 0,
      "interpolation": 0
     }
    ]
   },
   "id": "4H8K9FF8A9",
   "layer": 3000000,
   "location_x": {
    "Points": [
     {
      "co": {
       "X": 1,
       "Y": -0.2776831302671254
      },
      "handle_left": {
       "X": 0.5,
       "Y": 1.0
      },
      "handle_right": {
       "X": 0.5,
       "Y": 0.0
      },
      "handle_type": 0,
      "interpolation": 0
     }
    ]
   },
   "location_y": {
    "Points": [
     {
      "co": {
       "X": 1,
       "Y": -0.3333333134651184
      },
      "handle_left": {
       "X": 0.5,
       "Y": 1.0
      },
      "handle_right": {
       "X": 0.5,
       "Y": 0.0
      },
      "handle_type": 0,
      "interpolation": 0
     }
    ]
   },
   "mixing": 0,
   "origin_x": {
    "Points": [
     {
      "co": {
       "X": 1.0,
       "Y": 0.5
      },
      "handle_left": {
       "X": 0.5,
       "Y": 1.0
      },
      "handle_right": {
       "X": 0.5,
       "Y": 0.0
      },
      "handle_type": 0,
      "interpolation": 0
     }
    ]
   },
   "origin_y": {
    "Points": [
     {
      "co": {
       "X": 1.0,
       "Y": 0.5
      },
      "handle_left": {
       "X": 0.5,
       "Y": 1.0
      },
      "handle_right": {
       "X": 0.5,
       "Y": 0.0
      },
      "handle_type": 0,
      "interpolation": 0
     }
    ]
   },
   "parentObjectId": "",
   "perspective_c1_x": {
    "Points": [
     {
      "co": {
       "X": 1.0,
       "Y": -1.0
      },
      "handle_left": {
       "X": 0.5,
       "Y": 1.0
      },
      "handle_right": {
       "X": 0.5,
       "Y": 0.0
      },
      "handle_type": 0,
      "interpolation": 0
     }
    ]
   },
   "perspective_c1_y": {
    "Points": [
     {
      "co": {
       "X": 1.0,
       "Y": -1.0
      },
      "handle_left": {
       "X": 0.5,
       "Y": 1.0
      },
      "handle_right": {
       "X": 0.5,
       "Y": 0.0
      },
      "handle_type": 0,
      "interpolation": 0
     }
    ]
   },
   "perspective_c2_x": {
    "Points": [
     {
      "co": {
       "X": 1.0,
       "Y": -1.0
      },
      "handle_left": {
       "X": 0.5,
       "Y": 1.0
      },
      "handle_right": {
       "X": 0.5,
       "Y": 0.0
      },
      "handle_type": 0,
      "interpolation": 0
     }
    ]
   },
   "perspective_c2_y": {
    "Points": [
     {
      "co": {
       "X": 1.0,
       "Y": -1.0
      },
      "handle_left": {
       "X": 0.5,
       "Y": 1.0
      },
      "handle_right": {
       "X": 0.5,
       "Y": 0.0
      },
      "handle_type": 0,
      "interpolation": 0
     }
    ]
   },
   "perspective_c3_x": {
    "Points": [
     {
      "co": {
       "X": 1.0,
       "Y": -1.0
      },
      "handle_left": {
       "X": 0.5,
       "Y": 1.0
      },
      "handle_right": {
       "X": 0.5,
       "Y": 0.0
      },
      "handle_type": 0,
      "interpolation": 0
     }
    ]
   },
   "perspective_c3_y": {
    "Points": [
     {
      "co": {
       "X": 1.0,
       "Y": -1.0
      },
      "handle_left": {
       "X": 0.5,
       "Y": 1.0
      },
      "handle_right": {
       "X": 0.5,
       "Y": 0.0
      },
      "handle_type": 0,
      "interpolation": 0
     }
    ]
   },
   "perspective_c4_x": {
    "Points": [
     {
      "co": {
       "X": 1.0,
       "Y": -1.0
      },
      "handle_left": {
       "X": 0.5,
       "Y": 1.0
      },
      "handle_right": {
       "X": 0.5,
       "Y": 0.0
      },
      "handle_type": 0,
      "interpolation": 0
     }
    ]
   },
   "perspective_c4_y": {
    "Points": [
     {
      "co": {
       "X": 1.0,
       "Y": -1.0
      },
      "handle_left": {
       "X": 0.5,
       "Y": 1.0
      },
      "handle_right": {
       "X": 0.5,
       "Y": 0.0
      },
      "handle_type": 0,
      "interpolation": 0
     }
    ]
   },
   "position": 331.9217593228462,
   "reader": {
    "acodec": "",
    "audio_bit_rate": 0,
    "audio_stream_index": -1,
    "audio_timebase": {
     "den": 1,
     "num": 1
    },
    "channel_layout": 4,
    "channels": 0,
    "display_ratio": {
     "den": 529,
     "num": 1569
    },
    "duration": 3600.0,
    "file_size": "3320004",
    "fps": {
     "den": 1,
     "num": 30
    },
    "has_audio": false,
    "has_single_image": true,
    "has_video": true,
    "height": 529,
    "interlaced_frame": false,
    "metadata": {},
    "path": "./drawing46.png",
    "pixel_format": -1,
    "pixel_ratio": {
     "den": 1,
     "num": 1
    },
    "sample_rate": 0,
    "top_field_first": true,
    "type": "QtImageReader",
    "vcodec": "",
    "video_bit_rate": 0,
    "video_length": "108000",
    "video_stream_index": -1,
    "video_timebase": {
     "den": 30,
     "num": 1
    },
    "width": 1569,
    "media_type": "image",
    "id": "UGIK5GWBC6"
   },
   "rotation": {
    "Points": [
     {
      "co": {
       "X": 1.0,
       "Y": 0.0
      },
      "handle_left": {
       "X": 0.5,
       "Y": 1.0
      },
      "handle_right": {
       "X": 0.5,
       "Y": 0.0
      },
      "handle_type": 0,
      "interpolation": 0
     }
    ]
   },
   "scale": 1,
   "scale_x": {
    "Points": [
     {
      "co": {
       "X": 1,
       "Y": 0.37478701544376614
      },
      "handle_left": {
       "X": 0.5,
       "Y": 1.0
      },
      "handle_right": {
       "X": 0.5,
       "Y": 0.0
      },
      "handle_type": 0,
      "interpolation": 0
     }
    ]
   },
   "scale_y": {
    "Points": [
     {
      "co": {
       "X": 1,
       "Y": 0.37478701544376614
      },
      "handle_left": {
       "X": 0.5,
       "Y": 1.0
      },
      "handle_right": {
       "X": 0.5,
       "Y": 0.0
      },
      "handle_type": 0,
      "interpolation": 0
     }
    ]
   },
   "shear_x": {
    "Points": [
     {
      "co": {
       "X": 1.0,
       "Y": 0.0
      },
      "handle_left": {
       "X": 0.5,
       "Y": 1.0
      },
      "handle_right": {
       "X": 0.5,
       "Y": 0.0
      },
      "handle_type": 0,
      "interpolation": 0
     }
    ]
   },
   "shear_y": {
    "Points": [
     {
      "co": {
       "X": 1.0,
       "Y": 0.0
      },
      "handle_left": {
       "X": 0.5,
       "Y": 1.0
      },
      "handle_right": {
       "X": 0.5,
       "Y": 0.0
      },
      "handle_type": 0,
      "interpolation": 0
     }
    ]
   },
   "start": 0,
   "time": {
    "Points": [
     {
      "co": {
       "X": 1.0,
       "Y": 1.0
      },
      "handle_left": {
       "X": 0.5,
       "Y": 1.0
      },
      "handle_right": {
       "X": 0.5,
       "Y": 0.0
      },
      "handle_type": 0,
      "interpolation": 0
     }
    ]
   },
   "volume": {
    "Points": [
     {
      "co": {
       "X": 1.0,
       "Y": 1.0
      },
      "handle_left": {
       "X": 0.5,
       "Y": 1.0
      },
      "handle_right": {
       "X": 0.5,
       "Y": 0.0
      },
      "handle_type": 0,
      "interpolation": 0
     }
    ]
   },
   "wave_color": {
    "alpha": {
     "Points": [
      {
       "co": {
        "X": 1.0,
        "Y": 255.0
       },
       "handle_left": {
        "X": 0.5,
        "Y": 1.0
       },
       "handle_right": {
        "X": 0.5,
        "Y": 0.0
       },
       "handle_type": 0,
       "interpolation": 0
      }
     ]
    },
    "blue": {
     "Points": [
      {
       "co": {
        "X": 1.0,
        "Y": 255.0
       },
       "handle_left": {
        "X": 0.5,
        "Y": 1.0
       },
       "handle_right": {
        "X": 0.5,
        "Y": 0.0
       },
       "handle_type": 0,
       "interpolation": 0
      }
     ]
    },
    "green": {
     "Points": [
      {
       "co": {
        "X": 1.0,
        "Y": 123.0
       },
       "handle_left": {
        "X": 0.5,
        "Y": 1.0
       },
       "handle_right": {
        "X": 0.5,
        "Y": 0.0
       },
       "handle_type": 0,
       "interpolation": 0
      }
     ]
    },
    "red": {
     "Points": [
      {
       "co": {
        "X": 1.0,
        "Y": 0.0
       },
       "handle_left": {
        "X": 0.5,
        "Y": 1.0
       },
       "handle_right": {
        "X": 0.5,
        "Y": 0.0
       },
       "handle_type": 0,
       "interpolation": 0
      }
     ]
    }
   },
   "waveform": false,
   "file_id": "UGIK5GWBC6",
   "title": "drawing46.png",
   "image": "Tutorial_assets/thumbnail/UGIK5GWBC6.png"
  },
  {
   "alpha": {
    "Points": [
     {
      "co": {
       "X": 1.0,
       "Y": 1.0
      },
      "handle_left": {
       "X": 0.5,
       "Y": 1.0
      },
      "handle_right": {
       "X": 0.5,
       "Y": 0.0
      },
      "handle_type": 0,
      "interpolation": 0
     }
    ]
   },
   "anchor": 0,
   "channel_filter": {
    "Points": [
     {
      "co": {
       "X": 1.0,
       "Y": -1.0
      },
      "handle_left": {
       "X": 0.5,
       "Y": 1.0
      },
      "handle_right": {
       "X": 0.5,
       "Y": 0.0
      },
      "handle_type": 0,
      "interpolation": 0
     }
    ]
   },
   "channel_mapping": {
    "Points": [
     {
      "co": {
       "X": 1.0,
       "Y": -1.0
      },
      "handle_left": {
       "X": 0.5,
       "Y": 1.0
      },
      "handle_right": {
       "X": 0.5,
       "Y": 0.0
      },
      "handle_type": 0,
      "interpolation": 0
     }
    ]
   },
   "display": 0,
   "duration": 3600.0,
   "effects": [],
   "end": 6.400864633705904,
   "gravity": 4,
   "has_audio": {
    "Points": [
     {
      "co": {
       "X": 1.0,
       "Y": -1.0
      },
      "handle_left": {
       "X": 0.5,
       "Y": 1.0
      },
      "handle_right": {
       "X": 0.5,
       "Y": 0.0
      },
      "handle_type": 0,
      "interpolation": 0
     }
    ]
   },
   "has_video": {
    "Points": [
     {
      "co": {
       "X": 1.0,
       "Y": -1.0
      },
      "handle_left": {
       "X": 0.5,
       "Y": 1.0
      },
      "handle_right": {
       "X": 0.5,
       "Y": 0.0
      },
      "handle_type": 0,
      "interpolation": 0
     }
    ]
   },
   "id": "TSU6B7W02P",
   "layer": 2000000,
   "location_x": {
    "Points": [
     {
      "co": {
       "X": 1,
       "Y": -0.30068137835603354
      },
      "handle_left": {
       "X": 0.5,
       "Y": 1.0
      },
      "handle_right": {
       "X": 0.5,
       "Y": 0.0
      },
      "handle_type": 0,
      "interpolation": 0
     }
    ]
   },
   "location_y": {
    "Points": [
     {
      "co": {
       "X": 1,
       "Y": -0.0833333283662796
      },
      "handle_left": {
       "X": 0.5,
       "Y": 1.0
      },
      "handle_right": {
       "X": 0.5,
       "Y": 0.0
      },
      "handle_type": 0,
      "interpolation": 0
     }
    ]
   },
   "mixing": 0,
   "origin_x": {
    "Points": [
     {
      "co": {
       "X": 1.0,
       "Y": 0.5
      },
      "handle_left": {
       "X": 0.5,
       "Y": 1.0
      },
      "handle_right": {
       "X": 0.5,
       "Y": 0.0
      },
      "handle_type": 0,
      "interpolation": 0
     }
    ]
   },
   "origin_y": {
    "Points": [
     {
      "co": {
       "X": 1.0,
       "Y": 0.5
      },
      "handle_left": {
       "X": 0.5,
       "Y": 1.0
      },
      "handle_right": {
       "X": 0.5,
       "Y": 0.0
      },
      "handle_type": 0,
      "interpolation": 0
     }
    ]
   },
   "parentObjectId": "",
   "perspective_c1_x": {
    "Points": [
     {
      "co": {
       "X": 1.0,
       "Y": -1.0
      },
      "handle_left": {
       "X": 0.5,
       "Y": 1.0
      },
      "handle_right": {
       "X": 0.5,
       "Y": 0.0
      },
      "handle_type": 0,
      "interpolation": 0
     }
    ]
   },
   "perspective_c1_y": {
    "Points": [
     {
      "co": {
       "X": 1.0,
       "Y": -1.0
      },
      "handle_left": {
       "X": 0.5,
       "Y": 1.0
      },
      "handle_right": {
       "X": 0.5,
       "Y": 0.0
      },
      "handle_type": 0,
      "interpolation": 0
     }
    ]
   },
   "perspective_c2_x": {
    "Points": [
     {
      "co": {
       "X": 1.0,
       "Y": -1.0
      },
      "handle_left": {
       "X": 0.5,
       "Y": 1.0
      },
      "handle_right": {
       "X": 0.5,
       "Y": 0.0
      },
      "handle_type": 0,
      "interpolation": 0
     }
    ]
   },
   "perspective_c2_y": {
    "Points": [
     {
      "co": {
       "X": 1.0,
       "Y": -1.0
      },
      "handle_left": {
       "X": 0.5,
       "Y": 1.0
      },
      "handle_right": {
       "X": 0.5,
       "Y": 0.0
      },
      "handle_type": 0,
      "interpolation": 0
     }
    ]
   },
   "perspective_c3_x": {
    "Points": [
     {
      "co": {
       "X": 1.0,
       "Y": -1.0
      },
      "handle_left": {
       "X": 0.5,
       "Y": 1.0
      },
      "handle_right": {
       "X": 0.5,
       "Y": 0.0
      },
      "handle_type": 0,
      "interpolation": 0
     }
    ]
   },
   "perspective_c3_y": {
    "Points": [
     {
      "co": {
       "X": 1.0,
       "Y": -1.0
      },
      "handle_left": {
       "X": 0.5,
       "Y": 1.0
      },
      "handle_right": {
       "X": 0.5,
       "Y": 0.0
      },
      "handle_type": 0,
      "interpolation": 0
     }
    ]
   },
   "perspective_c4_x": {
    "Points": [
     {
      "co": {
       "X": 1.0,
       "Y": -1.0
      },
      "handle_left": {
       "X": 0.5,
       "Y": 1.0
      },
      "handle_right": {
       "X": 0.5,
       "Y": 0.0
      },
      "handle_type": 0,
      "interpolation": 0
     }
    ]
   },
   "perspective_c4_y": {
    "Points": [
     {
      "co": {
       "X": 1.0,
       "Y": -1.0
      },
      "handle_left": {
       "X": 0.5,
       "Y": 1.0
      },
      "handle_right": {
       "X": 0.5,
       "Y": 0.0
      },
      "handle_type": 0,
      "interpolation": 0
     }
    ]
   },
   "position": 334.07589645918955,
   "reader": {
    "acodec": "",
    "audio_bit_rate": 0,
    "audio_stream_index": -1,
    "audio_timebase": {
     "den": 1,
     "num": 1
    },
    "channel_layout": 4,
    "channels": 0,
    "display_ratio": {
     "den": 157,
     "num": 401
    },
    "duration": 3600.0,
    "file_size": "4029248",
    "fps": {
     "den": 1,
     "num": 30
    },
    "has_audio": false,
    "has_single_image": true,
    "has_video": true,
    "height": 628,
    "interlaced_frame": false,
    "metadata": {},
    "path": "./drawing47.png",
    "pixel_format": -1,
    "pixel_ratio": {
     "den": 1,
     "num": 1
    },
    "sample_rate": 0,
    "top_field_first": true,
    "type": "QtImageReader",
    "vcodec": "",
    "video_bit_rate": 0,
    "video_length": "108000",
    "video_stream_index": -1,
    "video_timebase": {
     "den": 30,
     "num": 1
    },
    "width": 1604,
    "media_type": "image",
    "id": "09VGX5JHKF"
   },
   "rotation": {
    "Points": [
     {
      "co": {
       "X": 1.0,
       "Y": 0.0
      },
      "handle_left": {
       "X": 0.5,
       "Y": 1.0
      },
      "handle_right": {
       "X": 0.5,
       "Y": 0.0
      },
      "handle_type": 0,
      "interpolation": 0
     }
    ]
   },
   "scale": 1,
   "scale_x": {
    "Points": [
     {
      "co": {
       "X": 1,
       "Y": 0.32879040097053047
      },
      "handle_left": {
       "X": 0.5,
       "Y": 1.0
      },
      "handle_right": {
       "X": 0.5,
       "Y": 0.0
      },
      "handle_type": 0,
      "interpolation": 0
     }
    ]
   },
   "scale_y": {
    "Points": [
     {
      "co": {
       "X": 1,
       "Y": 0.32879040097053047
      },
      "handle_left": {
       "X": 0.5,
       "Y": 1.0
      },
      "handle_right": {
       "X": 0.5,
       "Y": 0.0
      },
      "handle_type": 0,
      "interpolation": 0
     }
    ]
   },
   "shear_x": {
    "Points": [
     {
      "co": {
       "X": 1.0,
       "Y": 0.0
      },
      "handle_left": {
       "X": 0.5,
       "Y": 1.0
      },
      "handle_right": {
       "X": 0.5,
       "Y": 0.0
      },
      "handle_type": 0,
      "interpolation": 0
     }
    ]
   },
   "shear_y": {
    "Points": [
     {
      "co": {
       "X": 1.0,
       "Y": 0.0
      },
      "handle_left": {
       "X": 0.5,
       "Y": 1.0
      },
      "handle_right": {
       "X": 0.5,
       "Y": 0.0
      },
      "handle_type": 0,
      "interpolation": 0
     }
    ]
   },
   "start": 0,
   "time": {
    "Points": [
     {
      "co": {
       "X": 1.0,
       "Y": 1.0
      },
      "handle_left": {
       "X": 0.5,
       "Y": 1.0
      },
      "handle_right": {
       "X": 0.5,
       "Y": 0.0
      },
      "handle_type": 0,
      "interpolation": 0
     }
    ]
   },
   "volume": {
    "Points": [
     {
      "co": {
       "X": 1.0,
       "Y": 1.0
      },
      "handle_left": {
       "X": 0.5,
       "Y": 1.0
      },
      "handle_right": {
       "X": 0.5,
       "Y": 0.0
      },
      "handle_type": 0,
      "interpolation": 0
     }
    ]
   },
   "wave_color": {
    "alpha": {
     "Points": [
      {
       "co": {
        "X": 1.0,
        "Y": 255.0
       },
       "handle_left": {
        "X": 0.5,
        "Y": 1.0
       },
       "handle_right": {
        "X": 0.5,
        "Y": 0.0
       },
       "handle_type": 0,
       "interpolation": 0
      }
     ]
    },
    "blue": {
     "Points": [
      {
       "co": {
        "X": 1.0,
        "Y": 255.0
       },
       "handle_left": {
        "X": 0.5,
        "Y": 1.0
       },
       "handle_right": {
        "X": 0.5,
        "Y": 0.0
       },
       "handle_type": 0,
       "interpolation": 0
      }
     ]
    },
    "green": {
     "Points": [
      {
       "co": {
        "X": 1.0,
        "Y": 123.0
       },
       "handle_left": {
        "X": 0.5,
        "Y": 1.0
       },
       "handle_right": {
        "X": 0.5,
        "Y": 0.0
       },
       "handle_type": 0,
       "interpolation": 0
      }
     ]
    },
    "red": {
     "Points": [
      {
       "co": {
        "X": 1.0,
        "Y": 0.0
       },
       "handle_left": {
        "X": 0.5,
        "Y": 1.0
       },
       "handle_right": {
        "X": 0.5,
        "Y": 0.0
       },
       "handle_type": 0,
       "interpolation": 0
      }
     ]
    }
   },
   "waveform": false,
   "file_id": "09VGX5JHKF",
   "title": "drawing47.png",
   "image": "Tutorial_assets/thumbnail/09VGX5JHKF.png"
  },
  {
   "alpha": {
    "Points": [
     {
      "co": {
       "X": 1.0,
       "Y": 1.0
      },
      "handle_left": {
       "X": 0.5,
       "Y": 1.0
      },
      "handle_right": {
       "X": 0.5,
       "Y": 0.0
      },
      "handle_type": 0,
      "interpolation": 0
     }
    ]
   },
   "anchor": 0,
   "channel_filter": {
    "Points": [
     {
      "co": {
       "X": 1.0,
       "Y": -1.0
      },
      "handle_left": {
       "X": 0.5,
       "Y": 1.0
      },
      "handle_right": {
       "X": 0.5,
       "Y": 0.0
      },
      "handle_type": 0,
      "interpolation": 0
     }
    ]
   },
   "channel_mapping": {
    "Points": [
     {
      "co": {
       "X": 1.0,
       "Y": -1.0
      },
      "handle_left": {
       "X": 0.5,
       "Y": 1.0
      },
      "handle_right": {
       "X": 0.5,
       "Y": 0.0
      },
      "handle_type": 0,
      "interpolation": 0
     }
    ]
   },
   "display": 0,
   "duration": 37.93330001831055,
   "effects": [],
   "end": 32.72186397327994,
   "gravity": 4,
   "has_audio": {
    "Points": [
     {
      "co": {
       "X": 1.0,
       "Y": -1.0
      },
      "handle_left": {
       "X": 0.5,
       "Y": 1.0
      },
      "handle_right": {
       "X": 0.5,
       "Y": 0.0
      },
      "handle_type": 0,
      "interpolation": 0
     }
    ]
   },
   "has_video": {
    "Points": [
     {
      "co": {
       "X": 1.0,
       "Y": -1.0
      },
      "handle_left": {
       "X": 0.5,
       "Y": 1.0
      },
      "handle_right": {
       "X": 0.5,
       "Y": 0.0
      },
      "handle_type": 0,
      "interpolation": 0
     }
    ]
   },
   "id": "O8LBNTUT84",
   "layer": 1000000,
   "location_x": {
    "Points": [
     {
      "co": {
       "X": 1.0,
       "Y": 0.0
      },
      "handle_left": {
       "X": 0.5,
       "Y": 1.0
      },
      "handle_right": {
       "X": 0.5,
       "Y": 0.0
      },
      "handle_type": 0,
      "interpolation": 0
     }
    ]
   },
   "location_y": {
    "Points": [
     {
      "co": {
       "X": 1.0,
       "Y": 0.0
      },
      "handle_left": {
       "X": 0.5,
       "Y": 1.0
      },
      "handle_right": {
       "X": 0.5,
       "Y": 0.0
      },
      "handle_type": 0,
      "interpolation": 0
     }
    ]
   },
   "mixing": 0,
   "origin_x": {
    "Points": [
     {
      "co": {
       "X": 1.0,
       "Y": 0.5
      },
      "handle_left": {
       "X": 0.5,
       "Y": 1.0
      },
      "handle_right": {
       "X": 0.5,
       "Y": 0.0
      },
      "handle_type": 0,
      "interpolation": 0
     }
    ]
   },
   "origin_y": {
    "Points": [
     {
      "co": {
       "X": 1.0,
       "Y": 0.5
      },
      "handle_left": {
       "X": 0.5,
       "Y": 1.0
      },
      "handle_right": {
       "X": 0.5,
       "Y": 0.0
      },
      "handle_type": 0,
      "interpolation": 0
     }
    ]
   },
   "parentObjectId": "",
   "perspective_c1_x": {
    "Points": [
     {
      "co": {
       "X": 1.0,
       "Y": -1.0
      },
      "handle_left": {
       "X": 0.5,
       "Y": 1.0
      },
      "handle_right": {
       "X": 0.5,
       "Y": 0.0
      },
      "handle_type": 0,
      "interpolation": 0
     }
    ]
   },
   "perspective_c1_y": {
    "Points": [
     {
      "co": {
       "X": 1.0,
       "Y": -1.0
      },
      "handle_left": {
       "X": 0.5,
       "Y": 1.0
      },
      "handle_right": {
       "X": 0.5,
       "Y": 0.0
      },
      "handle_type": 0,
      "interpolation": 0
     }
    ]
   },
   "perspective_c2_x": {
    "Points": [
     {
      "co": {
       "X": 1.0,
       "Y": -1.0
      },
      "handle_left": {
       "X": 0.5,
       "Y": 1.0
      },
      "handle_right": {
       "X": 0.5,
       "Y": 0.0
      },
      "handle_type": 0,
      "interpolation": 0
     }
    ]
   },
   "perspective_c2_y": {
    "Points": [
     {
      "co": {
       "X": 1.0,
       "Y": -1.0
      },
      "handle_left": {
       "X": 0.5,
       "Y": 1.0
      },
      "handle_right": {
       "X": 0.5,
       "Y": 0.0
      },
      "handle_type": 0,
      "interpolation": 0
     }
    ]
   },
   "perspective_c3_x": {
    "Points": [
     {
      "co": {
       "X": 1.0,
       "Y": -1.0
      },
      "handle_left": {
       "X": 0.5,
       "Y": 1.0
      },
      "handle_right": {
       "X": 0.5,
       "Y": 0.0
      },
      "handle_type": 0,
      "interpolation": 0
     }
    ]
   },
   "perspective_c3_y": {
    "Points": [
     {
      "co": {
       "X": 1.0,
       "Y": -1.0
      },
      "handle_left": {
       "X": 0.5,
       "Y": 1.0
      },
      "handle_right": {
       "X": 0.5,
       "Y": 0.0
      },
      "handle_type": 0,
      "interpolation": 0
     }
    ]
   },
   "perspective_c4_x": {
    "Points": [
     {
      "co": {
       "X": 1.0,
       "Y": -1.0
      },
      "handle_left": {
       "X": 0.5,
       "Y": 1.0
      },
      "handle_right": {
       "X": 0.5,
       "Y": 0.0
      },
      "handle_type": 0,
      "interpolation": 0
     }
    ]
   },
   "perspective_c4_y": {
    "Points": [
     {
      "co": {
       "X": 1.0,
       "Y": -1.0
      },
      "handle_left": {
       "X": 0.5,
       "Y": 1.0
      },
      "handle_right": {
       "X": 0.5,
       "Y": 0.0
      },
      "handle_type": 0,
      "interpolation": 0
     }
    ]
   },
   "position": 352.26666666666665,
   "reader": {
    "acodec": "",
    "audio_bit_rate": 0,
    "audio_stream_index": -1,
    "audio_timebase": {
     "den": 1,
     "num": 1
    },
    "channel_layout": 4,
    "channels": 0,
    "display_ratio": {
     "den": 9,
     "num": 16
    },
    "duration": 37.93330001831055,
    "file_size": "25226659",
    "fps": {
     "den": 1,
     "num": 30
    },
    "has_audio": false,
    "has_single_image": false,
    "has_video": true,
    "height": 1080,
    "interlaced_frame": false,
    "metadata": {
     "compatible_brands": "mp41isom",
     "creation_time": "2024-05-23T17:59:24.000000Z",
     "encoder": "AVC Coding",
     "handler_name": "VideoHandler",
     "language": "und",
     "major_brand": "mp42",
     "minor_version": "0"
    },
    "path": "./Movie_008.mp4",
    "pixel_format": 0,
    "pixel_ratio": {
     "den": 1,
     "num": 1
    },
    "sample_rate": 0,
    "top_field_first": true,
    "type": "FFmpegReader",
    "vcodec": "h264",
    "video_bit_rate": 665026,
    "video_length": "1138",
    "video_stream_index": 0,
    "video_timebase": {
     "den": 30000,
     "num": 1
    },
    "width": 1920,
    "media_type": "video",
    "id": "KVLMCK9YI0"
   },
   "rotation": {
    "Points": [
     {
      "co": {
       "X": 1.0,
       "Y": 0.0
      },
      "handle_left": {
       "X": 0.5,
       "Y": 1.0
      },
      "handle_right": {
       "X": 0.5,
       "Y": 0.0
      },
      "handle_type": 0,
      "interpolation": 0
     }
    ]
   },
   "scale": 1,
   "scale_x": {
    "Points": [
     {
      "co": {
       "X": 1.0,
       "Y": 1.0
      },
      "handle_left": {
       "X": 0.5,
       "Y": 1.0
      },
      "handle_right": {
       "X": 0.5,
       "Y": 0.0
      },
      "handle_type": 0,
      "interpolation": 0
     }
    ]
   },
   "scale_y": {
    "Points": [
     {
      "co": {
       "X": 1.0,
       "Y": 1.0
      },
      "handle_left": {
       "X": 0.5,
       "Y": 1.0
      },
      "handle_right": {
       "X": 0.5,
       "Y": 0.0
      },
      "handle_type": 0,
      "interpolation": 0
     }
    ]
   },
   "shear_x": {
    "Points": [
     {
      "co": {
       "X": 1.0,
       "Y": 0.0
      },
      "handle_left": {
       "X": 0.5,
       "Y": 1.0
      },
      "handle_right": {
       "X": 0.5,
       "Y": 0.0
      },
      "handle_type": 0,
      "interpolation": 0
     }
    ]
   },
   "shear_y": {
    "Points": [
     {
      "co": {
       "X": 1.0,
       "Y": 0.0
      },
      "handle_left": {
       "X": 0.5,
       "Y": 1.0
      },
      "handle_right": {
       "X": 0.5,
       "Y": 0.0
      },
      "handle_type": 0,
      "interpolation": 0
     }
    ]
   },
   "start": 18.033333333333303,
   "time": {
    "Points": [
     {
      "co": {
       "X": 1.0,
       "Y": 1.0
      },
      "handle_left": {
       "X": 0.5,
       "Y": 1.0
      },
      "handle_right": {
       "X": 0.5,
       "Y": 0.0
      },
      "handle_type": 0,
      "interpolation": 0
     }
    ]
   },
   "volume": {
    "Points": [
     {
      "co": {
       "X": 1.0,
       "Y": 1.0
      },
      "handle_left": {
       "X": 0.5,
       "Y": 1.0
      },
      "handle_right": {
       "X": 0.5,
       "Y": 0.0
      },
      "handle_type": 0,
      "interpolation": 0
     }
    ]
   },
   "wave_color": {
    "alpha": {
     "Points": [
      {
       "co": {
        "X": 1.0,
        "Y": 255.0
       },
       "handle_left": {
        "X": 0.5,
        "Y": 1.0
       },
       "handle_right": {
        "X": 0.5,
        "Y": 0.0
       },
       "handle_type": 0,
       "interpolation": 0
      }
     ]
    },
    "blue": {
     "Points": [
      {
       "co": {
        "X": 1.0,
        "Y": 255.0
       },
       "handle_left": {
        "X": 0.5,
        "Y": 1.0
       },
       "handle_right": {
        "X": 0.5,
        "Y": 0.0
       },
       "handle_type": 0,
       "interpolation": 0
      }
     ]
    },
    "green": {
     "Points": [
      {
       "co": {
        "X": 1.0,
        "Y": 123.0
       },
       "handle_left": {
        "X": 0.5,
        "Y": 1.0
       },
       "handle_right": {
        "X": 0.5,
        "Y": 0.0
       },
       "handle_type": 0,
       "interpolation": 0
      }
     ]
    },
    "red": {
     "Points": [
      {
       "co": {
        "X": 1.0,
        "Y": 0.0
       },
       "handle_left": {
        "X": 0.5,
        "Y": 1.0
       },
       "handle_right": {
        "X": 0.5,
        "Y": 0.0
       },
       "handle_type": 0,
       "interpolation": 0
      }
     ]
    }
   },
   "waveform": false,
   "file_id": "KVLMCK9YI0",
   "title": "Movie_008.mp4",
   "image": "Tutorial_assets/thumbnail/KVLMCK9YI0.png"
  },
  {
   "alpha": {
    "Points": [
     {
      "co": {
       "X": 1.0,
       "Y": 1.0
      },
      "handle_left": {
       "X": 0.5,
       "Y": 1.0
      },
      "handle_right": {
       "X": 0.5,
       "Y": 0.0
      },
      "handle_type": 0,
      "interpolation": 0
     }
    ]
   },
   "anchor": 0,
   "channel_filter": {
    "Points": [
     {
      "co": {
       "X": 1.0,
       "Y": -1.0
      },
      "handle_left": {
       "X": 0.5,
       "Y": 1.0
      },
      "handle_right": {
       "X": 0.5,
       "Y": 0.0
      },
      "handle_type": 0,
      "interpolation": 0
     }
    ]
   },
   "channel_mapping": {
    "Points": [
     {
      "co": {
       "X": 1.0,
       "Y": -1.0
      },
      "handle_left": {
       "X": 0.5,
       "Y": 1.0
      },
      "handle_right": {
       "X": 0.5,
       "Y": 0.0
      },
      "handle_type": 0,
      "interpolation": 0
     }
    ]
   },
   "display": 0,
   "duration": 3600.0,
   "effects": [],
   "end": 2.7333333333333467,
   "gravity": 4,
   "has_audio": {
    "Points": [
     {
      "co": {
       "X": 1.0,
       "Y": -1.0
      },
      "handle_left": {
       "X": 0.5,
       "Y": 1.0
      },
      "handle_right": {
       "X": 0.5,
       "Y": 0.0
      },
      "handle_type": 0,
      "interpolation": 0
     }
    ]
   },
   "has_video": {
    "Points": [
     {
      "co": {
       "X": 1.0,
       "Y": -1.0
      },
      "handle_left": {
       "X": 0.5,
       "Y": 1.0
      },
      "handle_right": {
       "X": 0.5,
       "Y": 0.0
      },
      "handle_type": 0,
      "interpolation": 0
     }
    ]
   },
   "id": "008M1M2L7V",
   "layer": 2000000,
   "location_x": {
    "Points": [
     {
      "co": {
       "X": 1.0,
       "Y": 0.0
      },
      "handle_left": {
       "X": 0.5,
       "Y": 1.0
      },
      "handle_right": {
       "X": 0.5,
       "Y": 0.0
      },
      "handle_type": 0,
      "interpolation": 0
     }
    ]
   },
   "location_y": {
    "Points": [
     {
      "co": {
       "X": 1.0,
       "Y": 0.0
      },
      "handle_left": {
       "X": 0.5,
       "Y": 1.0
      },
      "handle_right": {
       "X": 0.5,
       "Y": 0.0
      },
      "handle_type": 0,
      "interpolation": 0
     }
    ]
   },
   "mixing": 0,
   "origin_x": {
    "Points": [
     {
      "co": {
       "X": 1.0,
       "Y": 0.5
      },
      "handle_left": {
       "X": 0.5,
       "Y": 1.0
      },
      "handle_right": {
       "X": 0.5,
       "Y": 0.0
      },
      "handle_type": 0,
      "interpolation": 0
     }
    ]
   },
   "origin_y": {
    "Points": [
     {
      "co": {
       "X": 1.0,
       "Y": 0.5
      },
      "handle_left": {
       "X": 0.5,
       "Y": 1.0
      },
      "handle_right": {
       "X": 0.5,
       "Y": 0.0
      },
      "handle_type": 0,
      "interpolation": 0
     }
    ]
   },
   "parentObjectId": "",
   "perspective_c1_x": {
    "Points": [
     {
      "co": {
       "X": 1.0,
       "Y": -1.0
      },
      "handle_left": {
       "X": 0.5,
       "Y": 1.0
      },
      "handle_right": {
       "X": 0.5,
       "Y": 0.0
      },
      "handle_type": 0,
      "interpolation": 0
     }
    ]
   },
   "perspective_c1_y": {
    "Points": [
     {
      "co": {
       "X": 1.0,
       "Y": -1.0
      },
      "handle_left": {
       "X": 0.5,
       "Y": 1.0
      },
      "handle_right": {
       "X": 0.5,
       "Y": 0.0
      },
      "handle_type": 0,
      "interpolation": 0
     }
    ]
   },
   "perspective_c2_x": {
    "Points": [
     {
      "co": {
       "X": 1.0,
       "Y": -1.0
      },
      "handle_left": {
       "X": 0.5,
       "Y": 1.0
      },
      "handle_right": {
       "X": 0.5,
       "Y": 0.0
      },
      "handle_type": 0,
      "interpolation": 0
     }
    ]
   },
   "perspective_c2_y": {
    "Points": [
     {
      "co": {
       "X": 1.0,
       "Y": -1.0
      },
      "handle_left": {
       "X": 0.5,
       "Y": 1.0
      },
      "handle_right": {
       "X": 0.5,
       "Y": 0.0
      },
      "handle_type": 0,
      "interpolation": 0
     }
    ]
   },
   "perspective_c3_x": {
    "Points": [
     {
      "co": {
       "X": 1.0,
       "Y": -1.0
      },
      "handle_left": {
       "X": 0.5,
       "Y": 1.0
      },
      "handle_right": {
       "X": 0.5,
       "Y": 0.0
      },
      "handle_type": 0,
      "interpolation": 0
     }
    ]
   },
   "perspective_c3_y": {
    "Points": [
     {
      "co": {
       "X": 1.0,
       "Y": -1.0
      },
      "handle_left": {
       "X": 0.5,
       "Y": 1.0
      },
      "handle_right": {
       "X": 0.5,
       "Y": 0.0
      },
      "handle_type": 0,
      "interpolation": 0
     }
    ]
   },
   "perspective_c4_x": {
    "Points": [
     {
      "co": {
       "X": 1.0,
       "Y": -1.0
      },
      "handle_left": {
       "X": 0.5,
       "Y": 1.0
      },
      "handle_right": {
       "X": 0.5,
       "Y": 0.0
      },
      "handle_type": 0,
      "interpolation": 0
     }
    ]
   },
   "perspective_c4_y": {
    "Points": [
     {
      "co": {
       "X": 1.0,
       "Y": -1.0
      },
      "handle_left": {
       "X": 0.5,
       "Y": 1.0
      },
      "handle_right": {
       "X": 0.5,
       "Y": 0.0
      },
      "handle_type": 0,
      "interpolation": 0
     }
    ]
   },
   "position": 350.1,
   "reader": {
    "acodec": "",
    "audio_bit_rate": 0,
    "audio_stream_index": -1,
    "audio_timebase": {
     "den": 1,
     "num": 1
    },
    "channel_layout": 4,
    "channels": 0,
    "display_ratio": {
     "den": 205,
     "num": 407
    },
    "duration": 3600.0,
    "file_size": "3003660",
    "fps": {
     "den": 1,
     "num": 30
    },
    "has_audio": false,
    "has_single_image": true,
    "has_video": true,
    "height": 615,
    "interlaced_frame": false,
    "metadata": {},
    "path": "./drawing48.png",
    "pixel_format": -1,
    "pixel_ratio": {
     "den": 1,
     "num": 1
    },
    "sample_rate": 0,
    "top_field_first": true,
    "type": "QtImageReader",
    "vcodec": "",
    "video_bit_rate": 0,
    "video_length": "108000",
    "video_stream_index": -1,
    "video_timebase": {
     "den": 30,
     "num": 1
    },
    "width": 1221,
    "media_type": "image",
    "id": "OV2FZXL5F1",
    "image": "Tutorial_assets/thumbnail/OV2FZXL5F1.png"
   },
   "rotation": {
    "Points": [
     {
      "co": {
       "X": 1.0,
       "Y": 0.0
      },
      "handle_left": {
       "X": 0.5,
       "Y": 1.0
      },
      "handle_right": {
       "X": 0.5,
       "Y": 0.0
      },
      "handle_type": 0,
      "interpolation": 0
     }
    ]
   },
   "scale": 1,
   "scale_x": {
    "Points": [
     {
      "co": {
       "X": 1,
       "Y": 0.7172062053794146
      },
      "handle_left": {
       "X": 0.5,
       "Y": 1.0
      },
      "handle_right": {
       "X": 0.5,
       "Y": 0.0
      },
      "handle_type": 0,
      "interpolation": 0
     }
    ]
   },
   "scale_y": {
    "Points": [
     {
      "co": {
       "X": 1,
       "Y": 0.7172062053794146
      },
      "handle_left": {
       "X": 0.5,
       "Y": 1.0
      },
      "handle_right": {
       "X": 0.5,
       "Y": 0.0
      },
      "handle_type": 0,
      "interpolation": 0
     }
    ]
   },
   "shear_x": {
    "Points": [
     {
      "co": {
       "X": 1.0,
       "Y": 0.0
      },
      "handle_left": {
       "X": 0.5,
       "Y": 1.0
      },
      "handle_right": {
       "X": 0.5,
       "Y": 0.0
      },
      "handle_type": 0,
      "interpolation": 0
     }
    ]
   },
   "shear_y": {
    "Points": [
     {
      "co": {
       "X": 1.0,
       "Y": 0.0
      },
      "handle_left": {
       "X": 0.5,
       "Y": 1.0
      },
      "handle_right": {
       "X": 0.5,
       "Y": 0.0
      },
      "handle_type": 0,
      "interpolation": 0
     }
    ]
   },
   "start": 0,
   "time": {
    "Points": [
     {
      "co": {
       "X": 1.0,
       "Y": 1.0
      },
      "handle_left": {
       "X": 0.5,
       "Y": 1.0
      },
      "handle_right": {
       "X": 0.5,
       "Y": 0.0
      },
      "handle_type": 0,
      "interpolation": 0
     }
    ]
   },
   "volume": {
    "Points": [
     {
      "co": {
       "X": 1.0,
       "Y": 1.0
      },
      "handle_left": {
       "X": 0.5,
       "Y": 1.0
      },
      "handle_right": {
       "X": 0.5,
       "Y": 0.0
      },
      "handle_type": 0,
      "interpolation": 0
     }
    ]
   },
   "wave_color": {
    "alpha": {
     "Points": [
      {
       "co": {
        "X": 1.0,
        "Y": 255.0
       },
       "handle_left": {
        "X": 0.5,
        "Y": 1.0
       },
       "handle_right": {
        "X": 0.5,
        "Y": 0.0
       },
       "handle_type": 0,
       "interpolation": 0
      }
     ]
    },
    "blue": {
     "Points": [
      {
       "co": {
        "X": 1.0,
        "Y": 255.0
       },
       "handle_left": {
        "X": 0.5,
        "Y": 1.0
       },
       "handle_right": {
        "X": 0.5,
        "Y": 0.0
       },
       "handle_type": 0,
       "interpolation": 0
      }
     ]
    },
    "green": {
     "Points": [
      {
       "co": {
        "X": 1.0,
        "Y": 123.0
       },
       "handle_left": {
        "X": 0.5,
        "Y": 1.0
       },
       "handle_right": {
        "X": 0.5,
        "Y": 0.0
       },
       "handle_type": 0,
       "interpolation": 0
      }
     ]
    },
    "red": {
     "Points": [
      {
       "co": {
        "X": 1.0,
        "Y": 0.0
       },
       "handle_left": {
        "X": 0.5,
        "Y": 1.0
       },
       "handle_right": {
        "X": 0.5,
        "Y": 0.0
       },
       "handle_type": 0,
       "interpolation": 0
      }
     ]
    }
   },
   "waveform": false,
   "file_id": "OV2FZXL5F1",
   "title": "drawing48.png",
   "image": "Tutorial_assets/thumbnail/OV2FZXL5F1.png"
  },
  {
   "alpha": {
    "Points": [
     {
      "co": {
       "X": 1.0,
       "Y": 1.0
      },
      "handle_left": {
       "X": 0.5,
       "Y": 1.0
      },
      "handle_right": {
       "X": 0.5,
       "Y": 0.0
      },
      "handle_type": 0,
      "interpolation": 0
     }
    ]
   },
   "anchor": 0,
   "channel_filter": {
    "Points": [
     {
      "co": {
       "X": 1.0,
       "Y": -1.0
      },
      "handle_left": {
       "X": 0.5,
       "Y": 1.0
      },
      "handle_right": {
       "X": 0.5,
       "Y": 0.0
      },
      "handle_type": 0,
      "interpolation": 0
     }
    ]
   },
   "channel_mapping": {
    "Points": [
     {
      "co": {
       "X": 1.0,
       "Y": -1.0
      },
      "handle_left": {
       "X": 0.5,
       "Y": 1.0
      },
      "handle_right": {
       "X": 0.5,
       "Y": 0.0
      },
      "handle_type": 0,
      "interpolation": 0
     }
    ]
   },
   "display": 0,
   "duration": 3600.0,
   "effects": [],
   "end": 8.733570935444153,
   "gravity": 4,
   "has_audio": {
    "Points": [
     {
      "co": {
       "X": 1.0,
       "Y": -1.0
      },
      "handle_left": {
       "X": 0.5,
       "Y": 1.0
      },
      "handle_right": {
       "X": 0.5,
       "Y": 0.0
      },
      "handle_type": 0,
      "interpolation": 0
     }
    ]
   },
   "has_video": {
    "Points": [
     {
      "co": {
       "X": 1.0,
       "Y": -1.0
      },
      "handle_left": {
       "X": 0.5,
       "Y": 1.0
      },
      "handle_right": {
       "X": 0.5,
       "Y": 0.0
      },
      "handle_type": 0,
      "interpolation": 0
     }
    ]
   },
   "id": "3XHBAHOVM4",
   "layer": 2000000,
   "location_x": {
    "Points": [
     {
      "co": {
       "X": 1,
       "Y": -0.2802385475607097
      },
      "handle_left": {
       "X": 0.5,
       "Y": 1.0
      },
      "handle_right": {
       "X": 0.5,
       "Y": 0.0
      },
      "handle_type": 0,
      "interpolation": 0
     }
    ]
   },
   "location_y": {
    "Points": [
     {
      "co": {
       "X": 1,
       "Y": -0.15151515314073274
      },
      "handle_left": {
       "X": 0.5,
       "Y": 1.0
      },
      "handle_right": {
       "X": 0.5,
       "Y": 0.0
      },
      "handle_type": 0,
      "interpolation": 0
     }
    ]
   },
   "mixing": 0,
   "origin_x": {
    "Points": [
     {
      "co": {
       "X": 1.0,
       "Y": 0.5
      },
      "handle_left": {
       "X": 0.5,
       "Y": 1.0
      },
      "handle_right": {
       "X": 0.5,
       "Y": 0.0
      },
      "handle_type": 0,
      "interpolation": 0
     }
    ]
   },
   "origin_y": {
    "Points": [
     {
      "co": {
       "X": 1.0,
       "Y": 0.5
      },
      "handle_left": {
       "X": 0.5,
       "Y": 1.0
      },
      "handle_right": {
       "X": 0.5,
       "Y": 0.0
      },
      "handle_type": 0,
      "interpolation": 0
     }
    ]
   },
   "parentObjectId": "",
   "perspective_c1_x": {
    "Points": [
     {
      "co": {
       "X": 1.0,
       "Y": -1.0
      },
      "handle_left": {
       "X": 0.5,
       "Y": 1.0
      },
      "handle_right": {
       "X": 0.5,
       "Y": 0.0
      },
      "handle_type": 0,
      "interpolation": 0
     }
    ]
   },
   "perspective_c1_y": {
    "Points": [
     {
      "co": {
       "X": 1.0,
       "Y": -1.0
      },
      "handle_left": {
       "X": 0.5,
       "Y": 1.0
      },
      "handle_right": {
       "X": 0.5,
       "Y": 0.0
      },
      "handle_type": 0,
      "interpolation": 0
     }
    ]
   },
   "perspective_c2_x": {
    "Points": [
     {
      "co": {
       "X": 1.0,
       "Y": -1.0
      },
      "handle_left": {
       "X": 0.5,
       "Y": 1.0
      },
      "handle_right": {
       "X": 0.5,
       "Y": 0.0
      },
      "handle_type": 0,
      "interpolation": 0
     }
    ]
   },
   "perspective_c2_y": {
    "Points": [
     {
      "co": {
       "X": 1.0,
       "Y": -1.0
      },
      "handle_left": {
       "X": 0.5,
       "Y": 1.0
      },
      "handle_right": {
       "X": 0.5,
       "Y": 0.0
      },
      "handle_type": 0,
      "interpolation": 0
     }
    ]
   },
   "perspective_c3_x": {
    "Points": [
     {
      "co": {
       "X": 1.0,
       "Y": -1.0
      },
      "handle_left": {
       "X": 0.5,
       "Y": 1.0
      },
      "handle_right": {
       "X": 0.5,
       "Y": 0.0
      },
      "handle_type": 0,
      "interpolation": 0
     }
    ]
   },
   "perspective_c3_y": {
    "Points": [
     {
      "co": {
       "X": 1.0,
       "Y": -1.0
      },
      "handle_left": {
       "X": 0.5,
       "Y": 1.0
      },
      "handle_right": {
       "X": 0.5,
       "Y": 0.0
      },
      "handle_type": 0,
      "interpolation": 0
     }
    ]
   },
   "perspective_c4_x": {
    "Points": [
     {
      "co": {
       "X": 1.0,
       "Y": -1.0
      },
      "handle_left": {
       "X": 0.5,
       "Y": 1.0
      },
      "handle_right": {
       "X": 0.5,
       "Y": 0.0
      },
      "handle_type": 0,
      "interpolation": 0
     }
    ]
   },
   "perspective_c4_y": {
    "Points": [
     {
      "co": {
       "X": 1.0,
       "Y": -1.0
      },
      "handle_left": {
       "X": 0.5,
       "Y": 1.0
      },
      "handle_right": {
       "X": 0.5,
       "Y": 0.0
      },
      "handle_type": 0,
      "interpolation": 0
     }
    ]
   },
   "position": 354.55833333333334,
   "reader": {
    "acodec": "",
    "audio_bit_rate": 0,
    "audio_stream_index": -1,
    "audio_timebase": {
     "den": 1,
     "num": 1
    },
    "channel_layout": 4,
    "channels": 0,
    "display_ratio": {
     "den": 526,
     "num": 1639
    },
    "duration": 3600.0,
    "file_size": "3448456",
    "fps": {
     "den": 1,
     "num": 30
    },
    "has_audio": false,
    "has_single_image": true,
    "has_video": true,
    "height": 526,
    "interlaced_frame": false,
    "metadata": {},
    "path": "./drawing49.png",
    "pixel_format": -1,
    "pixel_ratio": {
     "den": 1,
     "num": 1
    },
    "sample_rate": 0,
    "top_field_first": true,
    "type": "QtImageReader",
    "vcodec": "",
    "video_bit_rate": 0,
    "video_length": "108000",
    "video_stream_index": -1,
    "video_timebase": {
     "den": 30,
     "num": 1
    },
    "width": 1639,
    "media_type": "image",
    "id": "1OECMG8EFH"
   },
   "rotation": {
    "Points": [
     {
      "co": {
       "X": 1.0,
       "Y": 0.0
      },
      "handle_left": {
       "X": 0.5,
       "Y": 1.0
      },
      "handle_right": {
       "X": 0.5,
       "Y": 0.0
      },
      "handle_type": 0,
      "interpolation": 0
     }
    ]
   },
   "scale": 1,
   "scale_x": {
    "Points": [
     {
      "co": {
       "X": 1,
       "Y": 0.34412262295539375
      },
      "handle_left": {
       "X": 0.5,
       "Y": 1.0
      },
      "handle_right": {
       "X": 0.5,
       "Y": 0.0
      },
      "handle_type": 0,
      "interpolation": 0
     }
    ]
   },
   "scale_y": {
    "Points": [
     {
      "co": {
       "X": 1,
       "Y": 0.34412262295539375
      },
      "handle_left": {
       "X": 0.5,
       "Y": 1.0
      },
      "handle_right": {
       "X": 0.5,
       "Y": 0.0
      },
      "handle_type": 0,
      "interpolation": 0
     }
    ]
   },
   "shear_x": {
    "Points": [
     {
      "co": {
       "X": 1.0,
       "Y": 0.0
      },
      "handle_left": {
       "X": 0.5,
       "Y": 1.0
      },
      "handle_right": {
       "X": 0.5,
       "Y": 0.0
      },
      "handle_type": 0,
      "interpolation": 0
     }
    ]
   },
   "shear_y": {
    "Points": [
     {
      "co": {
       "X": 1.0,
       "Y": 0.0
      },
      "handle_left": {
       "X": 0.5,
       "Y": 1.0
      },
      "handle_right": {
       "X": 0.5,
       "Y": 0.0
      },
      "handle_type": 0,
      "interpolation": 0
     }
    ]
   },
   "start": 0.9583333333333305,
   "time": {
    "Points": [
     {
      "co": {
       "X": 1.0,
       "Y": 1.0
      },
      "handle_left": {
       "X": 0.5,
       "Y": 1.0
      },
      "handle_right": {
       "X": 0.5,
       "Y": 0.0
      },
      "handle_type": 0,
      "interpolation": 0
     }
    ]
   },
   "volume": {
    "Points": [
     {
      "co": {
       "X": 1.0,
       "Y": 1.0
      },
      "handle_left": {
       "X": 0.5,
       "Y": 1.0
      },
      "handle_right": {
       "X": 0.5,
       "Y": 0.0
      },
      "handle_type": 0,
      "interpolation": 0
     }
    ]
   },
   "wave_color": {
    "alpha": {
     "Points": [
      {
       "co": {
        "X": 1.0,
        "Y": 255.0
       },
       "handle_left": {
        "X": 0.5,
        "Y": 1.0
       },
       "handle_right": {
        "X": 0.5,
        "Y": 0.0
       },
       "handle_type": 0,
       "interpolation": 0
      }
     ]
    },
    "blue": {
     "Points": [
      {
       "co": {
        "X": 1.0,
        "Y": 255.0
       },
       "handle_left": {
        "X": 0.5,
        "Y": 1.0
       },
       "handle_right": {
        "X": 0.5,
        "Y": 0.0
       },
       "handle_type": 0,
       "interpolation": 0
      }
     ]
    },
    "green": {
     "Points": [
      {
       "co": {
        "X": 1.0,
        "Y": 123.0
       },
       "handle_left": {
        "X": 0.5,
        "Y": 1.0
       },
       "handle_right": {
        "X": 0.5,
        "Y": 0.0
       },
       "handle_type": 0,
       "interpolation": 0
      }
     ]
    },
    "red": {
     "Points": [
      {
       "co": {
        "X": 1.0,
        "Y": 0.0
       },
       "handle_left": {
        "X": 0.5,
        "Y": 1.0
       },
       "handle_right": {
        "X": 0.5,
        "Y": 0.0
       },
       "handle_type": 0,
       "interpolation": 0
      }
     ]
    }
   },
   "waveform": false,
   "file_id": "1OECMG8EFH",
   "title": "drawing49.png",
   "image": "Tutorial_assets/thumbnail/1OECMG8EFH.png"
  },
  {
   "alpha": {
    "Points": [
     {
      "co": {
       "X": 1.0,
       "Y": 1.0
      },
      "handle_left": {
       "X": 0.5,
       "Y": 1.0
      },
      "handle_right": {
       "X": 0.5,
       "Y": 0.0
      },
      "handle_type": 0,
      "interpolation": 0
     }
    ]
   },
   "anchor": 0,
   "channel_filter": {
    "Points": [
     {
      "co": {
       "X": 1.0,
       "Y": -1.0
      },
      "handle_left": {
       "X": 0.5,
       "Y": 1.0
      },
      "handle_right": {
       "X": 0.5,
       "Y": 0.0
      },
      "handle_type": 0,
      "interpolation": 0
     }
    ]
   },
   "channel_mapping": {
    "Points": [
     {
      "co": {
       "X": 1.0,
       "Y": -1.0
      },
      "handle_left": {
       "X": 0.5,
       "Y": 1.0
      },
      "handle_right": {
       "X": 0.5,
       "Y": 0.0
      },
      "handle_type": 0,
      "interpolation": 0
     }
    ]
   },
   "display": 0,
   "duration": 3600.0,
   "effects": [],
   "end": 8.73357093544415,
   "gravity": 4,
   "has_audio": {
    "Points": [
     {
      "co": {
       "X": 1.0,
       "Y": -1.0
      },
      "handle_left": {
       "X": 0.5,
       "Y": 1.0
      },
      "handle_right": {
       "X": 0.5,
       "Y": 0.0
      },
      "handle_type": 0,
      "interpolation": 0
     }
    ]
   },
   "has_video": {
    "Points": [
     {
      "co": {
       "X": 1.0,
       "Y": -1.0
      },
      "handle_left": {
       "X": 0.5,
       "Y": 1.0
      },
      "handle_right": {
       "X": 0.5,
       "Y": 0.0
      },
      "handle_type": 0,
      "interpolation": 0
     }
    ]
   },
   "id": "UFOKIHWNIR",
   "layer": 3000000,
   "location_x": {
    "Points": [
     {
      "co": {
       "X": 1,
       "Y": -0.3577512588472545
      },
      "handle_left": {
       "X": 0.5,
       "Y": 1.0
      },
      "handle_right": {
       "X": 0.5,
       "Y": 0.0
      },
      "handle_type": 0,
      "interpolation": 0
     }
    ]
   },
   "location_y": {
    "Points": [
     {
      "co": {
       "X": 1,
       "Y": -0.3378787934780121
      },
      "handle_left": {
       "X": 0.5,
       "Y": 1.0
      },
      "handle_right": {
       "X": 0.5,
       "Y": 0.0
      },
      "handle_type": 0,
      "interpolation": 0
     }
    ]
   },
   "mixing": 0,
   "origin_x": {
    "Points": [
     {
      "co": {
       "X": 1.0,
       "Y": 0.5
      },
      "handle_left": {
       "X": 0.5,
       "Y": 1.0
      },
      "handle_right": {
       "X": 0.5,
       "Y": 0.0
      },
      "handle_type": 0,
      "interpolation": 0
     }
    ]
   },
   "origin_y": {
    "Points": [
     {
      "co": {
       "X": 1.0,
       "Y": 0.5
      },
      "handle_left": {
       "X": 0.5,
       "Y": 1.0
      },
      "handle_right": {
       "X": 0.5,
       "Y": 0.0
      },
      "handle_type": 0,
      "interpolation": 0
     }
    ]
   },
   "parentObjectId": "",
   "perspective_c1_x": {
    "Points": [
     {
      "co": {
       "X": 1.0,
       "Y": -1.0
      },
      "handle_left": {
       "X": 0.5,
       "Y": 1.0
      },
      "handle_right": {
       "X": 0.5,
       "Y": 0.0
      },
      "handle_type": 0,
      "interpolation": 0
     }
    ]
   },
   "perspective_c1_y": {
    "Points": [
     {
      "co": {
       "X": 1.0,
       "Y": -1.0
      },
      "handle_left": {
       "X": 0.5,
       "Y": 1.0
      },
      "handle_right": {
       "X": 0.5,
       "Y": 0.0
      },
      "handle_type": 0,
      "interpolation": 0
     }
    ]
   },
   "perspective_c2_x": {
    "Points": [
     {
      "co": {
       "X": 1.0,
       "Y": -1.0
      },
      "handle_left": {
       "X": 0.5,
       "Y": 1.0
      },
      "handle_right": {
       "X": 0.5,
       "Y": 0.0
      },
      "handle_type": 0,
      "interpolation": 0
     }
    ]
   },
   "perspective_c2_y": {
    "Points": [
     {
      "co": {
       "X": 1.0,
       "Y": -1.0
      },
      "handle_left": {
       "X": 0.5,
       "Y": 1.0
      },
      "handle_right": {
       "X": 0.5,
       "Y": 0.0
      },
      "handle_type": 0,
      "interpolation": 0
     }
    ]
   },
   "perspective_c3_x": {
    "Points": [
     {
      "co": {
       "X": 1.0,
       "Y": -1.0
      },
      "handle_left": {
       "X": 0.5,
       "Y": 1.0
      },
      "handle_right": {
       "X": 0.5,
       "Y": 0.0
      },
      "handle_type": 0,
      "interpolation": 0
     }
    ]
   },
   "perspective_c3_y": {
    "Points": [
     {
      "co": {
       "X": 1.0,
       "Y": -1.0
      },
      "handle_left": {
       "X": 0.5,
       "Y": 1.0
      },
      "handle_right": {
       "X": 0.5,
       "Y": 0.0
      },
      "handle_type": 0,
      "interpolation": 0
     }
    ]
   },
   "perspective_c4_x": {
    "Points": [
     {
      "co": {
       "X": 1.0,
       "Y": -1.0
      },
      "handle_left": {
       "X": 0.5,
       "Y": 1.0
      },
      "handle_right": {
       "X": 0.5,
       "Y": 0.0
      },
      "handle_type": 0,
      "interpolation": 0
     }
    ]
   },
   "perspective_c4_y": {
    "Points": [
     {
      "co": {
       "X": 1.0,
       "Y": -1.0
      },
      "handle_left": {
       "X": 0.5,
       "Y": 1.0
      },
      "handle_right": {
       "X": 0.5,
       "Y": 0.0
      },
      "handle_type": 0,
      "interpolation": 0
     }
    ]
   },
   "position": 353.5914290645558,
   "reader": {
    "acodec": "",
    "audio_bit_rate": 0,
    "audio_stream_index": -1,
    "audio_timebase": {
     "den": 1,
     "num": 1
    },
    "channel_layout": 4,
    "channels": 0,
    "display_ratio": {
     "den": 96,
     "num": 217
    },
    "duration": 3600.0,
    "file_size": "1333248",
    "fps": {
     "den": 1,
     "num": 30
    },
    "has_audio": false,
    "has_single_image": true,
    "has_video": true,
    "height": 384,
    "interlaced_frame": false,
    "metadata": {},
    "path": "./drawing50.png",
    "pixel_format": -1,
    "pixel_ratio": {
     "den": 1,
     "num": 1
    },
    "sample_rate": 0,
    "top_field_first": true,
    "type": "QtImageReader",
    "vcodec": "",
    "video_bit_rate": 0,
    "video_length": "108000",
    "video_stream_index": -1,
    "video_timebase": {
     "den": 30,
     "num": 1
    },
    "width": 868,
    "media_type": "image",
    "id": "FLPKSBWK37"
   },
   "rotation": {
    "Points": [
     {
      "co": {
       "X": 1.0,
       "Y": 0.0
      },
      "handle_left": {
       "X": 0.5,
       "Y": 1.0
      },
      "handle_right": {
       "X": 0.5,
       "Y": 0.0
      },
      "handle_type": 0,
      "interpolation": 0
     }
    ]
   },
   "scale": 1,
   "scale_x": {
    "Points": [
     {
      "co": {
       "X": 1,
       "Y": 0.19250423754398827
      },
      "handle_left": {
       "X": 0.5,
       "Y": 1.0
      },
      "handle_right": {
       "X": 0.5,
       "Y": 0.0
      },
      "handle_type": 0,
      "interpolation": 0
     }
    ]
   },
   "scale_y": {
    "Points": [
     {
      "co": {
       "X": 1,
       "Y": 0.19250423754398827
      },
      "handle_left": {
       "X": 0.5,
       "Y": 1.0
      },
      "handle_right": {
       "X": 0.5,
       "Y": 0.0
      },
      "handle_type": 0,
      "interpolation": 0
     }
    ]
   },
   "shear_x": {
    "Points": [
     {
      "co": {
       "X": 1.0,
       "Y": 0.0
      },
      "handle_left": {
       "X": 0.5,
       "Y": 1.0
      },
      "handle_right": {
       "X": 0.5,
       "Y": 0.0
      },
      "handle_type": 0,
      "interpolation": 0
     }
    ]
   },
   "shear_y": {
    "Points": [
     {
      "co": {
       "X": 1.0,
       "Y": 0.0
      },
      "handle_left": {
       "X": 0.5,
       "Y": 1.0
      },
      "handle_right": {
       "X": 0.5,
       "Y": 0.0
      },
      "handle_type": 0,
      "interpolation": 0
     }
    ]
   },
   "start": 0,
   "time": {
    "Points": [
     {
      "co": {
       "X": 1.0,
       "Y": 1.0
      },
      "handle_left": {
       "X": 0.5,
       "Y": 1.0
      },
      "handle_right": {
       "X": 0.5,
       "Y": 0.0
      },
      "handle_type": 0,
      "interpolation": 0
     }
    ]
   },
   "volume": {
    "Points": [
     {
      "co": {
       "X": 1.0,
       "Y": 1.0
      },
      "handle_left": {
       "X": 0.5,
       "Y": 1.0
      },
      "handle_right": {
       "X": 0.5,
       "Y": 0.0
      },
      "handle_type": 0,
      "interpolation": 0
     }
    ]
   },
   "wave_color": {
    "alpha": {
     "Points": [
      {
       "co": {
        "X": 1.0,
        "Y": 255.0
       },
       "handle_left": {
        "X": 0.5,
        "Y": 1.0
       },
       "handle_right": {
        "X": 0.5,
        "Y": 0.0
       },
       "handle_type": 0,
       "interpolation": 0
      }
     ]
    },
    "blue": {
     "Points": [
      {
       "co": {
        "X": 1.0,
        "Y": 255.0
       },
       "handle_left": {
        "X": 0.5,
        "Y": 1.0
       },
       "handle_right": {
        "X": 0.5,
        "Y": 0.0
       },
       "handle_type": 0,
       "interpolation": 0
      }
     ]
    },
    "green": {
     "Points": [
      {
       "co": {
        "X": 1.0,
        "Y": 123.0
       },
       "handle_left": {
        "X": 0.5,
        "Y": 1.0
       },
       "handle_right": {
        "X": 0.5,
        "Y": 0.0
       },
       "handle_type": 0,
       "interpolation": 0
      }
     ]
    },
    "red": {
     "Points": [
      {
       "co": {
        "X": 1.0,
        "Y": 0.0
       },
       "handle_left": {
        "X": 0.5,
        "Y": 1.0
       },
       "handle_right": {
        "X": 0.5,
        "Y": 0.0
       },
       "handle_type": 0,
       "interpolation": 0
      }
     ]
    }
   },
   "waveform": false,
   "file_id": "FLPKSBWK37",
   "title": "drawing50.png",
   "image": "Tutorial_assets/thumbnail/FLPKSBWK37.png"
  },
  {
   "alpha": {
    "Points": [
     {
      "co": {
       "X": 1.0,
       "Y": 1.0
      },
      "handle_left": {
       "X": 0.5,
       "Y": 1.0
      },
      "handle_right": {
       "X": 0.5,
       "Y": 0.0
      },
      "handle_type": 0,
      "interpolation": 0
     }
    ]
   },
   "anchor": 0,
   "channel_filter": {
    "Points": [
     {
      "co": {
       "X": 1.0,
       "Y": -1.0
      },
      "handle_left": {
       "X": 0.5,
       "Y": 1.0
      },
      "handle_right": {
       "X": 0.5,
       "Y": 0.0
      },
      "handle_type": 0,
      "interpolation": 0
     }
    ]
   },
   "channel_mapping": {
    "Points": [
     {
      "co": {
       "X": 1.0,
       "Y": -1.0
      },
      "handle_left": {
       "X": 0.5,
       "Y": 1.0
      },
      "handle_right": {
       "X": 0.5,
       "Y": 0.0
      },
      "handle_type": 0,
      "interpolation": 0
     }
    ]
   },
   "display": 0,
   "duration": 74.83333587646484,
   "effects": [],
   "end": 18.333333333333343,
   "gravity": 4,
   "has_audio": {
    "Points": [
     {
      "co": {
       "X": 1.0,
       "Y": -1.0
      },
      "handle_left": {
       "X": 0.5,
       "Y": 1.0
      },
      "handle_right": {
       "X": 0.5,
       "Y": 0.0
      },
      "handle_type": 0,
      "interpolation": 0
     }
    ]
   },
   "has_video": {
    "Points": [
     {
      "co": {
       "X": 1.0,
       "Y": -1.0
      },
      "handle_left": {
       "X": 0.5,
       "Y": 1.0
      },
      "handle_right": {
       "X": 0.5,
       "Y": 0.0
      },
      "handle_type": 0,
      "interpolation": 0
     }
    ]
   },
   "id": "URM98RK8ZF",
   "layer": 1000000,
   "location_x": {
    "Points": [
     {
      "co": {
       "X": 1.0,
       "Y": 0.0
      },
      "handle_left": {
       "X": 0.5,
       "Y": 1.0
      },
      "handle_right": {
       "X": 0.5,
       "Y": 0.0
      },
      "handle_type": 0,
      "interpolation": 0
     }
    ]
   },
   "location_y": {
    "Points": [
     {
      "co": {
       "X": 1.0,
       "Y": 0.0
      },
      "handle_left": {
       "X": 0.5,
       "Y": 1.0
      },
      "handle_right": {
       "X": 0.5,
       "Y": 0.0
      },
      "handle_type": 0,
      "interpolation": 0
     }
    ]
   },
   "mixing": 0,
   "origin_x": {
    "Points": [
     {
      "co": {
       "X": 1.0,
       "Y": 0.5
      },
      "handle_left": {
       "X": 0.5,
       "Y": 1.0
      },
      "handle_right": {
       "X": 0.5,
       "Y": 0.0
      },
      "handle_type": 0,
      "interpolation": 0
     }
    ]
   },
   "origin_y": {
    "Points": [
     {
      "co": {
       "X": 1.0,
       "Y": 0.5
      },
      "handle_left": {
       "X": 0.5,
       "Y": 1.0
      },
      "handle_right": {
       "X": 0.5,
       "Y": 0.0
      },
      "handle_type": 0,
      "interpolation": 0
     }
    ]
   },
   "parentObjectId": "",
   "perspective_c1_x": {
    "Points": [
     {
      "co": {
       "X": 1.0,
       "Y": -1.0
      },
      "handle_left": {
       "X": 0.5,
       "Y": 1.0
      },
      "handle_right": {
       "X": 0.5,
       "Y": 0.0
      },
      "handle_type": 0,
      "interpolation": 0
     }
    ]
   },
   "perspective_c1_y": {
    "Points": [
     {
      "co": {
       "X": 1.0,
       "Y": -1.0
      },
      "handle_left": {
       "X": 0.5,
       "Y": 1.0
      },
      "handle_right": {
       "X": 0.5,
       "Y": 0.0
      },
      "handle_type": 0,
      "interpolation": 0
     }
    ]
   },
   "perspective_c2_x": {
    "Points": [
     {
      "co": {
       "X": 1.0,
       "Y": -1.0
      },
      "handle_left": {
       "X": 0.5,
       "Y": 1.0
      },
      "handle_right": {
       "X": 0.5,
       "Y": 0.0
      },
      "handle_type": 0,
      "interpolation": 0
     }
    ]
   },
   "perspective_c2_y": {
    "Points": [
     {
      "co": {
       "X": 1.0,
       "Y": -1.0
      },
      "handle_left": {
       "X": 0.5,
       "Y": 1.0
      },
      "handle_right": {
       "X": 0.5,
       "Y": 0.0
      },
      "handle_type": 0,
      "interpolation": 0
     }
    ]
   },
   "perspective_c3_x": {
    "Points": [
     {
      "co": {
       "X": 1.0,
       "Y": -1.0
      },
      "handle_left": {
       "X": 0.5,
       "Y": 1.0
      },
      "handle_right": {
       "X": 0.5,
       "Y": 0.0
      },
      "handle_type": 0,
      "interpolation": 0
     }
    ]
   },
   "perspective_c3_y": {
    "Points": [
     {
      "co": {
       "X": 1.0,
       "Y": -1.0
      },
      "handle_left": {
       "X": 0.5,
       "Y": 1.0
      },
      "handle_right": {
       "X": 0.5,
       "Y": 0.0
      },
      "handle_type": 0,
      "interpolation": 0
     }
    ]
   },
   "perspective_c4_x": {
    "Points": [
     {
      "co": {
       "X": 1.0,
       "Y": -1.0
      },
      "handle_left": {
       "X": 0.5,
       "Y": 1.0
      },
      "handle_right": {
       "X": 0.5,
       "Y": 0.0
      },
      "handle_type": 0,
      "interpolation": 0
     }
    ]
   },
   "perspective_c4_y": {
    "Points": [
     {
      "co": {
       "X": 1.0,
       "Y": -1.0
      },
      "handle_left": {
       "X": 0.5,
       "Y": 1.0
      },
      "handle_right": {
       "X": 0.5,
       "Y": 0.0
      },
      "handle_type": 0,
      "interpolation": 0
     }
    ]
   },
   "position": 366.1,
   "reader": {
    "acodec": "",
    "audio_bit_rate": 0,
    "audio_stream_index": -1,
    "audio_timebase": {
     "den": 1,
     "num": 1
    },
    "channel_layout": 4,
    "channels": 0,
    "display_ratio": {
     "den": 9,
     "num": 16
    },
    "duration": 74.83333587646484,
    "file_size": "78639119",
    "fps": {
     "den": 1,
     "num": 30
    },
    "has_audio": false,
    "has_single_image": false,
    "has_video": true,
    "height": 1080,
    "interlaced_frame": false,
    "metadata": {
     "comment": "Create videos with https://clipchamp.com/en/video-editor - free online video editor, video compressor, video converter.",
     "compatible_brands": "isomiso2avc1mp41",
     "encoder": "https://clipchamp.com",
     "handler_name": "VideoHandler",
     "language": "und",
     "major_brand": "isom",
     "minor_version": "512"
    },
    "path": "./movie_009_002.mp4",
    "pixel_format": 0,
    "pixel_ratio": {
     "den": 1,
     "num": 1
    },
    "sample_rate": 0,
    "top_field_first": true,
    "type": "FFmpegReader",
    "vcodec": "h264",
    "video_bit_rate": 1050847,
    "video_length": "2245",
    "video_stream_index": 0,
    "video_timebase": {
     "den": 15360,
     "num": 1
    },
    "width": 1920,
    "media_type": "video",
    "id": "HEYLU6MTYJ"
   },
   "rotation": {
    "Points": [
     {
      "co": {
       "X": 1.0,
       "Y": 0.0
      },
      "handle_left": {
       "X": 0.5,
       "Y": 1.0
      },
      "handle_right": {
       "X": 0.5,
       "Y": 0.0
      },
      "handle_type": 0,
      "interpolation": 0
     }
    ]
   },
   "scale": 1,
   "scale_x": {
    "Points": [
     {
      "co": {
       "X": 1.0,
       "Y": 1.0
      },
      "handle_left": {
       "X": 0.5,
       "Y": 1.0
      },
      "handle_right": {
       "X": 0.5,
       "Y": 0.0
      },
      "handle_type": 0,
      "interpolation": 0
     }
    ]
   },
   "scale_y": {
    "Points": [
     {
      "co": {
       "X": 1.0,
       "Y": 1.0
      },
      "handle_left": {
       "X": 0.5,
       "Y": 1.0
      },
      "handle_right": {
       "X": 0.5,
       "Y": 0.0
      },
      "handle_type": 0,
      "interpolation": 0
     }
    ]
   },
   "shear_x": {
    "Points": [
     {
      "co": {
       "X": 1.0,
       "Y": 0.0
      },
      "handle_left": {
       "X": 0.5,
       "Y": 1.0
      },
      "handle_right": {
       "X": 0.5,
       "Y": 0.0
      },
      "handle_type": 0,
      "interpolation": 0
     }
    ]
   },
   "shear_y": {
    "Points": [
     {
      "co": {
       "X": 1.0,
       "Y": 0.0
      },
      "handle_left": {
       "X": 0.5,
       "Y": 1.0
      },
      "handle_right": {
       "X": 0.5,
       "Y": 0.0
      },
      "handle_type": 0,
      "interpolation": 0
     }
    ]
   },
   "start": 2.5000000000000266,
   "time": {
    "Points": [
     {
      "co": {
       "X": 1.0,
       "Y": 1.0
      },
      "handle_left": {
       "X": 0.5,
       "Y": 1.0
      },
      "handle_right": {
       "X": 0.5,
       "Y": 0.0
      },
      "handle_type": 0,
      "interpolation": 0
     }
    ]
   },
   "volume": {
    "Points": [
     {
      "co": {
       "X": 1.0,
       "Y": 1.0
      },
      "handle_left": {
       "X": 0.5,
       "Y": 1.0
      },
      "handle_right": {
       "X": 0.5,
       "Y": 0.0
      },
      "handle_type": 0,
      "interpolation": 0
     }
    ]
   },
   "wave_color": {
    "alpha": {
     "Points": [
      {
       "co": {
        "X": 1.0,
        "Y": 255.0
       },
       "handle_left": {
        "X": 0.5,
        "Y": 1.0
       },
       "handle_right": {
        "X": 0.5,
        "Y": 0.0
       },
       "handle_type": 0,
       "interpolation": 0
      }
     ]
    },
    "blue": {
     "Points": [
      {
       "co": {
        "X": 1.0,
        "Y": 255.0
       },
       "handle_left": {
        "X": 0.5,
        "Y": 1.0
       },
       "handle_right": {
        "X": 0.5,
        "Y": 0.0
       },
       "handle_type": 0,
       "interpolation": 0
      }
     ]
    },
    "green": {
     "Points": [
      {
       "co": {
        "X": 1.0,
        "Y": 123.0
       },
       "handle_left": {
        "X": 0.5,
        "Y": 1.0
       },
       "handle_right": {
        "X": 0.5,
        "Y": 0.0
       },
       "handle_type": 0,
       "interpolation": 0
      }
     ]
    },
    "red": {
     "Points": [
      {
       "co": {
        "X": 1.0,
        "Y": 0.0
       },
       "handle_left": {
        "X": 0.5,
        "Y": 1.0
       },
       "handle_right": {
        "X": 0.5,
        "Y": 0.0
       },
       "handle_type": 0,
       "interpolation": 0
      }
     ]
    }
   },
   "waveform": false,
   "file_id": "HEYLU6MTYJ",
   "title": "movie_009_002.mp4",
   "image": "Tutorial_assets/thumbnail/HEYLU6MTYJ.png"
  },
  {
   "alpha": {
    "Points": [
     {
      "co": {
       "X": 1.0,
       "Y": 1.0
      },
      "handle_left": {
       "X": 0.5,
       "Y": 1.0
      },
      "handle_right": {
       "X": 0.5,
       "Y": 0.0
      },
      "handle_type": 0,
      "interpolation": 0
     }
    ]
   },
   "anchor": 0,
   "channel_filter": {
    "Points": [
     {
      "co": {
       "X": 1.0,
       "Y": -1.0
      },
      "handle_left": {
       "X": 0.5,
       "Y": 1.0
      },
      "handle_right": {
       "X": 0.5,
       "Y": 0.0
      },
      "handle_type": 0,
      "interpolation": 0
     }
    ]
   },
   "channel_mapping": {
    "Points": [
     {
      "co": {
       "X": 1.0,
       "Y": -1.0
      },
      "handle_left": {
       "X": 0.5,
       "Y": 1.0
      },
      "handle_right": {
       "X": 0.5,
       "Y": 0.0
      },
      "handle_type": 0,
      "interpolation": 0
     }
    ]
   },
   "display": 0,
   "duration": 3600.0,
   "effects": [],
   "end": 11.618622950689542,
   "gravity": 4,
   "has_audio": {
    "Points": [
     {
      "co": {
       "X": 1.0,
       "Y": -1.0
      },
      "handle_left": {
       "X": 0.5,
       "Y": 1.0
      },
      "handle_right": {
       "X": 0.5,
       "Y": 0.0
      },
      "handle_type": 0,
      "interpolation": 0
     }
    ]
   },
   "has_video": {
    "Points": [
     {
      "co": {
       "X": 1.0,
       "Y": -1.0
      },
      "handle_left": {
       "X": 0.5,
       "Y": 1.0
      },
      "handle_right": {
       "X": 0.5,
       "Y": 0.0
      },
      "handle_type": 0,
      "interpolation": 0
     }
    ]
   },
   "id": "5F9S8EGV3E",
   "layer": 3000000,
   "location_x": {
    "Points": [
     {
      "co": {
       "X": 1,
       "Y": -0.34327084277923103
      },
      "handle_left": {
       "X": 0.5,
       "Y": 1.0
      },
      "handle_right": {
       "X": 0.5,
       "Y": 0.0
      },
      "handle_type": 0,
      "interpolation": 0
     }
    ]
   },
   "location_y": {
    "Points": [
     {
      "co": {
       "X": 1,
       "Y": -0.3424242196661053
      },
      "handle_left": {
       "X": 0.5,
       "Y": 1.0
      },
      "handle_right": {
       "X": 0.5,
       "Y": 0.0
      },
      "handle_type": 0,
      "interpolation": 0
     }
    ]
   },
   "mixing": 0,
   "origin_x": {
    "Points": [
     {
      "co": {
       "X": 1.0,
       "Y": 0.5
      },
      "handle_left": {
       "X": 0.5,
       "Y": 1.0
      },
      "handle_right": {
       "X": 0.5,
       "Y": 0.0
      },
      "handle_type": 0,
      "interpolation": 0
     }
    ]
   },
   "origin_y": {
    "Points": [
     {
      "co": {
       "X": 1.0,
       "Y": 0.5
      },
      "handle_left": {
       "X": 0.5,
       "Y": 1.0
      },
      "handle_right": {
       "X": 0.5,
       "Y": 0.0
      },
      "handle_type": 0,
      "interpolation": 0
     }
    ]
   },
   "parentObjectId": "",
   "perspective_c1_x": {
    "Points": [
     {
      "co": {
       "X": 1.0,
       "Y": -1.0
      },
      "handle_left": {
       "X": 0.5,
       "Y": 1.0
      },
      "handle_right": {
       "X": 0.5,
       "Y": 0.0
      },
      "handle_type": 0,
      "interpolation": 0
     }
    ]
   },
   "perspective_c1_y": {
    "Points": [
     {
      "co": {
       "X": 1.0,
       "Y": -1.0
      },
      "handle_left": {
       "X": 0.5,
       "Y": 1.0
      },
      "handle_right": {
       "X": 0.5,
       "Y": 0.0
      },
      "handle_type": 0,
      "interpolation": 0
     }
    ]
   },
   "perspective_c2_x": {
    "Points": [
     {
      "co": {
       "X": 1.0,
       "Y": -1.0
      },
      "handle_left": {
       "X": 0.5,
       "Y": 1.0
      },
      "handle_right": {
       "X": 0.5,
       "Y": 0.0
      },
      "handle_type": 0,
      "interpolation": 0
     }
    ]
   },
   "perspective_c2_y": {
    "Points": [
     {
      "co": {
       "X": 1.0,
       "Y": -1.0
      },
      "handle_left": {
       "X": 0.5,
       "Y": 1.0
      },
      "handle_right": {
       "X": 0.5,
       "Y": 0.0
      },
      "handle_type": 0,
      "interpolation": 0
     }
    ]
   },
   "perspective_c3_x": {
    "Points": [
     {
      "co": {
       "X": 1.0,
       "Y": -1.0
      },
      "handle_left": {
       "X": 0.5,
       "Y": 1.0
      },
      "handle_right": {
       "X": 0.5,
       "Y": 0.0
      },
      "handle_type": 0,
      "interpolation": 0
     }
    ]
   },
   "perspective_c3_y": {
    "Points": [
     {
      "co": {
       "X": 1.0,
       "Y": -1.0
      },
      "handle_left": {
       "X": 0.5,
       "Y": 1.0
      },
      "handle_right": {
       "X": 0.5,
       "Y": 0.0
      },
      "handle_type": 0,
      "interpolation": 0
     }
    ]
   },
   "perspective_c4_x": {
    "Points": [
     {
      "co": {
       "X": 1.0,
       "Y": -1.0
      },
      "handle_left": {
       "X": 0.5,
       "Y": 1.0
      },
      "handle_right": {
       "X": 0.5,
       "Y": 0.0
      },
      "handle_type": 0,
      "interpolation": 0
     }
    ]
   },
   "perspective_c4_y": {
    "Points": [
     {
      "co": {
       "X": 1.0,
       "Y": -1.0
      },
      "handle_left": {
       "X": 0.5,
       "Y": 1.0
      },
      "handle_right": {
       "X": 0.5,
       "Y": 0.0
      },
      "handle_type": 0,
      "interpolation": 0
     }
    ]
   },
   "position": 366.9551973066133,
   "reader": {
    "acodec": "",
    "audio_bit_rate": 0,
    "audio_stream_index": -1,
    "audio_timebase": {
     "den": 1,
     "num": 1
    },
    "channel_layout": 4,
    "channels": 0,
    "display_ratio": {
     "den": 96,
     "num": 217
    },
    "duration": 3600.0,
    "file_size": "1333248",
    "fps": {
     "den": 1,
     "num": 30
    },
    "has_audio": false,
    "has_single_image": true,
    "has_video": true,
    "height": 384,
    "interlaced_frame": false,
    "metadata": {},
    "path": "./drawing51.png",
    "pixel_format": -1,
    "pixel_ratio": {
     "den": 1,
     "num": 1
    },
    "sample_rate": 0,
    "top_field_first": true,
    "type": "QtImageReader",
    "vcodec": "",
    "video_bit_rate": 0,
    "video_length": "108000",
    "video_stream_index": -1,
    "video_timebase": {
     "den": 30,
     "num": 1
    },
    "width": 868,
    "media_type": "image",
    "id": "RHSDTY0758"
   },
   "rotation": {
    "Points": [
     {
      "co": {
       "X": 1.0,
       "Y": 0.0
      },
      "handle_left": {
       "X": 0.5,
       "Y": 1.0
      },
      "handle_right": {
       "X": 0.5,
       "Y": 0.0
      },
      "handle_type": 0,
      "interpolation": 0
     }
    ]
   },
   "scale": 1,
   "scale_x": {
    "Points": [
     {
      "co": {
       "X": 1,
       "Y": 0.21124359965324402
      },
      "handle_left": {
       "X": 0.5,
       "Y": 1.0
      },
      "handle_right": {
       "X": 0.5,
       "Y": 0.0
      },
      "handle_type": 0,
      "interpolation": 0
     }
    ]
   },
   "scale_y": {
    "Points": [
     {
      "co": {
       "X": 1,
       "Y": 0.21124359965324402
      },
      "handle_left": {
       "X": 0.5,
       "Y": 1.0
      },
      "handle_right": {
       "X": 0.5,
       "Y": 0.0
      },
      "handle_type": 0,
      "interpolation": 0
     }
    ]
   },
   "shear_x": {
    "Points": [
     {
      "co": {
       "X": 1.0,
       "Y": 0.0
      },
      "handle_left": {
       "X": 0.5,
       "Y": 1.0
      },
      "handle_right": {
       "X": 0.5,
       "Y": 0.0
      },
      "handle_type": 0,
      "interpolation": 0
     }
    ]
   },
   "shear_y": {
    "Points": [
     {
      "co": {
       "X": 1.0,
       "Y": 0.0
      },
      "handle_left": {
       "X": 0.5,
       "Y": 1.0
      },
      "handle_right": {
       "X": 0.5,
       "Y": 0.0
      },
      "handle_type": 0,
      "interpolation": 0
     }
    ]
   },
   "start": 0,
   "time": {
    "Points": [
     {
      "co": {
       "X": 1.0,
       "Y": 1.0
      },
      "handle_left": {
       "X": 0.5,
       "Y": 1.0
      },
      "handle_right": {
       "X": 0.5,
       "Y": 0.0
      },
      "handle_type": 0,
      "interpolation": 0
     }
    ]
   },
   "volume": {
    "Points": [
     {
      "co": {
       "X": 1.0,
       "Y": 1.0
      },
      "handle_left": {
       "X": 0.5,
       "Y": 1.0
      },
      "handle_right": {
       "X": 0.5,
       "Y": 0.0
      },
      "handle_type": 0,
      "interpolation": 0
     }
    ]
   },
   "wave_color": {
    "alpha": {
     "Points": [
      {
       "co": {
        "X": 1.0,
        "Y": 255.0
       },
       "handle_left": {
        "X": 0.5,
        "Y": 1.0
       },
       "handle_right": {
        "X": 0.5,
        "Y": 0.0
       },
       "handle_type": 0,
       "interpolation": 0
      }
     ]
    },
    "blue": {
     "Points": [
      {
       "co": {
        "X": 1.0,
        "Y": 255.0
       },
       "handle_left": {
        "X": 0.5,
        "Y": 1.0
       },
       "handle_right": {
        "X": 0.5,
        "Y": 0.0
       },
       "handle_type": 0,
       "interpolation": 0
      }
     ]
    },
    "green": {
     "Points": [
      {
       "co": {
        "X": 1.0,
        "Y": 123.0
       },
       "handle_left": {
        "X": 0.5,
        "Y": 1.0
       },
       "handle_right": {
        "X": 0.5,
        "Y": 0.0
       },
       "handle_type": 0,
       "interpolation": 0
      }
     ]
    },
    "red": {
     "Points": [
      {
       "co": {
        "X": 1.0,
        "Y": 0.0
       },
       "handle_left": {
        "X": 0.5,
        "Y": 1.0
       },
       "handle_right": {
        "X": 0.5,
        "Y": 0.0
       },
       "handle_type": 0,
       "interpolation": 0
      }
     ]
    }
   },
   "waveform": false,
   "file_id": "RHSDTY0758",
   "title": "drawing51.png",
   "image": "Tutorial_assets/thumbnail/RHSDTY0758.png"
  },
  {
   "alpha": {
    "Points": [
     {
      "co": {
       "X": 1.0,
       "Y": 1.0
      },
      "handle_left": {
       "X": 0.5,
       "Y": 1.0
      },
      "handle_right": {
       "X": 0.5,
       "Y": 0.0
      },
      "handle_type": 0,
      "interpolation": 0
     }
    ]
   },
   "anchor": 0,
   "channel_filter": {
    "Points": [
     {
      "co": {
       "X": 1.0,
       "Y": -1.0
      },
      "handle_left": {
       "X": 0.5,
       "Y": 1.0
      },
      "handle_right": {
       "X": 0.5,
       "Y": 0.0
      },
      "handle_type": 0,
      "interpolation": 0
     }
    ]
   },
   "channel_mapping": {
    "Points": [
     {
      "co": {
       "X": 1.0,
       "Y": -1.0
      },
      "handle_left": {
       "X": 0.5,
       "Y": 1.0
      },
      "handle_right": {
       "X": 0.5,
       "Y": 0.0
      },
      "handle_type": 0,
      "interpolation": 0
     }
    ]
   },
   "display": 0,
   "duration": 3600.0,
   "effects": [],
   "end": 10.640486923969487,
   "gravity": 4,
   "has_audio": {
    "Points": [
     {
      "co": {
       "X": 1.0,
       "Y": -1.0
      },
      "handle_left": {
       "X": 0.5,
       "Y": 1.0
      },
      "handle_right": {
       "X": 0.5,
       "Y": 0.0
      },
      "handle_type": 0,
      "interpolation": 0
     }
    ]
   },
   "has_video": {
    "Points": [
     {
      "co": {
       "X": 1.0,
       "Y": -1.0
      },
      "handle_left": {
       "X": 0.5,
       "Y": 1.0
      },
      "handle_right": {
       "X": 0.5,
       "Y": 0.0
      },
      "handle_type": 0,
      "interpolation": 0
     }
    ]
   },
   "id": "SKLGE7TU8R",
   "layer": 2000000,
   "location_x": {
    "Points": [
     {
      "co": {
       "X": 1,
       "Y": -0.29216349982931017
      },
      "handle_left": {
       "X": 0.5,
       "Y": 1.0
      },
      "handle_right": {
       "X": 0.5,
       "Y": 0.0
      },
      "handle_type": 0,
      "interpolation": 0
     }
    ]
   },
   "location_y": {
    "Points": [
     {
      "co": {
       "X": 1,
       "Y": -0.12575757503509521
      },
      "handle_left": {
       "X": 0.5,
       "Y": 1.0
      },
      "handle_right": {
       "X": 0.5,
       "Y": 0.0
      },
      "handle_type": 0,
      "interpolation": 0
     }
    ]
   },
   "mixing": 0,
   "origin_x": {
    "Points": [
     {
      "co": {
       "X": 1.0,
       "Y": 0.5
      },
      "handle_left": {
       "X": 0.5,
       "Y": 1.0
      },
      "handle_right": {
       "X": 0.5,
       "Y": 0.0
      },
      "handle_type": 0,
      "interpolation": 0
     }
    ]
   },
   "origin_y": {
    "Points": [
     {
      "co": {
       "X": 1.0,
       "Y": 0.5
      },
      "handle_left": {
       "X": 0.5,
       "Y": 1.0
      },
      "handle_right": {
       "X": 0.5,
       "Y": 0.0
      },
      "handle_type": 0,
      "interpolation": 0
     }
    ]
   },
   "parentObjectId": "",
   "perspective_c1_x": {
    "Points": [
     {
      "co": {
       "X": 1.0,
       "Y": -1.0
      },
      "handle_left": {
       "X": 0.5,
       "Y": 1.0
      },
      "handle_right": {
       "X": 0.5,
       "Y": 0.0
      },
      "handle_type": 0,
      "interpolation": 0
     }
    ]
   },
   "perspective_c1_y": {
    "Points": [
     {
      "co": {
       "X": 1.0,
       "Y": -1.0
      },
      "handle_left": {
       "X": 0.5,
       "Y": 1.0
      },
      "handle_right": {
       "X": 0.5,
       "Y": 0.0
      },
      "handle_type": 0,
      "interpolation": 0
     }
    ]
   },
   "perspective_c2_x": {
    "Points": [
     {
      "co": {
       "X": 1.0,
       "Y": -1.0
      },
      "handle_left": {
       "X": 0.5,
       "Y": 1.0
      },
      "handle_right": {
       "X": 0.5,
       "Y": 0.0
      },
      "handle_type": 0,
      "interpolation": 0
     }
    ]
   },
   "perspective_c2_y": {
    "Points": [
     {
      "co": {
       "X": 1.0,
       "Y": -1.0
      },
      "handle_left": {
       "X": 0.5,
       "Y": 1.0
      },
      "handle_right": {
       "X": 0.5,
       "Y": 0.0
      },
      "handle_type": 0,
      "interpolation": 0
     }
    ]
   },
   "perspective_c3_x": {
    "Points": [
     {
      "co": {
       "X": 1.0,
       "Y": -1.0
      },
      "handle_left": {
       "X": 0.5,
       "Y": 1.0
      },
      "handle_right": {
       "X": 0.5,
       "Y": 0.0
      },
      "handle_type": 0,
      "interpolation": 0
     }
    ]
   },
   "perspective_c3_y": {
    "Points": [
     {
      "co": {
       "X": 1.0,
       "Y": -1.0
      },
      "handle_left": {
       "X": 0.5,
       "Y": 1.0
      },
      "handle_right": {
       "X": 0.5,
       "Y": 0.0
      },
      "handle_type": 0,
      "interpolation": 0
     }
    ]
   },
   "perspective_c4_x": {
    "Points": [
     {
      "co": {
       "X": 1.0,
       "Y": -1.0
      },
      "handle_left": {
       "X": 0.5,
       "Y": 1.0
      },
      "handle_right": {
       "X": 0.5,
       "Y": 0.0
      },
      "handle_type": 0,
      "interpolation": 0
     }
    ]
   },
   "perspective_c4_y": {
    "Points": [
     {
      "co": {
       "X": 1.0,
       "Y": -1.0
      },
      "handle_left": {
       "X": 0.5,
       "Y": 1.0
      },
      "handle_right": {
       "X": 0.5,
       "Y": 0.0
      },
      "handle_type": 0,
      "interpolation": 0
     }
    ]
   },
   "position": 367.93333333333334,
   "reader": {
    "acodec": "",
    "audio_bit_rate": 0,
    "audio_stream_index": -1,
    "audio_timebase": {
     "den": 1,
     "num": 1
    },
    "channel_layout": 4,
    "channels": 0,
    "display_ratio": {
     "den": 637,
     "num": 1609
    },
    "duration": 3600.0,
    "file_size": "4099732",
    "fps": {
     "den": 1,
     "num": 30
    },
    "has_audio": false,
    "has_single_image": true,
    "has_video": true,
    "height": 637,
    "interlaced_frame": false,
    "metadata": {},
    "path": "./drawing54.png",
    "pixel_format": -1,
    "pixel_ratio": {
     "den": 1,
     "num": 1
    },
    "sample_rate": 0,
    "top_field_first": true,
    "type": "QtImageReader",
    "vcodec": "",
    "video_bit_rate": 0,
    "video_length": "108000",
    "video_stream_index": -1,
    "video_timebase": {
     "den": 30,
     "num": 1
    },
    "width": 1609,
    "media_type": "image",
    "id": "SY8S9Y52WD"
   },
   "rotation": {
    "Points": [
     {
      "co": {
       "X": 1.0,
       "Y": 0.0
      },
      "handle_left": {
       "X": 0.5,
       "Y": 1.0
      },
      "handle_right": {
       "X": 0.5,
       "Y": 0.0
      },
      "handle_type": 0,
      "interpolation": 0
     }
    ]
   },
   "scale": 1,
   "scale_x": {
    "Points": [
     {
      "co": {
       "X": 1,
       "Y": 0.3117547676449537
      },
      "handle_left": {
       "X": 0.5,
       "Y": 1.0
      },
      "handle_right": {
       "X": 0.5,
       "Y": 0.0
      },
      "handle_type": 0,
      "interpolation": 0
     }
    ]
   },
   "scale_y": {
    "Points": [
     {
      "co": {
       "X": 1,
       "Y": 0.3117547676449537
      },
      "handle_left": {
       "X": 0.5,
       "Y": 1.0
      },
      "handle_right": {
       "X": 0.5,
       "Y": 0.0
      },
      "handle_type": 0,
      "interpolation": 0
     }
    ]
   },
   "shear_x": {
    "Points": [
     {
      "co": {
       "X": 1.0,
       "Y": 0.0
      },
      "handle_left": {
       "X": 0.5,
       "Y": 1.0
      },
      "handle_right": {
       "X": 0.5,
       "Y": 0.0
      },
      "handle_type": 0,
      "interpolation": 0
     }
    ]
   },
   "shear_y": {
    "Points": [
     {
      "co": {
       "X": 1.0,
       "Y": 0.0
      },
      "handle_left": {
       "X": 0.5,
       "Y": 1.0
      },
      "handle_right": {
       "X": 0.5,
       "Y": 0.0
      },
      "handle_type": 0,
      "interpolation": 0
     }
    ]
   },
   "start": 0,
   "time": {
    "Points": [
     {
      "co": {
       "X": 1.0,
       "Y": 1.0
      },
      "handle_left": {
       "X": 0.5,
       "Y": 1.0
      },
      "handle_right": {
       "X": 0.5,
       "Y": 0.0
      },
      "handle_type": 0,
      "interpolation": 0
     }
    ]
   },
   "volume": {
    "Points": [
     {
      "co": {
       "X": 1.0,
       "Y": 1.0
      },
      "handle_left": {
       "X": 0.5,
       "Y": 1.0
      },
      "handle_right": {
       "X": 0.5,
       "Y": 0.0
      },
      "handle_type": 0,
      "interpolation": 0
     }
    ]
   },
   "wave_color": {
    "alpha": {
     "Points": [
      {
       "co": {
        "X": 1.0,
        "Y": 255.0
       },
       "handle_left": {
        "X": 0.5,
        "Y": 1.0
       },
       "handle_right": {
        "X": 0.5,
        "Y": 0.0
       },
       "handle_type": 0,
       "interpolation": 0
      }
     ]
    },
    "blue": {
     "Points": [
      {
       "co": {
        "X": 1.0,
        "Y": 255.0
       },
       "handle_left": {
        "X": 0.5,
        "Y": 1.0
       },
       "handle_right": {
        "X": 0.5,
        "Y": 0.0
       },
       "handle_type": 0,
       "interpolation": 0
      }
     ]
    },
    "green": {
     "Points": [
      {
       "co": {
        "X": 1.0,
        "Y": 123.0
       },
       "handle_left": {
        "X": 0.5,
        "Y": 1.0
       },
       "handle_right": {
        "X": 0.5,
        "Y": 0.0
       },
       "handle_type": 0,
       "interpolation": 0
      }
     ]
    },
    "red": {
     "Points": [
      {
       "co": {
        "X": 1.0,
        "Y": 0.0
       },
       "handle_left": {
        "X": 0.5,
        "Y": 1.0
       },
       "handle_right": {
        "X": 0.5,
        "Y": 0.0
       },
       "handle_type": 0,
       "interpolation": 0
      }
     ]
    }
   },
   "waveform": false,
   "file_id": "SY8S9Y52WD",
   "title": "drawing54.png",
   "image": "Tutorial_assets/thumbnail/SY8S9Y52WD.png"
  },
  {
   "alpha": {
    "Points": [
     {
      "co": {
       "X": 1.0,
       "Y": 1.0
      },
      "handle_left": {
       "X": 0.5,
       "Y": 1.0
      },
      "handle_right": {
       "X": 0.5,
       "Y": 0.0
      },
      "handle_type": 0,
      "interpolation": 0
     }
    ]
   },
   "anchor": 0,
   "channel_filter": {
    "Points": [
     {
      "co": {
       "X": 1.0,
       "Y": -1.0
      },
      "handle_left": {
       "X": 0.5,
       "Y": 1.0
      },
      "handle_right": {
       "X": 0.5,
       "Y": 0.0
      },
      "handle_type": 0,
      "interpolation": 0
     }
    ]
   },
   "channel_mapping": {
    "Points": [
     {
      "co": {
       "X": 1.0,
       "Y": -1.0
      },
      "handle_left": {
       "X": 0.5,
       "Y": 1.0
      },
      "handle_right": {
       "X": 0.5,
       "Y": 0.0
      },
      "handle_type": 0,
      "interpolation": 0
     }
    ]
   },
   "display": 0,
   "duration": 29.299999237060547,
   "effects": [],
   "end": 27.206225743714487,
   "gravity": 4,
   "has_audio": {
    "Points": [
     {
      "co": {
       "X": 1.0,
       "Y": -1.0
      },
      "handle_left": {
       "X": 0.5,
       "Y": 1.0
      },
      "handle_right": {
       "X": 0.5,
       "Y": 0.0
      },
      "handle_type": 0,
      "interpolation": 0
     }
    ]
   },
   "has_video": {
    "Points": [
     {
      "co": {
       "X": 1.0,
       "Y": -1.0
      },
      "handle_left": {
       "X": 0.5,
       "Y": 1.0
      },
      "handle_right": {
       "X": 0.5,
       "Y": 0.0
      },
      "handle_type": 0,
      "interpolation": 0
     }
    ]
   },
   "id": "P2NZZS7RH8",
   "layer": 1000000,
   "location_x": {
    "Points": [
     {
      "co": {
       "X": 1.0,
       "Y": 0.0
      },
      "handle_left": {
       "X": 0.5,
       "Y": 1.0
      },
      "handle_right": {
       "X": 0.5,
       "Y": 0.0
      },
      "handle_type": 0,
      "interpolation": 0
     }
    ]
   },
   "location_y": {
    "Points": [
     {
      "co": {
       "X": 1.0,
       "Y": 0.0
      },
      "handle_left": {
       "X": 0.5,
       "Y": 1.0
      },
      "handle_right": {
       "X": 0.5,
       "Y": 0.0
      },
      "handle_type": 0,
      "interpolation": 0
     }
    ]
   },
   "mixing": 0,
   "origin_x": {
    "Points": [
     {
      "co": {
       "X": 1.0,
       "Y": 0.5
      },
      "handle_left": {
       "X": 0.5,
       "Y": 1.0
      },
      "handle_right": {
       "X": 0.5,
       "Y": 0.0
      },
      "handle_type": 0,
      "interpolation": 0
     }
    ]
   },
   "origin_y": {
    "Points": [
     {
      "co": {
       "X": 1.0,
       "Y": 0.5
      },
      "handle_left": {
       "X": 0.5,
       "Y": 1.0
      },
      "handle_right": {
       "X": 0.5,
       "Y": 0.0
      },
      "handle_type": 0,
      "interpolation": 0
     }
    ]
   },
   "parentObjectId": "",
   "perspective_c1_x": {
    "Points": [
     {
      "co": {
       "X": 1.0,
       "Y": -1.0
      },
      "handle_left": {
       "X": 0.5,
       "Y": 1.0
      },
      "handle_right": {
       "X": 0.5,
       "Y": 0.0
      },
      "handle_type": 0,
      "interpolation": 0
     }
    ]
   },
   "perspective_c1_y": {
    "Points": [
     {
      "co": {
       "X": 1.0,
       "Y": -1.0
      },
      "handle_left": {
       "X": 0.5,
       "Y": 1.0
      },
      "handle_right": {
       "X": 0.5,
       "Y": 0.0
      },
      "handle_type": 0,
      "interpolation": 0
     }
    ]
   },
   "perspective_c2_x": {
    "Points": [
     {
      "co": {
       "X": 1.0,
       "Y": -1.0
      },
      "handle_left": {
       "X": 0.5,
       "Y": 1.0
      },
      "handle_right": {
       "X": 0.5,
       "Y": 0.0
      },
      "handle_type": 0,
      "interpolation": 0
     }
    ]
   },
   "perspective_c2_y": {
    "Points": [
     {
      "co": {
       "X": 1.0,
       "Y": -1.0
      },
      "handle_left": {
       "X": 0.5,
       "Y": 1.0
      },
      "handle_right": {
       "X": 0.5,
       "Y": 0.0
      },
      "handle_type": 0,
      "interpolation": 0
     }
    ]
   },
   "perspective_c3_x": {
    "Points": [
     {
      "co": {
       "X": 1.0,
       "Y": -1.0
      },
      "handle_left": {
       "X": 0.5,
       "Y": 1.0
      },
      "handle_right": {
       "X": 0.5,
       "Y": 0.0
      },
      "handle_type": 0,
      "interpolation": 0
     }
    ]
   },
   "perspective_c3_y": {
    "Points": [
     {
      "co": {
       "X": 1.0,
       "Y": -1.0
      },
      "handle_left": {
       "X": 0.5,
       "Y": 1.0
      },
      "handle_right": {
       "X": 0.5,
       "Y": 0.0
      },
      "handle_type": 0,
      "interpolation": 0
     }
    ]
   },
   "perspective_c4_x": {
    "Points": [
     {
      "co": {
       "X": 1.0,
       "Y": -1.0
      },
      "handle_left": {
       "X": 0.5,
       "Y": 1.0
      },
      "handle_right": {
       "X": 0.5,
       "Y": 0.0
      },
      "handle_type": 0,
      "interpolation": 0
     }
    ]
   },
   "perspective_c4_y": {
    "Points": [
     {
      "co": {
       "X": 1.0,
       "Y": -1.0
      },
      "handle_left": {
       "X": 0.5,
       "Y": 1.0
      },
      "handle_right": {
       "X": 0.5,
       "Y": 0.0
      },
      "handle_type": 0,
      "interpolation": 0
     }
    ]
   },
   "position": 381.3666666666667,
   "reader": {
    "acodec": "",
    "audio_bit_rate": 0,
    "audio_stream_index": -1,
    "audio_timebase": {
     "den": 1,
     "num": 1
    },
    "channel_layout": 4,
    "channels": 0,
    "display_ratio": {
     "den": 9,
     "num": 16
    },
    "duration": 29.299999237060547,
    "file_size": "22171814",
    "fps": {
     "den": 1,
     "num": 30
    },
    "has_audio": false,
    "has_single_image": false,
    "has_video": true,
    "height": 1080,
    "interlaced_frame": false,
    "metadata": {
     "compatible_brands": "mp41isom",
     "creation_time": "2024-05-23T18:03:41.000000Z",
     "encoder": "AVC Coding",
     "handler_name": "VideoHandler",
     "language": "und",
     "major_brand": "mp42",
     "minor_version": "0"
    },
    "path": "./Movie_010.mp4",
    "pixel_format": 0,
    "pixel_ratio": {
     "den": 1,
     "num": 1
    },
    "sample_rate": 0,
    "top_field_first": true,
    "type": "FFmpegReader",
    "vcodec": "h264",
    "video_bit_rate": 756717,
    "video_length": "879",
    "video_stream_index": 0,
    "video_timebase": {
     "den": 30000,
     "num": 1
    },
    "width": 1920,
    "media_type": "video",
    "id": "060OOJV333",
    "image": "Tutorial_assets/thumbnail/060OOJV333.png"
   },
   "rotation": {
    "Points": [
     {
      "co": {
       "X": 1.0,
       "Y": 0.0
      },
      "handle_left": {
       "X": 0.5,
       "Y": 1.0
      },
      "handle_right": {
       "X": 0.5,
       "Y": 0.0
      },
      "handle_type": 0,
      "interpolation": 0
     }
    ]
   },
   "scale": 1,
   "scale_x": {
    "Points": [
     {
      "co": {
       "X": 1.0,
       "Y": 1.0
      },
      "handle_left": {
       "X": 0.5,
       "Y": 1.0
      },
      "handle_right": {
       "X": 0.5,
       "Y": 0.0
      },
      "handle_type": 0,
      "interpolation": 0
     }
    ]
   },
   "scale_y": {
    "Points": [
     {
      "co": {
       "X": 1.0,
       "Y": 1.0
      },
      "handle_left": {
       "X": 0.5,
       "Y": 1.0
      },
      "handle_right": {
       "X": 0.5,
       "Y": 0.0
      },
      "handle_type": 0,
      "interpolation": 0
     }
    ]
   },
   "shear_x": {
    "Points": [
     {
      "co": {
       "X": 1.0,
       "Y": 0.0
      },
      "handle_left": {
       "X": 0.5,
       "Y": 1.0
      },
      "handle_right": {
       "X": 0.5,
       "Y": 0.0
      },
      "handle_type": 0,
      "interpolation": 0
     }
    ]
   },
   "shear_y": {
    "Points": [
     {
      "co": {
       "X": 1.0,
       "Y": 0.0
      },
      "handle_left": {
       "X": 0.5,
       "Y": 1.0
      },
      "handle_right": {
       "X": 0.5,
       "Y": 0.0
      },
      "handle_type": 0,
      "interpolation": 0
     }
    ]
   },
   "start": 6.233333333333344,
   "time": {
    "Points": [
     {
      "co": {
       "X": 1.0,
       "Y": 1.0
      },
      "handle_left": {
       "X": 0.5,
       "Y": 1.0
      },
      "handle_right": {
       "X": 0.5,
       "Y": 0.0
      },
      "handle_type": 0,
      "interpolation": 0
     }
    ]
   },
   "volume": {
    "Points": [
     {
      "co": {
       "X": 1.0,
       "Y": 1.0
      },
      "handle_left": {
       "X": 0.5,
       "Y": 1.0
      },
      "handle_right": {
       "X": 0.5,
       "Y": 0.0
      },
      "handle_type": 0,
      "interpolation": 0
     }
    ]
   },
   "wave_color": {
    "alpha": {
     "Points": [
      {
       "co": {
        "X": 1.0,
        "Y": 255.0
       },
       "handle_left": {
        "X": 0.5,
        "Y": 1.0
       },
       "handle_right": {
        "X": 0.5,
        "Y": 0.0
       },
       "handle_type": 0,
       "interpolation": 0
      }
     ]
    },
    "blue": {
     "Points": [
      {
       "co": {
        "X": 1.0,
        "Y": 255.0
       },
       "handle_left": {
        "X": 0.5,
        "Y": 1.0
       },
       "handle_right": {
        "X": 0.5,
        "Y": 0.0
       },
       "handle_type": 0,
       "interpolation": 0
      }
     ]
    },
    "green": {
     "Points": [
      {
       "co": {
        "X": 1.0,
        "Y": 123.0
       },
       "handle_left": {
        "X": 0.5,
        "Y": 1.0
       },
       "handle_right": {
        "X": 0.5,
        "Y": 0.0
       },
       "handle_type": 0,
       "interpolation": 0
      }
     ]
    },
    "red": {
     "Points": [
      {
       "co": {
        "X": 1.0,
        "Y": 0.0
       },
       "handle_left": {
        "X": 0.5,
        "Y": 1.0
       },
       "handle_right": {
        "X": 0.5,
        "Y": 0.0
       },
       "handle_type": 0,
       "interpolation": 0
      }
     ]
    }
   },
   "waveform": false,
   "file_id": "060OOJV333",
   "title": "Movie_010.mp4",
   "image": "Tutorial_assets/thumbnail/060OOJV333.png"
  },
  {
   "alpha": {
    "Points": [
     {
      "co": {
       "X": 1.0,
       "Y": 1.0
      },
      "handle_left": {
       "X": 0.5,
       "Y": 1.0
      },
      "handle_right": {
       "X": 0.5,
       "Y": 0.0
      },
      "handle_type": 0,
      "interpolation": 0
     }
    ]
   },
   "anchor": 0,
   "channel_filter": {
    "Points": [
     {
      "co": {
       "X": 1.0,
       "Y": -1.0
      },
      "handle_left": {
       "X": 0.5,
       "Y": 1.0
      },
      "handle_right": {
       "X": 0.5,
       "Y": 0.0
      },
      "handle_type": 0,
      "interpolation": 0
     }
    ]
   },
   "channel_mapping": {
    "Points": [
     {
      "co": {
       "X": 1.0,
       "Y": -1.0
      },
      "handle_left": {
       "X": 0.5,
       "Y": 1.0
      },
      "handle_right": {
       "X": 0.5,
       "Y": 0.0
      },
      "handle_type": 0,
      "interpolation": 0
     }
    ]
   },
   "display": 0,
   "duration": 3600.0,
   "effects": [],
   "end": 8.791666666666616,
   "gravity": 4,
   "has_audio": {
    "Points": [
     {
      "co": {
       "X": 1.0,
       "Y": -1.0
      },
      "handle_left": {
       "X": 0.5,
       "Y": 1.0
      },
      "handle_right": {
       "X": 0.5,
       "Y": 0.0
      },
      "handle_type": 0,
      "interpolation": 0
     }
    ]
   },
   "has_video": {
    "Points": [
     {
      "co": {
       "X": 1.0,
       "Y": -1.0
      },
      "handle_left": {
       "X": 0.5,
       "Y": 1.0
      },
      "handle_right": {
       "X": 0.5,
       "Y": 0.0
      },
      "handle_type": 0,
      "interpolation": 0
     }
    ]
   },
   "id": "C7TBANSCCI",
   "layer": 3000000,
   "location_x": {
    "Points": [
     {
      "co": {
       "X": 1,
       "Y": -0.33901195454028843
      },
      "handle_left": {
       "X": 0.5,
       "Y": 1.0
      },
      "handle_right": {
       "X": 0.5,
       "Y": 0.0
      },
      "handle_type": 0,
      "interpolation": 0
     }
    ]
   },
   "location_y": {
    "Points": [
     {
      "co": {
       "X": 1,
       "Y": -0.3439393639564514
      },
      "handle_left": {
       "X": 0.5,
       "Y": 1.0
      },
      "handle_right": {
       "X": 0.5,
       "Y": 0.0
      },
      "handle_type": 0,
      "interpolation": 0
     }
    ]
   },
   "mixing": 0,
   "origin_x": {
    "Points": [
     {
      "co": {
       "X": 1.0,
       "Y": 0.5
      },
      "handle_left": {
       "X": 0.5,
       "Y": 1.0
      },
      "handle_right": {
       "X": 0.5,
       "Y": 0.0
      },
      "handle_type": 0,
      "interpolation": 0
     }
    ]
   },
   "origin_y": {
    "Points": [
     {
      "co": {
       "X": 1.0,
       "Y": 0.5
      },
      "handle_left": {
       "X": 0.5,
       "Y": 1.0
      },
      "handle_right": {
       "X": 0.5,
       "Y": 0.0
      },
      "handle_type": 0,
      "interpolation": 0
     }
    ]
   },
   "parentObjectId": "",
   "perspective_c1_x": {
    "Points": [
     {
      "co": {
       "X": 1.0,
       "Y": -1.0
      },
      "handle_left": {
       "X": 0.5,
       "Y": 1.0
      },
      "handle_right": {
       "X": 0.5,
       "Y": 0.0
      },
      "handle_type": 0,
      "interpolation": 0
     }
    ]
   },
   "perspective_c1_y": {
    "Points": [
     {
      "co": {
       "X": 1.0,
       "Y": -1.0
      },
      "handle_left": {
       "X": 0.5,
       "Y": 1.0
      },
      "handle_right": {
       "X": 0.5,
       "Y": 0.0
      },
      "handle_type": 0,
      "interpolation": 0
     }
    ]
   },
   "perspective_c2_x": {
    "Points": [
     {
      "co": {
       "X": 1.0,
       "Y": -1.0
      },
      "handle_left": {
       "X": 0.5,
       "Y": 1.0
      },
      "handle_right": {
       "X": 0.5,
       "Y": 0.0
      },
      "handle_type": 0,
      "interpolation": 0
     }
    ]
   },
   "perspective_c2_y": {
    "Points": [
     {
      "co": {
       "X": 1.0,
       "Y": -1.0
      },
      "handle_left": {
       "X": 0.5,
       "Y": 1.0
      },
      "handle_right": {
       "X": 0.5,
       "Y": 0.0
      },
      "handle_type": 0,
      "interpolation": 0
     }
    ]
   },
   "perspective_c3_x": {
    "Points": [
     {
      "co": {
       "X": 1.0,
       "Y": -1.0
      },
      "handle_left": {
       "X": 0.5,
       "Y": 1.0
      },
      "handle_right": {
       "X": 0.5,
       "Y": 0.0
      },
      "handle_type": 0,
      "interpolation": 0
     }
    ]
   },
   "perspective_c3_y": {
    "Points": [
     {
      "co": {
       "X": 1.0,
       "Y": -1.0
      },
      "handle_left": {
       "X": 0.5,
       "Y": 1.0
      },
      "handle_right": {
       "X": 0.5,
       "Y": 0.0
      },
      "handle_type": 0,
      "interpolation": 0
     }
    ]
   },
   "perspective_c4_x": {
    "Points": [
     {
      "co": {
       "X": 1.0,
       "Y": -1.0
      },
      "handle_left": {
       "X": 0.5,
       "Y": 1.0
      },
      "handle_right": {
       "X": 0.5,
       "Y": 0.0
      },
      "handle_type": 0,
      "interpolation": 0
     }
    ]
   },
   "perspective_c4_y": {
    "Points": [
     {
      "co": {
       "X": 1.0,
       "Y": -1.0
      },
      "handle_left": {
       "X": 0.5,
       "Y": 1.0
      },
      "handle_right": {
       "X": 0.5,
       "Y": 0.0
      },
      "handle_type": 0,
      "interpolation": 0
     }
    ]
   },
   "position": 381.93333333333334,
   "reader": {
    "acodec": "",
    "audio_bit_rate": 0,
    "audio_stream_index": -1,
    "audio_timebase": {
     "den": 1,
     "num": 1
    },
    "channel_layout": 4,
    "channels": 0,
    "display_ratio": {
     "den": 96,
     "num": 217
    },
    "duration": 3600.0,
    "file_size": "1333248",
    "fps": {
     "den": 1,
     "num": 30
    },
    "has_audio": false,
    "has_single_image": true,
    "has_video": true,
    "height": 384,
    "interlaced_frame": false,
    "metadata": {},
    "path": "./drawing52.png",
    "pixel_format": -1,
    "pixel_ratio": {
     "den": 1,
     "num": 1
    },
    "sample_rate": 0,
    "top_field_first": true,
    "type": "QtImageReader",
    "vcodec": "",
    "video_bit_rate": 0,
    "video_length": "108000",
    "video_stream_index": -1,
    "video_timebase": {
     "den": 30,
     "num": 1
    },
    "width": 868,
    "media_type": "image",
    "id": "81KMWDZL1D",
    "image": "Tutorial_assets/thumbnail/81KMWDZL1D.png"
   },
   "rotation": {
    "Points": [
     {
      "co": {
       "X": 1.0,
       "Y": 0.0
      },
      "handle_left": {
       "X": 0.5,
       "Y": 1.0
      },
      "handle_right": {
       "X": 0.5,
       "Y": 0.0
      },
      "handle_type": 0,
      "interpolation": 0
     }
    ]
   },
   "scale": 1,
   "scale_x": {
    "Points": [
     {
      "co": {
       "X": 1,
       "Y": 0.2163543380555749
      },
      "handle_left": {
       "X": 0.5,
       "Y": 1.0
      },
      "handle_right": {
       "X": 0.5,
       "Y": 0.0
      },
      "handle_type": 0,
      "interpolation": 0
     }
    ]
   },
   "scale_y": {
    "Points": [
     {
      "co": {
       "X": 1,
       "Y": 0.2163543380555749
      },
      "handle_left": {
       "X": 0.5,
       "Y": 1.0
      },
      "handle_right": {
       "X": 0.5,
       "Y": 0.0
      },
      "handle_type": 0,
      "interpolation": 0
     }
    ]
   },
   "shear_x": {
    "Points": [
     {
      "co": {
       "X": 1.0,
       "Y": 0.0
      },
      "handle_left": {
       "X": 0.5,
       "Y": 1.0
      },
      "handle_right": {
       "X": 0.5,
       "Y": 0.0
      },
      "handle_type": 0,
      "interpolation": 0
     }
    ]
   },
   "shear_y": {
    "Points": [
     {
      "co": {
       "X": 1.0,
       "Y": 0.0
      },
      "handle_left": {
       "X": 0.5,
       "Y": 1.0
      },
      "handle_right": {
       "X": 0.5,
       "Y": 0.0
      },
      "handle_type": 0,
      "interpolation": 0
     }
    ]
   },
   "start": 0,
   "time": {
    "Points": [
     {
      "co": {
       "X": 1.0,
       "Y": 1.0
      },
      "handle_left": {
       "X": 0.5,
       "Y": 1.0
      },
      "handle_right": {
       "X": 0.5,
       "Y": 0.0
      },
      "handle_type": 0,
      "interpolation": 0
     }
    ]
   },
   "volume": {
    "Points": [
     {
      "co": {
       "X": 1.0,
       "Y": 1.0
      },
      "handle_left": {
       "X": 0.5,
       "Y": 1.0
      },
      "handle_right": {
       "X": 0.5,
       "Y": 0.0
      },
      "handle_type": 0,
      "interpolation": 0
     }
    ]
   },
   "wave_color": {
    "alpha": {
     "Points": [
      {
       "co": {
        "X": 1.0,
        "Y": 255.0
       },
       "handle_left": {
        "X": 0.5,
        "Y": 1.0
       },
       "handle_right": {
        "X": 0.5,
        "Y": 0.0
       },
       "handle_type": 0,
       "interpolation": 0
      }
     ]
    },
    "blue": {
     "Points": [
      {
       "co": {
        "X": 1.0,
        "Y": 255.0
       },
       "handle_left": {
        "X": 0.5,
        "Y": 1.0
       },
       "handle_right": {
        "X": 0.5,
        "Y": 0.0
       },
       "handle_type": 0,
       "interpolation": 0
      }
     ]
    },
    "green": {
     "Points": [
      {
       "co": {
        "X": 1.0,
        "Y": 123.0
       },
       "handle_left": {
        "X": 0.5,
        "Y": 1.0
       },
       "handle_right": {
        "X": 0.5,
        "Y": 0.0
       },
       "handle_type": 0,
       "interpolation": 0
      }
     ]
    },
    "red": {
     "Points": [
      {
       "co": {
        "X": 1.0,
        "Y": 0.0
       },
       "handle_left": {
        "X": 0.5,
        "Y": 1.0
       },
       "handle_right": {
        "X": 0.5,
        "Y": 0.0
       },
       "handle_type": 0,
       "interpolation": 0
      }
     ]
    }
   },
   "waveform": false,
   "file_id": "81KMWDZL1D",
   "title": "drawing52.png",
   "image": "Tutorial_assets/thumbnail/81KMWDZL1D.png"
  },
  {
   "alpha": {
    "Points": [
     {
      "co": {
       "X": 1.0,
       "Y": 1.0
      },
      "handle_left": {
       "X": 0.5,
       "Y": 1.0
      },
      "handle_right": {
       "X": 0.5,
       "Y": 0.0
      },
      "handle_type": 0,
      "interpolation": 0
     }
    ]
   },
   "anchor": 0,
   "channel_filter": {
    "Points": [
     {
      "co": {
       "X": 1.0,
       "Y": -1.0
      },
      "handle_left": {
       "X": 0.5,
       "Y": 1.0
      },
      "handle_right": {
       "X": 0.5,
       "Y": 0.0
      },
      "handle_type": 0,
      "interpolation": 0
     }
    ]
   },
   "channel_mapping": {
    "Points": [
     {
      "co": {
       "X": 1.0,
       "Y": -1.0
      },
      "handle_left": {
       "X": 0.5,
       "Y": 1.0
      },
      "handle_right": {
       "X": 0.5,
       "Y": 0.0
      },
      "handle_type": 0,
      "interpolation": 0
     }
    ]
   },
   "display": 0,
   "duration": 3600.0,
   "effects": [],
   "end": 8.058333333333302,
   "gravity": 4,
   "has_audio": {
    "Points": [
     {
      "co": {
       "X": 1.0,
       "Y": -1.0
      },
      "handle_left": {
       "X": 0.5,
       "Y": 1.0
      },
      "handle_right": {
       "X": 0.5,
       "Y": 0.0
      },
      "handle_type": 0,
      "interpolation": 0
     }
    ]
   },
   "has_video": {
    "Points": [
     {
      "co": {
       "X": 1.0,
       "Y": -1.0
      },
      "handle_left": {
       "X": 0.5,
       "Y": 1.0
      },
      "handle_right": {
       "X": 0.5,
       "Y": 0.0
      },
      "handle_type": 0,
      "interpolation": 0
     }
    ]
   },
   "id": "HGNO9OMFGD",
   "layer": 2000000,
   "location_x": {
    "Points": [
     {
      "co": {
       "X": 1,
       "Y": -0.27597952747060656
      },
      "handle_left": {
       "X": 0.5,
       "Y": 1.0
      },
      "handle_right": {
       "X": 0.5,
       "Y": 0.0
      },
      "handle_type": 0,
      "interpolation": 0
     }
    ]
   },
   "location_y": {
    "Points": [
     {
      "co": {
       "X": 1,
       "Y": -0.11818182468414307
      },
      "handle_left": {
       "X": 0.5,
       "Y": 1.0
      },
      "handle_right": {
       "X": 0.5,
       "Y": 0.0
      },
      "handle_type": 0,
      "interpolation": 0
     }
    ]
   },
   "mixing": 0,
   "origin_x": {
    "Points": [
     {
      "co": {
       "X": 1.0,
       "Y": 0.5
      },
      "handle_left": {
       "X": 0.5,
       "Y": 1.0
      },
      "handle_right": {
       "X": 0.5,
       "Y": 0.0
      },
      "handle_type": 0,
      "interpolation": 0
     }
    ]
   },
   "origin_y": {
    "Points": [
     {
      "co": {
       "X": 1.0,
       "Y": 0.5
      },
      "handle_left": {
       "X": 0.5,
       "Y": 1.0
      },
      "handle_right": {
       "X": 0.5,
       "Y": 0.0
      },
      "handle_type": 0,
      "interpolation": 0
     }
    ]
   },
   "parentObjectId": "",
   "perspective_c1_x": {
    "Points": [
     {
      "co": {
       "X": 1.0,
       "Y": -1.0
      },
      "handle_left": {
       "X": 0.5,
       "Y": 1.0
      },
      "handle_right": {
       "X": 0.5,
       "Y": 0.0
      },
      "handle_type": 0,
      "interpolation": 0
     }
    ]
   },
   "perspective_c1_y": {
    "Points": [
     {
      "co": {
       "X": 1.0,
       "Y": -1.0
      },
      "handle_left": {
       "X": 0.5,
       "Y": 1.0
      },
      "handle_right": {
       "X": 0.5,
       "Y": 0.0
      },
      "handle_type": 0,
      "interpolation": 0
     }
    ]
   },
   "perspective_c2_x": {
    "Points": [
     {
      "co": {
       "X": 1.0,
       "Y": -1.0
      },
      "handle_left": {
       "X": 0.5,
       "Y": 1.0
      },
      "handle_right": {
       "X": 0.5,
       "Y": 0.0
      },
      "handle_type": 0,
      "interpolation": 0
     }
    ]
   },
   "perspective_c2_y": {
    "Points": [
     {
      "co": {
       "X": 1.0,
       "Y": -1.0
      },
      "handle_left": {
       "X": 0.5,
       "Y": 1.0
      },
      "handle_right": {
       "X": 0.5,
       "Y": 0.0
      },
      "handle_type": 0,
      "interpolation": 0
     }
    ]
   },
   "perspective_c3_x": {
    "Points": [
     {
      "co": {
       "X": 1.0,
       "Y": -1.0
      },
      "handle_left": {
       "X": 0.5,
       "Y": 1.0
      },
      "handle_right": {
       "X": 0.5,
       "Y": 0.0
      },
      "handle_type": 0,
      "interpolation": 0
     }
    ]
   },
   "perspective_c3_y": {
    "Points": [
     {
      "co": {
       "X": 1.0,
       "Y": -1.0
      },
      "handle_left": {
       "X": 0.5,
       "Y": 1.0
      },
      "handle_right": {
       "X": 0.5,
       "Y": 0.0
      },
      "handle_type": 0,
      "interpolation": 0
     }
    ]
   },
   "perspective_c4_x": {
    "Points": [
     {
      "co": {
       "X": 1.0,
       "Y": -1.0
      },
      "handle_left": {
       "X": 0.5,
       "Y": 1.0
      },
      "handle_right": {
       "X": 0.5,
       "Y": 0.0
      },
      "handle_type": 0,
      "interpolation": 0
     }
    ]
   },
   "perspective_c4_y": {
    "Points": [
     {
      "co": {
       "X": 1.0,
       "Y": -1.0
      },
      "handle_left": {
       "X": 0.5,
       "Y": 1.0
      },
      "handle_right": {
       "X": 0.5,
       "Y": 0.0
      },
      "handle_type": 0,
      "interpolation": 0
     }
    ]
   },
   "position": 382.6666666666667,
   "reader": {
    "acodec": "",
    "audio_bit_rate": 0,
    "audio_stream_index": -1,
    "audio_timebase": {
     "den": 1,
     "num": 1
    },
    "channel_layout": 4,
    "channels": 0,
    "display_ratio": {
     "den": 637,
     "num": 1696
    },
    "duration": 3600.0,
    "file_size": "4321408",
    "fps": {
     "den": 1,
     "num": 30
    },
    "has_audio": false,
    "has_single_image": true,
    "has_video": true,
    "height": 637,
    "interlaced_frame": false,
    "metadata": {},
    "path": "./drawing55.png",
    "pixel_format": -1,
    "pixel_ratio": {
     "den": 1,
     "num": 1
    },
    "sample_rate": 0,
    "top_field_first": true,
    "type": "QtImageReader",
    "vcodec": "",
    "video_bit_rate": 0,
    "video_length": "108000",
    "video_stream_index": -1,
    "video_timebase": {
     "den": 30,
     "num": 1
    },
    "width": 1696,
    "media_type": "image",
    "id": "729F1CR9KV"
   },
   "rotation": {
    "Points": [
     {
      "co": {
       "X": 1.0,
       "Y": 0.0
      },
      "handle_left": {
       "X": 0.5,
       "Y": 1.0
      },
      "handle_right": {
       "X": 0.5,
       "Y": 0.0
      },
      "handle_type": 0,
      "interpolation": 0
     }
    ]
   },
   "scale": 1,
   "scale_x": {
    "Points": [
     {
      "co": {
       "X": 1,
       "Y": 0.3373081765345455
      },
      "handle_left": {
       "X": 0.5,
       "Y": 1.0
      },
      "handle_right": {
       "X": 0.5,
       "Y": 0.0
      },
      "handle_type": 0,
      "interpolation": 0
     }
    ]
   },
   "scale_y": {
    "Points": [
     {
      "co": {
       "X": 1,
       "Y": 0.3373081765345455
      },
      "handle_left": {
       "X": 0.5,
       "Y": 1.0
      },
      "handle_right": {
       "X": 0.5,
       "Y": 0.0
      },
      "handle_type": 0,
      "interpolation": 0
     }
    ]
   },
   "shear_x": {
    "Points": [
     {
      "co": {
       "X": 1.0,
       "Y": 0.0
      },
      "handle_left": {
       "X": 0.5,
       "Y": 1.0
      },
      "handle_right": {
       "X": 0.5,
       "Y": 0.0
      },
      "handle_type": 0,
      "interpolation": 0
     }
    ]
   },
   "shear_y": {
    "Points": [
     {
      "co": {
       "X": 1.0,
       "Y": 0.0
      },
      "handle_left": {
       "X": 0.5,
       "Y": 1.0
      },
      "handle_right": {
       "X": 0.5,
       "Y": 0.0
      },
      "handle_type": 0,
      "interpolation": 0
     }
    ]
   },
   "start": 0,
   "time": {
    "Points": [
     {
      "co": {
       "X": 1.0,
       "Y": 1.0
      },
      "handle_left": {
       "X": 0.5,
       "Y": 1.0
      },
      "handle_right": {
       "X": 0.5,
       "Y": 0.0
      },
      "handle_type": 0,
      "interpolation": 0
     }
    ]
   },
   "volume": {
    "Points": [
     {
      "co": {
       "X": 1.0,
       "Y": 1.0
      },
      "handle_left": {
       "X": 0.5,
       "Y": 1.0
      },
      "handle_right": {
       "X": 0.5,
       "Y": 0.0
      },
      "handle_type": 0,
      "interpolation": 0
     }
    ]
   },
   "wave_color": {
    "alpha": {
     "Points": [
      {
       "co": {
        "X": 1.0,
        "Y": 255.0
       },
       "handle_left": {
        "X": 0.5,
        "Y": 1.0
       },
       "handle_right": {
        "X": 0.5,
        "Y": 0.0
       },
       "handle_type": 0,
       "interpolation": 0
      }
     ]
    },
    "blue": {
     "Points": [
      {
       "co": {
        "X": 1.0,
        "Y": 255.0
       },
       "handle_left": {
        "X": 0.5,
        "Y": 1.0
       },
       "handle_right": {
        "X": 0.5,
        "Y": 0.0
       },
       "handle_type": 0,
       "interpolation": 0
      }
     ]
    },
    "green": {
     "Points": [
      {
       "co": {
        "X": 1.0,
        "Y": 123.0
       },
       "handle_left": {
        "X": 0.5,
        "Y": 1.0
       },
       "handle_right": {
        "X": 0.5,
        "Y": 0.0
       },
       "handle_type": 0,
       "interpolation": 0
      }
     ]
    },
    "red": {
     "Points": [
      {
       "co": {
        "X": 1.0,
        "Y": 0.0
       },
       "handle_left": {
        "X": 0.5,
        "Y": 1.0
       },
       "handle_right": {
        "X": 0.5,
        "Y": 0.0
       },
       "handle_type": 0,
       "interpolation": 0
      }
     ]
    }
   },
   "waveform": false,
   "file_id": "729F1CR9KV",
   "title": "drawing55.png",
   "image": "Tutorial_assets/thumbnail/729F1CR9KV.png"
  },
  {
   "alpha": {
    "Points": [
     {
      "co": {
       "X": 1.0,
       "Y": 1.0
      },
      "handle_left": {
       "X": 0.5,
       "Y": 1.0
      },
      "handle_right": {
       "X": 0.5,
       "Y": 0.0
      },
      "handle_type": 0,
      "interpolation": 0
     }
    ]
   },
   "anchor": 0,
   "channel_filter": {
    "Points": [
     {
      "co": {
       "X": 1.0,
       "Y": -1.0
      },
      "handle_left": {
       "X": 0.5,
       "Y": 1.0
      },
      "handle_right": {
       "X": 0.5,
       "Y": 0.0
      },
      "handle_type": 0,
      "interpolation": 0
     }
    ]
   },
   "channel_mapping": {
    "Points": [
     {
      "co": {
       "X": 1.0,
       "Y": -1.0
      },
      "handle_left": {
       "X": 0.5,
       "Y": 1.0
      },
      "handle_right": {
       "X": 0.5,
       "Y": 0.0
      },
      "handle_type": 0,
      "interpolation": 0
     }
    ]
   },
   "display": 0,
   "duration": 3600.0,
   "effects": [],
   "end": 12.93333333333329,
   "gravity": 4,
   "has_audio": {
    "Points": [
     {
      "co": {
       "X": 1.0,
       "Y": -1.0
      },
      "handle_left": {
       "X": 0.5,
       "Y": 1.0
      },
      "handle_right": {
       "X": 0.5,
       "Y": 0.0
      },
      "handle_type": 0,
      "interpolation": 0
     }
    ]
   },
   "has_video": {
    "Points": [
     {
      "co": {
       "X": 1.0,
       "Y": -1.0
      },
      "handle_left": {
       "X": 0.5,
       "Y": 1.0
      },
      "handle_right": {
       "X": 0.5,
       "Y": 0.0
      },
      "handle_type": 0,
      "interpolation": 0
     }
    ]
   },
   "id": "XWONV67CFX",
   "layer": 2000000,
   "location_x": {
    "Points": [
     {
      "co": {
       "X": 1.0,
       "Y": 0.0
      },
      "handle_left": {
       "X": 0.5,
       "Y": 1.0
      },
      "handle_right": {
       "X": 0.5,
       "Y": 0.0
      },
      "handle_type": 0,
      "interpolation": 0
     }
    ]
   },
   "location_y": {
    "Points": [
     {
      "co": {
       "X": 1.0,
       "Y": 0.0
      },
      "handle_left": {
       "X": 0.5,
       "Y": 1.0
      },
      "handle_right": {
       "X": 0.5,
       "Y": 0.0
      },
      "handle_type": 0,
      "interpolation": 0
     }
    ]
   },
   "mixing": 0,
   "origin_x": {
    "Points": [
     {
      "co": {
       "X": 1.0,
       "Y": 0.5
      },
      "handle_left": {
       "X": 0.5,
       "Y": 1.0
      },
      "handle_right": {
       "X": 0.5,
       "Y": 0.0
      },
      "handle_type": 0,
      "interpolation": 0
     }
    ]
   },
   "origin_y": {
    "Points": [
     {
      "co": {
       "X": 1.0,
       "Y": 0.5
      },
      "handle_left": {
       "X": 0.5,
       "Y": 1.0
      },
      "handle_right": {
       "X": 0.5,
       "Y": 0.0
      },
      "handle_type": 0,
      "interpolation": 0
     }
    ]
   },
   "parentObjectId": "",
   "perspective_c1_x": {
    "Points": [
     {
      "co": {
       "X": 1.0,
       "Y": -1.0
      },
      "handle_left": {
       "X": 0.5,
       "Y": 1.0
      },
      "handle_right": {
       "X": 0.5,
       "Y": 0.0
      },
      "handle_type": 0,
      "interpolation": 0
     }
    ]
   },
   "perspective_c1_y": {
    "Points": [
     {
      "co": {
       "X": 1.0,
       "Y": -1.0
      },
      "handle_left": {
       "X": 0.5,
       "Y": 1.0
      },
      "handle_right": {
       "X": 0.5,
       "Y": 0.0
      },
      "handle_type": 0,
      "interpolation": 0
     }
    ]
   },
   "perspective_c2_x": {
    "Points": [
     {
      "co": {
       "X": 1.0,
       "Y": -1.0
      },
      "handle_left": {
       "X": 0.5,
       "Y": 1.0
      },
      "handle_right": {
       "X": 0.5,
       "Y": 0.0
      },
      "handle_type": 0,
      "interpolation": 0
     }
    ]
   },
   "perspective_c2_y": {
    "Points": [
     {
      "co": {
       "X": 1.0,
       "Y": -1.0
      },
      "handle_left": {
       "X": 0.5,
       "Y": 1.0
      },
      "handle_right": {
       "X": 0.5,
       "Y": 0.0
      },
      "handle_type": 0,
      "interpolation": 0
     }
    ]
   },
   "perspective_c3_x": {
    "Points": [
     {
      "co": {
       "X": 1.0,
       "Y": -1.0
      },
      "handle_left": {
       "X": 0.5,
       "Y": 1.0
      },
      "handle_right": {
       "X": 0.5,
       "Y": 0.0
      },
      "handle_type": 0,
      "interpolation": 0
     }
    ]
   },
   "perspective_c3_y": {
    "Points": [
     {
      "co": {
       "X": 1.0,
       "Y": -1.0
      },
      "handle_left": {
       "X": 0.5,
       "Y": 1.0
      },
      "handle_right": {
       "X": 0.5,
       "Y": 0.0
      },
      "handle_type": 0,
      "interpolation": 0
     }
    ]
   },
   "perspective_c4_x": {
    "Points": [
     {
      "co": {
       "X": 1.0,
       "Y": -1.0
      },
      "handle_left": {
       "X": 0.5,
       "Y": 1.0
      },
      "handle_right": {
       "X": 0.5,
       "Y": 0.0
      },
      "handle_type": 0,
      "interpolation": 0
     }
    ]
   },
   "perspective_c4_y": {
    "Points": [
     {
      "co": {
       "X": 1.0,
       "Y": -1.0
      },
      "handle_left": {
       "X": 0.5,
       "Y": 1.0
      },
      "handle_right": {
       "X": 0.5,
       "Y": 0.0
      },
      "handle_type": 0,
      "interpolation": 0
     }
    ]
   },
   "position": 403.3,
   "reader": {
    "acodec": "",
    "audio_bit_rate": 0,
    "audio_stream_index": -1,
    "audio_timebase": {
     "den": 1,
     "num": 1
    },
    "channel_layout": 4,
    "channels": 0,
    "display_ratio": {
     "den": 779,
     "num": 2464
    },
    "duration": 3600.0,
    "file_size": "7677824",
    "fps": {
     "den": 1,
     "num": 30
    },
    "has_audio": false,
    "has_single_image": true,
    "has_video": true,
    "height": 779,
    "interlaced_frame": false,
    "metadata": {},
    "path": "./drawing56.png",
    "pixel_format": -1,
    "pixel_ratio": {
     "den": 1,
     "num": 1
    },
    "sample_rate": 0,
    "top_field_first": true,
    "type": "QtImageReader",
    "vcodec": "",
    "video_bit_rate": 0,
    "video_length": "108000",
    "video_stream_index": -1,
    "video_timebase": {
     "den": 30,
     "num": 1
    },
    "width": 2464,
    "media_type": "image",
    "id": "M687P7KCPL"
   },
   "rotation": {
    "Points": [
     {
      "co": {
       "X": 1.0,
       "Y": 0.0
      },
      "handle_left": {
       "X": 0.5,
       "Y": 1.0
      },
      "handle_right": {
       "X": 0.5,
       "Y": 0.0
      },
      "handle_type": 0,
      "interpolation": 0
     }
    ]
   },
   "scale": 1,
   "scale_x": {
    "Points": [
     {
      "co": {
       "X": 1,
       "Y": 0.623509432327199
      },
      "handle_left": {
       "X": 0.5,
       "Y": 1.0
      },
      "handle_right": {
       "X": 0.5,
       "Y": 0.0
      },
      "handle_type": 0,
      "interpolation": 0
     }
    ]
   },
   "scale_y": {
    "Points": [
     {
      "co": {
       "X": 1,
       "Y": 0.623509432327199
      },
      "handle_left": {
       "X": 0.5,
       "Y": 1.0
      },
      "handle_right": {
       "X": 0.5,
       "Y": 0.0
      },
      "handle_type": 0,
      "interpolation": 0
     }
    ]
   },
   "shear_x": {
    "Points": [
     {
      "co": {
       "X": 1.0,
       "Y": 0.0
      },
      "handle_left": {
       "X": 0.5,
       "Y": 1.0
      },
      "handle_right": {
       "X": 0.5,
       "Y": 0.0
      },
      "handle_type": 0,
      "interpolation": 0
     }
    ]
   },
   "shear_y": {
    "Points": [
     {
      "co": {
       "X": 1.0,
       "Y": 0.0
      },
      "handle_left": {
       "X": 0.5,
       "Y": 1.0
      },
      "handle_right": {
       "X": 0.5,
       "Y": 0.0
      },
      "handle_type": 0,
      "interpolation": 0
     }
    ]
   },
   "start": 0,
   "time": {
    "Points": [
     {
      "co": {
       "X": 1.0,
       "Y": 1.0
      },
      "handle_left": {
       "X": 0.5,
       "Y": 1.0
      },
      "handle_right": {
       "X": 0.5,
       "Y": 0.0
      },
      "handle_type": 0,
      "interpolation": 0
     }
    ]
   },
   "volume": {
    "Points": [
     {
      "co": {
       "X": 1.0,
       "Y": 1.0
      },
      "handle_left": {
       "X": 0.5,
       "Y": 1.0
      },
      "handle_right": {
       "X": 0.5,
       "Y": 0.0
      },
      "handle_type": 0,
      "interpolation": 0
     }
    ]
   },
   "wave_color": {
    "alpha": {
     "Points": [
      {
       "co": {
        "X": 1.0,
        "Y": 255.0
       },
       "handle_left": {
        "X": 0.5,
        "Y": 1.0
       },
       "handle_right": {
        "X": 0.5,
        "Y": 0.0
       },
       "handle_type": 0,
       "interpolation": 0
      }
     ]
    },
    "blue": {
     "Points": [
      {
       "co": {
        "X": 1.0,
        "Y": 255.0
       },
       "handle_left": {
        "X": 0.5,
        "Y": 1.0
       },
       "handle_right": {
        "X": 0.5,
        "Y": 0.0
       },
       "handle_type": 0,
       "interpolation": 0
      }
     ]
    },
    "green": {
     "Points": [
      {
       "co": {
        "X": 1.0,
        "Y": 123.0
       },
       "handle_left": {
        "X": 0.5,
        "Y": 1.0
       },
       "handle_right": {
        "X": 0.5,
        "Y": 0.0
       },
       "handle_type": 0,
       "interpolation": 0
      }
     ]
    },
    "red": {
     "Points": [
      {
       "co": {
        "X": 1.0,
        "Y": 0.0
       },
       "handle_left": {
        "X": 0.5,
        "Y": 1.0
       },
       "handle_right": {
        "X": 0.5,
        "Y": 0.0
       },
       "handle_type": 0,
       "interpolation": 0
      }
     ]
    }
   },
   "waveform": false,
   "file_id": "M687P7KCPL",
   "title": "drawing56.png",
   "image": "Tutorial_assets/thumbnail/M687P7KCPL.png"
  },
  {
   "alpha": {
    "Points": [
     {
      "co": {
       "X": 1.0,
       "Y": 1.0
      },
      "handle_left": {
       "X": 0.5,
       "Y": 1.0
      },
      "handle_right": {
       "X": 0.5,
       "Y": 0.0
      },
      "handle_type": 0,
      "interpolation": 0
     }
    ]
   },
   "anchor": 0,
   "channel_filter": {
    "Points": [
     {
      "co": {
       "X": 1.0,
       "Y": -1.0
      },
      "handle_left": {
       "X": 0.5,
       "Y": 1.0
      },
      "handle_right": {
       "X": 0.5,
       "Y": 0.0
      },
      "handle_type": 0,
      "interpolation": 0
     }
    ]
   },
   "channel_mapping": {
    "Points": [
     {
      "co": {
       "X": 1.0,
       "Y": -1.0
      },
      "handle_left": {
       "X": 0.5,
       "Y": 1.0
      },
      "handle_right": {
       "X": 0.5,
       "Y": 0.0
      },
      "handle_type": 0,
      "interpolation": 0
     }
    ]
   },
   "display": 0,
   "duration": 3600.0,
   "effects": [],
   "end": 18.541666666666682,
   "gravity": 4,
   "has_audio": {
    "Points": [
     {
      "co": {
       "X": 1.0,
       "Y": -1.0
      },
      "handle_left": {
       "X": 0.5,
       "Y": 1.0
      },
      "handle_right": {
       "X": 0.5,
       "Y": 0.0
      },
      "handle_type": 0,
      "interpolation": 0
     }
    ]
   },
   "has_video": {
    "Points": [
     {
      "co": {
       "X": 1.0,
       "Y": -1.0
      },
      "handle_left": {
       "X": 0.5,
       "Y": 1.0
      },
      "handle_right": {
       "X": 0.5,
       "Y": 0.0
      },
      "handle_type": 0,
      "interpolation": 0
     }
    ]
   },
   "id": "V6EGJQZ2F7",
   "layer": 3000000,
   "location_x": {
    "Points": [
     {
      "co": {
       "X": 1,
       "Y": 0.0017035776508093083
      },
      "handle_left": {
       "X": 0.5,
       "Y": 1.0
      },
      "handle_right": {
       "X": 0.5,
       "Y": 0.0
      },
      "handle_type": 0,
      "interpolation": 0
     }
    ]
   },
   "location_y": {
    "Points": [
     {
      "co": {
       "X": 1,
       "Y": -0.31818175315856934
      },
      "handle_left": {
       "X": 0.5,
       "Y": 1.0
      },
      "handle_right": {
       "X": 0.5,
       "Y": 0.0
      },
      "handle_type": 0,
      "interpolation": 0
     }
    ]
   },
   "mixing": 0,
   "origin_x": {
    "Points": [
     {
      "co": {
       "X": 1.0,
       "Y": 0.5
      },
      "handle_left": {
       "X": 0.5,
       "Y": 1.0
      },
      "handle_right": {
       "X": 0.5,
       "Y": 0.0
      },
      "handle_type": 0,
      "interpolation": 0
     }
    ]
   },
   "origin_y": {
    "Points": [
     {
      "co": {
       "X": 1.0,
       "Y": 0.5
      },
      "handle_left": {
       "X": 0.5,
       "Y": 1.0
      },
      "handle_right": {
       "X": 0.5,
       "Y": 0.0
      },
      "handle_type": 0,
      "interpolation": 0
     }
    ]
   },
   "parentObjectId": "",
   "perspective_c1_x": {
    "Points": [
     {
      "co": {
       "X": 1.0,
       "Y": -1.0
      },
      "handle_left": {
       "X": 0.5,
       "Y": 1.0
      },
      "handle_right": {
       "X": 0.5,
       "Y": 0.0
      },
      "handle_type": 0,
      "interpolation": 0
     }
    ]
   },
   "perspective_c1_y": {
    "Points": [
     {
      "co": {
       "X": 1.0,
       "Y": -1.0
      },
      "handle_left": {
       "X": 0.5,
       "Y": 1.0
      },
      "handle_right": {
       "X": 0.5,
       "Y": 0.0
      },
      "handle_type": 0,
      "interpolation": 0
     }
    ]
   },
   "perspective_c2_x": {
    "Points": [
     {
      "co": {
       "X": 1.0,
       "Y": -1.0
      },
      "handle_left": {
       "X": 0.5,
       "Y": 1.0
      },
      "handle_right": {
       "X": 0.5,
       "Y": 0.0
      },
      "handle_type": 0,
      "interpolation": 0
     }
    ]
   },
   "perspective_c2_y": {
    "Points": [
     {
      "co": {
       "X": 1.0,
       "Y": -1.0
      },
      "handle_left": {
       "X": 0.5,
       "Y": 1.0
      },
      "handle_right": {
       "X": 0.5,
       "Y": 0.0
      },
      "handle_type": 0,
      "interpolation": 0
     }
    ]
   },
   "perspective_c3_x": {
    "Points": [
     {
      "co": {
       "X": 1.0,
       "Y": -1.0
      },
      "handle_left": {
       "X": 0.5,
       "Y": 1.0
      },
      "handle_right": {
       "X": 0.5,
       "Y": 0.0
      },
      "handle_type": 0,
      "interpolation": 0
     }
    ]
   },
   "perspective_c3_y": {
    "Points": [
     {
      "co": {
       "X": 1.0,
       "Y": -1.0
      },
      "handle_left": {
       "X": 0.5,
       "Y": 1.0
      },
      "handle_right": {
       "X": 0.5,
       "Y": 0.0
      },
      "handle_type": 0,
      "interpolation": 0
     }
    ]
   },
   "perspective_c4_x": {
    "Points": [
     {
      "co": {
       "X": 1.0,
       "Y": -1.0
      },
      "handle_left": {
       "X": 0.5,
       "Y": 1.0
      },
      "handle_right": {
       "X": 0.5,
       "Y": 0.0
      },
      "handle_type": 0,
      "interpolation": 0
     }
    ]
   },
   "perspective_c4_y": {
    "Points": [
     {
      "co": {
       "X": 1.0,
       "Y": -1.0
      },
      "handle_left": {
       "X": 0.5,
       "Y": 1.0
      },
      "handle_right": {
       "X": 0.5,
       "Y": 0.0
      },
      "handle_type": 0,
      "interpolation": 0
     }
    ]
   },
   "position": 402.325,
   "reader": {
    "acodec": "",
    "audio_bit_rate": 0,
    "audio_stream_index": -1,
    "audio_timebase": {
     "den": 1,
     "num": 1
    },
    "channel_layout": 4,
    "channels": 0,
    "display_ratio": {
     "den": 96,
     "num": 217
    },
    "duration": 3600.0,
    "file_size": "1333248",
    "fps": {
     "den": 1,
     "num": 30
    },
    "has_audio": false,
    "has_single_image": true,
    "has_video": true,
    "height": 384,
    "interlaced_frame": false,
    "metadata": {},
    "path": "./drawing53.png",
    "pixel_format": -1,
    "pixel_ratio": {
     "den": 1,
     "num": 1
    },
    "sample_rate": 0,
    "top_field_first": true,
    "type": "QtImageReader",
    "vcodec": "",
    "video_bit_rate": 0,
    "video_length": "108000",
    "video_stream_index": -1,
    "video_timebase": {
     "den": 30,
     "num": 1
    },
    "width": 868,
    "media_type": "image",
    "id": "XPPXU2ZB06",
    "image": "Tutorial_assets/thumbnail/XPPXU2ZB06.png"
   },
   "rotation": {
    "Points": [
     {
      "co": {
       "X": 1.0,
       "Y": 0.0
      },
      "handle_left": {
       "X": 0.5,
       "Y": 1.0
      },
      "handle_right": {
       "X": 0.5,
       "Y": 0.0
      },
      "handle_type": 0,
      "interpolation": 0
     }
    ]
   },
   "scale": 1,
   "scale_x": {
    "Points": [
     {
      "co": {
       "X": 1,
       "Y": 0.27768318129154446
      },
      "handle_left": {
       "X": 0.5,
       "Y": 1.0
      },
      "handle_right": {
       "X": 0.5,
       "Y": 0.0
      },
      "handle_type": 0,
      "interpolation": 0
     }
    ]
   },
   "scale_y": {
    "Points": [
     {
      "co": {
       "X": 1,
       "Y": 0.27768318129154446
      },
      "handle_left": {
       "X": 0.5,
       "Y": 1.0
      },
      "handle_right": {
       "X": 0.5,
       "Y": 0.0
      },
      "handle_type": 0,
      "interpolation": 0
     }
    ]
   },
   "shear_x": {
    "Points": [
     {
      "co": {
       "X": 1.0,
       "Y": 0.0
      },
      "handle_left": {
       "X": 0.5,
       "Y": 1.0
      },
      "handle_right": {
       "X": 0.5,
       "Y": 0.0
      },
      "handle_type": 0,
      "interpolation": 0
     }
    ]
   },
   "shear_y": {
    "Points": [
     {
      "co": {
       "X": 1.0,
       "Y": 0.0
      },
      "handle_left": {
       "X": 0.5,
       "Y": 1.0
      },
      "handle_right": {
       "X": 0.5,
       "Y": 0.0
      },
      "handle_type": 0,
      "interpolation": 0
     }
    ]
   },
   "start": 0,
   "time": {
    "Points": [
     {
      "co": {
       "X": 1.0,
       "Y": 1.0
      },
      "handle_left": {
       "X": 0.5,
       "Y": 1.0
      },
      "handle_right": {
       "X": 0.5,
       "Y": 0.0
      },
      "handle_type": 0,
      "interpolation": 0
     }
    ]
   },
   "volume": {
    "Points": [
     {
      "co": {
       "X": 1.0,
       "Y": 1.0
      },
      "handle_left": {
       "X": 0.5,
       "Y": 1.0
      },
      "handle_right": {
       "X": 0.5,
       "Y": 0.0
      },
      "handle_type": 0,
      "interpolation": 0
     }
    ]
   },
   "wave_color": {
    "alpha": {
     "Points": [
      {
       "co": {
        "X": 1.0,
        "Y": 255.0
       },
       "handle_left": {
        "X": 0.5,
        "Y": 1.0
       },
       "handle_right": {
        "X": 0.5,
        "Y": 0.0
       },
       "handle_type": 0,
       "interpolation": 0
      }
     ]
    },
    "blue": {
     "Points": [
      {
       "co": {
        "X": 1.0,
        "Y": 255.0
       },
       "handle_left": {
        "X": 0.5,
        "Y": 1.0
       },
       "handle_right": {
        "X": 0.5,
        "Y": 0.0
       },
       "handle_type": 0,
       "interpolation": 0
      }
     ]
    },
    "green": {
     "Points": [
      {
       "co": {
        "X": 1.0,
        "Y": 123.0
       },
       "handle_left": {
        "X": 0.5,
        "Y": 1.0
       },
       "handle_right": {
        "X": 0.5,
        "Y": 0.0
       },
       "handle_type": 0,
       "interpolation": 0
      }
     ]
    },
    "red": {
     "Points": [
      {
       "co": {
        "X": 1.0,
        "Y": 0.0
       },
       "handle_left": {
        "X": 0.5,
        "Y": 1.0
       },
       "handle_right": {
        "X": 0.5,
        "Y": 0.0
       },
       "handle_type": 0,
       "interpolation": 0
      }
     ]
    }
   },
   "waveform": false,
   "file_id": "XPPXU2ZB06",
   "title": "drawing53.png",
   "image": "Tutorial_assets/thumbnail/XPPXU2ZB06.png"
  },
  {
   "alpha": {
    "Points": [
     {
      "co": {
       "X": 1.0,
       "Y": 1.0
      },
      "handle_left": {
       "X": 0.5,
       "Y": 1.0
      },
      "handle_right": {
       "X": 0.5,
       "Y": 0.0
      },
      "handle_type": 0,
      "interpolation": 0
     }
    ]
   },
   "anchor": 0,
   "channel_filter": {
    "Points": [
     {
      "co": {
       "X": 1.0,
       "Y": -1.0
      },
      "handle_left": {
       "X": 0.5,
       "Y": 1.0
      },
      "handle_right": {
       "X": 0.5,
       "Y": 0.0
      },
      "handle_type": 0,
      "interpolation": 0
     }
    ]
   },
   "channel_mapping": {
    "Points": [
     {
      "co": {
       "X": 1.0,
       "Y": -1.0
      },
      "handle_left": {
       "X": 0.5,
       "Y": 1.0
      },
      "handle_right": {
       "X": 0.5,
       "Y": 0.0
      },
      "handle_type": 0,
      "interpolation": 0
     }
    ]
   },
   "display": 0,
   "duration": 3600.0,
   "effects": [],
   "end": 6.299999999999878,
   "gravity": 4,
   "has_audio": {
    "Points": [
     {
      "co": {
       "X": 1.0,
       "Y": -1.0
      },
      "handle_left": {
       "X": 0.5,
       "Y": 1.0
      },
      "handle_right": {
       "X": 0.5,
       "Y": 0.0
      },
      "handle_type": 0,
      "interpolation": 0
     }
    ]
   },
   "has_video": {
    "Points": [
     {
      "co": {
       "X": 1.0,
       "Y": -1.0
      },
      "handle_left": {
       "X": 0.5,
       "Y": 1.0
      },
      "handle_right": {
       "X": 0.5,
       "Y": 0.0
      },
      "handle_type": 0,
      "interpolation": 0
     }
    ]
   },
   "id": "K9I37KWPT1",
   "layer": 1000000,
   "location_x": {
    "Points": [
     {
      "co": {
       "X": 1,
       "Y": -0.002555366687427451
      },
      "handle_left": {
       "X": 0.5,
       "Y": 1.0
      },
      "handle_right": {
       "X": 0.5,
       "Y": 0.0
      },
      "handle_type": 0,
      "interpolation": 0
     }
    ]
   },
   "location_y": {
    "Points": [
     {
      "co": {
       "X": 1,
       "Y": 0.33636361360549927
      },
      "handle_left": {
       "X": 0.5,
       "Y": 1.0
      },
      "handle_right": {
       "X": 0.5,
       "Y": 0.0
      },
      "handle_type": 0,
      "interpolation": 0
     }
    ]
   },
   "mixing": 0,
   "origin_x": {
    "Points": [
     {
      "co": {
       "X": 1.0,
       "Y": 0.5
      },
      "handle_left": {
       "X": 0.5,
       "Y": 1.0
      },
      "handle_right": {
       "X": 0.5,
       "Y": 0.0
      },
      "handle_type": 0,
      "interpolation": 0
     }
    ]
   },
   "origin_y": {
    "Points": [
     {
      "co": {
       "X": 1.0,
       "Y": 0.5
      },
      "handle_left": {
       "X": 0.5,
       "Y": 1.0
      },
      "handle_right": {
       "X": 0.5,
       "Y": 0.0
      },
      "handle_type": 0,
      "interpolation": 0
     }
    ]
   },
   "parentObjectId": "",
   "perspective_c1_x": {
    "Points": [
     {
      "co": {
       "X": 1.0,
       "Y": -1.0
      },
      "handle_left": {
       "X": 0.5,
       "Y": 1.0
      },
      "handle_right": {
       "X": 0.5,
       "Y": 0.0
      },
      "handle_type": 0,
      "interpolation": 0
     }
    ]
   },
   "perspective_c1_y": {
    "Points": [
     {
      "co": {
       "X": 1.0,
       "Y": -1.0
      },
      "handle_left": {
       "X": 0.5,
       "Y": 1.0
      },
      "handle_right": {
       "X": 0.5,
       "Y": 0.0
      },
      "handle_type": 0,
      "interpolation": 0
     }
    ]
   },
   "perspective_c2_x": {
    "Points": [
     {
      "co": {
       "X": 1.0,
       "Y": -1.0
      },
      "handle_left": {
       "X": 0.5,
       "Y": 1.0
      },
      "handle_right": {
       "X": 0.5,
       "Y": 0.0
      },
      "handle_type": 0,
      "interpolation": 0
     }
    ]
   },
   "perspective_c2_y": {
    "Points": [
     {
      "co": {
       "X": 1.0,
       "Y": -1.0
      },
      "handle_left": {
       "X": 0.5,
       "Y": 1.0
      },
      "handle_right": {
       "X": 0.5,
       "Y": 0.0
      },
      "handle_type": 0,
      "interpolation": 0
     }
    ]
   },
   "perspective_c3_x": {
    "Points": [
     {
      "co": {
       "X": 1.0,
       "Y": -1.0
      },
      "handle_left": {
       "X": 0.5,
       "Y": 1.0
      },
      "handle_right": {
       "X": 0.5,
       "Y": 0.0
      },
      "handle_type": 0,
      "interpolation": 0
     }
    ]
   },
   "perspective_c3_y": {
    "Points": [
     {
      "co": {
       "X": 1.0,
       "Y": -1.0
      },
      "handle_left": {
       "X": 0.5,
       "Y": 1.0
      },
      "handle_right": {
       "X": 0.5,
       "Y": 0.0
      },
      "handle_type": 0,
      "interpolation": 0
     }
    ]
   },
   "perspective_c4_x": {
    "Points": [
     {
      "co": {
       "X": 1.0,
       "Y": -1.0
      },
      "handle_left": {
       "X": 0.5,
       "Y": 1.0
      },
      "handle_right": {
       "X": 0.5,
       "Y": 0.0
      },
      "handle_type": 0,
      "interpolation": 0
     }
    ]
   },
   "perspective_c4_y": {
    "Points": [
     {
      "co": {
       "X": 1.0,
       "Y": -1.0
      },
      "handle_left": {
       "X": 0.5,
       "Y": 1.0
      },
      "handle_right": {
       "X": 0.5,
       "Y": 0.0
      },
      "handle_type": 0,
      "interpolation": 0
     }
    ]
   },
   "position": 409.93333333333334,
   "reader": {
    "acodec": "",
    "audio_bit_rate": 0,
    "audio_stream_index": -1,
    "audio_timebase": {
     "den": 1,
     "num": 1
    },
    "channel_layout": 4,
    "channels": 0,
    "display_ratio": {
     "den": 528,
     "num": 2311
    },
    "duration": 3600.0,
    "file_size": "4880832",
    "fps": {
     "den": 1,
     "num": 30
    },
    "has_audio": false,
    "has_single_image": true,
    "has_video": true,
    "height": 528,
    "interlaced_frame": false,
    "metadata": {},
    "path": "./drawing57.png",
    "pixel_format": -1,
    "pixel_ratio": {
     "den": 1,
     "num": 1
    },
    "sample_rate": 0,
    "top_field_first": true,
    "type": "QtImageReader",
    "vcodec": "",
    "video_bit_rate": 0,
    "video_length": "108000",
    "video_stream_index": -1,
    "video_timebase": {
     "den": 30,
     "num": 1
    },
    "width": 2311,
    "media_type": "image",
    "id": "922NI6INHK"
   },
   "rotation": {
    "Points": [
     {
      "co": {
       "X": 1.0,
       "Y": 0.0
      },
      "handle_left": {
       "X": 0.5,
       "Y": 1.0
      },
      "handle_right": {
       "X": 0.5,
       "Y": 0.0
      },
      "handle_type": 0,
      "interpolation": 0
     }
    ]
   },
   "scale": 1,
   "scale_x": {
    "Points": [
     {
      "co": {
       "X": 1,
       "Y": 0.6149915456771851
      },
      "handle_left": {
       "X": 0.5,
       "Y": 1.0
      },
      "handle_right": {
       "X": 0.5,
       "Y": 0.0
      },
      "handle_type": 0,
      "interpolation": 0
     }
    ]
   },
   "scale_y": {
    "Points": [
     {
      "co": {
       "X": 1,
       "Y": 0.6149915456771851
      },
      "handle_left": {
       "X": 0.5,
       "Y": 1.0
      },
      "handle_right": {
       "X": 0.5,
       "Y": 0.0
      },
      "handle_type": 0,
      "interpolation": 0
     }
    ]
   },
   "shear_x": {
    "Points": [
     {
      "co": {
       "X": 1.0,
       "Y": 0.0
      },
      "handle_left": {
       "X": 0.5,
       "Y": 1.0
      },
      "handle_right": {
       "X": 0.5,
       "Y": 0.0
      },
      "handle_type": 0,
      "interpolation": 0
     }
    ]
   },
   "shear_y": {
    "Points": [
     {
      "co": {
       "X": 1.0,
       "Y": 0.0
      },
      "handle_left": {
       "X": 0.5,
       "Y": 1.0
      },
      "handle_right": {
       "X": 0.5,
       "Y": 0.0
      },
      "handle_type": 0,
      "interpolation": 0
     }
    ]
   },
   "start": 0,
   "time": {
    "Points": [
     {
      "co": {
       "X": 1.0,
       "Y": 1.0
      },
      "handle_left": {
       "X": 0.5,
       "Y": 1.0
      },
      "handle_right": {
       "X": 0.5,
       "Y": 0.0
      },
      "handle_type": 0,
      "interpolation": 0
     }
    ]
   },
   "volume": {
    "Points": [
     {
      "co": {
       "X": 1.0,
       "Y": 1.0
      },
      "handle_left": {
       "X": 0.5,
       "Y": 1.0
      },
      "handle_right": {
       "X": 0.5,
       "Y": 0.0
      },
      "handle_type": 0,
      "interpolation": 0
     }
    ]
   },
   "wave_color": {
    "alpha": {
     "Points": [
      {
       "co": {
        "X": 1.0,
        "Y": 255.0
       },
       "handle_left": {
        "X": 0.5,
        "Y": 1.0
       },
       "handle_right": {
        "X": 0.5,
        "Y": 0.0
       },
       "handle_type": 0,
       "interpolation": 0
      }
     ]
    },
    "blue": {
     "Points": [
      {
       "co": {
        "X": 1.0,
        "Y": 255.0
       },
       "handle_left": {
        "X": 0.5,
        "Y": 1.0
       },
       "handle_right": {
        "X": 0.5,
        "Y": 0.0
       },
       "handle_type": 0,
       "interpolation": 0
      }
     ]
    },
    "green": {
     "Points": [
      {
       "co": {
        "X": 1.0,
        "Y": 123.0
       },
       "handle_left": {
        "X": 0.5,
        "Y": 1.0
       },
       "handle_right": {
        "X": 0.5,
        "Y": 0.0
       },
       "handle_type": 0,
       "interpolation": 0
      }
     ]
    },
    "red": {
     "Points": [
      {
       "co": {
        "X": 1.0,
        "Y": 0.0
       },
       "handle_left": {
        "X": 0.5,
        "Y": 1.0
       },
       "handle_right": {
        "X": 0.5,
        "Y": 0.0
       },
       "handle_type": 0,
       "interpolation": 0
      }
     ]
    }
   },
   "waveform": false,
   "file_id": "922NI6INHK",
   "title": "drawing57.png",
   "image": "Tutorial_assets/thumbnail/922NI6INHK.png"
  },
  {
   "alpha": {
    "Points": [
     {
      "co": {
       "X": 1.0,
       "Y": 1.0
      },
      "handle_left": {
       "X": 0.5,
       "Y": 1.0
      },
      "handle_right": {
       "X": 0.5,
       "Y": 0.0
      },
      "handle_type": 0,
      "interpolation": 0
     }
    ]
   },
   "anchor": 0,
   "channel_filter": {
    "Points": [
     {
      "co": {
       "X": 1.0,
       "Y": -1.0
      },
      "handle_left": {
       "X": 0.5,
       "Y": 1.0
      },
      "handle_right": {
       "X": 0.5,
       "Y": 0.0
      },
      "handle_type": 0,
      "interpolation": 0
     }
    ]
   },
   "channel_mapping": {
    "Points": [
     {
      "co": {
       "X": 1.0,
       "Y": -1.0
      },
      "handle_left": {
       "X": 0.5,
       "Y": 1.0
      },
      "handle_right": {
       "X": 0.5,
       "Y": 0.0
      },
      "handle_type": 0,
      "interpolation": 0
     }
    ]
   },
   "display": 0,
   "duration": 3600.0,
   "effects": [],
   "end": 4.60000000000004,
   "gravity": 4,
   "has_audio": {
    "Points": [
     {
      "co": {
       "X": 1.0,
       "Y": -1.0
      },
      "handle_left": {
       "X": 0.5,
       "Y": 1.0
      },
      "handle_right": {
       "X": 0.5,
       "Y": 0.0
      },
      "handle_type": 0,
      "interpolation": 0
     }
    ]
   },
   "has_video": {
    "Points": [
     {
      "co": {
       "X": 1.0,
       "Y": -1.0
      },
      "handle_left": {
       "X": 0.5,
       "Y": 1.0
      },
      "handle_right": {
       "X": 0.5,
       "Y": 0.0
      },
      "handle_type": 0,
      "interpolation": 0
     }
    ]
   },
   "id": "O9D0DKZNG6",
   "layer": 2000000,
   "location_x": {
    "Points": [
     {
      "co": {
       "X": 1,
       "Y": 0.0
      },
      "handle_left": {
       "X": 0.5,
       "Y": 1.0
      },
      "handle_right": {
       "X": 0.5,
       "Y": 0.0
      },
      "handle_type": 0,
      "interpolation": 0
     }
    ]
   },
   "location_y": {
    "Points": [
     {
      "co": {
       "X": 1,
       "Y": -0.02424242491974975
      },
      "handle_left": {
       "X": 0.5,
       "Y": 1.0
      },
      "handle_right": {
       "X": 0.5,
       "Y": 0.0
      },
      "handle_type": 0,
      "interpolation": 0
     }
    ]
   },
   "mixing": 0,
   "origin_x": {
    "Points": [
     {
      "co": {
       "X": 1.0,
       "Y": 0.5
      },
      "handle_left": {
       "X": 0.5,
       "Y": 1.0
      },
      "handle_right": {
       "X": 0.5,
       "Y": 0.0
      },
      "handle_type": 0,
      "interpolation": 0
     }
    ]
   },
   "origin_y": {
    "Points": [
     {
      "co": {
       "X": 1.0,
       "Y": 0.5
      },
      "handle_left": {
       "X": 0.5,
       "Y": 1.0
      },
      "handle_right": {
       "X": 0.5,
       "Y": 0.0
      },
      "handle_type": 0,
      "interpolation": 0
     }
    ]
   },
   "parentObjectId": "",
   "perspective_c1_x": {
    "Points": [
     {
      "co": {
       "X": 1.0,
       "Y": -1.0
      },
      "handle_left": {
       "X": 0.5,
       "Y": 1.0
      },
      "handle_right": {
       "X": 0.5,
       "Y": 0.0
      },
      "handle_type": 0,
      "interpolation": 0
     }
    ]
   },
   "perspective_c1_y": {
    "Points": [
     {
      "co": {
       "X": 1.0,
       "Y": -1.0
      },
      "handle_left": {
       "X": 0.5,
       "Y": 1.0
      },
      "handle_right": {
       "X": 0.5,
       "Y": 0.0
      },
      "handle_type": 0,
      "interpolation": 0
     }
    ]
   },
   "perspective_c2_x": {
    "Points": [
     {
      "co": {
       "X": 1.0,
       "Y": -1.0
      },
      "handle_left": {
       "X": 0.5,
       "Y": 1.0
      },
      "handle_right": {
       "X": 0.5,
       "Y": 0.0
      },
      "handle_type": 0,
      "interpolation": 0
     }
    ]
   },
   "perspective_c2_y": {
    "Points": [
     {
      "co": {
       "X": 1.0,
       "Y": -1.0
      },
      "handle_left": {
       "X": 0.5,
       "Y": 1.0
      },
      "handle_right": {
       "X": 0.5,
       "Y": 0.0
      },
      "handle_type": 0,
      "interpolation": 0
     }
    ]
   },
   "perspective_c3_x": {
    "Points": [
     {
      "co": {
       "X": 1.0,
       "Y": -1.0
      },
      "handle_left": {
       "X": 0.5,
       "Y": 1.0
      },
      "handle_right": {
       "X": 0.5,
       "Y": 0.0
      },
      "handle_type": 0,
      "interpolation": 0
     }
    ]
   },
   "perspective_c3_y": {
    "Points": [
     {
      "co": {
       "X": 1.0,
       "Y": -1.0
      },
      "handle_left": {
       "X": 0.5,
       "Y": 1.0
      },
      "handle_right": {
       "X": 0.5,
       "Y": 0.0
      },
      "handle_type": 0,
      "interpolation": 0
     }
    ]
   },
   "perspective_c4_x": {
    "Points": [
     {
      "co": {
       "X": 1.0,
       "Y": -1.0
      },
      "handle_left": {
       "X": 0.5,
       "Y": 1.0
      },
      "handle_right": {
       "X": 0.5,
       "Y": 0.0
      },
      "handle_type": 0,
      "interpolation": 0
     }
    ]
   },
   "perspective_c4_y": {
    "Points": [
     {
      "co": {
       "X": 1.0,
       "Y": -1.0
      },
      "handle_left": {
       "X": 0.5,
       "Y": 1.0
      },
      "handle_right": {
       "X": 0.5,
       "Y": 0.0
      },
      "handle_type": 0,
      "interpolation": 0
     }
    ]
   },
   "position": 416.26666666666665,
   "reader": {
    "acodec": "",
    "audio_bit_rate": 0,
    "audio_stream_index": -1,
    "audio_timebase": {
     "den": 1,
     "num": 1
    },
    "channel_layout": 4,
    "channels": 0,
    "display_ratio": {
     "den": 539,
     "num": 1919
    },
    "duration": 3600.0,
    "file_size": "4137364",
    "fps": {
     "den": 1,
     "num": 30
    },
    "has_audio": false,
    "has_single_image": true,
    "has_video": true,
    "height": 539,
    "interlaced_frame": false,
    "metadata": {},
    "path": "./drawing58.png",
    "pixel_format": -1,
    "pixel_ratio": {
     "den": 1,
     "num": 1
    },
    "sample_rate": 0,
    "top_field_first": true,
    "type": "QtImageReader",
    "vcodec": "",
    "video_bit_rate": 0,
    "video_length": "108000",
    "video_stream_index": -1,
    "video_timebase": {
     "den": 30,
     "num": 1
    },
    "width": 1919,
    "media_type": "image",
    "id": "2V0ER9YNO7"
   },
   "rotation": {
    "Points": [
     {
      "co": {
       "X": 1.0,
       "Y": 0.0
      },
      "handle_left": {
       "X": 0.5,
       "Y": 1.0
      },
      "handle_right": {
       "X": 0.5,
       "Y": 0.0
      },
      "handle_type": 0,
      "interpolation": 0
     }
    ]
   },
   "scale": 1,
   "scale_x": {
    "Points": [
     {
      "co": {
       "X": 1,
       "Y": 0.5553663201388955
      },
      "handle_left": {
       "X": 0.5,
       "Y": 1.0
      },
      "handle_right": {
       "X": 0.5,
       "Y": 0.0
      },
      "handle_type": 0,
      "interpolation": 0
     }
    ]
   },
   "scale_y": {
    "Points": [
     {
      "co": {
       "X": 1,
       "Y": 0.5553663201388955
      },
      "handle_left": {
       "X": 0.5,
       "Y": 1.0
      },
      "handle_right": {
       "X": 0.5,
       "Y": 0.0
      },
      "handle_type": 0,
      "interpolation": 0
     }
    ]
   },
   "shear_x": {
    "Points": [
     {
      "co": {
       "X": 1.0,
       "Y": 0.0
      },
      "handle_left": {
       "X": 0.5,
       "Y": 1.0
      },
      "handle_right": {
       "X": 0.5,
       "Y": 0.0
      },
      "handle_type": 0,
      "interpolation": 0
     }
    ]
   },
   "shear_y": {
    "Points": [
     {
      "co": {
       "X": 1.0,
       "Y": 0.0
      },
      "handle_left": {
       "X": 0.5,
       "Y": 1.0
      },
      "handle_right": {
       "X": 0.5,
       "Y": 0.0
      },
      "handle_type": 0,
      "interpolation": 0
     }
    ]
   },
   "start": 0,
   "time": {
    "Points": [
     {
      "co": {
       "X": 1.0,
       "Y": 1.0
      },
      "handle_left": {
       "X": 0.5,
       "Y": 1.0
      },
      "handle_right": {
       "X": 0.5,
       "Y": 0.0
      },
      "handle_type": 0,
      "interpolation": 0
     }
    ]
   },
   "volume": {
    "Points": [
     {
      "co": {
       "X": 1.0,
       "Y": 1.0
      },
      "handle_left": {
       "X": 0.5,
       "Y": 1.0
      },
      "handle_right": {
       "X": 0.5,
       "Y": 0.0
      },
      "handle_type": 0,
      "interpolation": 0
     }
    ]
   },
   "wave_color": {
    "alpha": {
     "Points": [
      {
       "co": {
        "X": 1.0,
        "Y": 255.0
       },
       "handle_left": {
        "X": 0.5,
        "Y": 1.0
       },
       "handle_right": {
        "X": 0.5,
        "Y": 0.0
       },
       "handle_type": 0,
       "interpolation": 0
      }
     ]
    },
    "blue": {
     "Points": [
      {
       "co": {
        "X": 1.0,
        "Y": 255.0
       },
       "handle_left": {
        "X": 0.5,
        "Y": 1.0
       },
       "handle_right": {
        "X": 0.5,
        "Y": 0.0
       },
       "handle_type": 0,
       "interpolation": 0
      }
     ]
    },
    "green": {
     "Points": [
      {
       "co": {
        "X": 1.0,
        "Y": 123.0
       },
       "handle_left": {
        "X": 0.5,
        "Y": 1.0
       },
       "handle_right": {
        "X": 0.5,
        "Y": 0.0
       },
       "handle_type": 0,
       "interpolation": 0
      }
     ]
    },
    "red": {
     "Points": [
      {
       "co": {
        "X": 1.0,
        "Y": 0.0
       },
       "handle_left": {
        "X": 0.5,
        "Y": 1.0
       },
       "handle_right": {
        "X": 0.5,
        "Y": 0.0
       },
       "handle_type": 0,
       "interpolation": 0
      }
     ]
    }
   },
   "waveform": false,
   "file_id": "2V0ER9YNO7",
   "title": "drawing58.png",
   "image": "Tutorial_assets/thumbnail/2V0ER9YNO7.png"
  },
  {
   "alpha": {
    "Points": [
     {
      "co": {
       "X": 1.0,
       "Y": 1.0
      },
      "handle_left": {
       "X": 0.5,
       "Y": 1.0
      },
      "handle_right": {
       "X": 0.5,
       "Y": 0.0
      },
      "handle_type": 0,
      "interpolation": 0
     }
    ]
   },
   "anchor": 0,
   "channel_filter": {
    "Points": [
     {
      "co": {
       "X": 1.0,
       "Y": -1.0
      },
      "handle_left": {
       "X": 0.5,
       "Y": 1.0
      },
      "handle_right": {
       "X": 0.5,
       "Y": 0.0
      },
      "handle_type": 0,
      "interpolation": 0
     }
    ]
   },
   "channel_mapping": {
    "Points": [
     {
      "co": {
       "X": 1.0,
       "Y": -1.0
      },
      "handle_left": {
       "X": 0.5,
       "Y": 1.0
      },
      "handle_right": {
       "X": 0.5,
       "Y": 0.0
      },
      "handle_type": 0,
      "interpolation": 0
     }
    ]
   },
   "display": 0,
   "duration": 3600.0,
   "effects": [],
   "end": 4.933333333333327,
   "gravity": 4,
   "has_audio": {
    "Points": [
     {
      "co": {
       "X": 1.0,
       "Y": -1.0
      },
      "handle_left": {
       "X": 0.5,
       "Y": 1.0
      },
      "handle_right": {
       "X": 0.5,
       "Y": 0.0
      },
      "handle_type": 0,
      "interpolation": 0
     }
    ]
   },
   "has_video": {
    "Points": [
     {
      "co": {
       "X": 1.0,
       "Y": -1.0
      },
      "handle_left": {
       "X": 0.5,
       "Y": 1.0
      },
      "handle_right": {
       "X": 0.5,
       "Y": 0.0
      },
      "handle_type": 0,
      "interpolation": 0
     }
    ]
   },
   "id": "FUJCF64G78",
   "layer": 1000000,
   "location_x": {
    "Points": [
     {
      "co": {
       "X": 1.0,
       "Y": 0.0
      },
      "handle_left": {
       "X": 0.5,
       "Y": 1.0
      },
      "handle_right": {
       "X": 0.5,
       "Y": 0.0
      },
      "handle_type": 0,
      "interpolation": 0
     }
    ]
   },
   "location_y": {
    "Points": [
     {
      "co": {
       "X": 1.0,
       "Y": 0.0
      },
      "handle_left": {
       "X": 0.5,
       "Y": 1.0
      },
      "handle_right": {
       "X": 0.5,
       "Y": 0.0
      },
      "handle_type": 0,
      "interpolation": 0
     }
    ]
   },
   "mixing": 0,
   "origin_x": {
    "Points": [
     {
      "co": {
       "X": 1.0,
       "Y": 0.5
      },
      "handle_left": {
       "X": 0.5,
       "Y": 1.0
      },
      "handle_right": {
       "X": 0.5,
       "Y": 0.0
      },
      "handle_type": 0,
      "interpolation": 0
     }
    ]
   },
   "origin_y": {
    "Points": [
     {
      "co": {
       "X": 1.0,
       "Y": 0.5
      },
      "handle_left": {
       "X": 0.5,
       "Y": 1.0
      },
      "handle_right": {
       "X": 0.5,
       "Y": 0.0
      },
      "handle_type": 0,
      "interpolation": 0
     }
    ]
   },
   "parentObjectId": "",
   "perspective_c1_x": {
    "Points": [
     {
      "co": {
       "X": 1.0,
       "Y": -1.0
      },
      "handle_left": {
       "X": 0.5,
       "Y": 1.0
      },
      "handle_right": {
       "X": 0.5,
       "Y": 0.0
      },
      "handle_type": 0,
      "interpolation": 0
     }
    ]
   },
   "perspective_c1_y": {
    "Points": [
     {
      "co": {
       "X": 1.0,
       "Y": -1.0
      },
      "handle_left": {
       "X": 0.5,
       "Y": 1.0
      },
      "handle_right": {
       "X": 0.5,
       "Y": 0.0
      },
      "handle_type": 0,
      "interpolation": 0
     }
    ]
   },
   "perspective_c2_x": {
    "Points": [
     {
      "co": {
       "X": 1.0,
       "Y": -1.0
      },
      "handle_left": {
       "X": 0.5,
       "Y": 1.0
      },
      "handle_right": {
       "X": 0.5,
       "Y": 0.0
      },
      "handle_type": 0,
      "interpolation": 0
     }
    ]
   },
   "perspective_c2_y": {
    "Points": [
     {
      "co": {
       "X": 1.0,
       "Y": -1.0
      },
      "handle_left": {
       "X": 0.5,
       "Y": 1.0
      },
      "handle_right": {
       "X": 0.5,
       "Y": 0.0
      },
      "handle_type": 0,
      "interpolation": 0
     }
    ]
   },
   "perspective_c3_x": {
    "Points": [
     {
      "co": {
       "X": 1.0,
       "Y": -1.0
      },
      "handle_left": {
       "X": 0.5,
       "Y": 1.0
      },
      "handle_right": {
       "X": 0.5,
       "Y": 0.0
      },
      "handle_type": 0,
      "interpolation": 0
     }
    ]
   },
   "perspective_c3_y": {
    "Points": [
     {
      "co": {
       "X": 1.0,
       "Y": -1.0
      },
      "handle_left": {
       "X": 0.5,
       "Y": 1.0
      },
      "handle_right": {
       "X": 0.5,
       "Y": 0.0
      },
      "handle_type": 0,
      "interpolation": 0
     }
    ]
   },
   "perspective_c4_x": {
    "Points": [
     {
      "co": {
       "X": 1.0,
       "Y": -1.0
      },
      "handle_left": {
       "X": 0.5,
       "Y": 1.0
      },
      "handle_right": {
       "X": 0.5,
       "Y": 0.0
      },
      "handle_type": 0,
      "interpolation": 0
     }
    ]
   },
   "perspective_c4_y": {
    "Points": [
     {
      "co": {
       "X": 1.0,
       "Y": -1.0
      },
      "handle_left": {
       "X": 0.5,
       "Y": 1.0
      },
      "handle_right": {
       "X": 0.5,
       "Y": 0.0
      },
      "handle_type": 0,
      "interpolation": 0
     }
    ]
   },
   "position": 420.8666666666667,
   "reader": {
    "acodec": "",
    "audio_bit_rate": 0,
    "audio_stream_index": -1,
    "audio_timebase": {
     "den": 1,
     "num": 1
    },
    "channel_layout": 4,
    "channels": 0,
    "display_ratio": {
     "den": 383,
     "num": 686
    },
    "duration": 3600.0,
    "file_size": "4203808",
    "fps": {
     "den": 1,
     "num": 30
    },
    "has_audio": false,
    "has_single_image": true,
    "has_video": true,
    "height": 766,
    "interlaced_frame": false,
    "metadata": {},
    "path": "./Screenshot 2024-05-27 002441.png",
    "pixel_format": -1,
    "pixel_ratio": {
     "den": 1,
     "num": 1
    },
    "sample_rate": 0,
    "top_field_first": true,
    "type": "QtImageReader",
    "vcodec": "",
    "video_bit_rate": 0,
    "video_length": "108000",
    "video_stream_index": -1,
    "video_timebase": {
     "den": 30,
     "num": 1
    },
    "width": 1372,
    "media_type": "image",
    "id": "4ZK42BH5BC"
   },
   "rotation": {
    "Points": [
     {
      "co": {
       "X": 1.0,
       "Y": 0.0
      },
      "handle_left": {
       "X": 0.5,
       "Y": 1.0
      },
      "handle_right": {
       "X": 0.5,
       "Y": 0.0
      },
      "handle_type": 0,
      "interpolation": 0
     }
    ]
   },
   "scale": 1,
   "scale_x": {
    "Points": [
     {
      "co": {
       "X": 1,
       "Y": 1.0102213964348554
      },
      "handle_left": {
       "X": 0.5,
       "Y": 1.0
      },
      "handle_right": {
       "X": 0.5,
       "Y": 0.0
      },
      "handle_type": 0,
      "interpolation": 0
     }
    ]
   },
   "scale_y": {
    "Points": [
     {
      "co": {
       "X": 1,
       "Y": 1.0152671337127686
      },
      "handle_left": {
       "X": 0.5,
       "Y": 1.0
      },
      "handle_right": {
       "X": 0.5,
       "Y": 0.0
      },
      "handle_type": 0,
      "interpolation": 0
     }
    ]
   },
   "shear_x": {
    "Points": [
     {
      "co": {
       "X": 1.0,
       "Y": 0.0
      },
      "handle_left": {
       "X": 0.5,
       "Y": 1.0
      },
      "handle_right": {
       "X": 0.5,
       "Y": 0.0
      },
      "handle_type": 0,
      "interpolation": 0
     }
    ]
   },
   "shear_y": {
    "Points": [
     {
      "co": {
       "X": 1.0,
       "Y": 0.0
      },
      "handle_left": {
       "X": 0.5,
       "Y": 1.0
      },
      "handle_right": {
       "X": 0.5,
       "Y": 0.0
      },
      "handle_type": 0,
      "interpolation": 0
     }
    ]
   },
   "start": 0,
   "time": {
    "Points": [
     {
      "co": {
       "X": 1.0,
       "Y": 1.0
      },
      "handle_left": {
       "X": 0.5,
       "Y": 1.0
      },
      "handle_right": {
       "X": 0.5,
       "Y": 0.0
      },
      "handle_type": 0,
      "interpolation": 0
     }
    ]
   },
   "volume": {
    "Points": [
     {
      "co": {
       "X": 1.0,
       "Y": 1.0
      },
      "handle_left": {
       "X": 0.5,
       "Y": 1.0
      },
      "handle_right": {
       "X": 0.5,
       "Y": 0.0
      },
      "handle_type": 0,
      "interpolation": 0
     }
    ]
   },
   "wave_color": {
    "alpha": {
     "Points": [
      {
       "co": {
        "X": 1.0,
        "Y": 255.0
       },
       "handle_left": {
        "X": 0.5,
        "Y": 1.0
       },
       "handle_right": {
        "X": 0.5,
        "Y": 0.0
       },
       "handle_type": 0,
       "interpolation": 0
      }
     ]
    },
    "blue": {
     "Points": [
      {
       "co": {
        "X": 1.0,
        "Y": 255.0
       },
       "handle_left": {
        "X": 0.5,
        "Y": 1.0
       },
       "handle_right": {
        "X": 0.5,
        "Y": 0.0
       },
       "handle_type": 0,
       "interpolation": 0
      }
     ]
    },
    "green": {
     "Points": [
      {
       "co": {
        "X": 1.0,
        "Y": 123.0
       },
       "handle_left": {
        "X": 0.5,
        "Y": 1.0
       },
       "handle_right": {
        "X": 0.5,
        "Y": 0.0
       },
       "handle_type": 0,
       "interpolation": 0
      }
     ]
    },
    "red": {
     "Points": [
      {
       "co": {
        "X": 1.0,
        "Y": 0.0
       },
       "handle_left": {
        "X": 0.5,
        "Y": 1.0
       },
       "handle_right": {
        "X": 0.5,
        "Y": 0.0
       },
       "handle_type": 0,
       "interpolation": 0
      }
     ]
    }
   },
   "waveform": false,
   "file_id": "4ZK42BH5BC",
   "title": "Screenshot 2024-05-27 002441.png",
   "image": "Tutorial_assets/thumbnail/4ZK42BH5BC.png"
  },
  {
   "alpha": {
    "Points": [
     {
      "co": {
       "X": 1.0,
       "Y": 1.0
      },
      "handle_left": {
       "X": 0.5,
       "Y": 1.0
      },
      "handle_right": {
       "X": 0.5,
       "Y": 0.0
      },
      "handle_type": 0,
      "interpolation": 0
     }
    ]
   },
   "anchor": 0,
   "channel_filter": {
    "Points": [
     {
      "co": {
       "X": 1.0,
       "Y": -1.0
      },
      "handle_left": {
       "X": 0.5,
       "Y": 1.0
      },
      "handle_right": {
       "X": 0.5,
       "Y": 0.0
      },
      "handle_type": 0,
      "interpolation": 0
     }
    ]
   },
   "channel_mapping": {
    "Points": [
     {
      "co": {
       "X": 1.0,
       "Y": -1.0
      },
      "handle_left": {
       "X": 0.5,
       "Y": 1.0
      },
      "handle_right": {
       "X": 0.5,
       "Y": 0.0
      },
      "handle_type": 0,
      "interpolation": 0
     }
    ]
   },
   "display": 0,
   "duration": 3600.0,
   "effects": [],
   "end": 4.400000000000059,
   "gravity": 4,
   "has_audio": {
    "Points": [
     {
      "co": {
       "X": 1.0,
       "Y": -1.0
      },
      "handle_left": {
       "X": 0.5,
       "Y": 1.0
      },
      "handle_right": {
       "X": 0.5,
       "Y": 0.0
      },
      "handle_type": 0,
      "interpolation": 0
     }
    ]
   },
   "has_video": {
    "Points": [
     {
      "co": {
       "X": 1.0,
       "Y": -1.0
      },
      "handle_left": {
       "X": 0.5,
       "Y": 1.0
      },
      "handle_right": {
       "X": 0.5,
       "Y": 0.0
      },
      "handle_type": 0,
      "interpolation": 0
     }
    ]
   },
   "id": "6IK55D6W6O",
   "layer": 2000000,
   "location_x": {
    "Points": [
     {
      "co": {
       "X": 1,
       "Y": -0.26490631745255583
      },
      "handle_left": {
       "X": 0.5,
       "Y": 1.0
      },
      "handle_right": {
       "X": 0.5,
       "Y": 0.0
      },
      "handle_type": 0,
      "interpolation": 0
     }
    ]
   },
   "location_y": {
    "Points": [
     {
      "co": {
       "X": 1,
       "Y": 0.33484846498026993
      },
      "handle_left": {
       "X": 0.5,
       "Y": 1.0
      },
      "handle_right": {
       "X": 0.5,
       "Y": 0.0
      },
      "handle_type": 0,
      "interpolation": 0
     }
    ]
   },
   "mixing": 0,
   "origin_x": {
    "Points": [
     {
      "co": {
       "X": 1.0,
       "Y": 0.5
      },
      "handle_left": {
       "X": 0.5,
       "Y": 1.0
      },
      "handle_right": {
       "X": 0.5,
       "Y": 0.0
      },
      "handle_type": 0,
      "interpolation": 0
     }
    ]
   },
   "origin_y": {
    "Points": [
     {
      "co": {
       "X": 1.0,
       "Y": 0.5
      },
      "handle_left": {
       "X": 0.5,
       "Y": 1.0
      },
      "handle_right": {
       "X": 0.5,
       "Y": 0.0
      },
      "handle_type": 0,
      "interpolation": 0
     }
    ]
   },
   "parentObjectId": "",
   "perspective_c1_x": {
    "Points": [
     {
      "co": {
       "X": 1.0,
       "Y": -1.0
      },
      "handle_left": {
       "X": 0.5,
       "Y": 1.0
      },
      "handle_right": {
       "X": 0.5,
       "Y": 0.0
      },
      "handle_type": 0,
      "interpolation": 0
     }
    ]
   },
   "perspective_c1_y": {
    "Points": [
     {
      "co": {
       "X": 1.0,
       "Y": -1.0
      },
      "handle_left": {
       "X": 0.5,
       "Y": 1.0
      },
      "handle_right": {
       "X": 0.5,
       "Y": 0.0
      },
      "handle_type": 0,
      "interpolation": 0
     }
    ]
   },
   "perspective_c2_x": {
    "Points": [
     {
      "co": {
       "X": 1.0,
       "Y": -1.0
      },
      "handle_left": {
       "X": 0.5,
       "Y": 1.0
      },
      "handle_right": {
       "X": 0.5,
       "Y": 0.0
      },
      "handle_type": 0,
      "interpolation": 0
     }
    ]
   },
   "perspective_c2_y": {
    "Points": [
     {
      "co": {
       "X": 1.0,
       "Y": -1.0
      },
      "handle_left": {
       "X": 0.5,
       "Y": 1.0
      },
      "handle_right": {
       "X": 0.5,
       "Y": 0.0
      },
      "handle_type": 0,
      "interpolation": 0
     }
    ]
   },
   "perspective_c3_x": {
    "Points": [
     {
      "co": {
       "X": 1.0,
       "Y": -1.0
      },
      "handle_left": {
       "X": 0.5,
       "Y": 1.0
      },
      "handle_right": {
       "X": 0.5,
       "Y": 0.0
      },
      "handle_type": 0,
      "interpolation": 0
     }
    ]
   },
   "perspective_c3_y": {
    "Points": [
     {
      "co": {
       "X": 1.0,
       "Y": -1.0
      },
      "handle_left": {
       "X": 0.5,
       "Y": 1.0
      },
      "handle_right": {
       "X": 0.5,
       "Y": 0.0
      },
      "handle_type": 0,
      "interpolation": 0
     }
    ]
   },
   "perspective_c4_x": {
    "Points": [
     {
      "co": {
       "X": 1.0,
       "Y": -1.0
      },
      "handle_left": {
       "X": 0.5,
       "Y": 1.0
      },
      "handle_right": {
       "X": 0.5,
       "Y": 0.0
      },
      "handle_type": 0,
      "interpolation": 0
     }
    ]
   },
   "perspective_c4_y": {
    "Points": [
     {
      "co": {
       "X": 1.0,
       "Y": -1.0
      },
      "handle_left": {
       "X": 0.5,
       "Y": 1.0
      },
      "handle_right": {
       "X": 0.5,
       "Y": 0.0
      },
      "handle_type": 0,
      "interpolation": 0
     }
    ]
   },
   "position": 421.4,
   "reader": {
    "acodec": "",
    "audio_bit_rate": 0,
    "audio_stream_index": -1,
    "audio_timebase": {
     "den": 1,
     "num": 1
    },
    "channel_layout": 4,
    "channels": 0,
    "display_ratio": {
     "den": 533,
     "num": 1756
    },
    "duration": 3600.0,
    "file_size": "3743792",
    "fps": {
     "den": 1,
     "num": 30
    },
    "has_audio": false,
    "has_single_image": true,
    "has_video": true,
    "height": 533,
    "interlaced_frame": false,
    "metadata": {},
    "path": "./drawing59.png",
    "pixel_format": -1,
    "pixel_ratio": {
     "den": 1,
     "num": 1
    },
    "sample_rate": 0,
    "top_field_first": true,
    "type": "QtImageReader",
    "vcodec": "",
    "video_bit_rate": 0,
    "video_length": "108000",
    "video_stream_index": -1,
    "video_timebase": {
     "den": 30,
     "num": 1
    },
    "width": 1756,
    "media_type": "image",
    "id": "JFS41HMC7X"
   },
   "rotation": {
    "Points": [
     {
      "co": {
       "X": 1.0,
       "Y": 0.0
      },
      "handle_left": {
       "X": 0.5,
       "Y": 1.0
      },
      "handle_right": {
       "X": 0.5,
       "Y": 0.0
      },
      "handle_type": 0,
      "interpolation": 0
     }
    ]
   },
   "scale": 1,
   "scale_x": {
    "Points": [
     {
      "co": {
       "X": 1,
       "Y": 0.34071556997867825
      },
      "handle_left": {
       "X": 0.5,
       "Y": 1.0
      },
      "handle_right": {
       "X": 0.5,
       "Y": 0.0
      },
      "handle_type": 0,
      "interpolation": 0
     }
    ]
   },
   "scale_y": {
    "Points": [
     {
      "co": {
       "X": 1,
       "Y": 0.34071556997867825
      },
      "handle_left": {
       "X": 0.5,
       "Y": 1.0
      },
      "handle_right": {
       "X": 0.5,
       "Y": 0.0
      },
      "handle_type": 0,
      "interpolation": 0
     }
    ]
   },
   "shear_x": {
    "Points": [
     {
      "co": {
       "X": 1.0,
       "Y": 0.0
      },
      "handle_left": {
       "X": 0.5,
       "Y": 1.0
      },
      "handle_right": {
       "X": 0.5,
       "Y": 0.0
      },
      "handle_type": 0,
      "interpolation": 0
     }
    ]
   },
   "shear_y": {
    "Points": [
     {
      "co": {
       "X": 1.0,
       "Y": 0.0
      },
      "handle_left": {
       "X": 0.5,
       "Y": 1.0
      },
      "handle_right": {
       "X": 0.5,
       "Y": 0.0
      },
      "handle_type": 0,
      "interpolation": 0
     }
    ]
   },
   "start": 0,
   "time": {
    "Points": [
     {
      "co": {
       "X": 1.0,
       "Y": 1.0
      },
      "handle_left": {
       "X": 0.5,
       "Y": 1.0
      },
      "handle_right": {
       "X": 0.5,
       "Y": 0.0
      },
      "handle_type": 0,
      "interpolation": 0
     }
    ]
   },
   "volume": {
    "Points": [
     {
      "co": {
       "X": 1.0,
       "Y": 1.0
      },
      "handle_left": {
       "X": 0.5,
       "Y": 1.0
      },
      "handle_right": {
       "X": 0.5,
       "Y": 0.0
      },
      "handle_type": 0,
      "interpolation": 0
     }
    ]
   },
   "wave_color": {
    "alpha": {
     "Points": [
      {
       "co": {
        "X": 1.0,
        "Y": 255.0
       },
       "handle_left": {
        "X": 0.5,
        "Y": 1.0
       },
       "handle_right": {
        "X": 0.5,
        "Y": 0.0
       },
       "handle_type": 0,
       "interpolation": 0
      }
     ]
    },
    "blue": {
     "Points": [
      {
       "co": {
        "X": 1.0,
        "Y": 255.0
       },
       "handle_left": {
        "X": 0.5,
        "Y": 1.0
       },
       "handle_right": {
        "X": 0.5,
        "Y": 0.0
       },
       "handle_type": 0,
       "interpolation": 0
      }
     ]
    },
    "green": {
     "Points": [
      {
       "co": {
        "X": 1.0,
        "Y": 123.0
       },
       "handle_left": {
        "X": 0.5,
        "Y": 1.0
       },
       "handle_right": {
        "X": 0.5,
        "Y": 0.0
       },
       "handle_type": 0,
       "interpolation": 0
      }
     ]
    },
    "red": {
     "Points": [
      {
       "co": {
        "X": 1.0,
        "Y": 0.0
       },
       "handle_left": {
        "X": 0.5,
        "Y": 1.0
       },
       "handle_right": {
        "X": 0.5,
        "Y": 0.0
       },
       "handle_type": 0,
       "interpolation": 0
      }
     ]
    }
   },
   "waveform": false,
   "file_id": "JFS41HMC7X",
   "title": "drawing59.png",
   "image": "Tutorial_assets/thumbnail/JFS41HMC7X.png"
  }
 ],
 "effects": [
  {
   "id": "CCF0XFFI23",
   "layer": 2000000,
   "title": "Transition",
   "type": "Mask",
   "position": 0.8,
   "start": 0,
   "end": 1,
   "brightness": {
    "Points": [
     {
      "co": {
       "X": 1.0,
       "Y": 1.0
      },
      "handle_left": {
       "X": 0.5,
       "Y": 1.0
      },
      "handle_right": {
       "X": 0.5,
       "Y": 0.0
      },
      "handle_type": 0,
      "interpolation": 0
     },
     {
      "co": {
       "X": 30.0,
       "Y": -1.0
      },
      "handle_left": {
       "X": 0.5,
       "Y": 1.0
      },
      "handle_right": {
       "X": 0.5,
       "Y": 0.0
      },
      "handle_type": 0,
      "interpolation": 0
     }
    ]
   },
   "contrast": {
    "Points": [
     {
      "co": {
       "X": 1.0,
       "Y": 3.0
      },
      "handle_left": {
       "X": 0.5,
       "Y": 1.0
      },
      "handle_right": {
       "X": 0.5,
       "Y": 0.0
      },
      "handle_type": 0,
      "interpolation": 0
     },
     {
      "co": {
       "X": 30.0,
       "Y": 3.0
      },
      "handle_left": {
       "X": 0.5,
       "Y": 1.0
      },
      "handle_right": {
       "X": 0.5,
       "Y": 0.0
      },
      "handle_type": 0,
      "interpolation": 0
     }
    ]
   },
   "reader": {
    "acodec": "",
    "audio_bit_rate": 0,
    "audio_stream_index": -1,
    "audio_timebase": {
     "den": 1,
     "num": 1
    },
    "channel_layout": 4,
    "channels": 0,
    "display_ratio": {
     "den": 4,
     "num": 5
    },
    "duration": 3600.0,
    "file_size": "5832000",
    "fps": {
     "den": 1,
     "num": 30
    },
    "has_audio": false,
    "has_single_image": true,
    "has_video": true,
    "height": 576,
    "interlaced_frame": false,
    "metadata": {},
    "path": "@transitions/common/fade.svg",
    "pixel_format": -1,
    "pixel_ratio": {
     "den": 1,
     "num": 1
    },
    "sample_rate": 0,
    "top_field_first": true,
    "type": "QtImageReader",
    "vcodec": "",
    "video_bit_rate": 0,
    "video_length": "108000",
    "video_stream_index": -1,
    "video_timebase": {
     "den": 30,
     "num": 1
    },
    "width": 720
   },
   "replace_image": false
  },
  {
   "layer": 2000000,
   "title": "Transition",
   "type": "Mask",
   "position": 5.533333333333333,
   "start": 0,
   "end": 1,
   "brightness": {
    "Points": [
     {
      "co": {
       "X": 1.0,
       "Y": -1.0
      },
      "handle_left": {
       "X": 0.5,
       "Y": 1.0
      },
      "handle_right": {
       "X": 0.5,
       "Y": 0.0
      },
      "handle_type": 0,
      "interpolation": 0
     },
     {
      "co": {
       "X": 30.0,
       "Y": 1.0
      },
      "handle_left": {
       "X": 0.5,
       "Y": 1.0
      },
      "handle_right": {
       "X": 0.5,
       "Y": 0.0
      },
      "handle_type": 0,
      "interpolation": 0
     }
    ]
   },
   "contrast": {
    "Points": [
     {
      "co": {
       "X": 1.0,
       "Y": 3.0
      },
      "handle_left": {
       "X": 0.5,
       "Y": 1.0
      },
      "handle_right": {
       "X": 0.5,
       "Y": 0.0
      },
      "handle_type": 0,
      "interpolation": 0
     },
     {
      "co": {
       "X": 30.0,
       "Y": 3.0
      },
      "handle_left": {
       "X": 0.5,
       "Y": 1.0
      },
      "handle_right": {
       "X": 0.5,
       "Y": 0.0
      },
      "handle_type": 0,
      "interpolation": 0
     }
    ]
   },
   "reader": {
    "acodec": "",
    "audio_bit_rate": 0,
    "audio_stream_index": -1,
    "audio_timebase": {
     "den": 1,
     "num": 1
    },
    "channel_layout": 4,
    "channels": 0,
    "display_ratio": {
     "den": 4,
     "num": 5
    },
    "duration": 3600.0,
    "file_size": "5832000",
    "fps": {
     "den": 1,
     "num": 30
    },
    "has_audio": false,
    "has_single_image": true,
    "has_video": true,
    "height": 576,
    "interlaced_frame": false,
    "metadata": {},
    "path": "@transitions/common/fade.svg",
    "pixel_format": -1,
    "pixel_ratio": {
     "den": 1,
     "num": 1
    },
    "sample_rate": 0,
    "top_field_first": true,
    "type": "QtImageReader",
    "vcodec": "",
    "video_bit_rate": 0,
    "video_length": "108000",
    "video_stream_index": -1,
    "video_timebase": {
     "den": 30,
     "num": 1
    },
    "width": 720
   },
   "replace_image": false,
   "id": "XXA2JTVLMO"
  },
  {
   "layer": 2000000,
   "title": "Transition",
   "type": "Mask",
   "position": 11.433333333333334,
   "start": 0,
   "end": 1,
   "brightness": {
    "Points": [
     {
      "co": {
       "X": 1.0,
       "Y": 1.0
      },
      "handle_left": {
       "X": 0.5,
       "Y": 1.0
      },
      "handle_right": {
       "X": 0.5,
       "Y": 0.0
      },
      "handle_type": 0,
      "interpolation": 0
     },
     {
      "co": {
       "X": 30.0,
       "Y": -1.0
      },
      "handle_left": {
       "X": 0.5,
       "Y": 1.0
      },
      "handle_right": {
       "X": 0.5,
       "Y": 0.0
      },
      "handle_type": 0,
      "interpolation": 0
     }
    ]
   },
   "contrast": {
    "Points": [
     {
      "co": {
       "X": 1.0,
       "Y": 3.0
      },
      "handle_left": {
       "X": 0.5,
       "Y": 1.0
      },
      "handle_right": {
       "X": 0.5,
       "Y": 0.0
      },
      "handle_type": 0,
      "interpolation": 0
     },
     {
      "co": {
       "X": 30.0,
       "Y": 3.0
      },
      "handle_left": {
       "X": 0.5,
       "Y": 1.0
      },
      "handle_right": {
       "X": 0.5,
       "Y": 0.0
      },
      "handle_type": 0,
      "interpolation": 0
     }
    ]
   },
   "reader": {
    "acodec": "",
    "audio_bit_rate": 0,
    "audio_stream_index": -1,
    "audio_timebase": {
     "den": 1,
     "num": 1
    },
    "channel_layout": 4,
    "channels": 0,
    "display_ratio": {
     "den": 4,
     "num": 5
    },
    "duration": 3600.0,
    "file_size": "5832000",
    "fps": {
     "den": 1,
     "num": 30
    },
    "has_audio": false,
    "has_single_image": true,
    "has_video": true,
    "height": 576,
    "interlaced_frame": false,
    "metadata": {},
    "path": "@transitions/common/fade.svg",
    "pixel_format": -1,
    "pixel_ratio": {
     "den": 1,
     "num": 1
    },
    "sample_rate": 0,
    "top_field_first": true,
    "type": "QtImageReader",
    "vcodec": "",
    "video_bit_rate": 0,
    "video_length": "108000",
    "video_stream_index": -1,
    "video_timebase": {
     "den": 30,
     "num": 1
    },
    "width": 720
   },
   "replace_image": false,
   "id": "RN9POGRPKN"
  },
  {
   "layer": 2000000,
   "title": "Transition",
   "type": "Mask",
   "position": 19.333333333333332,
   "start": 0,
   "end": 1,
   "brightness": {
    "Points": [
     {
      "co": {
       "X": 1.0,
       "Y": -1.0
      },
      "handle_left": {
       "X": 0.5,
       "Y": 1.0
      },
      "handle_right": {
       "X": 0.5,
       "Y": 0.0
      },
      "handle_type": 0,
      "interpolation": 0
     },
     {
      "co": {
       "X": 30.0,
       "Y": 1.0
      },
      "handle_left": {
       "X": 0.5,
       "Y": 1.0
      },
      "handle_right": {
       "X": 0.5,
       "Y": 0.0
      },
      "handle_type": 0,
      "interpolation": 0
     }
    ]
   },
   "contrast": {
    "Points": [
     {
      "co": {
       "X": 1.0,
       "Y": 3.0
      },
      "handle_left": {
       "X": 0.5,
       "Y": 1.0
      },
      "handle_right": {
       "X": 0.5,
       "Y": 0.0
      },
      "handle_type": 0,
      "interpolation": 0
     },
     {
      "co": {
       "X": 30.0,
       "Y": 3.0
      },
      "handle_left": {
       "X": 0.5,
       "Y": 1.0
      },
      "handle_right": {
       "X": 0.5,
       "Y": 0.0
      },
      "handle_type": 0,
      "interpolation": 0
     }
    ]
   },
   "reader": {
    "acodec": "",
    "audio_bit_rate": 0,
    "audio_stream_index": -1,
    "audio_timebase": {
     "den": 1,
     "num": 1
    },
    "channel_layout": 4,
    "channels": 0,
    "display_ratio": {
     "den": 4,
     "num": 5
    },
    "duration": 3600.0,
    "file_size": "5832000",
    "fps": {
     "den": 1,
     "num": 30
    },
    "has_audio": false,
    "has_single_image": true,
    "has_video": true,
    "height": 576,
    "interlaced_frame": false,
    "metadata": {},
    "path": "@transitions/common/fade.svg",
    "pixel_format": -1,
    "pixel_ratio": {
     "den": 1,
     "num": 1
    },
    "sample_rate": 0,
    "top_field_first": true,
    "type": "QtImageReader",
    "vcodec": "",
    "video_bit_rate": 0,
    "video_length": "108000",
    "video_stream_index": -1,
    "video_timebase": {
     "den": 30,
     "num": 1
    },
    "width": 720
   },
   "replace_image": false,
   "id": "ADKB2ZG9IL"
  },
  {
   "layer": 2000000,
   "title": "Transition",
   "type": "Mask",
   "position": 20.966666666666665,
   "start": 0,
   "end": 1,
   "brightness": {
    "Points": [
     {
      "co": {
       "X": 1.0,
       "Y": 1.0
      },
      "handle_left": {
       "X": 0.5,
       "Y": 1.0
      },
      "handle_right": {
       "X": 0.5,
       "Y": 0.0
      },
      "handle_type": 0,
      "interpolation": 0
     },
     {
      "co": {
       "X": 30.0,
       "Y": -1.0
      },
      "handle_left": {
       "X": 0.5,
       "Y": 1.0
      },
      "handle_right": {
       "X": 0.5,
       "Y": 0.0
      },
      "handle_type": 0,
      "interpolation": 0
     }
    ]
   },
   "contrast": {
    "Points": [
     {
      "co": {
       "X": 1.0,
       "Y": 3.0
      },
      "handle_left": {
       "X": 0.5,
       "Y": 1.0
      },
      "handle_right": {
       "X": 0.5,
       "Y": 0.0
      },
      "handle_type": 0,
      "interpolation": 0
     },
     {
      "co": {
       "X": 30.0,
       "Y": 3.0
      },
      "handle_left": {
       "X": 0.5,
       "Y": 1.0
      },
      "handle_right": {
       "X": 0.5,
       "Y": 0.0
      },
      "handle_type": 0,
      "interpolation": 0
     }
    ]
   },
   "reader": {
    "acodec": "",
    "audio_bit_rate": 0,
    "audio_stream_index": -1,
    "audio_timebase": {
     "den": 1,
     "num": 1
    },
    "channel_layout": 4,
    "channels": 0,
    "display_ratio": {
     "den": 4,
     "num": 5
    },
    "duration": 3600.0,
    "file_size": "5832000",
    "fps": {
     "den": 1,
     "num": 30
    },
    "has_audio": false,
    "has_single_image": true,
    "has_video": true,
    "height": 576,
    "interlaced_frame": false,
    "metadata": {},
    "path": "@transitions/common/fade.svg",
    "pixel_format": -1,
    "pixel_ratio": {
     "den": 1,
     "num": 1
    },
    "sample_rate": 0,
    "top_field_first": true,
    "type": "QtImageReader",
    "vcodec": "",
    "video_bit_rate": 0,
    "video_length": "108000",
    "video_stream_index": -1,
    "video_timebase": {
     "den": 30,
     "num": 1
    },
    "width": 720
   },
   "replace_image": false,
   "id": "0W42OBC13Z"
  },
  {
   "layer": 3000000,
   "title": "Transition",
   "type": "Mask",
   "position": 21.966666666666665,
   "start": 0,
   "end": 1,
   "brightness": {
    "Points": [
     {
      "co": {
       "X": 1.0,
       "Y": 1.0
      },
      "handle_left": {
       "X": 0.5,
       "Y": 1.0
      },
      "handle_right": {
       "X": 0.5,
       "Y": 0.0
      },
      "handle_type": 0,
      "interpolation": 0
     },
     {
      "co": {
       "X": 30.0,
       "Y": -1.0
      },
      "handle_left": {
       "X": 0.5,
       "Y": 1.0
      },
      "handle_right": {
       "X": 0.5,
       "Y": 0.0
      },
      "handle_type": 0,
      "interpolation": 0
     }
    ]
   },
   "contrast": {
    "Points": [
     {
      "co": {
       "X": 1.0,
       "Y": 3.0
      },
      "handle_left": {
       "X": 0.5,
       "Y": 1.0
      },
      "handle_right": {
       "X": 0.5,
       "Y": 0.0
      },
      "handle_type": 0,
      "interpolation": 0
     },
     {
      "co": {
       "X": 30.0,
       "Y": 3.0
      },
      "handle_left": {
       "X": 0.5,
       "Y": 1.0
      },
      "handle_right": {
       "X": 0.5,
       "Y": 0.0
      },
      "handle_type": 0,
      "interpolation": 0
     }
    ]
   },
   "reader": {
    "acodec": "",
    "audio_bit_rate": 0,
    "audio_stream_index": -1,
    "audio_timebase": {
     "den": 1,
     "num": 1
    },
    "channel_layout": 4,
    "channels": 0,
    "display_ratio": {
     "den": 4,
     "num": 5
    },
    "duration": 3600.0,
    "file_size": "5832000",
    "fps": {
     "den": 1,
     "num": 30
    },
    "has_audio": false,
    "has_single_image": true,
    "has_video": true,
    "height": 576,
    "interlaced_frame": false,
    "metadata": {},
    "path": "@transitions/common/fade.svg",
    "pixel_format": -1,
    "pixel_ratio": {
     "den": 1,
     "num": 1
    },
    "sample_rate": 0,
    "top_field_first": true,
    "type": "QtImageReader",
    "vcodec": "",
    "video_bit_rate": 0,
    "video_length": "108000",
    "video_stream_index": -1,
    "video_timebase": {
     "den": 30,
     "num": 1
    },
    "width": 720
   },
   "replace_image": false,
   "id": "QSYGIBWS04"
  },
  {
   "layer": 4000000,
   "title": "Transition",
   "type": "Mask",
   "position": 21.966666666666665,
   "start": 0,
   "end": 1,
   "brightness": {
    "Points": [
     {
      "co": {
       "X": 1.0,
       "Y": 1.0
      },
      "handle_left": {
       "X": 0.5,
       "Y": 1.0
      },
      "handle_right": {
       "X": 0.5,
       "Y": 0.0
      },
      "handle_type": 0,
      "interpolation": 0
     },
     {
      "co": {
       "X": 30.0,
       "Y": -1.0
      },
      "handle_left": {
       "X": 0.5,
       "Y": 1.0
      },
      "handle_right": {
       "X": 0.5,
       "Y": 0.0
      },
      "handle_type": 0,
      "interpolation": 0
     }
    ]
   },
   "contrast": {
    "Points": [
     {
      "co": {
       "X": 1.0,
       "Y": 3.0
      },
      "handle_left": {
       "X": 0.5,
       "Y": 1.0
      },
      "handle_right": {
       "X": 0.5,
       "Y": 0.0
      },
      "handle_type": 0,
      "interpolation": 0
     },
     {
      "co": {
       "X": 30.0,
       "Y": 3.0
      },
      "handle_left": {
       "X": 0.5,
       "Y": 1.0
      },
      "handle_right": {
       "X": 0.5,
       "Y": 0.0
      },
      "handle_type": 0,
      "interpolation": 0
     }
    ]
   },
   "reader": {
    "acodec": "",
    "audio_bit_rate": 0,
    "audio_stream_index": -1,
    "audio_timebase": {
     "den": 1,
     "num": 1
    },
    "channel_layout": 4,
    "channels": 0,
    "display_ratio": {
     "den": 4,
     "num": 5
    },
    "duration": 3600.0,
    "file_size": "5832000",
    "fps": {
     "den": 1,
     "num": 30
    },
    "has_audio": false,
    "has_single_image": true,
    "has_video": true,
    "height": 576,
    "interlaced_frame": false,
    "metadata": {},
    "path": "@transitions/common/fade.svg",
    "pixel_format": -1,
    "pixel_ratio": {
     "den": 1,
     "num": 1
    },
    "sample_rate": 0,
    "top_field_first": true,
    "type": "QtImageReader",
    "vcodec": "",
    "video_bit_rate": 0,
    "video_length": "108000",
    "video_stream_index": -1,
    "video_timebase": {
     "den": 30,
     "num": 1
    },
    "width": 720
   },
   "replace_image": false,
   "id": "MUDX88MTT3"
  },
  {
   "layer": 7000000,
   "title": "Transition",
   "type": "Mask",
   "position": 21.966666666666665,
   "start": 0,
   "end": 1,
   "brightness": {
    "Points": [
     {
      "co": {
       "X": 1.0,
       "Y": 1.0
      },
      "handle_left": {
       "X": 0.5,
       "Y": 1.0
      },
      "handle_right": {
       "X": 0.5,
       "Y": 0.0
      },
      "handle_type": 0,
      "interpolation": 0
     },
     {
      "co": {
       "X": 30.0,
       "Y": -1.0
      },
      "handle_left": {
       "X": 0.5,
       "Y": 1.0
      },
      "handle_right": {
       "X": 0.5,
       "Y": 0.0
      },
      "handle_type": 0,
      "interpolation": 0
     }
    ]
   },
   "contrast": {
    "Points": [
     {
      "co": {
       "X": 1.0,
       "Y": 3.0
      },
      "handle_left": {
       "X": 0.5,
       "Y": 1.0
      },
      "handle_right": {
       "X": 0.5,
       "Y": 0.0
      },
      "handle_type": 0,
      "interpolation": 0
     },
     {
      "co": {
       "X": 30.0,
       "Y": 3.0
      },
      "handle_left": {
       "X": 0.5,
       "Y": 1.0
      },
      "handle_right": {
       "X": 0.5,
       "Y": 0.0
      },
      "handle_type": 0,
      "interpolation": 0
     }
    ]
   },
   "reader": {
    "acodec": "",
    "audio_bit_rate": 0,
    "audio_stream_index": -1,
    "audio_timebase": {
     "den": 1,
     "num": 1
    },
    "channel_layout": 4,
    "channels": 0,
    "display_ratio": {
     "den": 4,
     "num": 5
    },
    "duration": 3600.0,
    "file_size": "5832000",
    "fps": {
     "den": 1,
     "num": 30
    },
    "has_audio": false,
    "has_single_image": true,
    "has_video": true,
    "height": 576,
    "interlaced_frame": false,
    "metadata": {},
    "path": "@transitions/common/fade.svg",
    "pixel_format": -1,
    "pixel_ratio": {
     "den": 1,
     "num": 1
    },
    "sample_rate": 0,
    "top_field_first": true,
    "type": "QtImageReader",
    "vcodec": "",
    "video_bit_rate": 0,
    "video_length": "108000",
    "video_stream_index": -1,
    "video_timebase": {
     "den": 30,
     "num": 1
    },
    "width": 720
   },
   "replace_image": false,
   "id": "4L09X67XI2"
  },
  {
   "layer": 5000000,
   "title": "Transition",
   "type": "Mask",
   "position": 21.966666666666665,
   "start": 0,
   "end": 1,
   "brightness": {
    "Points": [
     {
      "co": {
       "X": 1.0,
       "Y": 1.0
      },
      "handle_left": {
       "X": 0.5,
       "Y": 1.0
      },
      "handle_right": {
       "X": 0.5,
       "Y": 0.0
      },
      "handle_type": 0,
      "interpolation": 0
     },
     {
      "co": {
       "X": 30.0,
       "Y": -1.0
      },
      "handle_left": {
       "X": 0.5,
       "Y": 1.0
      },
      "handle_right": {
       "X": 0.5,
       "Y": 0.0
      },
      "handle_type": 0,
      "interpolation": 0
     }
    ]
   },
   "contrast": {
    "Points": [
     {
      "co": {
       "X": 1.0,
       "Y": 3.0
      },
      "handle_left": {
       "X": 0.5,
       "Y": 1.0
      },
      "handle_right": {
       "X": 0.5,
       "Y": 0.0
      },
      "handle_type": 0,
      "interpolation": 0
     },
     {
      "co": {
       "X": 30.0,
       "Y": 3.0
      },
      "handle_left": {
       "X": 0.5,
       "Y": 1.0
      },
      "handle_right": {
       "X": 0.5,
       "Y": 0.0
      },
      "handle_type": 0,
      "interpolation": 0
     }
    ]
   },
   "reader": {
    "acodec": "",
    "audio_bit_rate": 0,
    "audio_stream_index": -1,
    "audio_timebase": {
     "den": 1,
     "num": 1
    },
    "channel_layout": 4,
    "channels": 0,
    "display_ratio": {
     "den": 4,
     "num": 5
    },
    "duration": 3600.0,
    "file_size": "5832000",
    "fps": {
     "den": 1,
     "num": 30
    },
    "has_audio": false,
    "has_single_image": true,
    "has_video": true,
    "height": 576,
    "interlaced_frame": false,
    "metadata": {},
    "path": "@transitions/common/fade.svg",
    "pixel_format": -1,
    "pixel_ratio": {
     "den": 1,
     "num": 1
    },
    "sample_rate": 0,
    "top_field_first": true,
    "type": "QtImageReader",
    "vcodec": "",
    "video_bit_rate": 0,
    "video_length": "108000",
    "video_stream_index": -1,
    "video_timebase": {
     "den": 30,
     "num": 1
    },
    "width": 720
   },
   "replace_image": false,
   "id": "O681WSL8AF"
  },
  {
   "layer": 6000000,
   "title": "Transition",
   "type": "Mask",
   "position": 21.966666666666665,
   "start": 0,
   "end": 1,
   "brightness": {
    "Points": [
     {
      "co": {
       "X": 1.0,
       "Y": 1.0
      },
      "handle_left": {
       "X": 0.5,
       "Y": 1.0
      },
      "handle_right": {
       "X": 0.5,
       "Y": 0.0
      },
      "handle_type": 0,
      "interpolation": 0
     },
     {
      "co": {
       "X": 30.0,
       "Y": -1.0
      },
      "handle_left": {
       "X": 0.5,
       "Y": 1.0
      },
      "handle_right": {
       "X": 0.5,
       "Y": 0.0
      },
      "handle_type": 0,
      "interpolation": 0
     }
    ]
   },
   "contrast": {
    "Points": [
     {
      "co": {
       "X": 1.0,
       "Y": 3.0
      },
      "handle_left": {
       "X": 0.5,
       "Y": 1.0
      },
      "handle_right": {
       "X": 0.5,
       "Y": 0.0
      },
      "handle_type": 0,
      "interpolation": 0
     },
     {
      "co": {
       "X": 30.0,
       "Y": 3.0
      },
      "handle_left": {
       "X": 0.5,
       "Y": 1.0
      },
      "handle_right": {
       "X": 0.5,
       "Y": 0.0
      },
      "handle_type": 0,
      "interpolation": 0
     }
    ]
   },
   "reader": {
    "acodec": "",
    "audio_bit_rate": 0,
    "audio_stream_index": -1,
    "audio_timebase": {
     "den": 1,
     "num": 1
    },
    "channel_layout": 4,
    "channels": 0,
    "display_ratio": {
     "den": 4,
     "num": 5
    },
    "duration": 3600.0,
    "file_size": "5832000",
    "fps": {
     "den": 1,
     "num": 30
    },
    "has_audio": false,
    "has_single_image": true,
    "has_video": true,
    "height": 576,
    "interlaced_frame": false,
    "metadata": {},
    "path": "@transitions/common/fade.svg",
    "pixel_format": -1,
    "pixel_ratio": {
     "den": 1,
     "num": 1
    },
    "sample_rate": 0,
    "top_field_first": true,
    "type": "QtImageReader",
    "vcodec": "",
    "video_bit_rate": 0,
    "video_length": "108000",
    "video_stream_index": -1,
    "video_timebase": {
     "den": 30,
     "num": 1
    },
    "width": 720
   },
   "replace_image": false,
   "id": "M088VM48FK"
  },
  {
   "layer": 6000000,
   "title": "Transition",
   "type": "Mask",
   "position": 25.266666666666666,
   "start": 0,
   "end": 1,
   "brightness": {
    "Points": [
     {
      "co": {
       "X": 1.0,
       "Y": -1.0
      },
      "handle_left": {
       "X": 0.5,
       "Y": 1.0
      },
      "handle_right": {
       "X": 0.5,
       "Y": 0.0
      },
      "handle_type": 0,
      "interpolation": 0
     },
     {
      "co": {
       "X": 30.0,
       "Y": 1.0
      },
      "handle_left": {
       "X": 0.5,
       "Y": 1.0
      },
      "handle_right": {
       "X": 0.5,
       "Y": 0.0
      },
      "handle_type": 0,
      "interpolation": 0
     }
    ]
   },
   "contrast": {
    "Points": [
     {
      "co": {
       "X": 1.0,
       "Y": 3.0
      },
      "handle_left": {
       "X": 0.5,
       "Y": 1.0
      },
      "handle_right": {
       "X": 0.5,
       "Y": 0.0
      },
      "handle_type": 0,
      "interpolation": 0
     },
     {
      "co": {
       "X": 30.0,
       "Y": 3.0
      },
      "handle_left": {
       "X": 0.5,
       "Y": 1.0
      },
      "handle_right": {
       "X": 0.5,
       "Y": 0.0
      },
      "handle_type": 0,
      "interpolation": 0
     }
    ]
   },
   "reader": {
    "acodec": "",
    "audio_bit_rate": 0,
    "audio_stream_index": -1,
    "audio_timebase": {
     "den": 1,
     "num": 1
    },
    "channel_layout": 4,
    "channels": 0,
    "display_ratio": {
     "den": 4,
     "num": 5
    },
    "duration": 3600.0,
    "file_size": "5832000",
    "fps": {
     "den": 1,
     "num": 30
    },
    "has_audio": false,
    "has_single_image": true,
    "has_video": true,
    "height": 576,
    "interlaced_frame": false,
    "metadata": {},
    "path": "@transitions/common/fade.svg",
    "pixel_format": -1,
    "pixel_ratio": {
     "den": 1,
     "num": 1
    },
    "sample_rate": 0,
    "top_field_first": true,
    "type": "QtImageReader",
    "vcodec": "",
    "video_bit_rate": 0,
    "video_length": "108000",
    "video_stream_index": -1,
    "video_timebase": {
     "den": 30,
     "num": 1
    },
    "width": 720
   },
   "replace_image": false,
   "id": "C9SIN6QZ8S"
  },
  {
   "layer": 5000000,
   "title": "Transition",
   "type": "Mask",
   "position": 25.266666666666666,
   "start": 0,
   "end": 1,
   "brightness": {
    "Points": [
     {
      "co": {
       "X": 1.0,
       "Y": -1.0
      },
      "handle_left": {
       "X": 0.5,
       "Y": 1.0
      },
      "handle_right": {
       "X": 0.5,
       "Y": 0.0
      },
      "handle_type": 0,
      "interpolation": 0
     },
     {
      "co": {
       "X": 30.0,
       "Y": 1.0
      },
      "handle_left": {
       "X": 0.5,
       "Y": 1.0
      },
      "handle_right": {
       "X": 0.5,
       "Y": 0.0
      },
      "handle_type": 0,
      "interpolation": 0
     }
    ]
   },
   "contrast": {
    "Points": [
     {
      "co": {
       "X": 1.0,
       "Y": 3.0
      },
      "handle_left": {
       "X": 0.5,
       "Y": 1.0
      },
      "handle_right": {
       "X": 0.5,
       "Y": 0.0
      },
      "handle_type": 0,
      "interpolation": 0
     },
     {
      "co": {
       "X": 30.0,
       "Y": 3.0
      },
      "handle_left": {
       "X": 0.5,
       "Y": 1.0
      },
      "handle_right": {
       "X": 0.5,
       "Y": 0.0
      },
      "handle_type": 0,
      "interpolation": 0
     }
    ]
   },
   "reader": {
    "acodec": "",
    "audio_bit_rate": 0,
    "audio_stream_index": -1,
    "audio_timebase": {
     "den": 1,
     "num": 1
    },
    "channel_layout": 4,
    "channels": 0,
    "display_ratio": {
     "den": 4,
     "num": 5
    },
    "duration": 3600.0,
    "file_size": "5832000",
    "fps": {
     "den": 1,
     "num": 30
    },
    "has_audio": false,
    "has_single_image": true,
    "has_video": true,
    "height": 576,
    "interlaced_frame": false,
    "metadata": {},
    "path": "@transitions/common/fade.svg",
    "pixel_format": -1,
    "pixel_ratio": {
     "den": 1,
     "num": 1
    },
    "sample_rate": 0,
    "top_field_first": true,
    "type": "QtImageReader",
    "vcodec": "",
    "video_bit_rate": 0,
    "video_length": "108000",
    "video_stream_index": -1,
    "video_timebase": {
     "den": 30,
     "num": 1
    },
    "width": 720
   },
   "replace_image": false,
   "id": "I6YLI3CQDR"
  },
  {
   "layer": 4000000,
   "title": "Transition",
   "type": "Mask",
   "position": 25.266666666666666,
   "start": 0,
   "end": 1,
   "brightness": {
    "Points": [
     {
      "co": {
       "X": 1.0,
       "Y": -1.0
      },
      "handle_left": {
       "X": 0.5,
       "Y": 1.0
      },
      "handle_right": {
       "X": 0.5,
       "Y": 0.0
      },
      "handle_type": 0,
      "interpolation": 0
     },
     {
      "co": {
       "X": 30.0,
       "Y": 1.0
      },
      "handle_left": {
       "X": 0.5,
       "Y": 1.0
      },
      "handle_right": {
       "X": 0.5,
       "Y": 0.0
      },
      "handle_type": 0,
      "interpolation": 0
     }
    ]
   },
   "contrast": {
    "Points": [
     {
      "co": {
       "X": 1.0,
       "Y": 3.0
      },
      "handle_left": {
       "X": 0.5,
       "Y": 1.0
      },
      "handle_right": {
       "X": 0.5,
       "Y": 0.0
      },
      "handle_type": 0,
      "interpolation": 0
     },
     {
      "co": {
       "X": 30.0,
       "Y": 3.0
      },
      "handle_left": {
       "X": 0.5,
       "Y": 1.0
      },
      "handle_right": {
       "X": 0.5,
       "Y": 0.0
      },
      "handle_type": 0,
      "interpolation": 0
     }
    ]
   },
   "reader": {
    "acodec": "",
    "audio_bit_rate": 0,
    "audio_stream_index": -1,
    "audio_timebase": {
     "den": 1,
     "num": 1
    },
    "channel_layout": 4,
    "channels": 0,
    "display_ratio": {
     "den": 4,
     "num": 5
    },
    "duration": 3600.0,
    "file_size": "5832000",
    "fps": {
     "den": 1,
     "num": 30
    },
    "has_audio": false,
    "has_single_image": true,
    "has_video": true,
    "height": 576,
    "interlaced_frame": false,
    "metadata": {},
    "path": "@transitions/common/fade.svg",
    "pixel_format": -1,
    "pixel_ratio": {
     "den": 1,
     "num": 1
    },
    "sample_rate": 0,
    "top_field_first": true,
    "type": "QtImageReader",
    "vcodec": "",
    "video_bit_rate": 0,
    "video_length": "108000",
    "video_stream_index": -1,
    "video_timebase": {
     "den": 30,
     "num": 1
    },
    "width": 720
   },
   "replace_image": false,
   "id": "G0XGWQG64E"
  },
  {
   "layer": 3000000,
   "title": "Transition",
   "type": "Mask",
   "position": 25.266666666666666,
   "start": 0,
   "end": 1,
   "brightness": {
    "Points": [
     {
      "co": {
       "X": 1.0,
       "Y": -1.0
      },
      "handle_left": {
       "X": 0.5,
       "Y": 1.0
      },
      "handle_right": {
       "X": 0.5,
       "Y": 0.0
      },
      "handle_type": 0,
      "interpolation": 0
     },
     {
      "co": {
       "X": 30.0,
       "Y": 1.0
      },
      "handle_left": {
       "X": 0.5,
       "Y": 1.0
      },
      "handle_right": {
       "X": 0.5,
       "Y": 0.0
      },
      "handle_type": 0,
      "interpolation": 0
     }
    ]
   },
   "contrast": {
    "Points": [
     {
      "co": {
       "X": 1.0,
       "Y": 3.0
      },
      "handle_left": {
       "X": 0.5,
       "Y": 1.0
      },
      "handle_right": {
       "X": 0.5,
       "Y": 0.0
      },
      "handle_type": 0,
      "interpolation": 0
     },
     {
      "co": {
       "X": 30.0,
       "Y": 3.0
      },
      "handle_left": {
       "X": 0.5,
       "Y": 1.0
      },
      "handle_right": {
       "X": 0.5,
       "Y": 0.0
      },
      "handle_type": 0,
      "interpolation": 0
     }
    ]
   },
   "reader": {
    "acodec": "",
    "audio_bit_rate": 0,
    "audio_stream_index": -1,
    "audio_timebase": {
     "den": 1,
     "num": 1
    },
    "channel_layout": 4,
    "channels": 0,
    "display_ratio": {
     "den": 4,
     "num": 5
    },
    "duration": 3600.0,
    "file_size": "5832000",
    "fps": {
     "den": 1,
     "num": 30
    },
    "has_audio": false,
    "has_single_image": true,
    "has_video": true,
    "height": 576,
    "interlaced_frame": false,
    "metadata": {},
    "path": "@transitions/common/fade.svg",
    "pixel_format": -1,
    "pixel_ratio": {
     "den": 1,
     "num": 1
    },
    "sample_rate": 0,
    "top_field_first": true,
    "type": "QtImageReader",
    "vcodec": "",
    "video_bit_rate": 0,
    "video_length": "108000",
    "video_stream_index": -1,
    "video_timebase": {
     "den": 30,
     "num": 1
    },
    "width": 720
   },
   "replace_image": false,
   "id": "SQUUWVPO2R"
  },
  {
   "layer": 7000000,
   "title": "Transition",
   "type": "Mask",
   "position": 25.266666666666666,
   "start": 0,
   "end": 1,
   "brightness": {
    "Points": [
     {
      "co": {
       "X": 1.0,
       "Y": -1.0
      },
      "handle_left": {
       "X": 0.5,
       "Y": 1.0
      },
      "handle_right": {
       "X": 0.5,
       "Y": 0.0
      },
      "handle_type": 0,
      "interpolation": 0
     },
     {
      "co": {
       "X": 30.0,
       "Y": 1.0
      },
      "handle_left": {
       "X": 0.5,
       "Y": 1.0
      },
      "handle_right": {
       "X": 0.5,
       "Y": 0.0
      },
      "handle_type": 0,
      "interpolation": 0
     }
    ]
   },
   "contrast": {
    "Points": [
     {
      "co": {
       "X": 1.0,
       "Y": 3.0
      },
      "handle_left": {
       "X": 0.5,
       "Y": 1.0
      },
      "handle_right": {
       "X": 0.5,
       "Y": 0.0
      },
      "handle_type": 0,
      "interpolation": 0
     },
     {
      "co": {
       "X": 30.0,
       "Y": 3.0
      },
      "handle_left": {
       "X": 0.5,
       "Y": 1.0
      },
      "handle_right": {
       "X": 0.5,
       "Y": 0.0
      },
      "handle_type": 0,
      "interpolation": 0
     }
    ]
   },
   "reader": {
    "acodec": "",
    "audio_bit_rate": 0,
    "audio_stream_index": -1,
    "audio_timebase": {
     "den": 1,
     "num": 1
    },
    "channel_layout": 4,
    "channels": 0,
    "display_ratio": {
     "den": 4,
     "num": 5
    },
    "duration": 3600.0,
    "file_size": "5832000",
    "fps": {
     "den": 1,
     "num": 30
    },
    "has_audio": false,
    "has_single_image": true,
    "has_video": true,
    "height": 576,
    "interlaced_frame": false,
    "metadata": {},
    "path": "@transitions/common/fade.svg",
    "pixel_format": -1,
    "pixel_ratio": {
     "den": 1,
     "num": 1
    },
    "sample_rate": 0,
    "top_field_first": true,
    "type": "QtImageReader",
    "vcodec": "",
    "video_bit_rate": 0,
    "video_length": "108000",
    "video_stream_index": -1,
    "video_timebase": {
     "den": 30,
     "num": 1
    },
    "width": 720
   },
   "replace_image": false,
   "id": "BHKYCUMDC6"
  },
  {
   "layer": 7000000,
   "title": "Transition",
   "type": "Mask",
   "position": 26.633333333333333,
   "start": 0,
   "end": 1,
   "brightness": {
    "Points": [
     {
      "co": {
       "X": 1.0,
       "Y": 1.0
      },
      "handle_left": {
       "X": 0.5,
       "Y": 1.0
      },
      "handle_right": {
       "X": 0.5,
       "Y": 0.0
      },
      "handle_type": 0,
      "interpolation": 0
     },
     {
      "co": {
       "X": 30.0,
       "Y": -1.0
      },
      "handle_left": {
       "X": 0.5,
       "Y": 1.0
      },
      "handle_right": {
       "X": 0.5,
       "Y": 0.0
      },
      "handle_type": 0,
      "interpolation": 0
     }
    ]
   },
   "contrast": {
    "Points": [
     {
      "co": {
       "X": 1.0,
       "Y": 3.0
      },
      "handle_left": {
       "X": 0.5,
       "Y": 1.0
      },
      "handle_right": {
       "X": 0.5,
       "Y": 0.0
      },
      "handle_type": 0,
      "interpolation": 0
     },
     {
      "co": {
       "X": 30.0,
       "Y": 3.0
      },
      "handle_left": {
       "X": 0.5,
       "Y": 1.0
      },
      "handle_right": {
       "X": 0.5,
       "Y": 0.0
      },
      "handle_type": 0,
      "interpolation": 0
     }
    ]
   },
   "reader": {
    "acodec": "",
    "audio_bit_rate": 0,
    "audio_stream_index": -1,
    "audio_timebase": {
     "den": 1,
     "num": 1
    },
    "channel_layout": 4,
    "channels": 0,
    "display_ratio": {
     "den": 4,
     "num": 5
    },
    "duration": 3600.0,
    "file_size": "5832000",
    "fps": {
     "den": 1,
     "num": 30
    },
    "has_audio": false,
    "has_single_image": true,
    "has_video": true,
    "height": 576,
    "interlaced_frame": false,
    "metadata": {},
    "path": "@transitions/common/fade.svg",
    "pixel_format": -1,
    "pixel_ratio": {
     "den": 1,
     "num": 1
    },
    "sample_rate": 0,
    "top_field_first": true,
    "type": "QtImageReader",
    "vcodec": "",
    "video_bit_rate": 0,
    "video_length": "108000",
    "video_stream_index": -1,
    "video_timebase": {
     "den": 30,
     "num": 1
    },
    "width": 720
   },
   "replace_image": false,
   "id": "Z4LPCLVXCA"
  },
  {
   "layer": 6000000,
   "title": "Transition",
   "type": "Mask",
   "position": 26.633333333333333,
   "start": 0,
   "end": 1,
   "brightness": {
    "Points": [
     {
      "co": {
       "X": 1.0,
       "Y": 1.0
      },
      "handle_left": {
       "X": 0.5,
       "Y": 1.0
      },
      "handle_right": {
       "X": 0.5,
       "Y": 0.0
      },
      "handle_type": 0,
      "interpolation": 0
     },
     {
      "co": {
       "X": 30.0,
       "Y": -1.0
      },
      "handle_left": {
       "X": 0.5,
       "Y": 1.0
      },
      "handle_right": {
       "X": 0.5,
       "Y": 0.0
      },
      "handle_type": 0,
      "interpolation": 0
     }
    ]
   },
   "contrast": {
    "Points": [
     {
      "co": {
       "X": 1.0,
       "Y": 3.0
      },
      "handle_left": {
       "X": 0.5,
       "Y": 1.0
      },
      "handle_right": {
       "X": 0.5,
       "Y": 0.0
      },
      "handle_type": 0,
      "interpolation": 0
     },
     {
      "co": {
       "X": 30.0,
       "Y": 3.0
      },
      "handle_left": {
       "X": 0.5,
       "Y": 1.0
      },
      "handle_right": {
       "X": 0.5,
       "Y": 0.0
      },
      "handle_type": 0,
      "interpolation": 0
     }
    ]
   },
   "reader": {
    "acodec": "",
    "audio_bit_rate": 0,
    "audio_stream_index": -1,
    "audio_timebase": {
     "den": 1,
     "num": 1
    },
    "channel_layout": 4,
    "channels": 0,
    "display_ratio": {
     "den": 4,
     "num": 5
    },
    "duration": 3600.0,
    "file_size": "5832000",
    "fps": {
     "den": 1,
     "num": 30
    },
    "has_audio": false,
    "has_single_image": true,
    "has_video": true,
    "height": 576,
    "interlaced_frame": false,
    "metadata": {},
    "path": "@transitions/common/fade.svg",
    "pixel_format": -1,
    "pixel_ratio": {
     "den": 1,
     "num": 1
    },
    "sample_rate": 0,
    "top_field_first": true,
    "type": "QtImageReader",
    "vcodec": "",
    "video_bit_rate": 0,
    "video_length": "108000",
    "video_stream_index": -1,
    "video_timebase": {
     "den": 30,
     "num": 1
    },
    "width": 720
   },
   "replace_image": false,
   "id": "MPAHNTV5UJ"
  },
  {
   "layer": 5000000,
   "title": "Transition",
   "type": "Mask",
   "position": 26.633333333333333,
   "start": 0,
   "end": 1,
   "brightness": {
    "Points": [
     {
      "co": {
       "X": 1.0,
       "Y": 1.0
      },
      "handle_left": {
       "X": 0.5,
       "Y": 1.0
      },
      "handle_right": {
       "X": 0.5,
       "Y": 0.0
      },
      "handle_type": 0,
      "interpolation": 0
     },
     {
      "co": {
       "X": 30.0,
       "Y": -1.0
      },
      "handle_left": {
       "X": 0.5,
       "Y": 1.0
      },
      "handle_right": {
       "X": 0.5,
       "Y": 0.0
      },
      "handle_type": 0,
      "interpolation": 0
     }
    ]
   },
   "contrast": {
    "Points": [
     {
      "co": {
       "X": 1.0,
       "Y": 3.0
      },
      "handle_left": {
       "X": 0.5,
       "Y": 1.0
      },
      "handle_right": {
       "X": 0.5,
       "Y": 0.0
      },
      "handle_type": 0,
      "interpolation": 0
     },
     {
      "co": {
       "X": 30.0,
       "Y": 3.0
      },
      "handle_left": {
       "X": 0.5,
       "Y": 1.0
      },
      "handle_right": {
       "X": 0.5,
       "Y": 0.0
      },
      "handle_type": 0,
      "interpolation": 0
     }
    ]
   },
   "reader": {
    "acodec": "",
    "audio_bit_rate": 0,
    "audio_stream_index": -1,
    "audio_timebase": {
     "den": 1,
     "num": 1
    },
    "channel_layout": 4,
    "channels": 0,
    "display_ratio": {
     "den": 4,
     "num": 5
    },
    "duration": 3600.0,
    "file_size": "5832000",
    "fps": {
     "den": 1,
     "num": 30
    },
    "has_audio": false,
    "has_single_image": true,
    "has_video": true,
    "height": 576,
    "interlaced_frame": false,
    "metadata": {},
    "path": "@transitions/common/fade.svg",
    "pixel_format": -1,
    "pixel_ratio": {
     "den": 1,
     "num": 1
    },
    "sample_rate": 0,
    "top_field_first": true,
    "type": "QtImageReader",
    "vcodec": "",
    "video_bit_rate": 0,
    "video_length": "108000",
    "video_stream_index": -1,
    "video_timebase": {
     "den": 30,
     "num": 1
    },
    "width": 720
   },
   "replace_image": false,
   "id": "47G933Z1X6"
  },
  {
   "layer": 4000000,
   "title": "Transition",
   "type": "Mask",
   "position": 26.633333333333333,
   "start": 0,
   "end": 1,
   "brightness": {
    "Points": [
     {
      "co": {
       "X": 1.0,
       "Y": 1.0
      },
      "handle_left": {
       "X": 0.5,
       "Y": 1.0
      },
      "handle_right": {
       "X": 0.5,
       "Y": 0.0
      },
      "handle_type": 0,
      "interpolation": 0
     },
     {
      "co": {
       "X": 30.0,
       "Y": -1.0
      },
      "handle_left": {
       "X": 0.5,
       "Y": 1.0
      },
      "handle_right": {
       "X": 0.5,
       "Y": 0.0
      },
      "handle_type": 0,
      "interpolation": 0
     }
    ]
   },
   "contrast": {
    "Points": [
     {
      "co": {
       "X": 1.0,
       "Y": 3.0
      },
      "handle_left": {
       "X": 0.5,
       "Y": 1.0
      },
      "handle_right": {
       "X": 0.5,
       "Y": 0.0
      },
      "handle_type": 0,
      "interpolation": 0
     },
     {
      "co": {
       "X": 30.0,
       "Y": 3.0
      },
      "handle_left": {
       "X": 0.5,
       "Y": 1.0
      },
      "handle_right": {
       "X": 0.5,
       "Y": 0.0
      },
      "handle_type": 0,
      "interpolation": 0
     }
    ]
   },
   "reader": {
    "acodec": "",
    "audio_bit_rate": 0,
    "audio_stream_index": -1,
    "audio_timebase": {
     "den": 1,
     "num": 1
    },
    "channel_layout": 4,
    "channels": 0,
    "display_ratio": {
     "den": 4,
     "num": 5
    },
    "duration": 3600.0,
    "file_size": "5832000",
    "fps": {
     "den": 1,
     "num": 30
    },
    "has_audio": false,
    "has_single_image": true,
    "has_video": true,
    "height": 576,
    "interlaced_frame": false,
    "metadata": {},
    "path": "@transitions/common/fade.svg",
    "pixel_format": -1,
    "pixel_ratio": {
     "den": 1,
     "num": 1
    },
    "sample_rate": 0,
    "top_field_first": true,
    "type": "QtImageReader",
    "vcodec": "",
    "video_bit_rate": 0,
    "video_length": "108000",
    "video_stream_index": -1,
    "video_timebase": {
     "den": 30,
     "num": 1
    },
    "width": 720
   },
   "replace_image": false,
   "id": "J3F6G7YKRA"
  },
  {
   "layer": 3000000,
   "title": "Transition",
   "type": "Mask",
   "position": 26.633333333333333,
   "start": 0,
   "end": 1,
   "brightness": {
    "Points": [
     {
      "co": {
       "X": 1.0,
       "Y": 1.0
      },
      "handle_left": {
       "X": 0.5,
       "Y": 1.0
      },
      "handle_right": {
       "X": 0.5,
       "Y": 0.0
      },
      "handle_type": 0,
      "interpolation": 0
     },
     {
      "co": {
       "X": 30.0,
       "Y": -1.0
      },
      "handle_left": {
       "X": 0.5,
       "Y": 1.0
      },
      "handle_right": {
       "X": 0.5,
       "Y": 0.0
      },
      "handle_type": 0,
      "interpolation": 0
     }
    ]
   },
   "contrast": {
    "Points": [
     {
      "co": {
       "X": 1.0,
       "Y": 3.0
      },
      "handle_left": {
       "X": 0.5,
       "Y": 1.0
      },
      "handle_right": {
       "X": 0.5,
       "Y": 0.0
      },
      "handle_type": 0,
      "interpolation": 0
     },
     {
      "co": {
       "X": 30.0,
       "Y": 3.0
      },
      "handle_left": {
       "X": 0.5,
       "Y": 1.0
      },
      "handle_right": {
       "X": 0.5,
       "Y": 0.0
      },
      "handle_type": 0,
      "interpolation": 0
     }
    ]
   },
   "reader": {
    "acodec": "",
    "audio_bit_rate": 0,
    "audio_stream_index": -1,
    "audio_timebase": {
     "den": 1,
     "num": 1
    },
    "channel_layout": 4,
    "channels": 0,
    "display_ratio": {
     "den": 4,
     "num": 5
    },
    "duration": 3600.0,
    "file_size": "5832000",
    "fps": {
     "den": 1,
     "num": 30
    },
    "has_audio": false,
    "has_single_image": true,
    "has_video": true,
    "height": 576,
    "interlaced_frame": false,
    "metadata": {},
    "path": "@transitions/common/fade.svg",
    "pixel_format": -1,
    "pixel_ratio": {
     "den": 1,
     "num": 1
    },
    "sample_rate": 0,
    "top_field_first": true,
    "type": "QtImageReader",
    "vcodec": "",
    "video_bit_rate": 0,
    "video_length": "108000",
    "video_stream_index": -1,
    "video_timebase": {
     "den": 30,
     "num": 1
    },
    "width": 720
   },
   "replace_image": false,
   "id": "YIVQE4FZQJ"
  },
  {
   "layer": 7000000,
   "title": "Transition",
   "type": "Mask",
   "position": 29.933333333333334,
   "start": 0,
   "end": 1,
   "brightness": {
    "Points": [
     {
      "co": {
       "X": 1.0,
       "Y": -1.0
      },
      "handle_left": {
       "X": 0.5,
       "Y": 1.0
      },
      "handle_right": {
       "X": 0.5,
       "Y": 0.0
      },
      "handle_type": 0,
      "interpolation": 0
     },
     {
      "co": {
       "X": 30.0,
       "Y": 1.0
      },
      "handle_left": {
       "X": 0.5,
       "Y": 1.0
      },
      "handle_right": {
       "X": 0.5,
       "Y": 0.0
      },
      "handle_type": 0,
      "interpolation": 0
     }
    ]
   },
   "contrast": {
    "Points": [
     {
      "co": {
       "X": 1.0,
       "Y": 3.0
      },
      "handle_left": {
       "X": 0.5,
       "Y": 1.0
      },
      "handle_right": {
       "X": 0.5,
       "Y": 0.0
      },
      "handle_type": 0,
      "interpolation": 0
     },
     {
      "co": {
       "X": 30.0,
       "Y": 3.0
      },
      "handle_left": {
       "X": 0.5,
       "Y": 1.0
      },
      "handle_right": {
       "X": 0.5,
       "Y": 0.0
      },
      "handle_type": 0,
      "interpolation": 0
     }
    ]
   },
   "reader": {
    "acodec": "",
    "audio_bit_rate": 0,
    "audio_stream_index": -1,
    "audio_timebase": {
     "den": 1,
     "num": 1
    },
    "channel_layout": 4,
    "channels": 0,
    "display_ratio": {
     "den": 4,
     "num": 5
    },
    "duration": 3600.0,
    "file_size": "5832000",
    "fps": {
     "den": 1,
     "num": 30
    },
    "has_audio": false,
    "has_single_image": true,
    "has_video": true,
    "height": 576,
    "interlaced_frame": false,
    "metadata": {},
    "path": "@transitions/common/fade.svg",
    "pixel_format": -1,
    "pixel_ratio": {
     "den": 1,
     "num": 1
    },
    "sample_rate": 0,
    "top_field_first": true,
    "type": "QtImageReader",
    "vcodec": "",
    "video_bit_rate": 0,
    "video_length": "108000",
    "video_stream_index": -1,
    "video_timebase": {
     "den": 30,
     "num": 1
    },
    "width": 720
   },
   "replace_image": false,
   "id": "IHGENV3HTQ"
  },
  {
   "layer": 6000000,
   "title": "Transition",
   "type": "Mask",
   "position": 29.933333333333334,
   "start": 0,
   "end": 1,
   "brightness": {
    "Points": [
     {
      "co": {
       "X": 1.0,
       "Y": -1.0
      },
      "handle_left": {
       "X": 0.5,
       "Y": 1.0
      },
      "handle_right": {
       "X": 0.5,
       "Y": 0.0
      },
      "handle_type": 0,
      "interpolation": 0
     },
     {
      "co": {
       "X": 30.0,
       "Y": 1.0
      },
      "handle_left": {
       "X": 0.5,
       "Y": 1.0
      },
      "handle_right": {
       "X": 0.5,
       "Y": 0.0
      },
      "handle_type": 0,
      "interpolation": 0
     }
    ]
   },
   "contrast": {
    "Points": [
     {
      "co": {
       "X": 1.0,
       "Y": 3.0
      },
      "handle_left": {
       "X": 0.5,
       "Y": 1.0
      },
      "handle_right": {
       "X": 0.5,
       "Y": 0.0
      },
      "handle_type": 0,
      "interpolation": 0
     },
     {
      "co": {
       "X": 30.0,
       "Y": 3.0
      },
      "handle_left": {
       "X": 0.5,
       "Y": 1.0
      },
      "handle_right": {
       "X": 0.5,
       "Y": 0.0
      },
      "handle_type": 0,
      "interpolation": 0
     }
    ]
   },
   "reader": {
    "acodec": "",
    "audio_bit_rate": 0,
    "audio_stream_index": -1,
    "audio_timebase": {
     "den": 1,
     "num": 1
    },
    "channel_layout": 4,
    "channels": 0,
    "display_ratio": {
     "den": 4,
     "num": 5
    },
    "duration": 3600.0,
    "file_size": "5832000",
    "fps": {
     "den": 1,
     "num": 30
    },
    "has_audio": false,
    "has_single_image": true,
    "has_video": true,
    "height": 576,
    "interlaced_frame": false,
    "metadata": {},
    "path": "@transitions/common/fade.svg",
    "pixel_format": -1,
    "pixel_ratio": {
     "den": 1,
     "num": 1
    },
    "sample_rate": 0,
    "top_field_first": true,
    "type": "QtImageReader",
    "vcodec": "",
    "video_bit_rate": 0,
    "video_length": "108000",
    "video_stream_index": -1,
    "video_timebase": {
     "den": 30,
     "num": 1
    },
    "width": 720
   },
   "replace_image": false,
   "id": "L0LNX9VSXM"
  },
  {
   "layer": 5000000,
   "title": "Transition",
   "type": "Mask",
   "position": 29.933333333333334,
   "start": 0,
   "end": 1,
   "brightness": {
    "Points": [
     {
      "co": {
       "X": 1.0,
       "Y": -1.0
      },
      "handle_left": {
       "X": 0.5,
       "Y": 1.0
      },
      "handle_right": {
       "X": 0.5,
       "Y": 0.0
      },
      "handle_type": 0,
      "interpolation": 0
     },
     {
      "co": {
       "X": 30.0,
       "Y": 1.0
      },
      "handle_left": {
       "X": 0.5,
       "Y": 1.0
      },
      "handle_right": {
       "X": 0.5,
       "Y": 0.0
      },
      "handle_type": 0,
      "interpolation": 0
     }
    ]
   },
   "contrast": {
    "Points": [
     {
      "co": {
       "X": 1.0,
       "Y": 3.0
      },
      "handle_left": {
       "X": 0.5,
       "Y": 1.0
      },
      "handle_right": {
       "X": 0.5,
       "Y": 0.0
      },
      "handle_type": 0,
      "interpolation": 0
     },
     {
      "co": {
       "X": 30.0,
       "Y": 3.0
      },
      "handle_left": {
       "X": 0.5,
       "Y": 1.0
      },
      "handle_right": {
       "X": 0.5,
       "Y": 0.0
      },
      "handle_type": 0,
      "interpolation": 0
     }
    ]
   },
   "reader": {
    "acodec": "",
    "audio_bit_rate": 0,
    "audio_stream_index": -1,
    "audio_timebase": {
     "den": 1,
     "num": 1
    },
    "channel_layout": 4,
    "channels": 0,
    "display_ratio": {
     "den": 4,
     "num": 5
    },
    "duration": 3600.0,
    "file_size": "5832000",
    "fps": {
     "den": 1,
     "num": 30
    },
    "has_audio": false,
    "has_single_image": true,
    "has_video": true,
    "height": 576,
    "interlaced_frame": false,
    "metadata": {},
    "path": "@transitions/common/fade.svg",
    "pixel_format": -1,
    "pixel_ratio": {
     "den": 1,
     "num": 1
    },
    "sample_rate": 0,
    "top_field_first": true,
    "type": "QtImageReader",
    "vcodec": "",
    "video_bit_rate": 0,
    "video_length": "108000",
    "video_stream_index": -1,
    "video_timebase": {
     "den": 30,
     "num": 1
    },
    "width": 720
   },
   "replace_image": false,
   "id": "9P08T43W0H"
  },
  {
   "layer": 4000000,
   "title": "Transition",
   "type": "Mask",
   "position": 29.933333333333334,
   "start": 0,
   "end": 1,
   "brightness": {
    "Points": [
     {
      "co": {
       "X": 1.0,
       "Y": -1.0
      },
      "handle_left": {
       "X": 0.5,
       "Y": 1.0
      },
      "handle_right": {
       "X": 0.5,
       "Y": 0.0
      },
      "handle_type": 0,
      "interpolation": 0
     },
     {
      "co": {
       "X": 30.0,
       "Y": 1.0
      },
      "handle_left": {
       "X": 0.5,
       "Y": 1.0
      },
      "handle_right": {
       "X": 0.5,
       "Y": 0.0
      },
      "handle_type": 0,
      "interpolation": 0
     }
    ]
   },
   "contrast": {
    "Points": [
     {
      "co": {
       "X": 1.0,
       "Y": 3.0
      },
      "handle_left": {
       "X": 0.5,
       "Y": 1.0
      },
      "handle_right": {
       "X": 0.5,
       "Y": 0.0
      },
      "handle_type": 0,
      "interpolation": 0
     },
     {
      "co": {
       "X": 30.0,
       "Y": 3.0
      },
      "handle_left": {
       "X": 0.5,
       "Y": 1.0
      },
      "handle_right": {
       "X": 0.5,
       "Y": 0.0
      },
      "handle_type": 0,
      "interpolation": 0
     }
    ]
   },
   "reader": {
    "acodec": "",
    "audio_bit_rate": 0,
    "audio_stream_index": -1,
    "audio_timebase": {
     "den": 1,
     "num": 1
    },
    "channel_layout": 4,
    "channels": 0,
    "display_ratio": {
     "den": 4,
     "num": 5
    },
    "duration": 3600.0,
    "file_size": "5832000",
    "fps": {
     "den": 1,
     "num": 30
    },
    "has_audio": false,
    "has_single_image": true,
    "has_video": true,
    "height": 576,
    "interlaced_frame": false,
    "metadata": {},
    "path": "@transitions/common/fade.svg",
    "pixel_format": -1,
    "pixel_ratio": {
     "den": 1,
     "num": 1
    },
    "sample_rate": 0,
    "top_field_first": true,
    "type": "QtImageReader",
    "vcodec": "",
    "video_bit_rate": 0,
    "video_length": "108000",
    "video_stream_index": -1,
    "video_timebase": {
     "den": 30,
     "num": 1
    },
    "width": 720
   },
   "replace_image": false,
   "id": "A0I8N96BOX"
  },
  {
   "layer": 3000000,
   "title": "Transition",
   "type": "Mask",
   "position": 29.933333333333334,
   "start": 0,
   "end": 0.9999999999999821,
   "brightness": {
    "Points": [
     {
      "co": {
       "X": 1.0,
       "Y": -1.0
      },
      "handle_left": {
       "X": 0.5,
       "Y": 1.0
      },
      "handle_right": {
       "X": 0.5,
       "Y": 0.0
      },
      "handle_type": 0,
      "interpolation": 0
     },
     {
      "co": {
       "X": 30.0,
       "Y": 1.0
      },
      "handle_left": {
       "X": 0.5,
       "Y": 1.0
      },
      "handle_right": {
       "X": 0.5,
       "Y": 0.0
      },
      "handle_type": 0,
      "interpolation": 0
     }
    ]
   },
   "contrast": {
    "Points": [
     {
      "co": {
       "X": 1.0,
       "Y": 3.0
      },
      "handle_left": {
       "X": 0.5,
       "Y": 1.0
      },
      "handle_right": {
       "X": 0.5,
       "Y": 0.0
      },
      "handle_type": 0,
      "interpolation": 0
     },
     {
      "co": {
       "X": 30.0,
       "Y": 3.0
      },
      "handle_left": {
       "X": 0.5,
       "Y": 1.0
      },
      "handle_right": {
       "X": 0.5,
       "Y": 0.0
      },
      "handle_type": 0,
      "interpolation": 0
     }
    ]
   },
   "reader": {
    "acodec": "",
    "audio_bit_rate": 0,
    "audio_stream_index": -1,
    "audio_timebase": {
     "den": 1,
     "num": 1
    },
    "channel_layout": 4,
    "channels": 0,
    "display_ratio": {
     "den": 4,
     "num": 5
    },
    "duration": 3600.0,
    "file_size": "5832000",
    "fps": {
     "den": 1,
     "num": 30
    },
    "has_audio": false,
    "has_single_image": true,
    "has_video": true,
    "height": 576,
    "interlaced_frame": false,
    "metadata": {},
    "path": "@transitions/common/fade.svg",
    "pixel_format": -1,
    "pixel_ratio": {
     "den": 1,
     "num": 1
    },
    "sample_rate": 0,
    "top_field_first": true,
    "type": "QtImageReader",
    "vcodec": "",
    "video_bit_rate": 0,
    "video_length": "108000",
    "video_stream_index": -1,
    "video_timebase": {
     "den": 30,
     "num": 1
    },
    "width": 720
   },
   "replace_image": false,
   "id": "6HFQOBFSG3"
  },
  {
   "layer": 2000000,
   "title": "Transition",
   "type": "Mask",
   "position": 29.933333333333334,
   "start": 0,
   "end": 0.9999999999999821,
   "brightness": {
    "Points": [
     {
      "co": {
       "X": 1.0,
       "Y": -1.0
      },
      "handle_left": {
       "X": 0.5,
       "Y": 1.0
      },
      "handle_right": {
       "X": 0.5,
       "Y": 0.0
      },
      "handle_type": 0,
      "interpolation": 0
     },
     {
      "co": {
       "X": 30.0,
       "Y": 1.0
      },
      "handle_left": {
       "X": 0.5,
       "Y": 1.0
      },
      "handle_right": {
       "X": 0.5,
       "Y": 0.0
      },
      "handle_type": 0,
      "interpolation": 0
     }
    ]
   },
   "contrast": {
    "Points": [
     {
      "co": {
       "X": 1.0,
       "Y": 3.0
      },
      "handle_left": {
       "X": 0.5,
       "Y": 1.0
      },
      "handle_right": {
       "X": 0.5,
       "Y": 0.0
      },
      "handle_type": 0,
      "interpolation": 0
     },
     {
      "co": {
       "X": 30.0,
       "Y": 3.0
      },
      "handle_left": {
       "X": 0.5,
       "Y": 1.0
      },
      "handle_right": {
       "X": 0.5,
       "Y": 0.0
      },
      "handle_type": 0,
      "interpolation": 0
     }
    ]
   },
   "reader": {
    "acodec": "",
    "audio_bit_rate": 0,
    "audio_stream_index": -1,
    "audio_timebase": {
     "den": 1,
     "num": 1
    },
    "channel_layout": 4,
    "channels": 0,
    "display_ratio": {
     "den": 4,
     "num": 5
    },
    "duration": 3600.0,
    "file_size": "5832000",
    "fps": {
     "den": 1,
     "num": 30
    },
    "has_audio": false,
    "has_single_image": true,
    "has_video": true,
    "height": 576,
    "interlaced_frame": false,
    "metadata": {},
    "path": "@transitions/common/fade.svg",
    "pixel_format": -1,
    "pixel_ratio": {
     "den": 1,
     "num": 1
    },
    "sample_rate": 0,
    "top_field_first": true,
    "type": "QtImageReader",
    "vcodec": "",
    "video_bit_rate": 0,
    "video_length": "108000",
    "video_stream_index": -1,
    "video_timebase": {
     "den": 30,
     "num": 1
    },
    "width": 720
   },
   "replace_image": false,
   "id": "ROR47Q4UPE"
  },
  {
   "layer": 5000000,
   "title": "Transition",
   "type": "Mask",
   "position": 35.333333333333336,
   "start": 0,
   "end": 1,
   "brightness": {
    "Points": [
     {
      "co": {
       "X": 1.0,
       "Y": -1.0
      },
      "handle_left": {
       "X": 0.5,
       "Y": 1.0
      },
      "handle_right": {
       "X": 0.5,
       "Y": 0.0
      },
      "handle_type": 0,
      "interpolation": 0
     },
     {
      "co": {
       "X": 30.0,
       "Y": 1.0
      },
      "handle_left": {
       "X": 0.5,
       "Y": 1.0
      },
      "handle_right": {
       "X": 0.5,
       "Y": 0.0
      },
      "handle_type": 0,
      "interpolation": 0
     }
    ]
   },
   "contrast": {
    "Points": [
     {
      "co": {
       "X": 1.0,
       "Y": 3.0
      },
      "handle_left": {
       "X": 0.5,
       "Y": 1.0
      },
      "handle_right": {
       "X": 0.5,
       "Y": 0.0
      },
      "handle_type": 0,
      "interpolation": 0
     },
     {
      "co": {
       "X": 30.0,
       "Y": 3.0
      },
      "handle_left": {
       "X": 0.5,
       "Y": 1.0
      },
      "handle_right": {
       "X": 0.5,
       "Y": 0.0
      },
      "handle_type": 0,
      "interpolation": 0
     }
    ]
   },
   "reader": {
    "acodec": "",
    "audio_bit_rate": 0,
    "audio_stream_index": -1,
    "audio_timebase": {
     "den": 1,
     "num": 1
    },
    "channel_layout": 4,
    "channels": 0,
    "display_ratio": {
     "den": 4,
     "num": 5
    },
    "duration": 3600.0,
    "file_size": "5832000",
    "fps": {
     "den": 1,
     "num": 30
    },
    "has_audio": false,
    "has_single_image": true,
    "has_video": true,
    "height": 576,
    "interlaced_frame": false,
    "metadata": {},
    "path": "@transitions/common/fade.svg",
    "pixel_format": -1,
    "pixel_ratio": {
     "den": 1,
     "num": 1
    },
    "sample_rate": 0,
    "top_field_first": true,
    "type": "QtImageReader",
    "vcodec": "",
    "video_bit_rate": 0,
    "video_length": "108000",
    "video_stream_index": -1,
    "video_timebase": {
     "den": 30,
     "num": 1
    },
    "width": 720
   },
   "replace_image": false,
   "id": "YSXTQ2ILB3"
  },
  {
   "layer": 7000000,
   "title": "Transition",
   "type": "Mask",
   "position": 35.333333333333336,
   "start": 0,
   "end": 1,
   "brightness": {
    "Points": [
     {
      "co": {
       "X": 1.0,
       "Y": -1.0
      },
      "handle_left": {
       "X": 0.5,
       "Y": 1.0
      },
      "handle_right": {
       "X": 0.5,
       "Y": 0.0
      },
      "handle_type": 0,
      "interpolation": 0
     },
     {
      "co": {
       "X": 30.0,
       "Y": 1.0
      },
      "handle_left": {
       "X": 0.5,
       "Y": 1.0
      },
      "handle_right": {
       "X": 0.5,
       "Y": 0.0
      },
      "handle_type": 0,
      "interpolation": 0
     }
    ]
   },
   "contrast": {
    "Points": [
     {
      "co": {
       "X": 1.0,
       "Y": 3.0
      },
      "handle_left": {
       "X": 0.5,
       "Y": 1.0
      },
      "handle_right": {
       "X": 0.5,
       "Y": 0.0
      },
      "handle_type": 0,
      "interpolation": 0
     },
     {
      "co": {
       "X": 30.0,
       "Y": 3.0
      },
      "handle_left": {
       "X": 0.5,
       "Y": 1.0
      },
      "handle_right": {
       "X": 0.5,
       "Y": 0.0
      },
      "handle_type": 0,
      "interpolation": 0
     }
    ]
   },
   "reader": {
    "acodec": "",
    "audio_bit_rate": 0,
    "audio_stream_index": -1,
    "audio_timebase": {
     "den": 1,
     "num": 1
    },
    "channel_layout": 4,
    "channels": 0,
    "display_ratio": {
     "den": 4,
     "num": 5
    },
    "duration": 3600.0,
    "file_size": "5832000",
    "fps": {
     "den": 1,
     "num": 30
    },
    "has_audio": false,
    "has_single_image": true,
    "has_video": true,
    "height": 576,
    "interlaced_frame": false,
    "metadata": {},
    "path": "@transitions/common/fade.svg",
    "pixel_format": -1,
    "pixel_ratio": {
     "den": 1,
     "num": 1
    },
    "sample_rate": 0,
    "top_field_first": true,
    "type": "QtImageReader",
    "vcodec": "",
    "video_bit_rate": 0,
    "video_length": "108000",
    "video_stream_index": -1,
    "video_timebase": {
     "den": 30,
     "num": 1
    },
    "width": 720
   },
   "replace_image": false,
   "id": "PXS500E3HN"
  },
  {
   "layer": 6000000,
   "title": "Transition",
   "type": "Mask",
   "position": 35.333333333333336,
   "start": 0,
   "end": 1,
   "brightness": {
    "Points": [
     {
      "co": {
       "X": 1.0,
       "Y": -1.0
      },
      "handle_left": {
       "X": 0.5,
       "Y": 1.0
      },
      "handle_right": {
       "X": 0.5,
       "Y": 0.0
      },
      "handle_type": 0,
      "interpolation": 0
     },
     {
      "co": {
       "X": 30.0,
       "Y": 1.0
      },
      "handle_left": {
       "X": 0.5,
       "Y": 1.0
      },
      "handle_right": {
       "X": 0.5,
       "Y": 0.0
      },
      "handle_type": 0,
      "interpolation": 0
     }
    ]
   },
   "contrast": {
    "Points": [
     {
      "co": {
       "X": 1.0,
       "Y": 3.0
      },
      "handle_left": {
       "X": 0.5,
       "Y": 1.0
      },
      "handle_right": {
       "X": 0.5,
       "Y": 0.0
      },
      "handle_type": 0,
      "interpolation": 0
     },
     {
      "co": {
       "X": 30.0,
       "Y": 3.0
      },
      "handle_left": {
       "X": 0.5,
       "Y": 1.0
      },
      "handle_right": {
       "X": 0.5,
       "Y": 0.0
      },
      "handle_type": 0,
      "interpolation": 0
     }
    ]
   },
   "reader": {
    "acodec": "",
    "audio_bit_rate": 0,
    "audio_stream_index": -1,
    "audio_timebase": {
     "den": 1,
     "num": 1
    },
    "channel_layout": 4,
    "channels": 0,
    "display_ratio": {
     "den": 4,
     "num": 5
    },
    "duration": 3600.0,
    "file_size": "5832000",
    "fps": {
     "den": 1,
     "num": 30
    },
    "has_audio": false,
    "has_single_image": true,
    "has_video": true,
    "height": 576,
    "interlaced_frame": false,
    "metadata": {},
    "path": "@transitions/common/fade.svg",
    "pixel_format": -1,
    "pixel_ratio": {
     "den": 1,
     "num": 1
    },
    "sample_rate": 0,
    "top_field_first": true,
    "type": "QtImageReader",
    "vcodec": "",
    "video_bit_rate": 0,
    "video_length": "108000",
    "video_stream_index": -1,
    "video_timebase": {
     "den": 30,
     "num": 1
    },
    "width": 720
   },
   "replace_image": false,
   "id": "6EFG5AZ2RX"
  },
  {
   "layer": 5000000,
   "title": "Transition",
   "type": "Mask",
   "position": 31.333333333333332,
   "start": 0,
   "end": 1,
   "brightness": {
    "Points": [
     {
      "co": {
       "X": 1.0,
       "Y": 1.0
      },
      "handle_left": {
       "X": 0.5,
       "Y": 1.0
      },
      "handle_right": {
       "X": 0.5,
       "Y": 0.0
      },
      "handle_type": 0,
      "interpolation": 0
     },
     {
      "co": {
       "X": 30.0,
       "Y": -1.0
      },
      "handle_left": {
       "X": 0.5,
       "Y": 1.0
      },
      "handle_right": {
       "X": 0.5,
       "Y": 0.0
      },
      "handle_type": 0,
      "interpolation": 0
     }
    ]
   },
   "contrast": {
    "Points": [
     {
      "co": {
       "X": 1.0,
       "Y": 3.0
      },
      "handle_left": {
       "X": 0.5,
       "Y": 1.0
      },
      "handle_right": {
       "X": 0.5,
       "Y": 0.0
      },
      "handle_type": 0,
      "interpolation": 0
     },
     {
      "co": {
       "X": 30.0,
       "Y": 3.0
      },
      "handle_left": {
       "X": 0.5,
       "Y": 1.0
      },
      "handle_right": {
       "X": 0.5,
       "Y": 0.0
      },
      "handle_type": 0,
      "interpolation": 0
     }
    ]
   },
   "reader": {
    "acodec": "",
    "audio_bit_rate": 0,
    "audio_stream_index": -1,
    "audio_timebase": {
     "den": 1,
     "num": 1
    },
    "channel_layout": 4,
    "channels": 0,
    "display_ratio": {
     "den": 4,
     "num": 5
    },
    "duration": 3600.0,
    "file_size": "5832000",
    "fps": {
     "den": 1,
     "num": 30
    },
    "has_audio": false,
    "has_single_image": true,
    "has_video": true,
    "height": 576,
    "interlaced_frame": false,
    "metadata": {},
    "path": "@transitions/common/fade.svg",
    "pixel_format": -1,
    "pixel_ratio": {
     "den": 1,
     "num": 1
    },
    "sample_rate": 0,
    "top_field_first": true,
    "type": "QtImageReader",
    "vcodec": "",
    "video_bit_rate": 0,
    "video_length": "108000",
    "video_stream_index": -1,
    "video_timebase": {
     "den": 30,
     "num": 1
    },
    "width": 720
   },
   "replace_image": false,
   "id": "16Q1Z8PQP3"
  },
  {
   "layer": 7000000,
   "title": "Transition",
   "type": "Mask",
   "position": 31.333333333333332,
   "start": 0,
   "end": 1,
   "brightness": {
    "Points": [
     {
      "co": {
       "X": 1.0,
       "Y": 1.0
      },
      "handle_left": {
       "X": 0.5,
       "Y": 1.0
      },
      "handle_right": {
       "X": 0.5,
       "Y": 0.0
      },
      "handle_type": 0,
      "interpolation": 0
     },
     {
      "co": {
       "X": 30.0,
       "Y": -1.0
      },
      "handle_left": {
       "X": 0.5,
       "Y": 1.0
      },
      "handle_right": {
       "X": 0.5,
       "Y": 0.0
      },
      "handle_type": 0,
      "interpolation": 0
     }
    ]
   },
   "contrast": {
    "Points": [
     {
      "co": {
       "X": 1.0,
       "Y": 3.0
      },
      "handle_left": {
       "X": 0.5,
       "Y": 1.0
      },
      "handle_right": {
       "X": 0.5,
       "Y": 0.0
      },
      "handle_type": 0,
      "interpolation": 0
     },
     {
      "co": {
       "X": 30.0,
       "Y": 3.0
      },
      "handle_left": {
       "X": 0.5,
       "Y": 1.0
      },
      "handle_right": {
       "X": 0.5,
       "Y": 0.0
      },
      "handle_type": 0,
      "interpolation": 0
     }
    ]
   },
   "reader": {
    "acodec": "",
    "audio_bit_rate": 0,
    "audio_stream_index": -1,
    "audio_timebase": {
     "den": 1,
     "num": 1
    },
    "channel_layout": 4,
    "channels": 0,
    "display_ratio": {
     "den": 4,
     "num": 5
    },
    "duration": 3600.0,
    "file_size": "5832000",
    "fps": {
     "den": 1,
     "num": 30
    },
    "has_audio": false,
    "has_single_image": true,
    "has_video": true,
    "height": 576,
    "interlaced_frame": false,
    "metadata": {},
    "path": "@transitions/common/fade.svg",
    "pixel_format": -1,
    "pixel_ratio": {
     "den": 1,
     "num": 1
    },
    "sample_rate": 0,
    "top_field_first": true,
    "type": "QtImageReader",
    "vcodec": "",
    "video_bit_rate": 0,
    "video_length": "108000",
    "video_stream_index": -1,
    "video_timebase": {
     "den": 30,
     "num": 1
    },
    "width": 720
   },
   "replace_image": false,
   "id": "ME3NXVINI9"
  },
  {
   "layer": 6000000,
   "title": "Transition",
   "type": "Mask",
   "position": 31.333333333333332,
   "start": 0,
   "end": 1,
   "brightness": {
    "Points": [
     {
      "co": {
       "X": 1.0,
       "Y": 1.0
      },
      "handle_left": {
       "X": 0.5,
       "Y": 1.0
      },
      "handle_right": {
       "X": 0.5,
       "Y": 0.0
      },
      "handle_type": 0,
      "interpolation": 0
     },
     {
      "co": {
       "X": 30.0,
       "Y": -1.0
      },
      "handle_left": {
       "X": 0.5,
       "Y": 1.0
      },
      "handle_right": {
       "X": 0.5,
       "Y": 0.0
      },
      "handle_type": 0,
      "interpolation": 0
     }
    ]
   },
   "contrast": {
    "Points": [
     {
      "co": {
       "X": 1.0,
       "Y": 3.0
      },
      "handle_left": {
       "X": 0.5,
       "Y": 1.0
      },
      "handle_right": {
       "X": 0.5,
       "Y": 0.0
      },
      "handle_type": 0,
      "interpolation": 0
     },
     {
      "co": {
       "X": 30.0,
       "Y": 3.0
      },
      "handle_left": {
       "X": 0.5,
       "Y": 1.0
      },
      "handle_right": {
       "X": 0.5,
       "Y": 0.0
      },
      "handle_type": 0,
      "interpolation": 0
     }
    ]
   },
   "reader": {
    "acodec": "",
    "audio_bit_rate": 0,
    "audio_stream_index": -1,
    "audio_timebase": {
     "den": 1,
     "num": 1
    },
    "channel_layout": 4,
    "channels": 0,
    "display_ratio": {
     "den": 4,
     "num": 5
    },
    "duration": 3600.0,
    "file_size": "5832000",
    "fps": {
     "den": 1,
     "num": 30
    },
    "has_audio": false,
    "has_single_image": true,
    "has_video": true,
    "height": 576,
    "interlaced_frame": false,
    "metadata": {},
    "path": "@transitions/common/fade.svg",
    "pixel_format": -1,
    "pixel_ratio": {
     "den": 1,
     "num": 1
    },
    "sample_rate": 0,
    "top_field_first": true,
    "type": "QtImageReader",
    "vcodec": "",
    "video_bit_rate": 0,
    "video_length": "108000",
    "video_stream_index": -1,
    "video_timebase": {
     "den": 30,
     "num": 1
    },
    "width": 720
   },
   "replace_image": false,
   "id": "1DK47L92IA"
  },
  {
   "layer": 2000000,
   "title": "Transition",
   "type": "Mask",
   "position": 36.7,
   "start": 0,
   "end": 1,
   "brightness": {
    "Points": [
     {
      "co": {
       "X": 1.0,
       "Y": 1.0
      },
      "handle_left": {
       "X": 0.5,
       "Y": 1.0
      },
      "handle_right": {
       "X": 0.5,
       "Y": 0.0
      },
      "handle_type": 0,
      "interpolation": 0
     },
     {
      "co": {
       "X": 30.0,
       "Y": -1.0
      },
      "handle_left": {
       "X": 0.5,
       "Y": 1.0
      },
      "handle_right": {
       "X": 0.5,
       "Y": 0.0
      },
      "handle_type": 0,
      "interpolation": 0
     }
    ]
   },
   "contrast": {
    "Points": [
     {
      "co": {
       "X": 1.0,
       "Y": 3.0
      },
      "handle_left": {
       "X": 0.5,
       "Y": 1.0
      },
      "handle_right": {
       "X": 0.5,
       "Y": 0.0
      },
      "handle_type": 0,
      "interpolation": 0
     },
     {
      "co": {
       "X": 30.0,
       "Y": 3.0
      },
      "handle_left": {
       "X": 0.5,
       "Y": 1.0
      },
      "handle_right": {
       "X": 0.5,
       "Y": 0.0
      },
      "handle_type": 0,
      "interpolation": 0
     }
    ]
   },
   "reader": {
    "acodec": "",
    "audio_bit_rate": 0,
    "audio_stream_index": -1,
    "audio_timebase": {
     "den": 1,
     "num": 1
    },
    "channel_layout": 4,
    "channels": 0,
    "display_ratio": {
     "den": 4,
     "num": 5
    },
    "duration": 3600.0,
    "file_size": "5832000",
    "fps": {
     "den": 1,
     "num": 30
    },
    "has_audio": false,
    "has_single_image": true,
    "has_video": true,
    "height": 576,
    "interlaced_frame": false,
    "metadata": {},
    "path": "@transitions/common/fade.svg",
    "pixel_format": -1,
    "pixel_ratio": {
     "den": 1,
     "num": 1
    },
    "sample_rate": 0,
    "top_field_first": true,
    "type": "QtImageReader",
    "vcodec": "",
    "video_bit_rate": 0,
    "video_length": "108000",
    "video_stream_index": -1,
    "video_timebase": {
     "den": 30,
     "num": 1
    },
    "width": 720
   },
   "replace_image": false,
   "id": "RT9O39UDSB"
  },
  {
   "layer": 4000000,
   "title": "Transition",
   "type": "Mask",
   "position": 40.63333333333333,
   "start": 0,
   "end": 1,
   "brightness": {
    "Points": [
     {
      "co": {
       "X": 1.0,
       "Y": 1.0
      },
      "handle_left": {
       "X": 0.5,
       "Y": 1.0
      },
      "handle_right": {
       "X": 0.5,
       "Y": 0.0
      },
      "handle_type": 0,
      "interpolation": 0
     },
     {
      "co": {
       "X": 30.0,
       "Y": -1.0
      },
      "handle_left": {
       "X": 0.5,
       "Y": 1.0
      },
      "handle_right": {
       "X": 0.5,
       "Y": 0.0
      },
      "handle_type": 0,
      "interpolation": 0
     }
    ]
   },
   "contrast": {
    "Points": [
     {
      "co": {
       "X": 1.0,
       "Y": 3.0
      },
      "handle_left": {
       "X": 0.5,
       "Y": 1.0
      },
      "handle_right": {
       "X": 0.5,
       "Y": 0.0
      },
      "handle_type": 0,
      "interpolation": 0
     },
     {
      "co": {
       "X": 30.0,
       "Y": 3.0
      },
      "handle_left": {
       "X": 0.5,
       "Y": 1.0
      },
      "handle_right": {
       "X": 0.5,
       "Y": 0.0
      },
      "handle_type": 0,
      "interpolation": 0
     }
    ]
   },
   "reader": {
    "acodec": "",
    "audio_bit_rate": 0,
    "audio_stream_index": -1,
    "audio_timebase": {
     "den": 1,
     "num": 1
    },
    "channel_layout": 4,
    "channels": 0,
    "display_ratio": {
     "den": 4,
     "num": 5
    },
    "duration": 3600.0,
    "file_size": "5832000",
    "fps": {
     "den": 1,
     "num": 30
    },
    "has_audio": false,
    "has_single_image": true,
    "has_video": true,
    "height": 576,
    "interlaced_frame": false,
    "metadata": {},
    "path": "@transitions/common/fade.svg",
    "pixel_format": -1,
    "pixel_ratio": {
     "den": 1,
     "num": 1
    },
    "sample_rate": 0,
    "top_field_first": true,
    "type": "QtImageReader",
    "vcodec": "",
    "video_bit_rate": 0,
    "video_length": "108000",
    "video_stream_index": -1,
    "video_timebase": {
     "den": 30,
     "num": 1
    },
    "width": 720
   },
   "replace_image": false,
   "id": "49J3IKSEQW"
  },
  {
   "layer": 5000000,
   "title": "Transition",
   "type": "Mask",
   "position": 40.63333333333333,
   "start": 0,
   "end": 1,
   "brightness": {
    "Points": [
     {
      "co": {
       "X": 1.0,
       "Y": 1.0
      },
      "handle_left": {
       "X": 0.5,
       "Y": 1.0
      },
      "handle_right": {
       "X": 0.5,
       "Y": 0.0
      },
      "handle_type": 0,
      "interpolation": 0
     },
     {
      "co": {
       "X": 30.0,
       "Y": -1.0
      },
      "handle_left": {
       "X": 0.5,
       "Y": 1.0
      },
      "handle_right": {
       "X": 0.5,
       "Y": 0.0
      },
      "handle_type": 0,
      "interpolation": 0
     }
    ]
   },
   "contrast": {
    "Points": [
     {
      "co": {
       "X": 1.0,
       "Y": 3.0
      },
      "handle_left": {
       "X": 0.5,
       "Y": 1.0
      },
      "handle_right": {
       "X": 0.5,
       "Y": 0.0
      },
      "handle_type": 0,
      "interpolation": 0
     },
     {
      "co": {
       "X": 30.0,
       "Y": 3.0
      },
      "handle_left": {
       "X": 0.5,
       "Y": 1.0
      },
      "handle_right": {
       "X": 0.5,
       "Y": 0.0
      },
      "handle_type": 0,
      "interpolation": 0
     }
    ]
   },
   "reader": {
    "acodec": "",
    "audio_bit_rate": 0,
    "audio_stream_index": -1,
    "audio_timebase": {
     "den": 1,
     "num": 1
    },
    "channel_layout": 4,
    "channels": 0,
    "display_ratio": {
     "den": 4,
     "num": 5
    },
    "duration": 3600.0,
    "file_size": "5832000",
    "fps": {
     "den": 1,
     "num": 30
    },
    "has_audio": false,
    "has_single_image": true,
    "has_video": true,
    "height": 576,
    "interlaced_frame": false,
    "metadata": {},
    "path": "@transitions/common/fade.svg",
    "pixel_format": -1,
    "pixel_ratio": {
     "den": 1,
     "num": 1
    },
    "sample_rate": 0,
    "top_field_first": true,
    "type": "QtImageReader",
    "vcodec": "",
    "video_bit_rate": 0,
    "video_length": "108000",
    "video_stream_index": -1,
    "video_timebase": {
     "den": 30,
     "num": 1
    },
    "width": 720
   },
   "replace_image": false,
   "id": "2N1BI0NL7T"
  },
  {
   "layer": 3000000,
   "title": "Transition",
   "type": "Mask",
   "position": 40.63333333333333,
   "start": 0,
   "end": 1,
   "brightness": {
    "Points": [
     {
      "co": {
       "X": 1.0,
       "Y": 1.0
      },
      "handle_left": {
       "X": 0.5,
       "Y": 1.0
      },
      "handle_right": {
       "X": 0.5,
       "Y": 0.0
      },
      "handle_type": 0,
      "interpolation": 0
     },
     {
      "co": {
       "X": 30.0,
       "Y": -1.0
      },
      "handle_left": {
       "X": 0.5,
       "Y": 1.0
      },
      "handle_right": {
       "X": 0.5,
       "Y": 0.0
      },
      "handle_type": 0,
      "interpolation": 0
     }
    ]
   },
   "contrast": {
    "Points": [
     {
      "co": {
       "X": 1.0,
       "Y": 3.0
      },
      "handle_left": {
       "X": 0.5,
       "Y": 1.0
      },
      "handle_right": {
       "X": 0.5,
       "Y": 0.0
      },
      "handle_type": 0,
      "interpolation": 0
     },
     {
      "co": {
       "X": 30.0,
       "Y": 3.0
      },
      "handle_left": {
       "X": 0.5,
       "Y": 1.0
      },
      "handle_right": {
       "X": 0.5,
       "Y": 0.0
      },
      "handle_type": 0,
      "interpolation": 0
     }
    ]
   },
   "reader": {
    "acodec": "",
    "audio_bit_rate": 0,
    "audio_stream_index": -1,
    "audio_timebase": {
     "den": 1,
     "num": 1
    },
    "channel_layout": 4,
    "channels": 0,
    "display_ratio": {
     "den": 4,
     "num": 5
    },
    "duration": 3600.0,
    "file_size": "5832000",
    "fps": {
     "den": 1,
     "num": 30
    },
    "has_audio": false,
    "has_single_image": true,
    "has_video": true,
    "height": 576,
    "interlaced_frame": false,
    "metadata": {},
    "path": "@transitions/common/fade.svg",
    "pixel_format": -1,
    "pixel_ratio": {
     "den": 1,
     "num": 1
    },
    "sample_rate": 0,
    "top_field_first": true,
    "type": "QtImageReader",
    "vcodec": "",
    "video_bit_rate": 0,
    "video_length": "108000",
    "video_stream_index": -1,
    "video_timebase": {
     "den": 30,
     "num": 1
    },
    "width": 720
   },
   "replace_image": false,
   "id": "G2WLUXC8I2"
  },
  {
   "layer": 6000000,
   "title": "Transition",
   "type": "Mask",
   "position": 43.9,
   "start": 0,
   "end": 1,
   "brightness": {
    "Points": [
     {
      "co": {
       "X": 1.0,
       "Y": 1.0
      },
      "handle_left": {
       "X": 0.5,
       "Y": 1.0
      },
      "handle_right": {
       "X": 0.5,
       "Y": 0.0
      },
      "handle_type": 0,
      "interpolation": 0
     },
     {
      "co": {
       "X": 30.0,
       "Y": -1.0
      },
      "handle_left": {
       "X": 0.5,
       "Y": 1.0
      },
      "handle_right": {
       "X": 0.5,
       "Y": 0.0
      },
      "handle_type": 0,
      "interpolation": 0
     }
    ]
   },
   "contrast": {
    "Points": [
     {
      "co": {
       "X": 1.0,
       "Y": 3.0
      },
      "handle_left": {
       "X": 0.5,
       "Y": 1.0
      },
      "handle_right": {
       "X": 0.5,
       "Y": 0.0
      },
      "handle_type": 0,
      "interpolation": 0
     },
     {
      "co": {
       "X": 30.0,
       "Y": 3.0
      },
      "handle_left": {
       "X": 0.5,
       "Y": 1.0
      },
      "handle_right": {
       "X": 0.5,
       "Y": 0.0
      },
      "handle_type": 0,
      "interpolation": 0
     }
    ]
   },
   "reader": {
    "acodec": "",
    "audio_bit_rate": 0,
    "audio_stream_index": -1,
    "audio_timebase": {
     "den": 1,
     "num": 1
    },
    "channel_layout": 4,
    "channels": 0,
    "display_ratio": {
     "den": 4,
     "num": 5
    },
    "duration": 3600.0,
    "file_size": "5832000",
    "fps": {
     "den": 1,
     "num": 30
    },
    "has_audio": false,
    "has_single_image": true,
    "has_video": true,
    "height": 576,
    "interlaced_frame": false,
    "metadata": {},
    "path": "@transitions/common/fade.svg",
    "pixel_format": -1,
    "pixel_ratio": {
     "den": 1,
     "num": 1
    },
    "sample_rate": 0,
    "top_field_first": true,
    "type": "QtImageReader",
    "vcodec": "",
    "video_bit_rate": 0,
    "video_length": "108000",
    "video_stream_index": -1,
    "video_timebase": {
     "den": 30,
     "num": 1
    },
    "width": 720
   },
   "replace_image": false,
   "id": "TXMFAXERBB"
  },
  {
   "layer": 7000000,
   "title": "Transition",
   "type": "Mask",
   "position": 43.9,
   "start": 0,
   "end": 1,
   "brightness": {
    "Points": [
     {
      "co": {
       "X": 1.0,
       "Y": 1.0
      },
      "handle_left": {
       "X": 0.5,
       "Y": 1.0
      },
      "handle_right": {
       "X": 0.5,
       "Y": 0.0
      },
      "handle_type": 0,
      "interpolation": 0
     },
     {
      "co": {
       "X": 30.0,
       "Y": -1.0
      },
      "handle_left": {
       "X": 0.5,
       "Y": 1.0
      },
      "handle_right": {
       "X": 0.5,
       "Y": 0.0
      },
      "handle_type": 0,
      "interpolation": 0
     }
    ]
   },
   "contrast": {
    "Points": [
     {
      "co": {
       "X": 1.0,
       "Y": 3.0
      },
      "handle_left": {
       "X": 0.5,
       "Y": 1.0
      },
      "handle_right": {
       "X": 0.5,
       "Y": 0.0
      },
      "handle_type": 0,
      "interpolation": 0
     },
     {
      "co": {
       "X": 30.0,
       "Y": 3.0
      },
      "handle_left": {
       "X": 0.5,
       "Y": 1.0
      },
      "handle_right": {
       "X": 0.5,
       "Y": 0.0
      },
      "handle_type": 0,
      "interpolation": 0
     }
    ]
   },
   "reader": {
    "acodec": "",
    "audio_bit_rate": 0,
    "audio_stream_index": -1,
    "audio_timebase": {
     "den": 1,
     "num": 1
    },
    "channel_layout": 4,
    "channels": 0,
    "display_ratio": {
     "den": 4,
     "num": 5
    },
    "duration": 3600.0,
    "file_size": "5832000",
    "fps": {
     "den": 1,
     "num": 30
    },
    "has_audio": false,
    "has_single_image": true,
    "has_video": true,
    "height": 576,
    "interlaced_frame": false,
    "metadata": {},
    "path": "@transitions/common/fade.svg",
    "pixel_format": -1,
    "pixel_ratio": {
     "den": 1,
     "num": 1
    },
    "sample_rate": 0,
    "top_field_first": true,
    "type": "QtImageReader",
    "vcodec": "",
    "video_bit_rate": 0,
    "video_length": "108000",
    "video_stream_index": -1,
    "video_timebase": {
     "den": 30,
     "num": 1
    },
    "width": 720
   },
   "replace_image": false,
   "id": "WB87SQALF3"
  },
  {
   "layer": 8000000,
   "title": "Transition",
   "type": "Mask",
   "position": 47.2,
   "start": 0,
   "end": 1,
   "brightness": {
    "Points": [
     {
      "co": {
       "X": 1.0,
       "Y": -1.0
      },
      "handle_left": {
       "X": 0.5,
       "Y": 1.0
      },
      "handle_right": {
       "X": 0.5,
       "Y": 0.0
      },
      "handle_type": 0,
      "interpolation": 0
     },
     {
      "co": {
       "X": 30.0,
       "Y": 1.0
      },
      "handle_left": {
       "X": 0.5,
       "Y": 1.0
      },
      "handle_right": {
       "X": 0.5,
       "Y": 0.0
      },
      "handle_type": 0,
      "interpolation": 0
     }
    ]
   },
   "contrast": {
    "Points": [
     {
      "co": {
       "X": 1.0,
       "Y": 3.0
      },
      "handle_left": {
       "X": 0.5,
       "Y": 1.0
      },
      "handle_right": {
       "X": 0.5,
       "Y": 0.0
      },
      "handle_type": 0,
      "interpolation": 0
     },
     {
      "co": {
       "X": 30.0,
       "Y": 3.0
      },
      "handle_left": {
       "X": 0.5,
       "Y": 1.0
      },
      "handle_right": {
       "X": 0.5,
       "Y": 0.0
      },
      "handle_type": 0,
      "interpolation": 0
     }
    ]
   },
   "reader": {
    "acodec": "",
    "audio_bit_rate": 0,
    "audio_stream_index": -1,
    "audio_timebase": {
     "den": 1,
     "num": 1
    },
    "channel_layout": 4,
    "channels": 0,
    "display_ratio": {
     "den": 4,
     "num": 5
    },
    "duration": 3600.0,
    "file_size": "5832000",
    "fps": {
     "den": 1,
     "num": 30
    },
    "has_audio": false,
    "has_single_image": true,
    "has_video": true,
    "height": 576,
    "interlaced_frame": false,
    "metadata": {},
    "path": "@transitions/common/fade.svg",
    "pixel_format": -1,
    "pixel_ratio": {
     "den": 1,
     "num": 1
    },
    "sample_rate": 0,
    "top_field_first": true,
    "type": "QtImageReader",
    "vcodec": "",
    "video_bit_rate": 0,
    "video_length": "108000",
    "video_stream_index": -1,
    "video_timebase": {
     "den": 30,
     "num": 1
    },
    "width": 720
   },
   "replace_image": false,
   "id": "6979AKA6UA"
  },
  {
   "layer": 8000000,
   "title": "Transition",
   "type": "Mask",
   "position": 43.9,
   "start": 0,
   "end": 1,
   "brightness": {
    "Points": [
     {
      "co": {
       "X": 1.0,
       "Y": 1.0
      },
      "handle_left": {
       "X": 0.5,
       "Y": 1.0
      },
      "handle_right": {
       "X": 0.5,
       "Y": 0.0
      },
      "handle_type": 0,
      "interpolation": 0
     },
     {
      "co": {
       "X": 30.0,
       "Y": -1.0
      },
      "handle_left": {
       "X": 0.5,
       "Y": 1.0
      },
      "handle_right": {
       "X": 0.5,
       "Y": 0.0
      },
      "handle_type": 0,
      "interpolation": 0
     }
    ]
   },
   "contrast": {
    "Points": [
     {
      "co": {
       "X": 1.0,
       "Y": 3.0
      },
      "handle_left": {
       "X": 0.5,
       "Y": 1.0
      },
      "handle_right": {
       "X": 0.5,
       "Y": 0.0
      },
      "handle_type": 0,
      "interpolation": 0
     },
     {
      "co": {
       "X": 30.0,
       "Y": 3.0
      },
      "handle_left": {
       "X": 0.5,
       "Y": 1.0
      },
      "handle_right": {
       "X": 0.5,
       "Y": 0.0
      },
      "handle_type": 0,
      "interpolation": 0
     }
    ]
   },
   "reader": {
    "acodec": "",
    "audio_bit_rate": 0,
    "audio_stream_index": -1,
    "audio_timebase": {
     "den": 1,
     "num": 1
    },
    "channel_layout": 4,
    "channels": 0,
    "display_ratio": {
     "den": 4,
     "num": 5
    },
    "duration": 3600.0,
    "file_size": "5832000",
    "fps": {
     "den": 1,
     "num": 30
    },
    "has_audio": false,
    "has_single_image": true,
    "has_video": true,
    "height": 576,
    "interlaced_frame": false,
    "metadata": {},
    "path": "@transitions/common/fade.svg",
    "pixel_format": -1,
    "pixel_ratio": {
     "den": 1,
     "num": 1
    },
    "sample_rate": 0,
    "top_field_first": true,
    "type": "QtImageReader",
    "vcodec": "",
    "video_bit_rate": 0,
    "video_length": "108000",
    "video_stream_index": -1,
    "video_timebase": {
     "den": 30,
     "num": 1
    },
    "width": 720
   },
   "replace_image": false,
   "id": "DH4JVZH7V8"
  },
  {
   "layer": 7000000,
   "title": "Transition",
   "type": "Mask",
   "position": 47.2,
   "start": 0,
   "end": 1,
   "brightness": {
    "Points": [
     {
      "co": {
       "X": 1.0,
       "Y": -1.0
      },
      "handle_left": {
       "X": 0.5,
       "Y": 1.0
      },
      "handle_right": {
       "X": 0.5,
       "Y": 0.0
      },
      "handle_type": 0,
      "interpolation": 0
     },
     {
      "co": {
       "X": 30.0,
       "Y": 1.0
      },
      "handle_left": {
       "X": 0.5,
       "Y": 1.0
      },
      "handle_right": {
       "X": 0.5,
       "Y": 0.0
      },
      "handle_type": 0,
      "interpolation": 0
     }
    ]
   },
   "contrast": {
    "Points": [
     {
      "co": {
       "X": 1.0,
       "Y": 3.0
      },
      "handle_left": {
       "X": 0.5,
       "Y": 1.0
      },
      "handle_right": {
       "X": 0.5,
       "Y": 0.0
      },
      "handle_type": 0,
      "interpolation": 0
     },
     {
      "co": {
       "X": 30.0,
       "Y": 3.0
      },
      "handle_left": {
       "X": 0.5,
       "Y": 1.0
      },
      "handle_right": {
       "X": 0.5,
       "Y": 0.0
      },
      "handle_type": 0,
      "interpolation": 0
     }
    ]
   },
   "reader": {
    "acodec": "",
    "audio_bit_rate": 0,
    "audio_stream_index": -1,
    "audio_timebase": {
     "den": 1,
     "num": 1
    },
    "channel_layout": 4,
    "channels": 0,
    "display_ratio": {
     "den": 4,
     "num": 5
    },
    "duration": 3600.0,
    "file_size": "5832000",
    "fps": {
     "den": 1,
     "num": 30
    },
    "has_audio": false,
    "has_single_image": true,
    "has_video": true,
    "height": 576,
    "interlaced_frame": false,
    "metadata": {},
    "path": "@transitions/common/fade.svg",
    "pixel_format": -1,
    "pixel_ratio": {
     "den": 1,
     "num": 1
    },
    "sample_rate": 0,
    "top_field_first": true,
    "type": "QtImageReader",
    "vcodec": "",
    "video_bit_rate": 0,
    "video_length": "108000",
    "video_stream_index": -1,
    "video_timebase": {
     "den": 30,
     "num": 1
    },
    "width": 720
   },
   "replace_image": false,
   "id": "7D211FLB43"
  },
  {
   "layer": 6000000,
   "title": "Transition",
   "type": "Mask",
   "position": 47.2,
   "start": 0,
   "end": 1,
   "brightness": {
    "Points": [
     {
      "co": {
       "X": 1.0,
       "Y": -1.0
      },
      "handle_left": {
       "X": 0.5,
       "Y": 1.0
      },
      "handle_right": {
       "X": 0.5,
       "Y": 0.0
      },
      "handle_type": 0,
      "interpolation": 0
     },
     {
      "co": {
       "X": 30.0,
       "Y": 1.0
      },
      "handle_left": {
       "X": 0.5,
       "Y": 1.0
      },
      "handle_right": {
       "X": 0.5,
       "Y": 0.0
      },
      "handle_type": 0,
      "interpolation": 0
     }
    ]
   },
   "contrast": {
    "Points": [
     {
      "co": {
       "X": 1.0,
       "Y": 3.0
      },
      "handle_left": {
       "X": 0.5,
       "Y": 1.0
      },
      "handle_right": {
       "X": 0.5,
       "Y": 0.0
      },
      "handle_type": 0,
      "interpolation": 0
     },
     {
      "co": {
       "X": 30.0,
       "Y": 3.0
      },
      "handle_left": {
       "X": 0.5,
       "Y": 1.0
      },
      "handle_right": {
       "X": 0.5,
       "Y": 0.0
      },
      "handle_type": 0,
      "interpolation": 0
     }
    ]
   },
   "reader": {
    "acodec": "",
    "audio_bit_rate": 0,
    "audio_stream_index": -1,
    "audio_timebase": {
     "den": 1,
     "num": 1
    },
    "channel_layout": 4,
    "channels": 0,
    "display_ratio": {
     "den": 4,
     "num": 5
    },
    "duration": 3600.0,
    "file_size": "5832000",
    "fps": {
     "den": 1,
     "num": 30
    },
    "has_audio": false,
    "has_single_image": true,
    "has_video": true,
    "height": 576,
    "interlaced_frame": false,
    "metadata": {},
    "path": "@transitions/common/fade.svg",
    "pixel_format": -1,
    "pixel_ratio": {
     "den": 1,
     "num": 1
    },
    "sample_rate": 0,
    "top_field_first": true,
    "type": "QtImageReader",
    "vcodec": "",
    "video_bit_rate": 0,
    "video_length": "108000",
    "video_stream_index": -1,
    "video_timebase": {
     "den": 30,
     "num": 1
    },
    "width": 720
   },
   "replace_image": false,
   "id": "Z3MQ059L4N"
  },
  {
   "layer": 5000000,
   "title": "Transition",
   "type": "Mask",
   "position": 47.2,
   "start": 0,
   "end": 1,
   "brightness": {
    "Points": [
     {
      "co": {
       "X": 1.0,
       "Y": -1.0
      },
      "handle_left": {
       "X": 0.5,
       "Y": 1.0
      },
      "handle_right": {
       "X": 0.5,
       "Y": 0.0
      },
      "handle_type": 0,
      "interpolation": 0
     },
     {
      "co": {
       "X": 30.0,
       "Y": 1.0
      },
      "handle_left": {
       "X": 0.5,
       "Y": 1.0
      },
      "handle_right": {
       "X": 0.5,
       "Y": 0.0
      },
      "handle_type": 0,
      "interpolation": 0
     }
    ]
   },
   "contrast": {
    "Points": [
     {
      "co": {
       "X": 1.0,
       "Y": 3.0
      },
      "handle_left": {
       "X": 0.5,
       "Y": 1.0
      },
      "handle_right": {
       "X": 0.5,
       "Y": 0.0
      },
      "handle_type": 0,
      "interpolation": 0
     },
     {
      "co": {
       "X": 30.0,
       "Y": 3.0
      },
      "handle_left": {
       "X": 0.5,
       "Y": 1.0
      },
      "handle_right": {
       "X": 0.5,
       "Y": 0.0
      },
      "handle_type": 0,
      "interpolation": 0
     }
    ]
   },
   "reader": {
    "acodec": "",
    "audio_bit_rate": 0,
    "audio_stream_index": -1,
    "audio_timebase": {
     "den": 1,
     "num": 1
    },
    "channel_layout": 4,
    "channels": 0,
    "display_ratio": {
     "den": 4,
     "num": 5
    },
    "duration": 3600.0,
    "file_size": "5832000",
    "fps": {
     "den": 1,
     "num": 30
    },
    "has_audio": false,
    "has_single_image": true,
    "has_video": true,
    "height": 576,
    "interlaced_frame": false,
    "metadata": {},
    "path": "@transitions/common/fade.svg",
    "pixel_format": -1,
    "pixel_ratio": {
     "den": 1,
     "num": 1
    },
    "sample_rate": 0,
    "top_field_first": true,
    "type": "QtImageReader",
    "vcodec": "",
    "video_bit_rate": 0,
    "video_length": "108000",
    "video_stream_index": -1,
    "video_timebase": {
     "den": 30,
     "num": 1
    },
    "width": 720
   },
   "replace_image": false,
   "id": "0V0YZT4K2H"
  },
  {
   "layer": 4000000,
   "title": "Transition",
   "type": "Mask",
   "position": 47.2,
   "start": 0,
   "end": 1,
   "brightness": {
    "Points": [
     {
      "co": {
       "X": 1.0,
       "Y": -1.0
      },
      "handle_left": {
       "X": 0.5,
       "Y": 1.0
      },
      "handle_right": {
       "X": 0.5,
       "Y": 0.0
      },
      "handle_type": 0,
      "interpolation": 0
     },
     {
      "co": {
       "X": 30.0,
       "Y": 1.0
      },
      "handle_left": {
       "X": 0.5,
       "Y": 1.0
      },
      "handle_right": {
       "X": 0.5,
       "Y": 0.0
      },
      "handle_type": 0,
      "interpolation": 0
     }
    ]
   },
   "contrast": {
    "Points": [
     {
      "co": {
       "X": 1.0,
       "Y": 3.0
      },
      "handle_left": {
       "X": 0.5,
       "Y": 1.0
      },
      "handle_right": {
       "X": 0.5,
       "Y": 0.0
      },
      "handle_type": 0,
      "interpolation": 0
     },
     {
      "co": {
       "X": 30.0,
       "Y": 3.0
      },
      "handle_left": {
       "X": 0.5,
       "Y": 1.0
      },
      "handle_right": {
       "X": 0.5,
       "Y": 0.0
      },
      "handle_type": 0,
      "interpolation": 0
     }
    ]
   },
   "reader": {
    "acodec": "",
    "audio_bit_rate": 0,
    "audio_stream_index": -1,
    "audio_timebase": {
     "den": 1,
     "num": 1
    },
    "channel_layout": 4,
    "channels": 0,
    "display_ratio": {
     "den": 4,
     "num": 5
    },
    "duration": 3600.0,
    "file_size": "5832000",
    "fps": {
     "den": 1,
     "num": 30
    },
    "has_audio": false,
    "has_single_image": true,
    "has_video": true,
    "height": 576,
    "interlaced_frame": false,
    "metadata": {},
    "path": "@transitions/common/fade.svg",
    "pixel_format": -1,
    "pixel_ratio": {
     "den": 1,
     "num": 1
    },
    "sample_rate": 0,
    "top_field_first": true,
    "type": "QtImageReader",
    "vcodec": "",
    "video_bit_rate": 0,
    "video_length": "108000",
    "video_stream_index": -1,
    "video_timebase": {
     "den": 30,
     "num": 1
    },
    "width": 720
   },
   "replace_image": false,
   "id": "4CLZWS3I80"
  },
  {
   "layer": 3000000,
   "title": "Transition",
   "type": "Mask",
   "position": 47.2,
   "start": 0,
   "end": 1,
   "brightness": {
    "Points": [
     {
      "co": {
       "X": 1.0,
       "Y": -1.0
      },
      "handle_left": {
       "X": 0.5,
       "Y": 1.0
      },
      "handle_right": {
       "X": 0.5,
       "Y": 0.0
      },
      "handle_type": 0,
      "interpolation": 0
     },
     {
      "co": {
       "X": 30.0,
       "Y": 1.0
      },
      "handle_left": {
       "X": 0.5,
       "Y": 1.0
      },
      "handle_right": {
       "X": 0.5,
       "Y": 0.0
      },
      "handle_type": 0,
      "interpolation": 0
     }
    ]
   },
   "contrast": {
    "Points": [
     {
      "co": {
       "X": 1.0,
       "Y": 3.0
      },
      "handle_left": {
       "X": 0.5,
       "Y": 1.0
      },
      "handle_right": {
       "X": 0.5,
       "Y": 0.0
      },
      "handle_type": 0,
      "interpolation": 0
     },
     {
      "co": {
       "X": 30.0,
       "Y": 3.0
      },
      "handle_left": {
       "X": 0.5,
       "Y": 1.0
      },
      "handle_right": {
       "X": 0.5,
       "Y": 0.0
      },
      "handle_type": 0,
      "interpolation": 0
     }
    ]
   },
   "reader": {
    "acodec": "",
    "audio_bit_rate": 0,
    "audio_stream_index": -1,
    "audio_timebase": {
     "den": 1,
     "num": 1
    },
    "channel_layout": 4,
    "channels": 0,
    "display_ratio": {
     "den": 4,
     "num": 5
    },
    "duration": 3600.0,
    "file_size": "5832000",
    "fps": {
     "den": 1,
     "num": 30
    },
    "has_audio": false,
    "has_single_image": true,
    "has_video": true,
    "height": 576,
    "interlaced_frame": false,
    "metadata": {},
    "path": "@transitions/common/fade.svg",
    "pixel_format": -1,
    "pixel_ratio": {
     "den": 1,
     "num": 1
    },
    "sample_rate": 0,
    "top_field_first": true,
    "type": "QtImageReader",
    "vcodec": "",
    "video_bit_rate": 0,
    "video_length": "108000",
    "video_stream_index": -1,
    "video_timebase": {
     "den": 30,
     "num": 1
    },
    "width": 720
   },
   "replace_image": false,
   "id": "J7NMJ0MM60"
  },
  {
   "layer": 2000000,
   "title": "Transition",
   "type": "Mask",
   "position": 47.2,
   "start": 0,
   "end": 1,
   "brightness": {
    "Points": [
     {
      "co": {
       "X": 1.0,
       "Y": -1.0
      },
      "handle_left": {
       "X": 0.5,
       "Y": 1.0
      },
      "handle_right": {
       "X": 0.5,
       "Y": 0.0
      },
      "handle_type": 0,
      "interpolation": 0
     },
     {
      "co": {
       "X": 30.0,
       "Y": 1.0
      },
      "handle_left": {
       "X": 0.5,
       "Y": 1.0
      },
      "handle_right": {
       "X": 0.5,
       "Y": 0.0
      },
      "handle_type": 0,
      "interpolation": 0
     }
    ]
   },
   "contrast": {
    "Points": [
     {
      "co": {
       "X": 1.0,
       "Y": 3.0
      },
      "handle_left": {
       "X": 0.5,
       "Y": 1.0
      },
      "handle_right": {
       "X": 0.5,
       "Y": 0.0
      },
      "handle_type": 0,
      "interpolation": 0
     },
     {
      "co": {
       "X": 30.0,
       "Y": 3.0
      },
      "handle_left": {
       "X": 0.5,
       "Y": 1.0
      },
      "handle_right": {
       "X": 0.5,
       "Y": 0.0
      },
      "handle_type": 0,
      "interpolation": 0
     }
    ]
   },
   "reader": {
    "acodec": "",
    "audio_bit_rate": 0,
    "audio_stream_index": -1,
    "audio_timebase": {
     "den": 1,
     "num": 1
    },
    "channel_layout": 4,
    "channels": 0,
    "display_ratio": {
     "den": 4,
     "num": 5
    },
    "duration": 3600.0,
    "file_size": "5832000",
    "fps": {
     "den": 1,
     "num": 30
    },
    "has_audio": false,
    "has_single_image": true,
    "has_video": true,
    "height": 576,
    "interlaced_frame": false,
    "metadata": {},
    "path": "@transitions/common/fade.svg",
    "pixel_format": -1,
    "pixel_ratio": {
     "den": 1,
     "num": 1
    },
    "sample_rate": 0,
    "top_field_first": true,
    "type": "QtImageReader",
    "vcodec": "",
    "video_bit_rate": 0,
    "video_length": "108000",
    "video_stream_index": -1,
    "video_timebase": {
     "den": 30,
     "num": 1
    },
    "width": 720
   },
   "replace_image": false,
   "id": "JE02QMYFT4"
  },
  {
   "layer": 2000000,
   "title": "Transition",
   "type": "Mask",
   "position": 49.63333333333333,
   "start": 0,
   "end": 1.5226666666666642,
   "brightness": {
    "Points": [
     {
      "co": {
       "X": 1.0,
       "Y": 1.0
      },
      "handle_left": {
       "X": 0.5,
       "Y": 1.0
      },
      "handle_right": {
       "X": 0.5,
       "Y": 0.0
      },
      "handle_type": 0,
      "interpolation": 0
     },
     {
      "co": {
       "X": 46.0,
       "Y": -1.0
      },
      "handle_left": {
       "X": 0.5,
       "Y": 1.0
      },
      "handle_right": {
       "X": 0.5,
       "Y": 0.0
      },
      "handle_type": 0,
      "interpolation": 0
     }
    ]
   },
   "contrast": {
    "Points": [
     {
      "co": {
       "X": 1.0,
       "Y": 3.0
      },
      "handle_left": {
       "X": 0.5,
       "Y": 1.0
      },
      "handle_right": {
       "X": 0.5,
       "Y": 0.0
      },
      "handle_type": 0,
      "interpolation": 0
     },
     {
      "co": {
       "X": 46.0,
       "Y": 3.0
      },
      "handle_left": {
       "X": 0.5,
       "Y": 1.0
      },
      "handle_right": {
       "X": 0.5,
       "Y": 0.0
      },
      "handle_type": 0,
      "interpolation": 0
     }
    ]
   },
   "reader": {
    "acodec": "",
    "audio_bit_rate": 0,
    "audio_stream_index": -1,
    "audio_timebase": {
     "den": 1,
     "num": 1
    },
    "channel_layout": 4,
    "channels": 0,
    "display_ratio": {
     "den": 4,
     "num": 5
    },
    "duration": 3600.0,
    "file_size": "5832000",
    "fps": {
     "den": 1,
     "num": 30
    },
    "has_audio": false,
    "has_single_image": true,
    "has_video": true,
    "height": 576,
    "interlaced_frame": false,
    "metadata": {},
    "path": "@transitions/common/fade.svg",
    "pixel_format": -1,
    "pixel_ratio": {
     "den": 1,
     "num": 1
    },
    "sample_rate": 0,
    "top_field_first": true,
    "type": "QtImageReader",
    "vcodec": "",
    "video_bit_rate": 0,
    "video_length": "108000",
    "video_stream_index": -1,
    "video_timebase": {
     "den": 30,
     "num": 1
    },
    "width": 720
   },
   "replace_image": false,
   "id": "NMY4YXNU1E"
  },
  {
   "id": "JVDJ759VY9",
   "layer": 1000000,
   "title": "Transition",
   "type": "Mask",
   "position": 48.53333333333333,
   "start": 0,
   "end": 1.6234375000000298,
   "brightness": {
    "Points": [
     {
      "co": {
       "X": 1.0,
       "Y": -1.0
      },
      "handle_left": {
       "X": 0.5,
       "Y": 1.0
      },
      "handle_right": {
       "X": 0.5,
       "Y": 0.0
      },
      "handle_type": 0,
      "interpolation": 0
     },
     {
      "co": {
       "X": 49.0,
       "Y": 1.0
      },
      "handle_left": {
       "X": 0.5,
       "Y": 1.0
      },
      "handle_right": {
       "X": 0.5,
       "Y": 0.0
      },
      "handle_type": 0,
      "interpolation": 0
     }
    ]
   },
   "contrast": {
    "Points": [
     {
      "co": {
       "X": 1.0,
       "Y": 3.0
      },
      "handle_left": {
       "X": 0.5,
       "Y": 1.0
      },
      "handle_right": {
       "X": 0.5,
       "Y": 0.0
      },
      "handle_type": 0,
      "interpolation": 0
     },
     {
      "co": {
       "X": 49.0,
       "Y": 3.0
      },
      "handle_left": {
       "X": 0.5,
       "Y": 1.0
      },
      "handle_right": {
       "X": 0.5,
       "Y": 0.0
      },
      "handle_type": 0,
      "interpolation": 0
     }
    ]
   },
   "reader": {
    "acodec": "",
    "audio_bit_rate": 0,
    "audio_stream_index": -1,
    "audio_timebase": {
     "den": 1,
     "num": 1
    },
    "channel_layout": 4,
    "channels": 0,
    "display_ratio": {
     "den": 4,
     "num": 5
    },
    "duration": 3600.0,
    "file_size": "5832000",
    "fps": {
     "den": 1,
     "num": 30
    },
    "has_audio": false,
    "has_single_image": true,
    "has_video": true,
    "height": 576,
    "interlaced_frame": false,
    "metadata": {},
    "path": "@transitions/common/fade.svg",
    "pixel_format": -1,
    "pixel_ratio": {
     "den": 1,
     "num": 1
    },
    "sample_rate": 0,
    "top_field_first": true,
    "type": "QtImageReader",
    "vcodec": "",
    "video_bit_rate": 0,
    "video_length": "108000",
    "video_stream_index": -1,
    "video_timebase": {
     "den": 30,
     "num": 1
    },
    "width": 720
   },
   "replace_image": false
  },
  {
   "layer": 1000000,
   "title": "Transition",
   "type": "Mask",
   "position": 52.13333333333333,
   "start": 0,
   "end": 1.6234375000000298,
   "brightness": {
    "Points": [
     {
      "co": {
       "X": 1.0,
       "Y": 1.0
      },
      "handle_left": {
       "X": 0.5,
       "Y": 1.0
      },
      "handle_right": {
       "X": 0.5,
       "Y": 0.0
      },
      "handle_type": 0,
      "interpolation": 0
     },
     {
      "co": {
       "X": 49.0,
       "Y": -1.0
      },
      "handle_left": {
       "X": 0.5,
       "Y": 1.0
      },
      "handle_right": {
       "X": 0.5,
       "Y": 0.0
      },
      "handle_type": 0,
      "interpolation": 0
     }
    ]
   },
   "contrast": {
    "Points": [
     {
      "co": {
       "X": 1.0,
       "Y": 3.0
      },
      "handle_left": {
       "X": 0.5,
       "Y": 1.0
      },
      "handle_right": {
       "X": 0.5,
       "Y": 0.0
      },
      "handle_type": 0,
      "interpolation": 0
     },
     {
      "co": {
       "X": 49.0,
       "Y": 3.0
      },
      "handle_left": {
       "X": 0.5,
       "Y": 1.0
      },
      "handle_right": {
       "X": 0.5,
       "Y": 0.0
      },
      "handle_type": 0,
      "interpolation": 0
     }
    ]
   },
   "reader": {
    "acodec": "",
    "audio_bit_rate": 0,
    "audio_stream_index": -1,
    "audio_timebase": {
     "den": 1,
     "num": 1
    },
    "channel_layout": 4,
    "channels": 0,
    "display_ratio": {
     "den": 4,
     "num": 5
    },
    "duration": 3600.0,
    "file_size": "5832000",
    "fps": {
     "den": 1,
     "num": 30
    },
    "has_audio": false,
    "has_single_image": true,
    "has_video": true,
    "height": 576,
    "interlaced_frame": false,
    "metadata": {},
    "path": "@transitions/common/fade.svg",
    "pixel_format": -1,
    "pixel_ratio": {
     "den": 1,
     "num": 1
    },
    "sample_rate": 0,
    "top_field_first": true,
    "type": "QtImageReader",
    "vcodec": "",
    "video_bit_rate": 0,
    "video_length": "108000",
    "video_stream_index": -1,
    "video_timebase": {
     "den": 30,
     "num": 1
    },
    "width": 720
   },
   "replace_image": false,
   "id": "ILTGUG6BXY"
  },
  {
   "layer": 2000000,
   "title": "Transition",
   "type": "Mask",
   "position": 51.166666666666664,
   "start": 0,
   "end": 1.5226666666666642,
   "brightness": {
    "Points": [
     {
      "co": {
       "X": 1.0,
       "Y": -1.0
      },
      "handle_left": {
       "X": 0.5,
       "Y": 1.0
      },
      "handle_right": {
       "X": 0.5,
       "Y": 0.0
      },
      "handle_type": 0,
      "interpolation": 0
     },
     {
      "co": {
       "X": 46.0,
       "Y": 1.0
      },
      "handle_left": {
       "X": 0.5,
       "Y": 1.0
      },
      "handle_right": {
       "X": 0.5,
       "Y": 0.0
      },
      "handle_type": 0,
      "interpolation": 0
     }
    ]
   },
   "contrast": {
    "Points": [
     {
      "co": {
       "X": 1.0,
       "Y": 3.0
      },
      "handle_left": {
       "X": 0.5,
       "Y": 1.0
      },
      "handle_right": {
       "X": 0.5,
       "Y": 0.0
      },
      "handle_type": 0,
      "interpolation": 0
     },
     {
      "co": {
       "X": 46.0,
       "Y": 3.0
      },
      "handle_left": {
       "X": 0.5,
       "Y": 1.0
      },
      "handle_right": {
       "X": 0.5,
       "Y": 0.0
      },
      "handle_type": 0,
      "interpolation": 0
     }
    ]
   },
   "reader": {
    "acodec": "",
    "audio_bit_rate": 0,
    "audio_stream_index": -1,
    "audio_timebase": {
     "den": 1,
     "num": 1
    },
    "channel_layout": 4,
    "channels": 0,
    "display_ratio": {
     "den": 4,
     "num": 5
    },
    "duration": 3600.0,
    "file_size": "5832000",
    "fps": {
     "den": 1,
     "num": 30
    },
    "has_audio": false,
    "has_single_image": true,
    "has_video": true,
    "height": 576,
    "interlaced_frame": false,
    "metadata": {},
    "path": "@transitions/common/fade.svg",
    "pixel_format": -1,
    "pixel_ratio": {
     "den": 1,
     "num": 1
    },
    "sample_rate": 0,
    "top_field_first": true,
    "type": "QtImageReader",
    "vcodec": "",
    "video_bit_rate": 0,
    "video_length": "108000",
    "video_stream_index": -1,
    "video_timebase": {
     "den": 30,
     "num": 1
    },
    "width": 720
   },
   "replace_image": false,
   "id": "KK7AG74HMV"
  },
  {
   "layer": 2000000,
   "title": "Transition",
   "type": "Mask",
   "position": 52.7,
   "start": 0,
   "end": 1.0567708333333552,
   "brightness": {
    "Points": [
     {
      "co": {
       "X": 1.0,
       "Y": 1.0
      },
      "handle_left": {
       "X": 0.5,
       "Y": 1.0
      },
      "handle_right": {
       "X": 0.5,
       "Y": 0.0
      },
      "handle_type": 0,
      "interpolation": 0
     },
     {
      "co": {
       "X": 32.0,
       "Y": -1.0
      },
      "handle_left": {
       "X": 0.5,
       "Y": 1.0
      },
      "handle_right": {
       "X": 0.5,
       "Y": 0.0
      },
      "handle_type": 0,
      "interpolation": 0
     }
    ]
   },
   "contrast": {
    "Points": [
     {
      "co": {
       "X": 1.0,
       "Y": 3.0
      },
      "handle_left": {
       "X": 0.5,
       "Y": 1.0
      },
      "handle_right": {
       "X": 0.5,
       "Y": 0.0
      },
      "handle_type": 0,
      "interpolation": 0
     },
     {
      "co": {
       "X": 32.0,
       "Y": 3.0
      },
      "handle_left": {
       "X": 0.5,
       "Y": 1.0
      },
      "handle_right": {
       "X": 0.5,
       "Y": 0.0
      },
      "handle_type": 0,
      "interpolation": 0
     }
    ]
   },
   "reader": {
    "acodec": "",
    "audio_bit_rate": 0,
    "audio_stream_index": -1,
    "audio_timebase": {
     "den": 1,
     "num": 1
    },
    "channel_layout": 4,
    "channels": 0,
    "display_ratio": {
     "den": 4,
     "num": 5
    },
    "duration": 3600.0,
    "file_size": "5832000",
    "fps": {
     "den": 1,
     "num": 30
    },
    "has_audio": false,
    "has_single_image": true,
    "has_video": true,
    "height": 576,
    "interlaced_frame": false,
    "metadata": {},
    "path": "@transitions/common/fade.svg",
    "pixel_format": -1,
    "pixel_ratio": {
     "den": 1,
     "num": 1
    },
    "sample_rate": 0,
    "top_field_first": true,
    "type": "QtImageReader",
    "vcodec": "",
    "video_bit_rate": 0,
    "video_length": "108000",
    "video_stream_index": -1,
    "video_timebase": {
     "den": 30,
     "num": 1
    },
    "width": 720
   },
   "replace_image": false,
   "id": "U5TVH4SEI2"
  },
  {
   "layer": 2000000,
   "title": "Transition",
   "type": "Mask",
   "position": 61.166666666666664,
   "start": 0,
   "end": 1.0916666666666583,
   "brightness": {
    "Points": [
     {
      "co": {
       "X": 1.0,
       "Y": -1.0
      },
      "handle_left": {
       "X": 0.5,
       "Y": 1.0
      },
      "handle_right": {
       "X": 0.5,
       "Y": 0.0
      },
      "handle_type": 0,
      "interpolation": 0
     },
     {
      "co": {
       "X": 33.0,
       "Y": 1.0
      },
      "handle_left": {
       "X": 0.5,
       "Y": 1.0
      },
      "handle_right": {
       "X": 0.5,
       "Y": 0.0
      },
      "handle_type": 0,
      "interpolation": 0
     }
    ]
   },
   "contrast": {
    "Points": [
     {
      "co": {
       "X": 1.0,
       "Y": 3.0
      },
      "handle_left": {
       "X": 0.5,
       "Y": 1.0
      },
      "handle_right": {
       "X": 0.5,
       "Y": 0.0
      },
      "handle_type": 0,
      "interpolation": 0
     },
     {
      "co": {
       "X": 33.0,
       "Y": 3.0
      },
      "handle_left": {
       "X": 0.5,
       "Y": 1.0
      },
      "handle_right": {
       "X": 0.5,
       "Y": 0.0
      },
      "handle_type": 0,
      "interpolation": 0
     }
    ]
   },
   "reader": {
    "acodec": "",
    "audio_bit_rate": 0,
    "audio_stream_index": -1,
    "audio_timebase": {
     "den": 1,
     "num": 1
    },
    "channel_layout": 4,
    "channels": 0,
    "display_ratio": {
     "den": 4,
     "num": 5
    },
    "duration": 3600.0,
    "file_size": "5832000",
    "fps": {
     "den": 1,
     "num": 30
    },
    "has_audio": false,
    "has_single_image": true,
    "has_video": true,
    "height": 576,
    "interlaced_frame": false,
    "metadata": {},
    "path": "@transitions/common/fade.svg",
    "pixel_format": -1,
    "pixel_ratio": {
     "den": 1,
     "num": 1
    },
    "sample_rate": 0,
    "top_field_first": true,
    "type": "QtImageReader",
    "vcodec": "",
    "video_bit_rate": 0,
    "video_length": "108000",
    "video_stream_index": -1,
    "video_timebase": {
     "den": 30,
     "num": 1
    },
    "width": 720
   },
   "replace_image": false,
   "id": "FOE18GBI58"
  },
  {
   "layer": 3000000,
   "title": "Transition",
   "type": "Mask",
   "position": 69.1,
   "start": 0,
   "end": 0.8666666666666696,
   "brightness": {
    "Points": [
     {
      "co": {
       "X": 1.0,
       "Y": 1.0
      },
      "handle_left": {
       "X": 0.5,
       "Y": 1.0
      },
      "handle_right": {
       "X": 0.5,
       "Y": 0.0
      },
      "handle_type": 0,
      "interpolation": 0
     },
     {
      "co": {
       "X": 26.0,
       "Y": -1.0
      },
      "handle_left": {
       "X": 0.5,
       "Y": 1.0
      },
      "handle_right": {
       "X": 0.5,
       "Y": 0.0
      },
      "handle_type": 0,
      "interpolation": 0
     }
    ]
   },
   "contrast": {
    "Points": [
     {
      "co": {
       "X": 1.0,
       "Y": 3.0
      },
      "handle_left": {
       "X": 0.5,
       "Y": 1.0
      },
      "handle_right": {
       "X": 0.5,
       "Y": 0.0
      },
      "handle_type": 0,
      "interpolation": 0
     },
     {
      "co": {
       "X": 26.0,
       "Y": 3.0
      },
      "handle_left": {
       "X": 0.5,
       "Y": 1.0
      },
      "handle_right": {
       "X": 0.5,
       "Y": 0.0
      },
      "handle_type": 0,
      "interpolation": 0
     }
    ]
   },
   "reader": {
    "acodec": "",
    "audio_bit_rate": 0,
    "audio_stream_index": -1,
    "audio_timebase": {
     "den": 1,
     "num": 1
    },
    "channel_layout": 4,
    "channels": 0,
    "display_ratio": {
     "den": 4,
     "num": 5
    },
    "duration": 3600.0,
    "file_size": "5832000",
    "fps": {
     "den": 1,
     "num": 30
    },
    "has_audio": false,
    "has_single_image": true,
    "has_video": true,
    "height": 576,
    "interlaced_frame": false,
    "metadata": {},
    "path": "@transitions/common/fade.svg",
    "pixel_format": -1,
    "pixel_ratio": {
     "den": 1,
     "num": 1
    },
    "sample_rate": 0,
    "top_field_first": true,
    "type": "QtImageReader",
    "vcodec": "",
    "video_bit_rate": 0,
    "video_length": "108000",
    "video_stream_index": -1,
    "video_timebase": {
     "den": 30,
     "num": 1
    },
    "width": 720
   },
   "replace_image": false,
   "id": "IWR2HQJ3Y9"
  },
  {
   "layer": 4000000,
   "title": "Transition",
   "type": "Mask",
   "position": 70.4,
   "start": 0,
   "end": 0.9583333333333212,
   "brightness": {
    "Points": [
     {
      "co": {
       "X": 1.0,
       "Y": 1.0
      },
      "handle_left": {
       "X": 0.5,
       "Y": 1.0
      },
      "handle_right": {
       "X": 0.5,
       "Y": 0.0
      },
      "handle_type": 0,
      "interpolation": 0
     },
     {
      "co": {
       "X": 29.0,
       "Y": -1.0
      },
      "handle_left": {
       "X": 0.5,
       "Y": 1.0
      },
      "handle_right": {
       "X": 0.5,
       "Y": 0.0
      },
      "handle_type": 0,
      "interpolation": 0
     }
    ]
   },
   "contrast": {
    "Points": [
     {
      "co": {
       "X": 1.0,
       "Y": 3.0
      },
      "handle_left": {
       "X": 0.5,
       "Y": 1.0
      },
      "handle_right": {
       "X": 0.5,
       "Y": 0.0
      },
      "handle_type": 0,
      "interpolation": 0
     },
     {
      "co": {
       "X": 29.0,
       "Y": 3.0
      },
      "handle_left": {
       "X": 0.5,
       "Y": 1.0
      },
      "handle_right": {
       "X": 0.5,
       "Y": 0.0
      },
      "handle_type": 0,
      "interpolation": 0
     }
    ]
   },
   "reader": {
    "acodec": "",
    "audio_bit_rate": 0,
    "audio_stream_index": -1,
    "audio_timebase": {
     "den": 1,
     "num": 1
    },
    "channel_layout": 4,
    "channels": 0,
    "display_ratio": {
     "den": 4,
     "num": 5
    },
    "duration": 3600.0,
    "file_size": "5832000",
    "fps": {
     "den": 1,
     "num": 30
    },
    "has_audio": false,
    "has_single_image": true,
    "has_video": true,
    "height": 576,
    "interlaced_frame": false,
    "metadata": {},
    "path": "@transitions/common/fade.svg",
    "pixel_format": -1,
    "pixel_ratio": {
     "den": 1,
     "num": 1
    },
    "sample_rate": 0,
    "top_field_first": true,
    "type": "QtImageReader",
    "vcodec": "",
    "video_bit_rate": 0,
    "video_length": "108000",
    "video_stream_index": -1,
    "video_timebase": {
     "den": 30,
     "num": 1
    },
    "width": 720
   },
   "replace_image": false,
   "id": "K0VNL052DB"
  },
  {
   "layer": 4000000,
   "title": "Transition",
   "type": "Mask",
   "position": 72.63333333333334,
   "start": 0,
   "end": 0.9583333333333212,
   "brightness": {
    "Points": [
     {
      "co": {
       "X": 1.0,
       "Y": -1.0
      },
      "handle_left": {
       "X": 0.5,
       "Y": 1.0
      },
      "handle_right": {
       "X": 0.5,
       "Y": 0.0
      },
      "handle_type": 0,
      "interpolation": 0
     },
     {
      "co": {
       "X": 29.0,
       "Y": 1.0
      },
      "handle_left": {
       "X": 0.5,
       "Y": 1.0
      },
      "handle_right": {
       "X": 0.5,
       "Y": 0.0
      },
      "handle_type": 0,
      "interpolation": 0
     }
    ]
   },
   "contrast": {
    "Points": [
     {
      "co": {
       "X": 1.0,
       "Y": 3.0
      },
      "handle_left": {
       "X": 0.5,
       "Y": 1.0
      },
      "handle_right": {
       "X": 0.5,
       "Y": 0.0
      },
      "handle_type": 0,
      "interpolation": 0
     },
     {
      "co": {
       "X": 29.0,
       "Y": 3.0
      },
      "handle_left": {
       "X": 0.5,
       "Y": 1.0
      },
      "handle_right": {
       "X": 0.5,
       "Y": 0.0
      },
      "handle_type": 0,
      "interpolation": 0
     }
    ]
   },
   "reader": {
    "acodec": "",
    "audio_bit_rate": 0,
    "audio_stream_index": -1,
    "audio_timebase": {
     "den": 1,
     "num": 1
    },
    "channel_layout": 4,
    "channels": 0,
    "display_ratio": {
     "den": 4,
     "num": 5
    },
    "duration": 3600.0,
    "file_size": "5832000",
    "fps": {
     "den": 1,
     "num": 30
    },
    "has_audio": false,
    "has_single_image": true,
    "has_video": true,
    "height": 576,
    "interlaced_frame": false,
    "metadata": {},
    "path": "@transitions/common/fade.svg",
    "pixel_format": -1,
    "pixel_ratio": {
     "den": 1,
     "num": 1
    },
    "sample_rate": 0,
    "top_field_first": true,
    "type": "QtImageReader",
    "vcodec": "",
    "video_bit_rate": 0,
    "video_length": "108000",
    "video_stream_index": -1,
    "video_timebase": {
     "den": 30,
     "num": 1
    },
    "width": 720
   },
   "replace_image": false,
   "id": "BC8CI4IOC9"
  },
  {
   "layer": 4000000,
   "title": "Transition",
   "type": "Mask",
   "position": 73.9,
   "start": 0,
   "end": 0.9583333333333212,
   "brightness": {
    "Points": [
     {
      "co": {
       "X": 1.0,
       "Y": 1.0
      },
      "handle_left": {
       "X": 0.5,
       "Y": 1.0
      },
      "handle_right": {
       "X": 0.5,
       "Y": 0.0
      },
      "handle_type": 0,
      "interpolation": 0
     },
     {
      "co": {
       "X": 29.0,
       "Y": -1.0
      },
      "handle_left": {
       "X": 0.5,
       "Y": 1.0
      },
      "handle_right": {
       "X": 0.5,
       "Y": 0.0
      },
      "handle_type": 0,
      "interpolation": 0
     }
    ]
   },
   "contrast": {
    "Points": [
     {
      "co": {
       "X": 1.0,
       "Y": 3.0
      },
      "handle_left": {
       "X": 0.5,
       "Y": 1.0
      },
      "handle_right": {
       "X": 0.5,
       "Y": 0.0
      },
      "handle_type": 0,
      "interpolation": 0
     },
     {
      "co": {
       "X": 29.0,
       "Y": 3.0
      },
      "handle_left": {
       "X": 0.5,
       "Y": 1.0
      },
      "handle_right": {
       "X": 0.5,
       "Y": 0.0
      },
      "handle_type": 0,
      "interpolation": 0
     }
    ]
   },
   "reader": {
    "acodec": "",
    "audio_bit_rate": 0,
    "audio_stream_index": -1,
    "audio_timebase": {
     "den": 1,
     "num": 1
    },
    "channel_layout": 4,
    "channels": 0,
    "display_ratio": {
     "den": 4,
     "num": 5
    },
    "duration": 3600.0,
    "file_size": "5832000",
    "fps": {
     "den": 1,
     "num": 30
    },
    "has_audio": false,
    "has_single_image": true,
    "has_video": true,
    "height": 576,
    "interlaced_frame": false,
    "metadata": {},
    "path": "@transitions/common/fade.svg",
    "pixel_format": -1,
    "pixel_ratio": {
     "den": 1,
     "num": 1
    },
    "sample_rate": 0,
    "top_field_first": true,
    "type": "QtImageReader",
    "vcodec": "",
    "video_bit_rate": 0,
    "video_length": "108000",
    "video_stream_index": -1,
    "video_timebase": {
     "den": 30,
     "num": 1
    },
    "width": 720
   },
   "replace_image": false,
   "id": "KPBY75IWTS"
  },
  {
   "layer": 4000000,
   "title": "Transition",
   "type": "Mask",
   "position": 79.56666666666666,
   "start": 0,
   "end": 0.9583333333333212,
   "brightness": {
    "Points": [
     {
      "co": {
       "X": 1.0,
       "Y": -1.0
      },
      "handle_left": {
       "X": 0.5,
       "Y": 1.0
      },
      "handle_right": {
       "X": 0.5,
       "Y": 0.0
      },
      "handle_type": 0,
      "interpolation": 0
     },
     {
      "co": {
       "X": 29.0,
       "Y": 1.0
      },
      "handle_left": {
       "X": 0.5,
       "Y": 1.0
      },
      "handle_right": {
       "X": 0.5,
       "Y": 0.0
      },
      "handle_type": 0,
      "interpolation": 0
     }
    ]
   },
   "contrast": {
    "Points": [
     {
      "co": {
       "X": 1.0,
       "Y": 3.0
      },
      "handle_left": {
       "X": 0.5,
       "Y": 1.0
      },
      "handle_right": {
       "X": 0.5,
       "Y": 0.0
      },
      "handle_type": 0,
      "interpolation": 0
     },
     {
      "co": {
       "X": 29.0,
       "Y": 3.0
      },
      "handle_left": {
       "X": 0.5,
       "Y": 1.0
      },
      "handle_right": {
       "X": 0.5,
       "Y": 0.0
      },
      "handle_type": 0,
      "interpolation": 0
     }
    ]
   },
   "reader": {
    "acodec": "",
    "audio_bit_rate": 0,
    "audio_stream_index": -1,
    "audio_timebase": {
     "den": 1,
     "num": 1
    },
    "channel_layout": 4,
    "channels": 0,
    "display_ratio": {
     "den": 4,
     "num": 5
    },
    "duration": 3600.0,
    "file_size": "5832000",
    "fps": {
     "den": 1,
     "num": 30
    },
    "has_audio": false,
    "has_single_image": true,
    "has_video": true,
    "height": 576,
    "interlaced_frame": false,
    "metadata": {},
    "path": "@transitions/common/fade.svg",
    "pixel_format": -1,
    "pixel_ratio": {
     "den": 1,
     "num": 1
    },
    "sample_rate": 0,
    "top_field_first": true,
    "type": "QtImageReader",
    "vcodec": "",
    "video_bit_rate": 0,
    "video_length": "108000",
    "video_stream_index": -1,
    "video_timebase": {
     "den": 30,
     "num": 1
    },
    "width": 720
   },
   "replace_image": false,
   "id": "N48U05ILNC"
  },
  {
   "layer": 4000000,
   "title": "Transition",
   "type": "Mask",
   "position": 80.76666666666667,
   "start": 0,
   "end": 0.9583333333333212,
   "brightness": {
    "Points": [
     {
      "co": {
       "X": 1.0,
       "Y": 1.0
      },
      "handle_left": {
       "X": 0.5,
       "Y": 1.0
      },
      "handle_right": {
       "X": 0.5,
       "Y": 0.0
      },
      "handle_type": 0,
      "interpolation": 0
     },
     {
      "co": {
       "X": 29.0,
       "Y": -1.0
      },
      "handle_left": {
       "X": 0.5,
       "Y": 1.0
      },
      "handle_right": {
       "X": 0.5,
       "Y": 0.0
      },
      "handle_type": 0,
      "interpolation": 0
     }
    ]
   },
   "contrast": {
    "Points": [
     {
      "co": {
       "X": 1.0,
       "Y": 3.0
      },
      "handle_left": {
       "X": 0.5,
       "Y": 1.0
      },
      "handle_right": {
       "X": 0.5,
       "Y": 0.0
      },
      "handle_type": 0,
      "interpolation": 0
     },
     {
      "co": {
       "X": 29.0,
       "Y": 3.0
      },
      "handle_left": {
       "X": 0.5,
       "Y": 1.0
      },
      "handle_right": {
       "X": 0.5,
       "Y": 0.0
      },
      "handle_type": 0,
      "interpolation": 0
     }
    ]
   },
   "reader": {
    "acodec": "",
    "audio_bit_rate": 0,
    "audio_stream_index": -1,
    "audio_timebase": {
     "den": 1,
     "num": 1
    },
    "channel_layout": 4,
    "channels": 0,
    "display_ratio": {
     "den": 4,
     "num": 5
    },
    "duration": 3600.0,
    "file_size": "5832000",
    "fps": {
     "den": 1,
     "num": 30
    },
    "has_audio": false,
    "has_single_image": true,
    "has_video": true,
    "height": 576,
    "interlaced_frame": false,
    "metadata": {},
    "path": "@transitions/common/fade.svg",
    "pixel_format": -1,
    "pixel_ratio": {
     "den": 1,
     "num": 1
    },
    "sample_rate": 0,
    "top_field_first": true,
    "type": "QtImageReader",
    "vcodec": "",
    "video_bit_rate": 0,
    "video_length": "108000",
    "video_stream_index": -1,
    "video_timebase": {
     "den": 30,
     "num": 1
    },
    "width": 720
   },
   "replace_image": false,
   "id": "LWSD6DDV86"
  },
  {
   "layer": 4000000,
   "title": "Transition",
   "type": "Mask",
   "position": 85.03333333333333,
   "start": 0,
   "end": 0.9583333333333212,
   "brightness": {
    "Points": [
     {
      "co": {
       "X": 1.0,
       "Y": -1.0
      },
      "handle_left": {
       "X": 0.5,
       "Y": 1.0
      },
      "handle_right": {
       "X": 0.5,
       "Y": 0.0
      },
      "handle_type": 0,
      "interpolation": 0
     },
     {
      "co": {
       "X": 29.0,
       "Y": 1.0
      },
      "handle_left": {
       "X": 0.5,
       "Y": 1.0
      },
      "handle_right": {
       "X": 0.5,
       "Y": 0.0
      },
      "handle_type": 0,
      "interpolation": 0
     }
    ]
   },
   "contrast": {
    "Points": [
     {
      "co": {
       "X": 1.0,
       "Y": 3.0
      },
      "handle_left": {
       "X": 0.5,
       "Y": 1.0
      },
      "handle_right": {
       "X": 0.5,
       "Y": 0.0
      },
      "handle_type": 0,
      "interpolation": 0
     },
     {
      "co": {
       "X": 29.0,
       "Y": 3.0
      },
      "handle_left": {
       "X": 0.5,
       "Y": 1.0
      },
      "handle_right": {
       "X": 0.5,
       "Y": 0.0
      },
      "handle_type": 0,
      "interpolation": 0
     }
    ]
   },
   "reader": {
    "acodec": "",
    "audio_bit_rate": 0,
    "audio_stream_index": -1,
    "audio_timebase": {
     "den": 1,
     "num": 1
    },
    "channel_layout": 4,
    "channels": 0,
    "display_ratio": {
     "den": 4,
     "num": 5
    },
    "duration": 3600.0,
    "file_size": "5832000",
    "fps": {
     "den": 1,
     "num": 30
    },
    "has_audio": false,
    "has_single_image": true,
    "has_video": true,
    "height": 576,
    "interlaced_frame": false,
    "metadata": {},
    "path": "@transitions/common/fade.svg",
    "pixel_format": -1,
    "pixel_ratio": {
     "den": 1,
     "num": 1
    },
    "sample_rate": 0,
    "top_field_first": true,
    "type": "QtImageReader",
    "vcodec": "",
    "video_bit_rate": 0,
    "video_length": "108000",
    "video_stream_index": -1,
    "video_timebase": {
     "den": 30,
     "num": 1
    },
    "width": 720
   },
   "replace_image": false,
   "id": "8MLWPBO4EQ"
  },
  {
   "layer": 4000000,
   "title": "Transition",
   "type": "Mask",
   "position": 86.43333333333334,
   "start": 0,
   "end": 1.4666666666666641,
   "brightness": {
    "Points": [
     {
      "co": {
       "X": 1.0,
       "Y": 1.0
      },
      "handle_left": {
       "X": 0.5,
       "Y": 1.0
      },
      "handle_right": {
       "X": 0.5,
       "Y": 0.0
      },
      "handle_type": 0,
      "interpolation": 0
     },
     {
      "co": {
       "X": 44.0,
       "Y": -1.0
      },
      "handle_left": {
       "X": 0.5,
       "Y": 1.0
      },
      "handle_right": {
       "X": 0.5,
       "Y": 0.0
      },
      "handle_type": 0,
      "interpolation": 0
     }
    ]
   },
   "contrast": {
    "Points": [
     {
      "co": {
       "X": 1.0,
       "Y": 3.0
      },
      "handle_left": {
       "X": 0.5,
       "Y": 1.0
      },
      "handle_right": {
       "X": 0.5,
       "Y": 0.0
      },
      "handle_type": 0,
      "interpolation": 0
     },
     {
      "co": {
       "X": 44.0,
       "Y": 3.0
      },
      "handle_left": {
       "X": 0.5,
       "Y": 1.0
      },
      "handle_right": {
       "X": 0.5,
       "Y": 0.0
      },
      "handle_type": 0,
      "interpolation": 0
     }
    ]
   },
   "reader": {
    "acodec": "",
    "audio_bit_rate": 0,
    "audio_stream_index": -1,
    "audio_timebase": {
     "den": 1,
     "num": 1
    },
    "channel_layout": 4,
    "channels": 0,
    "display_ratio": {
     "den": 4,
     "num": 5
    },
    "duration": 3600.0,
    "file_size": "5832000",
    "fps": {
     "den": 1,
     "num": 30
    },
    "has_audio": false,
    "has_single_image": true,
    "has_video": true,
    "height": 576,
    "interlaced_frame": false,
    "metadata": {},
    "path": "@transitions/common/fade.svg",
    "pixel_format": -1,
    "pixel_ratio": {
     "den": 1,
     "num": 1
    },
    "sample_rate": 0,
    "top_field_first": true,
    "type": "QtImageReader",
    "vcodec": "",
    "video_bit_rate": 0,
    "video_length": "108000",
    "video_stream_index": -1,
    "video_timebase": {
     "den": 30,
     "num": 1
    },
    "width": 720
   },
   "replace_image": false,
   "id": "8KLCS4PPAB"
  },
  {
   "layer": 4000000,
   "title": "Transition",
   "type": "Mask",
   "position": 89.66666666666667,
   "start": 0,
   "end": 0.9583333333333212,
   "brightness": {
    "Points": [
     {
      "co": {
       "X": 1.0,
       "Y": -1.0
      },
      "handle_left": {
       "X": 0.5,
       "Y": 1.0
      },
      "handle_right": {
       "X": 0.5,
       "Y": 0.0
      },
      "handle_type": 0,
      "interpolation": 0
     },
     {
      "co": {
       "X": 29.0,
       "Y": 1.0
      },
      "handle_left": {
       "X": 0.5,
       "Y": 1.0
      },
      "handle_right": {
       "X": 0.5,
       "Y": 0.0
      },
      "handle_type": 0,
      "interpolation": 0
     }
    ]
   },
   "contrast": {
    "Points": [
     {
      "co": {
       "X": 1.0,
       "Y": 3.0
      },
      "handle_left": {
       "X": 0.5,
       "Y": 1.0
      },
      "handle_right": {
       "X": 0.5,
       "Y": 0.0
      },
      "handle_type": 0,
      "interpolation": 0
     },
     {
      "co": {
       "X": 29.0,
       "Y": 3.0
      },
      "handle_left": {
       "X": 0.5,
       "Y": 1.0
      },
      "handle_right": {
       "X": 0.5,
       "Y": 0.0
      },
      "handle_type": 0,
      "interpolation": 0
     }
    ]
   },
   "reader": {
    "acodec": "",
    "audio_bit_rate": 0,
    "audio_stream_index": -1,
    "audio_timebase": {
     "den": 1,
     "num": 1
    },
    "channel_layout": 4,
    "channels": 0,
    "display_ratio": {
     "den": 4,
     "num": 5
    },
    "duration": 3600.0,
    "file_size": "5832000",
    "fps": {
     "den": 1,
     "num": 30
    },
    "has_audio": false,
    "has_single_image": true,
    "has_video": true,
    "height": 576,
    "interlaced_frame": false,
    "metadata": {},
    "path": "@transitions/common/fade.svg",
    "pixel_format": -1,
    "pixel_ratio": {
     "den": 1,
     "num": 1
    },
    "sample_rate": 0,
    "top_field_first": true,
    "type": "QtImageReader",
    "vcodec": "",
    "video_bit_rate": 0,
    "video_length": "108000",
    "video_stream_index": -1,
    "video_timebase": {
     "den": 30,
     "num": 1
    },
    "width": 720
   },
   "replace_image": false,
   "id": "7AYTGRXH6E"
  },
  {
   "layer": 4000000,
   "title": "Transition",
   "type": "Mask",
   "position": 90.86666666666666,
   "start": 0,
   "end": 0.9583333333333212,
   "brightness": {
    "Points": [
     {
      "co": {
       "X": 1.0,
       "Y": 1.0
      },
      "handle_left": {
       "X": 0.5,
       "Y": 1.0
      },
      "handle_right": {
       "X": 0.5,
       "Y": 0.0
      },
      "handle_type": 0,
      "interpolation": 0
     },
     {
      "co": {
       "X": 29.0,
       "Y": -1.0
      },
      "handle_left": {
       "X": 0.5,
       "Y": 1.0
      },
      "handle_right": {
       "X": 0.5,
       "Y": 0.0
      },
      "handle_type": 0,
      "interpolation": 0
     }
    ]
   },
   "contrast": {
    "Points": [
     {
      "co": {
       "X": 1.0,
       "Y": 3.0
      },
      "handle_left": {
       "X": 0.5,
       "Y": 1.0
      },
      "handle_right": {
       "X": 0.5,
       "Y": 0.0
      },
      "handle_type": 0,
      "interpolation": 0
     },
     {
      "co": {
       "X": 29.0,
       "Y": 3.0
      },
      "handle_left": {
       "X": 0.5,
       "Y": 1.0
      },
      "handle_right": {
       "X": 0.5,
       "Y": 0.0
      },
      "handle_type": 0,
      "interpolation": 0
     }
    ]
   },
   "reader": {
    "acodec": "",
    "audio_bit_rate": 0,
    "audio_stream_index": -1,
    "audio_timebase": {
     "den": 1,
     "num": 1
    },
    "channel_layout": 4,
    "channels": 0,
    "display_ratio": {
     "den": 4,
     "num": 5
    },
    "duration": 3600.0,
    "file_size": "5832000",
    "fps": {
     "den": 1,
     "num": 30
    },
    "has_audio": false,
    "has_single_image": true,
    "has_video": true,
    "height": 576,
    "interlaced_frame": false,
    "metadata": {},
    "path": "@transitions/common/fade.svg",
    "pixel_format": -1,
    "pixel_ratio": {
     "den": 1,
     "num": 1
    },
    "sample_rate": 0,
    "top_field_first": true,
    "type": "QtImageReader",
    "vcodec": "",
    "video_bit_rate": 0,
    "video_length": "108000",
    "video_stream_index": -1,
    "video_timebase": {
     "den": 30,
     "num": 1
    },
    "width": 720
   },
   "replace_image": false,
   "id": "UA7LEKK6UL"
  },
  {
   "layer": 4000000,
   "title": "Transition",
   "type": "Mask",
   "position": 96.96666666666667,
   "start": 0,
   "end": 0.9583333333333212,
   "brightness": {
    "Points": [
     {
      "co": {
       "X": 1.0,
       "Y": -1.0
      },
      "handle_left": {
       "X": 0.5,
       "Y": 1.0
      },
      "handle_right": {
       "X": 0.5,
       "Y": 0.0
      },
      "handle_type": 0,
      "interpolation": 0
     },
     {
      "co": {
       "X": 29.0,
       "Y": 1.0
      },
      "handle_left": {
       "X": 0.5,
       "Y": 1.0
      },
      "handle_right": {
       "X": 0.5,
       "Y": 0.0
      },
      "handle_type": 0,
      "interpolation": 0
     }
    ]
   },
   "contrast": {
    "Points": [
     {
      "co": {
       "X": 1.0,
       "Y": 3.0
      },
      "handle_left": {
       "X": 0.5,
       "Y": 1.0
      },
      "handle_right": {
       "X": 0.5,
       "Y": 0.0
      },
      "handle_type": 0,
      "interpolation": 0
     },
     {
      "co": {
       "X": 29.0,
       "Y": 3.0
      },
      "handle_left": {
       "X": 0.5,
       "Y": 1.0
      },
      "handle_right": {
       "X": 0.5,
       "Y": 0.0
      },
      "handle_type": 0,
      "interpolation": 0
     }
    ]
   },
   "reader": {
    "acodec": "",
    "audio_bit_rate": 0,
    "audio_stream_index": -1,
    "audio_timebase": {
     "den": 1,
     "num": 1
    },
    "channel_layout": 4,
    "channels": 0,
    "display_ratio": {
     "den": 4,
     "num": 5
    },
    "duration": 3600.0,
    "file_size": "5832000",
    "fps": {
     "den": 1,
     "num": 30
    },
    "has_audio": false,
    "has_single_image": true,
    "has_video": true,
    "height": 576,
    "interlaced_frame": false,
    "metadata": {},
    "path": "@transitions/common/fade.svg",
    "pixel_format": -1,
    "pixel_ratio": {
     "den": 1,
     "num": 1
    },
    "sample_rate": 0,
    "top_field_first": true,
    "type": "QtImageReader",
    "vcodec": "",
    "video_bit_rate": 0,
    "video_length": "108000",
    "video_stream_index": -1,
    "video_timebase": {
     "den": 30,
     "num": 1
    },
    "width": 720
   },
   "replace_image": false,
   "id": "PJNV20PXN2"
  },
  {
   "layer": 3000000,
   "title": "Transition",
   "type": "Mask",
   "position": 96.96666666666667,
   "start": 0,
   "end": 0.9583333333333212,
   "brightness": {
    "Points": [
     {
      "co": {
       "X": 1.0,
       "Y": -1.0
      },
      "handle_left": {
       "X": 0.5,
       "Y": 1.0
      },
      "handle_right": {
       "X": 0.5,
       "Y": 0.0
      },
      "handle_type": 0,
      "interpolation": 0
     },
     {
      "co": {
       "X": 29.0,
       "Y": 1.0
      },
      "handle_left": {
       "X": 0.5,
       "Y": 1.0
      },
      "handle_right": {
       "X": 0.5,
       "Y": 0.0
      },
      "handle_type": 0,
      "interpolation": 0
     }
    ]
   },
   "contrast": {
    "Points": [
     {
      "co": {
       "X": 1.0,
       "Y": 3.0
      },
      "handle_left": {
       "X": 0.5,
       "Y": 1.0
      },
      "handle_right": {
       "X": 0.5,
       "Y": 0.0
      },
      "handle_type": 0,
      "interpolation": 0
     },
     {
      "co": {
       "X": 29.0,
       "Y": 3.0
      },
      "handle_left": {
       "X": 0.5,
       "Y": 1.0
      },
      "handle_right": {
       "X": 0.5,
       "Y": 0.0
      },
      "handle_type": 0,
      "interpolation": 0
     }
    ]
   },
   "reader": {
    "acodec": "",
    "audio_bit_rate": 0,
    "audio_stream_index": -1,
    "audio_timebase": {
     "den": 1,
     "num": 1
    },
    "channel_layout": 4,
    "channels": 0,
    "display_ratio": {
     "den": 4,
     "num": 5
    },
    "duration": 3600.0,
    "file_size": "5832000",
    "fps": {
     "den": 1,
     "num": 30
    },
    "has_audio": false,
    "has_single_image": true,
    "has_video": true,
    "height": 576,
    "interlaced_frame": false,
    "metadata": {},
    "path": "@transitions/common/fade.svg",
    "pixel_format": -1,
    "pixel_ratio": {
     "den": 1,
     "num": 1
    },
    "sample_rate": 0,
    "top_field_first": true,
    "type": "QtImageReader",
    "vcodec": "",
    "video_bit_rate": 0,
    "video_length": "108000",
    "video_stream_index": -1,
    "video_timebase": {
     "den": 30,
     "num": 1
    },
    "width": 720
   },
   "replace_image": false,
   "id": "5D4SK0HM3Y"
  },
  {
   "layer": 4000000,
   "title": "Transition",
   "type": "Mask",
   "position": 100.33333333333333,
   "start": 0,
   "end": 0.9583333333333212,
   "brightness": {
    "Points": [
     {
      "co": {
       "X": 1.0,
       "Y": 1.0
      },
      "handle_left": {
       "X": 0.5,
       "Y": 1.0
      },
      "handle_right": {
       "X": 0.5,
       "Y": 0.0
      },
      "handle_type": 0,
      "interpolation": 0
     },
     {
      "co": {
       "X": 29.0,
       "Y": -1.0
      },
      "handle_left": {
       "X": 0.5,
       "Y": 1.0
      },
      "handle_right": {
       "X": 0.5,
       "Y": 0.0
      },
      "handle_type": 0,
      "interpolation": 0
     }
    ]
   },
   "contrast": {
    "Points": [
     {
      "co": {
       "X": 1.0,
       "Y": 3.0
      },
      "handle_left": {
       "X": 0.5,
       "Y": 1.0
      },
      "handle_right": {
       "X": 0.5,
       "Y": 0.0
      },
      "handle_type": 0,
      "interpolation": 0
     },
     {
      "co": {
       "X": 29.0,
       "Y": 3.0
      },
      "handle_left": {
       "X": 0.5,
       "Y": 1.0
      },
      "handle_right": {
       "X": 0.5,
       "Y": 0.0
      },
      "handle_type": 0,
      "interpolation": 0
     }
    ]
   },
   "reader": {
    "acodec": "",
    "audio_bit_rate": 0,
    "audio_stream_index": -1,
    "audio_timebase": {
     "den": 1,
     "num": 1
    },
    "channel_layout": 4,
    "channels": 0,
    "display_ratio": {
     "den": 4,
     "num": 5
    },
    "duration": 3600.0,
    "file_size": "5832000",
    "fps": {
     "den": 1,
     "num": 30
    },
    "has_audio": false,
    "has_single_image": true,
    "has_video": true,
    "height": 576,
    "interlaced_frame": false,
    "metadata": {},
    "path": "@transitions/common/fade.svg",
    "pixel_format": -1,
    "pixel_ratio": {
     "den": 1,
     "num": 1
    },
    "sample_rate": 0,
    "top_field_first": true,
    "type": "QtImageReader",
    "vcodec": "",
    "video_bit_rate": 0,
    "video_length": "108000",
    "video_stream_index": -1,
    "video_timebase": {
     "den": 30,
     "num": 1
    },
    "width": 720
   },
   "replace_image": false,
   "id": "CIVVK4Z0FJ"
  },
  {
   "layer": 4000000,
   "title": "Transition",
   "type": "Mask",
   "position": 109.36666666666666,
   "start": 0,
   "end": 0.9583333333333212,
   "brightness": {
    "Points": [
     {
      "co": {
       "X": 1.0,
       "Y": -1.0
      },
      "handle_left": {
       "X": 0.5,
       "Y": 1.0
      },
      "handle_right": {
       "X": 0.5,
       "Y": 0.0
      },
      "handle_type": 0,
      "interpolation": 0
     },
     {
      "co": {
       "X": 29.0,
       "Y": 1.0
      },
      "handle_left": {
       "X": 0.5,
       "Y": 1.0
      },
      "handle_right": {
       "X": 0.5,
       "Y": 0.0
      },
      "handle_type": 0,
      "interpolation": 0
     }
    ]
   },
   "contrast": {
    "Points": [
     {
      "co": {
       "X": 1.0,
       "Y": 3.0
      },
      "handle_left": {
       "X": 0.5,
       "Y": 1.0
      },
      "handle_right": {
       "X": 0.5,
       "Y": 0.0
      },
      "handle_type": 0,
      "interpolation": 0
     },
     {
      "co": {
       "X": 29.0,
       "Y": 3.0
      },
      "handle_left": {
       "X": 0.5,
       "Y": 1.0
      },
      "handle_right": {
       "X": 0.5,
       "Y": 0.0
      },
      "handle_type": 0,
      "interpolation": 0
     }
    ]
   },
   "reader": {
    "acodec": "",
    "audio_bit_rate": 0,
    "audio_stream_index": -1,
    "audio_timebase": {
     "den": 1,
     "num": 1
    },
    "channel_layout": 4,
    "channels": 0,
    "display_ratio": {
     "den": 4,
     "num": 5
    },
    "duration": 3600.0,
    "file_size": "5832000",
    "fps": {
     "den": 1,
     "num": 30
    },
    "has_audio": false,
    "has_single_image": true,
    "has_video": true,
    "height": 576,
    "interlaced_frame": false,
    "metadata": {},
    "path": "@transitions/common/fade.svg",
    "pixel_format": -1,
    "pixel_ratio": {
     "den": 1,
     "num": 1
    },
    "sample_rate": 0,
    "top_field_first": true,
    "type": "QtImageReader",
    "vcodec": "",
    "video_bit_rate": 0,
    "video_length": "108000",
    "video_stream_index": -1,
    "video_timebase": {
     "den": 30,
     "num": 1
    },
    "width": 720
   },
   "replace_image": false,
   "id": "6CRBT6371H"
  },
  {
   "layer": 4000000,
   "title": "Transition",
   "type": "Mask",
   "position": 110.5,
   "start": 0,
   "end": 0.9583333333333212,
   "brightness": {
    "Points": [
     {
      "co": {
       "X": 1.0,
       "Y": 1.0
      },
      "handle_left": {
       "X": 0.5,
       "Y": 1.0
      },
      "handle_right": {
       "X": 0.5,
       "Y": 0.0
      },
      "handle_type": 0,
      "interpolation": 0
     },
     {
      "co": {
       "X": 29.0,
       "Y": -1.0
      },
      "handle_left": {
       "X": 0.5,
       "Y": 1.0
      },
      "handle_right": {
       "X": 0.5,
       "Y": 0.0
      },
      "handle_type": 0,
      "interpolation": 0
     }
    ]
   },
   "contrast": {
    "Points": [
     {
      "co": {
       "X": 1.0,
       "Y": 3.0
      },
      "handle_left": {
       "X": 0.5,
       "Y": 1.0
      },
      "handle_right": {
       "X": 0.5,
       "Y": 0.0
      },
      "handle_type": 0,
      "interpolation": 0
     },
     {
      "co": {
       "X": 29.0,
       "Y": 3.0
      },
      "handle_left": {
       "X": 0.5,
       "Y": 1.0
      },
      "handle_right": {
       "X": 0.5,
       "Y": 0.0
      },
      "handle_type": 0,
      "interpolation": 0
     }
    ]
   },
   "reader": {
    "acodec": "",
    "audio_bit_rate": 0,
    "audio_stream_index": -1,
    "audio_timebase": {
     "den": 1,
     "num": 1
    },
    "channel_layout": 4,
    "channels": 0,
    "display_ratio": {
     "den": 4,
     "num": 5
    },
    "duration": 3600.0,
    "file_size": "5832000",
    "fps": {
     "den": 1,
     "num": 30
    },
    "has_audio": false,
    "has_single_image": true,
    "has_video": true,
    "height": 576,
    "interlaced_frame": false,
    "metadata": {},
    "path": "@transitions/common/fade.svg",
    "pixel_format": -1,
    "pixel_ratio": {
     "den": 1,
     "num": 1
    },
    "sample_rate": 0,
    "top_field_first": true,
    "type": "QtImageReader",
    "vcodec": "",
    "video_bit_rate": 0,
    "video_length": "108000",
    "video_stream_index": -1,
    "video_timebase": {
     "den": 30,
     "num": 1
    },
    "width": 720
   },
   "replace_image": false,
   "id": "6CLK4D1U3V"
  },
  {
   "layer": 4000000,
   "title": "Transition",
   "type": "Mask",
   "position": 119.53333333333333,
   "start": 0,
   "end": 0.9583333333333212,
   "brightness": {
    "Points": [
     {
      "co": {
       "X": 1.0,
       "Y": -1.0
      },
      "handle_left": {
       "X": 0.5,
       "Y": 1.0
      },
      "handle_right": {
       "X": 0.5,
       "Y": 0.0
      },
      "handle_type": 0,
      "interpolation": 0
     },
     {
      "co": {
       "X": 29.0,
       "Y": 1.0
      },
      "handle_left": {
       "X": 0.5,
       "Y": 1.0
      },
      "handle_right": {
       "X": 0.5,
       "Y": 0.0
      },
      "handle_type": 0,
      "interpolation": 0
     }
    ]
   },
   "contrast": {
    "Points": [
     {
      "co": {
       "X": 1.0,
       "Y": 3.0
      },
      "handle_left": {
       "X": 0.5,
       "Y": 1.0
      },
      "handle_right": {
       "X": 0.5,
       "Y": 0.0
      },
      "handle_type": 0,
      "interpolation": 0
     },
     {
      "co": {
       "X": 29.0,
       "Y": 3.0
      },
      "handle_left": {
       "X": 0.5,
       "Y": 1.0
      },
      "handle_right": {
       "X": 0.5,
       "Y": 0.0
      },
      "handle_type": 0,
      "interpolation": 0
     }
    ]
   },
   "reader": {
    "acodec": "",
    "audio_bit_rate": 0,
    "audio_stream_index": -1,
    "audio_timebase": {
     "den": 1,
     "num": 1
    },
    "channel_layout": 4,
    "channels": 0,
    "display_ratio": {
     "den": 4,
     "num": 5
    },
    "duration": 3600.0,
    "file_size": "5832000",
    "fps": {
     "den": 1,
     "num": 30
    },
    "has_audio": false,
    "has_single_image": true,
    "has_video": true,
    "height": 576,
    "interlaced_frame": false,
    "metadata": {},
    "path": "@transitions/common/fade.svg",
    "pixel_format": -1,
    "pixel_ratio": {
     "den": 1,
     "num": 1
    },
    "sample_rate": 0,
    "top_field_first": true,
    "type": "QtImageReader",
    "vcodec": "",
    "video_bit_rate": 0,
    "video_length": "108000",
    "video_stream_index": -1,
    "video_timebase": {
     "den": 30,
     "num": 1
    },
    "width": 720
   },
   "replace_image": false,
   "id": "T7M03LVI36"
  },
  {
   "layer": 4000000,
   "title": "Transition",
   "type": "Mask",
   "position": 122,
   "start": 0,
   "end": 0.9583333333333212,
   "brightness": {
    "Points": [
     {
      "co": {
       "X": 1.0,
       "Y": 1.0
      },
      "handle_left": {
       "X": 0.5,
       "Y": 1.0
      },
      "handle_right": {
       "X": 0.5,
       "Y": 0.0
      },
      "handle_type": 0,
      "interpolation": 0
     },
     {
      "co": {
       "X": 29.0,
       "Y": -1.0
      },
      "handle_left": {
       "X": 0.5,
       "Y": 1.0
      },
      "handle_right": {
       "X": 0.5,
       "Y": 0.0
      },
      "handle_type": 0,
      "interpolation": 0
     }
    ]
   },
   "contrast": {
    "Points": [
     {
      "co": {
       "X": 1.0,
       "Y": 3.0
      },
      "handle_left": {
       "X": 0.5,
       "Y": 1.0
      },
      "handle_right": {
       "X": 0.5,
       "Y": 0.0
      },
      "handle_type": 0,
      "interpolation": 0
     },
     {
      "co": {
       "X": 29.0,
       "Y": 3.0
      },
      "handle_left": {
       "X": 0.5,
       "Y": 1.0
      },
      "handle_right": {
       "X": 0.5,
       "Y": 0.0
      },
      "handle_type": 0,
      "interpolation": 0
     }
    ]
   },
   "reader": {
    "acodec": "",
    "audio_bit_rate": 0,
    "audio_stream_index": -1,
    "audio_timebase": {
     "den": 1,
     "num": 1
    },
    "channel_layout": 4,
    "channels": 0,
    "display_ratio": {
     "den": 4,
     "num": 5
    },
    "duration": 3600.0,
    "file_size": "5832000",
    "fps": {
     "den": 1,
     "num": 30
    },
    "has_audio": false,
    "has_single_image": true,
    "has_video": true,
    "height": 576,
    "interlaced_frame": false,
    "metadata": {},
    "path": "@transitions/common/fade.svg",
    "pixel_format": -1,
    "pixel_ratio": {
     "den": 1,
     "num": 1
    },
    "sample_rate": 0,
    "top_field_first": true,
    "type": "QtImageReader",
    "vcodec": "",
    "video_bit_rate": 0,
    "video_length": "108000",
    "video_stream_index": -1,
    "video_timebase": {
     "den": 30,
     "num": 1
    },
    "width": 720
   },
   "replace_image": false,
   "id": "H2KZP3RW5J"
  },
  {
   "id": "B9Z9HMO54D",
   "layer": 1000000,
   "title": "Transition",
   "type": "Mask",
   "position": 125.03333333333333,
   "start": 0,
   "end": 1.2633353678385504,
   "brightness": {
    "Points": [
     {
      "co": {
       "X": 1.0,
       "Y": 1.0
      },
      "handle_left": {
       "X": 0.5,
       "Y": 1.0
      },
      "handle_right": {
       "X": 0.5,
       "Y": 0.0
      },
      "handle_type": 0,
      "interpolation": 0
     },
     {
      "co": {
       "X": 38.0,
       "Y": -1.0
      },
      "handle_left": {
       "X": 0.5,
       "Y": 1.0
      },
      "handle_right": {
       "X": 0.5,
       "Y": 0.0
      },
      "handle_type": 0,
      "interpolation": 0
     }
    ]
   },
   "contrast": {
    "Points": [
     {
      "co": {
       "X": 1.0,
       "Y": 3.0
      },
      "handle_left": {
       "X": 0.5,
       "Y": 1.0
      },
      "handle_right": {
       "X": 0.5,
       "Y": 0.0
      },
      "handle_type": 0,
      "interpolation": 0
     },
     {
      "co": {
       "X": 38.0,
       "Y": 3.0
      },
      "handle_left": {
       "X": 0.5,
       "Y": 1.0
      },
      "handle_right": {
       "X": 0.5,
       "Y": 0.0
      },
      "handle_type": 0,
      "interpolation": 0
     }
    ]
   },
   "reader": {
    "acodec": "",
    "audio_bit_rate": 0,
    "audio_stream_index": -1,
    "audio_timebase": {
     "den": 1,
     "num": 1
    },
    "channel_layout": 4,
    "channels": 0,
    "display_ratio": {
     "den": 4,
     "num": 5
    },
    "duration": 3600.0,
    "file_size": "5832000",
    "fps": {
     "den": 1,
     "num": 30
    },
    "has_audio": false,
    "has_single_image": true,
    "has_video": true,
    "height": 576,
    "interlaced_frame": false,
    "metadata": {},
    "path": "@transitions/common/fade.svg",
    "pixel_format": -1,
    "pixel_ratio": {
     "den": 1,
     "num": 1
    },
    "sample_rate": 0,
    "top_field_first": true,
    "type": "QtImageReader",
    "vcodec": "",
    "video_bit_rate": 0,
    "video_length": "108000",
    "video_stream_index": -1,
    "video_timebase": {
     "den": 30,
     "num": 1
    },
    "width": 720
   },
   "replace_image": false
  },
  {
   "id": "QXV6SJOC9B",
   "layer": 1000000,
   "title": "Transition",
   "type": "Mask",
   "position": 110.5,
   "start": 0,
   "end": 2.0333333333333314,
   "brightness": {
    "Points": [
     {
      "co": {
       "X": 1.0,
       "Y": 1.0
      },
      "handle_left": {
       "X": 0.5,
       "Y": 1.0
      },
      "handle_right": {
       "X": 0.5,
       "Y": 0.0
      },
      "handle_type": 0,
      "interpolation": 0
     },
     {
      "co": {
       "X": 62.0,
       "Y": -1.0
      },
      "handle_left": {
       "X": 0.5,
       "Y": 1.0
      },
      "handle_right": {
       "X": 0.5,
       "Y": 0.0
      },
      "handle_type": 0,
      "interpolation": 0
     }
    ]
   },
   "contrast": {
    "Points": [
     {
      "co": {
       "X": 1.0,
       "Y": 3.0
      },
      "handle_left": {
       "X": 0.5,
       "Y": 1.0
      },
      "handle_right": {
       "X": 0.5,
       "Y": 0.0
      },
      "handle_type": 0,
      "interpolation": 0
     }
    ]
   },
   "reader": {
    "acodec": "",
    "audio_bit_rate": 0,
    "audio_stream_index": -1,
    "audio_timebase": {
     "den": 1,
     "num": 1
    },
    "channel_layout": 4,
    "channels": 0,
    "display_ratio": {
     "den": 4,
     "num": 5
    },
    "duration": 3600.0,
    "file_size": "5832000",
    "fps": {
     "den": 1,
     "num": 30
    },
    "has_audio": false,
    "has_single_image": true,
    "has_video": true,
    "height": 576,
    "interlaced_frame": false,
    "metadata": {},
    "path": "@transitions/common/fade.svg",
    "pixel_format": -1,
    "pixel_ratio": {
     "den": 1,
     "num": 1
    },
    "sample_rate": 0,
    "top_field_first": true,
    "type": "QtImageReader",
    "vcodec": "",
    "video_bit_rate": 0,
    "video_length": "108000",
    "video_stream_index": -1,
    "video_timebase": {
     "den": 30,
     "num": 1
    },
    "width": 720
   },
   "replace_image": false
  },
  {
   "id": "P0VCHPRAEW",
   "layer": 1000000,
   "title": "Transition",
   "type": "Mask",
   "position": 133.53333333333333,
   "start": 0,
   "end": 1.26666666666668,
   "brightness": {
    "Points": [
     {
      "co": {
       "X": 1.0,
       "Y": 1.0
      },
      "handle_left": {
       "X": 0.5,
       "Y": 1.0
      },
      "handle_right": {
       "X": 0.5,
       "Y": 0.0
      },
      "handle_type": 0,
      "interpolation": 0
     },
     {
      "co": {
       "X": 39.0,
       "Y": -1.0
      },
      "handle_left": {
       "X": 0.5,
       "Y": 1.0
      },
      "handle_right": {
       "X": 0.5,
       "Y": 0.0
      },
      "handle_type": 0,
      "interpolation": 0
     }
    ]
   },
   "contrast": {
    "Points": [
     {
      "co": {
       "X": 1.0,
       "Y": 3.0
      },
      "handle_left": {
       "X": 0.5,
       "Y": 1.0
      },
      "handle_right": {
       "X": 0.5,
       "Y": 0.0
      },
      "handle_type": 0,
      "interpolation": 0
     }
    ]
   },
   "reader": {
    "acodec": "",
    "audio_bit_rate": 0,
    "audio_stream_index": -1,
    "audio_timebase": {
     "den": 1,
     "num": 1
    },
    "channel_layout": 4,
    "channels": 0,
    "display_ratio": {
     "den": 4,
     "num": 5
    },
    "duration": 3600.0,
    "file_size": "5832000",
    "fps": {
     "den": 1,
     "num": 30
    },
    "has_audio": false,
    "has_single_image": true,
    "has_video": true,
    "height": 576,
    "interlaced_frame": false,
    "metadata": {},
    "path": "@transitions/common/fade.svg",
    "pixel_format": -1,
    "pixel_ratio": {
     "den": 1,
     "num": 1
    },
    "sample_rate": 0,
    "top_field_first": true,
    "type": "QtImageReader",
    "vcodec": "",
    "video_bit_rate": 0,
    "video_length": "108000",
    "video_stream_index": -1,
    "video_timebase": {
     "den": 30,
     "num": 1
    },
    "width": 720
   },
   "replace_image": false
  },
  {
   "layer": 4000000,
   "title": "Transition",
   "type": "Mask",
   "position": 142.6,
   "start": 0,
   "end": 0.9583333333333212,
   "brightness": {
    "Points": [
     {
      "co": {
       "X": 1.0,
       "Y": -1.0
      },
      "handle_left": {
       "X": 0.5,
       "Y": 1.0
      },
      "handle_right": {
       "X": 0.5,
       "Y": 0.0
      },
      "handle_type": 0,
      "interpolation": 0
     },
     {
      "co": {
       "X": 29.0,
       "Y": 1.0
      },
      "handle_left": {
       "X": 0.5,
       "Y": 1.0
      },
      "handle_right": {
       "X": 0.5,
       "Y": 0.0
      },
      "handle_type": 0,
      "interpolation": 0
     }
    ]
   },
   "contrast": {
    "Points": [
     {
      "co": {
       "X": 1.0,
       "Y": 3.0
      },
      "handle_left": {
       "X": 0.5,
       "Y": 1.0
      },
      "handle_right": {
       "X": 0.5,
       "Y": 0.0
      },
      "handle_type": 0,
      "interpolation": 0
     },
     {
      "co": {
       "X": 29.0,
       "Y": 3.0
      },
      "handle_left": {
       "X": 0.5,
       "Y": 1.0
      },
      "handle_right": {
       "X": 0.5,
       "Y": 0.0
      },
      "handle_type": 0,
      "interpolation": 0
     }
    ]
   },
   "reader": {
    "acodec": "",
    "audio_bit_rate": 0,
    "audio_stream_index": -1,
    "audio_timebase": {
     "den": 1,
     "num": 1
    },
    "channel_layout": 4,
    "channels": 0,
    "display_ratio": {
     "den": 4,
     "num": 5
    },
    "duration": 3600.0,
    "file_size": "5832000",
    "fps": {
     "den": 1,
     "num": 30
    },
    "has_audio": false,
    "has_single_image": true,
    "has_video": true,
    "height": 576,
    "interlaced_frame": false,
    "metadata": {},
    "path": "@transitions/common/fade.svg",
    "pixel_format": -1,
    "pixel_ratio": {
     "den": 1,
     "num": 1
    },
    "sample_rate": 0,
    "top_field_first": true,
    "type": "QtImageReader",
    "vcodec": "",
    "video_bit_rate": 0,
    "video_length": "108000",
    "video_stream_index": -1,
    "video_timebase": {
     "den": 30,
     "num": 1
    },
    "width": 720
   },
   "replace_image": false,
   "id": "HD7YD14ZFT"
  },
  {
   "layer": 4000000,
   "title": "Transition",
   "type": "Mask",
   "position": 131.03333333333333,
   "start": 0,
   "end": 0.9583333333333212,
   "brightness": {
    "Points": [
     {
      "co": {
       "X": 1.0,
       "Y": -1.0
      },
      "handle_left": {
       "X": 0.5,
       "Y": 1.0
      },
      "handle_right": {
       "X": 0.5,
       "Y": 0.0
      },
      "handle_type": 0,
      "interpolation": 0
     },
     {
      "co": {
       "X": 29.0,
       "Y": 1.0
      },
      "handle_left": {
       "X": 0.5,
       "Y": 1.0
      },
      "handle_right": {
       "X": 0.5,
       "Y": 0.0
      },
      "handle_type": 0,
      "interpolation": 0
     }
    ]
   },
   "contrast": {
    "Points": [
     {
      "co": {
       "X": 1.0,
       "Y": 3.0
      },
      "handle_left": {
       "X": 0.5,
       "Y": 1.0
      },
      "handle_right": {
       "X": 0.5,
       "Y": 0.0
      },
      "handle_type": 0,
      "interpolation": 0
     },
     {
      "co": {
       "X": 29.0,
       "Y": 3.0
      },
      "handle_left": {
       "X": 0.5,
       "Y": 1.0
      },
      "handle_right": {
       "X": 0.5,
       "Y": 0.0
      },
      "handle_type": 0,
      "interpolation": 0
     }
    ]
   },
   "reader": {
    "acodec": "",
    "audio_bit_rate": 0,
    "audio_stream_index": -1,
    "audio_timebase": {
     "den": 1,
     "num": 1
    },
    "channel_layout": 4,
    "channels": 0,
    "display_ratio": {
     "den": 4,
     "num": 5
    },
    "duration": 3600.0,
    "file_size": "5832000",
    "fps": {
     "den": 1,
     "num": 30
    },
    "has_audio": false,
    "has_single_image": true,
    "has_video": true,
    "height": 576,
    "interlaced_frame": false,
    "metadata": {},
    "path": "@transitions/common/fade.svg",
    "pixel_format": -1,
    "pixel_ratio": {
     "den": 1,
     "num": 1
    },
    "sample_rate": 0,
    "top_field_first": true,
    "type": "QtImageReader",
    "vcodec": "",
    "video_bit_rate": 0,
    "video_length": "108000",
    "video_stream_index": -1,
    "video_timebase": {
     "den": 30,
     "num": 1
    },
    "width": 720
   },
   "replace_image": false,
   "id": "W1VV6ZI143"
  },
  {
   "layer": 4000000,
   "title": "Transition",
   "type": "Mask",
   "position": 133.56666666666666,
   "start": 0,
   "end": 0.9583333333333212,
   "brightness": {
    "Points": [
     {
      "co": {
       "X": 1.0,
       "Y": 1.0
      },
      "handle_left": {
       "X": 0.5,
       "Y": 1.0
      },
      "handle_right": {
       "X": 0.5,
       "Y": 0.0
      },
      "handle_type": 0,
      "interpolation": 0
     },
     {
      "co": {
       "X": 29.0,
       "Y": -1.0
      },
      "handle_left": {
       "X": 0.5,
       "Y": 1.0
      },
      "handle_right": {
       "X": 0.5,
       "Y": 0.0
      },
      "handle_type": 0,
      "interpolation": 0
     }
    ]
   },
   "contrast": {
    "Points": [
     {
      "co": {
       "X": 1.0,
       "Y": 3.0
      },
      "handle_left": {
       "X": 0.5,
       "Y": 1.0
      },
      "handle_right": {
       "X": 0.5,
       "Y": 0.0
      },
      "handle_type": 0,
      "interpolation": 0
     },
     {
      "co": {
       "X": 29.0,
       "Y": 3.0
      },
      "handle_left": {
       "X": 0.5,
       "Y": 1.0
      },
      "handle_right": {
       "X": 0.5,
       "Y": 0.0
      },
      "handle_type": 0,
      "interpolation": 0
     }
    ]
   },
   "reader": {
    "acodec": "",
    "audio_bit_rate": 0,
    "audio_stream_index": -1,
    "audio_timebase": {
     "den": 1,
     "num": 1
    },
    "channel_layout": 4,
    "channels": 0,
    "display_ratio": {
     "den": 4,
     "num": 5
    },
    "duration": 3600.0,
    "file_size": "5832000",
    "fps": {
     "den": 1,
     "num": 30
    },
    "has_audio": false,
    "has_single_image": true,
    "has_video": true,
    "height": 576,
    "interlaced_frame": false,
    "metadata": {},
    "path": "@transitions/common/fade.svg",
    "pixel_format": -1,
    "pixel_ratio": {
     "den": 1,
     "num": 1
    },
    "sample_rate": 0,
    "top_field_first": true,
    "type": "QtImageReader",
    "vcodec": "",
    "video_bit_rate": 0,
    "video_length": "108000",
    "video_stream_index": -1,
    "video_timebase": {
     "den": 30,
     "num": 1
    },
    "width": 720
   },
   "replace_image": false,
   "id": "Z02J2TPUOT"
  },
  {
   "id": "0N4ZYD2NF2",
   "layer": 1000000,
   "title": "Transition",
   "type": "Mask",
   "position": 143.56666666666666,
   "start": 0,
   "end": 1.2333333333333485,
   "brightness": {
    "Points": [
     {
      "co": {
       "X": 1.0,
       "Y": 1.0
      },
      "handle_left": {
       "X": 0.5,
       "Y": 1.0
      },
      "handle_right": {
       "X": 0.5,
       "Y": 0.0
      },
      "handle_type": 0,
      "interpolation": 0
     },
     {
      "co": {
       "X": 38.0,
       "Y": -1.0
      },
      "handle_left": {
       "X": 0.5,
       "Y": 1.0
      },
      "handle_right": {
       "X": 0.5,
       "Y": 0.0
      },
      "handle_type": 0,
      "interpolation": 0
     }
    ]
   },
   "contrast": {
    "Points": [
     {
      "co": {
       "X": 1.0,
       "Y": 3.0
      },
      "handle_left": {
       "X": 0.5,
       "Y": 1.0
      },
      "handle_right": {
       "X": 0.5,
       "Y": 0.0
      },
      "handle_type": 0,
      "interpolation": 0
     }
    ]
   },
   "reader": {
    "acodec": "",
    "audio_bit_rate": 0,
    "audio_stream_index": -1,
    "audio_timebase": {
     "den": 1,
     "num": 1
    },
    "channel_layout": 4,
    "channels": 0,
    "display_ratio": {
     "den": 4,
     "num": 5
    },
    "duration": 3600.0,
    "file_size": "5832000",
    "fps": {
     "den": 1,
     "num": 30
    },
    "has_audio": false,
    "has_single_image": true,
    "has_video": true,
    "height": 576,
    "interlaced_frame": false,
    "metadata": {},
    "path": "@transitions/common/fade.svg",
    "pixel_format": -1,
    "pixel_ratio": {
     "den": 1,
     "num": 1
    },
    "sample_rate": 0,
    "top_field_first": true,
    "type": "QtImageReader",
    "vcodec": "",
    "video_bit_rate": 0,
    "video_length": "108000",
    "video_stream_index": -1,
    "video_timebase": {
     "den": 30,
     "num": 1
    },
    "width": 720
   },
   "replace_image": false
  },
  {
   "layer": 4000000,
   "title": "Transition",
   "type": "Mask",
   "position": 144.8,
   "start": 0,
   "end": 0.9583333333333212,
   "brightness": {
    "Points": [
     {
      "co": {
       "X": 1.0,
       "Y": 1.0
      },
      "handle_left": {
       "X": 0.5,
       "Y": 1.0
      },
      "handle_right": {
       "X": 0.5,
       "Y": 0.0
      },
      "handle_type": 0,
      "interpolation": 0
     },
     {
      "co": {
       "X": 29.0,
       "Y": -1.0
      },
      "handle_left": {
       "X": 0.5,
       "Y": 1.0
      },
      "handle_right": {
       "X": 0.5,
       "Y": 0.0
      },
      "handle_type": 0,
      "interpolation": 0
     }
    ]
   },
   "contrast": {
    "Points": [
     {
      "co": {
       "X": 1.0,
       "Y": 3.0
      },
      "handle_left": {
       "X": 0.5,
       "Y": 1.0
      },
      "handle_right": {
       "X": 0.5,
       "Y": 0.0
      },
      "handle_type": 0,
      "interpolation": 0
     },
     {
      "co": {
       "X": 29.0,
       "Y": 3.0
      },
      "handle_left": {
       "X": 0.5,
       "Y": 1.0
      },
      "handle_right": {
       "X": 0.5,
       "Y": 0.0
      },
      "handle_type": 0,
      "interpolation": 0
     }
    ]
   },
   "reader": {
    "acodec": "",
    "audio_bit_rate": 0,
    "audio_stream_index": -1,
    "audio_timebase": {
     "den": 1,
     "num": 1
    },
    "channel_layout": 4,
    "channels": 0,
    "display_ratio": {
     "den": 4,
     "num": 5
    },
    "duration": 3600.0,
    "file_size": "5832000",
    "fps": {
     "den": 1,
     "num": 30
    },
    "has_audio": false,
    "has_single_image": true,
    "has_video": true,
    "height": 576,
    "interlaced_frame": false,
    "metadata": {},
    "path": "@transitions/common/fade.svg",
    "pixel_format": -1,
    "pixel_ratio": {
     "den": 1,
     "num": 1
    },
    "sample_rate": 0,
    "top_field_first": true,
    "type": "QtImageReader",
    "vcodec": "",
    "video_bit_rate": 0,
    "video_length": "108000",
    "video_stream_index": -1,
    "video_timebase": {
     "den": 30,
     "num": 1
    },
    "width": 720
   },
   "replace_image": false,
   "id": "W0DEPAZ42R"
  },
  {
   "id": "TO45GHWLTA",
   "layer": 1000000,
   "title": "Transition",
   "type": "Mask",
   "position": 145.76666666666668,
   "start": 0,
   "end": 1,
   "brightness": {
    "Points": [
     {
      "co": {
       "X": 1.0,
       "Y": 1.0
      },
      "handle_left": {
       "X": 0.5,
       "Y": 1.0
      },
      "handle_right": {
       "X": 0.5,
       "Y": 0.0
      },
      "handle_type": 0,
      "interpolation": 0
     },
     {
      "co": {
       "X": 31.0,
       "Y": -1.0
      },
      "handle_left": {
       "X": 0.5,
       "Y": 1.0
      },
      "handle_right": {
       "X": 0.5,
       "Y": 0.0
      },
      "handle_type": 0,
      "interpolation": 0
     }
    ]
   },
   "contrast": {
    "Points": [
     {
      "co": {
       "X": 1.0,
       "Y": 3.0
      },
      "handle_left": {
       "X": 0.5,
       "Y": 1.0
      },
      "handle_right": {
       "X": 0.5,
       "Y": 0.0
      },
      "handle_type": 0,
      "interpolation": 0
     }
    ]
   },
   "reader": {
    "acodec": "",
    "audio_bit_rate": 0,
    "audio_stream_index": -1,
    "audio_timebase": {
     "den": 1,
     "num": 1
    },
    "channel_layout": 4,
    "channels": 0,
    "display_ratio": {
     "den": 4,
     "num": 5
    },
    "duration": 3600.0,
    "file_size": "5832000",
    "fps": {
     "den": 1,
     "num": 30
    },
    "has_audio": false,
    "has_single_image": true,
    "has_video": true,
    "height": 576,
    "interlaced_frame": false,
    "metadata": {},
    "path": "@transitions/common/fade.svg",
    "pixel_format": -1,
    "pixel_ratio": {
     "den": 1,
     "num": 1
    },
    "sample_rate": 0,
    "top_field_first": true,
    "type": "QtImageReader",
    "vcodec": "",
    "video_bit_rate": 0,
    "video_length": "108000",
    "video_stream_index": -1,
    "video_timebase": {
     "den": 30,
     "num": 1
    },
    "width": 720
   },
   "replace_image": false
  },
  {
   "id": "QQGQORIF73",
   "layer": 1000000,
   "title": "Transition",
   "type": "Mask",
   "position": 147.5,
   "start": 0,
   "end": 1.1666666666666572,
   "brightness": {
    "Points": [
     {
      "co": {
       "X": 1.0,
       "Y": 1.0
      },
      "handle_left": {
       "X": 0.5,
       "Y": 1.0
      },
      "handle_right": {
       "X": 0.5,
       "Y": 0.0
      },
      "handle_type": 0,
      "interpolation": 0
     },
     {
      "co": {
       "X": 35.0,
       "Y": -1.0
      },
      "handle_left": {
       "X": 0.5,
       "Y": 1.0
      },
      "handle_right": {
       "X": 0.5,
       "Y": 0.0
      },
      "handle_type": 0,
      "interpolation": 0
     }
    ]
   },
   "contrast": {
    "Points": [
     {
      "co": {
       "X": 1.0,
       "Y": 3.0
      },
      "handle_left": {
       "X": 0.5,
       "Y": 1.0
      },
      "handle_right": {
       "X": 0.5,
       "Y": 0.0
      },
      "handle_type": 0,
      "interpolation": 0
     },
     {
      "co": {
       "X": 35.0,
       "Y": 3.0
      },
      "handle_left": {
       "X": 0.5,
       "Y": 1.0
      },
      "handle_right": {
       "X": 0.5,
       "Y": 0.0
      },
      "handle_type": 0,
      "interpolation": 0
     }
    ]
   },
   "reader": {
    "acodec": "",
    "audio_bit_rate": 0,
    "audio_stream_index": -1,
    "audio_timebase": {
     "den": 1,
     "num": 1
    },
    "channel_layout": 4,
    "channels": 0,
    "display_ratio": {
     "den": 4,
     "num": 5
    },
    "duration": 3600.0,
    "file_size": "5832000",
    "fps": {
     "den": 1,
     "num": 30
    },
    "has_audio": false,
    "has_single_image": true,
    "has_video": true,
    "height": 576,
    "interlaced_frame": false,
    "metadata": {},
    "path": "@transitions/common/fade.svg",
    "pixel_format": -1,
    "pixel_ratio": {
     "den": 1,
     "num": 1
    },
    "sample_rate": 0,
    "top_field_first": true,
    "type": "QtImageReader",
    "vcodec": "",
    "video_bit_rate": 0,
    "video_length": "108000",
    "video_stream_index": -1,
    "video_timebase": {
     "den": 30,
     "num": 1
    },
    "width": 720
   },
   "replace_image": false
  },
  {
   "layer": 3000000,
   "title": "Transition",
   "type": "Mask",
   "position": 147.5,
   "start": 0,
   "end": 0.9583333333333212,
   "brightness": {
    "Points": [
     {
      "co": {
       "X": 1.0,
       "Y": 1.0
      },
      "handle_left": {
       "X": 0.5,
       "Y": 1.0
      },
      "handle_right": {
       "X": 0.5,
       "Y": 0.0
      },
      "handle_type": 0,
      "interpolation": 0
     },
     {
      "co": {
       "X": 29.0,
       "Y": -1.0
      },
      "handle_left": {
       "X": 0.5,
       "Y": 1.0
      },
      "handle_right": {
       "X": 0.5,
       "Y": 0.0
      },
      "handle_type": 0,
      "interpolation": 0
     }
    ]
   },
   "contrast": {
    "Points": [
     {
      "co": {
       "X": 1.0,
       "Y": 3.0
      },
      "handle_left": {
       "X": 0.5,
       "Y": 1.0
      },
      "handle_right": {
       "X": 0.5,
       "Y": 0.0
      },
      "handle_type": 0,
      "interpolation": 0
     },
     {
      "co": {
       "X": 29.0,
       "Y": 3.0
      },
      "handle_left": {
       "X": 0.5,
       "Y": 1.0
      },
      "handle_right": {
       "X": 0.5,
       "Y": 0.0
      },
      "handle_type": 0,
      "interpolation": 0
     }
    ]
   },
   "reader": {
    "acodec": "",
    "audio_bit_rate": 0,
    "audio_stream_index": -1,
    "audio_timebase": {
     "den": 1,
     "num": 1
    },
    "channel_layout": 4,
    "channels": 0,
    "display_ratio": {
     "den": 4,
     "num": 5
    },
    "duration": 3600.0,
    "file_size": "5832000",
    "fps": {
     "den": 1,
     "num": 30
    },
    "has_audio": false,
    "has_single_image": true,
    "has_video": true,
    "height": 576,
    "interlaced_frame": false,
    "metadata": {},
    "path": "@transitions/common/fade.svg",
    "pixel_format": -1,
    "pixel_ratio": {
     "den": 1,
     "num": 1
    },
    "sample_rate": 0,
    "top_field_first": true,
    "type": "QtImageReader",
    "vcodec": "",
    "video_bit_rate": 0,
    "video_length": "108000",
    "video_stream_index": -1,
    "video_timebase": {
     "den": 30,
     "num": 1
    },
    "width": 720
   },
   "replace_image": false,
   "id": "MQ9GMO4U7S"
  },
  {
   "layer": 3000000,
   "title": "Transition",
   "type": "Mask",
   "position": 151.5,
   "start": 0,
   "end": 0.9583333333333212,
   "brightness": {
    "Points": [
     {
      "co": {
       "X": 1.0,
       "Y": -1.0
      },
      "handle_left": {
       "X": 0.5,
       "Y": 1.0
      },
      "handle_right": {
       "X": 0.5,
       "Y": 0.0
      },
      "handle_type": 0,
      "interpolation": 0
     },
     {
      "co": {
       "X": 29.0,
       "Y": 1.0
      },
      "handle_left": {
       "X": 0.5,
       "Y": 1.0
      },
      "handle_right": {
       "X": 0.5,
       "Y": 0.0
      },
      "handle_type": 0,
      "interpolation": 0
     }
    ]
   },
   "contrast": {
    "Points": [
     {
      "co": {
       "X": 1.0,
       "Y": 3.0
      },
      "handle_left": {
       "X": 0.5,
       "Y": 1.0
      },
      "handle_right": {
       "X": 0.5,
       "Y": 0.0
      },
      "handle_type": 0,
      "interpolation": 0
     },
     {
      "co": {
       "X": 29.0,
       "Y": 3.0
      },
      "handle_left": {
       "X": 0.5,
       "Y": 1.0
      },
      "handle_right": {
       "X": 0.5,
       "Y": 0.0
      },
      "handle_type": 0,
      "interpolation": 0
     }
    ]
   },
   "reader": {
    "acodec": "",
    "audio_bit_rate": 0,
    "audio_stream_index": -1,
    "audio_timebase": {
     "den": 1,
     "num": 1
    },
    "channel_layout": 4,
    "channels": 0,
    "display_ratio": {
     "den": 4,
     "num": 5
    },
    "duration": 3600.0,
    "file_size": "5832000",
    "fps": {
     "den": 1,
     "num": 30
    },
    "has_audio": false,
    "has_single_image": true,
    "has_video": true,
    "height": 576,
    "interlaced_frame": false,
    "metadata": {},
    "path": "@transitions/common/fade.svg",
    "pixel_format": -1,
    "pixel_ratio": {
     "den": 1,
     "num": 1
    },
    "sample_rate": 0,
    "top_field_first": true,
    "type": "QtImageReader",
    "vcodec": "",
    "video_bit_rate": 0,
    "video_length": "108000",
    "video_stream_index": -1,
    "video_timebase": {
     "den": 30,
     "num": 1
    },
    "width": 720
   },
   "replace_image": false,
   "id": "48F1O1SI32"
  },
  {
   "layer": 3000000,
   "title": "Transition",
   "type": "Mask",
   "position": 152.96666666666667,
   "start": 0,
   "end": 0.9583333333333212,
   "brightness": {
    "Points": [
     {
      "co": {
       "X": 1.0,
       "Y": 1.0
      },
      "handle_left": {
       "X": 0.5,
       "Y": 1.0
      },
      "handle_right": {
       "X": 0.5,
       "Y": 0.0
      },
      "handle_type": 0,
      "interpolation": 0
     },
     {
      "co": {
       "X": 29.0,
       "Y": -1.0
      },
      "handle_left": {
       "X": 0.5,
       "Y": 1.0
      },
      "handle_right": {
       "X": 0.5,
       "Y": 0.0
      },
      "handle_type": 0,
      "interpolation": 0
     }
    ]
   },
   "contrast": {
    "Points": [
     {
      "co": {
       "X": 1.0,
       "Y": 3.0
      },
      "handle_left": {
       "X": 0.5,
       "Y": 1.0
      },
      "handle_right": {
       "X": 0.5,
       "Y": 0.0
      },
      "handle_type": 0,
      "interpolation": 0
     },
     {
      "co": {
       "X": 29.0,
       "Y": 3.0
      },
      "handle_left": {
       "X": 0.5,
       "Y": 1.0
      },
      "handle_right": {
       "X": 0.5,
       "Y": 0.0
      },
      "handle_type": 0,
      "interpolation": 0
     }
    ]
   },
   "reader": {
    "acodec": "",
    "audio_bit_rate": 0,
    "audio_stream_index": -1,
    "audio_timebase": {
     "den": 1,
     "num": 1
    },
    "channel_layout": 4,
    "channels": 0,
    "display_ratio": {
     "den": 4,
     "num": 5
    },
    "duration": 3600.0,
    "file_size": "5832000",
    "fps": {
     "den": 1,
     "num": 30
    },
    "has_audio": false,
    "has_single_image": true,
    "has_video": true,
    "height": 576,
    "interlaced_frame": false,
    "metadata": {},
    "path": "@transitions/common/fade.svg",
    "pixel_format": -1,
    "pixel_ratio": {
     "den": 1,
     "num": 1
    },
    "sample_rate": 0,
    "top_field_first": true,
    "type": "QtImageReader",
    "vcodec": "",
    "video_bit_rate": 0,
    "video_length": "108000",
    "video_stream_index": -1,
    "video_timebase": {
     "den": 30,
     "num": 1
    },
    "width": 720
   },
   "replace_image": false,
   "id": "T6EIC6ZKKI"
  },
  {
   "layer": 3000000,
   "title": "Transition",
   "type": "Mask",
   "position": 156.76666666666668,
   "start": 0,
   "end": 0.9583333333333212,
   "brightness": {
    "Points": [
     {
      "co": {
       "X": 1.0,
       "Y": -1.0
      },
      "handle_left": {
       "X": 0.5,
       "Y": 1.0
      },
      "handle_right": {
       "X": 0.5,
       "Y": 0.0
      },
      "handle_type": 0,
      "interpolation": 0
     },
     {
      "co": {
       "X": 29.0,
       "Y": 1.0
      },
      "handle_left": {
       "X": 0.5,
       "Y": 1.0
      },
      "handle_right": {
       "X": 0.5,
       "Y": 0.0
      },
      "handle_type": 0,
      "interpolation": 0
     }
    ]
   },
   "contrast": {
    "Points": [
     {
      "co": {
       "X": 1.0,
       "Y": 3.0
      },
      "handle_left": {
       "X": 0.5,
       "Y": 1.0
      },
      "handle_right": {
       "X": 0.5,
       "Y": 0.0
      },
      "handle_type": 0,
      "interpolation": 0
     },
     {
      "co": {
       "X": 29.0,
       "Y": 3.0
      },
      "handle_left": {
       "X": 0.5,
       "Y": 1.0
      },
      "handle_right": {
       "X": 0.5,
       "Y": 0.0
      },
      "handle_type": 0,
      "interpolation": 0
     }
    ]
   },
   "reader": {
    "acodec": "",
    "audio_bit_rate": 0,
    "audio_stream_index": -1,
    "audio_timebase": {
     "den": 1,
     "num": 1
    },
    "channel_layout": 4,
    "channels": 0,
    "display_ratio": {
     "den": 4,
     "num": 5
    },
    "duration": 3600.0,
    "file_size": "5832000",
    "fps": {
     "den": 1,
     "num": 30
    },
    "has_audio": false,
    "has_single_image": true,
    "has_video": true,
    "height": 576,
    "interlaced_frame": false,
    "metadata": {},
    "path": "@transitions/common/fade.svg",
    "pixel_format": -1,
    "pixel_ratio": {
     "den": 1,
     "num": 1
    },
    "sample_rate": 0,
    "top_field_first": true,
    "type": "QtImageReader",
    "vcodec": "",
    "video_bit_rate": 0,
    "video_length": "108000",
    "video_stream_index": -1,
    "video_timebase": {
     "den": 30,
     "num": 1
    },
    "width": 720
   },
   "replace_image": false,
   "id": "JB87W5WBEW"
  },
  {
   "layer": 3000000,
   "title": "Transition",
   "type": "Mask",
   "position": 159.4,
   "start": 0,
   "end": 0.9583333333333212,
   "brightness": {
    "Points": [
     {
      "co": {
       "X": 1.0,
       "Y": 1.0
      },
      "handle_left": {
       "X": 0.5,
       "Y": 1.0
      },
      "handle_right": {
       "X": 0.5,
       "Y": 0.0
      },
      "handle_type": 0,
      "interpolation": 0
     },
     {
      "co": {
       "X": 29.0,
       "Y": -1.0
      },
      "handle_left": {
       "X": 0.5,
       "Y": 1.0
      },
      "handle_right": {
       "X": 0.5,
       "Y": 0.0
      },
      "handle_type": 0,
      "interpolation": 0
     }
    ]
   },
   "contrast": {
    "Points": [
     {
      "co": {
       "X": 1.0,
       "Y": 3.0
      },
      "handle_left": {
       "X": 0.5,
       "Y": 1.0
      },
      "handle_right": {
       "X": 0.5,
       "Y": 0.0
      },
      "handle_type": 0,
      "interpolation": 0
     },
     {
      "co": {
       "X": 29.0,
       "Y": 3.0
      },
      "handle_left": {
       "X": 0.5,
       "Y": 1.0
      },
      "handle_right": {
       "X": 0.5,
       "Y": 0.0
      },
      "handle_type": 0,
      "interpolation": 0
     }
    ]
   },
   "reader": {
    "acodec": "",
    "audio_bit_rate": 0,
    "audio_stream_index": -1,
    "audio_timebase": {
     "den": 1,
     "num": 1
    },
    "channel_layout": 4,
    "channels": 0,
    "display_ratio": {
     "den": 4,
     "num": 5
    },
    "duration": 3600.0,
    "file_size": "5832000",
    "fps": {
     "den": 1,
     "num": 30
    },
    "has_audio": false,
    "has_single_image": true,
    "has_video": true,
    "height": 576,
    "interlaced_frame": false,
    "metadata": {},
    "path": "@transitions/common/fade.svg",
    "pixel_format": -1,
    "pixel_ratio": {
     "den": 1,
     "num": 1
    },
    "sample_rate": 0,
    "top_field_first": true,
    "type": "QtImageReader",
    "vcodec": "",
    "video_bit_rate": 0,
    "video_length": "108000",
    "video_stream_index": -1,
    "video_timebase": {
     "den": 30,
     "num": 1
    },
    "width": 720
   },
   "replace_image": false,
   "id": "CEA8AKF4RE"
  },
  {
   "layer": 3000000,
   "title": "Transition",
   "type": "Mask",
   "position": 163.2,
   "start": 0,
   "end": 0.9583333333333212,
   "brightness": {
    "Points": [
     {
      "co": {
       "X": 1.0,
       "Y": -1.0
      },
      "handle_left": {
       "X": 0.5,
       "Y": 1.0
      },
      "handle_right": {
       "X": 0.5,
       "Y": 0.0
      },
      "handle_type": 0,
      "interpolation": 0
     },
     {
      "co": {
       "X": 29.0,
       "Y": 1.0
      },
      "handle_left": {
       "X": 0.5,
       "Y": 1.0
      },
      "handle_right": {
       "X": 0.5,
       "Y": 0.0
      },
      "handle_type": 0,
      "interpolation": 0
     }
    ]
   },
   "contrast": {
    "Points": [
     {
      "co": {
       "X": 1.0,
       "Y": 3.0
      },
      "handle_left": {
       "X": 0.5,
       "Y": 1.0
      },
      "handle_right": {
       "X": 0.5,
       "Y": 0.0
      },
      "handle_type": 0,
      "interpolation": 0
     },
     {
      "co": {
       "X": 29.0,
       "Y": 3.0
      },
      "handle_left": {
       "X": 0.5,
       "Y": 1.0
      },
      "handle_right": {
       "X": 0.5,
       "Y": 0.0
      },
      "handle_type": 0,
      "interpolation": 0
     }
    ]
   },
   "reader": {
    "acodec": "",
    "audio_bit_rate": 0,
    "audio_stream_index": -1,
    "audio_timebase": {
     "den": 1,
     "num": 1
    },
    "channel_layout": 4,
    "channels": 0,
    "display_ratio": {
     "den": 4,
     "num": 5
    },
    "duration": 3600.0,
    "file_size": "5832000",
    "fps": {
     "den": 1,
     "num": 30
    },
    "has_audio": false,
    "has_single_image": true,
    "has_video": true,
    "height": 576,
    "interlaced_frame": false,
    "metadata": {},
    "path": "@transitions/common/fade.svg",
    "pixel_format": -1,
    "pixel_ratio": {
     "den": 1,
     "num": 1
    },
    "sample_rate": 0,
    "top_field_first": true,
    "type": "QtImageReader",
    "vcodec": "",
    "video_bit_rate": 0,
    "video_length": "108000",
    "video_stream_index": -1,
    "video_timebase": {
     "den": 30,
     "num": 1
    },
    "width": 720
   },
   "replace_image": false,
   "id": "6X5CANRLU0"
  },
  {
   "layer": 3000000,
   "title": "Transition",
   "type": "Mask",
   "position": 164.3,
   "start": 0,
   "end": 0.9583333333333212,
   "brightness": {
    "Points": [
     {
      "co": {
       "X": 1.0,
       "Y": 1.0
      },
      "handle_left": {
       "X": 0.5,
       "Y": 1.0
      },
      "handle_right": {
       "X": 0.5,
       "Y": 0.0
      },
      "handle_type": 0,
      "interpolation": 0
     },
     {
      "co": {
       "X": 29.0,
       "Y": -1.0
      },
      "handle_left": {
       "X": 0.5,
       "Y": 1.0
      },
      "handle_right": {
       "X": 0.5,
       "Y": 0.0
      },
      "handle_type": 0,
      "interpolation": 0
     }
    ]
   },
   "contrast": {
    "Points": [
     {
      "co": {
       "X": 1.0,
       "Y": 3.0
      },
      "handle_left": {
       "X": 0.5,
       "Y": 1.0
      },
      "handle_right": {
       "X": 0.5,
       "Y": 0.0
      },
      "handle_type": 0,
      "interpolation": 0
     },
     {
      "co": {
       "X": 29.0,
       "Y": 3.0
      },
      "handle_left": {
       "X": 0.5,
       "Y": 1.0
      },
      "handle_right": {
       "X": 0.5,
       "Y": 0.0
      },
      "handle_type": 0,
      "interpolation": 0
     }
    ]
   },
   "reader": {
    "acodec": "",
    "audio_bit_rate": 0,
    "audio_stream_index": -1,
    "audio_timebase": {
     "den": 1,
     "num": 1
    },
    "channel_layout": 4,
    "channels": 0,
    "display_ratio": {
     "den": 4,
     "num": 5
    },
    "duration": 3600.0,
    "file_size": "5832000",
    "fps": {
     "den": 1,
     "num": 30
    },
    "has_audio": false,
    "has_single_image": true,
    "has_video": true,
    "height": 576,
    "interlaced_frame": false,
    "metadata": {},
    "path": "@transitions/common/fade.svg",
    "pixel_format": -1,
    "pixel_ratio": {
     "den": 1,
     "num": 1
    },
    "sample_rate": 0,
    "top_field_first": true,
    "type": "QtImageReader",
    "vcodec": "",
    "video_bit_rate": 0,
    "video_length": "108000",
    "video_stream_index": -1,
    "video_timebase": {
     "den": 30,
     "num": 1
    },
    "width": 720
   },
   "replace_image": false,
   "id": "RQ98DT2VUD"
  },
  {
   "layer": 3000000,
   "title": "Transition",
   "type": "Mask",
   "position": 169.9,
   "start": 0,
   "end": 0.9583333333333212,
   "brightness": {
    "Points": [
     {
      "co": {
       "X": 1.0,
       "Y": -1.0
      },
      "handle_left": {
       "X": 0.5,
       "Y": 1.0
      },
      "handle_right": {
       "X": 0.5,
       "Y": 0.0
      },
      "handle_type": 0,
      "interpolation": 0
     },
     {
      "co": {
       "X": 29.0,
       "Y": 1.0
      },
      "handle_left": {
       "X": 0.5,
       "Y": 1.0
      },
      "handle_right": {
       "X": 0.5,
       "Y": 0.0
      },
      "handle_type": 0,
      "interpolation": 0
     }
    ]
   },
   "contrast": {
    "Points": [
     {
      "co": {
       "X": 1.0,
       "Y": 3.0
      },
      "handle_left": {
       "X": 0.5,
       "Y": 1.0
      },
      "handle_right": {
       "X": 0.5,
       "Y": 0.0
      },
      "handle_type": 0,
      "interpolation": 0
     },
     {
      "co": {
       "X": 29.0,
       "Y": 3.0
      },
      "handle_left": {
       "X": 0.5,
       "Y": 1.0
      },
      "handle_right": {
       "X": 0.5,
       "Y": 0.0
      },
      "handle_type": 0,
      "interpolation": 0
     }
    ]
   },
   "reader": {
    "acodec": "",
    "audio_bit_rate": 0,
    "audio_stream_index": -1,
    "audio_timebase": {
     "den": 1,
     "num": 1
    },
    "channel_layout": 4,
    "channels": 0,
    "display_ratio": {
     "den": 4,
     "num": 5
    },
    "duration": 3600.0,
    "file_size": "5832000",
    "fps": {
     "den": 1,
     "num": 30
    },
    "has_audio": false,
    "has_single_image": true,
    "has_video": true,
    "height": 576,
    "interlaced_frame": false,
    "metadata": {},
    "path": "@transitions/common/fade.svg",
    "pixel_format": -1,
    "pixel_ratio": {
     "den": 1,
     "num": 1
    },
    "sample_rate": 0,
    "top_field_first": true,
    "type": "QtImageReader",
    "vcodec": "",
    "video_bit_rate": 0,
    "video_length": "108000",
    "video_stream_index": -1,
    "video_timebase": {
     "den": 30,
     "num": 1
    },
    "width": 720
   },
   "replace_image": false,
   "id": "ED9VUNOGIJ"
  },
  {
   "layer": 3000000,
   "title": "Transition",
   "type": "Mask",
   "position": 171.36666666666667,
   "start": 0,
   "end": 0.9583333333333212,
   "brightness": {
    "Points": [
     {
      "co": {
       "X": 1.0,
       "Y": 1.0
      },
      "handle_left": {
       "X": 0.5,
       "Y": 1.0
      },
      "handle_right": {
       "X": 0.5,
       "Y": 0.0
      },
      "handle_type": 0,
      "interpolation": 0
     },
     {
      "co": {
       "X": 29.0,
       "Y": -1.0
      },
      "handle_left": {
       "X": 0.5,
       "Y": 1.0
      },
      "handle_right": {
       "X": 0.5,
       "Y": 0.0
      },
      "handle_type": 0,
      "interpolation": 0
     }
    ]
   },
   "contrast": {
    "Points": [
     {
      "co": {
       "X": 1.0,
       "Y": 3.0
      },
      "handle_left": {
       "X": 0.5,
       "Y": 1.0
      },
      "handle_right": {
       "X": 0.5,
       "Y": 0.0
      },
      "handle_type": 0,
      "interpolation": 0
     },
     {
      "co": {
       "X": 29.0,
       "Y": 3.0
      },
      "handle_left": {
       "X": 0.5,
       "Y": 1.0
      },
      "handle_right": {
       "X": 0.5,
       "Y": 0.0
      },
      "handle_type": 0,
      "interpolation": 0
     }
    ]
   },
   "reader": {
    "acodec": "",
    "audio_bit_rate": 0,
    "audio_stream_index": -1,
    "audio_timebase": {
     "den": 1,
     "num": 1
    },
    "channel_layout": 4,
    "channels": 0,
    "display_ratio": {
     "den": 4,
     "num": 5
    },
    "duration": 3600.0,
    "file_size": "5832000",
    "fps": {
     "den": 1,
     "num": 30
    },
    "has_audio": false,
    "has_single_image": true,
    "has_video": true,
    "height": 576,
    "interlaced_frame": false,
    "metadata": {},
    "path": "@transitions/common/fade.svg",
    "pixel_format": -1,
    "pixel_ratio": {
     "den": 1,
     "num": 1
    },
    "sample_rate": 0,
    "top_field_first": true,
    "type": "QtImageReader",
    "vcodec": "",
    "video_bit_rate": 0,
    "video_length": "108000",
    "video_stream_index": -1,
    "video_timebase": {
     "den": 30,
     "num": 1
    },
    "width": 720
   },
   "replace_image": false,
   "id": "5VBZGSOJG5"
  },
  {
   "layer": 3000000,
   "title": "Transition",
   "type": "Mask",
   "position": 176.86666666666667,
   "start": 0,
   "end": 0.9583333333333212,
   "brightness": {
    "Points": [
     {
      "co": {
       "X": 1.0,
       "Y": -1.0
      },
      "handle_left": {
       "X": 0.5,
       "Y": 1.0
      },
      "handle_right": {
       "X": 0.5,
       "Y": 0.0
      },
      "handle_type": 0,
      "interpolation": 0
     },
     {
      "co": {
       "X": 29.0,
       "Y": 1.0
      },
      "handle_left": {
       "X": 0.5,
       "Y": 1.0
      },
      "handle_right": {
       "X": 0.5,
       "Y": 0.0
      },
      "handle_type": 0,
      "interpolation": 0
     }
    ]
   },
   "contrast": {
    "Points": [
     {
      "co": {
       "X": 1.0,
       "Y": 3.0
      },
      "handle_left": {
       "X": 0.5,
       "Y": 1.0
      },
      "handle_right": {
       "X": 0.5,
       "Y": 0.0
      },
      "handle_type": 0,
      "interpolation": 0
     },
     {
      "co": {
       "X": 29.0,
       "Y": 3.0
      },
      "handle_left": {
       "X": 0.5,
       "Y": 1.0
      },
      "handle_right": {
       "X": 0.5,
       "Y": 0.0
      },
      "handle_type": 0,
      "interpolation": 0
     }
    ]
   },
   "reader": {
    "acodec": "",
    "audio_bit_rate": 0,
    "audio_stream_index": -1,
    "audio_timebase": {
     "den": 1,
     "num": 1
    },
    "channel_layout": 4,
    "channels": 0,
    "display_ratio": {
     "den": 4,
     "num": 5
    },
    "duration": 3600.0,
    "file_size": "5832000",
    "fps": {
     "den": 1,
     "num": 30
    },
    "has_audio": false,
    "has_single_image": true,
    "has_video": true,
    "height": 576,
    "interlaced_frame": false,
    "metadata": {},
    "path": "@transitions/common/fade.svg",
    "pixel_format": -1,
    "pixel_ratio": {
     "den": 1,
     "num": 1
    },
    "sample_rate": 0,
    "top_field_first": true,
    "type": "QtImageReader",
    "vcodec": "",
    "video_bit_rate": 0,
    "video_length": "108000",
    "video_stream_index": -1,
    "video_timebase": {
     "den": 30,
     "num": 1
    },
    "width": 720
   },
   "replace_image": false,
   "id": "8IG7CIW33F"
  },
  {
   "layer": 3000000,
   "title": "Transition",
   "type": "Mask",
   "position": 178.76666666666668,
   "start": 0,
   "end": 0.9583333333333212,
   "brightness": {
    "Points": [
     {
      "co": {
       "X": 1.0,
       "Y": 1.0
      },
      "handle_left": {
       "X": 0.5,
       "Y": 1.0
      },
      "handle_right": {
       "X": 0.5,
       "Y": 0.0
      },
      "handle_type": 0,
      "interpolation": 0
     },
     {
      "co": {
       "X": 29.0,
       "Y": -1.0
      },
      "handle_left": {
       "X": 0.5,
       "Y": 1.0
      },
      "handle_right": {
       "X": 0.5,
       "Y": 0.0
      },
      "handle_type": 0,
      "interpolation": 0
     }
    ]
   },
   "contrast": {
    "Points": [
     {
      "co": {
       "X": 1.0,
       "Y": 3.0
      },
      "handle_left": {
       "X": 0.5,
       "Y": 1.0
      },
      "handle_right": {
       "X": 0.5,
       "Y": 0.0
      },
      "handle_type": 0,
      "interpolation": 0
     },
     {
      "co": {
       "X": 29.0,
       "Y": 3.0
      },
      "handle_left": {
       "X": 0.5,
       "Y": 1.0
      },
      "handle_right": {
       "X": 0.5,
       "Y": 0.0
      },
      "handle_type": 0,
      "interpolation": 0
     }
    ]
   },
   "reader": {
    "acodec": "",
    "audio_bit_rate": 0,
    "audio_stream_index": -1,
    "audio_timebase": {
     "den": 1,
     "num": 1
    },
    "channel_layout": 4,
    "channels": 0,
    "display_ratio": {
     "den": 4,
     "num": 5
    },
    "duration": 3600.0,
    "file_size": "5832000",
    "fps": {
     "den": 1,
     "num": 30
    },
    "has_audio": false,
    "has_single_image": true,
    "has_video": true,
    "height": 576,
    "interlaced_frame": false,
    "metadata": {},
    "path": "@transitions/common/fade.svg",
    "pixel_format": -1,
    "pixel_ratio": {
     "den": 1,
     "num": 1
    },
    "sample_rate": 0,
    "top_field_first": true,
    "type": "QtImageReader",
    "vcodec": "",
    "video_bit_rate": 0,
    "video_length": "108000",
    "video_stream_index": -1,
    "video_timebase": {
     "den": 30,
     "num": 1
    },
    "width": 720
   },
   "replace_image": false,
   "id": "0ROA4SH20T"
  },
  {
   "layer": 3000000,
   "title": "Transition",
   "type": "Mask",
   "position": 184.9,
   "start": 0,
   "end": 0.9583333333333212,
   "brightness": {
    "Points": [
     {
      "co": {
       "X": 1.0,
       "Y": -1.0
      },
      "handle_left": {
       "X": 0.5,
       "Y": 1.0
      },
      "handle_right": {
       "X": 0.5,
       "Y": 0.0
      },
      "handle_type": 0,
      "interpolation": 0
     },
     {
      "co": {
       "X": 29.0,
       "Y": 1.0
      },
      "handle_left": {
       "X": 0.5,
       "Y": 1.0
      },
      "handle_right": {
       "X": 0.5,
       "Y": 0.0
      },
      "handle_type": 0,
      "interpolation": 0
     }
    ]
   },
   "contrast": {
    "Points": [
     {
      "co": {
       "X": 1.0,
       "Y": 3.0
      },
      "handle_left": {
       "X": 0.5,
       "Y": 1.0
      },
      "handle_right": {
       "X": 0.5,
       "Y": 0.0
      },
      "handle_type": 0,
      "interpolation": 0
     },
     {
      "co": {
       "X": 29.0,
       "Y": 3.0
      },
      "handle_left": {
       "X": 0.5,
       "Y": 1.0
      },
      "handle_right": {
       "X": 0.5,
       "Y": 0.0
      },
      "handle_type": 0,
      "interpolation": 0
     }
    ]
   },
   "reader": {
    "acodec": "",
    "audio_bit_rate": 0,
    "audio_stream_index": -1,
    "audio_timebase": {
     "den": 1,
     "num": 1
    },
    "channel_layout": 4,
    "channels": 0,
    "display_ratio": {
     "den": 4,
     "num": 5
    },
    "duration": 3600.0,
    "file_size": "5832000",
    "fps": {
     "den": 1,
     "num": 30
    },
    "has_audio": false,
    "has_single_image": true,
    "has_video": true,
    "height": 576,
    "interlaced_frame": false,
    "metadata": {},
    "path": "@transitions/common/fade.svg",
    "pixel_format": -1,
    "pixel_ratio": {
     "den": 1,
     "num": 1
    },
    "sample_rate": 0,
    "top_field_first": true,
    "type": "QtImageReader",
    "vcodec": "",
    "video_bit_rate": 0,
    "video_length": "108000",
    "video_stream_index": -1,
    "video_timebase": {
     "den": 30,
     "num": 1
    },
    "width": 720
   },
   "replace_image": false,
   "id": "EZA86GZMTM"
  },
  {
   "id": "F4A4DQ7U5X",
   "layer": 1000000,
   "title": "Transition",
   "type": "Mask",
   "position": 185.86666666666667,
   "start": 0,
   "end": 0.9000000000000057,
   "brightness": {
    "Points": [
     {
      "co": {
       "X": 1.0,
       "Y": 1.0
      },
      "handle_left": {
       "X": 0.5,
       "Y": 1.0
      },
      "handle_right": {
       "X": 0.5,
       "Y": 0.0
      },
      "handle_type": 0,
      "interpolation": 0
     },
     {
      "co": {
       "X": 28.0,
       "Y": -1.0
      },
      "handle_left": {
       "X": 0.5,
       "Y": 1.0
      },
      "handle_right": {
       "X": 0.5,
       "Y": 0.0
      },
      "handle_type": 0,
      "interpolation": 0
     }
    ]
   },
   "contrast": {
    "Points": [
     {
      "co": {
       "X": 1.0,
       "Y": 3.0
      },
      "handle_left": {
       "X": 0.5,
       "Y": 1.0
      },
      "handle_right": {
       "X": 0.5,
       "Y": 0.0
      },
      "handle_type": 0,
      "interpolation": 0
     }
    ]
   },
   "reader": {
    "acodec": "",
    "audio_bit_rate": 0,
    "audio_stream_index": -1,
    "audio_timebase": {
     "den": 1,
     "num": 1
    },
    "channel_layout": 4,
    "channels": 0,
    "display_ratio": {
     "den": 4,
     "num": 5
    },
    "duration": 3600.0,
    "file_size": "5832000",
    "fps": {
     "den": 1,
     "num": 30
    },
    "has_audio": false,
    "has_single_image": true,
    "has_video": true,
    "height": 576,
    "interlaced_frame": false,
    "metadata": {},
    "path": "@transitions/common/fade.svg",
    "pixel_format": -1,
    "pixel_ratio": {
     "den": 1,
     "num": 1
    },
    "sample_rate": 0,
    "top_field_first": true,
    "type": "QtImageReader",
    "vcodec": "",
    "video_bit_rate": 0,
    "video_length": "108000",
    "video_stream_index": -1,
    "video_timebase": {
     "den": 30,
     "num": 1
    },
    "width": 720
   },
   "replace_image": false
  },
  {
   "layer": 4000000,
   "title": "Transition",
   "type": "Mask",
   "position": 184.9,
   "start": 0,
   "end": 0.9583333333333212,
   "brightness": {
    "Points": [
     {
      "co": {
       "X": 1.0,
       "Y": -1.0
      },
      "handle_left": {
       "X": 0.5,
       "Y": 1.0
      },
      "handle_right": {
       "X": 0.5,
       "Y": 0.0
      },
      "handle_type": 0,
      "interpolation": 0
     },
     {
      "co": {
       "X": 29.0,
       "Y": 1.0
      },
      "handle_left": {
       "X": 0.5,
       "Y": 1.0
      },
      "handle_right": {
       "X": 0.5,
       "Y": 0.0
      },
      "handle_type": 0,
      "interpolation": 0
     }
    ]
   },
   "contrast": {
    "Points": [
     {
      "co": {
       "X": 1.0,
       "Y": 3.0
      },
      "handle_left": {
       "X": 0.5,
       "Y": 1.0
      },
      "handle_right": {
       "X": 0.5,
       "Y": 0.0
      },
      "handle_type": 0,
      "interpolation": 0
     },
     {
      "co": {
       "X": 29.0,
       "Y": 3.0
      },
      "handle_left": {
       "X": 0.5,
       "Y": 1.0
      },
      "handle_right": {
       "X": 0.5,
       "Y": 0.0
      },
      "handle_type": 0,
      "interpolation": 0
     }
    ]
   },
   "reader": {
    "acodec": "",
    "audio_bit_rate": 0,
    "audio_stream_index": -1,
    "audio_timebase": {
     "den": 1,
     "num": 1
    },
    "channel_layout": 4,
    "channels": 0,
    "display_ratio": {
     "den": 4,
     "num": 5
    },
    "duration": 3600.0,
    "file_size": "5832000",
    "fps": {
     "den": 1,
     "num": 30
    },
    "has_audio": false,
    "has_single_image": true,
    "has_video": true,
    "height": 576,
    "interlaced_frame": false,
    "metadata": {},
    "path": "@transitions/common/fade.svg",
    "pixel_format": -1,
    "pixel_ratio": {
     "den": 1,
     "num": 1
    },
    "sample_rate": 0,
    "top_field_first": true,
    "type": "QtImageReader",
    "vcodec": "",
    "video_bit_rate": 0,
    "video_length": "108000",
    "video_stream_index": -1,
    "video_timebase": {
     "den": 30,
     "num": 1
    },
    "width": 720
   },
   "replace_image": false,
   "id": "2ZYRXRS5AW"
  },
  {
   "layer": 4000000,
   "title": "Transition",
   "type": "Mask",
   "position": 186.63333333333333,
   "start": 0,
   "end": 0.9583333333333212,
   "brightness": {
    "Points": [
     {
      "co": {
       "X": 1.0,
       "Y": 1.0
      },
      "handle_left": {
       "X": 0.5,
       "Y": 1.0
      },
      "handle_right": {
       "X": 0.5,
       "Y": 0.0
      },
      "handle_type": 0,
      "interpolation": 0
     },
     {
      "co": {
       "X": 29.0,
       "Y": -1.0
      },
      "handle_left": {
       "X": 0.5,
       "Y": 1.0
      },
      "handle_right": {
       "X": 0.5,
       "Y": 0.0
      },
      "handle_type": 0,
      "interpolation": 0
     }
    ]
   },
   "contrast": {
    "Points": [
     {
      "co": {
       "X": 1.0,
       "Y": 3.0
      },
      "handle_left": {
       "X": 0.5,
       "Y": 1.0
      },
      "handle_right": {
       "X": 0.5,
       "Y": 0.0
      },
      "handle_type": 0,
      "interpolation": 0
     },
     {
      "co": {
       "X": 29.0,
       "Y": 3.0
      },
      "handle_left": {
       "X": 0.5,
       "Y": 1.0
      },
      "handle_right": {
       "X": 0.5,
       "Y": 0.0
      },
      "handle_type": 0,
      "interpolation": 0
     }
    ]
   },
   "reader": {
    "acodec": "",
    "audio_bit_rate": 0,
    "audio_stream_index": -1,
    "audio_timebase": {
     "den": 1,
     "num": 1
    },
    "channel_layout": 4,
    "channels": 0,
    "display_ratio": {
     "den": 4,
     "num": 5
    },
    "duration": 3600.0,
    "file_size": "5832000",
    "fps": {
     "den": 1,
     "num": 30
    },
    "has_audio": false,
    "has_single_image": true,
    "has_video": true,
    "height": 576,
    "interlaced_frame": false,
    "metadata": {},
    "path": "@transitions/common/fade.svg",
    "pixel_format": -1,
    "pixel_ratio": {
     "den": 1,
     "num": 1
    },
    "sample_rate": 0,
    "top_field_first": true,
    "type": "QtImageReader",
    "vcodec": "",
    "video_bit_rate": 0,
    "video_length": "108000",
    "video_stream_index": -1,
    "video_timebase": {
     "den": 30,
     "num": 1
    },
    "width": 720
   },
   "replace_image": false,
   "id": "Q9UGMHENC6"
  },
  {
   "layer": 3000000,
   "title": "Transition",
   "type": "Mask",
   "position": 191.86666666666667,
   "start": 0,
   "end": 0.9583333333333212,
   "brightness": {
    "Points": [
     {
      "co": {
       "X": 1.0,
       "Y": 1.0
      },
      "handle_left": {
       "X": 0.5,
       "Y": 1.0
      },
      "handle_right": {
       "X": 0.5,
       "Y": 0.0
      },
      "handle_type": 0,
      "interpolation": 0
     },
     {
      "co": {
       "X": 29.0,
       "Y": -1.0
      },
      "handle_left": {
       "X": 0.5,
       "Y": 1.0
      },
      "handle_right": {
       "X": 0.5,
       "Y": 0.0
      },
      "handle_type": 0,
      "interpolation": 0
     }
    ]
   },
   "contrast": {
    "Points": [
     {
      "co": {
       "X": 1.0,
       "Y": 3.0
      },
      "handle_left": {
       "X": 0.5,
       "Y": 1.0
      },
      "handle_right": {
       "X": 0.5,
       "Y": 0.0
      },
      "handle_type": 0,
      "interpolation": 0
     },
     {
      "co": {
       "X": 29.0,
       "Y": 3.0
      },
      "handle_left": {
       "X": 0.5,
       "Y": 1.0
      },
      "handle_right": {
       "X": 0.5,
       "Y": 0.0
      },
      "handle_type": 0,
      "interpolation": 0
     }
    ]
   },
   "reader": {
    "acodec": "",
    "audio_bit_rate": 0,
    "audio_stream_index": -1,
    "audio_timebase": {
     "den": 1,
     "num": 1
    },
    "channel_layout": 4,
    "channels": 0,
    "display_ratio": {
     "den": 4,
     "num": 5
    },
    "duration": 3600.0,
    "file_size": "5832000",
    "fps": {
     "den": 1,
     "num": 30
    },
    "has_audio": false,
    "has_single_image": true,
    "has_video": true,
    "height": 576,
    "interlaced_frame": false,
    "metadata": {},
    "path": "@transitions/common/fade.svg",
    "pixel_format": -1,
    "pixel_ratio": {
     "den": 1,
     "num": 1
    },
    "sample_rate": 0,
    "top_field_first": true,
    "type": "QtImageReader",
    "vcodec": "",
    "video_bit_rate": 0,
    "video_length": "108000",
    "video_stream_index": -1,
    "video_timebase": {
     "den": 30,
     "num": 1
    },
    "width": 720
   },
   "replace_image": false,
   "id": "G9LEMCYT5Q"
  },
  {
   "layer": 3000000,
   "title": "Transition",
   "type": "Mask",
   "position": 206.76666666666668,
   "start": 0,
   "end": 0.9583333333333212,
   "brightness": {
    "Points": [
     {
      "co": {
       "X": 1.0,
       "Y": -1.0
      },
      "handle_left": {
       "X": 0.5,
       "Y": 1.0
      },
      "handle_right": {
       "X": 0.5,
       "Y": 0.0
      },
      "handle_type": 0,
      "interpolation": 0
     },
     {
      "co": {
       "X": 29.0,
       "Y": 1.0
      },
      "handle_left": {
       "X": 0.5,
       "Y": 1.0
      },
      "handle_right": {
       "X": 0.5,
       "Y": 0.0
      },
      "handle_type": 0,
      "interpolation": 0
     }
    ]
   },
   "contrast": {
    "Points": [
     {
      "co": {
       "X": 1.0,
       "Y": 3.0
      },
      "handle_left": {
       "X": 0.5,
       "Y": 1.0
      },
      "handle_right": {
       "X": 0.5,
       "Y": 0.0
      },
      "handle_type": 0,
      "interpolation": 0
     },
     {
      "co": {
       "X": 29.0,
       "Y": 3.0
      },
      "handle_left": {
       "X": 0.5,
       "Y": 1.0
      },
      "handle_right": {
       "X": 0.5,
       "Y": 0.0
      },
      "handle_type": 0,
      "interpolation": 0
     }
    ]
   },
   "reader": {
    "acodec": "",
    "audio_bit_rate": 0,
    "audio_stream_index": -1,
    "audio_timebase": {
     "den": 1,
     "num": 1
    },
    "channel_layout": 4,
    "channels": 0,
    "display_ratio": {
     "den": 4,
     "num": 5
    },
    "duration": 3600.0,
    "file_size": "5832000",
    "fps": {
     "den": 1,
     "num": 30
    },
    "has_audio": false,
    "has_single_image": true,
    "has_video": true,
    "height": 576,
    "interlaced_frame": false,
    "metadata": {},
    "path": "@transitions/common/fade.svg",
    "pixel_format": -1,
    "pixel_ratio": {
     "den": 1,
     "num": 1
    },
    "sample_rate": 0,
    "top_field_first": true,
    "type": "QtImageReader",
    "vcodec": "",
    "video_bit_rate": 0,
    "video_length": "108000",
    "video_stream_index": -1,
    "video_timebase": {
     "den": 30,
     "num": 1
    },
    "width": 720
   },
   "replace_image": false,
   "id": "69Y42ETE8B"
  },
  {
   "layer": 3000000,
   "title": "Transition",
   "type": "Mask",
   "position": 199.83333333333334,
   "start": 0,
   "end": 0.9583333333333212,
   "brightness": {
    "Points": [
     {
      "co": {
       "X": 1.0,
       "Y": 1.0
      },
      "handle_left": {
       "X": 0.5,
       "Y": 1.0
      },
      "handle_right": {
       "X": 0.5,
       "Y": 0.0
      },
      "handle_type": 0,
      "interpolation": 0
     },
     {
      "co": {
       "X": 29.0,
       "Y": -1.0
      },
      "handle_left": {
       "X": 0.5,
       "Y": 1.0
      },
      "handle_right": {
       "X": 0.5,
       "Y": 0.0
      },
      "handle_type": 0,
      "interpolation": 0
     }
    ]
   },
   "contrast": {
    "Points": [
     {
      "co": {
       "X": 1.0,
       "Y": 3.0
      },
      "handle_left": {
       "X": 0.5,
       "Y": 1.0
      },
      "handle_right": {
       "X": 0.5,
       "Y": 0.0
      },
      "handle_type": 0,
      "interpolation": 0
     },
     {
      "co": {
       "X": 29.0,
       "Y": 3.0
      },
      "handle_left": {
       "X": 0.5,
       "Y": 1.0
      },
      "handle_right": {
       "X": 0.5,
       "Y": 0.0
      },
      "handle_type": 0,
      "interpolation": 0
     }
    ]
   },
   "reader": {
    "acodec": "",
    "audio_bit_rate": 0,
    "audio_stream_index": -1,
    "audio_timebase": {
     "den": 1,
     "num": 1
    },
    "channel_layout": 4,
    "channels": 0,
    "display_ratio": {
     "den": 4,
     "num": 5
    },
    "duration": 3600.0,
    "file_size": "5832000",
    "fps": {
     "den": 1,
     "num": 30
    },
    "has_audio": false,
    "has_single_image": true,
    "has_video": true,
    "height": 576,
    "interlaced_frame": false,
    "metadata": {},
    "path": "@transitions/common/fade.svg",
    "pixel_format": -1,
    "pixel_ratio": {
     "den": 1,
     "num": 1
    },
    "sample_rate": 0,
    "top_field_first": true,
    "type": "QtImageReader",
    "vcodec": "",
    "video_bit_rate": 0,
    "video_length": "108000",
    "video_stream_index": -1,
    "video_timebase": {
     "den": 30,
     "num": 1
    },
    "width": 720
   },
   "replace_image": false,
   "id": "LZDCN1H4RV"
  },
  {
   "layer": 3000000,
   "title": "Transition",
   "type": "Mask",
   "position": 209.83333333333334,
   "start": 0,
   "end": 0.9583333333333212,
   "brightness": {
    "Points": [
     {
      "co": {
       "X": 1.0,
       "Y": 1.0
      },
      "handle_left": {
       "X": 0.5,
       "Y": 1.0
      },
      "handle_right": {
       "X": 0.5,
       "Y": 0.0
      },
      "handle_type": 0,
      "interpolation": 0
     },
     {
      "co": {
       "X": 29.0,
       "Y": -1.0
      },
      "handle_left": {
       "X": 0.5,
       "Y": 1.0
      },
      "handle_right": {
       "X": 0.5,
       "Y": 0.0
      },
      "handle_type": 0,
      "interpolation": 0
     }
    ]
   },
   "contrast": {
    "Points": [
     {
      "co": {
       "X": 1.0,
       "Y": 3.0
      },
      "handle_left": {
       "X": 0.5,
       "Y": 1.0
      },
      "handle_right": {
       "X": 0.5,
       "Y": 0.0
      },
      "handle_type": 0,
      "interpolation": 0
     },
     {
      "co": {
       "X": 29.0,
       "Y": 3.0
      },
      "handle_left": {
       "X": 0.5,
       "Y": 1.0
      },
      "handle_right": {
       "X": 0.5,
       "Y": 0.0
      },
      "handle_type": 0,
      "interpolation": 0
     }
    ]
   },
   "reader": {
    "acodec": "",
    "audio_bit_rate": 0,
    "audio_stream_index": -1,
    "audio_timebase": {
     "den": 1,
     "num": 1
    },
    "channel_layout": 4,
    "channels": 0,
    "display_ratio": {
     "den": 4,
     "num": 5
    },
    "duration": 3600.0,
    "file_size": "5832000",
    "fps": {
     "den": 1,
     "num": 30
    },
    "has_audio": false,
    "has_single_image": true,
    "has_video": true,
    "height": 576,
    "interlaced_frame": false,
    "metadata": {},
    "path": "@transitions/common/fade.svg",
    "pixel_format": -1,
    "pixel_ratio": {
     "den": 1,
     "num": 1
    },
    "sample_rate": 0,
    "top_field_first": true,
    "type": "QtImageReader",
    "vcodec": "",
    "video_bit_rate": 0,
    "video_length": "108000",
    "video_stream_index": -1,
    "video_timebase": {
     "den": 30,
     "num": 1
    },
    "width": 720
   },
   "replace_image": false,
   "id": "58VK2RHQN2"
  },
  {
   "layer": 4000000,
   "title": "Transition",
   "type": "Mask",
   "position": 213.86666666666667,
   "start": 0,
   "end": 0.9583333333333212,
   "brightness": {
    "Points": [
     {
      "co": {
       "X": 1.0,
       "Y": -1.0
      },
      "handle_left": {
       "X": 0.5,
       "Y": 1.0
      },
      "handle_right": {
       "X": 0.5,
       "Y": 0.0
      },
      "handle_type": 0,
      "interpolation": 0
     },
     {
      "co": {
       "X": 29.0,
       "Y": 1.0
      },
      "handle_left": {
       "X": 0.5,
       "Y": 1.0
      },
      "handle_right": {
       "X": 0.5,
       "Y": 0.0
      },
      "handle_type": 0,
      "interpolation": 0
     }
    ]
   },
   "contrast": {
    "Points": [
     {
      "co": {
       "X": 1.0,
       "Y": 3.0
      },
      "handle_left": {
       "X": 0.5,
       "Y": 1.0
      },
      "handle_right": {
       "X": 0.5,
       "Y": 0.0
      },
      "handle_type": 0,
      "interpolation": 0
     },
     {
      "co": {
       "X": 29.0,
       "Y": 3.0
      },
      "handle_left": {
       "X": 0.5,
       "Y": 1.0
      },
      "handle_right": {
       "X": 0.5,
       "Y": 0.0
      },
      "handle_type": 0,
      "interpolation": 0
     }
    ]
   },
   "reader": {
    "acodec": "",
    "audio_bit_rate": 0,
    "audio_stream_index": -1,
    "audio_timebase": {
     "den": 1,
     "num": 1
    },
    "channel_layout": 4,
    "channels": 0,
    "display_ratio": {
     "den": 4,
     "num": 5
    },
    "duration": 3600.0,
    "file_size": "5832000",
    "fps": {
     "den": 1,
     "num": 30
    },
    "has_audio": false,
    "has_single_image": true,
    "has_video": true,
    "height": 576,
    "interlaced_frame": false,
    "metadata": {},
    "path": "@transitions/common/fade.svg",
    "pixel_format": -1,
    "pixel_ratio": {
     "den": 1,
     "num": 1
    },
    "sample_rate": 0,
    "top_field_first": true,
    "type": "QtImageReader",
    "vcodec": "",
    "video_bit_rate": 0,
    "video_length": "108000",
    "video_stream_index": -1,
    "video_timebase": {
     "den": 30,
     "num": 1
    },
    "width": 720
   },
   "replace_image": false,
   "id": "KWJRN4TR28"
  },
  {
   "layer": 3000000,
   "title": "Transition",
   "type": "Mask",
   "position": 213.86666666666667,
   "start": 0,
   "end": 0.9583333333333212,
   "brightness": {
    "Points": [
     {
      "co": {
       "X": 1.0,
       "Y": -1.0
      },
      "handle_left": {
       "X": 0.5,
       "Y": 1.0
      },
      "handle_right": {
       "X": 0.5,
       "Y": 0.0
      },
      "handle_type": 0,
      "interpolation": 0
     },
     {
      "co": {
       "X": 29.0,
       "Y": 1.0
      },
      "handle_left": {
       "X": 0.5,
       "Y": 1.0
      },
      "handle_right": {
       "X": 0.5,
       "Y": 0.0
      },
      "handle_type": 0,
      "interpolation": 0
     }
    ]
   },
   "contrast": {
    "Points": [
     {
      "co": {
       "X": 1.0,
       "Y": 3.0
      },
      "handle_left": {
       "X": 0.5,
       "Y": 1.0
      },
      "handle_right": {
       "X": 0.5,
       "Y": 0.0
      },
      "handle_type": 0,
      "interpolation": 0
     },
     {
      "co": {
       "X": 29.0,
       "Y": 3.0
      },
      "handle_left": {
       "X": 0.5,
       "Y": 1.0
      },
      "handle_right": {
       "X": 0.5,
       "Y": 0.0
      },
      "handle_type": 0,
      "interpolation": 0
     }
    ]
   },
   "reader": {
    "acodec": "",
    "audio_bit_rate": 0,
    "audio_stream_index": -1,
    "audio_timebase": {
     "den": 1,
     "num": 1
    },
    "channel_layout": 4,
    "channels": 0,
    "display_ratio": {
     "den": 4,
     "num": 5
    },
    "duration": 3600.0,
    "file_size": "5832000",
    "fps": {
     "den": 1,
     "num": 30
    },
    "has_audio": false,
    "has_single_image": true,
    "has_video": true,
    "height": 576,
    "interlaced_frame": false,
    "metadata": {},
    "path": "@transitions/common/fade.svg",
    "pixel_format": -1,
    "pixel_ratio": {
     "den": 1,
     "num": 1
    },
    "sample_rate": 0,
    "top_field_first": true,
    "type": "QtImageReader",
    "vcodec": "",
    "video_bit_rate": 0,
    "video_length": "108000",
    "video_stream_index": -1,
    "video_timebase": {
     "den": 30,
     "num": 1
    },
    "width": 720
   },
   "replace_image": false,
   "id": "29SVX90QJC"
  },
  {
   "layer": 3000000,
   "title": "Transition",
   "type": "Mask",
   "position": 216.8,
   "start": 0,
   "end": 0.9583333333333212,
   "brightness": {
    "Points": [
     {
      "co": {
       "X": 1.0,
       "Y": 1.0
      },
      "handle_left": {
       "X": 0.5,
       "Y": 1.0
      },
      "handle_right": {
       "X": 0.5,
       "Y": 0.0
      },
      "handle_type": 0,
      "interpolation": 0
     },
     {
      "co": {
       "X": 29.0,
       "Y": -1.0
      },
      "handle_left": {
       "X": 0.5,
       "Y": 1.0
      },
      "handle_right": {
       "X": 0.5,
       "Y": 0.0
      },
      "handle_type": 0,
      "interpolation": 0
     }
    ]
   },
   "contrast": {
    "Points": [
     {
      "co": {
       "X": 1.0,
       "Y": 3.0
      },
      "handle_left": {
       "X": 0.5,
       "Y": 1.0
      },
      "handle_right": {
       "X": 0.5,
       "Y": 0.0
      },
      "handle_type": 0,
      "interpolation": 0
     },
     {
      "co": {
       "X": 29.0,
       "Y": 3.0
      },
      "handle_left": {
       "X": 0.5,
       "Y": 1.0
      },
      "handle_right": {
       "X": 0.5,
       "Y": 0.0
      },
      "handle_type": 0,
      "interpolation": 0
     }
    ]
   },
   "reader": {
    "acodec": "",
    "audio_bit_rate": 0,
    "audio_stream_index": -1,
    "audio_timebase": {
     "den": 1,
     "num": 1
    },
    "channel_layout": 4,
    "channels": 0,
    "display_ratio": {
     "den": 4,
     "num": 5
    },
    "duration": 3600.0,
    "file_size": "5832000",
    "fps": {
     "den": 1,
     "num": 30
    },
    "has_audio": false,
    "has_single_image": true,
    "has_video": true,
    "height": 576,
    "interlaced_frame": false,
    "metadata": {},
    "path": "@transitions/common/fade.svg",
    "pixel_format": -1,
    "pixel_ratio": {
     "den": 1,
     "num": 1
    },
    "sample_rate": 0,
    "top_field_first": true,
    "type": "QtImageReader",
    "vcodec": "",
    "video_bit_rate": 0,
    "video_length": "108000",
    "video_stream_index": -1,
    "video_timebase": {
     "den": 30,
     "num": 1
    },
    "width": 720
   },
   "replace_image": false,
   "id": "QFKNEP6QJR"
  },
  {
   "layer": 3000000,
   "title": "Transition",
   "type": "Mask",
   "position": 223.9,
   "start": 0,
   "end": 0.9583333333333212,
   "brightness": {
    "Points": [
     {
      "co": {
       "X": 1.0,
       "Y": -1.0
      },
      "handle_left": {
       "X": 0.5,
       "Y": 1.0
      },
      "handle_right": {
       "X": 0.5,
       "Y": 0.0
      },
      "handle_type": 0,
      "interpolation": 0
     },
     {
      "co": {
       "X": 29.0,
       "Y": 1.0
      },
      "handle_left": {
       "X": 0.5,
       "Y": 1.0
      },
      "handle_right": {
       "X": 0.5,
       "Y": 0.0
      },
      "handle_type": 0,
      "interpolation": 0
     }
    ]
   },
   "contrast": {
    "Points": [
     {
      "co": {
       "X": 1.0,
       "Y": 3.0
      },
      "handle_left": {
       "X": 0.5,
       "Y": 1.0
      },
      "handle_right": {
       "X": 0.5,
       "Y": 0.0
      },
      "handle_type": 0,
      "interpolation": 0
     },
     {
      "co": {
       "X": 29.0,
       "Y": 3.0
      },
      "handle_left": {
       "X": 0.5,
       "Y": 1.0
      },
      "handle_right": {
       "X": 0.5,
       "Y": 0.0
      },
      "handle_type": 0,
      "interpolation": 0
     }
    ]
   },
   "reader": {
    "acodec": "",
    "audio_bit_rate": 0,
    "audio_stream_index": -1,
    "audio_timebase": {
     "den": 1,
     "num": 1
    },
    "channel_layout": 4,
    "channels": 0,
    "display_ratio": {
     "den": 4,
     "num": 5
    },
    "duration": 3600.0,
    "file_size": "5832000",
    "fps": {
     "den": 1,
     "num": 30
    },
    "has_audio": false,
    "has_single_image": true,
    "has_video": true,
    "height": 576,
    "interlaced_frame": false,
    "metadata": {},
    "path": "@transitions/common/fade.svg",
    "pixel_format": -1,
    "pixel_ratio": {
     "den": 1,
     "num": 1
    },
    "sample_rate": 0,
    "top_field_first": true,
    "type": "QtImageReader",
    "vcodec": "",
    "video_bit_rate": 0,
    "video_length": "108000",
    "video_stream_index": -1,
    "video_timebase": {
     "den": 30,
     "num": 1
    },
    "width": 720
   },
   "replace_image": false,
   "id": "KN6FJL1V3A"
  },
  {
   "id": "4AUCOQ0YNI",
   "layer": 1000000,
   "title": "Transition",
   "type": "Mask",
   "position": 214.36666666666667,
   "start": 0,
   "end": 0.9000000000000057,
   "brightness": {
    "Points": [
     {
      "co": {
       "X": 1.0,
       "Y": 1.0
      },
      "handle_left": {
       "X": 0.5,
       "Y": 1.0
      },
      "handle_right": {
       "X": 0.5,
       "Y": 0.0
      },
      "handle_type": 0,
      "interpolation": 0
     },
     {
      "co": {
       "X": 28.0,
       "Y": -1.0
      },
      "handle_left": {
       "X": 0.5,
       "Y": 1.0
      },
      "handle_right": {
       "X": 0.5,
       "Y": 0.0
      },
      "handle_type": 0,
      "interpolation": 0
     }
    ]
   },
   "contrast": {
    "Points": [
     {
      "co": {
       "X": 1.0,
       "Y": 3.0
      },
      "handle_left": {
       "X": 0.5,
       "Y": 1.0
      },
      "handle_right": {
       "X": 0.5,
       "Y": 0.0
      },
      "handle_type": 0,
      "interpolation": 0
     }
    ]
   },
   "reader": {
    "acodec": "",
    "audio_bit_rate": 0,
    "audio_stream_index": -1,
    "audio_timebase": {
     "den": 1,
     "num": 1
    },
    "channel_layout": 4,
    "channels": 0,
    "display_ratio": {
     "den": 4,
     "num": 5
    },
    "duration": 3600.0,
    "file_size": "5832000",
    "fps": {
     "den": 1,
     "num": 30
    },
    "has_audio": false,
    "has_single_image": true,
    "has_video": true,
    "height": 576,
    "interlaced_frame": false,
    "metadata": {},
    "path": "@transitions/common/fade.svg",
    "pixel_format": -1,
    "pixel_ratio": {
     "den": 1,
     "num": 1
    },
    "sample_rate": 0,
    "top_field_first": true,
    "type": "QtImageReader",
    "vcodec": "",
    "video_bit_rate": 0,
    "video_length": "108000",
    "video_stream_index": -1,
    "video_timebase": {
     "den": 30,
     "num": 1
    },
    "width": 720
   },
   "replace_image": false
  },
  {
   "id": "F0RIV30JL4",
   "layer": 1000000,
   "title": "Transition",
   "type": "Mask",
   "position": 225.93333333333334,
   "start": 0,
   "end": 1.8666666666666458,
   "brightness": {
    "Points": [
     {
      "co": {
       "X": 1.0,
       "Y": 1.0
      },
      "handle_left": {
       "X": 0.5,
       "Y": 1.0
      },
      "handle_right": {
       "X": 0.5,
       "Y": 0.0
      },
      "handle_type": 0,
      "interpolation": 0
     },
     {
      "co": {
       "X": 57.0,
       "Y": -1.0
      },
      "handle_left": {
       "X": 0.5,
       "Y": 1.0
      },
      "handle_right": {
       "X": 0.5,
       "Y": 0.0
      },
      "handle_type": 0,
      "interpolation": 0
     }
    ]
   },
   "contrast": {
    "Points": [
     {
      "co": {
       "X": 1.0,
       "Y": 3.0
      },
      "handle_left": {
       "X": 0.5,
       "Y": 1.0
      },
      "handle_right": {
       "X": 0.5,
       "Y": 0.0
      },
      "handle_type": 0,
      "interpolation": 0
     }
    ]
   },
   "reader": {
    "acodec": "",
    "audio_bit_rate": 0,
    "audio_stream_index": -1,
    "audio_timebase": {
     "den": 1,
     "num": 1
    },
    "channel_layout": 4,
    "channels": 0,
    "display_ratio": {
     "den": 4,
     "num": 5
    },
    "duration": 3600.0,
    "file_size": "5832000",
    "fps": {
     "den": 1,
     "num": 30
    },
    "has_audio": false,
    "has_single_image": true,
    "has_video": true,
    "height": 576,
    "interlaced_frame": false,
    "metadata": {},
    "path": "@transitions/common/fade.svg",
    "pixel_format": -1,
    "pixel_ratio": {
     "den": 1,
     "num": 1
    },
    "sample_rate": 0,
    "top_field_first": true,
    "type": "QtImageReader",
    "vcodec": "",
    "video_bit_rate": 0,
    "video_length": "108000",
    "video_stream_index": -1,
    "video_timebase": {
     "den": 30,
     "num": 1
    },
    "width": 720
   },
   "replace_image": false
  },
  {
   "layer": 3000000,
   "title": "Transition",
   "type": "Mask",
   "position": 197.1,
   "start": 0,
   "end": 0.9583333333333212,
   "brightness": {
    "Points": [
     {
      "co": {
       "X": 1.0,
       "Y": -1.0
      },
      "handle_left": {
       "X": 0.5,
       "Y": 1.0
      },
      "handle_right": {
       "X": 0.5,
       "Y": 0.0
      },
      "handle_type": 0,
      "interpolation": 0
     },
     {
      "co": {
       "X": 29.0,
       "Y": 1.0
      },
      "handle_left": {
       "X": 0.5,
       "Y": 1.0
      },
      "handle_right": {
       "X": 0.5,
       "Y": 0.0
      },
      "handle_type": 0,
      "interpolation": 0
     }
    ]
   },
   "contrast": {
    "Points": [
     {
      "co": {
       "X": 1.0,
       "Y": 3.0
      },
      "handle_left": {
       "X": 0.5,
       "Y": 1.0
      },
      "handle_right": {
       "X": 0.5,
       "Y": 0.0
      },
      "handle_type": 0,
      "interpolation": 0
     },
     {
      "co": {
       "X": 29.0,
       "Y": 3.0
      },
      "handle_left": {
       "X": 0.5,
       "Y": 1.0
      },
      "handle_right": {
       "X": 0.5,
       "Y": 0.0
      },
      "handle_type": 0,
      "interpolation": 0
     }
    ]
   },
   "reader": {
    "acodec": "",
    "audio_bit_rate": 0,
    "audio_stream_index": -1,
    "audio_timebase": {
     "den": 1,
     "num": 1
    },
    "channel_layout": 4,
    "channels": 0,
    "display_ratio": {
     "den": 4,
     "num": 5
    },
    "duration": 3600.0,
    "file_size": "5832000",
    "fps": {
     "den": 1,
     "num": 30
    },
    "has_audio": false,
    "has_single_image": true,
    "has_video": true,
    "height": 576,
    "interlaced_frame": false,
    "metadata": {},
    "path": "@transitions/common/fade.svg",
    "pixel_format": -1,
    "pixel_ratio": {
     "den": 1,
     "num": 1
    },
    "sample_rate": 0,
    "top_field_first": true,
    "type": "QtImageReader",
    "vcodec": "",
    "video_bit_rate": 0,
    "video_length": "108000",
    "video_stream_index": -1,
    "video_timebase": {
     "den": 30,
     "num": 1
    },
    "width": 720
   },
   "replace_image": false,
   "id": "WEB2RAE0H3"
  },
  {
   "layer": 2000000,
   "title": "Transition",
   "type": "Mask",
   "position": 228.73333333333332,
   "start": 0,
   "end": 0.9583333333333212,
   "brightness": {
    "Points": [
     {
      "co": {
       "X": 1.0,
       "Y": 1.0
      },
      "handle_left": {
       "X": 0.5,
       "Y": 1.0
      },
      "handle_right": {
       "X": 0.5,
       "Y": 0.0
      },
      "handle_type": 0,
      "interpolation": 0
     },
     {
      "co": {
       "X": 29.0,
       "Y": -1.0
      },
      "handle_left": {
       "X": 0.5,
       "Y": 1.0
      },
      "handle_right": {
       "X": 0.5,
       "Y": 0.0
      },
      "handle_type": 0,
      "interpolation": 0
     }
    ]
   },
   "contrast": {
    "Points": [
     {
      "co": {
       "X": 1.0,
       "Y": 3.0
      },
      "handle_left": {
       "X": 0.5,
       "Y": 1.0
      },
      "handle_right": {
       "X": 0.5,
       "Y": 0.0
      },
      "handle_type": 0,
      "interpolation": 0
     },
     {
      "co": {
       "X": 29.0,
       "Y": 3.0
      },
      "handle_left": {
       "X": 0.5,
       "Y": 1.0
      },
      "handle_right": {
       "X": 0.5,
       "Y": 0.0
      },
      "handle_type": 0,
      "interpolation": 0
     }
    ]
   },
   "reader": {
    "acodec": "",
    "audio_bit_rate": 0,
    "audio_stream_index": -1,
    "audio_timebase": {
     "den": 1,
     "num": 1
    },
    "channel_layout": 4,
    "channels": 0,
    "display_ratio": {
     "den": 4,
     "num": 5
    },
    "duration": 3600.0,
    "file_size": "5832000",
    "fps": {
     "den": 1,
     "num": 30
    },
    "has_audio": false,
    "has_single_image": true,
    "has_video": true,
    "height": 576,
    "interlaced_frame": false,
    "metadata": {},
    "path": "@transitions/common/fade.svg",
    "pixel_format": -1,
    "pixel_ratio": {
     "den": 1,
     "num": 1
    },
    "sample_rate": 0,
    "top_field_first": true,
    "type": "QtImageReader",
    "vcodec": "",
    "video_bit_rate": 0,
    "video_length": "108000",
    "video_stream_index": -1,
    "video_timebase": {
     "den": 30,
     "num": 1
    },
    "width": 720
   },
   "replace_image": false,
   "id": "AYWJNQ9Z2M"
  },
  {
   "layer": 2000000,
   "title": "Transition",
   "type": "Mask",
   "position": 241.23333333333332,
   "start": 0,
   "end": 0.9583333333333212,
   "brightness": {
    "Points": [
     {
      "co": {
       "X": 1.0,
       "Y": 1.0
      },
      "handle_left": {
       "X": 0.5,
       "Y": 1.0
      },
      "handle_right": {
       "X": 0.5,
       "Y": 0.0
      },
      "handle_type": 0,
      "interpolation": 0
     },
     {
      "co": {
       "X": 29.0,
       "Y": -1.0
      },
      "handle_left": {
       "X": 0.5,
       "Y": 1.0
      },
      "handle_right": {
       "X": 0.5,
       "Y": 0.0
      },
      "handle_type": 0,
      "interpolation": 0
     }
    ]
   },
   "contrast": {
    "Points": [
     {
      "co": {
       "X": 1.0,
       "Y": 3.0
      },
      "handle_left": {
       "X": 0.5,
       "Y": 1.0
      },
      "handle_right": {
       "X": 0.5,
       "Y": 0.0
      },
      "handle_type": 0,
      "interpolation": 0
     },
     {
      "co": {
       "X": 29.0,
       "Y": 3.0
      },
      "handle_left": {
       "X": 0.5,
       "Y": 1.0
      },
      "handle_right": {
       "X": 0.5,
       "Y": 0.0
      },
      "handle_type": 0,
      "interpolation": 0
     }
    ]
   },
   "reader": {
    "acodec": "",
    "audio_bit_rate": 0,
    "audio_stream_index": -1,
    "audio_timebase": {
     "den": 1,
     "num": 1
    },
    "channel_layout": 4,
    "channels": 0,
    "display_ratio": {
     "den": 4,
     "num": 5
    },
    "duration": 3600.0,
    "file_size": "5832000",
    "fps": {
     "den": 1,
     "num": 30
    },
    "has_audio": false,
    "has_single_image": true,
    "has_video": true,
    "height": 576,
    "interlaced_frame": false,
    "metadata": {},
    "path": "@transitions/common/fade.svg",
    "pixel_format": -1,
    "pixel_ratio": {
     "den": 1,
     "num": 1
    },
    "sample_rate": 0,
    "top_field_first": true,
    "type": "QtImageReader",
    "vcodec": "",
    "video_bit_rate": 0,
    "video_length": "108000",
    "video_stream_index": -1,
    "video_timebase": {
     "den": 30,
     "num": 1
    },
    "width": 720
   },
   "replace_image": false,
   "id": "RZBAESHWWX"
  },
  {
   "layer": 2000000,
   "title": "Transition",
   "type": "Mask",
   "position": 245.76666666666668,
   "start": 0,
   "end": 0.9583333333333212,
   "brightness": {
    "Points": [
     {
      "co": {
       "X": 1.0,
       "Y": -1.0
      },
      "handle_left": {
       "X": 0.5,
       "Y": 1.0
      },
      "handle_right": {
       "X": 0.5,
       "Y": 0.0
      },
      "handle_type": 0,
      "interpolation": 0
     },
     {
      "co": {
       "X": 29.0,
       "Y": 1.0
      },
      "handle_left": {
       "X": 0.5,
       "Y": 1.0
      },
      "handle_right": {
       "X": 0.5,
       "Y": 0.0
      },
      "handle_type": 0,
      "interpolation": 0
     }
    ]
   },
   "contrast": {
    "Points": [
     {
      "co": {
       "X": 1.0,
       "Y": 3.0
      },
      "handle_left": {
       "X": 0.5,
       "Y": 1.0
      },
      "handle_right": {
       "X": 0.5,
       "Y": 0.0
      },
      "handle_type": 0,
      "interpolation": 0
     },
     {
      "co": {
       "X": 29.0,
       "Y": 3.0
      },
      "handle_left": {
       "X": 0.5,
       "Y": 1.0
      },
      "handle_right": {
       "X": 0.5,
       "Y": 0.0
      },
      "handle_type": 0,
      "interpolation": 0
     }
    ]
   },
   "reader": {
    "acodec": "",
    "audio_bit_rate": 0,
    "audio_stream_index": -1,
    "audio_timebase": {
     "den": 1,
     "num": 1
    },
    "channel_layout": 4,
    "channels": 0,
    "display_ratio": {
     "den": 4,
     "num": 5
    },
    "duration": 3600.0,
    "file_size": "5832000",
    "fps": {
     "den": 1,
     "num": 30
    },
    "has_audio": false,
    "has_single_image": true,
    "has_video": true,
    "height": 576,
    "interlaced_frame": false,
    "metadata": {},
    "path": "@transitions/common/fade.svg",
    "pixel_format": -1,
    "pixel_ratio": {
     "den": 1,
     "num": 1
    },
    "sample_rate": 0,
    "top_field_first": true,
    "type": "QtImageReader",
    "vcodec": "",
    "video_bit_rate": 0,
    "video_length": "108000",
    "video_stream_index": -1,
    "video_timebase": {
     "den": 30,
     "num": 1
    },
    "width": 720
   },
   "replace_image": false,
   "id": "2HTULU3R5M"
  },
  {
   "layer": 3000000,
   "title": "Transition",
   "type": "Mask",
   "position": 227.1,
   "start": 0,
   "end": 0.9583333333333212,
   "brightness": {
    "Points": [
     {
      "co": {
       "X": 1.0,
       "Y": 1.0
      },
      "handle_left": {
       "X": 0.5,
       "Y": 1.0
      },
      "handle_right": {
       "X": 0.5,
       "Y": 0.0
      },
      "handle_type": 0,
      "interpolation": 0
     },
     {
      "co": {
       "X": 29.0,
       "Y": -1.0
      },
      "handle_left": {
       "X": 0.5,
       "Y": 1.0
      },
      "handle_right": {
       "X": 0.5,
       "Y": 0.0
      },
      "handle_type": 0,
      "interpolation": 0
     }
    ]
   },
   "contrast": {
    "Points": [
     {
      "co": {
       "X": 1.0,
       "Y": 3.0
      },
      "handle_left": {
       "X": 0.5,
       "Y": 1.0
      },
      "handle_right": {
       "X": 0.5,
       "Y": 0.0
      },
      "handle_type": 0,
      "interpolation": 0
     },
     {
      "co": {
       "X": 29.0,
       "Y": 3.0
      },
      "handle_left": {
       "X": 0.5,
       "Y": 1.0
      },
      "handle_right": {
       "X": 0.5,
       "Y": 0.0
      },
      "handle_type": 0,
      "interpolation": 0
     }
    ]
   },
   "reader": {
    "acodec": "",
    "audio_bit_rate": 0,
    "audio_stream_index": -1,
    "audio_timebase": {
     "den": 1,
     "num": 1
    },
    "channel_layout": 4,
    "channels": 0,
    "display_ratio": {
     "den": 4,
     "num": 5
    },
    "duration": 3600.0,
    "file_size": "5832000",
    "fps": {
     "den": 1,
     "num": 30
    },
    "has_audio": false,
    "has_single_image": true,
    "has_video": true,
    "height": 576,
    "interlaced_frame": false,
    "metadata": {},
    "path": "@transitions/common/fade.svg",
    "pixel_format": -1,
    "pixel_ratio": {
     "den": 1,
     "num": 1
    },
    "sample_rate": 0,
    "top_field_first": true,
    "type": "QtImageReader",
    "vcodec": "",
    "video_bit_rate": 0,
    "video_length": "108000",
    "video_stream_index": -1,
    "video_timebase": {
     "den": 30,
     "num": 1
    },
    "width": 720
   },
   "replace_image": false,
   "id": "F3SI4HCMCD"
  },
  {
   "layer": 2000000,
   "title": "Transition",
   "type": "Mask",
   "position": 236.23333333333332,
   "start": 0,
   "end": 0.9583333333333212,
   "brightness": {
    "Points": [
     {
      "co": {
       "X": 1.0,
       "Y": -1.0
      },
      "handle_left": {
       "X": 0.5,
       "Y": 1.0
      },
      "handle_right": {
       "X": 0.5,
       "Y": 0.0
      },
      "handle_type": 0,
      "interpolation": 0
     },
     {
      "co": {
       "X": 29.0,
       "Y": 1.0
      },
      "handle_left": {
       "X": 0.5,
       "Y": 1.0
      },
      "handle_right": {
       "X": 0.5,
       "Y": 0.0
      },
      "handle_type": 0,
      "interpolation": 0
     }
    ]
   },
   "contrast": {
    "Points": [
     {
      "co": {
       "X": 1.0,
       "Y": 3.0
      },
      "handle_left": {
       "X": 0.5,
       "Y": 1.0
      },
      "handle_right": {
       "X": 0.5,
       "Y": 0.0
      },
      "handle_type": 0,
      "interpolation": 0
     },
     {
      "co": {
       "X": 29.0,
       "Y": 3.0
      },
      "handle_left": {
       "X": 0.5,
       "Y": 1.0
      },
      "handle_right": {
       "X": 0.5,
       "Y": 0.0
      },
      "handle_type": 0,
      "interpolation": 0
     }
    ]
   },
   "reader": {
    "acodec": "",
    "audio_bit_rate": 0,
    "audio_stream_index": -1,
    "audio_timebase": {
     "den": 1,
     "num": 1
    },
    "channel_layout": 4,
    "channels": 0,
    "display_ratio": {
     "den": 4,
     "num": 5
    },
    "duration": 3600.0,
    "file_size": "5832000",
    "fps": {
     "den": 1,
     "num": 30
    },
    "has_audio": false,
    "has_single_image": true,
    "has_video": true,
    "height": 576,
    "interlaced_frame": false,
    "metadata": {},
    "path": "@transitions/common/fade.svg",
    "pixel_format": -1,
    "pixel_ratio": {
     "den": 1,
     "num": 1
    },
    "sample_rate": 0,
    "top_field_first": true,
    "type": "QtImageReader",
    "vcodec": "",
    "video_bit_rate": 0,
    "video_length": "108000",
    "video_stream_index": -1,
    "video_timebase": {
     "den": 30,
     "num": 1
    },
    "width": 720
   },
   "replace_image": false,
   "id": "5PQMVVOG5H"
  },
  {
   "id": "Z4SN9YM3FC",
   "layer": 1000000,
   "title": "Transition",
   "type": "Mask",
   "position": 248.8,
   "start": 0,
   "end": 1.1999999999999886,
   "brightness": {
    "Points": [
     {
      "co": {
       "X": 1.0,
       "Y": 1.0
      },
      "handle_left": {
       "X": 0.5,
       "Y": 1.0
      },
      "handle_right": {
       "X": 0.5,
       "Y": 0.0
      },
      "handle_type": 0,
      "interpolation": 0
     },
     {
      "co": {
       "X": 37.0,
       "Y": -1.0
      },
      "handle_left": {
       "X": 0.5,
       "Y": 1.0
      },
      "handle_right": {
       "X": 0.5,
       "Y": 0.0
      },
      "handle_type": 0,
      "interpolation": 0
     }
    ]
   },
   "contrast": {
    "Points": [
     {
      "co": {
       "X": 1.0,
       "Y": 3.0
      },
      "handle_left": {
       "X": 0.5,
       "Y": 1.0
      },
      "handle_right": {
       "X": 0.5,
       "Y": 0.0
      },
      "handle_type": 0,
      "interpolation": 0
     }
    ]
   },
   "reader": {
    "acodec": "",
    "audio_bit_rate": 0,
    "audio_stream_index": -1,
    "audio_timebase": {
     "den": 1,
     "num": 1
    },
    "channel_layout": 4,
    "channels": 0,
    "display_ratio": {
     "den": 4,
     "num": 5
    },
    "duration": 3600.0,
    "file_size": "5832000",
    "fps": {
     "den": 1,
     "num": 30
    },
    "has_audio": false,
    "has_single_image": true,
    "has_video": true,
    "height": 576,
    "interlaced_frame": false,
    "metadata": {},
    "path": "@transitions/common/fade.svg",
    "pixel_format": -1,
    "pixel_ratio": {
     "den": 1,
     "num": 1
    },
    "sample_rate": 0,
    "top_field_first": true,
    "type": "QtImageReader",
    "vcodec": "",
    "video_bit_rate": 0,
    "video_length": "108000",
    "video_stream_index": -1,
    "video_timebase": {
     "den": 30,
     "num": 1
    },
    "width": 720
   },
   "replace_image": false
  },
  {
   "layer": 3000000,
   "title": "Transition",
   "type": "Mask",
   "position": 248.8,
   "start": 0,
   "end": 0.9583333333333212,
   "brightness": {
    "Points": [
     {
      "co": {
       "X": 1.0,
       "Y": 1.0
      },
      "handle_left": {
       "X": 0.5,
       "Y": 1.0
      },
      "handle_right": {
       "X": 0.5,
       "Y": 0.0
      },
      "handle_type": 0,
      "interpolation": 0
     },
     {
      "co": {
       "X": 29.0,
       "Y": -1.0
      },
      "handle_left": {
       "X": 0.5,
       "Y": 1.0
      },
      "handle_right": {
       "X": 0.5,
       "Y": 0.0
      },
      "handle_type": 0,
      "interpolation": 0
     }
    ]
   },
   "contrast": {
    "Points": [
     {
      "co": {
       "X": 1.0,
       "Y": 3.0
      },
      "handle_left": {
       "X": 0.5,
       "Y": 1.0
      },
      "handle_right": {
       "X": 0.5,
       "Y": 0.0
      },
      "handle_type": 0,
      "interpolation": 0
     },
     {
      "co": {
       "X": 29.0,
       "Y": 3.0
      },
      "handle_left": {
       "X": 0.5,
       "Y": 1.0
      },
      "handle_right": {
       "X": 0.5,
       "Y": 0.0
      },
      "handle_type": 0,
      "interpolation": 0
     }
    ]
   },
   "reader": {
    "acodec": "",
    "audio_bit_rate": 0,
    "audio_stream_index": -1,
    "audio_timebase": {
     "den": 1,
     "num": 1
    },
    "channel_layout": 4,
    "channels": 0,
    "display_ratio": {
     "den": 4,
     "num": 5
    },
    "duration": 3600.0,
    "file_size": "5832000",
    "fps": {
     "den": 1,
     "num": 30
    },
    "has_audio": false,
    "has_single_image": true,
    "has_video": true,
    "height": 576,
    "interlaced_frame": false,
    "metadata": {},
    "path": "@transitions/common/fade.svg",
    "pixel_format": -1,
    "pixel_ratio": {
     "den": 1,
     "num": 1
    },
    "sample_rate": 0,
    "top_field_first": true,
    "type": "QtImageReader",
    "vcodec": "",
    "video_bit_rate": 0,
    "video_length": "108000",
    "video_stream_index": -1,
    "video_timebase": {
     "den": 30,
     "num": 1
    },
    "width": 720
   },
   "replace_image": false,
   "id": "TQC41VZ6RB"
  },
  {
   "layer": 3000000,
   "title": "Transition",
   "type": "Mask",
   "position": 245.76666666666668,
   "start": 0,
   "end": 0.9583333333333212,
   "brightness": {
    "Points": [
     {
      "co": {
       "X": 1.0,
       "Y": -1.0
      },
      "handle_left": {
       "X": 0.5,
       "Y": 1.0
      },
      "handle_right": {
       "X": 0.5,
       "Y": 0.0
      },
      "handle_type": 0,
      "interpolation": 0
     },
     {
      "co": {
       "X": 29.0,
       "Y": 1.0
      },
      "handle_left": {
       "X": 0.5,
       "Y": 1.0
      },
      "handle_right": {
       "X": 0.5,
       "Y": 0.0
      },
      "handle_type": 0,
      "interpolation": 0
     }
    ]
   },
   "contrast": {
    "Points": [
     {
      "co": {
       "X": 1.0,
       "Y": 3.0
      },
      "handle_left": {
       "X": 0.5,
       "Y": 1.0
      },
      "handle_right": {
       "X": 0.5,
       "Y": 0.0
      },
      "handle_type": 0,
      "interpolation": 0
     },
     {
      "co": {
       "X": 29.0,
       "Y": 3.0
      },
      "handle_left": {
       "X": 0.5,
       "Y": 1.0
      },
      "handle_right": {
       "X": 0.5,
       "Y": 0.0
      },
      "handle_type": 0,
      "interpolation": 0
     }
    ]
   },
   "reader": {
    "acodec": "",
    "audio_bit_rate": 0,
    "audio_stream_index": -1,
    "audio_timebase": {
     "den": 1,
     "num": 1
    },
    "channel_layout": 4,
    "channels": 0,
    "display_ratio": {
     "den": 4,
     "num": 5
    },
    "duration": 3600.0,
    "file_size": "5832000",
    "fps": {
     "den": 1,
     "num": 30
    },
    "has_audio": false,
    "has_single_image": true,
    "has_video": true,
    "height": 576,
    "interlaced_frame": false,
    "metadata": {},
    "path": "@transitions/common/fade.svg",
    "pixel_format": -1,
    "pixel_ratio": {
     "den": 1,
     "num": 1
    },
    "sample_rate": 0,
    "top_field_first": true,
    "type": "QtImageReader",
    "vcodec": "",
    "video_bit_rate": 0,
    "video_length": "108000",
    "video_stream_index": -1,
    "video_timebase": {
     "den": 30,
     "num": 1
    },
    "width": 720
   },
   "replace_image": false,
   "id": "X3YMVVAX5I"
  },
  {
   "layer": 2000000,
   "title": "Transition",
   "type": "Mask",
   "position": 250.66666666666666,
   "start": 0,
   "end": 0.9583333333333212,
   "brightness": {
    "Points": [
     {
      "co": {
       "X": 1.0,
       "Y": 1.0
      },
      "handle_left": {
       "X": 0.5,
       "Y": 1.0
      },
      "handle_right": {
       "X": 0.5,
       "Y": 0.0
      },
      "handle_type": 0,
      "interpolation": 0
     },
     {
      "co": {
       "X": 29.0,
       "Y": -1.0
      },
      "handle_left": {
       "X": 0.5,
       "Y": 1.0
      },
      "handle_right": {
       "X": 0.5,
       "Y": 0.0
      },
      "handle_type": 0,
      "interpolation": 0
     }
    ]
   },
   "contrast": {
    "Points": [
     {
      "co": {
       "X": 1.0,
       "Y": 3.0
      },
      "handle_left": {
       "X": 0.5,
       "Y": 1.0
      },
      "handle_right": {
       "X": 0.5,
       "Y": 0.0
      },
      "handle_type": 0,
      "interpolation": 0
     },
     {
      "co": {
       "X": 29.0,
       "Y": 3.0
      },
      "handle_left": {
       "X": 0.5,
       "Y": 1.0
      },
      "handle_right": {
       "X": 0.5,
       "Y": 0.0
      },
      "handle_type": 0,
      "interpolation": 0
     }
    ]
   },
   "reader": {
    "acodec": "",
    "audio_bit_rate": 0,
    "audio_stream_index": -1,
    "audio_timebase": {
     "den": 1,
     "num": 1
    },
    "channel_layout": 4,
    "channels": 0,
    "display_ratio": {
     "den": 4,
     "num": 5
    },
    "duration": 3600.0,
    "file_size": "5832000",
    "fps": {
     "den": 1,
     "num": 30
    },
    "has_audio": false,
    "has_single_image": true,
    "has_video": true,
    "height": 576,
    "interlaced_frame": false,
    "metadata": {},
    "path": "@transitions/common/fade.svg",
    "pixel_format": -1,
    "pixel_ratio": {
     "den": 1,
     "num": 1
    },
    "sample_rate": 0,
    "top_field_first": true,
    "type": "QtImageReader",
    "vcodec": "",
    "video_bit_rate": 0,
    "video_length": "108000",
    "video_stream_index": -1,
    "video_timebase": {
     "den": 30,
     "num": 1
    },
    "width": 720
   },
   "replace_image": false,
   "id": "NZV4OM49PR"
  },
  {
   "layer": 2000000,
   "title": "Transition",
   "type": "Mask",
   "position": 256.4,
   "start": 0,
   "end": 0.9583333333333212,
   "brightness": {
    "Points": [
     {
      "co": {
       "X": 1.0,
       "Y": -1.0
      },
      "handle_left": {
       "X": 0.5,
       "Y": 1.0
      },
      "handle_right": {
       "X": 0.5,
       "Y": 0.0
      },
      "handle_type": 0,
      "interpolation": 0
     },
     {
      "co": {
       "X": 29.0,
       "Y": 1.0
      },
      "handle_left": {
       "X": 0.5,
       "Y": 1.0
      },
      "handle_right": {
       "X": 0.5,
       "Y": 0.0
      },
      "handle_type": 0,
      "interpolation": 0
     }
    ]
   },
   "contrast": {
    "Points": [
     {
      "co": {
       "X": 1.0,
       "Y": 3.0
      },
      "handle_left": {
       "X": 0.5,
       "Y": 1.0
      },
      "handle_right": {
       "X": 0.5,
       "Y": 0.0
      },
      "handle_type": 0,
      "interpolation": 0
     },
     {
      "co": {
       "X": 29.0,
       "Y": 3.0
      },
      "handle_left": {
       "X": 0.5,
       "Y": 1.0
      },
      "handle_right": {
       "X": 0.5,
       "Y": 0.0
      },
      "handle_type": 0,
      "interpolation": 0
     }
    ]
   },
   "reader": {
    "acodec": "",
    "audio_bit_rate": 0,
    "audio_stream_index": -1,
    "audio_timebase": {
     "den": 1,
     "num": 1
    },
    "channel_layout": 4,
    "channels": 0,
    "display_ratio": {
     "den": 4,
     "num": 5
    },
    "duration": 3600.0,
    "file_size": "5832000",
    "fps": {
     "den": 1,
     "num": 30
    },
    "has_audio": false,
    "has_single_image": true,
    "has_video": true,
    "height": 576,
    "interlaced_frame": false,
    "metadata": {},
    "path": "@transitions/common/fade.svg",
    "pixel_format": -1,
    "pixel_ratio": {
     "den": 1,
     "num": 1
    },
    "sample_rate": 0,
    "top_field_first": true,
    "type": "QtImageReader",
    "vcodec": "",
    "video_bit_rate": 0,
    "video_length": "108000",
    "video_stream_index": -1,
    "video_timebase": {
     "den": 30,
     "num": 1
    },
    "width": 720
   },
   "replace_image": false,
   "id": "GHC8VAFC2M"
  },
  {
   "layer": 2000000,
   "title": "Transition",
   "type": "Mask",
   "position": 260.8333333333333,
   "start": 0,
   "end": 0.9583333333333212,
   "brightness": {
    "Points": [
     {
      "co": {
       "X": 1.0,
       "Y": 1.0
      },
      "handle_left": {
       "X": 0.5,
       "Y": 1.0
      },
      "handle_right": {
       "X": 0.5,
       "Y": 0.0
      },
      "handle_type": 0,
      "interpolation": 0
     },
     {
      "co": {
       "X": 29.0,
       "Y": -1.0
      },
      "handle_left": {
       "X": 0.5,
       "Y": 1.0
      },
      "handle_right": {
       "X": 0.5,
       "Y": 0.0
      },
      "handle_type": 0,
      "interpolation": 0
     }
    ]
   },
   "contrast": {
    "Points": [
     {
      "co": {
       "X": 1.0,
       "Y": 3.0
      },
      "handle_left": {
       "X": 0.5,
       "Y": 1.0
      },
      "handle_right": {
       "X": 0.5,
       "Y": 0.0
      },
      "handle_type": 0,
      "interpolation": 0
     },
     {
      "co": {
       "X": 29.0,
       "Y": 3.0
      },
      "handle_left": {
       "X": 0.5,
       "Y": 1.0
      },
      "handle_right": {
       "X": 0.5,
       "Y": 0.0
      },
      "handle_type": 0,
      "interpolation": 0
     }
    ]
   },
   "reader": {
    "acodec": "",
    "audio_bit_rate": 0,
    "audio_stream_index": -1,
    "audio_timebase": {
     "den": 1,
     "num": 1
    },
    "channel_layout": 4,
    "channels": 0,
    "display_ratio": {
     "den": 4,
     "num": 5
    },
    "duration": 3600.0,
    "file_size": "5832000",
    "fps": {
     "den": 1,
     "num": 30
    },
    "has_audio": false,
    "has_single_image": true,
    "has_video": true,
    "height": 576,
    "interlaced_frame": false,
    "metadata": {},
    "path": "@transitions/common/fade.svg",
    "pixel_format": -1,
    "pixel_ratio": {
     "den": 1,
     "num": 1
    },
    "sample_rate": 0,
    "top_field_first": true,
    "type": "QtImageReader",
    "vcodec": "",
    "video_bit_rate": 0,
    "video_length": "108000",
    "video_stream_index": -1,
    "video_timebase": {
     "den": 30,
     "num": 1
    },
    "width": 720
   },
   "replace_image": false,
   "id": "LEJIDFPPTU"
  },
  {
   "layer": 2000000,
   "title": "Transition",
   "type": "Mask",
   "position": 266.93333333333334,
   "start": 0,
   "end": 0.9583333333333212,
   "brightness": {
    "Points": [
     {
      "co": {
       "X": 1.0,
       "Y": -1.0
      },
      "handle_left": {
       "X": 0.5,
       "Y": 1.0
      },
      "handle_right": {
       "X": 0.5,
       "Y": 0.0
      },
      "handle_type": 0,
      "interpolation": 0
     },
     {
      "co": {
       "X": 29.0,
       "Y": 1.0
      },
      "handle_left": {
       "X": 0.5,
       "Y": 1.0
      },
      "handle_right": {
       "X": 0.5,
       "Y": 0.0
      },
      "handle_type": 0,
      "interpolation": 0
     }
    ]
   },
   "contrast": {
    "Points": [
     {
      "co": {
       "X": 1.0,
       "Y": 3.0
      },
      "handle_left": {
       "X": 0.5,
       "Y": 1.0
      },
      "handle_right": {
       "X": 0.5,
       "Y": 0.0
      },
      "handle_type": 0,
      "interpolation": 0
     },
     {
      "co": {
       "X": 29.0,
       "Y": 3.0
      },
      "handle_left": {
       "X": 0.5,
       "Y": 1.0
      },
      "handle_right": {
       "X": 0.5,
       "Y": 0.0
      },
      "handle_type": 0,
      "interpolation": 0
     }
    ]
   },
   "reader": {
    "acodec": "",
    "audio_bit_rate": 0,
    "audio_stream_index": -1,
    "audio_timebase": {
     "den": 1,
     "num": 1
    },
    "channel_layout": 4,
    "channels": 0,
    "display_ratio": {
     "den": 4,
     "num": 5
    },
    "duration": 3600.0,
    "file_size": "5832000",
    "fps": {
     "den": 1,
     "num": 30
    },
    "has_audio": false,
    "has_single_image": true,
    "has_video": true,
    "height": 576,
    "interlaced_frame": false,
    "metadata": {},
    "path": "@transitions/common/fade.svg",
    "pixel_format": -1,
    "pixel_ratio": {
     "den": 1,
     "num": 1
    },
    "sample_rate": 0,
    "top_field_first": true,
    "type": "QtImageReader",
    "vcodec": "",
    "video_bit_rate": 0,
    "video_length": "108000",
    "video_stream_index": -1,
    "video_timebase": {
     "den": 30,
     "num": 1
    },
    "width": 720
   },
   "replace_image": false,
   "id": "KK5BUO5VAF"
  },
  {
   "layer": 2000000,
   "title": "Transition",
   "type": "Mask",
   "position": 269.03333333333336,
   "start": 0,
   "end": 0.9583333333333212,
   "brightness": {
    "Points": [
     {
      "co": {
       "X": 1.0,
       "Y": 1.0
      },
      "handle_left": {
       "X": 0.5,
       "Y": 1.0
      },
      "handle_right": {
       "X": 0.5,
       "Y": 0.0
      },
      "handle_type": 0,
      "interpolation": 0
     },
     {
      "co": {
       "X": 29.0,
       "Y": -1.0
      },
      "handle_left": {
       "X": 0.5,
       "Y": 1.0
      },
      "handle_right": {
       "X": 0.5,
       "Y": 0.0
      },
      "handle_type": 0,
      "interpolation": 0
     }
    ]
   },
   "contrast": {
    "Points": [
     {
      "co": {
       "X": 1.0,
       "Y": 3.0
      },
      "handle_left": {
       "X": 0.5,
       "Y": 1.0
      },
      "handle_right": {
       "X": 0.5,
       "Y": 0.0
      },
      "handle_type": 0,
      "interpolation": 0
     },
     {
      "co": {
       "X": 29.0,
       "Y": 3.0
      },
      "handle_left": {
       "X": 0.5,
       "Y": 1.0
      },
      "handle_right": {
       "X": 0.5,
       "Y": 0.0
      },
      "handle_type": 0,
      "interpolation": 0
     }
    ]
   },
   "reader": {
    "acodec": "",
    "audio_bit_rate": 0,
    "audio_stream_index": -1,
    "audio_timebase": {
     "den": 1,
     "num": 1
    },
    "channel_layout": 4,
    "channels": 0,
    "display_ratio": {
     "den": 4,
     "num": 5
    },
    "duration": 3600.0,
    "file_size": "5832000",
    "fps": {
     "den": 1,
     "num": 30
    },
    "has_audio": false,
    "has_single_image": true,
    "has_video": true,
    "height": 576,
    "interlaced_frame": false,
    "metadata": {},
    "path": "@transitions/common/fade.svg",
    "pixel_format": -1,
    "pixel_ratio": {
     "den": 1,
     "num": 1
    },
    "sample_rate": 0,
    "top_field_first": true,
    "type": "QtImageReader",
    "vcodec": "",
    "video_bit_rate": 0,
    "video_length": "108000",
    "video_stream_index": -1,
    "video_timebase": {
     "den": 30,
     "num": 1
    },
    "width": 720
   },
   "replace_image": false,
   "id": "EOT619YF48"
  },
  {
   "layer": 2000000,
   "title": "Transition",
   "type": "Mask",
   "position": 271.2,
   "start": 0,
   "end": 0.9583333333333212,
   "brightness": {
    "Points": [
     {
      "co": {
       "X": 1.0,
       "Y": -1.0
      },
      "handle_left": {
       "X": 0.5,
       "Y": 1.0
      },
      "handle_right": {
       "X": 0.5,
       "Y": 0.0
      },
      "handle_type": 0,
      "interpolation": 0
     },
     {
      "co": {
       "X": 29.0,
       "Y": 1.0
      },
      "handle_left": {
       "X": 0.5,
       "Y": 1.0
      },
      "handle_right": {
       "X": 0.5,
       "Y": 0.0
      },
      "handle_type": 0,
      "interpolation": 0
     }
    ]
   },
   "contrast": {
    "Points": [
     {
      "co": {
       "X": 1.0,
       "Y": 3.0
      },
      "handle_left": {
       "X": 0.5,
       "Y": 1.0
      },
      "handle_right": {
       "X": 0.5,
       "Y": 0.0
      },
      "handle_type": 0,
      "interpolation": 0
     },
     {
      "co": {
       "X": 29.0,
       "Y": 3.0
      },
      "handle_left": {
       "X": 0.5,
       "Y": 1.0
      },
      "handle_right": {
       "X": 0.5,
       "Y": 0.0
      },
      "handle_type": 0,
      "interpolation": 0
     }
    ]
   },
   "reader": {
    "acodec": "",
    "audio_bit_rate": 0,
    "audio_stream_index": -1,
    "audio_timebase": {
     "den": 1,
     "num": 1
    },
    "channel_layout": 4,
    "channels": 0,
    "display_ratio": {
     "den": 4,
     "num": 5
    },
    "duration": 3600.0,
    "file_size": "5832000",
    "fps": {
     "den": 1,
     "num": 30
    },
    "has_audio": false,
    "has_single_image": true,
    "has_video": true,
    "height": 576,
    "interlaced_frame": false,
    "metadata": {},
    "path": "@transitions/common/fade.svg",
    "pixel_format": -1,
    "pixel_ratio": {
     "den": 1,
     "num": 1
    },
    "sample_rate": 0,
    "top_field_first": true,
    "type": "QtImageReader",
    "vcodec": "",
    "video_bit_rate": 0,
    "video_length": "108000",
    "video_stream_index": -1,
    "video_timebase": {
     "den": 30,
     "num": 1
    },
    "width": 720
   },
   "replace_image": false,
   "id": "PRGTH4OGVC"
  },
  {
   "layer": 2000000,
   "title": "Transition",
   "type": "Mask",
   "position": 273.3333333333333,
   "start": 0,
   "end": 0.9583333333333212,
   "brightness": {
    "Points": [
     {
      "co": {
       "X": 1.0,
       "Y": 1.0
      },
      "handle_left": {
       "X": 0.5,
       "Y": 1.0
      },
      "handle_right": {
       "X": 0.5,
       "Y": 0.0
      },
      "handle_type": 0,
      "interpolation": 0
     },
     {
      "co": {
       "X": 29.0,
       "Y": -1.0
      },
      "handle_left": {
       "X": 0.5,
       "Y": 1.0
      },
      "handle_right": {
       "X": 0.5,
       "Y": 0.0
      },
      "handle_type": 0,
      "interpolation": 0
     }
    ]
   },
   "contrast": {
    "Points": [
     {
      "co": {
       "X": 1.0,
       "Y": 3.0
      },
      "handle_left": {
       "X": 0.5,
       "Y": 1.0
      },
      "handle_right": {
       "X": 0.5,
       "Y": 0.0
      },
      "handle_type": 0,
      "interpolation": 0
     },
     {
      "co": {
       "X": 29.0,
       "Y": 3.0
      },
      "handle_left": {
       "X": 0.5,
       "Y": 1.0
      },
      "handle_right": {
       "X": 0.5,
       "Y": 0.0
      },
      "handle_type": 0,
      "interpolation": 0
     }
    ]
   },
   "reader": {
    "acodec": "",
    "audio_bit_rate": 0,
    "audio_stream_index": -1,
    "audio_timebase": {
     "den": 1,
     "num": 1
    },
    "channel_layout": 4,
    "channels": 0,
    "display_ratio": {
     "den": 4,
     "num": 5
    },
    "duration": 3600.0,
    "file_size": "5832000",
    "fps": {
     "den": 1,
     "num": 30
    },
    "has_audio": false,
    "has_single_image": true,
    "has_video": true,
    "height": 576,
    "interlaced_frame": false,
    "metadata": {},
    "path": "@transitions/common/fade.svg",
    "pixel_format": -1,
    "pixel_ratio": {
     "den": 1,
     "num": 1
    },
    "sample_rate": 0,
    "top_field_first": true,
    "type": "QtImageReader",
    "vcodec": "",
    "video_bit_rate": 0,
    "video_length": "108000",
    "video_stream_index": -1,
    "video_timebase": {
     "den": 30,
     "num": 1
    },
    "width": 720
   },
   "replace_image": false,
   "id": "2M2XXQ05FD"
  },
  {
   "layer": 2000000,
   "title": "Transition",
   "type": "Mask",
   "position": 277.23333333333335,
   "start": 0,
   "end": 0.9583333333333212,
   "brightness": {
    "Points": [
     {
      "co": {
       "X": 1.0,
       "Y": -1.0
      },
      "handle_left": {
       "X": 0.5,
       "Y": 1.0
      },
      "handle_right": {
       "X": 0.5,
       "Y": 0.0
      },
      "handle_type": 0,
      "interpolation": 0
     },
     {
      "co": {
       "X": 29.0,
       "Y": 1.0
      },
      "handle_left": {
       "X": 0.5,
       "Y": 1.0
      },
      "handle_right": {
       "X": 0.5,
       "Y": 0.0
      },
      "handle_type": 0,
      "interpolation": 0
     }
    ]
   },
   "contrast": {
    "Points": [
     {
      "co": {
       "X": 1.0,
       "Y": 3.0
      },
      "handle_left": {
       "X": 0.5,
       "Y": 1.0
      },
      "handle_right": {
       "X": 0.5,
       "Y": 0.0
      },
      "handle_type": 0,
      "interpolation": 0
     },
     {
      "co": {
       "X": 29.0,
       "Y": 3.0
      },
      "handle_left": {
       "X": 0.5,
       "Y": 1.0
      },
      "handle_right": {
       "X": 0.5,
       "Y": 0.0
      },
      "handle_type": 0,
      "interpolation": 0
     }
    ]
   },
   "reader": {
    "acodec": "",
    "audio_bit_rate": 0,
    "audio_stream_index": -1,
    "audio_timebase": {
     "den": 1,
     "num": 1
    },
    "channel_layout": 4,
    "channels": 0,
    "display_ratio": {
     "den": 4,
     "num": 5
    },
    "duration": 3600.0,
    "file_size": "5832000",
    "fps": {
     "den": 1,
     "num": 30
    },
    "has_audio": false,
    "has_single_image": true,
    "has_video": true,
    "height": 576,
    "interlaced_frame": false,
    "metadata": {},
    "path": "@transitions/common/fade.svg",
    "pixel_format": -1,
    "pixel_ratio": {
     "den": 1,
     "num": 1
    },
    "sample_rate": 0,
    "top_field_first": true,
    "type": "QtImageReader",
    "vcodec": "",
    "video_bit_rate": 0,
    "video_length": "108000",
    "video_stream_index": -1,
    "video_timebase": {
     "den": 30,
     "num": 1
    },
    "width": 720
   },
   "replace_image": false,
   "id": "AB25T9KHGQ"
  },
  {
   "layer": 2000000,
   "title": "Transition",
   "type": "Mask",
   "position": 281.73333333333335,
   "start": 0,
   "end": 0.9583333333333212,
   "brightness": {
    "Points": [
     {
      "co": {
       "X": 1.0,
       "Y": 1.0
      },
      "handle_left": {
       "X": 0.5,
       "Y": 1.0
      },
      "handle_right": {
       "X": 0.5,
       "Y": 0.0
      },
      "handle_type": 0,
      "interpolation": 0
     },
     {
      "co": {
       "X": 29.0,
       "Y": -1.0
      },
      "handle_left": {
       "X": 0.5,
       "Y": 1.0
      },
      "handle_right": {
       "X": 0.5,
       "Y": 0.0
      },
      "handle_type": 0,
      "interpolation": 0
     }
    ]
   },
   "contrast": {
    "Points": [
     {
      "co": {
       "X": 1.0,
       "Y": 3.0
      },
      "handle_left": {
       "X": 0.5,
       "Y": 1.0
      },
      "handle_right": {
       "X": 0.5,
       "Y": 0.0
      },
      "handle_type": 0,
      "interpolation": 0
     },
     {
      "co": {
       "X": 29.0,
       "Y": 3.0
      },
      "handle_left": {
       "X": 0.5,
       "Y": 1.0
      },
      "handle_right": {
       "X": 0.5,
       "Y": 0.0
      },
      "handle_type": 0,
      "interpolation": 0
     }
    ]
   },
   "reader": {
    "acodec": "",
    "audio_bit_rate": 0,
    "audio_stream_index": -1,
    "audio_timebase": {
     "den": 1,
     "num": 1
    },
    "channel_layout": 4,
    "channels": 0,
    "display_ratio": {
     "den": 4,
     "num": 5
    },
    "duration": 3600.0,
    "file_size": "5832000",
    "fps": {
     "den": 1,
     "num": 30
    },
    "has_audio": false,
    "has_single_image": true,
    "has_video": true,
    "height": 576,
    "interlaced_frame": false,
    "metadata": {},
    "path": "@transitions/common/fade.svg",
    "pixel_format": -1,
    "pixel_ratio": {
     "den": 1,
     "num": 1
    },
    "sample_rate": 0,
    "top_field_first": true,
    "type": "QtImageReader",
    "vcodec": "",
    "video_bit_rate": 0,
    "video_length": "108000",
    "video_stream_index": -1,
    "video_timebase": {
     "den": 30,
     "num": 1
    },
    "width": 720
   },
   "replace_image": false,
   "id": "ZEXFKXQ1SG"
  },
  {
   "layer": 2000000,
   "title": "Transition",
   "type": "Mask",
   "position": 286.3666666666667,
   "start": 0,
   "end": 0.9583333333333212,
   "brightness": {
    "Points": [
     {
      "co": {
       "X": 1.0,
       "Y": -1.0
      },
      "handle_left": {
       "X": 0.5,
       "Y": 1.0
      },
      "handle_right": {
       "X": 0.5,
       "Y": 0.0
      },
      "handle_type": 0,
      "interpolation": 0
     },
     {
      "co": {
       "X": 29.0,
       "Y": 1.0
      },
      "handle_left": {
       "X": 0.5,
       "Y": 1.0
      },
      "handle_right": {
       "X": 0.5,
       "Y": 0.0
      },
      "handle_type": 0,
      "interpolation": 0
     }
    ]
   },
   "contrast": {
    "Points": [
     {
      "co": {
       "X": 1.0,
       "Y": 3.0
      },
      "handle_left": {
       "X": 0.5,
       "Y": 1.0
      },
      "handle_right": {
       "X": 0.5,
       "Y": 0.0
      },
      "handle_type": 0,
      "interpolation": 0
     },
     {
      "co": {
       "X": 29.0,
       "Y": 3.0
      },
      "handle_left": {
       "X": 0.5,
       "Y": 1.0
      },
      "handle_right": {
       "X": 0.5,
       "Y": 0.0
      },
      "handle_type": 0,
      "interpolation": 0
     }
    ]
   },
   "reader": {
    "acodec": "",
    "audio_bit_rate": 0,
    "audio_stream_index": -1,
    "audio_timebase": {
     "den": 1,
     "num": 1
    },
    "channel_layout": 4,
    "channels": 0,
    "display_ratio": {
     "den": 4,
     "num": 5
    },
    "duration": 3600.0,
    "file_size": "5832000",
    "fps": {
     "den": 1,
     "num": 30
    },
    "has_audio": false,
    "has_single_image": true,
    "has_video": true,
    "height": 576,
    "interlaced_frame": false,
    "metadata": {},
    "path": "@transitions/common/fade.svg",
    "pixel_format": -1,
    "pixel_ratio": {
     "den": 1,
     "num": 1
    },
    "sample_rate": 0,
    "top_field_first": true,
    "type": "QtImageReader",
    "vcodec": "",
    "video_bit_rate": 0,
    "video_length": "108000",
    "video_stream_index": -1,
    "video_timebase": {
     "den": 30,
     "num": 1
    },
    "width": 720
   },
   "replace_image": false,
   "id": "NA5Q7HM0AA"
  },
  {
   "layer": 3000000,
   "title": "Transition",
   "type": "Mask",
   "position": 290.23333333333335,
   "start": 0,
   "end": 0.9583333333333212,
   "brightness": {
    "Points": [
     {
      "co": {
       "X": 1.0,
       "Y": -1.0
      },
      "handle_left": {
       "X": 0.5,
       "Y": 1.0
      },
      "handle_right": {
       "X": 0.5,
       "Y": 0.0
      },
      "handle_type": 0,
      "interpolation": 0
     },
     {
      "co": {
       "X": 29.0,
       "Y": 1.0
      },
      "handle_left": {
       "X": 0.5,
       "Y": 1.0
      },
      "handle_right": {
       "X": 0.5,
       "Y": 0.0
      },
      "handle_type": 0,
      "interpolation": 0
     }
    ]
   },
   "contrast": {
    "Points": [
     {
      "co": {
       "X": 1.0,
       "Y": 3.0
      },
      "handle_left": {
       "X": 0.5,
       "Y": 1.0
      },
      "handle_right": {
       "X": 0.5,
       "Y": 0.0
      },
      "handle_type": 0,
      "interpolation": 0
     },
     {
      "co": {
       "X": 29.0,
       "Y": 3.0
      },
      "handle_left": {
       "X": 0.5,
       "Y": 1.0
      },
      "handle_right": {
       "X": 0.5,
       "Y": 0.0
      },
      "handle_type": 0,
      "interpolation": 0
     }
    ]
   },
   "reader": {
    "acodec": "",
    "audio_bit_rate": 0,
    "audio_stream_index": -1,
    "audio_timebase": {
     "den": 1,
     "num": 1
    },
    "channel_layout": 4,
    "channels": 0,
    "display_ratio": {
     "den": 4,
     "num": 5
    },
    "duration": 3600.0,
    "file_size": "5832000",
    "fps": {
     "den": 1,
     "num": 30
    },
    "has_audio": false,
    "has_single_image": true,
    "has_video": true,
    "height": 576,
    "interlaced_frame": false,
    "metadata": {},
    "path": "@transitions/common/fade.svg",
    "pixel_format": -1,
    "pixel_ratio": {
     "den": 1,
     "num": 1
    },
    "sample_rate": 0,
    "top_field_first": true,
    "type": "QtImageReader",
    "vcodec": "",
    "video_bit_rate": 0,
    "video_length": "108000",
    "video_stream_index": -1,
    "video_timebase": {
     "den": 30,
     "num": 1
    },
    "width": 720
   },
   "replace_image": false,
   "id": "2MOTFUXKD2"
  },
  {
   "id": "WTQLA8YM9N",
   "layer": 1000000,
   "title": "Transition",
   "type": "Mask",
   "position": 297.26666666666665,
   "start": 0,
   "end": 1.3359143138669818,
   "brightness": {
    "Points": [
     {
      "co": {
       "X": 1.0,
       "Y": 1.0
      },
      "handle_left": {
       "X": 0.5,
       "Y": 1.0
      },
      "handle_right": {
       "X": 0.5,
       "Y": 0.0
      },
      "handle_type": 0,
      "interpolation": 0
     },
     {
      "co": {
       "X": 40.0,
       "Y": -1.0
      },
      "handle_left": {
       "X": 0.5,
       "Y": 1.0
      },
      "handle_right": {
       "X": 0.5,
       "Y": 0.0
      },
      "handle_type": 0,
      "interpolation": 0
     }
    ]
   },
   "contrast": {
    "Points": [
     {
      "co": {
       "X": 1.0,
       "Y": 3.0
      },
      "handle_left": {
       "X": 0.5,
       "Y": 1.0
      },
      "handle_right": {
       "X": 0.5,
       "Y": 0.0
      },
      "handle_type": 0,
      "interpolation": 0
     },
     {
      "co": {
       "X": 40.0,
       "Y": 3.0
      },
      "handle_left": {
       "X": 0.5,
       "Y": 1.0
      },
      "handle_right": {
       "X": 0.5,
       "Y": 0.0
      },
      "handle_type": 0,
      "interpolation": 0
     }
    ]
   },
   "reader": {
    "acodec": "",
    "audio_bit_rate": 0,
    "audio_stream_index": -1,
    "audio_timebase": {
     "den": 1,
     "num": 1
    },
    "channel_layout": 4,
    "channels": 0,
    "display_ratio": {
     "den": 4,
     "num": 5
    },
    "duration": 3600.0,
    "file_size": "5832000",
    "fps": {
     "den": 1,
     "num": 30
    },
    "has_audio": false,
    "has_single_image": true,
    "has_video": true,
    "height": 576,
    "interlaced_frame": false,
    "metadata": {},
    "path": "@transitions/common/fade.svg",
    "pixel_format": -1,
    "pixel_ratio": {
     "den": 1,
     "num": 1
    },
    "sample_rate": 0,
    "top_field_first": true,
    "type": "QtImageReader",
    "vcodec": "",
    "video_bit_rate": 0,
    "video_length": "108000",
    "video_stream_index": -1,
    "video_timebase": {
     "den": 30,
     "num": 1
    },
    "width": 720
   },
   "replace_image": false
  },
  {
   "layer": 3000000,
   "title": "Transition",
   "type": "Mask",
   "position": 298.8333333333333,
   "start": 0,
   "end": 0.9583333333333212,
   "brightness": {
    "Points": [
     {
      "co": {
       "X": 1.0,
       "Y": 1.0
      },
      "handle_left": {
       "X": 0.5,
       "Y": 1.0
      },
      "handle_right": {
       "X": 0.5,
       "Y": 0.0
      },
      "handle_type": 0,
      "interpolation": 0
     },
     {
      "co": {
       "X": 29.0,
       "Y": -1.0
      },
      "handle_left": {
       "X": 0.5,
       "Y": 1.0
      },
      "handle_right": {
       "X": 0.5,
       "Y": 0.0
      },
      "handle_type": 0,
      "interpolation": 0
     }
    ]
   },
   "contrast": {
    "Points": [
     {
      "co": {
       "X": 1.0,
       "Y": 3.0
      },
      "handle_left": {
       "X": 0.5,
       "Y": 1.0
      },
      "handle_right": {
       "X": 0.5,
       "Y": 0.0
      },
      "handle_type": 0,
      "interpolation": 0
     },
     {
      "co": {
       "X": 29.0,
       "Y": 3.0
      },
      "handle_left": {
       "X": 0.5,
       "Y": 1.0
      },
      "handle_right": {
       "X": 0.5,
       "Y": 0.0
      },
      "handle_type": 0,
      "interpolation": 0
     }
    ]
   },
   "reader": {
    "acodec": "",
    "audio_bit_rate": 0,
    "audio_stream_index": -1,
    "audio_timebase": {
     "den": 1,
     "num": 1
    },
    "channel_layout": 4,
    "channels": 0,
    "display_ratio": {
     "den": 4,
     "num": 5
    },
    "duration": 3600.0,
    "file_size": "5832000",
    "fps": {
     "den": 1,
     "num": 30
    },
    "has_audio": false,
    "has_single_image": true,
    "has_video": true,
    "height": 576,
    "interlaced_frame": false,
    "metadata": {},
    "path": "@transitions/common/fade.svg",
    "pixel_format": -1,
    "pixel_ratio": {
     "den": 1,
     "num": 1
    },
    "sample_rate": 0,
    "top_field_first": true,
    "type": "QtImageReader",
    "vcodec": "",
    "video_bit_rate": 0,
    "video_length": "108000",
    "video_stream_index": -1,
    "video_timebase": {
     "den": 30,
     "num": 1
    },
    "width": 720
   },
   "replace_image": false,
   "id": "2YX9MN7OBR"
  },
  {
   "layer": 2000000,
   "title": "Transition",
   "type": "Mask",
   "position": 300.6666666666667,
   "start": 0,
   "end": 0.9583333333333212,
   "brightness": {
    "Points": [
     {
      "co": {
       "X": 1.0,
       "Y": 1.0
      },
      "handle_left": {
       "X": 0.5,
       "Y": 1.0
      },
      "handle_right": {
       "X": 0.5,
       "Y": 0.0
      },
      "handle_type": 0,
      "interpolation": 0
     },
     {
      "co": {
       "X": 29.0,
       "Y": -1.0
      },
      "handle_left": {
       "X": 0.5,
       "Y": 1.0
      },
      "handle_right": {
       "X": 0.5,
       "Y": 0.0
      },
      "handle_type": 0,
      "interpolation": 0
     }
    ]
   },
   "contrast": {
    "Points": [
     {
      "co": {
       "X": 1.0,
       "Y": 3.0
      },
      "handle_left": {
       "X": 0.5,
       "Y": 1.0
      },
      "handle_right": {
       "X": 0.5,
       "Y": 0.0
      },
      "handle_type": 0,
      "interpolation": 0
     },
     {
      "co": {
       "X": 29.0,
       "Y": 3.0
      },
      "handle_left": {
       "X": 0.5,
       "Y": 1.0
      },
      "handle_right": {
       "X": 0.5,
       "Y": 0.0
      },
      "handle_type": 0,
      "interpolation": 0
     }
    ]
   },
   "reader": {
    "acodec": "",
    "audio_bit_rate": 0,
    "audio_stream_index": -1,
    "audio_timebase": {
     "den": 1,
     "num": 1
    },
    "channel_layout": 4,
    "channels": 0,
    "display_ratio": {
     "den": 4,
     "num": 5
    },
    "duration": 3600.0,
    "file_size": "5832000",
    "fps": {
     "den": 1,
     "num": 30
    },
    "has_audio": false,
    "has_single_image": true,
    "has_video": true,
    "height": 576,
    "interlaced_frame": false,
    "metadata": {},
    "path": "@transitions/common/fade.svg",
    "pixel_format": -1,
    "pixel_ratio": {
     "den": 1,
     "num": 1
    },
    "sample_rate": 0,
    "top_field_first": true,
    "type": "QtImageReader",
    "vcodec": "",
    "video_bit_rate": 0,
    "video_length": "108000",
    "video_stream_index": -1,
    "video_timebase": {
     "den": 30,
     "num": 1
    },
    "width": 720
   },
   "replace_image": false,
   "id": "NZZROKB146"
  },
  {
   "layer": 2000000,
   "title": "Transition",
   "type": "Mask",
   "position": 303.8333333333333,
   "start": 0,
   "end": 0.9583333333333212,
   "brightness": {
    "Points": [
     {
      "co": {
       "X": 1.0,
       "Y": -1.0
      },
      "handle_left": {
       "X": 0.5,
       "Y": 1.0
      },
      "handle_right": {
       "X": 0.5,
       "Y": 0.0
      },
      "handle_type": 0,
      "interpolation": 0
     },
     {
      "co": {
       "X": 29.0,
       "Y": 1.0
      },
      "handle_left": {
       "X": 0.5,
       "Y": 1.0
      },
      "handle_right": {
       "X": 0.5,
       "Y": 0.0
      },
      "handle_type": 0,
      "interpolation": 0
     }
    ]
   },
   "contrast": {
    "Points": [
     {
      "co": {
       "X": 1.0,
       "Y": 3.0
      },
      "handle_left": {
       "X": 0.5,
       "Y": 1.0
      },
      "handle_right": {
       "X": 0.5,
       "Y": 0.0
      },
      "handle_type": 0,
      "interpolation": 0
     },
     {
      "co": {
       "X": 29.0,
       "Y": 3.0
      },
      "handle_left": {
       "X": 0.5,
       "Y": 1.0
      },
      "handle_right": {
       "X": 0.5,
       "Y": 0.0
      },
      "handle_type": 0,
      "interpolation": 0
     }
    ]
   },
   "reader": {
    "acodec": "",
    "audio_bit_rate": 0,
    "audio_stream_index": -1,
    "audio_timebase": {
     "den": 1,
     "num": 1
    },
    "channel_layout": 4,
    "channels": 0,
    "display_ratio": {
     "den": 4,
     "num": 5
    },
    "duration": 3600.0,
    "file_size": "5832000",
    "fps": {
     "den": 1,
     "num": 30
    },
    "has_audio": false,
    "has_single_image": true,
    "has_video": true,
    "height": 576,
    "interlaced_frame": false,
    "metadata": {},
    "path": "@transitions/common/fade.svg",
    "pixel_format": -1,
    "pixel_ratio": {
     "den": 1,
     "num": 1
    },
    "sample_rate": 0,
    "top_field_first": true,
    "type": "QtImageReader",
    "vcodec": "",
    "video_bit_rate": 0,
    "video_length": "108000",
    "video_stream_index": -1,
    "video_timebase": {
     "den": 30,
     "num": 1
    },
    "width": 720
   },
   "replace_image": false,
   "id": "QSGPQIF0I4"
  },
  {
   "layer": 2000000,
   "title": "Transition",
   "type": "Mask",
   "position": 306.8666666666667,
   "start": 0,
   "end": 0.9583333333333212,
   "brightness": {
    "Points": [
     {
      "co": {
       "X": 1.0,
       "Y": 1.0
      },
      "handle_left": {
       "X": 0.5,
       "Y": 1.0
      },
      "handle_right": {
       "X": 0.5,
       "Y": 0.0
      },
      "handle_type": 0,
      "interpolation": 0
     },
     {
      "co": {
       "X": 29.0,
       "Y": -1.0
      },
      "handle_left": {
       "X": 0.5,
       "Y": 1.0
      },
      "handle_right": {
       "X": 0.5,
       "Y": 0.0
      },
      "handle_type": 0,
      "interpolation": 0
     }
    ]
   },
   "contrast": {
    "Points": [
     {
      "co": {
       "X": 1.0,
       "Y": 3.0
      },
      "handle_left": {
       "X": 0.5,
       "Y": 1.0
      },
      "handle_right": {
       "X": 0.5,
       "Y": 0.0
      },
      "handle_type": 0,
      "interpolation": 0
     },
     {
      "co": {
       "X": 29.0,
       "Y": 3.0
      },
      "handle_left": {
       "X": 0.5,
       "Y": 1.0
      },
      "handle_right": {
       "X": 0.5,
       "Y": 0.0
      },
      "handle_type": 0,
      "interpolation": 0
     }
    ]
   },
   "reader": {
    "acodec": "",
    "audio_bit_rate": 0,
    "audio_stream_index": -1,
    "audio_timebase": {
     "den": 1,
     "num": 1
    },
    "channel_layout": 4,
    "channels": 0,
    "display_ratio": {
     "den": 4,
     "num": 5
    },
    "duration": 3600.0,
    "file_size": "5832000",
    "fps": {
     "den": 1,
     "num": 30
    },
    "has_audio": false,
    "has_single_image": true,
    "has_video": true,
    "height": 576,
    "interlaced_frame": false,
    "metadata": {},
    "path": "@transitions/common/fade.svg",
    "pixel_format": -1,
    "pixel_ratio": {
     "den": 1,
     "num": 1
    },
    "sample_rate": 0,
    "top_field_first": true,
    "type": "QtImageReader",
    "vcodec": "",
    "video_bit_rate": 0,
    "video_length": "108000",
    "video_stream_index": -1,
    "video_timebase": {
     "den": 30,
     "num": 1
    },
    "width": 720
   },
   "replace_image": false,
   "id": "OHTIUW0RSR"
  },
  {
   "layer": 2000000,
   "title": "Transition",
   "type": "Mask",
   "position": 312.3,
   "start": 0,
   "end": 0.9583333333333212,
   "brightness": {
    "Points": [
     {
      "co": {
       "X": 1.0,
       "Y": -1.0
      },
      "handle_left": {
       "X": 0.5,
       "Y": 1.0
      },
      "handle_right": {
       "X": 0.5,
       "Y": 0.0
      },
      "handle_type": 0,
      "interpolation": 0
     },
     {
      "co": {
       "X": 29.0,
       "Y": 1.0
      },
      "handle_left": {
       "X": 0.5,
       "Y": 1.0
      },
      "handle_right": {
       "X": 0.5,
       "Y": 0.0
      },
      "handle_type": 0,
      "interpolation": 0
     }
    ]
   },
   "contrast": {
    "Points": [
     {
      "co": {
       "X": 1.0,
       "Y": 3.0
      },
      "handle_left": {
       "X": 0.5,
       "Y": 1.0
      },
      "handle_right": {
       "X": 0.5,
       "Y": 0.0
      },
      "handle_type": 0,
      "interpolation": 0
     },
     {
      "co": {
       "X": 29.0,
       "Y": 3.0
      },
      "handle_left": {
       "X": 0.5,
       "Y": 1.0
      },
      "handle_right": {
       "X": 0.5,
       "Y": 0.0
      },
      "handle_type": 0,
      "interpolation": 0
     }
    ]
   },
   "reader": {
    "acodec": "",
    "audio_bit_rate": 0,
    "audio_stream_index": -1,
    "audio_timebase": {
     "den": 1,
     "num": 1
    },
    "channel_layout": 4,
    "channels": 0,
    "display_ratio": {
     "den": 4,
     "num": 5
    },
    "duration": 3600.0,
    "file_size": "5832000",
    "fps": {
     "den": 1,
     "num": 30
    },
    "has_audio": false,
    "has_single_image": true,
    "has_video": true,
    "height": 576,
    "interlaced_frame": false,
    "metadata": {},
    "path": "@transitions/common/fade.svg",
    "pixel_format": -1,
    "pixel_ratio": {
     "den": 1,
     "num": 1
    },
    "sample_rate": 0,
    "top_field_first": true,
    "type": "QtImageReader",
    "vcodec": "",
    "video_bit_rate": 0,
    "video_length": "108000",
    "video_stream_index": -1,
    "video_timebase": {
     "den": 30,
     "num": 1
    },
    "width": 720
   },
   "replace_image": false,
   "id": "6SPUUOIG1O"
  },
  {
   "layer": 3000000,
   "title": "Transition",
   "type": "Mask",
   "position": 328.6,
   "start": 0,
   "end": 0.9583333333333212,
   "brightness": {
    "Points": [
     {
      "co": {
       "X": 1.0,
       "Y": -1.0
      },
      "handle_left": {
       "X": 0.5,
       "Y": 1.0
      },
      "handle_right": {
       "X": 0.5,
       "Y": 0.0
      },
      "handle_type": 0,
      "interpolation": 0
     },
     {
      "co": {
       "X": 29.0,
       "Y": 1.0
      },
      "handle_left": {
       "X": 0.5,
       "Y": 1.0
      },
      "handle_right": {
       "X": 0.5,
       "Y": 0.0
      },
      "handle_type": 0,
      "interpolation": 0
     }
    ]
   },
   "contrast": {
    "Points": [
     {
      "co": {
       "X": 1.0,
       "Y": 3.0
      },
      "handle_left": {
       "X": 0.5,
       "Y": 1.0
      },
      "handle_right": {
       "X": 0.5,
       "Y": 0.0
      },
      "handle_type": 0,
      "interpolation": 0
     },
     {
      "co": {
       "X": 29.0,
       "Y": 3.0
      },
      "handle_left": {
       "X": 0.5,
       "Y": 1.0
      },
      "handle_right": {
       "X": 0.5,
       "Y": 0.0
      },
      "handle_type": 0,
      "interpolation": 0
     }
    ]
   },
   "reader": {
    "acodec": "",
    "audio_bit_rate": 0,
    "audio_stream_index": -1,
    "audio_timebase": {
     "den": 1,
     "num": 1
    },
    "channel_layout": 4,
    "channels": 0,
    "display_ratio": {
     "den": 4,
     "num": 5
    },
    "duration": 3600.0,
    "file_size": "5832000",
    "fps": {
     "den": 1,
     "num": 30
    },
    "has_audio": false,
    "has_single_image": true,
    "has_video": true,
    "height": 576,
    "interlaced_frame": false,
    "metadata": {},
    "path": "@transitions/common/fade.svg",
    "pixel_format": -1,
    "pixel_ratio": {
     "den": 1,
     "num": 1
    },
    "sample_rate": 0,
    "top_field_first": true,
    "type": "QtImageReader",
    "vcodec": "",
    "video_bit_rate": 0,
    "video_length": "108000",
    "video_stream_index": -1,
    "video_timebase": {
     "den": 30,
     "num": 1
    },
    "width": 720
   },
   "replace_image": false,
   "id": "P8E8OYE1HL"
  },
  {
   "layer": 3000000,
   "title": "Transition",
   "type": "Mask",
   "position": 331.93333333333334,
   "start": 0,
   "end": 0.9583333333333212,
   "brightness": {
    "Points": [
     {
      "co": {
       "X": 1.0,
       "Y": 1.0
      },
      "handle_left": {
       "X": 0.5,
       "Y": 1.0
      },
      "handle_right": {
       "X": 0.5,
       "Y": 0.0
      },
      "handle_type": 0,
      "interpolation": 0
     },
     {
      "co": {
       "X": 29.0,
       "Y": -1.0
      },
      "handle_left": {
       "X": 0.5,
       "Y": 1.0
      },
      "handle_right": {
       "X": 0.5,
       "Y": 0.0
      },
      "handle_type": 0,
      "interpolation": 0
     }
    ]
   },
   "contrast": {
    "Points": [
     {
      "co": {
       "X": 1.0,
       "Y": 3.0
      },
      "handle_left": {
       "X": 0.5,
       "Y": 1.0
      },
      "handle_right": {
       "X": 0.5,
       "Y": 0.0
      },
      "handle_type": 0,
      "interpolation": 0
     },
     {
      "co": {
       "X": 29.0,
       "Y": 3.0
      },
      "handle_left": {
       "X": 0.5,
       "Y": 1.0
      },
      "handle_right": {
       "X": 0.5,
       "Y": 0.0
      },
      "handle_type": 0,
      "interpolation": 0
     }
    ]
   },
   "reader": {
    "acodec": "",
    "audio_bit_rate": 0,
    "audio_stream_index": -1,
    "audio_timebase": {
     "den": 1,
     "num": 1
    },
    "channel_layout": 4,
    "channels": 0,
    "display_ratio": {
     "den": 4,
     "num": 5
    },
    "duration": 3600.0,
    "file_size": "5832000",
    "fps": {
     "den": 1,
     "num": 30
    },
    "has_audio": false,
    "has_single_image": true,
    "has_video": true,
    "height": 576,
    "interlaced_frame": false,
    "metadata": {},
    "path": "@transitions/common/fade.svg",
    "pixel_format": -1,
    "pixel_ratio": {
     "den": 1,
     "num": 1
    },
    "sample_rate": 0,
    "top_field_first": true,
    "type": "QtImageReader",
    "vcodec": "",
    "video_bit_rate": 0,
    "video_length": "108000",
    "video_stream_index": -1,
    "video_timebase": {
     "den": 30,
     "num": 1
    },
    "width": 720
   },
   "replace_image": false,
   "id": "U8TADCPK80"
  },
  {
   "layer": 2000000,
   "title": "Transition",
   "type": "Mask",
   "position": 334.06666666666666,
   "start": 0,
   "end": 0.9583333333333212,
   "brightness": {
    "Points": [
     {
      "co": {
       "X": 1.0,
       "Y": 1.0
      },
      "handle_left": {
       "X": 0.5,
       "Y": 1.0
      },
      "handle_right": {
       "X": 0.5,
       "Y": 0.0
      },
      "handle_type": 0,
      "interpolation": 0
     },
     {
      "co": {
       "X": 29.0,
       "Y": -1.0
      },
      "handle_left": {
       "X": 0.5,
       "Y": 1.0
      },
      "handle_right": {
       "X": 0.5,
       "Y": 0.0
      },
      "handle_type": 0,
      "interpolation": 0
     }
    ]
   },
   "contrast": {
    "Points": [
     {
      "co": {
       "X": 1.0,
       "Y": 3.0
      },
      "handle_left": {
       "X": 0.5,
       "Y": 1.0
      },
      "handle_right": {
       "X": 0.5,
       "Y": 0.0
      },
      "handle_type": 0,
      "interpolation": 0
     },
     {
      "co": {
       "X": 29.0,
       "Y": 3.0
      },
      "handle_left": {
       "X": 0.5,
       "Y": 1.0
      },
      "handle_right": {
       "X": 0.5,
       "Y": 0.0
      },
      "handle_type": 0,
      "interpolation": 0
     }
    ]
   },
   "reader": {
    "acodec": "",
    "audio_bit_rate": 0,
    "audio_stream_index": -1,
    "audio_timebase": {
     "den": 1,
     "num": 1
    },
    "channel_layout": 4,
    "channels": 0,
    "display_ratio": {
     "den": 4,
     "num": 5
    },
    "duration": 3600.0,
    "file_size": "5832000",
    "fps": {
     "den": 1,
     "num": 30
    },
    "has_audio": false,
    "has_single_image": true,
    "has_video": true,
    "height": 576,
    "interlaced_frame": false,
    "metadata": {},
    "path": "@transitions/common/fade.svg",
    "pixel_format": -1,
    "pixel_ratio": {
     "den": 1,
     "num": 1
    },
    "sample_rate": 0,
    "top_field_first": true,
    "type": "QtImageReader",
    "vcodec": "",
    "video_bit_rate": 0,
    "video_length": "108000",
    "video_stream_index": -1,
    "video_timebase": {
     "den": 30,
     "num": 1
    },
    "width": 720
   },
   "replace_image": false,
   "id": "MJ858I17GB"
  },
  {
   "layer": 2000000,
   "title": "Transition",
   "type": "Mask",
   "position": 339.53333333333336,
   "start": 0,
   "end": 0.9583333333333212,
   "brightness": {
    "Points": [
     {
      "co": {
       "X": 1.0,
       "Y": -1.0
      },
      "handle_left": {
       "X": 0.5,
       "Y": 1.0
      },
      "handle_right": {
       "X": 0.5,
       "Y": 0.0
      },
      "handle_type": 0,
      "interpolation": 0
     },
     {
      "co": {
       "X": 29.0,
       "Y": 1.0
      },
      "handle_left": {
       "X": 0.5,
       "Y": 1.0
      },
      "handle_right": {
       "X": 0.5,
       "Y": 0.0
      },
      "handle_type": 0,
      "interpolation": 0
     }
    ]
   },
   "contrast": {
    "Points": [
     {
      "co": {
       "X": 1.0,
       "Y": 3.0
      },
      "handle_left": {
       "X": 0.5,
       "Y": 1.0
      },
      "handle_right": {
       "X": 0.5,
       "Y": 0.0
      },
      "handle_type": 0,
      "interpolation": 0
     },
     {
      "co": {
       "X": 29.0,
       "Y": 3.0
      },
      "handle_left": {
       "X": 0.5,
       "Y": 1.0
      },
      "handle_right": {
       "X": 0.5,
       "Y": 0.0
      },
      "handle_type": 0,
      "interpolation": 0
     }
    ]
   },
   "reader": {
    "acodec": "",
    "audio_bit_rate": 0,
    "audio_stream_index": -1,
    "audio_timebase": {
     "den": 1,
     "num": 1
    },
    "channel_layout": 4,
    "channels": 0,
    "display_ratio": {
     "den": 4,
     "num": 5
    },
    "duration": 3600.0,
    "file_size": "5832000",
    "fps": {
     "den": 1,
     "num": 30
    },
    "has_audio": false,
    "has_single_image": true,
    "has_video": true,
    "height": 576,
    "interlaced_frame": false,
    "metadata": {},
    "path": "@transitions/common/fade.svg",
    "pixel_format": -1,
    "pixel_ratio": {
     "den": 1,
     "num": 1
    },
    "sample_rate": 0,
    "top_field_first": true,
    "type": "QtImageReader",
    "vcodec": "",
    "video_bit_rate": 0,
    "video_length": "108000",
    "video_stream_index": -1,
    "video_timebase": {
     "den": 30,
     "num": 1
    },
    "width": 720
   },
   "replace_image": false,
   "id": "BRY9NYJBVJ"
  },
  {
   "layer": 3000000,
   "title": "Transition",
   "type": "Mask",
   "position": 342.3333333333333,
   "start": 0,
   "end": 0.9583333333333212,
   "brightness": {
    "Points": [
     {
      "co": {
       "X": 1.0,
       "Y": -1.0
      },
      "handle_left": {
       "X": 0.5,
       "Y": 1.0
      },
      "handle_right": {
       "X": 0.5,
       "Y": 0.0
      },
      "handle_type": 0,
      "interpolation": 0
     },
     {
      "co": {
       "X": 29.0,
       "Y": 1.0
      },
      "handle_left": {
       "X": 0.5,
       "Y": 1.0
      },
      "handle_right": {
       "X": 0.5,
       "Y": 0.0
      },
      "handle_type": 0,
      "interpolation": 0
     }
    ]
   },
   "contrast": {
    "Points": [
     {
      "co": {
       "X": 1.0,
       "Y": 3.0
      },
      "handle_left": {
       "X": 0.5,
       "Y": 1.0
      },
      "handle_right": {
       "X": 0.5,
       "Y": 0.0
      },
      "handle_type": 0,
      "interpolation": 0
     },
     {
      "co": {
       "X": 29.0,
       "Y": 3.0
      },
      "handle_left": {
       "X": 0.5,
       "Y": 1.0
      },
      "handle_right": {
       "X": 0.5,
       "Y": 0.0
      },
      "handle_type": 0,
      "interpolation": 0
     }
    ]
   },
   "reader": {
    "acodec": "",
    "audio_bit_rate": 0,
    "audio_stream_index": -1,
    "audio_timebase": {
     "den": 1,
     "num": 1
    },
    "channel_layout": 4,
    "channels": 0,
    "display_ratio": {
     "den": 4,
     "num": 5
    },
    "duration": 3600.0,
    "file_size": "5832000",
    "fps": {
     "den": 1,
     "num": 30
    },
    "has_audio": false,
    "has_single_image": true,
    "has_video": true,
    "height": 576,
    "interlaced_frame": false,
    "metadata": {},
    "path": "@transitions/common/fade.svg",
    "pixel_format": -1,
    "pixel_ratio": {
     "den": 1,
     "num": 1
    },
    "sample_rate": 0,
    "top_field_first": true,
    "type": "QtImageReader",
    "vcodec": "",
    "video_bit_rate": 0,
    "video_length": "108000",
    "video_stream_index": -1,
    "video_timebase": {
     "den": 30,
     "num": 1
    },
    "width": 720
   },
   "replace_image": false,
   "id": "S7KO8U24VG"
  },
  {
   "layer": 2000000,
   "title": "Transition",
   "type": "Mask",
   "position": 350.1,
   "start": 0,
   "end": 0.9583333333333212,
   "brightness": {
    "Points": [
     {
      "co": {
       "X": 1.0,
       "Y": 1.0
      },
      "handle_left": {
       "X": 0.5,
       "Y": 1.0
      },
      "handle_right": {
       "X": 0.5,
       "Y": 0.0
      },
      "handle_type": 0,
      "interpolation": 0
     },
     {
      "co": {
       "X": 29.0,
       "Y": -1.0
      },
      "handle_left": {
       "X": 0.5,
       "Y": 1.0
      },
      "handle_right": {
       "X": 0.5,
       "Y": 0.0
      },
      "handle_type": 0,
      "interpolation": 0
     }
    ]
   },
   "contrast": {
    "Points": [
     {
      "co": {
       "X": 1.0,
       "Y": 3.0
      },
      "handle_left": {
       "X": 0.5,
       "Y": 1.0
      },
      "handle_right": {
       "X": 0.5,
       "Y": 0.0
      },
      "handle_type": 0,
      "interpolation": 0
     },
     {
      "co": {
       "X": 29.0,
       "Y": 3.0
      },
      "handle_left": {
       "X": 0.5,
       "Y": 1.0
      },
      "handle_right": {
       "X": 0.5,
       "Y": 0.0
      },
      "handle_type": 0,
      "interpolation": 0
     }
    ]
   },
   "reader": {
    "acodec": "",
    "audio_bit_rate": 0,
    "audio_stream_index": -1,
    "audio_timebase": {
     "den": 1,
     "num": 1
    },
    "channel_layout": 4,
    "channels": 0,
    "display_ratio": {
     "den": 4,
     "num": 5
    },
    "duration": 3600.0,
    "file_size": "5832000",
    "fps": {
     "den": 1,
     "num": 30
    },
    "has_audio": false,
    "has_single_image": true,
    "has_video": true,
    "height": 576,
    "interlaced_frame": false,
    "metadata": {},
    "path": "@transitions/common/fade.svg",
    "pixel_format": -1,
    "pixel_ratio": {
     "den": 1,
     "num": 1
    },
    "sample_rate": 0,
    "top_field_first": true,
    "type": "QtImageReader",
    "vcodec": "",
    "video_bit_rate": 0,
    "video_length": "108000",
    "video_stream_index": -1,
    "video_timebase": {
     "den": 30,
     "num": 1
    },
    "width": 720
   },
   "replace_image": false,
   "id": "5AV58SED81"
  },
  {
   "layer": 1000000,
   "title": "Transition",
   "type": "Mask",
   "position": 349.46666666666664,
   "start": 0,
   "end": 0.9583333333333212,
   "brightness": {
    "Points": [
     {
      "co": {
       "X": 1.0,
       "Y": -1.0
      },
      "handle_left": {
       "X": 0.5,
       "Y": 1.0
      },
      "handle_right": {
       "X": 0.5,
       "Y": 0.0
      },
      "handle_type": 0,
      "interpolation": 0
     },
     {
      "co": {
       "X": 29.0,
       "Y": 1.0
      },
      "handle_left": {
       "X": 0.5,
       "Y": 1.0
      },
      "handle_right": {
       "X": 0.5,
       "Y": 0.0
      },
      "handle_type": 0,
      "interpolation": 0
     }
    ]
   },
   "contrast": {
    "Points": [
     {
      "co": {
       "X": 1.0,
       "Y": 3.0
      },
      "handle_left": {
       "X": 0.5,
       "Y": 1.0
      },
      "handle_right": {
       "X": 0.5,
       "Y": 0.0
      },
      "handle_type": 0,
      "interpolation": 0
     },
     {
      "co": {
       "X": 29.0,
       "Y": 3.0
      },
      "handle_left": {
       "X": 0.5,
       "Y": 1.0
      },
      "handle_right": {
       "X": 0.5,
       "Y": 0.0
      },
      "handle_type": 0,
      "interpolation": 0
     }
    ]
   },
   "reader": {
    "acodec": "",
    "audio_bit_rate": 0,
    "audio_stream_index": -1,
    "audio_timebase": {
     "den": 1,
     "num": 1
    },
    "channel_layout": 4,
    "channels": 0,
    "display_ratio": {
     "den": 4,
     "num": 5
    },
    "duration": 3600.0,
    "file_size": "5832000",
    "fps": {
     "den": 1,
     "num": 30
    },
    "has_audio": false,
    "has_single_image": true,
    "has_video": true,
    "height": 576,
    "interlaced_frame": false,
    "metadata": {},
    "path": "@transitions/common/fade.svg",
    "pixel_format": -1,
    "pixel_ratio": {
     "den": 1,
     "num": 1
    },
    "sample_rate": 0,
    "top_field_first": true,
    "type": "QtImageReader",
    "vcodec": "",
    "video_bit_rate": 0,
    "video_length": "108000",
    "video_stream_index": -1,
    "video_timebase": {
     "den": 30,
     "num": 1
    },
    "width": 720
   },
   "replace_image": false,
   "id": "8JGOS2299B"
  },
  {
   "layer": 2000000,
   "title": "Transition",
   "type": "Mask",
   "position": 351.8666666666667,
   "start": 0,
   "end": 0.9583333333333212,
   "brightness": {
    "Points": [
     {
      "co": {
       "X": 1.0,
       "Y": -1.0
      },
      "handle_left": {
       "X": 0.5,
       "Y": 1.0
      },
      "handle_right": {
       "X": 0.5,
       "Y": 0.0
      },
      "handle_type": 0,
      "interpolation": 0
     },
     {
      "co": {
       "X": 29.0,
       "Y": 1.0
      },
      "handle_left": {
       "X": 0.5,
       "Y": 1.0
      },
      "handle_right": {
       "X": 0.5,
       "Y": 0.0
      },
      "handle_type": 0,
      "interpolation": 0
     }
    ]
   },
   "contrast": {
    "Points": [
     {
      "co": {
       "X": 1.0,
       "Y": 3.0
      },
      "handle_left": {
       "X": 0.5,
       "Y": 1.0
      },
      "handle_right": {
       "X": 0.5,
       "Y": 0.0
      },
      "handle_type": 0,
      "interpolation": 0
     },
     {
      "co": {
       "X": 29.0,
       "Y": 3.0
      },
      "handle_left": {
       "X": 0.5,
       "Y": 1.0
      },
      "handle_right": {
       "X": 0.5,
       "Y": 0.0
      },
      "handle_type": 0,
      "interpolation": 0
     }
    ]
   },
   "reader": {
    "acodec": "",
    "audio_bit_rate": 0,
    "audio_stream_index": -1,
    "audio_timebase": {
     "den": 1,
     "num": 1
    },
    "channel_layout": 4,
    "channels": 0,
    "display_ratio": {
     "den": 4,
     "num": 5
    },
    "duration": 3600.0,
    "file_size": "5832000",
    "fps": {
     "den": 1,
     "num": 30
    },
    "has_audio": false,
    "has_single_image": true,
    "has_video": true,
    "height": 576,
    "interlaced_frame": false,
    "metadata": {},
    "path": "@transitions/common/fade.svg",
    "pixel_format": -1,
    "pixel_ratio": {
     "den": 1,
     "num": 1
    },
    "sample_rate": 0,
    "top_field_first": true,
    "type": "QtImageReader",
    "vcodec": "",
    "video_bit_rate": 0,
    "video_length": "108000",
    "video_stream_index": -1,
    "video_timebase": {
     "den": 30,
     "num": 1
    },
    "width": 720
   },
   "replace_image": false,
   "id": "5F68C2C237"
  },
  {
   "layer": 1000000,
   "title": "Transition",
   "type": "Mask",
   "position": 352.26666666666665,
   "start": 0,
   "end": 0.9583333333333212,
   "brightness": {
    "Points": [
     {
      "co": {
       "X": 1.0,
       "Y": 1.0
      },
      "handle_left": {
       "X": 0.5,
       "Y": 1.0
      },
      "handle_right": {
       "X": 0.5,
       "Y": 0.0
      },
      "handle_type": 0,
      "interpolation": 0
     },
     {
      "co": {
       "X": 29.0,
       "Y": -1.0
      },
      "handle_left": {
       "X": 0.5,
       "Y": 1.0
      },
      "handle_right": {
       "X": 0.5,
       "Y": 0.0
      },
      "handle_type": 0,
      "interpolation": 0
     }
    ]
   },
   "contrast": {
    "Points": [
     {
      "co": {
       "X": 1.0,
       "Y": 3.0
      },
      "handle_left": {
       "X": 0.5,
       "Y": 1.0
      },
      "handle_right": {
       "X": 0.5,
       "Y": 0.0
      },
      "handle_type": 0,
      "interpolation": 0
     },
     {
      "co": {
       "X": 29.0,
       "Y": 3.0
      },
      "handle_left": {
       "X": 0.5,
       "Y": 1.0
      },
      "handle_right": {
       "X": 0.5,
       "Y": 0.0
      },
      "handle_type": 0,
      "interpolation": 0
     }
    ]
   },
   "reader": {
    "acodec": "",
    "audio_bit_rate": 0,
    "audio_stream_index": -1,
    "audio_timebase": {
     "den": 1,
     "num": 1
    },
    "channel_layout": 4,
    "channels": 0,
    "display_ratio": {
     "den": 4,
     "num": 5
    },
    "duration": 3600.0,
    "file_size": "5832000",
    "fps": {
     "den": 1,
     "num": 30
    },
    "has_audio": false,
    "has_single_image": true,
    "has_video": true,
    "height": 576,
    "interlaced_frame": false,
    "metadata": {},
    "path": "@transitions/common/fade.svg",
    "pixel_format": -1,
    "pixel_ratio": {
     "den": 1,
     "num": 1
    },
    "sample_rate": 0,
    "top_field_first": true,
    "type": "QtImageReader",
    "vcodec": "",
    "video_bit_rate": 0,
    "video_length": "108000",
    "video_stream_index": -1,
    "video_timebase": {
     "den": 30,
     "num": 1
    },
    "width": 720
   },
   "replace_image": false,
   "id": "77AZRML20F"
  },
  {
   "layer": 3000000,
   "title": "Transition",
   "type": "Mask",
   "position": 353.6,
   "start": 0,
   "end": 0.9583333333333212,
   "brightness": {
    "Points": [
     {
      "co": {
       "X": 1.0,
       "Y": 1.0
      },
      "handle_left": {
       "X": 0.5,
       "Y": 1.0
      },
      "handle_right": {
       "X": 0.5,
       "Y": 0.0
      },
      "handle_type": 0,
      "interpolation": 0
     },
     {
      "co": {
       "X": 29.0,
       "Y": -1.0
      },
      "handle_left": {
       "X": 0.5,
       "Y": 1.0
      },
      "handle_right": {
       "X": 0.5,
       "Y": 0.0
      },
      "handle_type": 0,
      "interpolation": 0
     }
    ]
   },
   "contrast": {
    "Points": [
     {
      "co": {
       "X": 1.0,
       "Y": 3.0
      },
      "handle_left": {
       "X": 0.5,
       "Y": 1.0
      },
      "handle_right": {
       "X": 0.5,
       "Y": 0.0
      },
      "handle_type": 0,
      "interpolation": 0
     },
     {
      "co": {
       "X": 29.0,
       "Y": 3.0
      },
      "handle_left": {
       "X": 0.5,
       "Y": 1.0
      },
      "handle_right": {
       "X": 0.5,
       "Y": 0.0
      },
      "handle_type": 0,
      "interpolation": 0
     }
    ]
   },
   "reader": {
    "acodec": "",
    "audio_bit_rate": 0,
    "audio_stream_index": -1,
    "audio_timebase": {
     "den": 1,
     "num": 1
    },
    "channel_layout": 4,
    "channels": 0,
    "display_ratio": {
     "den": 4,
     "num": 5
    },
    "duration": 3600.0,
    "file_size": "5832000",
    "fps": {
     "den": 1,
     "num": 30
    },
    "has_audio": false,
    "has_single_image": true,
    "has_video": true,
    "height": 576,
    "interlaced_frame": false,
    "metadata": {},
    "path": "@transitions/common/fade.svg",
    "pixel_format": -1,
    "pixel_ratio": {
     "den": 1,
     "num": 1
    },
    "sample_rate": 0,
    "top_field_first": true,
    "type": "QtImageReader",
    "vcodec": "",
    "video_bit_rate": 0,
    "video_length": "108000",
    "video_stream_index": -1,
    "video_timebase": {
     "den": 30,
     "num": 1
    },
    "width": 720
   },
   "replace_image": false,
   "id": "MMJBZO0PWA"
  },
  {
   "layer": 2000000,
   "title": "Transition",
   "type": "Mask",
   "position": 354.56666666666666,
   "start": 0,
   "end": 0.9583333333333212,
   "brightness": {
    "Points": [
     {
      "co": {
       "X": 1.0,
       "Y": 1.0
      },
      "handle_left": {
       "X": 0.5,
       "Y": 1.0
      },
      "handle_right": {
       "X": 0.5,
       "Y": 0.0
      },
      "handle_type": 0,
      "interpolation": 0
     },
     {
      "co": {
       "X": 29.0,
       "Y": -1.0
      },
      "handle_left": {
       "X": 0.5,
       "Y": 1.0
      },
      "handle_right": {
       "X": 0.5,
       "Y": 0.0
      },
      "handle_type": 0,
      "interpolation": 0
     }
    ]
   },
   "contrast": {
    "Points": [
     {
      "co": {
       "X": 1.0,
       "Y": 3.0
      },
      "handle_left": {
       "X": 0.5,
       "Y": 1.0
      },
      "handle_right": {
       "X": 0.5,
       "Y": 0.0
      },
      "handle_type": 0,
      "interpolation": 0
     },
     {
      "co": {
       "X": 29.0,
       "Y": 3.0
      },
      "handle_left": {
       "X": 0.5,
       "Y": 1.0
      },
      "handle_right": {
       "X": 0.5,
       "Y": 0.0
      },
      "handle_type": 0,
      "interpolation": 0
     }
    ]
   },
   "reader": {
    "acodec": "",
    "audio_bit_rate": 0,
    "audio_stream_index": -1,
    "audio_timebase": {
     "den": 1,
     "num": 1
    },
    "channel_layout": 4,
    "channels": 0,
    "display_ratio": {
     "den": 4,
     "num": 5
    },
    "duration": 3600.0,
    "file_size": "5832000",
    "fps": {
     "den": 1,
     "num": 30
    },
    "has_audio": false,
    "has_single_image": true,
    "has_video": true,
    "height": 576,
    "interlaced_frame": false,
    "metadata": {},
    "path": "@transitions/common/fade.svg",
    "pixel_format": -1,
    "pixel_ratio": {
     "den": 1,
     "num": 1
    },
    "sample_rate": 0,
    "top_field_first": true,
    "type": "QtImageReader",
    "vcodec": "",
    "video_bit_rate": 0,
    "video_length": "108000",
    "video_stream_index": -1,
    "video_timebase": {
     "den": 30,
     "num": 1
    },
    "width": 720
   },
   "replace_image": false,
   "id": "5CAWVA5QQX"
  },
  {
   "layer": 3000000,
   "title": "Transition",
   "type": "Mask",
   "position": 361.3666666666667,
   "start": 0,
   "end": 0.9583333333333212,
   "brightness": {
    "Points": [
     {
      "co": {
       "X": 1.0,
       "Y": -1.0
      },
      "handle_left": {
       "X": 0.5,
       "Y": 1.0
      },
      "handle_right": {
       "X": 0.5,
       "Y": 0.0
      },
      "handle_type": 0,
      "interpolation": 0
     },
     {
      "co": {
       "X": 29.0,
       "Y": 1.0
      },
      "handle_left": {
       "X": 0.5,
       "Y": 1.0
      },
      "handle_right": {
       "X": 0.5,
       "Y": 0.0
      },
      "handle_type": 0,
      "interpolation": 0
     }
    ]
   },
   "contrast": {
    "Points": [
     {
      "co": {
       "X": 1.0,
       "Y": 3.0
      },
      "handle_left": {
       "X": 0.5,
       "Y": 1.0
      },
      "handle_right": {
       "X": 0.5,
       "Y": 0.0
      },
      "handle_type": 0,
      "interpolation": 0
     },
     {
      "co": {
       "X": 29.0,
       "Y": 3.0
      },
      "handle_left": {
       "X": 0.5,
       "Y": 1.0
      },
      "handle_right": {
       "X": 0.5,
       "Y": 0.0
      },
      "handle_type": 0,
      "interpolation": 0
     }
    ]
   },
   "reader": {
    "acodec": "",
    "audio_bit_rate": 0,
    "audio_stream_index": -1,
    "audio_timebase": {
     "den": 1,
     "num": 1
    },
    "channel_layout": 4,
    "channels": 0,
    "display_ratio": {
     "den": 4,
     "num": 5
    },
    "duration": 3600.0,
    "file_size": "5832000",
    "fps": {
     "den": 1,
     "num": 30
    },
    "has_audio": false,
    "has_single_image": true,
    "has_video": true,
    "height": 576,
    "interlaced_frame": false,
    "metadata": {},
    "path": "@transitions/common/fade.svg",
    "pixel_format": -1,
    "pixel_ratio": {
     "den": 1,
     "num": 1
    },
    "sample_rate": 0,
    "top_field_first": true,
    "type": "QtImageReader",
    "vcodec": "",
    "video_bit_rate": 0,
    "video_length": "108000",
    "video_stream_index": -1,
    "video_timebase": {
     "den": 30,
     "num": 1
    },
    "width": 720
   },
   "replace_image": false,
   "id": "DRFLC6XURC"
  },
  {
   "layer": 2000000,
   "title": "Transition",
   "type": "Mask",
   "position": 361.3666666666667,
   "start": 0,
   "end": 0.9583333333333212,
   "brightness": {
    "Points": [
     {
      "co": {
       "X": 1.0,
       "Y": -1.0
      },
      "handle_left": {
       "X": 0.5,
       "Y": 1.0
      },
      "handle_right": {
       "X": 0.5,
       "Y": 0.0
      },
      "handle_type": 0,
      "interpolation": 0
     },
     {
      "co": {
       "X": 29.0,
       "Y": 1.0
      },
      "handle_left": {
       "X": 0.5,
       "Y": 1.0
      },
      "handle_right": {
       "X": 0.5,
       "Y": 0.0
      },
      "handle_type": 0,
      "interpolation": 0
     }
    ]
   },
   "contrast": {
    "Points": [
     {
      "co": {
       "X": 1.0,
       "Y": 3.0
      },
      "handle_left": {
       "X": 0.5,
       "Y": 1.0
      },
      "handle_right": {
       "X": 0.5,
       "Y": 0.0
      },
      "handle_type": 0,
      "interpolation": 0
     },
     {
      "co": {
       "X": 29.0,
       "Y": 3.0
      },
      "handle_left": {
       "X": 0.5,
       "Y": 1.0
      },
      "handle_right": {
       "X": 0.5,
       "Y": 0.0
      },
      "handle_type": 0,
      "interpolation": 0
     }
    ]
   },
   "reader": {
    "acodec": "",
    "audio_bit_rate": 0,
    "audio_stream_index": -1,
    "audio_timebase": {
     "den": 1,
     "num": 1
    },
    "channel_layout": 4,
    "channels": 0,
    "display_ratio": {
     "den": 4,
     "num": 5
    },
    "duration": 3600.0,
    "file_size": "5832000",
    "fps": {
     "den": 1,
     "num": 30
    },
    "has_audio": false,
    "has_single_image": true,
    "has_video": true,
    "height": 576,
    "interlaced_frame": false,
    "metadata": {},
    "path": "@transitions/common/fade.svg",
    "pixel_format": -1,
    "pixel_ratio": {
     "den": 1,
     "num": 1
    },
    "sample_rate": 0,
    "top_field_first": true,
    "type": "QtImageReader",
    "vcodec": "",
    "video_bit_rate": 0,
    "video_length": "108000",
    "video_stream_index": -1,
    "video_timebase": {
     "den": 30,
     "num": 1
    },
    "width": 720
   },
   "replace_image": false,
   "id": "QF9XRRUE6J"
  },
  {
   "id": "FC1M7VZDMT",
   "layer": 1000000,
   "title": "Transition",
   "type": "Mask",
   "position": 366.1,
   "start": 0,
   "end": 0.8551973066132632,
   "brightness": {
    "Points": [
     {
      "co": {
       "X": 1.0,
       "Y": 1.0
      },
      "handle_left": {
       "X": 0.5,
       "Y": 1.0
      },
      "handle_right": {
       "X": 0.5,
       "Y": 0.0
      },
      "handle_type": 0,
      "interpolation": 0
     },
     {
      "co": {
       "X": 27.0,
       "Y": -1.0
      },
      "handle_left": {
       "X": 0.5,
       "Y": 1.0
      },
      "handle_right": {
       "X": 0.5,
       "Y": 0.0
      },
      "handle_type": 0,
      "interpolation": 0
     }
    ]
   },
   "contrast": {
    "Points": [
     {
      "co": {
       "X": 1.0,
       "Y": 3.0
      },
      "handle_left": {
       "X": 0.5,
       "Y": 1.0
      },
      "handle_right": {
       "X": 0.5,
       "Y": 0.0
      },
      "handle_type": 0,
      "interpolation": 0
     }
    ]
   },
   "reader": {
    "acodec": "",
    "audio_bit_rate": 0,
    "audio_stream_index": -1,
    "audio_timebase": {
     "den": 1,
     "num": 1
    },
    "channel_layout": 4,
    "channels": 0,
    "display_ratio": {
     "den": 4,
     "num": 5
    },
    "duration": 3600.0,
    "file_size": "5832000",
    "fps": {
     "den": 1,
     "num": 30
    },
    "has_audio": false,
    "has_single_image": true,
    "has_video": true,
    "height": 576,
    "interlaced_frame": false,
    "metadata": {},
    "path": "@transitions/common/fade.svg",
    "pixel_format": -1,
    "pixel_ratio": {
     "den": 1,
     "num": 1
    },
    "sample_rate": 0,
    "top_field_first": true,
    "type": "QtImageReader",
    "vcodec": "",
    "video_bit_rate": 0,
    "video_length": "108000",
    "video_stream_index": -1,
    "video_timebase": {
     "den": 30,
     "num": 1
    },
    "width": 720
   },
   "replace_image": false
  },
  {
   "layer": 2000000,
   "title": "Transition",
   "type": "Mask",
   "position": 367.93333333333334,
   "start": 0,
   "end": 0.9583333333333212,
   "brightness": {
    "Points": [
     {
      "co": {
       "X": 1.0,
       "Y": 1.0
      },
      "handle_left": {
       "X": 0.5,
       "Y": 1.0
      },
      "handle_right": {
       "X": 0.5,
       "Y": 0.0
      },
      "handle_type": 0,
      "interpolation": 0
     },
     {
      "co": {
       "X": 29.0,
       "Y": -1.0
      },
      "handle_left": {
       "X": 0.5,
       "Y": 1.0
      },
      "handle_right": {
       "X": 0.5,
       "Y": 0.0
      },
      "handle_type": 0,
      "interpolation": 0
     }
    ]
   },
   "contrast": {
    "Points": [
     {
      "co": {
       "X": 1.0,
       "Y": 3.0
      },
      "handle_left": {
       "X": 0.5,
       "Y": 1.0
      },
      "handle_right": {
       "X": 0.5,
       "Y": 0.0
      },
      "handle_type": 0,
      "interpolation": 0
     },
     {
      "co": {
       "X": 29.0,
       "Y": 3.0
      },
      "handle_left": {
       "X": 0.5,
       "Y": 1.0
      },
      "handle_right": {
       "X": 0.5,
       "Y": 0.0
      },
      "handle_type": 0,
      "interpolation": 0
     }
    ]
   },
   "reader": {
    "acodec": "",
    "audio_bit_rate": 0,
    "audio_stream_index": -1,
    "audio_timebase": {
     "den": 1,
     "num": 1
    },
    "channel_layout": 4,
    "channels": 0,
    "display_ratio": {
     "den": 4,
     "num": 5
    },
    "duration": 3600.0,
    "file_size": "5832000",
    "fps": {
     "den": 1,
     "num": 30
    },
    "has_audio": false,
    "has_single_image": true,
    "has_video": true,
    "height": 576,
    "interlaced_frame": false,
    "metadata": {},
    "path": "@transitions/common/fade.svg",
    "pixel_format": -1,
    "pixel_ratio": {
     "den": 1,
     "num": 1
    },
    "sample_rate": 0,
    "top_field_first": true,
    "type": "QtImageReader",
    "vcodec": "",
    "video_bit_rate": 0,
    "video_length": "108000",
    "video_stream_index": -1,
    "video_timebase": {
     "den": 30,
     "num": 1
    },
    "width": 720
   },
   "replace_image": false,
   "id": "OHK6WN896H"
  },
  {
   "layer": 3000000,
   "title": "Transition",
   "type": "Mask",
   "position": 366.96666666666664,
   "start": 0,
   "end": 0.9583333333333212,
   "brightness": {
    "Points": [
     {
      "co": {
       "X": 1.0,
       "Y": 1.0
      },
      "handle_left": {
       "X": 0.5,
       "Y": 1.0
      },
      "handle_right": {
       "X": 0.5,
       "Y": 0.0
      },
      "handle_type": 0,
      "interpolation": 0
     },
     {
      "co": {
       "X": 29.0,
       "Y": -1.0
      },
      "handle_left": {
       "X": 0.5,
       "Y": 1.0
      },
      "handle_right": {
       "X": 0.5,
       "Y": 0.0
      },
      "handle_type": 0,
      "interpolation": 0
     }
    ]
   },
   "contrast": {
    "Points": [
     {
      "co": {
       "X": 1.0,
       "Y": 3.0
      },
      "handle_left": {
       "X": 0.5,
       "Y": 1.0
      },
      "handle_right": {
       "X": 0.5,
       "Y": 0.0
      },
      "handle_type": 0,
      "interpolation": 0
     },
     {
      "co": {
       "X": 29.0,
       "Y": 3.0
      },
      "handle_left": {
       "X": 0.5,
       "Y": 1.0
      },
      "handle_right": {
       "X": 0.5,
       "Y": 0.0
      },
      "handle_type": 0,
      "interpolation": 0
     }
    ]
   },
   "reader": {
    "acodec": "",
    "audio_bit_rate": 0,
    "audio_stream_index": -1,
    "audio_timebase": {
     "den": 1,
     "num": 1
    },
    "channel_layout": 4,
    "channels": 0,
    "display_ratio": {
     "den": 4,
     "num": 5
    },
    "duration": 3600.0,
    "file_size": "5832000",
    "fps": {
     "den": 1,
     "num": 30
    },
    "has_audio": false,
    "has_single_image": true,
    "has_video": true,
    "height": 576,
    "interlaced_frame": false,
    "metadata": {},
    "path": "@transitions/common/fade.svg",
    "pixel_format": -1,
    "pixel_ratio": {
     "den": 1,
     "num": 1
    },
    "sample_rate": 0,
    "top_field_first": true,
    "type": "QtImageReader",
    "vcodec": "",
    "video_bit_rate": 0,
    "video_length": "108000",
    "video_stream_index": -1,
    "video_timebase": {
     "den": 30,
     "num": 1
    },
    "width": 720
   },
   "replace_image": false,
   "id": "OA6OCOHDKK"
  },
  {
   "layer": 2000000,
   "title": "Transition",
   "type": "Mask",
   "position": 377.6,
   "start": 0,
   "end": 0.9583333333333212,
   "brightness": {
    "Points": [
     {
      "co": {
       "X": 1.0,
       "Y": -1.0
      },
      "handle_left": {
       "X": 0.5,
       "Y": 1.0
      },
      "handle_right": {
       "X": 0.5,
       "Y": 0.0
      },
      "handle_type": 0,
      "interpolation": 0
     },
     {
      "co": {
       "X": 29.0,
       "Y": 1.0
      },
      "handle_left": {
       "X": 0.5,
       "Y": 1.0
      },
      "handle_right": {
       "X": 0.5,
       "Y": 0.0
      },
      "handle_type": 0,
      "interpolation": 0
     }
    ]
   },
   "contrast": {
    "Points": [
     {
      "co": {
       "X": 1.0,
       "Y": 3.0
      },
      "handle_left": {
       "X": 0.5,
       "Y": 1.0
      },
      "handle_right": {
       "X": 0.5,
       "Y": 0.0
      },
      "handle_type": 0,
      "interpolation": 0
     },
     {
      "co": {
       "X": 29.0,
       "Y": 3.0
      },
      "handle_left": {
       "X": 0.5,
       "Y": 1.0
      },
      "handle_right": {
       "X": 0.5,
       "Y": 0.0
      },
      "handle_type": 0,
      "interpolation": 0
     }
    ]
   },
   "reader": {
    "acodec": "",
    "audio_bit_rate": 0,
    "audio_stream_index": -1,
    "audio_timebase": {
     "den": 1,
     "num": 1
    },
    "channel_layout": 4,
    "channels": 0,
    "display_ratio": {
     "den": 4,
     "num": 5
    },
    "duration": 3600.0,
    "file_size": "5832000",
    "fps": {
     "den": 1,
     "num": 30
    },
    "has_audio": false,
    "has_single_image": true,
    "has_video": true,
    "height": 576,
    "interlaced_frame": false,
    "metadata": {},
    "path": "@transitions/common/fade.svg",
    "pixel_format": -1,
    "pixel_ratio": {
     "den": 1,
     "num": 1
    },
    "sample_rate": 0,
    "top_field_first": true,
    "type": "QtImageReader",
    "vcodec": "",
    "video_bit_rate": 0,
    "video_length": "108000",
    "video_stream_index": -1,
    "video_timebase": {
     "den": 30,
     "num": 1
    },
    "width": 720
   },
   "replace_image": false,
   "id": "421OPHR9MK"
  },
  {
   "layer": 3000000,
   "title": "Transition",
   "type": "Mask",
   "position": 377.6,
   "start": 0,
   "end": 0.9583333333333212,
   "brightness": {
    "Points": [
     {
      "co": {
       "X": 1.0,
       "Y": -1.0
      },
      "handle_left": {
       "X": 0.5,
       "Y": 1.0
      },
      "handle_right": {
       "X": 0.5,
       "Y": 0.0
      },
      "handle_type": 0,
      "interpolation": 0
     },
     {
      "co": {
       "X": 29.0,
       "Y": 1.0
      },
      "handle_left": {
       "X": 0.5,
       "Y": 1.0
      },
      "handle_right": {
       "X": 0.5,
       "Y": 0.0
      },
      "handle_type": 0,
      "interpolation": 0
     }
    ]
   },
   "contrast": {
    "Points": [
     {
      "co": {
       "X": 1.0,
       "Y": 3.0
      },
      "handle_left": {
       "X": 0.5,
       "Y": 1.0
      },
      "handle_right": {
       "X": 0.5,
       "Y": 0.0
      },
      "handle_type": 0,
      "interpolation": 0
     },
     {
      "co": {
       "X": 29.0,
       "Y": 3.0
      },
      "handle_left": {
       "X": 0.5,
       "Y": 1.0
      },
      "handle_right": {
       "X": 0.5,
       "Y": 0.0
      },
      "handle_type": 0,
      "interpolation": 0
     }
    ]
   },
   "reader": {
    "acodec": "",
    "audio_bit_rate": 0,
    "audio_stream_index": -1,
    "audio_timebase": {
     "den": 1,
     "num": 1
    },
    "channel_layout": 4,
    "channels": 0,
    "display_ratio": {
     "den": 4,
     "num": 5
    },
    "duration": 3600.0,
    "file_size": "5832000",
    "fps": {
     "den": 1,
     "num": 30
    },
    "has_audio": false,
    "has_single_image": true,
    "has_video": true,
    "height": 576,
    "interlaced_frame": false,
    "metadata": {},
    "path": "@transitions/common/fade.svg",
    "pixel_format": -1,
    "pixel_ratio": {
     "den": 1,
     "num": 1
    },
    "sample_rate": 0,
    "top_field_first": true,
    "type": "QtImageReader",
    "vcodec": "",
    "video_bit_rate": 0,
    "video_length": "108000",
    "video_stream_index": -1,
    "video_timebase": {
     "den": 30,
     "num": 1
    },
    "width": 720
   },
   "replace_image": false,
   "id": "H386U9MYCS"
  },
  {
   "id": "DEQDSRBIJG",
   "layer": 1000000,
   "title": "Transition",
   "type": "Mask",
   "position": 381.3666666666667,
   "start": 0,
   "end": 0.5666666666666629,
   "brightness": {
    "Points": [
     {
      "co": {
       "X": 1.0,
       "Y": 1.0
      },
      "handle_left": {
       "X": 0.5,
       "Y": 1.0
      },
      "handle_right": {
       "X": 0.5,
       "Y": 0.0
      },
      "handle_type": 0,
      "interpolation": 0
     },
     {
      "co": {
       "X": 18.0,
       "Y": -1.0
      },
      "handle_left": {
       "X": 0.5,
       "Y": 1.0
      },
      "handle_right": {
       "X": 0.5,
       "Y": 0.0
      },
      "handle_type": 0,
      "interpolation": 0
     }
    ]
   },
   "contrast": {
    "Points": [
     {
      "co": {
       "X": 1.0,
       "Y": 3.0
      },
      "handle_left": {
       "X": 0.5,
       "Y": 1.0
      },
      "handle_right": {
       "X": 0.5,
       "Y": 0.0
      },
      "handle_type": 0,
      "interpolation": 0
     }
    ]
   },
   "reader": {
    "acodec": "",
    "audio_bit_rate": 0,
    "audio_stream_index": -1,
    "audio_timebase": {
     "den": 1,
     "num": 1
    },
    "channel_layout": 4,
    "channels": 0,
    "display_ratio": {
     "den": 4,
     "num": 5
    },
    "duration": 3600.0,
    "file_size": "5832000",
    "fps": {
     "den": 1,
     "num": 30
    },
    "has_audio": false,
    "has_single_image": true,
    "has_video": true,
    "height": 576,
    "interlaced_frame": false,
    "metadata": {},
    "path": "@transitions/common/fade.svg",
    "pixel_format": -1,
    "pixel_ratio": {
     "den": 1,
     "num": 1
    },
    "sample_rate": 0,
    "top_field_first": true,
    "type": "QtImageReader",
    "vcodec": "",
    "video_bit_rate": 0,
    "video_length": "108000",
    "video_stream_index": -1,
    "video_timebase": {
     "den": 30,
     "num": 1
    },
    "width": 720
   },
   "replace_image": false
  },
  {
   "layer": 3000000,
   "title": "Transition",
   "type": "Mask",
   "position": 381.93333333333334,
   "start": 0,
   "end": 0.9583333333333212,
   "brightness": {
    "Points": [
     {
      "co": {
       "X": 1.0,
       "Y": 1.0
      },
      "handle_left": {
       "X": 0.5,
       "Y": 1.0
      },
      "handle_right": {
       "X": 0.5,
       "Y": 0.0
      },
      "handle_type": 0,
      "interpolation": 0
     },
     {
      "co": {
       "X": 29.0,
       "Y": -1.0
      },
      "handle_left": {
       "X": 0.5,
       "Y": 1.0
      },
      "handle_right": {
       "X": 0.5,
       "Y": 0.0
      },
      "handle_type": 0,
      "interpolation": 0
     }
    ]
   },
   "contrast": {
    "Points": [
     {
      "co": {
       "X": 1.0,
       "Y": 3.0
      },
      "handle_left": {
       "X": 0.5,
       "Y": 1.0
      },
      "handle_right": {
       "X": 0.5,
       "Y": 0.0
      },
      "handle_type": 0,
      "interpolation": 0
     },
     {
      "co": {
       "X": 29.0,
       "Y": 3.0
      },
      "handle_left": {
       "X": 0.5,
       "Y": 1.0
      },
      "handle_right": {
       "X": 0.5,
       "Y": 0.0
      },
      "handle_type": 0,
      "interpolation": 0
     }
    ]
   },
   "reader": {
    "acodec": "",
    "audio_bit_rate": 0,
    "audio_stream_index": -1,
    "audio_timebase": {
     "den": 1,
     "num": 1
    },
    "channel_layout": 4,
    "channels": 0,
    "display_ratio": {
     "den": 4,
     "num": 5
    },
    "duration": 3600.0,
    "file_size": "5832000",
    "fps": {
     "den": 1,
     "num": 30
    },
    "has_audio": false,
    "has_single_image": true,
    "has_video": true,
    "height": 576,
    "interlaced_frame": false,
    "metadata": {},
    "path": "@transitions/common/fade.svg",
    "pixel_format": -1,
    "pixel_ratio": {
     "den": 1,
     "num": 1
    },
    "sample_rate": 0,
    "top_field_first": true,
    "type": "QtImageReader",
    "vcodec": "",
    "video_bit_rate": 0,
    "video_length": "108000",
    "video_stream_index": -1,
    "video_timebase": {
     "den": 30,
     "num": 1
    },
    "width": 720
   },
   "replace_image": false,
   "id": "DFSNRTEII0"
  },
  {
   "layer": 2000000,
   "title": "Transition",
   "type": "Mask",
   "position": 382.6666666666667,
   "start": 0,
   "end": 0.9583333333333212,
   "brightness": {
    "Points": [
     {
      "co": {
       "X": 1.0,
       "Y": 1.0
      },
      "handle_left": {
       "X": 0.5,
       "Y": 1.0
      },
      "handle_right": {
       "X": 0.5,
       "Y": 0.0
      },
      "handle_type": 0,
      "interpolation": 0
     },
     {
      "co": {
       "X": 29.0,
       "Y": -1.0
      },
      "handle_left": {
       "X": 0.5,
       "Y": 1.0
      },
      "handle_right": {
       "X": 0.5,
       "Y": 0.0
      },
      "handle_type": 0,
      "interpolation": 0
     }
    ]
   },
   "contrast": {
    "Points": [
     {
      "co": {
       "X": 1.0,
       "Y": 3.0
      },
      "handle_left": {
       "X": 0.5,
       "Y": 1.0
      },
      "handle_right": {
       "X": 0.5,
       "Y": 0.0
      },
      "handle_type": 0,
      "interpolation": 0
     },
     {
      "co": {
       "X": 29.0,
       "Y": 3.0
      },
      "handle_left": {
       "X": 0.5,
       "Y": 1.0
      },
      "handle_right": {
       "X": 0.5,
       "Y": 0.0
      },
      "handle_type": 0,
      "interpolation": 0
     }
    ]
   },
   "reader": {
    "acodec": "",
    "audio_bit_rate": 0,
    "audio_stream_index": -1,
    "audio_timebase": {
     "den": 1,
     "num": 1
    },
    "channel_layout": 4,
    "channels": 0,
    "display_ratio": {
     "den": 4,
     "num": 5
    },
    "duration": 3600.0,
    "file_size": "5832000",
    "fps": {
     "den": 1,
     "num": 30
    },
    "has_audio": false,
    "has_single_image": true,
    "has_video": true,
    "height": 576,
    "interlaced_frame": false,
    "metadata": {},
    "path": "@transitions/common/fade.svg",
    "pixel_format": -1,
    "pixel_ratio": {
     "den": 1,
     "num": 1
    },
    "sample_rate": 0,
    "top_field_first": true,
    "type": "QtImageReader",
    "vcodec": "",
    "video_bit_rate": 0,
    "video_length": "108000",
    "video_stream_index": -1,
    "video_timebase": {
     "den": 30,
     "num": 1
    },
    "width": 720
   },
   "replace_image": false,
   "id": "P8FSUID5CI"
  },
  {
   "layer": 3000000,
   "title": "Transition",
   "type": "Mask",
   "position": 389.76666666666665,
   "start": 0,
   "end": 0.9583333333333212,
   "brightness": {
    "Points": [
     {
      "co": {
       "X": 1.0,
       "Y": -1.0
      },
      "handle_left": {
       "X": 0.5,
       "Y": 1.0
      },
      "handle_right": {
       "X": 0.5,
       "Y": 0.0
      },
      "handle_type": 0,
      "interpolation": 0
     },
     {
      "co": {
       "X": 29.0,
       "Y": 1.0
      },
      "handle_left": {
       "X": 0.5,
       "Y": 1.0
      },
      "handle_right": {
       "X": 0.5,
       "Y": 0.0
      },
      "handle_type": 0,
      "interpolation": 0
     }
    ]
   },
   "contrast": {
    "Points": [
     {
      "co": {
       "X": 1.0,
       "Y": 3.0
      },
      "handle_left": {
       "X": 0.5,
       "Y": 1.0
      },
      "handle_right": {
       "X": 0.5,
       "Y": 0.0
      },
      "handle_type": 0,
      "interpolation": 0
     },
     {
      "co": {
       "X": 29.0,
       "Y": 3.0
      },
      "handle_left": {
       "X": 0.5,
       "Y": 1.0
      },
      "handle_right": {
       "X": 0.5,
       "Y": 0.0
      },
      "handle_type": 0,
      "interpolation": 0
     }
    ]
   },
   "reader": {
    "acodec": "",
    "audio_bit_rate": 0,
    "audio_stream_index": -1,
    "audio_timebase": {
     "den": 1,
     "num": 1
    },
    "channel_layout": 4,
    "channels": 0,
    "display_ratio": {
     "den": 4,
     "num": 5
    },
    "duration": 3600.0,
    "file_size": "5832000",
    "fps": {
     "den": 1,
     "num": 30
    },
    "has_audio": false,
    "has_single_image": true,
    "has_video": true,
    "height": 576,
    "interlaced_frame": false,
    "metadata": {},
    "path": "@transitions/common/fade.svg",
    "pixel_format": -1,
    "pixel_ratio": {
     "den": 1,
     "num": 1
    },
    "sample_rate": 0,
    "top_field_first": true,
    "type": "QtImageReader",
    "vcodec": "",
    "video_bit_rate": 0,
    "video_length": "108000",
    "video_stream_index": -1,
    "video_timebase": {
     "den": 30,
     "num": 1
    },
    "width": 720
   },
   "replace_image": false,
   "id": "VBQ9Z01OL0"
  },
  {
   "layer": 2000000,
   "title": "Transition",
   "type": "Mask",
   "position": 389.76666666666665,
   "start": 0,
   "end": 0.9583333333333212,
   "brightness": {
    "Points": [
     {
      "co": {
       "X": 1.0,
       "Y": -1.0
      },
      "handle_left": {
       "X": 0.5,
       "Y": 1.0
      },
      "handle_right": {
       "X": 0.5,
       "Y": 0.0
      },
      "handle_type": 0,
      "interpolation": 0
     },
     {
      "co": {
       "X": 29.0,
       "Y": 1.0
      },
      "handle_left": {
       "X": 0.5,
       "Y": 1.0
      },
      "handle_right": {
       "X": 0.5,
       "Y": 0.0
      },
      "handle_type": 0,
      "interpolation": 0
     }
    ]
   },
   "contrast": {
    "Points": [
     {
      "co": {
       "X": 1.0,
       "Y": 3.0
      },
      "handle_left": {
       "X": 0.5,
       "Y": 1.0
      },
      "handle_right": {
       "X": 0.5,
       "Y": 0.0
      },
      "handle_type": 0,
      "interpolation": 0
     },
     {
      "co": {
       "X": 29.0,
       "Y": 3.0
      },
      "handle_left": {
       "X": 0.5,
       "Y": 1.0
      },
      "handle_right": {
       "X": 0.5,
       "Y": 0.0
      },
      "handle_type": 0,
      "interpolation": 0
     }
    ]
   },
   "reader": {
    "acodec": "",
    "audio_bit_rate": 0,
    "audio_stream_index": -1,
    "audio_timebase": {
     "den": 1,
     "num": 1
    },
    "channel_layout": 4,
    "channels": 0,
    "display_ratio": {
     "den": 4,
     "num": 5
    },
    "duration": 3600.0,
    "file_size": "5832000",
    "fps": {
     "den": 1,
     "num": 30
    },
    "has_audio": false,
    "has_single_image": true,
    "has_video": true,
    "height": 576,
    "interlaced_frame": false,
    "metadata": {},
    "path": "@transitions/common/fade.svg",
    "pixel_format": -1,
    "pixel_ratio": {
     "den": 1,
     "num": 1
    },
    "sample_rate": 0,
    "top_field_first": true,
    "type": "QtImageReader",
    "vcodec": "",
    "video_bit_rate": 0,
    "video_length": "108000",
    "video_stream_index": -1,
    "video_timebase": {
     "den": 30,
     "num": 1
    },
    "width": 720
   },
   "replace_image": false,
   "id": "IEZZK69CXI"
  },
  {
   "layer": 1000000,
   "title": "Transition",
   "type": "Mask",
   "position": 401.3666666666667,
   "start": 0,
   "end": 0.9583333333333212,
   "brightness": {
    "Points": [
     {
      "co": {
       "X": 1.0,
       "Y": -1.0
      },
      "handle_left": {
       "X": 0.5,
       "Y": 1.0
      },
      "handle_right": {
       "X": 0.5,
       "Y": 0.0
      },
      "handle_type": 0,
      "interpolation": 0
     },
     {
      "co": {
       "X": 29.0,
       "Y": 1.0
      },
      "handle_left": {
       "X": 0.5,
       "Y": 1.0
      },
      "handle_right": {
       "X": 0.5,
       "Y": 0.0
      },
      "handle_type": 0,
      "interpolation": 0
     }
    ]
   },
   "contrast": {
    "Points": [
     {
      "co": {
       "X": 1.0,
       "Y": 3.0
      },
      "handle_left": {
       "X": 0.5,
       "Y": 1.0
      },
      "handle_right": {
       "X": 0.5,
       "Y": 0.0
      },
      "handle_type": 0,
      "interpolation": 0
     },
     {
      "co": {
       "X": 29.0,
       "Y": 3.0
      },
      "handle_left": {
       "X": 0.5,
       "Y": 1.0
      },
      "handle_right": {
       "X": 0.5,
       "Y": 0.0
      },
      "handle_type": 0,
      "interpolation": 0
     }
    ]
   },
   "reader": {
    "acodec": "",
    "audio_bit_rate": 0,
    "audio_stream_index": -1,
    "audio_timebase": {
     "den": 1,
     "num": 1
    },
    "channel_layout": 4,
    "channels": 0,
    "display_ratio": {
     "den": 4,
     "num": 5
    },
    "duration": 3600.0,
    "file_size": "5832000",
    "fps": {
     "den": 1,
     "num": 30
    },
    "has_audio": false,
    "has_single_image": true,
    "has_video": true,
    "height": 576,
    "interlaced_frame": false,
    "metadata": {},
    "path": "@transitions/common/fade.svg",
    "pixel_format": -1,
    "pixel_ratio": {
     "den": 1,
     "num": 1
    },
    "sample_rate": 0,
    "top_field_first": true,
    "type": "QtImageReader",
    "vcodec": "",
    "video_bit_rate": 0,
    "video_length": "108000",
    "video_stream_index": -1,
    "video_timebase": {
     "den": 30,
     "num": 1
    },
    "width": 720
   },
   "replace_image": false,
   "id": "GJ22WRRCCZ"
  },
  {
   "layer": 3000000,
   "title": "Transition",
   "type": "Mask",
   "position": 402.3333333333333,
   "start": 0,
   "end": 0.9583333333333212,
   "brightness": {
    "Points": [
     {
      "co": {
       "X": 1.0,
       "Y": 1.0
      },
      "handle_left": {
       "X": 0.5,
       "Y": 1.0
      },
      "handle_right": {
       "X": 0.5,
       "Y": 0.0
      },
      "handle_type": 0,
      "interpolation": 0
     },
     {
      "co": {
       "X": 29.0,
       "Y": -1.0
      },
      "handle_left": {
       "X": 0.5,
       "Y": 1.0
      },
      "handle_right": {
       "X": 0.5,
       "Y": 0.0
      },
      "handle_type": 0,
      "interpolation": 0
     }
    ]
   },
   "contrast": {
    "Points": [
     {
      "co": {
       "X": 1.0,
       "Y": 3.0
      },
      "handle_left": {
       "X": 0.5,
       "Y": 1.0
      },
      "handle_right": {
       "X": 0.5,
       "Y": 0.0
      },
      "handle_type": 0,
      "interpolation": 0
     },
     {
      "co": {
       "X": 29.0,
       "Y": 3.0
      },
      "handle_left": {
       "X": 0.5,
       "Y": 1.0
      },
      "handle_right": {
       "X": 0.5,
       "Y": 0.0
      },
      "handle_type": 0,
      "interpolation": 0
     }
    ]
   },
   "reader": {
    "acodec": "",
    "audio_bit_rate": 0,
    "audio_stream_index": -1,
    "audio_timebase": {
     "den": 1,
     "num": 1
    },
    "channel_layout": 4,
    "channels": 0,
    "display_ratio": {
     "den": 4,
     "num": 5
    },
    "duration": 3600.0,
    "file_size": "5832000",
    "fps": {
     "den": 1,
     "num": 30
    },
    "has_audio": false,
    "has_single_image": true,
    "has_video": true,
    "height": 576,
    "interlaced_frame": false,
    "metadata": {},
    "path": "@transitions/common/fade.svg",
    "pixel_format": -1,
    "pixel_ratio": {
     "den": 1,
     "num": 1
    },
    "sample_rate": 0,
    "top_field_first": true,
    "type": "QtImageReader",
    "vcodec": "",
    "video_bit_rate": 0,
    "video_length": "108000",
    "video_stream_index": -1,
    "video_timebase": {
     "den": 30,
     "num": 1
    },
    "width": 720
   },
   "replace_image": false,
   "id": "4P7MOTCP3S"
  },
  {
   "layer": 2000000,
   "title": "Transition",
   "type": "Mask",
   "position": 403.3,
   "start": 0,
   "end": 0.9583333333333212,
   "brightness": {
    "Points": [
     {
      "co": {
       "X": 1.0,
       "Y": 1.0
      },
      "handle_left": {
       "X": 0.5,
       "Y": 1.0
      },
      "handle_right": {
       "X": 0.5,
       "Y": 0.0
      },
      "handle_type": 0,
      "interpolation": 0
     },
     {
      "co": {
       "X": 29.0,
       "Y": -1.0
      },
      "handle_left": {
       "X": 0.5,
       "Y": 1.0
      },
      "handle_right": {
       "X": 0.5,
       "Y": 0.0
      },
      "handle_type": 0,
      "interpolation": 0
     }
    ]
   },
   "contrast": {
    "Points": [
     {
      "co": {
       "X": 1.0,
       "Y": 3.0
      },
      "handle_left": {
       "X": 0.5,
       "Y": 1.0
      },
      "handle_right": {
       "X": 0.5,
       "Y": 0.0
      },
      "handle_type": 0,
      "interpolation": 0
     },
     {
      "co": {
       "X": 29.0,
       "Y": 3.0
      },
      "handle_left": {
       "X": 0.5,
       "Y": 1.0
      },
      "handle_right": {
       "X": 0.5,
       "Y": 0.0
      },
      "handle_type": 0,
      "interpolation": 0
     }
    ]
   },
   "reader": {
    "acodec": "",
    "audio_bit_rate": 0,
    "audio_stream_index": -1,
    "audio_timebase": {
     "den": 1,
     "num": 1
    },
    "channel_layout": 4,
    "channels": 0,
    "display_ratio": {
     "den": 4,
     "num": 5
    },
    "duration": 3600.0,
    "file_size": "5832000",
    "fps": {
     "den": 1,
     "num": 30
    },
    "has_audio": false,
    "has_single_image": true,
    "has_video": true,
    "height": 576,
    "interlaced_frame": false,
    "metadata": {},
    "path": "@transitions/common/fade.svg",
    "pixel_format": -1,
    "pixel_ratio": {
     "den": 1,
     "num": 1
    },
    "sample_rate": 0,
    "top_field_first": true,
    "type": "QtImageReader",
    "vcodec": "",
    "video_bit_rate": 0,
    "video_length": "108000",
    "video_stream_index": -1,
    "video_timebase": {
     "den": 30,
     "num": 1
    },
    "width": 720
   },
   "replace_image": false,
   "id": "PGG0YMHOIW"
  },
  {
   "layer": 1000000,
   "title": "Transition",
   "type": "Mask",
   "position": 409.93333333333334,
   "start": 0,
   "end": 0.9583333333333212,
   "brightness": {
    "Points": [
     {
      "co": {
       "X": 1.0,
       "Y": 1.0
      },
      "handle_left": {
       "X": 0.5,
       "Y": 1.0
      },
      "handle_right": {
       "X": 0.5,
       "Y": 0.0
      },
      "handle_type": 0,
      "interpolation": 0
     },
     {
      "co": {
       "X": 29.0,
       "Y": -1.0
      },
      "handle_left": {
       "X": 0.5,
       "Y": 1.0
      },
      "handle_right": {
       "X": 0.5,
       "Y": 0.0
      },
      "handle_type": 0,
      "interpolation": 0
     }
    ]
   },
   "contrast": {
    "Points": [
     {
      "co": {
       "X": 1.0,
       "Y": 3.0
      },
      "handle_left": {
       "X": 0.5,
       "Y": 1.0
      },
      "handle_right": {
       "X": 0.5,
       "Y": 0.0
      },
      "handle_type": 0,
      "interpolation": 0
     },
     {
      "co": {
       "X": 29.0,
       "Y": 3.0
      },
      "handle_left": {
       "X": 0.5,
       "Y": 1.0
      },
      "handle_right": {
       "X": 0.5,
       "Y": 0.0
      },
      "handle_type": 0,
      "interpolation": 0
     }
    ]
   },
   "reader": {
    "acodec": "",
    "audio_bit_rate": 0,
    "audio_stream_index": -1,
    "audio_timebase": {
     "den": 1,
     "num": 1
    },
    "channel_layout": 4,
    "channels": 0,
    "display_ratio": {
     "den": 4,
     "num": 5
    },
    "duration": 3600.0,
    "file_size": "5832000",
    "fps": {
     "den": 1,
     "num": 30
    },
    "has_audio": false,
    "has_single_image": true,
    "has_video": true,
    "height": 576,
    "interlaced_frame": false,
    "metadata": {},
    "path": "@transitions/common/fade.svg",
    "pixel_format": -1,
    "pixel_ratio": {
     "den": 1,
     "num": 1
    },
    "sample_rate": 0,
    "top_field_first": true,
    "type": "QtImageReader",
    "vcodec": "",
    "video_bit_rate": 0,
    "video_length": "108000",
    "video_stream_index": -1,
    "video_timebase": {
     "den": 30,
     "num": 1
    },
    "width": 720
   },
   "replace_image": false,
   "id": "YM3R94HVH1"
  },
  {
   "layer": 2000000,
   "title": "Transition",
   "type": "Mask",
   "position": 415.26666666666665,
   "start": 0,
   "end": 0.9583333333333212,
   "brightness": {
    "Points": [
     {
      "co": {
       "X": 1.0,
       "Y": -1.0
      },
      "handle_left": {
       "X": 0.5,
       "Y": 1.0
      },
      "handle_right": {
       "X": 0.5,
       "Y": 0.0
      },
      "handle_type": 0,
      "interpolation": 0
     },
     {
      "co": {
       "X": 29.0,
       "Y": 1.0
      },
      "handle_left": {
       "X": 0.5,
       "Y": 1.0
      },
      "handle_right": {
       "X": 0.5,
       "Y": 0.0
      },
      "handle_type": 0,
      "interpolation": 0
     }
    ]
   },
   "contrast": {
    "Points": [
     {
      "co": {
       "X": 1.0,
       "Y": 3.0
      },
      "handle_left": {
       "X": 0.5,
       "Y": 1.0
      },
      "handle_right": {
       "X": 0.5,
       "Y": 0.0
      },
      "handle_type": 0,
      "interpolation": 0
     },
     {
      "co": {
       "X": 29.0,
       "Y": 3.0
      },
      "handle_left": {
       "X": 0.5,
       "Y": 1.0
      },
      "handle_right": {
       "X": 0.5,
       "Y": 0.0
      },
      "handle_type": 0,
      "interpolation": 0
     }
    ]
   },
   "reader": {
    "acodec": "",
    "audio_bit_rate": 0,
    "audio_stream_index": -1,
    "audio_timebase": {
     "den": 1,
     "num": 1
    },
    "channel_layout": 4,
    "channels": 0,
    "display_ratio": {
     "den": 4,
     "num": 5
    },
    "duration": 3600.0,
    "file_size": "5832000",
    "fps": {
     "den": 1,
     "num": 30
    },
    "has_audio": false,
    "has_single_image": true,
    "has_video": true,
    "height": 576,
    "interlaced_frame": false,
    "metadata": {},
    "path": "@transitions/common/fade.svg",
    "pixel_format": -1,
    "pixel_ratio": {
     "den": 1,
     "num": 1
    },
    "sample_rate": 0,
    "top_field_first": true,
    "type": "QtImageReader",
    "vcodec": "",
    "video_bit_rate": 0,
    "video_length": "108000",
    "video_stream_index": -1,
    "video_timebase": {
     "den": 30,
     "num": 1
    },
    "width": 720
   },
   "replace_image": false,
   "id": "26OJ2CVQNP"
  },
  {
   "layer": 1000000,
   "title": "Transition",
   "type": "Mask",
   "position": 415.26666666666665,
   "start": 0,
   "end": 0.9583333333333212,
   "brightness": {
    "Points": [
     {
      "co": {
       "X": 1.0,
       "Y": -1.0
      },
      "handle_left": {
       "X": 0.5,
       "Y": 1.0
      },
      "handle_right": {
       "X": 0.5,
       "Y": 0.0
      },
      "handle_type": 0,
      "interpolation": 0
     },
     {
      "co": {
       "X": 29.0,
       "Y": 1.0
      },
      "handle_left": {
       "X": 0.5,
       "Y": 1.0
      },
      "handle_right": {
       "X": 0.5,
       "Y": 0.0
      },
      "handle_type": 0,
      "interpolation": 0
     }
    ]
   },
   "contrast": {
    "Points": [
     {
      "co": {
       "X": 1.0,
       "Y": 3.0
      },
      "handle_left": {
       "X": 0.5,
       "Y": 1.0
      },
      "handle_right": {
       "X": 0.5,
       "Y": 0.0
      },
      "handle_type": 0,
      "interpolation": 0
     },
     {
      "co": {
       "X": 29.0,
       "Y": 3.0
      },
      "handle_left": {
       "X": 0.5,
       "Y": 1.0
      },
      "handle_right": {
       "X": 0.5,
       "Y": 0.0
      },
      "handle_type": 0,
      "interpolation": 0
     }
    ]
   },
   "reader": {
    "acodec": "",
    "audio_bit_rate": 0,
    "audio_stream_index": -1,
    "audio_timebase": {
     "den": 1,
     "num": 1
    },
    "channel_layout": 4,
    "channels": 0,
    "display_ratio": {
     "den": 4,
     "num": 5
    },
    "duration": 3600.0,
    "file_size": "5832000",
    "fps": {
     "den": 1,
     "num": 30
    },
    "has_audio": false,
    "has_single_image": true,
    "has_video": true,
    "height": 576,
    "interlaced_frame": false,
    "metadata": {},
    "path": "@transitions/common/fade.svg",
    "pixel_format": -1,
    "pixel_ratio": {
     "den": 1,
     "num": 1
    },
    "sample_rate": 0,
    "top_field_first": true,
    "type": "QtImageReader",
    "vcodec": "",
    "video_bit_rate": 0,
    "video_length": "108000",
    "video_stream_index": -1,
    "video_timebase": {
     "den": 30,
     "num": 1
    },
    "width": 720
   },
   "replace_image": false,
   "id": "FAALAWUR0G"
  },
  {
   "layer": 2000000,
   "title": "Transition",
   "type": "Mask",
   "position": 416.23333333333335,
   "start": 0,
   "end": 0.9583333333333212,
   "brightness": {
    "Points": [
     {
      "co": {
       "X": 1.0,
       "Y": 1.0
      },
      "handle_left": {
       "X": 0.5,
       "Y": 1.0
      },
      "handle_right": {
       "X": 0.5,
       "Y": 0.0
      },
      "handle_type": 0,
      "interpolation": 0
     },
     {
      "co": {
       "X": 29.0,
       "Y": -1.0
      },
      "handle_left": {
       "X": 0.5,
       "Y": 1.0
      },
      "handle_right": {
       "X": 0.5,
       "Y": 0.0
      },
      "handle_type": 0,
      "interpolation": 0
     }
    ]
   },
   "contrast": {
    "Points": [
     {
      "co": {
       "X": 1.0,
       "Y": 3.0
      },
      "handle_left": {
       "X": 0.5,
       "Y": 1.0
      },
      "handle_right": {
       "X": 0.5,
       "Y": 0.0
      },
      "handle_type": 0,
      "interpolation": 0
     },
     {
      "co": {
       "X": 29.0,
       "Y": 3.0
      },
      "handle_left": {
       "X": 0.5,
       "Y": 1.0
      },
      "handle_right": {
       "X": 0.5,
       "Y": 0.0
      },
      "handle_type": 0,
      "interpolation": 0
     }
    ]
   },
   "reader": {
    "acodec": "",
    "audio_bit_rate": 0,
    "audio_stream_index": -1,
    "audio_timebase": {
     "den": 1,
     "num": 1
    },
    "channel_layout": 4,
    "channels": 0,
    "display_ratio": {
     "den": 4,
     "num": 5
    },
    "duration": 3600.0,
    "file_size": "5832000",
    "fps": {
     "den": 1,
     "num": 30
    },
    "has_audio": false,
    "has_single_image": true,
    "has_video": true,
    "height": 576,
    "interlaced_frame": false,
    "metadata": {},
    "path": "@transitions/common/fade.svg",
    "pixel_format": -1,
    "pixel_ratio": {
     "den": 1,
     "num": 1
    },
    "sample_rate": 0,
    "top_field_first": true,
    "type": "QtImageReader",
    "vcodec": "",
    "video_bit_rate": 0,
    "video_length": "108000",
    "video_stream_index": -1,
    "video_timebase": {
     "den": 30,
     "num": 1
    },
    "width": 720
   },
   "replace_image": false,
   "id": "ULXPUMT6PO"
  },
  {
   "layer": 2000000,
   "title": "Transition",
   "type": "Mask",
   "position": 419.9,
   "start": 0,
   "end": 0.9583333333333212,
   "brightness": {
    "Points": [
     {
      "co": {
       "X": 1.0,
       "Y": -1.0
      },
      "handle_left": {
       "X": 0.5,
       "Y": 1.0
      },
      "handle_right": {
       "X": 0.5,
       "Y": 0.0
      },
      "handle_type": 0,
      "interpolation": 0
     },
     {
      "co": {
       "X": 29.0,
       "Y": 1.0
      },
      "handle_left": {
       "X": 0.5,
       "Y": 1.0
      },
      "handle_right": {
       "X": 0.5,
       "Y": 0.0
      },
      "handle_type": 0,
      "interpolation": 0
     }
    ]
   },
   "contrast": {
    "Points": [
     {
      "co": {
       "X": 1.0,
       "Y": 3.0
      },
      "handle_left": {
       "X": 0.5,
       "Y": 1.0
      },
      "handle_right": {
       "X": 0.5,
       "Y": 0.0
      },
      "handle_type": 0,
      "interpolation": 0
     },
     {
      "co": {
       "X": 29.0,
       "Y": 3.0
      },
      "handle_left": {
       "X": 0.5,
       "Y": 1.0
      },
      "handle_right": {
       "X": 0.5,
       "Y": 0.0
      },
      "handle_type": 0,
      "interpolation": 0
     }
    ]
   },
   "reader": {
    "acodec": "",
    "audio_bit_rate": 0,
    "audio_stream_index": -1,
    "audio_timebase": {
     "den": 1,
     "num": 1
    },
    "channel_layout": 4,
    "channels": 0,
    "display_ratio": {
     "den": 4,
     "num": 5
    },
    "duration": 3600.0,
    "file_size": "5832000",
    "fps": {
     "den": 1,
     "num": 30
    },
    "has_audio": false,
    "has_single_image": true,
    "has_video": true,
    "height": 576,
    "interlaced_frame": false,
    "metadata": {},
    "path": "@transitions/common/fade.svg",
    "pixel_format": -1,
    "pixel_ratio": {
     "den": 1,
     "num": 1
    },
    "sample_rate": 0,
    "top_field_first": true,
    "type": "QtImageReader",
    "vcodec": "",
    "video_bit_rate": 0,
    "video_length": "108000",
    "video_stream_index": -1,
    "video_timebase": {
     "den": 30,
     "num": 1
    },
    "width": 720
   },
   "replace_image": false,
   "id": "DYLW8V9WX8"
  },
  {
   "layer": 3000000,
   "title": "Transition",
   "type": "Mask",
   "position": 419.9,
   "start": 0,
   "end": 0.9583333333333212,
   "brightness": {
    "Points": [
     {
      "co": {
       "X": 1.0,
       "Y": -1.0
      },
      "handle_left": {
       "X": 0.5,
       "Y": 1.0
      },
      "handle_right": {
       "X": 0.5,
       "Y": 0.0
      },
      "handle_type": 0,
      "interpolation": 0
     },
     {
      "co": {
       "X": 29.0,
       "Y": 1.0
      },
      "handle_left": {
       "X": 0.5,
       "Y": 1.0
      },
      "handle_right": {
       "X": 0.5,
       "Y": 0.0
      },
      "handle_type": 0,
      "interpolation": 0
     }
    ]
   },
   "contrast": {
    "Points": [
     {
      "co": {
       "X": 1.0,
       "Y": 3.0
      },
      "handle_left": {
       "X": 0.5,
       "Y": 1.0
      },
      "handle_right": {
       "X": 0.5,
       "Y": 0.0
      },
      "handle_type": 0,
      "interpolation": 0
     },
     {
      "co": {
       "X": 29.0,
       "Y": 3.0
      },
      "handle_left": {
       "X": 0.5,
       "Y": 1.0
      },
      "handle_right": {
       "X": 0.5,
       "Y": 0.0
      },
      "handle_type": 0,
      "interpolation": 0
     }
    ]
   },
   "reader": {
    "acodec": "",
    "audio_bit_rate": 0,
    "audio_stream_index": -1,
    "audio_timebase": {
     "den": 1,
     "num": 1
    },
    "channel_layout": 4,
    "channels": 0,
    "display_ratio": {
     "den": 4,
     "num": 5
    },
    "duration": 3600.0,
    "file_size": "5832000",
    "fps": {
     "den": 1,
     "num": 30
    },
    "has_audio": false,
    "has_single_image": true,
    "has_video": true,
    "height": 576,
    "interlaced_frame": false,
    "metadata": {},
    "path": "@transitions/common/fade.svg",
    "pixel_format": -1,
    "pixel_ratio": {
     "den": 1,
     "num": 1
    },
    "sample_rate": 0,
    "top_field_first": true,
    "type": "QtImageReader",
    "vcodec": "",
    "video_bit_rate": 0,
    "video_length": "108000",
    "video_stream_index": -1,
    "video_timebase": {
     "den": 30,
     "num": 1
    },
    "width": 720
   },
   "replace_image": false,
   "id": "CXGUT073SE"
  },
  {
   "layer": 1000000,
   "title": "Transition",
   "type": "Mask",
   "position": 420.8666666666667,
   "start": 0,
   "end": 0.9583333333333212,
   "brightness": {
    "Points": [
     {
      "co": {
       "X": 1.0,
       "Y": 1.0
      },
      "handle_left": {
       "X": 0.5,
       "Y": 1.0
      },
      "handle_right": {
       "X": 0.5,
       "Y": 0.0
      },
      "handle_type": 0,
      "interpolation": 0
     },
     {
      "co": {
       "X": 29.0,
       "Y": -1.0
      },
      "handle_left": {
       "X": 0.5,
       "Y": 1.0
      },
      "handle_right": {
       "X": 0.5,
       "Y": 0.0
      },
      "handle_type": 0,
      "interpolation": 0
     }
    ]
   },
   "contrast": {
    "Points": [
     {
      "co": {
       "X": 1.0,
       "Y": 3.0
      },
      "handle_left": {
       "X": 0.5,
       "Y": 1.0
      },
      "handle_right": {
       "X": 0.5,
       "Y": 0.0
      },
      "handle_type": 0,
      "interpolation": 0
     },
     {
      "co": {
       "X": 29.0,
       "Y": 3.0
      },
      "handle_left": {
       "X": 0.5,
       "Y": 1.0
      },
      "handle_right": {
       "X": 0.5,
       "Y": 0.0
      },
      "handle_type": 0,
      "interpolation": 0
     }
    ]
   },
   "reader": {
    "acodec": "",
    "audio_bit_rate": 0,
    "audio_stream_index": -1,
    "audio_timebase": {
     "den": 1,
     "num": 1
    },
    "channel_layout": 4,
    "channels": 0,
    "display_ratio": {
     "den": 4,
     "num": 5
    },
    "duration": 3600.0,
    "file_size": "5832000",
    "fps": {
     "den": 1,
     "num": 30
    },
    "has_audio": false,
    "has_single_image": true,
    "has_video": true,
    "height": 576,
    "interlaced_frame": false,
    "metadata": {},
    "path": "@transitions/common/fade.svg",
    "pixel_format": -1,
    "pixel_ratio": {
     "den": 1,
     "num": 1
    },
    "sample_rate": 0,
    "top_field_first": true,
    "type": "QtImageReader",
    "vcodec": "",
    "video_bit_rate": 0,
    "video_length": "108000",
    "video_stream_index": -1,
    "video_timebase": {
     "den": 30,
     "num": 1
    },
    "width": 720
   },
   "replace_image": false,
   "id": "UU98446Y5E"
  },
  {
   "layer": 2000000,
   "title": "Transition",
   "type": "Mask",
   "position": 421.4,
   "start": 0,
   "end": 0.9583333333333212,
   "brightness": {
    "Points": [
     {
      "co": {
       "X": 1.0,
       "Y": 1.0
      },
      "handle_left": {
       "X": 0.5,
       "Y": 1.0
      },
      "handle_right": {
       "X": 0.5,
       "Y": 0.0
      },
      "handle_type": 0,
      "interpolation": 0
     },
     {
      "co": {
       "X": 29.0,
       "Y": -1.0
      },
      "handle_left": {
       "X": 0.5,
       "Y": 1.0
      },
      "handle_right": {
       "X": 0.5,
       "Y": 0.0
      },
      "handle_type": 0,
      "interpolation": 0
     }
    ]
   },
   "contrast": {
    "Points": [
     {
      "co": {
       "X": 1.0,
       "Y": 3.0
      },
      "handle_left": {
       "X": 0.5,
       "Y": 1.0
      },
      "handle_right": {
       "X": 0.5,
       "Y": 0.0
      },
      "handle_type": 0,
      "interpolation": 0
     },
     {
      "co": {
       "X": 29.0,
       "Y": 3.0
      },
      "handle_left": {
       "X": 0.5,
       "Y": 1.0
      },
      "handle_right": {
       "X": 0.5,
       "Y": 0.0
      },
      "handle_type": 0,
      "interpolation": 0
     }
    ]
   },
   "reader": {
    "acodec": "",
    "audio_bit_rate": 0,
    "audio_stream_index": -1,
    "audio_timebase": {
     "den": 1,
     "num": 1
    },
    "channel_layout": 4,
    "channels": 0,
    "display_ratio": {
     "den": 4,
     "num": 5
    },
    "duration": 3600.0,
    "file_size": "5832000",
    "fps": {
     "den": 1,
     "num": 30
    },
    "has_audio": false,
    "has_single_image": true,
    "has_video": true,
    "height": 576,
    "interlaced_frame": false,
    "metadata": {},
    "path": "@transitions/common/fade.svg",
    "pixel_format": -1,
    "pixel_ratio": {
     "den": 1,
     "num": 1
    },
    "sample_rate": 0,
    "top_field_first": true,
    "type": "QtImageReader",
    "vcodec": "",
    "video_bit_rate": 0,
    "video_length": "108000",
    "video_stream_index": -1,
    "video_timebase": {
     "den": 30,
     "num": 1
    },
    "width": 720
   },
   "replace_image": false,
   "id": "OX49IKX2Z1"
  },
  {
   "layer": 2000000,
   "title": "Transition",
   "type": "Mask",
   "position": 424.8333333333333,
   "start": 0,
   "end": 0.9583333333333212,
   "brightness": {
    "Points": [
     {
      "co": {
       "X": 1.0,
       "Y": -1.0
      },
      "handle_left": {
       "X": 0.5,
       "Y": 1.0
      },
      "handle_right": {
       "X": 0.5,
       "Y": 0.0
      },
      "handle_type": 0,
      "interpolation": 0
     },
     {
      "co": {
       "X": 29.0,
       "Y": 1.0
      },
      "handle_left": {
       "X": 0.5,
       "Y": 1.0
      },
      "handle_right": {
       "X": 0.5,
       "Y": 0.0
      },
      "handle_type": 0,
      "interpolation": 0
     }
    ]
   },
   "contrast": {
    "Points": [
     {
      "co": {
       "X": 1.0,
       "Y": 3.0
      },
      "handle_left": {
       "X": 0.5,
       "Y": 1.0
      },
      "handle_right": {
       "X": 0.5,
       "Y": 0.0
      },
      "handle_type": 0,
      "interpolation": 0
     },
     {
      "co": {
       "X": 29.0,
       "Y": 3.0
      },
      "handle_left": {
       "X": 0.5,
       "Y": 1.0
      },
      "handle_right": {
       "X": 0.5,
       "Y": 0.0
      },
      "handle_type": 0,
      "interpolation": 0
     }
    ]
   },
   "reader": {
    "acodec": "",
    "audio_bit_rate": 0,
    "audio_stream_index": -1,
    "audio_timebase": {
     "den": 1,
     "num": 1
    },
    "channel_layout": 4,
    "channels": 0,
    "display_ratio": {
     "den": 4,
     "num": 5
    },
    "duration": 3600.0,
    "file_size": "5832000",
    "fps": {
     "den": 1,
     "num": 30
    },
    "has_audio": false,
    "has_single_image": true,
    "has_video": true,
    "height": 576,
    "interlaced_frame": false,
    "metadata": {},
    "path": "@transitions/common/fade.svg",
    "pixel_format": -1,
    "pixel_ratio": {
     "den": 1,
     "num": 1
    },
    "sample_rate": 0,
    "top_field_first": true,
    "type": "QtImageReader",
    "vcodec": "",
    "video_bit_rate": 0,
    "video_length": "108000",
    "video_stream_index": -1,
    "video_timebase": {
     "den": 30,
     "num": 1
    },
    "width": 720
   },
   "replace_image": false,
   "id": "6H3NHSU7NW"
  },
  {
   "layer": 1000000,
   "title": "Transition",
   "type": "Mask",
   "position": 424.8333333333333,
   "start": 0,
   "end": 0.9583333333333212,
   "brightness": {
    "Points": [
     {
      "co": {
       "X": 1.0,
       "Y": -1.0
      },
      "handle_left": {
       "X": 0.5,
       "Y": 1.0
      },
      "handle_right": {
       "X": 0.5,
       "Y": 0.0
      },
      "handle_type": 0,
      "interpolation": 0
     },
     {
      "co": {
       "X": 29.0,
       "Y": 1.0
      },
      "handle_left": {
       "X": 0.5,
       "Y": 1.0
      },
      "handle_right": {
       "X": 0.5,
       "Y": 0.0
      },
      "handle_type": 0,
      "interpolation": 0
     }
    ]
   },
   "contrast": {
    "Points": [
     {
      "co": {
       "X": 1.0,
       "Y": 3.0
      },
      "handle_left": {
       "X": 0.5,
       "Y": 1.0
      },
      "handle_right": {
       "X": 0.5,
       "Y": 0.0
      },
      "handle_type": 0,
      "interpolation": 0
     },
     {
      "co": {
       "X": 29.0,
       "Y": 3.0
      },
      "handle_left": {
       "X": 0.5,
       "Y": 1.0
      },
      "handle_right": {
       "X": 0.5,
       "Y": 0.0
      },
      "handle_type": 0,
      "interpolation": 0
     }
    ]
   },
   "reader": {
    "acodec": "",
    "audio_bit_rate": 0,
    "audio_stream_index": -1,
    "audio_timebase": {
     "den": 1,
     "num": 1
    },
    "channel_layout": 4,
    "channels": 0,
    "display_ratio": {
     "den": 4,
     "num": 5
    },
    "duration": 3600.0,
    "file_size": "5832000",
    "fps": {
     "den": 1,
     "num": 30
    },
    "has_audio": false,
    "has_single_image": true,
    "has_video": true,
    "height": 576,
    "interlaced_frame": false,
    "metadata": {},
    "path": "@transitions/common/fade.svg",
    "pixel_format": -1,
    "pixel_ratio": {
     "den": 1,
     "num": 1
    },
    "sample_rate": 0,
    "top_field_first": true,
    "type": "QtImageReader",
    "vcodec": "",
    "video_bit_rate": 0,
    "video_length": "108000",
    "video_stream_index": -1,
    "video_timebase": {
     "den": 30,
     "num": 1
    },
    "width": 720
   },
   "replace_image": false,
   "id": "7AUAX2IQZJ"
  }
 ],
 "files": [
  {
   "acodec": "",
   "audio_bit_rate": 0,
   "audio_stream_index": -1,
   "audio_timebase": {
    "den": 1,
    "num": 1
   },
   "channel_layout": 4,
   "channels": 0,
   "display_ratio": {
    "den": 9,
    "num": 16
   },
   "duration": 120.26663208007812,
   "file_size": "49436730",
   "fps": {
    "den": 1,
    "num": 30
   },
   "has_audio": false,
   "has_single_image": false,
   "has_video": true,
   "height": 1080,
   "interlaced_frame": false,
   "metadata": {
    "compatible_brands": "mp41isom",
    "creation_time": "2024-05-23T17:39:44.000000Z",
    "encoder": "AVC Coding",
    "handler_name": "VideoHandler",
    "language": "und",
    "major_brand": "mp42",
    "minor_version": "0"
   },
   "path": "./Movie_002.mp4",
   "pixel_format": 0,
   "pixel_ratio": {
    "den": 1,
    "num": 1
   },
   "sample_rate": 0,
   "top_field_first": true,
   "type": "FFmpegReader",
   "vcodec": "h264",
   "video_bit_rate": 411059,
   "video_length": "3608",
   "video_stream_index": 0,
   "video_timebase": {
    "den": 30000,
    "num": 1
   },
   "width": 1920,
   "media_type": "video",
   "id": "6EMORV2KS9",
   "image": "Tutorial_assets/thumbnail/6EMORV2KS9.png"
  },
  {
   "acodec": "",
   "audio_bit_rate": 0,
   "audio_stream_index": -1,
   "audio_timebase": {
    "den": 1,
    "num": 1
   },
   "channel_layout": 4,
   "channels": 0,
   "display_ratio": {
    "den": 9,
    "num": 16
   },
   "duration": 43.29999923706055,
   "file_size": "20461332",
   "fps": {
    "den": 1,
    "num": 30
   },
   "has_audio": false,
   "has_single_image": false,
   "has_video": true,
   "height": 1080,
   "interlaced_frame": false,
   "metadata": {
    "compatible_brands": "mp41isom",
    "creation_time": "2024-05-23T17:52:53.000000Z",
    "encoder": "AVC Coding",
    "handler_name": "VideoHandler",
    "language": "und",
    "major_brand": "mp42",
    "minor_version": "0"
   },
   "path": "./Movie_005.mp4",
   "pixel_format": 0,
   "pixel_ratio": {
    "den": 1,
    "num": 1
   },
   "sample_rate": 0,
   "top_field_first": true,
   "type": "FFmpegReader",
   "vcodec": "h264",
   "video_bit_rate": 472548,
   "video_length": "1299",
   "video_stream_index": 0,
   "video_timebase": {
    "den": 30000,
    "num": 1
   },
   "width": 1920,
   "media_type": "video",
   "id": "H2KZ1ELZ4W",
   "image": "Tutorial_assets/thumbnail/H2KZ1ELZ4W.png"
  },
  {
   "acodec": "",
   "audio_bit_rate": 0,
   "audio_stream_index": -1,
   "audio_timebase": {
    "den": 1,
    "num": 1
   },
   "channel_layout": 4,
   "channels": 0,
   "display_ratio": {
    "den": 9,
    "num": 16
   },
   "duration": 76.30000305175781,
   "file_size": "46445188",
   "fps": {
    "den": 1,
    "num": 30
   },
   "has_audio": false,
   "has_single_image": false,
   "has_video": true,
   "height": 1080,
   "interlaced_frame": false,
   "metadata": {
    "compatible_brands": "mp41isom",
    "creation_time": "2024-05-23T17:55:51.000000Z",
    "encoder": "AVC Coding",
    "handler_name": "VideoHandler",
    "language": "und",
    "major_brand": "mp42",
    "minor_version": "0"
   },
   "path": "./Movie_006.mp4",
   "pixel_format": 0,
   "pixel_ratio": {
    "den": 1,
    "num": 1
   },
   "sample_rate": 0,
   "top_field_first": true,
   "type": "FFmpegReader",
   "vcodec": "h264",
   "video_bit_rate": 608718,
   "video_length": "2289",
   "video_stream_index": 0,
   "video_timebase": {
    "den": 30000,
    "num": 1
   },
   "width": 1920,
   "media_type": "video",
   "id": "BNQY1GBT71",
   "image": "Tutorial_assets/thumbnail/BNQY1GBT71.png"
  },
  {
   "acodec": "",
   "audio_bit_rate": 0,
   "audio_stream_index": -1,
   "audio_timebase": {
    "den": 1,
    "num": 1
   },
   "channel_layout": 4,
   "channels": 0,
   "display_ratio": {
    "den": 9,
    "num": 16
   },
   "duration": 29.299999237060547,
   "file_size": "22171814",
   "fps": {
    "den": 1,
    "num": 30
   },
   "has_audio": false,
   "has_single_image": false,
   "has_video": true,
   "height": 1080,
   "interlaced_frame": false,
   "metadata": {
    "compatible_brands": "mp41isom",
    "creation_time": "2024-05-23T18:03:41.000000Z",
    "encoder": "AVC Coding",
    "handler_name": "VideoHandler",
    "language": "und",
    "major_brand": "mp42",
    "minor_version": "0"
   },
   "path": "./Movie_010.mp4",
   "pixel_format": 0,
   "pixel_ratio": {
    "den": 1,
    "num": 1
   },
   "sample_rate": 0,
   "top_field_first": true,
   "type": "FFmpegReader",
   "vcodec": "h264",
   "video_bit_rate": 756717,
   "video_length": "879",
   "video_stream_index": 0,
   "video_timebase": {
    "den": 30000,
    "num": 1
   },
   "width": 1920,
   "media_type": "video",
   "id": "060OOJV333",
   "image": "Tutorial_assets/thumbnail/060OOJV333.png"
  },
  {
   "acodec": "",
   "audio_bit_rate": 0,
   "audio_stream_index": -1,
   "audio_timebase": {
    "den": 1,
    "num": 1
   },
   "channel_layout": 4,
   "channels": 0,
   "display_ratio": {
    "den": 171,
    "num": 338
   },
   "duration": 3600.0,
   "file_size": "231192",
   "fps": {
    "den": 1,
    "num": 30
   },
   "has_audio": false,
   "has_single_image": true,
   "has_video": true,
   "height": 171,
   "interlaced_frame": false,
   "metadata": {},
   "path": "./drawing.png",
   "pixel_format": -1,
   "pixel_ratio": {
    "den": 1,
    "num": 1
   },
   "sample_rate": 0,
   "top_field_first": true,
   "type": "QtImageReader",
   "vcodec": "",
   "video_bit_rate": 0,
   "video_length": "108000",
   "video_stream_index": -1,
   "video_timebase": {
    "den": 30,
    "num": 1
   },
   "width": 338,
   "media_type": "image",
   "id": "8OYLCUKPZL",
   "image": "Tutorial_assets/thumbnail/8OYLCUKPZL.png"
  },
  {
   "acodec": "",
   "audio_bit_rate": 0,
   "audio_stream_index": -1,
   "audio_timebase": {
    "den": 1,
    "num": 1
   },
   "channel_layout": 4,
   "channels": 0,
   "display_ratio": {
    "den": 374,
    "num": 713
   },
   "duration": 3600.0,
   "file_size": "1066648",
   "fps": {
    "den": 1,
    "num": 30
   },
   "has_audio": false,
   "has_single_image": true,
   "has_video": true,
   "height": 374,
   "interlaced_frame": false,
   "metadata": {},
   "path": "./drawing2.png",
   "pixel_format": -1,
   "pixel_ratio": {
    "den": 1,
    "num": 1
   },
   "sample_rate": 0,
   "top_field_first": true,
   "type": "QtImageReader",
   "vcodec": "",
   "video_bit_rate": 0,
   "video_length": "108000",
   "video_stream_index": -1,
   "video_timebase": {
    "den": 30,
    "num": 1
   },
   "width": 713,
   "media_type": "image",
   "id": "3SUISLE736",
   "image": "Tutorial_assets/thumbnail/3SUISLE736.png"
  },
  {
   "acodec": "",
   "audio_bit_rate": 0,
   "audio_stream_index": -1,
   "audio_timebase": {
    "den": 1,
    "num": 1
   },
   "channel_layout": 4,
   "channels": 0,
   "display_ratio": {
    "den": 248,
    "num": 689
   },
   "duration": 3600.0,
   "file_size": "683488",
   "fps": {
    "den": 1,
    "num": 30
   },
   "has_audio": false,
   "has_single_image": true,
   "has_video": true,
   "height": 248,
   "interlaced_frame": false,
   "metadata": {},
   "path": "./drawing3.png",
   "pixel_format": -1,
   "pixel_ratio": {
    "den": 1,
    "num": 1
   },
   "sample_rate": 0,
   "top_field_first": true,
   "type": "QtImageReader",
   "vcodec": "",
   "video_bit_rate": 0,
   "video_length": "108000",
   "video_stream_index": -1,
   "video_timebase": {
    "den": 30,
    "num": 1
   },
   "width": 689,
   "media_type": "image",
   "id": "TW6Y7PTB0B",
   "image": "Tutorial_assets/thumbnail/TW6Y7PTB0B.png"
  },
  {
   "acodec": "",
   "audio_bit_rate": 0,
   "audio_stream_index": -1,
   "audio_timebase": {
    "den": 1,
    "num": 1
   },
   "channel_layout": 4,
   "channels": 0,
   "display_ratio": {
    "den": 1,
    "num": 1
   },
   "duration": 3600.0,
   "file_size": "422500",
   "fps": {
    "den": 1,
    "num": 30
   },
   "has_audio": false,
   "has_single_image": true,
   "has_video": true,
   "height": 325,
   "interlaced_frame": false,
   "metadata": {},
   "path": "./circle.png",
   "pixel_format": -1,
   "pixel_ratio": {
    "den": 1,
    "num": 1
   },
   "sample_rate": 0,
   "top_field_first": true,
   "type": "QtImageReader",
   "vcodec": "",
   "video_bit_rate": 0,
   "video_length": "108000",
   "video_stream_index": -1,
   "video_timebase": {
    "den": 30,
    "num": 1
   },
   "width": 325,
   "media_type": "image",
   "id": "S5LMSTC1KY",
   "image": "Tutorial_assets/thumbnail/S5LMSTC1KY.png"
  },
  {
   "acodec": "",
   "audio_bit_rate": 0,
   "audio_stream_index": -1,
   "audio_timebase": {
    "den": 1,
    "num": 1
   },
   "channel_layout": 4,
   "channels": 0,
   "display_ratio": {
    "den": 32,
    "num": 293
   },
   "duration": 3600.0,
   "file_size": "37504",
   "fps": {
    "den": 1,
    "num": 30
   },
   "has_audio": false,
   "has_single_image": true,
   "has_video": true,
   "height": 32,
   "interlaced_frame": false,
   "metadata": {},
   "path": "./arrow.png",
   "pixel_format": -1,
   "pixel_ratio": {
    "den": 1,
    "num": 1
   },
   "sample_rate": 0,
   "top_field_first": true,
   "type": "QtImageReader",
   "vcodec": "",
   "video_bit_rate": 0,
   "video_length": "108000",
   "video_stream_index": -1,
   "video_timebase": {
    "den": 30,
    "num": 1
   },
   "width": 293,
   "media_type": "image",
   "id": "N0UHXUNZM4",
   "image": "Tutorial_assets/thumbnail/N0UHXUNZM4.png"
  },
  {
   "acodec": "",
   "audio_bit_rate": 0,
   "audio_stream_index": -1,
   "audio_timebase": {
    "den": 1,
    "num": 1
   },
   "channel_layout": 4,
   "channels": 0,
   "display_ratio": {
    "den": 305,
    "num": 757
   },
   "duration": 3600.0,
   "file_size": "923540",
   "fps": {
    "den": 1,
    "num": 30
   },
   "has_audio": false,
   "has_single_image": true,
   "has_video": true,
   "height": 305,
   "interlaced_frame": false,
   "metadata": {},
   "path": "./drawing4.png",
   "pixel_format": -1,
   "pixel_ratio": {
    "den": 1,
    "num": 1
   },
   "sample_rate": 0,
   "top_field_first": true,
   "type": "QtImageReader",
   "vcodec": "",
   "video_bit_rate": 0,
   "video_length": "108000",
   "video_stream_index": -1,
   "video_timebase": {
    "den": 30,
    "num": 1
   },
   "width": 757,
   "media_type": "image",
   "id": "99DACAUCOS",
   "image": "Tutorial_assets/thumbnail/99DACAUCOS.png"
  },
  {
   "acodec": "",
   "audio_bit_rate": 0,
   "audio_stream_index": -1,
   "audio_timebase": {
    "den": 1,
    "num": 1
   },
   "channel_layout": 4,
   "channels": 0,
   "display_ratio": {
    "den": 1,
    "num": 1
   },
   "duration": 3600.0,
   "file_size": "262144",
   "fps": {
    "den": 1,
    "num": 30
   },
   "has_audio": false,
   "has_single_image": true,
   "has_video": true,
   "height": 256,
   "interlaced_frame": false,
   "metadata": {},
   "path": "./circle2.png",
   "pixel_format": -1,
   "pixel_ratio": {
    "den": 1,
    "num": 1
   },
   "sample_rate": 0,
   "top_field_first": true,
   "type": "QtImageReader",
   "vcodec": "",
   "video_bit_rate": 0,
   "video_length": "108000",
   "video_stream_index": -1,
   "video_timebase": {
    "den": 30,
    "num": 1
   },
   "width": 256,
   "media_type": "image",
   "id": "ZU8X3E6NVA",
   "image": "Tutorial_assets/thumbnail/ZU8X3E6NVA.png"
  },
  {
   "acodec": "",
   "audio_bit_rate": 0,
   "audio_stream_index": -1,
   "audio_timebase": {
    "den": 1,
    "num": 1
   },
   "channel_layout": 4,
   "channels": 0,
   "display_ratio": {
    "den": 305,
    "num": 657
   },
   "duration": 3600.0,
   "file_size": "801540",
   "fps": {
    "den": 1,
    "num": 30
   },
   "has_audio": false,
   "has_single_image": true,
   "has_video": true,
   "height": 305,
   "interlaced_frame": false,
   "metadata": {},
   "path": "./drawing5.png",
   "pixel_format": -1,
   "pixel_ratio": {
    "den": 1,
    "num": 1
   },
   "sample_rate": 0,
   "top_field_first": true,
   "type": "QtImageReader",
   "vcodec": "",
   "video_bit_rate": 0,
   "video_length": "108000",
   "video_stream_index": -1,
   "video_timebase": {
    "den": 30,
    "num": 1
   },
   "width": 657,
   "media_type": "image",
   "id": "OCHQX178JT",
   "image": "Tutorial_assets/thumbnail/OCHQX178JT.png"
  },
  {
   "acodec": "",
   "audio_bit_rate": 0,
   "audio_stream_index": -1,
   "audio_timebase": {
    "den": 1,
    "num": 1
   },
   "channel_layout": 4,
   "channels": 0,
   "display_ratio": {
    "den": 899,
    "num": 1646
   },
   "duration": 3600.0,
   "file_size": "5919016",
   "fps": {
    "den": 1,
    "num": 30
   },
   "has_audio": false,
   "has_single_image": true,
   "has_video": true,
   "height": 899,
   "interlaced_frame": false,
   "metadata": {},
   "path": "./drawing6.png",
   "pixel_format": -1,
   "pixel_ratio": {
    "den": 1,
    "num": 1
   },
   "sample_rate": 0,
   "top_field_first": true,
   "type": "QtImageReader",
   "vcodec": "",
   "video_bit_rate": 0,
   "video_length": "108000",
   "video_stream_index": -1,
   "video_timebase": {
    "den": 30,
    "num": 1
   },
   "width": 1646,
   "media_type": "image",
   "id": "XL5CQCWLBY",
   "image": "Tutorial_assets/thumbnail/XL5CQCWLBY.png"
  },
  {
   "acodec": "",
   "audio_bit_rate": 0,
   "audio_stream_index": -1,
   "audio_timebase": {
    "den": 1,
    "num": 1
   },
   "channel_layout": 4,
   "channels": 0,
   "display_ratio": {
    "den": 1,
    "num": 1
   },
   "duration": 3600.0,
   "file_size": "1633284",
   "fps": {
    "den": 1,
    "num": 30
   },
   "has_audio": false,
   "has_single_image": true,
   "has_video": true,
   "height": 639,
   "interlaced_frame": false,
   "metadata": {},
   "path": "./ellipse.png",
   "pixel_format": -1,
   "pixel_ratio": {
    "den": 1,
    "num": 1
   },
   "sample_rate": 0,
   "top_field_first": true,
   "type": "QtImageReader",
   "vcodec": "",
   "video_bit_rate": 0,
   "video_length": "108000",
   "video_stream_index": -1,
   "video_timebase": {
    "den": 30,
    "num": 1
   },
   "width": 639,
   "media_type": "image",
   "id": "BKPYQ6QJ6N",
   "image": "Tutorial_assets/thumbnail/BKPYQ6QJ6N.png"
  },
  {
   "acodec": "",
   "audio_bit_rate": 0,
   "audio_stream_index": -1,
   "audio_timebase": {
    "den": 1,
    "num": 1
   },
   "channel_layout": 4,
   "channels": 0,
   "display_ratio": {
    "den": 151,
    "num": 325
   },
   "duration": 3600.0,
   "file_size": "4907500",
   "fps": {
    "den": 1,
    "num": 30
   },
   "has_audio": false,
   "has_single_image": true,
   "has_video": true,
   "height": 755,
   "interlaced_frame": false,
   "metadata": {},
   "path": "./drawing7.png",
   "pixel_format": -1,
   "pixel_ratio": {
    "den": 1,
    "num": 1
   },
   "sample_rate": 0,
   "top_field_first": true,
   "type": "QtImageReader",
   "vcodec": "",
   "video_bit_rate": 0,
   "video_length": "108000",
   "video_stream_index": -1,
   "video_timebase": {
    "den": 30,
    "num": 1
   },
   "width": 1625,
   "media_type": "image",
   "id": "CH4GJCF2OG",
   "image": "Tutorial_assets/thumbnail/CH4GJCF2OG.png"
  },
  {
   "acodec": "",
   "audio_bit_rate": 0,
   "audio_stream_index": -1,
   "audio_timebase": {
    "den": 1,
    "num": 1
   },
   "channel_layout": 4,
   "channels": 0,
   "display_ratio": {
    "den": 755,
    "num": 1214
   },
   "duration": 3600.0,
   "file_size": "3666280",
   "fps": {
    "den": 1,
    "num": 30
   },
   "has_audio": false,
   "has_single_image": true,
   "has_video": true,
   "height": 755,
   "interlaced_frame": false,
   "metadata": {},
   "path": "./drawing8.png",
   "pixel_format": -1,
   "pixel_ratio": {
    "den": 1,
    "num": 1
   },
   "sample_rate": 0,
   "top_field_first": true,
   "type": "QtImageReader",
   "vcodec": "",
   "video_bit_rate": 0,
   "video_length": "108000",
   "video_stream_index": -1,
   "video_timebase": {
    "den": 30,
    "num": 1
   },
   "width": 1214,
   "media_type": "image",
   "id": "21L4PFXD3I",
   "image": "Tutorial_assets/thumbnail/21L4PFXD3I.png"
  },
  {
   "acodec": "",
   "audio_bit_rate": 0,
   "audio_stream_index": -1,
   "audio_timebase": {
    "den": 1,
    "num": 1
   },
   "channel_layout": 4,
   "channels": 0,
   "display_ratio": {
    "den": 617,
    "num": 1310
   },
   "duration": 3600.0,
   "file_size": "3233080",
   "fps": {
    "den": 1,
    "num": 30
   },
   "has_audio": false,
   "has_single_image": true,
   "has_video": true,
   "height": 617,
   "interlaced_frame": false,
   "metadata": {},
   "path": "./drawing9.png",
   "pixel_format": -1,
   "pixel_ratio": {
    "den": 1,
    "num": 1
   },
   "sample_rate": 0,
   "top_field_first": true,
   "type": "QtImageReader",
   "vcodec": "",
   "video_bit_rate": 0,
   "video_length": "108000",
   "video_stream_index": -1,
   "video_timebase": {
    "den": 30,
    "num": 1
   },
   "width": 1310,
   "media_type": "image",
   "id": "5WOVU0R980",
   "image": "Tutorial_assets/thumbnail/5WOVU0R980.png"
  },
  {
   "acodec": "",
   "audio_bit_rate": 0,
   "audio_stream_index": -1,
   "audio_timebase": {
    "den": 1,
    "num": 1
   },
   "channel_layout": 4,
   "channels": 0,
   "display_ratio": {
    "den": 205,
    "num": 407
   },
   "duration": 3600.0,
   "file_size": "3003660",
   "fps": {
    "den": 1,
    "num": 30
   },
   "has_audio": false,
   "has_single_image": true,
   "has_video": true,
   "height": 615,
   "interlaced_frame": false,
   "metadata": {},
   "path": "./drawing10.png",
   "pixel_format": -1,
   "pixel_ratio": {
    "den": 1,
    "num": 1
   },
   "sample_rate": 0,
   "top_field_first": true,
   "type": "QtImageReader",
   "vcodec": "",
   "video_bit_rate": 0,
   "video_length": "108000",
   "video_stream_index": -1,
   "video_timebase": {
    "den": 30,
    "num": 1
   },
   "width": 1221,
   "media_type": "image",
   "id": "XBS6QBNU3J",
   "image": "Tutorial_assets/thumbnail/XBS6QBNU3J.png"
  },
  {
   "acodec": "",
   "audio_bit_rate": 0,
   "audio_stream_index": -1,
   "audio_timebase": {
    "den": 1,
    "num": 1
   },
   "channel_layout": 4,
   "channels": 0,
   "display_ratio": {
    "den": 617,
    "num": 1448
   },
   "duration": 3600.0,
   "file_size": "3573664",
   "fps": {
    "den": 1,
    "num": 30
   },
   "has_audio": false,
   "has_single_image": true,
   "has_video": true,
   "height": 617,
   "interlaced_frame": false,
   "metadata": {},
   "path": "./drawing11.png",
   "pixel_format": -1,
   "pixel_ratio": {
    "den": 1,
    "num": 1
   },
   "sample_rate": 0,
   "top_field_first": true,
   "type": "QtImageReader",
   "vcodec": "",
   "video_bit_rate": 0,
   "video_length": "108000",
   "video_stream_index": -1,
   "video_timebase": {
    "den": 30,
    "num": 1
   },
   "width": 1448,
   "media_type": "image",
   "id": "NDS5321KSO",
   "image": "Tutorial_assets/thumbnail/NDS5321KSO.png"
  },
  {
   "acodec": "",
   "audio_bit_rate": 0,
   "audio_stream_index": -1,
   "audio_timebase": {
    "den": 1,
    "num": 1
   },
   "channel_layout": 4,
   "channels": 0,
   "display_ratio": {
    "den": 401,
    "num": 1368
   },
   "duration": 3600.0,
   "file_size": "2194272",
   "fps": {
    "den": 1,
    "num": 30
   },
   "has_audio": false,
   "has_single_image": true,
   "has_video": true,
   "height": 401,
   "interlaced_frame": false,
   "metadata": {},
   "path": "./drawing12.png",
   "pixel_format": -1,
   "pixel_ratio": {
    "den": 1,
    "num": 1
   },
   "sample_rate": 0,
   "top_field_first": true,
   "type": "QtImageReader",
   "vcodec": "",
   "video_bit_rate": 0,
   "video_length": "108000",
   "video_stream_index": -1,
   "video_timebase": {
    "den": 30,
    "num": 1
   },
   "width": 1368,
   "media_type": "image",
   "id": "78IVN4Z6X3",
   "image": "Tutorial_assets/thumbnail/78IVN4Z6X3.png"
  },
  {
   "acodec": "",
   "audio_bit_rate": 0,
   "audio_stream_index": -1,
   "audio_timebase": {
    "den": 1,
    "num": 1
   },
   "channel_layout": 4,
   "channels": 0,
   "display_ratio": {
    "den": 555,
    "num": 1423
   },
   "duration": 3600.0,
   "file_size": "3159060",
   "fps": {
    "den": 1,
    "num": 30
   },
   "has_audio": false,
   "has_single_image": true,
   "has_video": true,
   "height": 555,
   "interlaced_frame": false,
   "metadata": {},
   "path": "./drawing13.png",
   "pixel_format": -1,
   "pixel_ratio": {
    "den": 1,
    "num": 1
   },
   "sample_rate": 0,
   "top_field_first": true,
   "type": "QtImageReader",
   "vcodec": "",
   "video_bit_rate": 0,
   "video_length": "108000",
   "video_stream_index": -1,
   "video_timebase": {
    "den": 30,
    "num": 1
   },
   "width": 1423,
   "media_type": "image",
   "id": "AMZKQHK3YL",
   "image": "Tutorial_assets/thumbnail/AMZKQHK3YL.png"
  },
  {
   "acodec": "",
   "audio_bit_rate": 0,
   "audio_stream_index": -1,
   "audio_timebase": {
    "den": 1,
    "num": 1
   },
   "channel_layout": 4,
   "channels": 0,
   "display_ratio": {
    "den": 9,
    "num": 16
   },
   "duration": 3600.0,
   "file_size": "8294400",
   "fps": {
    "den": 1,
    "num": 30
   },
   "has_audio": false,
   "has_single_image": true,
   "has_video": true,
   "height": 1080,
   "interlaced_frame": false,
   "metadata": {},
   "path": "./Frame-02072.png",
   "pixel_format": -1,
   "pixel_ratio": {
    "den": 1,
    "num": 1
   },
   "sample_rate": 0,
   "top_field_first": true,
   "type": "QtImageReader",
   "vcodec": "",
   "video_bit_rate": 0,
   "video_length": "108000",
   "video_stream_index": -1,
   "video_timebase": {
    "den": 30,
    "num": 1
   },
   "width": 1920,
   "media_type": "image",
   "id": "IQSMZHOVVA",
   "image": "Tutorial_assets/thumbnail/IQSMZHOVVA.png"
  },
  {
   "acodec": "",
   "audio_bit_rate": 0,
   "audio_stream_index": -1,
   "audio_timebase": {
    "den": 1,
    "num": 1
   },
   "channel_layout": 4,
   "channels": 0,
   "display_ratio": {
    "den": 376,
    "num": 311
   },
   "duration": 3600.0,
   "file_size": "1870976",
   "fps": {
    "den": 1,
    "num": 30
   },
   "has_audio": false,
   "has_single_image": true,
   "has_video": true,
   "height": 752,
   "interlaced_frame": false,
   "metadata": {},
   "path": "./pause.png",
   "pixel_format": -1,
   "pixel_ratio": {
    "den": 1,
    "num": 1
   },
   "sample_rate": 0,
   "top_field_first": true,
   "type": "QtImageReader",
   "vcodec": "",
   "video_bit_rate": 0,
   "video_length": "108000",
   "video_stream_index": -1,
   "video_timebase": {
    "den": 30,
    "num": 1
   },
   "width": 622,
   "media_type": "image",
   "id": "FC81BKO2ES",
   "image": "Tutorial_assets/thumbnail/FC81BKO2ES.png"
  },
  {
   "acodec": "",
   "audio_bit_rate": 0,
   "audio_stream_index": -1,
   "audio_timebase": {
    "den": 1,
    "num": 1
   },
   "channel_layout": 4,
   "channels": 0,
   "display_ratio": {
    "den": 9,
    "num": 16
   },
   "duration": 3600.0,
   "file_size": "8294400",
   "fps": {
    "den": 1,
    "num": 30
   },
   "has_audio": false,
   "has_single_image": true,
   "has_video": true,
   "height": 1080,
   "interlaced_frame": false,
   "metadata": {},
   "path": "./Frame-02161.png",
   "pixel_format": -1,
   "pixel_ratio": {
    "den": 1,
    "num": 1
   },
   "sample_rate": 0,
   "top_field_first": true,
   "type": "QtImageReader",
   "vcodec": "",
   "video_bit_rate": 0,
   "video_length": "108000",
   "video_stream_index": -1,
   "video_timebase": {
    "den": 30,
    "num": 1
   },
   "width": 1920,
   "media_type": "image",
   "id": "LD0CTA36ET",
   "image": "Tutorial_assets/thumbnail/LD0CTA36ET.png"
  },
  {
   "acodec": "",
   "audio_bit_rate": 0,
   "audio_stream_index": -1,
   "audio_timebase": {
    "den": 1,
    "num": 1
   },
   "channel_layout": 4,
   "channels": 0,
   "display_ratio": {
    "den": 9,
    "num": 16
   },
   "duration": 3600.0,
   "file_size": "8294400",
   "fps": {
    "den": 1,
    "num": 30
   },
   "has_audio": false,
   "has_single_image": true,
   "has_video": true,
   "height": 1080,
   "interlaced_frame": false,
   "metadata": {},
   "path": "./Frame-02160.png",
   "pixel_format": -1,
   "pixel_ratio": {
    "den": 1,
    "num": 1
   },
   "sample_rate": 0,
   "top_field_first": true,
   "type": "QtImageReader",
   "vcodec": "",
   "video_bit_rate": 0,
   "video_length": "108000",
   "video_stream_index": -1,
   "video_timebase": {
    "den": 30,
    "num": 1
   },
   "width": 1920,
   "media_type": "image",
   "id": "YMNTH3B508",
   "image": "Tutorial_assets/thumbnail/YMNTH3B508.png"
  },
  {
   "acodec": "",
   "audio_bit_rate": 0,
   "audio_stream_index": -1,
   "audio_timebase": {
    "den": 1,
    "num": 1
   },
   "channel_layout": 4,
   "channels": 0,
   "display_ratio": {
    "den": 721,
    "num": 1700
   },
   "duration": 3600.0,
   "file_size": "4902800",
   "fps": {
    "den": 1,
    "num": 30
   },
   "has_audio": false,
   "has_single_image": true,
   "has_video": true,
   "height": 721,
   "interlaced_frame": false,
   "metadata": {},
   "path": "./drawing14.png",
   "pixel_format": -1,
   "pixel_ratio": {
    "den": 1,
    "num": 1
   },
   "sample_rate": 0,
   "top_field_first": true,
   "type": "QtImageReader",
   "vcodec": "",
   "video_bit_rate": 0,
   "video_length": "108000",
   "video_stream_index": -1,
   "video_timebase": {
    "den": 30,
    "num": 1
   },
   "width": 1700,
   "media_type": "image",
   "id": "ISEGZDGP9H",
   "image": "Tutorial_assets/thumbnail/ISEGZDGP9H.png"
  },
  {
   "acodec": "",
   "audio_bit_rate": 0,
   "audio_stream_index": -1,
   "audio_timebase": {
    "den": 1,
    "num": 1
   },
   "channel_layout": 4,
   "channels": 0,
   "display_ratio": {
    "den": 9,
    "num": 16
   },
   "duration": 3600.0,
   "file_size": "8294400",
   "fps": {
    "den": 1,
    "num": 30
   },
   "has_audio": false,
   "has_single_image": true,
   "has_video": true,
   "height": 1080,
   "interlaced_frame": false,
   "metadata": {},
   "path": "./Frame-02231.png",
   "pixel_format": -1,
   "pixel_ratio": {
    "den": 1,
    "num": 1
   },
   "sample_rate": 0,
   "top_field_first": true,
   "type": "QtImageReader",
   "vcodec": "",
   "video_bit_rate": 0,
   "video_length": "108000",
   "video_stream_index": -1,
   "video_timebase": {
    "den": 30,
    "num": 1
   },
   "width": 1920,
   "media_type": "image",
   "id": "RJ03CCT5K6",
   "image": "Tutorial_assets/thumbnail/RJ03CCT5K6.png"
  },
  {
   "acodec": "",
   "audio_bit_rate": 0,
   "audio_stream_index": -1,
   "audio_timebase": {
    "den": 1,
    "num": 1
   },
   "channel_layout": 4,
   "channels": 0,
   "display_ratio": {
    "den": 9,
    "num": 16
   },
   "duration": 86.86666870117188,
   "file_size": "101829535",
   "fps": {
    "den": 1,
    "num": 30
   },
   "has_audio": false,
   "has_single_image": false,
   "has_video": true,
   "height": 1080,
   "interlaced_frame": false,
   "metadata": {
    "comment": "Create videos with https://clipchamp.com/en/video-editor - free online video editor, video compressor, video converter.",
    "compatible_brands": "isomiso2avc1mp41",
    "encoder": "https://clipchamp.com",
    "handler_name": "VideoHandler",
    "language": "und",
    "major_brand": "isom",
    "minor_version": "512"
   },
   "path": "./movie_003_001.mp4",
   "pixel_format": 0,
   "pixel_ratio": {
    "den": 1,
    "num": 1
   },
   "sample_rate": 0,
   "top_field_first": true,
   "type": "FFmpegReader",
   "vcodec": "h264",
   "video_bit_rate": 1172246,
   "video_length": "2606",
   "video_stream_index": 0,
   "video_timebase": {
    "den": 15360,
    "num": 1
   },
   "width": 1920,
   "media_type": "video",
   "id": "OA9LAYW3S1",
   "image": "Tutorial_assets/thumbnail/OA9LAYW3S1.png"
  },
  {
   "acodec": "",
   "audio_bit_rate": 0,
   "audio_stream_index": -1,
   "audio_timebase": {
    "den": 1,
    "num": 1
   },
   "channel_layout": 4,
   "channels": 0,
   "display_ratio": {
    "den": 637,
    "num": 1476
   },
   "duration": 3600.0,
   "file_size": "3760848",
   "fps": {
    "den": 1,
    "num": 30
   },
   "has_audio": false,
   "has_single_image": true,
   "has_video": true,
   "height": 637,
   "interlaced_frame": false,
   "metadata": {},
   "path": "./drawing15.png",
   "pixel_format": -1,
   "pixel_ratio": {
    "den": 1,
    "num": 1
   },
   "sample_rate": 0,
   "top_field_first": true,
   "type": "QtImageReader",
   "vcodec": "",
   "video_bit_rate": 0,
   "video_length": "108000",
   "video_stream_index": -1,
   "video_timebase": {
    "den": 30,
    "num": 1
   },
   "width": 1476,
   "media_type": "image",
   "id": "KNAVOY2XZV",
   "image": "Tutorial_assets/thumbnail/KNAVOY2XZV.png"
  },
  {
   "acodec": "",
   "audio_bit_rate": 0,
   "audio_stream_index": -1,
   "audio_timebase": {
    "den": 1,
    "num": 1
   },
   "channel_layout": 4,
   "channels": 0,
   "display_ratio": {
    "den": 645,
    "num": 1802
   },
   "duration": 3600.0,
   "file_size": "4649160",
   "fps": {
    "den": 1,
    "num": 30
   },
   "has_audio": false,
   "has_single_image": true,
   "has_video": true,
   "height": 645,
   "interlaced_frame": false,
   "metadata": {},
   "path": "./drawing16.png",
   "pixel_format": -1,
   "pixel_ratio": {
    "den": 1,
    "num": 1
   },
   "sample_rate": 0,
   "top_field_first": true,
   "type": "QtImageReader",
   "vcodec": "",
   "video_bit_rate": 0,
   "video_length": "108000",
   "video_stream_index": -1,
   "video_timebase": {
    "den": 30,
    "num": 1
   },
   "width": 1802,
   "media_type": "image",
   "id": "TZMDAP4IBO",
   "image": "Tutorial_assets/thumbnail/TZMDAP4IBO.png"
  },
  {
   "acodec": "",
   "audio_bit_rate": 0,
   "audio_stream_index": -1,
   "audio_timebase": {
    "den": 1,
    "num": 1
   },
   "channel_layout": 4,
   "channels": 0,
   "display_ratio": {
    "den": 401,
    "num": 1026
   },
   "duration": 3600.0,
   "file_size": "6582816",
   "fps": {
    "den": 1,
    "num": 30
   },
   "has_audio": false,
   "has_single_image": true,
   "has_video": true,
   "height": 802,
   "interlaced_frame": false,
   "metadata": {},
   "path": "./drawing17.png",
   "pixel_format": -1,
   "pixel_ratio": {
    "den": 1,
    "num": 1
   },
   "sample_rate": 0,
   "top_field_first": true,
   "type": "QtImageReader",
   "vcodec": "",
   "video_bit_rate": 0,
   "video_length": "108000",
   "video_stream_index": -1,
   "video_timebase": {
    "den": 30,
    "num": 1
   },
   "width": 2052,
   "media_type": "image",
   "id": "OUZ5F8GT0J",
   "image": "Tutorial_assets/thumbnail/OUZ5F8GT0J.png"
  },
  {
   "acodec": "",
   "audio_bit_rate": 0,
   "audio_stream_index": -1,
   "audio_timebase": {
    "den": 1,
    "num": 1
   },
   "channel_layout": 4,
   "channels": 0,
   "display_ratio": {
    "den": 672,
    "num": 1691
   },
   "duration": 3600.0,
   "file_size": "4545408",
   "fps": {
    "den": 1,
    "num": 30
   },
   "has_audio": false,
   "has_single_image": true,
   "has_video": true,
   "height": 672,
   "interlaced_frame": false,
   "metadata": {},
   "path": "./drawing18.png",
   "pixel_format": -1,
   "pixel_ratio": {
    "den": 1,
    "num": 1
   },
   "sample_rate": 0,
   "top_field_first": true,
   "type": "QtImageReader",
   "vcodec": "",
   "video_bit_rate": 0,
   "video_length": "108000",
   "video_stream_index": -1,
   "video_timebase": {
    "den": 30,
    "num": 1
   },
   "width": 1691,
   "media_type": "image",
   "id": "2VA43RX5BP",
   "image": "Tutorial_assets/thumbnail/2VA43RX5BP.png"
  },
  {
   "acodec": "",
   "audio_bit_rate": 0,
   "audio_stream_index": -1,
   "audio_timebase": {
    "den": 1,
    "num": 1
   },
   "channel_layout": 4,
   "channels": 0,
   "display_ratio": {
    "den": 672,
    "num": 1691
   },
   "duration": 3600.0,
   "file_size": "4545408",
   "fps": {
    "den": 1,
    "num": 30
   },
   "has_audio": false,
   "has_single_image": true,
   "has_video": true,
   "height": 672,
   "interlaced_frame": false,
   "metadata": {},
   "path": "./drawing19.png",
   "pixel_format": -1,
   "pixel_ratio": {
    "den": 1,
    "num": 1
   },
   "sample_rate": 0,
   "top_field_first": true,
   "type": "QtImageReader",
   "vcodec": "",
   "video_bit_rate": 0,
   "video_length": "108000",
   "video_stream_index": -1,
   "video_timebase": {
    "den": 30,
    "num": 1
   },
   "width": 1691,
   "media_type": "image",
   "id": "M0RYE826C5",
   "image": "Tutorial_assets/thumbnail/M0RYE826C5.png"
  },
  {
   "acodec": "",
   "audio_bit_rate": 0,
   "audio_stream_index": -1,
   "audio_timebase": {
    "den": 1,
    "num": 1
   },
   "channel_layout": 4,
   "channels": 0,
   "display_ratio": {
    "den": 8,
    "num": 21
   },
   "duration": 3600.0,
   "file_size": "4741632",
   "fps": {
    "den": 1,
    "num": 30
   },
   "has_audio": false,
   "has_single_image": true,
   "has_video": true,
   "height": 672,
   "interlaced_frame": false,
   "metadata": {},
   "path": "./drawing20.png",
   "pixel_format": -1,
   "pixel_ratio": {
    "den": 1,
    "num": 1
   },
   "sample_rate": 0,
   "top_field_first": true,
   "type": "QtImageReader",
   "vcodec": "",
   "video_bit_rate": 0,
   "video_length": "108000",
   "video_stream_index": -1,
   "video_timebase": {
    "den": 30,
    "num": 1
   },
   "width": 1764,
   "media_type": "image",
   "id": "GIQWT7MK66",
   "image": "Tutorial_assets/thumbnail/GIQWT7MK66.png"
  },
  {
   "acodec": "",
   "audio_bit_rate": 0,
   "audio_stream_index": -1,
   "audio_timebase": {
    "den": 1,
    "num": 1
   },
   "channel_layout": 4,
   "channels": 0,
   "display_ratio": {
    "den": 9,
    "num": 16
   },
   "duration": 73.5999984741211,
   "file_size": "57616868",
   "fps": {
    "den": 1,
    "num": 30
   },
   "has_audio": false,
   "has_single_image": false,
   "has_video": true,
   "height": 1080,
   "interlaced_frame": false,
   "metadata": {
    "comment": "Create videos with https://clipchamp.com/en/video-editor - free online video editor, video compressor, video converter.",
    "compatible_brands": "isomiso2avc1mp41",
    "encoder": "https://clipchamp.com",
    "handler_name": "VideoHandler",
    "language": "und",
    "major_brand": "isom",
    "minor_version": "512"
   },
   "path": "./movie_003_002.mp4",
   "pixel_format": 0,
   "pixel_ratio": {
    "den": 1,
    "num": 1
   },
   "sample_rate": 0,
   "top_field_first": true,
   "type": "FFmpegReader",
   "vcodec": "h264",
   "video_bit_rate": 782837,
   "video_length": "2208",
   "video_stream_index": 0,
   "video_timebase": {
    "den": 15360,
    "num": 1
   },
   "width": 1920,
   "media_type": "video",
   "id": "L20DIPWUJ9",
   "image": "Tutorial_assets/thumbnail/L20DIPWUJ9.png"
  },
  {
   "acodec": "",
   "audio_bit_rate": 0,
   "audio_stream_index": -1,
   "audio_timebase": {
    "den": 1,
    "num": 1
   },
   "channel_layout": 4,
   "channels": 0,
   "display_ratio": {
    "den": 593,
    "num": 1720
   },
   "duration": 3600.0,
   "file_size": "4079840",
   "fps": {
    "den": 1,
    "num": 30
   },
   "has_audio": false,
   "has_single_image": true,
   "has_video": true,
   "height": 593,
   "interlaced_frame": false,
   "metadata": {},
   "path": "./drawing21.png",
   "pixel_format": -1,
   "pixel_ratio": {
    "den": 1,
    "num": 1
   },
   "sample_rate": 0,
   "top_field_first": true,
   "type": "QtImageReader",
   "vcodec": "",
   "video_bit_rate": 0,
   "video_length": "108000",
   "video_stream_index": -1,
   "video_timebase": {
    "den": 30,
    "num": 1
   },
   "width": 1720,
   "media_type": "image",
   "id": "N9SC9AW7A9",
   "image": "Tutorial_assets/thumbnail/N9SC9AW7A9.png"
  },
  {
   "acodec": "",
   "audio_bit_rate": 0,
   "audio_stream_index": -1,
   "audio_timebase": {
    "den": 1,
    "num": 1
   },
   "channel_layout": 4,
   "channels": 0,
   "display_ratio": {
    "den": 149,
    "num": 518
   },
   "duration": 3600.0,
   "file_size": "4939648",
   "fps": {
    "den": 1,
    "num": 30
   },
   "has_audio": false,
   "has_single_image": true,
   "has_video": true,
   "height": 596,
   "interlaced_frame": false,
   "metadata": {},
   "path": "./drawing22.png",
   "pixel_format": -1,
   "pixel_ratio": {
    "den": 1,
    "num": 1
   },
   "sample_rate": 0,
   "top_field_first": true,
   "type": "QtImageReader",
   "vcodec": "",
   "video_bit_rate": 0,
   "video_length": "108000",
   "video_stream_index": -1,
   "video_timebase": {
    "den": 30,
    "num": 1
   },
   "width": 2072,
   "media_type": "image",
   "id": "8CMJX0Z6FC",
   "image": "Tutorial_assets/thumbnail/8CMJX0Z6FC.png"
  },
  {
   "acodec": "",
   "audio_bit_rate": 0,
   "audio_stream_index": -1,
   "audio_timebase": {
    "den": 1,
    "num": 1
   },
   "channel_layout": 4,
   "channels": 0,
   "display_ratio": {
    "den": 72,
    "num": 235
   },
   "duration": 3600.0,
   "file_size": "4331520",
   "fps": {
    "den": 1,
    "num": 30
   },
   "has_audio": false,
   "has_single_image": true,
   "has_video": true,
   "height": 576,
   "interlaced_frame": false,
   "metadata": {},
   "path": "./drawing23.png",
   "pixel_format": -1,
   "pixel_ratio": {
    "den": 1,
    "num": 1
   },
   "sample_rate": 0,
   "top_field_first": true,
   "type": "QtImageReader",
   "vcodec": "",
   "video_bit_rate": 0,
   "video_length": "108000",
   "video_stream_index": -1,
   "video_timebase": {
    "den": 30,
    "num": 1
   },
   "width": 1880,
   "media_type": "image",
   "id": "LBT23IQHIV",
   "image": "Tutorial_assets/thumbnail/LBT23IQHIV.png"
  },
  {
   "acodec": "",
   "audio_bit_rate": 0,
   "audio_stream_index": -1,
   "audio_timebase": {
    "den": 1,
    "num": 1
   },
   "channel_layout": 4,
   "channels": 0,
   "display_ratio": {
    "den": 9,
    "num": 16
   },
   "duration": 3600.0,
   "file_size": "8294400",
   "fps": {
    "den": 1,
    "num": 30
   },
   "has_audio": false,
   "has_single_image": true,
   "has_video": true,
   "height": 1080,
   "interlaced_frame": false,
   "metadata": {},
   "path": "./Frame-04403.png",
   "pixel_format": -1,
   "pixel_ratio": {
    "den": 1,
    "num": 1
   },
   "sample_rate": 0,
   "top_field_first": true,
   "type": "QtImageReader",
   "vcodec": "",
   "video_bit_rate": 0,
   "video_length": "108000",
   "video_stream_index": -1,
   "video_timebase": {
    "den": 30,
    "num": 1
   },
   "width": 1920,
   "media_type": "image",
   "id": "O4IZAKEGQP",
   "image": "Tutorial_assets/thumbnail/O4IZAKEGQP.png"
  },
  {
   "acodec": "",
   "audio_bit_rate": 0,
   "audio_stream_index": -1,
   "audio_timebase": {
    "den": 1,
    "num": 1
   },
   "channel_layout": 4,
   "channels": 0,
   "display_ratio": {
    "den": 9,
    "num": 16
   },
   "duration": 3600.0,
   "file_size": "8294400",
   "fps": {
    "den": 1,
    "num": 30
   },
   "has_audio": false,
   "has_single_image": true,
   "has_video": true,
   "height": 1080,
   "interlaced_frame": false,
   "metadata": {},
   "path": "./Frame-04475.png",
   "pixel_format": -1,
   "pixel_ratio": {
    "den": 1,
    "num": 1
   },
   "sample_rate": 0,
   "top_field_first": true,
   "type": "QtImageReader",
   "vcodec": "",
   "video_bit_rate": 0,
   "video_length": "108000",
   "video_stream_index": -1,
   "video_timebase": {
    "den": 30,
    "num": 1
   },
   "width": 1920,
   "media_type": "image",
   "id": "B8SPS2SEDK",
   "image": "Tutorial_assets/thumbnail/B8SPS2SEDK.png"
  },
  {
   "acodec": "",
   "audio_bit_rate": 0,
   "audio_stream_index": -1,
   "audio_timebase": {
    "den": 1,
    "num": 1
   },
   "channel_layout": 4,
   "channels": 0,
   "display_ratio": {
    "den": 9,
    "num": 16
   },
   "duration": 3600.0,
   "file_size": "8294400",
   "fps": {
    "den": 1,
    "num": 30
   },
   "has_audio": false,
   "has_single_image": true,
   "has_video": true,
   "height": 1080,
   "interlaced_frame": false,
   "metadata": {},
   "path": "./Frame-04537.png",
   "pixel_format": -1,
   "pixel_ratio": {
    "den": 1,
    "num": 1
   },
   "sample_rate": 0,
   "top_field_first": true,
   "type": "QtImageReader",
   "vcodec": "",
   "video_bit_rate": 0,
   "video_length": "108000",
   "video_stream_index": -1,
   "video_timebase": {
    "den": 30,
    "num": 1
   },
   "width": 1920,
   "media_type": "image",
   "id": "HH45NJEHXV",
   "image": "Tutorial_assets/thumbnail/HH45NJEHXV.png"
  },
  {
   "acodec": "",
   "audio_bit_rate": 0,
   "audio_stream_index": -1,
   "audio_timebase": {
    "den": 1,
    "num": 1
   },
   "channel_layout": 4,
   "channels": 0,
   "display_ratio": {
    "den": 9,
    "num": 16
   },
   "duration": 3600.0,
   "file_size": "8294400",
   "fps": {
    "den": 1,
    "num": 30
   },
   "has_audio": false,
   "has_single_image": true,
   "has_video": true,
   "height": 1080,
   "interlaced_frame": false,
   "metadata": {},
   "path": "./Frame-04487.png",
   "pixel_format": -1,
   "pixel_ratio": {
    "den": 1,
    "num": 1
   },
   "sample_rate": 0,
   "top_field_first": true,
   "type": "QtImageReader",
   "vcodec": "",
   "video_bit_rate": 0,
   "video_length": "108000",
   "video_stream_index": -1,
   "video_timebase": {
    "den": 30,
    "num": 1
   },
   "width": 1920,
   "media_type": "image",
   "id": "STY2U8DPH1",
   "image": "Tutorial_assets/thumbnail/STY2U8DPH1.png"
  },
  {
   "acodec": "",
   "audio_bit_rate": 0,
   "audio_stream_index": -1,
   "audio_timebase": {
    "den": 1,
    "num": 1
   },
   "channel_layout": 4,
   "channels": 0,
   "display_ratio": {
    "den": 721,
    "num": 1700
   },
   "duration": 3600.0,
   "file_size": "4902800",
   "fps": {
    "den": 1,
    "num": 30
   },
   "has_audio": false,
   "has_single_image": true,
   "has_video": true,
   "height": 721,
   "interlaced_frame": false,
   "metadata": {},
   "path": "./drawing24.png",
   "pixel_format": -1,
   "pixel_ratio": {
    "den": 1,
    "num": 1
   },
   "sample_rate": 0,
   "top_field_first": true,
   "type": "QtImageReader",
   "vcodec": "",
   "video_bit_rate": 0,
   "video_length": "108000",
   "video_stream_index": -1,
   "video_timebase": {
    "den": 30,
    "num": 1
   },
   "width": 1700,
   "media_type": "image",
   "id": "2BWKIQFT1A",
   "image": "Tutorial_assets/thumbnail/2BWKIQFT1A.png"
  },
  {
   "acodec": "",
   "audio_bit_rate": 0,
   "audio_stream_index": -1,
   "audio_timebase": {
    "den": 1,
    "num": 1
   },
   "channel_layout": 4,
   "channels": 0,
   "display_ratio": {
    "den": 103,
    "num": 220
   },
   "duration": 3600.0,
   "file_size": "4441360",
   "fps": {
    "den": 1,
    "num": 30
   },
   "has_audio": false,
   "has_single_image": true,
   "has_video": true,
   "height": 721,
   "interlaced_frame": false,
   "metadata": {},
   "path": "./drawing25.png",
   "pixel_format": -1,
   "pixel_ratio": {
    "den": 1,
    "num": 1
   },
   "sample_rate": 0,
   "top_field_first": true,
   "type": "QtImageReader",
   "vcodec": "",
   "video_bit_rate": 0,
   "video_length": "108000",
   "video_stream_index": -1,
   "video_timebase": {
    "den": 30,
    "num": 1
   },
   "width": 1540,
   "media_type": "image",
   "id": "E7QSHFOYDY",
   "image": "Tutorial_assets/thumbnail/E7QSHFOYDY.png"
  },
  {
   "acodec": "",
   "audio_bit_rate": 0,
   "audio_stream_index": -1,
   "audio_timebase": {
    "den": 1,
    "num": 1
   },
   "channel_layout": 4,
   "channels": 0,
   "display_ratio": {
    "den": 605,
    "num": 1327
   },
   "duration": 3600.0,
   "file_size": "3211340",
   "fps": {
    "den": 1,
    "num": 30
   },
   "has_audio": false,
   "has_single_image": true,
   "has_video": true,
   "height": 605,
   "interlaced_frame": false,
   "metadata": {},
   "path": "./drawing26.png",
   "pixel_format": -1,
   "pixel_ratio": {
    "den": 1,
    "num": 1
   },
   "sample_rate": 0,
   "top_field_first": true,
   "type": "QtImageReader",
   "vcodec": "",
   "video_bit_rate": 0,
   "video_length": "108000",
   "video_stream_index": -1,
   "video_timebase": {
    "den": 30,
    "num": 1
   },
   "width": 1327,
   "media_type": "image",
   "id": "GN2CUI4Y1E",
   "image": "Tutorial_assets/thumbnail/GN2CUI4Y1E.png"
  },
  {
   "acodec": "",
   "audio_bit_rate": 0,
   "audio_stream_index": -1,
   "audio_timebase": {
    "den": 1,
    "num": 1
   },
   "channel_layout": 4,
   "channels": 0,
   "display_ratio": {
    "den": 9,
    "num": 16
   },
   "duration": 3600.0,
   "file_size": "8294400",
   "fps": {
    "den": 1,
    "num": 30
   },
   "has_audio": false,
   "has_single_image": true,
   "has_video": true,
   "height": 1080,
   "interlaced_frame": false,
   "metadata": {},
   "path": "./Frame-04657.png",
   "pixel_format": -1,
   "pixel_ratio": {
    "den": 1,
    "num": 1
   },
   "sample_rate": 0,
   "top_field_first": true,
   "type": "QtImageReader",
   "vcodec": "",
   "video_bit_rate": 0,
   "video_length": "108000",
   "video_stream_index": -1,
   "video_timebase": {
    "den": 30,
    "num": 1
   },
   "width": 1920,
   "media_type": "image",
   "id": "SS021DPO08",
   "image": "Tutorial_assets/thumbnail/SS021DPO08.png"
  },
  {
   "acodec": "",
   "audio_bit_rate": 0,
   "audio_stream_index": -1,
   "audio_timebase": {
    "den": 1,
    "num": 1
   },
   "channel_layout": 4,
   "channels": 0,
   "display_ratio": {
    "den": 328,
    "num": 1327
   },
   "duration": 3600.0,
   "file_size": "1741024",
   "fps": {
    "den": 1,
    "num": 30
   },
   "has_audio": false,
   "has_single_image": true,
   "has_video": true,
   "height": 328,
   "interlaced_frame": false,
   "metadata": {},
   "path": "./drawing27.png",
   "pixel_format": -1,
   "pixel_ratio": {
    "den": 1,
    "num": 1
   },
   "sample_rate": 0,
   "top_field_first": true,
   "type": "QtImageReader",
   "vcodec": "",
   "video_bit_rate": 0,
   "video_length": "108000",
   "video_stream_index": -1,
   "video_timebase": {
    "den": 30,
    "num": 1
   },
   "width": 1327,
   "media_type": "image",
   "id": "L88S3GWKTF",
   "image": "Tutorial_assets/thumbnail/L88S3GWKTF.png"
  },
  {
   "acodec": "",
   "audio_bit_rate": 0,
   "audio_stream_index": -1,
   "audio_timebase": {
    "den": 1,
    "num": 1
   },
   "channel_layout": 4,
   "channels": 0,
   "display_ratio": {
    "den": 445,
    "num": 1612
   },
   "duration": 3600.0,
   "file_size": "2869360",
   "fps": {
    "den": 1,
    "num": 30
   },
   "has_audio": false,
   "has_single_image": true,
   "has_video": true,
   "height": 445,
   "interlaced_frame": false,
   "metadata": {},
   "path": "./drawing28.png",
   "pixel_format": -1,
   "pixel_ratio": {
    "den": 1,
    "num": 1
   },
   "sample_rate": 0,
   "top_field_first": true,
   "type": "QtImageReader",
   "vcodec": "",
   "video_bit_rate": 0,
   "video_length": "108000",
   "video_stream_index": -1,
   "video_timebase": {
    "den": 30,
    "num": 1
   },
   "width": 1612,
   "media_type": "image",
   "id": "RFL6E4KZIT",
   "image": "Tutorial_assets/thumbnail/RFL6E4KZIT.png"
  },
  {
   "acodec": "",
   "audio_bit_rate": 0,
   "audio_stream_index": -1,
   "audio_timebase": {
    "den": 1,
    "num": 1
   },
   "channel_layout": 4,
   "channels": 0,
   "display_ratio": {
    "den": 9,
    "num": 16
   },
   "duration": 3600.0,
   "file_size": "8294400",
   "fps": {
    "den": 1,
    "num": 30
   },
   "has_audio": false,
   "has_single_image": true,
   "has_video": true,
   "height": 1080,
   "interlaced_frame": false,
   "metadata": {},
   "path": "./Frame-05363.png",
   "pixel_format": -1,
   "pixel_ratio": {
    "den": 1,
    "num": 1
   },
   "sample_rate": 0,
   "top_field_first": true,
   "type": "QtImageReader",
   "vcodec": "",
   "video_bit_rate": 0,
   "video_length": "108000",
   "video_stream_index": -1,
   "video_timebase": {
    "den": 30,
    "num": 1
   },
   "width": 1920,
   "media_type": "image",
   "id": "F5XRLCY2E6",
   "image": "Tutorial_assets/thumbnail/F5XRLCY2E6.png"
  },
  {
   "acodec": "",
   "audio_bit_rate": 0,
   "audio_stream_index": -1,
   "audio_timebase": {
    "den": 1,
    "num": 1
   },
   "channel_layout": 4,
   "channels": 0,
   "display_ratio": {
    "den": 147,
    "num": 383
   },
   "duration": 3600.0,
   "file_size": "3603264",
   "fps": {
    "den": 1,
    "num": 30
   },
   "has_audio": false,
   "has_single_image": true,
   "has_video": true,
   "height": 588,
   "interlaced_frame": false,
   "metadata": {},
   "path": "./drawing29.png",
   "pixel_format": -1,
   "pixel_ratio": {
    "den": 1,
    "num": 1
   },
   "sample_rate": 0,
   "top_field_first": true,
   "type": "QtImageReader",
   "vcodec": "",
   "video_bit_rate": 0,
   "video_length": "108000",
   "video_stream_index": -1,
   "video_timebase": {
    "den": 30,
    "num": 1
   },
   "width": 1532,
   "media_type": "image",
   "id": "6D4BSVP4DU",
   "image": "Tutorial_assets/thumbnail/6D4BSVP4DU.png"
  },
  {
   "acodec": "",
   "audio_bit_rate": 0,
   "audio_stream_index": -1,
   "audio_timebase": {
    "den": 1,
    "num": 1
   },
   "channel_layout": 4,
   "channels": 0,
   "display_ratio": {
    "den": 9,
    "num": 16
   },
   "duration": 3600.0,
   "file_size": "8294400",
   "fps": {
    "den": 1,
    "num": 30
   },
   "has_audio": false,
   "has_single_image": true,
   "has_video": true,
   "height": 1080,
   "interlaced_frame": false,
   "metadata": {},
   "path": "./Frame-05618.png",
   "pixel_format": -1,
   "pixel_ratio": {
    "den": 1,
    "num": 1
   },
   "sample_rate": 0,
   "top_field_first": true,
   "type": "QtImageReader",
   "vcodec": "",
   "video_bit_rate": 0,
   "video_length": "108000",
   "video_stream_index": -1,
   "video_timebase": {
    "den": 30,
    "num": 1
   },
   "width": 1920,
   "media_type": "image",
   "id": "GBEHHA9AF7",
   "image": "Tutorial_assets/thumbnail/GBEHHA9AF7.png"
  },
  {
   "acodec": "",
   "audio_bit_rate": 0,
   "audio_stream_index": -1,
   "audio_timebase": {
    "den": 1,
    "num": 1
   },
   "channel_layout": 4,
   "channels": 0,
   "display_ratio": {
    "den": 613,
    "num": 1854
   },
   "duration": 3600.0,
   "file_size": "4546008",
   "fps": {
    "den": 1,
    "num": 30
   },
   "has_audio": false,
   "has_single_image": true,
   "has_video": true,
   "height": 613,
   "interlaced_frame": false,
   "metadata": {},
   "path": "./drawing30.png",
   "pixel_format": -1,
   "pixel_ratio": {
    "den": 1,
    "num": 1
   },
   "sample_rate": 0,
   "top_field_first": true,
   "type": "QtImageReader",
   "vcodec": "",
   "video_bit_rate": 0,
   "video_length": "108000",
   "video_stream_index": -1,
   "video_timebase": {
    "den": 30,
    "num": 1
   },
   "width": 1854,
   "media_type": "image",
   "id": "A97ZXTVQOK",
   "image": "Tutorial_assets/thumbnail/A97ZXTVQOK.png"
  },
  {
   "acodec": "",
   "audio_bit_rate": 0,
   "audio_stream_index": -1,
   "audio_timebase": {
    "den": 1,
    "num": 1
   },
   "channel_layout": 4,
   "channels": 0,
   "display_ratio": {
    "den": 9,
    "num": 16
   },
   "duration": 65.06666564941406,
   "file_size": "44795656",
   "fps": {
    "den": 1,
    "num": 30
   },
   "has_audio": false,
   "has_single_image": false,
   "has_video": true,
   "height": 1080,
   "interlaced_frame": false,
   "metadata": {
    "comment": "Create videos with https://clipchamp.com/en/video-editor - free online video editor, video compressor, video converter.",
    "compatible_brands": "isomiso2avc1mp41",
    "encoder": "https://clipchamp.com",
    "handler_name": "VideoHandler",
    "language": "und",
    "major_brand": "isom",
    "minor_version": "512"
   },
   "path": "./movie_003_003.mp4",
   "pixel_format": 0,
   "pixel_ratio": {
    "den": 1,
    "num": 1
   },
   "sample_rate": 0,
   "top_field_first": true,
   "type": "FFmpegReader",
   "vcodec": "h264",
   "video_bit_rate": 688454,
   "video_length": "1952",
   "video_stream_index": 0,
   "video_timebase": {
    "den": 15360,
    "num": 1
   },
   "width": 1920,
   "media_type": "video",
   "id": "J920Z8D3MS",
   "image": "Tutorial_assets/thumbnail/J920Z8D3MS.png"
  },
  {
   "acodec": "",
   "audio_bit_rate": 0,
   "audio_stream_index": -1,
   "audio_timebase": {
    "den": 1,
    "num": 1
   },
   "channel_layout": 4,
   "channels": 0,
   "display_ratio": {
    "den": 9,
    "num": 16
   },
   "duration": 3600.0,
   "file_size": "8294400",
   "fps": {
    "den": 1,
    "num": 30
   },
   "has_audio": false,
   "has_single_image": true,
   "has_video": true,
   "height": 1080,
   "interlaced_frame": false,
   "metadata": {},
   "path": "./Frame-06008.png",
   "pixel_format": -1,
   "pixel_ratio": {
    "den": 1,
    "num": 1
   },
   "sample_rate": 0,
   "top_field_first": true,
   "type": "QtImageReader",
   "vcodec": "",
   "video_bit_rate": 0,
   "video_length": "108000",
   "video_stream_index": -1,
   "video_timebase": {
    "den": 30,
    "num": 1
   },
   "width": 1920,
   "media_type": "image",
   "id": "T15ZD02S2R",
   "image": "Tutorial_assets/thumbnail/T15ZD02S2R.png"
  },
  {
   "acodec": "",
   "audio_bit_rate": 0,
   "audio_stream_index": -1,
   "audio_timebase": {
    "den": 1,
    "num": 1
   },
   "channel_layout": 4,
   "channels": 0,
   "display_ratio": {
    "den": 293,
    "num": 869
   },
   "duration": 3600.0,
   "file_size": "4073872",
   "fps": {
    "den": 1,
    "num": 30
   },
   "has_audio": false,
   "has_single_image": true,
   "has_video": true,
   "height": 586,
   "interlaced_frame": false,
   "metadata": {},
   "path": "./drawing31.png",
   "pixel_format": -1,
   "pixel_ratio": {
    "den": 1,
    "num": 1
   },
   "sample_rate": 0,
   "top_field_first": true,
   "type": "QtImageReader",
   "vcodec": "",
   "video_bit_rate": 0,
   "video_length": "108000",
   "video_stream_index": -1,
   "video_timebase": {
    "den": 30,
    "num": 1
   },
   "width": 1738,
   "media_type": "image",
   "id": "QBUIFMDBP2",
   "image": "Tutorial_assets/thumbnail/QBUIFMDBP2.png"
  },
  {
   "acodec": "",
   "audio_bit_rate": 0,
   "audio_stream_index": -1,
   "audio_timebase": {
    "den": 1,
    "num": 1
   },
   "channel_layout": 4,
   "channels": 0,
   "display_ratio": {
    "den": 9,
    "num": 16
   },
   "duration": 3600.0,
   "file_size": "8294400",
   "fps": {
    "den": 1,
    "num": 30
   },
   "has_audio": false,
   "has_single_image": true,
   "has_video": true,
   "height": 1080,
   "interlaced_frame": false,
   "metadata": {},
   "path": "./Frame-06007.png",
   "pixel_format": -1,
   "pixel_ratio": {
    "den": 1,
    "num": 1
   },
   "sample_rate": 0,
   "top_field_first": true,
   "type": "QtImageReader",
   "vcodec": "",
   "video_bit_rate": 0,
   "video_length": "108000",
   "video_stream_index": -1,
   "video_timebase": {
    "den": 30,
    "num": 1
   },
   "width": 1920,
   "media_type": "image",
   "id": "E7VJAVKOU3",
   "image": "Tutorial_assets/thumbnail/E7VJAVKOU3.png"
  },
  {
   "acodec": "",
   "audio_bit_rate": 0,
   "audio_stream_index": -1,
   "audio_timebase": {
    "den": 1,
    "num": 1
   },
   "channel_layout": 4,
   "channels": 0,
   "display_ratio": {
    "den": 613,
    "num": 1691
   },
   "duration": 3600.0,
   "file_size": "4146332",
   "fps": {
    "den": 1,
    "num": 30
   },
   "has_audio": false,
   "has_single_image": true,
   "has_video": true,
   "height": 613,
   "interlaced_frame": false,
   "metadata": {},
   "path": "./drawing32.png",
   "pixel_format": -1,
   "pixel_ratio": {
    "den": 1,
    "num": 1
   },
   "sample_rate": 0,
   "top_field_first": true,
   "type": "QtImageReader",
   "vcodec": "",
   "video_bit_rate": 0,
   "video_length": "108000",
   "video_stream_index": -1,
   "video_timebase": {
    "den": 30,
    "num": 1
   },
   "width": 1691,
   "media_type": "image",
   "id": "KR9NBF5CR8",
   "image": "Tutorial_assets/thumbnail/KR9NBF5CR8.png"
  },
  {
   "acodec": "",
   "audio_bit_rate": 0,
   "audio_stream_index": -1,
   "audio_timebase": {
    "den": 1,
    "num": 1
   },
   "channel_layout": 4,
   "channels": 0,
   "display_ratio": {
    "den": 613,
    "num": 1691
   },
   "duration": 3600.0,
   "file_size": "4146332",
   "fps": {
    "den": 1,
    "num": 30
   },
   "has_audio": false,
   "has_single_image": true,
   "has_video": true,
   "height": 613,
   "interlaced_frame": false,
   "metadata": {},
   "path": "./drawing33.png",
   "pixel_format": -1,
   "pixel_ratio": {
    "den": 1,
    "num": 1
   },
   "sample_rate": 0,
   "top_field_first": true,
   "type": "QtImageReader",
   "vcodec": "",
   "video_bit_rate": 0,
   "video_length": "108000",
   "video_stream_index": -1,
   "video_timebase": {
    "den": 30,
    "num": 1
   },
   "width": 1691,
   "media_type": "image",
   "id": "FPNO7V8AD4",
   "image": "Tutorial_assets/thumbnail/FPNO7V8AD4.png"
  },
  {
   "acodec": "",
   "audio_bit_rate": 0,
   "audio_stream_index": -1,
   "audio_timebase": {
    "den": 1,
    "num": 1
   },
   "channel_layout": 4,
   "channels": 0,
   "display_ratio": {
    "den": 221,
    "num": 725
   },
   "duration": 3600.0,
   "file_size": "2563600",
   "fps": {
    "den": 1,
    "num": 30
   },
   "has_audio": false,
   "has_single_image": true,
   "has_video": true,
   "height": 442,
   "interlaced_frame": false,
   "metadata": {},
   "path": "./drawing34.png",
   "pixel_format": -1,
   "pixel_ratio": {
    "den": 1,
    "num": 1
   },
   "sample_rate": 0,
   "top_field_first": true,
   "type": "QtImageReader",
   "vcodec": "",
   "video_bit_rate": 0,
   "video_length": "108000",
   "video_stream_index": -1,
   "video_timebase": {
    "den": 30,
    "num": 1
   },
   "width": 1450,
   "media_type": "image",
   "id": "0ZSIJWDFFG",
   "image": "Tutorial_assets/thumbnail/0ZSIJWDFFG.png"
  },
  {
   "acodec": "",
   "audio_bit_rate": 0,
   "audio_stream_index": -1,
   "audio_timebase": {
    "den": 1,
    "num": 1
   },
   "channel_layout": 4,
   "channels": 0,
   "display_ratio": {
    "den": 9,
    "num": 16
   },
   "duration": 3600.0,
   "file_size": "8294400",
   "fps": {
    "den": 1,
    "num": 30
   },
   "has_audio": false,
   "has_single_image": true,
   "has_video": true,
   "height": 1080,
   "interlaced_frame": false,
   "metadata": {},
   "path": "./Frame-07117.png",
   "pixel_format": -1,
   "pixel_ratio": {
    "den": 1,
    "num": 1
   },
   "sample_rate": 0,
   "top_field_first": true,
   "type": "QtImageReader",
   "vcodec": "",
   "video_bit_rate": 0,
   "video_length": "108000",
   "video_stream_index": -1,
   "video_timebase": {
    "den": 30,
    "num": 1
   },
   "width": 1920,
   "media_type": "image",
   "id": "84TP24E78M",
   "image": "Tutorial_assets/thumbnail/84TP24E78M.png"
  },
  {
   "acodec": "",
   "audio_bit_rate": 0,
   "audio_stream_index": -1,
   "audio_timebase": {
    "den": 1,
    "num": 1
   },
   "channel_layout": 4,
   "channels": 0,
   "display_ratio": {
    "den": 18,
    "num": 53
   },
   "duration": 3600.0,
   "file_size": "6731424",
   "fps": {
    "den": 1,
    "num": 30
   },
   "has_audio": false,
   "has_single_image": true,
   "has_video": true,
   "height": 756,
   "interlaced_frame": false,
   "metadata": {},
   "path": "./drawing35.png",
   "pixel_format": -1,
   "pixel_ratio": {
    "den": 1,
    "num": 1
   },
   "sample_rate": 0,
   "top_field_first": true,
   "type": "QtImageReader",
   "vcodec": "",
   "video_bit_rate": 0,
   "video_length": "108000",
   "video_stream_index": -1,
   "video_timebase": {
    "den": 30,
    "num": 1
   },
   "width": 2226,
   "media_type": "image",
   "id": "IG6W43TDYJ",
   "image": "Tutorial_assets/thumbnail/IG6W43TDYJ.png"
  },
  {
   "acodec": "",
   "audio_bit_rate": 0,
   "audio_stream_index": -1,
   "audio_timebase": {
    "den": 1,
    "num": 1
   },
   "channel_layout": 4,
   "channels": 0,
   "display_ratio": {
    "den": 613,
    "num": 1854
   },
   "duration": 3600.0,
   "file_size": "4546008",
   "fps": {
    "den": 1,
    "num": 30
   },
   "has_audio": false,
   "has_single_image": true,
   "has_video": true,
   "height": 613,
   "interlaced_frame": false,
   "metadata": {},
   "path": "./drawing36.png",
   "pixel_format": -1,
   "pixel_ratio": {
    "den": 1,
    "num": 1
   },
   "sample_rate": 0,
   "top_field_first": true,
   "type": "QtImageReader",
   "vcodec": "",
   "video_bit_rate": 0,
   "video_length": "108000",
   "video_stream_index": -1,
   "video_timebase": {
    "den": 30,
    "num": 1
   },
   "width": 1854,
   "media_type": "image",
   "id": "7VE1IFXBD7",
   "image": "Tutorial_assets/thumbnail/7VE1IFXBD7.png"
  },
  {
   "acodec": "",
   "audio_bit_rate": 0,
   "audio_stream_index": -1,
   "audio_timebase": {
    "den": 1,
    "num": 1
   },
   "channel_layout": 4,
   "channels": 0,
   "display_ratio": {
    "den": 9,
    "num": 16
   },
   "duration": 3600.0,
   "file_size": "8294400",
   "fps": {
    "den": 1,
    "num": 30
   },
   "has_audio": false,
   "has_single_image": true,
   "has_video": true,
   "height": 1080,
   "interlaced_frame": false,
   "metadata": {},
   "path": "./Frame-06854.png",
   "pixel_format": -1,
   "pixel_ratio": {
    "den": 1,
    "num": 1
   },
   "sample_rate": 0,
   "top_field_first": true,
   "type": "QtImageReader",
   "vcodec": "",
   "video_bit_rate": 0,
   "video_length": "108000",
   "video_stream_index": -1,
   "video_timebase": {
    "den": 30,
    "num": 1
   },
   "width": 1920,
   "media_type": "image",
   "id": "4QMICLJUOE",
   "image": "Tutorial_assets/thumbnail/4QMICLJUOE.png"
  },
  {
   "acodec": "",
   "audio_bit_rate": 0,
   "audio_stream_index": -1,
   "audio_timebase": {
    "den": 1,
    "num": 1
   },
   "channel_layout": 4,
   "channels": 0,
   "display_ratio": {
    "den": 9,
    "num": 16
   },
   "duration": 55.400001525878906,
   "file_size": "29160211",
   "fps": {
    "den": 1,
    "num": 30
   },
   "has_audio": false,
   "has_single_image": false,
   "has_video": true,
   "height": 1080,
   "interlaced_frame": false,
   "metadata": {
    "compatible_brands": "mp41isom",
    "creation_time": "2024-05-26T21:25:52.000000Z",
    "encoder": "AVC Coding",
    "handler_name": "VideoHandler",
    "language": "und",
    "major_brand": "mp42",
    "minor_version": "0"
   },
   "path": "./Movie_012.mp4",
   "pixel_format": 0,
   "pixel_ratio": {
    "den": 1,
    "num": 1
   },
   "sample_rate": 0,
   "top_field_first": true,
   "type": "FFmpegReader",
   "vcodec": "h264",
   "video_bit_rate": 526357,
   "video_length": "1662",
   "video_stream_index": 0,
   "video_timebase": {
    "den": 30000,
    "num": 1
   },
   "width": 1920,
   "media_type": "video",
   "id": "KBSWRPDX0A",
   "image": "Tutorial_assets/thumbnail/KBSWRPDX0A.png"
  },
  {
   "acodec": "",
   "audio_bit_rate": 0,
   "audio_stream_index": -1,
   "audio_timebase": {
    "den": 1,
    "num": 1
   },
   "channel_layout": 4,
   "channels": 0,
   "display_ratio": {
    "den": 389,
    "num": 1371
   },
   "duration": 3600.0,
   "file_size": "2133276",
   "fps": {
    "den": 1,
    "num": 30
   },
   "has_audio": false,
   "has_single_image": true,
   "has_video": true,
   "height": 389,
   "interlaced_frame": false,
   "metadata": {},
   "path": "./drawing37.png",
   "pixel_format": -1,
   "pixel_ratio": {
    "den": 1,
    "num": 1
   },
   "sample_rate": 0,
   "top_field_first": true,
   "type": "QtImageReader",
   "vcodec": "",
   "video_bit_rate": 0,
   "video_length": "108000",
   "video_stream_index": -1,
   "video_timebase": {
    "den": 30,
    "num": 1
   },
   "width": 1371,
   "media_type": "image",
   "id": "3JD0NA6KLK",
   "image": "Tutorial_assets/thumbnail/3JD0NA6KLK.png"
  },
  {
   "acodec": "",
   "audio_bit_rate": 0,
   "audio_stream_index": -1,
   "audio_timebase": {
    "den": 1,
    "num": 1
   },
   "channel_layout": 4,
   "channels": 0,
   "display_ratio": {
    "den": 51,
    "num": 169
   },
   "duration": 3600.0,
   "file_size": "5826444",
   "fps": {
    "den": 1,
    "num": 30
   },
   "has_audio": false,
   "has_single_image": true,
   "has_video": true,
   "height": 663,
   "interlaced_frame": false,
   "metadata": {},
   "path": "./drawing38.png",
   "pixel_format": -1,
   "pixel_ratio": {
    "den": 1,
    "num": 1
   },
   "sample_rate": 0,
   "top_field_first": true,
   "type": "QtImageReader",
   "vcodec": "",
   "video_bit_rate": 0,
   "video_length": "108000",
   "video_stream_index": -1,
   "video_timebase": {
    "den": 30,
    "num": 1
   },
   "width": 2197,
   "media_type": "image",
   "id": "FQ1W6KUCBI",
   "image": "Tutorial_assets/thumbnail/FQ1W6KUCBI.png"
  },
  {
   "acodec": "",
   "audio_bit_rate": 0,
   "audio_stream_index": -1,
   "audio_timebase": {
    "den": 1,
    "num": 1
   },
   "channel_layout": 4,
   "channels": 0,
   "display_ratio": {
    "den": 9,
    "num": 16
   },
   "duration": 3600.0,
   "file_size": "8294400",
   "fps": {
    "den": 1,
    "num": 30
   },
   "has_audio": false,
   "has_single_image": true,
   "has_video": true,
   "height": 1080,
   "interlaced_frame": false,
   "metadata": {},
   "path": "./Frame-07845.png",
   "pixel_format": -1,
   "pixel_ratio": {
    "den": 1,
    "num": 1
   },
   "sample_rate": 0,
   "top_field_first": true,
   "type": "QtImageReader",
   "vcodec": "",
   "video_bit_rate": 0,
   "video_length": "108000",
   "video_stream_index": -1,
   "video_timebase": {
    "den": 30,
    "num": 1
   },
   "width": 1920,
   "media_type": "image",
   "id": "53LOR2W8NW",
   "image": "Tutorial_assets/thumbnail/53LOR2W8NW.png"
  },
  {
   "acodec": "",
   "audio_bit_rate": 0,
   "audio_stream_index": -1,
   "audio_timebase": {
    "den": 1,
    "num": 1
   },
   "channel_layout": 4,
   "channels": 0,
   "display_ratio": {
    "den": 721,
    "num": 1700
   },
   "duration": 3600.0,
   "file_size": "4902800",
   "fps": {
    "den": 1,
    "num": 30
   },
   "has_audio": false,
   "has_single_image": true,
   "has_video": true,
   "height": 721,
   "interlaced_frame": false,
   "metadata": {},
   "path": "./drawing39.png",
   "pixel_format": -1,
   "pixel_ratio": {
    "den": 1,
    "num": 1
   },
   "sample_rate": 0,
   "top_field_first": true,
   "type": "QtImageReader",
   "vcodec": "",
   "video_bit_rate": 0,
   "video_length": "108000",
   "video_stream_index": -1,
   "video_timebase": {
    "den": 30,
    "num": 1
   },
   "width": 1700,
   "media_type": "image",
   "id": "IBXEJYB8PQ",
   "image": "Tutorial_assets/thumbnail/IBXEJYB8PQ.png"
  },
  {
   "acodec": "",
   "audio_bit_rate": 0,
   "audio_stream_index": -1,
   "audio_timebase": {
    "den": 1,
    "num": 1
   },
   "channel_layout": 4,
   "channels": 0,
   "display_ratio": {
    "den": 231,
    "num": 908
   },
   "duration": 3600.0,
   "file_size": "3355968",
   "fps": {
    "den": 1,
    "num": 30
   },
   "has_audio": false,
   "has_single_image": true,
   "has_video": true,
   "height": 462,
   "interlaced_frame": false,
   "metadata": {},
   "path": "./drawing40.png",
   "pixel_format": -1,
   "pixel_ratio": {
    "den": 1,
    "num": 1
   },
   "sample_rate": 0,
   "top_field_first": true,
   "type": "QtImageReader",
   "vcodec": "",
   "video_bit_rate": 0,
   "video_length": "108000",
   "video_stream_index": -1,
   "video_timebase": {
    "den": 30,
    "num": 1
   },
   "width": 1816,
   "media_type": "image",
   "id": "29GXOB1GD2",
   "image": "Tutorial_assets/thumbnail/29GXOB1GD2.png"
  },
  {
   "acodec": "",
   "audio_bit_rate": 0,
   "audio_stream_index": -1,
   "audio_timebase": {
    "den": 1,
    "num": 1
   },
   "channel_layout": 4,
   "channels": 0,
   "display_ratio": {
    "den": 9,
    "num": 16
   },
   "duration": 3600.0,
   "file_size": "8294400",
   "fps": {
    "den": 1,
    "num": 30
   },
   "has_audio": false,
   "has_single_image": true,
   "has_video": true,
   "height": 1080,
   "interlaced_frame": false,
   "metadata": {},
   "path": "./Frame-08118.png",
   "pixel_format": -1,
   "pixel_ratio": {
    "den": 1,
    "num": 1
   },
   "sample_rate": 0,
   "top_field_first": true,
   "type": "QtImageReader",
   "vcodec": "",
   "video_bit_rate": 0,
   "video_length": "108000",
   "video_stream_index": -1,
   "video_timebase": {
    "den": 30,
    "num": 1
   },
   "width": 1920,
   "media_type": "image",
   "id": "QY4ODDQIKF",
   "image": "Tutorial_assets/thumbnail/QY4ODDQIKF.png"
  },
  {
   "acodec": "",
   "audio_bit_rate": 0,
   "audio_stream_index": -1,
   "audio_timebase": {
    "den": 1,
    "num": 1
   },
   "channel_layout": 4,
   "channels": 0,
   "display_ratio": {
    "den": 394,
    "num": 969
   },
   "duration": 3600.0,
   "file_size": "6108576",
   "fps": {
    "den": 1,
    "num": 30
   },
   "has_audio": false,
   "has_single_image": true,
   "has_video": true,
   "height": 788,
   "interlaced_frame": false,
   "metadata": {},
   "path": "./drawing41.png",
   "pixel_format": -1,
   "pixel_ratio": {
    "den": 1,
    "num": 1
   },
   "sample_rate": 0,
   "top_field_first": true,
   "type": "QtImageReader",
   "vcodec": "",
   "video_bit_rate": 0,
   "video_length": "108000",
   "video_stream_index": -1,
   "video_timebase": {
    "den": 30,
    "num": 1
   },
   "width": 1938,
   "media_type": "image",
   "id": "EAX12W7LLS",
   "image": "Tutorial_assets/thumbnail/EAX12W7LLS.png"
  },
  {
   "acodec": "",
   "audio_bit_rate": 0,
   "audio_stream_index": -1,
   "audio_timebase": {
    "den": 1,
    "num": 1
   },
   "channel_layout": 4,
   "channels": 0,
   "display_ratio": {
    "den": 677,
    "num": 1953
   },
   "duration": 3600.0,
   "file_size": "5288724",
   "fps": {
    "den": 1,
    "num": 30
   },
   "has_audio": false,
   "has_single_image": true,
   "has_video": true,
   "height": 677,
   "interlaced_frame": false,
   "metadata": {},
   "path": "./drawing42.png",
   "pixel_format": -1,
   "pixel_ratio": {
    "den": 1,
    "num": 1
   },
   "sample_rate": 0,
   "top_field_first": true,
   "type": "QtImageReader",
   "vcodec": "",
   "video_bit_rate": 0,
   "video_length": "108000",
   "video_stream_index": -1,
   "video_timebase": {
    "den": 30,
    "num": 1
   },
   "width": 1953,
   "media_type": "image",
   "id": "2L7KFP8PY2",
   "image": "Tutorial_assets/thumbnail/2L7KFP8PY2.png"
  },
  {
   "acodec": "",
   "audio_bit_rate": 0,
   "audio_stream_index": -1,
   "audio_timebase": {
    "den": 1,
    "num": 1
   },
   "channel_layout": 4,
   "channels": 0,
   "display_ratio": {
    "den": 9,
    "num": 16
   },
   "duration": 3600.0,
   "file_size": "8294400",
   "fps": {
    "den": 1,
    "num": 30
   },
   "has_audio": false,
   "has_single_image": true,
   "has_video": true,
   "height": 1080,
   "interlaced_frame": false,
   "metadata": {},
   "path": "./Frame-08557.png",
   "pixel_format": -1,
   "pixel_ratio": {
    "den": 1,
    "num": 1
   },
   "sample_rate": 0,
   "top_field_first": true,
   "type": "QtImageReader",
   "vcodec": "",
   "video_bit_rate": 0,
   "video_length": "108000",
   "video_stream_index": -1,
   "video_timebase": {
    "den": 30,
    "num": 1
   },
   "width": 1920,
   "media_type": "image",
   "id": "TJV79I9UKE",
   "image": "Tutorial_assets/thumbnail/TJV79I9UKE.png"
  },
  {
   "acodec": "",
   "audio_bit_rate": 0,
   "audio_stream_index": -1,
   "audio_timebase": {
    "den": 1,
    "num": 1
   },
   "channel_layout": 4,
   "channels": 0,
   "display_ratio": {
    "den": 9,
    "num": 16
   },
   "duration": 3600.0,
   "file_size": "8294400",
   "fps": {
    "den": 1,
    "num": 30
   },
   "has_audio": false,
   "has_single_image": true,
   "has_video": true,
   "height": 1080,
   "interlaced_frame": false,
   "metadata": {},
   "path": "./Frame-08963.png",
   "pixel_format": -1,
   "pixel_ratio": {
    "den": 1,
    "num": 1
   },
   "sample_rate": 0,
   "top_field_first": true,
   "type": "QtImageReader",
   "vcodec": "",
   "video_bit_rate": 0,
   "video_length": "108000",
   "video_stream_index": -1,
   "video_timebase": {
    "den": 30,
    "num": 1
   },
   "width": 1920,
   "media_type": "image",
   "id": "INIFRP1LE2",
   "image": "Tutorial_assets/thumbnail/INIFRP1LE2.png"
  },
  {
   "acodec": "",
   "audio_bit_rate": 0,
   "audio_stream_index": -1,
   "audio_timebase": {
    "den": 1,
    "num": 1
   },
   "channel_layout": 4,
   "channels": 0,
   "display_ratio": {
    "den": 509,
    "num": 1362
   },
   "duration": 3600.0,
   "file_size": "2773032",
   "fps": {
    "den": 1,
    "num": 30
   },
   "has_audio": false,
   "has_single_image": true,
   "has_video": true,
   "height": 509,
   "interlaced_frame": false,
   "metadata": {},
   "path": "./drawing43.png",
   "pixel_format": -1,
   "pixel_ratio": {
    "den": 1,
    "num": 1
   },
   "sample_rate": 0,
   "top_field_first": true,
   "type": "QtImageReader",
   "vcodec": "",
   "video_bit_rate": 0,
   "video_length": "108000",
   "video_stream_index": -1,
   "video_timebase": {
    "den": 30,
    "num": 1
   },
   "width": 1362,
   "media_type": "image",
   "id": "YDCKY6EQHI",
   "image": "Tutorial_assets/thumbnail/YDCKY6EQHI.png"
  },
  {
   "acodec": "",
   "audio_bit_rate": 0,
   "audio_stream_index": -1,
   "audio_timebase": {
    "den": 1,
    "num": 1
   },
   "channel_layout": 4,
   "channels": 0,
   "display_ratio": {
    "den": 625,
    "num": 1909
   },
   "duration": 3600.0,
   "file_size": "4772500",
   "fps": {
    "den": 1,
    "num": 30
   },
   "has_audio": false,
   "has_single_image": true,
   "has_video": true,
   "height": 625,
   "interlaced_frame": false,
   "metadata": {},
   "path": "./drawing44.png",
   "pixel_format": -1,
   "pixel_ratio": {
    "den": 1,
    "num": 1
   },
   "sample_rate": 0,
   "top_field_first": true,
   "type": "QtImageReader",
   "vcodec": "",
   "video_bit_rate": 0,
   "video_length": "108000",
   "video_stream_index": -1,
   "video_timebase": {
    "den": 30,
    "num": 1
   },
   "width": 1909,
   "media_type": "image",
   "id": "SQRCZDSQFQ",
   "image": "Tutorial_assets/thumbnail/SQRCZDSQFQ.png"
  },
  {
   "acodec": "",
   "audio_bit_rate": 0,
   "audio_stream_index": -1,
   "audio_timebase": {
    "den": 1,
    "num": 1
   },
   "channel_layout": 4,
   "channels": 0,
   "display_ratio": {
    "den": 625,
    "num": 1909
   },
   "duration": 3600.0,
   "file_size": "4772500",
   "fps": {
    "den": 1,
    "num": 30
   },
   "has_audio": false,
   "has_single_image": true,
   "has_video": true,
   "height": 625,
   "interlaced_frame": false,
   "metadata": {},
   "path": "./drawing45.png",
   "pixel_format": -1,
   "pixel_ratio": {
    "den": 1,
    "num": 1
   },
   "sample_rate": 0,
   "top_field_first": true,
   "type": "QtImageReader",
   "vcodec": "",
   "video_bit_rate": 0,
   "video_length": "108000",
   "video_stream_index": -1,
   "video_timebase": {
    "den": 30,
    "num": 1
   },
   "width": 1909,
   "media_type": "image",
   "id": "JZM21MVCN4",
   "image": "Tutorial_assets/thumbnail/JZM21MVCN4.png"
  },
  {
   "acodec": "",
   "audio_bit_rate": 0,
   "audio_stream_index": -1,
   "audio_timebase": {
    "den": 1,
    "num": 1
   },
   "channel_layout": 4,
   "channels": 0,
   "display_ratio": {
    "den": 529,
    "num": 1569
   },
   "duration": 3600.0,
   "file_size": "3320004",
   "fps": {
    "den": 1,
    "num": 30
   },
   "has_audio": false,
   "has_single_image": true,
   "has_video": true,
   "height": 529,
   "interlaced_frame": false,
   "metadata": {},
   "path": "./drawing46.png",
   "pixel_format": -1,
   "pixel_ratio": {
    "den": 1,
    "num": 1
   },
   "sample_rate": 0,
   "top_field_first": true,
   "type": "QtImageReader",
   "vcodec": "",
   "video_bit_rate": 0,
   "video_length": "108000",
   "video_stream_index": -1,
   "video_timebase": {
    "den": 30,
    "num": 1
   },
   "width": 1569,
   "media_type": "image",
   "id": "UGIK5GWBC6",
   "image": "Tutorial_assets/thumbnail/UGIK5GWBC6.png"
  },
  {
   "acodec": "",
   "audio_bit_rate": 0,
   "audio_stream_index": -1,
   "audio_timebase": {
    "den": 1,
    "num": 1
   },
   "channel_layout": 4,
   "channels": 0,
   "display_ratio": {
    "den": 157,
    "num": 401
   },
   "duration": 3600.0,
   "file_size": "4029248",
   "fps": {
    "den": 1,
    "num": 30
   },
   "has_audio": false,
   "has_single_image": true,
   "has_video": true,
   "height": 628,
   "interlaced_frame": false,
   "metadata": {},
   "path": "./drawing47.png",
   "pixel_format": -1,
   "pixel_ratio": {
    "den": 1,
    "num": 1
   },
   "sample_rate": 0,
   "top_field_first": true,
   "type": "QtImageReader",
   "vcodec": "",
   "video_bit_rate": 0,
   "video_length": "108000",
   "video_stream_index": -1,
   "video_timebase": {
    "den": 30,
    "num": 1
   },
   "width": 1604,
   "media_type": "image",
   "id": "09VGX5JHKF",
   "image": "Tutorial_assets/thumbnail/09VGX5JHKF.png"
  },
  {
   "acodec": "",
   "audio_bit_rate": 0,
   "audio_stream_index": -1,
   "audio_timebase": {
    "den": 1,
    "num": 1
   },
   "channel_layout": 4,
   "channels": 0,
   "display_ratio": {
    "den": 205,
    "num": 407
   },
   "duration": 3600.0,
   "file_size": "3003660",
   "fps": {
    "den": 1,
    "num": 30
   },
   "has_audio": false,
   "has_single_image": true,
   "has_video": true,
   "height": 615,
   "interlaced_frame": false,
   "metadata": {},
   "path": "./drawing48.png",
   "pixel_format": -1,
   "pixel_ratio": {
    "den": 1,
    "num": 1
   },
   "sample_rate": 0,
   "top_field_first": true,
   "type": "QtImageReader",
   "vcodec": "",
   "video_bit_rate": 0,
   "video_length": "108000",
   "video_stream_index": -1,
   "video_timebase": {
    "den": 30,
    "num": 1
   },
   "width": 1221,
   "media_type": "image",
   "id": "OV2FZXL5F1",
   "image": "Tutorial_assets/thumbnail/OV2FZXL5F1.png"
  },
  {
   "acodec": "",
   "audio_bit_rate": 0,
   "audio_stream_index": -1,
   "audio_timebase": {
    "den": 1,
    "num": 1
   },
   "channel_layout": 4,
   "channels": 0,
   "display_ratio": {
    "den": 9,
    "num": 16
   },
   "duration": 37.93330001831055,
   "file_size": "25226659",
   "fps": {
    "den": 1,
    "num": 30
   },
   "has_audio": false,
   "has_single_image": false,
   "has_video": true,
   "height": 1080,
   "interlaced_frame": false,
   "metadata": {
    "compatible_brands": "mp41isom",
    "creation_time": "2024-05-23T17:59:24.000000Z",
    "encoder": "AVC Coding",
    "handler_name": "VideoHandler",
    "language": "und",
    "major_brand": "mp42",
    "minor_version": "0"
   },
   "path": "./Movie_008.mp4",
   "pixel_format": 0,
   "pixel_ratio": {
    "den": 1,
    "num": 1
   },
   "sample_rate": 0,
   "top_field_first": true,
   "type": "FFmpegReader",
   "vcodec": "h264",
   "video_bit_rate": 665026,
   "video_length": "1138",
   "video_stream_index": 0,
   "video_timebase": {
    "den": 30000,
    "num": 1
   },
   "width": 1920,
   "media_type": "video",
   "id": "KVLMCK9YI0",
   "image": "Tutorial_assets/thumbnail/KVLMCK9YI0.png"
  },
  {
   "acodec": "",
   "audio_bit_rate": 0,
   "audio_stream_index": -1,
   "audio_timebase": {
    "den": 1,
    "num": 1
   },
   "channel_layout": 4,
   "channels": 0,
   "display_ratio": {
    "den": 526,
    "num": 1639
   },
   "duration": 3600.0,
   "file_size": "3448456",
   "fps": {
    "den": 1,
    "num": 30
   },
   "has_audio": false,
   "has_single_image": true,
   "has_video": true,
   "height": 526,
   "interlaced_frame": false,
   "metadata": {},
   "path": "./drawing49.png",
   "pixel_format": -1,
   "pixel_ratio": {
    "den": 1,
    "num": 1
   },
   "sample_rate": 0,
   "top_field_first": true,
   "type": "QtImageReader",
   "vcodec": "",
   "video_bit_rate": 0,
   "video_length": "108000",
   "video_stream_index": -1,
   "video_timebase": {
    "den": 30,
    "num": 1
   },
   "width": 1639,
   "media_type": "image",
   "id": "1OECMG8EFH",
   "image": "Tutorial_assets/thumbnail/1OECMG8EFH.png"
  },
  {
   "acodec": "",
   "audio_bit_rate": 0,
   "audio_stream_index": -1,
   "audio_timebase": {
    "den": 1,
    "num": 1
   },
   "channel_layout": 4,
   "channels": 0,
   "display_ratio": {
    "den": 96,
    "num": 217
   },
   "duration": 3600.0,
   "file_size": "1333248",
   "fps": {
    "den": 1,
    "num": 30
   },
   "has_audio": false,
   "has_single_image": true,
   "has_video": true,
   "height": 384,
   "interlaced_frame": false,
   "metadata": {},
   "path": "./drawing50.png",
   "pixel_format": -1,
   "pixel_ratio": {
    "den": 1,
    "num": 1
   },
   "sample_rate": 0,
   "top_field_first": true,
   "type": "QtImageReader",
   "vcodec": "",
   "video_bit_rate": 0,
   "video_length": "108000",
   "video_stream_index": -1,
   "video_timebase": {
    "den": 30,
    "num": 1
   },
   "width": 868,
   "media_type": "image",
   "id": "FLPKSBWK37",
   "image": "Tutorial_assets/thumbnail/FLPKSBWK37.png"
  },
  {
   "acodec": "",
   "audio_bit_rate": 0,
   "audio_stream_index": -1,
   "audio_timebase": {
    "den": 1,
    "num": 1
   },
   "channel_layout": 4,
   "channels": 0,
   "display_ratio": {
    "den": 9,
    "num": 16
   },
   "duration": 74.83333587646484,
   "file_size": "78639119",
   "fps": {
    "den": 1,
    "num": 30
   },
   "has_audio": false,
   "has_single_image": false,
   "has_video": true,
   "height": 1080,
   "interlaced_frame": false,
   "metadata": {
    "comment": "Create videos with https://clipchamp.com/en/video-editor - free online video editor, video compressor, video converter.",
    "compatible_brands": "isomiso2avc1mp41",
    "encoder": "https://clipchamp.com",
    "handler_name": "VideoHandler",
    "language": "und",
    "major_brand": "isom",
    "minor_version": "512"
   },
   "path": "./movie_009_002.mp4",
   "pixel_format": 0,
   "pixel_ratio": {
    "den": 1,
    "num": 1
   },
   "sample_rate": 0,
   "top_field_first": true,
   "type": "FFmpegReader",
   "vcodec": "h264",
   "video_bit_rate": 1050847,
   "video_length": "2245",
   "video_stream_index": 0,
   "video_timebase": {
    "den": 15360,
    "num": 1
   },
   "width": 1920,
   "media_type": "video",
   "id": "HEYLU6MTYJ",
   "image": "Tutorial_assets/thumbnail/HEYLU6MTYJ.png"
  },
  {
   "acodec": "",
   "audio_bit_rate": 0,
   "audio_stream_index": -1,
   "audio_timebase": {
    "den": 1,
    "num": 1
   },
   "channel_layout": 4,
   "channels": 0,
   "display_ratio": {
    "den": 96,
    "num": 217
   },
   "duration": 3600.0,
   "file_size": "1333248",
   "fps": {
    "den": 1,
    "num": 30
   },
   "has_audio": false,
   "has_single_image": true,
   "has_video": true,
   "height": 384,
   "interlaced_frame": false,
   "metadata": {},
   "path": "./drawing51.png",
   "pixel_format": -1,
   "pixel_ratio": {
    "den": 1,
    "num": 1
   },
   "sample_rate": 0,
   "top_field_first": true,
   "type": "QtImageReader",
   "vcodec": "",
   "video_bit_rate": 0,
   "video_length": "108000",
   "video_stream_index": -1,
   "video_timebase": {
    "den": 30,
    "num": 1
   },
   "width": 868,
   "media_type": "image",
   "id": "RHSDTY0758",
   "image": "Tutorial_assets/thumbnail/RHSDTY0758.png"
  },
  {
   "acodec": "",
   "audio_bit_rate": 0,
   "audio_stream_index": -1,
   "audio_timebase": {
    "den": 1,
    "num": 1
   },
   "channel_layout": 4,
   "channels": 0,
   "display_ratio": {
    "den": 637,
    "num": 1609
   },
   "duration": 3600.0,
   "file_size": "4099732",
   "fps": {
    "den": 1,
    "num": 30
   },
   "has_audio": false,
   "has_single_image": true,
   "has_video": true,
   "height": 637,
   "interlaced_frame": false,
   "metadata": {},
   "path": "./drawing54.png",
   "pixel_format": -1,
   "pixel_ratio": {
    "den": 1,
    "num": 1
   },
   "sample_rate": 0,
   "top_field_first": true,
   "type": "QtImageReader",
   "vcodec": "",
   "video_bit_rate": 0,
   "video_length": "108000",
   "video_stream_index": -1,
   "video_timebase": {
    "den": 30,
    "num": 1
   },
   "width": 1609,
   "media_type": "image",
   "id": "SY8S9Y52WD",
   "image": "Tutorial_assets/thumbnail/SY8S9Y52WD.png"
  },
  {
   "acodec": "",
   "audio_bit_rate": 0,
   "audio_stream_index": -1,
   "audio_timebase": {
    "den": 1,
    "num": 1
   },
   "channel_layout": 4,
   "channels": 0,
   "display_ratio": {
    "den": 96,
    "num": 217
   },
   "duration": 3600.0,
   "file_size": "1333248",
   "fps": {
    "den": 1,
    "num": 30
   },
   "has_audio": false,
   "has_single_image": true,
   "has_video": true,
   "height": 384,
   "interlaced_frame": false,
   "metadata": {},
   "path": "./drawing52.png",
   "pixel_format": -1,
   "pixel_ratio": {
    "den": 1,
    "num": 1
   },
   "sample_rate": 0,
   "top_field_first": true,
   "type": "QtImageReader",
   "vcodec": "",
   "video_bit_rate": 0,
   "video_length": "108000",
   "video_stream_index": -1,
   "video_timebase": {
    "den": 30,
    "num": 1
   },
   "width": 868,
   "media_type": "image",
   "id": "81KMWDZL1D",
   "image": "Tutorial_assets/thumbnail/81KMWDZL1D.png"
  },
  {
   "acodec": "",
   "audio_bit_rate": 0,
   "audio_stream_index": -1,
   "audio_timebase": {
    "den": 1,
    "num": 1
   },
   "channel_layout": 4,
   "channels": 0,
   "display_ratio": {
    "den": 96,
    "num": 217
   },
   "duration": 3600.0,
   "file_size": "1333248",
   "fps": {
    "den": 1,
    "num": 30
   },
   "has_audio": false,
   "has_single_image": true,
   "has_video": true,
   "height": 384,
   "interlaced_frame": false,
   "metadata": {},
   "path": "./drawing53.png",
   "pixel_format": -1,
   "pixel_ratio": {
    "den": 1,
    "num": 1
   },
   "sample_rate": 0,
   "top_field_first": true,
   "type": "QtImageReader",
   "vcodec": "",
   "video_bit_rate": 0,
   "video_length": "108000",
   "video_stream_index": -1,
   "video_timebase": {
    "den": 30,
    "num": 1
   },
   "width": 868,
   "media_type": "image",
   "id": "XPPXU2ZB06",
   "image": "Tutorial_assets/thumbnail/XPPXU2ZB06.png"
  },
  {
   "acodec": "",
   "audio_bit_rate": 0,
   "audio_stream_index": -1,
   "audio_timebase": {
    "den": 1,
    "num": 1
   },
   "channel_layout": 4,
   "channels": 0,
   "display_ratio": {
    "den": 637,
    "num": 1696
   },
   "duration": 3600.0,
   "file_size": "4321408",
   "fps": {
    "den": 1,
    "num": 30
   },
   "has_audio": false,
   "has_single_image": true,
   "has_video": true,
   "height": 637,
   "interlaced_frame": false,
   "metadata": {},
   "path": "./drawing55.png",
   "pixel_format": -1,
   "pixel_ratio": {
    "den": 1,
    "num": 1
   },
   "sample_rate": 0,
   "top_field_first": true,
   "type": "QtImageReader",
   "vcodec": "",
   "video_bit_rate": 0,
   "video_length": "108000",
   "video_stream_index": -1,
   "video_timebase": {
    "den": 30,
    "num": 1
   },
   "width": 1696,
   "media_type": "image",
   "id": "729F1CR9KV",
   "image": "Tutorial_assets/thumbnail/729F1CR9KV.png"
  },
  {
   "acodec": "",
   "audio_bit_rate": 0,
   "audio_stream_index": -1,
   "audio_timebase": {
    "den": 1,
    "num": 1
   },
   "channel_layout": 4,
   "channels": 0,
   "display_ratio": {
    "den": 779,
    "num": 2464
   },
   "duration": 3600.0,
   "file_size": "7677824",
   "fps": {
    "den": 1,
    "num": 30
   },
   "has_audio": false,
   "has_single_image": true,
   "has_video": true,
   "height": 779,
   "interlaced_frame": false,
   "metadata": {},
   "path": "./drawing56.png",
   "pixel_format": -1,
   "pixel_ratio": {
    "den": 1,
    "num": 1
   },
   "sample_rate": 0,
   "top_field_first": true,
   "type": "QtImageReader",
   "vcodec": "",
   "video_bit_rate": 0,
   "video_length": "108000",
   "video_stream_index": -1,
   "video_timebase": {
    "den": 30,
    "num": 1
   },
   "width": 2464,
   "media_type": "image",
   "id": "M687P7KCPL",
   "image": "Tutorial_assets/thumbnail/M687P7KCPL.png"
  },
  {
   "acodec": "",
   "audio_bit_rate": 0,
   "audio_stream_index": -1,
   "audio_timebase": {
    "den": 1,
    "num": 1
   },
   "channel_layout": 4,
   "channels": 0,
   "display_ratio": {
    "den": 528,
    "num": 2311
   },
   "duration": 3600.0,
   "file_size": "4880832",
   "fps": {
    "den": 1,
    "num": 30
   },
   "has_audio": false,
   "has_single_image": true,
   "has_video": true,
   "height": 528,
   "interlaced_frame": false,
   "metadata": {},
   "path": "./drawing57.png",
   "pixel_format": -1,
   "pixel_ratio": {
    "den": 1,
    "num": 1
   },
   "sample_rate": 0,
   "top_field_first": true,
   "type": "QtImageReader",
   "vcodec": "",
   "video_bit_rate": 0,
   "video_length": "108000",
   "video_stream_index": -1,
   "video_timebase": {
    "den": 30,
    "num": 1
   },
   "width": 2311,
   "media_type": "image",
   "id": "922NI6INHK",
   "image": "Tutorial_assets/thumbnail/922NI6INHK.png"
  },
  {
   "acodec": "",
   "audio_bit_rate": 0,
   "audio_stream_index": -1,
   "audio_timebase": {
    "den": 1,
    "num": 1
   },
   "channel_layout": 4,
   "channels": 0,
   "display_ratio": {
    "den": 539,
    "num": 1919
   },
   "duration": 3600.0,
   "file_size": "4137364",
   "fps": {
    "den": 1,
    "num": 30
   },
   "has_audio": false,
   "has_single_image": true,
   "has_video": true,
   "height": 539,
   "interlaced_frame": false,
   "metadata": {},
   "path": "./drawing58.png",
   "pixel_format": -1,
   "pixel_ratio": {
    "den": 1,
    "num": 1
   },
   "sample_rate": 0,
   "top_field_first": true,
   "type": "QtImageReader",
   "vcodec": "",
   "video_bit_rate": 0,
   "video_length": "108000",
   "video_stream_index": -1,
   "video_timebase": {
    "den": 30,
    "num": 1
   },
   "width": 1919,
   "media_type": "image",
   "id": "2V0ER9YNO7",
   "image": "Tutorial_assets/thumbnail/2V0ER9YNO7.png"
  },
  {
   "acodec": "",
   "audio_bit_rate": 0,
   "audio_stream_index": -1,
   "audio_timebase": {
    "den": 1,
    "num": 1
   },
   "channel_layout": 4,
   "channels": 0,
   "display_ratio": {
    "den": 383,
    "num": 686
   },
   "duration": 3600.0,
   "file_size": "4203808",
   "fps": {
    "den": 1,
    "num": 30
   },
   "has_audio": false,
   "has_single_image": true,
   "has_video": true,
   "height": 766,
   "interlaced_frame": false,
   "metadata": {},
   "path": "./Screenshot 2024-05-27 002441.png",
   "pixel_format": -1,
   "pixel_ratio": {
    "den": 1,
    "num": 1
   },
   "sample_rate": 0,
   "top_field_first": true,
   "type": "QtImageReader",
   "vcodec": "",
   "video_bit_rate": 0,
   "video_length": "108000",
   "video_stream_index": -1,
   "video_timebase": {
    "den": 30,
    "num": 1
   },
   "width": 1372,
   "media_type": "image",
   "id": "4ZK42BH5BC",
   "image": "Tutorial_assets/thumbnail/4ZK42BH5BC.png"
  },
  {
   "acodec": "",
   "audio_bit_rate": 0,
   "audio_stream_index": -1,
   "audio_timebase": {
    "den": 1,
    "num": 1
   },
   "channel_layout": 4,
   "channels": 0,
   "display_ratio": {
    "den": 533,
    "num": 1756
   },
   "duration": 3600.0,
   "file_size": "3743792",
   "fps": {
    "den": 1,
    "num": 30
   },
   "has_audio": false,
   "has_single_image": true,
   "has_video": true,
   "height": 533,
   "interlaced_frame": false,
   "metadata": {},
   "path": "./drawing59.png",
   "pixel_format": -1,
   "pixel_ratio": {
    "den": 1,
    "num": 1
   },
   "sample_rate": 0,
   "top_field_first": true,
   "type": "QtImageReader",
   "vcodec": "",
   "video_bit_rate": 0,
   "video_length": "108000",
   "video_stream_index": -1,
   "video_timebase": {
    "den": 30,
    "num": 1
   },
   "width": 1756,
   "media_type": "image",
   "id": "JFS41HMC7X",
   "image": "Tutorial_assets/thumbnail/JFS41HMC7X.png"
  }
 ],
 "duration": 442.0583556803629,
 "scale": 3.267250676903705,
 "tick_pixels": 100,
 "playhead_position": 0,
 "profile": "FHD 1080p 30 fps",
 "layers": [
  {
   "number": 7000000,
   "y": 0,
   "label": "",
   "lock": false,
   "id": "TN4TLCZIZ5"
  },
  {
   "number": 6000000,
   "y": 0,
   "label": "",
   "lock": false,
   "id": "QD00GIH2ZB"
  },
  {
   "id": "L5",
   "label": "",
   "number": 5000000,
   "y": 0,
   "lock": false
  },
  {
   "id": "L4",
   "label": "",
   "number": 4000000,
   "y": 0,
   "lock": false
  },
  {
   "id": "L3",
   "label": "",
   "number": 3000000,
   "y": 0,
   "lock": false
  },
  {
   "id": "L2",
   "label": "",
   "number": 2000000,
   "y": 0,
   "lock": false
  },
  {
   "id": "L1",
   "label": "",
   "number": 1000000,
   "y": 0,
   "lock": false
  },
  {
   "number": 8000000,
   "y": 0,
   "label": "",
   "lock": false,
   "id": "MAMNSO6D5G"
  }
 ],
 "markers": [],
 "progress": [],
 "history": {
  "undo": [
   {
    "type": "update",
    "key": [
     "clips",
     {
      "id": "6IK55D6W6O"
     }
    ],
    "value": {
     "id": "6IK55D6W6O",
     "layer": 2000000,
     "position": 422.06666666666666,
     "start": 0,
     "end": 10
    },
    "old_values": {
     "alpha": {
      "Points": [
       {
        "co": {
         "X": 1.0,
         "Y": 1.0
        },
        "handle_left": {
         "X": 0.5,
         "Y": 1.0
        },
        "handle_right": {
         "X": 0.5,
         "Y": 0.0
        },
        "handle_type": 0,
        "interpolation": 0
       }
      ]
     },
     "anchor": 0,
     "channel_filter": {
      "Points": [
       {
        "co": {
         "X": 1.0,
         "Y": -1.0
        },
        "handle_left": {
         "X": 0.5,
         "Y": 1.0
        },
        "handle_right": {
         "X": 0.5,
         "Y": 0.0
        },
        "handle_type": 0,
        "interpolation": 0
       }
      ]
     },
     "channel_mapping": {
      "Points": [
       {
        "co": {
         "X": 1.0,
         "Y": -1.0
        },
        "handle_left": {
         "X": 0.5,
         "Y": 1.0
        },
        "handle_right": {
         "X": 0.5,
         "Y": 0.0
        },
        "handle_type": 0,
        "interpolation": 0
       }
      ]
     },
     "display": 0,
     "duration": 3600.0,
     "effects": [],
     "end": 10.0,
     "gravity": 4,
     "has_audio": {
      "Points": [
       {
        "co": {
         "X": 1.0,
         "Y": -1.0
        },
        "handle_left": {
         "X": 0.5,
         "Y": 1.0
        },
        "handle_right": {
         "X": 0.5,
         "Y": 0.0
        },
        "handle_type": 0,
        "interpolation": 0
       }
      ]
     },
     "has_video": {
      "Points": [
       {
        "co": {
         "X": 1.0,
         "Y": -1.0
        },
        "handle_left": {
         "X": 0.5,
         "Y": 1.0
        },
        "handle_right": {
         "X": 0.5,
         "Y": 0.0
        },
        "handle_type": 0,
        "interpolation": 0
       }
      ]
     },
     "id": "6IK55D6W6O",
     "layer": 0.0,
     "location_x": {
      "Points": [
       {
        "co": {
         "X": 1.0,
         "Y": 0.0
        },
        "handle_left": {
         "X": 0.5,
         "Y": 1.0
        },
        "handle_right": {
         "X": 0.5,
         "Y": 0.0
        },
        "handle_type": 0,
        "interpolation": 0
       }
      ]
     },
     "location_y": {
      "Points": [
       {
        "co": {
         "X": 1.0,
         "Y": 0.0
        },
        "handle_left": {
         "X": 0.5,
         "Y": 1.0
        },
        "handle_right": {
         "X": 0.5,
         "Y": 0.0
        },
        "handle_type": 0,
        "interpolation": 0
       }
      ]
     },
     "mixing": 0,
     "origin_x": {
      "Points": [
       {
        "co": {
         "X": 1.0,
         "Y": 0.5
        },
        "handle_left": {
         "X": 0.5,
         "Y": 1.0
        },
        "handle_right": {
         "X": 0.5,
         "Y": 0.0
        },
        "handle_type": 0,
        "interpolation": 0
       }
      ]
     },
     "origin_y": {
      "Points": [
       {
        "co": {
         "X": 1.0,
         "Y": 0.5
        },
        "handle_left": {
         "X": 0.5,
         "Y": 1.0
        },
        "handle_right": {
         "X": 0.5,
         "Y": 0.0
        },
        "handle_type": 0,
        "interpolation": 0
       }
      ]
     },
     "parentObjectId": "",
     "perspective_c1_x": {
      "Points": [
       {
        "co": {
         "X": 1.0,
         "Y": -1.0
        },
        "handle_left": {
         "X": 0.5,
         "Y": 1.0
        },
        "handle_right": {
         "X": 0.5,
         "Y": 0.0
        },
        "handle_type": 0,
        "interpolation": 0
       }
      ]
     },
     "perspective_c1_y": {
      "Points": [
       {
        "co": {
         "X": 1.0,
         "Y": -1.0
        },
        "handle_left": {
         "X": 0.5,
         "Y": 1.0
        },
        "handle_right": {
         "X": 0.5,
         "Y": 0.0
        },
        "handle_type": 0,
        "interpolation": 0
       }
      ]
     },
     "perspective_c2_x": {
      "Points": [
       {
        "co": {
         "X": 1.0,
         "Y": -1.0
        },
        "handle_left": {
         "X": 0.5,
         "Y": 1.0
        },
        "handle_right": {
         "X": 0.5,
         "Y": 0.0
        },
        "handle_type": 0,
        "interpolation": 0
       }
      ]
     },
     "perspective_c2_y": {
      "Points": [
       {
        "co": {
         "X": 1.0,
         "Y": -1.0
        },
        "handle_left": {
         "X": 0.5,
         "Y": 1.0
        },
        "handle_right": {
         "X": 0.5,
         "Y": 0.0
        },
        "handle_type": 0,
        "interpolation": 0
       }
      ]
     },
     "perspective_c3_x": {
      "Points": [
       {
        "co": {
         "X": 1.0,
         "Y": -1.0
        },
        "handle_left": {
         "X": 0.5,
         "Y": 1.0
        },
        "handle_right": {
         "X": 0.5,
         "Y": 0.0
        },
        "handle_type": 0,
        "interpolation": 0
       }
      ]
     },
     "perspective_c3_y": {
      "Points": [
       {
        "co": {
         "X": 1.0,
         "Y": -1.0
        },
        "handle_left": {
         "X": 0.5,
         "Y": 1.0
        },
        "handle_right": {
         "X": 0.5,
         "Y": 0.0
        },
        "handle_type": 0,
        "interpolation": 0
       }
      ]
     },
     "perspective_c4_x": {
      "Points": [
       {
        "co": {
         "X": 1.0,
         "Y": -1.0
        },
        "handle_left": {
         "X": 0.5,
         "Y": 1.0
        },
        "handle_right": {
         "X": 0.5,
         "Y": 0.0
        },
        "handle_type": 0,
        "interpolation": 0
       }
      ]
     },
     "perspective_c4_y": {
      "Points": [
       {
        "co": {
         "X": 1.0,
         "Y": -1.0
        },
        "handle_left": {
         "X": 0.5,
         "Y": 1.0
        },
        "handle_right": {
         "X": 0.5,
         "Y": 0.0
        },
        "handle_type": 0,
        "interpolation": 0
       }
      ]
     },
     "position": 410.1379774717221,
     "reader": {
      "acodec": "",
      "audio_bit_rate": 0,
      "audio_stream_index": -1,
      "audio_timebase": {
       "den": 1,
       "num": 1
      },
      "channel_layout": 4,
      "channels": 0,
      "display_ratio": {
       "den": 533,
       "num": 1756
      },
      "duration": 3600.0,
      "file_size": "3743792",
      "fps": {
       "den": 1,
       "num": 30
      },
      "has_audio": false,
      "has_single_image": true,
      "has_video": true,
      "height": 533,
      "interlaced_frame": false,
      "metadata": {},
      "path": "./drawing59.png",
      "pixel_format": -1,
      "pixel_ratio": {
       "den": 1,
       "num": 1
      },
      "sample_rate": 0,
      "top_field_first": true,
      "type": "QtImageReader",
      "vcodec": "",
      "video_bit_rate": 0,
      "video_length": "108000",
      "video_stream_index": -1,
      "video_timebase": {
       "den": 30,
       "num": 1
      },
      "width": 1756,
      "media_type": "image",
      "id": "JFS41HMC7X"
     },
     "rotation": {
      "Points": [
       {
        "co": {
         "X": 1.0,
         "Y": 0.0
        },
        "handle_left": {
         "X": 0.5,
         "Y": 1.0
        },
        "handle_right": {
         "X": 0.5,
         "Y": 0.0
        },
        "handle_type": 0,
        "interpolation": 0
       }
      ]
     },
     "scale": 1,
     "scale_x": {
      "Points": [
       {
        "co": {
         "X": 1.0,
         "Y": 1.0
        },
        "handle_left": {
         "X": 0.5,
         "Y": 1.0
        },
        "handle_right": {
         "X": 0.5,
         "Y": 0.0
        },
        "handle_type": 0,
        "interpolation": 0
       }
      ]
     },
     "scale_y": {
      "Points": [
       {
        "co": {
         "X": 1.0,
         "Y": 1.0
        },
        "handle_left": {
         "X": 0.5,
         "Y": 1.0
        },
        "handle_right": {
         "X": 0.5,
         "Y": 0.0
        },
        "handle_type": 0,
        "interpolation": 0
       }
      ]
     },
     "shear_x": {
      "Points": [
       {
        "co": {
         "X": 1.0,
         "Y": 0.0
        },
        "handle_left": {
         "X": 0.5,
         "Y": 1.0
        },
        "handle_right": {
         "X": 0.5,
         "Y": 0.0
        },
        "handle_type": 0,
        "interpolation": 0
       }
      ]
     },
     "shear_y": {
      "Points": [
       {
        "co": {
         "X": 1.0,
         "Y": 0.0
        },
        "handle_left": {
         "X": 0.5,
         "Y": 1.0
        },
        "handle_right": {
         "X": 0.5,
         "Y": 0.0
        },
        "handle_type": 0,
        "interpolation": 0
       }
      ]
     },
     "start": 0.0,
     "time": {
      "Points": [
       {
        "co": {
         "X": 1.0,
         "Y": 1.0
        },
        "handle_left": {
         "X": 0.5,
         "Y": 1.0
        },
        "handle_right": {
         "X": 0.5,
         "Y": 0.0
        },
        "handle_type": 0,
        "interpolation": 0
       }
      ]
     },
     "volume": {
      "Points": [
       {
        "co": {
         "X": 1.0,
         "Y": 1.0
        },
        "handle_left": {
         "X": 0.5,
         "Y": 1.0
        },
        "handle_right": {
         "X": 0.5,
         "Y": 0.0
        },
        "handle_type": 0,
        "interpolation": 0
       }
      ]
     },
     "wave_color": {
      "alpha": {
       "Points": [
        {
         "co": {
          "X": 1.0,
          "Y": 255.0
         },
         "handle_left": {
          "X": 0.5,
          "Y": 1.0
         },
         "handle_right": {
          "X": 0.5,
          "Y": 0.0
         },
         "handle_type": 0,
         "interpolation": 0
        }
       ]
      },
      "blue": {
       "Points": [
        {
         "co": {
          "X": 1.0,
          "Y": 255.0
         },
         "handle_left": {
          "X": 0.5,
          "Y": 1.0
         },
         "handle_right": {
          "X": 0.5,
          "Y": 0.0
         },
         "handle_type": 0,
         "interpolation": 0
        }
       ]
      },
      "green": {
       "Points": [
        {
         "co": {
          "X": 1.0,
          "Y": 123.0
         },
         "handle_left": {
          "X": 0.5,
          "Y": 1.0
         },
         "handle_right": {
          "X": 0.5,
          "Y": 0.0
         },
         "handle_type": 0,
         "interpolation": 0
        }
       ]
      },
      "red": {
       "Points": [
        {
         "co": {
          "X": 1.0,
          "Y": 0.0
         },
         "handle_left": {
          "X": 0.5,
          "Y": 1.0
         },
         "handle_right": {
          "X": 0.5,
          "Y": 0.0
         },
         "handle_type": 0,
         "interpolation": 0
        }
       ]
      }
     },
     "waveform": false,
     "file_id": "JFS41HMC7X",
     "title": "drawing59.png"
    },
    "transaction": "90853072-5ef9-4b45-aebd-37f2866c6843"
   },
   {
    "type": "update",
    "key": [
     "clips",
     {
      "id": "6IK55D6W6O"
     }
    ],
    "value": {
     "id": "6IK55D6W6O",
     "layer": 2000000,
     "position": 421.4,
     "start": 0,
     "end": 10
    },
    "old_values": {
     "alpha": {
      "Points": [
       {
        "co": {
         "X": 1.0,
         "Y": 1.0
        },
        "handle_left": {
         "X": 0.5,
         "Y": 1.0
        },
        "handle_right": {
         "X": 0.5,
         "Y": 0.0
        },
        "handle_type": 0,
        "interpolation": 0
       }
      ]
     },
     "anchor": 0,
     "channel_filter": {
      "Points": [
       {
        "co": {
         "X": 1.0,
         "Y": -1.0
        },
        "handle_left": {
         "X": 0.5,
         "Y": 1.0
        },
        "handle_right": {
         "X": 0.5,
         "Y": 0.0
        },
        "handle_type": 0,
        "interpolation": 0
       }
      ]
     },
     "channel_mapping": {
      "Points": [
       {
        "co": {
         "X": 1.0,
         "Y": -1.0
        },
        "handle_left": {
         "X": 0.5,
         "Y": 1.0
        },
        "handle_right": {
         "X": 0.5,
         "Y": 0.0
        },
        "handle_type": 0,
        "interpolation": 0
       }
      ]
     },
     "display": 0,
     "duration": 3600.0,
     "effects": [],
     "end": 10,
     "gravity": 4,
     "has_audio": {
      "Points": [
       {
        "co": {
         "X": 1.0,
         "Y": -1.0
        },
        "handle_left": {
         "X": 0.5,
         "Y": 1.0
        },
        "handle_right": {
         "X": 0.5,
         "Y": 0.0
        },
        "handle_type": 0,
        "interpolation": 0
       }
      ]
     },
     "has_video": {
      "Points": [
       {
        "co": {
         "X": 1.0,
         "Y": -1.0
        },
        "handle_left": {
         "X": 0.5,
         "Y": 1.0
        },
        "handle_right": {
         "X": 0.5,
         "Y": 0.0
        },
        "handle_type": 0,
        "interpolation": 0
       }
      ]
     },
     "id": "6IK55D6W6O",
     "layer": 2000000,
     "location_x": {
      "Points": [
       {
        "co": {
         "X": 1.0,
         "Y": 0.0
        },
        "handle_left": {
         "X": 0.5,
         "Y": 1.0
        },
        "handle_right": {
         "X": 0.5,
         "Y": 0.0
        },
        "handle_type": 0,
        "interpolation": 0
       }
      ]
     },
     "location_y": {
      "Points": [
       {
        "co": {
         "X": 1.0,
         "Y": 0.0
        },
        "handle_left": {
         "X": 0.5,
         "Y": 1.0
        },
        "handle_right": {
         "X": 0.5,
         "Y": 0.0
        },
        "handle_type": 0,
        "interpolation": 0
       }
      ]
     },
     "mixing": 0,
     "origin_x": {
      "Points": [
       {
        "co": {
         "X": 1.0,
         "Y": 0.5
        },
        "handle_left": {
         "X": 0.5,
         "Y": 1.0
        },
        "handle_right": {
         "X": 0.5,
         "Y": 0.0
        },
        "handle_type": 0,
        "interpolation": 0
       }
      ]
     },
     "origin_y": {
      "Points": [
       {
        "co": {
         "X": 1.0,
         "Y": 0.5
        },
        "handle_left": {
         "X": 0.5,
         "Y": 1.0
        },
        "handle_right": {
         "X": 0.5,
         "Y": 0.0
        },
        "handle_type": 0,
        "interpolation": 0
       }
      ]
     },
     "parentObjectId": "",
     "perspective_c1_x": {
      "Points": [
       {
        "co": {
         "X": 1.0,
         "Y": -1.0
        },
        "handle_left": {
         "X": 0.5,
         "Y": 1.0
        },
        "handle_right": {
         "X": 0.5,
         "Y": 0.0
        },
        "handle_type": 0,
        "interpolation": 0
       }
      ]
     },
     "perspective_c1_y": {
      "Points": [
       {
        "co": {
         "X": 1.0,
         "Y": -1.0
        },
        "handle_left": {
         "X": 0.5,
         "Y": 1.0
        },
        "handle_right": {
         "X": 0.5,
         "Y": 0.0
        },
        "handle_type": 0,
        "interpolation": 0
       }
      ]
     },
     "perspective_c2_x": {
      "Points": [
       {
        "co": {
         "X": 1.0,
         "Y": -1.0
        },
        "handle_left": {
         "X": 0.5,
         "Y": 1.0
        },
        "handle_right": {
         "X": 0.5,
         "Y": 0.0
        },
        "handle_type": 0,
        "interpolation": 0
       }
      ]
     },
     "perspective_c2_y": {
      "Points": [
       {
        "co": {
         "X": 1.0,
         "Y": -1.0
        },
        "handle_left": {
         "X": 0.5,
         "Y": 1.0
        },
        "handle_right": {
         "X": 0.5,
         "Y": 0.0
        },
        "handle_type": 0,
        "interpolation": 0
       }
      ]
     },
     "perspective_c3_x": {
      "Points": [
       {
        "co": {
         "X": 1.0,
         "Y": -1.0
        },
        "handle_left": {
         "X": 0.5,
         "Y": 1.0
        },
        "handle_right": {
         "X": 0.5,
         "Y": 0.0
        },
        "handle_type": 0,
        "interpolation": 0
       }
      ]
     },
     "perspective_c3_y": {
      "Points": [
       {
        "co": {
         "X": 1.0,
         "Y": -1.0
        },
        "handle_left": {
         "X": 0.5,
         "Y": 1.0
        },
        "handle_right": {
         "X": 0.5,
         "Y": 0.0
        },
        "handle_type": 0,
        "interpolation": 0
       }
      ]
     },
     "perspective_c4_x": {
      "Points": [
       {
        "co": {
         "X": 1.0,
         "Y": -1.0
        },
        "handle_left": {
         "X": 0.5,
         "Y": 1.0
        },
        "handle_right": {
         "X": 0.5,
         "Y": 0.0
        },
        "handle_type": 0,
        "interpolation": 0
       }
      ]
     },
     "perspective_c4_y": {
      "Points": [
       {
        "co": {
         "X": 1.0,
         "Y": -1.0
        },
        "handle_left": {
         "X": 0.5,
         "Y": 1.0
        },
        "handle_right": {
         "X": 0.5,
         "Y": 0.0
        },
        "handle_type": 0,
        "interpolation": 0
       }
      ]
     },
     "position": 422.06666666666666,
     "reader": {
      "acodec": "",
      "audio_bit_rate": 0,
      "audio_stream_index": -1,
      "audio_timebase": {
       "den": 1,
       "num": 1
      },
      "channel_layout": 4,
      "channels": 0,
      "display_ratio": {
       "den": 533,
       "num": 1756
      },
      "duration": 3600.0,
      "file_size": "3743792",
      "fps": {
       "den": 1,
       "num": 30
      },
      "has_audio": false,
      "has_single_image": true,
      "has_video": true,
      "height": 533,
      "interlaced_frame": false,
      "metadata": {},
      "path": "./drawing59.png",
      "pixel_format": -1,
      "pixel_ratio": {
       "den": 1,
       "num": 1
      },
      "sample_rate": 0,
      "top_field_first": true,
      "type": "QtImageReader",
      "vcodec": "",
      "video_bit_rate": 0,
      "video_length": "108000",
      "video_stream_index": -1,
      "video_timebase": {
       "den": 30,
       "num": 1
      },
      "width": 1756,
      "media_type": "image",
      "id": "JFS41HMC7X"
     },
     "rotation": {
      "Points": [
       {
        "co": {
         "X": 1.0,
         "Y": 0.0
        },
        "handle_left": {
         "X": 0.5,
         "Y": 1.0
        },
        "handle_right": {
         "X": 0.5,
         "Y": 0.0
        },
        "handle_type": 0,
        "interpolation": 0
       }
      ]
     },
     "scale": 1,
     "scale_x": {
      "Points": [
       {
        "co": {
         "X": 1.0,
         "Y": 1.0
        },
        "handle_left": {
         "X": 0.5,
         "Y": 1.0
        },
        "handle_right": {
         "X": 0.5,
         "Y": 0.0
        },
        "handle_type": 0,
        "interpolation": 0
       }
      ]
     },
     "scale_y": {
      "Points": [
       {
        "co": {
         "X": 1.0,
         "Y": 1.0
        },
        "handle_left": {
         "X": 0.5,
         "Y": 1.0
        },
        "handle_right": {
         "X": 0.5,
         "Y": 0.0
        },
        "handle_type": 0,
        "interpolation": 0
       }
      ]
     },
     "shear_x": {
      "Points": [
       {
        "co": {
         "X": 1.0,
         "Y": 0.0
        },
        "handle_left": {
         "X": 0.5,
         "Y": 1.0
        },
        "handle_right": {
         "X": 0.5,
         "Y": 0.0
        },
        "handle_type": 0,
        "interpolation": 0
       }
      ]
     },
     "shear_y": {
      "Points": [
       {
        "co": {
         "X": 1.0,
         "Y": 0.0
        },
        "handle_left": {
         "X": 0.5,
         "Y": 1.0
        },
        "handle_right": {
         "X": 0.5,
         "Y": 0.0
        },
        "handle_type": 0,
        "interpolation": 0
       }
      ]
     },
     "start": 0,
     "time": {
      "Points": [
       {
        "co": {
         "X": 1.0,
         "Y": 1.0
        },
        "handle_left": {
         "X": 0.5,
         "Y": 1.0
        },
        "handle_right": {
         "X": 0.5,
         "Y": 0.0
        },
        "handle_type": 0,
        "interpolation": 0
       }
      ]
     },
     "volume": {
      "Points": [
       {
        "co": {
         "X": 1.0,
         "Y": 1.0
        },
        "handle_left": {
         "X": 0.5,
         "Y": 1.0
        },
        "handle_right": {
         "X": 0.5,
         "Y": 0.0
        },
        "handle_type": 0,
        "interpolation": 0
       }
      ]
     },
     "wave_color": {
      "alpha": {
       "Points": [
        {
         "co": {
          "X": 1.0,
          "Y": 255.0
         },
         "handle_left": {
          "X": 0.5,
          "Y": 1.0
         },
         "handle_right": {
          "X": 0.5,
          "Y": 0.0
         },
         "handle_type": 0,
         "interpolation": 0
        }
       ]
      },
      "blue": {
       "Points": [
        {
         "co": {
          "X": 1.0,
          "Y": 255.0
         },
         "handle_left": {
          "X": 0.5,
          "Y": 1.0
         },
         "handle_right": {
          "X": 0.5,
          "Y": 0.0
         },
         "handle_type": 0,
         "interpolation": 0
        }
       ]
      },
      "green": {
       "Points": [
        {
         "co": {
          "X": 1.0,
          "Y": 123.0
         },
         "handle_left": {
          "X": 0.5,
          "Y": 1.0
         },
         "handle_right": {
          "X": 0.5,
          "Y": 0.0
         },
         "handle_type": 0,
         "interpolation": 0
        }
       ]
      },
      "red": {
       "Points": [
        {
         "co": {
          "X": 1.0,
          "Y": 0.0
         },
         "handle_left": {
          "X": 0.5,
          "Y": 1.0
         },
         "handle_right": {
          "X": 0.5,
          "Y": 0.0
         },
         "handle_type": 0,
         "interpolation": 0
        }
       ]
      }
     },
     "waveform": false,
     "file_id": "JFS41HMC7X",
     "title": "drawing59.png"
    },
    "transaction": "510c5652-e462-4678-a269-ad80b67fa832"
   },
   {
    "type": "insert",
    "key": [
     "effects"
    ],
    "value": {
     "layer": 1000000,
     "title": "Transition",
     "type": "Mask",
     "position": 420.8666666666667,
     "start": 0,
     "end": 0.9583333333333212,
     "brightness": {
      "Points": [
       {
        "co": {
         "X": 1.0,
         "Y": 1.0
        },
        "handle_left": {
         "X": 0.5,
         "Y": 1.0
        },
        "handle_right": {
         "X": 0.5,
         "Y": 0.0
        },
        "handle_type": 0,
        "interpolation": 0
       },
       {
        "co": {
         "X": 29.0,
         "Y": -1.0
        },
        "handle_left": {
         "X": 0.5,
         "Y": 1.0
        },
        "handle_right": {
         "X": 0.5,
         "Y": 0.0
        },
        "handle_type": 0,
        "interpolation": 0
       }
      ]
     },
     "contrast": {
      "Points": [
       {
        "co": {
         "X": 1.0,
         "Y": 3.0
        },
        "handle_left": {
         "X": 0.5,
         "Y": 1.0
        },
        "handle_right": {
         "X": 0.5,
         "Y": 0.0
        },
        "handle_type": 0,
        "interpolation": 0
       },
       {
        "co": {
         "X": 29.0,
         "Y": 3.0
        },
        "handle_left": {
         "X": 0.5,
         "Y": 1.0
        },
        "handle_right": {
         "X": 0.5,
         "Y": 0.0
        },
        "handle_type": 0,
        "interpolation": 0
       }
      ]
     },
     "reader": {
      "acodec": "",
      "audio_bit_rate": 0,
      "audio_stream_index": -1,
      "audio_timebase": {
       "den": 1,
       "num": 1
      },
      "channel_layout": 4,
      "channels": 0,
      "display_ratio": {
       "den": 4,
       "num": 5
      },
      "duration": 3600.0,
      "file_size": "5832000",
      "fps": {
       "den": 1,
       "num": 30
      },
      "has_audio": false,
      "has_single_image": true,
      "has_video": true,
      "height": 576,
      "interlaced_frame": false,
      "metadata": {},
      "path": "@transitions/common/fade.svg",
      "pixel_format": -1,
      "pixel_ratio": {
       "den": 1,
       "num": 1
      },
      "sample_rate": 0,
      "top_field_first": true,
      "type": "QtImageReader",
      "vcodec": "",
      "video_bit_rate": 0,
      "video_length": "108000",
      "video_stream_index": -1,
      "video_timebase": {
       "den": 30,
       "num": 1
      },
      "width": 720
     },
     "replace_image": false,
     "id": "UU98446Y5E"
    },
    "old_values": [
     {
      "id": "CCF0XFFI23",
      "layer": 2000000,
      "title": "Transition",
      "type": "Mask",
      "position": 0.8,
      "start": 0,
      "end": 1,
      "brightness": {
       "Points": [
        {
         "co": {
          "X": 1.0,
          "Y": 1.0
         },
         "handle_left": {
          "X": 0.5,
          "Y": 1.0
         },
         "handle_right": {
          "X": 0.5,
          "Y": 0.0
         },
         "handle_type": 0,
         "interpolation": 0
        },
        {
         "co": {
          "X": 30.0,
          "Y": -1.0
         },
         "handle_left": {
          "X": 0.5,
          "Y": 1.0
         },
         "handle_right": {
          "X": 0.5,
          "Y": 0.0
         },
         "handle_type": 0,
         "interpolation": 0
        }
       ]
      },
      "contrast": {
       "Points": [
        {
         "co": {
          "X": 1.0,
          "Y": 3.0
         },
         "handle_left": {
          "X": 0.5,
          "Y": 1.0
         },
         "handle_right": {
          "X": 0.5,
          "Y": 0.0
         },
         "handle_type": 0,
         "interpolation": 0
        },
        {
         "co": {
          "X": 30.0,
          "Y": 3.0
         },
         "handle_left": {
          "X": 0.5,
          "Y": 1.0
         },
         "handle_right": {
          "X": 0.5,
          "Y": 0.0
         },
         "handle_type": 0,
         "interpolation": 0
        }
       ]
      },
      "reader": {
       "acodec": "",
       "audio_bit_rate": 0,
       "audio_stream_index": -1,
       "audio_timebase": {
        "den": 1,
        "num": 1
       },
       "channel_layout": 4,
       "channels": 0,
       "display_ratio": {
        "den": 4,
        "num": 5
       },
       "duration": 3600.0,
       "file_size": "5832000",
       "fps": {
        "den": 1,
        "num": 30
       },
       "has_audio": false,
       "has_single_image": true,
       "has_video": true,
       "height": 576,
       "interlaced_frame": false,
       "metadata": {},
       "path": "@transitions/common/fade.svg",
       "pixel_format": -1,
       "pixel_ratio": {
        "den": 1,
        "num": 1
       },
       "sample_rate": 0,
       "top_field_first": true,
       "type": "QtImageReader",
       "vcodec": "",
       "video_bit_rate": 0,
       "video_length": "108000",
       "video_stream_index": -1,
       "video_timebase": {
        "den": 30,
        "num": 1
       },
       "width": 720
      },
      "replace_image": false
     },
     {
      "layer": 2000000,
      "title": "Transition",
      "type": "Mask",
      "position": 5.533333333333333,
      "start": 0,
      "end": 1,
      "brightness": {
       "Points": [
        {
         "co": {
          "X": 1.0,
          "Y": -1.0
         },
         "handle_left": {
          "X": 0.5,
          "Y": 1.0
         },
         "handle_right": {
          "X": 0.5,
          "Y": 0.0
         },
         "handle_type": 0,
         "interpolation": 0
        },
        {
         "co": {
          "X": 30.0,
          "Y": 1.0
         },
         "handle_left": {
          "X": 0.5,
          "Y": 1.0
         },
         "handle_right": {
          "X": 0.5,
          "Y": 0.0
         },
         "handle_type": 0,
         "interpolation": 0
        }
       ]
      },
      "contrast": {
       "Points": [
        {
         "co": {
          "X": 1.0,
          "Y": 3.0
         },
         "handle_left": {
          "X": 0.5,
          "Y": 1.0
         },
         "handle_right": {
          "X": 0.5,
          "Y": 0.0
         },
         "handle_type": 0,
         "interpolation": 0
        },
        {
         "co": {
          "X": 30.0,
          "Y": 3.0
         },
         "handle_left": {
          "X": 0.5,
          "Y": 1.0
         },
         "handle_right": {
          "X": 0.5,
          "Y": 0.0
         },
         "handle_type": 0,
         "interpolation": 0
        }
       ]
      },
      "reader": {
       "acodec": "",
       "audio_bit_rate": 0,
       "audio_stream_index": -1,
       "audio_timebase": {
        "den": 1,
        "num": 1
       },
       "channel_layout": 4,
       "channels": 0,
       "display_ratio": {
        "den": 4,
        "num": 5
       },
       "duration": 3600.0,
       "file_size": "5832000",
       "fps": {
        "den": 1,
        "num": 30
       },
       "has_audio": false,
       "has_single_image": true,
       "has_video": true,
       "height": 576,
       "interlaced_frame": false,
       "metadata": {},
       "path": "@transitions/common/fade.svg",
       "pixel_format": -1,
       "pixel_ratio": {
        "den": 1,
        "num": 1
       },
       "sample_rate": 0,
       "top_field_first": true,
       "type": "QtImageReader",
       "vcodec": "",
       "video_bit_rate": 0,
       "video_length": "108000",
       "video_stream_index": -1,
       "video_timebase": {
        "den": 30,
        "num": 1
       },
       "width": 720
      },
      "replace_image": false,
      "id": "XXA2JTVLMO"
     },
     {
      "layer": 2000000,
      "title": "Transition",
      "type": "Mask",
      "position": 11.433333333333334,
      "start": 0,
      "end": 1,
      "brightness": {
       "Points": [
        {
         "co": {
          "X": 1.0,
          "Y": 1.0
         },
         "handle_left": {
          "X": 0.5,
          "Y": 1.0
         },
         "handle_right": {
          "X": 0.5,
          "Y": 0.0
         },
         "handle_type": 0,
         "interpolation": 0
        },
        {
         "co": {
          "X": 30.0,
          "Y": -1.0
         },
         "handle_left": {
          "X": 0.5,
          "Y": 1.0
         },
         "handle_right": {
          "X": 0.5,
          "Y": 0.0
         },
         "handle_type": 0,
         "interpolation": 0
        }
       ]
      },
      "contrast": {
       "Points": [
        {
         "co": {
          "X": 1.0,
          "Y": 3.0
         },
         "handle_left": {
          "X": 0.5,
          "Y": 1.0
         },
         "handle_right": {
          "X": 0.5,
          "Y": 0.0
         },
         "handle_type": 0,
         "interpolation": 0
        },
        {
         "co": {
          "X": 30.0,
          "Y": 3.0
         },
         "handle_left": {
          "X": 0.5,
          "Y": 1.0
         },
         "handle_right": {
          "X": 0.5,
          "Y": 0.0
         },
         "handle_type": 0,
         "interpolation": 0
        }
       ]
      },
      "reader": {
       "acodec": "",
       "audio_bit_rate": 0,
       "audio_stream_index": -1,
       "audio_timebase": {
        "den": 1,
        "num": 1
       },
       "channel_layout": 4,
       "channels": 0,
       "display_ratio": {
        "den": 4,
        "num": 5
       },
       "duration": 3600.0,
       "file_size": "5832000",
       "fps": {
        "den": 1,
        "num": 30
       },
       "has_audio": false,
       "has_single_image": true,
       "has_video": true,
       "height": 576,
       "interlaced_frame": false,
       "metadata": {},
       "path": "@transitions/common/fade.svg",
       "pixel_format": -1,
       "pixel_ratio": {
        "den": 1,
        "num": 1
       },
       "sample_rate": 0,
       "top_field_first": true,
       "type": "QtImageReader",
       "vcodec": "",
       "video_bit_rate": 0,
       "video_length": "108000",
       "video_stream_index": -1,
       "video_timebase": {
        "den": 30,
        "num": 1
       },
       "width": 720
      },
      "replace_image": false,
      "id": "RN9POGRPKN"
     },
     {
      "layer": 2000000,
      "title": "Transition",
      "type": "Mask",
      "position": 19.333333333333332,
      "start": 0,
      "end": 1,
      "brightness": {
       "Points": [
        {
         "co": {
          "X": 1.0,
          "Y": -1.0
         },
         "handle_left": {
          "X": 0.5,
          "Y": 1.0
         },
         "handle_right": {
          "X": 0.5,
          "Y": 0.0
         },
         "handle_type": 0,
         "interpolation": 0
        },
        {
         "co": {
          "X": 30.0,
          "Y": 1.0
         },
         "handle_left": {
          "X": 0.5,
          "Y": 1.0
         },
         "handle_right": {
          "X": 0.5,
          "Y": 0.0
         },
         "handle_type": 0,
         "interpolation": 0
        }
       ]
      },
      "contrast": {
       "Points": [
        {
         "co": {
          "X": 1.0,
          "Y": 3.0
         },
         "handle_left": {
          "X": 0.5,
          "Y": 1.0
         },
         "handle_right": {
          "X": 0.5,
          "Y": 0.0
         },
         "handle_type": 0,
         "interpolation": 0
        },
        {
         "co": {
          "X": 30.0,
          "Y": 3.0
         },
         "handle_left": {
          "X": 0.5,
          "Y": 1.0
         },
         "handle_right": {
          "X": 0.5,
          "Y": 0.0
         },
         "handle_type": 0,
         "interpolation": 0
        }
       ]
      },
      "reader": {
       "acodec": "",
       "audio_bit_rate": 0,
       "audio_stream_index": -1,
       "audio_timebase": {
        "den": 1,
        "num": 1
       },
       "channel_layout": 4,
       "channels": 0,
       "display_ratio": {
        "den": 4,
        "num": 5
       },
       "duration": 3600.0,
       "file_size": "5832000",
       "fps": {
        "den": 1,
        "num": 30
       },
       "has_audio": false,
       "has_single_image": true,
       "has_video": true,
       "height": 576,
       "interlaced_frame": false,
       "metadata": {},
       "path": "@transitions/common/fade.svg",
       "pixel_format": -1,
       "pixel_ratio": {
        "den": 1,
        "num": 1
       },
       "sample_rate": 0,
       "top_field_first": true,
       "type": "QtImageReader",
       "vcodec": "",
       "video_bit_rate": 0,
       "video_length": "108000",
       "video_stream_index": -1,
       "video_timebase": {
        "den": 30,
        "num": 1
       },
       "width": 720
      },
      "replace_image": false,
      "id": "ADKB2ZG9IL"
     },
     {
      "layer": 2000000,
      "title": "Transition",
      "type": "Mask",
      "position": 20.966666666666665,
      "start": 0,
      "end": 1,
      "brightness": {
       "Points": [
        {
         "co": {
          "X": 1.0,
          "Y": 1.0
         },
         "handle_left": {
          "X": 0.5,
          "Y": 1.0
         },
         "handle_right": {
          "X": 0.5,
          "Y": 0.0
         },
         "handle_type": 0,
         "interpolation": 0
        },
        {
         "co": {
          "X": 30.0,
          "Y": -1.0
         },
         "handle_left": {
          "X": 0.5,
          "Y": 1.0
         },
         "handle_right": {
          "X": 0.5,
          "Y": 0.0
         },
         "handle_type": 0,
         "interpolation": 0
        }
       ]
      },
      "contrast": {
       "Points": [
        {
         "co": {
          "X": 1.0,
          "Y": 3.0
         },
         "handle_left": {
          "X": 0.5,
          "Y": 1.0
         },
         "handle_right": {
          "X": 0.5,
          "Y": 0.0
         },
         "handle_type": 0,
         "interpolation": 0
        },
        {
         "co": {
          "X": 30.0,
          "Y": 3.0
         },
         "handle_left": {
          "X": 0.5,
          "Y": 1.0
         },
         "handle_right": {
          "X": 0.5,
          "Y": 0.0
         },
         "handle_type": 0,
         "interpolation": 0
        }
       ]
      },
      "reader": {
       "acodec": "",
       "audio_bit_rate": 0,
       "audio_stream_index": -1,
       "audio_timebase": {
        "den": 1,
        "num": 1
       },
       "channel_layout": 4,
       "channels": 0,
       "display_ratio": {
        "den": 4,
        "num": 5
       },
       "duration": 3600.0,
       "file_size": "5832000",
       "fps": {
        "den": 1,
        "num": 30
       },
       "has_audio": false,
       "has_single_image": true,
       "has_video": true,
       "height": 576,
       "interlaced_frame": false,
       "metadata": {},
       "path": "@transitions/common/fade.svg",
       "pixel_format": -1,
       "pixel_ratio": {
        "den": 1,
        "num": 1
       },
       "sample_rate": 0,
       "top_field_first": true,
       "type": "QtImageReader",
       "vcodec": "",
       "video_bit_rate": 0,
       "video_length": "108000",
       "video_stream_index": -1,
       "video_timebase": {
        "den": 30,
        "num": 1
       },
       "width": 720
      },
      "replace_image": false,
      "id": "0W42OBC13Z"
     },
     {
      "layer": 3000000,
      "title": "Transition",
      "type": "Mask",
      "position": 21.966666666666665,
      "start": 0,
      "end": 1,
      "brightness": {
       "Points": [
        {
         "co": {
          "X": 1.0,
          "Y": 1.0
         },
         "handle_left": {
          "X": 0.5,
          "Y": 1.0
         },
         "handle_right": {
          "X": 0.5,
          "Y": 0.0
         },
         "handle_type": 0,
         "interpolation": 0
        },
        {
         "co": {
          "X": 30.0,
          "Y": -1.0
         },
         "handle_left": {
          "X": 0.5,
          "Y": 1.0
         },
         "handle_right": {
          "X": 0.5,
          "Y": 0.0
         },
         "handle_type": 0,
         "interpolation": 0
        }
       ]
      },
      "contrast": {
       "Points": [
        {
         "co": {
          "X": 1.0,
          "Y": 3.0
         },
         "handle_left": {
          "X": 0.5,
          "Y": 1.0
         },
         "handle_right": {
          "X": 0.5,
          "Y": 0.0
         },
         "handle_type": 0,
         "interpolation": 0
        },
        {
         "co": {
          "X": 30.0,
          "Y": 3.0
         },
         "handle_left": {
          "X": 0.5,
          "Y": 1.0
         },
         "handle_right": {
          "X": 0.5,
          "Y": 0.0
         },
         "handle_type": 0,
         "interpolation": 0
        }
       ]
      },
      "reader": {
       "acodec": "",
       "audio_bit_rate": 0,
       "audio_stream_index": -1,
       "audio_timebase": {
        "den": 1,
        "num": 1
       },
       "channel_layout": 4,
       "channels": 0,
       "display_ratio": {
        "den": 4,
        "num": 5
       },
       "duration": 3600.0,
       "file_size": "5832000",
       "fps": {
        "den": 1,
        "num": 30
       },
       "has_audio": false,
       "has_single_image": true,
       "has_video": true,
       "height": 576,
       "interlaced_frame": false,
       "metadata": {},
       "path": "@transitions/common/fade.svg",
       "pixel_format": -1,
       "pixel_ratio": {
        "den": 1,
        "num": 1
       },
       "sample_rate": 0,
       "top_field_first": true,
       "type": "QtImageReader",
       "vcodec": "",
       "video_bit_rate": 0,
       "video_length": "108000",
       "video_stream_index": -1,
       "video_timebase": {
        "den": 30,
        "num": 1
       },
       "width": 720
      },
      "replace_image": false,
      "id": "QSYGIBWS04"
     },
     {
      "layer": 4000000,
      "title": "Transition",
      "type": "Mask",
      "position": 21.966666666666665,
      "start": 0,
      "end": 1,
      "brightness": {
       "Points": [
        {
         "co": {
          "X": 1.0,
          "Y": 1.0
         },
         "handle_left": {
          "X": 0.5,
          "Y": 1.0
         },
         "handle_right": {
          "X": 0.5,
          "Y": 0.0
         },
         "handle_type": 0,
         "interpolation": 0
        },
        {
         "co": {
          "X": 30.0,
          "Y": -1.0
         },
         "handle_left": {
          "X": 0.5,
          "Y": 1.0
         },
         "handle_right": {
          "X": 0.5,
          "Y": 0.0
         },
         "handle_type": 0,
         "interpolation": 0
        }
       ]
      },
      "contrast": {
       "Points": [
        {
         "co": {
          "X": 1.0,
          "Y": 3.0
         },
         "handle_left": {
          "X": 0.5,
          "Y": 1.0
         },
         "handle_right": {
          "X": 0.5,
          "Y": 0.0
         },
         "handle_type": 0,
         "interpolation": 0
        },
        {
         "co": {
          "X": 30.0,
          "Y": 3.0
         },
         "handle_left": {
          "X": 0.5,
          "Y": 1.0
         },
         "handle_right": {
          "X": 0.5,
          "Y": 0.0
         },
         "handle_type": 0,
         "interpolation": 0
        }
       ]
      },
      "reader": {
       "acodec": "",
       "audio_bit_rate": 0,
       "audio_stream_index": -1,
       "audio_timebase": {
        "den": 1,
        "num": 1
       },
       "channel_layout": 4,
       "channels": 0,
       "display_ratio": {
        "den": 4,
        "num": 5
       },
       "duration": 3600.0,
       "file_size": "5832000",
       "fps": {
        "den": 1,
        "num": 30
       },
       "has_audio": false,
       "has_single_image": true,
       "has_video": true,
       "height": 576,
       "interlaced_frame": false,
       "metadata": {},
       "path": "@transitions/common/fade.svg",
       "pixel_format": -1,
       "pixel_ratio": {
        "den": 1,
        "num": 1
       },
       "sample_rate": 0,
       "top_field_first": true,
       "type": "QtImageReader",
       "vcodec": "",
       "video_bit_rate": 0,
       "video_length": "108000",
       "video_stream_index": -1,
       "video_timebase": {
        "den": 30,
        "num": 1
       },
       "width": 720
      },
      "replace_image": false,
      "id": "MUDX88MTT3"
     },
     {
      "layer": 7000000,
      "title": "Transition",
      "type": "Mask",
      "position": 21.966666666666665,
      "start": 0,
      "end": 1,
      "brightness": {
       "Points": [
        {
         "co": {
          "X": 1.0,
          "Y": 1.0
         },
         "handle_left": {
          "X": 0.5,
          "Y": 1.0
         },
         "handle_right": {
          "X": 0.5,
          "Y": 0.0
         },
         "handle_type": 0,
         "interpolation": 0
        },
        {
         "co": {
          "X": 30.0,
          "Y": -1.0
         },
         "handle_left": {
          "X": 0.5,
          "Y": 1.0
         },
         "handle_right": {
          "X": 0.5,
          "Y": 0.0
         },
         "handle_type": 0,
         "interpolation": 0
        }
       ]
      },
      "contrast": {
       "Points": [
        {
         "co": {
          "X": 1.0,
          "Y": 3.0
         },
         "handle_left": {
          "X": 0.5,
          "Y": 1.0
         },
         "handle_right": {
          "X": 0.5,
          "Y": 0.0
         },
         "handle_type": 0,
         "interpolation": 0
        },
        {
         "co": {
          "X": 30.0,
          "Y": 3.0
         },
         "handle_left": {
          "X": 0.5,
          "Y": 1.0
         },
         "handle_right": {
          "X": 0.5,
          "Y": 0.0
         },
         "handle_type": 0,
         "interpolation": 0
        }
       ]
      },
      "reader": {
       "acodec": "",
       "audio_bit_rate": 0,
       "audio_stream_index": -1,
       "audio_timebase": {
        "den": 1,
        "num": 1
       },
       "channel_layout": 4,
       "channels": 0,
       "display_ratio": {
        "den": 4,
        "num": 5
       },
       "duration": 3600.0,
       "file_size": "5832000",
       "fps": {
        "den": 1,
        "num": 30
       },
       "has_audio": false,
       "has_single_image": true,
       "has_video": true,
       "height": 576,
       "interlaced_frame": false,
       "metadata": {},
       "path": "@transitions/common/fade.svg",
       "pixel_format": -1,
       "pixel_ratio": {
        "den": 1,
        "num": 1
       },
       "sample_rate": 0,
       "top_field_first": true,
       "type": "QtImageReader",
       "vcodec": "",
       "video_bit_rate": 0,
       "video_length": "108000",
       "video_stream_index": -1,
       "video_timebase": {
        "den": 30,
        "num": 1
       },
       "width": 720
      },
      "replace_image": false,
      "id": "4L09X67XI2"
     },
     {
      "layer": 5000000,
      "title": "Transition",
      "type": "Mask",
      "position": 21.966666666666665,
      "start": 0,
      "end": 1,
      "brightness": {
       "Points": [
        {
         "co": {
          "X": 1.0,
          "Y": 1.0
         },
         "handle_left": {
          "X": 0.5,
          "Y": 1.0
         },
         "handle_right": {
          "X": 0.5,
          "Y": 0.0
         },
         "handle_type": 0,
         "interpolation": 0
        },
        {
         "co": {
          "X": 30.0,
          "Y": -1.0
         },
         "handle_left": {
          "X": 0.5,
          "Y": 1.0
         },
         "handle_right": {
          "X": 0.5,
          "Y": 0.0
         },
         "handle_type": 0,
         "interpolation": 0
        }
       ]
      },
      "contrast": {
       "Points": [
        {
         "co": {
          "X": 1.0,
          "Y": 3.0
         },
         "handle_left": {
          "X": 0.5,
          "Y": 1.0
         },
         "handle_right": {
          "X": 0.5,
          "Y": 0.0
         },
         "handle_type": 0,
         "interpolation": 0
        },
        {
         "co": {
          "X": 30.0,
          "Y": 3.0
         },
         "handle_left": {
          "X": 0.5,
          "Y": 1.0
         },
         "handle_right": {
          "X": 0.5,
          "Y": 0.0
         },
         "handle_type": 0,
         "interpolation": 0
        }
       ]
      },
      "reader": {
       "acodec": "",
       "audio_bit_rate": 0,
       "audio_stream_index": -1,
       "audio_timebase": {
        "den": 1,
        "num": 1
       },
       "channel_layout": 4,
       "channels": 0,
       "display_ratio": {
        "den": 4,
        "num": 5
       },
       "duration": 3600.0,
       "file_size": "5832000",
       "fps": {
        "den": 1,
        "num": 30
       },
       "has_audio": false,
       "has_single_image": true,
       "has_video": true,
       "height": 576,
       "interlaced_frame": false,
       "metadata": {},
       "path": "@transitions/common/fade.svg",
       "pixel_format": -1,
       "pixel_ratio": {
        "den": 1,
        "num": 1
       },
       "sample_rate": 0,
       "top_field_first": true,
       "type": "QtImageReader",
       "vcodec": "",
       "video_bit_rate": 0,
       "video_length": "108000",
       "video_stream_index": -1,
       "video_timebase": {
        "den": 30,
        "num": 1
       },
       "width": 720
      },
      "replace_image": false,
      "id": "O681WSL8AF"
     },
     {
      "layer": 6000000,
      "title": "Transition",
      "type": "Mask",
      "position": 21.966666666666665,
      "start": 0,
      "end": 1,
      "brightness": {
       "Points": [
        {
         "co": {
          "X": 1.0,
          "Y": 1.0
         },
         "handle_left": {
          "X": 0.5,
          "Y": 1.0
         },
         "handle_right": {
          "X": 0.5,
          "Y": 0.0
         },
         "handle_type": 0,
         "interpolation": 0
        },
        {
         "co": {
          "X": 30.0,
          "Y": -1.0
         },
         "handle_left": {
          "X": 0.5,
          "Y": 1.0
         },
         "handle_right": {
          "X": 0.5,
          "Y": 0.0
         },
         "handle_type": 0,
         "interpolation": 0
        }
       ]
      },
      "contrast": {
       "Points": [
        {
         "co": {
          "X": 1.0,
          "Y": 3.0
         },
         "handle_left": {
          "X": 0.5,
          "Y": 1.0
         },
         "handle_right": {
          "X": 0.5,
          "Y": 0.0
         },
         "handle_type": 0,
         "interpolation": 0
        },
        {
         "co": {
          "X": 30.0,
          "Y": 3.0
         },
         "handle_left": {
          "X": 0.5,
          "Y": 1.0
         },
         "handle_right": {
          "X": 0.5,
          "Y": 0.0
         },
         "handle_type": 0,
         "interpolation": 0
        }
       ]
      },
      "reader": {
       "acodec": "",
       "audio_bit_rate": 0,
       "audio_stream_index": -1,
       "audio_timebase": {
        "den": 1,
        "num": 1
       },
       "channel_layout": 4,
       "channels": 0,
       "display_ratio": {
        "den": 4,
        "num": 5
       },
       "duration": 3600.0,
       "file_size": "5832000",
       "fps": {
        "den": 1,
        "num": 30
       },
       "has_audio": false,
       "has_single_image": true,
       "has_video": true,
       "height": 576,
       "interlaced_frame": false,
       "metadata": {},
       "path": "@transitions/common/fade.svg",
       "pixel_format": -1,
       "pixel_ratio": {
        "den": 1,
        "num": 1
       },
       "sample_rate": 0,
       "top_field_first": true,
       "type": "QtImageReader",
       "vcodec": "",
       "video_bit_rate": 0,
       "video_length": "108000",
       "video_stream_index": -1,
       "video_timebase": {
        "den": 30,
        "num": 1
       },
       "width": 720
      },
      "replace_image": false,
      "id": "M088VM48FK"
     },
     {
      "layer": 6000000,
      "title": "Transition",
      "type": "Mask",
      "position": 25.266666666666666,
      "start": 0,
      "end": 1,
      "brightness": {
       "Points": [
        {
         "co": {
          "X": 1.0,
          "Y": -1.0
         },
         "handle_left": {
          "X": 0.5,
          "Y": 1.0
         },
         "handle_right": {
          "X": 0.5,
          "Y": 0.0
         },
         "handle_type": 0,
         "interpolation": 0
        },
        {
         "co": {
          "X": 30.0,
          "Y": 1.0
         },
         "handle_left": {
          "X": 0.5,
          "Y": 1.0
         },
         "handle_right": {
          "X": 0.5,
          "Y": 0.0
         },
         "handle_type": 0,
         "interpolation": 0
        }
       ]
      },
      "contrast": {
       "Points": [
        {
         "co": {
          "X": 1.0,
          "Y": 3.0
         },
         "handle_left": {
          "X": 0.5,
          "Y": 1.0
         },
         "handle_right": {
          "X": 0.5,
          "Y": 0.0
         },
         "handle_type": 0,
         "interpolation": 0
        },
        {
         "co": {
          "X": 30.0,
          "Y": 3.0
         },
         "handle_left": {
          "X": 0.5,
          "Y": 1.0
         },
         "handle_right": {
          "X": 0.5,
          "Y": 0.0
         },
         "handle_type": 0,
         "interpolation": 0
        }
       ]
      },
      "reader": {
       "acodec": "",
       "audio_bit_rate": 0,
       "audio_stream_index": -1,
       "audio_timebase": {
        "den": 1,
        "num": 1
       },
       "channel_layout": 4,
       "channels": 0,
       "display_ratio": {
        "den": 4,
        "num": 5
       },
       "duration": 3600.0,
       "file_size": "5832000",
       "fps": {
        "den": 1,
        "num": 30
       },
       "has_audio": false,
       "has_single_image": true,
       "has_video": true,
       "height": 576,
       "interlaced_frame": false,
       "metadata": {},
       "path": "@transitions/common/fade.svg",
       "pixel_format": -1,
       "pixel_ratio": {
        "den": 1,
        "num": 1
       },
       "sample_rate": 0,
       "top_field_first": true,
       "type": "QtImageReader",
       "vcodec": "",
       "video_bit_rate": 0,
       "video_length": "108000",
       "video_stream_index": -1,
       "video_timebase": {
        "den": 30,
        "num": 1
       },
       "width": 720
      },
      "replace_image": false,
      "id": "C9SIN6QZ8S"
     },
     {
      "layer": 5000000,
      "title": "Transition",
      "type": "Mask",
      "position": 25.266666666666666,
      "start": 0,
      "end": 1,
      "brightness": {
       "Points": [
        {
         "co": {
          "X": 1.0,
          "Y": -1.0
         },
         "handle_left": {
          "X": 0.5,
          "Y": 1.0
         },
         "handle_right": {
          "X": 0.5,
          "Y": 0.0
         },
         "handle_type": 0,
         "interpolation": 0
        },
        {
         "co": {
          "X": 30.0,
          "Y": 1.0
         },
         "handle_left": {
          "X": 0.5,
          "Y": 1.0
         },
         "handle_right": {
          "X": 0.5,
          "Y": 0.0
         },
         "handle_type": 0,
         "interpolation": 0
        }
       ]
      },
      "contrast": {
       "Points": [
        {
         "co": {
          "X": 1.0,
          "Y": 3.0
         },
         "handle_left": {
          "X": 0.5,
          "Y": 1.0
         },
         "handle_right": {
          "X": 0.5,
          "Y": 0.0
         },
         "handle_type": 0,
         "interpolation": 0
        },
        {
         "co": {
          "X": 30.0,
          "Y": 3.0
         },
         "handle_left": {
          "X": 0.5,
          "Y": 1.0
         },
         "handle_right": {
          "X": 0.5,
          "Y": 0.0
         },
         "handle_type": 0,
         "interpolation": 0
        }
       ]
      },
      "reader": {
       "acodec": "",
       "audio_bit_rate": 0,
       "audio_stream_index": -1,
       "audio_timebase": {
        "den": 1,
        "num": 1
       },
       "channel_layout": 4,
       "channels": 0,
       "display_ratio": {
        "den": 4,
        "num": 5
       },
       "duration": 3600.0,
       "file_size": "5832000",
       "fps": {
        "den": 1,
        "num": 30
       },
       "has_audio": false,
       "has_single_image": true,
       "has_video": true,
       "height": 576,
       "interlaced_frame": false,
       "metadata": {},
       "path": "@transitions/common/fade.svg",
       "pixel_format": -1,
       "pixel_ratio": {
        "den": 1,
        "num": 1
       },
       "sample_rate": 0,
       "top_field_first": true,
       "type": "QtImageReader",
       "vcodec": "",
       "video_bit_rate": 0,
       "video_length": "108000",
       "video_stream_index": -1,
       "video_timebase": {
        "den": 30,
        "num": 1
       },
       "width": 720
      },
      "replace_image": false,
      "id": "I6YLI3CQDR"
     },
     {
      "layer": 4000000,
      "title": "Transition",
      "type": "Mask",
      "position": 25.266666666666666,
      "start": 0,
      "end": 1,
      "brightness": {
       "Points": [
        {
         "co": {
          "X": 1.0,
          "Y": -1.0
         },
         "handle_left": {
          "X": 0.5,
          "Y": 1.0
         },
         "handle_right": {
          "X": 0.5,
          "Y": 0.0
         },
         "handle_type": 0,
         "interpolation": 0
        },
        {
         "co": {
          "X": 30.0,
          "Y": 1.0
         },
         "handle_left": {
          "X": 0.5,
          "Y": 1.0
         },
         "handle_right": {
          "X": 0.5,
          "Y": 0.0
         },
         "handle_type": 0,
         "interpolation": 0
        }
       ]
      },
      "contrast": {
       "Points": [
        {
         "co": {
          "X": 1.0,
          "Y": 3.0
         },
         "handle_left": {
          "X": 0.5,
          "Y": 1.0
         },
         "handle_right": {
          "X": 0.5,
          "Y": 0.0
         },
         "handle_type": 0,
         "interpolation": 0
        },
        {
         "co": {
          "X": 30.0,
          "Y": 3.0
         },
         "handle_left": {
          "X": 0.5,
          "Y": 1.0
         },
         "handle_right": {
          "X": 0.5,
          "Y": 0.0
         },
         "handle_type": 0,
         "interpolation": 0
        }
       ]
      },
      "reader": {
       "acodec": "",
       "audio_bit_rate": 0,
       "audio_stream_index": -1,
       "audio_timebase": {
        "den": 1,
        "num": 1
       },
       "channel_layout": 4,
       "channels": 0,
       "display_ratio": {
        "den": 4,
        "num": 5
       },
       "duration": 3600.0,
       "file_size": "5832000",
       "fps": {
        "den": 1,
        "num": 30
       },
       "has_audio": false,
       "has_single_image": true,
       "has_video": true,
       "height": 576,
       "interlaced_frame": false,
       "metadata": {},
       "path": "@transitions/common/fade.svg",
       "pixel_format": -1,
       "pixel_ratio": {
        "den": 1,
        "num": 1
       },
       "sample_rate": 0,
       "top_field_first": true,
       "type": "QtImageReader",
       "vcodec": "",
       "video_bit_rate": 0,
       "video_length": "108000",
       "video_stream_index": -1,
       "video_timebase": {
        "den": 30,
        "num": 1
       },
       "width": 720
      },
      "replace_image": false,
      "id": "G0XGWQG64E"
     },
     {
      "layer": 3000000,
      "title": "Transition",
      "type": "Mask",
      "position": 25.266666666666666,
      "start": 0,
      "end": 1,
      "brightness": {
       "Points": [
        {
         "co": {
          "X": 1.0,
          "Y": -1.0
         },
         "handle_left": {
          "X": 0.5,
          "Y": 1.0
         },
         "handle_right": {
          "X": 0.5,
          "Y": 0.0
         },
         "handle_type": 0,
         "interpolation": 0
        },
        {
         "co": {
          "X": 30.0,
          "Y": 1.0
         },
         "handle_left": {
          "X": 0.5,
          "Y": 1.0
         },
         "handle_right": {
          "X": 0.5,
          "Y": 0.0
         },
         "handle_type": 0,
         "interpolation": 0
        }
       ]
      },
      "contrast": {
       "Points": [
        {
         "co": {
          "X": 1.0,
          "Y": 3.0
         },
         "handle_left": {
          "X": 0.5,
          "Y": 1.0
         },
         "handle_right": {
          "X": 0.5,
          "Y": 0.0
         },
         "handle_type": 0,
         "interpolation": 0
        },
        {
         "co": {
          "X": 30.0,
          "Y": 3.0
         },
         "handle_left": {
          "X": 0.5,
          "Y": 1.0
         },
         "handle_right": {
          "X": 0.5,
          "Y": 0.0
         },
         "handle_type": 0,
         "interpolation": 0
        }
       ]
      },
      "reader": {
       "acodec": "",
       "audio_bit_rate": 0,
       "audio_stream_index": -1,
       "audio_timebase": {
        "den": 1,
        "num": 1
       },
       "channel_layout": 4,
       "channels": 0,
       "display_ratio": {
        "den": 4,
        "num": 5
       },
       "duration": 3600.0,
       "file_size": "5832000",
       "fps": {
        "den": 1,
        "num": 30
       },
       "has_audio": false,
       "has_single_image": true,
       "has_video": true,
       "height": 576,
       "interlaced_frame": false,
       "metadata": {},
       "path": "@transitions/common/fade.svg",
       "pixel_format": -1,
       "pixel_ratio": {
        "den": 1,
        "num": 1
       },
       "sample_rate": 0,
       "top_field_first": true,
       "type": "QtImageReader",
       "vcodec": "",
       "video_bit_rate": 0,
       "video_length": "108000",
       "video_stream_index": -1,
       "video_timebase": {
        "den": 30,
        "num": 1
       },
       "width": 720
      },
      "replace_image": false,
      "id": "SQUUWVPO2R"
     },
     {
      "layer": 7000000,
      "title": "Transition",
      "type": "Mask",
      "position": 25.266666666666666,
      "start": 0,
      "end": 1,
      "brightness": {
       "Points": [
        {
         "co": {
          "X": 1.0,
          "Y": -1.0
         },
         "handle_left": {
          "X": 0.5,
          "Y": 1.0
         },
         "handle_right": {
          "X": 0.5,
          "Y": 0.0
         },
         "handle_type": 0,
         "interpolation": 0
        },
        {
         "co": {
          "X": 30.0,
          "Y": 1.0
         },
         "handle_left": {
          "X": 0.5,
          "Y": 1.0
         },
         "handle_right": {
          "X": 0.5,
          "Y": 0.0
         },
         "handle_type": 0,
         "interpolation": 0
        }
       ]
      },
      "contrast": {
       "Points": [
        {
         "co": {
          "X": 1.0,
          "Y": 3.0
         },
         "handle_left": {
          "X": 0.5,
          "Y": 1.0
         },
         "handle_right": {
          "X": 0.5,
          "Y": 0.0
         },
         "handle_type": 0,
         "interpolation": 0
        },
        {
         "co": {
          "X": 30.0,
          "Y": 3.0
         },
         "handle_left": {
          "X": 0.5,
          "Y": 1.0
         },
         "handle_right": {
          "X": 0.5,
          "Y": 0.0
         },
         "handle_type": 0,
         "interpolation": 0
        }
       ]
      },
      "reader": {
       "acodec": "",
       "audio_bit_rate": 0,
       "audio_stream_index": -1,
       "audio_timebase": {
        "den": 1,
        "num": 1
       },
       "channel_layout": 4,
       "channels": 0,
       "display_ratio": {
        "den": 4,
        "num": 5
       },
       "duration": 3600.0,
       "file_size": "5832000",
       "fps": {
        "den": 1,
        "num": 30
       },
       "has_audio": false,
       "has_single_image": true,
       "has_video": true,
       "height": 576,
       "interlaced_frame": false,
       "metadata": {},
       "path": "@transitions/common/fade.svg",
       "pixel_format": -1,
       "pixel_ratio": {
        "den": 1,
        "num": 1
       },
       "sample_rate": 0,
       "top_field_first": true,
       "type": "QtImageReader",
       "vcodec": "",
       "video_bit_rate": 0,
       "video_length": "108000",
       "video_stream_index": -1,
       "video_timebase": {
        "den": 30,
        "num": 1
       },
       "width": 720
      },
      "replace_image": false,
      "id": "BHKYCUMDC6"
     },
     {
      "layer": 7000000,
      "title": "Transition",
      "type": "Mask",
      "position": 26.633333333333333,
      "start": 0,
      "end": 1,
      "brightness": {
       "Points": [
        {
         "co": {
          "X": 1.0,
          "Y": 1.0
         },
         "handle_left": {
          "X": 0.5,
          "Y": 1.0
         },
         "handle_right": {
          "X": 0.5,
          "Y": 0.0
         },
         "handle_type": 0,
         "interpolation": 0
        },
        {
         "co": {
          "X": 30.0,
          "Y": -1.0
         },
         "handle_left": {
          "X": 0.5,
          "Y": 1.0
         },
         "handle_right": {
          "X": 0.5,
          "Y": 0.0
         },
         "handle_type": 0,
         "interpolation": 0
        }
       ]
      },
      "contrast": {
       "Points": [
        {
         "co": {
          "X": 1.0,
          "Y": 3.0
         },
         "handle_left": {
          "X": 0.5,
          "Y": 1.0
         },
         "handle_right": {
          "X": 0.5,
          "Y": 0.0
         },
         "handle_type": 0,
         "interpolation": 0
        },
        {
         "co": {
          "X": 30.0,
          "Y": 3.0
         },
         "handle_left": {
          "X": 0.5,
          "Y": 1.0
         },
         "handle_right": {
          "X": 0.5,
          "Y": 0.0
         },
         "handle_type": 0,
         "interpolation": 0
        }
       ]
      },
      "reader": {
       "acodec": "",
       "audio_bit_rate": 0,
       "audio_stream_index": -1,
       "audio_timebase": {
        "den": 1,
        "num": 1
       },
       "channel_layout": 4,
       "channels": 0,
       "display_ratio": {
        "den": 4,
        "num": 5
       },
       "duration": 3600.0,
       "file_size": "5832000",
       "fps": {
        "den": 1,
        "num": 30
       },
       "has_audio": false,
       "has_single_image": true,
       "has_video": true,
       "height": 576,
       "interlaced_frame": false,
       "metadata": {},
       "path": "@transitions/common/fade.svg",
       "pixel_format": -1,
       "pixel_ratio": {
        "den": 1,
        "num": 1
       },
       "sample_rate": 0,
       "top_field_first": true,
       "type": "QtImageReader",
       "vcodec": "",
       "video_bit_rate": 0,
       "video_length": "108000",
       "video_stream_index": -1,
       "video_timebase": {
        "den": 30,
        "num": 1
       },
       "width": 720
      },
      "replace_image": false,
      "id": "Z4LPCLVXCA"
     },
     {
      "layer": 6000000,
      "title": "Transition",
      "type": "Mask",
      "position": 26.633333333333333,
      "start": 0,
      "end": 1,
      "brightness": {
       "Points": [
        {
         "co": {
          "X": 1.0,
          "Y": 1.0
         },
         "handle_left": {
          "X": 0.5,
          "Y": 1.0
         },
         "handle_right": {
          "X": 0.5,
          "Y": 0.0
         },
         "handle_type": 0,
         "interpolation": 0
        },
        {
         "co": {
          "X": 30.0,
          "Y": -1.0
         },
         "handle_left": {
          "X": 0.5,
          "Y": 1.0
         },
         "handle_right": {
          "X": 0.5,
          "Y": 0.0
         },
         "handle_type": 0,
         "interpolation": 0
        }
       ]
      },
      "contrast": {
       "Points": [
        {
         "co": {
          "X": 1.0,
          "Y": 3.0
         },
         "handle_left": {
          "X": 0.5,
          "Y": 1.0
         },
         "handle_right": {
          "X": 0.5,
          "Y": 0.0
         },
         "handle_type": 0,
         "interpolation": 0
        },
        {
         "co": {
          "X": 30.0,
          "Y": 3.0
         },
         "handle_left": {
          "X": 0.5,
          "Y": 1.0
         },
         "handle_right": {
          "X": 0.5,
          "Y": 0.0
         },
         "handle_type": 0,
         "interpolation": 0
        }
       ]
      },
      "reader": {
       "acodec": "",
       "audio_bit_rate": 0,
       "audio_stream_index": -1,
       "audio_timebase": {
        "den": 1,
        "num": 1
       },
       "channel_layout": 4,
       "channels": 0,
       "display_ratio": {
        "den": 4,
        "num": 5
       },
       "duration": 3600.0,
       "file_size": "5832000",
       "fps": {
        "den": 1,
        "num": 30
       },
       "has_audio": false,
       "has_single_image": true,
       "has_video": true,
       "height": 576,
       "interlaced_frame": false,
       "metadata": {},
       "path": "@transitions/common/fade.svg",
       "pixel_format": -1,
       "pixel_ratio": {
        "den": 1,
        "num": 1
       },
       "sample_rate": 0,
       "top_field_first": true,
       "type": "QtImageReader",
       "vcodec": "",
       "video_bit_rate": 0,
       "video_length": "108000",
       "video_stream_index": -1,
       "video_timebase": {
        "den": 30,
        "num": 1
       },
       "width": 720
      },
      "replace_image": false,
      "id": "MPAHNTV5UJ"
     },
     {
      "layer": 5000000,
      "title": "Transition",
      "type": "Mask",
      "position": 26.633333333333333,
      "start": 0,
      "end": 1,
      "brightness": {
       "Points": [
        {
         "co": {
          "X": 1.0,
          "Y": 1.0
         },
         "handle_left": {
          "X": 0.5,
          "Y": 1.0
         },
         "handle_right": {
          "X": 0.5,
          "Y": 0.0
         },
         "handle_type": 0,
         "interpolation": 0
        },
        {
         "co": {
          "X": 30.0,
          "Y": -1.0
         },
         "handle_left": {
          "X": 0.5,
          "Y": 1.0
         },
         "handle_right": {
          "X": 0.5,
          "Y": 0.0
         },
         "handle_type": 0,
         "interpolation": 0
        }
       ]
      },
      "contrast": {
       "Points": [
        {
         "co": {
          "X": 1.0,
          "Y": 3.0
         },
         "handle_left": {
          "X": 0.5,
          "Y": 1.0
         },
         "handle_right": {
          "X": 0.5,
          "Y": 0.0
         },
         "handle_type": 0,
         "interpolation": 0
        },
        {
         "co": {
          "X": 30.0,
          "Y": 3.0
         },
         "handle_left": {
          "X": 0.5,
          "Y": 1.0
         },
         "handle_right": {
          "X": 0.5,
          "Y": 0.0
         },
         "handle_type": 0,
         "interpolation": 0
        }
       ]
      },
      "reader": {
       "acodec": "",
       "audio_bit_rate": 0,
       "audio_stream_index": -1,
       "audio_timebase": {
        "den": 1,
        "num": 1
       },
       "channel_layout": 4,
       "channels": 0,
       "display_ratio": {
        "den": 4,
        "num": 5
       },
       "duration": 3600.0,
       "file_size": "5832000",
       "fps": {
        "den": 1,
        "num": 30
       },
       "has_audio": false,
       "has_single_image": true,
       "has_video": true,
       "height": 576,
       "interlaced_frame": false,
       "metadata": {},
       "path": "@transitions/common/fade.svg",
       "pixel_format": -1,
       "pixel_ratio": {
        "den": 1,
        "num": 1
       },
       "sample_rate": 0,
       "top_field_first": true,
       "type": "QtImageReader",
       "vcodec": "",
       "video_bit_rate": 0,
       "video_length": "108000",
       "video_stream_index": -1,
       "video_timebase": {
        "den": 30,
        "num": 1
       },
       "width": 720
      },
      "replace_image": false,
      "id": "47G933Z1X6"
     },
     {
      "layer": 4000000,
      "title": "Transition",
      "type": "Mask",
      "position": 26.633333333333333,
      "start": 0,
      "end": 1,
      "brightness": {
       "Points": [
        {
         "co": {
          "X": 1.0,
          "Y": 1.0
         },
         "handle_left": {
          "X": 0.5,
          "Y": 1.0
         },
         "handle_right": {
          "X": 0.5,
          "Y": 0.0
         },
         "handle_type": 0,
         "interpolation": 0
        },
        {
         "co": {
          "X": 30.0,
          "Y": -1.0
         },
         "handle_left": {
          "X": 0.5,
          "Y": 1.0
         },
         "handle_right": {
          "X": 0.5,
          "Y": 0.0
         },
         "handle_type": 0,
         "interpolation": 0
        }
       ]
      },
      "contrast": {
       "Points": [
        {
         "co": {
          "X": 1.0,
          "Y": 3.0
         },
         "handle_left": {
          "X": 0.5,
          "Y": 1.0
         },
         "handle_right": {
          "X": 0.5,
          "Y": 0.0
         },
         "handle_type": 0,
         "interpolation": 0
        },
        {
         "co": {
          "X": 30.0,
          "Y": 3.0
         },
         "handle_left": {
          "X": 0.5,
          "Y": 1.0
         },
         "handle_right": {
          "X": 0.5,
          "Y": 0.0
         },
         "handle_type": 0,
         "interpolation": 0
        }
       ]
      },
      "reader": {
       "acodec": "",
       "audio_bit_rate": 0,
       "audio_stream_index": -1,
       "audio_timebase": {
        "den": 1,
        "num": 1
       },
       "channel_layout": 4,
       "channels": 0,
       "display_ratio": {
        "den": 4,
        "num": 5
       },
       "duration": 3600.0,
       "file_size": "5832000",
       "fps": {
        "den": 1,
        "num": 30
       },
       "has_audio": false,
       "has_single_image": true,
       "has_video": true,
       "height": 576,
       "interlaced_frame": false,
       "metadata": {},
       "path": "@transitions/common/fade.svg",
       "pixel_format": -1,
       "pixel_ratio": {
        "den": 1,
        "num": 1
       },
       "sample_rate": 0,
       "top_field_first": true,
       "type": "QtImageReader",
       "vcodec": "",
       "video_bit_rate": 0,
       "video_length": "108000",
       "video_stream_index": -1,
       "video_timebase": {
        "den": 30,
        "num": 1
       },
       "width": 720
      },
      "replace_image": false,
      "id": "J3F6G7YKRA"
     },
     {
      "layer": 3000000,
      "title": "Transition",
      "type": "Mask",
      "position": 26.633333333333333,
      "start": 0,
      "end": 1,
      "brightness": {
       "Points": [
        {
         "co": {
          "X": 1.0,
          "Y": 1.0
         },
         "handle_left": {
          "X": 0.5,
          "Y": 1.0
         },
         "handle_right": {
          "X": 0.5,
          "Y": 0.0
         },
         "handle_type": 0,
         "interpolation": 0
        },
        {
         "co": {
          "X": 30.0,
          "Y": -1.0
         },
         "handle_left": {
          "X": 0.5,
          "Y": 1.0
         },
         "handle_right": {
          "X": 0.5,
          "Y": 0.0
         },
         "handle_type": 0,
         "interpolation": 0
        }
       ]
      },
      "contrast": {
       "Points": [
        {
         "co": {
          "X": 1.0,
          "Y": 3.0
         },
         "handle_left": {
          "X": 0.5,
          "Y": 1.0
         },
         "handle_right": {
          "X": 0.5,
          "Y": 0.0
         },
         "handle_type": 0,
         "interpolation": 0
        },
        {
         "co": {
          "X": 30.0,
          "Y": 3.0
         },
         "handle_left": {
          "X": 0.5,
          "Y": 1.0
         },
         "handle_right": {
          "X": 0.5,
          "Y": 0.0
         },
         "handle_type": 0,
         "interpolation": 0
        }
       ]
      },
      "reader": {
       "acodec": "",
       "audio_bit_rate": 0,
       "audio_stream_index": -1,
       "audio_timebase": {
        "den": 1,
        "num": 1
       },
       "channel_layout": 4,
       "channels": 0,
       "display_ratio": {
        "den": 4,
        "num": 5
       },
       "duration": 3600.0,
       "file_size": "5832000",
       "fps": {
        "den": 1,
        "num": 30
       },
       "has_audio": false,
       "has_single_image": true,
       "has_video": true,
       "height": 576,
       "interlaced_frame": false,
       "metadata": {},
       "path": "@transitions/common/fade.svg",
       "pixel_format": -1,
       "pixel_ratio": {
        "den": 1,
        "num": 1
       },
       "sample_rate": 0,
       "top_field_first": true,
       "type": "QtImageReader",
       "vcodec": "",
       "video_bit_rate": 0,
       "video_length": "108000",
       "video_stream_index": -1,
       "video_timebase": {
        "den": 30,
        "num": 1
       },
       "width": 720
      },
      "replace_image": false,
      "id": "YIVQE4FZQJ"
     },
     {
      "layer": 7000000,
      "title": "Transition",
      "type": "Mask",
      "position": 29.933333333333334,
      "start": 0,
      "end": 1,
      "brightness": {
       "Points": [
        {
         "co": {
          "X": 1.0,
          "Y": -1.0
         },
         "handle_left": {
          "X": 0.5,
          "Y": 1.0
         },
         "handle_right": {
          "X": 0.5,
          "Y": 0.0
         },
         "handle_type": 0,
         "interpolation": 0
        },
        {
         "co": {
          "X": 30.0,
          "Y": 1.0
         },
         "handle_left": {
          "X": 0.5,
          "Y": 1.0
         },
         "handle_right": {
          "X": 0.5,
          "Y": 0.0
         },
         "handle_type": 0,
         "interpolation": 0
        }
       ]
      },
      "contrast": {
       "Points": [
        {
         "co": {
          "X": 1.0,
          "Y": 3.0
         },
         "handle_left": {
          "X": 0.5,
          "Y": 1.0
         },
         "handle_right": {
          "X": 0.5,
          "Y": 0.0
         },
         "handle_type": 0,
         "interpolation": 0
        },
        {
         "co": {
          "X": 30.0,
          "Y": 3.0
         },
         "handle_left": {
          "X": 0.5,
          "Y": 1.0
         },
         "handle_right": {
          "X": 0.5,
          "Y": 0.0
         },
         "handle_type": 0,
         "interpolation": 0
        }
       ]
      },
      "reader": {
       "acodec": "",
       "audio_bit_rate": 0,
       "audio_stream_index": -1,
       "audio_timebase": {
        "den": 1,
        "num": 1
       },
       "channel_layout": 4,
       "channels": 0,
       "display_ratio": {
        "den": 4,
        "num": 5
       },
       "duration": 3600.0,
       "file_size": "5832000",
       "fps": {
        "den": 1,
        "num": 30
       },
       "has_audio": false,
       "has_single_image": true,
       "has_video": true,
       "height": 576,
       "interlaced_frame": false,
       "metadata": {},
       "path": "@transitions/common/fade.svg",
       "pixel_format": -1,
       "pixel_ratio": {
        "den": 1,
        "num": 1
       },
       "sample_rate": 0,
       "top_field_first": true,
       "type": "QtImageReader",
       "vcodec": "",
       "video_bit_rate": 0,
       "video_length": "108000",
       "video_stream_index": -1,
       "video_timebase": {
        "den": 30,
        "num": 1
       },
       "width": 720
      },
      "replace_image": false,
      "id": "IHGENV3HTQ"
     },
     {
      "layer": 6000000,
      "title": "Transition",
      "type": "Mask",
      "position": 29.933333333333334,
      "start": 0,
      "end": 1,
      "brightness": {
       "Points": [
        {
         "co": {
          "X": 1.0,
          "Y": -1.0
         },
         "handle_left": {
          "X": 0.5,
          "Y": 1.0
         },
         "handle_right": {
          "X": 0.5,
          "Y": 0.0
         },
         "handle_type": 0,
         "interpolation": 0
        },
        {
         "co": {
          "X": 30.0,
          "Y": 1.0
         },
         "handle_left": {
          "X": 0.5,
          "Y": 1.0
         },
         "handle_right": {
          "X": 0.5,
          "Y": 0.0
         },
         "handle_type": 0,
         "interpolation": 0
        }
       ]
      },
      "contrast": {
       "Points": [
        {
         "co": {
          "X": 1.0,
          "Y": 3.0
         },
         "handle_left": {
          "X": 0.5,
          "Y": 1.0
         },
         "handle_right": {
          "X": 0.5,
          "Y": 0.0
         },
         "handle_type": 0,
         "interpolation": 0
        },
        {
         "co": {
          "X": 30.0,
          "Y": 3.0
         },
         "handle_left": {
          "X": 0.5,
          "Y": 1.0
         },
         "handle_right": {
          "X": 0.5,
          "Y": 0.0
         },
         "handle_type": 0,
         "interpolation": 0
        }
       ]
      },
      "reader": {
       "acodec": "",
       "audio_bit_rate": 0,
       "audio_stream_index": -1,
       "audio_timebase": {
        "den": 1,
        "num": 1
       },
       "channel_layout": 4,
       "channels": 0,
       "display_ratio": {
        "den": 4,
        "num": 5
       },
       "duration": 3600.0,
       "file_size": "5832000",
       "fps": {
        "den": 1,
        "num": 30
       },
       "has_audio": false,
       "has_single_image": true,
       "has_video": true,
       "height": 576,
       "interlaced_frame": false,
       "metadata": {},
       "path": "@transitions/common/fade.svg",
       "pixel_format": -1,
       "pixel_ratio": {
        "den": 1,
        "num": 1
       },
       "sample_rate": 0,
       "top_field_first": true,
       "type": "QtImageReader",
       "vcodec": "",
       "video_bit_rate": 0,
       "video_length": "108000",
       "video_stream_index": -1,
       "video_timebase": {
        "den": 30,
        "num": 1
       },
       "width": 720
      },
      "replace_image": false,
      "id": "L0LNX9VSXM"
     },
     {
      "layer": 5000000,
      "title": "Transition",
      "type": "Mask",
      "position": 29.933333333333334,
      "start": 0,
      "end": 1,
      "brightness": {
       "Points": [
        {
         "co": {
          "X": 1.0,
          "Y": -1.0
         },
         "handle_left": {
          "X": 0.5,
          "Y": 1.0
         },
         "handle_right": {
          "X": 0.5,
          "Y": 0.0
         },
         "handle_type": 0,
         "interpolation": 0
        },
        {
         "co": {
          "X": 30.0,
          "Y": 1.0
         },
         "handle_left": {
          "X": 0.5,
          "Y": 1.0
         },
         "handle_right": {
          "X": 0.5,
          "Y": 0.0
         },
         "handle_type": 0,
         "interpolation": 0
        }
       ]
      },
      "contrast": {
       "Points": [
        {
         "co": {
          "X": 1.0,
          "Y": 3.0
         },
         "handle_left": {
          "X": 0.5,
          "Y": 1.0
         },
         "handle_right": {
          "X": 0.5,
          "Y": 0.0
         },
         "handle_type": 0,
         "interpolation": 0
        },
        {
         "co": {
          "X": 30.0,
          "Y": 3.0
         },
         "handle_left": {
          "X": 0.5,
          "Y": 1.0
         },
         "handle_right": {
          "X": 0.5,
          "Y": 0.0
         },
         "handle_type": 0,
         "interpolation": 0
        }
       ]
      },
      "reader": {
       "acodec": "",
       "audio_bit_rate": 0,
       "audio_stream_index": -1,
       "audio_timebase": {
        "den": 1,
        "num": 1
       },
       "channel_layout": 4,
       "channels": 0,
       "display_ratio": {
        "den": 4,
        "num": 5
       },
       "duration": 3600.0,
       "file_size": "5832000",
       "fps": {
        "den": 1,
        "num": 30
       },
       "has_audio": false,
       "has_single_image": true,
       "has_video": true,
       "height": 576,
       "interlaced_frame": false,
       "metadata": {},
       "path": "@transitions/common/fade.svg",
       "pixel_format": -1,
       "pixel_ratio": {
        "den": 1,
        "num": 1
       },
       "sample_rate": 0,
       "top_field_first": true,
       "type": "QtImageReader",
       "vcodec": "",
       "video_bit_rate": 0,
       "video_length": "108000",
       "video_stream_index": -1,
       "video_timebase": {
        "den": 30,
        "num": 1
       },
       "width": 720
      },
      "replace_image": false,
      "id": "9P08T43W0H"
     },
     {
      "layer": 4000000,
      "title": "Transition",
      "type": "Mask",
      "position": 29.933333333333334,
      "start": 0,
      "end": 1,
      "brightness": {
       "Points": [
        {
         "co": {
          "X": 1.0,
          "Y": -1.0
         },
         "handle_left": {
          "X": 0.5,
          "Y": 1.0
         },
         "handle_right": {
          "X": 0.5,
          "Y": 0.0
         },
         "handle_type": 0,
         "interpolation": 0
        },
        {
         "co": {
          "X": 30.0,
          "Y": 1.0
         },
         "handle_left": {
          "X": 0.5,
          "Y": 1.0
         },
         "handle_right": {
          "X": 0.5,
          "Y": 0.0
         },
         "handle_type": 0,
         "interpolation": 0
        }
       ]
      },
      "contrast": {
       "Points": [
        {
         "co": {
          "X": 1.0,
          "Y": 3.0
         },
         "handle_left": {
          "X": 0.5,
          "Y": 1.0
         },
         "handle_right": {
          "X": 0.5,
          "Y": 0.0
         },
         "handle_type": 0,
         "interpolation": 0
        },
        {
         "co": {
          "X": 30.0,
          "Y": 3.0
         },
         "handle_left": {
          "X": 0.5,
          "Y": 1.0
         },
         "handle_right": {
          "X": 0.5,
          "Y": 0.0
         },
         "handle_type": 0,
         "interpolation": 0
        }
       ]
      },
      "reader": {
       "acodec": "",
       "audio_bit_rate": 0,
       "audio_stream_index": -1,
       "audio_timebase": {
        "den": 1,
        "num": 1
       },
       "channel_layout": 4,
       "channels": 0,
       "display_ratio": {
        "den": 4,
        "num": 5
       },
       "duration": 3600.0,
       "file_size": "5832000",
       "fps": {
        "den": 1,
        "num": 30
       },
       "has_audio": false,
       "has_single_image": true,
       "has_video": true,
       "height": 576,
       "interlaced_frame": false,
       "metadata": {},
       "path": "@transitions/common/fade.svg",
       "pixel_format": -1,
       "pixel_ratio": {
        "den": 1,
        "num": 1
       },
       "sample_rate": 0,
       "top_field_first": true,
       "type": "QtImageReader",
       "vcodec": "",
       "video_bit_rate": 0,
       "video_length": "108000",
       "video_stream_index": -1,
       "video_timebase": {
        "den": 30,
        "num": 1
       },
       "width": 720
      },
      "replace_image": false,
      "id": "A0I8N96BOX"
     },
     {
      "layer": 3000000,
      "title": "Transition",
      "type": "Mask",
      "position": 29.933333333333334,
      "start": 0,
      "end": 0.9999999999999821,
      "brightness": {
       "Points": [
        {
         "co": {
          "X": 1.0,
          "Y": -1.0
         },
         "handle_left": {
          "X": 0.5,
          "Y": 1.0
         },
         "handle_right": {
          "X": 0.5,
          "Y": 0.0
         },
         "handle_type": 0,
         "interpolation": 0
        },
        {
         "co": {
          "X": 30.0,
          "Y": 1.0
         },
         "handle_left": {
          "X": 0.5,
          "Y": 1.0
         },
         "handle_right": {
          "X": 0.5,
          "Y": 0.0
         },
         "handle_type": 0,
         "interpolation": 0
        }
       ]
      },
      "contrast": {
       "Points": [
        {
         "co": {
          "X": 1.0,
          "Y": 3.0
         },
         "handle_left": {
          "X": 0.5,
          "Y": 1.0
         },
         "handle_right": {
          "X": 0.5,
          "Y": 0.0
         },
         "handle_type": 0,
         "interpolation": 0
        },
        {
         "co": {
          "X": 30.0,
          "Y": 3.0
         },
         "handle_left": {
          "X": 0.5,
          "Y": 1.0
         },
         "handle_right": {
          "X": 0.5,
          "Y": 0.0
         },
         "handle_type": 0,
         "interpolation": 0
        }
       ]
      },
      "reader": {
       "acodec": "",
       "audio_bit_rate": 0,
       "audio_stream_index": -1,
       "audio_timebase": {
        "den": 1,
        "num": 1
       },
       "channel_layout": 4,
       "channels": 0,
       "display_ratio": {
        "den": 4,
        "num": 5
       },
       "duration": 3600.0,
       "file_size": "5832000",
       "fps": {
        "den": 1,
        "num": 30
       },
       "has_audio": false,
       "has_single_image": true,
       "has_video": true,
       "height": 576,
       "interlaced_frame": false,
       "metadata": {},
       "path": "@transitions/common/fade.svg",
       "pixel_format": -1,
       "pixel_ratio": {
        "den": 1,
        "num": 1
       },
       "sample_rate": 0,
       "top_field_first": true,
       "type": "QtImageReader",
       "vcodec": "",
       "video_bit_rate": 0,
       "video_length": "108000",
       "video_stream_index": -1,
       "video_timebase": {
        "den": 30,
        "num": 1
       },
       "width": 720
      },
      "replace_image": false,
      "id": "6HFQOBFSG3"
     },
     {
      "layer": 2000000,
      "title": "Transition",
      "type": "Mask",
      "position": 29.933333333333334,
      "start": 0,
      "end": 0.9999999999999821,
      "brightness": {
       "Points": [
        {
         "co": {
          "X": 1.0,
          "Y": -1.0
         },
         "handle_left": {
          "X": 0.5,
          "Y": 1.0
         },
         "handle_right": {
          "X": 0.5,
          "Y": 0.0
         },
         "handle_type": 0,
         "interpolation": 0
        },
        {
         "co": {
          "X": 30.0,
          "Y": 1.0
         },
         "handle_left": {
          "X": 0.5,
          "Y": 1.0
         },
         "handle_right": {
          "X": 0.5,
          "Y": 0.0
         },
         "handle_type": 0,
         "interpolation": 0
        }
       ]
      },
      "contrast": {
       "Points": [
        {
         "co": {
          "X": 1.0,
          "Y": 3.0
         },
         "handle_left": {
          "X": 0.5,
          "Y": 1.0
         },
         "handle_right": {
          "X": 0.5,
          "Y": 0.0
         },
         "handle_type": 0,
         "interpolation": 0
        },
        {
         "co": {
          "X": 30.0,
          "Y": 3.0
         },
         "handle_left": {
          "X": 0.5,
          "Y": 1.0
         },
         "handle_right": {
          "X": 0.5,
          "Y": 0.0
         },
         "handle_type": 0,
         "interpolation": 0
        }
       ]
      },
      "reader": {
       "acodec": "",
       "audio_bit_rate": 0,
       "audio_stream_index": -1,
       "audio_timebase": {
        "den": 1,
        "num": 1
       },
       "channel_layout": 4,
       "channels": 0,
       "display_ratio": {
        "den": 4,
        "num": 5
       },
       "duration": 3600.0,
       "file_size": "5832000",
       "fps": {
        "den": 1,
        "num": 30
       },
       "has_audio": false,
       "has_single_image": true,
       "has_video": true,
       "height": 576,
       "interlaced_frame": false,
       "metadata": {},
       "path": "@transitions/common/fade.svg",
       "pixel_format": -1,
       "pixel_ratio": {
        "den": 1,
        "num": 1
       },
       "sample_rate": 0,
       "top_field_first": true,
       "type": "QtImageReader",
       "vcodec": "",
       "video_bit_rate": 0,
       "video_length": "108000",
       "video_stream_index": -1,
       "video_timebase": {
        "den": 30,
        "num": 1
       },
       "width": 720
      },
      "replace_image": false,
      "id": "ROR47Q4UPE"
     },
     {
      "layer": 5000000,
      "title": "Transition",
      "type": "Mask",
      "position": 35.333333333333336,
      "start": 0,
      "end": 1,
      "brightness": {
       "Points": [
        {
         "co": {
          "X": 1.0,
          "Y": -1.0
         },
         "handle_left": {
          "X": 0.5,
          "Y": 1.0
         },
         "handle_right": {
          "X": 0.5,
          "Y": 0.0
         },
         "handle_type": 0,
         "interpolation": 0
        },
        {
         "co": {
          "X": 30.0,
          "Y": 1.0
         },
         "handle_left": {
          "X": 0.5,
          "Y": 1.0
         },
         "handle_right": {
          "X": 0.5,
          "Y": 0.0
         },
         "handle_type": 0,
         "interpolation": 0
        }
       ]
      },
      "contrast": {
       "Points": [
        {
         "co": {
          "X": 1.0,
          "Y": 3.0
         },
         "handle_left": {
          "X": 0.5,
          "Y": 1.0
         },
         "handle_right": {
          "X": 0.5,
          "Y": 0.0
         },
         "handle_type": 0,
         "interpolation": 0
        },
        {
         "co": {
          "X": 30.0,
          "Y": 3.0
         },
         "handle_left": {
          "X": 0.5,
          "Y": 1.0
         },
         "handle_right": {
          "X": 0.5,
          "Y": 0.0
         },
         "handle_type": 0,
         "interpolation": 0
        }
       ]
      },
      "reader": {
       "acodec": "",
       "audio_bit_rate": 0,
       "audio_stream_index": -1,
       "audio_timebase": {
        "den": 1,
        "num": 1
       },
       "channel_layout": 4,
       "channels": 0,
       "display_ratio": {
        "den": 4,
        "num": 5
       },
       "duration": 3600.0,
       "file_size": "5832000",
       "fps": {
        "den": 1,
        "num": 30
       },
       "has_audio": false,
       "has_single_image": true,
       "has_video": true,
       "height": 576,
       "interlaced_frame": false,
       "metadata": {},
       "path": "@transitions/common/fade.svg",
       "pixel_format": -1,
       "pixel_ratio": {
        "den": 1,
        "num": 1
       },
       "sample_rate": 0,
       "top_field_first": true,
       "type": "QtImageReader",
       "vcodec": "",
       "video_bit_rate": 0,
       "video_length": "108000",
       "video_stream_index": -1,
       "video_timebase": {
        "den": 30,
        "num": 1
       },
       "width": 720
      },
      "replace_image": false,
      "id": "YSXTQ2ILB3"
     },
     {
      "layer": 7000000,
      "title": "Transition",
      "type": "Mask",
      "position": 35.333333333333336,
      "start": 0,
      "end": 1,
      "brightness": {
       "Points": [
        {
         "co": {
          "X": 1.0,
          "Y": -1.0
         },
         "handle_left": {
          "X": 0.5,
          "Y": 1.0
         },
         "handle_right": {
          "X": 0.5,
          "Y": 0.0
         },
         "handle_type": 0,
         "interpolation": 0
        },
        {
         "co": {
          "X": 30.0,
          "Y": 1.0
         },
         "handle_left": {
          "X": 0.5,
          "Y": 1.0
         },
         "handle_right": {
          "X": 0.5,
          "Y": 0.0
         },
         "handle_type": 0,
         "interpolation": 0
        }
       ]
      },
      "contrast": {
       "Points": [
        {
         "co": {
          "X": 1.0,
          "Y": 3.0
         },
         "handle_left": {
          "X": 0.5,
          "Y": 1.0
         },
         "handle_right": {
          "X": 0.5,
          "Y": 0.0
         },
         "handle_type": 0,
         "interpolation": 0
        },
        {
         "co": {
          "X": 30.0,
          "Y": 3.0
         },
         "handle_left": {
          "X": 0.5,
          "Y": 1.0
         },
         "handle_right": {
          "X": 0.5,
          "Y": 0.0
         },
         "handle_type": 0,
         "interpolation": 0
        }
       ]
      },
      "reader": {
       "acodec": "",
       "audio_bit_rate": 0,
       "audio_stream_index": -1,
       "audio_timebase": {
        "den": 1,
        "num": 1
       },
       "channel_layout": 4,
       "channels": 0,
       "display_ratio": {
        "den": 4,
        "num": 5
       },
       "duration": 3600.0,
       "file_size": "5832000",
       "fps": {
        "den": 1,
        "num": 30
       },
       "has_audio": false,
       "has_single_image": true,
       "has_video": true,
       "height": 576,
       "interlaced_frame": false,
       "metadata": {},
       "path": "@transitions/common/fade.svg",
       "pixel_format": -1,
       "pixel_ratio": {
        "den": 1,
        "num": 1
       },
       "sample_rate": 0,
       "top_field_first": true,
       "type": "QtImageReader",
       "vcodec": "",
       "video_bit_rate": 0,
       "video_length": "108000",
       "video_stream_index": -1,
       "video_timebase": {
        "den": 30,
        "num": 1
       },
       "width": 720
      },
      "replace_image": false,
      "id": "PXS500E3HN"
     },
     {
      "layer": 6000000,
      "title": "Transition",
      "type": "Mask",
      "position": 35.333333333333336,
      "start": 0,
      "end": 1,
      "brightness": {
       "Points": [
        {
         "co": {
          "X": 1.0,
          "Y": -1.0
         },
         "handle_left": {
          "X": 0.5,
          "Y": 1.0
         },
         "handle_right": {
          "X": 0.5,
          "Y": 0.0
         },
         "handle_type": 0,
         "interpolation": 0
        },
        {
         "co": {
          "X": 30.0,
          "Y": 1.0
         },
         "handle_left": {
          "X": 0.5,
          "Y": 1.0
         },
         "handle_right": {
          "X": 0.5,
          "Y": 0.0
         },
         "handle_type": 0,
         "interpolation": 0
        }
       ]
      },
      "contrast": {
       "Points": [
        {
         "co": {
          "X": 1.0,
          "Y": 3.0
         },
         "handle_left": {
          "X": 0.5,
          "Y": 1.0
         },
         "handle_right": {
          "X": 0.5,
          "Y": 0.0
         },
         "handle_type": 0,
         "interpolation": 0
        },
        {
         "co": {
          "X": 30.0,
          "Y": 3.0
         },
         "handle_left": {
          "X": 0.5,
          "Y": 1.0
         },
         "handle_right": {
          "X": 0.5,
          "Y": 0.0
         },
         "handle_type": 0,
         "interpolation": 0
        }
       ]
      },
      "reader": {
       "acodec": "",
       "audio_bit_rate": 0,
       "audio_stream_index": -1,
       "audio_timebase": {
        "den": 1,
        "num": 1
       },
       "channel_layout": 4,
       "channels": 0,
       "display_ratio": {
        "den": 4,
        "num": 5
       },
       "duration": 3600.0,
       "file_size": "5832000",
       "fps": {
        "den": 1,
        "num": 30
       },
       "has_audio": false,
       "has_single_image": true,
       "has_video": true,
       "height": 576,
       "interlaced_frame": false,
       "metadata": {},
       "path": "@transitions/common/fade.svg",
       "pixel_format": -1,
       "pixel_ratio": {
        "den": 1,
        "num": 1
       },
       "sample_rate": 0,
       "top_field_first": true,
       "type": "QtImageReader",
       "vcodec": "",
       "video_bit_rate": 0,
       "video_length": "108000",
       "video_stream_index": -1,
       "video_timebase": {
        "den": 30,
        "num": 1
       },
       "width": 720
      },
      "replace_image": false,
      "id": "6EFG5AZ2RX"
     },
     {
      "layer": 5000000,
      "title": "Transition",
      "type": "Mask",
      "position": 31.333333333333332,
      "start": 0,
      "end": 1,
      "brightness": {
       "Points": [
        {
         "co": {
          "X": 1.0,
          "Y": 1.0
         },
         "handle_left": {
          "X": 0.5,
          "Y": 1.0
         },
         "handle_right": {
          "X": 0.5,
          "Y": 0.0
         },
         "handle_type": 0,
         "interpolation": 0
        },
        {
         "co": {
          "X": 30.0,
          "Y": -1.0
         },
         "handle_left": {
          "X": 0.5,
          "Y": 1.0
         },
         "handle_right": {
          "X": 0.5,
          "Y": 0.0
         },
         "handle_type": 0,
         "interpolation": 0
        }
       ]
      },
      "contrast": {
       "Points": [
        {
         "co": {
          "X": 1.0,
          "Y": 3.0
         },
         "handle_left": {
          "X": 0.5,
          "Y": 1.0
         },
         "handle_right": {
          "X": 0.5,
          "Y": 0.0
         },
         "handle_type": 0,
         "interpolation": 0
        },
        {
         "co": {
          "X": 30.0,
          "Y": 3.0
         },
         "handle_left": {
          "X": 0.5,
          "Y": 1.0
         },
         "handle_right": {
          "X": 0.5,
          "Y": 0.0
         },
         "handle_type": 0,
         "interpolation": 0
        }
       ]
      },
      "reader": {
       "acodec": "",
       "audio_bit_rate": 0,
       "audio_stream_index": -1,
       "audio_timebase": {
        "den": 1,
        "num": 1
       },
       "channel_layout": 4,
       "channels": 0,
       "display_ratio": {
        "den": 4,
        "num": 5
       },
       "duration": 3600.0,
       "file_size": "5832000",
       "fps": {
        "den": 1,
        "num": 30
       },
       "has_audio": false,
       "has_single_image": true,
       "has_video": true,
       "height": 576,
       "interlaced_frame": false,
       "metadata": {},
       "path": "@transitions/common/fade.svg",
       "pixel_format": -1,
       "pixel_ratio": {
        "den": 1,
        "num": 1
       },
       "sample_rate": 0,
       "top_field_first": true,
       "type": "QtImageReader",
       "vcodec": "",
       "video_bit_rate": 0,
       "video_length": "108000",
       "video_stream_index": -1,
       "video_timebase": {
        "den": 30,
        "num": 1
       },
       "width": 720
      },
      "replace_image": false,
      "id": "16Q1Z8PQP3"
     },
     {
      "layer": 7000000,
      "title": "Transition",
      "type": "Mask",
      "position": 31.333333333333332,
      "start": 0,
      "end": 1,
      "brightness": {
       "Points": [
        {
         "co": {
          "X": 1.0,
          "Y": 1.0
         },
         "handle_left": {
          "X": 0.5,
          "Y": 1.0
         },
         "handle_right": {
          "X": 0.5,
          "Y": 0.0
         },
         "handle_type": 0,
         "interpolation": 0
        },
        {
         "co": {
          "X": 30.0,
          "Y": -1.0
         },
         "handle_left": {
          "X": 0.5,
          "Y": 1.0
         },
         "handle_right": {
          "X": 0.5,
          "Y": 0.0
         },
         "handle_type": 0,
         "interpolation": 0
        }
       ]
      },
      "contrast": {
       "Points": [
        {
         "co": {
          "X": 1.0,
          "Y": 3.0
         },
         "handle_left": {
          "X": 0.5,
          "Y": 1.0
         },
         "handle_right": {
          "X": 0.5,
          "Y": 0.0
         },
         "handle_type": 0,
         "interpolation": 0
        },
        {
         "co": {
          "X": 30.0,
          "Y": 3.0
         },
         "handle_left": {
          "X": 0.5,
          "Y": 1.0
         },
         "handle_right": {
          "X": 0.5,
          "Y": 0.0
         },
         "handle_type": 0,
         "interpolation": 0
        }
       ]
      },
      "reader": {
       "acodec": "",
       "audio_bit_rate": 0,
       "audio_stream_index": -1,
       "audio_timebase": {
        "den": 1,
        "num": 1
       },
       "channel_layout": 4,
       "channels": 0,
       "display_ratio": {
        "den": 4,
        "num": 5
       },
       "duration": 3600.0,
       "file_size": "5832000",
       "fps": {
        "den": 1,
        "num": 30
       },
       "has_audio": false,
       "has_single_image": true,
       "has_video": true,
       "height": 576,
       "interlaced_frame": false,
       "metadata": {},
       "path": "@transitions/common/fade.svg",
       "pixel_format": -1,
       "pixel_ratio": {
        "den": 1,
        "num": 1
       },
       "sample_rate": 0,
       "top_field_first": true,
       "type": "QtImageReader",
       "vcodec": "",
       "video_bit_rate": 0,
       "video_length": "108000",
       "video_stream_index": -1,
       "video_timebase": {
        "den": 30,
        "num": 1
       },
       "width": 720
      },
      "replace_image": false,
      "id": "ME3NXVINI9"
     },
     {
      "layer": 6000000,
      "title": "Transition",
      "type": "Mask",
      "position": 31.333333333333332,
      "start": 0,
      "end": 1,
      "brightness": {
       "Points": [
        {
         "co": {
          "X": 1.0,
          "Y": 1.0
         },
         "handle_left": {
          "X": 0.5,
          "Y": 1.0
         },
         "handle_right": {
          "X": 0.5,
          "Y": 0.0
         },
         "handle_type": 0,
         "interpolation": 0
        },
        {
         "co": {
          "X": 30.0,
          "Y": -1.0
         },
         "handle_left": {
          "X": 0.5,
          "Y": 1.0
         },
         "handle_right": {
          "X": 0.5,
          "Y": 0.0
         },
         "handle_type": 0,
         "interpolation": 0
        }
       ]
      },
      "contrast": {
       "Points": [
        {
         "co": {
          "X": 1.0,
          "Y": 3.0
         },
         "handle_left": {
          "X": 0.5,
          "Y": 1.0
         },
         "handle_right": {
          "X": 0.5,
          "Y": 0.0
         },
         "handle_type": 0,
         "interpolation": 0
        },
        {
         "co": {
          "X": 30.0,
          "Y": 3.0
         },
         "handle_left": {
          "X": 0.5,
          "Y": 1.0
         },
         "handle_right": {
          "X": 0.5,
          "Y": 0.0
         },
         "handle_type": 0,
         "interpolation": 0
        }
       ]
      },
      "reader": {
       "acodec": "",
       "audio_bit_rate": 0,
       "audio_stream_index": -1,
       "audio_timebase": {
        "den": 1,
        "num": 1
       },
       "channel_layout": 4,
       "channels": 0,
       "display_ratio": {
        "den": 4,
        "num": 5
       },
       "duration": 3600.0,
       "file_size": "5832000",
       "fps": {
        "den": 1,
        "num": 30
       },
       "has_audio": false,
       "has_single_image": true,
       "has_video": true,
       "height": 576,
       "interlaced_frame": false,
       "metadata": {},
       "path": "@transitions/common/fade.svg",
       "pixel_format": -1,
       "pixel_ratio": {
        "den": 1,
        "num": 1
       },
       "sample_rate": 0,
       "top_field_first": true,
       "type": "QtImageReader",
       "vcodec": "",
       "video_bit_rate": 0,
       "video_length": "108000",
       "video_stream_index": -1,
       "video_timebase": {
        "den": 30,
        "num": 1
       },
       "width": 720
      },
      "replace_image": false,
      "id": "1DK47L92IA"
     },
     {
      "layer": 2000000,
      "title": "Transition",
      "type": "Mask",
      "position": 36.7,
      "start": 0,
      "end": 1,
      "brightness": {
       "Points": [
        {
         "co": {
          "X": 1.0,
          "Y": 1.0
         },
         "handle_left": {
          "X": 0.5,
          "Y": 1.0
         },
         "handle_right": {
          "X": 0.5,
          "Y": 0.0
         },
         "handle_type": 0,
         "interpolation": 0
        },
        {
         "co": {
          "X": 30.0,
          "Y": -1.0
         },
         "handle_left": {
          "X": 0.5,
          "Y": 1.0
         },
         "handle_right": {
          "X": 0.5,
          "Y": 0.0
         },
         "handle_type": 0,
         "interpolation": 0
        }
       ]
      },
      "contrast": {
       "Points": [
        {
         "co": {
          "X": 1.0,
          "Y": 3.0
         },
         "handle_left": {
          "X": 0.5,
          "Y": 1.0
         },
         "handle_right": {
          "X": 0.5,
          "Y": 0.0
         },
         "handle_type": 0,
         "interpolation": 0
        },
        {
         "co": {
          "X": 30.0,
          "Y": 3.0
         },
         "handle_left": {
          "X": 0.5,
          "Y": 1.0
         },
         "handle_right": {
          "X": 0.5,
          "Y": 0.0
         },
         "handle_type": 0,
         "interpolation": 0
        }
       ]
      },
      "reader": {
       "acodec": "",
       "audio_bit_rate": 0,
       "audio_stream_index": -1,
       "audio_timebase": {
        "den": 1,
        "num": 1
       },
       "channel_layout": 4,
       "channels": 0,
       "display_ratio": {
        "den": 4,
        "num": 5
       },
       "duration": 3600.0,
       "file_size": "5832000",
       "fps": {
        "den": 1,
        "num": 30
       },
       "has_audio": false,
       "has_single_image": true,
       "has_video": true,
       "height": 576,
       "interlaced_frame": false,
       "metadata": {},
       "path": "@transitions/common/fade.svg",
       "pixel_format": -1,
       "pixel_ratio": {
        "den": 1,
        "num": 1
       },
       "sample_rate": 0,
       "top_field_first": true,
       "type": "QtImageReader",
       "vcodec": "",
       "video_bit_rate": 0,
       "video_length": "108000",
       "video_stream_index": -1,
       "video_timebase": {
        "den": 30,
        "num": 1
       },
       "width": 720
      },
      "replace_image": false,
      "id": "RT9O39UDSB"
     },
     {
      "layer": 4000000,
      "title": "Transition",
      "type": "Mask",
      "position": 40.63333333333333,
      "start": 0,
      "end": 1,
      "brightness": {
       "Points": [
        {
         "co": {
          "X": 1.0,
          "Y": 1.0
         },
         "handle_left": {
          "X": 0.5,
          "Y": 1.0
         },
         "handle_right": {
          "X": 0.5,
          "Y": 0.0
         },
         "handle_type": 0,
         "interpolation": 0
        },
        {
         "co": {
          "X": 30.0,
          "Y": -1.0
         },
         "handle_left": {
          "X": 0.5,
          "Y": 1.0
         },
         "handle_right": {
          "X": 0.5,
          "Y": 0.0
         },
         "handle_type": 0,
         "interpolation": 0
        }
       ]
      },
      "contrast": {
       "Points": [
        {
         "co": {
          "X": 1.0,
          "Y": 3.0
         },
         "handle_left": {
          "X": 0.5,
          "Y": 1.0
         },
         "handle_right": {
          "X": 0.5,
          "Y": 0.0
         },
         "handle_type": 0,
         "interpolation": 0
        },
        {
         "co": {
          "X": 30.0,
          "Y": 3.0
         },
         "handle_left": {
          "X": 0.5,
          "Y": 1.0
         },
         "handle_right": {
          "X": 0.5,
          "Y": 0.0
         },
         "handle_type": 0,
         "interpolation": 0
        }
       ]
      },
      "reader": {
       "acodec": "",
       "audio_bit_rate": 0,
       "audio_stream_index": -1,
       "audio_timebase": {
        "den": 1,
        "num": 1
       },
       "channel_layout": 4,
       "channels": 0,
       "display_ratio": {
        "den": 4,
        "num": 5
       },
       "duration": 3600.0,
       "file_size": "5832000",
       "fps": {
        "den": 1,
        "num": 30
       },
       "has_audio": false,
       "has_single_image": true,
       "has_video": true,
       "height": 576,
       "interlaced_frame": false,
       "metadata": {},
       "path": "@transitions/common/fade.svg",
       "pixel_format": -1,
       "pixel_ratio": {
        "den": 1,
        "num": 1
       },
       "sample_rate": 0,
       "top_field_first": true,
       "type": "QtImageReader",
       "vcodec": "",
       "video_bit_rate": 0,
       "video_length": "108000",
       "video_stream_index": -1,
       "video_timebase": {
        "den": 30,
        "num": 1
       },
       "width": 720
      },
      "replace_image": false,
      "id": "49J3IKSEQW"
     },
     {
      "layer": 5000000,
      "title": "Transition",
      "type": "Mask",
      "position": 40.63333333333333,
      "start": 0,
      "end": 1,
      "brightness": {
       "Points": [
        {
         "co": {
          "X": 1.0,
          "Y": 1.0
         },
         "handle_left": {
          "X": 0.5,
          "Y": 1.0
         },
         "handle_right": {
          "X": 0.5,
          "Y": 0.0
         },
         "handle_type": 0,
         "interpolation": 0
        },
        {
         "co": {
          "X": 30.0,
          "Y": -1.0
         },
         "handle_left": {
          "X": 0.5,
          "Y": 1.0
         },
         "handle_right": {
          "X": 0.5,
          "Y": 0.0
         },
         "handle_type": 0,
         "interpolation": 0
        }
       ]
      },
      "contrast": {
       "Points": [
        {
         "co": {
          "X": 1.0,
          "Y": 3.0
         },
         "handle_left": {
          "X": 0.5,
          "Y": 1.0
         },
         "handle_right": {
          "X": 0.5,
          "Y": 0.0
         },
         "handle_type": 0,
         "interpolation": 0
        },
        {
         "co": {
          "X": 30.0,
          "Y": 3.0
         },
         "handle_left": {
          "X": 0.5,
          "Y": 1.0
         },
         "handle_right": {
          "X": 0.5,
          "Y": 0.0
         },
         "handle_type": 0,
         "interpolation": 0
        }
       ]
      },
      "reader": {
       "acodec": "",
       "audio_bit_rate": 0,
       "audio_stream_index": -1,
       "audio_timebase": {
        "den": 1,
        "num": 1
       },
       "channel_layout": 4,
       "channels": 0,
       "display_ratio": {
        "den": 4,
        "num": 5
       },
       "duration": 3600.0,
       "file_size": "5832000",
       "fps": {
        "den": 1,
        "num": 30
       },
       "has_audio": false,
       "has_single_image": true,
       "has_video": true,
       "height": 576,
       "interlaced_frame": false,
       "metadata": {},
       "path": "@transitions/common/fade.svg",
       "pixel_format": -1,
       "pixel_ratio": {
        "den": 1,
        "num": 1
       },
       "sample_rate": 0,
       "top_field_first": true,
       "type": "QtImageReader",
       "vcodec": "",
       "video_bit_rate": 0,
       "video_length": "108000",
       "video_stream_index": -1,
       "video_timebase": {
        "den": 30,
        "num": 1
       },
       "width": 720
      },
      "replace_image": false,
      "id": "2N1BI0NL7T"
     },
     {
      "layer": 3000000,
      "title": "Transition",
      "type": "Mask",
      "position": 40.63333333333333,
      "start": 0,
      "end": 1,
      "brightness": {
       "Points": [
        {
         "co": {
          "X": 1.0,
          "Y": 1.0
         },
         "handle_left": {
          "X": 0.5,
          "Y": 1.0
         },
         "handle_right": {
          "X": 0.5,
          "Y": 0.0
         },
         "handle_type": 0,
         "interpolation": 0
        },
        {
         "co": {
          "X": 30.0,
          "Y": -1.0
         },
         "handle_left": {
          "X": 0.5,
          "Y": 1.0
         },
         "handle_right": {
          "X": 0.5,
          "Y": 0.0
         },
         "handle_type": 0,
         "interpolation": 0
        }
       ]
      },
      "contrast": {
       "Points": [
        {
         "co": {
          "X": 1.0,
          "Y": 3.0
         },
         "handle_left": {
          "X": 0.5,
          "Y": 1.0
         },
         "handle_right": {
          "X": 0.5,
          "Y": 0.0
         },
         "handle_type": 0,
         "interpolation": 0
        },
        {
         "co": {
          "X": 30.0,
          "Y": 3.0
         },
         "handle_left": {
          "X": 0.5,
          "Y": 1.0
         },
         "handle_right": {
          "X": 0.5,
          "Y": 0.0
         },
         "handle_type": 0,
         "interpolation": 0
        }
       ]
      },
      "reader": {
       "acodec": "",
       "audio_bit_rate": 0,
       "audio_stream_index": -1,
       "audio_timebase": {
        "den": 1,
        "num": 1
       },
       "channel_layout": 4,
       "channels": 0,
       "display_ratio": {
        "den": 4,
        "num": 5
       },
       "duration": 3600.0,
       "file_size": "5832000",
       "fps": {
        "den": 1,
        "num": 30
       },
       "has_audio": false,
       "has_single_image": true,
       "has_video": true,
       "height": 576,
       "interlaced_frame": false,
       "metadata": {},
       "path": "@transitions/common/fade.svg",
       "pixel_format": -1,
       "pixel_ratio": {
        "den": 1,
        "num": 1
       },
       "sample_rate": 0,
       "top_field_first": true,
       "type": "QtImageReader",
       "vcodec": "",
       "video_bit_rate": 0,
       "video_length": "108000",
       "video_stream_index": -1,
       "video_timebase": {
        "den": 30,
        "num": 1
       },
       "width": 720
      },
      "replace_image": false,
      "id": "G2WLUXC8I2"
     },
     {
      "layer": 6000000,
      "title": "Transition",
      "type": "Mask",
      "position": 43.9,
      "start": 0,
      "end": 1,
      "brightness": {
       "Points": [
        {
         "co": {
          "X": 1.0,
          "Y": 1.0
         },
         "handle_left": {
          "X": 0.5,
          "Y": 1.0
         },
         "handle_right": {
          "X": 0.5,
          "Y": 0.0
         },
         "handle_type": 0,
         "interpolation": 0
        },
        {
         "co": {
          "X": 30.0,
          "Y": -1.0
         },
         "handle_left": {
          "X": 0.5,
          "Y": 1.0
         },
         "handle_right": {
          "X": 0.5,
          "Y": 0.0
         },
         "handle_type": 0,
         "interpolation": 0
        }
       ]
      },
      "contrast": {
       "Points": [
        {
         "co": {
          "X": 1.0,
          "Y": 3.0
         },
         "handle_left": {
          "X": 0.5,
          "Y": 1.0
         },
         "handle_right": {
          "X": 0.5,
          "Y": 0.0
         },
         "handle_type": 0,
         "interpolation": 0
        },
        {
         "co": {
          "X": 30.0,
          "Y": 3.0
         },
         "handle_left": {
          "X": 0.5,
          "Y": 1.0
         },
         "handle_right": {
          "X": 0.5,
          "Y": 0.0
         },
         "handle_type": 0,
         "interpolation": 0
        }
       ]
      },
      "reader": {
       "acodec": "",
       "audio_bit_rate": 0,
       "audio_stream_index": -1,
       "audio_timebase": {
        "den": 1,
        "num": 1
       },
       "channel_layout": 4,
       "channels": 0,
       "display_ratio": {
        "den": 4,
        "num": 5
       },
       "duration": 3600.0,
       "file_size": "5832000",
       "fps": {
        "den": 1,
        "num": 30
       },
       "has_audio": false,
       "has_single_image": true,
       "has_video": true,
       "height": 576,
       "interlaced_frame": false,
       "metadata": {},
       "path": "@transitions/common/fade.svg",
       "pixel_format": -1,
       "pixel_ratio": {
        "den": 1,
        "num": 1
       },
       "sample_rate": 0,
       "top_field_first": true,
       "type": "QtImageReader",
       "vcodec": "",
       "video_bit_rate": 0,
       "video_length": "108000",
       "video_stream_index": -1,
       "video_timebase": {
        "den": 30,
        "num": 1
       },
       "width": 720
      },
      "replace_image": false,
      "id": "TXMFAXERBB"
     },
     {
      "layer": 7000000,
      "title": "Transition",
      "type": "Mask",
      "position": 43.9,
      "start": 0,
      "end": 1,
      "brightness": {
       "Points": [
        {
         "co": {
          "X": 1.0,
          "Y": 1.0
         },
         "handle_left": {
          "X": 0.5,
          "Y": 1.0
         },
         "handle_right": {
          "X": 0.5,
          "Y": 0.0
         },
         "handle_type": 0,
         "interpolation": 0
        },
        {
         "co": {
          "X": 30.0,
          "Y": -1.0
         },
         "handle_left": {
          "X": 0.5,
          "Y": 1.0
         },
         "handle_right": {
          "X": 0.5,
          "Y": 0.0
         },
         "handle_type": 0,
         "interpolation": 0
        }
       ]
      },
      "contrast": {
       "Points": [
        {
         "co": {
          "X": 1.0,
          "Y": 3.0
         },
         "handle_left": {
          "X": 0.5,
          "Y": 1.0
         },
         "handle_right": {
          "X": 0.5,
          "Y": 0.0
         },
         "handle_type": 0,
         "interpolation": 0
        },
        {
         "co": {
          "X": 30.0,
          "Y": 3.0
         },
         "handle_left": {
          "X": 0.5,
          "Y": 1.0
         },
         "handle_right": {
          "X": 0.5,
          "Y": 0.0
         },
         "handle_type": 0,
         "interpolation": 0
        }
       ]
      },
      "reader": {
       "acodec": "",
       "audio_bit_rate": 0,
       "audio_stream_index": -1,
       "audio_timebase": {
        "den": 1,
        "num": 1
       },
       "channel_layout": 4,
       "channels": 0,
       "display_ratio": {
        "den": 4,
        "num": 5
       },
       "duration": 3600.0,
       "file_size": "5832000",
       "fps": {
        "den": 1,
        "num": 30
       },
       "has_audio": false,
       "has_single_image": true,
       "has_video": true,
       "height": 576,
       "interlaced_frame": false,
       "metadata": {},
       "path": "@transitions/common/fade.svg",
       "pixel_format": -1,
       "pixel_ratio": {
        "den": 1,
        "num": 1
       },
       "sample_rate": 0,
       "top_field_first": true,
       "type": "QtImageReader",
       "vcodec": "",
       "video_bit_rate": 0,
       "video_length": "108000",
       "video_stream_index": -1,
       "video_timebase": {
        "den": 30,
        "num": 1
       },
       "width": 720
      },
      "replace_image": false,
      "id": "WB87SQALF3"
     },
     {
      "layer": 8000000,
      "title": "Transition",
      "type": "Mask",
      "position": 47.2,
      "start": 0,
      "end": 1,
      "brightness": {
       "Points": [
        {
         "co": {
          "X": 1.0,
          "Y": -1.0
         },
         "handle_left": {
          "X": 0.5,
          "Y": 1.0
         },
         "handle_right": {
          "X": 0.5,
          "Y": 0.0
         },
         "handle_type": 0,
         "interpolation": 0
        },
        {
         "co": {
          "X": 30.0,
          "Y": 1.0
         },
         "handle_left": {
          "X": 0.5,
          "Y": 1.0
         },
         "handle_right": {
          "X": 0.5,
          "Y": 0.0
         },
         "handle_type": 0,
         "interpolation": 0
        }
       ]
      },
      "contrast": {
       "Points": [
        {
         "co": {
          "X": 1.0,
          "Y": 3.0
         },
         "handle_left": {
          "X": 0.5,
          "Y": 1.0
         },
         "handle_right": {
          "X": 0.5,
          "Y": 0.0
         },
         "handle_type": 0,
         "interpolation": 0
        },
        {
         "co": {
          "X": 30.0,
          "Y": 3.0
         },
         "handle_left": {
          "X": 0.5,
          "Y": 1.0
         },
         "handle_right": {
          "X": 0.5,
          "Y": 0.0
         },
         "handle_type": 0,
         "interpolation": 0
        }
       ]
      },
      "reader": {
       "acodec": "",
       "audio_bit_rate": 0,
       "audio_stream_index": -1,
       "audio_timebase": {
        "den": 1,
        "num": 1
       },
       "channel_layout": 4,
       "channels": 0,
       "display_ratio": {
        "den": 4,
        "num": 5
       },
       "duration": 3600.0,
       "file_size": "5832000",
       "fps": {
        "den": 1,
        "num": 30
       },
       "has_audio": false,
       "has_single_image": true,
       "has_video": true,
       "height": 576,
       "interlaced_frame": false,
       "metadata": {},
       "path": "@transitions/common/fade.svg",
       "pixel_format": -1,
       "pixel_ratio": {
        "den": 1,
        "num": 1
       },
       "sample_rate": 0,
       "top_field_first": true,
       "type": "QtImageReader",
       "vcodec": "",
       "video_bit_rate": 0,
       "video_length": "108000",
       "video_stream_index": -1,
       "video_timebase": {
        "den": 30,
        "num": 1
       },
       "width": 720
      },
      "replace_image": false,
      "id": "6979AKA6UA"
     },
     {
      "layer": 8000000,
      "title": "Transition",
      "type": "Mask",
      "position": 43.9,
      "start": 0,
      "end": 1,
      "brightness": {
       "Points": [
        {
         "co": {
          "X": 1.0,
          "Y": 1.0
         },
         "handle_left": {
          "X": 0.5,
          "Y": 1.0
         },
         "handle_right": {
          "X": 0.5,
          "Y": 0.0
         },
         "handle_type": 0,
         "interpolation": 0
        },
        {
         "co": {
          "X": 30.0,
          "Y": -1.0
         },
         "handle_left": {
          "X": 0.5,
          "Y": 1.0
         },
         "handle_right": {
          "X": 0.5,
          "Y": 0.0
         },
         "handle_type": 0,
         "interpolation": 0
        }
       ]
      },
      "contrast": {
       "Points": [
        {
         "co": {
          "X": 1.0,
          "Y": 3.0
         },
         "handle_left": {
          "X": 0.5,
          "Y": 1.0
         },
         "handle_right": {
          "X": 0.5,
          "Y": 0.0
         },
         "handle_type": 0,
         "interpolation": 0
        },
        {
         "co": {
          "X": 30.0,
          "Y": 3.0
         },
         "handle_left": {
          "X": 0.5,
          "Y": 1.0
         },
         "handle_right": {
          "X": 0.5,
          "Y": 0.0
         },
         "handle_type": 0,
         "interpolation": 0
        }
       ]
      },
      "reader": {
       "acodec": "",
       "audio_bit_rate": 0,
       "audio_stream_index": -1,
       "audio_timebase": {
        "den": 1,
        "num": 1
       },
       "channel_layout": 4,
       "channels": 0,
       "display_ratio": {
        "den": 4,
        "num": 5
       },
       "duration": 3600.0,
       "file_size": "5832000",
       "fps": {
        "den": 1,
        "num": 30
       },
       "has_audio": false,
       "has_single_image": true,
       "has_video": true,
       "height": 576,
       "interlaced_frame": false,
       "metadata": {},
       "path": "@transitions/common/fade.svg",
       "pixel_format": -1,
       "pixel_ratio": {
        "den": 1,
        "num": 1
       },
       "sample_rate": 0,
       "top_field_first": true,
       "type": "QtImageReader",
       "vcodec": "",
       "video_bit_rate": 0,
       "video_length": "108000",
       "video_stream_index": -1,
       "video_timebase": {
        "den": 30,
        "num": 1
       },
       "width": 720
      },
      "replace_image": false,
      "id": "DH4JVZH7V8"
     },
     {
      "layer": 7000000,
      "title": "Transition",
      "type": "Mask",
      "position": 47.2,
      "start": 0,
      "end": 1,
      "brightness": {
       "Points": [
        {
         "co": {
          "X": 1.0,
          "Y": -1.0
         },
         "handle_left": {
          "X": 0.5,
          "Y": 1.0
         },
         "handle_right": {
          "X": 0.5,
          "Y": 0.0
         },
         "handle_type": 0,
         "interpolation": 0
        },
        {
         "co": {
          "X": 30.0,
          "Y": 1.0
         },
         "handle_left": {
          "X": 0.5,
          "Y": 1.0
         },
         "handle_right": {
          "X": 0.5,
          "Y": 0.0
         },
         "handle_type": 0,
         "interpolation": 0
        }
       ]
      },
      "contrast": {
       "Points": [
        {
         "co": {
          "X": 1.0,
          "Y": 3.0
         },
         "handle_left": {
          "X": 0.5,
          "Y": 1.0
         },
         "handle_right": {
          "X": 0.5,
          "Y": 0.0
         },
         "handle_type": 0,
         "interpolation": 0
        },
        {
         "co": {
          "X": 30.0,
          "Y": 3.0
         },
         "handle_left": {
          "X": 0.5,
          "Y": 1.0
         },
         "handle_right": {
          "X": 0.5,
          "Y": 0.0
         },
         "handle_type": 0,
         "interpolation": 0
        }
       ]
      },
      "reader": {
       "acodec": "",
       "audio_bit_rate": 0,
       "audio_stream_index": -1,
       "audio_timebase": {
        "den": 1,
        "num": 1
       },
       "channel_layout": 4,
       "channels": 0,
       "display_ratio": {
        "den": 4,
        "num": 5
       },
       "duration": 3600.0,
       "file_size": "5832000",
       "fps": {
        "den": 1,
        "num": 30
       },
       "has_audio": false,
       "has_single_image": true,
       "has_video": true,
       "height": 576,
       "interlaced_frame": false,
       "metadata": {},
       "path": "@transitions/common/fade.svg",
       "pixel_format": -1,
       "pixel_ratio": {
        "den": 1,
        "num": 1
       },
       "sample_rate": 0,
       "top_field_first": true,
       "type": "QtImageReader",
       "vcodec": "",
       "video_bit_rate": 0,
       "video_length": "108000",
       "video_stream_index": -1,
       "video_timebase": {
        "den": 30,
        "num": 1
       },
       "width": 720
      },
      "replace_image": false,
      "id": "7D211FLB43"
     },
     {
      "layer": 6000000,
      "title": "Transition",
      "type": "Mask",
      "position": 47.2,
      "start": 0,
      "end": 1,
      "brightness": {
       "Points": [
        {
         "co": {
          "X": 1.0,
          "Y": -1.0
         },
         "handle_left": {
          "X": 0.5,
          "Y": 1.0
         },
         "handle_right": {
          "X": 0.5,
          "Y": 0.0
         },
         "handle_type": 0,
         "interpolation": 0
        },
        {
         "co": {
          "X": 30.0,
          "Y": 1.0
         },
         "handle_left": {
          "X": 0.5,
          "Y": 1.0
         },
         "handle_right": {
          "X": 0.5,
          "Y": 0.0
         },
         "handle_type": 0,
         "interpolation": 0
        }
       ]
      },
      "contrast": {
       "Points": [
        {
         "co": {
          "X": 1.0,
          "Y": 3.0
         },
         "handle_left": {
          "X": 0.5,
          "Y": 1.0
         },
         "handle_right": {
          "X": 0.5,
          "Y": 0.0
         },
         "handle_type": 0,
         "interpolation": 0
        },
        {
         "co": {
          "X": 30.0,
          "Y": 3.0
         },
         "handle_left": {
          "X": 0.5,
          "Y": 1.0
         },
         "handle_right": {
          "X": 0.5,
          "Y": 0.0
         },
         "handle_type": 0,
         "interpolation": 0
        }
       ]
      },
      "reader": {
       "acodec": "",
       "audio_bit_rate": 0,
       "audio_stream_index": -1,
       "audio_timebase": {
        "den": 1,
        "num": 1
       },
       "channel_layout": 4,
       "channels": 0,
       "display_ratio": {
        "den": 4,
        "num": 5
       },
       "duration": 3600.0,
       "file_size": "5832000",
       "fps": {
        "den": 1,
        "num": 30
       },
       "has_audio": false,
       "has_single_image": true,
       "has_video": true,
       "height": 576,
       "interlaced_frame": false,
       "metadata": {},
       "path": "@transitions/common/fade.svg",
       "pixel_format": -1,
       "pixel_ratio": {
        "den": 1,
        "num": 1
       },
       "sample_rate": 0,
       "top_field_first": true,
       "type": "QtImageReader",
       "vcodec": "",
       "video_bit_rate": 0,
       "video_length": "108000",
       "video_stream_index": -1,
       "video_timebase": {
        "den": 30,
        "num": 1
       },
       "width": 720
      },
      "replace_image": false,
      "id": "Z3MQ059L4N"
     },
     {
      "layer": 5000000,
      "title": "Transition",
      "type": "Mask",
      "position": 47.2,
      "start": 0,
      "end": 1,
      "brightness": {
       "Points": [
        {
         "co": {
          "X": 1.0,
          "Y": -1.0
         },
         "handle_left": {
          "X": 0.5,
          "Y": 1.0
         },
         "handle_right": {
          "X": 0.5,
          "Y": 0.0
         },
         "handle_type": 0,
         "interpolation": 0
        },
        {
         "co": {
          "X": 30.0,
          "Y": 1.0
         },
         "handle_left": {
          "X": 0.5,
          "Y": 1.0
         },
         "handle_right": {
          "X": 0.5,
          "Y": 0.0
         },
         "handle_type": 0,
         "interpolation": 0
        }
       ]
      },
      "contrast": {
       "Points": [
        {
         "co": {
          "X": 1.0,
          "Y": 3.0
         },
         "handle_left": {
          "X": 0.5,
          "Y": 1.0
         },
         "handle_right": {
          "X": 0.5,
          "Y": 0.0
         },
         "handle_type": 0,
         "interpolation": 0
        },
        {
         "co": {
          "X": 30.0,
          "Y": 3.0
         },
         "handle_left": {
          "X": 0.5,
          "Y": 1.0
         },
         "handle_right": {
          "X": 0.5,
          "Y": 0.0
         },
         "handle_type": 0,
         "interpolation": 0
        }
       ]
      },
      "reader": {
       "acodec": "",
       "audio_bit_rate": 0,
       "audio_stream_index": -1,
       "audio_timebase": {
        "den": 1,
        "num": 1
       },
       "channel_layout": 4,
       "channels": 0,
       "display_ratio": {
        "den": 4,
        "num": 5
       },
       "duration": 3600.0,
       "file_size": "5832000",
       "fps": {
        "den": 1,
        "num": 30
       },
       "has_audio": false,
       "has_single_image": true,
       "has_video": true,
       "height": 576,
       "interlaced_frame": false,
       "metadata": {},
       "path": "@transitions/common/fade.svg",
       "pixel_format": -1,
       "pixel_ratio": {
        "den": 1,
        "num": 1
       },
       "sample_rate": 0,
       "top_field_first": true,
       "type": "QtImageReader",
       "vcodec": "",
       "video_bit_rate": 0,
       "video_length": "108000",
       "video_stream_index": -1,
       "video_timebase": {
        "den": 30,
        "num": 1
       },
       "width": 720
      },
      "replace_image": false,
      "id": "0V0YZT4K2H"
     },
     {
      "layer": 4000000,
      "title": "Transition",
      "type": "Mask",
      "position": 47.2,
      "start": 0,
      "end": 1,
      "brightness": {
       "Points": [
        {
         "co": {
          "X": 1.0,
          "Y": -1.0
         },
         "handle_left": {
          "X": 0.5,
          "Y": 1.0
         },
         "handle_right": {
          "X": 0.5,
          "Y": 0.0
         },
         "handle_type": 0,
         "interpolation": 0
        },
        {
         "co": {
          "X": 30.0,
          "Y": 1.0
         },
         "handle_left": {
          "X": 0.5,
          "Y": 1.0
         },
         "handle_right": {
          "X": 0.5,
          "Y": 0.0
         },
         "handle_type": 0,
         "interpolation": 0
        }
       ]
      },
      "contrast": {
       "Points": [
        {
         "co": {
          "X": 1.0,
          "Y": 3.0
         },
         "handle_left": {
          "X": 0.5,
          "Y": 1.0
         },
         "handle_right": {
          "X": 0.5,
          "Y": 0.0
         },
         "handle_type": 0,
         "interpolation": 0
        },
        {
         "co": {
          "X": 30.0,
          "Y": 3.0
         },
         "handle_left": {
          "X": 0.5,
          "Y": 1.0
         },
         "handle_right": {
          "X": 0.5,
          "Y": 0.0
         },
         "handle_type": 0,
         "interpolation": 0
        }
       ]
      },
      "reader": {
       "acodec": "",
       "audio_bit_rate": 0,
       "audio_stream_index": -1,
       "audio_timebase": {
        "den": 1,
        "num": 1
       },
       "channel_layout": 4,
       "channels": 0,
       "display_ratio": {
        "den": 4,
        "num": 5
       },
       "duration": 3600.0,
       "file_size": "5832000",
       "fps": {
        "den": 1,
        "num": 30
       },
       "has_audio": false,
       "has_single_image": true,
       "has_video": true,
       "height": 576,
       "interlaced_frame": false,
       "metadata": {},
       "path": "@transitions/common/fade.svg",
       "pixel_format": -1,
       "pixel_ratio": {
        "den": 1,
        "num": 1
       },
       "sample_rate": 0,
       "top_field_first": true,
       "type": "QtImageReader",
       "vcodec": "",
       "video_bit_rate": 0,
       "video_length": "108000",
       "video_stream_index": -1,
       "video_timebase": {
        "den": 30,
        "num": 1
       },
       "width": 720
      },
      "replace_image": false,
      "id": "4CLZWS3I80"
     },
     {
      "layer": 3000000,
      "title": "Transition",
      "type": "Mask",
      "position": 47.2,
      "start": 0,
      "end": 1,
      "brightness": {
       "Points": [
        {
         "co": {
          "X": 1.0,
          "Y": -1.0
         },
         "handle_left": {
          "X": 0.5,
          "Y": 1.0
         },
         "handle_right": {
          "X": 0.5,
          "Y": 0.0
         },
         "handle_type": 0,
         "interpolation": 0
        },
        {
         "co": {
          "X": 30.0,
          "Y": 1.0
         },
         "handle_left": {
          "X": 0.5,
          "Y": 1.0
         },
         "handle_right": {
          "X": 0.5,
          "Y": 0.0
         },
         "handle_type": 0,
         "interpolation": 0
        }
       ]
      },
      "contrast": {
       "Points": [
        {
         "co": {
          "X": 1.0,
          "Y": 3.0
         },
         "handle_left": {
          "X": 0.5,
          "Y": 1.0
         },
         "handle_right": {
          "X": 0.5,
          "Y": 0.0
         },
         "handle_type": 0,
         "interpolation": 0
        },
        {
         "co": {
          "X": 30.0,
          "Y": 3.0
         },
         "handle_left": {
          "X": 0.5,
          "Y": 1.0
         },
         "handle_right": {
          "X": 0.5,
          "Y": 0.0
         },
         "handle_type": 0,
         "interpolation": 0
        }
       ]
      },
      "reader": {
       "acodec": "",
       "audio_bit_rate": 0,
       "audio_stream_index": -1,
       "audio_timebase": {
        "den": 1,
        "num": 1
       },
       "channel_layout": 4,
       "channels": 0,
       "display_ratio": {
        "den": 4,
        "num": 5
       },
       "duration": 3600.0,
       "file_size": "5832000",
       "fps": {
        "den": 1,
        "num": 30
       },
       "has_audio": false,
       "has_single_image": true,
       "has_video": true,
       "height": 576,
       "interlaced_frame": false,
       "metadata": {},
       "path": "@transitions/common/fade.svg",
       "pixel_format": -1,
       "pixel_ratio": {
        "den": 1,
        "num": 1
       },
       "sample_rate": 0,
       "top_field_first": true,
       "type": "QtImageReader",
       "vcodec": "",
       "video_bit_rate": 0,
       "video_length": "108000",
       "video_stream_index": -1,
       "video_timebase": {
        "den": 30,
        "num": 1
       },
       "width": 720
      },
      "replace_image": false,
      "id": "J7NMJ0MM60"
     },
     {
      "layer": 2000000,
      "title": "Transition",
      "type": "Mask",
      "position": 47.2,
      "start": 0,
      "end": 1,
      "brightness": {
       "Points": [
        {
         "co": {
          "X": 1.0,
          "Y": -1.0
         },
         "handle_left": {
          "X": 0.5,
          "Y": 1.0
         },
         "handle_right": {
          "X": 0.5,
          "Y": 0.0
         },
         "handle_type": 0,
         "interpolation": 0
        },
        {
         "co": {
          "X": 30.0,
          "Y": 1.0
         },
         "handle_left": {
          "X": 0.5,
          "Y": 1.0
         },
         "handle_right": {
          "X": 0.5,
          "Y": 0.0
         },
         "handle_type": 0,
         "interpolation": 0
        }
       ]
      },
      "contrast": {
       "Points": [
        {
         "co": {
          "X": 1.0,
          "Y": 3.0
         },
         "handle_left": {
          "X": 0.5,
          "Y": 1.0
         },
         "handle_right": {
          "X": 0.5,
          "Y": 0.0
         },
         "handle_type": 0,
         "interpolation": 0
        },
        {
         "co": {
          "X": 30.0,
          "Y": 3.0
         },
         "handle_left": {
          "X": 0.5,
          "Y": 1.0
         },
         "handle_right": {
          "X": 0.5,
          "Y": 0.0
         },
         "handle_type": 0,
         "interpolation": 0
        }
       ]
      },
      "reader": {
       "acodec": "",
       "audio_bit_rate": 0,
       "audio_stream_index": -1,
       "audio_timebase": {
        "den": 1,
        "num": 1
       },
       "channel_layout": 4,
       "channels": 0,
       "display_ratio": {
        "den": 4,
        "num": 5
       },
       "duration": 3600.0,
       "file_size": "5832000",
       "fps": {
        "den": 1,
        "num": 30
       },
       "has_audio": false,
       "has_single_image": true,
       "has_video": true,
       "height": 576,
       "interlaced_frame": false,
       "metadata": {},
       "path": "@transitions/common/fade.svg",
       "pixel_format": -1,
       "pixel_ratio": {
        "den": 1,
        "num": 1
       },
       "sample_rate": 0,
       "top_field_first": true,
       "type": "QtImageReader",
       "vcodec": "",
       "video_bit_rate": 0,
       "video_length": "108000",
       "video_stream_index": -1,
       "video_timebase": {
        "den": 30,
        "num": 1
       },
       "width": 720
      },
      "replace_image": false,
      "id": "JE02QMYFT4"
     },
     {
      "layer": 2000000,
      "title": "Transition",
      "type": "Mask",
      "position": 49.63333333333333,
      "start": 0,
      "end": 1.5226666666666642,
      "brightness": {
       "Points": [
        {
         "co": {
          "X": 1.0,
          "Y": 1.0
         },
         "handle_left": {
          "X": 0.5,
          "Y": 1.0
         },
         "handle_right": {
          "X": 0.5,
          "Y": 0.0
         },
         "handle_type": 0,
         "interpolation": 0
        },
        {
         "co": {
          "X": 46.0,
          "Y": -1.0
         },
         "handle_left": {
          "X": 0.5,
          "Y": 1.0
         },
         "handle_right": {
          "X": 0.5,
          "Y": 0.0
         },
         "handle_type": 0,
         "interpolation": 0
        }
       ]
      },
      "contrast": {
       "Points": [
        {
         "co": {
          "X": 1.0,
          "Y": 3.0
         },
         "handle_left": {
          "X": 0.5,
          "Y": 1.0
         },
         "handle_right": {
          "X": 0.5,
          "Y": 0.0
         },
         "handle_type": 0,
         "interpolation": 0
        },
        {
         "co": {
          "X": 46.0,
          "Y": 3.0
         },
         "handle_left": {
          "X": 0.5,
          "Y": 1.0
         },
         "handle_right": {
          "X": 0.5,
          "Y": 0.0
         },
         "handle_type": 0,
         "interpolation": 0
        }
       ]
      },
      "reader": {
       "acodec": "",
       "audio_bit_rate": 0,
       "audio_stream_index": -1,
       "audio_timebase": {
        "den": 1,
        "num": 1
       },
       "channel_layout": 4,
       "channels": 0,
       "display_ratio": {
        "den": 4,
        "num": 5
       },
       "duration": 3600.0,
       "file_size": "5832000",
       "fps": {
        "den": 1,
        "num": 30
       },
       "has_audio": false,
       "has_single_image": true,
       "has_video": true,
       "height": 576,
       "interlaced_frame": false,
       "metadata": {},
       "path": "@transitions/common/fade.svg",
       "pixel_format": -1,
       "pixel_ratio": {
        "den": 1,
        "num": 1
       },
       "sample_rate": 0,
       "top_field_first": true,
       "type": "QtImageReader",
       "vcodec": "",
       "video_bit_rate": 0,
       "video_length": "108000",
       "video_stream_index": -1,
       "video_timebase": {
        "den": 30,
        "num": 1
       },
       "width": 720
      },
      "replace_image": false,
      "id": "NMY4YXNU1E"
     },
     {
      "id": "JVDJ759VY9",
      "layer": 1000000,
      "title": "Transition",
      "type": "Mask",
      "position": 48.53333333333333,
      "start": 0,
      "end": 1.6234375000000298,
      "brightness": {
       "Points": [
        {
         "co": {
          "X": 1.0,
          "Y": -1.0
         },
         "handle_left": {
          "X": 0.5,
          "Y": 1.0
         },
         "handle_right": {
          "X": 0.5,
          "Y": 0.0
         },
         "handle_type": 0,
         "interpolation": 0
        },
        {
         "co": {
          "X": 49.0,
          "Y": 1.0
         },
         "handle_left": {
          "X": 0.5,
          "Y": 1.0
         },
         "handle_right": {
          "X": 0.5,
          "Y": 0.0
         },
         "handle_type": 0,
         "interpolation": 0
        }
       ]
      },
      "contrast": {
       "Points": [
        {
         "co": {
          "X": 1.0,
          "Y": 3.0
         },
         "handle_left": {
          "X": 0.5,
          "Y": 1.0
         },
         "handle_right": {
          "X": 0.5,
          "Y": 0.0
         },
         "handle_type": 0,
         "interpolation": 0
        },
        {
         "co": {
          "X": 49.0,
          "Y": 3.0
         },
         "handle_left": {
          "X": 0.5,
          "Y": 1.0
         },
         "handle_right": {
          "X": 0.5,
          "Y": 0.0
         },
         "handle_type": 0,
         "interpolation": 0
        }
       ]
      },
      "reader": {
       "acodec": "",
       "audio_bit_rate": 0,
       "audio_stream_index": -1,
       "audio_timebase": {
        "den": 1,
        "num": 1
       },
       "channel_layout": 4,
       "channels": 0,
       "display_ratio": {
        "den": 4,
        "num": 5
       },
       "duration": 3600.0,
       "file_size": "5832000",
       "fps": {
        "den": 1,
        "num": 30
       },
       "has_audio": false,
       "has_single_image": true,
       "has_video": true,
       "height": 576,
       "interlaced_frame": false,
       "metadata": {},
       "path": "@transitions/common/fade.svg",
       "pixel_format": -1,
       "pixel_ratio": {
        "den": 1,
        "num": 1
       },
       "sample_rate": 0,
       "top_field_first": true,
       "type": "QtImageReader",
       "vcodec": "",
       "video_bit_rate": 0,
       "video_length": "108000",
       "video_stream_index": -1,
       "video_timebase": {
        "den": 30,
        "num": 1
       },
       "width": 720
      },
      "replace_image": false
     },
     {
      "layer": 1000000,
      "title": "Transition",
      "type": "Mask",
      "position": 52.13333333333333,
      "start": 0,
      "end": 1.6234375000000298,
      "brightness": {
       "Points": [
        {
         "co": {
          "X": 1.0,
          "Y": 1.0
         },
         "handle_left": {
          "X": 0.5,
          "Y": 1.0
         },
         "handle_right": {
          "X": 0.5,
          "Y": 0.0
         },
         "handle_type": 0,
         "interpolation": 0
        },
        {
         "co": {
          "X": 49.0,
          "Y": -1.0
         },
         "handle_left": {
          "X": 0.5,
          "Y": 1.0
         },
         "handle_right": {
          "X": 0.5,
          "Y": 0.0
         },
         "handle_type": 0,
         "interpolation": 0
        }
       ]
      },
      "contrast": {
       "Points": [
        {
         "co": {
          "X": 1.0,
          "Y": 3.0
         },
         "handle_left": {
          "X": 0.5,
          "Y": 1.0
         },
         "handle_right": {
          "X": 0.5,
          "Y": 0.0
         },
         "handle_type": 0,
         "interpolation": 0
        },
        {
         "co": {
          "X": 49.0,
          "Y": 3.0
         },
         "handle_left": {
          "X": 0.5,
          "Y": 1.0
         },
         "handle_right": {
          "X": 0.5,
          "Y": 0.0
         },
         "handle_type": 0,
         "interpolation": 0
        }
       ]
      },
      "reader": {
       "acodec": "",
       "audio_bit_rate": 0,
       "audio_stream_index": -1,
       "audio_timebase": {
        "den": 1,
        "num": 1
       },
       "channel_layout": 4,
       "channels": 0,
       "display_ratio": {
        "den": 4,
        "num": 5
       },
       "duration": 3600.0,
       "file_size": "5832000",
       "fps": {
        "den": 1,
        "num": 30
       },
       "has_audio": false,
       "has_single_image": true,
       "has_video": true,
       "height": 576,
       "interlaced_frame": false,
       "metadata": {},
       "path": "@transitions/common/fade.svg",
       "pixel_format": -1,
       "pixel_ratio": {
        "den": 1,
        "num": 1
       },
       "sample_rate": 0,
       "top_field_first": true,
       "type": "QtImageReader",
       "vcodec": "",
       "video_bit_rate": 0,
       "video_length": "108000",
       "video_stream_index": -1,
       "video_timebase": {
        "den": 30,
        "num": 1
       },
       "width": 720
      },
      "replace_image": false,
      "id": "ILTGUG6BXY"
     },
     {
      "layer": 2000000,
      "title": "Transition",
      "type": "Mask",
      "position": 51.166666666666664,
      "start": 0,
      "end": 1.5226666666666642,
      "brightness": {
       "Points": [
        {
         "co": {
          "X": 1.0,
          "Y": -1.0
         },
         "handle_left": {
          "X": 0.5,
          "Y": 1.0
         },
         "handle_right": {
          "X": 0.5,
          "Y": 0.0
         },
         "handle_type": 0,
         "interpolation": 0
        },
        {
         "co": {
          "X": 46.0,
          "Y": 1.0
         },
         "handle_left": {
          "X": 0.5,
          "Y": 1.0
         },
         "handle_right": {
          "X": 0.5,
          "Y": 0.0
         },
         "handle_type": 0,
         "interpolation": 0
        }
       ]
      },
      "contrast": {
       "Points": [
        {
         "co": {
          "X": 1.0,
          "Y": 3.0
         },
         "handle_left": {
          "X": 0.5,
          "Y": 1.0
         },
         "handle_right": {
          "X": 0.5,
          "Y": 0.0
         },
         "handle_type": 0,
         "interpolation": 0
        },
        {
         "co": {
          "X": 46.0,
          "Y": 3.0
         },
         "handle_left": {
          "X": 0.5,
          "Y": 1.0
         },
         "handle_right": {
          "X": 0.5,
          "Y": 0.0
         },
         "handle_type": 0,
         "interpolation": 0
        }
       ]
      },
      "reader": {
       "acodec": "",
       "audio_bit_rate": 0,
       "audio_stream_index": -1,
       "audio_timebase": {
        "den": 1,
        "num": 1
       },
       "channel_layout": 4,
       "channels": 0,
       "display_ratio": {
        "den": 4,
        "num": 5
       },
       "duration": 3600.0,
       "file_size": "5832000",
       "fps": {
        "den": 1,
        "num": 30
       },
       "has_audio": false,
       "has_single_image": true,
       "has_video": true,
       "height": 576,
       "interlaced_frame": false,
       "metadata": {},
       "path": "@transitions/common/fade.svg",
       "pixel_format": -1,
       "pixel_ratio": {
        "den": 1,
        "num": 1
       },
       "sample_rate": 0,
       "top_field_first": true,
       "type": "QtImageReader",
       "vcodec": "",
       "video_bit_rate": 0,
       "video_length": "108000",
       "video_stream_index": -1,
       "video_timebase": {
        "den": 30,
        "num": 1
       },
       "width": 720
      },
      "replace_image": false,
      "id": "KK7AG74HMV"
     },
     {
      "layer": 2000000,
      "title": "Transition",
      "type": "Mask",
      "position": 52.7,
      "start": 0,
      "end": 1.0567708333333552,
      "brightness": {
       "Points": [
        {
         "co": {
          "X": 1.0,
          "Y": 1.0
         },
         "handle_left": {
          "X": 0.5,
          "Y": 1.0
         },
         "handle_right": {
          "X": 0.5,
          "Y": 0.0
         },
         "handle_type": 0,
         "interpolation": 0
        },
        {
         "co": {
          "X": 32.0,
          "Y": -1.0
         },
         "handle_left": {
          "X": 0.5,
          "Y": 1.0
         },
         "handle_right": {
          "X": 0.5,
          "Y": 0.0
         },
         "handle_type": 0,
         "interpolation": 0
        }
       ]
      },
      "contrast": {
       "Points": [
        {
         "co": {
          "X": 1.0,
          "Y": 3.0
         },
         "handle_left": {
          "X": 0.5,
          "Y": 1.0
         },
         "handle_right": {
          "X": 0.5,
          "Y": 0.0
         },
         "handle_type": 0,
         "interpolation": 0
        },
        {
         "co": {
          "X": 32.0,
          "Y": 3.0
         },
         "handle_left": {
          "X": 0.5,
          "Y": 1.0
         },
         "handle_right": {
          "X": 0.5,
          "Y": 0.0
         },
         "handle_type": 0,
         "interpolation": 0
        }
       ]
      },
      "reader": {
       "acodec": "",
       "audio_bit_rate": 0,
       "audio_stream_index": -1,
       "audio_timebase": {
        "den": 1,
        "num": 1
       },
       "channel_layout": 4,
       "channels": 0,
       "display_ratio": {
        "den": 4,
        "num": 5
       },
       "duration": 3600.0,
       "file_size": "5832000",
       "fps": {
        "den": 1,
        "num": 30
       },
       "has_audio": false,
       "has_single_image": true,
       "has_video": true,
       "height": 576,
       "interlaced_frame": false,
       "metadata": {},
       "path": "@transitions/common/fade.svg",
       "pixel_format": -1,
       "pixel_ratio": {
        "den": 1,
        "num": 1
       },
       "sample_rate": 0,
       "top_field_first": true,
       "type": "QtImageReader",
       "vcodec": "",
       "video_bit_rate": 0,
       "video_length": "108000",
       "video_stream_index": -1,
       "video_timebase": {
        "den": 30,
        "num": 1
       },
       "width": 720
      },
      "replace_image": false,
      "id": "U5TVH4SEI2"
     },
     {
      "layer": 2000000,
      "title": "Transition",
      "type": "Mask",
      "position": 61.166666666666664,
      "start": 0,
      "end": 1.0916666666666583,
      "brightness": {
       "Points": [
        {
         "co": {
          "X": 1.0,
          "Y": -1.0
         },
         "handle_left": {
          "X": 0.5,
          "Y": 1.0
         },
         "handle_right": {
          "X": 0.5,
          "Y": 0.0
         },
         "handle_type": 0,
         "interpolation": 0
        },
        {
         "co": {
          "X": 33.0,
          "Y": 1.0
         },
         "handle_left": {
          "X": 0.5,
          "Y": 1.0
         },
         "handle_right": {
          "X": 0.5,
          "Y": 0.0
         },
         "handle_type": 0,
         "interpolation": 0
        }
       ]
      },
      "contrast": {
       "Points": [
        {
         "co": {
          "X": 1.0,
          "Y": 3.0
         },
         "handle_left": {
          "X": 0.5,
          "Y": 1.0
         },
         "handle_right": {
          "X": 0.5,
          "Y": 0.0
         },
         "handle_type": 0,
         "interpolation": 0
        },
        {
         "co": {
          "X": 33.0,
          "Y": 3.0
         },
         "handle_left": {
          "X": 0.5,
          "Y": 1.0
         },
         "handle_right": {
          "X": 0.5,
          "Y": 0.0
         },
         "handle_type": 0,
         "interpolation": 0
        }
       ]
      },
      "reader": {
       "acodec": "",
       "audio_bit_rate": 0,
       "audio_stream_index": -1,
       "audio_timebase": {
        "den": 1,
        "num": 1
       },
       "channel_layout": 4,
       "channels": 0,
       "display_ratio": {
        "den": 4,
        "num": 5
       },
       "duration": 3600.0,
       "file_size": "5832000",
       "fps": {
        "den": 1,
        "num": 30
       },
       "has_audio": false,
       "has_single_image": true,
       "has_video": true,
       "height": 576,
       "interlaced_frame": false,
       "metadata": {},
       "path": "@transitions/common/fade.svg",
       "pixel_format": -1,
       "pixel_ratio": {
        "den": 1,
        "num": 1
       },
       "sample_rate": 0,
       "top_field_first": true,
       "type": "QtImageReader",
       "vcodec": "",
       "video_bit_rate": 0,
       "video_length": "108000",
       "video_stream_index": -1,
       "video_timebase": {
        "den": 30,
        "num": 1
       },
       "width": 720
      },
      "replace_image": false,
      "id": "FOE18GBI58"
     },
     {
      "layer": 3000000,
      "title": "Transition",
      "type": "Mask",
      "position": 69.1,
      "start": 0,
      "end": 0.8666666666666696,
      "brightness": {
       "Points": [
        {
         "co": {
          "X": 1.0,
          "Y": 1.0
         },
         "handle_left": {
          "X": 0.5,
          "Y": 1.0
         },
         "handle_right": {
          "X": 0.5,
          "Y": 0.0
         },
         "handle_type": 0,
         "interpolation": 0
        },
        {
         "co": {
          "X": 26.0,
          "Y": -1.0
         },
         "handle_left": {
          "X": 0.5,
          "Y": 1.0
         },
         "handle_right": {
          "X": 0.5,
          "Y": 0.0
         },
         "handle_type": 0,
         "interpolation": 0
        }
       ]
      },
      "contrast": {
       "Points": [
        {
         "co": {
          "X": 1.0,
          "Y": 3.0
         },
         "handle_left": {
          "X": 0.5,
          "Y": 1.0
         },
         "handle_right": {
          "X": 0.5,
          "Y": 0.0
         },
         "handle_type": 0,
         "interpolation": 0
        },
        {
         "co": {
          "X": 26.0,
          "Y": 3.0
         },
         "handle_left": {
          "X": 0.5,
          "Y": 1.0
         },
         "handle_right": {
          "X": 0.5,
          "Y": 0.0
         },
         "handle_type": 0,
         "interpolation": 0
        }
       ]
      },
      "reader": {
       "acodec": "",
       "audio_bit_rate": 0,
       "audio_stream_index": -1,
       "audio_timebase": {
        "den": 1,
        "num": 1
       },
       "channel_layout": 4,
       "channels": 0,
       "display_ratio": {
        "den": 4,
        "num": 5
       },
       "duration": 3600.0,
       "file_size": "5832000",
       "fps": {
        "den": 1,
        "num": 30
       },
       "has_audio": false,
       "has_single_image": true,
       "has_video": true,
       "height": 576,
       "interlaced_frame": false,
       "metadata": {},
       "path": "@transitions/common/fade.svg",
       "pixel_format": -1,
       "pixel_ratio": {
        "den": 1,
        "num": 1
       },
       "sample_rate": 0,
       "top_field_first": true,
       "type": "QtImageReader",
       "vcodec": "",
       "video_bit_rate": 0,
       "video_length": "108000",
       "video_stream_index": -1,
       "video_timebase": {
        "den": 30,
        "num": 1
       },
       "width": 720
      },
      "replace_image": false,
      "id": "IWR2HQJ3Y9"
     },
     {
      "layer": 4000000,
      "title": "Transition",
      "type": "Mask",
      "position": 70.4,
      "start": 0,
      "end": 0.9583333333333212,
      "brightness": {
       "Points": [
        {
         "co": {
          "X": 1.0,
          "Y": 1.0
         },
         "handle_left": {
          "X": 0.5,
          "Y": 1.0
         },
         "handle_right": {
          "X": 0.5,
          "Y": 0.0
         },
         "handle_type": 0,
         "interpolation": 0
        },
        {
         "co": {
          "X": 29.0,
          "Y": -1.0
         },
         "handle_left": {
          "X": 0.5,
          "Y": 1.0
         },
         "handle_right": {
          "X": 0.5,
          "Y": 0.0
         },
         "handle_type": 0,
         "interpolation": 0
        }
       ]
      },
      "contrast": {
       "Points": [
        {
         "co": {
          "X": 1.0,
          "Y": 3.0
         },
         "handle_left": {
          "X": 0.5,
          "Y": 1.0
         },
         "handle_right": {
          "X": 0.5,
          "Y": 0.0
         },
         "handle_type": 0,
         "interpolation": 0
        },
        {
         "co": {
          "X": 29.0,
          "Y": 3.0
         },
         "handle_left": {
          "X": 0.5,
          "Y": 1.0
         },
         "handle_right": {
          "X": 0.5,
          "Y": 0.0
         },
         "handle_type": 0,
         "interpolation": 0
        }
       ]
      },
      "reader": {
       "acodec": "",
       "audio_bit_rate": 0,
       "audio_stream_index": -1,
       "audio_timebase": {
        "den": 1,
        "num": 1
       },
       "channel_layout": 4,
       "channels": 0,
       "display_ratio": {
        "den": 4,
        "num": 5
       },
       "duration": 3600.0,
       "file_size": "5832000",
       "fps": {
        "den": 1,
        "num": 30
       },
       "has_audio": false,
       "has_single_image": true,
       "has_video": true,
       "height": 576,
       "interlaced_frame": false,
       "metadata": {},
       "path": "@transitions/common/fade.svg",
       "pixel_format": -1,
       "pixel_ratio": {
        "den": 1,
        "num": 1
       },
       "sample_rate": 0,
       "top_field_first": true,
       "type": "QtImageReader",
       "vcodec": "",
       "video_bit_rate": 0,
       "video_length": "108000",
       "video_stream_index": -1,
       "video_timebase": {
        "den": 30,
        "num": 1
       },
       "width": 720
      },
      "replace_image": false,
      "id": "K0VNL052DB"
     },
     {
      "layer": 4000000,
      "title": "Transition",
      "type": "Mask",
      "position": 72.63333333333334,
      "start": 0,
      "end": 0.9583333333333212,
      "brightness": {
       "Points": [
        {
         "co": {
          "X": 1.0,
          "Y": -1.0
         },
         "handle_left": {
          "X": 0.5,
          "Y": 1.0
         },
         "handle_right": {
          "X": 0.5,
          "Y": 0.0
         },
         "handle_type": 0,
         "interpolation": 0
        },
        {
         "co": {
          "X": 29.0,
          "Y": 1.0
         },
         "handle_left": {
          "X": 0.5,
          "Y": 1.0
         },
         "handle_right": {
          "X": 0.5,
          "Y": 0.0
         },
         "handle_type": 0,
         "interpolation": 0
        }
       ]
      },
      "contrast": {
       "Points": [
        {
         "co": {
          "X": 1.0,
          "Y": 3.0
         },
         "handle_left": {
          "X": 0.5,
          "Y": 1.0
         },
         "handle_right": {
          "X": 0.5,
          "Y": 0.0
         },
         "handle_type": 0,
         "interpolation": 0
        },
        {
         "co": {
          "X": 29.0,
          "Y": 3.0
         },
         "handle_left": {
          "X": 0.5,
          "Y": 1.0
         },
         "handle_right": {
          "X": 0.5,
          "Y": 0.0
         },
         "handle_type": 0,
         "interpolation": 0
        }
       ]
      },
      "reader": {
       "acodec": "",
       "audio_bit_rate": 0,
       "audio_stream_index": -1,
       "audio_timebase": {
        "den": 1,
        "num": 1
       },
       "channel_layout": 4,
       "channels": 0,
       "display_ratio": {
        "den": 4,
        "num": 5
       },
       "duration": 3600.0,
       "file_size": "5832000",
       "fps": {
        "den": 1,
        "num": 30
       },
       "has_audio": false,
       "has_single_image": true,
       "has_video": true,
       "height": 576,
       "interlaced_frame": false,
       "metadata": {},
       "path": "@transitions/common/fade.svg",
       "pixel_format": -1,
       "pixel_ratio": {
        "den": 1,
        "num": 1
       },
       "sample_rate": 0,
       "top_field_first": true,
       "type": "QtImageReader",
       "vcodec": "",
       "video_bit_rate": 0,
       "video_length": "108000",
       "video_stream_index": -1,
       "video_timebase": {
        "den": 30,
        "num": 1
       },
       "width": 720
      },
      "replace_image": false,
      "id": "BC8CI4IOC9"
     },
     {
      "layer": 4000000,
      "title": "Transition",
      "type": "Mask",
      "position": 73.9,
      "start": 0,
      "end": 0.9583333333333212,
      "brightness": {
       "Points": [
        {
         "co": {
          "X": 1.0,
          "Y": 1.0
         },
         "handle_left": {
          "X": 0.5,
          "Y": 1.0
         },
         "handle_right": {
          "X": 0.5,
          "Y": 0.0
         },
         "handle_type": 0,
         "interpolation": 0
        },
        {
         "co": {
          "X": 29.0,
          "Y": -1.0
         },
         "handle_left": {
          "X": 0.5,
          "Y": 1.0
         },
         "handle_right": {
          "X": 0.5,
          "Y": 0.0
         },
         "handle_type": 0,
         "interpolation": 0
        }
       ]
      },
      "contrast": {
       "Points": [
        {
         "co": {
          "X": 1.0,
          "Y": 3.0
         },
         "handle_left": {
          "X": 0.5,
          "Y": 1.0
         },
         "handle_right": {
          "X": 0.5,
          "Y": 0.0
         },
         "handle_type": 0,
         "interpolation": 0
        },
        {
         "co": {
          "X": 29.0,
          "Y": 3.0
         },
         "handle_left": {
          "X": 0.5,
          "Y": 1.0
         },
         "handle_right": {
          "X": 0.5,
          "Y": 0.0
         },
         "handle_type": 0,
         "interpolation": 0
        }
       ]
      },
      "reader": {
       "acodec": "",
       "audio_bit_rate": 0,
       "audio_stream_index": -1,
       "audio_timebase": {
        "den": 1,
        "num": 1
       },
       "channel_layout": 4,
       "channels": 0,
       "display_ratio": {
        "den": 4,
        "num": 5
       },
       "duration": 3600.0,
       "file_size": "5832000",
       "fps": {
        "den": 1,
        "num": 30
       },
       "has_audio": false,
       "has_single_image": true,
       "has_video": true,
       "height": 576,
       "interlaced_frame": false,
       "metadata": {},
       "path": "@transitions/common/fade.svg",
       "pixel_format": -1,
       "pixel_ratio": {
        "den": 1,
        "num": 1
       },
       "sample_rate": 0,
       "top_field_first": true,
       "type": "QtImageReader",
       "vcodec": "",
       "video_bit_rate": 0,
       "video_length": "108000",
       "video_stream_index": -1,
       "video_timebase": {
        "den": 30,
        "num": 1
       },
       "width": 720
      },
      "replace_image": false,
      "id": "KPBY75IWTS"
     },
     {
      "layer": 4000000,
      "title": "Transition",
      "type": "Mask",
      "position": 79.56666666666666,
      "start": 0,
      "end": 0.9583333333333212,
      "brightness": {
       "Points": [
        {
         "co": {
          "X": 1.0,
          "Y": -1.0
         },
         "handle_left": {
          "X": 0.5,
          "Y": 1.0
         },
         "handle_right": {
          "X": 0.5,
          "Y": 0.0
         },
         "handle_type": 0,
         "interpolation": 0
        },
        {
         "co": {
          "X": 29.0,
          "Y": 1.0
         },
         "handle_left": {
          "X": 0.5,
          "Y": 1.0
         },
         "handle_right": {
          "X": 0.5,
          "Y": 0.0
         },
         "handle_type": 0,
         "interpolation": 0
        }
       ]
      },
      "contrast": {
       "Points": [
        {
         "co": {
          "X": 1.0,
          "Y": 3.0
         },
         "handle_left": {
          "X": 0.5,
          "Y": 1.0
         },
         "handle_right": {
          "X": 0.5,
          "Y": 0.0
         },
         "handle_type": 0,
         "interpolation": 0
        },
        {
         "co": {
          "X": 29.0,
          "Y": 3.0
         },
         "handle_left": {
          "X": 0.5,
          "Y": 1.0
         },
         "handle_right": {
          "X": 0.5,
          "Y": 0.0
         },
         "handle_type": 0,
         "interpolation": 0
        }
       ]
      },
      "reader": {
       "acodec": "",
       "audio_bit_rate": 0,
       "audio_stream_index": -1,
       "audio_timebase": {
        "den": 1,
        "num": 1
       },
       "channel_layout": 4,
       "channels": 0,
       "display_ratio": {
        "den": 4,
        "num": 5
       },
       "duration": 3600.0,
       "file_size": "5832000",
       "fps": {
        "den": 1,
        "num": 30
       },
       "has_audio": false,
       "has_single_image": true,
       "has_video": true,
       "height": 576,
       "interlaced_frame": false,
       "metadata": {},
       "path": "@transitions/common/fade.svg",
       "pixel_format": -1,
       "pixel_ratio": {
        "den": 1,
        "num": 1
       },
       "sample_rate": 0,
       "top_field_first": true,
       "type": "QtImageReader",
       "vcodec": "",
       "video_bit_rate": 0,
       "video_length": "108000",
       "video_stream_index": -1,
       "video_timebase": {
        "den": 30,
        "num": 1
       },
       "width": 720
      },
      "replace_image": false,
      "id": "N48U05ILNC"
     },
     {
      "layer": 4000000,
      "title": "Transition",
      "type": "Mask",
      "position": 80.76666666666667,
      "start": 0,
      "end": 0.9583333333333212,
      "brightness": {
       "Points": [
        {
         "co": {
          "X": 1.0,
          "Y": 1.0
         },
         "handle_left": {
          "X": 0.5,
          "Y": 1.0
         },
         "handle_right": {
          "X": 0.5,
          "Y": 0.0
         },
         "handle_type": 0,
         "interpolation": 0
        },
        {
         "co": {
          "X": 29.0,
          "Y": -1.0
         },
         "handle_left": {
          "X": 0.5,
          "Y": 1.0
         },
         "handle_right": {
          "X": 0.5,
          "Y": 0.0
         },
         "handle_type": 0,
         "interpolation": 0
        }
       ]
      },
      "contrast": {
       "Points": [
        {
         "co": {
          "X": 1.0,
          "Y": 3.0
         },
         "handle_left": {
          "X": 0.5,
          "Y": 1.0
         },
         "handle_right": {
          "X": 0.5,
          "Y": 0.0
         },
         "handle_type": 0,
         "interpolation": 0
        },
        {
         "co": {
          "X": 29.0,
          "Y": 3.0
         },
         "handle_left": {
          "X": 0.5,
          "Y": 1.0
         },
         "handle_right": {
          "X": 0.5,
          "Y": 0.0
         },
         "handle_type": 0,
         "interpolation": 0
        }
       ]
      },
      "reader": {
       "acodec": "",
       "audio_bit_rate": 0,
       "audio_stream_index": -1,
       "audio_timebase": {
        "den": 1,
        "num": 1
       },
       "channel_layout": 4,
       "channels": 0,
       "display_ratio": {
        "den": 4,
        "num": 5
       },
       "duration": 3600.0,
       "file_size": "5832000",
       "fps": {
        "den": 1,
        "num": 30
       },
       "has_audio": false,
       "has_single_image": true,
       "has_video": true,
       "height": 576,
       "interlaced_frame": false,
       "metadata": {},
       "path": "@transitions/common/fade.svg",
       "pixel_format": -1,
       "pixel_ratio": {
        "den": 1,
        "num": 1
       },
       "sample_rate": 0,
       "top_field_first": true,
       "type": "QtImageReader",
       "vcodec": "",
       "video_bit_rate": 0,
       "video_length": "108000",
       "video_stream_index": -1,
       "video_timebase": {
        "den": 30,
        "num": 1
       },
       "width": 720
      },
      "replace_image": false,
      "id": "LWSD6DDV86"
     },
     {
      "layer": 4000000,
      "title": "Transition",
      "type": "Mask",
      "position": 85.03333333333333,
      "start": 0,
      "end": 0.9583333333333212,
      "brightness": {
       "Points": [
        {
         "co": {
          "X": 1.0,
          "Y": -1.0
         },
         "handle_left": {
          "X": 0.5,
          "Y": 1.0
         },
         "handle_right": {
          "X": 0.5,
          "Y": 0.0
         },
         "handle_type": 0,
         "interpolation": 0
        },
        {
         "co": {
          "X": 29.0,
          "Y": 1.0
         },
         "handle_left": {
          "X": 0.5,
          "Y": 1.0
         },
         "handle_right": {
          "X": 0.5,
          "Y": 0.0
         },
         "handle_type": 0,
         "interpolation": 0
        }
       ]
      },
      "contrast": {
       "Points": [
        {
         "co": {
          "X": 1.0,
          "Y": 3.0
         },
         "handle_left": {
          "X": 0.5,
          "Y": 1.0
         },
         "handle_right": {
          "X": 0.5,
          "Y": 0.0
         },
         "handle_type": 0,
         "interpolation": 0
        },
        {
         "co": {
          "X": 29.0,
          "Y": 3.0
         },
         "handle_left": {
          "X": 0.5,
          "Y": 1.0
         },
         "handle_right": {
          "X": 0.5,
          "Y": 0.0
         },
         "handle_type": 0,
         "interpolation": 0
        }
       ]
      },
      "reader": {
       "acodec": "",
       "audio_bit_rate": 0,
       "audio_stream_index": -1,
       "audio_timebase": {
        "den": 1,
        "num": 1
       },
       "channel_layout": 4,
       "channels": 0,
       "display_ratio": {
        "den": 4,
        "num": 5
       },
       "duration": 3600.0,
       "file_size": "5832000",
       "fps": {
        "den": 1,
        "num": 30
       },
       "has_audio": false,
       "has_single_image": true,
       "has_video": true,
       "height": 576,
       "interlaced_frame": false,
       "metadata": {},
       "path": "@transitions/common/fade.svg",
       "pixel_format": -1,
       "pixel_ratio": {
        "den": 1,
        "num": 1
       },
       "sample_rate": 0,
       "top_field_first": true,
       "type": "QtImageReader",
       "vcodec": "",
       "video_bit_rate": 0,
       "video_length": "108000",
       "video_stream_index": -1,
       "video_timebase": {
        "den": 30,
        "num": 1
       },
       "width": 720
      },
      "replace_image": false,
      "id": "8MLWPBO4EQ"
     },
     {
      "layer": 4000000,
      "title": "Transition",
      "type": "Mask",
      "position": 86.43333333333334,
      "start": 0,
      "end": 1.4666666666666641,
      "brightness": {
       "Points": [
        {
         "co": {
          "X": 1.0,
          "Y": 1.0
         },
         "handle_left": {
          "X": 0.5,
          "Y": 1.0
         },
         "handle_right": {
          "X": 0.5,
          "Y": 0.0
         },
         "handle_type": 0,
         "interpolation": 0
        },
        {
         "co": {
          "X": 44.0,
          "Y": -1.0
         },
         "handle_left": {
          "X": 0.5,
          "Y": 1.0
         },
         "handle_right": {
          "X": 0.5,
          "Y": 0.0
         },
         "handle_type": 0,
         "interpolation": 0
        }
       ]
      },
      "contrast": {
       "Points": [
        {
         "co": {
          "X": 1.0,
          "Y": 3.0
         },
         "handle_left": {
          "X": 0.5,
          "Y": 1.0
         },
         "handle_right": {
          "X": 0.5,
          "Y": 0.0
         },
         "handle_type": 0,
         "interpolation": 0
        },
        {
         "co": {
          "X": 44.0,
          "Y": 3.0
         },
         "handle_left": {
          "X": 0.5,
          "Y": 1.0
         },
         "handle_right": {
          "X": 0.5,
          "Y": 0.0
         },
         "handle_type": 0,
         "interpolation": 0
        }
       ]
      },
      "reader": {
       "acodec": "",
       "audio_bit_rate": 0,
       "audio_stream_index": -1,
       "audio_timebase": {
        "den": 1,
        "num": 1
       },
       "channel_layout": 4,
       "channels": 0,
       "display_ratio": {
        "den": 4,
        "num": 5
       },
       "duration": 3600.0,
       "file_size": "5832000",
       "fps": {
        "den": 1,
        "num": 30
       },
       "has_audio": false,
       "has_single_image": true,
       "has_video": true,
       "height": 576,
       "interlaced_frame": false,
       "metadata": {},
       "path": "@transitions/common/fade.svg",
       "pixel_format": -1,
       "pixel_ratio": {
        "den": 1,
        "num": 1
       },
       "sample_rate": 0,
       "top_field_first": true,
       "type": "QtImageReader",
       "vcodec": "",
       "video_bit_rate": 0,
       "video_length": "108000",
       "video_stream_index": -1,
       "video_timebase": {
        "den": 30,
        "num": 1
       },
       "width": 720
      },
      "replace_image": false,
      "id": "8KLCS4PPAB"
     },
     {
      "layer": 4000000,
      "title": "Transition",
      "type": "Mask",
      "position": 89.66666666666667,
      "start": 0,
      "end": 0.9583333333333212,
      "brightness": {
       "Points": [
        {
         "co": {
          "X": 1.0,
          "Y": -1.0
         },
         "handle_left": {
          "X": 0.5,
          "Y": 1.0
         },
         "handle_right": {
          "X": 0.5,
          "Y": 0.0
         },
         "handle_type": 0,
         "interpolation": 0
        },
        {
         "co": {
          "X": 29.0,
          "Y": 1.0
         },
         "handle_left": {
          "X": 0.5,
          "Y": 1.0
         },
         "handle_right": {
          "X": 0.5,
          "Y": 0.0
         },
         "handle_type": 0,
         "interpolation": 0
        }
       ]
      },
      "contrast": {
       "Points": [
        {
         "co": {
          "X": 1.0,
          "Y": 3.0
         },
         "handle_left": {
          "X": 0.5,
          "Y": 1.0
         },
         "handle_right": {
          "X": 0.5,
          "Y": 0.0
         },
         "handle_type": 0,
         "interpolation": 0
        },
        {
         "co": {
          "X": 29.0,
          "Y": 3.0
         },
         "handle_left": {
          "X": 0.5,
          "Y": 1.0
         },
         "handle_right": {
          "X": 0.5,
          "Y": 0.0
         },
         "handle_type": 0,
         "interpolation": 0
        }
       ]
      },
      "reader": {
       "acodec": "",
       "audio_bit_rate": 0,
       "audio_stream_index": -1,
       "audio_timebase": {
        "den": 1,
        "num": 1
       },
       "channel_layout": 4,
       "channels": 0,
       "display_ratio": {
        "den": 4,
        "num": 5
       },
       "duration": 3600.0,
       "file_size": "5832000",
       "fps": {
        "den": 1,
        "num": 30
       },
       "has_audio": false,
       "has_single_image": true,
       "has_video": true,
       "height": 576,
       "interlaced_frame": false,
       "metadata": {},
       "path": "@transitions/common/fade.svg",
       "pixel_format": -1,
       "pixel_ratio": {
        "den": 1,
        "num": 1
       },
       "sample_rate": 0,
       "top_field_first": true,
       "type": "QtImageReader",
       "vcodec": "",
       "video_bit_rate": 0,
       "video_length": "108000",
       "video_stream_index": -1,
       "video_timebase": {
        "den": 30,
        "num": 1
       },
       "width": 720
      },
      "replace_image": false,
      "id": "7AYTGRXH6E"
     },
     {
      "layer": 4000000,
      "title": "Transition",
      "type": "Mask",
      "position": 90.86666666666666,
      "start": 0,
      "end": 0.9583333333333212,
      "brightness": {
       "Points": [
        {
         "co": {
          "X": 1.0,
          "Y": 1.0
         },
         "handle_left": {
          "X": 0.5,
          "Y": 1.0
         },
         "handle_right": {
          "X": 0.5,
          "Y": 0.0
         },
         "handle_type": 0,
         "interpolation": 0
        },
        {
         "co": {
          "X": 29.0,
          "Y": -1.0
         },
         "handle_left": {
          "X": 0.5,
          "Y": 1.0
         },
         "handle_right": {
          "X": 0.5,
          "Y": 0.0
         },
         "handle_type": 0,
         "interpolation": 0
        }
       ]
      },
      "contrast": {
       "Points": [
        {
         "co": {
          "X": 1.0,
          "Y": 3.0
         },
         "handle_left": {
          "X": 0.5,
          "Y": 1.0
         },
         "handle_right": {
          "X": 0.5,
          "Y": 0.0
         },
         "handle_type": 0,
         "interpolation": 0
        },
        {
         "co": {
          "X": 29.0,
          "Y": 3.0
         },
         "handle_left": {
          "X": 0.5,
          "Y": 1.0
         },
         "handle_right": {
          "X": 0.5,
          "Y": 0.0
         },
         "handle_type": 0,
         "interpolation": 0
        }
       ]
      },
      "reader": {
       "acodec": "",
       "audio_bit_rate": 0,
       "audio_stream_index": -1,
       "audio_timebase": {
        "den": 1,
        "num": 1
       },
       "channel_layout": 4,
       "channels": 0,
       "display_ratio": {
        "den": 4,
        "num": 5
       },
       "duration": 3600.0,
       "file_size": "5832000",
       "fps": {
        "den": 1,
        "num": 30
       },
       "has_audio": false,
       "has_single_image": true,
       "has_video": true,
       "height": 576,
       "interlaced_frame": false,
       "metadata": {},
       "path": "@transitions/common/fade.svg",
       "pixel_format": -1,
       "pixel_ratio": {
        "den": 1,
        "num": 1
       },
       "sample_rate": 0,
       "top_field_first": true,
       "type": "QtImageReader",
       "vcodec": "",
       "video_bit_rate": 0,
       "video_length": "108000",
       "video_stream_index": -1,
       "video_timebase": {
        "den": 30,
        "num": 1
       },
       "width": 720
      },
      "replace_image": false,
      "id": "UA7LEKK6UL"
     },
     {
      "layer": 4000000,
      "title": "Transition",
      "type": "Mask",
      "position": 96.96666666666667,
      "start": 0,
      "end": 0.9583333333333212,
      "brightness": {
       "Points": [
        {
         "co": {
          "X": 1.0,
          "Y": -1.0
         },
         "handle_left": {
          "X": 0.5,
          "Y": 1.0
         },
         "handle_right": {
          "X": 0.5,
          "Y": 0.0
         },
         "handle_type": 0,
         "interpolation": 0
        },
        {
         "co": {
          "X": 29.0,
          "Y": 1.0
         },
         "handle_left": {
          "X": 0.5,
          "Y": 1.0
         },
         "handle_right": {
          "X": 0.5,
          "Y": 0.0
         },
         "handle_type": 0,
         "interpolation": 0
        }
       ]
      },
      "contrast": {
       "Points": [
        {
         "co": {
          "X": 1.0,
          "Y": 3.0
         },
         "handle_left": {
          "X": 0.5,
          "Y": 1.0
         },
         "handle_right": {
          "X": 0.5,
          "Y": 0.0
         },
         "handle_type": 0,
         "interpolation": 0
        },
        {
         "co": {
          "X": 29.0,
          "Y": 3.0
         },
         "handle_left": {
          "X": 0.5,
          "Y": 1.0
         },
         "handle_right": {
          "X": 0.5,
          "Y": 0.0
         },
         "handle_type": 0,
         "interpolation": 0
        }
       ]
      },
      "reader": {
       "acodec": "",
       "audio_bit_rate": 0,
       "audio_stream_index": -1,
       "audio_timebase": {
        "den": 1,
        "num": 1
       },
       "channel_layout": 4,
       "channels": 0,
       "display_ratio": {
        "den": 4,
        "num": 5
       },
       "duration": 3600.0,
       "file_size": "5832000",
       "fps": {
        "den": 1,
        "num": 30
       },
       "has_audio": false,
       "has_single_image": true,
       "has_video": true,
       "height": 576,
       "interlaced_frame": false,
       "metadata": {},
       "path": "@transitions/common/fade.svg",
       "pixel_format": -1,
       "pixel_ratio": {
        "den": 1,
        "num": 1
       },
       "sample_rate": 0,
       "top_field_first": true,
       "type": "QtImageReader",
       "vcodec": "",
       "video_bit_rate": 0,
       "video_length": "108000",
       "video_stream_index": -1,
       "video_timebase": {
        "den": 30,
        "num": 1
       },
       "width": 720
      },
      "replace_image": false,
      "id": "PJNV20PXN2"
     },
     {
      "layer": 3000000,
      "title": "Transition",
      "type": "Mask",
      "position": 96.96666666666667,
      "start": 0,
      "end": 0.9583333333333212,
      "brightness": {
       "Points": [
        {
         "co": {
          "X": 1.0,
          "Y": -1.0
         },
         "handle_left": {
          "X": 0.5,
          "Y": 1.0
         },
         "handle_right": {
          "X": 0.5,
          "Y": 0.0
         },
         "handle_type": 0,
         "interpolation": 0
        },
        {
         "co": {
          "X": 29.0,
          "Y": 1.0
         },
         "handle_left": {
          "X": 0.5,
          "Y": 1.0
         },
         "handle_right": {
          "X": 0.5,
          "Y": 0.0
         },
         "handle_type": 0,
         "interpolation": 0
        }
       ]
      },
      "contrast": {
       "Points": [
        {
         "co": {
          "X": 1.0,
          "Y": 3.0
         },
         "handle_left": {
          "X": 0.5,
          "Y": 1.0
         },
         "handle_right": {
          "X": 0.5,
          "Y": 0.0
         },
         "handle_type": 0,
         "interpolation": 0
        },
        {
         "co": {
          "X": 29.0,
          "Y": 3.0
         },
         "handle_left": {
          "X": 0.5,
          "Y": 1.0
         },
         "handle_right": {
          "X": 0.5,
          "Y": 0.0
         },
         "handle_type": 0,
         "interpolation": 0
        }
       ]
      },
      "reader": {
       "acodec": "",
       "audio_bit_rate": 0,
       "audio_stream_index": -1,
       "audio_timebase": {
        "den": 1,
        "num": 1
       },
       "channel_layout": 4,
       "channels": 0,
       "display_ratio": {
        "den": 4,
        "num": 5
       },
       "duration": 3600.0,
       "file_size": "5832000",
       "fps": {
        "den": 1,
        "num": 30
       },
       "has_audio": false,
       "has_single_image": true,
       "has_video": true,
       "height": 576,
       "interlaced_frame": false,
       "metadata": {},
       "path": "@transitions/common/fade.svg",
       "pixel_format": -1,
       "pixel_ratio": {
        "den": 1,
        "num": 1
       },
       "sample_rate": 0,
       "top_field_first": true,
       "type": "QtImageReader",
       "vcodec": "",
       "video_bit_rate": 0,
       "video_length": "108000",
       "video_stream_index": -1,
       "video_timebase": {
        "den": 30,
        "num": 1
       },
       "width": 720
      },
      "replace_image": false,
      "id": "5D4SK0HM3Y"
     },
     {
      "layer": 4000000,
      "title": "Transition",
      "type": "Mask",
      "position": 100.33333333333333,
      "start": 0,
      "end": 0.9583333333333212,
      "brightness": {
       "Points": [
        {
         "co": {
          "X": 1.0,
          "Y": 1.0
         },
         "handle_left": {
          "X": 0.5,
          "Y": 1.0
         },
         "handle_right": {
          "X": 0.5,
          "Y": 0.0
         },
         "handle_type": 0,
         "interpolation": 0
        },
        {
         "co": {
          "X": 29.0,
          "Y": -1.0
         },
         "handle_left": {
          "X": 0.5,
          "Y": 1.0
         },
         "handle_right": {
          "X": 0.5,
          "Y": 0.0
         },
         "handle_type": 0,
         "interpolation": 0
        }
       ]
      },
      "contrast": {
       "Points": [
        {
         "co": {
          "X": 1.0,
          "Y": 3.0
         },
         "handle_left": {
          "X": 0.5,
          "Y": 1.0
         },
         "handle_right": {
          "X": 0.5,
          "Y": 0.0
         },
         "handle_type": 0,
         "interpolation": 0
        },
        {
         "co": {
          "X": 29.0,
          "Y": 3.0
         },
         "handle_left": {
          "X": 0.5,
          "Y": 1.0
         },
         "handle_right": {
          "X": 0.5,
          "Y": 0.0
         },
         "handle_type": 0,
         "interpolation": 0
        }
       ]
      },
      "reader": {
       "acodec": "",
       "audio_bit_rate": 0,
       "audio_stream_index": -1,
       "audio_timebase": {
        "den": 1,
        "num": 1
       },
       "channel_layout": 4,
       "channels": 0,
       "display_ratio": {
        "den": 4,
        "num": 5
       },
       "duration": 3600.0,
       "file_size": "5832000",
       "fps": {
        "den": 1,
        "num": 30
       },
       "has_audio": false,
       "has_single_image": true,
       "has_video": true,
       "height": 576,
       "interlaced_frame": false,
       "metadata": {},
       "path": "@transitions/common/fade.svg",
       "pixel_format": -1,
       "pixel_ratio": {
        "den": 1,
        "num": 1
       },
       "sample_rate": 0,
       "top_field_first": true,
       "type": "QtImageReader",
       "vcodec": "",
       "video_bit_rate": 0,
       "video_length": "108000",
       "video_stream_index": -1,
       "video_timebase": {
        "den": 30,
        "num": 1
       },
       "width": 720
      },
      "replace_image": false,
      "id": "CIVVK4Z0FJ"
     },
     {
      "layer": 4000000,
      "title": "Transition",
      "type": "Mask",
      "position": 109.36666666666666,
      "start": 0,
      "end": 0.9583333333333212,
      "brightness": {
       "Points": [
        {
         "co": {
          "X": 1.0,
          "Y": -1.0
         },
         "handle_left": {
          "X": 0.5,
          "Y": 1.0
         },
         "handle_right": {
          "X": 0.5,
          "Y": 0.0
         },
         "handle_type": 0,
         "interpolation": 0
        },
        {
         "co": {
          "X": 29.0,
          "Y": 1.0
         },
         "handle_left": {
          "X": 0.5,
          "Y": 1.0
         },
         "handle_right": {
          "X": 0.5,
          "Y": 0.0
         },
         "handle_type": 0,
         "interpolation": 0
        }
       ]
      },
      "contrast": {
       "Points": [
        {
         "co": {
          "X": 1.0,
          "Y": 3.0
         },
         "handle_left": {
          "X": 0.5,
          "Y": 1.0
         },
         "handle_right": {
          "X": 0.5,
          "Y": 0.0
         },
         "handle_type": 0,
         "interpolation": 0
        },
        {
         "co": {
          "X": 29.0,
          "Y": 3.0
         },
         "handle_left": {
          "X": 0.5,
          "Y": 1.0
         },
         "handle_right": {
          "X": 0.5,
          "Y": 0.0
         },
         "handle_type": 0,
         "interpolation": 0
        }
       ]
      },
      "reader": {
       "acodec": "",
       "audio_bit_rate": 0,
       "audio_stream_index": -1,
       "audio_timebase": {
        "den": 1,
        "num": 1
       },
       "channel_layout": 4,
       "channels": 0,
       "display_ratio": {
        "den": 4,
        "num": 5
       },
       "duration": 3600.0,
       "file_size": "5832000",
       "fps": {
        "den": 1,
        "num": 30
       },
       "has_audio": false,
       "has_single_image": true,
       "has_video": true,
       "height": 576,
       "interlaced_frame": false,
       "metadata": {},
       "path": "@transitions/common/fade.svg",
       "pixel_format": -1,
       "pixel_ratio": {
        "den": 1,
        "num": 1
       },
       "sample_rate": 0,
       "top_field_first": true,
       "type": "QtImageReader",
       "vcodec": "",
       "video_bit_rate": 0,
       "video_length": "108000",
       "video_stream_index": -1,
       "video_timebase": {
        "den": 30,
        "num": 1
       },
       "width": 720
      },
      "replace_image": false,
      "id": "6CRBT6371H"
     },
     {
      "layer": 4000000,
      "title": "Transition",
      "type": "Mask",
      "position": 110.5,
      "start": 0,
      "end": 0.9583333333333212,
      "brightness": {
       "Points": [
        {
         "co": {
          "X": 1.0,
          "Y": 1.0
         },
         "handle_left": {
          "X": 0.5,
          "Y": 1.0
         },
         "handle_right": {
          "X": 0.5,
          "Y": 0.0
         },
         "handle_type": 0,
         "interpolation": 0
        },
        {
         "co": {
          "X": 29.0,
          "Y": -1.0
         },
         "handle_left": {
          "X": 0.5,
          "Y": 1.0
         },
         "handle_right": {
          "X": 0.5,
          "Y": 0.0
         },
         "handle_type": 0,
         "interpolation": 0
        }
       ]
      },
      "contrast": {
       "Points": [
        {
         "co": {
          "X": 1.0,
          "Y": 3.0
         },
         "handle_left": {
          "X": 0.5,
          "Y": 1.0
         },
         "handle_right": {
          "X": 0.5,
          "Y": 0.0
         },
         "handle_type": 0,
         "interpolation": 0
        },
        {
         "co": {
          "X": 29.0,
          "Y": 3.0
         },
         "handle_left": {
          "X": 0.5,
          "Y": 1.0
         },
         "handle_right": {
          "X": 0.5,
          "Y": 0.0
         },
         "handle_type": 0,
         "interpolation": 0
        }
       ]
      },
      "reader": {
       "acodec": "",
       "audio_bit_rate": 0,
       "audio_stream_index": -1,
       "audio_timebase": {
        "den": 1,
        "num": 1
       },
       "channel_layout": 4,
       "channels": 0,
       "display_ratio": {
        "den": 4,
        "num": 5
       },
       "duration": 3600.0,
       "file_size": "5832000",
       "fps": {
        "den": 1,
        "num": 30
       },
       "has_audio": false,
       "has_single_image": true,
       "has_video": true,
       "height": 576,
       "interlaced_frame": false,
       "metadata": {},
       "path": "@transitions/common/fade.svg",
       "pixel_format": -1,
       "pixel_ratio": {
        "den": 1,
        "num": 1
       },
       "sample_rate": 0,
       "top_field_first": true,
       "type": "QtImageReader",
       "vcodec": "",
       "video_bit_rate": 0,
       "video_length": "108000",
       "video_stream_index": -1,
       "video_timebase": {
        "den": 30,
        "num": 1
       },
       "width": 720
      },
      "replace_image": false,
      "id": "6CLK4D1U3V"
     },
     {
      "layer": 4000000,
      "title": "Transition",
      "type": "Mask",
      "position": 119.53333333333333,
      "start": 0,
      "end": 0.9583333333333212,
      "brightness": {
       "Points": [
        {
         "co": {
          "X": 1.0,
          "Y": -1.0
         },
         "handle_left": {
          "X": 0.5,
          "Y": 1.0
         },
         "handle_right": {
          "X": 0.5,
          "Y": 0.0
         },
         "handle_type": 0,
         "interpolation": 0
        },
        {
         "co": {
          "X": 29.0,
          "Y": 1.0
         },
         "handle_left": {
          "X": 0.5,
          "Y": 1.0
         },
         "handle_right": {
          "X": 0.5,
          "Y": 0.0
         },
         "handle_type": 0,
         "interpolation": 0
        }
       ]
      },
      "contrast": {
       "Points": [
        {
         "co": {
          "X": 1.0,
          "Y": 3.0
         },
         "handle_left": {
          "X": 0.5,
          "Y": 1.0
         },
         "handle_right": {
          "X": 0.5,
          "Y": 0.0
         },
         "handle_type": 0,
         "interpolation": 0
        },
        {
         "co": {
          "X": 29.0,
          "Y": 3.0
         },
         "handle_left": {
          "X": 0.5,
          "Y": 1.0
         },
         "handle_right": {
          "X": 0.5,
          "Y": 0.0
         },
         "handle_type": 0,
         "interpolation": 0
        }
       ]
      },
      "reader": {
       "acodec": "",
       "audio_bit_rate": 0,
       "audio_stream_index": -1,
       "audio_timebase": {
        "den": 1,
        "num": 1
       },
       "channel_layout": 4,
       "channels": 0,
       "display_ratio": {
        "den": 4,
        "num": 5
       },
       "duration": 3600.0,
       "file_size": "5832000",
       "fps": {
        "den": 1,
        "num": 30
       },
       "has_audio": false,
       "has_single_image": true,
       "has_video": true,
       "height": 576,
       "interlaced_frame": false,
       "metadata": {},
       "path": "@transitions/common/fade.svg",
       "pixel_format": -1,
       "pixel_ratio": {
        "den": 1,
        "num": 1
       },
       "sample_rate": 0,
       "top_field_first": true,
       "type": "QtImageReader",
       "vcodec": "",
       "video_bit_rate": 0,
       "video_length": "108000",
       "video_stream_index": -1,
       "video_timebase": {
        "den": 30,
        "num": 1
       },
       "width": 720
      },
      "replace_image": false,
      "id": "T7M03LVI36"
     },
     {
      "layer": 4000000,
      "title": "Transition",
      "type": "Mask",
      "position": 122,
      "start": 0,
      "end": 0.9583333333333212,
      "brightness": {
       "Points": [
        {
         "co": {
          "X": 1.0,
          "Y": 1.0
         },
         "handle_left": {
          "X": 0.5,
          "Y": 1.0
         },
         "handle_right": {
          "X": 0.5,
          "Y": 0.0
         },
         "handle_type": 0,
         "interpolation": 0
        },
        {
         "co": {
          "X": 29.0,
          "Y": -1.0
         },
         "handle_left": {
          "X": 0.5,
          "Y": 1.0
         },
         "handle_right": {
          "X": 0.5,
          "Y": 0.0
         },
         "handle_type": 0,
         "interpolation": 0
        }
       ]
      },
      "contrast": {
       "Points": [
        {
         "co": {
          "X": 1.0,
          "Y": 3.0
         },
         "handle_left": {
          "X": 0.5,
          "Y": 1.0
         },
         "handle_right": {
          "X": 0.5,
          "Y": 0.0
         },
         "handle_type": 0,
         "interpolation": 0
        },
        {
         "co": {
          "X": 29.0,
          "Y": 3.0
         },
         "handle_left": {
          "X": 0.5,
          "Y": 1.0
         },
         "handle_right": {
          "X": 0.5,
          "Y": 0.0
         },
         "handle_type": 0,
         "interpolation": 0
        }
       ]
      },
      "reader": {
       "acodec": "",
       "audio_bit_rate": 0,
       "audio_stream_index": -1,
       "audio_timebase": {
        "den": 1,
        "num": 1
       },
       "channel_layout": 4,
       "channels": 0,
       "display_ratio": {
        "den": 4,
        "num": 5
       },
       "duration": 3600.0,
       "file_size": "5832000",
       "fps": {
        "den": 1,
        "num": 30
       },
       "has_audio": false,
       "has_single_image": true,
       "has_video": true,
       "height": 576,
       "interlaced_frame": false,
       "metadata": {},
       "path": "@transitions/common/fade.svg",
       "pixel_format": -1,
       "pixel_ratio": {
        "den": 1,
        "num": 1
       },
       "sample_rate": 0,
       "top_field_first": true,
       "type": "QtImageReader",
       "vcodec": "",
       "video_bit_rate": 0,
       "video_length": "108000",
       "video_stream_index": -1,
       "video_timebase": {
        "den": 30,
        "num": 1
       },
       "width": 720
      },
      "replace_image": false,
      "id": "H2KZP3RW5J"
     },
     {
      "id": "B9Z9HMO54D",
      "layer": 1000000,
      "title": "Transition",
      "type": "Mask",
      "position": 125.03333333333333,
      "start": 0,
      "end": 1.2633353678385504,
      "brightness": {
       "Points": [
        {
         "co": {
          "X": 1.0,
          "Y": 1.0
         },
         "handle_left": {
          "X": 0.5,
          "Y": 1.0
         },
         "handle_right": {
          "X": 0.5,
          "Y": 0.0
         },
         "handle_type": 0,
         "interpolation": 0
        },
        {
         "co": {
          "X": 38.0,
          "Y": -1.0
         },
         "handle_left": {
          "X": 0.5,
          "Y": 1.0
         },
         "handle_right": {
          "X": 0.5,
          "Y": 0.0
         },
         "handle_type": 0,
         "interpolation": 0
        }
       ]
      },
      "contrast": {
       "Points": [
        {
         "co": {
          "X": 1.0,
          "Y": 3.0
         },
         "handle_left": {
          "X": 0.5,
          "Y": 1.0
         },
         "handle_right": {
          "X": 0.5,
          "Y": 0.0
         },
         "handle_type": 0,
         "interpolation": 0
        },
        {
         "co": {
          "X": 38.0,
          "Y": 3.0
         },
         "handle_left": {
          "X": 0.5,
          "Y": 1.0
         },
         "handle_right": {
          "X": 0.5,
          "Y": 0.0
         },
         "handle_type": 0,
         "interpolation": 0
        }
       ]
      },
      "reader": {
       "acodec": "",
       "audio_bit_rate": 0,
       "audio_stream_index": -1,
       "audio_timebase": {
        "den": 1,
        "num": 1
       },
       "channel_layout": 4,
       "channels": 0,
       "display_ratio": {
        "den": 4,
        "num": 5
       },
       "duration": 3600.0,
       "file_size": "5832000",
       "fps": {
        "den": 1,
        "num": 30
       },
       "has_audio": false,
       "has_single_image": true,
       "has_video": true,
       "height": 576,
       "interlaced_frame": false,
       "metadata": {},
       "path": "@transitions/common/fade.svg",
       "pixel_format": -1,
       "pixel_ratio": {
        "den": 1,
        "num": 1
       },
       "sample_rate": 0,
       "top_field_first": true,
       "type": "QtImageReader",
       "vcodec": "",
       "video_bit_rate": 0,
       "video_length": "108000",
       "video_stream_index": -1,
       "video_timebase": {
        "den": 30,
        "num": 1
       },
       "width": 720
      },
      "replace_image": false
     },
     {
      "id": "QXV6SJOC9B",
      "layer": 1000000,
      "title": "Transition",
      "type": "Mask",
      "position": 110.5,
      "start": 0,
      "end": 2.0333333333333314,
      "brightness": {
       "Points": [
        {
         "co": {
          "X": 1.0,
          "Y": 1.0
         },
         "handle_left": {
          "X": 0.5,
          "Y": 1.0
         },
         "handle_right": {
          "X": 0.5,
          "Y": 0.0
         },
         "handle_type": 0,
         "interpolation": 0
        },
        {
         "co": {
          "X": 62.0,
          "Y": -1.0
         },
         "handle_left": {
          "X": 0.5,
          "Y": 1.0
         },
         "handle_right": {
          "X": 0.5,
          "Y": 0.0
         },
         "handle_type": 0,
         "interpolation": 0
        }
       ]
      },
      "contrast": {
       "Points": [
        {
         "co": {
          "X": 1.0,
          "Y": 3.0
         },
         "handle_left": {
          "X": 0.5,
          "Y": 1.0
         },
         "handle_right": {
          "X": 0.5,
          "Y": 0.0
         },
         "handle_type": 0,
         "interpolation": 0
        }
       ]
      },
      "reader": {
       "acodec": "",
       "audio_bit_rate": 0,
       "audio_stream_index": -1,
       "audio_timebase": {
        "den": 1,
        "num": 1
       },
       "channel_layout": 4,
       "channels": 0,
       "display_ratio": {
        "den": 4,
        "num": 5
       },
       "duration": 3600.0,
       "file_size": "5832000",
       "fps": {
        "den": 1,
        "num": 30
       },
       "has_audio": false,
       "has_single_image": true,
       "has_video": true,
       "height": 576,
       "interlaced_frame": false,
       "metadata": {},
       "path": "@transitions/common/fade.svg",
       "pixel_format": -1,
       "pixel_ratio": {
        "den": 1,
        "num": 1
       },
       "sample_rate": 0,
       "top_field_first": true,
       "type": "QtImageReader",
       "vcodec": "",
       "video_bit_rate": 0,
       "video_length": "108000",
       "video_stream_index": -1,
       "video_timebase": {
        "den": 30,
        "num": 1
       },
       "width": 720
      },
      "replace_image": false
     },
     {
      "id": "P0VCHPRAEW",
      "layer": 1000000,
      "title": "Transition",
      "type": "Mask",
      "position": 133.53333333333333,
      "start": 0,
      "end": 1.26666666666668,
      "brightness": {
       "Points": [
        {
         "co": {
          "X": 1.0,
          "Y": 1.0
         },
         "handle_left": {
          "X": 0.5,
          "Y": 1.0
         },
         "handle_right": {
          "X": 0.5,
          "Y": 0.0
         },
         "handle_type": 0,
         "interpolation": 0
        },
        {
         "co": {
          "X": 39.0,
          "Y": -1.0
         },
         "handle_left": {
          "X": 0.5,
          "Y": 1.0
         },
         "handle_right": {
          "X": 0.5,
          "Y": 0.0
         },
         "handle_type": 0,
         "interpolation": 0
        }
       ]
      },
      "contrast": {
       "Points": [
        {
         "co": {
          "X": 1.0,
          "Y": 3.0
         },
         "handle_left": {
          "X": 0.5,
          "Y": 1.0
         },
         "handle_right": {
          "X": 0.5,
          "Y": 0.0
         },
         "handle_type": 0,
         "interpolation": 0
        }
       ]
      },
      "reader": {
       "acodec": "",
       "audio_bit_rate": 0,
       "audio_stream_index": -1,
       "audio_timebase": {
        "den": 1,
        "num": 1
       },
       "channel_layout": 4,
       "channels": 0,
       "display_ratio": {
        "den": 4,
        "num": 5
       },
       "duration": 3600.0,
       "file_size": "5832000",
       "fps": {
        "den": 1,
        "num": 30
       },
       "has_audio": false,
       "has_single_image": true,
       "has_video": true,
       "height": 576,
       "interlaced_frame": false,
       "metadata": {},
       "path": "@transitions/common/fade.svg",
       "pixel_format": -1,
       "pixel_ratio": {
        "den": 1,
        "num": 1
       },
       "sample_rate": 0,
       "top_field_first": true,
       "type": "QtImageReader",
       "vcodec": "",
       "video_bit_rate": 0,
       "video_length": "108000",
       "video_stream_index": -1,
       "video_timebase": {
        "den": 30,
        "num": 1
       },
       "width": 720
      },
      "replace_image": false
     },
     {
      "layer": 4000000,
      "title": "Transition",
      "type": "Mask",
      "position": 142.6,
      "start": 0,
      "end": 0.9583333333333212,
      "brightness": {
       "Points": [
        {
         "co": {
          "X": 1.0,
          "Y": -1.0
         },
         "handle_left": {
          "X": 0.5,
          "Y": 1.0
         },
         "handle_right": {
          "X": 0.5,
          "Y": 0.0
         },
         "handle_type": 0,
         "interpolation": 0
        },
        {
         "co": {
          "X": 29.0,
          "Y": 1.0
         },
         "handle_left": {
          "X": 0.5,
          "Y": 1.0
         },
         "handle_right": {
          "X": 0.5,
          "Y": 0.0
         },
         "handle_type": 0,
         "interpolation": 0
        }
       ]
      },
      "contrast": {
       "Points": [
        {
         "co": {
          "X": 1.0,
          "Y": 3.0
         },
         "handle_left": {
          "X": 0.5,
          "Y": 1.0
         },
         "handle_right": {
          "X": 0.5,
          "Y": 0.0
         },
         "handle_type": 0,
         "interpolation": 0
        },
        {
         "co": {
          "X": 29.0,
          "Y": 3.0
         },
         "handle_left": {
          "X": 0.5,
          "Y": 1.0
         },
         "handle_right": {
          "X": 0.5,
          "Y": 0.0
         },
         "handle_type": 0,
         "interpolation": 0
        }
       ]
      },
      "reader": {
       "acodec": "",
       "audio_bit_rate": 0,
       "audio_stream_index": -1,
       "audio_timebase": {
        "den": 1,
        "num": 1
       },
       "channel_layout": 4,
       "channels": 0,
       "display_ratio": {
        "den": 4,
        "num": 5
       },
       "duration": 3600.0,
       "file_size": "5832000",
       "fps": {
        "den": 1,
        "num": 30
       },
       "has_audio": false,
       "has_single_image": true,
       "has_video": true,
       "height": 576,
       "interlaced_frame": false,
       "metadata": {},
       "path": "@transitions/common/fade.svg",
       "pixel_format": -1,
       "pixel_ratio": {
        "den": 1,
        "num": 1
       },
       "sample_rate": 0,
       "top_field_first": true,
       "type": "QtImageReader",
       "vcodec": "",
       "video_bit_rate": 0,
       "video_length": "108000",
       "video_stream_index": -1,
       "video_timebase": {
        "den": 30,
        "num": 1
       },
       "width": 720
      },
      "replace_image": false,
      "id": "HD7YD14ZFT"
     },
     {
      "layer": 4000000,
      "title": "Transition",
      "type": "Mask",
      "position": 131.03333333333333,
      "start": 0,
      "end": 0.9583333333333212,
      "brightness": {
       "Points": [
        {
         "co": {
          "X": 1.0,
          "Y": -1.0
         },
         "handle_left": {
          "X": 0.5,
          "Y": 1.0
         },
         "handle_right": {
          "X": 0.5,
          "Y": 0.0
         },
         "handle_type": 0,
         "interpolation": 0
        },
        {
         "co": {
          "X": 29.0,
          "Y": 1.0
         },
         "handle_left": {
          "X": 0.5,
          "Y": 1.0
         },
         "handle_right": {
          "X": 0.5,
          "Y": 0.0
         },
         "handle_type": 0,
         "interpolation": 0
        }
       ]
      },
      "contrast": {
       "Points": [
        {
         "co": {
          "X": 1.0,
          "Y": 3.0
         },
         "handle_left": {
          "X": 0.5,
          "Y": 1.0
         },
         "handle_right": {
          "X": 0.5,
          "Y": 0.0
         },
         "handle_type": 0,
         "interpolation": 0
        },
        {
         "co": {
          "X": 29.0,
          "Y": 3.0
         },
         "handle_left": {
          "X": 0.5,
          "Y": 1.0
         },
         "handle_right": {
          "X": 0.5,
          "Y": 0.0
         },
         "handle_type": 0,
         "interpolation": 0
        }
       ]
      },
      "reader": {
       "acodec": "",
       "audio_bit_rate": 0,
       "audio_stream_index": -1,
       "audio_timebase": {
        "den": 1,
        "num": 1
       },
       "channel_layout": 4,
       "channels": 0,
       "display_ratio": {
        "den": 4,
        "num": 5
       },
       "duration": 3600.0,
       "file_size": "5832000",
       "fps": {
        "den": 1,
        "num": 30
       },
       "has_audio": false,
       "has_single_image": true,
       "has_video": true,
       "height": 576,
       "interlaced_frame": false,
       "metadata": {},
       "path": "@transitions/common/fade.svg",
       "pixel_format": -1,
       "pixel_ratio": {
        "den": 1,
        "num": 1
       },
       "sample_rate": 0,
       "top_field_first": true,
       "type": "QtImageReader",
       "vcodec": "",
       "video_bit_rate": 0,
       "video_length": "108000",
       "video_stream_index": -1,
       "video_timebase": {
        "den": 30,
        "num": 1
       },
       "width": 720
      },
      "replace_image": false,
      "id": "W1VV6ZI143"
     },
     {
      "layer": 4000000,
      "title": "Transition",
      "type": "Mask",
      "position": 133.56666666666666,
      "start": 0,
      "end": 0.9583333333333212,
      "brightness": {
       "Points": [
        {
         "co": {
          "X": 1.0,
          "Y": 1.0
         },
         "handle_left": {
          "X": 0.5,
          "Y": 1.0
         },
         "handle_right": {
          "X": 0.5,
          "Y": 0.0
         },
         "handle_type": 0,
         "interpolation": 0
        },
        {
         "co": {
          "X": 29.0,
          "Y": -1.0
         },
         "handle_left": {
          "X": 0.5,
          "Y": 1.0
         },
         "handle_right": {
          "X": 0.5,
          "Y": 0.0
         },
         "handle_type": 0,
         "interpolation": 0
        }
       ]
      },
      "contrast": {
       "Points": [
        {
         "co": {
          "X": 1.0,
          "Y": 3.0
         },
         "handle_left": {
          "X": 0.5,
          "Y": 1.0
         },
         "handle_right": {
          "X": 0.5,
          "Y": 0.0
         },
         "handle_type": 0,
         "interpolation": 0
        },
        {
         "co": {
          "X": 29.0,
          "Y": 3.0
         },
         "handle_left": {
          "X": 0.5,
          "Y": 1.0
         },
         "handle_right": {
          "X": 0.5,
          "Y": 0.0
         },
         "handle_type": 0,
         "interpolation": 0
        }
       ]
      },
      "reader": {
       "acodec": "",
       "audio_bit_rate": 0,
       "audio_stream_index": -1,
       "audio_timebase": {
        "den": 1,
        "num": 1
       },
       "channel_layout": 4,
       "channels": 0,
       "display_ratio": {
        "den": 4,
        "num": 5
       },
       "duration": 3600.0,
       "file_size": "5832000",
       "fps": {
        "den": 1,
        "num": 30
       },
       "has_audio": false,
       "has_single_image": true,
       "has_video": true,
       "height": 576,
       "interlaced_frame": false,
       "metadata": {},
       "path": "@transitions/common/fade.svg",
       "pixel_format": -1,
       "pixel_ratio": {
        "den": 1,
        "num": 1
       },
       "sample_rate": 0,
       "top_field_first": true,
       "type": "QtImageReader",
       "vcodec": "",
       "video_bit_rate": 0,
       "video_length": "108000",
       "video_stream_index": -1,
       "video_timebase": {
        "den": 30,
        "num": 1
       },
       "width": 720
      },
      "replace_image": false,
      "id": "Z02J2TPUOT"
     },
     {
      "id": "0N4ZYD2NF2",
      "layer": 1000000,
      "title": "Transition",
      "type": "Mask",
      "position": 143.56666666666666,
      "start": 0,
      "end": 1.2333333333333485,
      "brightness": {
       "Points": [
        {
         "co": {
          "X": 1.0,
          "Y": 1.0
         },
         "handle_left": {
          "X": 0.5,
          "Y": 1.0
         },
         "handle_right": {
          "X": 0.5,
          "Y": 0.0
         },
         "handle_type": 0,
         "interpolation": 0
        },
        {
         "co": {
          "X": 38.0,
          "Y": -1.0
         },
         "handle_left": {
          "X": 0.5,
          "Y": 1.0
         },
         "handle_right": {
          "X": 0.5,
          "Y": 0.0
         },
         "handle_type": 0,
         "interpolation": 0
        }
       ]
      },
      "contrast": {
       "Points": [
        {
         "co": {
          "X": 1.0,
          "Y": 3.0
         },
         "handle_left": {
          "X": 0.5,
          "Y": 1.0
         },
         "handle_right": {
          "X": 0.5,
          "Y": 0.0
         },
         "handle_type": 0,
         "interpolation": 0
        }
       ]
      },
      "reader": {
       "acodec": "",
       "audio_bit_rate": 0,
       "audio_stream_index": -1,
       "audio_timebase": {
        "den": 1,
        "num": 1
       },
       "channel_layout": 4,
       "channels": 0,
       "display_ratio": {
        "den": 4,
        "num": 5
       },
       "duration": 3600.0,
       "file_size": "5832000",
       "fps": {
        "den": 1,
        "num": 30
       },
       "has_audio": false,
       "has_single_image": true,
       "has_video": true,
       "height": 576,
       "interlaced_frame": false,
       "metadata": {},
       "path": "@transitions/common/fade.svg",
       "pixel_format": -1,
       "pixel_ratio": {
        "den": 1,
        "num": 1
       },
       "sample_rate": 0,
       "top_field_first": true,
       "type": "QtImageReader",
       "vcodec": "",
       "video_bit_rate": 0,
       "video_length": "108000",
       "video_stream_index": -1,
       "video_timebase": {
        "den": 30,
        "num": 1
       },
       "width": 720
      },
      "replace_image": false
     },
     {
      "layer": 4000000,
      "title": "Transition",
      "type": "Mask",
      "position": 144.8,
      "start": 0,
      "end": 0.9583333333333212,
      "brightness": {
       "Points": [
        {
         "co": {
          "X": 1.0,
          "Y": 1.0
         },
         "handle_left": {
          "X": 0.5,
          "Y": 1.0
         },
         "handle_right": {
          "X": 0.5,
          "Y": 0.0
         },
         "handle_type": 0,
         "interpolation": 0
        },
        {
         "co": {
          "X": 29.0,
          "Y": -1.0
         },
         "handle_left": {
          "X": 0.5,
          "Y": 1.0
         },
         "handle_right": {
          "X": 0.5,
          "Y": 0.0
         },
         "handle_type": 0,
         "interpolation": 0
        }
       ]
      },
      "contrast": {
       "Points": [
        {
         "co": {
          "X": 1.0,
          "Y": 3.0
         },
         "handle_left": {
          "X": 0.5,
          "Y": 1.0
         },
         "handle_right": {
          "X": 0.5,
          "Y": 0.0
         },
         "handle_type": 0,
         "interpolation": 0
        },
        {
         "co": {
          "X": 29.0,
          "Y": 3.0
         },
         "handle_left": {
          "X": 0.5,
          "Y": 1.0
         },
         "handle_right": {
          "X": 0.5,
          "Y": 0.0
         },
         "handle_type": 0,
         "interpolation": 0
        }
       ]
      },
      "reader": {
       "acodec": "",
       "audio_bit_rate": 0,
       "audio_stream_index": -1,
       "audio_timebase": {
        "den": 1,
        "num": 1
       },
       "channel_layout": 4,
       "channels": 0,
       "display_ratio": {
        "den": 4,
        "num": 5
       },
       "duration": 3600.0,
       "file_size": "5832000",
       "fps": {
        "den": 1,
        "num": 30
       },
       "has_audio": false,
       "has_single_image": true,
       "has_video": true,
       "height": 576,
       "interlaced_frame": false,
       "metadata": {},
       "path": "@transitions/common/fade.svg",
       "pixel_format": -1,
       "pixel_ratio": {
        "den": 1,
        "num": 1
       },
       "sample_rate": 0,
       "top_field_first": true,
       "type": "QtImageReader",
       "vcodec": "",
       "video_bit_rate": 0,
       "video_length": "108000",
       "video_stream_index": -1,
       "video_timebase": {
        "den": 30,
        "num": 1
       },
       "width": 720
      },
      "replace_image": false,
      "id": "W0DEPAZ42R"
     },
     {
      "id": "TO45GHWLTA",
      "layer": 1000000,
      "title": "Transition",
      "type": "Mask",
      "position": 145.76666666666668,
      "start": 0,
      "end": 1,
      "brightness": {
       "Points": [
        {
         "co": {
          "X": 1.0,
          "Y": 1.0
         },
         "handle_left": {
          "X": 0.5,
          "Y": 1.0
         },
         "handle_right": {
          "X": 0.5,
          "Y": 0.0
         },
         "handle_type": 0,
         "interpolation": 0
        },
        {
         "co": {
          "X": 31.0,
          "Y": -1.0
         },
         "handle_left": {
          "X": 0.5,
          "Y": 1.0
         },
         "handle_right": {
          "X": 0.5,
          "Y": 0.0
         },
         "handle_type": 0,
         "interpolation": 0
        }
       ]
      },
      "contrast": {
       "Points": [
        {
         "co": {
          "X": 1.0,
          "Y": 3.0
         },
         "handle_left": {
          "X": 0.5,
          "Y": 1.0
         },
         "handle_right": {
          "X": 0.5,
          "Y": 0.0
         },
         "handle_type": 0,
         "interpolation": 0
        }
       ]
      },
      "reader": {
       "acodec": "",
       "audio_bit_rate": 0,
       "audio_stream_index": -1,
       "audio_timebase": {
        "den": 1,
        "num": 1
       },
       "channel_layout": 4,
       "channels": 0,
       "display_ratio": {
        "den": 4,
        "num": 5
       },
       "duration": 3600.0,
       "file_size": "5832000",
       "fps": {
        "den": 1,
        "num": 30
       },
       "has_audio": false,
       "has_single_image": true,
       "has_video": true,
       "height": 576,
       "interlaced_frame": false,
       "metadata": {},
       "path": "@transitions/common/fade.svg",
       "pixel_format": -1,
       "pixel_ratio": {
        "den": 1,
        "num": 1
       },
       "sample_rate": 0,
       "top_field_first": true,
       "type": "QtImageReader",
       "vcodec": "",
       "video_bit_rate": 0,
       "video_length": "108000",
       "video_stream_index": -1,
       "video_timebase": {
        "den": 30,
        "num": 1
       },
       "width": 720
      },
      "replace_image": false
     },
     {
      "id": "QQGQORIF73",
      "layer": 1000000,
      "title": "Transition",
      "type": "Mask",
      "position": 147.5,
      "start": 0,
      "end": 1.1666666666666572,
      "brightness": {
       "Points": [
        {
         "co": {
          "X": 1.0,
          "Y": 1.0
         },
         "handle_left": {
          "X": 0.5,
          "Y": 1.0
         },
         "handle_right": {
          "X": 0.5,
          "Y": 0.0
         },
         "handle_type": 0,
         "interpolation": 0
        },
        {
         "co": {
          "X": 35.0,
          "Y": -1.0
         },
         "handle_left": {
          "X": 0.5,
          "Y": 1.0
         },
         "handle_right": {
          "X": 0.5,
          "Y": 0.0
         },
         "handle_type": 0,
         "interpolation": 0
        }
       ]
      },
      "contrast": {
       "Points": [
        {
         "co": {
          "X": 1.0,
          "Y": 3.0
         },
         "handle_left": {
          "X": 0.5,
          "Y": 1.0
         },
         "handle_right": {
          "X": 0.5,
          "Y": 0.0
         },
         "handle_type": 0,
         "interpolation": 0
        },
        {
         "co": {
          "X": 35.0,
          "Y": 3.0
         },
         "handle_left": {
          "X": 0.5,
          "Y": 1.0
         },
         "handle_right": {
          "X": 0.5,
          "Y": 0.0
         },
         "handle_type": 0,
         "interpolation": 0
        }
       ]
      },
      "reader": {
       "acodec": "",
       "audio_bit_rate": 0,
       "audio_stream_index": -1,
       "audio_timebase": {
        "den": 1,
        "num": 1
       },
       "channel_layout": 4,
       "channels": 0,
       "display_ratio": {
        "den": 4,
        "num": 5
       },
       "duration": 3600.0,
       "file_size": "5832000",
       "fps": {
        "den": 1,
        "num": 30
       },
       "has_audio": false,
       "has_single_image": true,
       "has_video": true,
       "height": 576,
       "interlaced_frame": false,
       "metadata": {},
       "path": "@transitions/common/fade.svg",
       "pixel_format": -1,
       "pixel_ratio": {
        "den": 1,
        "num": 1
       },
       "sample_rate": 0,
       "top_field_first": true,
       "type": "QtImageReader",
       "vcodec": "",
       "video_bit_rate": 0,
       "video_length": "108000",
       "video_stream_index": -1,
       "video_timebase": {
        "den": 30,
        "num": 1
       },
       "width": 720
      },
      "replace_image": false
     },
     {
      "layer": 3000000,
      "title": "Transition",
      "type": "Mask",
      "position": 147.5,
      "start": 0,
      "end": 0.9583333333333212,
      "brightness": {
       "Points": [
        {
         "co": {
          "X": 1.0,
          "Y": 1.0
         },
         "handle_left": {
          "X": 0.5,
          "Y": 1.0
         },
         "handle_right": {
          "X": 0.5,
          "Y": 0.0
         },
         "handle_type": 0,
         "interpolation": 0
        },
        {
         "co": {
          "X": 29.0,
          "Y": -1.0
         },
         "handle_left": {
          "X": 0.5,
          "Y": 1.0
         },
         "handle_right": {
          "X": 0.5,
          "Y": 0.0
         },
         "handle_type": 0,
         "interpolation": 0
        }
       ]
      },
      "contrast": {
       "Points": [
        {
         "co": {
          "X": 1.0,
          "Y": 3.0
         },
         "handle_left": {
          "X": 0.5,
          "Y": 1.0
         },
         "handle_right": {
          "X": 0.5,
          "Y": 0.0
         },
         "handle_type": 0,
         "interpolation": 0
        },
        {
         "co": {
          "X": 29.0,
          "Y": 3.0
         },
         "handle_left": {
          "X": 0.5,
          "Y": 1.0
         },
         "handle_right": {
          "X": 0.5,
          "Y": 0.0
         },
         "handle_type": 0,
         "interpolation": 0
        }
       ]
      },
      "reader": {
       "acodec": "",
       "audio_bit_rate": 0,
       "audio_stream_index": -1,
       "audio_timebase": {
        "den": 1,
        "num": 1
       },
       "channel_layout": 4,
       "channels": 0,
       "display_ratio": {
        "den": 4,
        "num": 5
       },
       "duration": 3600.0,
       "file_size": "5832000",
       "fps": {
        "den": 1,
        "num": 30
       },
       "has_audio": false,
       "has_single_image": true,
       "has_video": true,
       "height": 576,
       "interlaced_frame": false,
       "metadata": {},
       "path": "@transitions/common/fade.svg",
       "pixel_format": -1,
       "pixel_ratio": {
        "den": 1,
        "num": 1
       },
       "sample_rate": 0,
       "top_field_first": true,
       "type": "QtImageReader",
       "vcodec": "",
       "video_bit_rate": 0,
       "video_length": "108000",
       "video_stream_index": -1,
       "video_timebase": {
        "den": 30,
        "num": 1
       },
       "width": 720
      },
      "replace_image": false,
      "id": "MQ9GMO4U7S"
     },
     {
      "layer": 3000000,
      "title": "Transition",
      "type": "Mask",
      "position": 151.5,
      "start": 0,
      "end": 0.9583333333333212,
      "brightness": {
       "Points": [
        {
         "co": {
          "X": 1.0,
          "Y": -1.0
         },
         "handle_left": {
          "X": 0.5,
          "Y": 1.0
         },
         "handle_right": {
          "X": 0.5,
          "Y": 0.0
         },
         "handle_type": 0,
         "interpolation": 0
        },
        {
         "co": {
          "X": 29.0,
          "Y": 1.0
         },
         "handle_left": {
          "X": 0.5,
          "Y": 1.0
         },
         "handle_right": {
          "X": 0.5,
          "Y": 0.0
         },
         "handle_type": 0,
         "interpolation": 0
        }
       ]
      },
      "contrast": {
       "Points": [
        {
         "co": {
          "X": 1.0,
          "Y": 3.0
         },
         "handle_left": {
          "X": 0.5,
          "Y": 1.0
         },
         "handle_right": {
          "X": 0.5,
          "Y": 0.0
         },
         "handle_type": 0,
         "interpolation": 0
        },
        {
         "co": {
          "X": 29.0,
          "Y": 3.0
         },
         "handle_left": {
          "X": 0.5,
          "Y": 1.0
         },
         "handle_right": {
          "X": 0.5,
          "Y": 0.0
         },
         "handle_type": 0,
         "interpolation": 0
        }
       ]
      },
      "reader": {
       "acodec": "",
       "audio_bit_rate": 0,
       "audio_stream_index": -1,
       "audio_timebase": {
        "den": 1,
        "num": 1
       },
       "channel_layout": 4,
       "channels": 0,
       "display_ratio": {
        "den": 4,
        "num": 5
       },
       "duration": 3600.0,
       "file_size": "5832000",
       "fps": {
        "den": 1,
        "num": 30
       },
       "has_audio": false,
       "has_single_image": true,
       "has_video": true,
       "height": 576,
       "interlaced_frame": false,
       "metadata": {},
       "path": "@transitions/common/fade.svg",
       "pixel_format": -1,
       "pixel_ratio": {
        "den": 1,
        "num": 1
       },
       "sample_rate": 0,
       "top_field_first": true,
       "type": "QtImageReader",
       "vcodec": "",
       "video_bit_rate": 0,
       "video_length": "108000",
       "video_stream_index": -1,
       "video_timebase": {
        "den": 30,
        "num": 1
       },
       "width": 720
      },
      "replace_image": false,
      "id": "48F1O1SI32"
     },
     {
      "layer": 3000000,
      "title": "Transition",
      "type": "Mask",
      "position": 152.96666666666667,
      "start": 0,
      "end": 0.9583333333333212,
      "brightness": {
       "Points": [
        {
         "co": {
          "X": 1.0,
          "Y": 1.0
         },
         "handle_left": {
          "X": 0.5,
          "Y": 1.0
         },
         "handle_right": {
          "X": 0.5,
          "Y": 0.0
         },
         "handle_type": 0,
         "interpolation": 0
        },
        {
         "co": {
          "X": 29.0,
          "Y": -1.0
         },
         "handle_left": {
          "X": 0.5,
          "Y": 1.0
         },
         "handle_right": {
          "X": 0.5,
          "Y": 0.0
         },
         "handle_type": 0,
         "interpolation": 0
        }
       ]
      },
      "contrast": {
       "Points": [
        {
         "co": {
          "X": 1.0,
          "Y": 3.0
         },
         "handle_left": {
          "X": 0.5,
          "Y": 1.0
         },
         "handle_right": {
          "X": 0.5,
          "Y": 0.0
         },
         "handle_type": 0,
         "interpolation": 0
        },
        {
         "co": {
          "X": 29.0,
          "Y": 3.0
         },
         "handle_left": {
          "X": 0.5,
          "Y": 1.0
         },
         "handle_right": {
          "X": 0.5,
          "Y": 0.0
         },
         "handle_type": 0,
         "interpolation": 0
        }
       ]
      },
      "reader": {
       "acodec": "",
       "audio_bit_rate": 0,
       "audio_stream_index": -1,
       "audio_timebase": {
        "den": 1,
        "num": 1
       },
       "channel_layout": 4,
       "channels": 0,
       "display_ratio": {
        "den": 4,
        "num": 5
       },
       "duration": 3600.0,
       "file_size": "5832000",
       "fps": {
        "den": 1,
        "num": 30
       },
       "has_audio": false,
       "has_single_image": true,
       "has_video": true,
       "height": 576,
       "interlaced_frame": false,
       "metadata": {},
       "path": "@transitions/common/fade.svg",
       "pixel_format": -1,
       "pixel_ratio": {
        "den": 1,
        "num": 1
       },
       "sample_rate": 0,
       "top_field_first": true,
       "type": "QtImageReader",
       "vcodec": "",
       "video_bit_rate": 0,
       "video_length": "108000",
       "video_stream_index": -1,
       "video_timebase": {
        "den": 30,
        "num": 1
       },
       "width": 720
      },
      "replace_image": false,
      "id": "T6EIC6ZKKI"
     },
     {
      "layer": 3000000,
      "title": "Transition",
      "type": "Mask",
      "position": 156.76666666666668,
      "start": 0,
      "end": 0.9583333333333212,
      "brightness": {
       "Points": [
        {
         "co": {
          "X": 1.0,
          "Y": -1.0
         },
         "handle_left": {
          "X": 0.5,
          "Y": 1.0
         },
         "handle_right": {
          "X": 0.5,
          "Y": 0.0
         },
         "handle_type": 0,
         "interpolation": 0
        },
        {
         "co": {
          "X": 29.0,
          "Y": 1.0
         },
         "handle_left": {
          "X": 0.5,
          "Y": 1.0
         },
         "handle_right": {
          "X": 0.5,
          "Y": 0.0
         },
         "handle_type": 0,
         "interpolation": 0
        }
       ]
      },
      "contrast": {
       "Points": [
        {
         "co": {
          "X": 1.0,
          "Y": 3.0
         },
         "handle_left": {
          "X": 0.5,
          "Y": 1.0
         },
         "handle_right": {
          "X": 0.5,
          "Y": 0.0
         },
         "handle_type": 0,
         "interpolation": 0
        },
        {
         "co": {
          "X": 29.0,
          "Y": 3.0
         },
         "handle_left": {
          "X": 0.5,
          "Y": 1.0
         },
         "handle_right": {
          "X": 0.5,
          "Y": 0.0
         },
         "handle_type": 0,
         "interpolation": 0
        }
       ]
      },
      "reader": {
       "acodec": "",
       "audio_bit_rate": 0,
       "audio_stream_index": -1,
       "audio_timebase": {
        "den": 1,
        "num": 1
       },
       "channel_layout": 4,
       "channels": 0,
       "display_ratio": {
        "den": 4,
        "num": 5
       },
       "duration": 3600.0,
       "file_size": "5832000",
       "fps": {
        "den": 1,
        "num": 30
       },
       "has_audio": false,
       "has_single_image": true,
       "has_video": true,
       "height": 576,
       "interlaced_frame": false,
       "metadata": {},
       "path": "@transitions/common/fade.svg",
       "pixel_format": -1,
       "pixel_ratio": {
        "den": 1,
        "num": 1
       },
       "sample_rate": 0,
       "top_field_first": true,
       "type": "QtImageReader",
       "vcodec": "",
       "video_bit_rate": 0,
       "video_length": "108000",
       "video_stream_index": -1,
       "video_timebase": {
        "den": 30,
        "num": 1
       },
       "width": 720
      },
      "replace_image": false,
      "id": "JB87W5WBEW"
     },
     {
      "layer": 3000000,
      "title": "Transition",
      "type": "Mask",
      "position": 159.4,
      "start": 0,
      "end": 0.9583333333333212,
      "brightness": {
       "Points": [
        {
         "co": {
          "X": 1.0,
          "Y": 1.0
         },
         "handle_left": {
          "X": 0.5,
          "Y": 1.0
         },
         "handle_right": {
          "X": 0.5,
          "Y": 0.0
         },
         "handle_type": 0,
         "interpolation": 0
        },
        {
         "co": {
          "X": 29.0,
          "Y": -1.0
         },
         "handle_left": {
          "X": 0.5,
          "Y": 1.0
         },
         "handle_right": {
          "X": 0.5,
          "Y": 0.0
         },
         "handle_type": 0,
         "interpolation": 0
        }
       ]
      },
      "contrast": {
       "Points": [
        {
         "co": {
          "X": 1.0,
          "Y": 3.0
         },
         "handle_left": {
          "X": 0.5,
          "Y": 1.0
         },
         "handle_right": {
          "X": 0.5,
          "Y": 0.0
         },
         "handle_type": 0,
         "interpolation": 0
        },
        {
         "co": {
          "X": 29.0,
          "Y": 3.0
         },
         "handle_left": {
          "X": 0.5,
          "Y": 1.0
         },
         "handle_right": {
          "X": 0.5,
          "Y": 0.0
         },
         "handle_type": 0,
         "interpolation": 0
        }
       ]
      },
      "reader": {
       "acodec": "",
       "audio_bit_rate": 0,
       "audio_stream_index": -1,
       "audio_timebase": {
        "den": 1,
        "num": 1
       },
       "channel_layout": 4,
       "channels": 0,
       "display_ratio": {
        "den": 4,
        "num": 5
       },
       "duration": 3600.0,
       "file_size": "5832000",
       "fps": {
        "den": 1,
        "num": 30
       },
       "has_audio": false,
       "has_single_image": true,
       "has_video": true,
       "height": 576,
       "interlaced_frame": false,
       "metadata": {},
       "path": "@transitions/common/fade.svg",
       "pixel_format": -1,
       "pixel_ratio": {
        "den": 1,
        "num": 1
       },
       "sample_rate": 0,
       "top_field_first": true,
       "type": "QtImageReader",
       "vcodec": "",
       "video_bit_rate": 0,
       "video_length": "108000",
       "video_stream_index": -1,
       "video_timebase": {
        "den": 30,
        "num": 1
       },
       "width": 720
      },
      "replace_image": false,
      "id": "CEA8AKF4RE"
     },
     {
      "layer": 3000000,
      "title": "Transition",
      "type": "Mask",
      "position": 163.2,
      "start": 0,
      "end": 0.9583333333333212,
      "brightness": {
       "Points": [
        {
         "co": {
          "X": 1.0,
          "Y": -1.0
         },
         "handle_left": {
          "X": 0.5,
          "Y": 1.0
         },
         "handle_right": {
          "X": 0.5,
          "Y": 0.0
         },
         "handle_type": 0,
         "interpolation": 0
        },
        {
         "co": {
          "X": 29.0,
          "Y": 1.0
         },
         "handle_left": {
          "X": 0.5,
          "Y": 1.0
         },
         "handle_right": {
          "X": 0.5,
          "Y": 0.0
         },
         "handle_type": 0,
         "interpolation": 0
        }
       ]
      },
      "contrast": {
       "Points": [
        {
         "co": {
          "X": 1.0,
          "Y": 3.0
         },
         "handle_left": {
          "X": 0.5,
          "Y": 1.0
         },
         "handle_right": {
          "X": 0.5,
          "Y": 0.0
         },
         "handle_type": 0,
         "interpolation": 0
        },
        {
         "co": {
          "X": 29.0,
          "Y": 3.0
         },
         "handle_left": {
          "X": 0.5,
          "Y": 1.0
         },
         "handle_right": {
          "X": 0.5,
          "Y": 0.0
         },
         "handle_type": 0,
         "interpolation": 0
        }
       ]
      },
      "reader": {
       "acodec": "",
       "audio_bit_rate": 0,
       "audio_stream_index": -1,
       "audio_timebase": {
        "den": 1,
        "num": 1
       },
       "channel_layout": 4,
       "channels": 0,
       "display_ratio": {
        "den": 4,
        "num": 5
       },
       "duration": 3600.0,
       "file_size": "5832000",
       "fps": {
        "den": 1,
        "num": 30
       },
       "has_audio": false,
       "has_single_image": true,
       "has_video": true,
       "height": 576,
       "interlaced_frame": false,
       "metadata": {},
       "path": "@transitions/common/fade.svg",
       "pixel_format": -1,
       "pixel_ratio": {
        "den": 1,
        "num": 1
       },
       "sample_rate": 0,
       "top_field_first": true,
       "type": "QtImageReader",
       "vcodec": "",
       "video_bit_rate": 0,
       "video_length": "108000",
       "video_stream_index": -1,
       "video_timebase": {
        "den": 30,
        "num": 1
       },
       "width": 720
      },
      "replace_image": false,
      "id": "6X5CANRLU0"
     },
     {
      "layer": 3000000,
      "title": "Transition",
      "type": "Mask",
      "position": 164.3,
      "start": 0,
      "end": 0.9583333333333212,
      "brightness": {
       "Points": [
        {
         "co": {
          "X": 1.0,
          "Y": 1.0
         },
         "handle_left": {
          "X": 0.5,
          "Y": 1.0
         },
         "handle_right": {
          "X": 0.5,
          "Y": 0.0
         },
         "handle_type": 0,
         "interpolation": 0
        },
        {
         "co": {
          "X": 29.0,
          "Y": -1.0
         },
         "handle_left": {
          "X": 0.5,
          "Y": 1.0
         },
         "handle_right": {
          "X": 0.5,
          "Y": 0.0
         },
         "handle_type": 0,
         "interpolation": 0
        }
       ]
      },
      "contrast": {
       "Points": [
        {
         "co": {
          "X": 1.0,
          "Y": 3.0
         },
         "handle_left": {
          "X": 0.5,
          "Y": 1.0
         },
         "handle_right": {
          "X": 0.5,
          "Y": 0.0
         },
         "handle_type": 0,
         "interpolation": 0
        },
        {
         "co": {
          "X": 29.0,
          "Y": 3.0
         },
         "handle_left": {
          "X": 0.5,
          "Y": 1.0
         },
         "handle_right": {
          "X": 0.5,
          "Y": 0.0
         },
         "handle_type": 0,
         "interpolation": 0
        }
       ]
      },
      "reader": {
       "acodec": "",
       "audio_bit_rate": 0,
       "audio_stream_index": -1,
       "audio_timebase": {
        "den": 1,
        "num": 1
       },
       "channel_layout": 4,
       "channels": 0,
       "display_ratio": {
        "den": 4,
        "num": 5
       },
       "duration": 3600.0,
       "file_size": "5832000",
       "fps": {
        "den": 1,
        "num": 30
       },
       "has_audio": false,
       "has_single_image": true,
       "has_video": true,
       "height": 576,
       "interlaced_frame": false,
       "metadata": {},
       "path": "@transitions/common/fade.svg",
       "pixel_format": -1,
       "pixel_ratio": {
        "den": 1,
        "num": 1
       },
       "sample_rate": 0,
       "top_field_first": true,
       "type": "QtImageReader",
       "vcodec": "",
       "video_bit_rate": 0,
       "video_length": "108000",
       "video_stream_index": -1,
       "video_timebase": {
        "den": 30,
        "num": 1
       },
       "width": 720
      },
      "replace_image": false,
      "id": "RQ98DT2VUD"
     },
     {
      "layer": 3000000,
      "title": "Transition",
      "type": "Mask",
      "position": 169.9,
      "start": 0,
      "end": 0.9583333333333212,
      "brightness": {
       "Points": [
        {
         "co": {
          "X": 1.0,
          "Y": -1.0
         },
         "handle_left": {
          "X": 0.5,
          "Y": 1.0
         },
         "handle_right": {
          "X": 0.5,
          "Y": 0.0
         },
         "handle_type": 0,
         "interpolation": 0
        },
        {
         "co": {
          "X": 29.0,
          "Y": 1.0
         },
         "handle_left": {
          "X": 0.5,
          "Y": 1.0
         },
         "handle_right": {
          "X": 0.5,
          "Y": 0.0
         },
         "handle_type": 0,
         "interpolation": 0
        }
       ]
      },
      "contrast": {
       "Points": [
        {
         "co": {
          "X": 1.0,
          "Y": 3.0
         },
         "handle_left": {
          "X": 0.5,
          "Y": 1.0
         },
         "handle_right": {
          "X": 0.5,
          "Y": 0.0
         },
         "handle_type": 0,
         "interpolation": 0
        },
        {
         "co": {
          "X": 29.0,
          "Y": 3.0
         },
         "handle_left": {
          "X": 0.5,
          "Y": 1.0
         },
         "handle_right": {
          "X": 0.5,
          "Y": 0.0
         },
         "handle_type": 0,
         "interpolation": 0
        }
       ]
      },
      "reader": {
       "acodec": "",
       "audio_bit_rate": 0,
       "audio_stream_index": -1,
       "audio_timebase": {
        "den": 1,
        "num": 1
       },
       "channel_layout": 4,
       "channels": 0,
       "display_ratio": {
        "den": 4,
        "num": 5
       },
       "duration": 3600.0,
       "file_size": "5832000",
       "fps": {
        "den": 1,
        "num": 30
       },
       "has_audio": false,
       "has_single_image": true,
       "has_video": true,
       "height": 576,
       "interlaced_frame": false,
       "metadata": {},
       "path": "@transitions/common/fade.svg",
       "pixel_format": -1,
       "pixel_ratio": {
        "den": 1,
        "num": 1
       },
       "sample_rate": 0,
       "top_field_first": true,
       "type": "QtImageReader",
       "vcodec": "",
       "video_bit_rate": 0,
       "video_length": "108000",
       "video_stream_index": -1,
       "video_timebase": {
        "den": 30,
        "num": 1
       },
       "width": 720
      },
      "replace_image": false,
      "id": "ED9VUNOGIJ"
     },
     {
      "layer": 3000000,
      "title": "Transition",
      "type": "Mask",
      "position": 171.36666666666667,
      "start": 0,
      "end": 0.9583333333333212,
      "brightness": {
       "Points": [
        {
         "co": {
          "X": 1.0,
          "Y": 1.0
         },
         "handle_left": {
          "X": 0.5,
          "Y": 1.0
         },
         "handle_right": {
          "X": 0.5,
          "Y": 0.0
         },
         "handle_type": 0,
         "interpolation": 0
        },
        {
         "co": {
          "X": 29.0,
          "Y": -1.0
         },
         "handle_left": {
          "X": 0.5,
          "Y": 1.0
         },
         "handle_right": {
          "X": 0.5,
          "Y": 0.0
         },
         "handle_type": 0,
         "interpolation": 0
        }
       ]
      },
      "contrast": {
       "Points": [
        {
         "co": {
          "X": 1.0,
          "Y": 3.0
         },
         "handle_left": {
          "X": 0.5,
          "Y": 1.0
         },
         "handle_right": {
          "X": 0.5,
          "Y": 0.0
         },
         "handle_type": 0,
         "interpolation": 0
        },
        {
         "co": {
          "X": 29.0,
          "Y": 3.0
         },
         "handle_left": {
          "X": 0.5,
          "Y": 1.0
         },
         "handle_right": {
          "X": 0.5,
          "Y": 0.0
         },
         "handle_type": 0,
         "interpolation": 0
        }
       ]
      },
      "reader": {
       "acodec": "",
       "audio_bit_rate": 0,
       "audio_stream_index": -1,
       "audio_timebase": {
        "den": 1,
        "num": 1
       },
       "channel_layout": 4,
       "channels": 0,
       "display_ratio": {
        "den": 4,
        "num": 5
       },
       "duration": 3600.0,
       "file_size": "5832000",
       "fps": {
        "den": 1,
        "num": 30
       },
       "has_audio": false,
       "has_single_image": true,
       "has_video": true,
       "height": 576,
       "interlaced_frame": false,
       "metadata": {},
       "path": "@transitions/common/fade.svg",
       "pixel_format": -1,
       "pixel_ratio": {
        "den": 1,
        "num": 1
       },
       "sample_rate": 0,
       "top_field_first": true,
       "type": "QtImageReader",
       "vcodec": "",
       "video_bit_rate": 0,
       "video_length": "108000",
       "video_stream_index": -1,
       "video_timebase": {
        "den": 30,
        "num": 1
       },
       "width": 720
      },
      "replace_image": false,
      "id": "5VBZGSOJG5"
     },
     {
      "layer": 3000000,
      "title": "Transition",
      "type": "Mask",
      "position": 176.86666666666667,
      "start": 0,
      "end": 0.9583333333333212,
      "brightness": {
       "Points": [
        {
         "co": {
          "X": 1.0,
          "Y": -1.0
         },
         "handle_left": {
          "X": 0.5,
          "Y": 1.0
         },
         "handle_right": {
          "X": 0.5,
          "Y": 0.0
         },
         "handle_type": 0,
         "interpolation": 0
        },
        {
         "co": {
          "X": 29.0,
          "Y": 1.0
         },
         "handle_left": {
          "X": 0.5,
          "Y": 1.0
         },
         "handle_right": {
          "X": 0.5,
          "Y": 0.0
         },
         "handle_type": 0,
         "interpolation": 0
        }
       ]
      },
      "contrast": {
       "Points": [
        {
         "co": {
          "X": 1.0,
          "Y": 3.0
         },
         "handle_left": {
          "X": 0.5,
          "Y": 1.0
         },
         "handle_right": {
          "X": 0.5,
          "Y": 0.0
         },
         "handle_type": 0,
         "interpolation": 0
        },
        {
         "co": {
          "X": 29.0,
          "Y": 3.0
         },
         "handle_left": {
          "X": 0.5,
          "Y": 1.0
         },
         "handle_right": {
          "X": 0.5,
          "Y": 0.0
         },
         "handle_type": 0,
         "interpolation": 0
        }
       ]
      },
      "reader": {
       "acodec": "",
       "audio_bit_rate": 0,
       "audio_stream_index": -1,
       "audio_timebase": {
        "den": 1,
        "num": 1
       },
       "channel_layout": 4,
       "channels": 0,
       "display_ratio": {
        "den": 4,
        "num": 5
       },
       "duration": 3600.0,
       "file_size": "5832000",
       "fps": {
        "den": 1,
        "num": 30
       },
       "has_audio": false,
       "has_single_image": true,
       "has_video": true,
       "height": 576,
       "interlaced_frame": false,
       "metadata": {},
       "path": "@transitions/common/fade.svg",
       "pixel_format": -1,
       "pixel_ratio": {
        "den": 1,
        "num": 1
       },
       "sample_rate": 0,
       "top_field_first": true,
       "type": "QtImageReader",
       "vcodec": "",
       "video_bit_rate": 0,
       "video_length": "108000",
       "video_stream_index": -1,
       "video_timebase": {
        "den": 30,
        "num": 1
       },
       "width": 720
      },
      "replace_image": false,
      "id": "8IG7CIW33F"
     },
     {
      "layer": 3000000,
      "title": "Transition",
      "type": "Mask",
      "position": 178.76666666666668,
      "start": 0,
      "end": 0.9583333333333212,
      "brightness": {
       "Points": [
        {
         "co": {
          "X": 1.0,
          "Y": 1.0
         },
         "handle_left": {
          "X": 0.5,
          "Y": 1.0
         },
         "handle_right": {
          "X": 0.5,
          "Y": 0.0
         },
         "handle_type": 0,
         "interpolation": 0
        },
        {
         "co": {
          "X": 29.0,
          "Y": -1.0
         },
         "handle_left": {
          "X": 0.5,
          "Y": 1.0
         },
         "handle_right": {
          "X": 0.5,
          "Y": 0.0
         },
         "handle_type": 0,
         "interpolation": 0
        }
       ]
      },
      "contrast": {
       "Points": [
        {
         "co": {
          "X": 1.0,
          "Y": 3.0
         },
         "handle_left": {
          "X": 0.5,
          "Y": 1.0
         },
         "handle_right": {
          "X": 0.5,
          "Y": 0.0
         },
         "handle_type": 0,
         "interpolation": 0
        },
        {
         "co": {
          "X": 29.0,
          "Y": 3.0
         },
         "handle_left": {
          "X": 0.5,
          "Y": 1.0
         },
         "handle_right": {
          "X": 0.5,
          "Y": 0.0
         },
         "handle_type": 0,
         "interpolation": 0
        }
       ]
      },
      "reader": {
       "acodec": "",
       "audio_bit_rate": 0,
       "audio_stream_index": -1,
       "audio_timebase": {
        "den": 1,
        "num": 1
       },
       "channel_layout": 4,
       "channels": 0,
       "display_ratio": {
        "den": 4,
        "num": 5
       },
       "duration": 3600.0,
       "file_size": "5832000",
       "fps": {
        "den": 1,
        "num": 30
       },
       "has_audio": false,
       "has_single_image": true,
       "has_video": true,
       "height": 576,
       "interlaced_frame": false,
       "metadata": {},
       "path": "@transitions/common/fade.svg",
       "pixel_format": -1,
       "pixel_ratio": {
        "den": 1,
        "num": 1
       },
       "sample_rate": 0,
       "top_field_first": true,
       "type": "QtImageReader",
       "vcodec": "",
       "video_bit_rate": 0,
       "video_length": "108000",
       "video_stream_index": -1,
       "video_timebase": {
        "den": 30,
        "num": 1
       },
       "width": 720
      },
      "replace_image": false,
      "id": "0ROA4SH20T"
     },
     {
      "layer": 3000000,
      "title": "Transition",
      "type": "Mask",
      "position": 184.9,
      "start": 0,
      "end": 0.9583333333333212,
      "brightness": {
       "Points": [
        {
         "co": {
          "X": 1.0,
          "Y": -1.0
         },
         "handle_left": {
          "X": 0.5,
          "Y": 1.0
         },
         "handle_right": {
          "X": 0.5,
          "Y": 0.0
         },
         "handle_type": 0,
         "interpolation": 0
        },
        {
         "co": {
          "X": 29.0,
          "Y": 1.0
         },
         "handle_left": {
          "X": 0.5,
          "Y": 1.0
         },
         "handle_right": {
          "X": 0.5,
          "Y": 0.0
         },
         "handle_type": 0,
         "interpolation": 0
        }
       ]
      },
      "contrast": {
       "Points": [
        {
         "co": {
          "X": 1.0,
          "Y": 3.0
         },
         "handle_left": {
          "X": 0.5,
          "Y": 1.0
         },
         "handle_right": {
          "X": 0.5,
          "Y": 0.0
         },
         "handle_type": 0,
         "interpolation": 0
        },
        {
         "co": {
          "X": 29.0,
          "Y": 3.0
         },
         "handle_left": {
          "X": 0.5,
          "Y": 1.0
         },
         "handle_right": {
          "X": 0.5,
          "Y": 0.0
         },
         "handle_type": 0,
         "interpolation": 0
        }
       ]
      },
      "reader": {
       "acodec": "",
       "audio_bit_rate": 0,
       "audio_stream_index": -1,
       "audio_timebase": {
        "den": 1,
        "num": 1
       },
       "channel_layout": 4,
       "channels": 0,
       "display_ratio": {
        "den": 4,
        "num": 5
       },
       "duration": 3600.0,
       "file_size": "5832000",
       "fps": {
        "den": 1,
        "num": 30
       },
       "has_audio": false,
       "has_single_image": true,
       "has_video": true,
       "height": 576,
       "interlaced_frame": false,
       "metadata": {},
       "path": "@transitions/common/fade.svg",
       "pixel_format": -1,
       "pixel_ratio": {
        "den": 1,
        "num": 1
       },
       "sample_rate": 0,
       "top_field_first": true,
       "type": "QtImageReader",
       "vcodec": "",
       "video_bit_rate": 0,
       "video_length": "108000",
       "video_stream_index": -1,
       "video_timebase": {
        "den": 30,
        "num": 1
       },
       "width": 720
      },
      "replace_image": false,
      "id": "EZA86GZMTM"
     },
     {
      "id": "F4A4DQ7U5X",
      "layer": 1000000,
      "title": "Transition",
      "type": "Mask",
      "position": 185.86666666666667,
      "start": 0,
      "end": 0.9000000000000057,
      "brightness": {
       "Points": [
        {
         "co": {
          "X": 1.0,
          "Y": 1.0
         },
         "handle_left": {
          "X": 0.5,
          "Y": 1.0
         },
         "handle_right": {
          "X": 0.5,
          "Y": 0.0
         },
         "handle_type": 0,
         "interpolation": 0
        },
        {
         "co": {
          "X": 28.0,
          "Y": -1.0
         },
         "handle_left": {
          "X": 0.5,
          "Y": 1.0
         },
         "handle_right": {
          "X": 0.5,
          "Y": 0.0
         },
         "handle_type": 0,
         "interpolation": 0
        }
       ]
      },
      "contrast": {
       "Points": [
        {
         "co": {
          "X": 1.0,
          "Y": 3.0
         },
         "handle_left": {
          "X": 0.5,
          "Y": 1.0
         },
         "handle_right": {
          "X": 0.5,
          "Y": 0.0
         },
         "handle_type": 0,
         "interpolation": 0
        }
       ]
      },
      "reader": {
       "acodec": "",
       "audio_bit_rate": 0,
       "audio_stream_index": -1,
       "audio_timebase": {
        "den": 1,
        "num": 1
       },
       "channel_layout": 4,
       "channels": 0,
       "display_ratio": {
        "den": 4,
        "num": 5
       },
       "duration": 3600.0,
       "file_size": "5832000",
       "fps": {
        "den": 1,
        "num": 30
       },
       "has_audio": false,
       "has_single_image": true,
       "has_video": true,
       "height": 576,
       "interlaced_frame": false,
       "metadata": {},
       "path": "@transitions/common/fade.svg",
       "pixel_format": -1,
       "pixel_ratio": {
        "den": 1,
        "num": 1
       },
       "sample_rate": 0,
       "top_field_first": true,
       "type": "QtImageReader",
       "vcodec": "",
       "video_bit_rate": 0,
       "video_length": "108000",
       "video_stream_index": -1,
       "video_timebase": {
        "den": 30,
        "num": 1
       },
       "width": 720
      },
      "replace_image": false
     },
     {
      "layer": 4000000,
      "title": "Transition",
      "type": "Mask",
      "position": 184.9,
      "start": 0,
      "end": 0.9583333333333212,
      "brightness": {
       "Points": [
        {
         "co": {
          "X": 1.0,
          "Y": -1.0
         },
         "handle_left": {
          "X": 0.5,
          "Y": 1.0
         },
         "handle_right": {
          "X": 0.5,
          "Y": 0.0
         },
         "handle_type": 0,
         "interpolation": 0
        },
        {
         "co": {
          "X": 29.0,
          "Y": 1.0
         },
         "handle_left": {
          "X": 0.5,
          "Y": 1.0
         },
         "handle_right": {
          "X": 0.5,
          "Y": 0.0
         },
         "handle_type": 0,
         "interpolation": 0
        }
       ]
      },
      "contrast": {
       "Points": [
        {
         "co": {
          "X": 1.0,
          "Y": 3.0
         },
         "handle_left": {
          "X": 0.5,
          "Y": 1.0
         },
         "handle_right": {
          "X": 0.5,
          "Y": 0.0
         },
         "handle_type": 0,
         "interpolation": 0
        },
        {
         "co": {
          "X": 29.0,
          "Y": 3.0
         },
         "handle_left": {
          "X": 0.5,
          "Y": 1.0
         },
         "handle_right": {
          "X": 0.5,
          "Y": 0.0
         },
         "handle_type": 0,
         "interpolation": 0
        }
       ]
      },
      "reader": {
       "acodec": "",
       "audio_bit_rate": 0,
       "audio_stream_index": -1,
       "audio_timebase": {
        "den": 1,
        "num": 1
       },
       "channel_layout": 4,
       "channels": 0,
       "display_ratio": {
        "den": 4,
        "num": 5
       },
       "duration": 3600.0,
       "file_size": "5832000",
       "fps": {
        "den": 1,
        "num": 30
       },
       "has_audio": false,
       "has_single_image": true,
       "has_video": true,
       "height": 576,
       "interlaced_frame": false,
       "metadata": {},
       "path": "@transitions/common/fade.svg",
       "pixel_format": -1,
       "pixel_ratio": {
        "den": 1,
        "num": 1
       },
       "sample_rate": 0,
       "top_field_first": true,
       "type": "QtImageReader",
       "vcodec": "",
       "video_bit_rate": 0,
       "video_length": "108000",
       "video_stream_index": -1,
       "video_timebase": {
        "den": 30,
        "num": 1
       },
       "width": 720
      },
      "replace_image": false,
      "id": "2ZYRXRS5AW"
     },
     {
      "layer": 4000000,
      "title": "Transition",
      "type": "Mask",
      "position": 186.63333333333333,
      "start": 0,
      "end": 0.9583333333333212,
      "brightness": {
       "Points": [
        {
         "co": {
          "X": 1.0,
          "Y": 1.0
         },
         "handle_left": {
          "X": 0.5,
          "Y": 1.0
         },
         "handle_right": {
          "X": 0.5,
          "Y": 0.0
         },
         "handle_type": 0,
         "interpolation": 0
        },
        {
         "co": {
          "X": 29.0,
          "Y": -1.0
         },
         "handle_left": {
          "X": 0.5,
          "Y": 1.0
         },
         "handle_right": {
          "X": 0.5,
          "Y": 0.0
         },
         "handle_type": 0,
         "interpolation": 0
        }
       ]
      },
      "contrast": {
       "Points": [
        {
         "co": {
          "X": 1.0,
          "Y": 3.0
         },
         "handle_left": {
          "X": 0.5,
          "Y": 1.0
         },
         "handle_right": {
          "X": 0.5,
          "Y": 0.0
         },
         "handle_type": 0,
         "interpolation": 0
        },
        {
         "co": {
          "X": 29.0,
          "Y": 3.0
         },
         "handle_left": {
          "X": 0.5,
          "Y": 1.0
         },
         "handle_right": {
          "X": 0.5,
          "Y": 0.0
         },
         "handle_type": 0,
         "interpolation": 0
        }
       ]
      },
      "reader": {
       "acodec": "",
       "audio_bit_rate": 0,
       "audio_stream_index": -1,
       "audio_timebase": {
        "den": 1,
        "num": 1
       },
       "channel_layout": 4,
       "channels": 0,
       "display_ratio": {
        "den": 4,
        "num": 5
       },
       "duration": 3600.0,
       "file_size": "5832000",
       "fps": {
        "den": 1,
        "num": 30
       },
       "has_audio": false,
       "has_single_image": true,
       "has_video": true,
       "height": 576,
       "interlaced_frame": false,
       "metadata": {},
       "path": "@transitions/common/fade.svg",
       "pixel_format": -1,
       "pixel_ratio": {
        "den": 1,
        "num": 1
       },
       "sample_rate": 0,
       "top_field_first": true,
       "type": "QtImageReader",
       "vcodec": "",
       "video_bit_rate": 0,
       "video_length": "108000",
       "video_stream_index": -1,
       "video_timebase": {
        "den": 30,
        "num": 1
       },
       "width": 720
      },
      "replace_image": false,
      "id": "Q9UGMHENC6"
     },
     {
      "layer": 3000000,
      "title": "Transition",
      "type": "Mask",
      "position": 191.86666666666667,
      "start": 0,
      "end": 0.9583333333333212,
      "brightness": {
       "Points": [
        {
         "co": {
          "X": 1.0,
          "Y": 1.0
         },
         "handle_left": {
          "X": 0.5,
          "Y": 1.0
         },
         "handle_right": {
          "X": 0.5,
          "Y": 0.0
         },
         "handle_type": 0,
         "interpolation": 0
        },
        {
         "co": {
          "X": 29.0,
          "Y": -1.0
         },
         "handle_left": {
          "X": 0.5,
          "Y": 1.0
         },
         "handle_right": {
          "X": 0.5,
          "Y": 0.0
         },
         "handle_type": 0,
         "interpolation": 0
        }
       ]
      },
      "contrast": {
       "Points": [
        {
         "co": {
          "X": 1.0,
          "Y": 3.0
         },
         "handle_left": {
          "X": 0.5,
          "Y": 1.0
         },
         "handle_right": {
          "X": 0.5,
          "Y": 0.0
         },
         "handle_type": 0,
         "interpolation": 0
        },
        {
         "co": {
          "X": 29.0,
          "Y": 3.0
         },
         "handle_left": {
          "X": 0.5,
          "Y": 1.0
         },
         "handle_right": {
          "X": 0.5,
          "Y": 0.0
         },
         "handle_type": 0,
         "interpolation": 0
        }
       ]
      },
      "reader": {
       "acodec": "",
       "audio_bit_rate": 0,
       "audio_stream_index": -1,
       "audio_timebase": {
        "den": 1,
        "num": 1
       },
       "channel_layout": 4,
       "channels": 0,
       "display_ratio": {
        "den": 4,
        "num": 5
       },
       "duration": 3600.0,
       "file_size": "5832000",
       "fps": {
        "den": 1,
        "num": 30
       },
       "has_audio": false,
       "has_single_image": true,
       "has_video": true,
       "height": 576,
       "interlaced_frame": false,
       "metadata": {},
       "path": "@transitions/common/fade.svg",
       "pixel_format": -1,
       "pixel_ratio": {
        "den": 1,
        "num": 1
       },
       "sample_rate": 0,
       "top_field_first": true,
       "type": "QtImageReader",
       "vcodec": "",
       "video_bit_rate": 0,
       "video_length": "108000",
       "video_stream_index": -1,
       "video_timebase": {
        "den": 30,
        "num": 1
       },
       "width": 720
      },
      "replace_image": false,
      "id": "G9LEMCYT5Q"
     },
     {
      "layer": 3000000,
      "title": "Transition",
      "type": "Mask",
      "position": 206.76666666666668,
      "start": 0,
      "end": 0.9583333333333212,
      "brightness": {
       "Points": [
        {
         "co": {
          "X": 1.0,
          "Y": -1.0
         },
         "handle_left": {
          "X": 0.5,
          "Y": 1.0
         },
         "handle_right": {
          "X": 0.5,
          "Y": 0.0
         },
         "handle_type": 0,
         "interpolation": 0
        },
        {
         "co": {
          "X": 29.0,
          "Y": 1.0
         },
         "handle_left": {
          "X": 0.5,
          "Y": 1.0
         },
         "handle_right": {
          "X": 0.5,
          "Y": 0.0
         },
         "handle_type": 0,
         "interpolation": 0
        }
       ]
      },
      "contrast": {
       "Points": [
        {
         "co": {
          "X": 1.0,
          "Y": 3.0
         },
         "handle_left": {
          "X": 0.5,
          "Y": 1.0
         },
         "handle_right": {
          "X": 0.5,
          "Y": 0.0
         },
         "handle_type": 0,
         "interpolation": 0
        },
        {
         "co": {
          "X": 29.0,
          "Y": 3.0
         },
         "handle_left": {
          "X": 0.5,
          "Y": 1.0
         },
         "handle_right": {
          "X": 0.5,
          "Y": 0.0
         },
         "handle_type": 0,
         "interpolation": 0
        }
       ]
      },
      "reader": {
       "acodec": "",
       "audio_bit_rate": 0,
       "audio_stream_index": -1,
       "audio_timebase": {
        "den": 1,
        "num": 1
       },
       "channel_layout": 4,
       "channels": 0,
       "display_ratio": {
        "den": 4,
        "num": 5
       },
       "duration": 3600.0,
       "file_size": "5832000",
       "fps": {
        "den": 1,
        "num": 30
       },
       "has_audio": false,
       "has_single_image": true,
       "has_video": true,
       "height": 576,
       "interlaced_frame": false,
       "metadata": {},
       "path": "@transitions/common/fade.svg",
       "pixel_format": -1,
       "pixel_ratio": {
        "den": 1,
        "num": 1
       },
       "sample_rate": 0,
       "top_field_first": true,
       "type": "QtImageReader",
       "vcodec": "",
       "video_bit_rate": 0,
       "video_length": "108000",
       "video_stream_index": -1,
       "video_timebase": {
        "den": 30,
        "num": 1
       },
       "width": 720
      },
      "replace_image": false,
      "id": "69Y42ETE8B"
     },
     {
      "layer": 3000000,
      "title": "Transition",
      "type": "Mask",
      "position": 199.83333333333334,
      "start": 0,
      "end": 0.9583333333333212,
      "brightness": {
       "Points": [
        {
         "co": {
          "X": 1.0,
          "Y": 1.0
         },
         "handle_left": {
          "X": 0.5,
          "Y": 1.0
         },
         "handle_right": {
          "X": 0.5,
          "Y": 0.0
         },
         "handle_type": 0,
         "interpolation": 0
        },
        {
         "co": {
          "X": 29.0,
          "Y": -1.0
         },
         "handle_left": {
          "X": 0.5,
          "Y": 1.0
         },
         "handle_right": {
          "X": 0.5,
          "Y": 0.0
         },
         "handle_type": 0,
         "interpolation": 0
        }
       ]
      },
      "contrast": {
       "Points": [
        {
         "co": {
          "X": 1.0,
          "Y": 3.0
         },
         "handle_left": {
          "X": 0.5,
          "Y": 1.0
         },
         "handle_right": {
          "X": 0.5,
          "Y": 0.0
         },
         "handle_type": 0,
         "interpolation": 0
        },
        {
         "co": {
          "X": 29.0,
          "Y": 3.0
         },
         "handle_left": {
          "X": 0.5,
          "Y": 1.0
         },
         "handle_right": {
          "X": 0.5,
          "Y": 0.0
         },
         "handle_type": 0,
         "interpolation": 0
        }
       ]
      },
      "reader": {
       "acodec": "",
       "audio_bit_rate": 0,
       "audio_stream_index": -1,
       "audio_timebase": {
        "den": 1,
        "num": 1
       },
       "channel_layout": 4,
       "channels": 0,
       "display_ratio": {
        "den": 4,
        "num": 5
       },
       "duration": 3600.0,
       "file_size": "5832000",
       "fps": {
        "den": 1,
        "num": 30
       },
       "has_audio": false,
       "has_single_image": true,
       "has_video": true,
       "height": 576,
       "interlaced_frame": false,
       "metadata": {},
       "path": "@transitions/common/fade.svg",
       "pixel_format": -1,
       "pixel_ratio": {
        "den": 1,
        "num": 1
       },
       "sample_rate": 0,
       "top_field_first": true,
       "type": "QtImageReader",
       "vcodec": "",
       "video_bit_rate": 0,
       "video_length": "108000",
       "video_stream_index": -1,
       "video_timebase": {
        "den": 30,
        "num": 1
       },
       "width": 720
      },
      "replace_image": false,
      "id": "LZDCN1H4RV"
     },
     {
      "layer": 3000000,
      "title": "Transition",
      "type": "Mask",
      "position": 209.83333333333334,
      "start": 0,
      "end": 0.9583333333333212,
      "brightness": {
       "Points": [
        {
         "co": {
          "X": 1.0,
          "Y": 1.0
         },
         "handle_left": {
          "X": 0.5,
          "Y": 1.0
         },
         "handle_right": {
          "X": 0.5,
          "Y": 0.0
         },
         "handle_type": 0,
         "interpolation": 0
        },
        {
         "co": {
          "X": 29.0,
          "Y": -1.0
         },
         "handle_left": {
          "X": 0.5,
          "Y": 1.0
         },
         "handle_right": {
          "X": 0.5,
          "Y": 0.0
         },
         "handle_type": 0,
         "interpolation": 0
        }
       ]
      },
      "contrast": {
       "Points": [
        {
         "co": {
          "X": 1.0,
          "Y": 3.0
         },
         "handle_left": {
          "X": 0.5,
          "Y": 1.0
         },
         "handle_right": {
          "X": 0.5,
          "Y": 0.0
         },
         "handle_type": 0,
         "interpolation": 0
        },
        {
         "co": {
          "X": 29.0,
          "Y": 3.0
         },
         "handle_left": {
          "X": 0.5,
          "Y": 1.0
         },
         "handle_right": {
          "X": 0.5,
          "Y": 0.0
         },
         "handle_type": 0,
         "interpolation": 0
        }
       ]
      },
      "reader": {
       "acodec": "",
       "audio_bit_rate": 0,
       "audio_stream_index": -1,
       "audio_timebase": {
        "den": 1,
        "num": 1
       },
       "channel_layout": 4,
       "channels": 0,
       "display_ratio": {
        "den": 4,
        "num": 5
       },
       "duration": 3600.0,
       "file_size": "5832000",
       "fps": {
        "den": 1,
        "num": 30
       },
       "has_audio": false,
       "has_single_image": true,
       "has_video": true,
       "height": 576,
       "interlaced_frame": false,
       "metadata": {},
       "path": "@transitions/common/fade.svg",
       "pixel_format": -1,
       "pixel_ratio": {
        "den": 1,
        "num": 1
       },
       "sample_rate": 0,
       "top_field_first": true,
       "type": "QtImageReader",
       "vcodec": "",
       "video_bit_rate": 0,
       "video_length": "108000",
       "video_stream_index": -1,
       "video_timebase": {
        "den": 30,
        "num": 1
       },
       "width": 720
      },
      "replace_image": false,
      "id": "58VK2RHQN2"
     },
     {
      "layer": 4000000,
      "title": "Transition",
      "type": "Mask",
      "position": 213.86666666666667,
      "start": 0,
      "end": 0.9583333333333212,
      "brightness": {
       "Points": [
        {
         "co": {
          "X": 1.0,
          "Y": -1.0
         },
         "handle_left": {
          "X": 0.5,
          "Y": 1.0
         },
         "handle_right": {
          "X": 0.5,
          "Y": 0.0
         },
         "handle_type": 0,
         "interpolation": 0
        },
        {
         "co": {
          "X": 29.0,
          "Y": 1.0
         },
         "handle_left": {
          "X": 0.5,
          "Y": 1.0
         },
         "handle_right": {
          "X": 0.5,
          "Y": 0.0
         },
         "handle_type": 0,
         "interpolation": 0
        }
       ]
      },
      "contrast": {
       "Points": [
        {
         "co": {
          "X": 1.0,
          "Y": 3.0
         },
         "handle_left": {
          "X": 0.5,
          "Y": 1.0
         },
         "handle_right": {
          "X": 0.5,
          "Y": 0.0
         },
         "handle_type": 0,
         "interpolation": 0
        },
        {
         "co": {
          "X": 29.0,
          "Y": 3.0
         },
         "handle_left": {
          "X": 0.5,
          "Y": 1.0
         },
         "handle_right": {
          "X": 0.5,
          "Y": 0.0
         },
         "handle_type": 0,
         "interpolation": 0
        }
       ]
      },
      "reader": {
       "acodec": "",
       "audio_bit_rate": 0,
       "audio_stream_index": -1,
       "audio_timebase": {
        "den": 1,
        "num": 1
       },
       "channel_layout": 4,
       "channels": 0,
       "display_ratio": {
        "den": 4,
        "num": 5
       },
       "duration": 3600.0,
       "file_size": "5832000",
       "fps": {
        "den": 1,
        "num": 30
       },
       "has_audio": false,
       "has_single_image": true,
       "has_video": true,
       "height": 576,
       "interlaced_frame": false,
       "metadata": {},
       "path": "@transitions/common/fade.svg",
       "pixel_format": -1,
       "pixel_ratio": {
        "den": 1,
        "num": 1
       },
       "sample_rate": 0,
       "top_field_first": true,
       "type": "QtImageReader",
       "vcodec": "",
       "video_bit_rate": 0,
       "video_length": "108000",
       "video_stream_index": -1,
       "video_timebase": {
        "den": 30,
        "num": 1
       },
       "width": 720
      },
      "replace_image": false,
      "id": "KWJRN4TR28"
     },
     {
      "layer": 3000000,
      "title": "Transition",
      "type": "Mask",
      "position": 213.86666666666667,
      "start": 0,
      "end": 0.9583333333333212,
      "brightness": {
       "Points": [
        {
         "co": {
          "X": 1.0,
          "Y": -1.0
         },
         "handle_left": {
          "X": 0.5,
          "Y": 1.0
         },
         "handle_right": {
          "X": 0.5,
          "Y": 0.0
         },
         "handle_type": 0,
         "interpolation": 0
        },
        {
         "co": {
          "X": 29.0,
          "Y": 1.0
         },
         "handle_left": {
          "X": 0.5,
          "Y": 1.0
         },
         "handle_right": {
          "X": 0.5,
          "Y": 0.0
         },
         "handle_type": 0,
         "interpolation": 0
        }
       ]
      },
      "contrast": {
       "Points": [
        {
         "co": {
          "X": 1.0,
          "Y": 3.0
         },
         "handle_left": {
          "X": 0.5,
          "Y": 1.0
         },
         "handle_right": {
          "X": 0.5,
          "Y": 0.0
         },
         "handle_type": 0,
         "interpolation": 0
        },
        {
         "co": {
          "X": 29.0,
          "Y": 3.0
         },
         "handle_left": {
          "X": 0.5,
          "Y": 1.0
         },
         "handle_right": {
          "X": 0.5,
          "Y": 0.0
         },
         "handle_type": 0,
         "interpolation": 0
        }
       ]
      },
      "reader": {
       "acodec": "",
       "audio_bit_rate": 0,
       "audio_stream_index": -1,
       "audio_timebase": {
        "den": 1,
        "num": 1
       },
       "channel_layout": 4,
       "channels": 0,
       "display_ratio": {
        "den": 4,
        "num": 5
       },
       "duration": 3600.0,
       "file_size": "5832000",
       "fps": {
        "den": 1,
        "num": 30
       },
       "has_audio": false,
       "has_single_image": true,
       "has_video": true,
       "height": 576,
       "interlaced_frame": false,
       "metadata": {},
       "path": "@transitions/common/fade.svg",
       "pixel_format": -1,
       "pixel_ratio": {
        "den": 1,
        "num": 1
       },
       "sample_rate": 0,
       "top_field_first": true,
       "type": "QtImageReader",
       "vcodec": "",
       "video_bit_rate": 0,
       "video_length": "108000",
       "video_stream_index": -1,
       "video_timebase": {
        "den": 30,
        "num": 1
       },
       "width": 720
      },
      "replace_image": false,
      "id": "29SVX90QJC"
     },
     {
      "layer": 3000000,
      "title": "Transition",
      "type": "Mask",
      "position": 216.8,
      "start": 0,
      "end": 0.9583333333333212,
      "brightness": {
       "Points": [
        {
         "co": {
          "X": 1.0,
          "Y": 1.0
         },
         "handle_left": {
          "X": 0.5,
          "Y": 1.0
         },
         "handle_right": {
          "X": 0.5,
          "Y": 0.0
         },
         "handle_type": 0,
         "interpolation": 0
        },
        {
         "co": {
          "X": 29.0,
          "Y": -1.0
         },
         "handle_left": {
          "X": 0.5,
          "Y": 1.0
         },
         "handle_right": {
          "X": 0.5,
          "Y": 0.0
         },
         "handle_type": 0,
         "interpolation": 0
        }
       ]
      },
      "contrast": {
       "Points": [
        {
         "co": {
          "X": 1.0,
          "Y": 3.0
         },
         "handle_left": {
          "X": 0.5,
          "Y": 1.0
         },
         "handle_right": {
          "X": 0.5,
          "Y": 0.0
         },
         "handle_type": 0,
         "interpolation": 0
        },
        {
         "co": {
          "X": 29.0,
          "Y": 3.0
         },
         "handle_left": {
          "X": 0.5,
          "Y": 1.0
         },
         "handle_right": {
          "X": 0.5,
          "Y": 0.0
         },
         "handle_type": 0,
         "interpolation": 0
        }
       ]
      },
      "reader": {
       "acodec": "",
       "audio_bit_rate": 0,
       "audio_stream_index": -1,
       "audio_timebase": {
        "den": 1,
        "num": 1
       },
       "channel_layout": 4,
       "channels": 0,
       "display_ratio": {
        "den": 4,
        "num": 5
       },
       "duration": 3600.0,
       "file_size": "5832000",
       "fps": {
        "den": 1,
        "num": 30
       },
       "has_audio": false,
       "has_single_image": true,
       "has_video": true,
       "height": 576,
       "interlaced_frame": false,
       "metadata": {},
       "path": "@transitions/common/fade.svg",
       "pixel_format": -1,
       "pixel_ratio": {
        "den": 1,
        "num": 1
       },
       "sample_rate": 0,
       "top_field_first": true,
       "type": "QtImageReader",
       "vcodec": "",
       "video_bit_rate": 0,
       "video_length": "108000",
       "video_stream_index": -1,
       "video_timebase": {
        "den": 30,
        "num": 1
       },
       "width": 720
      },
      "replace_image": false,
      "id": "QFKNEP6QJR"
     },
     {
      "layer": 3000000,
      "title": "Transition",
      "type": "Mask",
      "position": 223.9,
      "start": 0,
      "end": 0.9583333333333212,
      "brightness": {
       "Points": [
        {
         "co": {
          "X": 1.0,
          "Y": -1.0
         },
         "handle_left": {
          "X": 0.5,
          "Y": 1.0
         },
         "handle_right": {
          "X": 0.5,
          "Y": 0.0
         },
         "handle_type": 0,
         "interpolation": 0
        },
        {
         "co": {
          "X": 29.0,
          "Y": 1.0
         },
         "handle_left": {
          "X": 0.5,
          "Y": 1.0
         },
         "handle_right": {
          "X": 0.5,
          "Y": 0.0
         },
         "handle_type": 0,
         "interpolation": 0
        }
       ]
      },
      "contrast": {
       "Points": [
        {
         "co": {
          "X": 1.0,
          "Y": 3.0
         },
         "handle_left": {
          "X": 0.5,
          "Y": 1.0
         },
         "handle_right": {
          "X": 0.5,
          "Y": 0.0
         },
         "handle_type": 0,
         "interpolation": 0
        },
        {
         "co": {
          "X": 29.0,
          "Y": 3.0
         },
         "handle_left": {
          "X": 0.5,
          "Y": 1.0
         },
         "handle_right": {
          "X": 0.5,
          "Y": 0.0
         },
         "handle_type": 0,
         "interpolation": 0
        }
       ]
      },
      "reader": {
       "acodec": "",
       "audio_bit_rate": 0,
       "audio_stream_index": -1,
       "audio_timebase": {
        "den": 1,
        "num": 1
       },
       "channel_layout": 4,
       "channels": 0,
       "display_ratio": {
        "den": 4,
        "num": 5
       },
       "duration": 3600.0,
       "file_size": "5832000",
       "fps": {
        "den": 1,
        "num": 30
       },
       "has_audio": false,
       "has_single_image": true,
       "has_video": true,
       "height": 576,
       "interlaced_frame": false,
       "metadata": {},
       "path": "@transitions/common/fade.svg",
       "pixel_format": -1,
       "pixel_ratio": {
        "den": 1,
        "num": 1
       },
       "sample_rate": 0,
       "top_field_first": true,
       "type": "QtImageReader",
       "vcodec": "",
       "video_bit_rate": 0,
       "video_length": "108000",
       "video_stream_index": -1,
       "video_timebase": {
        "den": 30,
        "num": 1
       },
       "width": 720
      },
      "replace_image": false,
      "id": "KN6FJL1V3A"
     },
     {
      "id": "4AUCOQ0YNI",
      "layer": 1000000,
      "title": "Transition",
      "type": "Mask",
      "position": 214.36666666666667,
      "start": 0,
      "end": 0.9000000000000057,
      "brightness": {
       "Points": [
        {
         "co": {
          "X": 1.0,
          "Y": 1.0
         },
         "handle_left": {
          "X": 0.5,
          "Y": 1.0
         },
         "handle_right": {
          "X": 0.5,
          "Y": 0.0
         },
         "handle_type": 0,
         "interpolation": 0
        },
        {
         "co": {
          "X": 28.0,
          "Y": -1.0
         },
         "handle_left": {
          "X": 0.5,
          "Y": 1.0
         },
         "handle_right": {
          "X": 0.5,
          "Y": 0.0
         },
         "handle_type": 0,
         "interpolation": 0
        }
       ]
      },
      "contrast": {
       "Points": [
        {
         "co": {
          "X": 1.0,
          "Y": 3.0
         },
         "handle_left": {
          "X": 0.5,
          "Y": 1.0
         },
         "handle_right": {
          "X": 0.5,
          "Y": 0.0
         },
         "handle_type": 0,
         "interpolation": 0
        }
       ]
      },
      "reader": {
       "acodec": "",
       "audio_bit_rate": 0,
       "audio_stream_index": -1,
       "audio_timebase": {
        "den": 1,
        "num": 1
       },
       "channel_layout": 4,
       "channels": 0,
       "display_ratio": {
        "den": 4,
        "num": 5
       },
       "duration": 3600.0,
       "file_size": "5832000",
       "fps": {
        "den": 1,
        "num": 30
       },
       "has_audio": false,
       "has_single_image": true,
       "has_video": true,
       "height": 576,
       "interlaced_frame": false,
       "metadata": {},
       "path": "@transitions/common/fade.svg",
       "pixel_format": -1,
       "pixel_ratio": {
        "den": 1,
        "num": 1
       },
       "sample_rate": 0,
       "top_field_first": true,
       "type": "QtImageReader",
       "vcodec": "",
       "video_bit_rate": 0,
       "video_length": "108000",
       "video_stream_index": -1,
       "video_timebase": {
        "den": 30,
        "num": 1
       },
       "width": 720
      },
      "replace_image": false
     },
     {
      "id": "F0RIV30JL4",
      "layer": 1000000,
      "title": "Transition",
      "type": "Mask",
      "position": 225.93333333333334,
      "start": 0,
      "end": 1.8666666666666458,
      "brightness": {
       "Points": [
        {
         "co": {
          "X": 1.0,
          "Y": 1.0
         },
         "handle_left": {
          "X": 0.5,
          "Y": 1.0
         },
         "handle_right": {
          "X": 0.5,
          "Y": 0.0
         },
         "handle_type": 0,
         "interpolation": 0
        },
        {
         "co": {
          "X": 57.0,
          "Y": -1.0
         },
         "handle_left": {
          "X": 0.5,
          "Y": 1.0
         },
         "handle_right": {
          "X": 0.5,
          "Y": 0.0
         },
         "handle_type": 0,
         "interpolation": 0
        }
       ]
      },
      "contrast": {
       "Points": [
        {
         "co": {
          "X": 1.0,
          "Y": 3.0
         },
         "handle_left": {
          "X": 0.5,
          "Y": 1.0
         },
         "handle_right": {
          "X": 0.5,
          "Y": 0.0
         },
         "handle_type": 0,
         "interpolation": 0
        }
       ]
      },
      "reader": {
       "acodec": "",
       "audio_bit_rate": 0,
       "audio_stream_index": -1,
       "audio_timebase": {
        "den": 1,
        "num": 1
       },
       "channel_layout": 4,
       "channels": 0,
       "display_ratio": {
        "den": 4,
        "num": 5
       },
       "duration": 3600.0,
       "file_size": "5832000",
       "fps": {
        "den": 1,
        "num": 30
       },
       "has_audio": false,
       "has_single_image": true,
       "has_video": true,
       "height": 576,
       "interlaced_frame": false,
       "metadata": {},
       "path": "@transitions/common/fade.svg",
       "pixel_format": -1,
       "pixel_ratio": {
        "den": 1,
        "num": 1
       },
       "sample_rate": 0,
       "top_field_first": true,
       "type": "QtImageReader",
       "vcodec": "",
       "video_bit_rate": 0,
       "video_length": "108000",
       "video_stream_index": -1,
       "video_timebase": {
        "den": 30,
        "num": 1
       },
       "width": 720
      },
      "replace_image": false
     },
     {
      "layer": 3000000,
      "title": "Transition",
      "type": "Mask",
      "position": 197.1,
      "start": 0,
      "end": 0.9583333333333212,
      "brightness": {
       "Points": [
        {
         "co": {
          "X": 1.0,
          "Y": -1.0
         },
         "handle_left": {
          "X": 0.5,
          "Y": 1.0
         },
         "handle_right": {
          "X": 0.5,
          "Y": 0.0
         },
         "handle_type": 0,
         "interpolation": 0
        },
        {
         "co": {
          "X": 29.0,
          "Y": 1.0
         },
         "handle_left": {
          "X": 0.5,
          "Y": 1.0
         },
         "handle_right": {
          "X": 0.5,
          "Y": 0.0
         },
         "handle_type": 0,
         "interpolation": 0
        }
       ]
      },
      "contrast": {
       "Points": [
        {
         "co": {
          "X": 1.0,
          "Y": 3.0
         },
         "handle_left": {
          "X": 0.5,
          "Y": 1.0
         },
         "handle_right": {
          "X": 0.5,
          "Y": 0.0
         },
         "handle_type": 0,
         "interpolation": 0
        },
        {
         "co": {
          "X": 29.0,
          "Y": 3.0
         },
         "handle_left": {
          "X": 0.5,
          "Y": 1.0
         },
         "handle_right": {
          "X": 0.5,
          "Y": 0.0
         },
         "handle_type": 0,
         "interpolation": 0
        }
       ]
      },
      "reader": {
       "acodec": "",
       "audio_bit_rate": 0,
       "audio_stream_index": -1,
       "audio_timebase": {
        "den": 1,
        "num": 1
       },
       "channel_layout": 4,
       "channels": 0,
       "display_ratio": {
        "den": 4,
        "num": 5
       },
       "duration": 3600.0,
       "file_size": "5832000",
       "fps": {
        "den": 1,
        "num": 30
       },
       "has_audio": false,
       "has_single_image": true,
       "has_video": true,
       "height": 576,
       "interlaced_frame": false,
       "metadata": {},
       "path": "@transitions/common/fade.svg",
       "pixel_format": -1,
       "pixel_ratio": {
        "den": 1,
        "num": 1
       },
       "sample_rate": 0,
       "top_field_first": true,
       "type": "QtImageReader",
       "vcodec": "",
       "video_bit_rate": 0,
       "video_length": "108000",
       "video_stream_index": -1,
       "video_timebase": {
        "den": 30,
        "num": 1
       },
       "width": 720
      },
      "replace_image": false,
      "id": "WEB2RAE0H3"
     },
     {
      "layer": 2000000,
      "title": "Transition",
      "type": "Mask",
      "position": 228.73333333333332,
      "start": 0,
      "end": 0.9583333333333212,
      "brightness": {
       "Points": [
        {
         "co": {
          "X": 1.0,
          "Y": 1.0
         },
         "handle_left": {
          "X": 0.5,
          "Y": 1.0
         },
         "handle_right": {
          "X": 0.5,
          "Y": 0.0
         },
         "handle_type": 0,
         "interpolation": 0
        },
        {
         "co": {
          "X": 29.0,
          "Y": -1.0
         },
         "handle_left": {
          "X": 0.5,
          "Y": 1.0
         },
         "handle_right": {
          "X": 0.5,
          "Y": 0.0
         },
         "handle_type": 0,
         "interpolation": 0
        }
       ]
      },
      "contrast": {
       "Points": [
        {
         "co": {
          "X": 1.0,
          "Y": 3.0
         },
         "handle_left": {
          "X": 0.5,
          "Y": 1.0
         },
         "handle_right": {
          "X": 0.5,
          "Y": 0.0
         },
         "handle_type": 0,
         "interpolation": 0
        },
        {
         "co": {
          "X": 29.0,
          "Y": 3.0
         },
         "handle_left": {
          "X": 0.5,
          "Y": 1.0
         },
         "handle_right": {
          "X": 0.5,
          "Y": 0.0
         },
         "handle_type": 0,
         "interpolation": 0
        }
       ]
      },
      "reader": {
       "acodec": "",
       "audio_bit_rate": 0,
       "audio_stream_index": -1,
       "audio_timebase": {
        "den": 1,
        "num": 1
       },
       "channel_layout": 4,
       "channels": 0,
       "display_ratio": {
        "den": 4,
        "num": 5
       },
       "duration": 3600.0,
       "file_size": "5832000",
       "fps": {
        "den": 1,
        "num": 30
       },
       "has_audio": false,
       "has_single_image": true,
       "has_video": true,
       "height": 576,
       "interlaced_frame": false,
       "metadata": {},
       "path": "@transitions/common/fade.svg",
       "pixel_format": -1,
       "pixel_ratio": {
        "den": 1,
        "num": 1
       },
       "sample_rate": 0,
       "top_field_first": true,
       "type": "QtImageReader",
       "vcodec": "",
       "video_bit_rate": 0,
       "video_length": "108000",
       "video_stream_index": -1,
       "video_timebase": {
        "den": 30,
        "num": 1
       },
       "width": 720
      },
      "replace_image": false,
      "id": "AYWJNQ9Z2M"
     },
     {
      "layer": 2000000,
      "title": "Transition",
      "type": "Mask",
      "position": 241.23333333333332,
      "start": 0,
      "end": 0.9583333333333212,
      "brightness": {
       "Points": [
        {
         "co": {
          "X": 1.0,
          "Y": 1.0
         },
         "handle_left": {
          "X": 0.5,
          "Y": 1.0
         },
         "handle_right": {
          "X": 0.5,
          "Y": 0.0
         },
         "handle_type": 0,
         "interpolation": 0
        },
        {
         "co": {
          "X": 29.0,
          "Y": -1.0
         },
         "handle_left": {
          "X": 0.5,
          "Y": 1.0
         },
         "handle_right": {
          "X": 0.5,
          "Y": 0.0
         },
         "handle_type": 0,
         "interpolation": 0
        }
       ]
      },
      "contrast": {
       "Points": [
        {
         "co": {
          "X": 1.0,
          "Y": 3.0
         },
         "handle_left": {
          "X": 0.5,
          "Y": 1.0
         },
         "handle_right": {
          "X": 0.5,
          "Y": 0.0
         },
         "handle_type": 0,
         "interpolation": 0
        },
        {
         "co": {
          "X": 29.0,
          "Y": 3.0
         },
         "handle_left": {
          "X": 0.5,
          "Y": 1.0
         },
         "handle_right": {
          "X": 0.5,
          "Y": 0.0
         },
         "handle_type": 0,
         "interpolation": 0
        }
       ]
      },
      "reader": {
       "acodec": "",
       "audio_bit_rate": 0,
       "audio_stream_index": -1,
       "audio_timebase": {
        "den": 1,
        "num": 1
       },
       "channel_layout": 4,
       "channels": 0,
       "display_ratio": {
        "den": 4,
        "num": 5
       },
       "duration": 3600.0,
       "file_size": "5832000",
       "fps": {
        "den": 1,
        "num": 30
       },
       "has_audio": false,
       "has_single_image": true,
       "has_video": true,
       "height": 576,
       "interlaced_frame": false,
       "metadata": {},
       "path": "@transitions/common/fade.svg",
       "pixel_format": -1,
       "pixel_ratio": {
        "den": 1,
        "num": 1
       },
       "sample_rate": 0,
       "top_field_first": true,
       "type": "QtImageReader",
       "vcodec": "",
       "video_bit_rate": 0,
       "video_length": "108000",
       "video_stream_index": -1,
       "video_timebase": {
        "den": 30,
        "num": 1
       },
       "width": 720
      },
      "replace_image": false,
      "id": "RZBAESHWWX"
     },
     {
      "layer": 2000000,
      "title": "Transition",
      "type": "Mask",
      "position": 245.76666666666668,
      "start": 0,
      "end": 0.9583333333333212,
      "brightness": {
       "Points": [
        {
         "co": {
          "X": 1.0,
          "Y": -1.0
         },
         "handle_left": {
          "X": 0.5,
          "Y": 1.0
         },
         "handle_right": {
          "X": 0.5,
          "Y": 0.0
         },
         "handle_type": 0,
         "interpolation": 0
        },
        {
         "co": {
          "X": 29.0,
          "Y": 1.0
         },
         "handle_left": {
          "X": 0.5,
          "Y": 1.0
         },
         "handle_right": {
          "X": 0.5,
          "Y": 0.0
         },
         "handle_type": 0,
         "interpolation": 0
        }
       ]
      },
      "contrast": {
       "Points": [
        {
         "co": {
          "X": 1.0,
          "Y": 3.0
         },
         "handle_left": {
          "X": 0.5,
          "Y": 1.0
         },
         "handle_right": {
          "X": 0.5,
          "Y": 0.0
         },
         "handle_type": 0,
         "interpolation": 0
        },
        {
         "co": {
          "X": 29.0,
          "Y": 3.0
         },
         "handle_left": {
          "X": 0.5,
          "Y": 1.0
         },
         "handle_right": {
          "X": 0.5,
          "Y": 0.0
         },
         "handle_type": 0,
         "interpolation": 0
        }
       ]
      },
      "reader": {
       "acodec": "",
       "audio_bit_rate": 0,
       "audio_stream_index": -1,
       "audio_timebase": {
        "den": 1,
        "num": 1
       },
       "channel_layout": 4,
       "channels": 0,
       "display_ratio": {
        "den": 4,
        "num": 5
       },
       "duration": 3600.0,
       "file_size": "5832000",
       "fps": {
        "den": 1,
        "num": 30
       },
       "has_audio": false,
       "has_single_image": true,
       "has_video": true,
       "height": 576,
       "interlaced_frame": false,
       "metadata": {},
       "path": "@transitions/common/fade.svg",
       "pixel_format": -1,
       "pixel_ratio": {
        "den": 1,
        "num": 1
       },
       "sample_rate": 0,
       "top_field_first": true,
       "type": "QtImageReader",
       "vcodec": "",
       "video_bit_rate": 0,
       "video_length": "108000",
       "video_stream_index": -1,
       "video_timebase": {
        "den": 30,
        "num": 1
       },
       "width": 720
      },
      "replace_image": false,
      "id": "2HTULU3R5M"
     },
     {
      "layer": 3000000,
      "title": "Transition",
      "type": "Mask",
      "position": 227.1,
      "start": 0,
      "end": 0.9583333333333212,
      "brightness": {
       "Points": [
        {
         "co": {
          "X": 1.0,
          "Y": 1.0
         },
         "handle_left": {
          "X": 0.5,
          "Y": 1.0
         },
         "handle_right": {
          "X": 0.5,
          "Y": 0.0
         },
         "handle_type": 0,
         "interpolation": 0
        },
        {
         "co": {
          "X": 29.0,
          "Y": -1.0
         },
         "handle_left": {
          "X": 0.5,
          "Y": 1.0
         },
         "handle_right": {
          "X": 0.5,
          "Y": 0.0
         },
         "handle_type": 0,
         "interpolation": 0
        }
       ]
      },
      "contrast": {
       "Points": [
        {
         "co": {
          "X": 1.0,
          "Y": 3.0
         },
         "handle_left": {
          "X": 0.5,
          "Y": 1.0
         },
         "handle_right": {
          "X": 0.5,
          "Y": 0.0
         },
         "handle_type": 0,
         "interpolation": 0
        },
        {
         "co": {
          "X": 29.0,
          "Y": 3.0
         },
         "handle_left": {
          "X": 0.5,
          "Y": 1.0
         },
         "handle_right": {
          "X": 0.5,
          "Y": 0.0
         },
         "handle_type": 0,
         "interpolation": 0
        }
       ]
      },
      "reader": {
       "acodec": "",
       "audio_bit_rate": 0,
       "audio_stream_index": -1,
       "audio_timebase": {
        "den": 1,
        "num": 1
       },
       "channel_layout": 4,
       "channels": 0,
       "display_ratio": {
        "den": 4,
        "num": 5
       },
       "duration": 3600.0,
       "file_size": "5832000",
       "fps": {
        "den": 1,
        "num": 30
       },
       "has_audio": false,
       "has_single_image": true,
       "has_video": true,
       "height": 576,
       "interlaced_frame": false,
       "metadata": {},
       "path": "@transitions/common/fade.svg",
       "pixel_format": -1,
       "pixel_ratio": {
        "den": 1,
        "num": 1
       },
       "sample_rate": 0,
       "top_field_first": true,
       "type": "QtImageReader",
       "vcodec": "",
       "video_bit_rate": 0,
       "video_length": "108000",
       "video_stream_index": -1,
       "video_timebase": {
        "den": 30,
        "num": 1
       },
       "width": 720
      },
      "replace_image": false,
      "id": "F3SI4HCMCD"
     },
     {
      "layer": 2000000,
      "title": "Transition",
      "type": "Mask",
      "position": 236.23333333333332,
      "start": 0,
      "end": 0.9583333333333212,
      "brightness": {
       "Points": [
        {
         "co": {
          "X": 1.0,
          "Y": -1.0
         },
         "handle_left": {
          "X": 0.5,
          "Y": 1.0
         },
         "handle_right": {
          "X": 0.5,
          "Y": 0.0
         },
         "handle_type": 0,
         "interpolation": 0
        },
        {
         "co": {
          "X": 29.0,
          "Y": 1.0
         },
         "handle_left": {
          "X": 0.5,
          "Y": 1.0
         },
         "handle_right": {
          "X": 0.5,
          "Y": 0.0
         },
         "handle_type": 0,
         "interpolation": 0
        }
       ]
      },
      "contrast": {
       "Points": [
        {
         "co": {
          "X": 1.0,
          "Y": 3.0
         },
         "handle_left": {
          "X": 0.5,
          "Y": 1.0
         },
         "handle_right": {
          "X": 0.5,
          "Y": 0.0
         },
         "handle_type": 0,
         "interpolation": 0
        },
        {
         "co": {
          "X": 29.0,
          "Y": 3.0
         },
         "handle_left": {
          "X": 0.5,
          "Y": 1.0
         },
         "handle_right": {
          "X": 0.5,
          "Y": 0.0
         },
         "handle_type": 0,
         "interpolation": 0
        }
       ]
      },
      "reader": {
       "acodec": "",
       "audio_bit_rate": 0,
       "audio_stream_index": -1,
       "audio_timebase": {
        "den": 1,
        "num": 1
       },
       "channel_layout": 4,
       "channels": 0,
       "display_ratio": {
        "den": 4,
        "num": 5
       },
       "duration": 3600.0,
       "file_size": "5832000",
       "fps": {
        "den": 1,
        "num": 30
       },
       "has_audio": false,
       "has_single_image": true,
       "has_video": true,
       "height": 576,
       "interlaced_frame": false,
       "metadata": {},
       "path": "@transitions/common/fade.svg",
       "pixel_format": -1,
       "pixel_ratio": {
        "den": 1,
        "num": 1
       },
       "sample_rate": 0,
       "top_field_first": true,
       "type": "QtImageReader",
       "vcodec": "",
       "video_bit_rate": 0,
       "video_length": "108000",
       "video_stream_index": -1,
       "video_timebase": {
        "den": 30,
        "num": 1
       },
       "width": 720
      },
      "replace_image": false,
      "id": "5PQMVVOG5H"
     },
     {
      "id": "Z4SN9YM3FC",
      "layer": 1000000,
      "title": "Transition",
      "type": "Mask",
      "position": 248.8,
      "start": 0,
      "end": 1.1999999999999886,
      "brightness": {
       "Points": [
        {
         "co": {
          "X": 1.0,
          "Y": 1.0
         },
         "handle_left": {
          "X": 0.5,
          "Y": 1.0
         },
         "handle_right": {
          "X": 0.5,
          "Y": 0.0
         },
         "handle_type": 0,
         "interpolation": 0
        },
        {
         "co": {
          "X": 37.0,
          "Y": -1.0
         },
         "handle_left": {
          "X": 0.5,
          "Y": 1.0
         },
         "handle_right": {
          "X": 0.5,
          "Y": 0.0
         },
         "handle_type": 0,
         "interpolation": 0
        }
       ]
      },
      "contrast": {
       "Points": [
        {
         "co": {
          "X": 1.0,
          "Y": 3.0
         },
         "handle_left": {
          "X": 0.5,
          "Y": 1.0
         },
         "handle_right": {
          "X": 0.5,
          "Y": 0.0
         },
         "handle_type": 0,
         "interpolation": 0
        }
       ]
      },
      "reader": {
       "acodec": "",
       "audio_bit_rate": 0,
       "audio_stream_index": -1,
       "audio_timebase": {
        "den": 1,
        "num": 1
       },
       "channel_layout": 4,
       "channels": 0,
       "display_ratio": {
        "den": 4,
        "num": 5
       },
       "duration": 3600.0,
       "file_size": "5832000",
       "fps": {
        "den": 1,
        "num": 30
       },
       "has_audio": false,
       "has_single_image": true,
       "has_video": true,
       "height": 576,
       "interlaced_frame": false,
       "metadata": {},
       "path": "@transitions/common/fade.svg",
       "pixel_format": -1,
       "pixel_ratio": {
        "den": 1,
        "num": 1
       },
       "sample_rate": 0,
       "top_field_first": true,
       "type": "QtImageReader",
       "vcodec": "",
       "video_bit_rate": 0,
       "video_length": "108000",
       "video_stream_index": -1,
       "video_timebase": {
        "den": 30,
        "num": 1
       },
       "width": 720
      },
      "replace_image": false
     },
     {
      "layer": 3000000,
      "title": "Transition",
      "type": "Mask",
      "position": 248.8,
      "start": 0,
      "end": 0.9583333333333212,
      "brightness": {
       "Points": [
        {
         "co": {
          "X": 1.0,
          "Y": 1.0
         },
         "handle_left": {
          "X": 0.5,
          "Y": 1.0
         },
         "handle_right": {
          "X": 0.5,
          "Y": 0.0
         },
         "handle_type": 0,
         "interpolation": 0
        },
        {
         "co": {
          "X": 29.0,
          "Y": -1.0
         },
         "handle_left": {
          "X": 0.5,
          "Y": 1.0
         },
         "handle_right": {
          "X": 0.5,
          "Y": 0.0
         },
         "handle_type": 0,
         "interpolation": 0
        }
       ]
      },
      "contrast": {
       "Points": [
        {
         "co": {
          "X": 1.0,
          "Y": 3.0
         },
         "handle_left": {
          "X": 0.5,
          "Y": 1.0
         },
         "handle_right": {
          "X": 0.5,
          "Y": 0.0
         },
         "handle_type": 0,
         "interpolation": 0
        },
        {
         "co": {
          "X": 29.0,
          "Y": 3.0
         },
         "handle_left": {
          "X": 0.5,
          "Y": 1.0
         },
         "handle_right": {
          "X": 0.5,
          "Y": 0.0
         },
         "handle_type": 0,
         "interpolation": 0
        }
       ]
      },
      "reader": {
       "acodec": "",
       "audio_bit_rate": 0,
       "audio_stream_index": -1,
       "audio_timebase": {
        "den": 1,
        "num": 1
       },
       "channel_layout": 4,
       "channels": 0,
       "display_ratio": {
        "den": 4,
        "num": 5
       },
       "duration": 3600.0,
       "file_size": "5832000",
       "fps": {
        "den": 1,
        "num": 30
       },
       "has_audio": false,
       "has_single_image": true,
       "has_video": true,
       "height": 576,
       "interlaced_frame": false,
       "metadata": {},
       "path": "@transitions/common/fade.svg",
       "pixel_format": -1,
       "pixel_ratio": {
        "den": 1,
        "num": 1
       },
       "sample_rate": 0,
       "top_field_first": true,
       "type": "QtImageReader",
       "vcodec": "",
       "video_bit_rate": 0,
       "video_length": "108000",
       "video_stream_index": -1,
       "video_timebase": {
        "den": 30,
        "num": 1
       },
       "width": 720
      },
      "replace_image": false,
      "id": "TQC41VZ6RB"
     },
     {
      "layer": 3000000,
      "title": "Transition",
      "type": "Mask",
      "position": 245.76666666666668,
      "start": 0,
      "end": 0.9583333333333212,
      "brightness": {
       "Points": [
        {
         "co": {
          "X": 1.0,
          "Y": -1.0
         },
         "handle_left": {
          "X": 0.5,
          "Y": 1.0
         },
         "handle_right": {
          "X": 0.5,
          "Y": 0.0
         },
         "handle_type": 0,
         "interpolation": 0
        },
        {
         "co": {
          "X": 29.0,
          "Y": 1.0
         },
         "handle_left": {
          "X": 0.5,
          "Y": 1.0
         },
         "handle_right": {
          "X": 0.5,
          "Y": 0.0
         },
         "handle_type": 0,
         "interpolation": 0
        }
       ]
      },
      "contrast": {
       "Points": [
        {
         "co": {
          "X": 1.0,
          "Y": 3.0
         },
         "handle_left": {
          "X": 0.5,
          "Y": 1.0
         },
         "handle_right": {
          "X": 0.5,
          "Y": 0.0
         },
         "handle_type": 0,
         "interpolation": 0
        },
        {
         "co": {
          "X": 29.0,
          "Y": 3.0
         },
         "handle_left": {
          "X": 0.5,
          "Y": 1.0
         },
         "handle_right": {
          "X": 0.5,
          "Y": 0.0
         },
         "handle_type": 0,
         "interpolation": 0
        }
       ]
      },
      "reader": {
       "acodec": "",
       "audio_bit_rate": 0,
       "audio_stream_index": -1,
       "audio_timebase": {
        "den": 1,
        "num": 1
       },
       "channel_layout": 4,
       "channels": 0,
       "display_ratio": {
        "den": 4,
        "num": 5
       },
       "duration": 3600.0,
       "file_size": "5832000",
       "fps": {
        "den": 1,
        "num": 30
       },
       "has_audio": false,
       "has_single_image": true,
       "has_video": true,
       "height": 576,
       "interlaced_frame": false,
       "metadata": {},
       "path": "@transitions/common/fade.svg",
       "pixel_format": -1,
       "pixel_ratio": {
        "den": 1,
        "num": 1
       },
       "sample_rate": 0,
       "top_field_first": true,
       "type": "QtImageReader",
       "vcodec": "",
       "video_bit_rate": 0,
       "video_length": "108000",
       "video_stream_index": -1,
       "video_timebase": {
        "den": 30,
        "num": 1
       },
       "width": 720
      },
      "replace_image": false,
      "id": "X3YMVVAX5I"
     },
     {
      "layer": 2000000,
      "title": "Transition",
      "type": "Mask",
      "position": 250.66666666666666,
      "start": 0,
      "end": 0.9583333333333212,
      "brightness": {
       "Points": [
        {
         "co": {
          "X": 1.0,
          "Y": 1.0
         },
         "handle_left": {
          "X": 0.5,
          "Y": 1.0
         },
         "handle_right": {
          "X": 0.5,
          "Y": 0.0
         },
         "handle_type": 0,
         "interpolation": 0
        },
        {
         "co": {
          "X": 29.0,
          "Y": -1.0
         },
         "handle_left": {
          "X": 0.5,
          "Y": 1.0
         },
         "handle_right": {
          "X": 0.5,
          "Y": 0.0
         },
         "handle_type": 0,
         "interpolation": 0
        }
       ]
      },
      "contrast": {
       "Points": [
        {
         "co": {
          "X": 1.0,
          "Y": 3.0
         },
         "handle_left": {
          "X": 0.5,
          "Y": 1.0
         },
         "handle_right": {
          "X": 0.5,
          "Y": 0.0
         },
         "handle_type": 0,
         "interpolation": 0
        },
        {
         "co": {
          "X": 29.0,
          "Y": 3.0
         },
         "handle_left": {
          "X": 0.5,
          "Y": 1.0
         },
         "handle_right": {
          "X": 0.5,
          "Y": 0.0
         },
         "handle_type": 0,
         "interpolation": 0
        }
       ]
      },
      "reader": {
       "acodec": "",
       "audio_bit_rate": 0,
       "audio_stream_index": -1,
       "audio_timebase": {
        "den": 1,
        "num": 1
       },
       "channel_layout": 4,
       "channels": 0,
       "display_ratio": {
        "den": 4,
        "num": 5
       },
       "duration": 3600.0,
       "file_size": "5832000",
       "fps": {
        "den": 1,
        "num": 30
       },
       "has_audio": false,
       "has_single_image": true,
       "has_video": true,
       "height": 576,
       "interlaced_frame": false,
       "metadata": {},
       "path": "@transitions/common/fade.svg",
       "pixel_format": -1,
       "pixel_ratio": {
        "den": 1,
        "num": 1
       },
       "sample_rate": 0,
       "top_field_first": true,
       "type": "QtImageReader",
       "vcodec": "",
       "video_bit_rate": 0,
       "video_length": "108000",
       "video_stream_index": -1,
       "video_timebase": {
        "den": 30,
        "num": 1
       },
       "width": 720
      },
      "replace_image": false,
      "id": "NZV4OM49PR"
     },
     {
      "layer": 2000000,
      "title": "Transition",
      "type": "Mask",
      "position": 256.4,
      "start": 0,
      "end": 0.9583333333333212,
      "brightness": {
       "Points": [
        {
         "co": {
          "X": 1.0,
          "Y": -1.0
         },
         "handle_left": {
          "X": 0.5,
          "Y": 1.0
         },
         "handle_right": {
          "X": 0.5,
          "Y": 0.0
         },
         "handle_type": 0,
         "interpolation": 0
        },
        {
         "co": {
          "X": 29.0,
          "Y": 1.0
         },
         "handle_left": {
          "X": 0.5,
          "Y": 1.0
         },
         "handle_right": {
          "X": 0.5,
          "Y": 0.0
         },
         "handle_type": 0,
         "interpolation": 0
        }
       ]
      },
      "contrast": {
       "Points": [
        {
         "co": {
          "X": 1.0,
          "Y": 3.0
         },
         "handle_left": {
          "X": 0.5,
          "Y": 1.0
         },
         "handle_right": {
          "X": 0.5,
          "Y": 0.0
         },
         "handle_type": 0,
         "interpolation": 0
        },
        {
         "co": {
          "X": 29.0,
          "Y": 3.0
         },
         "handle_left": {
          "X": 0.5,
          "Y": 1.0
         },
         "handle_right": {
          "X": 0.5,
          "Y": 0.0
         },
         "handle_type": 0,
         "interpolation": 0
        }
       ]
      },
      "reader": {
       "acodec": "",
       "audio_bit_rate": 0,
       "audio_stream_index": -1,
       "audio_timebase": {
        "den": 1,
        "num": 1
       },
       "channel_layout": 4,
       "channels": 0,
       "display_ratio": {
        "den": 4,
        "num": 5
       },
       "duration": 3600.0,
       "file_size": "5832000",
       "fps": {
        "den": 1,
        "num": 30
       },
       "has_audio": false,
       "has_single_image": true,
       "has_video": true,
       "height": 576,
       "interlaced_frame": false,
       "metadata": {},
       "path": "@transitions/common/fade.svg",
       "pixel_format": -1,
       "pixel_ratio": {
        "den": 1,
        "num": 1
       },
       "sample_rate": 0,
       "top_field_first": true,
       "type": "QtImageReader",
       "vcodec": "",
       "video_bit_rate": 0,
       "video_length": "108000",
       "video_stream_index": -1,
       "video_timebase": {
        "den": 30,
        "num": 1
       },
       "width": 720
      },
      "replace_image": false,
      "id": "GHC8VAFC2M"
     },
     {
      "layer": 2000000,
      "title": "Transition",
      "type": "Mask",
      "position": 260.8333333333333,
      "start": 0,
      "end": 0.9583333333333212,
      "brightness": {
       "Points": [
        {
         "co": {
          "X": 1.0,
          "Y": 1.0
         },
         "handle_left": {
          "X": 0.5,
          "Y": 1.0
         },
         "handle_right": {
          "X": 0.5,
          "Y": 0.0
         },
         "handle_type": 0,
         "interpolation": 0
        },
        {
         "co": {
          "X": 29.0,
          "Y": -1.0
         },
         "handle_left": {
          "X": 0.5,
          "Y": 1.0
         },
         "handle_right": {
          "X": 0.5,
          "Y": 0.0
         },
         "handle_type": 0,
         "interpolation": 0
        }
       ]
      },
      "contrast": {
       "Points": [
        {
         "co": {
          "X": 1.0,
          "Y": 3.0
         },
         "handle_left": {
          "X": 0.5,
          "Y": 1.0
         },
         "handle_right": {
          "X": 0.5,
          "Y": 0.0
         },
         "handle_type": 0,
         "interpolation": 0
        },
        {
         "co": {
          "X": 29.0,
          "Y": 3.0
         },
         "handle_left": {
          "X": 0.5,
          "Y": 1.0
         },
         "handle_right": {
          "X": 0.5,
          "Y": 0.0
         },
         "handle_type": 0,
         "interpolation": 0
        }
       ]
      },
      "reader": {
       "acodec": "",
       "audio_bit_rate": 0,
       "audio_stream_index": -1,
       "audio_timebase": {
        "den": 1,
        "num": 1
       },
       "channel_layout": 4,
       "channels": 0,
       "display_ratio": {
        "den": 4,
        "num": 5
       },
       "duration": 3600.0,
       "file_size": "5832000",
       "fps": {
        "den": 1,
        "num": 30
       },
       "has_audio": false,
       "has_single_image": true,
       "has_video": true,
       "height": 576,
       "interlaced_frame": false,
       "metadata": {},
       "path": "@transitions/common/fade.svg",
       "pixel_format": -1,
       "pixel_ratio": {
        "den": 1,
        "num": 1
       },
       "sample_rate": 0,
       "top_field_first": true,
       "type": "QtImageReader",
       "vcodec": "",
       "video_bit_rate": 0,
       "video_length": "108000",
       "video_stream_index": -1,
       "video_timebase": {
        "den": 30,
        "num": 1
       },
       "width": 720
      },
      "replace_image": false,
      "id": "LEJIDFPPTU"
     },
     {
      "layer": 2000000,
      "title": "Transition",
      "type": "Mask",
      "position": 266.93333333333334,
      "start": 0,
      "end": 0.9583333333333212,
      "brightness": {
       "Points": [
        {
         "co": {
          "X": 1.0,
          "Y": -1.0
         },
         "handle_left": {
          "X": 0.5,
          "Y": 1.0
         },
         "handle_right": {
          "X": 0.5,
          "Y": 0.0
         },
         "handle_type": 0,
         "interpolation": 0
        },
        {
         "co": {
          "X": 29.0,
          "Y": 1.0
         },
         "handle_left": {
          "X": 0.5,
          "Y": 1.0
         },
         "handle_right": {
          "X": 0.5,
          "Y": 0.0
         },
         "handle_type": 0,
         "interpolation": 0
        }
       ]
      },
      "contrast": {
       "Points": [
        {
         "co": {
          "X": 1.0,
          "Y": 3.0
         },
         "handle_left": {
          "X": 0.5,
          "Y": 1.0
         },
         "handle_right": {
          "X": 0.5,
          "Y": 0.0
         },
         "handle_type": 0,
         "interpolation": 0
        },
        {
         "co": {
          "X": 29.0,
          "Y": 3.0
         },
         "handle_left": {
          "X": 0.5,
          "Y": 1.0
         },
         "handle_right": {
          "X": 0.5,
          "Y": 0.0
         },
         "handle_type": 0,
         "interpolation": 0
        }
       ]
      },
      "reader": {
       "acodec": "",
       "audio_bit_rate": 0,
       "audio_stream_index": -1,
       "audio_timebase": {
        "den": 1,
        "num": 1
       },
       "channel_layout": 4,
       "channels": 0,
       "display_ratio": {
        "den": 4,
        "num": 5
       },
       "duration": 3600.0,
       "file_size": "5832000",
       "fps": {
        "den": 1,
        "num": 30
       },
       "has_audio": false,
       "has_single_image": true,
       "has_video": true,
       "height": 576,
       "interlaced_frame": false,
       "metadata": {},
       "path": "@transitions/common/fade.svg",
       "pixel_format": -1,
       "pixel_ratio": {
        "den": 1,
        "num": 1
       },
       "sample_rate": 0,
       "top_field_first": true,
       "type": "QtImageReader",
       "vcodec": "",
       "video_bit_rate": 0,
       "video_length": "108000",
       "video_stream_index": -1,
       "video_timebase": {
        "den": 30,
        "num": 1
       },
       "width": 720
      },
      "replace_image": false,
      "id": "KK5BUO5VAF"
     },
     {
      "layer": 2000000,
      "title": "Transition",
      "type": "Mask",
      "position": 269.03333333333336,
      "start": 0,
      "end": 0.9583333333333212,
      "brightness": {
       "Points": [
        {
         "co": {
          "X": 1.0,
          "Y": 1.0
         },
         "handle_left": {
          "X": 0.5,
          "Y": 1.0
         },
         "handle_right": {
          "X": 0.5,
          "Y": 0.0
         },
         "handle_type": 0,
         "interpolation": 0
        },
        {
         "co": {
          "X": 29.0,
          "Y": -1.0
         },
         "handle_left": {
          "X": 0.5,
          "Y": 1.0
         },
         "handle_right": {
          "X": 0.5,
          "Y": 0.0
         },
         "handle_type": 0,
         "interpolation": 0
        }
       ]
      },
      "contrast": {
       "Points": [
        {
         "co": {
          "X": 1.0,
          "Y": 3.0
         },
         "handle_left": {
          "X": 0.5,
          "Y": 1.0
         },
         "handle_right": {
          "X": 0.5,
          "Y": 0.0
         },
         "handle_type": 0,
         "interpolation": 0
        },
        {
         "co": {
          "X": 29.0,
          "Y": 3.0
         },
         "handle_left": {
          "X": 0.5,
          "Y": 1.0
         },
         "handle_right": {
          "X": 0.5,
          "Y": 0.0
         },
         "handle_type": 0,
         "interpolation": 0
        }
       ]
      },
      "reader": {
       "acodec": "",
       "audio_bit_rate": 0,
       "audio_stream_index": -1,
       "audio_timebase": {
        "den": 1,
        "num": 1
       },
       "channel_layout": 4,
       "channels": 0,
       "display_ratio": {
        "den": 4,
        "num": 5
       },
       "duration": 3600.0,
       "file_size": "5832000",
       "fps": {
        "den": 1,
        "num": 30
       },
       "has_audio": false,
       "has_single_image": true,
       "has_video": true,
       "height": 576,
       "interlaced_frame": false,
       "metadata": {},
       "path": "@transitions/common/fade.svg",
       "pixel_format": -1,
       "pixel_ratio": {
        "den": 1,
        "num": 1
       },
       "sample_rate": 0,
       "top_field_first": true,
       "type": "QtImageReader",
       "vcodec": "",
       "video_bit_rate": 0,
       "video_length": "108000",
       "video_stream_index": -1,
       "video_timebase": {
        "den": 30,
        "num": 1
       },
       "width": 720
      },
      "replace_image": false,
      "id": "EOT619YF48"
     },
     {
      "layer": 2000000,
      "title": "Transition",
      "type": "Mask",
      "position": 271.2,
      "start": 0,
      "end": 0.9583333333333212,
      "brightness": {
       "Points": [
        {
         "co": {
          "X": 1.0,
          "Y": -1.0
         },
         "handle_left": {
          "X": 0.5,
          "Y": 1.0
         },
         "handle_right": {
          "X": 0.5,
          "Y": 0.0
         },
         "handle_type": 0,
         "interpolation": 0
        },
        {
         "co": {
          "X": 29.0,
          "Y": 1.0
         },
         "handle_left": {
          "X": 0.5,
          "Y": 1.0
         },
         "handle_right": {
          "X": 0.5,
          "Y": 0.0
         },
         "handle_type": 0,
         "interpolation": 0
        }
       ]
      },
      "contrast": {
       "Points": [
        {
         "co": {
          "X": 1.0,
          "Y": 3.0
         },
         "handle_left": {
          "X": 0.5,
          "Y": 1.0
         },
         "handle_right": {
          "X": 0.5,
          "Y": 0.0
         },
         "handle_type": 0,
         "interpolation": 0
        },
        {
         "co": {
          "X": 29.0,
          "Y": 3.0
         },
         "handle_left": {
          "X": 0.5,
          "Y": 1.0
         },
         "handle_right": {
          "X": 0.5,
          "Y": 0.0
         },
         "handle_type": 0,
         "interpolation": 0
        }
       ]
      },
      "reader": {
       "acodec": "",
       "audio_bit_rate": 0,
       "audio_stream_index": -1,
       "audio_timebase": {
        "den": 1,
        "num": 1
       },
       "channel_layout": 4,
       "channels": 0,
       "display_ratio": {
        "den": 4,
        "num": 5
       },
       "duration": 3600.0,
       "file_size": "5832000",
       "fps": {
        "den": 1,
        "num": 30
       },
       "has_audio": false,
       "has_single_image": true,
       "has_video": true,
       "height": 576,
       "interlaced_frame": false,
       "metadata": {},
       "path": "@transitions/common/fade.svg",
       "pixel_format": -1,
       "pixel_ratio": {
        "den": 1,
        "num": 1
       },
       "sample_rate": 0,
       "top_field_first": true,
       "type": "QtImageReader",
       "vcodec": "",
       "video_bit_rate": 0,
       "video_length": "108000",
       "video_stream_index": -1,
       "video_timebase": {
        "den": 30,
        "num": 1
       },
       "width": 720
      },
      "replace_image": false,
      "id": "PRGTH4OGVC"
     },
     {
      "layer": 2000000,
      "title": "Transition",
      "type": "Mask",
      "position": 273.3333333333333,
      "start": 0,
      "end": 0.9583333333333212,
      "brightness": {
       "Points": [
        {
         "co": {
          "X": 1.0,
          "Y": 1.0
         },
         "handle_left": {
          "X": 0.5,
          "Y": 1.0
         },
         "handle_right": {
          "X": 0.5,
          "Y": 0.0
         },
         "handle_type": 0,
         "interpolation": 0
        },
        {
         "co": {
          "X": 29.0,
          "Y": -1.0
         },
         "handle_left": {
          "X": 0.5,
          "Y": 1.0
         },
         "handle_right": {
          "X": 0.5,
          "Y": 0.0
         },
         "handle_type": 0,
         "interpolation": 0
        }
       ]
      },
      "contrast": {
       "Points": [
        {
         "co": {
          "X": 1.0,
          "Y": 3.0
         },
         "handle_left": {
          "X": 0.5,
          "Y": 1.0
         },
         "handle_right": {
          "X": 0.5,
          "Y": 0.0
         },
         "handle_type": 0,
         "interpolation": 0
        },
        {
         "co": {
          "X": 29.0,
          "Y": 3.0
         },
         "handle_left": {
          "X": 0.5,
          "Y": 1.0
         },
         "handle_right": {
          "X": 0.5,
          "Y": 0.0
         },
         "handle_type": 0,
         "interpolation": 0
        }
       ]
      },
      "reader": {
       "acodec": "",
       "audio_bit_rate": 0,
       "audio_stream_index": -1,
       "audio_timebase": {
        "den": 1,
        "num": 1
       },
       "channel_layout": 4,
       "channels": 0,
       "display_ratio": {
        "den": 4,
        "num": 5
       },
       "duration": 3600.0,
       "file_size": "5832000",
       "fps": {
        "den": 1,
        "num": 30
       },
       "has_audio": false,
       "has_single_image": true,
       "has_video": true,
       "height": 576,
       "interlaced_frame": false,
       "metadata": {},
       "path": "@transitions/common/fade.svg",
       "pixel_format": -1,
       "pixel_ratio": {
        "den": 1,
        "num": 1
       },
       "sample_rate": 0,
       "top_field_first": true,
       "type": "QtImageReader",
       "vcodec": "",
       "video_bit_rate": 0,
       "video_length": "108000",
       "video_stream_index": -1,
       "video_timebase": {
        "den": 30,
        "num": 1
       },
       "width": 720
      },
      "replace_image": false,
      "id": "2M2XXQ05FD"
     },
     {
      "layer": 2000000,
      "title": "Transition",
      "type": "Mask",
      "position": 277.23333333333335,
      "start": 0,
      "end": 0.9583333333333212,
      "brightness": {
       "Points": [
        {
         "co": {
          "X": 1.0,
          "Y": -1.0
         },
         "handle_left": {
          "X": 0.5,
          "Y": 1.0
         },
         "handle_right": {
          "X": 0.5,
          "Y": 0.0
         },
         "handle_type": 0,
         "interpolation": 0
        },
        {
         "co": {
          "X": 29.0,
          "Y": 1.0
         },
         "handle_left": {
          "X": 0.5,
          "Y": 1.0
         },
         "handle_right": {
          "X": 0.5,
          "Y": 0.0
         },
         "handle_type": 0,
         "interpolation": 0
        }
       ]
      },
      "contrast": {
       "Points": [
        {
         "co": {
          "X": 1.0,
          "Y": 3.0
         },
         "handle_left": {
          "X": 0.5,
          "Y": 1.0
         },
         "handle_right": {
          "X": 0.5,
          "Y": 0.0
         },
         "handle_type": 0,
         "interpolation": 0
        },
        {
         "co": {
          "X": 29.0,
          "Y": 3.0
         },
         "handle_left": {
          "X": 0.5,
          "Y": 1.0
         },
         "handle_right": {
          "X": 0.5,
          "Y": 0.0
         },
         "handle_type": 0,
         "interpolation": 0
        }
       ]
      },
      "reader": {
       "acodec": "",
       "audio_bit_rate": 0,
       "audio_stream_index": -1,
       "audio_timebase": {
        "den": 1,
        "num": 1
       },
       "channel_layout": 4,
       "channels": 0,
       "display_ratio": {
        "den": 4,
        "num": 5
       },
       "duration": 3600.0,
       "file_size": "5832000",
       "fps": {
        "den": 1,
        "num": 30
       },
       "has_audio": false,
       "has_single_image": true,
       "has_video": true,
       "height": 576,
       "interlaced_frame": false,
       "metadata": {},
       "path": "@transitions/common/fade.svg",
       "pixel_format": -1,
       "pixel_ratio": {
        "den": 1,
        "num": 1
       },
       "sample_rate": 0,
       "top_field_first": true,
       "type": "QtImageReader",
       "vcodec": "",
       "video_bit_rate": 0,
       "video_length": "108000",
       "video_stream_index": -1,
       "video_timebase": {
        "den": 30,
        "num": 1
       },
       "width": 720
      },
      "replace_image": false,
      "id": "AB25T9KHGQ"
     },
     {
      "layer": 2000000,
      "title": "Transition",
      "type": "Mask",
      "position": 281.73333333333335,
      "start": 0,
      "end": 0.9583333333333212,
      "brightness": {
       "Points": [
        {
         "co": {
          "X": 1.0,
          "Y": 1.0
         },
         "handle_left": {
          "X": 0.5,
          "Y": 1.0
         },
         "handle_right": {
          "X": 0.5,
          "Y": 0.0
         },
         "handle_type": 0,
         "interpolation": 0
        },
        {
         "co": {
          "X": 29.0,
          "Y": -1.0
         },
         "handle_left": {
          "X": 0.5,
          "Y": 1.0
         },
         "handle_right": {
          "X": 0.5,
          "Y": 0.0
         },
         "handle_type": 0,
         "interpolation": 0
        }
       ]
      },
      "contrast": {
       "Points": [
        {
         "co": {
          "X": 1.0,
          "Y": 3.0
         },
         "handle_left": {
          "X": 0.5,
          "Y": 1.0
         },
         "handle_right": {
          "X": 0.5,
          "Y": 0.0
         },
         "handle_type": 0,
         "interpolation": 0
        },
        {
         "co": {
          "X": 29.0,
          "Y": 3.0
         },
         "handle_left": {
          "X": 0.5,
          "Y": 1.0
         },
         "handle_right": {
          "X": 0.5,
          "Y": 0.0
         },
         "handle_type": 0,
         "interpolation": 0
        }
       ]
      },
      "reader": {
       "acodec": "",
       "audio_bit_rate": 0,
       "audio_stream_index": -1,
       "audio_timebase": {
        "den": 1,
        "num": 1
       },
       "channel_layout": 4,
       "channels": 0,
       "display_ratio": {
        "den": 4,
        "num": 5
       },
       "duration": 3600.0,
       "file_size": "5832000",
       "fps": {
        "den": 1,
        "num": 30
       },
       "has_audio": false,
       "has_single_image": true,
       "has_video": true,
       "height": 576,
       "interlaced_frame": false,
       "metadata": {},
       "path": "@transitions/common/fade.svg",
       "pixel_format": -1,
       "pixel_ratio": {
        "den": 1,
        "num": 1
       },
       "sample_rate": 0,
       "top_field_first": true,
       "type": "QtImageReader",
       "vcodec": "",
       "video_bit_rate": 0,
       "video_length": "108000",
       "video_stream_index": -1,
       "video_timebase": {
        "den": 30,
        "num": 1
       },
       "width": 720
      },
      "replace_image": false,
      "id": "ZEXFKXQ1SG"
     },
     {
      "layer": 2000000,
      "title": "Transition",
      "type": "Mask",
      "position": 286.3666666666667,
      "start": 0,
      "end": 0.9583333333333212,
      "brightness": {
       "Points": [
        {
         "co": {
          "X": 1.0,
          "Y": -1.0
         },
         "handle_left": {
          "X": 0.5,
          "Y": 1.0
         },
         "handle_right": {
          "X": 0.5,
          "Y": 0.0
         },
         "handle_type": 0,
         "interpolation": 0
        },
        {
         "co": {
          "X": 29.0,
          "Y": 1.0
         },
         "handle_left": {
          "X": 0.5,
          "Y": 1.0
         },
         "handle_right": {
          "X": 0.5,
          "Y": 0.0
         },
         "handle_type": 0,
         "interpolation": 0
        }
       ]
      },
      "contrast": {
       "Points": [
        {
         "co": {
          "X": 1.0,
          "Y": 3.0
         },
         "handle_left": {
          "X": 0.5,
          "Y": 1.0
         },
         "handle_right": {
          "X": 0.5,
          "Y": 0.0
         },
         "handle_type": 0,
         "interpolation": 0
        },
        {
         "co": {
          "X": 29.0,
          "Y": 3.0
         },
         "handle_left": {
          "X": 0.5,
          "Y": 1.0
         },
         "handle_right": {
          "X": 0.5,
          "Y": 0.0
         },
         "handle_type": 0,
         "interpolation": 0
        }
       ]
      },
      "reader": {
       "acodec": "",
       "audio_bit_rate": 0,
       "audio_stream_index": -1,
       "audio_timebase": {
        "den": 1,
        "num": 1
       },
       "channel_layout": 4,
       "channels": 0,
       "display_ratio": {
        "den": 4,
        "num": 5
       },
       "duration": 3600.0,
       "file_size": "5832000",
       "fps": {
        "den": 1,
        "num": 30
       },
       "has_audio": false,
       "has_single_image": true,
       "has_video": true,
       "height": 576,
       "interlaced_frame": false,
       "metadata": {},
       "path": "@transitions/common/fade.svg",
       "pixel_format": -1,
       "pixel_ratio": {
        "den": 1,
        "num": 1
       },
       "sample_rate": 0,
       "top_field_first": true,
       "type": "QtImageReader",
       "vcodec": "",
       "video_bit_rate": 0,
       "video_length": "108000",
       "video_stream_index": -1,
       "video_timebase": {
        "den": 30,
        "num": 1
       },
       "width": 720
      },
      "replace_image": false,
      "id": "NA5Q7HM0AA"
     },
     {
      "layer": 3000000,
      "title": "Transition",
      "type": "Mask",
      "position": 290.23333333333335,
      "start": 0,
      "end": 0.9583333333333212,
      "brightness": {
       "Points": [
        {
         "co": {
          "X": 1.0,
          "Y": -1.0
         },
         "handle_left": {
          "X": 0.5,
          "Y": 1.0
         },
         "handle_right": {
          "X": 0.5,
          "Y": 0.0
         },
         "handle_type": 0,
         "interpolation": 0
        },
        {
         "co": {
          "X": 29.0,
          "Y": 1.0
         },
         "handle_left": {
          "X": 0.5,
          "Y": 1.0
         },
         "handle_right": {
          "X": 0.5,
          "Y": 0.0
         },
         "handle_type": 0,
         "interpolation": 0
        }
       ]
      },
      "contrast": {
       "Points": [
        {
         "co": {
          "X": 1.0,
          "Y": 3.0
         },
         "handle_left": {
          "X": 0.5,
          "Y": 1.0
         },
         "handle_right": {
          "X": 0.5,
          "Y": 0.0
         },
         "handle_type": 0,
         "interpolation": 0
        },
        {
         "co": {
          "X": 29.0,
          "Y": 3.0
         },
         "handle_left": {
          "X": 0.5,
          "Y": 1.0
         },
         "handle_right": {
          "X": 0.5,
          "Y": 0.0
         },
         "handle_type": 0,
         "interpolation": 0
        }
       ]
      },
      "reader": {
       "acodec": "",
       "audio_bit_rate": 0,
       "audio_stream_index": -1,
       "audio_timebase": {
        "den": 1,
        "num": 1
       },
       "channel_layout": 4,
       "channels": 0,
       "display_ratio": {
        "den": 4,
        "num": 5
       },
       "duration": 3600.0,
       "file_size": "5832000",
       "fps": {
        "den": 1,
        "num": 30
       },
       "has_audio": false,
       "has_single_image": true,
       "has_video": true,
       "height": 576,
       "interlaced_frame": false,
       "metadata": {},
       "path": "@transitions/common/fade.svg",
       "pixel_format": -1,
       "pixel_ratio": {
        "den": 1,
        "num": 1
       },
       "sample_rate": 0,
       "top_field_first": true,
       "type": "QtImageReader",
       "vcodec": "",
       "video_bit_rate": 0,
       "video_length": "108000",
       "video_stream_index": -1,
       "video_timebase": {
        "den": 30,
        "num": 1
       },
       "width": 720
      },
      "replace_image": false,
      "id": "2MOTFUXKD2"
     },
     {
      "id": "WTQLA8YM9N",
      "layer": 1000000,
      "title": "Transition",
      "type": "Mask",
      "position": 297.26666666666665,
      "start": 0,
      "end": 1.3359143138669818,
      "brightness": {
       "Points": [
        {
         "co": {
          "X": 1.0,
          "Y": 1.0
         },
         "handle_left": {
          "X": 0.5,
          "Y": 1.0
         },
         "handle_right": {
          "X": 0.5,
          "Y": 0.0
         },
         "handle_type": 0,
         "interpolation": 0
        },
        {
         "co": {
          "X": 40.0,
          "Y": -1.0
         },
         "handle_left": {
          "X": 0.5,
          "Y": 1.0
         },
         "handle_right": {
          "X": 0.5,
          "Y": 0.0
         },
         "handle_type": 0,
         "interpolation": 0
        }
       ]
      },
      "contrast": {
       "Points": [
        {
         "co": {
          "X": 1.0,
          "Y": 3.0
         },
         "handle_left": {
          "X": 0.5,
          "Y": 1.0
         },
         "handle_right": {
          "X": 0.5,
          "Y": 0.0
         },
         "handle_type": 0,
         "interpolation": 0
        },
        {
         "co": {
          "X": 40.0,
          "Y": 3.0
         },
         "handle_left": {
          "X": 0.5,
          "Y": 1.0
         },
         "handle_right": {
          "X": 0.5,
          "Y": 0.0
         },
         "handle_type": 0,
         "interpolation": 0
        }
       ]
      },
      "reader": {
       "acodec": "",
       "audio_bit_rate": 0,
       "audio_stream_index": -1,
       "audio_timebase": {
        "den": 1,
        "num": 1
       },
       "channel_layout": 4,
       "channels": 0,
       "display_ratio": {
        "den": 4,
        "num": 5
       },
       "duration": 3600.0,
       "file_size": "5832000",
       "fps": {
        "den": 1,
        "num": 30
       },
       "has_audio": false,
       "has_single_image": true,
       "has_video": true,
       "height": 576,
       "interlaced_frame": false,
       "metadata": {},
       "path": "@transitions/common/fade.svg",
       "pixel_format": -1,
       "pixel_ratio": {
        "den": 1,
        "num": 1
       },
       "sample_rate": 0,
       "top_field_first": true,
       "type": "QtImageReader",
       "vcodec": "",
       "video_bit_rate": 0,
       "video_length": "108000",
       "video_stream_index": -1,
       "video_timebase": {
        "den": 30,
        "num": 1
       },
       "width": 720
      },
      "replace_image": false
     },
     {
      "layer": 3000000,
      "title": "Transition",
      "type": "Mask",
      "position": 298.8333333333333,
      "start": 0,
      "end": 0.9583333333333212,
      "brightness": {
       "Points": [
        {
         "co": {
          "X": 1.0,
          "Y": 1.0
         },
         "handle_left": {
          "X": 0.5,
          "Y": 1.0
         },
         "handle_right": {
          "X": 0.5,
          "Y": 0.0
         },
         "handle_type": 0,
         "interpolation": 0
        },
        {
         "co": {
          "X": 29.0,
          "Y": -1.0
         },
         "handle_left": {
          "X": 0.5,
          "Y": 1.0
         },
         "handle_right": {
          "X": 0.5,
          "Y": 0.0
         },
         "handle_type": 0,
         "interpolation": 0
        }
       ]
      },
      "contrast": {
       "Points": [
        {
         "co": {
          "X": 1.0,
          "Y": 3.0
         },
         "handle_left": {
          "X": 0.5,
          "Y": 1.0
         },
         "handle_right": {
          "X": 0.5,
          "Y": 0.0
         },
         "handle_type": 0,
         "interpolation": 0
        },
        {
         "co": {
          "X": 29.0,
          "Y": 3.0
         },
         "handle_left": {
          "X": 0.5,
          "Y": 1.0
         },
         "handle_right": {
          "X": 0.5,
          "Y": 0.0
         },
         "handle_type": 0,
         "interpolation": 0
        }
       ]
      },
      "reader": {
       "acodec": "",
       "audio_bit_rate": 0,
       "audio_stream_index": -1,
       "audio_timebase": {
        "den": 1,
        "num": 1
       },
       "channel_layout": 4,
       "channels": 0,
       "display_ratio": {
        "den": 4,
        "num": 5
       },
       "duration": 3600.0,
       "file_size": "5832000",
       "fps": {
        "den": 1,
        "num": 30
       },
       "has_audio": false,
       "has_single_image": true,
       "has_video": true,
       "height": 576,
       "interlaced_frame": false,
       "metadata": {},
       "path": "@transitions/common/fade.svg",
       "pixel_format": -1,
       "pixel_ratio": {
        "den": 1,
        "num": 1
       },
       "sample_rate": 0,
       "top_field_first": true,
       "type": "QtImageReader",
       "vcodec": "",
       "video_bit_rate": 0,
       "video_length": "108000",
       "video_stream_index": -1,
       "video_timebase": {
        "den": 30,
        "num": 1
       },
       "width": 720
      },
      "replace_image": false,
      "id": "2YX9MN7OBR"
     },
     {
      "layer": 2000000,
      "title": "Transition",
      "type": "Mask",
      "position": 300.6666666666667,
      "start": 0,
      "end": 0.9583333333333212,
      "brightness": {
       "Points": [
        {
         "co": {
          "X": 1.0,
          "Y": 1.0
         },
         "handle_left": {
          "X": 0.5,
          "Y": 1.0
         },
         "handle_right": {
          "X": 0.5,
          "Y": 0.0
         },
         "handle_type": 0,
         "interpolation": 0
        },
        {
         "co": {
          "X": 29.0,
          "Y": -1.0
         },
         "handle_left": {
          "X": 0.5,
          "Y": 1.0
         },
         "handle_right": {
          "X": 0.5,
          "Y": 0.0
         },
         "handle_type": 0,
         "interpolation": 0
        }
       ]
      },
      "contrast": {
       "Points": [
        {
         "co": {
          "X": 1.0,
          "Y": 3.0
         },
         "handle_left": {
          "X": 0.5,
          "Y": 1.0
         },
         "handle_right": {
          "X": 0.5,
          "Y": 0.0
         },
         "handle_type": 0,
         "interpolation": 0
        },
        {
         "co": {
          "X": 29.0,
          "Y": 3.0
         },
         "handle_left": {
          "X": 0.5,
          "Y": 1.0
         },
         "handle_right": {
          "X": 0.5,
          "Y": 0.0
         },
         "handle_type": 0,
         "interpolation": 0
        }
       ]
      },
      "reader": {
       "acodec": "",
       "audio_bit_rate": 0,
       "audio_stream_index": -1,
       "audio_timebase": {
        "den": 1,
        "num": 1
       },
       "channel_layout": 4,
       "channels": 0,
       "display_ratio": {
        "den": 4,
        "num": 5
       },
       "duration": 3600.0,
       "file_size": "5832000",
       "fps": {
        "den": 1,
        "num": 30
       },
       "has_audio": false,
       "has_single_image": true,
       "has_video": true,
       "height": 576,
       "interlaced_frame": false,
       "metadata": {},
       "path": "@transitions/common/fade.svg",
       "pixel_format": -1,
       "pixel_ratio": {
        "den": 1,
        "num": 1
       },
       "sample_rate": 0,
       "top_field_first": true,
       "type": "QtImageReader",
       "vcodec": "",
       "video_bit_rate": 0,
       "video_length": "108000",
       "video_stream_index": -1,
       "video_timebase": {
        "den": 30,
        "num": 1
       },
       "width": 720
      },
      "replace_image": false,
      "id": "NZZROKB146"
     },
     {
      "layer": 2000000,
      "title": "Transition",
      "type": "Mask",
      "position": 303.8333333333333,
      "start": 0,
      "end": 0.9583333333333212,
      "brightness": {
       "Points": [
        {
         "co": {
          "X": 1.0,
          "Y": -1.0
         },
         "handle_left": {
          "X": 0.5,
          "Y": 1.0
         },
         "handle_right": {
          "X": 0.5,
          "Y": 0.0
         },
         "handle_type": 0,
         "interpolation": 0
        },
        {
         "co": {
          "X": 29.0,
          "Y": 1.0
         },
         "handle_left": {
          "X": 0.5,
          "Y": 1.0
         },
         "handle_right": {
          "X": 0.5,
          "Y": 0.0
         },
         "handle_type": 0,
         "interpolation": 0
        }
       ]
      },
      "contrast": {
       "Points": [
        {
         "co": {
          "X": 1.0,
          "Y": 3.0
         },
         "handle_left": {
          "X": 0.5,
          "Y": 1.0
         },
         "handle_right": {
          "X": 0.5,
          "Y": 0.0
         },
         "handle_type": 0,
         "interpolation": 0
        },
        {
         "co": {
          "X": 29.0,
          "Y": 3.0
         },
         "handle_left": {
          "X": 0.5,
          "Y": 1.0
         },
         "handle_right": {
          "X": 0.5,
          "Y": 0.0
         },
         "handle_type": 0,
         "interpolation": 0
        }
       ]
      },
      "reader": {
       "acodec": "",
       "audio_bit_rate": 0,
       "audio_stream_index": -1,
       "audio_timebase": {
        "den": 1,
        "num": 1
       },
       "channel_layout": 4,
       "channels": 0,
       "display_ratio": {
        "den": 4,
        "num": 5
       },
       "duration": 3600.0,
       "file_size": "5832000",
       "fps": {
        "den": 1,
        "num": 30
       },
       "has_audio": false,
       "has_single_image": true,
       "has_video": true,
       "height": 576,
       "interlaced_frame": false,
       "metadata": {},
       "path": "@transitions/common/fade.svg",
       "pixel_format": -1,
       "pixel_ratio": {
        "den": 1,
        "num": 1
       },
       "sample_rate": 0,
       "top_field_first": true,
       "type": "QtImageReader",
       "vcodec": "",
       "video_bit_rate": 0,
       "video_length": "108000",
       "video_stream_index": -1,
       "video_timebase": {
        "den": 30,
        "num": 1
       },
       "width": 720
      },
      "replace_image": false,
      "id": "QSGPQIF0I4"
     },
     {
      "layer": 2000000,
      "title": "Transition",
      "type": "Mask",
      "position": 306.8666666666667,
      "start": 0,
      "end": 0.9583333333333212,
      "brightness": {
       "Points": [
        {
         "co": {
          "X": 1.0,
          "Y": 1.0
         },
         "handle_left": {
          "X": 0.5,
          "Y": 1.0
         },
         "handle_right": {
          "X": 0.5,
          "Y": 0.0
         },
         "handle_type": 0,
         "interpolation": 0
        },
        {
         "co": {
          "X": 29.0,
          "Y": -1.0
         },
         "handle_left": {
          "X": 0.5,
          "Y": 1.0
         },
         "handle_right": {
          "X": 0.5,
          "Y": 0.0
         },
         "handle_type": 0,
         "interpolation": 0
        }
       ]
      },
      "contrast": {
       "Points": [
        {
         "co": {
          "X": 1.0,
          "Y": 3.0
         },
         "handle_left": {
          "X": 0.5,
          "Y": 1.0
         },
         "handle_right": {
          "X": 0.5,
          "Y": 0.0
         },
         "handle_type": 0,
         "interpolation": 0
        },
        {
         "co": {
          "X": 29.0,
          "Y": 3.0
         },
         "handle_left": {
          "X": 0.5,
          "Y": 1.0
         },
         "handle_right": {
          "X": 0.5,
          "Y": 0.0
         },
         "handle_type": 0,
         "interpolation": 0
        }
       ]
      },
      "reader": {
       "acodec": "",
       "audio_bit_rate": 0,
       "audio_stream_index": -1,
       "audio_timebase": {
        "den": 1,
        "num": 1
       },
       "channel_layout": 4,
       "channels": 0,
       "display_ratio": {
        "den": 4,
        "num": 5
       },
       "duration": 3600.0,
       "file_size": "5832000",
       "fps": {
        "den": 1,
        "num": 30
       },
       "has_audio": false,
       "has_single_image": true,
       "has_video": true,
       "height": 576,
       "interlaced_frame": false,
       "metadata": {},
       "path": "@transitions/common/fade.svg",
       "pixel_format": -1,
       "pixel_ratio": {
        "den": 1,
        "num": 1
       },
       "sample_rate": 0,
       "top_field_first": true,
       "type": "QtImageReader",
       "vcodec": "",
       "video_bit_rate": 0,
       "video_length": "108000",
       "video_stream_index": -1,
       "video_timebase": {
        "den": 30,
        "num": 1
       },
       "width": 720
      },
      "replace_image": false,
      "id": "OHTIUW0RSR"
     },
     {
      "layer": 2000000,
      "title": "Transition",
      "type": "Mask",
      "position": 312.3,
      "start": 0,
      "end": 0.9583333333333212,
      "brightness": {
       "Points": [
        {
         "co": {
          "X": 1.0,
          "Y": -1.0
         },
         "handle_left": {
          "X": 0.5,
          "Y": 1.0
         },
         "handle_right": {
          "X": 0.5,
          "Y": 0.0
         },
         "handle_type": 0,
         "interpolation": 0
        },
        {
         "co": {
          "X": 29.0,
          "Y": 1.0
         },
         "handle_left": {
          "X": 0.5,
          "Y": 1.0
         },
         "handle_right": {
          "X": 0.5,
          "Y": 0.0
         },
         "handle_type": 0,
         "interpolation": 0
        }
       ]
      },
      "contrast": {
       "Points": [
        {
         "co": {
          "X": 1.0,
          "Y": 3.0
         },
         "handle_left": {
          "X": 0.5,
          "Y": 1.0
         },
         "handle_right": {
          "X": 0.5,
          "Y": 0.0
         },
         "handle_type": 0,
         "interpolation": 0
        },
        {
         "co": {
          "X": 29.0,
          "Y": 3.0
         },
         "handle_left": {
          "X": 0.5,
          "Y": 1.0
         },
         "handle_right": {
          "X": 0.5,
          "Y": 0.0
         },
         "handle_type": 0,
         "interpolation": 0
        }
       ]
      },
      "reader": {
       "acodec": "",
       "audio_bit_rate": 0,
       "audio_stream_index": -1,
       "audio_timebase": {
        "den": 1,
        "num": 1
       },
       "channel_layout": 4,
       "channels": 0,
       "display_ratio": {
        "den": 4,
        "num": 5
       },
       "duration": 3600.0,
       "file_size": "5832000",
       "fps": {
        "den": 1,
        "num": 30
       },
       "has_audio": false,
       "has_single_image": true,
       "has_video": true,
       "height": 576,
       "interlaced_frame": false,
       "metadata": {},
       "path": "@transitions/common/fade.svg",
       "pixel_format": -1,
       "pixel_ratio": {
        "den": 1,
        "num": 1
       },
       "sample_rate": 0,
       "top_field_first": true,
       "type": "QtImageReader",
       "vcodec": "",
       "video_bit_rate": 0,
       "video_length": "108000",
       "video_stream_index": -1,
       "video_timebase": {
        "den": 30,
        "num": 1
       },
       "width": 720
      },
      "replace_image": false,
      "id": "6SPUUOIG1O"
     },
     {
      "layer": 3000000,
      "title": "Transition",
      "type": "Mask",
      "position": 328.6,
      "start": 0,
      "end": 0.9583333333333212,
      "brightness": {
       "Points": [
        {
         "co": {
          "X": 1.0,
          "Y": -1.0
         },
         "handle_left": {
          "X": 0.5,
          "Y": 1.0
         },
         "handle_right": {
          "X": 0.5,
          "Y": 0.0
         },
         "handle_type": 0,
         "interpolation": 0
        },
        {
         "co": {
          "X": 29.0,
          "Y": 1.0
         },
         "handle_left": {
          "X": 0.5,
          "Y": 1.0
         },
         "handle_right": {
          "X": 0.5,
          "Y": 0.0
         },
         "handle_type": 0,
         "interpolation": 0
        }
       ]
      },
      "contrast": {
       "Points": [
        {
         "co": {
          "X": 1.0,
          "Y": 3.0
         },
         "handle_left": {
          "X": 0.5,
          "Y": 1.0
         },
         "handle_right": {
          "X": 0.5,
          "Y": 0.0
         },
         "handle_type": 0,
         "interpolation": 0
        },
        {
         "co": {
          "X": 29.0,
          "Y": 3.0
         },
         "handle_left": {
          "X": 0.5,
          "Y": 1.0
         },
         "handle_right": {
          "X": 0.5,
          "Y": 0.0
         },
         "handle_type": 0,
         "interpolation": 0
        }
       ]
      },
      "reader": {
       "acodec": "",
       "audio_bit_rate": 0,
       "audio_stream_index": -1,
       "audio_timebase": {
        "den": 1,
        "num": 1
       },
       "channel_layout": 4,
       "channels": 0,
       "display_ratio": {
        "den": 4,
        "num": 5
       },
       "duration": 3600.0,
       "file_size": "5832000",
       "fps": {
        "den": 1,
        "num": 30
       },
       "has_audio": false,
       "has_single_image": true,
       "has_video": true,
       "height": 576,
       "interlaced_frame": false,
       "metadata": {},
       "path": "@transitions/common/fade.svg",
       "pixel_format": -1,
       "pixel_ratio": {
        "den": 1,
        "num": 1
       },
       "sample_rate": 0,
       "top_field_first": true,
       "type": "QtImageReader",
       "vcodec": "",
       "video_bit_rate": 0,
       "video_length": "108000",
       "video_stream_index": -1,
       "video_timebase": {
        "den": 30,
        "num": 1
       },
       "width": 720
      },
      "replace_image": false,
      "id": "P8E8OYE1HL"
     },
     {
      "layer": 3000000,
      "title": "Transition",
      "type": "Mask",
      "position": 331.93333333333334,
      "start": 0,
      "end": 0.9583333333333212,
      "brightness": {
       "Points": [
        {
         "co": {
          "X": 1.0,
          "Y": 1.0
         },
         "handle_left": {
          "X": 0.5,
          "Y": 1.0
         },
         "handle_right": {
          "X": 0.5,
          "Y": 0.0
         },
         "handle_type": 0,
         "interpolation": 0
        },
        {
         "co": {
          "X": 29.0,
          "Y": -1.0
         },
         "handle_left": {
          "X": 0.5,
          "Y": 1.0
         },
         "handle_right": {
          "X": 0.5,
          "Y": 0.0
         },
         "handle_type": 0,
         "interpolation": 0
        }
       ]
      },
      "contrast": {
       "Points": [
        {
         "co": {
          "X": 1.0,
          "Y": 3.0
         },
         "handle_left": {
          "X": 0.5,
          "Y": 1.0
         },
         "handle_right": {
          "X": 0.5,
          "Y": 0.0
         },
         "handle_type": 0,
         "interpolation": 0
        },
        {
         "co": {
          "X": 29.0,
          "Y": 3.0
         },
         "handle_left": {
          "X": 0.5,
          "Y": 1.0
         },
         "handle_right": {
          "X": 0.5,
          "Y": 0.0
         },
         "handle_type": 0,
         "interpolation": 0
        }
       ]
      },
      "reader": {
       "acodec": "",
       "audio_bit_rate": 0,
       "audio_stream_index": -1,
       "audio_timebase": {
        "den": 1,
        "num": 1
       },
       "channel_layout": 4,
       "channels": 0,
       "display_ratio": {
        "den": 4,
        "num": 5
       },
       "duration": 3600.0,
       "file_size": "5832000",
       "fps": {
        "den": 1,
        "num": 30
       },
       "has_audio": false,
       "has_single_image": true,
       "has_video": true,
       "height": 576,
       "interlaced_frame": false,
       "metadata": {},
       "path": "@transitions/common/fade.svg",
       "pixel_format": -1,
       "pixel_ratio": {
        "den": 1,
        "num": 1
       },
       "sample_rate": 0,
       "top_field_first": true,
       "type": "QtImageReader",
       "vcodec": "",
       "video_bit_rate": 0,
       "video_length": "108000",
       "video_stream_index": -1,
       "video_timebase": {
        "den": 30,
        "num": 1
       },
       "width": 720
      },
      "replace_image": false,
      "id": "U8TADCPK80"
     },
     {
      "layer": 2000000,
      "title": "Transition",
      "type": "Mask",
      "position": 334.06666666666666,
      "start": 0,
      "end": 0.9583333333333212,
      "brightness": {
       "Points": [
        {
         "co": {
          "X": 1.0,
          "Y": 1.0
         },
         "handle_left": {
          "X": 0.5,
          "Y": 1.0
         },
         "handle_right": {
          "X": 0.5,
          "Y": 0.0
         },
         "handle_type": 0,
         "interpolation": 0
        },
        {
         "co": {
          "X": 29.0,
          "Y": -1.0
         },
         "handle_left": {
          "X": 0.5,
          "Y": 1.0
         },
         "handle_right": {
          "X": 0.5,
          "Y": 0.0
         },
         "handle_type": 0,
         "interpolation": 0
        }
       ]
      },
      "contrast": {
       "Points": [
        {
         "co": {
          "X": 1.0,
          "Y": 3.0
         },
         "handle_left": {
          "X": 0.5,
          "Y": 1.0
         },
         "handle_right": {
          "X": 0.5,
          "Y": 0.0
         },
         "handle_type": 0,
         "interpolation": 0
        },
        {
         "co": {
          "X": 29.0,
          "Y": 3.0
         },
         "handle_left": {
          "X": 0.5,
          "Y": 1.0
         },
         "handle_right": {
          "X": 0.5,
          "Y": 0.0
         },
         "handle_type": 0,
         "interpolation": 0
        }
       ]
      },
      "reader": {
       "acodec": "",
       "audio_bit_rate": 0,
       "audio_stream_index": -1,
       "audio_timebase": {
        "den": 1,
        "num": 1
       },
       "channel_layout": 4,
       "channels": 0,
       "display_ratio": {
        "den": 4,
        "num": 5
       },
       "duration": 3600.0,
       "file_size": "5832000",
       "fps": {
        "den": 1,
        "num": 30
       },
       "has_audio": false,
       "has_single_image": true,
       "has_video": true,
       "height": 576,
       "interlaced_frame": false,
       "metadata": {},
       "path": "@transitions/common/fade.svg",
       "pixel_format": -1,
       "pixel_ratio": {
        "den": 1,
        "num": 1
       },
       "sample_rate": 0,
       "top_field_first": true,
       "type": "QtImageReader",
       "vcodec": "",
       "video_bit_rate": 0,
       "video_length": "108000",
       "video_stream_index": -1,
       "video_timebase": {
        "den": 30,
        "num": 1
       },
       "width": 720
      },
      "replace_image": false,
      "id": "MJ858I17GB"
     },
     {
      "layer": 2000000,
      "title": "Transition",
      "type": "Mask",
      "position": 339.53333333333336,
      "start": 0,
      "end": 0.9583333333333212,
      "brightness": {
       "Points": [
        {
         "co": {
          "X": 1.0,
          "Y": -1.0
         },
         "handle_left": {
          "X": 0.5,
          "Y": 1.0
         },
         "handle_right": {
          "X": 0.5,
          "Y": 0.0
         },
         "handle_type": 0,
         "interpolation": 0
        },
        {
         "co": {
          "X": 29.0,
          "Y": 1.0
         },
         "handle_left": {
          "X": 0.5,
          "Y": 1.0
         },
         "handle_right": {
          "X": 0.5,
          "Y": 0.0
         },
         "handle_type": 0,
         "interpolation": 0
        }
       ]
      },
      "contrast": {
       "Points": [
        {
         "co": {
          "X": 1.0,
          "Y": 3.0
         },
         "handle_left": {
          "X": 0.5,
          "Y": 1.0
         },
         "handle_right": {
          "X": 0.5,
          "Y": 0.0
         },
         "handle_type": 0,
         "interpolation": 0
        },
        {
         "co": {
          "X": 29.0,
          "Y": 3.0
         },
         "handle_left": {
          "X": 0.5,
          "Y": 1.0
         },
         "handle_right": {
          "X": 0.5,
          "Y": 0.0
         },
         "handle_type": 0,
         "interpolation": 0
        }
       ]
      },
      "reader": {
       "acodec": "",
       "audio_bit_rate": 0,
       "audio_stream_index": -1,
       "audio_timebase": {
        "den": 1,
        "num": 1
       },
       "channel_layout": 4,
       "channels": 0,
       "display_ratio": {
        "den": 4,
        "num": 5
       },
       "duration": 3600.0,
       "file_size": "5832000",
       "fps": {
        "den": 1,
        "num": 30
       },
       "has_audio": false,
       "has_single_image": true,
       "has_video": true,
       "height": 576,
       "interlaced_frame": false,
       "metadata": {},
       "path": "@transitions/common/fade.svg",
       "pixel_format": -1,
       "pixel_ratio": {
        "den": 1,
        "num": 1
       },
       "sample_rate": 0,
       "top_field_first": true,
       "type": "QtImageReader",
       "vcodec": "",
       "video_bit_rate": 0,
       "video_length": "108000",
       "video_stream_index": -1,
       "video_timebase": {
        "den": 30,
        "num": 1
       },
       "width": 720
      },
      "replace_image": false,
      "id": "BRY9NYJBVJ"
     },
     {
      "layer": 3000000,
      "title": "Transition",
      "type": "Mask",
      "position": 342.3333333333333,
      "start": 0,
      "end": 0.9583333333333212,
      "brightness": {
       "Points": [
        {
         "co": {
          "X": 1.0,
          "Y": -1.0
         },
         "handle_left": {
          "X": 0.5,
          "Y": 1.0
         },
         "handle_right": {
          "X": 0.5,
          "Y": 0.0
         },
         "handle_type": 0,
         "interpolation": 0
        },
        {
         "co": {
          "X": 29.0,
          "Y": 1.0
         },
         "handle_left": {
          "X": 0.5,
          "Y": 1.0
         },
         "handle_right": {
          "X": 0.5,
          "Y": 0.0
         },
         "handle_type": 0,
         "interpolation": 0
        }
       ]
      },
      "contrast": {
       "Points": [
        {
         "co": {
          "X": 1.0,
          "Y": 3.0
         },
         "handle_left": {
          "X": 0.5,
          "Y": 1.0
         },
         "handle_right": {
          "X": 0.5,
          "Y": 0.0
         },
         "handle_type": 0,
         "interpolation": 0
        },
        {
         "co": {
          "X": 29.0,
          "Y": 3.0
         },
         "handle_left": {
          "X": 0.5,
          "Y": 1.0
         },
         "handle_right": {
          "X": 0.5,
          "Y": 0.0
         },
         "handle_type": 0,
         "interpolation": 0
        }
       ]
      },
      "reader": {
       "acodec": "",
       "audio_bit_rate": 0,
       "audio_stream_index": -1,
       "audio_timebase": {
        "den": 1,
        "num": 1
       },
       "channel_layout": 4,
       "channels": 0,
       "display_ratio": {
        "den": 4,
        "num": 5
       },
       "duration": 3600.0,
       "file_size": "5832000",
       "fps": {
        "den": 1,
        "num": 30
       },
       "has_audio": false,
       "has_single_image": true,
       "has_video": true,
       "height": 576,
       "interlaced_frame": false,
       "metadata": {},
       "path": "@transitions/common/fade.svg",
       "pixel_format": -1,
       "pixel_ratio": {
        "den": 1,
        "num": 1
       },
       "sample_rate": 0,
       "top_field_first": true,
       "type": "QtImageReader",
       "vcodec": "",
       "video_bit_rate": 0,
       "video_length": "108000",
       "video_stream_index": -1,
       "video_timebase": {
        "den": 30,
        "num": 1
       },
       "width": 720
      },
      "replace_image": false,
      "id": "S7KO8U24VG"
     },
     {
      "layer": 2000000,
      "title": "Transition",
      "type": "Mask",
      "position": 350.1,
      "start": 0,
      "end": 0.9583333333333212,
      "brightness": {
       "Points": [
        {
         "co": {
          "X": 1.0,
          "Y": 1.0
         },
         "handle_left": {
          "X": 0.5,
          "Y": 1.0
         },
         "handle_right": {
          "X": 0.5,
          "Y": 0.0
         },
         "handle_type": 0,
         "interpolation": 0
        },
        {
         "co": {
          "X": 29.0,
          "Y": -1.0
         },
         "handle_left": {
          "X": 0.5,
          "Y": 1.0
         },
         "handle_right": {
          "X": 0.5,
          "Y": 0.0
         },
         "handle_type": 0,
         "interpolation": 0
        }
       ]
      },
      "contrast": {
       "Points": [
        {
         "co": {
          "X": 1.0,
          "Y": 3.0
         },
         "handle_left": {
          "X": 0.5,
          "Y": 1.0
         },
         "handle_right": {
          "X": 0.5,
          "Y": 0.0
         },
         "handle_type": 0,
         "interpolation": 0
        },
        {
         "co": {
          "X": 29.0,
          "Y": 3.0
         },
         "handle_left": {
          "X": 0.5,
          "Y": 1.0
         },
         "handle_right": {
          "X": 0.5,
          "Y": 0.0
         },
         "handle_type": 0,
         "interpolation": 0
        }
       ]
      },
      "reader": {
       "acodec": "",
       "audio_bit_rate": 0,
       "audio_stream_index": -1,
       "audio_timebase": {
        "den": 1,
        "num": 1
       },
       "channel_layout": 4,
       "channels": 0,
       "display_ratio": {
        "den": 4,
        "num": 5
       },
       "duration": 3600.0,
       "file_size": "5832000",
       "fps": {
        "den": 1,
        "num": 30
       },
       "has_audio": false,
       "has_single_image": true,
       "has_video": true,
       "height": 576,
       "interlaced_frame": false,
       "metadata": {},
       "path": "@transitions/common/fade.svg",
       "pixel_format": -1,
       "pixel_ratio": {
        "den": 1,
        "num": 1
       },
       "sample_rate": 0,
       "top_field_first": true,
       "type": "QtImageReader",
       "vcodec": "",
       "video_bit_rate": 0,
       "video_length": "108000",
       "video_stream_index": -1,
       "video_timebase": {
        "den": 30,
        "num": 1
       },
       "width": 720
      },
      "replace_image": false,
      "id": "5AV58SED81"
     },
     {
      "layer": 1000000,
      "title": "Transition",
      "type": "Mask",
      "position": 349.46666666666664,
      "start": 0,
      "end": 0.9583333333333212,
      "brightness": {
       "Points": [
        {
         "co": {
          "X": 1.0,
          "Y": -1.0
         },
         "handle_left": {
          "X": 0.5,
          "Y": 1.0
         },
         "handle_right": {
          "X": 0.5,
          "Y": 0.0
         },
         "handle_type": 0,
         "interpolation": 0
        },
        {
         "co": {
          "X": 29.0,
          "Y": 1.0
         },
         "handle_left": {
          "X": 0.5,
          "Y": 1.0
         },
         "handle_right": {
          "X": 0.5,
          "Y": 0.0
         },
         "handle_type": 0,
         "interpolation": 0
        }
       ]
      },
      "contrast": {
       "Points": [
        {
         "co": {
          "X": 1.0,
          "Y": 3.0
         },
         "handle_left": {
          "X": 0.5,
          "Y": 1.0
         },
         "handle_right": {
          "X": 0.5,
          "Y": 0.0
         },
         "handle_type": 0,
         "interpolation": 0
        },
        {
         "co": {
          "X": 29.0,
          "Y": 3.0
         },
         "handle_left": {
          "X": 0.5,
          "Y": 1.0
         },
         "handle_right": {
          "X": 0.5,
          "Y": 0.0
         },
         "handle_type": 0,
         "interpolation": 0
        }
       ]
      },
      "reader": {
       "acodec": "",
       "audio_bit_rate": 0,
       "audio_stream_index": -1,
       "audio_timebase": {
        "den": 1,
        "num": 1
       },
       "channel_layout": 4,
       "channels": 0,
       "display_ratio": {
        "den": 4,
        "num": 5
       },
       "duration": 3600.0,
       "file_size": "5832000",
       "fps": {
        "den": 1,
        "num": 30
       },
       "has_audio": false,
       "has_single_image": true,
       "has_video": true,
       "height": 576,
       "interlaced_frame": false,
       "metadata": {},
       "path": "@transitions/common/fade.svg",
       "pixel_format": -1,
       "pixel_ratio": {
        "den": 1,
        "num": 1
       },
       "sample_rate": 0,
       "top_field_first": true,
       "type": "QtImageReader",
       "vcodec": "",
       "video_bit_rate": 0,
       "video_length": "108000",
       "video_stream_index": -1,
       "video_timebase": {
        "den": 30,
        "num": 1
       },
       "width": 720
      },
      "replace_image": false,
      "id": "8JGOS2299B"
     },
     {
      "layer": 2000000,
      "title": "Transition",
      "type": "Mask",
      "position": 351.8666666666667,
      "start": 0,
      "end": 0.9583333333333212,
      "brightness": {
       "Points": [
        {
         "co": {
          "X": 1.0,
          "Y": -1.0
         },
         "handle_left": {
          "X": 0.5,
          "Y": 1.0
         },
         "handle_right": {
          "X": 0.5,
          "Y": 0.0
         },
         "handle_type": 0,
         "interpolation": 0
        },
        {
         "co": {
          "X": 29.0,
          "Y": 1.0
         },
         "handle_left": {
          "X": 0.5,
          "Y": 1.0
         },
         "handle_right": {
          "X": 0.5,
          "Y": 0.0
         },
         "handle_type": 0,
         "interpolation": 0
        }
       ]
      },
      "contrast": {
       "Points": [
        {
         "co": {
          "X": 1.0,
          "Y": 3.0
         },
         "handle_left": {
          "X": 0.5,
          "Y": 1.0
         },
         "handle_right": {
          "X": 0.5,
          "Y": 0.0
         },
         "handle_type": 0,
         "interpolation": 0
        },
        {
         "co": {
          "X": 29.0,
          "Y": 3.0
         },
         "handle_left": {
          "X": 0.5,
          "Y": 1.0
         },
         "handle_right": {
          "X": 0.5,
          "Y": 0.0
         },
         "handle_type": 0,
         "interpolation": 0
        }
       ]
      },
      "reader": {
       "acodec": "",
       "audio_bit_rate": 0,
       "audio_stream_index": -1,
       "audio_timebase": {
        "den": 1,
        "num": 1
       },
       "channel_layout": 4,
       "channels": 0,
       "display_ratio": {
        "den": 4,
        "num": 5
       },
       "duration": 3600.0,
       "file_size": "5832000",
       "fps": {
        "den": 1,
        "num": 30
       },
       "has_audio": false,
       "has_single_image": true,
       "has_video": true,
       "height": 576,
       "interlaced_frame": false,
       "metadata": {},
       "path": "@transitions/common/fade.svg",
       "pixel_format": -1,
       "pixel_ratio": {
        "den": 1,
        "num": 1
       },
       "sample_rate": 0,
       "top_field_first": true,
       "type": "QtImageReader",
       "vcodec": "",
       "video_bit_rate": 0,
       "video_length": "108000",
       "video_stream_index": -1,
       "video_timebase": {
        "den": 30,
        "num": 1
       },
       "width": 720
      },
      "replace_image": false,
      "id": "5F68C2C237"
     },
     {
      "layer": 1000000,
      "title": "Transition",
      "type": "Mask",
      "position": 352.26666666666665,
      "start": 0,
      "end": 0.9583333333333212,
      "brightness": {
       "Points": [
        {
         "co": {
          "X": 1.0,
          "Y": 1.0
         },
         "handle_left": {
          "X": 0.5,
          "Y": 1.0
         },
         "handle_right": {
          "X": 0.5,
          "Y": 0.0
         },
         "handle_type": 0,
         "interpolation": 0
        },
        {
         "co": {
          "X": 29.0,
          "Y": -1.0
         },
         "handle_left": {
          "X": 0.5,
          "Y": 1.0
         },
         "handle_right": {
          "X": 0.5,
          "Y": 0.0
         },
         "handle_type": 0,
         "interpolation": 0
        }
       ]
      },
      "contrast": {
       "Points": [
        {
         "co": {
          "X": 1.0,
          "Y": 3.0
         },
         "handle_left": {
          "X": 0.5,
          "Y": 1.0
         },
         "handle_right": {
          "X": 0.5,
          "Y": 0.0
         },
         "handle_type": 0,
         "interpolation": 0
        },
        {
         "co": {
          "X": 29.0,
          "Y": 3.0
         },
         "handle_left": {
          "X": 0.5,
          "Y": 1.0
         },
         "handle_right": {
          "X": 0.5,
          "Y": 0.0
         },
         "handle_type": 0,
         "interpolation": 0
        }
       ]
      },
      "reader": {
       "acodec": "",
       "audio_bit_rate": 0,
       "audio_stream_index": -1,
       "audio_timebase": {
        "den": 1,
        "num": 1
       },
       "channel_layout": 4,
       "channels": 0,
       "display_ratio": {
        "den": 4,
        "num": 5
       },
       "duration": 3600.0,
       "file_size": "5832000",
       "fps": {
        "den": 1,
        "num": 30
       },
       "has_audio": false,
       "has_single_image": true,
       "has_video": true,
       "height": 576,
       "interlaced_frame": false,
       "metadata": {},
       "path": "@transitions/common/fade.svg",
       "pixel_format": -1,
       "pixel_ratio": {
        "den": 1,
        "num": 1
       },
       "sample_rate": 0,
       "top_field_first": true,
       "type": "QtImageReader",
       "vcodec": "",
       "video_bit_rate": 0,
       "video_length": "108000",
       "video_stream_index": -1,
       "video_timebase": {
        "den": 30,
        "num": 1
       },
       "width": 720
      },
      "replace_image": false,
      "id": "77AZRML20F"
     },
     {
      "layer": 3000000,
      "title": "Transition",
      "type": "Mask",
      "position": 353.6,
      "start": 0,
      "end": 0.9583333333333212,
      "brightness": {
       "Points": [
        {
         "co": {
          "X": 1.0,
          "Y": 1.0
         },
         "handle_left": {
          "X": 0.5,
          "Y": 1.0
         },
         "handle_right": {
          "X": 0.5,
          "Y": 0.0
         },
         "handle_type": 0,
         "interpolation": 0
        },
        {
         "co": {
          "X": 29.0,
          "Y": -1.0
         },
         "handle_left": {
          "X": 0.5,
          "Y": 1.0
         },
         "handle_right": {
          "X": 0.5,
          "Y": 0.0
         },
         "handle_type": 0,
         "interpolation": 0
        }
       ]
      },
      "contrast": {
       "Points": [
        {
         "co": {
          "X": 1.0,
          "Y": 3.0
         },
         "handle_left": {
          "X": 0.5,
          "Y": 1.0
         },
         "handle_right": {
          "X": 0.5,
          "Y": 0.0
         },
         "handle_type": 0,
         "interpolation": 0
        },
        {
         "co": {
          "X": 29.0,
          "Y": 3.0
         },
         "handle_left": {
          "X": 0.5,
          "Y": 1.0
         },
         "handle_right": {
          "X": 0.5,
          "Y": 0.0
         },
         "handle_type": 0,
         "interpolation": 0
        }
       ]
      },
      "reader": {
       "acodec": "",
       "audio_bit_rate": 0,
       "audio_stream_index": -1,
       "audio_timebase": {
        "den": 1,
        "num": 1
       },
       "channel_layout": 4,
       "channels": 0,
       "display_ratio": {
        "den": 4,
        "num": 5
       },
       "duration": 3600.0,
       "file_size": "5832000",
       "fps": {
        "den": 1,
        "num": 30
       },
       "has_audio": false,
       "has_single_image": true,
       "has_video": true,
       "height": 576,
       "interlaced_frame": false,
       "metadata": {},
       "path": "@transitions/common/fade.svg",
       "pixel_format": -1,
       "pixel_ratio": {
        "den": 1,
        "num": 1
       },
       "sample_rate": 0,
       "top_field_first": true,
       "type": "QtImageReader",
       "vcodec": "",
       "video_bit_rate": 0,
       "video_length": "108000",
       "video_stream_index": -1,
       "video_timebase": {
        "den": 30,
        "num": 1
       },
       "width": 720
      },
      "replace_image": false,
      "id": "MMJBZO0PWA"
     },
     {
      "layer": 2000000,
      "title": "Transition",
      "type": "Mask",
      "position": 354.56666666666666,
      "start": 0,
      "end": 0.9583333333333212,
      "brightness": {
       "Points": [
        {
         "co": {
          "X": 1.0,
          "Y": 1.0
         },
         "handle_left": {
          "X": 0.5,
          "Y": 1.0
         },
         "handle_right": {
          "X": 0.5,
          "Y": 0.0
         },
         "handle_type": 0,
         "interpolation": 0
        },
        {
         "co": {
          "X": 29.0,
          "Y": -1.0
         },
         "handle_left": {
          "X": 0.5,
          "Y": 1.0
         },
         "handle_right": {
          "X": 0.5,
          "Y": 0.0
         },
         "handle_type": 0,
         "interpolation": 0
        }
       ]
      },
      "contrast": {
       "Points": [
        {
         "co": {
          "X": 1.0,
          "Y": 3.0
         },
         "handle_left": {
          "X": 0.5,
          "Y": 1.0
         },
         "handle_right": {
          "X": 0.5,
          "Y": 0.0
         },
         "handle_type": 0,
         "interpolation": 0
        },
        {
         "co": {
          "X": 29.0,
          "Y": 3.0
         },
         "handle_left": {
          "X": 0.5,
          "Y": 1.0
         },
         "handle_right": {
          "X": 0.5,
          "Y": 0.0
         },
         "handle_type": 0,
         "interpolation": 0
        }
       ]
      },
      "reader": {
       "acodec": "",
       "audio_bit_rate": 0,
       "audio_stream_index": -1,
       "audio_timebase": {
        "den": 1,
        "num": 1
       },
       "channel_layout": 4,
       "channels": 0,
       "display_ratio": {
        "den": 4,
        "num": 5
       },
       "duration": 3600.0,
       "file_size": "5832000",
       "fps": {
        "den": 1,
        "num": 30
       },
       "has_audio": false,
       "has_single_image": true,
       "has_video": true,
       "height": 576,
       "interlaced_frame": false,
       "metadata": {},
       "path": "@transitions/common/fade.svg",
       "pixel_format": -1,
       "pixel_ratio": {
        "den": 1,
        "num": 1
       },
       "sample_rate": 0,
       "top_field_first": true,
       "type": "QtImageReader",
       "vcodec": "",
       "video_bit_rate": 0,
       "video_length": "108000",
       "video_stream_index": -1,
       "video_timebase": {
        "den": 30,
        "num": 1
       },
       "width": 720
      },
      "replace_image": false,
      "id": "5CAWVA5QQX"
     },
     {
      "layer": 3000000,
      "title": "Transition",
      "type": "Mask",
      "position": 361.3666666666667,
      "start": 0,
      "end": 0.9583333333333212,
      "brightness": {
       "Points": [
        {
         "co": {
          "X": 1.0,
          "Y": -1.0
         },
         "handle_left": {
          "X": 0.5,
          "Y": 1.0
         },
         "handle_right": {
          "X": 0.5,
          "Y": 0.0
         },
         "handle_type": 0,
         "interpolation": 0
        },
        {
         "co": {
          "X": 29.0,
          "Y": 1.0
         },
         "handle_left": {
          "X": 0.5,
          "Y": 1.0
         },
         "handle_right": {
          "X": 0.5,
          "Y": 0.0
         },
         "handle_type": 0,
         "interpolation": 0
        }
       ]
      },
      "contrast": {
       "Points": [
        {
         "co": {
          "X": 1.0,
          "Y": 3.0
         },
         "handle_left": {
          "X": 0.5,
          "Y": 1.0
         },
         "handle_right": {
          "X": 0.5,
          "Y": 0.0
         },
         "handle_type": 0,
         "interpolation": 0
        },
        {
         "co": {
          "X": 29.0,
          "Y": 3.0
         },
         "handle_left": {
          "X": 0.5,
          "Y": 1.0
         },
         "handle_right": {
          "X": 0.5,
          "Y": 0.0
         },
         "handle_type": 0,
         "interpolation": 0
        }
       ]
      },
      "reader": {
       "acodec": "",
       "audio_bit_rate": 0,
       "audio_stream_index": -1,
       "audio_timebase": {
        "den": 1,
        "num": 1
       },
       "channel_layout": 4,
       "channels": 0,
       "display_ratio": {
        "den": 4,
        "num": 5
       },
       "duration": 3600.0,
       "file_size": "5832000",
       "fps": {
        "den": 1,
        "num": 30
       },
       "has_audio": false,
       "has_single_image": true,
       "has_video": true,
       "height": 576,
       "interlaced_frame": false,
       "metadata": {},
       "path": "@transitions/common/fade.svg",
       "pixel_format": -1,
       "pixel_ratio": {
        "den": 1,
        "num": 1
       },
       "sample_rate": 0,
       "top_field_first": true,
       "type": "QtImageReader",
       "vcodec": "",
       "video_bit_rate": 0,
       "video_length": "108000",
       "video_stream_index": -1,
       "video_timebase": {
        "den": 30,
        "num": 1
       },
       "width": 720
      },
      "replace_image": false,
      "id": "DRFLC6XURC"
     },
     {
      "layer": 2000000,
      "title": "Transition",
      "type": "Mask",
      "position": 361.3666666666667,
      "start": 0,
      "end": 0.9583333333333212,
      "brightness": {
       "Points": [
        {
         "co": {
          "X": 1.0,
          "Y": -1.0
         },
         "handle_left": {
          "X": 0.5,
          "Y": 1.0
         },
         "handle_right": {
          "X": 0.5,
          "Y": 0.0
         },
         "handle_type": 0,
         "interpolation": 0
        },
        {
         "co": {
          "X": 29.0,
          "Y": 1.0
         },
         "handle_left": {
          "X": 0.5,
          "Y": 1.0
         },
         "handle_right": {
          "X": 0.5,
          "Y": 0.0
         },
         "handle_type": 0,
         "interpolation": 0
        }
       ]
      },
      "contrast": {
       "Points": [
        {
         "co": {
          "X": 1.0,
          "Y": 3.0
         },
         "handle_left": {
          "X": 0.5,
          "Y": 1.0
         },
         "handle_right": {
          "X": 0.5,
          "Y": 0.0
         },
         "handle_type": 0,
         "interpolation": 0
        },
        {
         "co": {
          "X": 29.0,
          "Y": 3.0
         },
         "handle_left": {
          "X": 0.5,
          "Y": 1.0
         },
         "handle_right": {
          "X": 0.5,
          "Y": 0.0
         },
         "handle_type": 0,
         "interpolation": 0
        }
       ]
      },
      "reader": {
       "acodec": "",
       "audio_bit_rate": 0,
       "audio_stream_index": -1,
       "audio_timebase": {
        "den": 1,
        "num": 1
       },
       "channel_layout": 4,
       "channels": 0,
       "display_ratio": {
        "den": 4,
        "num": 5
       },
       "duration": 3600.0,
       "file_size": "5832000",
       "fps": {
        "den": 1,
        "num": 30
       },
       "has_audio": false,
       "has_single_image": true,
       "has_video": true,
       "height": 576,
       "interlaced_frame": false,
       "metadata": {},
       "path": "@transitions/common/fade.svg",
       "pixel_format": -1,
       "pixel_ratio": {
        "den": 1,
        "num": 1
       },
       "sample_rate": 0,
       "top_field_first": true,
       "type": "QtImageReader",
       "vcodec": "",
       "video_bit_rate": 0,
       "video_length": "108000",
       "video_stream_index": -1,
       "video_timebase": {
        "den": 30,
        "num": 1
       },
       "width": 720
      },
      "replace_image": false,
      "id": "QF9XRRUE6J"
     },
     {
      "id": "FC1M7VZDMT",
      "layer": 1000000,
      "title": "Transition",
      "type": "Mask",
      "position": 366.1,
      "start": 0,
      "end": 0.8551973066132632,
      "brightness": {
       "Points": [
        {
         "co": {
          "X": 1.0,
          "Y": 1.0
         },
         "handle_left": {
          "X": 0.5,
          "Y": 1.0
         },
         "handle_right": {
          "X": 0.5,
          "Y": 0.0
         },
         "handle_type": 0,
         "interpolation": 0
        },
        {
         "co": {
          "X": 27.0,
          "Y": -1.0
         },
         "handle_left": {
          "X": 0.5,
          "Y": 1.0
         },
         "handle_right": {
          "X": 0.5,
          "Y": 0.0
         },
         "handle_type": 0,
         "interpolation": 0
        }
       ]
      },
      "contrast": {
       "Points": [
        {
         "co": {
          "X": 1.0,
          "Y": 3.0
         },
         "handle_left": {
          "X": 0.5,
          "Y": 1.0
         },
         "handle_right": {
          "X": 0.5,
          "Y": 0.0
         },
         "handle_type": 0,
         "interpolation": 0
        }
       ]
      },
      "reader": {
       "acodec": "",
       "audio_bit_rate": 0,
       "audio_stream_index": -1,
       "audio_timebase": {
        "den": 1,
        "num": 1
       },
       "channel_layout": 4,
       "channels": 0,
       "display_ratio": {
        "den": 4,
        "num": 5
       },
       "duration": 3600.0,
       "file_size": "5832000",
       "fps": {
        "den": 1,
        "num": 30
       },
       "has_audio": false,
       "has_single_image": true,
       "has_video": true,
       "height": 576,
       "interlaced_frame": false,
       "metadata": {},
       "path": "@transitions/common/fade.svg",
       "pixel_format": -1,
       "pixel_ratio": {
        "den": 1,
        "num": 1
       },
       "sample_rate": 0,
       "top_field_first": true,
       "type": "QtImageReader",
       "vcodec": "",
       "video_bit_rate": 0,
       "video_length": "108000",
       "video_stream_index": -1,
       "video_timebase": {
        "den": 30,
        "num": 1
       },
       "width": 720
      },
      "replace_image": false
     },
     {
      "layer": 2000000,
      "title": "Transition",
      "type": "Mask",
      "position": 367.93333333333334,
      "start": 0,
      "end": 0.9583333333333212,
      "brightness": {
       "Points": [
        {
         "co": {
          "X": 1.0,
          "Y": 1.0
         },
         "handle_left": {
          "X": 0.5,
          "Y": 1.0
         },
         "handle_right": {
          "X": 0.5,
          "Y": 0.0
         },
         "handle_type": 0,
         "interpolation": 0
        },
        {
         "co": {
          "X": 29.0,
          "Y": -1.0
         },
         "handle_left": {
          "X": 0.5,
          "Y": 1.0
         },
         "handle_right": {
          "X": 0.5,
          "Y": 0.0
         },
         "handle_type": 0,
         "interpolation": 0
        }
       ]
      },
      "contrast": {
       "Points": [
        {
         "co": {
          "X": 1.0,
          "Y": 3.0
         },
         "handle_left": {
          "X": 0.5,
          "Y": 1.0
         },
         "handle_right": {
          "X": 0.5,
          "Y": 0.0
         },
         "handle_type": 0,
         "interpolation": 0
        },
        {
         "co": {
          "X": 29.0,
          "Y": 3.0
         },
         "handle_left": {
          "X": 0.5,
          "Y": 1.0
         },
         "handle_right": {
          "X": 0.5,
          "Y": 0.0
         },
         "handle_type": 0,
         "interpolation": 0
        }
       ]
      },
      "reader": {
       "acodec": "",
       "audio_bit_rate": 0,
       "audio_stream_index": -1,
       "audio_timebase": {
        "den": 1,
        "num": 1
       },
       "channel_layout": 4,
       "channels": 0,
       "display_ratio": {
        "den": 4,
        "num": 5
       },
       "duration": 3600.0,
       "file_size": "5832000",
       "fps": {
        "den": 1,
        "num": 30
       },
       "has_audio": false,
       "has_single_image": true,
       "has_video": true,
       "height": 576,
       "interlaced_frame": false,
       "metadata": {},
       "path": "@transitions/common/fade.svg",
       "pixel_format": -1,
       "pixel_ratio": {
        "den": 1,
        "num": 1
       },
       "sample_rate": 0,
       "top_field_first": true,
       "type": "QtImageReader",
       "vcodec": "",
       "video_bit_rate": 0,
       "video_length": "108000",
       "video_stream_index": -1,
       "video_timebase": {
        "den": 30,
        "num": 1
       },
       "width": 720
      },
      "replace_image": false,
      "id": "OHK6WN896H"
     },
     {
      "layer": 3000000,
      "title": "Transition",
      "type": "Mask",
      "position": 366.96666666666664,
      "start": 0,
      "end": 0.9583333333333212,
      "brightness": {
       "Points": [
        {
         "co": {
          "X": 1.0,
          "Y": 1.0
         },
         "handle_left": {
          "X": 0.5,
          "Y": 1.0
         },
         "handle_right": {
          "X": 0.5,
          "Y": 0.0
         },
         "handle_type": 0,
         "interpolation": 0
        },
        {
         "co": {
          "X": 29.0,
          "Y": -1.0
         },
         "handle_left": {
          "X": 0.5,
          "Y": 1.0
         },
         "handle_right": {
          "X": 0.5,
          "Y": 0.0
         },
         "handle_type": 0,
         "interpolation": 0
        }
       ]
      },
      "contrast": {
       "Points": [
        {
         "co": {
          "X": 1.0,
          "Y": 3.0
         },
         "handle_left": {
          "X": 0.5,
          "Y": 1.0
         },
         "handle_right": {
          "X": 0.5,
          "Y": 0.0
         },
         "handle_type": 0,
         "interpolation": 0
        },
        {
         "co": {
          "X": 29.0,
          "Y": 3.0
         },
         "handle_left": {
          "X": 0.5,
          "Y": 1.0
         },
         "handle_right": {
          "X": 0.5,
          "Y": 0.0
         },
         "handle_type": 0,
         "interpolation": 0
        }
       ]
      },
      "reader": {
       "acodec": "",
       "audio_bit_rate": 0,
       "audio_stream_index": -1,
       "audio_timebase": {
        "den": 1,
        "num": 1
       },
       "channel_layout": 4,
       "channels": 0,
       "display_ratio": {
        "den": 4,
        "num": 5
       },
       "duration": 3600.0,
       "file_size": "5832000",
       "fps": {
        "den": 1,
        "num": 30
       },
       "has_audio": false,
       "has_single_image": true,
       "has_video": true,
       "height": 576,
       "interlaced_frame": false,
       "metadata": {},
       "path": "@transitions/common/fade.svg",
       "pixel_format": -1,
       "pixel_ratio": {
        "den": 1,
        "num": 1
       },
       "sample_rate": 0,
       "top_field_first": true,
       "type": "QtImageReader",
       "vcodec": "",
       "video_bit_rate": 0,
       "video_length": "108000",
       "video_stream_index": -1,
       "video_timebase": {
        "den": 30,
        "num": 1
       },
       "width": 720
      },
      "replace_image": false,
      "id": "OA6OCOHDKK"
     },
     {
      "layer": 2000000,
      "title": "Transition",
      "type": "Mask",
      "position": 377.6,
      "start": 0,
      "end": 0.9583333333333212,
      "brightness": {
       "Points": [
        {
         "co": {
          "X": 1.0,
          "Y": -1.0
         },
         "handle_left": {
          "X": 0.5,
          "Y": 1.0
         },
         "handle_right": {
          "X": 0.5,
          "Y": 0.0
         },
         "handle_type": 0,
         "interpolation": 0
        },
        {
         "co": {
          "X": 29.0,
          "Y": 1.0
         },
         "handle_left": {
          "X": 0.5,
          "Y": 1.0
         },
         "handle_right": {
          "X": 0.5,
          "Y": 0.0
         },
         "handle_type": 0,
         "interpolation": 0
        }
       ]
      },
      "contrast": {
       "Points": [
        {
         "co": {
          "X": 1.0,
          "Y": 3.0
         },
         "handle_left": {
          "X": 0.5,
          "Y": 1.0
         },
         "handle_right": {
          "X": 0.5,
          "Y": 0.0
         },
         "handle_type": 0,
         "interpolation": 0
        },
        {
         "co": {
          "X": 29.0,
          "Y": 3.0
         },
         "handle_left": {
          "X": 0.5,
          "Y": 1.0
         },
         "handle_right": {
          "X": 0.5,
          "Y": 0.0
         },
         "handle_type": 0,
         "interpolation": 0
        }
       ]
      },
      "reader": {
       "acodec": "",
       "audio_bit_rate": 0,
       "audio_stream_index": -1,
       "audio_timebase": {
        "den": 1,
        "num": 1
       },
       "channel_layout": 4,
       "channels": 0,
       "display_ratio": {
        "den": 4,
        "num": 5
       },
       "duration": 3600.0,
       "file_size": "5832000",
       "fps": {
        "den": 1,
        "num": 30
       },
       "has_audio": false,
       "has_single_image": true,
       "has_video": true,
       "height": 576,
       "interlaced_frame": false,
       "metadata": {},
       "path": "@transitions/common/fade.svg",
       "pixel_format": -1,
       "pixel_ratio": {
        "den": 1,
        "num": 1
       },
       "sample_rate": 0,
       "top_field_first": true,
       "type": "QtImageReader",
       "vcodec": "",
       "video_bit_rate": 0,
       "video_length": "108000",
       "video_stream_index": -1,
       "video_timebase": {
        "den": 30,
        "num": 1
       },
       "width": 720
      },
      "replace_image": false,
      "id": "421OPHR9MK"
     },
     {
      "layer": 3000000,
      "title": "Transition",
      "type": "Mask",
      "position": 377.6,
      "start": 0,
      "end": 0.9583333333333212,
      "brightness": {
       "Points": [
        {
         "co": {
          "X": 1.0,
          "Y": -1.0
         },
         "handle_left": {
          "X": 0.5,
          "Y": 1.0
         },
         "handle_right": {
          "X": 0.5,
          "Y": 0.0
         },
         "handle_type": 0,
         "interpolation": 0
        },
        {
         "co": {
          "X": 29.0,
          "Y": 1.0
         },
         "handle_left": {
          "X": 0.5,
          "Y": 1.0
         },
         "handle_right": {
          "X": 0.5,
          "Y": 0.0
         },
         "handle_type": 0,
         "interpolation": 0
        }
       ]
      },
      "contrast": {
       "Points": [
        {
         "co": {
          "X": 1.0,
          "Y": 3.0
         },
         "handle_left": {
          "X": 0.5,
          "Y": 1.0
         },
         "handle_right": {
          "X": 0.5,
          "Y": 0.0
         },
         "handle_type": 0,
         "interpolation": 0
        },
        {
         "co": {
          "X": 29.0,
          "Y": 3.0
         },
         "handle_left": {
          "X": 0.5,
          "Y": 1.0
         },
         "handle_right": {
          "X": 0.5,
          "Y": 0.0
         },
         "handle_type": 0,
         "interpolation": 0
        }
       ]
      },
      "reader": {
       "acodec": "",
       "audio_bit_rate": 0,
       "audio_stream_index": -1,
       "audio_timebase": {
        "den": 1,
        "num": 1
       },
       "channel_layout": 4,
       "channels": 0,
       "display_ratio": {
        "den": 4,
        "num": 5
       },
       "duration": 3600.0,
       "file_size": "5832000",
       "fps": {
        "den": 1,
        "num": 30
       },
       "has_audio": false,
       "has_single_image": true,
       "has_video": true,
       "height": 576,
       "interlaced_frame": false,
       "metadata": {},
       "path": "@transitions/common/fade.svg",
       "pixel_format": -1,
       "pixel_ratio": {
        "den": 1,
        "num": 1
       },
       "sample_rate": 0,
       "top_field_first": true,
       "type": "QtImageReader",
       "vcodec": "",
       "video_bit_rate": 0,
       "video_length": "108000",
       "video_stream_index": -1,
       "video_timebase": {
        "den": 30,
        "num": 1
       },
       "width": 720
      },
      "replace_image": false,
      "id": "H386U9MYCS"
     },
     {
      "id": "DEQDSRBIJG",
      "layer": 1000000,
      "title": "Transition",
      "type": "Mask",
      "position": 381.3666666666667,
      "start": 0,
      "end": 0.5666666666666629,
      "brightness": {
       "Points": [
        {
         "co": {
          "X": 1.0,
          "Y": 1.0
         },
         "handle_left": {
          "X": 0.5,
          "Y": 1.0
         },
         "handle_right": {
          "X": 0.5,
          "Y": 0.0
         },
         "handle_type": 0,
         "interpolation": 0
        },
        {
         "co": {
          "X": 18.0,
          "Y": -1.0
         },
         "handle_left": {
          "X": 0.5,
          "Y": 1.0
         },
         "handle_right": {
          "X": 0.5,
          "Y": 0.0
         },
         "handle_type": 0,
         "interpolation": 0
        }
       ]
      },
      "contrast": {
       "Points": [
        {
         "co": {
          "X": 1.0,
          "Y": 3.0
         },
         "handle_left": {
          "X": 0.5,
          "Y": 1.0
         },
         "handle_right": {
          "X": 0.5,
          "Y": 0.0
         },
         "handle_type": 0,
         "interpolation": 0
        }
       ]
      },
      "reader": {
       "acodec": "",
       "audio_bit_rate": 0,
       "audio_stream_index": -1,
       "audio_timebase": {
        "den": 1,
        "num": 1
       },
       "channel_layout": 4,
       "channels": 0,
       "display_ratio": {
        "den": 4,
        "num": 5
       },
       "duration": 3600.0,
       "file_size": "5832000",
       "fps": {
        "den": 1,
        "num": 30
       },
       "has_audio": false,
       "has_single_image": true,
       "has_video": true,
       "height": 576,
       "interlaced_frame": false,
       "metadata": {},
       "path": "@transitions/common/fade.svg",
       "pixel_format": -1,
       "pixel_ratio": {
        "den": 1,
        "num": 1
       },
       "sample_rate": 0,
       "top_field_first": true,
       "type": "QtImageReader",
       "vcodec": "",
       "video_bit_rate": 0,
       "video_length": "108000",
       "video_stream_index": -1,
       "video_timebase": {
        "den": 30,
        "num": 1
       },
       "width": 720
      },
      "replace_image": false
     },
     {
      "layer": 3000000,
      "title": "Transition",
      "type": "Mask",
      "position": 381.93333333333334,
      "start": 0,
      "end": 0.9583333333333212,
      "brightness": {
       "Points": [
        {
         "co": {
          "X": 1.0,
          "Y": 1.0
         },
         "handle_left": {
          "X": 0.5,
          "Y": 1.0
         },
         "handle_right": {
          "X": 0.5,
          "Y": 0.0
         },
         "handle_type": 0,
         "interpolation": 0
        },
        {
         "co": {
          "X": 29.0,
          "Y": -1.0
         },
         "handle_left": {
          "X": 0.5,
          "Y": 1.0
         },
         "handle_right": {
          "X": 0.5,
          "Y": 0.0
         },
         "handle_type": 0,
         "interpolation": 0
        }
       ]
      },
      "contrast": {
       "Points": [
        {
         "co": {
          "X": 1.0,
          "Y": 3.0
         },
         "handle_left": {
          "X": 0.5,
          "Y": 1.0
         },
         "handle_right": {
          "X": 0.5,
          "Y": 0.0
         },
         "handle_type": 0,
         "interpolation": 0
        },
        {
         "co": {
          "X": 29.0,
          "Y": 3.0
         },
         "handle_left": {
          "X": 0.5,
          "Y": 1.0
         },
         "handle_right": {
          "X": 0.5,
          "Y": 0.0
         },
         "handle_type": 0,
         "interpolation": 0
        }
       ]
      },
      "reader": {
       "acodec": "",
       "audio_bit_rate": 0,
       "audio_stream_index": -1,
       "audio_timebase": {
        "den": 1,
        "num": 1
       },
       "channel_layout": 4,
       "channels": 0,
       "display_ratio": {
        "den": 4,
        "num": 5
       },
       "duration": 3600.0,
       "file_size": "5832000",
       "fps": {
        "den": 1,
        "num": 30
       },
       "has_audio": false,
       "has_single_image": true,
       "has_video": true,
       "height": 576,
       "interlaced_frame": false,
       "metadata": {},
       "path": "@transitions/common/fade.svg",
       "pixel_format": -1,
       "pixel_ratio": {
        "den": 1,
        "num": 1
       },
       "sample_rate": 0,
       "top_field_first": true,
       "type": "QtImageReader",
       "vcodec": "",
       "video_bit_rate": 0,
       "video_length": "108000",
       "video_stream_index": -1,
       "video_timebase": {
        "den": 30,
        "num": 1
       },
       "width": 720
      },
      "replace_image": false,
      "id": "DFSNRTEII0"
     },
     {
      "layer": 2000000,
      "title": "Transition",
      "type": "Mask",
      "position": 382.6666666666667,
      "start": 0,
      "end": 0.9583333333333212,
      "brightness": {
       "Points": [
        {
         "co": {
          "X": 1.0,
          "Y": 1.0
         },
         "handle_left": {
          "X": 0.5,
          "Y": 1.0
         },
         "handle_right": {
          "X": 0.5,
          "Y": 0.0
         },
         "handle_type": 0,
         "interpolation": 0
        },
        {
         "co": {
          "X": 29.0,
          "Y": -1.0
         },
         "handle_left": {
          "X": 0.5,
          "Y": 1.0
         },
         "handle_right": {
          "X": 0.5,
          "Y": 0.0
         },
         "handle_type": 0,
         "interpolation": 0
        }
       ]
      },
      "contrast": {
       "Points": [
        {
         "co": {
          "X": 1.0,
          "Y": 3.0
         },
         "handle_left": {
          "X": 0.5,
          "Y": 1.0
         },
         "handle_right": {
          "X": 0.5,
          "Y": 0.0
         },
         "handle_type": 0,
         "interpolation": 0
        },
        {
         "co": {
          "X": 29.0,
          "Y": 3.0
         },
         "handle_left": {
          "X": 0.5,
          "Y": 1.0
         },
         "handle_right": {
          "X": 0.5,
          "Y": 0.0
         },
         "handle_type": 0,
         "interpolation": 0
        }
       ]
      },
      "reader": {
       "acodec": "",
       "audio_bit_rate": 0,
       "audio_stream_index": -1,
       "audio_timebase": {
        "den": 1,
        "num": 1
       },
       "channel_layout": 4,
       "channels": 0,
       "display_ratio": {
        "den": 4,
        "num": 5
       },
       "duration": 3600.0,
       "file_size": "5832000",
       "fps": {
        "den": 1,
        "num": 30
       },
       "has_audio": false,
       "has_single_image": true,
       "has_video": true,
       "height": 576,
       "interlaced_frame": false,
       "metadata": {},
       "path": "@transitions/common/fade.svg",
       "pixel_format": -1,
       "pixel_ratio": {
        "den": 1,
        "num": 1
       },
       "sample_rate": 0,
       "top_field_first": true,
       "type": "QtImageReader",
       "vcodec": "",
       "video_bit_rate": 0,
       "video_length": "108000",
       "video_stream_index": -1,
       "video_timebase": {
        "den": 30,
        "num": 1
       },
       "width": 720
      },
      "replace_image": false,
      "id": "P8FSUID5CI"
     },
     {
      "layer": 3000000,
      "title": "Transition",
      "type": "Mask",
      "position": 389.76666666666665,
      "start": 0,
      "end": 0.9583333333333212,
      "brightness": {
       "Points": [
        {
         "co": {
          "X": 1.0,
          "Y": -1.0
         },
         "handle_left": {
          "X": 0.5,
          "Y": 1.0
         },
         "handle_right": {
          "X": 0.5,
          "Y": 0.0
         },
         "handle_type": 0,
         "interpolation": 0
        },
        {
         "co": {
          "X": 29.0,
          "Y": 1.0
         },
         "handle_left": {
          "X": 0.5,
          "Y": 1.0
         },
         "handle_right": {
          "X": 0.5,
          "Y": 0.0
         },
         "handle_type": 0,
         "interpolation": 0
        }
       ]
      },
      "contrast": {
       "Points": [
        {
         "co": {
          "X": 1.0,
          "Y": 3.0
         },
         "handle_left": {
          "X": 0.5,
          "Y": 1.0
         },
         "handle_right": {
          "X": 0.5,
          "Y": 0.0
         },
         "handle_type": 0,
         "interpolation": 0
        },
        {
         "co": {
          "X": 29.0,
          "Y": 3.0
         },
         "handle_left": {
          "X": 0.5,
          "Y": 1.0
         },
         "handle_right": {
          "X": 0.5,
          "Y": 0.0
         },
         "handle_type": 0,
         "interpolation": 0
        }
       ]
      },
      "reader": {
       "acodec": "",
       "audio_bit_rate": 0,
       "audio_stream_index": -1,
       "audio_timebase": {
        "den": 1,
        "num": 1
       },
       "channel_layout": 4,
       "channels": 0,
       "display_ratio": {
        "den": 4,
        "num": 5
       },
       "duration": 3600.0,
       "file_size": "5832000",
       "fps": {
        "den": 1,
        "num": 30
       },
       "has_audio": false,
       "has_single_image": true,
       "has_video": true,
       "height": 576,
       "interlaced_frame": false,
       "metadata": {},
       "path": "@transitions/common/fade.svg",
       "pixel_format": -1,
       "pixel_ratio": {
        "den": 1,
        "num": 1
       },
       "sample_rate": 0,
       "top_field_first": true,
       "type": "QtImageReader",
       "vcodec": "",
       "video_bit_rate": 0,
       "video_length": "108000",
       "video_stream_index": -1,
       "video_timebase": {
        "den": 30,
        "num": 1
       },
       "width": 720
      },
      "replace_image": false,
      "id": "VBQ9Z01OL0"
     },
     {
      "layer": 2000000,
      "title": "Transition",
      "type": "Mask",
      "position": 389.76666666666665,
      "start": 0,
      "end": 0.9583333333333212,
      "brightness": {
       "Points": [
        {
         "co": {
          "X": 1.0,
          "Y": -1.0
         },
         "handle_left": {
          "X": 0.5,
          "Y": 1.0
         },
         "handle_right": {
          "X": 0.5,
          "Y": 0.0
         },
         "handle_type": 0,
         "interpolation": 0
        },
        {
         "co": {
          "X": 29.0,
          "Y": 1.0
         },
         "handle_left": {
          "X": 0.5,
          "Y": 1.0
         },
         "handle_right": {
          "X": 0.5,
          "Y": 0.0
         },
         "handle_type": 0,
         "interpolation": 0
        }
       ]
      },
      "contrast": {
       "Points": [
        {
         "co": {
          "X": 1.0,
          "Y": 3.0
         },
         "handle_left": {
          "X": 0.5,
          "Y": 1.0
         },
         "handle_right": {
          "X": 0.5,
          "Y": 0.0
         },
         "handle_type": 0,
         "interpolation": 0
        },
        {
         "co": {
          "X": 29.0,
          "Y": 3.0
         },
         "handle_left": {
          "X": 0.5,
          "Y": 1.0
         },
         "handle_right": {
          "X": 0.5,
          "Y": 0.0
         },
         "handle_type": 0,
         "interpolation": 0
        }
       ]
      },
      "reader": {
       "acodec": "",
       "audio_bit_rate": 0,
       "audio_stream_index": -1,
       "audio_timebase": {
        "den": 1,
        "num": 1
       },
       "channel_layout": 4,
       "channels": 0,
       "display_ratio": {
        "den": 4,
        "num": 5
       },
       "duration": 3600.0,
       "file_size": "5832000",
       "fps": {
        "den": 1,
        "num": 30
       },
       "has_audio": false,
       "has_single_image": true,
       "has_video": true,
       "height": 576,
       "interlaced_frame": false,
       "metadata": {},
       "path": "@transitions/common/fade.svg",
       "pixel_format": -1,
       "pixel_ratio": {
        "den": 1,
        "num": 1
       },
       "sample_rate": 0,
       "top_field_first": true,
       "type": "QtImageReader",
       "vcodec": "",
       "video_bit_rate": 0,
       "video_length": "108000",
       "video_stream_index": -1,
       "video_timebase": {
        "den": 30,
        "num": 1
       },
       "width": 720
      },
      "replace_image": false,
      "id": "IEZZK69CXI"
     },
     {
      "layer": 1000000,
      "title": "Transition",
      "type": "Mask",
      "position": 401.3666666666667,
      "start": 0,
      "end": 0.9583333333333212,
      "brightness": {
       "Points": [
        {
         "co": {
          "X": 1.0,
          "Y": -1.0
         },
         "handle_left": {
          "X": 0.5,
          "Y": 1.0
         },
         "handle_right": {
          "X": 0.5,
          "Y": 0.0
         },
         "handle_type": 0,
         "interpolation": 0
        },
        {
         "co": {
          "X": 29.0,
          "Y": 1.0
         },
         "handle_left": {
          "X": 0.5,
          "Y": 1.0
         },
         "handle_right": {
          "X": 0.5,
          "Y": 0.0
         },
         "handle_type": 0,
         "interpolation": 0
        }
       ]
      },
      "contrast": {
       "Points": [
        {
         "co": {
          "X": 1.0,
          "Y": 3.0
         },
         "handle_left": {
          "X": 0.5,
          "Y": 1.0
         },
         "handle_right": {
          "X": 0.5,
          "Y": 0.0
         },
         "handle_type": 0,
         "interpolation": 0
        },
        {
         "co": {
          "X": 29.0,
          "Y": 3.0
         },
         "handle_left": {
          "X": 0.5,
          "Y": 1.0
         },
         "handle_right": {
          "X": 0.5,
          "Y": 0.0
         },
         "handle_type": 0,
         "interpolation": 0
        }
       ]
      },
      "reader": {
       "acodec": "",
       "audio_bit_rate": 0,
       "audio_stream_index": -1,
       "audio_timebase": {
        "den": 1,
        "num": 1
       },
       "channel_layout": 4,
       "channels": 0,
       "display_ratio": {
        "den": 4,
        "num": 5
       },
       "duration": 3600.0,
       "file_size": "5832000",
       "fps": {
        "den": 1,
        "num": 30
       },
       "has_audio": false,
       "has_single_image": true,
       "has_video": true,
       "height": 576,
       "interlaced_frame": false,
       "metadata": {},
       "path": "@transitions/common/fade.svg",
       "pixel_format": -1,
       "pixel_ratio": {
        "den": 1,
        "num": 1
       },
       "sample_rate": 0,
       "top_field_first": true,
       "type": "QtImageReader",
       "vcodec": "",
       "video_bit_rate": 0,
       "video_length": "108000",
       "video_stream_index": -1,
       "video_timebase": {
        "den": 30,
        "num": 1
       },
       "width": 720
      },
      "replace_image": false,
      "id": "GJ22WRRCCZ"
     },
     {
      "layer": 3000000,
      "title": "Transition",
      "type": "Mask",
      "position": 402.3333333333333,
      "start": 0,
      "end": 0.9583333333333212,
      "brightness": {
       "Points": [
        {
         "co": {
          "X": 1.0,
          "Y": 1.0
         },
         "handle_left": {
          "X": 0.5,
          "Y": 1.0
         },
         "handle_right": {
          "X": 0.5,
          "Y": 0.0
         },
         "handle_type": 0,
         "interpolation": 0
        },
        {
         "co": {
          "X": 29.0,
          "Y": -1.0
         },
         "handle_left": {
          "X": 0.5,
          "Y": 1.0
         },
         "handle_right": {
          "X": 0.5,
          "Y": 0.0
         },
         "handle_type": 0,
         "interpolation": 0
        }
       ]
      },
      "contrast": {
       "Points": [
        {
         "co": {
          "X": 1.0,
          "Y": 3.0
         },
         "handle_left": {
          "X": 0.5,
          "Y": 1.0
         },
         "handle_right": {
          "X": 0.5,
          "Y": 0.0
         },
         "handle_type": 0,
         "interpolation": 0
        },
        {
         "co": {
          "X": 29.0,
          "Y": 3.0
         },
         "handle_left": {
          "X": 0.5,
          "Y": 1.0
         },
         "handle_right": {
          "X": 0.5,
          "Y": 0.0
         },
         "handle_type": 0,
         "interpolation": 0
        }
       ]
      },
      "reader": {
       "acodec": "",
       "audio_bit_rate": 0,
       "audio_stream_index": -1,
       "audio_timebase": {
        "den": 1,
        "num": 1
       },
       "channel_layout": 4,
       "channels": 0,
       "display_ratio": {
        "den": 4,
        "num": 5
       },
       "duration": 3600.0,
       "file_size": "5832000",
       "fps": {
        "den": 1,
        "num": 30
       },
       "has_audio": false,
       "has_single_image": true,
       "has_video": true,
       "height": 576,
       "interlaced_frame": false,
       "metadata": {},
       "path": "@transitions/common/fade.svg",
       "pixel_format": -1,
       "pixel_ratio": {
        "den": 1,
        "num": 1
       },
       "sample_rate": 0,
       "top_field_first": true,
       "type": "QtImageReader",
       "vcodec": "",
       "video_bit_rate": 0,
       "video_length": "108000",
       "video_stream_index": -1,
       "video_timebase": {
        "den": 30,
        "num": 1
       },
       "width": 720
      },
      "replace_image": false,
      "id": "4P7MOTCP3S"
     },
     {
      "layer": 2000000,
      "title": "Transition",
      "type": "Mask",
      "position": 403.3,
      "start": 0,
      "end": 0.9583333333333212,
      "brightness": {
       "Points": [
        {
         "co": {
          "X": 1.0,
          "Y": 1.0
         },
         "handle_left": {
          "X": 0.5,
          "Y": 1.0
         },
         "handle_right": {
          "X": 0.5,
          "Y": 0.0
         },
         "handle_type": 0,
         "interpolation": 0
        },
        {
         "co": {
          "X": 29.0,
          "Y": -1.0
         },
         "handle_left": {
          "X": 0.5,
          "Y": 1.0
         },
         "handle_right": {
          "X": 0.5,
          "Y": 0.0
         },
         "handle_type": 0,
         "interpolation": 0
        }
       ]
      },
      "contrast": {
       "Points": [
        {
         "co": {
          "X": 1.0,
          "Y": 3.0
         },
         "handle_left": {
          "X": 0.5,
          "Y": 1.0
         },
         "handle_right": {
          "X": 0.5,
          "Y": 0.0
         },
         "handle_type": 0,
         "interpolation": 0
        },
        {
         "co": {
          "X": 29.0,
          "Y": 3.0
         },
         "handle_left": {
          "X": 0.5,
          "Y": 1.0
         },
         "handle_right": {
          "X": 0.5,
          "Y": 0.0
         },
         "handle_type": 0,
         "interpolation": 0
        }
       ]
      },
      "reader": {
       "acodec": "",
       "audio_bit_rate": 0,
       "audio_stream_index": -1,
       "audio_timebase": {
        "den": 1,
        "num": 1
       },
       "channel_layout": 4,
       "channels": 0,
       "display_ratio": {
        "den": 4,
        "num": 5
       },
       "duration": 3600.0,
       "file_size": "5832000",
       "fps": {
        "den": 1,
        "num": 30
       },
       "has_audio": false,
       "has_single_image": true,
       "has_video": true,
       "height": 576,
       "interlaced_frame": false,
       "metadata": {},
       "path": "@transitions/common/fade.svg",
       "pixel_format": -1,
       "pixel_ratio": {
        "den": 1,
        "num": 1
       },
       "sample_rate": 0,
       "top_field_first": true,
       "type": "QtImageReader",
       "vcodec": "",
       "video_bit_rate": 0,
       "video_length": "108000",
       "video_stream_index": -1,
       "video_timebase": {
        "den": 30,
        "num": 1
       },
       "width": 720
      },
      "replace_image": false,
      "id": "PGG0YMHOIW"
     },
     {
      "layer": 1000000,
      "title": "Transition",
      "type": "Mask",
      "position": 409.93333333333334,
      "start": 0,
      "end": 0.9583333333333212,
      "brightness": {
       "Points": [
        {
         "co": {
          "X": 1.0,
          "Y": 1.0
         },
         "handle_left": {
          "X": 0.5,
          "Y": 1.0
         },
         "handle_right": {
          "X": 0.5,
          "Y": 0.0
         },
         "handle_type": 0,
         "interpolation": 0
        },
        {
         "co": {
          "X": 29.0,
          "Y": -1.0
         },
         "handle_left": {
          "X": 0.5,
          "Y": 1.0
         },
         "handle_right": {
          "X": 0.5,
          "Y": 0.0
         },
         "handle_type": 0,
         "interpolation": 0
        }
       ]
      },
      "contrast": {
       "Points": [
        {
         "co": {
          "X": 1.0,
          "Y": 3.0
         },
         "handle_left": {
          "X": 0.5,
          "Y": 1.0
         },
         "handle_right": {
          "X": 0.5,
          "Y": 0.0
         },
         "handle_type": 0,
         "interpolation": 0
        },
        {
         "co": {
          "X": 29.0,
          "Y": 3.0
         },
         "handle_left": {
          "X": 0.5,
          "Y": 1.0
         },
         "handle_right": {
          "X": 0.5,
          "Y": 0.0
         },
         "handle_type": 0,
         "interpolation": 0
        }
       ]
      },
      "reader": {
       "acodec": "",
       "audio_bit_rate": 0,
       "audio_stream_index": -1,
       "audio_timebase": {
        "den": 1,
        "num": 1
       },
       "channel_layout": 4,
       "channels": 0,
       "display_ratio": {
        "den": 4,
        "num": 5
       },
       "duration": 3600.0,
       "file_size": "5832000",
       "fps": {
        "den": 1,
        "num": 30
       },
       "has_audio": false,
       "has_single_image": true,
       "has_video": true,
       "height": 576,
       "interlaced_frame": false,
       "metadata": {},
       "path": "@transitions/common/fade.svg",
       "pixel_format": -1,
       "pixel_ratio": {
        "den": 1,
        "num": 1
       },
       "sample_rate": 0,
       "top_field_first": true,
       "type": "QtImageReader",
       "vcodec": "",
       "video_bit_rate": 0,
       "video_length": "108000",
       "video_stream_index": -1,
       "video_timebase": {
        "den": 30,
        "num": 1
       },
       "width": 720
      },
      "replace_image": false,
      "id": "YM3R94HVH1"
     },
     {
      "layer": 2000000,
      "title": "Transition",
      "type": "Mask",
      "position": 415.26666666666665,
      "start": 0,
      "end": 0.9583333333333212,
      "brightness": {
       "Points": [
        {
         "co": {
          "X": 1.0,
          "Y": -1.0
         },
         "handle_left": {
          "X": 0.5,
          "Y": 1.0
         },
         "handle_right": {
          "X": 0.5,
          "Y": 0.0
         },
         "handle_type": 0,
         "interpolation": 0
        },
        {
         "co": {
          "X": 29.0,
          "Y": 1.0
         },
         "handle_left": {
          "X": 0.5,
          "Y": 1.0
         },
         "handle_right": {
          "X": 0.5,
          "Y": 0.0
         },
         "handle_type": 0,
         "interpolation": 0
        }
       ]
      },
      "contrast": {
       "Points": [
        {
         "co": {
          "X": 1.0,
          "Y": 3.0
         },
         "handle_left": {
          "X": 0.5,
          "Y": 1.0
         },
         "handle_right": {
          "X": 0.5,
          "Y": 0.0
         },
         "handle_type": 0,
         "interpolation": 0
        },
        {
         "co": {
          "X": 29.0,
          "Y": 3.0
         },
         "handle_left": {
          "X": 0.5,
          "Y": 1.0
         },
         "handle_right": {
          "X": 0.5,
          "Y": 0.0
         },
         "handle_type": 0,
         "interpolation": 0
        }
       ]
      },
      "reader": {
       "acodec": "",
       "audio_bit_rate": 0,
       "audio_stream_index": -1,
       "audio_timebase": {
        "den": 1,
        "num": 1
       },
       "channel_layout": 4,
       "channels": 0,
       "display_ratio": {
        "den": 4,
        "num": 5
       },
       "duration": 3600.0,
       "file_size": "5832000",
       "fps": {
        "den": 1,
        "num": 30
       },
       "has_audio": false,
       "has_single_image": true,
       "has_video": true,
       "height": 576,
       "interlaced_frame": false,
       "metadata": {},
       "path": "@transitions/common/fade.svg",
       "pixel_format": -1,
       "pixel_ratio": {
        "den": 1,
        "num": 1
       },
       "sample_rate": 0,
       "top_field_first": true,
       "type": "QtImageReader",
       "vcodec": "",
       "video_bit_rate": 0,
       "video_length": "108000",
       "video_stream_index": -1,
       "video_timebase": {
        "den": 30,
        "num": 1
       },
       "width": 720
      },
      "replace_image": false,
      "id": "26OJ2CVQNP"
     },
     {
      "layer": 1000000,
      "title": "Transition",
      "type": "Mask",
      "position": 415.26666666666665,
      "start": 0,
      "end": 0.9583333333333212,
      "brightness": {
       "Points": [
        {
         "co": {
          "X": 1.0,
          "Y": -1.0
         },
         "handle_left": {
          "X": 0.5,
          "Y": 1.0
         },
         "handle_right": {
          "X": 0.5,
          "Y": 0.0
         },
         "handle_type": 0,
         "interpolation": 0
        },
        {
         "co": {
          "X": 29.0,
          "Y": 1.0
         },
         "handle_left": {
          "X": 0.5,
          "Y": 1.0
         },
         "handle_right": {
          "X": 0.5,
          "Y": 0.0
         },
         "handle_type": 0,
         "interpolation": 0
        }
       ]
      },
      "contrast": {
       "Points": [
        {
         "co": {
          "X": 1.0,
          "Y": 3.0
         },
         "handle_left": {
          "X": 0.5,
          "Y": 1.0
         },
         "handle_right": {
          "X": 0.5,
          "Y": 0.0
         },
         "handle_type": 0,
         "interpolation": 0
        },
        {
         "co": {
          "X": 29.0,
          "Y": 3.0
         },
         "handle_left": {
          "X": 0.5,
          "Y": 1.0
         },
         "handle_right": {
          "X": 0.5,
          "Y": 0.0
         },
         "handle_type": 0,
         "interpolation": 0
        }
       ]
      },
      "reader": {
       "acodec": "",
       "audio_bit_rate": 0,
       "audio_stream_index": -1,
       "audio_timebase": {
        "den": 1,
        "num": 1
       },
       "channel_layout": 4,
       "channels": 0,
       "display_ratio": {
        "den": 4,
        "num": 5
       },
       "duration": 3600.0,
       "file_size": "5832000",
       "fps": {
        "den": 1,
        "num": 30
       },
       "has_audio": false,
       "has_single_image": true,
       "has_video": true,
       "height": 576,
       "interlaced_frame": false,
       "metadata": {},
       "path": "@transitions/common/fade.svg",
       "pixel_format": -1,
       "pixel_ratio": {
        "den": 1,
        "num": 1
       },
       "sample_rate": 0,
       "top_field_first": true,
       "type": "QtImageReader",
       "vcodec": "",
       "video_bit_rate": 0,
       "video_length": "108000",
       "video_stream_index": -1,
       "video_timebase": {
        "den": 30,
        "num": 1
       },
       "width": 720
      },
      "replace_image": false,
      "id": "FAALAWUR0G"
     },
     {
      "layer": 2000000,
      "title": "Transition",
      "type": "Mask",
      "position": 416.23333333333335,
      "start": 0,
      "end": 0.9583333333333212,
      "brightness": {
       "Points": [
        {
         "co": {
          "X": 1.0,
          "Y": 1.0
         },
         "handle_left": {
          "X": 0.5,
          "Y": 1.0
         },
         "handle_right": {
          "X": 0.5,
          "Y": 0.0
         },
         "handle_type": 0,
         "interpolation": 0
        },
        {
         "co": {
          "X": 29.0,
          "Y": -1.0
         },
         "handle_left": {
          "X": 0.5,
          "Y": 1.0
         },
         "handle_right": {
          "X": 0.5,
          "Y": 0.0
         },
         "handle_type": 0,
         "interpolation": 0
        }
       ]
      },
      "contrast": {
       "Points": [
        {
         "co": {
          "X": 1.0,
          "Y": 3.0
         },
         "handle_left": {
          "X": 0.5,
          "Y": 1.0
         },
         "handle_right": {
          "X": 0.5,
          "Y": 0.0
         },
         "handle_type": 0,
         "interpolation": 0
        },
        {
         "co": {
          "X": 29.0,
          "Y": 3.0
         },
         "handle_left": {
          "X": 0.5,
          "Y": 1.0
         },
         "handle_right": {
          "X": 0.5,
          "Y": 0.0
         },
         "handle_type": 0,
         "interpolation": 0
        }
       ]
      },
      "reader": {
       "acodec": "",
       "audio_bit_rate": 0,
       "audio_stream_index": -1,
       "audio_timebase": {
        "den": 1,
        "num": 1
       },
       "channel_layout": 4,
       "channels": 0,
       "display_ratio": {
        "den": 4,
        "num": 5
       },
       "duration": 3600.0,
       "file_size": "5832000",
       "fps": {
        "den": 1,
        "num": 30
       },
       "has_audio": false,
       "has_single_image": true,
       "has_video": true,
       "height": 576,
       "interlaced_frame": false,
       "metadata": {},
       "path": "@transitions/common/fade.svg",
       "pixel_format": -1,
       "pixel_ratio": {
        "den": 1,
        "num": 1
       },
       "sample_rate": 0,
       "top_field_first": true,
       "type": "QtImageReader",
       "vcodec": "",
       "video_bit_rate": 0,
       "video_length": "108000",
       "video_stream_index": -1,
       "video_timebase": {
        "den": 30,
        "num": 1
       },
       "width": 720
      },
      "replace_image": false,
      "id": "ULXPUMT6PO"
     },
     {
      "layer": 2000000,
      "title": "Transition",
      "type": "Mask",
      "position": 419.9,
      "start": 0,
      "end": 0.9583333333333212,
      "brightness": {
       "Points": [
        {
         "co": {
          "X": 1.0,
          "Y": -1.0
         },
         "handle_left": {
          "X": 0.5,
          "Y": 1.0
         },
         "handle_right": {
          "X": 0.5,
          "Y": 0.0
         },
         "handle_type": 0,
         "interpolation": 0
        },
        {
         "co": {
          "X": 29.0,
          "Y": 1.0
         },
         "handle_left": {
          "X": 0.5,
          "Y": 1.0
         },
         "handle_right": {
          "X": 0.5,
          "Y": 0.0
         },
         "handle_type": 0,
         "interpolation": 0
        }
       ]
      },
      "contrast": {
       "Points": [
        {
         "co": {
          "X": 1.0,
          "Y": 3.0
         },
         "handle_left": {
          "X": 0.5,
          "Y": 1.0
         },
         "handle_right": {
          "X": 0.5,
          "Y": 0.0
         },
         "handle_type": 0,
         "interpolation": 0
        },
        {
         "co": {
          "X": 29.0,
          "Y": 3.0
         },
         "handle_left": {
          "X": 0.5,
          "Y": 1.0
         },
         "handle_right": {
          "X": 0.5,
          "Y": 0.0
         },
         "handle_type": 0,
         "interpolation": 0
        }
       ]
      },
      "reader": {
       "acodec": "",
       "audio_bit_rate": 0,
       "audio_stream_index": -1,
       "audio_timebase": {
        "den": 1,
        "num": 1
       },
       "channel_layout": 4,
       "channels": 0,
       "display_ratio": {
        "den": 4,
        "num": 5
       },
       "duration": 3600.0,
       "file_size": "5832000",
       "fps": {
        "den": 1,
        "num": 30
       },
       "has_audio": false,
       "has_single_image": true,
       "has_video": true,
       "height": 576,
       "interlaced_frame": false,
       "metadata": {},
       "path": "@transitions/common/fade.svg",
       "pixel_format": -1,
       "pixel_ratio": {
        "den": 1,
        "num": 1
       },
       "sample_rate": 0,
       "top_field_first": true,
       "type": "QtImageReader",
       "vcodec": "",
       "video_bit_rate": 0,
       "video_length": "108000",
       "video_stream_index": -1,
       "video_timebase": {
        "den": 30,
        "num": 1
       },
       "width": 720
      },
      "replace_image": false,
      "id": "DYLW8V9WX8"
     },
     {
      "layer": 3000000,
      "title": "Transition",
      "type": "Mask",
      "position": 419.9,
      "start": 0,
      "end": 0.9583333333333212,
      "brightness": {
       "Points": [
        {
         "co": {
          "X": 1.0,
          "Y": -1.0
         },
         "handle_left": {
          "X": 0.5,
          "Y": 1.0
         },
         "handle_right": {
          "X": 0.5,
          "Y": 0.0
         },
         "handle_type": 0,
         "interpolation": 0
        },
        {
         "co": {
          "X": 29.0,
          "Y": 1.0
         },
         "handle_left": {
          "X": 0.5,
          "Y": 1.0
         },
         "handle_right": {
          "X": 0.5,
          "Y": 0.0
         },
         "handle_type": 0,
         "interpolation": 0
        }
       ]
      },
      "contrast": {
       "Points": [
        {
         "co": {
          "X": 1.0,
          "Y": 3.0
         },
         "handle_left": {
          "X": 0.5,
          "Y": 1.0
         },
         "handle_right": {
          "X": 0.5,
          "Y": 0.0
         },
         "handle_type": 0,
         "interpolation": 0
        },
        {
         "co": {
          "X": 29.0,
          "Y": 3.0
         },
         "handle_left": {
          "X": 0.5,
          "Y": 1.0
         },
         "handle_right": {
          "X": 0.5,
          "Y": 0.0
         },
         "handle_type": 0,
         "interpolation": 0
        }
       ]
      },
      "reader": {
       "acodec": "",
       "audio_bit_rate": 0,
       "audio_stream_index": -1,
       "audio_timebase": {
        "den": 1,
        "num": 1
       },
       "channel_layout": 4,
       "channels": 0,
       "display_ratio": {
        "den": 4,
        "num": 5
       },
       "duration": 3600.0,
       "file_size": "5832000",
       "fps": {
        "den": 1,
        "num": 30
       },
       "has_audio": false,
       "has_single_image": true,
       "has_video": true,
       "height": 576,
       "interlaced_frame": false,
       "metadata": {},
       "path": "@transitions/common/fade.svg",
       "pixel_format": -1,
       "pixel_ratio": {
        "den": 1,
        "num": 1
       },
       "sample_rate": 0,
       "top_field_first": true,
       "type": "QtImageReader",
       "vcodec": "",
       "video_bit_rate": 0,
       "video_length": "108000",
       "video_stream_index": -1,
       "video_timebase": {
        "den": 30,
        "num": 1
       },
       "width": 720
      },
      "replace_image": false,
      "id": "CXGUT073SE"
     }
    ],
    "transaction": "b08457a5-4fd4-46ad-8975-31aa16ddc979"
   },
   {
    "type": "update",
    "key": [
     "effects",
     {
      "id": "UU98446Y5E"
     }
    ],
    "value": {
     "id": "UU98446Y5E",
     "layer": 1000000,
     "position": 420.8666666666667,
     "start": 0,
     "end": 0.9583333333333212,
     "brightness": {
      "Points": [
       {
        "co": {
         "X": 1.0,
         "Y": 1.0
        },
        "handle_left": {
         "X": 0.5,
         "Y": 1.0
        },
        "handle_right": {
         "X": 0.5,
         "Y": 0.0
        },
        "handle_type": 0,
        "interpolation": 0
       },
       {
        "co": {
         "X": 29.0,
         "Y": -1.0
        },
        "handle_left": {
         "X": 0.5,
         "Y": 1.0
        },
        "handle_right": {
         "X": 0.5,
         "Y": 0.0
        },
        "handle_type": 0,
        "interpolation": 0
       }
      ]
     },
     "contrast": {
      "Points": [
       {
        "co": {
         "X": 1.0,
         "Y": 3.0
        },
        "handle_left": {
         "X": 0.5,
         "Y": 1.0
        },
        "handle_right": {
         "X": 0.5,
         "Y": 0.0
        },
        "handle_type": 0,
        "interpolation": 0
       },
       {
        "co": {
         "X": 29.0,
         "Y": 3.0
        },
        "handle_left": {
         "X": 0.5,
         "Y": 1.0
        },
        "handle_right": {
         "X": 0.5,
         "Y": 0.0
        },
        "handle_type": 0,
        "interpolation": 0
       }
      ]
     }
    },
    "old_values": {
     "layer": 2000000,
     "title": "Transition",
     "type": "Mask",
     "position": 422.06666666666666,
     "start": 0,
     "end": 0.9583333333333212,
     "brightness": {
      "Points": [
       {
        "co": {
         "X": 1.0,
         "Y": -1.0
        },
        "handle_left": {
         "X": 0.5,
         "Y": 1.0
        },
        "handle_right": {
         "X": 0.5,
         "Y": 0.0
        },
        "handle_type": 0,
        "interpolation": 0
       },
       {
        "co": {
         "X": 29.0,
         "Y": 1.0
        },
        "handle_left": {
         "X": 0.5,
         "Y": 1.0
        },
        "handle_right": {
         "X": 0.5,
         "Y": 0.0
        },
        "handle_type": 0,
        "interpolation": 0
       }
      ]
     },
     "contrast": {
      "Points": [
       {
        "co": {
         "X": 1.0,
         "Y": 3.0
        },
        "handle_left": {
         "X": 0.5,
         "Y": 1.0
        },
        "handle_right": {
         "X": 0.5,
         "Y": 0.0
        },
        "handle_type": 0,
        "interpolation": 0
       },
       {
        "co": {
         "X": 29.0,
         "Y": 3.0
        },
        "handle_left": {
         "X": 0.5,
         "Y": 1.0
        },
        "handle_right": {
         "X": 0.5,
         "Y": 0.0
        },
        "handle_type": 0,
        "interpolation": 0
       }
      ]
     },
     "reader": {
      "acodec": "",
      "audio_bit_rate": 0,
      "audio_stream_index": -1,
      "audio_timebase": {
       "den": 1,
       "num": 1
      },
      "channel_layout": 4,
      "channels": 0,
      "display_ratio": {
       "den": 4,
       "num": 5
      },
      "duration": 3600.0,
      "file_size": "5832000",
      "fps": {
       "den": 1,
       "num": 30
      },
      "has_audio": false,
      "has_single_image": true,
      "has_video": true,
      "height": 576,
      "interlaced_frame": false,
      "metadata": {},
      "path": "@transitions/common/fade.svg",
      "pixel_format": -1,
      "pixel_ratio": {
       "den": 1,
       "num": 1
      },
      "sample_rate": 0,
      "top_field_first": true,
      "type": "QtImageReader",
      "vcodec": "",
      "video_bit_rate": 0,
      "video_length": "108000",
      "video_stream_index": -1,
      "video_timebase": {
       "den": 30,
       "num": 1
      },
      "width": 720
     },
     "replace_image": false,
     "id": "UU98446Y5E"
    },
    "transaction": "c8d91d95-fc70-4781-baa2-9cc33a21bb5f"
   },
   {
    "type": "insert",
    "key": [
     "effects"
    ],
    "value": {
     "layer": 2000000,
     "title": "Transition",
     "type": "Mask",
     "position": 421.4,
     "start": 0,
     "end": 0.9583333333333212,
     "brightness": {
      "Points": [
       {
        "co": {
         "X": 1.0,
         "Y": 1.0
        },
        "handle_left": {
         "X": 0.5,
         "Y": 1.0
        },
        "handle_right": {
         "X": 0.5,
         "Y": 0.0
        },
        "handle_type": 0,
        "interpolation": 0
       },
       {
        "co": {
         "X": 29.0,
         "Y": -1.0
        },
        "handle_left": {
         "X": 0.5,
         "Y": 1.0
        },
        "handle_right": {
         "X": 0.5,
         "Y": 0.0
        },
        "handle_type": 0,
        "interpolation": 0
       }
      ]
     },
     "contrast": {
      "Points": [
       {
        "co": {
         "X": 1.0,
         "Y": 3.0
        },
        "handle_left": {
         "X": 0.5,
         "Y": 1.0
        },
        "handle_right": {
         "X": 0.5,
         "Y": 0.0
        },
        "handle_type": 0,
        "interpolation": 0
       },
       {
        "co": {
         "X": 29.0,
         "Y": 3.0
        },
        "handle_left": {
         "X": 0.5,
         "Y": 1.0
        },
        "handle_right": {
         "X": 0.5,
         "Y": 0.0
        },
        "handle_type": 0,
        "interpolation": 0
       }
      ]
     },
     "reader": {
      "acodec": "",
      "audio_bit_rate": 0,
      "audio_stream_index": -1,
      "audio_timebase": {
       "den": 1,
       "num": 1
      },
      "channel_layout": 4,
      "channels": 0,
      "display_ratio": {
       "den": 4,
       "num": 5
      },
      "duration": 3600.0,
      "file_size": "5832000",
      "fps": {
       "den": 1,
       "num": 30
      },
      "has_audio": false,
      "has_single_image": true,
      "has_video": true,
      "height": 576,
      "interlaced_frame": false,
      "metadata": {},
      "path": "@transitions/common/fade.svg",
      "pixel_format": -1,
      "pixel_ratio": {
       "den": 1,
       "num": 1
      },
      "sample_rate": 0,
      "top_field_first": true,
      "type": "QtImageReader",
      "vcodec": "",
      "video_bit_rate": 0,
      "video_length": "108000",
      "video_stream_index": -1,
      "video_timebase": {
       "den": 30,
       "num": 1
      },
      "width": 720
     },
     "replace_image": false,
     "id": "OX49IKX2Z1"
    },
    "old_values": [
     {
      "id": "CCF0XFFI23",
      "layer": 2000000,
      "title": "Transition",
      "type": "Mask",
      "position": 0.8,
      "start": 0,
      "end": 1,
      "brightness": {
       "Points": [
        {
         "co": {
          "X": 1.0,
          "Y": 1.0
         },
         "handle_left": {
          "X": 0.5,
          "Y": 1.0
         },
         "handle_right": {
          "X": 0.5,
          "Y": 0.0
         },
         "handle_type": 0,
         "interpolation": 0
        },
        {
         "co": {
          "X": 30.0,
          "Y": -1.0
         },
         "handle_left": {
          "X": 0.5,
          "Y": 1.0
         },
         "handle_right": {
          "X": 0.5,
          "Y": 0.0
         },
         "handle_type": 0,
         "interpolation": 0
        }
       ]
      },
      "contrast": {
       "Points": [
        {
         "co": {
          "X": 1.0,
          "Y": 3.0
         },
         "handle_left": {
          "X": 0.5,
          "Y": 1.0
         },
         "handle_right": {
          "X": 0.5,
          "Y": 0.0
         },
         "handle_type": 0,
         "interpolation": 0
        },
        {
         "co": {
          "X": 30.0,
          "Y": 3.0
         },
         "handle_left": {
          "X": 0.5,
          "Y": 1.0
         },
         "handle_right": {
          "X": 0.5,
          "Y": 0.0
         },
         "handle_type": 0,
         "interpolation": 0
        }
       ]
      },
      "reader": {
       "acodec": "",
       "audio_bit_rate": 0,
       "audio_stream_index": -1,
       "audio_timebase": {
        "den": 1,
        "num": 1
       },
       "channel_layout": 4,
       "channels": 0,
       "display_ratio": {
        "den": 4,
        "num": 5
       },
       "duration": 3600.0,
       "file_size": "5832000",
       "fps": {
        "den": 1,
        "num": 30
       },
       "has_audio": false,
       "has_single_image": true,
       "has_video": true,
       "height": 576,
       "interlaced_frame": false,
       "metadata": {},
       "path": "@transitions/common/fade.svg",
       "pixel_format": -1,
       "pixel_ratio": {
        "den": 1,
        "num": 1
       },
       "sample_rate": 0,
       "top_field_first": true,
       "type": "QtImageReader",
       "vcodec": "",
       "video_bit_rate": 0,
       "video_length": "108000",
       "video_stream_index": -1,
       "video_timebase": {
        "den": 30,
        "num": 1
       },
       "width": 720
      },
      "replace_image": false
     },
     {
      "layer": 2000000,
      "title": "Transition",
      "type": "Mask",
      "position": 5.533333333333333,
      "start": 0,
      "end": 1,
      "brightness": {
       "Points": [
        {
         "co": {
          "X": 1.0,
          "Y": -1.0
         },
         "handle_left": {
          "X": 0.5,
          "Y": 1.0
         },
         "handle_right": {
          "X": 0.5,
          "Y": 0.0
         },
         "handle_type": 0,
         "interpolation": 0
        },
        {
         "co": {
          "X": 30.0,
          "Y": 1.0
         },
         "handle_left": {
          "X": 0.5,
          "Y": 1.0
         },
         "handle_right": {
          "X": 0.5,
          "Y": 0.0
         },
         "handle_type": 0,
         "interpolation": 0
        }
       ]
      },
      "contrast": {
       "Points": [
        {
         "co": {
          "X": 1.0,
          "Y": 3.0
         },
         "handle_left": {
          "X": 0.5,
          "Y": 1.0
         },
         "handle_right": {
          "X": 0.5,
          "Y": 0.0
         },
         "handle_type": 0,
         "interpolation": 0
        },
        {
         "co": {
          "X": 30.0,
          "Y": 3.0
         },
         "handle_left": {
          "X": 0.5,
          "Y": 1.0
         },
         "handle_right": {
          "X": 0.5,
          "Y": 0.0
         },
         "handle_type": 0,
         "interpolation": 0
        }
       ]
      },
      "reader": {
       "acodec": "",
       "audio_bit_rate": 0,
       "audio_stream_index": -1,
       "audio_timebase": {
        "den": 1,
        "num": 1
       },
       "channel_layout": 4,
       "channels": 0,
       "display_ratio": {
        "den": 4,
        "num": 5
       },
       "duration": 3600.0,
       "file_size": "5832000",
       "fps": {
        "den": 1,
        "num": 30
       },
       "has_audio": false,
       "has_single_image": true,
       "has_video": true,
       "height": 576,
       "interlaced_frame": false,
       "metadata": {},
       "path": "@transitions/common/fade.svg",
       "pixel_format": -1,
       "pixel_ratio": {
        "den": 1,
        "num": 1
       },
       "sample_rate": 0,
       "top_field_first": true,
       "type": "QtImageReader",
       "vcodec": "",
       "video_bit_rate": 0,
       "video_length": "108000",
       "video_stream_index": -1,
       "video_timebase": {
        "den": 30,
        "num": 1
       },
       "width": 720
      },
      "replace_image": false,
      "id": "XXA2JTVLMO"
     },
     {
      "layer": 2000000,
      "title": "Transition",
      "type": "Mask",
      "position": 11.433333333333334,
      "start": 0,
      "end": 1,
      "brightness": {
       "Points": [
        {
         "co": {
          "X": 1.0,
          "Y": 1.0
         },
         "handle_left": {
          "X": 0.5,
          "Y": 1.0
         },
         "handle_right": {
          "X": 0.5,
          "Y": 0.0
         },
         "handle_type": 0,
         "interpolation": 0
        },
        {
         "co": {
          "X": 30.0,
          "Y": -1.0
         },
         "handle_left": {
          "X": 0.5,
          "Y": 1.0
         },
         "handle_right": {
          "X": 0.5,
          "Y": 0.0
         },
         "handle_type": 0,
         "interpolation": 0
        }
       ]
      },
      "contrast": {
       "Points": [
        {
         "co": {
          "X": 1.0,
          "Y": 3.0
         },
         "handle_left": {
          "X": 0.5,
          "Y": 1.0
         },
         "handle_right": {
          "X": 0.5,
          "Y": 0.0
         },
         "handle_type": 0,
         "interpolation": 0
        },
        {
         "co": {
          "X": 30.0,
          "Y": 3.0
         },
         "handle_left": {
          "X": 0.5,
          "Y": 1.0
         },
         "handle_right": {
          "X": 0.5,
          "Y": 0.0
         },
         "handle_type": 0,
         "interpolation": 0
        }
       ]
      },
      "reader": {
       "acodec": "",
       "audio_bit_rate": 0,
       "audio_stream_index": -1,
       "audio_timebase": {
        "den": 1,
        "num": 1
       },
       "channel_layout": 4,
       "channels": 0,
       "display_ratio": {
        "den": 4,
        "num": 5
       },
       "duration": 3600.0,
       "file_size": "5832000",
       "fps": {
        "den": 1,
        "num": 30
       },
       "has_audio": false,
       "has_single_image": true,
       "has_video": true,
       "height": 576,
       "interlaced_frame": false,
       "metadata": {},
       "path": "@transitions/common/fade.svg",
       "pixel_format": -1,
       "pixel_ratio": {
        "den": 1,
        "num": 1
       },
       "sample_rate": 0,
       "top_field_first": true,
       "type": "QtImageReader",
       "vcodec": "",
       "video_bit_rate": 0,
       "video_length": "108000",
       "video_stream_index": -1,
       "video_timebase": {
        "den": 30,
        "num": 1
       },
       "width": 720
      },
      "replace_image": false,
      "id": "RN9POGRPKN"
     },
     {
      "layer": 2000000,
      "title": "Transition",
      "type": "Mask",
      "position": 19.333333333333332,
      "start": 0,
      "end": 1,
      "brightness": {
       "Points": [
        {
         "co": {
          "X": 1.0,
          "Y": -1.0
         },
         "handle_left": {
          "X": 0.5,
          "Y": 1.0
         },
         "handle_right": {
          "X": 0.5,
          "Y": 0.0
         },
         "handle_type": 0,
         "interpolation": 0
        },
        {
         "co": {
          "X": 30.0,
          "Y": 1.0
         },
         "handle_left": {
          "X": 0.5,
          "Y": 1.0
         },
         "handle_right": {
          "X": 0.5,
          "Y": 0.0
         },
         "handle_type": 0,
         "interpolation": 0
        }
       ]
      },
      "contrast": {
       "Points": [
        {
         "co": {
          "X": 1.0,
          "Y": 3.0
         },
         "handle_left": {
          "X": 0.5,
          "Y": 1.0
         },
         "handle_right": {
          "X": 0.5,
          "Y": 0.0
         },
         "handle_type": 0,
         "interpolation": 0
        },
        {
         "co": {
          "X": 30.0,
          "Y": 3.0
         },
         "handle_left": {
          "X": 0.5,
          "Y": 1.0
         },
         "handle_right": {
          "X": 0.5,
          "Y": 0.0
         },
         "handle_type": 0,
         "interpolation": 0
        }
       ]
      },
      "reader": {
       "acodec": "",
       "audio_bit_rate": 0,
       "audio_stream_index": -1,
       "audio_timebase": {
        "den": 1,
        "num": 1
       },
       "channel_layout": 4,
       "channels": 0,
       "display_ratio": {
        "den": 4,
        "num": 5
       },
       "duration": 3600.0,
       "file_size": "5832000",
       "fps": {
        "den": 1,
        "num": 30
       },
       "has_audio": false,
       "has_single_image": true,
       "has_video": true,
       "height": 576,
       "interlaced_frame": false,
       "metadata": {},
       "path": "@transitions/common/fade.svg",
       "pixel_format": -1,
       "pixel_ratio": {
        "den": 1,
        "num": 1
       },
       "sample_rate": 0,
       "top_field_first": true,
       "type": "QtImageReader",
       "vcodec": "",
       "video_bit_rate": 0,
       "video_length": "108000",
       "video_stream_index": -1,
       "video_timebase": {
        "den": 30,
        "num": 1
       },
       "width": 720
      },
      "replace_image": false,
      "id": "ADKB2ZG9IL"
     },
     {
      "layer": 2000000,
      "title": "Transition",
      "type": "Mask",
      "position": 20.966666666666665,
      "start": 0,
      "end": 1,
      "brightness": {
       "Points": [
        {
         "co": {
          "X": 1.0,
          "Y": 1.0
         },
         "handle_left": {
          "X": 0.5,
          "Y": 1.0
         },
         "handle_right": {
          "X": 0.5,
          "Y": 0.0
         },
         "handle_type": 0,
         "interpolation": 0
        },
        {
         "co": {
          "X": 30.0,
          "Y": -1.0
         },
         "handle_left": {
          "X": 0.5,
          "Y": 1.0
         },
         "handle_right": {
          "X": 0.5,
          "Y": 0.0
         },
         "handle_type": 0,
         "interpolation": 0
        }
       ]
      },
      "contrast": {
       "Points": [
        {
         "co": {
          "X": 1.0,
          "Y": 3.0
         },
         "handle_left": {
          "X": 0.5,
          "Y": 1.0
         },
         "handle_right": {
          "X": 0.5,
          "Y": 0.0
         },
         "handle_type": 0,
         "interpolation": 0
        },
        {
         "co": {
          "X": 30.0,
          "Y": 3.0
         },
         "handle_left": {
          "X": 0.5,
          "Y": 1.0
         },
         "handle_right": {
          "X": 0.5,
          "Y": 0.0
         },
         "handle_type": 0,
         "interpolation": 0
        }
       ]
      },
      "reader": {
       "acodec": "",
       "audio_bit_rate": 0,
       "audio_stream_index": -1,
       "audio_timebase": {
        "den": 1,
        "num": 1
       },
       "channel_layout": 4,
       "channels": 0,
       "display_ratio": {
        "den": 4,
        "num": 5
       },
       "duration": 3600.0,
       "file_size": "5832000",
       "fps": {
        "den": 1,
        "num": 30
       },
       "has_audio": false,
       "has_single_image": true,
       "has_video": true,
       "height": 576,
       "interlaced_frame": false,
       "metadata": {},
       "path": "@transitions/common/fade.svg",
       "pixel_format": -1,
       "pixel_ratio": {
        "den": 1,
        "num": 1
       },
       "sample_rate": 0,
       "top_field_first": true,
       "type": "QtImageReader",
       "vcodec": "",
       "video_bit_rate": 0,
       "video_length": "108000",
       "video_stream_index": -1,
       "video_timebase": {
        "den": 30,
        "num": 1
       },
       "width": 720
      },
      "replace_image": false,
      "id": "0W42OBC13Z"
     },
     {
      "layer": 3000000,
      "title": "Transition",
      "type": "Mask",
      "position": 21.966666666666665,
      "start": 0,
      "end": 1,
      "brightness": {
       "Points": [
        {
         "co": {
          "X": 1.0,
          "Y": 1.0
         },
         "handle_left": {
          "X": 0.5,
          "Y": 1.0
         },
         "handle_right": {
          "X": 0.5,
          "Y": 0.0
         },
         "handle_type": 0,
         "interpolation": 0
        },
        {
         "co": {
          "X": 30.0,
          "Y": -1.0
         },
         "handle_left": {
          "X": 0.5,
          "Y": 1.0
         },
         "handle_right": {
          "X": 0.5,
          "Y": 0.0
         },
         "handle_type": 0,
         "interpolation": 0
        }
       ]
      },
      "contrast": {
       "Points": [
        {
         "co": {
          "X": 1.0,
          "Y": 3.0
         },
         "handle_left": {
          "X": 0.5,
          "Y": 1.0
         },
         "handle_right": {
          "X": 0.5,
          "Y": 0.0
         },
         "handle_type": 0,
         "interpolation": 0
        },
        {
         "co": {
          "X": 30.0,
          "Y": 3.0
         },
         "handle_left": {
          "X": 0.5,
          "Y": 1.0
         },
         "handle_right": {
          "X": 0.5,
          "Y": 0.0
         },
         "handle_type": 0,
         "interpolation": 0
        }
       ]
      },
      "reader": {
       "acodec": "",
       "audio_bit_rate": 0,
       "audio_stream_index": -1,
       "audio_timebase": {
        "den": 1,
        "num": 1
       },
       "channel_layout": 4,
       "channels": 0,
       "display_ratio": {
        "den": 4,
        "num": 5
       },
       "duration": 3600.0,
       "file_size": "5832000",
       "fps": {
        "den": 1,
        "num": 30
       },
       "has_audio": false,
       "has_single_image": true,
       "has_video": true,
       "height": 576,
       "interlaced_frame": false,
       "metadata": {},
       "path": "@transitions/common/fade.svg",
       "pixel_format": -1,
       "pixel_ratio": {
        "den": 1,
        "num": 1
       },
       "sample_rate": 0,
       "top_field_first": true,
       "type": "QtImageReader",
       "vcodec": "",
       "video_bit_rate": 0,
       "video_length": "108000",
       "video_stream_index": -1,
       "video_timebase": {
        "den": 30,
        "num": 1
       },
       "width": 720
      },
      "replace_image": false,
      "id": "QSYGIBWS04"
     },
     {
      "layer": 4000000,
      "title": "Transition",
      "type": "Mask",
      "position": 21.966666666666665,
      "start": 0,
      "end": 1,
      "brightness": {
       "Points": [
        {
         "co": {
          "X": 1.0,
          "Y": 1.0
         },
         "handle_left": {
          "X": 0.5,
          "Y": 1.0
         },
         "handle_right": {
          "X": 0.5,
          "Y": 0.0
         },
         "handle_type": 0,
         "interpolation": 0
        },
        {
         "co": {
          "X": 30.0,
          "Y": -1.0
         },
         "handle_left": {
          "X": 0.5,
          "Y": 1.0
         },
         "handle_right": {
          "X": 0.5,
          "Y": 0.0
         },
         "handle_type": 0,
         "interpolation": 0
        }
       ]
      },
      "contrast": {
       "Points": [
        {
         "co": {
          "X": 1.0,
          "Y": 3.0
         },
         "handle_left": {
          "X": 0.5,
          "Y": 1.0
         },
         "handle_right": {
          "X": 0.5,
          "Y": 0.0
         },
         "handle_type": 0,
         "interpolation": 0
        },
        {
         "co": {
          "X": 30.0,
          "Y": 3.0
         },
         "handle_left": {
          "X": 0.5,
          "Y": 1.0
         },
         "handle_right": {
          "X": 0.5,
          "Y": 0.0
         },
         "handle_type": 0,
         "interpolation": 0
        }
       ]
      },
      "reader": {
       "acodec": "",
       "audio_bit_rate": 0,
       "audio_stream_index": -1,
       "audio_timebase": {
        "den": 1,
        "num": 1
       },
       "channel_layout": 4,
       "channels": 0,
       "display_ratio": {
        "den": 4,
        "num": 5
       },
       "duration": 3600.0,
       "file_size": "5832000",
       "fps": {
        "den": 1,
        "num": 30
       },
       "has_audio": false,
       "has_single_image": true,
       "has_video": true,
       "height": 576,
       "interlaced_frame": false,
       "metadata": {},
       "path": "@transitions/common/fade.svg",
       "pixel_format": -1,
       "pixel_ratio": {
        "den": 1,
        "num": 1
       },
       "sample_rate": 0,
       "top_field_first": true,
       "type": "QtImageReader",
       "vcodec": "",
       "video_bit_rate": 0,
       "video_length": "108000",
       "video_stream_index": -1,
       "video_timebase": {
        "den": 30,
        "num": 1
       },
       "width": 720
      },
      "replace_image": false,
      "id": "MUDX88MTT3"
     },
     {
      "layer": 7000000,
      "title": "Transition",
      "type": "Mask",
      "position": 21.966666666666665,
      "start": 0,
      "end": 1,
      "brightness": {
       "Points": [
        {
         "co": {
          "X": 1.0,
          "Y": 1.0
         },
         "handle_left": {
          "X": 0.5,
          "Y": 1.0
         },
         "handle_right": {
          "X": 0.5,
          "Y": 0.0
         },
         "handle_type": 0,
         "interpolation": 0
        },
        {
         "co": {
          "X": 30.0,
          "Y": -1.0
         },
         "handle_left": {
          "X": 0.5,
          "Y": 1.0
         },
         "handle_right": {
          "X": 0.5,
          "Y": 0.0
         },
         "handle_type": 0,
         "interpolation": 0
        }
       ]
      },
      "contrast": {
       "Points": [
        {
         "co": {
          "X": 1.0,
          "Y": 3.0
         },
         "handle_left": {
          "X": 0.5,
          "Y": 1.0
         },
         "handle_right": {
          "X": 0.5,
          "Y": 0.0
         },
         "handle_type": 0,
         "interpolation": 0
        },
        {
         "co": {
          "X": 30.0,
          "Y": 3.0
         },
         "handle_left": {
          "X": 0.5,
          "Y": 1.0
         },
         "handle_right": {
          "X": 0.5,
          "Y": 0.0
         },
         "handle_type": 0,
         "interpolation": 0
        }
       ]
      },
      "reader": {
       "acodec": "",
       "audio_bit_rate": 0,
       "audio_stream_index": -1,
       "audio_timebase": {
        "den": 1,
        "num": 1
       },
       "channel_layout": 4,
       "channels": 0,
       "display_ratio": {
        "den": 4,
        "num": 5
       },
       "duration": 3600.0,
       "file_size": "5832000",
       "fps": {
        "den": 1,
        "num": 30
       },
       "has_audio": false,
       "has_single_image": true,
       "has_video": true,
       "height": 576,
       "interlaced_frame": false,
       "metadata": {},
       "path": "@transitions/common/fade.svg",
       "pixel_format": -1,
       "pixel_ratio": {
        "den": 1,
        "num": 1
       },
       "sample_rate": 0,
       "top_field_first": true,
       "type": "QtImageReader",
       "vcodec": "",
       "video_bit_rate": 0,
       "video_length": "108000",
       "video_stream_index": -1,
       "video_timebase": {
        "den": 30,
        "num": 1
       },
       "width": 720
      },
      "replace_image": false,
      "id": "4L09X67XI2"
     },
     {
      "layer": 5000000,
      "title": "Transition",
      "type": "Mask",
      "position": 21.966666666666665,
      "start": 0,
      "end": 1,
      "brightness": {
       "Points": [
        {
         "co": {
          "X": 1.0,
          "Y": 1.0
         },
         "handle_left": {
          "X": 0.5,
          "Y": 1.0
         },
         "handle_right": {
          "X": 0.5,
          "Y": 0.0
         },
         "handle_type": 0,
         "interpolation": 0
        },
        {
         "co": {
          "X": 30.0,
          "Y": -1.0
         },
         "handle_left": {
          "X": 0.5,
          "Y": 1.0
         },
         "handle_right": {
          "X": 0.5,
          "Y": 0.0
         },
         "handle_type": 0,
         "interpolation": 0
        }
       ]
      },
      "contrast": {
       "Points": [
        {
         "co": {
          "X": 1.0,
          "Y": 3.0
         },
         "handle_left": {
          "X": 0.5,
          "Y": 1.0
         },
         "handle_right": {
          "X": 0.5,
          "Y": 0.0
         },
         "handle_type": 0,
         "interpolation": 0
        },
        {
         "co": {
          "X": 30.0,
          "Y": 3.0
         },
         "handle_left": {
          "X": 0.5,
          "Y": 1.0
         },
         "handle_right": {
          "X": 0.5,
          "Y": 0.0
         },
         "handle_type": 0,
         "interpolation": 0
        }
       ]
      },
      "reader": {
       "acodec": "",
       "audio_bit_rate": 0,
       "audio_stream_index": -1,
       "audio_timebase": {
        "den": 1,
        "num": 1
       },
       "channel_layout": 4,
       "channels": 0,
       "display_ratio": {
        "den": 4,
        "num": 5
       },
       "duration": 3600.0,
       "file_size": "5832000",
       "fps": {
        "den": 1,
        "num": 30
       },
       "has_audio": false,
       "has_single_image": true,
       "has_video": true,
       "height": 576,
       "interlaced_frame": false,
       "metadata": {},
       "path": "@transitions/common/fade.svg",
       "pixel_format": -1,
       "pixel_ratio": {
        "den": 1,
        "num": 1
       },
       "sample_rate": 0,
       "top_field_first": true,
       "type": "QtImageReader",
       "vcodec": "",
       "video_bit_rate": 0,
       "video_length": "108000",
       "video_stream_index": -1,
       "video_timebase": {
        "den": 30,
        "num": 1
       },
       "width": 720
      },
      "replace_image": false,
      "id": "O681WSL8AF"
     },
     {
      "layer": 6000000,
      "title": "Transition",
      "type": "Mask",
      "position": 21.966666666666665,
      "start": 0,
      "end": 1,
      "brightness": {
       "Points": [
        {
         "co": {
          "X": 1.0,
          "Y": 1.0
         },
         "handle_left": {
          "X": 0.5,
          "Y": 1.0
         },
         "handle_right": {
          "X": 0.5,
          "Y": 0.0
         },
         "handle_type": 0,
         "interpolation": 0
        },
        {
         "co": {
          "X": 30.0,
          "Y": -1.0
         },
         "handle_left": {
          "X": 0.5,
          "Y": 1.0
         },
         "handle_right": {
          "X": 0.5,
          "Y": 0.0
         },
         "handle_type": 0,
         "interpolation": 0
        }
       ]
      },
      "contrast": {
       "Points": [
        {
         "co": {
          "X": 1.0,
          "Y": 3.0
         },
         "handle_left": {
          "X": 0.5,
          "Y": 1.0
         },
         "handle_right": {
          "X": 0.5,
          "Y": 0.0
         },
         "handle_type": 0,
         "interpolation": 0
        },
        {
         "co": {
          "X": 30.0,
          "Y": 3.0
         },
         "handle_left": {
          "X": 0.5,
          "Y": 1.0
         },
         "handle_right": {
          "X": 0.5,
          "Y": 0.0
         },
         "handle_type": 0,
         "interpolation": 0
        }
       ]
      },
      "reader": {
       "acodec": "",
       "audio_bit_rate": 0,
       "audio_stream_index": -1,
       "audio_timebase": {
        "den": 1,
        "num": 1
       },
       "channel_layout": 4,
       "channels": 0,
       "display_ratio": {
        "den": 4,
        "num": 5
       },
       "duration": 3600.0,
       "file_size": "5832000",
       "fps": {
        "den": 1,
        "num": 30
       },
       "has_audio": false,
       "has_single_image": true,
       "has_video": true,
       "height": 576,
       "interlaced_frame": false,
       "metadata": {},
       "path": "@transitions/common/fade.svg",
       "pixel_format": -1,
       "pixel_ratio": {
        "den": 1,
        "num": 1
       },
       "sample_rate": 0,
       "top_field_first": true,
       "type": "QtImageReader",
       "vcodec": "",
       "video_bit_rate": 0,
       "video_length": "108000",
       "video_stream_index": -1,
       "video_timebase": {
        "den": 30,
        "num": 1
       },
       "width": 720
      },
      "replace_image": false,
      "id": "M088VM48FK"
     },
     {
      "layer": 6000000,
      "title": "Transition",
      "type": "Mask",
      "position": 25.266666666666666,
      "start": 0,
      "end": 1,
      "brightness": {
       "Points": [
        {
         "co": {
          "X": 1.0,
          "Y": -1.0
         },
         "handle_left": {
          "X": 0.5,
          "Y": 1.0
         },
         "handle_right": {
          "X": 0.5,
          "Y": 0.0
         },
         "handle_type": 0,
         "interpolation": 0
        },
        {
         "co": {
          "X": 30.0,
          "Y": 1.0
         },
         "handle_left": {
          "X": 0.5,
          "Y": 1.0
         },
         "handle_right": {
          "X": 0.5,
          "Y": 0.0
         },
         "handle_type": 0,
         "interpolation": 0
        }
       ]
      },
      "contrast": {
       "Points": [
        {
         "co": {
          "X": 1.0,
          "Y": 3.0
         },
         "handle_left": {
          "X": 0.5,
          "Y": 1.0
         },
         "handle_right": {
          "X": 0.5,
          "Y": 0.0
         },
         "handle_type": 0,
         "interpolation": 0
        },
        {
         "co": {
          "X": 30.0,
          "Y": 3.0
         },
         "handle_left": {
          "X": 0.5,
          "Y": 1.0
         },
         "handle_right": {
          "X": 0.5,
          "Y": 0.0
         },
         "handle_type": 0,
         "interpolation": 0
        }
       ]
      },
      "reader": {
       "acodec": "",
       "audio_bit_rate": 0,
       "audio_stream_index": -1,
       "audio_timebase": {
        "den": 1,
        "num": 1
       },
       "channel_layout": 4,
       "channels": 0,
       "display_ratio": {
        "den": 4,
        "num": 5
       },
       "duration": 3600.0,
       "file_size": "5832000",
       "fps": {
        "den": 1,
        "num": 30
       },
       "has_audio": false,
       "has_single_image": true,
       "has_video": true,
       "height": 576,
       "interlaced_frame": false,
       "metadata": {},
       "path": "@transitions/common/fade.svg",
       "pixel_format": -1,
       "pixel_ratio": {
        "den": 1,
        "num": 1
       },
       "sample_rate": 0,
       "top_field_first": true,
       "type": "QtImageReader",
       "vcodec": "",
       "video_bit_rate": 0,
       "video_length": "108000",
       "video_stream_index": -1,
       "video_timebase": {
        "den": 30,
        "num": 1
       },
       "width": 720
      },
      "replace_image": false,
      "id": "C9SIN6QZ8S"
     },
     {
      "layer": 5000000,
      "title": "Transition",
      "type": "Mask",
      "position": 25.266666666666666,
      "start": 0,
      "end": 1,
      "brightness": {
       "Points": [
        {
         "co": {
          "X": 1.0,
          "Y": -1.0
         },
         "handle_left": {
          "X": 0.5,
          "Y": 1.0
         },
         "handle_right": {
          "X": 0.5,
          "Y": 0.0
         },
         "handle_type": 0,
         "interpolation": 0
        },
        {
         "co": {
          "X": 30.0,
          "Y": 1.0
         },
         "handle_left": {
          "X": 0.5,
          "Y": 1.0
         },
         "handle_right": {
          "X": 0.5,
          "Y": 0.0
         },
         "handle_type": 0,
         "interpolation": 0
        }
       ]
      },
      "contrast": {
       "Points": [
        {
         "co": {
          "X": 1.0,
          "Y": 3.0
         },
         "handle_left": {
          "X": 0.5,
          "Y": 1.0
         },
         "handle_right": {
          "X": 0.5,
          "Y": 0.0
         },
         "handle_type": 0,
         "interpolation": 0
        },
        {
         "co": {
          "X": 30.0,
          "Y": 3.0
         },
         "handle_left": {
          "X": 0.5,
          "Y": 1.0
         },
         "handle_right": {
          "X": 0.5,
          "Y": 0.0
         },
         "handle_type": 0,
         "interpolation": 0
        }
       ]
      },
      "reader": {
       "acodec": "",
       "audio_bit_rate": 0,
       "audio_stream_index": -1,
       "audio_timebase": {
        "den": 1,
        "num": 1
       },
       "channel_layout": 4,
       "channels": 0,
       "display_ratio": {
        "den": 4,
        "num": 5
       },
       "duration": 3600.0,
       "file_size": "5832000",
       "fps": {
        "den": 1,
        "num": 30
       },
       "has_audio": false,
       "has_single_image": true,
       "has_video": true,
       "height": 576,
       "interlaced_frame": false,
       "metadata": {},
       "path": "@transitions/common/fade.svg",
       "pixel_format": -1,
       "pixel_ratio": {
        "den": 1,
        "num": 1
       },
       "sample_rate": 0,
       "top_field_first": true,
       "type": "QtImageReader",
       "vcodec": "",
       "video_bit_rate": 0,
       "video_length": "108000",
       "video_stream_index": -1,
       "video_timebase": {
        "den": 30,
        "num": 1
       },
       "width": 720
      },
      "replace_image": false,
      "id": "I6YLI3CQDR"
     },
     {
      "layer": 4000000,
      "title": "Transition",
      "type": "Mask",
      "position": 25.266666666666666,
      "start": 0,
      "end": 1,
      "brightness": {
       "Points": [
        {
         "co": {
          "X": 1.0,
          "Y": -1.0
         },
         "handle_left": {
          "X": 0.5,
          "Y": 1.0
         },
         "handle_right": {
          "X": 0.5,
          "Y": 0.0
         },
         "handle_type": 0,
         "interpolation": 0
        },
        {
         "co": {
          "X": 30.0,
          "Y": 1.0
         },
         "handle_left": {
          "X": 0.5,
          "Y": 1.0
         },
         "handle_right": {
          "X": 0.5,
          "Y": 0.0
         },
         "handle_type": 0,
         "interpolation": 0
        }
       ]
      },
      "contrast": {
       "Points": [
        {
         "co": {
          "X": 1.0,
          "Y": 3.0
         },
         "handle_left": {
          "X": 0.5,
          "Y": 1.0
         },
         "handle_right": {
          "X": 0.5,
          "Y": 0.0
         },
         "handle_type": 0,
         "interpolation": 0
        },
        {
         "co": {
          "X": 30.0,
          "Y": 3.0
         },
         "handle_left": {
          "X": 0.5,
          "Y": 1.0
         },
         "handle_right": {
          "X": 0.5,
          "Y": 0.0
         },
         "handle_type": 0,
         "interpolation": 0
        }
       ]
      },
      "reader": {
       "acodec": "",
       "audio_bit_rate": 0,
       "audio_stream_index": -1,
       "audio_timebase": {
        "den": 1,
        "num": 1
       },
       "channel_layout": 4,
       "channels": 0,
       "display_ratio": {
        "den": 4,
        "num": 5
       },
       "duration": 3600.0,
       "file_size": "5832000",
       "fps": {
        "den": 1,
        "num": 30
       },
       "has_audio": false,
       "has_single_image": true,
       "has_video": true,
       "height": 576,
       "interlaced_frame": false,
       "metadata": {},
       "path": "@transitions/common/fade.svg",
       "pixel_format": -1,
       "pixel_ratio": {
        "den": 1,
        "num": 1
       },
       "sample_rate": 0,
       "top_field_first": true,
       "type": "QtImageReader",
       "vcodec": "",
       "video_bit_rate": 0,
       "video_length": "108000",
       "video_stream_index": -1,
       "video_timebase": {
        "den": 30,
        "num": 1
       },
       "width": 720
      },
      "replace_image": false,
      "id": "G0XGWQG64E"
     },
     {
      "layer": 3000000,
      "title": "Transition",
      "type": "Mask",
      "position": 25.266666666666666,
      "start": 0,
      "end": 1,
      "brightness": {
       "Points": [
        {
         "co": {
          "X": 1.0,
          "Y": -1.0
         },
         "handle_left": {
          "X": 0.5,
          "Y": 1.0
         },
         "handle_right": {
          "X": 0.5,
          "Y": 0.0
         },
         "handle_type": 0,
         "interpolation": 0
        },
        {
         "co": {
          "X": 30.0,
          "Y": 1.0
         },
         "handle_left": {
          "X": 0.5,
          "Y": 1.0
         },
         "handle_right": {
          "X": 0.5,
          "Y": 0.0
         },
         "handle_type": 0,
         "interpolation": 0
        }
       ]
      },
      "contrast": {
       "Points": [
        {
         "co": {
          "X": 1.0,
          "Y": 3.0
         },
         "handle_left": {
          "X": 0.5,
          "Y": 1.0
         },
         "handle_right": {
          "X": 0.5,
          "Y": 0.0
         },
         "handle_type": 0,
         "interpolation": 0
        },
        {
         "co": {
          "X": 30.0,
          "Y": 3.0
         },
         "handle_left": {
          "X": 0.5,
          "Y": 1.0
         },
         "handle_right": {
          "X": 0.5,
          "Y": 0.0
         },
         "handle_type": 0,
         "interpolation": 0
        }
       ]
      },
      "reader": {
       "acodec": "",
       "audio_bit_rate": 0,
       "audio_stream_index": -1,
       "audio_timebase": {
        "den": 1,
        "num": 1
       },
       "channel_layout": 4,
       "channels": 0,
       "display_ratio": {
        "den": 4,
        "num": 5
       },
       "duration": 3600.0,
       "file_size": "5832000",
       "fps": {
        "den": 1,
        "num": 30
       },
       "has_audio": false,
       "has_single_image": true,
       "has_video": true,
       "height": 576,
       "interlaced_frame": false,
       "metadata": {},
       "path": "@transitions/common/fade.svg",
       "pixel_format": -1,
       "pixel_ratio": {
        "den": 1,
        "num": 1
       },
       "sample_rate": 0,
       "top_field_first": true,
       "type": "QtImageReader",
       "vcodec": "",
       "video_bit_rate": 0,
       "video_length": "108000",
       "video_stream_index": -1,
       "video_timebase": {
        "den": 30,
        "num": 1
       },
       "width": 720
      },
      "replace_image": false,
      "id": "SQUUWVPO2R"
     },
     {
      "layer": 7000000,
      "title": "Transition",
      "type": "Mask",
      "position": 25.266666666666666,
      "start": 0,
      "end": 1,
      "brightness": {
       "Points": [
        {
         "co": {
          "X": 1.0,
          "Y": -1.0
         },
         "handle_left": {
          "X": 0.5,
          "Y": 1.0
         },
         "handle_right": {
          "X": 0.5,
          "Y": 0.0
         },
         "handle_type": 0,
         "interpolation": 0
        },
        {
         "co": {
          "X": 30.0,
          "Y": 1.0
         },
         "handle_left": {
          "X": 0.5,
          "Y": 1.0
         },
         "handle_right": {
          "X": 0.5,
          "Y": 0.0
         },
         "handle_type": 0,
         "interpolation": 0
        }
       ]
      },
      "contrast": {
       "Points": [
        {
         "co": {
          "X": 1.0,
          "Y": 3.0
         },
         "handle_left": {
          "X": 0.5,
          "Y": 1.0
         },
         "handle_right": {
          "X": 0.5,
          "Y": 0.0
         },
         "handle_type": 0,
         "interpolation": 0
        },
        {
         "co": {
          "X": 30.0,
          "Y": 3.0
         },
         "handle_left": {
          "X": 0.5,
          "Y": 1.0
         },
         "handle_right": {
          "X": 0.5,
          "Y": 0.0
         },
         "handle_type": 0,
         "interpolation": 0
        }
       ]
      },
      "reader": {
       "acodec": "",
       "audio_bit_rate": 0,
       "audio_stream_index": -1,
       "audio_timebase": {
        "den": 1,
        "num": 1
       },
       "channel_layout": 4,
       "channels": 0,
       "display_ratio": {
        "den": 4,
        "num": 5
       },
       "duration": 3600.0,
       "file_size": "5832000",
       "fps": {
        "den": 1,
        "num": 30
       },
       "has_audio": false,
       "has_single_image": true,
       "has_video": true,
       "height": 576,
       "interlaced_frame": false,
       "metadata": {},
       "path": "@transitions/common/fade.svg",
       "pixel_format": -1,
       "pixel_ratio": {
        "den": 1,
        "num": 1
       },
       "sample_rate": 0,
       "top_field_first": true,
       "type": "QtImageReader",
       "vcodec": "",
       "video_bit_rate": 0,
       "video_length": "108000",
       "video_stream_index": -1,
       "video_timebase": {
        "den": 30,
        "num": 1
       },
       "width": 720
      },
      "replace_image": false,
      "id": "BHKYCUMDC6"
     },
     {
      "layer": 7000000,
      "title": "Transition",
      "type": "Mask",
      "position": 26.633333333333333,
      "start": 0,
      "end": 1,
      "brightness": {
       "Points": [
        {
         "co": {
          "X": 1.0,
          "Y": 1.0
         },
         "handle_left": {
          "X": 0.5,
          "Y": 1.0
         },
         "handle_right": {
          "X": 0.5,
          "Y": 0.0
         },
         "handle_type": 0,
         "interpolation": 0
        },
        {
         "co": {
          "X": 30.0,
          "Y": -1.0
         },
         "handle_left": {
          "X": 0.5,
          "Y": 1.0
         },
         "handle_right": {
          "X": 0.5,
          "Y": 0.0
         },
         "handle_type": 0,
         "interpolation": 0
        }
       ]
      },
      "contrast": {
       "Points": [
        {
         "co": {
          "X": 1.0,
          "Y": 3.0
         },
         "handle_left": {
          "X": 0.5,
          "Y": 1.0
         },
         "handle_right": {
          "X": 0.5,
          "Y": 0.0
         },
         "handle_type": 0,
         "interpolation": 0
        },
        {
         "co": {
          "X": 30.0,
          "Y": 3.0
         },
         "handle_left": {
          "X": 0.5,
          "Y": 1.0
         },
         "handle_right": {
          "X": 0.5,
          "Y": 0.0
         },
         "handle_type": 0,
         "interpolation": 0
        }
       ]
      },
      "reader": {
       "acodec": "",
       "audio_bit_rate": 0,
       "audio_stream_index": -1,
       "audio_timebase": {
        "den": 1,
        "num": 1
       },
       "channel_layout": 4,
       "channels": 0,
       "display_ratio": {
        "den": 4,
        "num": 5
       },
       "duration": 3600.0,
       "file_size": "5832000",
       "fps": {
        "den": 1,
        "num": 30
       },
       "has_audio": false,
       "has_single_image": true,
       "has_video": true,
       "height": 576,
       "interlaced_frame": false,
       "metadata": {},
       "path": "@transitions/common/fade.svg",
       "pixel_format": -1,
       "pixel_ratio": {
        "den": 1,
        "num": 1
       },
       "sample_rate": 0,
       "top_field_first": true,
       "type": "QtImageReader",
       "vcodec": "",
       "video_bit_rate": 0,
       "video_length": "108000",
       "video_stream_index": -1,
       "video_timebase": {
        "den": 30,
        "num": 1
       },
       "width": 720
      },
      "replace_image": false,
      "id": "Z4LPCLVXCA"
     },
     {
      "layer": 6000000,
      "title": "Transition",
      "type": "Mask",
      "position": 26.633333333333333,
      "start": 0,
      "end": 1,
      "brightness": {
       "Points": [
        {
         "co": {
          "X": 1.0,
          "Y": 1.0
         },
         "handle_left": {
          "X": 0.5,
          "Y": 1.0
         },
         "handle_right": {
          "X": 0.5,
          "Y": 0.0
         },
         "handle_type": 0,
         "interpolation": 0
        },
        {
         "co": {
          "X": 30.0,
          "Y": -1.0
         },
         "handle_left": {
          "X": 0.5,
          "Y": 1.0
         },
         "handle_right": {
          "X": 0.5,
          "Y": 0.0
         },
         "handle_type": 0,
         "interpolation": 0
        }
       ]
      },
      "contrast": {
       "Points": [
        {
         "co": {
          "X": 1.0,
          "Y": 3.0
         },
         "handle_left": {
          "X": 0.5,
          "Y": 1.0
         },
         "handle_right": {
          "X": 0.5,
          "Y": 0.0
         },
         "handle_type": 0,
         "interpolation": 0
        },
        {
         "co": {
          "X": 30.0,
          "Y": 3.0
         },
         "handle_left": {
          "X": 0.5,
          "Y": 1.0
         },
         "handle_right": {
          "X": 0.5,
          "Y": 0.0
         },
         "handle_type": 0,
         "interpolation": 0
        }
       ]
      },
      "reader": {
       "acodec": "",
       "audio_bit_rate": 0,
       "audio_stream_index": -1,
       "audio_timebase": {
        "den": 1,
        "num": 1
       },
       "channel_layout": 4,
       "channels": 0,
       "display_ratio": {
        "den": 4,
        "num": 5
       },
       "duration": 3600.0,
       "file_size": "5832000",
       "fps": {
        "den": 1,
        "num": 30
       },
       "has_audio": false,
       "has_single_image": true,
       "has_video": true,
       "height": 576,
       "interlaced_frame": false,
       "metadata": {},
       "path": "@transitions/common/fade.svg",
       "pixel_format": -1,
       "pixel_ratio": {
        "den": 1,
        "num": 1
       },
       "sample_rate": 0,
       "top_field_first": true,
       "type": "QtImageReader",
       "vcodec": "",
       "video_bit_rate": 0,
       "video_length": "108000",
       "video_stream_index": -1,
       "video_timebase": {
        "den": 30,
        "num": 1
       },
       "width": 720
      },
      "replace_image": false,
      "id": "MPAHNTV5UJ"
     },
     {
      "layer": 5000000,
      "title": "Transition",
      "type": "Mask",
      "position": 26.633333333333333,
      "start": 0,
      "end": 1,
      "brightness": {
       "Points": [
        {
         "co": {
          "X": 1.0,
          "Y": 1.0
         },
         "handle_left": {
          "X": 0.5,
          "Y": 1.0
         },
         "handle_right": {
          "X": 0.5,
          "Y": 0.0
         },
         "handle_type": 0,
         "interpolation": 0
        },
        {
         "co": {
          "X": 30.0,
          "Y": -1.0
         },
         "handle_left": {
          "X": 0.5,
          "Y": 1.0
         },
         "handle_right": {
          "X": 0.5,
          "Y": 0.0
         },
         "handle_type": 0,
         "interpolation": 0
        }
       ]
      },
      "contrast": {
       "Points": [
        {
         "co": {
          "X": 1.0,
          "Y": 3.0
         },
         "handle_left": {
          "X": 0.5,
          "Y": 1.0
         },
         "handle_right": {
          "X": 0.5,
          "Y": 0.0
         },
         "handle_type": 0,
         "interpolation": 0
        },
        {
         "co": {
          "X": 30.0,
          "Y": 3.0
         },
         "handle_left": {
          "X": 0.5,
          "Y": 1.0
         },
         "handle_right": {
          "X": 0.5,
          "Y": 0.0
         },
         "handle_type": 0,
         "interpolation": 0
        }
       ]
      },
      "reader": {
       "acodec": "",
       "audio_bit_rate": 0,
       "audio_stream_index": -1,
       "audio_timebase": {
        "den": 1,
        "num": 1
       },
       "channel_layout": 4,
       "channels": 0,
       "display_ratio": {
        "den": 4,
        "num": 5
       },
       "duration": 3600.0,
       "file_size": "5832000",
       "fps": {
        "den": 1,
        "num": 30
       },
       "has_audio": false,
       "has_single_image": true,
       "has_video": true,
       "height": 576,
       "interlaced_frame": false,
       "metadata": {},
       "path": "@transitions/common/fade.svg",
       "pixel_format": -1,
       "pixel_ratio": {
        "den": 1,
        "num": 1
       },
       "sample_rate": 0,
       "top_field_first": true,
       "type": "QtImageReader",
       "vcodec": "",
       "video_bit_rate": 0,
       "video_length": "108000",
       "video_stream_index": -1,
       "video_timebase": {
        "den": 30,
        "num": 1
       },
       "width": 720
      },
      "replace_image": false,
      "id": "47G933Z1X6"
     },
     {
      "layer": 4000000,
      "title": "Transition",
      "type": "Mask",
      "position": 26.633333333333333,
      "start": 0,
      "end": 1,
      "brightness": {
       "Points": [
        {
         "co": {
          "X": 1.0,
          "Y": 1.0
         },
         "handle_left": {
          "X": 0.5,
          "Y": 1.0
         },
         "handle_right": {
          "X": 0.5,
          "Y": 0.0
         },
         "handle_type": 0,
         "interpolation": 0
        },
        {
         "co": {
          "X": 30.0,
          "Y": -1.0
         },
         "handle_left": {
          "X": 0.5,
          "Y": 1.0
         },
         "handle_right": {
          "X": 0.5,
          "Y": 0.0
         },
         "handle_type": 0,
         "interpolation": 0
        }
       ]
      },
      "contrast": {
       "Points": [
        {
         "co": {
          "X": 1.0,
          "Y": 3.0
         },
         "handle_left": {
          "X": 0.5,
          "Y": 1.0
         },
         "handle_right": {
          "X": 0.5,
          "Y": 0.0
         },
         "handle_type": 0,
         "interpolation": 0
        },
        {
         "co": {
          "X": 30.0,
          "Y": 3.0
         },
         "handle_left": {
          "X": 0.5,
          "Y": 1.0
         },
         "handle_right": {
          "X": 0.5,
          "Y": 0.0
         },
         "handle_type": 0,
         "interpolation": 0
        }
       ]
      },
      "reader": {
       "acodec": "",
       "audio_bit_rate": 0,
       "audio_stream_index": -1,
       "audio_timebase": {
        "den": 1,
        "num": 1
       },
       "channel_layout": 4,
       "channels": 0,
       "display_ratio": {
        "den": 4,
        "num": 5
       },
       "duration": 3600.0,
       "file_size": "5832000",
       "fps": {
        "den": 1,
        "num": 30
       },
       "has_audio": false,
       "has_single_image": true,
       "has_video": true,
       "height": 576,
       "interlaced_frame": false,
       "metadata": {},
       "path": "@transitions/common/fade.svg",
       "pixel_format": -1,
       "pixel_ratio": {
        "den": 1,
        "num": 1
       },
       "sample_rate": 0,
       "top_field_first": true,
       "type": "QtImageReader",
       "vcodec": "",
       "video_bit_rate": 0,
       "video_length": "108000",
       "video_stream_index": -1,
       "video_timebase": {
        "den": 30,
        "num": 1
       },
       "width": 720
      },
      "replace_image": false,
      "id": "J3F6G7YKRA"
     },
     {
      "layer": 3000000,
      "title": "Transition",
      "type": "Mask",
      "position": 26.633333333333333,
      "start": 0,
      "end": 1,
      "brightness": {
       "Points": [
        {
         "co": {
          "X": 1.0,
          "Y": 1.0
         },
         "handle_left": {
          "X": 0.5,
          "Y": 1.0
         },
         "handle_right": {
          "X": 0.5,
          "Y": 0.0
         },
         "handle_type": 0,
         "interpolation": 0
        },
        {
         "co": {
          "X": 30.0,
          "Y": -1.0
         },
         "handle_left": {
          "X": 0.5,
          "Y": 1.0
         },
         "handle_right": {
          "X": 0.5,
          "Y": 0.0
         },
         "handle_type": 0,
         "interpolation": 0
        }
       ]
      },
      "contrast": {
       "Points": [
        {
         "co": {
          "X": 1.0,
          "Y": 3.0
         },
         "handle_left": {
          "X": 0.5,
          "Y": 1.0
         },
         "handle_right": {
          "X": 0.5,
          "Y": 0.0
         },
         "handle_type": 0,
         "interpolation": 0
        },
        {
         "co": {
          "X": 30.0,
          "Y": 3.0
         },
         "handle_left": {
          "X": 0.5,
          "Y": 1.0
         },
         "handle_right": {
          "X": 0.5,
          "Y": 0.0
         },
         "handle_type": 0,
         "interpolation": 0
        }
       ]
      },
      "reader": {
       "acodec": "",
       "audio_bit_rate": 0,
       "audio_stream_index": -1,
       "audio_timebase": {
        "den": 1,
        "num": 1
       },
       "channel_layout": 4,
       "channels": 0,
       "display_ratio": {
        "den": 4,
        "num": 5
       },
       "duration": 3600.0,
       "file_size": "5832000",
       "fps": {
        "den": 1,
        "num": 30
       },
       "has_audio": false,
       "has_single_image": true,
       "has_video": true,
       "height": 576,
       "interlaced_frame": false,
       "metadata": {},
       "path": "@transitions/common/fade.svg",
       "pixel_format": -1,
       "pixel_ratio": {
        "den": 1,
        "num": 1
       },
       "sample_rate": 0,
       "top_field_first": true,
       "type": "QtImageReader",
       "vcodec": "",
       "video_bit_rate": 0,
       "video_length": "108000",
       "video_stream_index": -1,
       "video_timebase": {
        "den": 30,
        "num": 1
       },
       "width": 720
      },
      "replace_image": false,
      "id": "YIVQE4FZQJ"
     },
     {
      "layer": 7000000,
      "title": "Transition",
      "type": "Mask",
      "position": 29.933333333333334,
      "start": 0,
      "end": 1,
      "brightness": {
       "Points": [
        {
         "co": {
          "X": 1.0,
          "Y": -1.0
         },
         "handle_left": {
          "X": 0.5,
          "Y": 1.0
         },
         "handle_right": {
          "X": 0.5,
          "Y": 0.0
         },
         "handle_type": 0,
         "interpolation": 0
        },
        {
         "co": {
          "X": 30.0,
          "Y": 1.0
         },
         "handle_left": {
          "X": 0.5,
          "Y": 1.0
         },
         "handle_right": {
          "X": 0.5,
          "Y": 0.0
         },
         "handle_type": 0,
         "interpolation": 0
        }
       ]
      },
      "contrast": {
       "Points": [
        {
         "co": {
          "X": 1.0,
          "Y": 3.0
         },
         "handle_left": {
          "X": 0.5,
          "Y": 1.0
         },
         "handle_right": {
          "X": 0.5,
          "Y": 0.0
         },
         "handle_type": 0,
         "interpolation": 0
        },
        {
         "co": {
          "X": 30.0,
          "Y": 3.0
         },
         "handle_left": {
          "X": 0.5,
          "Y": 1.0
         },
         "handle_right": {
          "X": 0.5,
          "Y": 0.0
         },
         "handle_type": 0,
         "interpolation": 0
        }
       ]
      },
      "reader": {
       "acodec": "",
       "audio_bit_rate": 0,
       "audio_stream_index": -1,
       "audio_timebase": {
        "den": 1,
        "num": 1
       },
       "channel_layout": 4,
       "channels": 0,
       "display_ratio": {
        "den": 4,
        "num": 5
       },
       "duration": 3600.0,
       "file_size": "5832000",
       "fps": {
        "den": 1,
        "num": 30
       },
       "has_audio": false,
       "has_single_image": true,
       "has_video": true,
       "height": 576,
       "interlaced_frame": false,
       "metadata": {},
       "path": "@transitions/common/fade.svg",
       "pixel_format": -1,
       "pixel_ratio": {
        "den": 1,
        "num": 1
       },
       "sample_rate": 0,
       "top_field_first": true,
       "type": "QtImageReader",
       "vcodec": "",
       "video_bit_rate": 0,
       "video_length": "108000",
       "video_stream_index": -1,
       "video_timebase": {
        "den": 30,
        "num": 1
       },
       "width": 720
      },
      "replace_image": false,
      "id": "IHGENV3HTQ"
     },
     {
      "layer": 6000000,
      "title": "Transition",
      "type": "Mask",
      "position": 29.933333333333334,
      "start": 0,
      "end": 1,
      "brightness": {
       "Points": [
        {
         "co": {
          "X": 1.0,
          "Y": -1.0
         },
         "handle_left": {
          "X": 0.5,
          "Y": 1.0
         },
         "handle_right": {
          "X": 0.5,
          "Y": 0.0
         },
         "handle_type": 0,
         "interpolation": 0
        },
        {
         "co": {
          "X": 30.0,
          "Y": 1.0
         },
         "handle_left": {
          "X": 0.5,
          "Y": 1.0
         },
         "handle_right": {
          "X": 0.5,
          "Y": 0.0
         },
         "handle_type": 0,
         "interpolation": 0
        }
       ]
      },
      "contrast": {
       "Points": [
        {
         "co": {
          "X": 1.0,
          "Y": 3.0
         },
         "handle_left": {
          "X": 0.5,
          "Y": 1.0
         },
         "handle_right": {
          "X": 0.5,
          "Y": 0.0
         },
         "handle_type": 0,
         "interpolation": 0
        },
        {
         "co": {
          "X": 30.0,
          "Y": 3.0
         },
         "handle_left": {
          "X": 0.5,
          "Y": 1.0
         },
         "handle_right": {
          "X": 0.5,
          "Y": 0.0
         },
         "handle_type": 0,
         "interpolation": 0
        }
       ]
      },
      "reader": {
       "acodec": "",
       "audio_bit_rate": 0,
       "audio_stream_index": -1,
       "audio_timebase": {
        "den": 1,
        "num": 1
       },
       "channel_layout": 4,
       "channels": 0,
       "display_ratio": {
        "den": 4,
        "num": 5
       },
       "duration": 3600.0,
       "file_size": "5832000",
       "fps": {
        "den": 1,
        "num": 30
       },
       "has_audio": false,
       "has_single_image": true,
       "has_video": true,
       "height": 576,
       "interlaced_frame": false,
       "metadata": {},
       "path": "@transitions/common/fade.svg",
       "pixel_format": -1,
       "pixel_ratio": {
        "den": 1,
        "num": 1
       },
       "sample_rate": 0,
       "top_field_first": true,
       "type": "QtImageReader",
       "vcodec": "",
       "video_bit_rate": 0,
       "video_length": "108000",
       "video_stream_index": -1,
       "video_timebase": {
        "den": 30,
        "num": 1
       },
       "width": 720
      },
      "replace_image": false,
      "id": "L0LNX9VSXM"
     },
     {
      "layer": 5000000,
      "title": "Transition",
      "type": "Mask",
      "position": 29.933333333333334,
      "start": 0,
      "end": 1,
      "brightness": {
       "Points": [
        {
         "co": {
          "X": 1.0,
          "Y": -1.0
         },
         "handle_left": {
          "X": 0.5,
          "Y": 1.0
         },
         "handle_right": {
          "X": 0.5,
          "Y": 0.0
         },
         "handle_type": 0,
         "interpolation": 0
        },
        {
         "co": {
          "X": 30.0,
          "Y": 1.0
         },
         "handle_left": {
          "X": 0.5,
          "Y": 1.0
         },
         "handle_right": {
          "X": 0.5,
          "Y": 0.0
         },
         "handle_type": 0,
         "interpolation": 0
        }
       ]
      },
      "contrast": {
       "Points": [
        {
         "co": {
          "X": 1.0,
          "Y": 3.0
         },
         "handle_left": {
          "X": 0.5,
          "Y": 1.0
         },
         "handle_right": {
          "X": 0.5,
          "Y": 0.0
         },
         "handle_type": 0,
         "interpolation": 0
        },
        {
         "co": {
          "X": 30.0,
          "Y": 3.0
         },
         "handle_left": {
          "X": 0.5,
          "Y": 1.0
         },
         "handle_right": {
          "X": 0.5,
          "Y": 0.0
         },
         "handle_type": 0,
         "interpolation": 0
        }
       ]
      },
      "reader": {
       "acodec": "",
       "audio_bit_rate": 0,
       "audio_stream_index": -1,
       "audio_timebase": {
        "den": 1,
        "num": 1
       },
       "channel_layout": 4,
       "channels": 0,
       "display_ratio": {
        "den": 4,
        "num": 5
       },
       "duration": 3600.0,
       "file_size": "5832000",
       "fps": {
        "den": 1,
        "num": 30
       },
       "has_audio": false,
       "has_single_image": true,
       "has_video": true,
       "height": 576,
       "interlaced_frame": false,
       "metadata": {},
       "path": "@transitions/common/fade.svg",
       "pixel_format": -1,
       "pixel_ratio": {
        "den": 1,
        "num": 1
       },
       "sample_rate": 0,
       "top_field_first": true,
       "type": "QtImageReader",
       "vcodec": "",
       "video_bit_rate": 0,
       "video_length": "108000",
       "video_stream_index": -1,
       "video_timebase": {
        "den": 30,
        "num": 1
       },
       "width": 720
      },
      "replace_image": false,
      "id": "9P08T43W0H"
     },
     {
      "layer": 4000000,
      "title": "Transition",
      "type": "Mask",
      "position": 29.933333333333334,
      "start": 0,
      "end": 1,
      "brightness": {
       "Points": [
        {
         "co": {
          "X": 1.0,
          "Y": -1.0
         },
         "handle_left": {
          "X": 0.5,
          "Y": 1.0
         },
         "handle_right": {
          "X": 0.5,
          "Y": 0.0
         },
         "handle_type": 0,
         "interpolation": 0
        },
        {
         "co": {
          "X": 30.0,
          "Y": 1.0
         },
         "handle_left": {
          "X": 0.5,
          "Y": 1.0
         },
         "handle_right": {
          "X": 0.5,
          "Y": 0.0
         },
         "handle_type": 0,
         "interpolation": 0
        }
       ]
      },
      "contrast": {
       "Points": [
        {
         "co": {
          "X": 1.0,
          "Y": 3.0
         },
         "handle_left": {
          "X": 0.5,
          "Y": 1.0
         },
         "handle_right": {
          "X": 0.5,
          "Y": 0.0
         },
         "handle_type": 0,
         "interpolation": 0
        },
        {
         "co": {
          "X": 30.0,
          "Y": 3.0
         },
         "handle_left": {
          "X": 0.5,
          "Y": 1.0
         },
         "handle_right": {
          "X": 0.5,
          "Y": 0.0
         },
         "handle_type": 0,
         "interpolation": 0
        }
       ]
      },
      "reader": {
       "acodec": "",
       "audio_bit_rate": 0,
       "audio_stream_index": -1,
       "audio_timebase": {
        "den": 1,
        "num": 1
       },
       "channel_layout": 4,
       "channels": 0,
       "display_ratio": {
        "den": 4,
        "num": 5
       },
       "duration": 3600.0,
       "file_size": "5832000",
       "fps": {
        "den": 1,
        "num": 30
       },
       "has_audio": false,
       "has_single_image": true,
       "has_video": true,
       "height": 576,
       "interlaced_frame": false,
       "metadata": {},
       "path": "@transitions/common/fade.svg",
       "pixel_format": -1,
       "pixel_ratio": {
        "den": 1,
        "num": 1
       },
       "sample_rate": 0,
       "top_field_first": true,
       "type": "QtImageReader",
       "vcodec": "",
       "video_bit_rate": 0,
       "video_length": "108000",
       "video_stream_index": -1,
       "video_timebase": {
        "den": 30,
        "num": 1
       },
       "width": 720
      },
      "replace_image": false,
      "id": "A0I8N96BOX"
     },
     {
      "layer": 3000000,
      "title": "Transition",
      "type": "Mask",
      "position": 29.933333333333334,
      "start": 0,
      "end": 0.9999999999999821,
      "brightness": {
       "Points": [
        {
         "co": {
          "X": 1.0,
          "Y": -1.0
         },
         "handle_left": {
          "X": 0.5,
          "Y": 1.0
         },
         "handle_right": {
          "X": 0.5,
          "Y": 0.0
         },
         "handle_type": 0,
         "interpolation": 0
        },
        {
         "co": {
          "X": 30.0,
          "Y": 1.0
         },
         "handle_left": {
          "X": 0.5,
          "Y": 1.0
         },
         "handle_right": {
          "X": 0.5,
          "Y": 0.0
         },
         "handle_type": 0,
         "interpolation": 0
        }
       ]
      },
      "contrast": {
       "Points": [
        {
         "co": {
          "X": 1.0,
          "Y": 3.0
         },
         "handle_left": {
          "X": 0.5,
          "Y": 1.0
         },
         "handle_right": {
          "X": 0.5,
          "Y": 0.0
         },
         "handle_type": 0,
         "interpolation": 0
        },
        {
         "co": {
          "X": 30.0,
          "Y": 3.0
         },
         "handle_left": {
          "X": 0.5,
          "Y": 1.0
         },
         "handle_right": {
          "X": 0.5,
          "Y": 0.0
         },
         "handle_type": 0,
         "interpolation": 0
        }
       ]
      },
      "reader": {
       "acodec": "",
       "audio_bit_rate": 0,
       "audio_stream_index": -1,
       "audio_timebase": {
        "den": 1,
        "num": 1
       },
       "channel_layout": 4,
       "channels": 0,
       "display_ratio": {
        "den": 4,
        "num": 5
       },
       "duration": 3600.0,
       "file_size": "5832000",
       "fps": {
        "den": 1,
        "num": 30
       },
       "has_audio": false,
       "has_single_image": true,
       "has_video": true,
       "height": 576,
       "interlaced_frame": false,
       "metadata": {},
       "path": "@transitions/common/fade.svg",
       "pixel_format": -1,
       "pixel_ratio": {
        "den": 1,
        "num": 1
       },
       "sample_rate": 0,
       "top_field_first": true,
       "type": "QtImageReader",
       "vcodec": "",
       "video_bit_rate": 0,
       "video_length": "108000",
       "video_stream_index": -1,
       "video_timebase": {
        "den": 30,
        "num": 1
       },
       "width": 720
      },
      "replace_image": false,
      "id": "6HFQOBFSG3"
     },
     {
      "layer": 2000000,
      "title": "Transition",
      "type": "Mask",
      "position": 29.933333333333334,
      "start": 0,
      "end": 0.9999999999999821,
      "brightness": {
       "Points": [
        {
         "co": {
          "X": 1.0,
          "Y": -1.0
         },
         "handle_left": {
          "X": 0.5,
          "Y": 1.0
         },
         "handle_right": {
          "X": 0.5,
          "Y": 0.0
         },
         "handle_type": 0,
         "interpolation": 0
        },
        {
         "co": {
          "X": 30.0,
          "Y": 1.0
         },
         "handle_left": {
          "X": 0.5,
          "Y": 1.0
         },
         "handle_right": {
          "X": 0.5,
          "Y": 0.0
         },
         "handle_type": 0,
         "interpolation": 0
        }
       ]
      },
      "contrast": {
       "Points": [
        {
         "co": {
          "X": 1.0,
          "Y": 3.0
         },
         "handle_left": {
          "X": 0.5,
          "Y": 1.0
         },
         "handle_right": {
          "X": 0.5,
          "Y": 0.0
         },
         "handle_type": 0,
         "interpolation": 0
        },
        {
         "co": {
          "X": 30.0,
          "Y": 3.0
         },
         "handle_left": {
          "X": 0.5,
          "Y": 1.0
         },
         "handle_right": {
          "X": 0.5,
          "Y": 0.0
         },
         "handle_type": 0,
         "interpolation": 0
        }
       ]
      },
      "reader": {
       "acodec": "",
       "audio_bit_rate": 0,
       "audio_stream_index": -1,
       "audio_timebase": {
        "den": 1,
        "num": 1
       },
       "channel_layout": 4,
       "channels": 0,
       "display_ratio": {
        "den": 4,
        "num": 5
       },
       "duration": 3600.0,
       "file_size": "5832000",
       "fps": {
        "den": 1,
        "num": 30
       },
       "has_audio": false,
       "has_single_image": true,
       "has_video": true,
       "height": 576,
       "interlaced_frame": false,
       "metadata": {},
       "path": "@transitions/common/fade.svg",
       "pixel_format": -1,
       "pixel_ratio": {
        "den": 1,
        "num": 1
       },
       "sample_rate": 0,
       "top_field_first": true,
       "type": "QtImageReader",
       "vcodec": "",
       "video_bit_rate": 0,
       "video_length": "108000",
       "video_stream_index": -1,
       "video_timebase": {
        "den": 30,
        "num": 1
       },
       "width": 720
      },
      "replace_image": false,
      "id": "ROR47Q4UPE"
     },
     {
      "layer": 5000000,
      "title": "Transition",
      "type": "Mask",
      "position": 35.333333333333336,
      "start": 0,
      "end": 1,
      "brightness": {
       "Points": [
        {
         "co": {
          "X": 1.0,
          "Y": -1.0
         },
         "handle_left": {
          "X": 0.5,
          "Y": 1.0
         },
         "handle_right": {
          "X": 0.5,
          "Y": 0.0
         },
         "handle_type": 0,
         "interpolation": 0
        },
        {
         "co": {
          "X": 30.0,
          "Y": 1.0
         },
         "handle_left": {
          "X": 0.5,
          "Y": 1.0
         },
         "handle_right": {
          "X": 0.5,
          "Y": 0.0
         },
         "handle_type": 0,
         "interpolation": 0
        }
       ]
      },
      "contrast": {
       "Points": [
        {
         "co": {
          "X": 1.0,
          "Y": 3.0
         },
         "handle_left": {
          "X": 0.5,
          "Y": 1.0
         },
         "handle_right": {
          "X": 0.5,
          "Y": 0.0
         },
         "handle_type": 0,
         "interpolation": 0
        },
        {
         "co": {
          "X": 30.0,
          "Y": 3.0
         },
         "handle_left": {
          "X": 0.5,
          "Y": 1.0
         },
         "handle_right": {
          "X": 0.5,
          "Y": 0.0
         },
         "handle_type": 0,
         "interpolation": 0
        }
       ]
      },
      "reader": {
       "acodec": "",
       "audio_bit_rate": 0,
       "audio_stream_index": -1,
       "audio_timebase": {
        "den": 1,
        "num": 1
       },
       "channel_layout": 4,
       "channels": 0,
       "display_ratio": {
        "den": 4,
        "num": 5
       },
       "duration": 3600.0,
       "file_size": "5832000",
       "fps": {
        "den": 1,
        "num": 30
       },
       "has_audio": false,
       "has_single_image": true,
       "has_video": true,
       "height": 576,
       "interlaced_frame": false,
       "metadata": {},
       "path": "@transitions/common/fade.svg",
       "pixel_format": -1,
       "pixel_ratio": {
        "den": 1,
        "num": 1
       },
       "sample_rate": 0,
       "top_field_first": true,
       "type": "QtImageReader",
       "vcodec": "",
       "video_bit_rate": 0,
       "video_length": "108000",
       "video_stream_index": -1,
       "video_timebase": {
        "den": 30,
        "num": 1
       },
       "width": 720
      },
      "replace_image": false,
      "id": "YSXTQ2ILB3"
     },
     {
      "layer": 7000000,
      "title": "Transition",
      "type": "Mask",
      "position": 35.333333333333336,
      "start": 0,
      "end": 1,
      "brightness": {
       "Points": [
        {
         "co": {
          "X": 1.0,
          "Y": -1.0
         },
         "handle_left": {
          "X": 0.5,
          "Y": 1.0
         },
         "handle_right": {
          "X": 0.5,
          "Y": 0.0
         },
         "handle_type": 0,
         "interpolation": 0
        },
        {
         "co": {
          "X": 30.0,
          "Y": 1.0
         },
         "handle_left": {
          "X": 0.5,
          "Y": 1.0
         },
         "handle_right": {
          "X": 0.5,
          "Y": 0.0
         },
         "handle_type": 0,
         "interpolation": 0
        }
       ]
      },
      "contrast": {
       "Points": [
        {
         "co": {
          "X": 1.0,
          "Y": 3.0
         },
         "handle_left": {
          "X": 0.5,
          "Y": 1.0
         },
         "handle_right": {
          "X": 0.5,
          "Y": 0.0
         },
         "handle_type": 0,
         "interpolation": 0
        },
        {
         "co": {
          "X": 30.0,
          "Y": 3.0
         },
         "handle_left": {
          "X": 0.5,
          "Y": 1.0
         },
         "handle_right": {
          "X": 0.5,
          "Y": 0.0
         },
         "handle_type": 0,
         "interpolation": 0
        }
       ]
      },
      "reader": {
       "acodec": "",
       "audio_bit_rate": 0,
       "audio_stream_index": -1,
       "audio_timebase": {
        "den": 1,
        "num": 1
       },
       "channel_layout": 4,
       "channels": 0,
       "display_ratio": {
        "den": 4,
        "num": 5
       },
       "duration": 3600.0,
       "file_size": "5832000",
       "fps": {
        "den": 1,
        "num": 30
       },
       "has_audio": false,
       "has_single_image": true,
       "has_video": true,
       "height": 576,
       "interlaced_frame": false,
       "metadata": {},
       "path": "@transitions/common/fade.svg",
       "pixel_format": -1,
       "pixel_ratio": {
        "den": 1,
        "num": 1
       },
       "sample_rate": 0,
       "top_field_first": true,
       "type": "QtImageReader",
       "vcodec": "",
       "video_bit_rate": 0,
       "video_length": "108000",
       "video_stream_index": -1,
       "video_timebase": {
        "den": 30,
        "num": 1
       },
       "width": 720
      },
      "replace_image": false,
      "id": "PXS500E3HN"
     },
     {
      "layer": 6000000,
      "title": "Transition",
      "type": "Mask",
      "position": 35.333333333333336,
      "start": 0,
      "end": 1,
      "brightness": {
       "Points": [
        {
         "co": {
          "X": 1.0,
          "Y": -1.0
         },
         "handle_left": {
          "X": 0.5,
          "Y": 1.0
         },
         "handle_right": {
          "X": 0.5,
          "Y": 0.0
         },
         "handle_type": 0,
         "interpolation": 0
        },
        {
         "co": {
          "X": 30.0,
          "Y": 1.0
         },
         "handle_left": {
          "X": 0.5,
          "Y": 1.0
         },
         "handle_right": {
          "X": 0.5,
          "Y": 0.0
         },
         "handle_type": 0,
         "interpolation": 0
        }
       ]
      },
      "contrast": {
       "Points": [
        {
         "co": {
          "X": 1.0,
          "Y": 3.0
         },
         "handle_left": {
          "X": 0.5,
          "Y": 1.0
         },
         "handle_right": {
          "X": 0.5,
          "Y": 0.0
         },
         "handle_type": 0,
         "interpolation": 0
        },
        {
         "co": {
          "X": 30.0,
          "Y": 3.0
         },
         "handle_left": {
          "X": 0.5,
          "Y": 1.0
         },
         "handle_right": {
          "X": 0.5,
          "Y": 0.0
         },
         "handle_type": 0,
         "interpolation": 0
        }
       ]
      },
      "reader": {
       "acodec": "",
       "audio_bit_rate": 0,
       "audio_stream_index": -1,
       "audio_timebase": {
        "den": 1,
        "num": 1
       },
       "channel_layout": 4,
       "channels": 0,
       "display_ratio": {
        "den": 4,
        "num": 5
       },
       "duration": 3600.0,
       "file_size": "5832000",
       "fps": {
        "den": 1,
        "num": 30
       },
       "has_audio": false,
       "has_single_image": true,
       "has_video": true,
       "height": 576,
       "interlaced_frame": false,
       "metadata": {},
       "path": "@transitions/common/fade.svg",
       "pixel_format": -1,
       "pixel_ratio": {
        "den": 1,
        "num": 1
       },
       "sample_rate": 0,
       "top_field_first": true,
       "type": "QtImageReader",
       "vcodec": "",
       "video_bit_rate": 0,
       "video_length": "108000",
       "video_stream_index": -1,
       "video_timebase": {
        "den": 30,
        "num": 1
       },
       "width": 720
      },
      "replace_image": false,
      "id": "6EFG5AZ2RX"
     },
     {
      "layer": 5000000,
      "title": "Transition",
      "type": "Mask",
      "position": 31.333333333333332,
      "start": 0,
      "end": 1,
      "brightness": {
       "Points": [
        {
         "co": {
          "X": 1.0,
          "Y": 1.0
         },
         "handle_left": {
          "X": 0.5,
          "Y": 1.0
         },
         "handle_right": {
          "X": 0.5,
          "Y": 0.0
         },
         "handle_type": 0,
         "interpolation": 0
        },
        {
         "co": {
          "X": 30.0,
          "Y": -1.0
         },
         "handle_left": {
          "X": 0.5,
          "Y": 1.0
         },
         "handle_right": {
          "X": 0.5,
          "Y": 0.0
         },
         "handle_type": 0,
         "interpolation": 0
        }
       ]
      },
      "contrast": {
       "Points": [
        {
         "co": {
          "X": 1.0,
          "Y": 3.0
         },
         "handle_left": {
          "X": 0.5,
          "Y": 1.0
         },
         "handle_right": {
          "X": 0.5,
          "Y": 0.0
         },
         "handle_type": 0,
         "interpolation": 0
        },
        {
         "co": {
          "X": 30.0,
          "Y": 3.0
         },
         "handle_left": {
          "X": 0.5,
          "Y": 1.0
         },
         "handle_right": {
          "X": 0.5,
          "Y": 0.0
         },
         "handle_type": 0,
         "interpolation": 0
        }
       ]
      },
      "reader": {
       "acodec": "",
       "audio_bit_rate": 0,
       "audio_stream_index": -1,
       "audio_timebase": {
        "den": 1,
        "num": 1
       },
       "channel_layout": 4,
       "channels": 0,
       "display_ratio": {
        "den": 4,
        "num": 5
       },
       "duration": 3600.0,
       "file_size": "5832000",
       "fps": {
        "den": 1,
        "num": 30
       },
       "has_audio": false,
       "has_single_image": true,
       "has_video": true,
       "height": 576,
       "interlaced_frame": false,
       "metadata": {},
       "path": "@transitions/common/fade.svg",
       "pixel_format": -1,
       "pixel_ratio": {
        "den": 1,
        "num": 1
       },
       "sample_rate": 0,
       "top_field_first": true,
       "type": "QtImageReader",
       "vcodec": "",
       "video_bit_rate": 0,
       "video_length": "108000",
       "video_stream_index": -1,
       "video_timebase": {
        "den": 30,
        "num": 1
       },
       "width": 720
      },
      "replace_image": false,
      "id": "16Q1Z8PQP3"
     },
     {
      "layer": 7000000,
      "title": "Transition",
      "type": "Mask",
      "position": 31.333333333333332,
      "start": 0,
      "end": 1,
      "brightness": {
       "Points": [
        {
         "co": {
          "X": 1.0,
          "Y": 1.0
         },
         "handle_left": {
          "X": 0.5,
          "Y": 1.0
         },
         "handle_right": {
          "X": 0.5,
          "Y": 0.0
         },
         "handle_type": 0,
         "interpolation": 0
        },
        {
         "co": {
          "X": 30.0,
          "Y": -1.0
         },
         "handle_left": {
          "X": 0.5,
          "Y": 1.0
         },
         "handle_right": {
          "X": 0.5,
          "Y": 0.0
         },
         "handle_type": 0,
         "interpolation": 0
        }
       ]
      },
      "contrast": {
       "Points": [
        {
         "co": {
          "X": 1.0,
          "Y": 3.0
         },
         "handle_left": {
          "X": 0.5,
          "Y": 1.0
         },
         "handle_right": {
          "X": 0.5,
          "Y": 0.0
         },
         "handle_type": 0,
         "interpolation": 0
        },
        {
         "co": {
          "X": 30.0,
          "Y": 3.0
         },
         "handle_left": {
          "X": 0.5,
          "Y": 1.0
         },
         "handle_right": {
          "X": 0.5,
          "Y": 0.0
         },
         "handle_type": 0,
         "interpolation": 0
        }
       ]
      },
      "reader": {
       "acodec": "",
       "audio_bit_rate": 0,
       "audio_stream_index": -1,
       "audio_timebase": {
        "den": 1,
        "num": 1
       },
       "channel_layout": 4,
       "channels": 0,
       "display_ratio": {
        "den": 4,
        "num": 5
       },
       "duration": 3600.0,
       "file_size": "5832000",
       "fps": {
        "den": 1,
        "num": 30
       },
       "has_audio": false,
       "has_single_image": true,
       "has_video": true,
       "height": 576,
       "interlaced_frame": false,
       "metadata": {},
       "path": "@transitions/common/fade.svg",
       "pixel_format": -1,
       "pixel_ratio": {
        "den": 1,
        "num": 1
       },
       "sample_rate": 0,
       "top_field_first": true,
       "type": "QtImageReader",
       "vcodec": "",
       "video_bit_rate": 0,
       "video_length": "108000",
       "video_stream_index": -1,
       "video_timebase": {
        "den": 30,
        "num": 1
       },
       "width": 720
      },
      "replace_image": false,
      "id": "ME3NXVINI9"
     },
     {
      "layer": 6000000,
      "title": "Transition",
      "type": "Mask",
      "position": 31.333333333333332,
      "start": 0,
      "end": 1,
      "brightness": {
       "Points": [
        {
         "co": {
          "X": 1.0,
          "Y": 1.0
         },
         "handle_left": {
          "X": 0.5,
          "Y": 1.0
         },
         "handle_right": {
          "X": 0.5,
          "Y": 0.0
         },
         "handle_type": 0,
         "interpolation": 0
        },
        {
         "co": {
          "X": 30.0,
          "Y": -1.0
         },
         "handle_left": {
          "X": 0.5,
          "Y": 1.0
         },
         "handle_right": {
          "X": 0.5,
          "Y": 0.0
         },
         "handle_type": 0,
         "interpolation": 0
        }
       ]
      },
      "contrast": {
       "Points": [
        {
         "co": {
          "X": 1.0,
          "Y": 3.0
         },
         "handle_left": {
          "X": 0.5,
          "Y": 1.0
         },
         "handle_right": {
          "X": 0.5,
          "Y": 0.0
         },
         "handle_type": 0,
         "interpolation": 0
        },
        {
         "co": {
          "X": 30.0,
          "Y": 3.0
         },
         "handle_left": {
          "X": 0.5,
          "Y": 1.0
         },
         "handle_right": {
          "X": 0.5,
          "Y": 0.0
         },
         "handle_type": 0,
         "interpolation": 0
        }
       ]
      },
      "reader": {
       "acodec": "",
       "audio_bit_rate": 0,
       "audio_stream_index": -1,
       "audio_timebase": {
        "den": 1,
        "num": 1
       },
       "channel_layout": 4,
       "channels": 0,
       "display_ratio": {
        "den": 4,
        "num": 5
       },
       "duration": 3600.0,
       "file_size": "5832000",
       "fps": {
        "den": 1,
        "num": 30
       },
       "has_audio": false,
       "has_single_image": true,
       "has_video": true,
       "height": 576,
       "interlaced_frame": false,
       "metadata": {},
       "path": "@transitions/common/fade.svg",
       "pixel_format": -1,
       "pixel_ratio": {
        "den": 1,
        "num": 1
       },
       "sample_rate": 0,
       "top_field_first": true,
       "type": "QtImageReader",
       "vcodec": "",
       "video_bit_rate": 0,
       "video_length": "108000",
       "video_stream_index": -1,
       "video_timebase": {
        "den": 30,
        "num": 1
       },
       "width": 720
      },
      "replace_image": false,
      "id": "1DK47L92IA"
     },
     {
      "layer": 2000000,
      "title": "Transition",
      "type": "Mask",
      "position": 36.7,
      "start": 0,
      "end": 1,
      "brightness": {
       "Points": [
        {
         "co": {
          "X": 1.0,
          "Y": 1.0
         },
         "handle_left": {
          "X": 0.5,
          "Y": 1.0
         },
         "handle_right": {
          "X": 0.5,
          "Y": 0.0
         },
         "handle_type": 0,
         "interpolation": 0
        },
        {
         "co": {
          "X": 30.0,
          "Y": -1.0
         },
         "handle_left": {
          "X": 0.5,
          "Y": 1.0
         },
         "handle_right": {
          "X": 0.5,
          "Y": 0.0
         },
         "handle_type": 0,
         "interpolation": 0
        }
       ]
      },
      "contrast": {
       "Points": [
        {
         "co": {
          "X": 1.0,
          "Y": 3.0
         },
         "handle_left": {
          "X": 0.5,
          "Y": 1.0
         },
         "handle_right": {
          "X": 0.5,
          "Y": 0.0
         },
         "handle_type": 0,
         "interpolation": 0
        },
        {
         "co": {
          "X": 30.0,
          "Y": 3.0
         },
         "handle_left": {
          "X": 0.5,
          "Y": 1.0
         },
         "handle_right": {
          "X": 0.5,
          "Y": 0.0
         },
         "handle_type": 0,
         "interpolation": 0
        }
       ]
      },
      "reader": {
       "acodec": "",
       "audio_bit_rate": 0,
       "audio_stream_index": -1,
       "audio_timebase": {
        "den": 1,
        "num": 1
       },
       "channel_layout": 4,
       "channels": 0,
       "display_ratio": {
        "den": 4,
        "num": 5
       },
       "duration": 3600.0,
       "file_size": "5832000",
       "fps": {
        "den": 1,
        "num": 30
       },
       "has_audio": false,
       "has_single_image": true,
       "has_video": true,
       "height": 576,
       "interlaced_frame": false,
       "metadata": {},
       "path": "@transitions/common/fade.svg",
       "pixel_format": -1,
       "pixel_ratio": {
        "den": 1,
        "num": 1
       },
       "sample_rate": 0,
       "top_field_first": true,
       "type": "QtImageReader",
       "vcodec": "",
       "video_bit_rate": 0,
       "video_length": "108000",
       "video_stream_index": -1,
       "video_timebase": {
        "den": 30,
        "num": 1
       },
       "width": 720
      },
      "replace_image": false,
      "id": "RT9O39UDSB"
     },
     {
      "layer": 4000000,
      "title": "Transition",
      "type": "Mask",
      "position": 40.63333333333333,
      "start": 0,
      "end": 1,
      "brightness": {
       "Points": [
        {
         "co": {
          "X": 1.0,
          "Y": 1.0
         },
         "handle_left": {
          "X": 0.5,
          "Y": 1.0
         },
         "handle_right": {
          "X": 0.5,
          "Y": 0.0
         },
         "handle_type": 0,
         "interpolation": 0
        },
        {
         "co": {
          "X": 30.0,
          "Y": -1.0
         },
         "handle_left": {
          "X": 0.5,
          "Y": 1.0
         },
         "handle_right": {
          "X": 0.5,
          "Y": 0.0
         },
         "handle_type": 0,
         "interpolation": 0
        }
       ]
      },
      "contrast": {
       "Points": [
        {
         "co": {
          "X": 1.0,
          "Y": 3.0
         },
         "handle_left": {
          "X": 0.5,
          "Y": 1.0
         },
         "handle_right": {
          "X": 0.5,
          "Y": 0.0
         },
         "handle_type": 0,
         "interpolation": 0
        },
        {
         "co": {
          "X": 30.0,
          "Y": 3.0
         },
         "handle_left": {
          "X": 0.5,
          "Y": 1.0
         },
         "handle_right": {
          "X": 0.5,
          "Y": 0.0
         },
         "handle_type": 0,
         "interpolation": 0
        }
       ]
      },
      "reader": {
       "acodec": "",
       "audio_bit_rate": 0,
       "audio_stream_index": -1,
       "audio_timebase": {
        "den": 1,
        "num": 1
       },
       "channel_layout": 4,
       "channels": 0,
       "display_ratio": {
        "den": 4,
        "num": 5
       },
       "duration": 3600.0,
       "file_size": "5832000",
       "fps": {
        "den": 1,
        "num": 30
       },
       "has_audio": false,
       "has_single_image": true,
       "has_video": true,
       "height": 576,
       "interlaced_frame": false,
       "metadata": {},
       "path": "@transitions/common/fade.svg",
       "pixel_format": -1,
       "pixel_ratio": {
        "den": 1,
        "num": 1
       },
       "sample_rate": 0,
       "top_field_first": true,
       "type": "QtImageReader",
       "vcodec": "",
       "video_bit_rate": 0,
       "video_length": "108000",
       "video_stream_index": -1,
       "video_timebase": {
        "den": 30,
        "num": 1
       },
       "width": 720
      },
      "replace_image": false,
      "id": "49J3IKSEQW"
     },
     {
      "layer": 5000000,
      "title": "Transition",
      "type": "Mask",
      "position": 40.63333333333333,
      "start": 0,
      "end": 1,
      "brightness": {
       "Points": [
        {
         "co": {
          "X": 1.0,
          "Y": 1.0
         },
         "handle_left": {
          "X": 0.5,
          "Y": 1.0
         },
         "handle_right": {
          "X": 0.5,
          "Y": 0.0
         },
         "handle_type": 0,
         "interpolation": 0
        },
        {
         "co": {
          "X": 30.0,
          "Y": -1.0
         },
         "handle_left": {
          "X": 0.5,
          "Y": 1.0
         },
         "handle_right": {
          "X": 0.5,
          "Y": 0.0
         },
         "handle_type": 0,
         "interpolation": 0
        }
       ]
      },
      "contrast": {
       "Points": [
        {
         "co": {
          "X": 1.0,
          "Y": 3.0
         },
         "handle_left": {
          "X": 0.5,
          "Y": 1.0
         },
         "handle_right": {
          "X": 0.5,
          "Y": 0.0
         },
         "handle_type": 0,
         "interpolation": 0
        },
        {
         "co": {
          "X": 30.0,
          "Y": 3.0
         },
         "handle_left": {
          "X": 0.5,
          "Y": 1.0
         },
         "handle_right": {
          "X": 0.5,
          "Y": 0.0
         },
         "handle_type": 0,
         "interpolation": 0
        }
       ]
      },
      "reader": {
       "acodec": "",
       "audio_bit_rate": 0,
       "audio_stream_index": -1,
       "audio_timebase": {
        "den": 1,
        "num": 1
       },
       "channel_layout": 4,
       "channels": 0,
       "display_ratio": {
        "den": 4,
        "num": 5
       },
       "duration": 3600.0,
       "file_size": "5832000",
       "fps": {
        "den": 1,
        "num": 30
       },
       "has_audio": false,
       "has_single_image": true,
       "has_video": true,
       "height": 576,
       "interlaced_frame": false,
       "metadata": {},
       "path": "@transitions/common/fade.svg",
       "pixel_format": -1,
       "pixel_ratio": {
        "den": 1,
        "num": 1
       },
       "sample_rate": 0,
       "top_field_first": true,
       "type": "QtImageReader",
       "vcodec": "",
       "video_bit_rate": 0,
       "video_length": "108000",
       "video_stream_index": -1,
       "video_timebase": {
        "den": 30,
        "num": 1
       },
       "width": 720
      },
      "replace_image": false,
      "id": "2N1BI0NL7T"
     },
     {
      "layer": 3000000,
      "title": "Transition",
      "type": "Mask",
      "position": 40.63333333333333,
      "start": 0,
      "end": 1,
      "brightness": {
       "Points": [
        {
         "co": {
          "X": 1.0,
          "Y": 1.0
         },
         "handle_left": {
          "X": 0.5,
          "Y": 1.0
         },
         "handle_right": {
          "X": 0.5,
          "Y": 0.0
         },
         "handle_type": 0,
         "interpolation": 0
        },
        {
         "co": {
          "X": 30.0,
          "Y": -1.0
         },
         "handle_left": {
          "X": 0.5,
          "Y": 1.0
         },
         "handle_right": {
          "X": 0.5,
          "Y": 0.0
         },
         "handle_type": 0,
         "interpolation": 0
        }
       ]
      },
      "contrast": {
       "Points": [
        {
         "co": {
          "X": 1.0,
          "Y": 3.0
         },
         "handle_left": {
          "X": 0.5,
          "Y": 1.0
         },
         "handle_right": {
          "X": 0.5,
          "Y": 0.0
         },
         "handle_type": 0,
         "interpolation": 0
        },
        {
         "co": {
          "X": 30.0,
          "Y": 3.0
         },
         "handle_left": {
          "X": 0.5,
          "Y": 1.0
         },
         "handle_right": {
          "X": 0.5,
          "Y": 0.0
         },
         "handle_type": 0,
         "interpolation": 0
        }
       ]
      },
      "reader": {
       "acodec": "",
       "audio_bit_rate": 0,
       "audio_stream_index": -1,
       "audio_timebase": {
        "den": 1,
        "num": 1
       },
       "channel_layout": 4,
       "channels": 0,
       "display_ratio": {
        "den": 4,
        "num": 5
       },
       "duration": 3600.0,
       "file_size": "5832000",
       "fps": {
        "den": 1,
        "num": 30
       },
       "has_audio": false,
       "has_single_image": true,
       "has_video": true,
       "height": 576,
       "interlaced_frame": false,
       "metadata": {},
       "path": "@transitions/common/fade.svg",
       "pixel_format": -1,
       "pixel_ratio": {
        "den": 1,
        "num": 1
       },
       "sample_rate": 0,
       "top_field_first": true,
       "type": "QtImageReader",
       "vcodec": "",
       "video_bit_rate": 0,
       "video_length": "108000",
       "video_stream_index": -1,
       "video_timebase": {
        "den": 30,
        "num": 1
       },
       "width": 720
      },
      "replace_image": false,
      "id": "G2WLUXC8I2"
     },
     {
      "layer": 6000000,
      "title": "Transition",
      "type": "Mask",
      "position": 43.9,
      "start": 0,
      "end": 1,
      "brightness": {
       "Points": [
        {
         "co": {
          "X": 1.0,
          "Y": 1.0
         },
         "handle_left": {
          "X": 0.5,
          "Y": 1.0
         },
         "handle_right": {
          "X": 0.5,
          "Y": 0.0
         },
         "handle_type": 0,
         "interpolation": 0
        },
        {
         "co": {
          "X": 30.0,
          "Y": -1.0
         },
         "handle_left": {
          "X": 0.5,
          "Y": 1.0
         },
         "handle_right": {
          "X": 0.5,
          "Y": 0.0
         },
         "handle_type": 0,
         "interpolation": 0
        }
       ]
      },
      "contrast": {
       "Points": [
        {
         "co": {
          "X": 1.0,
          "Y": 3.0
         },
         "handle_left": {
          "X": 0.5,
          "Y": 1.0
         },
         "handle_right": {
          "X": 0.5,
          "Y": 0.0
         },
         "handle_type": 0,
         "interpolation": 0
        },
        {
         "co": {
          "X": 30.0,
          "Y": 3.0
         },
         "handle_left": {
          "X": 0.5,
          "Y": 1.0
         },
         "handle_right": {
          "X": 0.5,
          "Y": 0.0
         },
         "handle_type": 0,
         "interpolation": 0
        }
       ]
      },
      "reader": {
       "acodec": "",
       "audio_bit_rate": 0,
       "audio_stream_index": -1,
       "audio_timebase": {
        "den": 1,
        "num": 1
       },
       "channel_layout": 4,
       "channels": 0,
       "display_ratio": {
        "den": 4,
        "num": 5
       },
       "duration": 3600.0,
       "file_size": "5832000",
       "fps": {
        "den": 1,
        "num": 30
       },
       "has_audio": false,
       "has_single_image": true,
       "has_video": true,
       "height": 576,
       "interlaced_frame": false,
       "metadata": {},
       "path": "@transitions/common/fade.svg",
       "pixel_format": -1,
       "pixel_ratio": {
        "den": 1,
        "num": 1
       },
       "sample_rate": 0,
       "top_field_first": true,
       "type": "QtImageReader",
       "vcodec": "",
       "video_bit_rate": 0,
       "video_length": "108000",
       "video_stream_index": -1,
       "video_timebase": {
        "den": 30,
        "num": 1
       },
       "width": 720
      },
      "replace_image": false,
      "id": "TXMFAXERBB"
     },
     {
      "layer": 7000000,
      "title": "Transition",
      "type": "Mask",
      "position": 43.9,
      "start": 0,
      "end": 1,
      "brightness": {
       "Points": [
        {
         "co": {
          "X": 1.0,
          "Y": 1.0
         },
         "handle_left": {
          "X": 0.5,
          "Y": 1.0
         },
         "handle_right": {
          "X": 0.5,
          "Y": 0.0
         },
         "handle_type": 0,
         "interpolation": 0
        },
        {
         "co": {
          "X": 30.0,
          "Y": -1.0
         },
         "handle_left": {
          "X": 0.5,
          "Y": 1.0
         },
         "handle_right": {
          "X": 0.5,
          "Y": 0.0
         },
         "handle_type": 0,
         "interpolation": 0
        }
       ]
      },
      "contrast": {
       "Points": [
        {
         "co": {
          "X": 1.0,
          "Y": 3.0
         },
         "handle_left": {
          "X": 0.5,
          "Y": 1.0
         },
         "handle_right": {
          "X": 0.5,
          "Y": 0.0
         },
         "handle_type": 0,
         "interpolation": 0
        },
        {
         "co": {
          "X": 30.0,
          "Y": 3.0
         },
         "handle_left": {
          "X": 0.5,
          "Y": 1.0
         },
         "handle_right": {
          "X": 0.5,
          "Y": 0.0
         },
         "handle_type": 0,
         "interpolation": 0
        }
       ]
      },
      "reader": {
       "acodec": "",
       "audio_bit_rate": 0,
       "audio_stream_index": -1,
       "audio_timebase": {
        "den": 1,
        "num": 1
       },
       "channel_layout": 4,
       "channels": 0,
       "display_ratio": {
        "den": 4,
        "num": 5
       },
       "duration": 3600.0,
       "file_size": "5832000",
       "fps": {
        "den": 1,
        "num": 30
       },
       "has_audio": false,
       "has_single_image": true,
       "has_video": true,
       "height": 576,
       "interlaced_frame": false,
       "metadata": {},
       "path": "@transitions/common/fade.svg",
       "pixel_format": -1,
       "pixel_ratio": {
        "den": 1,
        "num": 1
       },
       "sample_rate": 0,
       "top_field_first": true,
       "type": "QtImageReader",
       "vcodec": "",
       "video_bit_rate": 0,
       "video_length": "108000",
       "video_stream_index": -1,
       "video_timebase": {
        "den": 30,
        "num": 1
       },
       "width": 720
      },
      "replace_image": false,
      "id": "WB87SQALF3"
     },
     {
      "layer": 8000000,
      "title": "Transition",
      "type": "Mask",
      "position": 47.2,
      "start": 0,
      "end": 1,
      "brightness": {
       "Points": [
        {
         "co": {
          "X": 1.0,
          "Y": -1.0
         },
         "handle_left": {
          "X": 0.5,
          "Y": 1.0
         },
         "handle_right": {
          "X": 0.5,
          "Y": 0.0
         },
         "handle_type": 0,
         "interpolation": 0
        },
        {
         "co": {
          "X": 30.0,
          "Y": 1.0
         },
         "handle_left": {
          "X": 0.5,
          "Y": 1.0
         },
         "handle_right": {
          "X": 0.5,
          "Y": 0.0
         },
         "handle_type": 0,
         "interpolation": 0
        }
       ]
      },
      "contrast": {
       "Points": [
        {
         "co": {
          "X": 1.0,
          "Y": 3.0
         },
         "handle_left": {
          "X": 0.5,
          "Y": 1.0
         },
         "handle_right": {
          "X": 0.5,
          "Y": 0.0
         },
         "handle_type": 0,
         "interpolation": 0
        },
        {
         "co": {
          "X": 30.0,
          "Y": 3.0
         },
         "handle_left": {
          "X": 0.5,
          "Y": 1.0
         },
         "handle_right": {
          "X": 0.5,
          "Y": 0.0
         },
         "handle_type": 0,
         "interpolation": 0
        }
       ]
      },
      "reader": {
       "acodec": "",
       "audio_bit_rate": 0,
       "audio_stream_index": -1,
       "audio_timebase": {
        "den": 1,
        "num": 1
       },
       "channel_layout": 4,
       "channels": 0,
       "display_ratio": {
        "den": 4,
        "num": 5
       },
       "duration": 3600.0,
       "file_size": "5832000",
       "fps": {
        "den": 1,
        "num": 30
       },
       "has_audio": false,
       "has_single_image": true,
       "has_video": true,
       "height": 576,
       "interlaced_frame": false,
       "metadata": {},
       "path": "@transitions/common/fade.svg",
       "pixel_format": -1,
       "pixel_ratio": {
        "den": 1,
        "num": 1
       },
       "sample_rate": 0,
       "top_field_first": true,
       "type": "QtImageReader",
       "vcodec": "",
       "video_bit_rate": 0,
       "video_length": "108000",
       "video_stream_index": -1,
       "video_timebase": {
        "den": 30,
        "num": 1
       },
       "width": 720
      },
      "replace_image": false,
      "id": "6979AKA6UA"
     },
     {
      "layer": 8000000,
      "title": "Transition",
      "type": "Mask",
      "position": 43.9,
      "start": 0,
      "end": 1,
      "brightness": {
       "Points": [
        {
         "co": {
          "X": 1.0,
          "Y": 1.0
         },
         "handle_left": {
          "X": 0.5,
          "Y": 1.0
         },
         "handle_right": {
          "X": 0.5,
          "Y": 0.0
         },
         "handle_type": 0,
         "interpolation": 0
        },
        {
         "co": {
          "X": 30.0,
          "Y": -1.0
         },
         "handle_left": {
          "X": 0.5,
          "Y": 1.0
         },
         "handle_right": {
          "X": 0.5,
          "Y": 0.0
         },
         "handle_type": 0,
         "interpolation": 0
        }
       ]
      },
      "contrast": {
       "Points": [
        {
         "co": {
          "X": 1.0,
          "Y": 3.0
         },
         "handle_left": {
          "X": 0.5,
          "Y": 1.0
         },
         "handle_right": {
          "X": 0.5,
          "Y": 0.0
         },
         "handle_type": 0,
         "interpolation": 0
        },
        {
         "co": {
          "X": 30.0,
          "Y": 3.0
         },
         "handle_left": {
          "X": 0.5,
          "Y": 1.0
         },
         "handle_right": {
          "X": 0.5,
          "Y": 0.0
         },
         "handle_type": 0,
         "interpolation": 0
        }
       ]
      },
      "reader": {
       "acodec": "",
       "audio_bit_rate": 0,
       "audio_stream_index": -1,
       "audio_timebase": {
        "den": 1,
        "num": 1
       },
       "channel_layout": 4,
       "channels": 0,
       "display_ratio": {
        "den": 4,
        "num": 5
       },
       "duration": 3600.0,
       "file_size": "5832000",
       "fps": {
        "den": 1,
        "num": 30
       },
       "has_audio": false,
       "has_single_image": true,
       "has_video": true,
       "height": 576,
       "interlaced_frame": false,
       "metadata": {},
       "path": "@transitions/common/fade.svg",
       "pixel_format": -1,
       "pixel_ratio": {
        "den": 1,
        "num": 1
       },
       "sample_rate": 0,
       "top_field_first": true,
       "type": "QtImageReader",
       "vcodec": "",
       "video_bit_rate": 0,
       "video_length": "108000",
       "video_stream_index": -1,
       "video_timebase": {
        "den": 30,
        "num": 1
       },
       "width": 720
      },
      "replace_image": false,
      "id": "DH4JVZH7V8"
     },
     {
      "layer": 7000000,
      "title": "Transition",
      "type": "Mask",
      "position": 47.2,
      "start": 0,
      "end": 1,
      "brightness": {
       "Points": [
        {
         "co": {
          "X": 1.0,
          "Y": -1.0
         },
         "handle_left": {
          "X": 0.5,
          "Y": 1.0
         },
         "handle_right": {
          "X": 0.5,
          "Y": 0.0
         },
         "handle_type": 0,
         "interpolation": 0
        },
        {
         "co": {
          "X": 30.0,
          "Y": 1.0
         },
         "handle_left": {
          "X": 0.5,
          "Y": 1.0
         },
         "handle_right": {
          "X": 0.5,
          "Y": 0.0
         },
         "handle_type": 0,
         "interpolation": 0
        }
       ]
      },
      "contrast": {
       "Points": [
        {
         "co": {
          "X": 1.0,
          "Y": 3.0
         },
         "handle_left": {
          "X": 0.5,
          "Y": 1.0
         },
         "handle_right": {
          "X": 0.5,
          "Y": 0.0
         },
         "handle_type": 0,
         "interpolation": 0
        },
        {
         "co": {
          "X": 30.0,
          "Y": 3.0
         },
         "handle_left": {
          "X": 0.5,
          "Y": 1.0
         },
         "handle_right": {
          "X": 0.5,
          "Y": 0.0
         },
         "handle_type": 0,
         "interpolation": 0
        }
       ]
      },
      "reader": {
       "acodec": "",
       "audio_bit_rate": 0,
       "audio_stream_index": -1,
       "audio_timebase": {
        "den": 1,
        "num": 1
       },
       "channel_layout": 4,
       "channels": 0,
       "display_ratio": {
        "den": 4,
        "num": 5
       },
       "duration": 3600.0,
       "file_size": "5832000",
       "fps": {
        "den": 1,
        "num": 30
       },
       "has_audio": false,
       "has_single_image": true,
       "has_video": true,
       "height": 576,
       "interlaced_frame": false,
       "metadata": {},
       "path": "@transitions/common/fade.svg",
       "pixel_format": -1,
       "pixel_ratio": {
        "den": 1,
        "num": 1
       },
       "sample_rate": 0,
       "top_field_first": true,
       "type": "QtImageReader",
       "vcodec": "",
       "video_bit_rate": 0,
       "video_length": "108000",
       "video_stream_index": -1,
       "video_timebase": {
        "den": 30,
        "num": 1
       },
       "width": 720
      },
      "replace_image": false,
      "id": "7D211FLB43"
     },
     {
      "layer": 6000000,
      "title": "Transition",
      "type": "Mask",
      "position": 47.2,
      "start": 0,
      "end": 1,
      "brightness": {
       "Points": [
        {
         "co": {
          "X": 1.0,
          "Y": -1.0
         },
         "handle_left": {
          "X": 0.5,
          "Y": 1.0
         },
         "handle_right": {
          "X": 0.5,
          "Y": 0.0
         },
         "handle_type": 0,
         "interpolation": 0
        },
        {
         "co": {
          "X": 30.0,
          "Y": 1.0
         },
         "handle_left": {
          "X": 0.5,
          "Y": 1.0
         },
         "handle_right": {
          "X": 0.5,
          "Y": 0.0
         },
         "handle_type": 0,
         "interpolation": 0
        }
       ]
      },
      "contrast": {
       "Points": [
        {
         "co": {
          "X": 1.0,
          "Y": 3.0
         },
         "handle_left": {
          "X": 0.5,
          "Y": 1.0
         },
         "handle_right": {
          "X": 0.5,
          "Y": 0.0
         },
         "handle_type": 0,
         "interpolation": 0
        },
        {
         "co": {
          "X": 30.0,
          "Y": 3.0
         },
         "handle_left": {
          "X": 0.5,
          "Y": 1.0
         },
         "handle_right": {
          "X": 0.5,
          "Y": 0.0
         },
         "handle_type": 0,
         "interpolation": 0
        }
       ]
      },
      "reader": {
       "acodec": "",
       "audio_bit_rate": 0,
       "audio_stream_index": -1,
       "audio_timebase": {
        "den": 1,
        "num": 1
       },
       "channel_layout": 4,
       "channels": 0,
       "display_ratio": {
        "den": 4,
        "num": 5
       },
       "duration": 3600.0,
       "file_size": "5832000",
       "fps": {
        "den": 1,
        "num": 30
       },
       "has_audio": false,
       "has_single_image": true,
       "has_video": true,
       "height": 576,
       "interlaced_frame": false,
       "metadata": {},
       "path": "@transitions/common/fade.svg",
       "pixel_format": -1,
       "pixel_ratio": {
        "den": 1,
        "num": 1
       },
       "sample_rate": 0,
       "top_field_first": true,
       "type": "QtImageReader",
       "vcodec": "",
       "video_bit_rate": 0,
       "video_length": "108000",
       "video_stream_index": -1,
       "video_timebase": {
        "den": 30,
        "num": 1
       },
       "width": 720
      },
      "replace_image": false,
      "id": "Z3MQ059L4N"
     },
     {
      "layer": 5000000,
      "title": "Transition",
      "type": "Mask",
      "position": 47.2,
      "start": 0,
      "end": 1,
      "brightness": {
       "Points": [
        {
         "co": {
          "X": 1.0,
          "Y": -1.0
         },
         "handle_left": {
          "X": 0.5,
          "Y": 1.0
         },
         "handle_right": {
          "X": 0.5,
          "Y": 0.0
         },
         "handle_type": 0,
         "interpolation": 0
        },
        {
         "co": {
          "X": 30.0,
          "Y": 1.0
         },
         "handle_left": {
          "X": 0.5,
          "Y": 1.0
         },
         "handle_right": {
          "X": 0.5,
          "Y": 0.0
         },
         "handle_type": 0,
         "interpolation": 0
        }
       ]
      },
      "contrast": {
       "Points": [
        {
         "co": {
          "X": 1.0,
          "Y": 3.0
         },
         "handle_left": {
          "X": 0.5,
          "Y": 1.0
         },
         "handle_right": {
          "X": 0.5,
          "Y": 0.0
         },
         "handle_type": 0,
         "interpolation": 0
        },
        {
         "co": {
          "X": 30.0,
          "Y": 3.0
         },
         "handle_left": {
          "X": 0.5,
          "Y": 1.0
         },
         "handle_right": {
          "X": 0.5,
          "Y": 0.0
         },
         "handle_type": 0,
         "interpolation": 0
        }
       ]
      },
      "reader": {
       "acodec": "",
       "audio_bit_rate": 0,
       "audio_stream_index": -1,
       "audio_timebase": {
        "den": 1,
        "num": 1
       },
       "channel_layout": 4,
       "channels": 0,
       "display_ratio": {
        "den": 4,
        "num": 5
       },
       "duration": 3600.0,
       "file_size": "5832000",
       "fps": {
        "den": 1,
        "num": 30
       },
       "has_audio": false,
       "has_single_image": true,
       "has_video": true,
       "height": 576,
       "interlaced_frame": false,
       "metadata": {},
       "path": "@transitions/common/fade.svg",
       "pixel_format": -1,
       "pixel_ratio": {
        "den": 1,
        "num": 1
       },
       "sample_rate": 0,
       "top_field_first": true,
       "type": "QtImageReader",
       "vcodec": "",
       "video_bit_rate": 0,
       "video_length": "108000",
       "video_stream_index": -1,
       "video_timebase": {
        "den": 30,
        "num": 1
       },
       "width": 720
      },
      "replace_image": false,
      "id": "0V0YZT4K2H"
     },
     {
      "layer": 4000000,
      "title": "Transition",
      "type": "Mask",
      "position": 47.2,
      "start": 0,
      "end": 1,
      "brightness": {
       "Points": [
        {
         "co": {
          "X": 1.0,
          "Y": -1.0
         },
         "handle_left": {
          "X": 0.5,
          "Y": 1.0
         },
         "handle_right": {
          "X": 0.5,
          "Y": 0.0
         },
         "handle_type": 0,
         "interpolation": 0
        },
        {
         "co": {
          "X": 30.0,
          "Y": 1.0
         },
         "handle_left": {
          "X": 0.5,
          "Y": 1.0
         },
         "handle_right": {
          "X": 0.5,
          "Y": 0.0
         },
         "handle_type": 0,
         "interpolation": 0
        }
       ]
      },
      "contrast": {
       "Points": [
        {
         "co": {
          "X": 1.0,
          "Y": 3.0
         },
         "handle_left": {
          "X": 0.5,
          "Y": 1.0
         },
         "handle_right": {
          "X": 0.5,
          "Y": 0.0
         },
         "handle_type": 0,
         "interpolation": 0
        },
        {
         "co": {
          "X": 30.0,
          "Y": 3.0
         },
         "handle_left": {
          "X": 0.5,
          "Y": 1.0
         },
         "handle_right": {
          "X": 0.5,
          "Y": 0.0
         },
         "handle_type": 0,
         "interpolation": 0
        }
       ]
      },
      "reader": {
       "acodec": "",
       "audio_bit_rate": 0,
       "audio_stream_index": -1,
       "audio_timebase": {
        "den": 1,
        "num": 1
       },
       "channel_layout": 4,
       "channels": 0,
       "display_ratio": {
        "den": 4,
        "num": 5
       },
       "duration": 3600.0,
       "file_size": "5832000",
       "fps": {
        "den": 1,
        "num": 30
       },
       "has_audio": false,
       "has_single_image": true,
       "has_video": true,
       "height": 576,
       "interlaced_frame": false,
       "metadata": {},
       "path": "@transitions/common/fade.svg",
       "pixel_format": -1,
       "pixel_ratio": {
        "den": 1,
        "num": 1
       },
       "sample_rate": 0,
       "top_field_first": true,
       "type": "QtImageReader",
       "vcodec": "",
       "video_bit_rate": 0,
       "video_length": "108000",
       "video_stream_index": -1,
       "video_timebase": {
        "den": 30,
        "num": 1
       },
       "width": 720
      },
      "replace_image": false,
      "id": "4CLZWS3I80"
     },
     {
      "layer": 3000000,
      "title": "Transition",
      "type": "Mask",
      "position": 47.2,
      "start": 0,
      "end": 1,
      "brightness": {
       "Points": [
        {
         "co": {
          "X": 1.0,
          "Y": -1.0
         },
         "handle_left": {
          "X": 0.5,
          "Y": 1.0
         },
         "handle_right": {
          "X": 0.5,
          "Y": 0.0
         },
         "handle_type": 0,
         "interpolation": 0
        },
        {
         "co": {
          "X": 30.0,
          "Y": 1.0
         },
         "handle_left": {
          "X": 0.5,
          "Y": 1.0
         },
         "handle_right": {
          "X": 0.5,
          "Y": 0.0
         },
         "handle_type": 0,
         "interpolation": 0
        }
       ]
      },
      "contrast": {
       "Points": [
        {
         "co": {
          "X": 1.0,
          "Y": 3.0
         },
         "handle_left": {
          "X": 0.5,
          "Y": 1.0
         },
         "handle_right": {
          "X": 0.5,
          "Y": 0.0
         },
         "handle_type": 0,
         "interpolation": 0
        },
        {
         "co": {
          "X": 30.0,
          "Y": 3.0
         },
         "handle_left": {
          "X": 0.5,
          "Y": 1.0
         },
         "handle_right": {
          "X": 0.5,
          "Y": 0.0
         },
         "handle_type": 0,
         "interpolation": 0
        }
       ]
      },
      "reader": {
       "acodec": "",
       "audio_bit_rate": 0,
       "audio_stream_index": -1,
       "audio_timebase": {
        "den": 1,
        "num": 1
       },
       "channel_layout": 4,
       "channels": 0,
       "display_ratio": {
        "den": 4,
        "num": 5
       },
       "duration": 3600.0,
       "file_size": "5832000",
       "fps": {
        "den": 1,
        "num": 30
       },
       "has_audio": false,
       "has_single_image": true,
       "has_video": true,
       "height": 576,
       "interlaced_frame": false,
       "metadata": {},
       "path": "@transitions/common/fade.svg",
       "pixel_format": -1,
       "pixel_ratio": {
        "den": 1,
        "num": 1
       },
       "sample_rate": 0,
       "top_field_first": true,
       "type": "QtImageReader",
       "vcodec": "",
       "video_bit_rate": 0,
       "video_length": "108000",
       "video_stream_index": -1,
       "video_timebase": {
        "den": 30,
        "num": 1
       },
       "width": 720
      },
      "replace_image": false,
      "id": "J7NMJ0MM60"
     },
     {
      "layer": 2000000,
      "title": "Transition",
      "type": "Mask",
      "position": 47.2,
      "start": 0,
      "end": 1,
      "brightness": {
       "Points": [
        {
         "co": {
          "X": 1.0,
          "Y": -1.0
         },
         "handle_left": {
          "X": 0.5,
          "Y": 1.0
         },
         "handle_right": {
          "X": 0.5,
          "Y": 0.0
         },
         "handle_type": 0,
         "interpolation": 0
        },
        {
         "co": {
          "X": 30.0,
          "Y": 1.0
         },
         "handle_left": {
          "X": 0.5,
          "Y": 1.0
         },
         "handle_right": {
          "X": 0.5,
          "Y": 0.0
         },
         "handle_type": 0,
         "interpolation": 0
        }
       ]
      },
      "contrast": {
       "Points": [
        {
         "co": {
          "X": 1.0,
          "Y": 3.0
         },
         "handle_left": {
          "X": 0.5,
          "Y": 1.0
         },
         "handle_right": {
          "X": 0.5,
          "Y": 0.0
         },
         "handle_type": 0,
         "interpolation": 0
        },
        {
         "co": {
          "X": 30.0,
          "Y": 3.0
         },
         "handle_left": {
          "X": 0.5,
          "Y": 1.0
         },
         "handle_right": {
          "X": 0.5,
          "Y": 0.0
         },
         "handle_type": 0,
         "interpolation": 0
        }
       ]
      },
      "reader": {
       "acodec": "",
       "audio_bit_rate": 0,
       "audio_stream_index": -1,
       "audio_timebase": {
        "den": 1,
        "num": 1
       },
       "channel_layout": 4,
       "channels": 0,
       "display_ratio": {
        "den": 4,
        "num": 5
       },
       "duration": 3600.0,
       "file_size": "5832000",
       "fps": {
        "den": 1,
        "num": 30
       },
       "has_audio": false,
       "has_single_image": true,
       "has_video": true,
       "height": 576,
       "interlaced_frame": false,
       "metadata": {},
       "path": "@transitions/common/fade.svg",
       "pixel_format": -1,
       "pixel_ratio": {
        "den": 1,
        "num": 1
       },
       "sample_rate": 0,
       "top_field_first": true,
       "type": "QtImageReader",
       "vcodec": "",
       "video_bit_rate": 0,
       "video_length": "108000",
       "video_stream_index": -1,
       "video_timebase": {
        "den": 30,
        "num": 1
       },
       "width": 720
      },
      "replace_image": false,
      "id": "JE02QMYFT4"
     },
     {
      "layer": 2000000,
      "title": "Transition",
      "type": "Mask",
      "position": 49.63333333333333,
      "start": 0,
      "end": 1.5226666666666642,
      "brightness": {
       "Points": [
        {
         "co": {
          "X": 1.0,
          "Y": 1.0
         },
         "handle_left": {
          "X": 0.5,
          "Y": 1.0
         },
         "handle_right": {
          "X": 0.5,
          "Y": 0.0
         },
         "handle_type": 0,
         "interpolation": 0
        },
        {
         "co": {
          "X": 46.0,
          "Y": -1.0
         },
         "handle_left": {
          "X": 0.5,
          "Y": 1.0
         },
         "handle_right": {
          "X": 0.5,
          "Y": 0.0
         },
         "handle_type": 0,
         "interpolation": 0
        }
       ]
      },
      "contrast": {
       "Points": [
        {
         "co": {
          "X": 1.0,
          "Y": 3.0
         },
         "handle_left": {
          "X": 0.5,
          "Y": 1.0
         },
         "handle_right": {
          "X": 0.5,
          "Y": 0.0
         },
         "handle_type": 0,
         "interpolation": 0
        },
        {
         "co": {
          "X": 46.0,
          "Y": 3.0
         },
         "handle_left": {
          "X": 0.5,
          "Y": 1.0
         },
         "handle_right": {
          "X": 0.5,
          "Y": 0.0
         },
         "handle_type": 0,
         "interpolation": 0
        }
       ]
      },
      "reader": {
       "acodec": "",
       "audio_bit_rate": 0,
       "audio_stream_index": -1,
       "audio_timebase": {
        "den": 1,
        "num": 1
       },
       "channel_layout": 4,
       "channels": 0,
       "display_ratio": {
        "den": 4,
        "num": 5
       },
       "duration": 3600.0,
       "file_size": "5832000",
       "fps": {
        "den": 1,
        "num": 30
       },
       "has_audio": false,
       "has_single_image": true,
       "has_video": true,
       "height": 576,
       "interlaced_frame": false,
       "metadata": {},
       "path": "@transitions/common/fade.svg",
       "pixel_format": -1,
       "pixel_ratio": {
        "den": 1,
        "num": 1
       },
       "sample_rate": 0,
       "top_field_first": true,
       "type": "QtImageReader",
       "vcodec": "",
       "video_bit_rate": 0,
       "video_length": "108000",
       "video_stream_index": -1,
       "video_timebase": {
        "den": 30,
        "num": 1
       },
       "width": 720
      },
      "replace_image": false,
      "id": "NMY4YXNU1E"
     },
     {
      "id": "JVDJ759VY9",
      "layer": 1000000,
      "title": "Transition",
      "type": "Mask",
      "position": 48.53333333333333,
      "start": 0,
      "end": 1.6234375000000298,
      "brightness": {
       "Points": [
        {
         "co": {
          "X": 1.0,
          "Y": -1.0
         },
         "handle_left": {
          "X": 0.5,
          "Y": 1.0
         },
         "handle_right": {
          "X": 0.5,
          "Y": 0.0
         },
         "handle_type": 0,
         "interpolation": 0
        },
        {
         "co": {
          "X": 49.0,
          "Y": 1.0
         },
         "handle_left": {
          "X": 0.5,
          "Y": 1.0
         },
         "handle_right": {
          "X": 0.5,
          "Y": 0.0
         },
         "handle_type": 0,
         "interpolation": 0
        }
       ]
      },
      "contrast": {
       "Points": [
        {
         "co": {
          "X": 1.0,
          "Y": 3.0
         },
         "handle_left": {
          "X": 0.5,
          "Y": 1.0
         },
         "handle_right": {
          "X": 0.5,
          "Y": 0.0
         },
         "handle_type": 0,
         "interpolation": 0
        },
        {
         "co": {
          "X": 49.0,
          "Y": 3.0
         },
         "handle_left": {
          "X": 0.5,
          "Y": 1.0
         },
         "handle_right": {
          "X": 0.5,
          "Y": 0.0
         },
         "handle_type": 0,
         "interpolation": 0
        }
       ]
      },
      "reader": {
       "acodec": "",
       "audio_bit_rate": 0,
       "audio_stream_index": -1,
       "audio_timebase": {
        "den": 1,
        "num": 1
       },
       "channel_layout": 4,
       "channels": 0,
       "display_ratio": {
        "den": 4,
        "num": 5
       },
       "duration": 3600.0,
       "file_size": "5832000",
       "fps": {
        "den": 1,
        "num": 30
       },
       "has_audio": false,
       "has_single_image": true,
       "has_video": true,
       "height": 576,
       "interlaced_frame": false,
       "metadata": {},
       "path": "@transitions/common/fade.svg",
       "pixel_format": -1,
       "pixel_ratio": {
        "den": 1,
        "num": 1
       },
       "sample_rate": 0,
       "top_field_first": true,
       "type": "QtImageReader",
       "vcodec": "",
       "video_bit_rate": 0,
       "video_length": "108000",
       "video_stream_index": -1,
       "video_timebase": {
        "den": 30,
        "num": 1
       },
       "width": 720
      },
      "replace_image": false
     },
     {
      "layer": 1000000,
      "title": "Transition",
      "type": "Mask",
      "position": 52.13333333333333,
      "start": 0,
      "end": 1.6234375000000298,
      "brightness": {
       "Points": [
        {
         "co": {
          "X": 1.0,
          "Y": 1.0
         },
         "handle_left": {
          "X": 0.5,
          "Y": 1.0
         },
         "handle_right": {
          "X": 0.5,
          "Y": 0.0
         },
         "handle_type": 0,
         "interpolation": 0
        },
        {
         "co": {
          "X": 49.0,
          "Y": -1.0
         },
         "handle_left": {
          "X": 0.5,
          "Y": 1.0
         },
         "handle_right": {
          "X": 0.5,
          "Y": 0.0
         },
         "handle_type": 0,
         "interpolation": 0
        }
       ]
      },
      "contrast": {
       "Points": [
        {
         "co": {
          "X": 1.0,
          "Y": 3.0
         },
         "handle_left": {
          "X": 0.5,
          "Y": 1.0
         },
         "handle_right": {
          "X": 0.5,
          "Y": 0.0
         },
         "handle_type": 0,
         "interpolation": 0
        },
        {
         "co": {
          "X": 49.0,
          "Y": 3.0
         },
         "handle_left": {
          "X": 0.5,
          "Y": 1.0
         },
         "handle_right": {
          "X": 0.5,
          "Y": 0.0
         },
         "handle_type": 0,
         "interpolation": 0
        }
       ]
      },
      "reader": {
       "acodec": "",
       "audio_bit_rate": 0,
       "audio_stream_index": -1,
       "audio_timebase": {
        "den": 1,
        "num": 1
       },
       "channel_layout": 4,
       "channels": 0,
       "display_ratio": {
        "den": 4,
        "num": 5
       },
       "duration": 3600.0,
       "file_size": "5832000",
       "fps": {
        "den": 1,
        "num": 30
       },
       "has_audio": false,
       "has_single_image": true,
       "has_video": true,
       "height": 576,
       "interlaced_frame": false,
       "metadata": {},
       "path": "@transitions/common/fade.svg",
       "pixel_format": -1,
       "pixel_ratio": {
        "den": 1,
        "num": 1
       },
       "sample_rate": 0,
       "top_field_first": true,
       "type": "QtImageReader",
       "vcodec": "",
       "video_bit_rate": 0,
       "video_length": "108000",
       "video_stream_index": -1,
       "video_timebase": {
        "den": 30,
        "num": 1
       },
       "width": 720
      },
      "replace_image": false,
      "id": "ILTGUG6BXY"
     },
     {
      "layer": 2000000,
      "title": "Transition",
      "type": "Mask",
      "position": 51.166666666666664,
      "start": 0,
      "end": 1.5226666666666642,
      "brightness": {
       "Points": [
        {
         "co": {
          "X": 1.0,
          "Y": -1.0
         },
         "handle_left": {
          "X": 0.5,
          "Y": 1.0
         },
         "handle_right": {
          "X": 0.5,
          "Y": 0.0
         },
         "handle_type": 0,
         "interpolation": 0
        },
        {
         "co": {
          "X": 46.0,
          "Y": 1.0
         },
         "handle_left": {
          "X": 0.5,
          "Y": 1.0
         },
         "handle_right": {
          "X": 0.5,
          "Y": 0.0
         },
         "handle_type": 0,
         "interpolation": 0
        }
       ]
      },
      "contrast": {
       "Points": [
        {
         "co": {
          "X": 1.0,
          "Y": 3.0
         },
         "handle_left": {
          "X": 0.5,
          "Y": 1.0
         },
         "handle_right": {
          "X": 0.5,
          "Y": 0.0
         },
         "handle_type": 0,
         "interpolation": 0
        },
        {
         "co": {
          "X": 46.0,
          "Y": 3.0
         },
         "handle_left": {
          "X": 0.5,
          "Y": 1.0
         },
         "handle_right": {
          "X": 0.5,
          "Y": 0.0
         },
         "handle_type": 0,
         "interpolation": 0
        }
       ]
      },
      "reader": {
       "acodec": "",
       "audio_bit_rate": 0,
       "audio_stream_index": -1,
       "audio_timebase": {
        "den": 1,
        "num": 1
       },
       "channel_layout": 4,
       "channels": 0,
       "display_ratio": {
        "den": 4,
        "num": 5
       },
       "duration": 3600.0,
       "file_size": "5832000",
       "fps": {
        "den": 1,
        "num": 30
       },
       "has_audio": false,
       "has_single_image": true,
       "has_video": true,
       "height": 576,
       "interlaced_frame": false,
       "metadata": {},
       "path": "@transitions/common/fade.svg",
       "pixel_format": -1,
       "pixel_ratio": {
        "den": 1,
        "num": 1
       },
       "sample_rate": 0,
       "top_field_first": true,
       "type": "QtImageReader",
       "vcodec": "",
       "video_bit_rate": 0,
       "video_length": "108000",
       "video_stream_index": -1,
       "video_timebase": {
        "den": 30,
        "num": 1
       },
       "width": 720
      },
      "replace_image": false,
      "id": "KK7AG74HMV"
     },
     {
      "layer": 2000000,
      "title": "Transition",
      "type": "Mask",
      "position": 52.7,
      "start": 0,
      "end": 1.0567708333333552,
      "brightness": {
       "Points": [
        {
         "co": {
          "X": 1.0,
          "Y": 1.0
         },
         "handle_left": {
          "X": 0.5,
          "Y": 1.0
         },
         "handle_right": {
          "X": 0.5,
          "Y": 0.0
         },
         "handle_type": 0,
         "interpolation": 0
        },
        {
         "co": {
          "X": 32.0,
          "Y": -1.0
         },
         "handle_left": {
          "X": 0.5,
          "Y": 1.0
         },
         "handle_right": {
          "X": 0.5,
          "Y": 0.0
         },
         "handle_type": 0,
         "interpolation": 0
        }
       ]
      },
      "contrast": {
       "Points": [
        {
         "co": {
          "X": 1.0,
          "Y": 3.0
         },
         "handle_left": {
          "X": 0.5,
          "Y": 1.0
         },
         "handle_right": {
          "X": 0.5,
          "Y": 0.0
         },
         "handle_type": 0,
         "interpolation": 0
        },
        {
         "co": {
          "X": 32.0,
          "Y": 3.0
         },
         "handle_left": {
          "X": 0.5,
          "Y": 1.0
         },
         "handle_right": {
          "X": 0.5,
          "Y": 0.0
         },
         "handle_type": 0,
         "interpolation": 0
        }
       ]
      },
      "reader": {
       "acodec": "",
       "audio_bit_rate": 0,
       "audio_stream_index": -1,
       "audio_timebase": {
        "den": 1,
        "num": 1
       },
       "channel_layout": 4,
       "channels": 0,
       "display_ratio": {
        "den": 4,
        "num": 5
       },
       "duration": 3600.0,
       "file_size": "5832000",
       "fps": {
        "den": 1,
        "num": 30
       },
       "has_audio": false,
       "has_single_image": true,
       "has_video": true,
       "height": 576,
       "interlaced_frame": false,
       "metadata": {},
       "path": "@transitions/common/fade.svg",
       "pixel_format": -1,
       "pixel_ratio": {
        "den": 1,
        "num": 1
       },
       "sample_rate": 0,
       "top_field_first": true,
       "type": "QtImageReader",
       "vcodec": "",
       "video_bit_rate": 0,
       "video_length": "108000",
       "video_stream_index": -1,
       "video_timebase": {
        "den": 30,
        "num": 1
       },
       "width": 720
      },
      "replace_image": false,
      "id": "U5TVH4SEI2"
     },
     {
      "layer": 2000000,
      "title": "Transition",
      "type": "Mask",
      "position": 61.166666666666664,
      "start": 0,
      "end": 1.0916666666666583,
      "brightness": {
       "Points": [
        {
         "co": {
          "X": 1.0,
          "Y": -1.0
         },
         "handle_left": {
          "X": 0.5,
          "Y": 1.0
         },
         "handle_right": {
          "X": 0.5,
          "Y": 0.0
         },
         "handle_type": 0,
         "interpolation": 0
        },
        {
         "co": {
          "X": 33.0,
          "Y": 1.0
         },
         "handle_left": {
          "X": 0.5,
          "Y": 1.0
         },
         "handle_right": {
          "X": 0.5,
          "Y": 0.0
         },
         "handle_type": 0,
         "interpolation": 0
        }
       ]
      },
      "contrast": {
       "Points": [
        {
         "co": {
          "X": 1.0,
          "Y": 3.0
         },
         "handle_left": {
          "X": 0.5,
          "Y": 1.0
         },
         "handle_right": {
          "X": 0.5,
          "Y": 0.0
         },
         "handle_type": 0,
         "interpolation": 0
        },
        {
         "co": {
          "X": 33.0,
          "Y": 3.0
         },
         "handle_left": {
          "X": 0.5,
          "Y": 1.0
         },
         "handle_right": {
          "X": 0.5,
          "Y": 0.0
         },
         "handle_type": 0,
         "interpolation": 0
        }
       ]
      },
      "reader": {
       "acodec": "",
       "audio_bit_rate": 0,
       "audio_stream_index": -1,
       "audio_timebase": {
        "den": 1,
        "num": 1
       },
       "channel_layout": 4,
       "channels": 0,
       "display_ratio": {
        "den": 4,
        "num": 5
       },
       "duration": 3600.0,
       "file_size": "5832000",
       "fps": {
        "den": 1,
        "num": 30
       },
       "has_audio": false,
       "has_single_image": true,
       "has_video": true,
       "height": 576,
       "interlaced_frame": false,
       "metadata": {},
       "path": "@transitions/common/fade.svg",
       "pixel_format": -1,
       "pixel_ratio": {
        "den": 1,
        "num": 1
       },
       "sample_rate": 0,
       "top_field_first": true,
       "type": "QtImageReader",
       "vcodec": "",
       "video_bit_rate": 0,
       "video_length": "108000",
       "video_stream_index": -1,
       "video_timebase": {
        "den": 30,
        "num": 1
       },
       "width": 720
      },
      "replace_image": false,
      "id": "FOE18GBI58"
     },
     {
      "layer": 3000000,
      "title": "Transition",
      "type": "Mask",
      "position": 69.1,
      "start": 0,
      "end": 0.8666666666666696,
      "brightness": {
       "Points": [
        {
         "co": {
          "X": 1.0,
          "Y": 1.0
         },
         "handle_left": {
          "X": 0.5,
          "Y": 1.0
         },
         "handle_right": {
          "X": 0.5,
          "Y": 0.0
         },
         "handle_type": 0,
         "interpolation": 0
        },
        {
         "co": {
          "X": 26.0,
          "Y": -1.0
         },
         "handle_left": {
          "X": 0.5,
          "Y": 1.0
         },
         "handle_right": {
          "X": 0.5,
          "Y": 0.0
         },
         "handle_type": 0,
         "interpolation": 0
        }
       ]
      },
      "contrast": {
       "Points": [
        {
         "co": {
          "X": 1.0,
          "Y": 3.0
         },
         "handle_left": {
          "X": 0.5,
          "Y": 1.0
         },
         "handle_right": {
          "X": 0.5,
          "Y": 0.0
         },
         "handle_type": 0,
         "interpolation": 0
        },
        {
         "co": {
          "X": 26.0,
          "Y": 3.0
         },
         "handle_left": {
          "X": 0.5,
          "Y": 1.0
         },
         "handle_right": {
          "X": 0.5,
          "Y": 0.0
         },
         "handle_type": 0,
         "interpolation": 0
        }
       ]
      },
      "reader": {
       "acodec": "",
       "audio_bit_rate": 0,
       "audio_stream_index": -1,
       "audio_timebase": {
        "den": 1,
        "num": 1
       },
       "channel_layout": 4,
       "channels": 0,
       "display_ratio": {
        "den": 4,
        "num": 5
       },
       "duration": 3600.0,
       "file_size": "5832000",
       "fps": {
        "den": 1,
        "num": 30
       },
       "has_audio": false,
       "has_single_image": true,
       "has_video": true,
       "height": 576,
       "interlaced_frame": false,
       "metadata": {},
       "path": "@transitions/common/fade.svg",
       "pixel_format": -1,
       "pixel_ratio": {
        "den": 1,
        "num": 1
       },
       "sample_rate": 0,
       "top_field_first": true,
       "type": "QtImageReader",
       "vcodec": "",
       "video_bit_rate": 0,
       "video_length": "108000",
       "video_stream_index": -1,
       "video_timebase": {
        "den": 30,
        "num": 1
       },
       "width": 720
      },
      "replace_image": false,
      "id": "IWR2HQJ3Y9"
     },
     {
      "layer": 4000000,
      "title": "Transition",
      "type": "Mask",
      "position": 70.4,
      "start": 0,
      "end": 0.9583333333333212,
      "brightness": {
       "Points": [
        {
         "co": {
          "X": 1.0,
          "Y": 1.0
         },
         "handle_left": {
          "X": 0.5,
          "Y": 1.0
         },
         "handle_right": {
          "X": 0.5,
          "Y": 0.0
         },
         "handle_type": 0,
         "interpolation": 0
        },
        {
         "co": {
          "X": 29.0,
          "Y": -1.0
         },
         "handle_left": {
          "X": 0.5,
          "Y": 1.0
         },
         "handle_right": {
          "X": 0.5,
          "Y": 0.0
         },
         "handle_type": 0,
         "interpolation": 0
        }
       ]
      },
      "contrast": {
       "Points": [
        {
         "co": {
          "X": 1.0,
          "Y": 3.0
         },
         "handle_left": {
          "X": 0.5,
          "Y": 1.0
         },
         "handle_right": {
          "X": 0.5,
          "Y": 0.0
         },
         "handle_type": 0,
         "interpolation": 0
        },
        {
         "co": {
          "X": 29.0,
          "Y": 3.0
         },
         "handle_left": {
          "X": 0.5,
          "Y": 1.0
         },
         "handle_right": {
          "X": 0.5,
          "Y": 0.0
         },
         "handle_type": 0,
         "interpolation": 0
        }
       ]
      },
      "reader": {
       "acodec": "",
       "audio_bit_rate": 0,
       "audio_stream_index": -1,
       "audio_timebase": {
        "den": 1,
        "num": 1
       },
       "channel_layout": 4,
       "channels": 0,
       "display_ratio": {
        "den": 4,
        "num": 5
       },
       "duration": 3600.0,
       "file_size": "5832000",
       "fps": {
        "den": 1,
        "num": 30
       },
       "has_audio": false,
       "has_single_image": true,
       "has_video": true,
       "height": 576,
       "interlaced_frame": false,
       "metadata": {},
       "path": "@transitions/common/fade.svg",
       "pixel_format": -1,
       "pixel_ratio": {
        "den": 1,
        "num": 1
       },
       "sample_rate": 0,
       "top_field_first": true,
       "type": "QtImageReader",
       "vcodec": "",
       "video_bit_rate": 0,
       "video_length": "108000",
       "video_stream_index": -1,
       "video_timebase": {
        "den": 30,
        "num": 1
       },
       "width": 720
      },
      "replace_image": false,
      "id": "K0VNL052DB"
     },
     {
      "layer": 4000000,
      "title": "Transition",
      "type": "Mask",
      "position": 72.63333333333334,
      "start": 0,
      "end": 0.9583333333333212,
      "brightness": {
       "Points": [
        {
         "co": {
          "X": 1.0,
          "Y": -1.0
         },
         "handle_left": {
          "X": 0.5,
          "Y": 1.0
         },
         "handle_right": {
          "X": 0.5,
          "Y": 0.0
         },
         "handle_type": 0,
         "interpolation": 0
        },
        {
         "co": {
          "X": 29.0,
          "Y": 1.0
         },
         "handle_left": {
          "X": 0.5,
          "Y": 1.0
         },
         "handle_right": {
          "X": 0.5,
          "Y": 0.0
         },
         "handle_type": 0,
         "interpolation": 0
        }
       ]
      },
      "contrast": {
       "Points": [
        {
         "co": {
          "X": 1.0,
          "Y": 3.0
         },
         "handle_left": {
          "X": 0.5,
          "Y": 1.0
         },
         "handle_right": {
          "X": 0.5,
          "Y": 0.0
         },
         "handle_type": 0,
         "interpolation": 0
        },
        {
         "co": {
          "X": 29.0,
          "Y": 3.0
         },
         "handle_left": {
          "X": 0.5,
          "Y": 1.0
         },
         "handle_right": {
          "X": 0.5,
          "Y": 0.0
         },
         "handle_type": 0,
         "interpolation": 0
        }
       ]
      },
      "reader": {
       "acodec": "",
       "audio_bit_rate": 0,
       "audio_stream_index": -1,
       "audio_timebase": {
        "den": 1,
        "num": 1
       },
       "channel_layout": 4,
       "channels": 0,
       "display_ratio": {
        "den": 4,
        "num": 5
       },
       "duration": 3600.0,
       "file_size": "5832000",
       "fps": {
        "den": 1,
        "num": 30
       },
       "has_audio": false,
       "has_single_image": true,
       "has_video": true,
       "height": 576,
       "interlaced_frame": false,
       "metadata": {},
       "path": "@transitions/common/fade.svg",
       "pixel_format": -1,
       "pixel_ratio": {
        "den": 1,
        "num": 1
       },
       "sample_rate": 0,
       "top_field_first": true,
       "type": "QtImageReader",
       "vcodec": "",
       "video_bit_rate": 0,
       "video_length": "108000",
       "video_stream_index": -1,
       "video_timebase": {
        "den": 30,
        "num": 1
       },
       "width": 720
      },
      "replace_image": false,
      "id": "BC8CI4IOC9"
     },
     {
      "layer": 4000000,
      "title": "Transition",
      "type": "Mask",
      "position": 73.9,
      "start": 0,
      "end": 0.9583333333333212,
      "brightness": {
       "Points": [
        {
         "co": {
          "X": 1.0,
          "Y": 1.0
         },
         "handle_left": {
          "X": 0.5,
          "Y": 1.0
         },
         "handle_right": {
          "X": 0.5,
          "Y": 0.0
         },
         "handle_type": 0,
         "interpolation": 0
        },
        {
         "co": {
          "X": 29.0,
          "Y": -1.0
         },
         "handle_left": {
          "X": 0.5,
          "Y": 1.0
         },
         "handle_right": {
          "X": 0.5,
          "Y": 0.0
         },
         "handle_type": 0,
         "interpolation": 0
        }
       ]
      },
      "contrast": {
       "Points": [
        {
         "co": {
          "X": 1.0,
          "Y": 3.0
         },
         "handle_left": {
          "X": 0.5,
          "Y": 1.0
         },
         "handle_right": {
          "X": 0.5,
          "Y": 0.0
         },
         "handle_type": 0,
         "interpolation": 0
        },
        {
         "co": {
          "X": 29.0,
          "Y": 3.0
         },
         "handle_left": {
          "X": 0.5,
          "Y": 1.0
         },
         "handle_right": {
          "X": 0.5,
          "Y": 0.0
         },
         "handle_type": 0,
         "interpolation": 0
        }
       ]
      },
      "reader": {
       "acodec": "",
       "audio_bit_rate": 0,
       "audio_stream_index": -1,
       "audio_timebase": {
        "den": 1,
        "num": 1
       },
       "channel_layout": 4,
       "channels": 0,
       "display_ratio": {
        "den": 4,
        "num": 5
       },
       "duration": 3600.0,
       "file_size": "5832000",
       "fps": {
        "den": 1,
        "num": 30
       },
       "has_audio": false,
       "has_single_image": true,
       "has_video": true,
       "height": 576,
       "interlaced_frame": false,
       "metadata": {},
       "path": "@transitions/common/fade.svg",
       "pixel_format": -1,
       "pixel_ratio": {
        "den": 1,
        "num": 1
       },
       "sample_rate": 0,
       "top_field_first": true,
       "type": "QtImageReader",
       "vcodec": "",
       "video_bit_rate": 0,
       "video_length": "108000",
       "video_stream_index": -1,
       "video_timebase": {
        "den": 30,
        "num": 1
       },
       "width": 720
      },
      "replace_image": false,
      "id": "KPBY75IWTS"
     },
     {
      "layer": 4000000,
      "title": "Transition",
      "type": "Mask",
      "position": 79.56666666666666,
      "start": 0,
      "end": 0.9583333333333212,
      "brightness": {
       "Points": [
        {
         "co": {
          "X": 1.0,
          "Y": -1.0
         },
         "handle_left": {
          "X": 0.5,
          "Y": 1.0
         },
         "handle_right": {
          "X": 0.5,
          "Y": 0.0
         },
         "handle_type": 0,
         "interpolation": 0
        },
        {
         "co": {
          "X": 29.0,
          "Y": 1.0
         },
         "handle_left": {
          "X": 0.5,
          "Y": 1.0
         },
         "handle_right": {
          "X": 0.5,
          "Y": 0.0
         },
         "handle_type": 0,
         "interpolation": 0
        }
       ]
      },
      "contrast": {
       "Points": [
        {
         "co": {
          "X": 1.0,
          "Y": 3.0
         },
         "handle_left": {
          "X": 0.5,
          "Y": 1.0
         },
         "handle_right": {
          "X": 0.5,
          "Y": 0.0
         },
         "handle_type": 0,
         "interpolation": 0
        },
        {
         "co": {
          "X": 29.0,
          "Y": 3.0
         },
         "handle_left": {
          "X": 0.5,
          "Y": 1.0
         },
         "handle_right": {
          "X": 0.5,
          "Y": 0.0
         },
         "handle_type": 0,
         "interpolation": 0
        }
       ]
      },
      "reader": {
       "acodec": "",
       "audio_bit_rate": 0,
       "audio_stream_index": -1,
       "audio_timebase": {
        "den": 1,
        "num": 1
       },
       "channel_layout": 4,
       "channels": 0,
       "display_ratio": {
        "den": 4,
        "num": 5
       },
       "duration": 3600.0,
       "file_size": "5832000",
       "fps": {
        "den": 1,
        "num": 30
       },
       "has_audio": false,
       "has_single_image": true,
       "has_video": true,
       "height": 576,
       "interlaced_frame": false,
       "metadata": {},
       "path": "@transitions/common/fade.svg",
       "pixel_format": -1,
       "pixel_ratio": {
        "den": 1,
        "num": 1
       },
       "sample_rate": 0,
       "top_field_first": true,
       "type": "QtImageReader",
       "vcodec": "",
       "video_bit_rate": 0,
       "video_length": "108000",
       "video_stream_index": -1,
       "video_timebase": {
        "den": 30,
        "num": 1
       },
       "width": 720
      },
      "replace_image": false,
      "id": "N48U05ILNC"
     },
     {
      "layer": 4000000,
      "title": "Transition",
      "type": "Mask",
      "position": 80.76666666666667,
      "start": 0,
      "end": 0.9583333333333212,
      "brightness": {
       "Points": [
        {
         "co": {
          "X": 1.0,
          "Y": 1.0
         },
         "handle_left": {
          "X": 0.5,
          "Y": 1.0
         },
         "handle_right": {
          "X": 0.5,
          "Y": 0.0
         },
         "handle_type": 0,
         "interpolation": 0
        },
        {
         "co": {
          "X": 29.0,
          "Y": -1.0
         },
         "handle_left": {
          "X": 0.5,
          "Y": 1.0
         },
         "handle_right": {
          "X": 0.5,
          "Y": 0.0
         },
         "handle_type": 0,
         "interpolation": 0
        }
       ]
      },
      "contrast": {
       "Points": [
        {
         "co": {
          "X": 1.0,
          "Y": 3.0
         },
         "handle_left": {
          "X": 0.5,
          "Y": 1.0
         },
         "handle_right": {
          "X": 0.5,
          "Y": 0.0
         },
         "handle_type": 0,
         "interpolation": 0
        },
        {
         "co": {
          "X": 29.0,
          "Y": 3.0
         },
         "handle_left": {
          "X": 0.5,
          "Y": 1.0
         },
         "handle_right": {
          "X": 0.5,
          "Y": 0.0
         },
         "handle_type": 0,
         "interpolation": 0
        }
       ]
      },
      "reader": {
       "acodec": "",
       "audio_bit_rate": 0,
       "audio_stream_index": -1,
       "audio_timebase": {
        "den": 1,
        "num": 1
       },
       "channel_layout": 4,
       "channels": 0,
       "display_ratio": {
        "den": 4,
        "num": 5
       },
       "duration": 3600.0,
       "file_size": "5832000",
       "fps": {
        "den": 1,
        "num": 30
       },
       "has_audio": false,
       "has_single_image": true,
       "has_video": true,
       "height": 576,
       "interlaced_frame": false,
       "metadata": {},
       "path": "@transitions/common/fade.svg",
       "pixel_format": -1,
       "pixel_ratio": {
        "den": 1,
        "num": 1
       },
       "sample_rate": 0,
       "top_field_first": true,
       "type": "QtImageReader",
       "vcodec": "",
       "video_bit_rate": 0,
       "video_length": "108000",
       "video_stream_index": -1,
       "video_timebase": {
        "den": 30,
        "num": 1
       },
       "width": 720
      },
      "replace_image": false,
      "id": "LWSD6DDV86"
     },
     {
      "layer": 4000000,
      "title": "Transition",
      "type": "Mask",
      "position": 85.03333333333333,
      "start": 0,
      "end": 0.9583333333333212,
      "brightness": {
       "Points": [
        {
         "co": {
          "X": 1.0,
          "Y": -1.0
         },
         "handle_left": {
          "X": 0.5,
          "Y": 1.0
         },
         "handle_right": {
          "X": 0.5,
          "Y": 0.0
         },
         "handle_type": 0,
         "interpolation": 0
        },
        {
         "co": {
          "X": 29.0,
          "Y": 1.0
         },
         "handle_left": {
          "X": 0.5,
          "Y": 1.0
         },
         "handle_right": {
          "X": 0.5,
          "Y": 0.0
         },
         "handle_type": 0,
         "interpolation": 0
        }
       ]
      },
      "contrast": {
       "Points": [
        {
         "co": {
          "X": 1.0,
          "Y": 3.0
         },
         "handle_left": {
          "X": 0.5,
          "Y": 1.0
         },
         "handle_right": {
          "X": 0.5,
          "Y": 0.0
         },
         "handle_type": 0,
         "interpolation": 0
        },
        {
         "co": {
          "X": 29.0,
          "Y": 3.0
         },
         "handle_left": {
          "X": 0.5,
          "Y": 1.0
         },
         "handle_right": {
          "X": 0.5,
          "Y": 0.0
         },
         "handle_type": 0,
         "interpolation": 0
        }
       ]
      },
      "reader": {
       "acodec": "",
       "audio_bit_rate": 0,
       "audio_stream_index": -1,
       "audio_timebase": {
        "den": 1,
        "num": 1
       },
       "channel_layout": 4,
       "channels": 0,
       "display_ratio": {
        "den": 4,
        "num": 5
       },
       "duration": 3600.0,
       "file_size": "5832000",
       "fps": {
        "den": 1,
        "num": 30
       },
       "has_audio": false,
       "has_single_image": true,
       "has_video": true,
       "height": 576,
       "interlaced_frame": false,
       "metadata": {},
       "path": "@transitions/common/fade.svg",
       "pixel_format": -1,
       "pixel_ratio": {
        "den": 1,
        "num": 1
       },
       "sample_rate": 0,
       "top_field_first": true,
       "type": "QtImageReader",
       "vcodec": "",
       "video_bit_rate": 0,
       "video_length": "108000",
       "video_stream_index": -1,
       "video_timebase": {
        "den": 30,
        "num": 1
       },
       "width": 720
      },
      "replace_image": false,
      "id": "8MLWPBO4EQ"
     },
     {
      "layer": 4000000,
      "title": "Transition",
      "type": "Mask",
      "position": 86.43333333333334,
      "start": 0,
      "end": 1.4666666666666641,
      "brightness": {
       "Points": [
        {
         "co": {
          "X": 1.0,
          "Y": 1.0
         },
         "handle_left": {
          "X": 0.5,
          "Y": 1.0
         },
         "handle_right": {
          "X": 0.5,
          "Y": 0.0
         },
         "handle_type": 0,
         "interpolation": 0
        },
        {
         "co": {
          "X": 44.0,
          "Y": -1.0
         },
         "handle_left": {
          "X": 0.5,
          "Y": 1.0
         },
         "handle_right": {
          "X": 0.5,
          "Y": 0.0
         },
         "handle_type": 0,
         "interpolation": 0
        }
       ]
      },
      "contrast": {
       "Points": [
        {
         "co": {
          "X": 1.0,
          "Y": 3.0
         },
         "handle_left": {
          "X": 0.5,
          "Y": 1.0
         },
         "handle_right": {
          "X": 0.5,
          "Y": 0.0
         },
         "handle_type": 0,
         "interpolation": 0
        },
        {
         "co": {
          "X": 44.0,
          "Y": 3.0
         },
         "handle_left": {
          "X": 0.5,
          "Y": 1.0
         },
         "handle_right": {
          "X": 0.5,
          "Y": 0.0
         },
         "handle_type": 0,
         "interpolation": 0
        }
       ]
      },
      "reader": {
       "acodec": "",
       "audio_bit_rate": 0,
       "audio_stream_index": -1,
       "audio_timebase": {
        "den": 1,
        "num": 1
       },
       "channel_layout": 4,
       "channels": 0,
       "display_ratio": {
        "den": 4,
        "num": 5
       },
       "duration": 3600.0,
       "file_size": "5832000",
       "fps": {
        "den": 1,
        "num": 30
       },
       "has_audio": false,
       "has_single_image": true,
       "has_video": true,
       "height": 576,
       "interlaced_frame": false,
       "metadata": {},
       "path": "@transitions/common/fade.svg",
       "pixel_format": -1,
       "pixel_ratio": {
        "den": 1,
        "num": 1
       },
       "sample_rate": 0,
       "top_field_first": true,
       "type": "QtImageReader",
       "vcodec": "",
       "video_bit_rate": 0,
       "video_length": "108000",
       "video_stream_index": -1,
       "video_timebase": {
        "den": 30,
        "num": 1
       },
       "width": 720
      },
      "replace_image": false,
      "id": "8KLCS4PPAB"
     },
     {
      "layer": 4000000,
      "title": "Transition",
      "type": "Mask",
      "position": 89.66666666666667,
      "start": 0,
      "end": 0.9583333333333212,
      "brightness": {
       "Points": [
        {
         "co": {
          "X": 1.0,
          "Y": -1.0
         },
         "handle_left": {
          "X": 0.5,
          "Y": 1.0
         },
         "handle_right": {
          "X": 0.5,
          "Y": 0.0
         },
         "handle_type": 0,
         "interpolation": 0
        },
        {
         "co": {
          "X": 29.0,
          "Y": 1.0
         },
         "handle_left": {
          "X": 0.5,
          "Y": 1.0
         },
         "handle_right": {
          "X": 0.5,
          "Y": 0.0
         },
         "handle_type": 0,
         "interpolation": 0
        }
       ]
      },
      "contrast": {
       "Points": [
        {
         "co": {
          "X": 1.0,
          "Y": 3.0
         },
         "handle_left": {
          "X": 0.5,
          "Y": 1.0
         },
         "handle_right": {
          "X": 0.5,
          "Y": 0.0
         },
         "handle_type": 0,
         "interpolation": 0
        },
        {
         "co": {
          "X": 29.0,
          "Y": 3.0
         },
         "handle_left": {
          "X": 0.5,
          "Y": 1.0
         },
         "handle_right": {
          "X": 0.5,
          "Y": 0.0
         },
         "handle_type": 0,
         "interpolation": 0
        }
       ]
      },
      "reader": {
       "acodec": "",
       "audio_bit_rate": 0,
       "audio_stream_index": -1,
       "audio_timebase": {
        "den": 1,
        "num": 1
       },
       "channel_layout": 4,
       "channels": 0,
       "display_ratio": {
        "den": 4,
        "num": 5
       },
       "duration": 3600.0,
       "file_size": "5832000",
       "fps": {
        "den": 1,
        "num": 30
       },
       "has_audio": false,
       "has_single_image": true,
       "has_video": true,
       "height": 576,
       "interlaced_frame": false,
       "metadata": {},
       "path": "@transitions/common/fade.svg",
       "pixel_format": -1,
       "pixel_ratio": {
        "den": 1,
        "num": 1
       },
       "sample_rate": 0,
       "top_field_first": true,
       "type": "QtImageReader",
       "vcodec": "",
       "video_bit_rate": 0,
       "video_length": "108000",
       "video_stream_index": -1,
       "video_timebase": {
        "den": 30,
        "num": 1
       },
       "width": 720
      },
      "replace_image": false,
      "id": "7AYTGRXH6E"
     },
     {
      "layer": 4000000,
      "title": "Transition",
      "type": "Mask",
      "position": 90.86666666666666,
      "start": 0,
      "end": 0.9583333333333212,
      "brightness": {
       "Points": [
        {
         "co": {
          "X": 1.0,
          "Y": 1.0
         },
         "handle_left": {
          "X": 0.5,
          "Y": 1.0
         },
         "handle_right": {
          "X": 0.5,
          "Y": 0.0
         },
         "handle_type": 0,
         "interpolation": 0
        },
        {
         "co": {
          "X": 29.0,
          "Y": -1.0
         },
         "handle_left": {
          "X": 0.5,
          "Y": 1.0
         },
         "handle_right": {
          "X": 0.5,
          "Y": 0.0
         },
         "handle_type": 0,
         "interpolation": 0
        }
       ]
      },
      "contrast": {
       "Points": [
        {
         "co": {
          "X": 1.0,
          "Y": 3.0
         },
         "handle_left": {
          "X": 0.5,
          "Y": 1.0
         },
         "handle_right": {
          "X": 0.5,
          "Y": 0.0
         },
         "handle_type": 0,
         "interpolation": 0
        },
        {
         "co": {
          "X": 29.0,
          "Y": 3.0
         },
         "handle_left": {
          "X": 0.5,
          "Y": 1.0
         },
         "handle_right": {
          "X": 0.5,
          "Y": 0.0
         },
         "handle_type": 0,
         "interpolation": 0
        }
       ]
      },
      "reader": {
       "acodec": "",
       "audio_bit_rate": 0,
       "audio_stream_index": -1,
       "audio_timebase": {
        "den": 1,
        "num": 1
       },
       "channel_layout": 4,
       "channels": 0,
       "display_ratio": {
        "den": 4,
        "num": 5
       },
       "duration": 3600.0,
       "file_size": "5832000",
       "fps": {
        "den": 1,
        "num": 30
       },
       "has_audio": false,
       "has_single_image": true,
       "has_video": true,
       "height": 576,
       "interlaced_frame": false,
       "metadata": {},
       "path": "@transitions/common/fade.svg",
       "pixel_format": -1,
       "pixel_ratio": {
        "den": 1,
        "num": 1
       },
       "sample_rate": 0,
       "top_field_first": true,
       "type": "QtImageReader",
       "vcodec": "",
       "video_bit_rate": 0,
       "video_length": "108000",
       "video_stream_index": -1,
       "video_timebase": {
        "den": 30,
        "num": 1
       },
       "width": 720
      },
      "replace_image": false,
      "id": "UA7LEKK6UL"
     },
     {
      "layer": 4000000,
      "title": "Transition",
      "type": "Mask",
      "position": 96.96666666666667,
      "start": 0,
      "end": 0.9583333333333212,
      "brightness": {
       "Points": [
        {
         "co": {
          "X": 1.0,
          "Y": -1.0
         },
         "handle_left": {
          "X": 0.5,
          "Y": 1.0
         },
         "handle_right": {
          "X": 0.5,
          "Y": 0.0
         },
         "handle_type": 0,
         "interpolation": 0
        },
        {
         "co": {
          "X": 29.0,
          "Y": 1.0
         },
         "handle_left": {
          "X": 0.5,
          "Y": 1.0
         },
         "handle_right": {
          "X": 0.5,
          "Y": 0.0
         },
         "handle_type": 0,
         "interpolation": 0
        }
       ]
      },
      "contrast": {
       "Points": [
        {
         "co": {
          "X": 1.0,
          "Y": 3.0
         },
         "handle_left": {
          "X": 0.5,
          "Y": 1.0
         },
         "handle_right": {
          "X": 0.5,
          "Y": 0.0
         },
         "handle_type": 0,
         "interpolation": 0
        },
        {
         "co": {
          "X": 29.0,
          "Y": 3.0
         },
         "handle_left": {
          "X": 0.5,
          "Y": 1.0
         },
         "handle_right": {
          "X": 0.5,
          "Y": 0.0
         },
         "handle_type": 0,
         "interpolation": 0
        }
       ]
      },
      "reader": {
       "acodec": "",
       "audio_bit_rate": 0,
       "audio_stream_index": -1,
       "audio_timebase": {
        "den": 1,
        "num": 1
       },
       "channel_layout": 4,
       "channels": 0,
       "display_ratio": {
        "den": 4,
        "num": 5
       },
       "duration": 3600.0,
       "file_size": "5832000",
       "fps": {
        "den": 1,
        "num": 30
       },
       "has_audio": false,
       "has_single_image": true,
       "has_video": true,
       "height": 576,
       "interlaced_frame": false,
       "metadata": {},
       "path": "@transitions/common/fade.svg",
       "pixel_format": -1,
       "pixel_ratio": {
        "den": 1,
        "num": 1
       },
       "sample_rate": 0,
       "top_field_first": true,
       "type": "QtImageReader",
       "vcodec": "",
       "video_bit_rate": 0,
       "video_length": "108000",
       "video_stream_index": -1,
       "video_timebase": {
        "den": 30,
        "num": 1
       },
       "width": 720
      },
      "replace_image": false,
      "id": "PJNV20PXN2"
     },
     {
      "layer": 3000000,
      "title": "Transition",
      "type": "Mask",
      "position": 96.96666666666667,
      "start": 0,
      "end": 0.9583333333333212,
      "brightness": {
       "Points": [
        {
         "co": {
          "X": 1.0,
          "Y": -1.0
         },
         "handle_left": {
          "X": 0.5,
          "Y": 1.0
         },
         "handle_right": {
          "X": 0.5,
          "Y": 0.0
         },
         "handle_type": 0,
         "interpolation": 0
        },
        {
         "co": {
          "X": 29.0,
          "Y": 1.0
         },
         "handle_left": {
          "X": 0.5,
          "Y": 1.0
         },
         "handle_right": {
          "X": 0.5,
          "Y": 0.0
         },
         "handle_type": 0,
         "interpolation": 0
        }
       ]
      },
      "contrast": {
       "Points": [
        {
         "co": {
          "X": 1.0,
          "Y": 3.0
         },
         "handle_left": {
          "X": 0.5,
          "Y": 1.0
         },
         "handle_right": {
          "X": 0.5,
          "Y": 0.0
         },
         "handle_type": 0,
         "interpolation": 0
        },
        {
         "co": {
          "X": 29.0,
          "Y": 3.0
         },
         "handle_left": {
          "X": 0.5,
          "Y": 1.0
         },
         "handle_right": {
          "X": 0.5,
          "Y": 0.0
         },
         "handle_type": 0,
         "interpolation": 0
        }
       ]
      },
      "reader": {
       "acodec": "",
       "audio_bit_rate": 0,
       "audio_stream_index": -1,
       "audio_timebase": {
        "den": 1,
        "num": 1
       },
       "channel_layout": 4,
       "channels": 0,
       "display_ratio": {
        "den": 4,
        "num": 5
       },
       "duration": 3600.0,
       "file_size": "5832000",
       "fps": {
        "den": 1,
        "num": 30
       },
       "has_audio": false,
       "has_single_image": true,
       "has_video": true,
       "height": 576,
       "interlaced_frame": false,
       "metadata": {},
       "path": "@transitions/common/fade.svg",
       "pixel_format": -1,
       "pixel_ratio": {
        "den": 1,
        "num": 1
       },
       "sample_rate": 0,
       "top_field_first": true,
       "type": "QtImageReader",
       "vcodec": "",
       "video_bit_rate": 0,
       "video_length": "108000",
       "video_stream_index": -1,
       "video_timebase": {
        "den": 30,
        "num": 1
       },
       "width": 720
      },
      "replace_image": false,
      "id": "5D4SK0HM3Y"
     },
     {
      "layer": 4000000,
      "title": "Transition",
      "type": "Mask",
      "position": 100.33333333333333,
      "start": 0,
      "end": 0.9583333333333212,
      "brightness": {
       "Points": [
        {
         "co": {
          "X": 1.0,
          "Y": 1.0
         },
         "handle_left": {
          "X": 0.5,
          "Y": 1.0
         },
         "handle_right": {
          "X": 0.5,
          "Y": 0.0
         },
         "handle_type": 0,
         "interpolation": 0
        },
        {
         "co": {
          "X": 29.0,
          "Y": -1.0
         },
         "handle_left": {
          "X": 0.5,
          "Y": 1.0
         },
         "handle_right": {
          "X": 0.5,
          "Y": 0.0
         },
         "handle_type": 0,
         "interpolation": 0
        }
       ]
      },
      "contrast": {
       "Points": [
        {
         "co": {
          "X": 1.0,
          "Y": 3.0
         },
         "handle_left": {
          "X": 0.5,
          "Y": 1.0
         },
         "handle_right": {
          "X": 0.5,
          "Y": 0.0
         },
         "handle_type": 0,
         "interpolation": 0
        },
        {
         "co": {
          "X": 29.0,
          "Y": 3.0
         },
         "handle_left": {
          "X": 0.5,
          "Y": 1.0
         },
         "handle_right": {
          "X": 0.5,
          "Y": 0.0
         },
         "handle_type": 0,
         "interpolation": 0
        }
       ]
      },
      "reader": {
       "acodec": "",
       "audio_bit_rate": 0,
       "audio_stream_index": -1,
       "audio_timebase": {
        "den": 1,
        "num": 1
       },
       "channel_layout": 4,
       "channels": 0,
       "display_ratio": {
        "den": 4,
        "num": 5
       },
       "duration": 3600.0,
       "file_size": "5832000",
       "fps": {
        "den": 1,
        "num": 30
       },
       "has_audio": false,
       "has_single_image": true,
       "has_video": true,
       "height": 576,
       "interlaced_frame": false,
       "metadata": {},
       "path": "@transitions/common/fade.svg",
       "pixel_format": -1,
       "pixel_ratio": {
        "den": 1,
        "num": 1
       },
       "sample_rate": 0,
       "top_field_first": true,
       "type": "QtImageReader",
       "vcodec": "",
       "video_bit_rate": 0,
       "video_length": "108000",
       "video_stream_index": -1,
       "video_timebase": {
        "den": 30,
        "num": 1
       },
       "width": 720
      },
      "replace_image": false,
      "id": "CIVVK4Z0FJ"
     },
     {
      "layer": 4000000,
      "title": "Transition",
      "type": "Mask",
      "position": 109.36666666666666,
      "start": 0,
      "end": 0.9583333333333212,
      "brightness": {
       "Points": [
        {
         "co": {
          "X": 1.0,
          "Y": -1.0
         },
         "handle_left": {
          "X": 0.5,
          "Y": 1.0
         },
         "handle_right": {
          "X": 0.5,
          "Y": 0.0
         },
         "handle_type": 0,
         "interpolation": 0
        },
        {
         "co": {
          "X": 29.0,
          "Y": 1.0
         },
         "handle_left": {
          "X": 0.5,
          "Y": 1.0
         },
         "handle_right": {
          "X": 0.5,
          "Y": 0.0
         },
         "handle_type": 0,
         "interpolation": 0
        }
       ]
      },
      "contrast": {
       "Points": [
        {
         "co": {
          "X": 1.0,
          "Y": 3.0
         },
         "handle_left": {
          "X": 0.5,
          "Y": 1.0
         },
         "handle_right": {
          "X": 0.5,
          "Y": 0.0
         },
         "handle_type": 0,
         "interpolation": 0
        },
        {
         "co": {
          "X": 29.0,
          "Y": 3.0
         },
         "handle_left": {
          "X": 0.5,
          "Y": 1.0
         },
         "handle_right": {
          "X": 0.5,
          "Y": 0.0
         },
         "handle_type": 0,
         "interpolation": 0
        }
       ]
      },
      "reader": {
       "acodec": "",
       "audio_bit_rate": 0,
       "audio_stream_index": -1,
       "audio_timebase": {
        "den": 1,
        "num": 1
       },
       "channel_layout": 4,
       "channels": 0,
       "display_ratio": {
        "den": 4,
        "num": 5
       },
       "duration": 3600.0,
       "file_size": "5832000",
       "fps": {
        "den": 1,
        "num": 30
       },
       "has_audio": false,
       "has_single_image": true,
       "has_video": true,
       "height": 576,
       "interlaced_frame": false,
       "metadata": {},
       "path": "@transitions/common/fade.svg",
       "pixel_format": -1,
       "pixel_ratio": {
        "den": 1,
        "num": 1
       },
       "sample_rate": 0,
       "top_field_first": true,
       "type": "QtImageReader",
       "vcodec": "",
       "video_bit_rate": 0,
       "video_length": "108000",
       "video_stream_index": -1,
       "video_timebase": {
        "den": 30,
        "num": 1
       },
       "width": 720
      },
      "replace_image": false,
      "id": "6CRBT6371H"
     },
     {
      "layer": 4000000,
      "title": "Transition",
      "type": "Mask",
      "position": 110.5,
      "start": 0,
      "end": 0.9583333333333212,
      "brightness": {
       "Points": [
        {
         "co": {
          "X": 1.0,
          "Y": 1.0
         },
         "handle_left": {
          "X": 0.5,
          "Y": 1.0
         },
         "handle_right": {
          "X": 0.5,
          "Y": 0.0
         },
         "handle_type": 0,
         "interpolation": 0
        },
        {
         "co": {
          "X": 29.0,
          "Y": -1.0
         },
         "handle_left": {
          "X": 0.5,
          "Y": 1.0
         },
         "handle_right": {
          "X": 0.5,
          "Y": 0.0
         },
         "handle_type": 0,
         "interpolation": 0
        }
       ]
      },
      "contrast": {
       "Points": [
        {
         "co": {
          "X": 1.0,
          "Y": 3.0
         },
         "handle_left": {
          "X": 0.5,
          "Y": 1.0
         },
         "handle_right": {
          "X": 0.5,
          "Y": 0.0
         },
         "handle_type": 0,
         "interpolation": 0
        },
        {
         "co": {
          "X": 29.0,
          "Y": 3.0
         },
         "handle_left": {
          "X": 0.5,
          "Y": 1.0
         },
         "handle_right": {
          "X": 0.5,
          "Y": 0.0
         },
         "handle_type": 0,
         "interpolation": 0
        }
       ]
      },
      "reader": {
       "acodec": "",
       "audio_bit_rate": 0,
       "audio_stream_index": -1,
       "audio_timebase": {
        "den": 1,
        "num": 1
       },
       "channel_layout": 4,
       "channels": 0,
       "display_ratio": {
        "den": 4,
        "num": 5
       },
       "duration": 3600.0,
       "file_size": "5832000",
       "fps": {
        "den": 1,
        "num": 30
       },
       "has_audio": false,
       "has_single_image": true,
       "has_video": true,
       "height": 576,
       "interlaced_frame": false,
       "metadata": {},
       "path": "@transitions/common/fade.svg",
       "pixel_format": -1,
       "pixel_ratio": {
        "den": 1,
        "num": 1
       },
       "sample_rate": 0,
       "top_field_first": true,
       "type": "QtImageReader",
       "vcodec": "",
       "video_bit_rate": 0,
       "video_length": "108000",
       "video_stream_index": -1,
       "video_timebase": {
        "den": 30,
        "num": 1
       },
       "width": 720
      },
      "replace_image": false,
      "id": "6CLK4D1U3V"
     },
     {
      "layer": 4000000,
      "title": "Transition",
      "type": "Mask",
      "position": 119.53333333333333,
      "start": 0,
      "end": 0.9583333333333212,
      "brightness": {
       "Points": [
        {
         "co": {
          "X": 1.0,
          "Y": -1.0
         },
         "handle_left": {
          "X": 0.5,
          "Y": 1.0
         },
         "handle_right": {
          "X": 0.5,
          "Y": 0.0
         },
         "handle_type": 0,
         "interpolation": 0
        },
        {
         "co": {
          "X": 29.0,
          "Y": 1.0
         },
         "handle_left": {
          "X": 0.5,
          "Y": 1.0
         },
         "handle_right": {
          "X": 0.5,
          "Y": 0.0
         },
         "handle_type": 0,
         "interpolation": 0
        }
       ]
      },
      "contrast": {
       "Points": [
        {
         "co": {
          "X": 1.0,
          "Y": 3.0
         },
         "handle_left": {
          "X": 0.5,
          "Y": 1.0
         },
         "handle_right": {
          "X": 0.5,
          "Y": 0.0
         },
         "handle_type": 0,
         "interpolation": 0
        },
        {
         "co": {
          "X": 29.0,
          "Y": 3.0
         },
         "handle_left": {
          "X": 0.5,
          "Y": 1.0
         },
         "handle_right": {
          "X": 0.5,
          "Y": 0.0
         },
         "handle_type": 0,
         "interpolation": 0
        }
       ]
      },
      "reader": {
       "acodec": "",
       "audio_bit_rate": 0,
       "audio_stream_index": -1,
       "audio_timebase": {
        "den": 1,
        "num": 1
       },
       "channel_layout": 4,
       "channels": 0,
       "display_ratio": {
        "den": 4,
        "num": 5
       },
       "duration": 3600.0,
       "file_size": "5832000",
       "fps": {
        "den": 1,
        "num": 30
       },
       "has_audio": false,
       "has_single_image": true,
       "has_video": true,
       "height": 576,
       "interlaced_frame": false,
       "metadata": {},
       "path": "@transitions/common/fade.svg",
       "pixel_format": -1,
       "pixel_ratio": {
        "den": 1,
        "num": 1
       },
       "sample_rate": 0,
       "top_field_first": true,
       "type": "QtImageReader",
       "vcodec": "",
       "video_bit_rate": 0,
       "video_length": "108000",
       "video_stream_index": -1,
       "video_timebase": {
        "den": 30,
        "num": 1
       },
       "width": 720
      },
      "replace_image": false,
      "id": "T7M03LVI36"
     },
     {
      "layer": 4000000,
      "title": "Transition",
      "type": "Mask",
      "position": 122,
      "start": 0,
      "end": 0.9583333333333212,
      "brightness": {
       "Points": [
        {
         "co": {
          "X": 1.0,
          "Y": 1.0
         },
         "handle_left": {
          "X": 0.5,
          "Y": 1.0
         },
         "handle_right": {
          "X": 0.5,
          "Y": 0.0
         },
         "handle_type": 0,
         "interpolation": 0
        },
        {
         "co": {
          "X": 29.0,
          "Y": -1.0
         },
         "handle_left": {
          "X": 0.5,
          "Y": 1.0
         },
         "handle_right": {
          "X": 0.5,
          "Y": 0.0
         },
         "handle_type": 0,
         "interpolation": 0
        }
       ]
      },
      "contrast": {
       "Points": [
        {
         "co": {
          "X": 1.0,
          "Y": 3.0
         },
         "handle_left": {
          "X": 0.5,
          "Y": 1.0
         },
         "handle_right": {
          "X": 0.5,
          "Y": 0.0
         },
         "handle_type": 0,
         "interpolation": 0
        },
        {
         "co": {
          "X": 29.0,
          "Y": 3.0
         },
         "handle_left": {
          "X": 0.5,
          "Y": 1.0
         },
         "handle_right": {
          "X": 0.5,
          "Y": 0.0
         },
         "handle_type": 0,
         "interpolation": 0
        }
       ]
      },
      "reader": {
       "acodec": "",
       "audio_bit_rate": 0,
       "audio_stream_index": -1,
       "audio_timebase": {
        "den": 1,
        "num": 1
       },
       "channel_layout": 4,
       "channels": 0,
       "display_ratio": {
        "den": 4,
        "num": 5
       },
       "duration": 3600.0,
       "file_size": "5832000",
       "fps": {
        "den": 1,
        "num": 30
       },
       "has_audio": false,
       "has_single_image": true,
       "has_video": true,
       "height": 576,
       "interlaced_frame": false,
       "metadata": {},
       "path": "@transitions/common/fade.svg",
       "pixel_format": -1,
       "pixel_ratio": {
        "den": 1,
        "num": 1
       },
       "sample_rate": 0,
       "top_field_first": true,
       "type": "QtImageReader",
       "vcodec": "",
       "video_bit_rate": 0,
       "video_length": "108000",
       "video_stream_index": -1,
       "video_timebase": {
        "den": 30,
        "num": 1
       },
       "width": 720
      },
      "replace_image": false,
      "id": "H2KZP3RW5J"
     },
     {
      "id": "B9Z9HMO54D",
      "layer": 1000000,
      "title": "Transition",
      "type": "Mask",
      "position": 125.03333333333333,
      "start": 0,
      "end": 1.2633353678385504,
      "brightness": {
       "Points": [
        {
         "co": {
          "X": 1.0,
          "Y": 1.0
         },
         "handle_left": {
          "X": 0.5,
          "Y": 1.0
         },
         "handle_right": {
          "X": 0.5,
          "Y": 0.0
         },
         "handle_type": 0,
         "interpolation": 0
        },
        {
         "co": {
          "X": 38.0,
          "Y": -1.0
         },
         "handle_left": {
          "X": 0.5,
          "Y": 1.0
         },
         "handle_right": {
          "X": 0.5,
          "Y": 0.0
         },
         "handle_type": 0,
         "interpolation": 0
        }
       ]
      },
      "contrast": {
       "Points": [
        {
         "co": {
          "X": 1.0,
          "Y": 3.0
         },
         "handle_left": {
          "X": 0.5,
          "Y": 1.0
         },
         "handle_right": {
          "X": 0.5,
          "Y": 0.0
         },
         "handle_type": 0,
         "interpolation": 0
        },
        {
         "co": {
          "X": 38.0,
          "Y": 3.0
         },
         "handle_left": {
          "X": 0.5,
          "Y": 1.0
         },
         "handle_right": {
          "X": 0.5,
          "Y": 0.0
         },
         "handle_type": 0,
         "interpolation": 0
        }
       ]
      },
      "reader": {
       "acodec": "",
       "audio_bit_rate": 0,
       "audio_stream_index": -1,
       "audio_timebase": {
        "den": 1,
        "num": 1
       },
       "channel_layout": 4,
       "channels": 0,
       "display_ratio": {
        "den": 4,
        "num": 5
       },
       "duration": 3600.0,
       "file_size": "5832000",
       "fps": {
        "den": 1,
        "num": 30
       },
       "has_audio": false,
       "has_single_image": true,
       "has_video": true,
       "height": 576,
       "interlaced_frame": false,
       "metadata": {},
       "path": "@transitions/common/fade.svg",
       "pixel_format": -1,
       "pixel_ratio": {
        "den": 1,
        "num": 1
       },
       "sample_rate": 0,
       "top_field_first": true,
       "type": "QtImageReader",
       "vcodec": "",
       "video_bit_rate": 0,
       "video_length": "108000",
       "video_stream_index": -1,
       "video_timebase": {
        "den": 30,
        "num": 1
       },
       "width": 720
      },
      "replace_image": false
     },
     {
      "id": "QXV6SJOC9B",
      "layer": 1000000,
      "title": "Transition",
      "type": "Mask",
      "position": 110.5,
      "start": 0,
      "end": 2.0333333333333314,
      "brightness": {
       "Points": [
        {
         "co": {
          "X": 1.0,
          "Y": 1.0
         },
         "handle_left": {
          "X": 0.5,
          "Y": 1.0
         },
         "handle_right": {
          "X": 0.5,
          "Y": 0.0
         },
         "handle_type": 0,
         "interpolation": 0
        },
        {
         "co": {
          "X": 62.0,
          "Y": -1.0
         },
         "handle_left": {
          "X": 0.5,
          "Y": 1.0
         },
         "handle_right": {
          "X": 0.5,
          "Y": 0.0
         },
         "handle_type": 0,
         "interpolation": 0
        }
       ]
      },
      "contrast": {
       "Points": [
        {
         "co": {
          "X": 1.0,
          "Y": 3.0
         },
         "handle_left": {
          "X": 0.5,
          "Y": 1.0
         },
         "handle_right": {
          "X": 0.5,
          "Y": 0.0
         },
         "handle_type": 0,
         "interpolation": 0
        }
       ]
      },
      "reader": {
       "acodec": "",
       "audio_bit_rate": 0,
       "audio_stream_index": -1,
       "audio_timebase": {
        "den": 1,
        "num": 1
       },
       "channel_layout": 4,
       "channels": 0,
       "display_ratio": {
        "den": 4,
        "num": 5
       },
       "duration": 3600.0,
       "file_size": "5832000",
       "fps": {
        "den": 1,
        "num": 30
       },
       "has_audio": false,
       "has_single_image": true,
       "has_video": true,
       "height": 576,
       "interlaced_frame": false,
       "metadata": {},
       "path": "@transitions/common/fade.svg",
       "pixel_format": -1,
       "pixel_ratio": {
        "den": 1,
        "num": 1
       },
       "sample_rate": 0,
       "top_field_first": true,
       "type": "QtImageReader",
       "vcodec": "",
       "video_bit_rate": 0,
       "video_length": "108000",
       "video_stream_index": -1,
       "video_timebase": {
        "den": 30,
        "num": 1
       },
       "width": 720
      },
      "replace_image": false
     },
     {
      "id": "P0VCHPRAEW",
      "layer": 1000000,
      "title": "Transition",
      "type": "Mask",
      "position": 133.53333333333333,
      "start": 0,
      "end": 1.26666666666668,
      "brightness": {
       "Points": [
        {
         "co": {
          "X": 1.0,
          "Y": 1.0
         },
         "handle_left": {
          "X": 0.5,
          "Y": 1.0
         },
         "handle_right": {
          "X": 0.5,
          "Y": 0.0
         },
         "handle_type": 0,
         "interpolation": 0
        },
        {
         "co": {
          "X": 39.0,
          "Y": -1.0
         },
         "handle_left": {
          "X": 0.5,
          "Y": 1.0
         },
         "handle_right": {
          "X": 0.5,
          "Y": 0.0
         },
         "handle_type": 0,
         "interpolation": 0
        }
       ]
      },
      "contrast": {
       "Points": [
        {
         "co": {
          "X": 1.0,
          "Y": 3.0
         },
         "handle_left": {
          "X": 0.5,
          "Y": 1.0
         },
         "handle_right": {
          "X": 0.5,
          "Y": 0.0
         },
         "handle_type": 0,
         "interpolation": 0
        }
       ]
      },
      "reader": {
       "acodec": "",
       "audio_bit_rate": 0,
       "audio_stream_index": -1,
       "audio_timebase": {
        "den": 1,
        "num": 1
       },
       "channel_layout": 4,
       "channels": 0,
       "display_ratio": {
        "den": 4,
        "num": 5
       },
       "duration": 3600.0,
       "file_size": "5832000",
       "fps": {
        "den": 1,
        "num": 30
       },
       "has_audio": false,
       "has_single_image": true,
       "has_video": true,
       "height": 576,
       "interlaced_frame": false,
       "metadata": {},
       "path": "@transitions/common/fade.svg",
       "pixel_format": -1,
       "pixel_ratio": {
        "den": 1,
        "num": 1
       },
       "sample_rate": 0,
       "top_field_first": true,
       "type": "QtImageReader",
       "vcodec": "",
       "video_bit_rate": 0,
       "video_length": "108000",
       "video_stream_index": -1,
       "video_timebase": {
        "den": 30,
        "num": 1
       },
       "width": 720
      },
      "replace_image": false
     },
     {
      "layer": 4000000,
      "title": "Transition",
      "type": "Mask",
      "position": 142.6,
      "start": 0,
      "end": 0.9583333333333212,
      "brightness": {
       "Points": [
        {
         "co": {
          "X": 1.0,
          "Y": -1.0
         },
         "handle_left": {
          "X": 0.5,
          "Y": 1.0
         },
         "handle_right": {
          "X": 0.5,
          "Y": 0.0
         },
         "handle_type": 0,
         "interpolation": 0
        },
        {
         "co": {
          "X": 29.0,
          "Y": 1.0
         },
         "handle_left": {
          "X": 0.5,
          "Y": 1.0
         },
         "handle_right": {
          "X": 0.5,
          "Y": 0.0
         },
         "handle_type": 0,
         "interpolation": 0
        }
       ]
      },
      "contrast": {
       "Points": [
        {
         "co": {
          "X": 1.0,
          "Y": 3.0
         },
         "handle_left": {
          "X": 0.5,
          "Y": 1.0
         },
         "handle_right": {
          "X": 0.5,
          "Y": 0.0
         },
         "handle_type": 0,
         "interpolation": 0
        },
        {
         "co": {
          "X": 29.0,
          "Y": 3.0
         },
         "handle_left": {
          "X": 0.5,
          "Y": 1.0
         },
         "handle_right": {
          "X": 0.5,
          "Y": 0.0
         },
         "handle_type": 0,
         "interpolation": 0
        }
       ]
      },
      "reader": {
       "acodec": "",
       "audio_bit_rate": 0,
       "audio_stream_index": -1,
       "audio_timebase": {
        "den": 1,
        "num": 1
       },
       "channel_layout": 4,
       "channels": 0,
       "display_ratio": {
        "den": 4,
        "num": 5
       },
       "duration": 3600.0,
       "file_size": "5832000",
       "fps": {
        "den": 1,
        "num": 30
       },
       "has_audio": false,
       "has_single_image": true,
       "has_video": true,
       "height": 576,
       "interlaced_frame": false,
       "metadata": {},
       "path": "@transitions/common/fade.svg",
       "pixel_format": -1,
       "pixel_ratio": {
        "den": 1,
        "num": 1
       },
       "sample_rate": 0,
       "top_field_first": true,
       "type": "QtImageReader",
       "vcodec": "",
       "video_bit_rate": 0,
       "video_length": "108000",
       "video_stream_index": -1,
       "video_timebase": {
        "den": 30,
        "num": 1
       },
       "width": 720
      },
      "replace_image": false,
      "id": "HD7YD14ZFT"
     },
     {
      "layer": 4000000,
      "title": "Transition",
      "type": "Mask",
      "position": 131.03333333333333,
      "start": 0,
      "end": 0.9583333333333212,
      "brightness": {
       "Points": [
        {
         "co": {
          "X": 1.0,
          "Y": -1.0
         },
         "handle_left": {
          "X": 0.5,
          "Y": 1.0
         },
         "handle_right": {
          "X": 0.5,
          "Y": 0.0
         },
         "handle_type": 0,
         "interpolation": 0
        },
        {
         "co": {
          "X": 29.0,
          "Y": 1.0
         },
         "handle_left": {
          "X": 0.5,
          "Y": 1.0
         },
         "handle_right": {
          "X": 0.5,
          "Y": 0.0
         },
         "handle_type": 0,
         "interpolation": 0
        }
       ]
      },
      "contrast": {
       "Points": [
        {
         "co": {
          "X": 1.0,
          "Y": 3.0
         },
         "handle_left": {
          "X": 0.5,
          "Y": 1.0
         },
         "handle_right": {
          "X": 0.5,
          "Y": 0.0
         },
         "handle_type": 0,
         "interpolation": 0
        },
        {
         "co": {
          "X": 29.0,
          "Y": 3.0
         },
         "handle_left": {
          "X": 0.5,
          "Y": 1.0
         },
         "handle_right": {
          "X": 0.5,
          "Y": 0.0
         },
         "handle_type": 0,
         "interpolation": 0
        }
       ]
      },
      "reader": {
       "acodec": "",
       "audio_bit_rate": 0,
       "audio_stream_index": -1,
       "audio_timebase": {
        "den": 1,
        "num": 1
       },
       "channel_layout": 4,
       "channels": 0,
       "display_ratio": {
        "den": 4,
        "num": 5
       },
       "duration": 3600.0,
       "file_size": "5832000",
       "fps": {
        "den": 1,
        "num": 30
       },
       "has_audio": false,
       "has_single_image": true,
       "has_video": true,
       "height": 576,
       "interlaced_frame": false,
       "metadata": {},
       "path": "@transitions/common/fade.svg",
       "pixel_format": -1,
       "pixel_ratio": {
        "den": 1,
        "num": 1
       },
       "sample_rate": 0,
       "top_field_first": true,
       "type": "QtImageReader",
       "vcodec": "",
       "video_bit_rate": 0,
       "video_length": "108000",
       "video_stream_index": -1,
       "video_timebase": {
        "den": 30,
        "num": 1
       },
       "width": 720
      },
      "replace_image": false,
      "id": "W1VV6ZI143"
     },
     {
      "layer": 4000000,
      "title": "Transition",
      "type": "Mask",
      "position": 133.56666666666666,
      "start": 0,
      "end": 0.9583333333333212,
      "brightness": {
       "Points": [
        {
         "co": {
          "X": 1.0,
          "Y": 1.0
         },
         "handle_left": {
          "X": 0.5,
          "Y": 1.0
         },
         "handle_right": {
          "X": 0.5,
          "Y": 0.0
         },
         "handle_type": 0,
         "interpolation": 0
        },
        {
         "co": {
          "X": 29.0,
          "Y": -1.0
         },
         "handle_left": {
          "X": 0.5,
          "Y": 1.0
         },
         "handle_right": {
          "X": 0.5,
          "Y": 0.0
         },
         "handle_type": 0,
         "interpolation": 0
        }
       ]
      },
      "contrast": {
       "Points": [
        {
         "co": {
          "X": 1.0,
          "Y": 3.0
         },
         "handle_left": {
          "X": 0.5,
          "Y": 1.0
         },
         "handle_right": {
          "X": 0.5,
          "Y": 0.0
         },
         "handle_type": 0,
         "interpolation": 0
        },
        {
         "co": {
          "X": 29.0,
          "Y": 3.0
         },
         "handle_left": {
          "X": 0.5,
          "Y": 1.0
         },
         "handle_right": {
          "X": 0.5,
          "Y": 0.0
         },
         "handle_type": 0,
         "interpolation": 0
        }
       ]
      },
      "reader": {
       "acodec": "",
       "audio_bit_rate": 0,
       "audio_stream_index": -1,
       "audio_timebase": {
        "den": 1,
        "num": 1
       },
       "channel_layout": 4,
       "channels": 0,
       "display_ratio": {
        "den": 4,
        "num": 5
       },
       "duration": 3600.0,
       "file_size": "5832000",
       "fps": {
        "den": 1,
        "num": 30
       },
       "has_audio": false,
       "has_single_image": true,
       "has_video": true,
       "height": 576,
       "interlaced_frame": false,
       "metadata": {},
       "path": "@transitions/common/fade.svg",
       "pixel_format": -1,
       "pixel_ratio": {
        "den": 1,
        "num": 1
       },
       "sample_rate": 0,
       "top_field_first": true,
       "type": "QtImageReader",
       "vcodec": "",
       "video_bit_rate": 0,
       "video_length": "108000",
       "video_stream_index": -1,
       "video_timebase": {
        "den": 30,
        "num": 1
       },
       "width": 720
      },
      "replace_image": false,
      "id": "Z02J2TPUOT"
     },
     {
      "id": "0N4ZYD2NF2",
      "layer": 1000000,
      "title": "Transition",
      "type": "Mask",
      "position": 143.56666666666666,
      "start": 0,
      "end": 1.2333333333333485,
      "brightness": {
       "Points": [
        {
         "co": {
          "X": 1.0,
          "Y": 1.0
         },
         "handle_left": {
          "X": 0.5,
          "Y": 1.0
         },
         "handle_right": {
          "X": 0.5,
          "Y": 0.0
         },
         "handle_type": 0,
         "interpolation": 0
        },
        {
         "co": {
          "X": 38.0,
          "Y": -1.0
         },
         "handle_left": {
          "X": 0.5,
          "Y": 1.0
         },
         "handle_right": {
          "X": 0.5,
          "Y": 0.0
         },
         "handle_type": 0,
         "interpolation": 0
        }
       ]
      },
      "contrast": {
       "Points": [
        {
         "co": {
          "X": 1.0,
          "Y": 3.0
         },
         "handle_left": {
          "X": 0.5,
          "Y": 1.0
         },
         "handle_right": {
          "X": 0.5,
          "Y": 0.0
         },
         "handle_type": 0,
         "interpolation": 0
        }
       ]
      },
      "reader": {
       "acodec": "",
       "audio_bit_rate": 0,
       "audio_stream_index": -1,
       "audio_timebase": {
        "den": 1,
        "num": 1
       },
       "channel_layout": 4,
       "channels": 0,
       "display_ratio": {
        "den": 4,
        "num": 5
       },
       "duration": 3600.0,
       "file_size": "5832000",
       "fps": {
        "den": 1,
        "num": 30
       },
       "has_audio": false,
       "has_single_image": true,
       "has_video": true,
       "height": 576,
       "interlaced_frame": false,
       "metadata": {},
       "path": "@transitions/common/fade.svg",
       "pixel_format": -1,
       "pixel_ratio": {
        "den": 1,
        "num": 1
       },
       "sample_rate": 0,
       "top_field_first": true,
       "type": "QtImageReader",
       "vcodec": "",
       "video_bit_rate": 0,
       "video_length": "108000",
       "video_stream_index": -1,
       "video_timebase": {
        "den": 30,
        "num": 1
       },
       "width": 720
      },
      "replace_image": false
     },
     {
      "layer": 4000000,
      "title": "Transition",
      "type": "Mask",
      "position": 144.8,
      "start": 0,
      "end": 0.9583333333333212,
      "brightness": {
       "Points": [
        {
         "co": {
          "X": 1.0,
          "Y": 1.0
         },
         "handle_left": {
          "X": 0.5,
          "Y": 1.0
         },
         "handle_right": {
          "X": 0.5,
          "Y": 0.0
         },
         "handle_type": 0,
         "interpolation": 0
        },
        {
         "co": {
          "X": 29.0,
          "Y": -1.0
         },
         "handle_left": {
          "X": 0.5,
          "Y": 1.0
         },
         "handle_right": {
          "X": 0.5,
          "Y": 0.0
         },
         "handle_type": 0,
         "interpolation": 0
        }
       ]
      },
      "contrast": {
       "Points": [
        {
         "co": {
          "X": 1.0,
          "Y": 3.0
         },
         "handle_left": {
          "X": 0.5,
          "Y": 1.0
         },
         "handle_right": {
          "X": 0.5,
          "Y": 0.0
         },
         "handle_type": 0,
         "interpolation": 0
        },
        {
         "co": {
          "X": 29.0,
          "Y": 3.0
         },
         "handle_left": {
          "X": 0.5,
          "Y": 1.0
         },
         "handle_right": {
          "X": 0.5,
          "Y": 0.0
         },
         "handle_type": 0,
         "interpolation": 0
        }
       ]
      },
      "reader": {
       "acodec": "",
       "audio_bit_rate": 0,
       "audio_stream_index": -1,
       "audio_timebase": {
        "den": 1,
        "num": 1
       },
       "channel_layout": 4,
       "channels": 0,
       "display_ratio": {
        "den": 4,
        "num": 5
       },
       "duration": 3600.0,
       "file_size": "5832000",
       "fps": {
        "den": 1,
        "num": 30
       },
       "has_audio": false,
       "has_single_image": true,
       "has_video": true,
       "height": 576,
       "interlaced_frame": false,
       "metadata": {},
       "path": "@transitions/common/fade.svg",
       "pixel_format": -1,
       "pixel_ratio": {
        "den": 1,
        "num": 1
       },
       "sample_rate": 0,
       "top_field_first": true,
       "type": "QtImageReader",
       "vcodec": "",
       "video_bit_rate": 0,
       "video_length": "108000",
       "video_stream_index": -1,
       "video_timebase": {
        "den": 30,
        "num": 1
       },
       "width": 720
      },
      "replace_image": false,
      "id": "W0DEPAZ42R"
     },
     {
      "id": "TO45GHWLTA",
      "layer": 1000000,
      "title": "Transition",
      "type": "Mask",
      "position": 145.76666666666668,
      "start": 0,
      "end": 1,
      "brightness": {
       "Points": [
        {
         "co": {
          "X": 1.0,
          "Y": 1.0
         },
         "handle_left": {
          "X": 0.5,
          "Y": 1.0
         },
         "handle_right": {
          "X": 0.5,
          "Y": 0.0
         },
         "handle_type": 0,
         "interpolation": 0
        },
        {
         "co": {
          "X": 31.0,
          "Y": -1.0
         },
         "handle_left": {
          "X": 0.5,
          "Y": 1.0
         },
         "handle_right": {
          "X": 0.5,
          "Y": 0.0
         },
         "handle_type": 0,
         "interpolation": 0
        }
       ]
      },
      "contrast": {
       "Points": [
        {
         "co": {
          "X": 1.0,
          "Y": 3.0
         },
         "handle_left": {
          "X": 0.5,
          "Y": 1.0
         },
         "handle_right": {
          "X": 0.5,
          "Y": 0.0
         },
         "handle_type": 0,
         "interpolation": 0
        }
       ]
      },
      "reader": {
       "acodec": "",
       "audio_bit_rate": 0,
       "audio_stream_index": -1,
       "audio_timebase": {
        "den": 1,
        "num": 1
       },
       "channel_layout": 4,
       "channels": 0,
       "display_ratio": {
        "den": 4,
        "num": 5
       },
       "duration": 3600.0,
       "file_size": "5832000",
       "fps": {
        "den": 1,
        "num": 30
       },
       "has_audio": false,
       "has_single_image": true,
       "has_video": true,
       "height": 576,
       "interlaced_frame": false,
       "metadata": {},
       "path": "@transitions/common/fade.svg",
       "pixel_format": -1,
       "pixel_ratio": {
        "den": 1,
        "num": 1
       },
       "sample_rate": 0,
       "top_field_first": true,
       "type": "QtImageReader",
       "vcodec": "",
       "video_bit_rate": 0,
       "video_length": "108000",
       "video_stream_index": -1,
       "video_timebase": {
        "den": 30,
        "num": 1
       },
       "width": 720
      },
      "replace_image": false
     },
     {
      "id": "QQGQORIF73",
      "layer": 1000000,
      "title": "Transition",
      "type": "Mask",
      "position": 147.5,
      "start": 0,
      "end": 1.1666666666666572,
      "brightness": {
       "Points": [
        {
         "co": {
          "X": 1.0,
          "Y": 1.0
         },
         "handle_left": {
          "X": 0.5,
          "Y": 1.0
         },
         "handle_right": {
          "X": 0.5,
          "Y": 0.0
         },
         "handle_type": 0,
         "interpolation": 0
        },
        {
         "co": {
          "X": 35.0,
          "Y": -1.0
         },
         "handle_left": {
          "X": 0.5,
          "Y": 1.0
         },
         "handle_right": {
          "X": 0.5,
          "Y": 0.0
         },
         "handle_type": 0,
         "interpolation": 0
        }
       ]
      },
      "contrast": {
       "Points": [
        {
         "co": {
          "X": 1.0,
          "Y": 3.0
         },
         "handle_left": {
          "X": 0.5,
          "Y": 1.0
         },
         "handle_right": {
          "X": 0.5,
          "Y": 0.0
         },
         "handle_type": 0,
         "interpolation": 0
        },
        {
         "co": {
          "X": 35.0,
          "Y": 3.0
         },
         "handle_left": {
          "X": 0.5,
          "Y": 1.0
         },
         "handle_right": {
          "X": 0.5,
          "Y": 0.0
         },
         "handle_type": 0,
         "interpolation": 0
        }
       ]
      },
      "reader": {
       "acodec": "",
       "audio_bit_rate": 0,
       "audio_stream_index": -1,
       "audio_timebase": {
        "den": 1,
        "num": 1
       },
       "channel_layout": 4,
       "channels": 0,
       "display_ratio": {
        "den": 4,
        "num": 5
       },
       "duration": 3600.0,
       "file_size": "5832000",
       "fps": {
        "den": 1,
        "num": 30
       },
       "has_audio": false,
       "has_single_image": true,
       "has_video": true,
       "height": 576,
       "interlaced_frame": false,
       "metadata": {},
       "path": "@transitions/common/fade.svg",
       "pixel_format": -1,
       "pixel_ratio": {
        "den": 1,
        "num": 1
       },
       "sample_rate": 0,
       "top_field_first": true,
       "type": "QtImageReader",
       "vcodec": "",
       "video_bit_rate": 0,
       "video_length": "108000",
       "video_stream_index": -1,
       "video_timebase": {
        "den": 30,
        "num": 1
       },
       "width": 720
      },
      "replace_image": false
     },
     {
      "layer": 3000000,
      "title": "Transition",
      "type": "Mask",
      "position": 147.5,
      "start": 0,
      "end": 0.9583333333333212,
      "brightness": {
       "Points": [
        {
         "co": {
          "X": 1.0,
          "Y": 1.0
         },
         "handle_left": {
          "X": 0.5,
          "Y": 1.0
         },
         "handle_right": {
          "X": 0.5,
          "Y": 0.0
         },
         "handle_type": 0,
         "interpolation": 0
        },
        {
         "co": {
          "X": 29.0,
          "Y": -1.0
         },
         "handle_left": {
          "X": 0.5,
          "Y": 1.0
         },
         "handle_right": {
          "X": 0.5,
          "Y": 0.0
         },
         "handle_type": 0,
         "interpolation": 0
        }
       ]
      },
      "contrast": {
       "Points": [
        {
         "co": {
          "X": 1.0,
          "Y": 3.0
         },
         "handle_left": {
          "X": 0.5,
          "Y": 1.0
         },
         "handle_right": {
          "X": 0.5,
          "Y": 0.0
         },
         "handle_type": 0,
         "interpolation": 0
        },
        {
         "co": {
          "X": 29.0,
          "Y": 3.0
         },
         "handle_left": {
          "X": 0.5,
          "Y": 1.0
         },
         "handle_right": {
          "X": 0.5,
          "Y": 0.0
         },
         "handle_type": 0,
         "interpolation": 0
        }
       ]
      },
      "reader": {
       "acodec": "",
       "audio_bit_rate": 0,
       "audio_stream_index": -1,
       "audio_timebase": {
        "den": 1,
        "num": 1
       },
       "channel_layout": 4,
       "channels": 0,
       "display_ratio": {
        "den": 4,
        "num": 5
       },
       "duration": 3600.0,
       "file_size": "5832000",
       "fps": {
        "den": 1,
        "num": 30
       },
       "has_audio": false,
       "has_single_image": true,
       "has_video": true,
       "height": 576,
       "interlaced_frame": false,
       "metadata": {},
       "path": "@transitions/common/fade.svg",
       "pixel_format": -1,
       "pixel_ratio": {
        "den": 1,
        "num": 1
       },
       "sample_rate": 0,
       "top_field_first": true,
       "type": "QtImageReader",
       "vcodec": "",
       "video_bit_rate": 0,
       "video_length": "108000",
       "video_stream_index": -1,
       "video_timebase": {
        "den": 30,
        "num": 1
       },
       "width": 720
      },
      "replace_image": false,
      "id": "MQ9GMO4U7S"
     },
     {
      "layer": 3000000,
      "title": "Transition",
      "type": "Mask",
      "position": 151.5,
      "start": 0,
      "end": 0.9583333333333212,
      "brightness": {
       "Points": [
        {
         "co": {
          "X": 1.0,
          "Y": -1.0
         },
         "handle_left": {
          "X": 0.5,
          "Y": 1.0
         },
         "handle_right": {
          "X": 0.5,
          "Y": 0.0
         },
         "handle_type": 0,
         "interpolation": 0
        },
        {
         "co": {
          "X": 29.0,
          "Y": 1.0
         },
         "handle_left": {
          "X": 0.5,
          "Y": 1.0
         },
         "handle_right": {
          "X": 0.5,
          "Y": 0.0
         },
         "handle_type": 0,
         "interpolation": 0
        }
       ]
      },
      "contrast": {
       "Points": [
        {
         "co": {
          "X": 1.0,
          "Y": 3.0
         },
         "handle_left": {
          "X": 0.5,
          "Y": 1.0
         },
         "handle_right": {
          "X": 0.5,
          "Y": 0.0
         },
         "handle_type": 0,
         "interpolation": 0
        },
        {
         "co": {
          "X": 29.0,
          "Y": 3.0
         },
         "handle_left": {
          "X": 0.5,
          "Y": 1.0
         },
         "handle_right": {
          "X": 0.5,
          "Y": 0.0
         },
         "handle_type": 0,
         "interpolation": 0
        }
       ]
      },
      "reader": {
       "acodec": "",
       "audio_bit_rate": 0,
       "audio_stream_index": -1,
       "audio_timebase": {
        "den": 1,
        "num": 1
       },
       "channel_layout": 4,
       "channels": 0,
       "display_ratio": {
        "den": 4,
        "num": 5
       },
       "duration": 3600.0,
       "file_size": "5832000",
       "fps": {
        "den": 1,
        "num": 30
       },
       "has_audio": false,
       "has_single_image": true,
       "has_video": true,
       "height": 576,
       "interlaced_frame": false,
       "metadata": {},
       "path": "@transitions/common/fade.svg",
       "pixel_format": -1,
       "pixel_ratio": {
        "den": 1,
        "num": 1
       },
       "sample_rate": 0,
       "top_field_first": true,
       "type": "QtImageReader",
       "vcodec": "",
       "video_bit_rate": 0,
       "video_length": "108000",
       "video_stream_index": -1,
       "video_timebase": {
        "den": 30,
        "num": 1
       },
       "width": 720
      },
      "replace_image": false,
      "id": "48F1O1SI32"
     },
     {
      "layer": 3000000,
      "title": "Transition",
      "type": "Mask",
      "position": 152.96666666666667,
      "start": 0,
      "end": 0.9583333333333212,
      "brightness": {
       "Points": [
        {
         "co": {
          "X": 1.0,
          "Y": 1.0
         },
         "handle_left": {
          "X": 0.5,
          "Y": 1.0
         },
         "handle_right": {
          "X": 0.5,
          "Y": 0.0
         },
         "handle_type": 0,
         "interpolation": 0
        },
        {
         "co": {
          "X": 29.0,
          "Y": -1.0
         },
         "handle_left": {
          "X": 0.5,
          "Y": 1.0
         },
         "handle_right": {
          "X": 0.5,
          "Y": 0.0
         },
         "handle_type": 0,
         "interpolation": 0
        }
       ]
      },
      "contrast": {
       "Points": [
        {
         "co": {
          "X": 1.0,
          "Y": 3.0
         },
         "handle_left": {
          "X": 0.5,
          "Y": 1.0
         },
         "handle_right": {
          "X": 0.5,
          "Y": 0.0
         },
         "handle_type": 0,
         "interpolation": 0
        },
        {
         "co": {
          "X": 29.0,
          "Y": 3.0
         },
         "handle_left": {
          "X": 0.5,
          "Y": 1.0
         },
         "handle_right": {
          "X": 0.5,
          "Y": 0.0
         },
         "handle_type": 0,
         "interpolation": 0
        }
       ]
      },
      "reader": {
       "acodec": "",
       "audio_bit_rate": 0,
       "audio_stream_index": -1,
       "audio_timebase": {
        "den": 1,
        "num": 1
       },
       "channel_layout": 4,
       "channels": 0,
       "display_ratio": {
        "den": 4,
        "num": 5
       },
       "duration": 3600.0,
       "file_size": "5832000",
       "fps": {
        "den": 1,
        "num": 30
       },
       "has_audio": false,
       "has_single_image": true,
       "has_video": true,
       "height": 576,
       "interlaced_frame": false,
       "metadata": {},
       "path": "@transitions/common/fade.svg",
       "pixel_format": -1,
       "pixel_ratio": {
        "den": 1,
        "num": 1
       },
       "sample_rate": 0,
       "top_field_first": true,
       "type": "QtImageReader",
       "vcodec": "",
       "video_bit_rate": 0,
       "video_length": "108000",
       "video_stream_index": -1,
       "video_timebase": {
        "den": 30,
        "num": 1
       },
       "width": 720
      },
      "replace_image": false,
      "id": "T6EIC6ZKKI"
     },
     {
      "layer": 3000000,
      "title": "Transition",
      "type": "Mask",
      "position": 156.76666666666668,
      "start": 0,
      "end": 0.9583333333333212,
      "brightness": {
       "Points": [
        {
         "co": {
          "X": 1.0,
          "Y": -1.0
         },
         "handle_left": {
          "X": 0.5,
          "Y": 1.0
         },
         "handle_right": {
          "X": 0.5,
          "Y": 0.0
         },
         "handle_type": 0,
         "interpolation": 0
        },
        {
         "co": {
          "X": 29.0,
          "Y": 1.0
         },
         "handle_left": {
          "X": 0.5,
          "Y": 1.0
         },
         "handle_right": {
          "X": 0.5,
          "Y": 0.0
         },
         "handle_type": 0,
         "interpolation": 0
        }
       ]
      },
      "contrast": {
       "Points": [
        {
         "co": {
          "X": 1.0,
          "Y": 3.0
         },
         "handle_left": {
          "X": 0.5,
          "Y": 1.0
         },
         "handle_right": {
          "X": 0.5,
          "Y": 0.0
         },
         "handle_type": 0,
         "interpolation": 0
        },
        {
         "co": {
          "X": 29.0,
          "Y": 3.0
         },
         "handle_left": {
          "X": 0.5,
          "Y": 1.0
         },
         "handle_right": {
          "X": 0.5,
          "Y": 0.0
         },
         "handle_type": 0,
         "interpolation": 0
        }
       ]
      },
      "reader": {
       "acodec": "",
       "audio_bit_rate": 0,
       "audio_stream_index": -1,
       "audio_timebase": {
        "den": 1,
        "num": 1
       },
       "channel_layout": 4,
       "channels": 0,
       "display_ratio": {
        "den": 4,
        "num": 5
       },
       "duration": 3600.0,
       "file_size": "5832000",
       "fps": {
        "den": 1,
        "num": 30
       },
       "has_audio": false,
       "has_single_image": true,
       "has_video": true,
       "height": 576,
       "interlaced_frame": false,
       "metadata": {},
       "path": "@transitions/common/fade.svg",
       "pixel_format": -1,
       "pixel_ratio": {
        "den": 1,
        "num": 1
       },
       "sample_rate": 0,
       "top_field_first": true,
       "type": "QtImageReader",
       "vcodec": "",
       "video_bit_rate": 0,
       "video_length": "108000",
       "video_stream_index": -1,
       "video_timebase": {
        "den": 30,
        "num": 1
       },
       "width": 720
      },
      "replace_image": false,
      "id": "JB87W5WBEW"
     },
     {
      "layer": 3000000,
      "title": "Transition",
      "type": "Mask",
      "position": 159.4,
      "start": 0,
      "end": 0.9583333333333212,
      "brightness": {
       "Points": [
        {
         "co": {
          "X": 1.0,
          "Y": 1.0
         },
         "handle_left": {
          "X": 0.5,
          "Y": 1.0
         },
         "handle_right": {
          "X": 0.5,
          "Y": 0.0
         },
         "handle_type": 0,
         "interpolation": 0
        },
        {
         "co": {
          "X": 29.0,
          "Y": -1.0
         },
         "handle_left": {
          "X": 0.5,
          "Y": 1.0
         },
         "handle_right": {
          "X": 0.5,
          "Y": 0.0
         },
         "handle_type": 0,
         "interpolation": 0
        }
       ]
      },
      "contrast": {
       "Points": [
        {
         "co": {
          "X": 1.0,
          "Y": 3.0
         },
         "handle_left": {
          "X": 0.5,
          "Y": 1.0
         },
         "handle_right": {
          "X": 0.5,
          "Y": 0.0
         },
         "handle_type": 0,
         "interpolation": 0
        },
        {
         "co": {
          "X": 29.0,
          "Y": 3.0
         },
         "handle_left": {
          "X": 0.5,
          "Y": 1.0
         },
         "handle_right": {
          "X": 0.5,
          "Y": 0.0
         },
         "handle_type": 0,
         "interpolation": 0
        }
       ]
      },
      "reader": {
       "acodec": "",
       "audio_bit_rate": 0,
       "audio_stream_index": -1,
       "audio_timebase": {
        "den": 1,
        "num": 1
       },
       "channel_layout": 4,
       "channels": 0,
       "display_ratio": {
        "den": 4,
        "num": 5
       },
       "duration": 3600.0,
       "file_size": "5832000",
       "fps": {
        "den": 1,
        "num": 30
       },
       "has_audio": false,
       "has_single_image": true,
       "has_video": true,
       "height": 576,
       "interlaced_frame": false,
       "metadata": {},
       "path": "@transitions/common/fade.svg",
       "pixel_format": -1,
       "pixel_ratio": {
        "den": 1,
        "num": 1
       },
       "sample_rate": 0,
       "top_field_first": true,
       "type": "QtImageReader",
       "vcodec": "",
       "video_bit_rate": 0,
       "video_length": "108000",
       "video_stream_index": -1,
       "video_timebase": {
        "den": 30,
        "num": 1
       },
       "width": 720
      },
      "replace_image": false,
      "id": "CEA8AKF4RE"
     },
     {
      "layer": 3000000,
      "title": "Transition",
      "type": "Mask",
      "position": 163.2,
      "start": 0,
      "end": 0.9583333333333212,
      "brightness": {
       "Points": [
        {
         "co": {
          "X": 1.0,
          "Y": -1.0
         },
         "handle_left": {
          "X": 0.5,
          "Y": 1.0
         },
         "handle_right": {
          "X": 0.5,
          "Y": 0.0
         },
         "handle_type": 0,
         "interpolation": 0
        },
        {
         "co": {
          "X": 29.0,
          "Y": 1.0
         },
         "handle_left": {
          "X": 0.5,
          "Y": 1.0
         },
         "handle_right": {
          "X": 0.5,
          "Y": 0.0
         },
         "handle_type": 0,
         "interpolation": 0
        }
       ]
      },
      "contrast": {
       "Points": [
        {
         "co": {
          "X": 1.0,
          "Y": 3.0
         },
         "handle_left": {
          "X": 0.5,
          "Y": 1.0
         },
         "handle_right": {
          "X": 0.5,
          "Y": 0.0
         },
         "handle_type": 0,
         "interpolation": 0
        },
        {
         "co": {
          "X": 29.0,
          "Y": 3.0
         },
         "handle_left": {
          "X": 0.5,
          "Y": 1.0
         },
         "handle_right": {
          "X": 0.5,
          "Y": 0.0
         },
         "handle_type": 0,
         "interpolation": 0
        }
       ]
      },
      "reader": {
       "acodec": "",
       "audio_bit_rate": 0,
       "audio_stream_index": -1,
       "audio_timebase": {
        "den": 1,
        "num": 1
       },
       "channel_layout": 4,
       "channels": 0,
       "display_ratio": {
        "den": 4,
        "num": 5
       },
       "duration": 3600.0,
       "file_size": "5832000",
       "fps": {
        "den": 1,
        "num": 30
       },
       "has_audio": false,
       "has_single_image": true,
       "has_video": true,
       "height": 576,
       "interlaced_frame": false,
       "metadata": {},
       "path": "@transitions/common/fade.svg",
       "pixel_format": -1,
       "pixel_ratio": {
        "den": 1,
        "num": 1
       },
       "sample_rate": 0,
       "top_field_first": true,
       "type": "QtImageReader",
       "vcodec": "",
       "video_bit_rate": 0,
       "video_length": "108000",
       "video_stream_index": -1,
       "video_timebase": {
        "den": 30,
        "num": 1
       },
       "width": 720
      },
      "replace_image": false,
      "id": "6X5CANRLU0"
     },
     {
      "layer": 3000000,
      "title": "Transition",
      "type": "Mask",
      "position": 164.3,
      "start": 0,
      "end": 0.9583333333333212,
      "brightness": {
       "Points": [
        {
         "co": {
          "X": 1.0,
          "Y": 1.0
         },
         "handle_left": {
          "X": 0.5,
          "Y": 1.0
         },
         "handle_right": {
          "X": 0.5,
          "Y": 0.0
         },
         "handle_type": 0,
         "interpolation": 0
        },
        {
         "co": {
          "X": 29.0,
          "Y": -1.0
         },
         "handle_left": {
          "X": 0.5,
          "Y": 1.0
         },
         "handle_right": {
          "X": 0.5,
          "Y": 0.0
         },
         "handle_type": 0,
         "interpolation": 0
        }
       ]
      },
      "contrast": {
       "Points": [
        {
         "co": {
          "X": 1.0,
          "Y": 3.0
         },
         "handle_left": {
          "X": 0.5,
          "Y": 1.0
         },
         "handle_right": {
          "X": 0.5,
          "Y": 0.0
         },
         "handle_type": 0,
         "interpolation": 0
        },
        {
         "co": {
          "X": 29.0,
          "Y": 3.0
         },
         "handle_left": {
          "X": 0.5,
          "Y": 1.0
         },
         "handle_right": {
          "X": 0.5,
          "Y": 0.0
         },
         "handle_type": 0,
         "interpolation": 0
        }
       ]
      },
      "reader": {
       "acodec": "",
       "audio_bit_rate": 0,
       "audio_stream_index": -1,
       "audio_timebase": {
        "den": 1,
        "num": 1
       },
       "channel_layout": 4,
       "channels": 0,
       "display_ratio": {
        "den": 4,
        "num": 5
       },
       "duration": 3600.0,
       "file_size": "5832000",
       "fps": {
        "den": 1,
        "num": 30
       },
       "has_audio": false,
       "has_single_image": true,
       "has_video": true,
       "height": 576,
       "interlaced_frame": false,
       "metadata": {},
       "path": "@transitions/common/fade.svg",
       "pixel_format": -1,
       "pixel_ratio": {
        "den": 1,
        "num": 1
       },
       "sample_rate": 0,
       "top_field_first": true,
       "type": "QtImageReader",
       "vcodec": "",
       "video_bit_rate": 0,
       "video_length": "108000",
       "video_stream_index": -1,
       "video_timebase": {
        "den": 30,
        "num": 1
       },
       "width": 720
      },
      "replace_image": false,
      "id": "RQ98DT2VUD"
     },
     {
      "layer": 3000000,
      "title": "Transition",
      "type": "Mask",
      "position": 169.9,
      "start": 0,
      "end": 0.9583333333333212,
      "brightness": {
       "Points": [
        {
         "co": {
          "X": 1.0,
          "Y": -1.0
         },
         "handle_left": {
          "X": 0.5,
          "Y": 1.0
         },
         "handle_right": {
          "X": 0.5,
          "Y": 0.0
         },
         "handle_type": 0,
         "interpolation": 0
        },
        {
         "co": {
          "X": 29.0,
          "Y": 1.0
         },
         "handle_left": {
          "X": 0.5,
          "Y": 1.0
         },
         "handle_right": {
          "X": 0.5,
          "Y": 0.0
         },
         "handle_type": 0,
         "interpolation": 0
        }
       ]
      },
      "contrast": {
       "Points": [
        {
         "co": {
          "X": 1.0,
          "Y": 3.0
         },
         "handle_left": {
          "X": 0.5,
          "Y": 1.0
         },
         "handle_right": {
          "X": 0.5,
          "Y": 0.0
         },
         "handle_type": 0,
         "interpolation": 0
        },
        {
         "co": {
          "X": 29.0,
          "Y": 3.0
         },
         "handle_left": {
          "X": 0.5,
          "Y": 1.0
         },
         "handle_right": {
          "X": 0.5,
          "Y": 0.0
         },
         "handle_type": 0,
         "interpolation": 0
        }
       ]
      },
      "reader": {
       "acodec": "",
       "audio_bit_rate": 0,
       "audio_stream_index": -1,
       "audio_timebase": {
        "den": 1,
        "num": 1
       },
       "channel_layout": 4,
       "channels": 0,
       "display_ratio": {
        "den": 4,
        "num": 5
       },
       "duration": 3600.0,
       "file_size": "5832000",
       "fps": {
        "den": 1,
        "num": 30
       },
       "has_audio": false,
       "has_single_image": true,
       "has_video": true,
       "height": 576,
       "interlaced_frame": false,
       "metadata": {},
       "path": "@transitions/common/fade.svg",
       "pixel_format": -1,
       "pixel_ratio": {
        "den": 1,
        "num": 1
       },
       "sample_rate": 0,
       "top_field_first": true,
       "type": "QtImageReader",
       "vcodec": "",
       "video_bit_rate": 0,
       "video_length": "108000",
       "video_stream_index": -1,
       "video_timebase": {
        "den": 30,
        "num": 1
       },
       "width": 720
      },
      "replace_image": false,
      "id": "ED9VUNOGIJ"
     },
     {
      "layer": 3000000,
      "title": "Transition",
      "type": "Mask",
      "position": 171.36666666666667,
      "start": 0,
      "end": 0.9583333333333212,
      "brightness": {
       "Points": [
        {
         "co": {
          "X": 1.0,
          "Y": 1.0
         },
         "handle_left": {
          "X": 0.5,
          "Y": 1.0
         },
         "handle_right": {
          "X": 0.5,
          "Y": 0.0
         },
         "handle_type": 0,
         "interpolation": 0
        },
        {
         "co": {
          "X": 29.0,
          "Y": -1.0
         },
         "handle_left": {
          "X": 0.5,
          "Y": 1.0
         },
         "handle_right": {
          "X": 0.5,
          "Y": 0.0
         },
         "handle_type": 0,
         "interpolation": 0
        }
       ]
      },
      "contrast": {
       "Points": [
        {
         "co": {
          "X": 1.0,
          "Y": 3.0
         },
         "handle_left": {
          "X": 0.5,
          "Y": 1.0
         },
         "handle_right": {
          "X": 0.5,
          "Y": 0.0
         },
         "handle_type": 0,
         "interpolation": 0
        },
        {
         "co": {
          "X": 29.0,
          "Y": 3.0
         },
         "handle_left": {
          "X": 0.5,
          "Y": 1.0
         },
         "handle_right": {
          "X": 0.5,
          "Y": 0.0
         },
         "handle_type": 0,
         "interpolation": 0
        }
       ]
      },
      "reader": {
       "acodec": "",
       "audio_bit_rate": 0,
       "audio_stream_index": -1,
       "audio_timebase": {
        "den": 1,
        "num": 1
       },
       "channel_layout": 4,
       "channels": 0,
       "display_ratio": {
        "den": 4,
        "num": 5
       },
       "duration": 3600.0,
       "file_size": "5832000",
       "fps": {
        "den": 1,
        "num": 30
       },
       "has_audio": false,
       "has_single_image": true,
       "has_video": true,
       "height": 576,
       "interlaced_frame": false,
       "metadata": {},
       "path": "@transitions/common/fade.svg",
       "pixel_format": -1,
       "pixel_ratio": {
        "den": 1,
        "num": 1
       },
       "sample_rate": 0,
       "top_field_first": true,
       "type": "QtImageReader",
       "vcodec": "",
       "video_bit_rate": 0,
       "video_length": "108000",
       "video_stream_index": -1,
       "video_timebase": {
        "den": 30,
        "num": 1
       },
       "width": 720
      },
      "replace_image": false,
      "id": "5VBZGSOJG5"
     },
     {
      "layer": 3000000,
      "title": "Transition",
      "type": "Mask",
      "position": 176.86666666666667,
      "start": 0,
      "end": 0.9583333333333212,
      "brightness": {
       "Points": [
        {
         "co": {
          "X": 1.0,
          "Y": -1.0
         },
         "handle_left": {
          "X": 0.5,
          "Y": 1.0
         },
         "handle_right": {
          "X": 0.5,
          "Y": 0.0
         },
         "handle_type": 0,
         "interpolation": 0
        },
        {
         "co": {
          "X": 29.0,
          "Y": 1.0
         },
         "handle_left": {
          "X": 0.5,
          "Y": 1.0
         },
         "handle_right": {
          "X": 0.5,
          "Y": 0.0
         },
         "handle_type": 0,
         "interpolation": 0
        }
       ]
      },
      "contrast": {
       "Points": [
        {
         "co": {
          "X": 1.0,
          "Y": 3.0
         },
         "handle_left": {
          "X": 0.5,
          "Y": 1.0
         },
         "handle_right": {
          "X": 0.5,
          "Y": 0.0
         },
         "handle_type": 0,
         "interpolation": 0
        },
        {
         "co": {
          "X": 29.0,
          "Y": 3.0
         },
         "handle_left": {
          "X": 0.5,
          "Y": 1.0
         },
         "handle_right": {
          "X": 0.5,
          "Y": 0.0
         },
         "handle_type": 0,
         "interpolation": 0
        }
       ]
      },
      "reader": {
       "acodec": "",
       "audio_bit_rate": 0,
       "audio_stream_index": -1,
       "audio_timebase": {
        "den": 1,
        "num": 1
       },
       "channel_layout": 4,
       "channels": 0,
       "display_ratio": {
        "den": 4,
        "num": 5
       },
       "duration": 3600.0,
       "file_size": "5832000",
       "fps": {
        "den": 1,
        "num": 30
       },
       "has_audio": false,
       "has_single_image": true,
       "has_video": true,
       "height": 576,
       "interlaced_frame": false,
       "metadata": {},
       "path": "@transitions/common/fade.svg",
       "pixel_format": -1,
       "pixel_ratio": {
        "den": 1,
        "num": 1
       },
       "sample_rate": 0,
       "top_field_first": true,
       "type": "QtImageReader",
       "vcodec": "",
       "video_bit_rate": 0,
       "video_length": "108000",
       "video_stream_index": -1,
       "video_timebase": {
        "den": 30,
        "num": 1
       },
       "width": 720
      },
      "replace_image": false,
      "id": "8IG7CIW33F"
     },
     {
      "layer": 3000000,
      "title": "Transition",
      "type": "Mask",
      "position": 178.76666666666668,
      "start": 0,
      "end": 0.9583333333333212,
      "brightness": {
       "Points": [
        {
         "co": {
          "X": 1.0,
          "Y": 1.0
         },
         "handle_left": {
          "X": 0.5,
          "Y": 1.0
         },
         "handle_right": {
          "X": 0.5,
          "Y": 0.0
         },
         "handle_type": 0,
         "interpolation": 0
        },
        {
         "co": {
          "X": 29.0,
          "Y": -1.0
         },
         "handle_left": {
          "X": 0.5,
          "Y": 1.0
         },
         "handle_right": {
          "X": 0.5,
          "Y": 0.0
         },
         "handle_type": 0,
         "interpolation": 0
        }
       ]
      },
      "contrast": {
       "Points": [
        {
         "co": {
          "X": 1.0,
          "Y": 3.0
         },
         "handle_left": {
          "X": 0.5,
          "Y": 1.0
         },
         "handle_right": {
          "X": 0.5,
          "Y": 0.0
         },
         "handle_type": 0,
         "interpolation": 0
        },
        {
         "co": {
          "X": 29.0,
          "Y": 3.0
         },
         "handle_left": {
          "X": 0.5,
          "Y": 1.0
         },
         "handle_right": {
          "X": 0.5,
          "Y": 0.0
         },
         "handle_type": 0,
         "interpolation": 0
        }
       ]
      },
      "reader": {
       "acodec": "",
       "audio_bit_rate": 0,
       "audio_stream_index": -1,
       "audio_timebase": {
        "den": 1,
        "num": 1
       },
       "channel_layout": 4,
       "channels": 0,
       "display_ratio": {
        "den": 4,
        "num": 5
       },
       "duration": 3600.0,
       "file_size": "5832000",
       "fps": {
        "den": 1,
        "num": 30
       },
       "has_audio": false,
       "has_single_image": true,
       "has_video": true,
       "height": 576,
       "interlaced_frame": false,
       "metadata": {},
       "path": "@transitions/common/fade.svg",
       "pixel_format": -1,
       "pixel_ratio": {
        "den": 1,
        "num": 1
       },
       "sample_rate": 0,
       "top_field_first": true,
       "type": "QtImageReader",
       "vcodec": "",
       "video_bit_rate": 0,
       "video_length": "108000",
       "video_stream_index": -1,
       "video_timebase": {
        "den": 30,
        "num": 1
       },
       "width": 720
      },
      "replace_image": false,
      "id": "0ROA4SH20T"
     },
     {
      "layer": 3000000,
      "title": "Transition",
      "type": "Mask",
      "position": 184.9,
      "start": 0,
      "end": 0.9583333333333212,
      "brightness": {
       "Points": [
        {
         "co": {
          "X": 1.0,
          "Y": -1.0
         },
         "handle_left": {
          "X": 0.5,
          "Y": 1.0
         },
         "handle_right": {
          "X": 0.5,
          "Y": 0.0
         },
         "handle_type": 0,
         "interpolation": 0
        },
        {
         "co": {
          "X": 29.0,
          "Y": 1.0
         },
         "handle_left": {
          "X": 0.5,
          "Y": 1.0
         },
         "handle_right": {
          "X": 0.5,
          "Y": 0.0
         },
         "handle_type": 0,
         "interpolation": 0
        }
       ]
      },
      "contrast": {
       "Points": [
        {
         "co": {
          "X": 1.0,
          "Y": 3.0
         },
         "handle_left": {
          "X": 0.5,
          "Y": 1.0
         },
         "handle_right": {
          "X": 0.5,
          "Y": 0.0
         },
         "handle_type": 0,
         "interpolation": 0
        },
        {
         "co": {
          "X": 29.0,
          "Y": 3.0
         },
         "handle_left": {
          "X": 0.5,
          "Y": 1.0
         },
         "handle_right": {
          "X": 0.5,
          "Y": 0.0
         },
         "handle_type": 0,
         "interpolation": 0
        }
       ]
      },
      "reader": {
       "acodec": "",
       "audio_bit_rate": 0,
       "audio_stream_index": -1,
       "audio_timebase": {
        "den": 1,
        "num": 1
       },
       "channel_layout": 4,
       "channels": 0,
       "display_ratio": {
        "den": 4,
        "num": 5
       },
       "duration": 3600.0,
       "file_size": "5832000",
       "fps": {
        "den": 1,
        "num": 30
       },
       "has_audio": false,
       "has_single_image": true,
       "has_video": true,
       "height": 576,
       "interlaced_frame": false,
       "metadata": {},
       "path": "@transitions/common/fade.svg",
       "pixel_format": -1,
       "pixel_ratio": {
        "den": 1,
        "num": 1
       },
       "sample_rate": 0,
       "top_field_first": true,
       "type": "QtImageReader",
       "vcodec": "",
       "video_bit_rate": 0,
       "video_length": "108000",
       "video_stream_index": -1,
       "video_timebase": {
        "den": 30,
        "num": 1
       },
       "width": 720
      },
      "replace_image": false,
      "id": "EZA86GZMTM"
     },
     {
      "id": "F4A4DQ7U5X",
      "layer": 1000000,
      "title": "Transition",
      "type": "Mask",
      "position": 185.86666666666667,
      "start": 0,
      "end": 0.9000000000000057,
      "brightness": {
       "Points": [
        {
         "co": {
          "X": 1.0,
          "Y": 1.0
         },
         "handle_left": {
          "X": 0.5,
          "Y": 1.0
         },
         "handle_right": {
          "X": 0.5,
          "Y": 0.0
         },
         "handle_type": 0,
         "interpolation": 0
        },
        {
         "co": {
          "X": 28.0,
          "Y": -1.0
         },
         "handle_left": {
          "X": 0.5,
          "Y": 1.0
         },
         "handle_right": {
          "X": 0.5,
          "Y": 0.0
         },
         "handle_type": 0,
         "interpolation": 0
        }
       ]
      },
      "contrast": {
       "Points": [
        {
         "co": {
          "X": 1.0,
          "Y": 3.0
         },
         "handle_left": {
          "X": 0.5,
          "Y": 1.0
         },
         "handle_right": {
          "X": 0.5,
          "Y": 0.0
         },
         "handle_type": 0,
         "interpolation": 0
        }
       ]
      },
      "reader": {
       "acodec": "",
       "audio_bit_rate": 0,
       "audio_stream_index": -1,
       "audio_timebase": {
        "den": 1,
        "num": 1
       },
       "channel_layout": 4,
       "channels": 0,
       "display_ratio": {
        "den": 4,
        "num": 5
       },
       "duration": 3600.0,
       "file_size": "5832000",
       "fps": {
        "den": 1,
        "num": 30
       },
       "has_audio": false,
       "has_single_image": true,
       "has_video": true,
       "height": 576,
       "interlaced_frame": false,
       "metadata": {},
       "path": "@transitions/common/fade.svg",
       "pixel_format": -1,
       "pixel_ratio": {
        "den": 1,
        "num": 1
       },
       "sample_rate": 0,
       "top_field_first": true,
       "type": "QtImageReader",
       "vcodec": "",
       "video_bit_rate": 0,
       "video_length": "108000",
       "video_stream_index": -1,
       "video_timebase": {
        "den": 30,
        "num": 1
       },
       "width": 720
      },
      "replace_image": false
     },
     {
      "layer": 4000000,
      "title": "Transition",
      "type": "Mask",
      "position": 184.9,
      "start": 0,
      "end": 0.9583333333333212,
      "brightness": {
       "Points": [
        {
         "co": {
          "X": 1.0,
          "Y": -1.0
         },
         "handle_left": {
          "X": 0.5,
          "Y": 1.0
         },
         "handle_right": {
          "X": 0.5,
          "Y": 0.0
         },
         "handle_type": 0,
         "interpolation": 0
        },
        {
         "co": {
          "X": 29.0,
          "Y": 1.0
         },
         "handle_left": {
          "X": 0.5,
          "Y": 1.0
         },
         "handle_right": {
          "X": 0.5,
          "Y": 0.0
         },
         "handle_type": 0,
         "interpolation": 0
        }
       ]
      },
      "contrast": {
       "Points": [
        {
         "co": {
          "X": 1.0,
          "Y": 3.0
         },
         "handle_left": {
          "X": 0.5,
          "Y": 1.0
         },
         "handle_right": {
          "X": 0.5,
          "Y": 0.0
         },
         "handle_type": 0,
         "interpolation": 0
        },
        {
         "co": {
          "X": 29.0,
          "Y": 3.0
         },
         "handle_left": {
          "X": 0.5,
          "Y": 1.0
         },
         "handle_right": {
          "X": 0.5,
          "Y": 0.0
         },
         "handle_type": 0,
         "interpolation": 0
        }
       ]
      },
      "reader": {
       "acodec": "",
       "audio_bit_rate": 0,
       "audio_stream_index": -1,
       "audio_timebase": {
        "den": 1,
        "num": 1
       },
       "channel_layout": 4,
       "channels": 0,
       "display_ratio": {
        "den": 4,
        "num": 5
       },
       "duration": 3600.0,
       "file_size": "5832000",
       "fps": {
        "den": 1,
        "num": 30
       },
       "has_audio": false,
       "has_single_image": true,
       "has_video": true,
       "height": 576,
       "interlaced_frame": false,
       "metadata": {},
       "path": "@transitions/common/fade.svg",
       "pixel_format": -1,
       "pixel_ratio": {
        "den": 1,
        "num": 1
       },
       "sample_rate": 0,
       "top_field_first": true,
       "type": "QtImageReader",
       "vcodec": "",
       "video_bit_rate": 0,
       "video_length": "108000",
       "video_stream_index": -1,
       "video_timebase": {
        "den": 30,
        "num": 1
       },
       "width": 720
      },
      "replace_image": false,
      "id": "2ZYRXRS5AW"
     },
     {
      "layer": 4000000,
      "title": "Transition",
      "type": "Mask",
      "position": 186.63333333333333,
      "start": 0,
      "end": 0.9583333333333212,
      "brightness": {
       "Points": [
        {
         "co": {
          "X": 1.0,
          "Y": 1.0
         },
         "handle_left": {
          "X": 0.5,
          "Y": 1.0
         },
         "handle_right": {
          "X": 0.5,
          "Y": 0.0
         },
         "handle_type": 0,
         "interpolation": 0
        },
        {
         "co": {
          "X": 29.0,
          "Y": -1.0
         },
         "handle_left": {
          "X": 0.5,
          "Y": 1.0
         },
         "handle_right": {
          "X": 0.5,
          "Y": 0.0
         },
         "handle_type": 0,
         "interpolation": 0
        }
       ]
      },
      "contrast": {
       "Points": [
        {
         "co": {
          "X": 1.0,
          "Y": 3.0
         },
         "handle_left": {
          "X": 0.5,
          "Y": 1.0
         },
         "handle_right": {
          "X": 0.5,
          "Y": 0.0
         },
         "handle_type": 0,
         "interpolation": 0
        },
        {
         "co": {
          "X": 29.0,
          "Y": 3.0
         },
         "handle_left": {
          "X": 0.5,
          "Y": 1.0
         },
         "handle_right": {
          "X": 0.5,
          "Y": 0.0
         },
         "handle_type": 0,
         "interpolation": 0
        }
       ]
      },
      "reader": {
       "acodec": "",
       "audio_bit_rate": 0,
       "audio_stream_index": -1,
       "audio_timebase": {
        "den": 1,
        "num": 1
       },
       "channel_layout": 4,
       "channels": 0,
       "display_ratio": {
        "den": 4,
        "num": 5
       },
       "duration": 3600.0,
       "file_size": "5832000",
       "fps": {
        "den": 1,
        "num": 30
       },
       "has_audio": false,
       "has_single_image": true,
       "has_video": true,
       "height": 576,
       "interlaced_frame": false,
       "metadata": {},
       "path": "@transitions/common/fade.svg",
       "pixel_format": -1,
       "pixel_ratio": {
        "den": 1,
        "num": 1
       },
       "sample_rate": 0,
       "top_field_first": true,
       "type": "QtImageReader",
       "vcodec": "",
       "video_bit_rate": 0,
       "video_length": "108000",
       "video_stream_index": -1,
       "video_timebase": {
        "den": 30,
        "num": 1
       },
       "width": 720
      },
      "replace_image": false,
      "id": "Q9UGMHENC6"
     },
     {
      "layer": 3000000,
      "title": "Transition",
      "type": "Mask",
      "position": 191.86666666666667,
      "start": 0,
      "end": 0.9583333333333212,
      "brightness": {
       "Points": [
        {
         "co": {
          "X": 1.0,
          "Y": 1.0
         },
         "handle_left": {
          "X": 0.5,
          "Y": 1.0
         },
         "handle_right": {
          "X": 0.5,
          "Y": 0.0
         },
         "handle_type": 0,
         "interpolation": 0
        },
        {
         "co": {
          "X": 29.0,
          "Y": -1.0
         },
         "handle_left": {
          "X": 0.5,
          "Y": 1.0
         },
         "handle_right": {
          "X": 0.5,
          "Y": 0.0
         },
         "handle_type": 0,
         "interpolation": 0
        }
       ]
      },
      "contrast": {
       "Points": [
        {
         "co": {
          "X": 1.0,
          "Y": 3.0
         },
         "handle_left": {
          "X": 0.5,
          "Y": 1.0
         },
         "handle_right": {
          "X": 0.5,
          "Y": 0.0
         },
         "handle_type": 0,
         "interpolation": 0
        },
        {
         "co": {
          "X": 29.0,
          "Y": 3.0
         },
         "handle_left": {
          "X": 0.5,
          "Y": 1.0
         },
         "handle_right": {
          "X": 0.5,
          "Y": 0.0
         },
         "handle_type": 0,
         "interpolation": 0
        }
       ]
      },
      "reader": {
       "acodec": "",
       "audio_bit_rate": 0,
       "audio_stream_index": -1,
       "audio_timebase": {
        "den": 1,
        "num": 1
       },
       "channel_layout": 4,
       "channels": 0,
       "display_ratio": {
        "den": 4,
        "num": 5
       },
       "duration": 3600.0,
       "file_size": "5832000",
       "fps": {
        "den": 1,
        "num": 30
       },
       "has_audio": false,
       "has_single_image": true,
       "has_video": true,
       "height": 576,
       "interlaced_frame": false,
       "metadata": {},
       "path": "@transitions/common/fade.svg",
       "pixel_format": -1,
       "pixel_ratio": {
        "den": 1,
        "num": 1
       },
       "sample_rate": 0,
       "top_field_first": true,
       "type": "QtImageReader",
       "vcodec": "",
       "video_bit_rate": 0,
       "video_length": "108000",
       "video_stream_index": -1,
       "video_timebase": {
        "den": 30,
        "num": 1
       },
       "width": 720
      },
      "replace_image": false,
      "id": "G9LEMCYT5Q"
     },
     {
      "layer": 3000000,
      "title": "Transition",
      "type": "Mask",
      "position": 206.76666666666668,
      "start": 0,
      "end": 0.9583333333333212,
      "brightness": {
       "Points": [
        {
         "co": {
          "X": 1.0,
          "Y": -1.0
         },
         "handle_left": {
          "X": 0.5,
          "Y": 1.0
         },
         "handle_right": {
          "X": 0.5,
          "Y": 0.0
         },
         "handle_type": 0,
         "interpolation": 0
        },
        {
         "co": {
          "X": 29.0,
          "Y": 1.0
         },
         "handle_left": {
          "X": 0.5,
          "Y": 1.0
         },
         "handle_right": {
          "X": 0.5,
          "Y": 0.0
         },
         "handle_type": 0,
         "interpolation": 0
        }
       ]
      },
      "contrast": {
       "Points": [
        {
         "co": {
          "X": 1.0,
          "Y": 3.0
         },
         "handle_left": {
          "X": 0.5,
          "Y": 1.0
         },
         "handle_right": {
          "X": 0.5,
          "Y": 0.0
         },
         "handle_type": 0,
         "interpolation": 0
        },
        {
         "co": {
          "X": 29.0,
          "Y": 3.0
         },
         "handle_left": {
          "X": 0.5,
          "Y": 1.0
         },
         "handle_right": {
          "X": 0.5,
          "Y": 0.0
         },
         "handle_type": 0,
         "interpolation": 0
        }
       ]
      },
      "reader": {
       "acodec": "",
       "audio_bit_rate": 0,
       "audio_stream_index": -1,
       "audio_timebase": {
        "den": 1,
        "num": 1
       },
       "channel_layout": 4,
       "channels": 0,
       "display_ratio": {
        "den": 4,
        "num": 5
       },
       "duration": 3600.0,
       "file_size": "5832000",
       "fps": {
        "den": 1,
        "num": 30
       },
       "has_audio": false,
       "has_single_image": true,
       "has_video": true,
       "height": 576,
       "interlaced_frame": false,
       "metadata": {},
       "path": "@transitions/common/fade.svg",
       "pixel_format": -1,
       "pixel_ratio": {
        "den": 1,
        "num": 1
       },
       "sample_rate": 0,
       "top_field_first": true,
       "type": "QtImageReader",
       "vcodec": "",
       "video_bit_rate": 0,
       "video_length": "108000",
       "video_stream_index": -1,
       "video_timebase": {
        "den": 30,
        "num": 1
       },
       "width": 720
      },
      "replace_image": false,
      "id": "69Y42ETE8B"
     },
     {
      "layer": 3000000,
      "title": "Transition",
      "type": "Mask",
      "position": 199.83333333333334,
      "start": 0,
      "end": 0.9583333333333212,
      "brightness": {
       "Points": [
        {
         "co": {
          "X": 1.0,
          "Y": 1.0
         },
         "handle_left": {
          "X": 0.5,
          "Y": 1.0
         },
         "handle_right": {
          "X": 0.5,
          "Y": 0.0
         },
         "handle_type": 0,
         "interpolation": 0
        },
        {
         "co": {
          "X": 29.0,
          "Y": -1.0
         },
         "handle_left": {
          "X": 0.5,
          "Y": 1.0
         },
         "handle_right": {
          "X": 0.5,
          "Y": 0.0
         },
         "handle_type": 0,
         "interpolation": 0
        }
       ]
      },
      "contrast": {
       "Points": [
        {
         "co": {
          "X": 1.0,
          "Y": 3.0
         },
         "handle_left": {
          "X": 0.5,
          "Y": 1.0
         },
         "handle_right": {
          "X": 0.5,
          "Y": 0.0
         },
         "handle_type": 0,
         "interpolation": 0
        },
        {
         "co": {
          "X": 29.0,
          "Y": 3.0
         },
         "handle_left": {
          "X": 0.5,
          "Y": 1.0
         },
         "handle_right": {
          "X": 0.5,
          "Y": 0.0
         },
         "handle_type": 0,
         "interpolation": 0
        }
       ]
      },
      "reader": {
       "acodec": "",
       "audio_bit_rate": 0,
       "audio_stream_index": -1,
       "audio_timebase": {
        "den": 1,
        "num": 1
       },
       "channel_layout": 4,
       "channels": 0,
       "display_ratio": {
        "den": 4,
        "num": 5
       },
       "duration": 3600.0,
       "file_size": "5832000",
       "fps": {
        "den": 1,
        "num": 30
       },
       "has_audio": false,
       "has_single_image": true,
       "has_video": true,
       "height": 576,
       "interlaced_frame": false,
       "metadata": {},
       "path": "@transitions/common/fade.svg",
       "pixel_format": -1,
       "pixel_ratio": {
        "den": 1,
        "num": 1
       },
       "sample_rate": 0,
       "top_field_first": true,
       "type": "QtImageReader",
       "vcodec": "",
       "video_bit_rate": 0,
       "video_length": "108000",
       "video_stream_index": -1,
       "video_timebase": {
        "den": 30,
        "num": 1
       },
       "width": 720
      },
      "replace_image": false,
      "id": "LZDCN1H4RV"
     },
     {
      "layer": 3000000,
      "title": "Transition",
      "type": "Mask",
      "position": 209.83333333333334,
      "start": 0,
      "end": 0.9583333333333212,
      "brightness": {
       "Points": [
        {
         "co": {
          "X": 1.0,
          "Y": 1.0
         },
         "handle_left": {
          "X": 0.5,
          "Y": 1.0
         },
         "handle_right": {
          "X": 0.5,
          "Y": 0.0
         },
         "handle_type": 0,
         "interpolation": 0
        },
        {
         "co": {
          "X": 29.0,
          "Y": -1.0
         },
         "handle_left": {
          "X": 0.5,
          "Y": 1.0
         },
         "handle_right": {
          "X": 0.5,
          "Y": 0.0
         },
         "handle_type": 0,
         "interpolation": 0
        }
       ]
      },
      "contrast": {
       "Points": [
        {
         "co": {
          "X": 1.0,
          "Y": 3.0
         },
         "handle_left": {
          "X": 0.5,
          "Y": 1.0
         },
         "handle_right": {
          "X": 0.5,
          "Y": 0.0
         },
         "handle_type": 0,
         "interpolation": 0
        },
        {
         "co": {
          "X": 29.0,
          "Y": 3.0
         },
         "handle_left": {
          "X": 0.5,
          "Y": 1.0
         },
         "handle_right": {
          "X": 0.5,
          "Y": 0.0
         },
         "handle_type": 0,
         "interpolation": 0
        }
       ]
      },
      "reader": {
       "acodec": "",
       "audio_bit_rate": 0,
       "audio_stream_index": -1,
       "audio_timebase": {
        "den": 1,
        "num": 1
       },
       "channel_layout": 4,
       "channels": 0,
       "display_ratio": {
        "den": 4,
        "num": 5
       },
       "duration": 3600.0,
       "file_size": "5832000",
       "fps": {
        "den": 1,
        "num": 30
       },
       "has_audio": false,
       "has_single_image": true,
       "has_video": true,
       "height": 576,
       "interlaced_frame": false,
       "metadata": {},
       "path": "@transitions/common/fade.svg",
       "pixel_format": -1,
       "pixel_ratio": {
        "den": 1,
        "num": 1
       },
       "sample_rate": 0,
       "top_field_first": true,
       "type": "QtImageReader",
       "vcodec": "",
       "video_bit_rate": 0,
       "video_length": "108000",
       "video_stream_index": -1,
       "video_timebase": {
        "den": 30,
        "num": 1
       },
       "width": 720
      },
      "replace_image": false,
      "id": "58VK2RHQN2"
     },
     {
      "layer": 4000000,
      "title": "Transition",
      "type": "Mask",
      "position": 213.86666666666667,
      "start": 0,
      "end": 0.9583333333333212,
      "brightness": {
       "Points": [
        {
         "co": {
          "X": 1.0,
          "Y": -1.0
         },
         "handle_left": {
          "X": 0.5,
          "Y": 1.0
         },
         "handle_right": {
          "X": 0.5,
          "Y": 0.0
         },
         "handle_type": 0,
         "interpolation": 0
        },
        {
         "co": {
          "X": 29.0,
          "Y": 1.0
         },
         "handle_left": {
          "X": 0.5,
          "Y": 1.0
         },
         "handle_right": {
          "X": 0.5,
          "Y": 0.0
         },
         "handle_type": 0,
         "interpolation": 0
        }
       ]
      },
      "contrast": {
       "Points": [
        {
         "co": {
          "X": 1.0,
          "Y": 3.0
         },
         "handle_left": {
          "X": 0.5,
          "Y": 1.0
         },
         "handle_right": {
          "X": 0.5,
          "Y": 0.0
         },
         "handle_type": 0,
         "interpolation": 0
        },
        {
         "co": {
          "X": 29.0,
          "Y": 3.0
         },
         "handle_left": {
          "X": 0.5,
          "Y": 1.0
         },
         "handle_right": {
          "X": 0.5,
          "Y": 0.0
         },
         "handle_type": 0,
         "interpolation": 0
        }
       ]
      },
      "reader": {
       "acodec": "",
       "audio_bit_rate": 0,
       "audio_stream_index": -1,
       "audio_timebase": {
        "den": 1,
        "num": 1
       },
       "channel_layout": 4,
       "channels": 0,
       "display_ratio": {
        "den": 4,
        "num": 5
       },
       "duration": 3600.0,
       "file_size": "5832000",
       "fps": {
        "den": 1,
        "num": 30
       },
       "has_audio": false,
       "has_single_image": true,
       "has_video": true,
       "height": 576,
       "interlaced_frame": false,
       "metadata": {},
       "path": "@transitions/common/fade.svg",
       "pixel_format": -1,
       "pixel_ratio": {
        "den": 1,
        "num": 1
       },
       "sample_rate": 0,
       "top_field_first": true,
       "type": "QtImageReader",
       "vcodec": "",
       "video_bit_rate": 0,
       "video_length": "108000",
       "video_stream_index": -1,
       "video_timebase": {
        "den": 30,
        "num": 1
       },
       "width": 720
      },
      "replace_image": false,
      "id": "KWJRN4TR28"
     },
     {
      "layer": 3000000,
      "title": "Transition",
      "type": "Mask",
      "position": 213.86666666666667,
      "start": 0,
      "end": 0.9583333333333212,
      "brightness": {
       "Points": [
        {
         "co": {
          "X": 1.0,
          "Y": -1.0
         },
         "handle_left": {
          "X": 0.5,
          "Y": 1.0
         },
         "handle_right": {
          "X": 0.5,
          "Y": 0.0
         },
         "handle_type": 0,
         "interpolation": 0
        },
        {
         "co": {
          "X": 29.0,
          "Y": 1.0
         },
         "handle_left": {
          "X": 0.5,
          "Y": 1.0
         },
         "handle_right": {
          "X": 0.5,
          "Y": 0.0
         },
         "handle_type": 0,
         "interpolation": 0
        }
       ]
      },
      "contrast": {
       "Points": [
        {
         "co": {
          "X": 1.0,
          "Y": 3.0
         },
         "handle_left": {
          "X": 0.5,
          "Y": 1.0
         },
         "handle_right": {
          "X": 0.5,
          "Y": 0.0
         },
         "handle_type": 0,
         "interpolation": 0
        },
        {
         "co": {
          "X": 29.0,
          "Y": 3.0
         },
         "handle_left": {
          "X": 0.5,
          "Y": 1.0
         },
         "handle_right": {
          "X": 0.5,
          "Y": 0.0
         },
         "handle_type": 0,
         "interpolation": 0
        }
       ]
      },
      "reader": {
       "acodec": "",
       "audio_bit_rate": 0,
       "audio_stream_index": -1,
       "audio_timebase": {
        "den": 1,
        "num": 1
       },
       "channel_layout": 4,
       "channels": 0,
       "display_ratio": {
        "den": 4,
        "num": 5
       },
       "duration": 3600.0,
       "file_size": "5832000",
       "fps": {
        "den": 1,
        "num": 30
       },
       "has_audio": false,
       "has_single_image": true,
       "has_video": true,
       "height": 576,
       "interlaced_frame": false,
       "metadata": {},
       "path": "@transitions/common/fade.svg",
       "pixel_format": -1,
       "pixel_ratio": {
        "den": 1,
        "num": 1
       },
       "sample_rate": 0,
       "top_field_first": true,
       "type": "QtImageReader",
       "vcodec": "",
       "video_bit_rate": 0,
       "video_length": "108000",
       "video_stream_index": -1,
       "video_timebase": {
        "den": 30,
        "num": 1
       },
       "width": 720
      },
      "replace_image": false,
      "id": "29SVX90QJC"
     },
     {
      "layer": 3000000,
      "title": "Transition",
      "type": "Mask",
      "position": 216.8,
      "start": 0,
      "end": 0.9583333333333212,
      "brightness": {
       "Points": [
        {
         "co": {
          "X": 1.0,
          "Y": 1.0
         },
         "handle_left": {
          "X": 0.5,
          "Y": 1.0
         },
         "handle_right": {
          "X": 0.5,
          "Y": 0.0
         },
         "handle_type": 0,
         "interpolation": 0
        },
        {
         "co": {
          "X": 29.0,
          "Y": -1.0
         },
         "handle_left": {
          "X": 0.5,
          "Y": 1.0
         },
         "handle_right": {
          "X": 0.5,
          "Y": 0.0
         },
         "handle_type": 0,
         "interpolation": 0
        }
       ]
      },
      "contrast": {
       "Points": [
        {
         "co": {
          "X": 1.0,
          "Y": 3.0
         },
         "handle_left": {
          "X": 0.5,
          "Y": 1.0
         },
         "handle_right": {
          "X": 0.5,
          "Y": 0.0
         },
         "handle_type": 0,
         "interpolation": 0
        },
        {
         "co": {
          "X": 29.0,
          "Y": 3.0
         },
         "handle_left": {
          "X": 0.5,
          "Y": 1.0
         },
         "handle_right": {
          "X": 0.5,
          "Y": 0.0
         },
         "handle_type": 0,
         "interpolation": 0
        }
       ]
      },
      "reader": {
       "acodec": "",
       "audio_bit_rate": 0,
       "audio_stream_index": -1,
       "audio_timebase": {
        "den": 1,
        "num": 1
       },
       "channel_layout": 4,
       "channels": 0,
       "display_ratio": {
        "den": 4,
        "num": 5
       },
       "duration": 3600.0,
       "file_size": "5832000",
       "fps": {
        "den": 1,
        "num": 30
       },
       "has_audio": false,
       "has_single_image": true,
       "has_video": true,
       "height": 576,
       "interlaced_frame": false,
       "metadata": {},
       "path": "@transitions/common/fade.svg",
       "pixel_format": -1,
       "pixel_ratio": {
        "den": 1,
        "num": 1
       },
       "sample_rate": 0,
       "top_field_first": true,
       "type": "QtImageReader",
       "vcodec": "",
       "video_bit_rate": 0,
       "video_length": "108000",
       "video_stream_index": -1,
       "video_timebase": {
        "den": 30,
        "num": 1
       },
       "width": 720
      },
      "replace_image": false,
      "id": "QFKNEP6QJR"
     },
     {
      "layer": 3000000,
      "title": "Transition",
      "type": "Mask",
      "position": 223.9,
      "start": 0,
      "end": 0.9583333333333212,
      "brightness": {
       "Points": [
        {
         "co": {
          "X": 1.0,
          "Y": -1.0
         },
         "handle_left": {
          "X": 0.5,
          "Y": 1.0
         },
         "handle_right": {
          "X": 0.5,
          "Y": 0.0
         },
         "handle_type": 0,
         "interpolation": 0
        },
        {
         "co": {
          "X": 29.0,
          "Y": 1.0
         },
         "handle_left": {
          "X": 0.5,
          "Y": 1.0
         },
         "handle_right": {
          "X": 0.5,
          "Y": 0.0
         },
         "handle_type": 0,
         "interpolation": 0
        }
       ]
      },
      "contrast": {
       "Points": [
        {
         "co": {
          "X": 1.0,
          "Y": 3.0
         },
         "handle_left": {
          "X": 0.5,
          "Y": 1.0
         },
         "handle_right": {
          "X": 0.5,
          "Y": 0.0
         },
         "handle_type": 0,
         "interpolation": 0
        },
        {
         "co": {
          "X": 29.0,
          "Y": 3.0
         },
         "handle_left": {
          "X": 0.5,
          "Y": 1.0
         },
         "handle_right": {
          "X": 0.5,
          "Y": 0.0
         },
         "handle_type": 0,
         "interpolation": 0
        }
       ]
      },
      "reader": {
       "acodec": "",
       "audio_bit_rate": 0,
       "audio_stream_index": -1,
       "audio_timebase": {
        "den": 1,
        "num": 1
       },
       "channel_layout": 4,
       "channels": 0,
       "display_ratio": {
        "den": 4,
        "num": 5
       },
       "duration": 3600.0,
       "file_size": "5832000",
       "fps": {
        "den": 1,
        "num": 30
       },
       "has_audio": false,
       "has_single_image": true,
       "has_video": true,
       "height": 576,
       "interlaced_frame": false,
       "metadata": {},
       "path": "@transitions/common/fade.svg",
       "pixel_format": -1,
       "pixel_ratio": {
        "den": 1,
        "num": 1
       },
       "sample_rate": 0,
       "top_field_first": true,
       "type": "QtImageReader",
       "vcodec": "",
       "video_bit_rate": 0,
       "video_length": "108000",
       "video_stream_index": -1,
       "video_timebase": {
        "den": 30,
        "num": 1
       },
       "width": 720
      },
      "replace_image": false,
      "id": "KN6FJL1V3A"
     },
     {
      "id": "4AUCOQ0YNI",
      "layer": 1000000,
      "title": "Transition",
      "type": "Mask",
      "position": 214.36666666666667,
      "start": 0,
      "end": 0.9000000000000057,
      "brightness": {
       "Points": [
        {
         "co": {
          "X": 1.0,
          "Y": 1.0
         },
         "handle_left": {
          "X": 0.5,
          "Y": 1.0
         },
         "handle_right": {
          "X": 0.5,
          "Y": 0.0
         },
         "handle_type": 0,
         "interpolation": 0
        },
        {
         "co": {
          "X": 28.0,
          "Y": -1.0
         },
         "handle_left": {
          "X": 0.5,
          "Y": 1.0
         },
         "handle_right": {
          "X": 0.5,
          "Y": 0.0
         },
         "handle_type": 0,
         "interpolation": 0
        }
       ]
      },
      "contrast": {
       "Points": [
        {
         "co": {
          "X": 1.0,
          "Y": 3.0
         },
         "handle_left": {
          "X": 0.5,
          "Y": 1.0
         },
         "handle_right": {
          "X": 0.5,
          "Y": 0.0
         },
         "handle_type": 0,
         "interpolation": 0
        }
       ]
      },
      "reader": {
       "acodec": "",
       "audio_bit_rate": 0,
       "audio_stream_index": -1,
       "audio_timebase": {
        "den": 1,
        "num": 1
       },
       "channel_layout": 4,
       "channels": 0,
       "display_ratio": {
        "den": 4,
        "num": 5
       },
       "duration": 3600.0,
       "file_size": "5832000",
       "fps": {
        "den": 1,
        "num": 30
       },
       "has_audio": false,
       "has_single_image": true,
       "has_video": true,
       "height": 576,
       "interlaced_frame": false,
       "metadata": {},
       "path": "@transitions/common/fade.svg",
       "pixel_format": -1,
       "pixel_ratio": {
        "den": 1,
        "num": 1
       },
       "sample_rate": 0,
       "top_field_first": true,
       "type": "QtImageReader",
       "vcodec": "",
       "video_bit_rate": 0,
       "video_length": "108000",
       "video_stream_index": -1,
       "video_timebase": {
        "den": 30,
        "num": 1
       },
       "width": 720
      },
      "replace_image": false
     },
     {
      "id": "F0RIV30JL4",
      "layer": 1000000,
      "title": "Transition",
      "type": "Mask",
      "position": 225.93333333333334,
      "start": 0,
      "end": 1.8666666666666458,
      "brightness": {
       "Points": [
        {
         "co": {
          "X": 1.0,
          "Y": 1.0
         },
         "handle_left": {
          "X": 0.5,
          "Y": 1.0
         },
         "handle_right": {
          "X": 0.5,
          "Y": 0.0
         },
         "handle_type": 0,
         "interpolation": 0
        },
        {
         "co": {
          "X": 57.0,
          "Y": -1.0
         },
         "handle_left": {
          "X": 0.5,
          "Y": 1.0
         },
         "handle_right": {
          "X": 0.5,
          "Y": 0.0
         },
         "handle_type": 0,
         "interpolation": 0
        }
       ]
      },
      "contrast": {
       "Points": [
        {
         "co": {
          "X": 1.0,
          "Y": 3.0
         },
         "handle_left": {
          "X": 0.5,
          "Y": 1.0
         },
         "handle_right": {
          "X": 0.5,
          "Y": 0.0
         },
         "handle_type": 0,
         "interpolation": 0
        }
       ]
      },
      "reader": {
       "acodec": "",
       "audio_bit_rate": 0,
       "audio_stream_index": -1,
       "audio_timebase": {
        "den": 1,
        "num": 1
       },
       "channel_layout": 4,
       "channels": 0,
       "display_ratio": {
        "den": 4,
        "num": 5
       },
       "duration": 3600.0,
       "file_size": "5832000",
       "fps": {
        "den": 1,
        "num": 30
       },
       "has_audio": false,
       "has_single_image": true,
       "has_video": true,
       "height": 576,
       "interlaced_frame": false,
       "metadata": {},
       "path": "@transitions/common/fade.svg",
       "pixel_format": -1,
       "pixel_ratio": {
        "den": 1,
        "num": 1
       },
       "sample_rate": 0,
       "top_field_first": true,
       "type": "QtImageReader",
       "vcodec": "",
       "video_bit_rate": 0,
       "video_length": "108000",
       "video_stream_index": -1,
       "video_timebase": {
        "den": 30,
        "num": 1
       },
       "width": 720
      },
      "replace_image": false
     },
     {
      "layer": 3000000,
      "title": "Transition",
      "type": "Mask",
      "position": 197.1,
      "start": 0,
      "end": 0.9583333333333212,
      "brightness": {
       "Points": [
        {
         "co": {
          "X": 1.0,
          "Y": -1.0
         },
         "handle_left": {
          "X": 0.5,
          "Y": 1.0
         },
         "handle_right": {
          "X": 0.5,
          "Y": 0.0
         },
         "handle_type": 0,
         "interpolation": 0
        },
        {
         "co": {
          "X": 29.0,
          "Y": 1.0
         },
         "handle_left": {
          "X": 0.5,
          "Y": 1.0
         },
         "handle_right": {
          "X": 0.5,
          "Y": 0.0
         },
         "handle_type": 0,
         "interpolation": 0
        }
       ]
      },
      "contrast": {
       "Points": [
        {
         "co": {
          "X": 1.0,
          "Y": 3.0
         },
         "handle_left": {
          "X": 0.5,
          "Y": 1.0
         },
         "handle_right": {
          "X": 0.5,
          "Y": 0.0
         },
         "handle_type": 0,
         "interpolation": 0
        },
        {
         "co": {
          "X": 29.0,
          "Y": 3.0
         },
         "handle_left": {
          "X": 0.5,
          "Y": 1.0
         },
         "handle_right": {
          "X": 0.5,
          "Y": 0.0
         },
         "handle_type": 0,
         "interpolation": 0
        }
       ]
      },
      "reader": {
       "acodec": "",
       "audio_bit_rate": 0,
       "audio_stream_index": -1,
       "audio_timebase": {
        "den": 1,
        "num": 1
       },
       "channel_layout": 4,
       "channels": 0,
       "display_ratio": {
        "den": 4,
        "num": 5
       },
       "duration": 3600.0,
       "file_size": "5832000",
       "fps": {
        "den": 1,
        "num": 30
       },
       "has_audio": false,
       "has_single_image": true,
       "has_video": true,
       "height": 576,
       "interlaced_frame": false,
       "metadata": {},
       "path": "@transitions/common/fade.svg",
       "pixel_format": -1,
       "pixel_ratio": {
        "den": 1,
        "num": 1
       },
       "sample_rate": 0,
       "top_field_first": true,
       "type": "QtImageReader",
       "vcodec": "",
       "video_bit_rate": 0,
       "video_length": "108000",
       "video_stream_index": -1,
       "video_timebase": {
        "den": 30,
        "num": 1
       },
       "width": 720
      },
      "replace_image": false,
      "id": "WEB2RAE0H3"
     },
     {
      "layer": 2000000,
      "title": "Transition",
      "type": "Mask",
      "position": 228.73333333333332,
      "start": 0,
      "end": 0.9583333333333212,
      "brightness": {
       "Points": [
        {
         "co": {
          "X": 1.0,
          "Y": 1.0
         },
         "handle_left": {
          "X": 0.5,
          "Y": 1.0
         },
         "handle_right": {
          "X": 0.5,
          "Y": 0.0
         },
         "handle_type": 0,
         "interpolation": 0
        },
        {
         "co": {
          "X": 29.0,
          "Y": -1.0
         },
         "handle_left": {
          "X": 0.5,
          "Y": 1.0
         },
         "handle_right": {
          "X": 0.5,
          "Y": 0.0
         },
         "handle_type": 0,
         "interpolation": 0
        }
       ]
      },
      "contrast": {
       "Points": [
        {
         "co": {
          "X": 1.0,
          "Y": 3.0
         },
         "handle_left": {
          "X": 0.5,
          "Y": 1.0
         },
         "handle_right": {
          "X": 0.5,
          "Y": 0.0
         },
         "handle_type": 0,
         "interpolation": 0
        },
        {
         "co": {
          "X": 29.0,
          "Y": 3.0
         },
         "handle_left": {
          "X": 0.5,
          "Y": 1.0
         },
         "handle_right": {
          "X": 0.5,
          "Y": 0.0
         },
         "handle_type": 0,
         "interpolation": 0
        }
       ]
      },
      "reader": {
       "acodec": "",
       "audio_bit_rate": 0,
       "audio_stream_index": -1,
       "audio_timebase": {
        "den": 1,
        "num": 1
       },
       "channel_layout": 4,
       "channels": 0,
       "display_ratio": {
        "den": 4,
        "num": 5
       },
       "duration": 3600.0,
       "file_size": "5832000",
       "fps": {
        "den": 1,
        "num": 30
       },
       "has_audio": false,
       "has_single_image": true,
       "has_video": true,
       "height": 576,
       "interlaced_frame": false,
       "metadata": {},
       "path": "@transitions/common/fade.svg",
       "pixel_format": -1,
       "pixel_ratio": {
        "den": 1,
        "num": 1
       },
       "sample_rate": 0,
       "top_field_first": true,
       "type": "QtImageReader",
       "vcodec": "",
       "video_bit_rate": 0,
       "video_length": "108000",
       "video_stream_index": -1,
       "video_timebase": {
        "den": 30,
        "num": 1
       },
       "width": 720
      },
      "replace_image": false,
      "id": "AYWJNQ9Z2M"
     },
     {
      "layer": 2000000,
      "title": "Transition",
      "type": "Mask",
      "position": 241.23333333333332,
      "start": 0,
      "end": 0.9583333333333212,
      "brightness": {
       "Points": [
        {
         "co": {
          "X": 1.0,
          "Y": 1.0
         },
         "handle_left": {
          "X": 0.5,
          "Y": 1.0
         },
         "handle_right": {
          "X": 0.5,
          "Y": 0.0
         },
         "handle_type": 0,
         "interpolation": 0
        },
        {
         "co": {
          "X": 29.0,
          "Y": -1.0
         },
         "handle_left": {
          "X": 0.5,
          "Y": 1.0
         },
         "handle_right": {
          "X": 0.5,
          "Y": 0.0
         },
         "handle_type": 0,
         "interpolation": 0
        }
       ]
      },
      "contrast": {
       "Points": [
        {
         "co": {
          "X": 1.0,
          "Y": 3.0
         },
         "handle_left": {
          "X": 0.5,
          "Y": 1.0
         },
         "handle_right": {
          "X": 0.5,
          "Y": 0.0
         },
         "handle_type": 0,
         "interpolation": 0
        },
        {
         "co": {
          "X": 29.0,
          "Y": 3.0
         },
         "handle_left": {
          "X": 0.5,
          "Y": 1.0
         },
         "handle_right": {
          "X": 0.5,
          "Y": 0.0
         },
         "handle_type": 0,
         "interpolation": 0
        }
       ]
      },
      "reader": {
       "acodec": "",
       "audio_bit_rate": 0,
       "audio_stream_index": -1,
       "audio_timebase": {
        "den": 1,
        "num": 1
       },
       "channel_layout": 4,
       "channels": 0,
       "display_ratio": {
        "den": 4,
        "num": 5
       },
       "duration": 3600.0,
       "file_size": "5832000",
       "fps": {
        "den": 1,
        "num": 30
       },
       "has_audio": false,
       "has_single_image": true,
       "has_video": true,
       "height": 576,
       "interlaced_frame": false,
       "metadata": {},
       "path": "@transitions/common/fade.svg",
       "pixel_format": -1,
       "pixel_ratio": {
        "den": 1,
        "num": 1
       },
       "sample_rate": 0,
       "top_field_first": true,
       "type": "QtImageReader",
       "vcodec": "",
       "video_bit_rate": 0,
       "video_length": "108000",
       "video_stream_index": -1,
       "video_timebase": {
        "den": 30,
        "num": 1
       },
       "width": 720
      },
      "replace_image": false,
      "id": "RZBAESHWWX"
     },
     {
      "layer": 2000000,
      "title": "Transition",
      "type": "Mask",
      "position": 245.76666666666668,
      "start": 0,
      "end": 0.9583333333333212,
      "brightness": {
       "Points": [
        {
         "co": {
          "X": 1.0,
          "Y": -1.0
         },
         "handle_left": {
          "X": 0.5,
          "Y": 1.0
         },
         "handle_right": {
          "X": 0.5,
          "Y": 0.0
         },
         "handle_type": 0,
         "interpolation": 0
        },
        {
         "co": {
          "X": 29.0,
          "Y": 1.0
         },
         "handle_left": {
          "X": 0.5,
          "Y": 1.0
         },
         "handle_right": {
          "X": 0.5,
          "Y": 0.0
         },
         "handle_type": 0,
         "interpolation": 0
        }
       ]
      },
      "contrast": {
       "Points": [
        {
         "co": {
          "X": 1.0,
          "Y": 3.0
         },
         "handle_left": {
          "X": 0.5,
          "Y": 1.0
         },
         "handle_right": {
          "X": 0.5,
          "Y": 0.0
         },
         "handle_type": 0,
         "interpolation": 0
        },
        {
         "co": {
          "X": 29.0,
          "Y": 3.0
         },
         "handle_left": {
          "X": 0.5,
          "Y": 1.0
         },
         "handle_right": {
          "X": 0.5,
          "Y": 0.0
         },
         "handle_type": 0,
         "interpolation": 0
        }
       ]
      },
      "reader": {
       "acodec": "",
       "audio_bit_rate": 0,
       "audio_stream_index": -1,
       "audio_timebase": {
        "den": 1,
        "num": 1
       },
       "channel_layout": 4,
       "channels": 0,
       "display_ratio": {
        "den": 4,
        "num": 5
       },
       "duration": 3600.0,
       "file_size": "5832000",
       "fps": {
        "den": 1,
        "num": 30
       },
       "has_audio": false,
       "has_single_image": true,
       "has_video": true,
       "height": 576,
       "interlaced_frame": false,
       "metadata": {},
       "path": "@transitions/common/fade.svg",
       "pixel_format": -1,
       "pixel_ratio": {
        "den": 1,
        "num": 1
       },
       "sample_rate": 0,
       "top_field_first": true,
       "type": "QtImageReader",
       "vcodec": "",
       "video_bit_rate": 0,
       "video_length": "108000",
       "video_stream_index": -1,
       "video_timebase": {
        "den": 30,
        "num": 1
       },
       "width": 720
      },
      "replace_image": false,
      "id": "2HTULU3R5M"
     },
     {
      "layer": 3000000,
      "title": "Transition",
      "type": "Mask",
      "position": 227.1,
      "start": 0,
      "end": 0.9583333333333212,
      "brightness": {
       "Points": [
        {
         "co": {
          "X": 1.0,
          "Y": 1.0
         },
         "handle_left": {
          "X": 0.5,
          "Y": 1.0
         },
         "handle_right": {
          "X": 0.5,
          "Y": 0.0
         },
         "handle_type": 0,
         "interpolation": 0
        },
        {
         "co": {
          "X": 29.0,
          "Y": -1.0
         },
         "handle_left": {
          "X": 0.5,
          "Y": 1.0
         },
         "handle_right": {
          "X": 0.5,
          "Y": 0.0
         },
         "handle_type": 0,
         "interpolation": 0
        }
       ]
      },
      "contrast": {
       "Points": [
        {
         "co": {
          "X": 1.0,
          "Y": 3.0
         },
         "handle_left": {
          "X": 0.5,
          "Y": 1.0
         },
         "handle_right": {
          "X": 0.5,
          "Y": 0.0
         },
         "handle_type": 0,
         "interpolation": 0
        },
        {
         "co": {
          "X": 29.0,
          "Y": 3.0
         },
         "handle_left": {
          "X": 0.5,
          "Y": 1.0
         },
         "handle_right": {
          "X": 0.5,
          "Y": 0.0
         },
         "handle_type": 0,
         "interpolation": 0
        }
       ]
      },
      "reader": {
       "acodec": "",
       "audio_bit_rate": 0,
       "audio_stream_index": -1,
       "audio_timebase": {
        "den": 1,
        "num": 1
       },
       "channel_layout": 4,
       "channels": 0,
       "display_ratio": {
        "den": 4,
        "num": 5
       },
       "duration": 3600.0,
       "file_size": "5832000",
       "fps": {
        "den": 1,
        "num": 30
       },
       "has_audio": false,
       "has_single_image": true,
       "has_video": true,
       "height": 576,
       "interlaced_frame": false,
       "metadata": {},
       "path": "@transitions/common/fade.svg",
       "pixel_format": -1,
       "pixel_ratio": {
        "den": 1,
        "num": 1
       },
       "sample_rate": 0,
       "top_field_first": true,
       "type": "QtImageReader",
       "vcodec": "",
       "video_bit_rate": 0,
       "video_length": "108000",
       "video_stream_index": -1,
       "video_timebase": {
        "den": 30,
        "num": 1
       },
       "width": 720
      },
      "replace_image": false,
      "id": "F3SI4HCMCD"
     },
     {
      "layer": 2000000,
      "title": "Transition",
      "type": "Mask",
      "position": 236.23333333333332,
      "start": 0,
      "end": 0.9583333333333212,
      "brightness": {
       "Points": [
        {
         "co": {
          "X": 1.0,
          "Y": -1.0
         },
         "handle_left": {
          "X": 0.5,
          "Y": 1.0
         },
         "handle_right": {
          "X": 0.5,
          "Y": 0.0
         },
         "handle_type": 0,
         "interpolation": 0
        },
        {
         "co": {
          "X": 29.0,
          "Y": 1.0
         },
         "handle_left": {
          "X": 0.5,
          "Y": 1.0
         },
         "handle_right": {
          "X": 0.5,
          "Y": 0.0
         },
         "handle_type": 0,
         "interpolation": 0
        }
       ]
      },
      "contrast": {
       "Points": [
        {
         "co": {
          "X": 1.0,
          "Y": 3.0
         },
         "handle_left": {
          "X": 0.5,
          "Y": 1.0
         },
         "handle_right": {
          "X": 0.5,
          "Y": 0.0
         },
         "handle_type": 0,
         "interpolation": 0
        },
        {
         "co": {
          "X": 29.0,
          "Y": 3.0
         },
         "handle_left": {
          "X": 0.5,
          "Y": 1.0
         },
         "handle_right": {
          "X": 0.5,
          "Y": 0.0
         },
         "handle_type": 0,
         "interpolation": 0
        }
       ]
      },
      "reader": {
       "acodec": "",
       "audio_bit_rate": 0,
       "audio_stream_index": -1,
       "audio_timebase": {
        "den": 1,
        "num": 1
       },
       "channel_layout": 4,
       "channels": 0,
       "display_ratio": {
        "den": 4,
        "num": 5
       },
       "duration": 3600.0,
       "file_size": "5832000",
       "fps": {
        "den": 1,
        "num": 30
       },
       "has_audio": false,
       "has_single_image": true,
       "has_video": true,
       "height": 576,
       "interlaced_frame": false,
       "metadata": {},
       "path": "@transitions/common/fade.svg",
       "pixel_format": -1,
       "pixel_ratio": {
        "den": 1,
        "num": 1
       },
       "sample_rate": 0,
       "top_field_first": true,
       "type": "QtImageReader",
       "vcodec": "",
       "video_bit_rate": 0,
       "video_length": "108000",
       "video_stream_index": -1,
       "video_timebase": {
        "den": 30,
        "num": 1
       },
       "width": 720
      },
      "replace_image": false,
      "id": "5PQMVVOG5H"
     },
     {
      "id": "Z4SN9YM3FC",
      "layer": 1000000,
      "title": "Transition",
      "type": "Mask",
      "position": 248.8,
      "start": 0,
      "end": 1.1999999999999886,
      "brightness": {
       "Points": [
        {
         "co": {
          "X": 1.0,
          "Y": 1.0
         },
         "handle_left": {
          "X": 0.5,
          "Y": 1.0
         },
         "handle_right": {
          "X": 0.5,
          "Y": 0.0
         },
         "handle_type": 0,
         "interpolation": 0
        },
        {
         "co": {
          "X": 37.0,
          "Y": -1.0
         },
         "handle_left": {
          "X": 0.5,
          "Y": 1.0
         },
         "handle_right": {
          "X": 0.5,
          "Y": 0.0
         },
         "handle_type": 0,
         "interpolation": 0
        }
       ]
      },
      "contrast": {
       "Points": [
        {
         "co": {
          "X": 1.0,
          "Y": 3.0
         },
         "handle_left": {
          "X": 0.5,
          "Y": 1.0
         },
         "handle_right": {
          "X": 0.5,
          "Y": 0.0
         },
         "handle_type": 0,
         "interpolation": 0
        }
       ]
      },
      "reader": {
       "acodec": "",
       "audio_bit_rate": 0,
       "audio_stream_index": -1,
       "audio_timebase": {
        "den": 1,
        "num": 1
       },
       "channel_layout": 4,
       "channels": 0,
       "display_ratio": {
        "den": 4,
        "num": 5
       },
       "duration": 3600.0,
       "file_size": "5832000",
       "fps": {
        "den": 1,
        "num": 30
       },
       "has_audio": false,
       "has_single_image": true,
       "has_video": true,
       "height": 576,
       "interlaced_frame": false,
       "metadata": {},
       "path": "@transitions/common/fade.svg",
       "pixel_format": -1,
       "pixel_ratio": {
        "den": 1,
        "num": 1
       },
       "sample_rate": 0,
       "top_field_first": true,
       "type": "QtImageReader",
       "vcodec": "",
       "video_bit_rate": 0,
       "video_length": "108000",
       "video_stream_index": -1,
       "video_timebase": {
        "den": 30,
        "num": 1
       },
       "width": 720
      },
      "replace_image": false
     },
     {
      "layer": 3000000,
      "title": "Transition",
      "type": "Mask",
      "position": 248.8,
      "start": 0,
      "end": 0.9583333333333212,
      "brightness": {
       "Points": [
        {
         "co": {
          "X": 1.0,
          "Y": 1.0
         },
         "handle_left": {
          "X": 0.5,
          "Y": 1.0
         },
         "handle_right": {
          "X": 0.5,
          "Y": 0.0
         },
         "handle_type": 0,
         "interpolation": 0
        },
        {
         "co": {
          "X": 29.0,
          "Y": -1.0
         },
         "handle_left": {
          "X": 0.5,
          "Y": 1.0
         },
         "handle_right": {
          "X": 0.5,
          "Y": 0.0
         },
         "handle_type": 0,
         "interpolation": 0
        }
       ]
      },
      "contrast": {
       "Points": [
        {
         "co": {
          "X": 1.0,
          "Y": 3.0
         },
         "handle_left": {
          "X": 0.5,
          "Y": 1.0
         },
         "handle_right": {
          "X": 0.5,
          "Y": 0.0
         },
         "handle_type": 0,
         "interpolation": 0
        },
        {
         "co": {
          "X": 29.0,
          "Y": 3.0
         },
         "handle_left": {
          "X": 0.5,
          "Y": 1.0
         },
         "handle_right": {
          "X": 0.5,
          "Y": 0.0
         },
         "handle_type": 0,
         "interpolation": 0
        }
       ]
      },
      "reader": {
       "acodec": "",
       "audio_bit_rate": 0,
       "audio_stream_index": -1,
       "audio_timebase": {
        "den": 1,
        "num": 1
       },
       "channel_layout": 4,
       "channels": 0,
       "display_ratio": {
        "den": 4,
        "num": 5
       },
       "duration": 3600.0,
       "file_size": "5832000",
       "fps": {
        "den": 1,
        "num": 30
       },
       "has_audio": false,
       "has_single_image": true,
       "has_video": true,
       "height": 576,
       "interlaced_frame": false,
       "metadata": {},
       "path": "@transitions/common/fade.svg",
       "pixel_format": -1,
       "pixel_ratio": {
        "den": 1,
        "num": 1
       },
       "sample_rate": 0,
       "top_field_first": true,
       "type": "QtImageReader",
       "vcodec": "",
       "video_bit_rate": 0,
       "video_length": "108000",
       "video_stream_index": -1,
       "video_timebase": {
        "den": 30,
        "num": 1
       },
       "width": 720
      },
      "replace_image": false,
      "id": "TQC41VZ6RB"
     },
     {
      "layer": 3000000,
      "title": "Transition",
      "type": "Mask",
      "position": 245.76666666666668,
      "start": 0,
      "end": 0.9583333333333212,
      "brightness": {
       "Points": [
        {
         "co": {
          "X": 1.0,
          "Y": -1.0
         },
         "handle_left": {
          "X": 0.5,
          "Y": 1.0
         },
         "handle_right": {
          "X": 0.5,
          "Y": 0.0
         },
         "handle_type": 0,
         "interpolation": 0
        },
        {
         "co": {
          "X": 29.0,
          "Y": 1.0
         },
         "handle_left": {
          "X": 0.5,
          "Y": 1.0
         },
         "handle_right": {
          "X": 0.5,
          "Y": 0.0
         },
         "handle_type": 0,
         "interpolation": 0
        }
       ]
      },
      "contrast": {
       "Points": [
        {
         "co": {
          "X": 1.0,
          "Y": 3.0
         },
         "handle_left": {
          "X": 0.5,
          "Y": 1.0
         },
         "handle_right": {
          "X": 0.5,
          "Y": 0.0
         },
         "handle_type": 0,
         "interpolation": 0
        },
        {
         "co": {
          "X": 29.0,
          "Y": 3.0
         },
         "handle_left": {
          "X": 0.5,
          "Y": 1.0
         },
         "handle_right": {
          "X": 0.5,
          "Y": 0.0
         },
         "handle_type": 0,
         "interpolation": 0
        }
       ]
      },
      "reader": {
       "acodec": "",
       "audio_bit_rate": 0,
       "audio_stream_index": -1,
       "audio_timebase": {
        "den": 1,
        "num": 1
       },
       "channel_layout": 4,
       "channels": 0,
       "display_ratio": {
        "den": 4,
        "num": 5
       },
       "duration": 3600.0,
       "file_size": "5832000",
       "fps": {
        "den": 1,
        "num": 30
       },
       "has_audio": false,
       "has_single_image": true,
       "has_video": true,
       "height": 576,
       "interlaced_frame": false,
       "metadata": {},
       "path": "@transitions/common/fade.svg",
       "pixel_format": -1,
       "pixel_ratio": {
        "den": 1,
        "num": 1
       },
       "sample_rate": 0,
       "top_field_first": true,
       "type": "QtImageReader",
       "vcodec": "",
       "video_bit_rate": 0,
       "video_length": "108000",
       "video_stream_index": -1,
       "video_timebase": {
        "den": 30,
        "num": 1
       },
       "width": 720
      },
      "replace_image": false,
      "id": "X3YMVVAX5I"
     },
     {
      "layer": 2000000,
      "title": "Transition",
      "type": "Mask",
      "position": 250.66666666666666,
      "start": 0,
      "end": 0.9583333333333212,
      "brightness": {
       "Points": [
        {
         "co": {
          "X": 1.0,
          "Y": 1.0
         },
         "handle_left": {
          "X": 0.5,
          "Y": 1.0
         },
         "handle_right": {
          "X": 0.5,
          "Y": 0.0
         },
         "handle_type": 0,
         "interpolation": 0
        },
        {
         "co": {
          "X": 29.0,
          "Y": -1.0
         },
         "handle_left": {
          "X": 0.5,
          "Y": 1.0
         },
         "handle_right": {
          "X": 0.5,
          "Y": 0.0
         },
         "handle_type": 0,
         "interpolation": 0
        }
       ]
      },
      "contrast": {
       "Points": [
        {
         "co": {
          "X": 1.0,
          "Y": 3.0
         },
         "handle_left": {
          "X": 0.5,
          "Y": 1.0
         },
         "handle_right": {
          "X": 0.5,
          "Y": 0.0
         },
         "handle_type": 0,
         "interpolation": 0
        },
        {
         "co": {
          "X": 29.0,
          "Y": 3.0
         },
         "handle_left": {
          "X": 0.5,
          "Y": 1.0
         },
         "handle_right": {
          "X": 0.5,
          "Y": 0.0
         },
         "handle_type": 0,
         "interpolation": 0
        }
       ]
      },
      "reader": {
       "acodec": "",
       "audio_bit_rate": 0,
       "audio_stream_index": -1,
       "audio_timebase": {
        "den": 1,
        "num": 1
       },
       "channel_layout": 4,
       "channels": 0,
       "display_ratio": {
        "den": 4,
        "num": 5
       },
       "duration": 3600.0,
       "file_size": "5832000",
       "fps": {
        "den": 1,
        "num": 30
       },
       "has_audio": false,
       "has_single_image": true,
       "has_video": true,
       "height": 576,
       "interlaced_frame": false,
       "metadata": {},
       "path": "@transitions/common/fade.svg",
       "pixel_format": -1,
       "pixel_ratio": {
        "den": 1,
        "num": 1
       },
       "sample_rate": 0,
       "top_field_first": true,
       "type": "QtImageReader",
       "vcodec": "",
       "video_bit_rate": 0,
       "video_length": "108000",
       "video_stream_index": -1,
       "video_timebase": {
        "den": 30,
        "num": 1
       },
       "width": 720
      },
      "replace_image": false,
      "id": "NZV4OM49PR"
     },
     {
      "layer": 2000000,
      "title": "Transition",
      "type": "Mask",
      "position": 256.4,
      "start": 0,
      "end": 0.9583333333333212,
      "brightness": {
       "Points": [
        {
         "co": {
          "X": 1.0,
          "Y": -1.0
         },
         "handle_left": {
          "X": 0.5,
          "Y": 1.0
         },
         "handle_right": {
          "X": 0.5,
          "Y": 0.0
         },
         "handle_type": 0,
         "interpolation": 0
        },
        {
         "co": {
          "X": 29.0,
          "Y": 1.0
         },
         "handle_left": {
          "X": 0.5,
          "Y": 1.0
         },
         "handle_right": {
          "X": 0.5,
          "Y": 0.0
         },
         "handle_type": 0,
         "interpolation": 0
        }
       ]
      },
      "contrast": {
       "Points": [
        {
         "co": {
          "X": 1.0,
          "Y": 3.0
         },
         "handle_left": {
          "X": 0.5,
          "Y": 1.0
         },
         "handle_right": {
          "X": 0.5,
          "Y": 0.0
         },
         "handle_type": 0,
         "interpolation": 0
        },
        {
         "co": {
          "X": 29.0,
          "Y": 3.0
         },
         "handle_left": {
          "X": 0.5,
          "Y": 1.0
         },
         "handle_right": {
          "X": 0.5,
          "Y": 0.0
         },
         "handle_type": 0,
         "interpolation": 0
        }
       ]
      },
      "reader": {
       "acodec": "",
       "audio_bit_rate": 0,
       "audio_stream_index": -1,
       "audio_timebase": {
        "den": 1,
        "num": 1
       },
       "channel_layout": 4,
       "channels": 0,
       "display_ratio": {
        "den": 4,
        "num": 5
       },
       "duration": 3600.0,
       "file_size": "5832000",
       "fps": {
        "den": 1,
        "num": 30
       },
       "has_audio": false,
       "has_single_image": true,
       "has_video": true,
       "height": 576,
       "interlaced_frame": false,
       "metadata": {},
       "path": "@transitions/common/fade.svg",
       "pixel_format": -1,
       "pixel_ratio": {
        "den": 1,
        "num": 1
       },
       "sample_rate": 0,
       "top_field_first": true,
       "type": "QtImageReader",
       "vcodec": "",
       "video_bit_rate": 0,
       "video_length": "108000",
       "video_stream_index": -1,
       "video_timebase": {
        "den": 30,
        "num": 1
       },
       "width": 720
      },
      "replace_image": false,
      "id": "GHC8VAFC2M"
     },
     {
      "layer": 2000000,
      "title": "Transition",
      "type": "Mask",
      "position": 260.8333333333333,
      "start": 0,
      "end": 0.9583333333333212,
      "brightness": {
       "Points": [
        {
         "co": {
          "X": 1.0,
          "Y": 1.0
         },
         "handle_left": {
          "X": 0.5,
          "Y": 1.0
         },
         "handle_right": {
          "X": 0.5,
          "Y": 0.0
         },
         "handle_type": 0,
         "interpolation": 0
        },
        {
         "co": {
          "X": 29.0,
          "Y": -1.0
         },
         "handle_left": {
          "X": 0.5,
          "Y": 1.0
         },
         "handle_right": {
          "X": 0.5,
          "Y": 0.0
         },
         "handle_type": 0,
         "interpolation": 0
        }
       ]
      },
      "contrast": {
       "Points": [
        {
         "co": {
          "X": 1.0,
          "Y": 3.0
         },
         "handle_left": {
          "X": 0.5,
          "Y": 1.0
         },
         "handle_right": {
          "X": 0.5,
          "Y": 0.0
         },
         "handle_type": 0,
         "interpolation": 0
        },
        {
         "co": {
          "X": 29.0,
          "Y": 3.0
         },
         "handle_left": {
          "X": 0.5,
          "Y": 1.0
         },
         "handle_right": {
          "X": 0.5,
          "Y": 0.0
         },
         "handle_type": 0,
         "interpolation": 0
        }
       ]
      },
      "reader": {
       "acodec": "",
       "audio_bit_rate": 0,
       "audio_stream_index": -1,
       "audio_timebase": {
        "den": 1,
        "num": 1
       },
       "channel_layout": 4,
       "channels": 0,
       "display_ratio": {
        "den": 4,
        "num": 5
       },
       "duration": 3600.0,
       "file_size": "5832000",
       "fps": {
        "den": 1,
        "num": 30
       },
       "has_audio": false,
       "has_single_image": true,
       "has_video": true,
       "height": 576,
       "interlaced_frame": false,
       "metadata": {},
       "path": "@transitions/common/fade.svg",
       "pixel_format": -1,
       "pixel_ratio": {
        "den": 1,
        "num": 1
       },
       "sample_rate": 0,
       "top_field_first": true,
       "type": "QtImageReader",
       "vcodec": "",
       "video_bit_rate": 0,
       "video_length": "108000",
       "video_stream_index": -1,
       "video_timebase": {
        "den": 30,
        "num": 1
       },
       "width": 720
      },
      "replace_image": false,
      "id": "LEJIDFPPTU"
     },
     {
      "layer": 2000000,
      "title": "Transition",
      "type": "Mask",
      "position": 266.93333333333334,
      "start": 0,
      "end": 0.9583333333333212,
      "brightness": {
       "Points": [
        {
         "co": {
          "X": 1.0,
          "Y": -1.0
         },
         "handle_left": {
          "X": 0.5,
          "Y": 1.0
         },
         "handle_right": {
          "X": 0.5,
          "Y": 0.0
         },
         "handle_type": 0,
         "interpolation": 0
        },
        {
         "co": {
          "X": 29.0,
          "Y": 1.0
         },
         "handle_left": {
          "X": 0.5,
          "Y": 1.0
         },
         "handle_right": {
          "X": 0.5,
          "Y": 0.0
         },
         "handle_type": 0,
         "interpolation": 0
        }
       ]
      },
      "contrast": {
       "Points": [
        {
         "co": {
          "X": 1.0,
          "Y": 3.0
         },
         "handle_left": {
          "X": 0.5,
          "Y": 1.0
         },
         "handle_right": {
          "X": 0.5,
          "Y": 0.0
         },
         "handle_type": 0,
         "interpolation": 0
        },
        {
         "co": {
          "X": 29.0,
          "Y": 3.0
         },
         "handle_left": {
          "X": 0.5,
          "Y": 1.0
         },
         "handle_right": {
          "X": 0.5,
          "Y": 0.0
         },
         "handle_type": 0,
         "interpolation": 0
        }
       ]
      },
      "reader": {
       "acodec": "",
       "audio_bit_rate": 0,
       "audio_stream_index": -1,
       "audio_timebase": {
        "den": 1,
        "num": 1
       },
       "channel_layout": 4,
       "channels": 0,
       "display_ratio": {
        "den": 4,
        "num": 5
       },
       "duration": 3600.0,
       "file_size": "5832000",
       "fps": {
        "den": 1,
        "num": 30
       },
       "has_audio": false,
       "has_single_image": true,
       "has_video": true,
       "height": 576,
       "interlaced_frame": false,
       "metadata": {},
       "path": "@transitions/common/fade.svg",
       "pixel_format": -1,
       "pixel_ratio": {
        "den": 1,
        "num": 1
       },
       "sample_rate": 0,
       "top_field_first": true,
       "type": "QtImageReader",
       "vcodec": "",
       "video_bit_rate": 0,
       "video_length": "108000",
       "video_stream_index": -1,
       "video_timebase": {
        "den": 30,
        "num": 1
       },
       "width": 720
      },
      "replace_image": false,
      "id": "KK5BUO5VAF"
     },
     {
      "layer": 2000000,
      "title": "Transition",
      "type": "Mask",
      "position": 269.03333333333336,
      "start": 0,
      "end": 0.9583333333333212,
      "brightness": {
       "Points": [
        {
         "co": {
          "X": 1.0,
          "Y": 1.0
         },
         "handle_left": {
          "X": 0.5,
          "Y": 1.0
         },
         "handle_right": {
          "X": 0.5,
          "Y": 0.0
         },
         "handle_type": 0,
         "interpolation": 0
        },
        {
         "co": {
          "X": 29.0,
          "Y": -1.0
         },
         "handle_left": {
          "X": 0.5,
          "Y": 1.0
         },
         "handle_right": {
          "X": 0.5,
          "Y": 0.0
         },
         "handle_type": 0,
         "interpolation": 0
        }
       ]
      },
      "contrast": {
       "Points": [
        {
         "co": {
          "X": 1.0,
          "Y": 3.0
         },
         "handle_left": {
          "X": 0.5,
          "Y": 1.0
         },
         "handle_right": {
          "X": 0.5,
          "Y": 0.0
         },
         "handle_type": 0,
         "interpolation": 0
        },
        {
         "co": {
          "X": 29.0,
          "Y": 3.0
         },
         "handle_left": {
          "X": 0.5,
          "Y": 1.0
         },
         "handle_right": {
          "X": 0.5,
          "Y": 0.0
         },
         "handle_type": 0,
         "interpolation": 0
        }
       ]
      },
      "reader": {
       "acodec": "",
       "audio_bit_rate": 0,
       "audio_stream_index": -1,
       "audio_timebase": {
        "den": 1,
        "num": 1
       },
       "channel_layout": 4,
       "channels": 0,
       "display_ratio": {
        "den": 4,
        "num": 5
       },
       "duration": 3600.0,
       "file_size": "5832000",
       "fps": {
        "den": 1,
        "num": 30
       },
       "has_audio": false,
       "has_single_image": true,
       "has_video": true,
       "height": 576,
       "interlaced_frame": false,
       "metadata": {},
       "path": "@transitions/common/fade.svg",
       "pixel_format": -1,
       "pixel_ratio": {
        "den": 1,
        "num": 1
       },
       "sample_rate": 0,
       "top_field_first": true,
       "type": "QtImageReader",
       "vcodec": "",
       "video_bit_rate": 0,
       "video_length": "108000",
       "video_stream_index": -1,
       "video_timebase": {
        "den": 30,
        "num": 1
       },
       "width": 720
      },
      "replace_image": false,
      "id": "EOT619YF48"
     },
     {
      "layer": 2000000,
      "title": "Transition",
      "type": "Mask",
      "position": 271.2,
      "start": 0,
      "end": 0.9583333333333212,
      "brightness": {
       "Points": [
        {
         "co": {
          "X": 1.0,
          "Y": -1.0
         },
         "handle_left": {
          "X": 0.5,
          "Y": 1.0
         },
         "handle_right": {
          "X": 0.5,
          "Y": 0.0
         },
         "handle_type": 0,
         "interpolation": 0
        },
        {
         "co": {
          "X": 29.0,
          "Y": 1.0
         },
         "handle_left": {
          "X": 0.5,
          "Y": 1.0
         },
         "handle_right": {
          "X": 0.5,
          "Y": 0.0
         },
         "handle_type": 0,
         "interpolation": 0
        }
       ]
      },
      "contrast": {
       "Points": [
        {
         "co": {
          "X": 1.0,
          "Y": 3.0
         },
         "handle_left": {
          "X": 0.5,
          "Y": 1.0
         },
         "handle_right": {
          "X": 0.5,
          "Y": 0.0
         },
         "handle_type": 0,
         "interpolation": 0
        },
        {
         "co": {
          "X": 29.0,
          "Y": 3.0
         },
         "handle_left": {
          "X": 0.5,
          "Y": 1.0
         },
         "handle_right": {
          "X": 0.5,
          "Y": 0.0
         },
         "handle_type": 0,
         "interpolation": 0
        }
       ]
      },
      "reader": {
       "acodec": "",
       "audio_bit_rate": 0,
       "audio_stream_index": -1,
       "audio_timebase": {
        "den": 1,
        "num": 1
       },
       "channel_layout": 4,
       "channels": 0,
       "display_ratio": {
        "den": 4,
        "num": 5
       },
       "duration": 3600.0,
       "file_size": "5832000",
       "fps": {
        "den": 1,
        "num": 30
       },
       "has_audio": false,
       "has_single_image": true,
       "has_video": true,
       "height": 576,
       "interlaced_frame": false,
       "metadata": {},
       "path": "@transitions/common/fade.svg",
       "pixel_format": -1,
       "pixel_ratio": {
        "den": 1,
        "num": 1
       },
       "sample_rate": 0,
       "top_field_first": true,
       "type": "QtImageReader",
       "vcodec": "",
       "video_bit_rate": 0,
       "video_length": "108000",
       "video_stream_index": -1,
       "video_timebase": {
        "den": 30,
        "num": 1
       },
       "width": 720
      },
      "replace_image": false,
      "id": "PRGTH4OGVC"
     },
     {
      "layer": 2000000,
      "title": "Transition",
      "type": "Mask",
      "position": 273.3333333333333,
      "start": 0,
      "end": 0.9583333333333212,
      "brightness": {
       "Points": [
        {
         "co": {
          "X": 1.0,
          "Y": 1.0
         },
         "handle_left": {
          "X": 0.5,
          "Y": 1.0
         },
         "handle_right": {
          "X": 0.5,
          "Y": 0.0
         },
         "handle_type": 0,
         "interpolation": 0
        },
        {
         "co": {
          "X": 29.0,
          "Y": -1.0
         },
         "handle_left": {
          "X": 0.5,
          "Y": 1.0
         },
         "handle_right": {
          "X": 0.5,
          "Y": 0.0
         },
         "handle_type": 0,
         "interpolation": 0
        }
       ]
      },
      "contrast": {
       "Points": [
        {
         "co": {
          "X": 1.0,
          "Y": 3.0
         },
         "handle_left": {
          "X": 0.5,
          "Y": 1.0
         },
         "handle_right": {
          "X": 0.5,
          "Y": 0.0
         },
         "handle_type": 0,
         "interpolation": 0
        },
        {
         "co": {
          "X": 29.0,
          "Y": 3.0
         },
         "handle_left": {
          "X": 0.5,
          "Y": 1.0
         },
         "handle_right": {
          "X": 0.5,
          "Y": 0.0
         },
         "handle_type": 0,
         "interpolation": 0
        }
       ]
      },
      "reader": {
       "acodec": "",
       "audio_bit_rate": 0,
       "audio_stream_index": -1,
       "audio_timebase": {
        "den": 1,
        "num": 1
       },
       "channel_layout": 4,
       "channels": 0,
       "display_ratio": {
        "den": 4,
        "num": 5
       },
       "duration": 3600.0,
       "file_size": "5832000",
       "fps": {
        "den": 1,
        "num": 30
       },
       "has_audio": false,
       "has_single_image": true,
       "has_video": true,
       "height": 576,
       "interlaced_frame": false,
       "metadata": {},
       "path": "@transitions/common/fade.svg",
       "pixel_format": -1,
       "pixel_ratio": {
        "den": 1,
        "num": 1
       },
       "sample_rate": 0,
       "top_field_first": true,
       "type": "QtImageReader",
       "vcodec": "",
       "video_bit_rate": 0,
       "video_length": "108000",
       "video_stream_index": -1,
       "video_timebase": {
        "den": 30,
        "num": 1
       },
       "width": 720
      },
      "replace_image": false,
      "id": "2M2XXQ05FD"
     },
     {
      "layer": 2000000,
      "title": "Transition",
      "type": "Mask",
      "position": 277.23333333333335,
      "start": 0,
      "end": 0.9583333333333212,
      "brightness": {
       "Points": [
        {
         "co": {
          "X": 1.0,
          "Y": -1.0
         },
         "handle_left": {
          "X": 0.5,
          "Y": 1.0
         },
         "handle_right": {
          "X": 0.5,
          "Y": 0.0
         },
         "handle_type": 0,
         "interpolation": 0
        },
        {
         "co": {
          "X": 29.0,
          "Y": 1.0
         },
         "handle_left": {
          "X": 0.5,
          "Y": 1.0
         },
         "handle_right": {
          "X": 0.5,
          "Y": 0.0
         },
         "handle_type": 0,
         "interpolation": 0
        }
       ]
      },
      "contrast": {
       "Points": [
        {
         "co": {
          "X": 1.0,
          "Y": 3.0
         },
         "handle_left": {
          "X": 0.5,
          "Y": 1.0
         },
         "handle_right": {
          "X": 0.5,
          "Y": 0.0
         },
         "handle_type": 0,
         "interpolation": 0
        },
        {
         "co": {
          "X": 29.0,
          "Y": 3.0
         },
         "handle_left": {
          "X": 0.5,
          "Y": 1.0
         },
         "handle_right": {
          "X": 0.5,
          "Y": 0.0
         },
         "handle_type": 0,
         "interpolation": 0
        }
       ]
      },
      "reader": {
       "acodec": "",
       "audio_bit_rate": 0,
       "audio_stream_index": -1,
       "audio_timebase": {
        "den": 1,
        "num": 1
       },
       "channel_layout": 4,
       "channels": 0,
       "display_ratio": {
        "den": 4,
        "num": 5
       },
       "duration": 3600.0,
       "file_size": "5832000",
       "fps": {
        "den": 1,
        "num": 30
       },
       "has_audio": false,
       "has_single_image": true,
       "has_video": true,
       "height": 576,
       "interlaced_frame": false,
       "metadata": {},
       "path": "@transitions/common/fade.svg",
       "pixel_format": -1,
       "pixel_ratio": {
        "den": 1,
        "num": 1
       },
       "sample_rate": 0,
       "top_field_first": true,
       "type": "QtImageReader",
       "vcodec": "",
       "video_bit_rate": 0,
       "video_length": "108000",
       "video_stream_index": -1,
       "video_timebase": {
        "den": 30,
        "num": 1
       },
       "width": 720
      },
      "replace_image": false,
      "id": "AB25T9KHGQ"
     },
     {
      "layer": 2000000,
      "title": "Transition",
      "type": "Mask",
      "position": 281.73333333333335,
      "start": 0,
      "end": 0.9583333333333212,
      "brightness": {
       "Points": [
        {
         "co": {
          "X": 1.0,
          "Y": 1.0
         },
         "handle_left": {
          "X": 0.5,
          "Y": 1.0
         },
         "handle_right": {
          "X": 0.5,
          "Y": 0.0
         },
         "handle_type": 0,
         "interpolation": 0
        },
        {
         "co": {
          "X": 29.0,
          "Y": -1.0
         },
         "handle_left": {
          "X": 0.5,
          "Y": 1.0
         },
         "handle_right": {
          "X": 0.5,
          "Y": 0.0
         },
         "handle_type": 0,
         "interpolation": 0
        }
       ]
      },
      "contrast": {
       "Points": [
        {
         "co": {
          "X": 1.0,
          "Y": 3.0
         },
         "handle_left": {
          "X": 0.5,
          "Y": 1.0
         },
         "handle_right": {
          "X": 0.5,
          "Y": 0.0
         },
         "handle_type": 0,
         "interpolation": 0
        },
        {
         "co": {
          "X": 29.0,
          "Y": 3.0
         },
         "handle_left": {
          "X": 0.5,
          "Y": 1.0
         },
         "handle_right": {
          "X": 0.5,
          "Y": 0.0
         },
         "handle_type": 0,
         "interpolation": 0
        }
       ]
      },
      "reader": {
       "acodec": "",
       "audio_bit_rate": 0,
       "audio_stream_index": -1,
       "audio_timebase": {
        "den": 1,
        "num": 1
       },
       "channel_layout": 4,
       "channels": 0,
       "display_ratio": {
        "den": 4,
        "num": 5
       },
       "duration": 3600.0,
       "file_size": "5832000",
       "fps": {
        "den": 1,
        "num": 30
       },
       "has_audio": false,
       "has_single_image": true,
       "has_video": true,
       "height": 576,
       "interlaced_frame": false,
       "metadata": {},
       "path": "@transitions/common/fade.svg",
       "pixel_format": -1,
       "pixel_ratio": {
        "den": 1,
        "num": 1
       },
       "sample_rate": 0,
       "top_field_first": true,
       "type": "QtImageReader",
       "vcodec": "",
       "video_bit_rate": 0,
       "video_length": "108000",
       "video_stream_index": -1,
       "video_timebase": {
        "den": 30,
        "num": 1
       },
       "width": 720
      },
      "replace_image": false,
      "id": "ZEXFKXQ1SG"
     },
     {
      "layer": 2000000,
      "title": "Transition",
      "type": "Mask",
      "position": 286.3666666666667,
      "start": 0,
      "end": 0.9583333333333212,
      "brightness": {
       "Points": [
        {
         "co": {
          "X": 1.0,
          "Y": -1.0
         },
         "handle_left": {
          "X": 0.5,
          "Y": 1.0
         },
         "handle_right": {
          "X": 0.5,
          "Y": 0.0
         },
         "handle_type": 0,
         "interpolation": 0
        },
        {
         "co": {
          "X": 29.0,
          "Y": 1.0
         },
         "handle_left": {
          "X": 0.5,
          "Y": 1.0
         },
         "handle_right": {
          "X": 0.5,
          "Y": 0.0
         },
         "handle_type": 0,
         "interpolation": 0
        }
       ]
      },
      "contrast": {
       "Points": [
        {
         "co": {
          "X": 1.0,
          "Y": 3.0
         },
         "handle_left": {
          "X": 0.5,
          "Y": 1.0
         },
         "handle_right": {
          "X": 0.5,
          "Y": 0.0
         },
         "handle_type": 0,
         "interpolation": 0
        },
        {
         "co": {
          "X": 29.0,
          "Y": 3.0
         },
         "handle_left": {
          "X": 0.5,
          "Y": 1.0
         },
         "handle_right": {
          "X": 0.5,
          "Y": 0.0
         },
         "handle_type": 0,
         "interpolation": 0
        }
       ]
      },
      "reader": {
       "acodec": "",
       "audio_bit_rate": 0,
       "audio_stream_index": -1,
       "audio_timebase": {
        "den": 1,
        "num": 1
       },
       "channel_layout": 4,
       "channels": 0,
       "display_ratio": {
        "den": 4,
        "num": 5
       },
       "duration": 3600.0,
       "file_size": "5832000",
       "fps": {
        "den": 1,
        "num": 30
       },
       "has_audio": false,
       "has_single_image": true,
       "has_video": true,
       "height": 576,
       "interlaced_frame": false,
       "metadata": {},
       "path": "@transitions/common/fade.svg",
       "pixel_format": -1,
       "pixel_ratio": {
        "den": 1,
        "num": 1
       },
       "sample_rate": 0,
       "top_field_first": true,
       "type": "QtImageReader",
       "vcodec": "",
       "video_bit_rate": 0,
       "video_length": "108000",
       "video_stream_index": -1,
       "video_timebase": {
        "den": 30,
        "num": 1
       },
       "width": 720
      },
      "replace_image": false,
      "id": "NA5Q7HM0AA"
     },
     {
      "layer": 3000000,
      "title": "Transition",
      "type": "Mask",
      "position": 290.23333333333335,
      "start": 0,
      "end": 0.9583333333333212,
      "brightness": {
       "Points": [
        {
         "co": {
          "X": 1.0,
          "Y": -1.0
         },
         "handle_left": {
          "X": 0.5,
          "Y": 1.0
         },
         "handle_right": {
          "X": 0.5,
          "Y": 0.0
         },
         "handle_type": 0,
         "interpolation": 0
        },
        {
         "co": {
          "X": 29.0,
          "Y": 1.0
         },
         "handle_left": {
          "X": 0.5,
          "Y": 1.0
         },
         "handle_right": {
          "X": 0.5,
          "Y": 0.0
         },
         "handle_type": 0,
         "interpolation": 0
        }
       ]
      },
      "contrast": {
       "Points": [
        {
         "co": {
          "X": 1.0,
          "Y": 3.0
         },
         "handle_left": {
          "X": 0.5,
          "Y": 1.0
         },
         "handle_right": {
          "X": 0.5,
          "Y": 0.0
         },
         "handle_type": 0,
         "interpolation": 0
        },
        {
         "co": {
          "X": 29.0,
          "Y": 3.0
         },
         "handle_left": {
          "X": 0.5,
          "Y": 1.0
         },
         "handle_right": {
          "X": 0.5,
          "Y": 0.0
         },
         "handle_type": 0,
         "interpolation": 0
        }
       ]
      },
      "reader": {
       "acodec": "",
       "audio_bit_rate": 0,
       "audio_stream_index": -1,
       "audio_timebase": {
        "den": 1,
        "num": 1
       },
       "channel_layout": 4,
       "channels": 0,
       "display_ratio": {
        "den": 4,
        "num": 5
       },
       "duration": 3600.0,
       "file_size": "5832000",
       "fps": {
        "den": 1,
        "num": 30
       },
       "has_audio": false,
       "has_single_image": true,
       "has_video": true,
       "height": 576,
       "interlaced_frame": false,
       "metadata": {},
       "path": "@transitions/common/fade.svg",
       "pixel_format": -1,
       "pixel_ratio": {
        "den": 1,
        "num": 1
       },
       "sample_rate": 0,
       "top_field_first": true,
       "type": "QtImageReader",
       "vcodec": "",
       "video_bit_rate": 0,
       "video_length": "108000",
       "video_stream_index": -1,
       "video_timebase": {
        "den": 30,
        "num": 1
       },
       "width": 720
      },
      "replace_image": false,
      "id": "2MOTFUXKD2"
     },
     {
      "id": "WTQLA8YM9N",
      "layer": 1000000,
      "title": "Transition",
      "type": "Mask",
      "position": 297.26666666666665,
      "start": 0,
      "end": 1.3359143138669818,
      "brightness": {
       "Points": [
        {
         "co": {
          "X": 1.0,
          "Y": 1.0
         },
         "handle_left": {
          "X": 0.5,
          "Y": 1.0
         },
         "handle_right": {
          "X": 0.5,
          "Y": 0.0
         },
         "handle_type": 0,
         "interpolation": 0
        },
        {
         "co": {
          "X": 40.0,
          "Y": -1.0
         },
         "handle_left": {
          "X": 0.5,
          "Y": 1.0
         },
         "handle_right": {
          "X": 0.5,
          "Y": 0.0
         },
         "handle_type": 0,
         "interpolation": 0
        }
       ]
      },
      "contrast": {
       "Points": [
        {
         "co": {
          "X": 1.0,
          "Y": 3.0
         },
         "handle_left": {
          "X": 0.5,
          "Y": 1.0
         },
         "handle_right": {
          "X": 0.5,
          "Y": 0.0
         },
         "handle_type": 0,
         "interpolation": 0
        },
        {
         "co": {
          "X": 40.0,
          "Y": 3.0
         },
         "handle_left": {
          "X": 0.5,
          "Y": 1.0
         },
         "handle_right": {
          "X": 0.5,
          "Y": 0.0
         },
         "handle_type": 0,
         "interpolation": 0
        }
       ]
      },
      "reader": {
       "acodec": "",
       "audio_bit_rate": 0,
       "audio_stream_index": -1,
       "audio_timebase": {
        "den": 1,
        "num": 1
       },
       "channel_layout": 4,
       "channels": 0,
       "display_ratio": {
        "den": 4,
        "num": 5
       },
       "duration": 3600.0,
       "file_size": "5832000",
       "fps": {
        "den": 1,
        "num": 30
       },
       "has_audio": false,
       "has_single_image": true,
       "has_video": true,
       "height": 576,
       "interlaced_frame": false,
       "metadata": {},
       "path": "@transitions/common/fade.svg",
       "pixel_format": -1,
       "pixel_ratio": {
        "den": 1,
        "num": 1
       },
       "sample_rate": 0,
       "top_field_first": true,
       "type": "QtImageReader",
       "vcodec": "",
       "video_bit_rate": 0,
       "video_length": "108000",
       "video_stream_index": -1,
       "video_timebase": {
        "den": 30,
        "num": 1
       },
       "width": 720
      },
      "replace_image": false
     },
     {
      "layer": 3000000,
      "title": "Transition",
      "type": "Mask",
      "position": 298.8333333333333,
      "start": 0,
      "end": 0.9583333333333212,
      "brightness": {
       "Points": [
        {
         "co": {
          "X": 1.0,
          "Y": 1.0
         },
         "handle_left": {
          "X": 0.5,
          "Y": 1.0
         },
         "handle_right": {
          "X": 0.5,
          "Y": 0.0
         },
         "handle_type": 0,
         "interpolation": 0
        },
        {
         "co": {
          "X": 29.0,
          "Y": -1.0
         },
         "handle_left": {
          "X": 0.5,
          "Y": 1.0
         },
         "handle_right": {
          "X": 0.5,
          "Y": 0.0
         },
         "handle_type": 0,
         "interpolation": 0
        }
       ]
      },
      "contrast": {
       "Points": [
        {
         "co": {
          "X": 1.0,
          "Y": 3.0
         },
         "handle_left": {
          "X": 0.5,
          "Y": 1.0
         },
         "handle_right": {
          "X": 0.5,
          "Y": 0.0
         },
         "handle_type": 0,
         "interpolation": 0
        },
        {
         "co": {
          "X": 29.0,
          "Y": 3.0
         },
         "handle_left": {
          "X": 0.5,
          "Y": 1.0
         },
         "handle_right": {
          "X": 0.5,
          "Y": 0.0
         },
         "handle_type": 0,
         "interpolation": 0
        }
       ]
      },
      "reader": {
       "acodec": "",
       "audio_bit_rate": 0,
       "audio_stream_index": -1,
       "audio_timebase": {
        "den": 1,
        "num": 1
       },
       "channel_layout": 4,
       "channels": 0,
       "display_ratio": {
        "den": 4,
        "num": 5
       },
       "duration": 3600.0,
       "file_size": "5832000",
       "fps": {
        "den": 1,
        "num": 30
       },
       "has_audio": false,
       "has_single_image": true,
       "has_video": true,
       "height": 576,
       "interlaced_frame": false,
       "metadata": {},
       "path": "@transitions/common/fade.svg",
       "pixel_format": -1,
       "pixel_ratio": {
        "den": 1,
        "num": 1
       },
       "sample_rate": 0,
       "top_field_first": true,
       "type": "QtImageReader",
       "vcodec": "",
       "video_bit_rate": 0,
       "video_length": "108000",
       "video_stream_index": -1,
       "video_timebase": {
        "den": 30,
        "num": 1
       },
       "width": 720
      },
      "replace_image": false,
      "id": "2YX9MN7OBR"
     },
     {
      "layer": 2000000,
      "title": "Transition",
      "type": "Mask",
      "position": 300.6666666666667,
      "start": 0,
      "end": 0.9583333333333212,
      "brightness": {
       "Points": [
        {
         "co": {
          "X": 1.0,
          "Y": 1.0
         },
         "handle_left": {
          "X": 0.5,
          "Y": 1.0
         },
         "handle_right": {
          "X": 0.5,
          "Y": 0.0
         },
         "handle_type": 0,
         "interpolation": 0
        },
        {
         "co": {
          "X": 29.0,
          "Y": -1.0
         },
         "handle_left": {
          "X": 0.5,
          "Y": 1.0
         },
         "handle_right": {
          "X": 0.5,
          "Y": 0.0
         },
         "handle_type": 0,
         "interpolation": 0
        }
       ]
      },
      "contrast": {
       "Points": [
        {
         "co": {
          "X": 1.0,
          "Y": 3.0
         },
         "handle_left": {
          "X": 0.5,
          "Y": 1.0
         },
         "handle_right": {
          "X": 0.5,
          "Y": 0.0
         },
         "handle_type": 0,
         "interpolation": 0
        },
        {
         "co": {
          "X": 29.0,
          "Y": 3.0
         },
         "handle_left": {
          "X": 0.5,
          "Y": 1.0
         },
         "handle_right": {
          "X": 0.5,
          "Y": 0.0
         },
         "handle_type": 0,
         "interpolation": 0
        }
       ]
      },
      "reader": {
       "acodec": "",
       "audio_bit_rate": 0,
       "audio_stream_index": -1,
       "audio_timebase": {
        "den": 1,
        "num": 1
       },
       "channel_layout": 4,
       "channels": 0,
       "display_ratio": {
        "den": 4,
        "num": 5
       },
       "duration": 3600.0,
       "file_size": "5832000",
       "fps": {
        "den": 1,
        "num": 30
       },
       "has_audio": false,
       "has_single_image": true,
       "has_video": true,
       "height": 576,
       "interlaced_frame": false,
       "metadata": {},
       "path": "@transitions/common/fade.svg",
       "pixel_format": -1,
       "pixel_ratio": {
        "den": 1,
        "num": 1
       },
       "sample_rate": 0,
       "top_field_first": true,
       "type": "QtImageReader",
       "vcodec": "",
       "video_bit_rate": 0,
       "video_length": "108000",
       "video_stream_index": -1,
       "video_timebase": {
        "den": 30,
        "num": 1
       },
       "width": 720
      },
      "replace_image": false,
      "id": "NZZROKB146"
     },
     {
      "layer": 2000000,
      "title": "Transition",
      "type": "Mask",
      "position": 303.8333333333333,
      "start": 0,
      "end": 0.9583333333333212,
      "brightness": {
       "Points": [
        {
         "co": {
          "X": 1.0,
          "Y": -1.0
         },
         "handle_left": {
          "X": 0.5,
          "Y": 1.0
         },
         "handle_right": {
          "X": 0.5,
          "Y": 0.0
         },
         "handle_type": 0,
         "interpolation": 0
        },
        {
         "co": {
          "X": 29.0,
          "Y": 1.0
         },
         "handle_left": {
          "X": 0.5,
          "Y": 1.0
         },
         "handle_right": {
          "X": 0.5,
          "Y": 0.0
         },
         "handle_type": 0,
         "interpolation": 0
        }
       ]
      },
      "contrast": {
       "Points": [
        {
         "co": {
          "X": 1.0,
          "Y": 3.0
         },
         "handle_left": {
          "X": 0.5,
          "Y": 1.0
         },
         "handle_right": {
          "X": 0.5,
          "Y": 0.0
         },
         "handle_type": 0,
         "interpolation": 0
        },
        {
         "co": {
          "X": 29.0,
          "Y": 3.0
         },
         "handle_left": {
          "X": 0.5,
          "Y": 1.0
         },
         "handle_right": {
          "X": 0.5,
          "Y": 0.0
         },
         "handle_type": 0,
         "interpolation": 0
        }
       ]
      },
      "reader": {
       "acodec": "",
       "audio_bit_rate": 0,
       "audio_stream_index": -1,
       "audio_timebase": {
        "den": 1,
        "num": 1
       },
       "channel_layout": 4,
       "channels": 0,
       "display_ratio": {
        "den": 4,
        "num": 5
       },
       "duration": 3600.0,
       "file_size": "5832000",
       "fps": {
        "den": 1,
        "num": 30
       },
       "has_audio": false,
       "has_single_image": true,
       "has_video": true,
       "height": 576,
       "interlaced_frame": false,
       "metadata": {},
       "path": "@transitions/common/fade.svg",
       "pixel_format": -1,
       "pixel_ratio": {
        "den": 1,
        "num": 1
       },
       "sample_rate": 0,
       "top_field_first": true,
       "type": "QtImageReader",
       "vcodec": "",
       "video_bit_rate": 0,
       "video_length": "108000",
       "video_stream_index": -1,
       "video_timebase": {
        "den": 30,
        "num": 1
       },
       "width": 720
      },
      "replace_image": false,
      "id": "QSGPQIF0I4"
     },
     {
      "layer": 2000000,
      "title": "Transition",
      "type": "Mask",
      "position": 306.8666666666667,
      "start": 0,
      "end": 0.9583333333333212,
      "brightness": {
       "Points": [
        {
         "co": {
          "X": 1.0,
          "Y": 1.0
         },
         "handle_left": {
          "X": 0.5,
          "Y": 1.0
         },
         "handle_right": {
          "X": 0.5,
          "Y": 0.0
         },
         "handle_type": 0,
         "interpolation": 0
        },
        {
         "co": {
          "X": 29.0,
          "Y": -1.0
         },
         "handle_left": {
          "X": 0.5,
          "Y": 1.0
         },
         "handle_right": {
          "X": 0.5,
          "Y": 0.0
         },
         "handle_type": 0,
         "interpolation": 0
        }
       ]
      },
      "contrast": {
       "Points": [
        {
         "co": {
          "X": 1.0,
          "Y": 3.0
         },
         "handle_left": {
          "X": 0.5,
          "Y": 1.0
         },
         "handle_right": {
          "X": 0.5,
          "Y": 0.0
         },
         "handle_type": 0,
         "interpolation": 0
        },
        {
         "co": {
          "X": 29.0,
          "Y": 3.0
         },
         "handle_left": {
          "X": 0.5,
          "Y": 1.0
         },
         "handle_right": {
          "X": 0.5,
          "Y": 0.0
         },
         "handle_type": 0,
         "interpolation": 0
        }
       ]
      },
      "reader": {
       "acodec": "",
       "audio_bit_rate": 0,
       "audio_stream_index": -1,
       "audio_timebase": {
        "den": 1,
        "num": 1
       },
       "channel_layout": 4,
       "channels": 0,
       "display_ratio": {
        "den": 4,
        "num": 5
       },
       "duration": 3600.0,
       "file_size": "5832000",
       "fps": {
        "den": 1,
        "num": 30
       },
       "has_audio": false,
       "has_single_image": true,
       "has_video": true,
       "height": 576,
       "interlaced_frame": false,
       "metadata": {},
       "path": "@transitions/common/fade.svg",
       "pixel_format": -1,
       "pixel_ratio": {
        "den": 1,
        "num": 1
       },
       "sample_rate": 0,
       "top_field_first": true,
       "type": "QtImageReader",
       "vcodec": "",
       "video_bit_rate": 0,
       "video_length": "108000",
       "video_stream_index": -1,
       "video_timebase": {
        "den": 30,
        "num": 1
       },
       "width": 720
      },
      "replace_image": false,
      "id": "OHTIUW0RSR"
     },
     {
      "layer": 2000000,
      "title": "Transition",
      "type": "Mask",
      "position": 312.3,
      "start": 0,
      "end": 0.9583333333333212,
      "brightness": {
       "Points": [
        {
         "co": {
          "X": 1.0,
          "Y": -1.0
         },
         "handle_left": {
          "X": 0.5,
          "Y": 1.0
         },
         "handle_right": {
          "X": 0.5,
          "Y": 0.0
         },
         "handle_type": 0,
         "interpolation": 0
        },
        {
         "co": {
          "X": 29.0,
          "Y": 1.0
         },
         "handle_left": {
          "X": 0.5,
          "Y": 1.0
         },
         "handle_right": {
          "X": 0.5,
          "Y": 0.0
         },
         "handle_type": 0,
         "interpolation": 0
        }
       ]
      },
      "contrast": {
       "Points": [
        {
         "co": {
          "X": 1.0,
          "Y": 3.0
         },
         "handle_left": {
          "X": 0.5,
          "Y": 1.0
         },
         "handle_right": {
          "X": 0.5,
          "Y": 0.0
         },
         "handle_type": 0,
         "interpolation": 0
        },
        {
         "co": {
          "X": 29.0,
          "Y": 3.0
         },
         "handle_left": {
          "X": 0.5,
          "Y": 1.0
         },
         "handle_right": {
          "X": 0.5,
          "Y": 0.0
         },
         "handle_type": 0,
         "interpolation": 0
        }
       ]
      },
      "reader": {
       "acodec": "",
       "audio_bit_rate": 0,
       "audio_stream_index": -1,
       "audio_timebase": {
        "den": 1,
        "num": 1
       },
       "channel_layout": 4,
       "channels": 0,
       "display_ratio": {
        "den": 4,
        "num": 5
       },
       "duration": 3600.0,
       "file_size": "5832000",
       "fps": {
        "den": 1,
        "num": 30
       },
       "has_audio": false,
       "has_single_image": true,
       "has_video": true,
       "height": 576,
       "interlaced_frame": false,
       "metadata": {},
       "path": "@transitions/common/fade.svg",
       "pixel_format": -1,
       "pixel_ratio": {
        "den": 1,
        "num": 1
       },
       "sample_rate": 0,
       "top_field_first": true,
       "type": "QtImageReader",
       "vcodec": "",
       "video_bit_rate": 0,
       "video_length": "108000",
       "video_stream_index": -1,
       "video_timebase": {
        "den": 30,
        "num": 1
       },
       "width": 720
      },
      "replace_image": false,
      "id": "6SPUUOIG1O"
     },
     {
      "layer": 3000000,
      "title": "Transition",
      "type": "Mask",
      "position": 328.6,
      "start": 0,
      "end": 0.9583333333333212,
      "brightness": {
       "Points": [
        {
         "co": {
          "X": 1.0,
          "Y": -1.0
         },
         "handle_left": {
          "X": 0.5,
          "Y": 1.0
         },
         "handle_right": {
          "X": 0.5,
          "Y": 0.0
         },
         "handle_type": 0,
         "interpolation": 0
        },
        {
         "co": {
          "X": 29.0,
          "Y": 1.0
         },
         "handle_left": {
          "X": 0.5,
          "Y": 1.0
         },
         "handle_right": {
          "X": 0.5,
          "Y": 0.0
         },
         "handle_type": 0,
         "interpolation": 0
        }
       ]
      },
      "contrast": {
       "Points": [
        {
         "co": {
          "X": 1.0,
          "Y": 3.0
         },
         "handle_left": {
          "X": 0.5,
          "Y": 1.0
         },
         "handle_right": {
          "X": 0.5,
          "Y": 0.0
         },
         "handle_type": 0,
         "interpolation": 0
        },
        {
         "co": {
          "X": 29.0,
          "Y": 3.0
         },
         "handle_left": {
          "X": 0.5,
          "Y": 1.0
         },
         "handle_right": {
          "X": 0.5,
          "Y": 0.0
         },
         "handle_type": 0,
         "interpolation": 0
        }
       ]
      },
      "reader": {
       "acodec": "",
       "audio_bit_rate": 0,
       "audio_stream_index": -1,
       "audio_timebase": {
        "den": 1,
        "num": 1
       },
       "channel_layout": 4,
       "channels": 0,
       "display_ratio": {
        "den": 4,
        "num": 5
       },
       "duration": 3600.0,
       "file_size": "5832000",
       "fps": {
        "den": 1,
        "num": 30
       },
       "has_audio": false,
       "has_single_image": true,
       "has_video": true,
       "height": 576,
       "interlaced_frame": false,
       "metadata": {},
       "path": "@transitions/common/fade.svg",
       "pixel_format": -1,
       "pixel_ratio": {
        "den": 1,
        "num": 1
       },
       "sample_rate": 0,
       "top_field_first": true,
       "type": "QtImageReader",
       "vcodec": "",
       "video_bit_rate": 0,
       "video_length": "108000",
       "video_stream_index": -1,
       "video_timebase": {
        "den": 30,
        "num": 1
       },
       "width": 720
      },
      "replace_image": false,
      "id": "P8E8OYE1HL"
     },
     {
      "layer": 3000000,
      "title": "Transition",
      "type": "Mask",
      "position": 331.93333333333334,
      "start": 0,
      "end": 0.9583333333333212,
      "brightness": {
       "Points": [
        {
         "co": {
          "X": 1.0,
          "Y": 1.0
         },
         "handle_left": {
          "X": 0.5,
          "Y": 1.0
         },
         "handle_right": {
          "X": 0.5,
          "Y": 0.0
         },
         "handle_type": 0,
         "interpolation": 0
        },
        {
         "co": {
          "X": 29.0,
          "Y": -1.0
         },
         "handle_left": {
          "X": 0.5,
          "Y": 1.0
         },
         "handle_right": {
          "X": 0.5,
          "Y": 0.0
         },
         "handle_type": 0,
         "interpolation": 0
        }
       ]
      },
      "contrast": {
       "Points": [
        {
         "co": {
          "X": 1.0,
          "Y": 3.0
         },
         "handle_left": {
          "X": 0.5,
          "Y": 1.0
         },
         "handle_right": {
          "X": 0.5,
          "Y": 0.0
         },
         "handle_type": 0,
         "interpolation": 0
        },
        {
         "co": {
          "X": 29.0,
          "Y": 3.0
         },
         "handle_left": {
          "X": 0.5,
          "Y": 1.0
         },
         "handle_right": {
          "X": 0.5,
          "Y": 0.0
         },
         "handle_type": 0,
         "interpolation": 0
        }
       ]
      },
      "reader": {
       "acodec": "",
       "audio_bit_rate": 0,
       "audio_stream_index": -1,
       "audio_timebase": {
        "den": 1,
        "num": 1
       },
       "channel_layout": 4,
       "channels": 0,
       "display_ratio": {
        "den": 4,
        "num": 5
       },
       "duration": 3600.0,
       "file_size": "5832000",
       "fps": {
        "den": 1,
        "num": 30
       },
       "has_audio": false,
       "has_single_image": true,
       "has_video": true,
       "height": 576,
       "interlaced_frame": false,
       "metadata": {},
       "path": "@transitions/common/fade.svg",
       "pixel_format": -1,
       "pixel_ratio": {
        "den": 1,
        "num": 1
       },
       "sample_rate": 0,
       "top_field_first": true,
       "type": "QtImageReader",
       "vcodec": "",
       "video_bit_rate": 0,
       "video_length": "108000",
       "video_stream_index": -1,
       "video_timebase": {
        "den": 30,
        "num": 1
       },
       "width": 720
      },
      "replace_image": false,
      "id": "U8TADCPK80"
     },
     {
      "layer": 2000000,
      "title": "Transition",
      "type": "Mask",
      "position": 334.06666666666666,
      "start": 0,
      "end": 0.9583333333333212,
      "brightness": {
       "Points": [
        {
         "co": {
          "X": 1.0,
          "Y": 1.0
         },
         "handle_left": {
          "X": 0.5,
          "Y": 1.0
         },
         "handle_right": {
          "X": 0.5,
          "Y": 0.0
         },
         "handle_type": 0,
         "interpolation": 0
        },
        {
         "co": {
          "X": 29.0,
          "Y": -1.0
         },
         "handle_left": {
          "X": 0.5,
          "Y": 1.0
         },
         "handle_right": {
          "X": 0.5,
          "Y": 0.0
         },
         "handle_type": 0,
         "interpolation": 0
        }
       ]
      },
      "contrast": {
       "Points": [
        {
         "co": {
          "X": 1.0,
          "Y": 3.0
         },
         "handle_left": {
          "X": 0.5,
          "Y": 1.0
         },
         "handle_right": {
          "X": 0.5,
          "Y": 0.0
         },
         "handle_type": 0,
         "interpolation": 0
        },
        {
         "co": {
          "X": 29.0,
          "Y": 3.0
         },
         "handle_left": {
          "X": 0.5,
          "Y": 1.0
         },
         "handle_right": {
          "X": 0.5,
          "Y": 0.0
         },
         "handle_type": 0,
         "interpolation": 0
        }
       ]
      },
      "reader": {
       "acodec": "",
       "audio_bit_rate": 0,
       "audio_stream_index": -1,
       "audio_timebase": {
        "den": 1,
        "num": 1
       },
       "channel_layout": 4,
       "channels": 0,
       "display_ratio": {
        "den": 4,
        "num": 5
       },
       "duration": 3600.0,
       "file_size": "5832000",
       "fps": {
        "den": 1,
        "num": 30
       },
       "has_audio": false,
       "has_single_image": true,
       "has_video": true,
       "height": 576,
       "interlaced_frame": false,
       "metadata": {},
       "path": "@transitions/common/fade.svg",
       "pixel_format": -1,
       "pixel_ratio": {
        "den": 1,
        "num": 1
       },
       "sample_rate": 0,
       "top_field_first": true,
       "type": "QtImageReader",
       "vcodec": "",
       "video_bit_rate": 0,
       "video_length": "108000",
       "video_stream_index": -1,
       "video_timebase": {
        "den": 30,
        "num": 1
       },
       "width": 720
      },
      "replace_image": false,
      "id": "MJ858I17GB"
     },
     {
      "layer": 2000000,
      "title": "Transition",
      "type": "Mask",
      "position": 339.53333333333336,
      "start": 0,
      "end": 0.9583333333333212,
      "brightness": {
       "Points": [
        {
         "co": {
          "X": 1.0,
          "Y": -1.0
         },
         "handle_left": {
          "X": 0.5,
          "Y": 1.0
         },
         "handle_right": {
          "X": 0.5,
          "Y": 0.0
         },
         "handle_type": 0,
         "interpolation": 0
        },
        {
         "co": {
          "X": 29.0,
          "Y": 1.0
         },
         "handle_left": {
          "X": 0.5,
          "Y": 1.0
         },
         "handle_right": {
          "X": 0.5,
          "Y": 0.0
         },
         "handle_type": 0,
         "interpolation": 0
        }
       ]
      },
      "contrast": {
       "Points": [
        {
         "co": {
          "X": 1.0,
          "Y": 3.0
         },
         "handle_left": {
          "X": 0.5,
          "Y": 1.0
         },
         "handle_right": {
          "X": 0.5,
          "Y": 0.0
         },
         "handle_type": 0,
         "interpolation": 0
        },
        {
         "co": {
          "X": 29.0,
          "Y": 3.0
         },
         "handle_left": {
          "X": 0.5,
          "Y": 1.0
         },
         "handle_right": {
          "X": 0.5,
          "Y": 0.0
         },
         "handle_type": 0,
         "interpolation": 0
        }
       ]
      },
      "reader": {
       "acodec": "",
       "audio_bit_rate": 0,
       "audio_stream_index": -1,
       "audio_timebase": {
        "den": 1,
        "num": 1
       },
       "channel_layout": 4,
       "channels": 0,
       "display_ratio": {
        "den": 4,
        "num": 5
       },
       "duration": 3600.0,
       "file_size": "5832000",
       "fps": {
        "den": 1,
        "num": 30
       },
       "has_audio": false,
       "has_single_image": true,
       "has_video": true,
       "height": 576,
       "interlaced_frame": false,
       "metadata": {},
       "path": "@transitions/common/fade.svg",
       "pixel_format": -1,
       "pixel_ratio": {
        "den": 1,
        "num": 1
       },
       "sample_rate": 0,
       "top_field_first": true,
       "type": "QtImageReader",
       "vcodec": "",
       "video_bit_rate": 0,
       "video_length": "108000",
       "video_stream_index": -1,
       "video_timebase": {
        "den": 30,
        "num": 1
       },
       "width": 720
      },
      "replace_image": false,
      "id": "BRY9NYJBVJ"
     },
     {
      "layer": 3000000,
      "title": "Transition",
      "type": "Mask",
      "position": 342.3333333333333,
      "start": 0,
      "end": 0.9583333333333212,
      "brightness": {
       "Points": [
        {
         "co": {
          "X": 1.0,
          "Y": -1.0
         },
         "handle_left": {
          "X": 0.5,
          "Y": 1.0
         },
         "handle_right": {
          "X": 0.5,
          "Y": 0.0
         },
         "handle_type": 0,
         "interpolation": 0
        },
        {
         "co": {
          "X": 29.0,
          "Y": 1.0
         },
         "handle_left": {
          "X": 0.5,
          "Y": 1.0
         },
         "handle_right": {
          "X": 0.5,
          "Y": 0.0
         },
         "handle_type": 0,
         "interpolation": 0
        }
       ]
      },
      "contrast": {
       "Points": [
        {
         "co": {
          "X": 1.0,
          "Y": 3.0
         },
         "handle_left": {
          "X": 0.5,
          "Y": 1.0
         },
         "handle_right": {
          "X": 0.5,
          "Y": 0.0
         },
         "handle_type": 0,
         "interpolation": 0
        },
        {
         "co": {
          "X": 29.0,
          "Y": 3.0
         },
         "handle_left": {
          "X": 0.5,
          "Y": 1.0
         },
         "handle_right": {
          "X": 0.5,
          "Y": 0.0
         },
         "handle_type": 0,
         "interpolation": 0
        }
       ]
      },
      "reader": {
       "acodec": "",
       "audio_bit_rate": 0,
       "audio_stream_index": -1,
       "audio_timebase": {
        "den": 1,
        "num": 1
       },
       "channel_layout": 4,
       "channels": 0,
       "display_ratio": {
        "den": 4,
        "num": 5
       },
       "duration": 3600.0,
       "file_size": "5832000",
       "fps": {
        "den": 1,
        "num": 30
       },
       "has_audio": false,
       "has_single_image": true,
       "has_video": true,
       "height": 576,
       "interlaced_frame": false,
       "metadata": {},
       "path": "@transitions/common/fade.svg",
       "pixel_format": -1,
       "pixel_ratio": {
        "den": 1,
        "num": 1
       },
       "sample_rate": 0,
       "top_field_first": true,
       "type": "QtImageReader",
       "vcodec": "",
       "video_bit_rate": 0,
       "video_length": "108000",
       "video_stream_index": -1,
       "video_timebase": {
        "den": 30,
        "num": 1
       },
       "width": 720
      },
      "replace_image": false,
      "id": "S7KO8U24VG"
     },
     {
      "layer": 2000000,
      "title": "Transition",
      "type": "Mask",
      "position": 350.1,
      "start": 0,
      "end": 0.9583333333333212,
      "brightness": {
       "Points": [
        {
         "co": {
          "X": 1.0,
          "Y": 1.0
         },
         "handle_left": {
          "X": 0.5,
          "Y": 1.0
         },
         "handle_right": {
          "X": 0.5,
          "Y": 0.0
         },
         "handle_type": 0,
         "interpolation": 0
        },
        {
         "co": {
          "X": 29.0,
          "Y": -1.0
         },
         "handle_left": {
          "X": 0.5,
          "Y": 1.0
         },
         "handle_right": {
          "X": 0.5,
          "Y": 0.0
         },
         "handle_type": 0,
         "interpolation": 0
        }
       ]
      },
      "contrast": {
       "Points": [
        {
         "co": {
          "X": 1.0,
          "Y": 3.0
         },
         "handle_left": {
          "X": 0.5,
          "Y": 1.0
         },
         "handle_right": {
          "X": 0.5,
          "Y": 0.0
         },
         "handle_type": 0,
         "interpolation": 0
        },
        {
         "co": {
          "X": 29.0,
          "Y": 3.0
         },
         "handle_left": {
          "X": 0.5,
          "Y": 1.0
         },
         "handle_right": {
          "X": 0.5,
          "Y": 0.0
         },
         "handle_type": 0,
         "interpolation": 0
        }
       ]
      },
      "reader": {
       "acodec": "",
       "audio_bit_rate": 0,
       "audio_stream_index": -1,
       "audio_timebase": {
        "den": 1,
        "num": 1
       },
       "channel_layout": 4,
       "channels": 0,
       "display_ratio": {
        "den": 4,
        "num": 5
       },
       "duration": 3600.0,
       "file_size": "5832000",
       "fps": {
        "den": 1,
        "num": 30
       },
       "has_audio": false,
       "has_single_image": true,
       "has_video": true,
       "height": 576,
       "interlaced_frame": false,
       "metadata": {},
       "path": "@transitions/common/fade.svg",
       "pixel_format": -1,
       "pixel_ratio": {
        "den": 1,
        "num": 1
       },
       "sample_rate": 0,
       "top_field_first": true,
       "type": "QtImageReader",
       "vcodec": "",
       "video_bit_rate": 0,
       "video_length": "108000",
       "video_stream_index": -1,
       "video_timebase": {
        "den": 30,
        "num": 1
       },
       "width": 720
      },
      "replace_image": false,
      "id": "5AV58SED81"
     },
     {
      "layer": 1000000,
      "title": "Transition",
      "type": "Mask",
      "position": 349.46666666666664,
      "start": 0,
      "end": 0.9583333333333212,
      "brightness": {
       "Points": [
        {
         "co": {
          "X": 1.0,
          "Y": -1.0
         },
         "handle_left": {
          "X": 0.5,
          "Y": 1.0
         },
         "handle_right": {
          "X": 0.5,
          "Y": 0.0
         },
         "handle_type": 0,
         "interpolation": 0
        },
        {
         "co": {
          "X": 29.0,
          "Y": 1.0
         },
         "handle_left": {
          "X": 0.5,
          "Y": 1.0
         },
         "handle_right": {
          "X": 0.5,
          "Y": 0.0
         },
         "handle_type": 0,
         "interpolation": 0
        }
       ]
      },
      "contrast": {
       "Points": [
        {
         "co": {
          "X": 1.0,
          "Y": 3.0
         },
         "handle_left": {
          "X": 0.5,
          "Y": 1.0
         },
         "handle_right": {
          "X": 0.5,
          "Y": 0.0
         },
         "handle_type": 0,
         "interpolation": 0
        },
        {
         "co": {
          "X": 29.0,
          "Y": 3.0
         },
         "handle_left": {
          "X": 0.5,
          "Y": 1.0
         },
         "handle_right": {
          "X": 0.5,
          "Y": 0.0
         },
         "handle_type": 0,
         "interpolation": 0
        }
       ]
      },
      "reader": {
       "acodec": "",
       "audio_bit_rate": 0,
       "audio_stream_index": -1,
       "audio_timebase": {
        "den": 1,
        "num": 1
       },
       "channel_layout": 4,
       "channels": 0,
       "display_ratio": {
        "den": 4,
        "num": 5
       },
       "duration": 3600.0,
       "file_size": "5832000",
       "fps": {
        "den": 1,
        "num": 30
       },
       "has_audio": false,
       "has_single_image": true,
       "has_video": true,
       "height": 576,
       "interlaced_frame": false,
       "metadata": {},
       "path": "@transitions/common/fade.svg",
       "pixel_format": -1,
       "pixel_ratio": {
        "den": 1,
        "num": 1
       },
       "sample_rate": 0,
       "top_field_first": true,
       "type": "QtImageReader",
       "vcodec": "",
       "video_bit_rate": 0,
       "video_length": "108000",
       "video_stream_index": -1,
       "video_timebase": {
        "den": 30,
        "num": 1
       },
       "width": 720
      },
      "replace_image": false,
      "id": "8JGOS2299B"
     },
     {
      "layer": 2000000,
      "title": "Transition",
      "type": "Mask",
      "position": 351.8666666666667,
      "start": 0,
      "end": 0.9583333333333212,
      "brightness": {
       "Points": [
        {
         "co": {
          "X": 1.0,
          "Y": -1.0
         },
         "handle_left": {
          "X": 0.5,
          "Y": 1.0
         },
         "handle_right": {
          "X": 0.5,
          "Y": 0.0
         },
         "handle_type": 0,
         "interpolation": 0
        },
        {
         "co": {
          "X": 29.0,
          "Y": 1.0
         },
         "handle_left": {
          "X": 0.5,
          "Y": 1.0
         },
         "handle_right": {
          "X": 0.5,
          "Y": 0.0
         },
         "handle_type": 0,
         "interpolation": 0
        }
       ]
      },
      "contrast": {
       "Points": [
        {
         "co": {
          "X": 1.0,
          "Y": 3.0
         },
         "handle_left": {
          "X": 0.5,
          "Y": 1.0
         },
         "handle_right": {
          "X": 0.5,
          "Y": 0.0
         },
         "handle_type": 0,
         "interpolation": 0
        },
        {
         "co": {
          "X": 29.0,
          "Y": 3.0
         },
         "handle_left": {
          "X": 0.5,
          "Y": 1.0
         },
         "handle_right": {
          "X": 0.5,
          "Y": 0.0
         },
         "handle_type": 0,
         "interpolation": 0
        }
       ]
      },
      "reader": {
       "acodec": "",
       "audio_bit_rate": 0,
       "audio_stream_index": -1,
       "audio_timebase": {
        "den": 1,
        "num": 1
       },
       "channel_layout": 4,
       "channels": 0,
       "display_ratio": {
        "den": 4,
        "num": 5
       },
       "duration": 3600.0,
       "file_size": "5832000",
       "fps": {
        "den": 1,
        "num": 30
       },
       "has_audio": false,
       "has_single_image": true,
       "has_video": true,
       "height": 576,
       "interlaced_frame": false,
       "metadata": {},
       "path": "@transitions/common/fade.svg",
       "pixel_format": -1,
       "pixel_ratio": {
        "den": 1,
        "num": 1
       },
       "sample_rate": 0,
       "top_field_first": true,
       "type": "QtImageReader",
       "vcodec": "",
       "video_bit_rate": 0,
       "video_length": "108000",
       "video_stream_index": -1,
       "video_timebase": {
        "den": 30,
        "num": 1
       },
       "width": 720
      },
      "replace_image": false,
      "id": "5F68C2C237"
     },
     {
      "layer": 1000000,
      "title": "Transition",
      "type": "Mask",
      "position": 352.26666666666665,
      "start": 0,
      "end": 0.9583333333333212,
      "brightness": {
       "Points": [
        {
         "co": {
          "X": 1.0,
          "Y": 1.0
         },
         "handle_left": {
          "X": 0.5,
          "Y": 1.0
         },
         "handle_right": {
          "X": 0.5,
          "Y": 0.0
         },
         "handle_type": 0,
         "interpolation": 0
        },
        {
         "co": {
          "X": 29.0,
          "Y": -1.0
         },
         "handle_left": {
          "X": 0.5,
          "Y": 1.0
         },
         "handle_right": {
          "X": 0.5,
          "Y": 0.0
         },
         "handle_type": 0,
         "interpolation": 0
        }
       ]
      },
      "contrast": {
       "Points": [
        {
         "co": {
          "X": 1.0,
          "Y": 3.0
         },
         "handle_left": {
          "X": 0.5,
          "Y": 1.0
         },
         "handle_right": {
          "X": 0.5,
          "Y": 0.0
         },
         "handle_type": 0,
         "interpolation": 0
        },
        {
         "co": {
          "X": 29.0,
          "Y": 3.0
         },
         "handle_left": {
          "X": 0.5,
          "Y": 1.0
         },
         "handle_right": {
          "X": 0.5,
          "Y": 0.0
         },
         "handle_type": 0,
         "interpolation": 0
        }
       ]
      },
      "reader": {
       "acodec": "",
       "audio_bit_rate": 0,
       "audio_stream_index": -1,
       "audio_timebase": {
        "den": 1,
        "num": 1
       },
       "channel_layout": 4,
       "channels": 0,
       "display_ratio": {
        "den": 4,
        "num": 5
       },
       "duration": 3600.0,
       "file_size": "5832000",
       "fps": {
        "den": 1,
        "num": 30
       },
       "has_audio": false,
       "has_single_image": true,
       "has_video": true,
       "height": 576,
       "interlaced_frame": false,
       "metadata": {},
       "path": "@transitions/common/fade.svg",
       "pixel_format": -1,
       "pixel_ratio": {
        "den": 1,
        "num": 1
       },
       "sample_rate": 0,
       "top_field_first": true,
       "type": "QtImageReader",
       "vcodec": "",
       "video_bit_rate": 0,
       "video_length": "108000",
       "video_stream_index": -1,
       "video_timebase": {
        "den": 30,
        "num": 1
       },
       "width": 720
      },
      "replace_image": false,
      "id": "77AZRML20F"
     },
     {
      "layer": 3000000,
      "title": "Transition",
      "type": "Mask",
      "position": 353.6,
      "start": 0,
      "end": 0.9583333333333212,
      "brightness": {
       "Points": [
        {
         "co": {
          "X": 1.0,
          "Y": 1.0
         },
         "handle_left": {
          "X": 0.5,
          "Y": 1.0
         },
         "handle_right": {
          "X": 0.5,
          "Y": 0.0
         },
         "handle_type": 0,
         "interpolation": 0
        },
        {
         "co": {
          "X": 29.0,
          "Y": -1.0
         },
         "handle_left": {
          "X": 0.5,
          "Y": 1.0
         },
         "handle_right": {
          "X": 0.5,
          "Y": 0.0
         },
         "handle_type": 0,
         "interpolation": 0
        }
       ]
      },
      "contrast": {
       "Points": [
        {
         "co": {
          "X": 1.0,
          "Y": 3.0
         },
         "handle_left": {
          "X": 0.5,
          "Y": 1.0
         },
         "handle_right": {
          "X": 0.5,
          "Y": 0.0
         },
         "handle_type": 0,
         "interpolation": 0
        },
        {
         "co": {
          "X": 29.0,
          "Y": 3.0
         },
         "handle_left": {
          "X": 0.5,
          "Y": 1.0
         },
         "handle_right": {
          "X": 0.5,
          "Y": 0.0
         },
         "handle_type": 0,
         "interpolation": 0
        }
       ]
      },
      "reader": {
       "acodec": "",
       "audio_bit_rate": 0,
       "audio_stream_index": -1,
       "audio_timebase": {
        "den": 1,
        "num": 1
       },
       "channel_layout": 4,
       "channels": 0,
       "display_ratio": {
        "den": 4,
        "num": 5
       },
       "duration": 3600.0,
       "file_size": "5832000",
       "fps": {
        "den": 1,
        "num": 30
       },
       "has_audio": false,
       "has_single_image": true,
       "has_video": true,
       "height": 576,
       "interlaced_frame": false,
       "metadata": {},
       "path": "@transitions/common/fade.svg",
       "pixel_format": -1,
       "pixel_ratio": {
        "den": 1,
        "num": 1
       },
       "sample_rate": 0,
       "top_field_first": true,
       "type": "QtImageReader",
       "vcodec": "",
       "video_bit_rate": 0,
       "video_length": "108000",
       "video_stream_index": -1,
       "video_timebase": {
        "den": 30,
        "num": 1
       },
       "width": 720
      },
      "replace_image": false,
      "id": "MMJBZO0PWA"
     },
     {
      "layer": 2000000,
      "title": "Transition",
      "type": "Mask",
      "position": 354.56666666666666,
      "start": 0,
      "end": 0.9583333333333212,
      "brightness": {
       "Points": [
        {
         "co": {
          "X": 1.0,
          "Y": 1.0
         },
         "handle_left": {
          "X": 0.5,
          "Y": 1.0
         },
         "handle_right": {
          "X": 0.5,
          "Y": 0.0
         },
         "handle_type": 0,
         "interpolation": 0
        },
        {
         "co": {
          "X": 29.0,
          "Y": -1.0
         },
         "handle_left": {
          "X": 0.5,
          "Y": 1.0
         },
         "handle_right": {
          "X": 0.5,
          "Y": 0.0
         },
         "handle_type": 0,
         "interpolation": 0
        }
       ]
      },
      "contrast": {
       "Points": [
        {
         "co": {
          "X": 1.0,
          "Y": 3.0
         },
         "handle_left": {
          "X": 0.5,
          "Y": 1.0
         },
         "handle_right": {
          "X": 0.5,
          "Y": 0.0
         },
         "handle_type": 0,
         "interpolation": 0
        },
        {
         "co": {
          "X": 29.0,
          "Y": 3.0
         },
         "handle_left": {
          "X": 0.5,
          "Y": 1.0
         },
         "handle_right": {
          "X": 0.5,
          "Y": 0.0
         },
         "handle_type": 0,
         "interpolation": 0
        }
       ]
      },
      "reader": {
       "acodec": "",
       "audio_bit_rate": 0,
       "audio_stream_index": -1,
       "audio_timebase": {
        "den": 1,
        "num": 1
       },
       "channel_layout": 4,
       "channels": 0,
       "display_ratio": {
        "den": 4,
        "num": 5
       },
       "duration": 3600.0,
       "file_size": "5832000",
       "fps": {
        "den": 1,
        "num": 30
       },
       "has_audio": false,
       "has_single_image": true,
       "has_video": true,
       "height": 576,
       "interlaced_frame": false,
       "metadata": {},
       "path": "@transitions/common/fade.svg",
       "pixel_format": -1,
       "pixel_ratio": {
        "den": 1,
        "num": 1
       },
       "sample_rate": 0,
       "top_field_first": true,
       "type": "QtImageReader",
       "vcodec": "",
       "video_bit_rate": 0,
       "video_length": "108000",
       "video_stream_index": -1,
       "video_timebase": {
        "den": 30,
        "num": 1
       },
       "width": 720
      },
      "replace_image": false,
      "id": "5CAWVA5QQX"
     },
     {
      "layer": 3000000,
      "title": "Transition",
      "type": "Mask",
      "position": 361.3666666666667,
      "start": 0,
      "end": 0.9583333333333212,
      "brightness": {
       "Points": [
        {
         "co": {
          "X": 1.0,
          "Y": -1.0
         },
         "handle_left": {
          "X": 0.5,
          "Y": 1.0
         },
         "handle_right": {
          "X": 0.5,
          "Y": 0.0
         },
         "handle_type": 0,
         "interpolation": 0
        },
        {
         "co": {
          "X": 29.0,
          "Y": 1.0
         },
         "handle_left": {
          "X": 0.5,
          "Y": 1.0
         },
         "handle_right": {
          "X": 0.5,
          "Y": 0.0
         },
         "handle_type": 0,
         "interpolation": 0
        }
       ]
      },
      "contrast": {
       "Points": [
        {
         "co": {
          "X": 1.0,
          "Y": 3.0
         },
         "handle_left": {
          "X": 0.5,
          "Y": 1.0
         },
         "handle_right": {
          "X": 0.5,
          "Y": 0.0
         },
         "handle_type": 0,
         "interpolation": 0
        },
        {
         "co": {
          "X": 29.0,
          "Y": 3.0
         },
         "handle_left": {
          "X": 0.5,
          "Y": 1.0
         },
         "handle_right": {
          "X": 0.5,
          "Y": 0.0
         },
         "handle_type": 0,
         "interpolation": 0
        }
       ]
      },
      "reader": {
       "acodec": "",
       "audio_bit_rate": 0,
       "audio_stream_index": -1,
       "audio_timebase": {
        "den": 1,
        "num": 1
       },
       "channel_layout": 4,
       "channels": 0,
       "display_ratio": {
        "den": 4,
        "num": 5
       },
       "duration": 3600.0,
       "file_size": "5832000",
       "fps": {
        "den": 1,
        "num": 30
       },
       "has_audio": false,
       "has_single_image": true,
       "has_video": true,
       "height": 576,
       "interlaced_frame": false,
       "metadata": {},
       "path": "@transitions/common/fade.svg",
       "pixel_format": -1,
       "pixel_ratio": {
        "den": 1,
        "num": 1
       },
       "sample_rate": 0,
       "top_field_first": true,
       "type": "QtImageReader",
       "vcodec": "",
       "video_bit_rate": 0,
       "video_length": "108000",
       "video_stream_index": -1,
       "video_timebase": {
        "den": 30,
        "num": 1
       },
       "width": 720
      },
      "replace_image": false,
      "id": "DRFLC6XURC"
     },
     {
      "layer": 2000000,
      "title": "Transition",
      "type": "Mask",
      "position": 361.3666666666667,
      "start": 0,
      "end": 0.9583333333333212,
      "brightness": {
       "Points": [
        {
         "co": {
          "X": 1.0,
          "Y": -1.0
         },
         "handle_left": {
          "X": 0.5,
          "Y": 1.0
         },
         "handle_right": {
          "X": 0.5,
          "Y": 0.0
         },
         "handle_type": 0,
         "interpolation": 0
        },
        {
         "co": {
          "X": 29.0,
          "Y": 1.0
         },
         "handle_left": {
          "X": 0.5,
          "Y": 1.0
         },
         "handle_right": {
          "X": 0.5,
          "Y": 0.0
         },
         "handle_type": 0,
         "interpolation": 0
        }
       ]
      },
      "contrast": {
       "Points": [
        {
         "co": {
          "X": 1.0,
          "Y": 3.0
         },
         "handle_left": {
          "X": 0.5,
          "Y": 1.0
         },
         "handle_right": {
          "X": 0.5,
          "Y": 0.0
         },
         "handle_type": 0,
         "interpolation": 0
        },
        {
         "co": {
          "X": 29.0,
          "Y": 3.0
         },
         "handle_left": {
          "X": 0.5,
          "Y": 1.0
         },
         "handle_right": {
          "X": 0.5,
          "Y": 0.0
         },
         "handle_type": 0,
         "interpolation": 0
        }
       ]
      },
      "reader": {
       "acodec": "",
       "audio_bit_rate": 0,
       "audio_stream_index": -1,
       "audio_timebase": {
        "den": 1,
        "num": 1
       },
       "channel_layout": 4,
       "channels": 0,
       "display_ratio": {
        "den": 4,
        "num": 5
       },
       "duration": 3600.0,
       "file_size": "5832000",
       "fps": {
        "den": 1,
        "num": 30
       },
       "has_audio": false,
       "has_single_image": true,
       "has_video": true,
       "height": 576,
       "interlaced_frame": false,
       "metadata": {},
       "path": "@transitions/common/fade.svg",
       "pixel_format": -1,
       "pixel_ratio": {
        "den": 1,
        "num": 1
       },
       "sample_rate": 0,
       "top_field_first": true,
       "type": "QtImageReader",
       "vcodec": "",
       "video_bit_rate": 0,
       "video_length": "108000",
       "video_stream_index": -1,
       "video_timebase": {
        "den": 30,
        "num": 1
       },
       "width": 720
      },
      "replace_image": false,
      "id": "QF9XRRUE6J"
     },
     {
      "id": "FC1M7VZDMT",
      "layer": 1000000,
      "title": "Transition",
      "type": "Mask",
      "position": 366.1,
      "start": 0,
      "end": 0.8551973066132632,
      "brightness": {
       "Points": [
        {
         "co": {
          "X": 1.0,
          "Y": 1.0
         },
         "handle_left": {
          "X": 0.5,
          "Y": 1.0
         },
         "handle_right": {
          "X": 0.5,
          "Y": 0.0
         },
         "handle_type": 0,
         "interpolation": 0
        },
        {
         "co": {
          "X": 27.0,
          "Y": -1.0
         },
         "handle_left": {
          "X": 0.5,
          "Y": 1.0
         },
         "handle_right": {
          "X": 0.5,
          "Y": 0.0
         },
         "handle_type": 0,
         "interpolation": 0
        }
       ]
      },
      "contrast": {
       "Points": [
        {
         "co": {
          "X": 1.0,
          "Y": 3.0
         },
         "handle_left": {
          "X": 0.5,
          "Y": 1.0
         },
         "handle_right": {
          "X": 0.5,
          "Y": 0.0
         },
         "handle_type": 0,
         "interpolation": 0
        }
       ]
      },
      "reader": {
       "acodec": "",
       "audio_bit_rate": 0,
       "audio_stream_index": -1,
       "audio_timebase": {
        "den": 1,
        "num": 1
       },
       "channel_layout": 4,
       "channels": 0,
       "display_ratio": {
        "den": 4,
        "num": 5
       },
       "duration": 3600.0,
       "file_size": "5832000",
       "fps": {
        "den": 1,
        "num": 30
       },
       "has_audio": false,
       "has_single_image": true,
       "has_video": true,
       "height": 576,
       "interlaced_frame": false,
       "metadata": {},
       "path": "@transitions/common/fade.svg",
       "pixel_format": -1,
       "pixel_ratio": {
        "den": 1,
        "num": 1
       },
       "sample_rate": 0,
       "top_field_first": true,
       "type": "QtImageReader",
       "vcodec": "",
       "video_bit_rate": 0,
       "video_length": "108000",
       "video_stream_index": -1,
       "video_timebase": {
        "den": 30,
        "num": 1
       },
       "width": 720
      },
      "replace_image": false
     },
     {
      "layer": 2000000,
      "title": "Transition",
      "type": "Mask",
      "position": 367.93333333333334,
      "start": 0,
      "end": 0.9583333333333212,
      "brightness": {
       "Points": [
        {
         "co": {
          "X": 1.0,
          "Y": 1.0
         },
         "handle_left": {
          "X": 0.5,
          "Y": 1.0
         },
         "handle_right": {
          "X": 0.5,
          "Y": 0.0
         },
         "handle_type": 0,
         "interpolation": 0
        },
        {
         "co": {
          "X": 29.0,
          "Y": -1.0
         },
         "handle_left": {
          "X": 0.5,
          "Y": 1.0
         },
         "handle_right": {
          "X": 0.5,
          "Y": 0.0
         },
         "handle_type": 0,
         "interpolation": 0
        }
       ]
      },
      "contrast": {
       "Points": [
        {
         "co": {
          "X": 1.0,
          "Y": 3.0
         },
         "handle_left": {
          "X": 0.5,
          "Y": 1.0
         },
         "handle_right": {
          "X": 0.5,
          "Y": 0.0
         },
         "handle_type": 0,
         "interpolation": 0
        },
        {
         "co": {
          "X": 29.0,
          "Y": 3.0
         },
         "handle_left": {
          "X": 0.5,
          "Y": 1.0
         },
         "handle_right": {
          "X": 0.5,
          "Y": 0.0
         },
         "handle_type": 0,
         "interpolation": 0
        }
       ]
      },
      "reader": {
       "acodec": "",
       "audio_bit_rate": 0,
       "audio_stream_index": -1,
       "audio_timebase": {
        "den": 1,
        "num": 1
       },
       "channel_layout": 4,
       "channels": 0,
       "display_ratio": {
        "den": 4,
        "num": 5
       },
       "duration": 3600.0,
       "file_size": "5832000",
       "fps": {
        "den": 1,
        "num": 30
       },
       "has_audio": false,
       "has_single_image": true,
       "has_video": true,
       "height": 576,
       "interlaced_frame": false,
       "metadata": {},
       "path": "@transitions/common/fade.svg",
       "pixel_format": -1,
       "pixel_ratio": {
        "den": 1,
        "num": 1
       },
       "sample_rate": 0,
       "top_field_first": true,
       "type": "QtImageReader",
       "vcodec": "",
       "video_bit_rate": 0,
       "video_length": "108000",
       "video_stream_index": -1,
       "video_timebase": {
        "den": 30,
        "num": 1
       },
       "width": 720
      },
      "replace_image": false,
      "id": "OHK6WN896H"
     },
     {
      "layer": 3000000,
      "title": "Transition",
      "type": "Mask",
      "position": 366.96666666666664,
      "start": 0,
      "end": 0.9583333333333212,
      "brightness": {
       "Points": [
        {
         "co": {
          "X": 1.0,
          "Y": 1.0
         },
         "handle_left": {
          "X": 0.5,
          "Y": 1.0
         },
         "handle_right": {
          "X": 0.5,
          "Y": 0.0
         },
         "handle_type": 0,
         "interpolation": 0
        },
        {
         "co": {
          "X": 29.0,
          "Y": -1.0
         },
         "handle_left": {
          "X": 0.5,
          "Y": 1.0
         },
         "handle_right": {
          "X": 0.5,
          "Y": 0.0
         },
         "handle_type": 0,
         "interpolation": 0
        }
       ]
      },
      "contrast": {
       "Points": [
        {
         "co": {
          "X": 1.0,
          "Y": 3.0
         },
         "handle_left": {
          "X": 0.5,
          "Y": 1.0
         },
         "handle_right": {
          "X": 0.5,
          "Y": 0.0
         },
         "handle_type": 0,
         "interpolation": 0
        },
        {
         "co": {
          "X": 29.0,
          "Y": 3.0
         },
         "handle_left": {
          "X": 0.5,
          "Y": 1.0
         },
         "handle_right": {
          "X": 0.5,
          "Y": 0.0
         },
         "handle_type": 0,
         "interpolation": 0
        }
       ]
      },
      "reader": {
       "acodec": "",
       "audio_bit_rate": 0,
       "audio_stream_index": -1,
       "audio_timebase": {
        "den": 1,
        "num": 1
       },
       "channel_layout": 4,
       "channels": 0,
       "display_ratio": {
        "den": 4,
        "num": 5
       },
       "duration": 3600.0,
       "file_size": "5832000",
       "fps": {
        "den": 1,
        "num": 30
       },
       "has_audio": false,
       "has_single_image": true,
       "has_video": true,
       "height": 576,
       "interlaced_frame": false,
       "metadata": {},
       "path": "@transitions/common/fade.svg",
       "pixel_format": -1,
       "pixel_ratio": {
        "den": 1,
        "num": 1
       },
       "sample_rate": 0,
       "top_field_first": true,
       "type": "QtImageReader",
       "vcodec": "",
       "video_bit_rate": 0,
       "video_length": "108000",
       "video_stream_index": -1,
       "video_timebase": {
        "den": 30,
        "num": 1
       },
       "width": 720
      },
      "replace_image": false,
      "id": "OA6OCOHDKK"
     },
     {
      "layer": 2000000,
      "title": "Transition",
      "type": "Mask",
      "position": 377.6,
      "start": 0,
      "end": 0.9583333333333212,
      "brightness": {
       "Points": [
        {
         "co": {
          "X": 1.0,
          "Y": -1.0
         },
         "handle_left": {
          "X": 0.5,
          "Y": 1.0
         },
         "handle_right": {
          "X": 0.5,
          "Y": 0.0
         },
         "handle_type": 0,
         "interpolation": 0
        },
        {
         "co": {
          "X": 29.0,
          "Y": 1.0
         },
         "handle_left": {
          "X": 0.5,
          "Y": 1.0
         },
         "handle_right": {
          "X": 0.5,
          "Y": 0.0
         },
         "handle_type": 0,
         "interpolation": 0
        }
       ]
      },
      "contrast": {
       "Points": [
        {
         "co": {
          "X": 1.0,
          "Y": 3.0
         },
         "handle_left": {
          "X": 0.5,
          "Y": 1.0
         },
         "handle_right": {
          "X": 0.5,
          "Y": 0.0
         },
         "handle_type": 0,
         "interpolation": 0
        },
        {
         "co": {
          "X": 29.0,
          "Y": 3.0
         },
         "handle_left": {
          "X": 0.5,
          "Y": 1.0
         },
         "handle_right": {
          "X": 0.5,
          "Y": 0.0
         },
         "handle_type": 0,
         "interpolation": 0
        }
       ]
      },
      "reader": {
       "acodec": "",
       "audio_bit_rate": 0,
       "audio_stream_index": -1,
       "audio_timebase": {
        "den": 1,
        "num": 1
       },
       "channel_layout": 4,
       "channels": 0,
       "display_ratio": {
        "den": 4,
        "num": 5
       },
       "duration": 3600.0,
       "file_size": "5832000",
       "fps": {
        "den": 1,
        "num": 30
       },
       "has_audio": false,
       "has_single_image": true,
       "has_video": true,
       "height": 576,
       "interlaced_frame": false,
       "metadata": {},
       "path": "@transitions/common/fade.svg",
       "pixel_format": -1,
       "pixel_ratio": {
        "den": 1,
        "num": 1
       },
       "sample_rate": 0,
       "top_field_first": true,
       "type": "QtImageReader",
       "vcodec": "",
       "video_bit_rate": 0,
       "video_length": "108000",
       "video_stream_index": -1,
       "video_timebase": {
        "den": 30,
        "num": 1
       },
       "width": 720
      },
      "replace_image": false,
      "id": "421OPHR9MK"
     },
     {
      "layer": 3000000,
      "title": "Transition",
      "type": "Mask",
      "position": 377.6,
      "start": 0,
      "end": 0.9583333333333212,
      "brightness": {
       "Points": [
        {
         "co": {
          "X": 1.0,
          "Y": -1.0
         },
         "handle_left": {
          "X": 0.5,
          "Y": 1.0
         },
         "handle_right": {
          "X": 0.5,
          "Y": 0.0
         },
         "handle_type": 0,
         "interpolation": 0
        },
        {
         "co": {
          "X": 29.0,
          "Y": 1.0
         },
         "handle_left": {
          "X": 0.5,
          "Y": 1.0
         },
         "handle_right": {
          "X": 0.5,
          "Y": 0.0
         },
         "handle_type": 0,
         "interpolation": 0
        }
       ]
      },
      "contrast": {
       "Points": [
        {
         "co": {
          "X": 1.0,
          "Y": 3.0
         },
         "handle_left": {
          "X": 0.5,
          "Y": 1.0
         },
         "handle_right": {
          "X": 0.5,
          "Y": 0.0
         },
         "handle_type": 0,
         "interpolation": 0
        },
        {
         "co": {
          "X": 29.0,
          "Y": 3.0
         },
         "handle_left": {
          "X": 0.5,
          "Y": 1.0
         },
         "handle_right": {
          "X": 0.5,
          "Y": 0.0
         },
         "handle_type": 0,
         "interpolation": 0
        }
       ]
      },
      "reader": {
       "acodec": "",
       "audio_bit_rate": 0,
       "audio_stream_index": -1,
       "audio_timebase": {
        "den": 1,
        "num": 1
       },
       "channel_layout": 4,
       "channels": 0,
       "display_ratio": {
        "den": 4,
        "num": 5
       },
       "duration": 3600.0,
       "file_size": "5832000",
       "fps": {
        "den": 1,
        "num": 30
       },
       "has_audio": false,
       "has_single_image": true,
       "has_video": true,
       "height": 576,
       "interlaced_frame": false,
       "metadata": {},
       "path": "@transitions/common/fade.svg",
       "pixel_format": -1,
       "pixel_ratio": {
        "den": 1,
        "num": 1
       },
       "sample_rate": 0,
       "top_field_first": true,
       "type": "QtImageReader",
       "vcodec": "",
       "video_bit_rate": 0,
       "video_length": "108000",
       "video_stream_index": -1,
       "video_timebase": {
        "den": 30,
        "num": 1
       },
       "width": 720
      },
      "replace_image": false,
      "id": "H386U9MYCS"
     },
     {
      "id": "DEQDSRBIJG",
      "layer": 1000000,
      "title": "Transition",
      "type": "Mask",
      "position": 381.3666666666667,
      "start": 0,
      "end": 0.5666666666666629,
      "brightness": {
       "Points": [
        {
         "co": {
          "X": 1.0,
          "Y": 1.0
         },
         "handle_left": {
          "X": 0.5,
          "Y": 1.0
         },
         "handle_right": {
          "X": 0.5,
          "Y": 0.0
         },
         "handle_type": 0,
         "interpolation": 0
        },
        {
         "co": {
          "X": 18.0,
          "Y": -1.0
         },
         "handle_left": {
          "X": 0.5,
          "Y": 1.0
         },
         "handle_right": {
          "X": 0.5,
          "Y": 0.0
         },
         "handle_type": 0,
         "interpolation": 0
        }
       ]
      },
      "contrast": {
       "Points": [
        {
         "co": {
          "X": 1.0,
          "Y": 3.0
         },
         "handle_left": {
          "X": 0.5,
          "Y": 1.0
         },
         "handle_right": {
          "X": 0.5,
          "Y": 0.0
         },
         "handle_type": 0,
         "interpolation": 0
        }
       ]
      },
      "reader": {
       "acodec": "",
       "audio_bit_rate": 0,
       "audio_stream_index": -1,
       "audio_timebase": {
        "den": 1,
        "num": 1
       },
       "channel_layout": 4,
       "channels": 0,
       "display_ratio": {
        "den": 4,
        "num": 5
       },
       "duration": 3600.0,
       "file_size": "5832000",
       "fps": {
        "den": 1,
        "num": 30
       },
       "has_audio": false,
       "has_single_image": true,
       "has_video": true,
       "height": 576,
       "interlaced_frame": false,
       "metadata": {},
       "path": "@transitions/common/fade.svg",
       "pixel_format": -1,
       "pixel_ratio": {
        "den": 1,
        "num": 1
       },
       "sample_rate": 0,
       "top_field_first": true,
       "type": "QtImageReader",
       "vcodec": "",
       "video_bit_rate": 0,
       "video_length": "108000",
       "video_stream_index": -1,
       "video_timebase": {
        "den": 30,
        "num": 1
       },
       "width": 720
      },
      "replace_image": false
     },
     {
      "layer": 3000000,
      "title": "Transition",
      "type": "Mask",
      "position": 381.93333333333334,
      "start": 0,
      "end": 0.9583333333333212,
      "brightness": {
       "Points": [
        {
         "co": {
          "X": 1.0,
          "Y": 1.0
         },
         "handle_left": {
          "X": 0.5,
          "Y": 1.0
         },
         "handle_right": {
          "X": 0.5,
          "Y": 0.0
         },
         "handle_type": 0,
         "interpolation": 0
        },
        {
         "co": {
          "X": 29.0,
          "Y": -1.0
         },
         "handle_left": {
          "X": 0.5,
          "Y": 1.0
         },
         "handle_right": {
          "X": 0.5,
          "Y": 0.0
         },
         "handle_type": 0,
         "interpolation": 0
        }
       ]
      },
      "contrast": {
       "Points": [
        {
         "co": {
          "X": 1.0,
          "Y": 3.0
         },
         "handle_left": {
          "X": 0.5,
          "Y": 1.0
         },
         "handle_right": {
          "X": 0.5,
          "Y": 0.0
         },
         "handle_type": 0,
         "interpolation": 0
        },
        {
         "co": {
          "X": 29.0,
          "Y": 3.0
         },
         "handle_left": {
          "X": 0.5,
          "Y": 1.0
         },
         "handle_right": {
          "X": 0.5,
          "Y": 0.0
         },
         "handle_type": 0,
         "interpolation": 0
        }
       ]
      },
      "reader": {
       "acodec": "",
       "audio_bit_rate": 0,
       "audio_stream_index": -1,
       "audio_timebase": {
        "den": 1,
        "num": 1
       },
       "channel_layout": 4,
       "channels": 0,
       "display_ratio": {
        "den": 4,
        "num": 5
       },
       "duration": 3600.0,
       "file_size": "5832000",
       "fps": {
        "den": 1,
        "num": 30
       },
       "has_audio": false,
       "has_single_image": true,
       "has_video": true,
       "height": 576,
       "interlaced_frame": false,
       "metadata": {},
       "path": "@transitions/common/fade.svg",
       "pixel_format": -1,
       "pixel_ratio": {
        "den": 1,
        "num": 1
       },
       "sample_rate": 0,
       "top_field_first": true,
       "type": "QtImageReader",
       "vcodec": "",
       "video_bit_rate": 0,
       "video_length": "108000",
       "video_stream_index": -1,
       "video_timebase": {
        "den": 30,
        "num": 1
       },
       "width": 720
      },
      "replace_image": false,
      "id": "DFSNRTEII0"
     },
     {
      "layer": 2000000,
      "title": "Transition",
      "type": "Mask",
      "position": 382.6666666666667,
      "start": 0,
      "end": 0.9583333333333212,
      "brightness": {
       "Points": [
        {
         "co": {
          "X": 1.0,
          "Y": 1.0
         },
         "handle_left": {
          "X": 0.5,
          "Y": 1.0
         },
         "handle_right": {
          "X": 0.5,
          "Y": 0.0
         },
         "handle_type": 0,
         "interpolation": 0
        },
        {
         "co": {
          "X": 29.0,
          "Y": -1.0
         },
         "handle_left": {
          "X": 0.5,
          "Y": 1.0
         },
         "handle_right": {
          "X": 0.5,
          "Y": 0.0
         },
         "handle_type": 0,
         "interpolation": 0
        }
       ]
      },
      "contrast": {
       "Points": [
        {
         "co": {
          "X": 1.0,
          "Y": 3.0
         },
         "handle_left": {
          "X": 0.5,
          "Y": 1.0
         },
         "handle_right": {
          "X": 0.5,
          "Y": 0.0
         },
         "handle_type": 0,
         "interpolation": 0
        },
        {
         "co": {
          "X": 29.0,
          "Y": 3.0
         },
         "handle_left": {
          "X": 0.5,
          "Y": 1.0
         },
         "handle_right": {
          "X": 0.5,
          "Y": 0.0
         },
         "handle_type": 0,
         "interpolation": 0
        }
       ]
      },
      "reader": {
       "acodec": "",
       "audio_bit_rate": 0,
       "audio_stream_index": -1,
       "audio_timebase": {
        "den": 1,
        "num": 1
       },
       "channel_layout": 4,
       "channels": 0,
       "display_ratio": {
        "den": 4,
        "num": 5
       },
       "duration": 3600.0,
       "file_size": "5832000",
       "fps": {
        "den": 1,
        "num": 30
       },
       "has_audio": false,
       "has_single_image": true,
       "has_video": true,
       "height": 576,
       "interlaced_frame": false,
       "metadata": {},
       "path": "@transitions/common/fade.svg",
       "pixel_format": -1,
       "pixel_ratio": {
        "den": 1,
        "num": 1
       },
       "sample_rate": 0,
       "top_field_first": true,
       "type": "QtImageReader",
       "vcodec": "",
       "video_bit_rate": 0,
       "video_length": "108000",
       "video_stream_index": -1,
       "video_timebase": {
        "den": 30,
        "num": 1
       },
       "width": 720
      },
      "replace_image": false,
      "id": "P8FSUID5CI"
     },
     {
      "layer": 3000000,
      "title": "Transition",
      "type": "Mask",
      "position": 389.76666666666665,
      "start": 0,
      "end": 0.9583333333333212,
      "brightness": {
       "Points": [
        {
         "co": {
          "X": 1.0,
          "Y": -1.0
         },
         "handle_left": {
          "X": 0.5,
          "Y": 1.0
         },
         "handle_right": {
          "X": 0.5,
          "Y": 0.0
         },
         "handle_type": 0,
         "interpolation": 0
        },
        {
         "co": {
          "X": 29.0,
          "Y": 1.0
         },
         "handle_left": {
          "X": 0.5,
          "Y": 1.0
         },
         "handle_right": {
          "X": 0.5,
          "Y": 0.0
         },
         "handle_type": 0,
         "interpolation": 0
        }
       ]
      },
      "contrast": {
       "Points": [
        {
         "co": {
          "X": 1.0,
          "Y": 3.0
         },
         "handle_left": {
          "X": 0.5,
          "Y": 1.0
         },
         "handle_right": {
          "X": 0.5,
          "Y": 0.0
         },
         "handle_type": 0,
         "interpolation": 0
        },
        {
         "co": {
          "X": 29.0,
          "Y": 3.0
         },
         "handle_left": {
          "X": 0.5,
          "Y": 1.0
         },
         "handle_right": {
          "X": 0.5,
          "Y": 0.0
         },
         "handle_type": 0,
         "interpolation": 0
        }
       ]
      },
      "reader": {
       "acodec": "",
       "audio_bit_rate": 0,
       "audio_stream_index": -1,
       "audio_timebase": {
        "den": 1,
        "num": 1
       },
       "channel_layout": 4,
       "channels": 0,
       "display_ratio": {
        "den": 4,
        "num": 5
       },
       "duration": 3600.0,
       "file_size": "5832000",
       "fps": {
        "den": 1,
        "num": 30
       },
       "has_audio": false,
       "has_single_image": true,
       "has_video": true,
       "height": 576,
       "interlaced_frame": false,
       "metadata": {},
       "path": "@transitions/common/fade.svg",
       "pixel_format": -1,
       "pixel_ratio": {
        "den": 1,
        "num": 1
       },
       "sample_rate": 0,
       "top_field_first": true,
       "type": "QtImageReader",
       "vcodec": "",
       "video_bit_rate": 0,
       "video_length": "108000",
       "video_stream_index": -1,
       "video_timebase": {
        "den": 30,
        "num": 1
       },
       "width": 720
      },
      "replace_image": false,
      "id": "VBQ9Z01OL0"
     },
     {
      "layer": 2000000,
      "title": "Transition",
      "type": "Mask",
      "position": 389.76666666666665,
      "start": 0,
      "end": 0.9583333333333212,
      "brightness": {
       "Points": [
        {
         "co": {
          "X": 1.0,
          "Y": -1.0
         },
         "handle_left": {
          "X": 0.5,
          "Y": 1.0
         },
         "handle_right": {
          "X": 0.5,
          "Y": 0.0
         },
         "handle_type": 0,
         "interpolation": 0
        },
        {
         "co": {
          "X": 29.0,
          "Y": 1.0
         },
         "handle_left": {
          "X": 0.5,
          "Y": 1.0
         },
         "handle_right": {
          "X": 0.5,
          "Y": 0.0
         },
         "handle_type": 0,
         "interpolation": 0
        }
       ]
      },
      "contrast": {
       "Points": [
        {
         "co": {
          "X": 1.0,
          "Y": 3.0
         },
         "handle_left": {
          "X": 0.5,
          "Y": 1.0
         },
         "handle_right": {
          "X": 0.5,
          "Y": 0.0
         },
         "handle_type": 0,
         "interpolation": 0
        },
        {
         "co": {
          "X": 29.0,
          "Y": 3.0
         },
         "handle_left": {
          "X": 0.5,
          "Y": 1.0
         },
         "handle_right": {
          "X": 0.5,
          "Y": 0.0
         },
         "handle_type": 0,
         "interpolation": 0
        }
       ]
      },
      "reader": {
       "acodec": "",
       "audio_bit_rate": 0,
       "audio_stream_index": -1,
       "audio_timebase": {
        "den": 1,
        "num": 1
       },
       "channel_layout": 4,
       "channels": 0,
       "display_ratio": {
        "den": 4,
        "num": 5
       },
       "duration": 3600.0,
       "file_size": "5832000",
       "fps": {
        "den": 1,
        "num": 30
       },
       "has_audio": false,
       "has_single_image": true,
       "has_video": true,
       "height": 576,
       "interlaced_frame": false,
       "metadata": {},
       "path": "@transitions/common/fade.svg",
       "pixel_format": -1,
       "pixel_ratio": {
        "den": 1,
        "num": 1
       },
       "sample_rate": 0,
       "top_field_first": true,
       "type": "QtImageReader",
       "vcodec": "",
       "video_bit_rate": 0,
       "video_length": "108000",
       "video_stream_index": -1,
       "video_timebase": {
        "den": 30,
        "num": 1
       },
       "width": 720
      },
      "replace_image": false,
      "id": "IEZZK69CXI"
     },
     {
      "layer": 1000000,
      "title": "Transition",
      "type": "Mask",
      "position": 401.3666666666667,
      "start": 0,
      "end": 0.9583333333333212,
      "brightness": {
       "Points": [
        {
         "co": {
          "X": 1.0,
          "Y": -1.0
         },
         "handle_left": {
          "X": 0.5,
          "Y": 1.0
         },
         "handle_right": {
          "X": 0.5,
          "Y": 0.0
         },
         "handle_type": 0,
         "interpolation": 0
        },
        {
         "co": {
          "X": 29.0,
          "Y": 1.0
         },
         "handle_left": {
          "X": 0.5,
          "Y": 1.0
         },
         "handle_right": {
          "X": 0.5,
          "Y": 0.0
         },
         "handle_type": 0,
         "interpolation": 0
        }
       ]
      },
      "contrast": {
       "Points": [
        {
         "co": {
          "X": 1.0,
          "Y": 3.0
         },
         "handle_left": {
          "X": 0.5,
          "Y": 1.0
         },
         "handle_right": {
          "X": 0.5,
          "Y": 0.0
         },
         "handle_type": 0,
         "interpolation": 0
        },
        {
         "co": {
          "X": 29.0,
          "Y": 3.0
         },
         "handle_left": {
          "X": 0.5,
          "Y": 1.0
         },
         "handle_right": {
          "X": 0.5,
          "Y": 0.0
         },
         "handle_type": 0,
         "interpolation": 0
        }
       ]
      },
      "reader": {
       "acodec": "",
       "audio_bit_rate": 0,
       "audio_stream_index": -1,
       "audio_timebase": {
        "den": 1,
        "num": 1
       },
       "channel_layout": 4,
       "channels": 0,
       "display_ratio": {
        "den": 4,
        "num": 5
       },
       "duration": 3600.0,
       "file_size": "5832000",
       "fps": {
        "den": 1,
        "num": 30
       },
       "has_audio": false,
       "has_single_image": true,
       "has_video": true,
       "height": 576,
       "interlaced_frame": false,
       "metadata": {},
       "path": "@transitions/common/fade.svg",
       "pixel_format": -1,
       "pixel_ratio": {
        "den": 1,
        "num": 1
       },
       "sample_rate": 0,
       "top_field_first": true,
       "type": "QtImageReader",
       "vcodec": "",
       "video_bit_rate": 0,
       "video_length": "108000",
       "video_stream_index": -1,
       "video_timebase": {
        "den": 30,
        "num": 1
       },
       "width": 720
      },
      "replace_image": false,
      "id": "GJ22WRRCCZ"
     },
     {
      "layer": 3000000,
      "title": "Transition",
      "type": "Mask",
      "position": 402.3333333333333,
      "start": 0,
      "end": 0.9583333333333212,
      "brightness": {
       "Points": [
        {
         "co": {
          "X": 1.0,
          "Y": 1.0
         },
         "handle_left": {
          "X": 0.5,
          "Y": 1.0
         },
         "handle_right": {
          "X": 0.5,
          "Y": 0.0
         },
         "handle_type": 0,
         "interpolation": 0
        },
        {
         "co": {
          "X": 29.0,
          "Y": -1.0
         },
         "handle_left": {
          "X": 0.5,
          "Y": 1.0
         },
         "handle_right": {
          "X": 0.5,
          "Y": 0.0
         },
         "handle_type": 0,
         "interpolation": 0
        }
       ]
      },
      "contrast": {
       "Points": [
        {
         "co": {
          "X": 1.0,
          "Y": 3.0
         },
         "handle_left": {
          "X": 0.5,
          "Y": 1.0
         },
         "handle_right": {
          "X": 0.5,
          "Y": 0.0
         },
         "handle_type": 0,
         "interpolation": 0
        },
        {
         "co": {
          "X": 29.0,
          "Y": 3.0
         },
         "handle_left": {
          "X": 0.5,
          "Y": 1.0
         },
         "handle_right": {
          "X": 0.5,
          "Y": 0.0
         },
         "handle_type": 0,
         "interpolation": 0
        }
       ]
      },
      "reader": {
       "acodec": "",
       "audio_bit_rate": 0,
       "audio_stream_index": -1,
       "audio_timebase": {
        "den": 1,
        "num": 1
       },
       "channel_layout": 4,
       "channels": 0,
       "display_ratio": {
        "den": 4,
        "num": 5
       },
       "duration": 3600.0,
       "file_size": "5832000",
       "fps": {
        "den": 1,
        "num": 30
       },
       "has_audio": false,
       "has_single_image": true,
       "has_video": true,
       "height": 576,
       "interlaced_frame": false,
       "metadata": {},
       "path": "@transitions/common/fade.svg",
       "pixel_format": -1,
       "pixel_ratio": {
        "den": 1,
        "num": 1
       },
       "sample_rate": 0,
       "top_field_first": true,
       "type": "QtImageReader",
       "vcodec": "",
       "video_bit_rate": 0,
       "video_length": "108000",
       "video_stream_index": -1,
       "video_timebase": {
        "den": 30,
        "num": 1
       },
       "width": 720
      },
      "replace_image": false,
      "id": "4P7MOTCP3S"
     },
     {
      "layer": 2000000,
      "title": "Transition",
      "type": "Mask",
      "position": 403.3,
      "start": 0,
      "end": 0.9583333333333212,
      "brightness": {
       "Points": [
        {
         "co": {
          "X": 1.0,
          "Y": 1.0
         },
         "handle_left": {
          "X": 0.5,
          "Y": 1.0
         },
         "handle_right": {
          "X": 0.5,
          "Y": 0.0
         },
         "handle_type": 0,
         "interpolation": 0
        },
        {
         "co": {
          "X": 29.0,
          "Y": -1.0
         },
         "handle_left": {
          "X": 0.5,
          "Y": 1.0
         },
         "handle_right": {
          "X": 0.5,
          "Y": 0.0
         },
         "handle_type": 0,
         "interpolation": 0
        }
       ]
      },
      "contrast": {
       "Points": [
        {
         "co": {
          "X": 1.0,
          "Y": 3.0
         },
         "handle_left": {
          "X": 0.5,
          "Y": 1.0
         },
         "handle_right": {
          "X": 0.5,
          "Y": 0.0
         },
         "handle_type": 0,
         "interpolation": 0
        },
        {
         "co": {
          "X": 29.0,
          "Y": 3.0
         },
         "handle_left": {
          "X": 0.5,
          "Y": 1.0
         },
         "handle_right": {
          "X": 0.5,
          "Y": 0.0
         },
         "handle_type": 0,
         "interpolation": 0
        }
       ]
      },
      "reader": {
       "acodec": "",
       "audio_bit_rate": 0,
       "audio_stream_index": -1,
       "audio_timebase": {
        "den": 1,
        "num": 1
       },
       "channel_layout": 4,
       "channels": 0,
       "display_ratio": {
        "den": 4,
        "num": 5
       },
       "duration": 3600.0,
       "file_size": "5832000",
       "fps": {
        "den": 1,
        "num": 30
       },
       "has_audio": false,
       "has_single_image": true,
       "has_video": true,
       "height": 576,
       "interlaced_frame": false,
       "metadata": {},
       "path": "@transitions/common/fade.svg",
       "pixel_format": -1,
       "pixel_ratio": {
        "den": 1,
        "num": 1
       },
       "sample_rate": 0,
       "top_field_first": true,
       "type": "QtImageReader",
       "vcodec": "",
       "video_bit_rate": 0,
       "video_length": "108000",
       "video_stream_index": -1,
       "video_timebase": {
        "den": 30,
        "num": 1
       },
       "width": 720
      },
      "replace_image": false,
      "id": "PGG0YMHOIW"
     },
     {
      "layer": 1000000,
      "title": "Transition",
      "type": "Mask",
      "position": 409.93333333333334,
      "start": 0,
      "end": 0.9583333333333212,
      "brightness": {
       "Points": [
        {
         "co": {
          "X": 1.0,
          "Y": 1.0
         },
         "handle_left": {
          "X": 0.5,
          "Y": 1.0
         },
         "handle_right": {
          "X": 0.5,
          "Y": 0.0
         },
         "handle_type": 0,
         "interpolation": 0
        },
        {
         "co": {
          "X": 29.0,
          "Y": -1.0
         },
         "handle_left": {
          "X": 0.5,
          "Y": 1.0
         },
         "handle_right": {
          "X": 0.5,
          "Y": 0.0
         },
         "handle_type": 0,
         "interpolation": 0
        }
       ]
      },
      "contrast": {
       "Points": [
        {
         "co": {
          "X": 1.0,
          "Y": 3.0
         },
         "handle_left": {
          "X": 0.5,
          "Y": 1.0
         },
         "handle_right": {
          "X": 0.5,
          "Y": 0.0
         },
         "handle_type": 0,
         "interpolation": 0
        },
        {
         "co": {
          "X": 29.0,
          "Y": 3.0
         },
         "handle_left": {
          "X": 0.5,
          "Y": 1.0
         },
         "handle_right": {
          "X": 0.5,
          "Y": 0.0
         },
         "handle_type": 0,
         "interpolation": 0
        }
       ]
      },
      "reader": {
       "acodec": "",
       "audio_bit_rate": 0,
       "audio_stream_index": -1,
       "audio_timebase": {
        "den": 1,
        "num": 1
       },
       "channel_layout": 4,
       "channels": 0,
       "display_ratio": {
        "den": 4,
        "num": 5
       },
       "duration": 3600.0,
       "file_size": "5832000",
       "fps": {
        "den": 1,
        "num": 30
       },
       "has_audio": false,
       "has_single_image": true,
       "has_video": true,
       "height": 576,
       "interlaced_frame": false,
       "metadata": {},
       "path": "@transitions/common/fade.svg",
       "pixel_format": -1,
       "pixel_ratio": {
        "den": 1,
        "num": 1
       },
       "sample_rate": 0,
       "top_field_first": true,
       "type": "QtImageReader",
       "vcodec": "",
       "video_bit_rate": 0,
       "video_length": "108000",
       "video_stream_index": -1,
       "video_timebase": {
        "den": 30,
        "num": 1
       },
       "width": 720
      },
      "replace_image": false,
      "id": "YM3R94HVH1"
     },
     {
      "layer": 2000000,
      "title": "Transition",
      "type": "Mask",
      "position": 415.26666666666665,
      "start": 0,
      "end": 0.9583333333333212,
      "brightness": {
       "Points": [
        {
         "co": {
          "X": 1.0,
          "Y": -1.0
         },
         "handle_left": {
          "X": 0.5,
          "Y": 1.0
         },
         "handle_right": {
          "X": 0.5,
          "Y": 0.0
         },
         "handle_type": 0,
         "interpolation": 0
        },
        {
         "co": {
          "X": 29.0,
          "Y": 1.0
         },
         "handle_left": {
          "X": 0.5,
          "Y": 1.0
         },
         "handle_right": {
          "X": 0.5,
          "Y": 0.0
         },
         "handle_type": 0,
         "interpolation": 0
        }
       ]
      },
      "contrast": {
       "Points": [
        {
         "co": {
          "X": 1.0,
          "Y": 3.0
         },
         "handle_left": {
          "X": 0.5,
          "Y": 1.0
         },
         "handle_right": {
          "X": 0.5,
          "Y": 0.0
         },
         "handle_type": 0,
         "interpolation": 0
        },
        {
         "co": {
          "X": 29.0,
          "Y": 3.0
         },
         "handle_left": {
          "X": 0.5,
          "Y": 1.0
         },
         "handle_right": {
          "X": 0.5,
          "Y": 0.0
         },
         "handle_type": 0,
         "interpolation": 0
        }
       ]
      },
      "reader": {
       "acodec": "",
       "audio_bit_rate": 0,
       "audio_stream_index": -1,
       "audio_timebase": {
        "den": 1,
        "num": 1
       },
       "channel_layout": 4,
       "channels": 0,
       "display_ratio": {
        "den": 4,
        "num": 5
       },
       "duration": 3600.0,
       "file_size": "5832000",
       "fps": {
        "den": 1,
        "num": 30
       },
       "has_audio": false,
       "has_single_image": true,
       "has_video": true,
       "height": 576,
       "interlaced_frame": false,
       "metadata": {},
       "path": "@transitions/common/fade.svg",
       "pixel_format": -1,
       "pixel_ratio": {
        "den": 1,
        "num": 1
       },
       "sample_rate": 0,
       "top_field_first": true,
       "type": "QtImageReader",
       "vcodec": "",
       "video_bit_rate": 0,
       "video_length": "108000",
       "video_stream_index": -1,
       "video_timebase": {
        "den": 30,
        "num": 1
       },
       "width": 720
      },
      "replace_image": false,
      "id": "26OJ2CVQNP"
     },
     {
      "layer": 1000000,
      "title": "Transition",
      "type": "Mask",
      "position": 415.26666666666665,
      "start": 0,
      "end": 0.9583333333333212,
      "brightness": {
       "Points": [
        {
         "co": {
          "X": 1.0,
          "Y": -1.0
         },
         "handle_left": {
          "X": 0.5,
          "Y": 1.0
         },
         "handle_right": {
          "X": 0.5,
          "Y": 0.0
         },
         "handle_type": 0,
         "interpolation": 0
        },
        {
         "co": {
          "X": 29.0,
          "Y": 1.0
         },
         "handle_left": {
          "X": 0.5,
          "Y": 1.0
         },
         "handle_right": {
          "X": 0.5,
          "Y": 0.0
         },
         "handle_type": 0,
         "interpolation": 0
        }
       ]
      },
      "contrast": {
       "Points": [
        {
         "co": {
          "X": 1.0,
          "Y": 3.0
         },
         "handle_left": {
          "X": 0.5,
          "Y": 1.0
         },
         "handle_right": {
          "X": 0.5,
          "Y": 0.0
         },
         "handle_type": 0,
         "interpolation": 0
        },
        {
         "co": {
          "X": 29.0,
          "Y": 3.0
         },
         "handle_left": {
          "X": 0.5,
          "Y": 1.0
         },
         "handle_right": {
          "X": 0.5,
          "Y": 0.0
         },
         "handle_type": 0,
         "interpolation": 0
        }
       ]
      },
      "reader": {
       "acodec": "",
       "audio_bit_rate": 0,
       "audio_stream_index": -1,
       "audio_timebase": {
        "den": 1,
        "num": 1
       },
       "channel_layout": 4,
       "channels": 0,
       "display_ratio": {
        "den": 4,
        "num": 5
       },
       "duration": 3600.0,
       "file_size": "5832000",
       "fps": {
        "den": 1,
        "num": 30
       },
       "has_audio": false,
       "has_single_image": true,
       "has_video": true,
       "height": 576,
       "interlaced_frame": false,
       "metadata": {},
       "path": "@transitions/common/fade.svg",
       "pixel_format": -1,
       "pixel_ratio": {
        "den": 1,
        "num": 1
       },
       "sample_rate": 0,
       "top_field_first": true,
       "type": "QtImageReader",
       "vcodec": "",
       "video_bit_rate": 0,
       "video_length": "108000",
       "video_stream_index": -1,
       "video_timebase": {
        "den": 30,
        "num": 1
       },
       "width": 720
      },
      "replace_image": false,
      "id": "FAALAWUR0G"
     },
     {
      "layer": 2000000,
      "title": "Transition",
      "type": "Mask",
      "position": 416.23333333333335,
      "start": 0,
      "end": 0.9583333333333212,
      "brightness": {
       "Points": [
        {
         "co": {
          "X": 1.0,
          "Y": 1.0
         },
         "handle_left": {
          "X": 0.5,
          "Y": 1.0
         },
         "handle_right": {
          "X": 0.5,
          "Y": 0.0
         },
         "handle_type": 0,
         "interpolation": 0
        },
        {
         "co": {
          "X": 29.0,
          "Y": -1.0
         },
         "handle_left": {
          "X": 0.5,
          "Y": 1.0
         },
         "handle_right": {
          "X": 0.5,
          "Y": 0.0
         },
         "handle_type": 0,
         "interpolation": 0
        }
       ]
      },
      "contrast": {
       "Points": [
        {
         "co": {
          "X": 1.0,
          "Y": 3.0
         },
         "handle_left": {
          "X": 0.5,
          "Y": 1.0
         },
         "handle_right": {
          "X": 0.5,
          "Y": 0.0
         },
         "handle_type": 0,
         "interpolation": 0
        },
        {
         "co": {
          "X": 29.0,
          "Y": 3.0
         },
         "handle_left": {
          "X": 0.5,
          "Y": 1.0
         },
         "handle_right": {
          "X": 0.5,
          "Y": 0.0
         },
         "handle_type": 0,
         "interpolation": 0
        }
       ]
      },
      "reader": {
       "acodec": "",
       "audio_bit_rate": 0,
       "audio_stream_index": -1,
       "audio_timebase": {
        "den": 1,
        "num": 1
       },
       "channel_layout": 4,
       "channels": 0,
       "display_ratio": {
        "den": 4,
        "num": 5
       },
       "duration": 3600.0,
       "file_size": "5832000",
       "fps": {
        "den": 1,
        "num": 30
       },
       "has_audio": false,
       "has_single_image": true,
       "has_video": true,
       "height": 576,
       "interlaced_frame": false,
       "metadata": {},
       "path": "@transitions/common/fade.svg",
       "pixel_format": -1,
       "pixel_ratio": {
        "den": 1,
        "num": 1
       },
       "sample_rate": 0,
       "top_field_first": true,
       "type": "QtImageReader",
       "vcodec": "",
       "video_bit_rate": 0,
       "video_length": "108000",
       "video_stream_index": -1,
       "video_timebase": {
        "den": 30,
        "num": 1
       },
       "width": 720
      },
      "replace_image": false,
      "id": "ULXPUMT6PO"
     },
     {
      "layer": 2000000,
      "title": "Transition",
      "type": "Mask",
      "position": 419.9,
      "start": 0,
      "end": 0.9583333333333212,
      "brightness": {
       "Points": [
        {
         "co": {
          "X": 1.0,
          "Y": -1.0
         },
         "handle_left": {
          "X": 0.5,
          "Y": 1.0
         },
         "handle_right": {
          "X": 0.5,
          "Y": 0.0
         },
         "handle_type": 0,
         "interpolation": 0
        },
        {
         "co": {
          "X": 29.0,
          "Y": 1.0
         },
         "handle_left": {
          "X": 0.5,
          "Y": 1.0
         },
         "handle_right": {
          "X": 0.5,
          "Y": 0.0
         },
         "handle_type": 0,
         "interpolation": 0
        }
       ]
      },
      "contrast": {
       "Points": [
        {
         "co": {
          "X": 1.0,
          "Y": 3.0
         },
         "handle_left": {
          "X": 0.5,
          "Y": 1.0
         },
         "handle_right": {
          "X": 0.5,
          "Y": 0.0
         },
         "handle_type": 0,
         "interpolation": 0
        },
        {
         "co": {
          "X": 29.0,
          "Y": 3.0
         },
         "handle_left": {
          "X": 0.5,
          "Y": 1.0
         },
         "handle_right": {
          "X": 0.5,
          "Y": 0.0
         },
         "handle_type": 0,
         "interpolation": 0
        }
       ]
      },
      "reader": {
       "acodec": "",
       "audio_bit_rate": 0,
       "audio_stream_index": -1,
       "audio_timebase": {
        "den": 1,
        "num": 1
       },
       "channel_layout": 4,
       "channels": 0,
       "display_ratio": {
        "den": 4,
        "num": 5
       },
       "duration": 3600.0,
       "file_size": "5832000",
       "fps": {
        "den": 1,
        "num": 30
       },
       "has_audio": false,
       "has_single_image": true,
       "has_video": true,
       "height": 576,
       "interlaced_frame": false,
       "metadata": {},
       "path": "@transitions/common/fade.svg",
       "pixel_format": -1,
       "pixel_ratio": {
        "den": 1,
        "num": 1
       },
       "sample_rate": 0,
       "top_field_first": true,
       "type": "QtImageReader",
       "vcodec": "",
       "video_bit_rate": 0,
       "video_length": "108000",
       "video_stream_index": -1,
       "video_timebase": {
        "den": 30,
        "num": 1
       },
       "width": 720
      },
      "replace_image": false,
      "id": "DYLW8V9WX8"
     },
     {
      "layer": 3000000,
      "title": "Transition",
      "type": "Mask",
      "position": 419.9,
      "start": 0,
      "end": 0.9583333333333212,
      "brightness": {
       "Points": [
        {
         "co": {
          "X": 1.0,
          "Y": -1.0
         },
         "handle_left": {
          "X": 0.5,
          "Y": 1.0
         },
         "handle_right": {
          "X": 0.5,
          "Y": 0.0
         },
         "handle_type": 0,
         "interpolation": 0
        },
        {
         "co": {
          "X": 29.0,
          "Y": 1.0
         },
         "handle_left": {
          "X": 0.5,
          "Y": 1.0
         },
         "handle_right": {
          "X": 0.5,
          "Y": 0.0
         },
         "handle_type": 0,
         "interpolation": 0
        }
       ]
      },
      "contrast": {
       "Points": [
        {
         "co": {
          "X": 1.0,
          "Y": 3.0
         },
         "handle_left": {
          "X": 0.5,
          "Y": 1.0
         },
         "handle_right": {
          "X": 0.5,
          "Y": 0.0
         },
         "handle_type": 0,
         "interpolation": 0
        },
        {
         "co": {
          "X": 29.0,
          "Y": 3.0
         },
         "handle_left": {
          "X": 0.5,
          "Y": 1.0
         },
         "handle_right": {
          "X": 0.5,
          "Y": 0.0
         },
         "handle_type": 0,
         "interpolation": 0
        }
       ]
      },
      "reader": {
       "acodec": "",
       "audio_bit_rate": 0,
       "audio_stream_index": -1,
       "audio_timebase": {
        "den": 1,
        "num": 1
       },
       "channel_layout": 4,
       "channels": 0,
       "display_ratio": {
        "den": 4,
        "num": 5
       },
       "duration": 3600.0,
       "file_size": "5832000",
       "fps": {
        "den": 1,
        "num": 30
       },
       "has_audio": false,
       "has_single_image": true,
       "has_video": true,
       "height": 576,
       "interlaced_frame": false,
       "metadata": {},
       "path": "@transitions/common/fade.svg",
       "pixel_format": -1,
       "pixel_ratio": {
        "den": 1,
        "num": 1
       },
       "sample_rate": 0,
       "top_field_first": true,
       "type": "QtImageReader",
       "vcodec": "",
       "video_bit_rate": 0,
       "video_length": "108000",
       "video_stream_index": -1,
       "video_timebase": {
        "den": 30,
        "num": 1
       },
       "width": 720
      },
      "replace_image": false,
      "id": "CXGUT073SE"
     },
     {
      "layer": 1000000,
      "title": "Transition",
      "type": "Mask",
      "position": 420.8666666666667,
      "start": 0,
      "end": 0.9583333333333212,
      "brightness": {
       "Points": [
        {
         "co": {
          "X": 1.0,
          "Y": 1.0
         },
         "handle_left": {
          "X": 0.5,
          "Y": 1.0
         },
         "handle_right": {
          "X": 0.5,
          "Y": 0.0
         },
         "handle_type": 0,
         "interpolation": 0
        },
        {
         "co": {
          "X": 29.0,
          "Y": -1.0
         },
         "handle_left": {
          "X": 0.5,
          "Y": 1.0
         },
         "handle_right": {
          "X": 0.5,
          "Y": 0.0
         },
         "handle_type": 0,
         "interpolation": 0
        }
       ]
      },
      "contrast": {
       "Points": [
        {
         "co": {
          "X": 1.0,
          "Y": 3.0
         },
         "handle_left": {
          "X": 0.5,
          "Y": 1.0
         },
         "handle_right": {
          "X": 0.5,
          "Y": 0.0
         },
         "handle_type": 0,
         "interpolation": 0
        },
        {
         "co": {
          "X": 29.0,
          "Y": 3.0
         },
         "handle_left": {
          "X": 0.5,
          "Y": 1.0
         },
         "handle_right": {
          "X": 0.5,
          "Y": 0.0
         },
         "handle_type": 0,
         "interpolation": 0
        }
       ]
      },
      "reader": {
       "acodec": "",
       "audio_bit_rate": 0,
       "audio_stream_index": -1,
       "audio_timebase": {
        "den": 1,
        "num": 1
       },
       "channel_layout": 4,
       "channels": 0,
       "display_ratio": {
        "den": 4,
        "num": 5
       },
       "duration": 3600.0,
       "file_size": "5832000",
       "fps": {
        "den": 1,
        "num": 30
       },
       "has_audio": false,
       "has_single_image": true,
       "has_video": true,
       "height": 576,
       "interlaced_frame": false,
       "metadata": {},
       "path": "@transitions/common/fade.svg",
       "pixel_format": -1,
       "pixel_ratio": {
        "den": 1,
        "num": 1
       },
       "sample_rate": 0,
       "top_field_first": true,
       "type": "QtImageReader",
       "vcodec": "",
       "video_bit_rate": 0,
       "video_length": "108000",
       "video_stream_index": -1,
       "video_timebase": {
        "den": 30,
        "num": 1
       },
       "width": 720
      },
      "replace_image": false,
      "id": "UU98446Y5E"
     }
    ],
    "transaction": "ab460cf3-190d-4401-a855-6744654b99fe"
   },
   {
    "type": "update",
    "key": [
     "effects",
     {
      "id": "OX49IKX2Z1"
     }
    ],
    "value": {
     "id": "OX49IKX2Z1",
     "layer": 2000000,
     "position": 421.4,
     "start": 0,
     "end": 0.9583333333333212,
     "brightness": {
      "Points": [
       {
        "co": {
         "X": 1.0,
         "Y": 1.0
        },
        "handle_left": {
         "X": 0.5,
         "Y": 1.0
        },
        "handle_right": {
         "X": 0.5,
         "Y": 0.0
        },
        "handle_type": 0,
        "interpolation": 0
       },
       {
        "co": {
         "X": 29.0,
         "Y": -1.0
        },
        "handle_left": {
         "X": 0.5,
         "Y": 1.0
        },
        "handle_right": {
         "X": 0.5,
         "Y": 0.0
        },
        "handle_type": 0,
        "interpolation": 0
       }
      ]
     },
     "contrast": {
      "Points": [
       {
        "co": {
         "X": 1.0,
         "Y": 3.0
        },
        "handle_left": {
         "X": 0.5,
         "Y": 1.0
        },
        "handle_right": {
         "X": 0.5,
         "Y": 0.0
        },
        "handle_type": 0,
        "interpolation": 0
       },
       {
        "co": {
         "X": 29.0,
         "Y": 3.0
        },
        "handle_left": {
         "X": 0.5,
         "Y": 1.0
        },
        "handle_right": {
         "X": 0.5,
         "Y": 0.0
        },
        "handle_type": 0,
        "interpolation": 0
       }
      ]
     }
    },
    "old_values": {
     "layer": 2000000,
     "title": "Transition",
     "type": "Mask",
     "position": 422.06666666666666,
     "start": 0,
     "end": 0.9583333333333212,
     "brightness": {
      "Points": [
       {
        "co": {
         "X": 1.0,
         "Y": -1.0
        },
        "handle_left": {
         "X": 0.5,
         "Y": 1.0
        },
        "handle_right": {
         "X": 0.5,
         "Y": 0.0
        },
        "handle_type": 0,
        "interpolation": 0
       },
       {
        "co": {
         "X": 29.0,
         "Y": 1.0
        },
        "handle_left": {
         "X": 0.5,
         "Y": 1.0
        },
        "handle_right": {
         "X": 0.5,
         "Y": 0.0
        },
        "handle_type": 0,
        "interpolation": 0
       }
      ]
     },
     "contrast": {
      "Points": [
       {
        "co": {
         "X": 1.0,
         "Y": 3.0
        },
        "handle_left": {
         "X": 0.5,
         "Y": 1.0
        },
        "handle_right": {
         "X": 0.5,
         "Y": 0.0
        },
        "handle_type": 0,
        "interpolation": 0
       },
       {
        "co": {
         "X": 29.0,
         "Y": 3.0
        },
        "handle_left": {
         "X": 0.5,
         "Y": 1.0
        },
        "handle_right": {
         "X": 0.5,
         "Y": 0.0
        },
        "handle_type": 0,
        "interpolation": 0
       }
      ]
     },
     "reader": {
      "acodec": "",
      "audio_bit_rate": 0,
      "audio_stream_index": -1,
      "audio_timebase": {
       "den": 1,
       "num": 1
      },
      "channel_layout": 4,
      "channels": 0,
      "display_ratio": {
       "den": 4,
       "num": 5
      },
      "duration": 3600.0,
      "file_size": "5832000",
      "fps": {
       "den": 1,
       "num": 30
      },
      "has_audio": false,
      "has_single_image": true,
      "has_video": true,
      "height": 576,
      "interlaced_frame": false,
      "metadata": {},
      "path": "@transitions/common/fade.svg",
      "pixel_format": -1,
      "pixel_ratio": {
       "den": 1,
       "num": 1
      },
      "sample_rate": 0,
      "top_field_first": true,
      "type": "QtImageReader",
      "vcodec": "",
      "video_bit_rate": 0,
      "video_length": "108000",
      "video_stream_index": -1,
      "video_timebase": {
       "den": 30,
       "num": 1
      },
      "width": 720
     },
     "replace_image": false,
     "id": "OX49IKX2Z1"
    },
    "transaction": "c729ff08-75b7-4e9b-9bb9-841547e39af3"
   },
   {
    "type": "update",
    "key": [
     "clips",
     {
      "id": "6IK55D6W6O"
     }
    ],
    "value": {
     "scale_y": {
      "Points": [
       {
        "co": {
         "X": 1,
         "Y": 0.34071556997867825
        },
        "handle_left": {
         "X": 0.5,
         "Y": 1.0
        },
        "handle_right": {
         "X": 0.5,
         "Y": 0.0
        },
        "handle_type": 0,
        "interpolation": 0
       }
      ]
     }
    },
    "old_values": {
     "alpha": {
      "Points": [
       {
        "co": {
         "X": 1.0,
         "Y": 1.0
        },
        "handle_left": {
         "X": 0.5,
         "Y": 1.0
        },
        "handle_right": {
         "X": 0.5,
         "Y": 0.0
        },
        "handle_type": 0,
        "interpolation": 0
       }
      ]
     },
     "anchor": 0,
     "channel_filter": {
      "Points": [
       {
        "co": {
         "X": 1.0,
         "Y": -1.0
        },
        "handle_left": {
         "X": 0.5,
         "Y": 1.0
        },
        "handle_right": {
         "X": 0.5,
         "Y": 0.0
        },
        "handle_type": 0,
        "interpolation": 0
       }
      ]
     },
     "channel_mapping": {
      "Points": [
       {
        "co": {
         "X": 1.0,
         "Y": -1.0
        },
        "handle_left": {
         "X": 0.5,
         "Y": 1.0
        },
        "handle_right": {
         "X": 0.5,
         "Y": 0.0
        },
        "handle_type": 0,
        "interpolation": 0
       }
      ]
     },
     "display": 0,
     "duration": 3600.0,
     "effects": [],
     "end": 10,
     "gravity": 4,
     "has_audio": {
      "Points": [
       {
        "co": {
         "X": 1.0,
         "Y": -1.0
        },
        "handle_left": {
         "X": 0.5,
         "Y": 1.0
        },
        "handle_right": {
         "X": 0.5,
         "Y": 0.0
        },
        "handle_type": 0,
        "interpolation": 0
       }
      ]
     },
     "has_video": {
      "Points": [
       {
        "co": {
         "X": 1.0,
         "Y": -1.0
        },
        "handle_left": {
         "X": 0.5,
         "Y": 1.0
        },
        "handle_right": {
         "X": 0.5,
         "Y": 0.0
        },
        "handle_type": 0,
        "interpolation": 0
       }
      ]
     },
     "id": "6IK55D6W6O",
     "layer": 2000000,
     "location_x": {
      "Points": [
       {
        "co": {
         "X": 1.0,
         "Y": 0.0
        },
        "handle_left": {
         "X": 0.5,
         "Y": 1.0
        },
        "handle_right": {
         "X": 0.5,
         "Y": 0.0
        },
        "handle_type": 0,
        "interpolation": 0
       }
      ]
     },
     "location_y": {
      "Points": [
       {
        "co": {
         "X": 1.0,
         "Y": 0.0
        },
        "handle_left": {
         "X": 0.5,
         "Y": 1.0
        },
        "handle_right": {
         "X": 0.5,
         "Y": 0.0
        },
        "handle_type": 0,
        "interpolation": 0
       }
      ]
     },
     "mixing": 0,
     "origin_x": {
      "Points": [
       {
        "co": {
         "X": 1.0,
         "Y": 0.5
        },
        "handle_left": {
         "X": 0.5,
         "Y": 1.0
        },
        "handle_right": {
         "X": 0.5,
         "Y": 0.0
        },
        "handle_type": 0,
        "interpolation": 0
       }
      ]
     },
     "origin_y": {
      "Points": [
       {
        "co": {
         "X": 1.0,
         "Y": 0.5
        },
        "handle_left": {
         "X": 0.5,
         "Y": 1.0
        },
        "handle_right": {
         "X": 0.5,
         "Y": 0.0
        },
        "handle_type": 0,
        "interpolation": 0
       }
      ]
     },
     "parentObjectId": "",
     "perspective_c1_x": {
      "Points": [
       {
        "co": {
         "X": 1.0,
         "Y": -1.0
        },
        "handle_left": {
         "X": 0.5,
         "Y": 1.0
        },
        "handle_right": {
         "X": 0.5,
         "Y": 0.0
        },
        "handle_type": 0,
        "interpolation": 0
       }
      ]
     },
     "perspective_c1_y": {
      "Points": [
       {
        "co": {
         "X": 1.0,
         "Y": -1.0
        },
        "handle_left": {
         "X": 0.5,
         "Y": 1.0
        },
        "handle_right": {
         "X": 0.5,
         "Y": 0.0
        },
        "handle_type": 0,
        "interpolation": 0
       }
      ]
     },
     "perspective_c2_x": {
      "Points": [
       {
        "co": {
         "X": 1.0,
         "Y": -1.0
        },
        "handle_left": {
         "X": 0.5,
         "Y": 1.0
        },
        "handle_right": {
         "X": 0.5,
         "Y": 0.0
        },
        "handle_type": 0,
        "interpolation": 0
       }
      ]
     },
     "perspective_c2_y": {
      "Points": [
       {
        "co": {
         "X": 1.0,
         "Y": -1.0
        },
        "handle_left": {
         "X": 0.5,
         "Y": 1.0
        },
        "handle_right": {
         "X": 0.5,
         "Y": 0.0
        },
        "handle_type": 0,
        "interpolation": 0
       }
      ]
     },
     "perspective_c3_x": {
      "Points": [
       {
        "co": {
         "X": 1.0,
         "Y": -1.0
        },
        "handle_left": {
         "X": 0.5,
         "Y": 1.0
        },
        "handle_right": {
         "X": 0.5,
         "Y": 0.0
        },
        "handle_type": 0,
        "interpolation": 0
       }
      ]
     },
     "perspective_c3_y": {
      "Points": [
       {
        "co": {
         "X": 1.0,
         "Y": -1.0
        },
        "handle_left": {
         "X": 0.5,
         "Y": 1.0
        },
        "handle_right": {
         "X": 0.5,
         "Y": 0.0
        },
        "handle_type": 0,
        "interpolation": 0
       }
      ]
     },
     "perspective_c4_x": {
      "Points": [
       {
        "co": {
         "X": 1.0,
         "Y": -1.0
        },
        "handle_left": {
         "X": 0.5,
         "Y": 1.0
        },
        "handle_right": {
         "X": 0.5,
         "Y": 0.0
        },
        "handle_type": 0,
        "interpolation": 0
       }
      ]
     },
     "perspective_c4_y": {
      "Points": [
       {
        "co": {
         "X": 1.0,
         "Y": -1.0
        },
        "handle_left": {
         "X": 0.5,
         "Y": 1.0
        },
        "handle_right": {
         "X": 0.5,
         "Y": 0.0
        },
        "handle_type": 0,
        "interpolation": 0
       }
      ]
     },
     "position": 421.4,
     "reader": {
      "acodec": "",
      "audio_bit_rate": 0,
      "audio_stream_index": -1,
      "audio_timebase": {
       "den": 1,
       "num": 1
      },
      "channel_layout": 4,
      "channels": 0,
      "display_ratio": {
       "den": 533,
       "num": 1756
      },
      "duration": 3600.0,
      "file_size": "3743792",
      "fps": {
       "den": 1,
       "num": 30
      },
      "has_audio": false,
      "has_single_image": true,
      "has_video": true,
      "height": 533,
      "interlaced_frame": false,
      "metadata": {},
      "path": "./drawing59.png",
      "pixel_format": -1,
      "pixel_ratio": {
       "den": 1,
       "num": 1
      },
      "sample_rate": 0,
      "top_field_first": true,
      "type": "QtImageReader",
      "vcodec": "",
      "video_bit_rate": 0,
      "video_length": "108000",
      "video_stream_index": -1,
      "video_timebase": {
       "den": 30,
       "num": 1
      },
      "width": 1756,
      "media_type": "image",
      "id": "JFS41HMC7X"
     },
     "rotation": {
      "Points": [
       {
        "co": {
         "X": 1.0,
         "Y": 0.0
        },
        "handle_left": {
         "X": 0.5,
         "Y": 1.0
        },
        "handle_right": {
         "X": 0.5,
         "Y": 0.0
        },
        "handle_type": 0,
        "interpolation": 0
       }
      ]
     },
     "scale": 1,
     "scale_x": {
      "Points": [
       {
        "co": {
         "X": 1.0,
         "Y": 1.0
        },
        "handle_left": {
         "X": 0.5,
         "Y": 1.0
        },
        "handle_right": {
         "X": 0.5,
         "Y": 0.0
        },
        "handle_type": 0,
        "interpolation": 0
       }
      ]
     },
     "scale_y": {
      "Points": [
       {
        "co": {
         "X": 1.0,
         "Y": 1.0
        },
        "handle_left": {
         "X": 0.5,
         "Y": 1.0
        },
        "handle_right": {
         "X": 0.5,
         "Y": 0.0
        },
        "handle_type": 0,
        "interpolation": 0
       }
      ]
     },
     "shear_x": {
      "Points": [
       {
        "co": {
         "X": 1.0,
         "Y": 0.0
        },
        "handle_left": {
         "X": 0.5,
         "Y": 1.0
        },
        "handle_right": {
         "X": 0.5,
         "Y": 0.0
        },
        "handle_type": 0,
        "interpolation": 0
       }
      ]
     },
     "shear_y": {
      "Points": [
       {
        "co": {
         "X": 1.0,
         "Y": 0.0
        },
        "handle_left": {
         "X": 0.5,
         "Y": 1.0
        },
        "handle_right": {
         "X": 0.5,
         "Y": 0.0
        },
        "handle_type": 0,
        "interpolation": 0
       }
      ]
     },
     "start": 0,
     "time": {
      "Points": [
       {
        "co": {
         "X": 1.0,
         "Y": 1.0
        },
        "handle_left": {
         "X": 0.5,
         "Y": 1.0
        },
        "handle_right": {
         "X": 0.5,
         "Y": 0.0
        },
        "handle_type": 0,
        "interpolation": 0
       }
      ]
     },
     "volume": {
      "Points": [
       {
        "co": {
         "X": 1.0,
         "Y": 1.0
        },
        "handle_left": {
         "X": 0.5,
         "Y": 1.0
        },
        "handle_right": {
         "X": 0.5,
         "Y": 0.0
        },
        "handle_type": 0,
        "interpolation": 0
       }
      ]
     },
     "wave_color": {
      "alpha": {
       "Points": [
        {
         "co": {
          "X": 1.0,
          "Y": 255.0
         },
         "handle_left": {
          "X": 0.5,
          "Y": 1.0
         },
         "handle_right": {
          "X": 0.5,
          "Y": 0.0
         },
         "handle_type": 0,
         "interpolation": 0
        }
       ]
      },
      "blue": {
       "Points": [
        {
         "co": {
          "X": 1.0,
          "Y": 255.0
         },
         "handle_left": {
          "X": 0.5,
          "Y": 1.0
         },
         "handle_right": {
          "X": 0.5,
          "Y": 0.0
         },
         "handle_type": 0,
         "interpolation": 0
        }
       ]
      },
      "green": {
       "Points": [
        {
         "co": {
          "X": 1.0,
          "Y": 123.0
         },
         "handle_left": {
          "X": 0.5,
          "Y": 1.0
         },
         "handle_right": {
          "X": 0.5,
          "Y": 0.0
         },
         "handle_type": 0,
         "interpolation": 0
        }
       ]
      },
      "red": {
       "Points": [
        {
         "co": {
          "X": 1.0,
          "Y": 0.0
         },
         "handle_left": {
          "X": 0.5,
          "Y": 1.0
         },
         "handle_right": {
          "X": 0.5,
          "Y": 0.0
         },
         "handle_type": 0,
         "interpolation": 0
        }
       ]
      }
     },
     "waveform": false,
     "file_id": "JFS41HMC7X",
     "title": "drawing59.png",
     "image": "Tutorial_assets/thumbnail/JFS41HMC7X.png"
    },
    "transaction": "550432a5-778c-43cc-8179-b79b612e4967"
   },
   {
    "type": "update",
    "key": [
     "clips",
     {
      "id": "6IK55D6W6O"
     }
    ],
    "value": {
     "location_y": {
      "Points": [
       {
        "co": {
         "X": 1,
         "Y": 0.33484846498026993
        },
        "handle_left": {
         "X": 0.5,
         "Y": 1.0
        },
        "handle_right": {
         "X": 0.5,
         "Y": 0.0
        },
        "handle_type": 0,
        "interpolation": 0
       }
      ]
     }
    },
    "old_values": {
     "alpha": {
      "Points": [
       {
        "co": {
         "X": 1.0,
         "Y": 1.0
        },
        "handle_left": {
         "X": 0.5,
         "Y": 1.0
        },
        "handle_right": {
         "X": 0.5,
         "Y": 0.0
        },
        "handle_type": 0,
        "interpolation": 0
       }
      ]
     },
     "anchor": 0,
     "channel_filter": {
      "Points": [
       {
        "co": {
         "X": 1.0,
         "Y": -1.0
        },
        "handle_left": {
         "X": 0.5,
         "Y": 1.0
        },
        "handle_right": {
         "X": 0.5,
         "Y": 0.0
        },
        "handle_type": 0,
        "interpolation": 0
       }
      ]
     },
     "channel_mapping": {
      "Points": [
       {
        "co": {
         "X": 1.0,
         "Y": -1.0
        },
        "handle_left": {
         "X": 0.5,
         "Y": 1.0
        },
        "handle_right": {
         "X": 0.5,
         "Y": 0.0
        },
        "handle_type": 0,
        "interpolation": 0
       }
      ]
     },
     "display": 0,
     "duration": 3600.0,
     "effects": [],
     "end": 10,
     "gravity": 4,
     "has_audio": {
      "Points": [
       {
        "co": {
         "X": 1.0,
         "Y": -1.0
        },
        "handle_left": {
         "X": 0.5,
         "Y": 1.0
        },
        "handle_right": {
         "X": 0.5,
         "Y": 0.0
        },
        "handle_type": 0,
        "interpolation": 0
       }
      ]
     },
     "has_video": {
      "Points": [
       {
        "co": {
         "X": 1.0,
         "Y": -1.0
        },
        "handle_left": {
         "X": 0.5,
         "Y": 1.0
        },
        "handle_right": {
         "X": 0.5,
         "Y": 0.0
        },
        "handle_type": 0,
        "interpolation": 0
       }
      ]
     },
     "id": "6IK55D6W6O",
     "layer": 2000000,
     "location_x": {
      "Points": [
       {
        "co": {
         "X": 1.0,
         "Y": 0.0
        },
        "handle_left": {
         "X": 0.5,
         "Y": 1.0
        },
        "handle_right": {
         "X": 0.5,
         "Y": 0.0
        },
        "handle_type": 0,
        "interpolation": 0
       }
      ]
     },
     "location_y": {
      "Points": [
       {
        "co": {
         "X": 1.0,
         "Y": 0.0
        },
        "handle_left": {
         "X": 0.5,
         "Y": 1.0
        },
        "handle_right": {
         "X": 0.5,
         "Y": 0.0
        },
        "handle_type": 0,
        "interpolation": 0
       }
      ]
     },
     "mixing": 0,
     "origin_x": {
      "Points": [
       {
        "co": {
         "X": 1.0,
         "Y": 0.5
        },
        "handle_left": {
         "X": 0.5,
         "Y": 1.0
        },
        "handle_right": {
         "X": 0.5,
         "Y": 0.0
        },
        "handle_type": 0,
        "interpolation": 0
       }
      ]
     },
     "origin_y": {
      "Points": [
       {
        "co": {
         "X": 1.0,
         "Y": 0.5
        },
        "handle_left": {
         "X": 0.5,
         "Y": 1.0
        },
        "handle_right": {
         "X": 0.5,
         "Y": 0.0
        },
        "handle_type": 0,
        "interpolation": 0
       }
      ]
     },
     "parentObjectId": "",
     "perspective_c1_x": {
      "Points": [
       {
        "co": {
         "X": 1.0,
         "Y": -1.0
        },
        "handle_left": {
         "X": 0.5,
         "Y": 1.0
        },
        "handle_right": {
         "X": 0.5,
         "Y": 0.0
        },
        "handle_type": 0,
        "interpolation": 0
       }
      ]
     },
     "perspective_c1_y": {
      "Points": [
       {
        "co": {
         "X": 1.0,
         "Y": -1.0
        },
        "handle_left": {
         "X": 0.5,
         "Y": 1.0
        },
        "handle_right": {
         "X": 0.5,
         "Y": 0.0
        },
        "handle_type": 0,
        "interpolation": 0
       }
      ]
     },
     "perspective_c2_x": {
      "Points": [
       {
        "co": {
         "X": 1.0,
         "Y": -1.0
        },
        "handle_left": {
         "X": 0.5,
         "Y": 1.0
        },
        "handle_right": {
         "X": 0.5,
         "Y": 0.0
        },
        "handle_type": 0,
        "interpolation": 0
       }
      ]
     },
     "perspective_c2_y": {
      "Points": [
       {
        "co": {
         "X": 1.0,
         "Y": -1.0
        },
        "handle_left": {
         "X": 0.5,
         "Y": 1.0
        },
        "handle_right": {
         "X": 0.5,
         "Y": 0.0
        },
        "handle_type": 0,
        "interpolation": 0
       }
      ]
     },
     "perspective_c3_x": {
      "Points": [
       {
        "co": {
         "X": 1.0,
         "Y": -1.0
        },
        "handle_left": {
         "X": 0.5,
         "Y": 1.0
        },
        "handle_right": {
         "X": 0.5,
         "Y": 0.0
        },
        "handle_type": 0,
        "interpolation": 0
       }
      ]
     },
     "perspective_c3_y": {
      "Points": [
       {
        "co": {
         "X": 1.0,
         "Y": -1.0
        },
        "handle_left": {
         "X": 0.5,
         "Y": 1.0
        },
        "handle_right": {
         "X": 0.5,
         "Y": 0.0
        },
        "handle_type": 0,
        "interpolation": 0
       }
      ]
     },
     "perspective_c4_x": {
      "Points": [
       {
        "co": {
         "X": 1.0,
         "Y": -1.0
        },
        "handle_left": {
         "X": 0.5,
         "Y": 1.0
        },
        "handle_right": {
         "X": 0.5,
         "Y": 0.0
        },
        "handle_type": 0,
        "interpolation": 0
       }
      ]
     },
     "perspective_c4_y": {
      "Points": [
       {
        "co": {
         "X": 1.0,
         "Y": -1.0
        },
        "handle_left": {
         "X": 0.5,
         "Y": 1.0
        },
        "handle_right": {
         "X": 0.5,
         "Y": 0.0
        },
        "handle_type": 0,
        "interpolation": 0
       }
      ]
     },
     "position": 421.4,
     "reader": {
      "acodec": "",
      "audio_bit_rate": 0,
      "audio_stream_index": -1,
      "audio_timebase": {
       "den": 1,
       "num": 1
      },
      "channel_layout": 4,
      "channels": 0,
      "display_ratio": {
       "den": 533,
       "num": 1756
      },
      "duration": 3600.0,
      "file_size": "3743792",
      "fps": {
       "den": 1,
       "num": 30
      },
      "has_audio": false,
      "has_single_image": true,
      "has_video": true,
      "height": 533,
      "interlaced_frame": false,
      "metadata": {},
      "path": "./drawing59.png",
      "pixel_format": -1,
      "pixel_ratio": {
       "den": 1,
       "num": 1
      },
      "sample_rate": 0,
      "top_field_first": true,
      "type": "QtImageReader",
      "vcodec": "",
      "video_bit_rate": 0,
      "video_length": "108000",
      "video_stream_index": -1,
      "video_timebase": {
       "den": 30,
       "num": 1
      },
      "width": 1756,
      "media_type": "image",
      "id": "JFS41HMC7X"
     },
     "rotation": {
      "Points": [
       {
        "co": {
         "X": 1.0,
         "Y": 0.0
        },
        "handle_left": {
         "X": 0.5,
         "Y": 1.0
        },
        "handle_right": {
         "X": 0.5,
         "Y": 0.0
        },
        "handle_type": 0,
        "interpolation": 0
       }
      ]
     },
     "scale": 1,
     "scale_x": {
      "Points": [
       {
        "co": {
         "X": 1,
         "Y": 0.34071556997867825
        },
        "handle_left": {
         "X": 0.5,
         "Y": 1.0
        },
        "handle_right": {
         "X": 0.5,
         "Y": 0.0
        },
        "handle_type": 0,
        "interpolation": 0
       }
      ]
     },
     "scale_y": {
      "Points": [
       {
        "co": {
         "X": 1,
         "Y": 0.34071556997867825
        },
        "handle_left": {
         "X": 0.5,
         "Y": 1.0
        },
        "handle_right": {
         "X": 0.5,
         "Y": 0.0
        },
        "handle_type": 0,
        "interpolation": 0
       }
      ]
     },
     "shear_x": {
      "Points": [
       {
        "co": {
         "X": 1.0,
         "Y": 0.0
        },
        "handle_left": {
         "X": 0.5,
         "Y": 1.0
        },
        "handle_right": {
         "X": 0.5,
         "Y": 0.0
        },
        "handle_type": 0,
        "interpolation": 0
       }
      ]
     },
     "shear_y": {
      "Points": [
       {
        "co": {
         "X": 1.0,
         "Y": 0.0
        },
        "handle_left": {
         "X": 0.5,
         "Y": 1.0
        },
        "handle_right": {
         "X": 0.5,
         "Y": 0.0
        },
        "handle_type": 0,
        "interpolation": 0
       }
      ]
     },
     "start": 0,
     "time": {
      "Points": [
       {
        "co": {
         "X": 1.0,
         "Y": 1.0
        },
        "handle_left": {
         "X": 0.5,
         "Y": 1.0
        },
        "handle_right": {
         "X": 0.5,
         "Y": 0.0
        },
        "handle_type": 0,
        "interpolation": 0
       }
      ]
     },
     "volume": {
      "Points": [
       {
        "co": {
         "X": 1.0,
         "Y": 1.0
        },
        "handle_left": {
         "X": 0.5,
         "Y": 1.0
        },
        "handle_right": {
         "X": 0.5,
         "Y": 0.0
        },
        "handle_type": 0,
        "interpolation": 0
       }
      ]
     },
     "wave_color": {
      "alpha": {
       "Points": [
        {
         "co": {
          "X": 1.0,
          "Y": 255.0
         },
         "handle_left": {
          "X": 0.5,
          "Y": 1.0
         },
         "handle_right": {
          "X": 0.5,
          "Y": 0.0
         },
         "handle_type": 0,
         "interpolation": 0
        }
       ]
      },
      "blue": {
       "Points": [
        {
         "co": {
          "X": 1.0,
          "Y": 255.0
         },
         "handle_left": {
          "X": 0.5,
          "Y": 1.0
         },
         "handle_right": {
          "X": 0.5,
          "Y": 0.0
         },
         "handle_type": 0,
         "interpolation": 0
        }
       ]
      },
      "green": {
       "Points": [
        {
         "co": {
          "X": 1.0,
          "Y": 123.0
         },
         "handle_left": {
          "X": 0.5,
          "Y": 1.0
         },
         "handle_right": {
          "X": 0.5,
          "Y": 0.0
         },
         "handle_type": 0,
         "interpolation": 0
        }
       ]
      },
      "red": {
       "Points": [
        {
         "co": {
          "X": 1.0,
          "Y": 0.0
         },
         "handle_left": {
          "X": 0.5,
          "Y": 1.0
         },
         "handle_right": {
          "X": 0.5,
          "Y": 0.0
         },
         "handle_type": 0,
         "interpolation": 0
        }
       ]
      }
     },
     "waveform": false,
     "file_id": "JFS41HMC7X",
     "title": "drawing59.png",
     "image": "Tutorial_assets/thumbnail/JFS41HMC7X.png"
    },
    "transaction": "8eca7a57-1fff-49f7-9c1c-c2d795800ef9"
   },
   {
    "type": "update",
    "key": [
     "clips",
     {
      "id": "6IK55D6W6O"
     }
    ],
    "value": {
     "id": "6IK55D6W6O",
     "layer": 2000000,
     "position": 421.4,
     "start": 0,
     "end": 4.400000000000059
    },
    "old_values": {
     "alpha": {
      "Points": [
       {
        "co": {
         "X": 1.0,
         "Y": 1.0
        },
        "handle_left": {
         "X": 0.5,
         "Y": 1.0
        },
        "handle_right": {
         "X": 0.5,
         "Y": 0.0
        },
        "handle_type": 0,
        "interpolation": 0
       }
      ]
     },
     "anchor": 0,
     "channel_filter": {
      "Points": [
       {
        "co": {
         "X": 1.0,
         "Y": -1.0
        },
        "handle_left": {
         "X": 0.5,
         "Y": 1.0
        },
        "handle_right": {
         "X": 0.5,
         "Y": 0.0
        },
        "handle_type": 0,
        "interpolation": 0
       }
      ]
     },
     "channel_mapping": {
      "Points": [
       {
        "co": {
         "X": 1.0,
         "Y": -1.0
        },
        "handle_left": {
         "X": 0.5,
         "Y": 1.0
        },
        "handle_right": {
         "X": 0.5,
         "Y": 0.0
        },
        "handle_type": 0,
        "interpolation": 0
       }
      ]
     },
     "display": 0,
     "duration": 3600.0,
     "effects": [],
     "end": 10,
     "gravity": 4,
     "has_audio": {
      "Points": [
       {
        "co": {
         "X": 1.0,
         "Y": -1.0
        },
        "handle_left": {
         "X": 0.5,
         "Y": 1.0
        },
        "handle_right": {
         "X": 0.5,
         "Y": 0.0
        },
        "handle_type": 0,
        "interpolation": 0
       }
      ]
     },
     "has_video": {
      "Points": [
       {
        "co": {
         "X": 1.0,
         "Y": -1.0
        },
        "handle_left": {
         "X": 0.5,
         "Y": 1.0
        },
        "handle_right": {
         "X": 0.5,
         "Y": 0.0
        },
        "handle_type": 0,
        "interpolation": 0
       }
      ]
     },
     "id": "6IK55D6W6O",
     "layer": 2000000,
     "location_x": {
      "Points": [
       {
        "co": {
         "X": 1,
         "Y": -0.26490631745255583
        },
        "handle_left": {
         "X": 0.5,
         "Y": 1.0
        },
        "handle_right": {
         "X": 0.5,
         "Y": 0.0
        },
        "handle_type": 0,
        "interpolation": 0
       }
      ]
     },
     "location_y": {
      "Points": [
       {
        "co": {
         "X": 1,
         "Y": 0.33484846498026993
        },
        "handle_left": {
         "X": 0.5,
         "Y": 1.0
        },
        "handle_right": {
         "X": 0.5,
         "Y": 0.0
        },
        "handle_type": 0,
        "interpolation": 0
       }
      ]
     },
     "mixing": 0,
     "origin_x": {
      "Points": [
       {
        "co": {
         "X": 1.0,
         "Y": 0.5
        },
        "handle_left": {
         "X": 0.5,
         "Y": 1.0
        },
        "handle_right": {
         "X": 0.5,
         "Y": 0.0
        },
        "handle_type": 0,
        "interpolation": 0
       }
      ]
     },
     "origin_y": {
      "Points": [
       {
        "co": {
         "X": 1.0,
         "Y": 0.5
        },
        "handle_left": {
         "X": 0.5,
         "Y": 1.0
        },
        "handle_right": {
         "X": 0.5,
         "Y": 0.0
        },
        "handle_type": 0,
        "interpolation": 0
       }
      ]
     },
     "parentObjectId": "",
     "perspective_c1_x": {
      "Points": [
       {
        "co": {
         "X": 1.0,
         "Y": -1.0
        },
        "handle_left": {
         "X": 0.5,
         "Y": 1.0
        },
        "handle_right": {
         "X": 0.5,
         "Y": 0.0
        },
        "handle_type": 0,
        "interpolation": 0
       }
      ]
     },
     "perspective_c1_y": {
      "Points": [
       {
        "co": {
         "X": 1.0,
         "Y": -1.0
        },
        "handle_left": {
         "X": 0.5,
         "Y": 1.0
        },
        "handle_right": {
         "X": 0.5,
         "Y": 0.0
        },
        "handle_type": 0,
        "interpolation": 0
       }
      ]
     },
     "perspective_c2_x": {
      "Points": [
       {
        "co": {
         "X": 1.0,
         "Y": -1.0
        },
        "handle_left": {
         "X": 0.5,
         "Y": 1.0
        },
        "handle_right": {
         "X": 0.5,
         "Y": 0.0
        },
        "handle_type": 0,
        "interpolation": 0
       }
      ]
     },
     "perspective_c2_y": {
      "Points": [
       {
        "co": {
         "X": 1.0,
         "Y": -1.0
        },
        "handle_left": {
         "X": 0.5,
         "Y": 1.0
        },
        "handle_right": {
         "X": 0.5,
         "Y": 0.0
        },
        "handle_type": 0,
        "interpolation": 0
       }
      ]
     },
     "perspective_c3_x": {
      "Points": [
       {
        "co": {
         "X": 1.0,
         "Y": -1.0
        },
        "handle_left": {
         "X": 0.5,
         "Y": 1.0
        },
        "handle_right": {
         "X": 0.5,
         "Y": 0.0
        },
        "handle_type": 0,
        "interpolation": 0
       }
      ]
     },
     "perspective_c3_y": {
      "Points": [
       {
        "co": {
         "X": 1.0,
         "Y": -1.0
        },
        "handle_left": {
         "X": 0.5,
         "Y": 1.0
        },
        "handle_right": {
         "X": 0.5,
         "Y": 0.0
        },
        "handle_type": 0,
        "interpolation": 0
       }
      ]
     },
     "perspective_c4_x": {
      "Points": [
       {
        "co": {
         "X": 1.0,
         "Y": -1.0
        },
        "handle_left": {
         "X": 0.5,
         "Y": 1.0
        },
        "handle_right": {
         "X": 0.5,
         "Y": 0.0
        },
        "handle_type": 0,
        "interpolation": 0
       }
      ]
     },
     "perspective_c4_y": {
      "Points": [
       {
        "co": {
         "X": 1.0,
         "Y": -1.0
        },
        "handle_left": {
         "X": 0.5,
         "Y": 1.0
        },
        "handle_right": {
         "X": 0.5,
         "Y": 0.0
        },
        "handle_type": 0,
        "interpolation": 0
       }
      ]
     },
     "position": 421.4,
     "reader": {
      "acodec": "",
      "audio_bit_rate": 0,
      "audio_stream_index": -1,
      "audio_timebase": {
       "den": 1,
       "num": 1
      },
      "channel_layout": 4,
      "channels": 0,
      "display_ratio": {
       "den": 533,
       "num": 1756
      },
      "duration": 3600.0,
      "file_size": "3743792",
      "fps": {
       "den": 1,
       "num": 30
      },
      "has_audio": false,
      "has_single_image": true,
      "has_video": true,
      "height": 533,
      "interlaced_frame": false,
      "metadata": {},
      "path": "./drawing59.png",
      "pixel_format": -1,
      "pixel_ratio": {
       "den": 1,
       "num": 1
      },
      "sample_rate": 0,
      "top_field_first": true,
      "type": "QtImageReader",
      "vcodec": "",
      "video_bit_rate": 0,
      "video_length": "108000",
      "video_stream_index": -1,
      "video_timebase": {
       "den": 30,
       "num": 1
      },
      "width": 1756,
      "media_type": "image",
      "id": "JFS41HMC7X"
     },
     "rotation": {
      "Points": [
       {
        "co": {
         "X": 1.0,
         "Y": 0.0
        },
        "handle_left": {
         "X": 0.5,
         "Y": 1.0
        },
        "handle_right": {
         "X": 0.5,
         "Y": 0.0
        },
        "handle_type": 0,
        "interpolation": 0
       }
      ]
     },
     "scale": 1,
     "scale_x": {
      "Points": [
       {
        "co": {
         "X": 1,
         "Y": 0.34071556997867825
        },
        "handle_left": {
         "X": 0.5,
         "Y": 1.0
        },
        "handle_right": {
         "X": 0.5,
         "Y": 0.0
        },
        "handle_type": 0,
        "interpolation": 0
       }
      ]
     },
     "scale_y": {
      "Points": [
       {
        "co": {
         "X": 1,
         "Y": 0.34071556997867825
        },
        "handle_left": {
         "X": 0.5,
         "Y": 1.0
        },
        "handle_right": {
         "X": 0.5,
         "Y": 0.0
        },
        "handle_type": 0,
        "interpolation": 0
       }
      ]
     },
     "shear_x": {
      "Points": [
       {
        "co": {
         "X": 1.0,
         "Y": 0.0
        },
        "handle_left": {
         "X": 0.5,
         "Y": 1.0
        },
        "handle_right": {
         "X": 0.5,
         "Y": 0.0
        },
        "handle_type": 0,
        "interpolation": 0
       }
      ]
     },
     "shear_y": {
      "Points": [
       {
        "co": {
         "X": 1.0,
         "Y": 0.0
        },
        "handle_left": {
         "X": 0.5,
         "Y": 1.0
        },
        "handle_right": {
         "X": 0.5,
         "Y": 0.0
        },
        "handle_type": 0,
        "interpolation": 0
       }
      ]
     },
     "start": 0,
     "time": {
      "Points": [
       {
        "co": {
         "X": 1.0,
         "Y": 1.0
        },
        "handle_left": {
         "X": 0.5,
         "Y": 1.0
        },
        "handle_right": {
         "X": 0.5,
         "Y": 0.0
        },
        "handle_type": 0,
        "interpolation": 0
       }
      ]
     },
     "volume": {
      "Points": [
       {
        "co": {
         "X": 1.0,
         "Y": 1.0
        },
        "handle_left": {
         "X": 0.5,
         "Y": 1.0
        },
        "handle_right": {
         "X": 0.5,
         "Y": 0.0
        },
        "handle_type": 0,
        "interpolation": 0
       }
      ]
     },
     "wave_color": {
      "alpha": {
       "Points": [
        {
         "co": {
          "X": 1.0,
          "Y": 255.0
         },
         "handle_left": {
          "X": 0.5,
          "Y": 1.0
         },
         "handle_right": {
          "X": 0.5,
          "Y": 0.0
         },
         "handle_type": 0,
         "interpolation": 0
        }
       ]
      },
      "blue": {
       "Points": [
        {
         "co": {
          "X": 1.0,
          "Y": 255.0
         },
         "handle_left": {
          "X": 0.5,
          "Y": 1.0
         },
         "handle_right": {
          "X": 0.5,
          "Y": 0.0
         },
         "handle_type": 0,
         "interpolation": 0
        }
       ]
      },
      "green": {
       "Points": [
        {
         "co": {
          "X": 1.0,
          "Y": 123.0
         },
         "handle_left": {
          "X": 0.5,
          "Y": 1.0
         },
         "handle_right": {
          "X": 0.5,
          "Y": 0.0
         },
         "handle_type": 0,
         "interpolation": 0
        }
       ]
      },
      "red": {
       "Points": [
        {
         "co": {
          "X": 1.0,
          "Y": 0.0
         },
         "handle_left": {
          "X": 0.5,
          "Y": 1.0
         },
         "handle_right": {
          "X": 0.5,
          "Y": 0.0
         },
         "handle_type": 0,
         "interpolation": 0
        }
       ]
      }
     },
     "waveform": false,
     "file_id": "JFS41HMC7X",
     "title": "drawing59.png",
     "image": "Tutorial_assets/thumbnail/JFS41HMC7X.png"
    },
    "transaction": "e12826f9-1c72-4435-8fde-f35a53aef018"
   },
   {
    "type": "update",
    "key": [
     "clips",
     {
      "id": "FUJCF64G78"
     }
    ],
    "value": {
     "id": "FUJCF64G78",
     "layer": 1000000,
     "position": 420.8666666666667,
     "start": 0,
     "end": 4.933333333333327
    },
    "old_values": {
     "alpha": {
      "Points": [
       {
        "co": {
         "X": 1.0,
         "Y": 1.0
        },
        "handle_left": {
         "X": 0.5,
         "Y": 1.0
        },
        "handle_right": {
         "X": 0.5,
         "Y": 0.0
        },
        "handle_type": 0,
        "interpolation": 0
       }
      ]
     },
     "anchor": 0,
     "channel_filter": {
      "Points": [
       {
        "co": {
         "X": 1.0,
         "Y": -1.0
        },
        "handle_left": {
         "X": 0.5,
         "Y": 1.0
        },
        "handle_right": {
         "X": 0.5,
         "Y": 0.0
        },
        "handle_type": 0,
        "interpolation": 0
       }
      ]
     },
     "channel_mapping": {
      "Points": [
       {
        "co": {
         "X": 1.0,
         "Y": -1.0
        },
        "handle_left": {
         "X": 0.5,
         "Y": 1.0
        },
        "handle_right": {
         "X": 0.5,
         "Y": 0.0
        },
        "handle_type": 0,
        "interpolation": 0
       }
      ]
     },
     "display": 0,
     "duration": 3600.0,
     "effects": [],
     "end": 10,
     "gravity": 4,
     "has_audio": {
      "Points": [
       {
        "co": {
         "X": 1.0,
         "Y": -1.0
        },
        "handle_left": {
         "X": 0.5,
         "Y": 1.0
        },
        "handle_right": {
         "X": 0.5,
         "Y": 0.0
        },
        "handle_type": 0,
        "interpolation": 0
       }
      ]
     },
     "has_video": {
      "Points": [
       {
        "co": {
         "X": 1.0,
         "Y": -1.0
        },
        "handle_left": {
         "X": 0.5,
         "Y": 1.0
        },
        "handle_right": {
         "X": 0.5,
         "Y": 0.0
        },
        "handle_type": 0,
        "interpolation": 0
       }
      ]
     },
     "id": "FUJCF64G78",
     "layer": 1000000,
     "location_x": {
      "Points": [
       {
        "co": {
         "X": 1.0,
         "Y": 0.0
        },
        "handle_left": {
         "X": 0.5,
         "Y": 1.0
        },
        "handle_right": {
         "X": 0.5,
         "Y": 0.0
        },
        "handle_type": 0,
        "interpolation": 0
       }
      ]
     },
     "location_y": {
      "Points": [
       {
        "co": {
         "X": 1.0,
         "Y": 0.0
        },
        "handle_left": {
         "X": 0.5,
         "Y": 1.0
        },
        "handle_right": {
         "X": 0.5,
         "Y": 0.0
        },
        "handle_type": 0,
        "interpolation": 0
       }
      ]
     },
     "mixing": 0,
     "origin_x": {
      "Points": [
       {
        "co": {
         "X": 1.0,
         "Y": 0.5
        },
        "handle_left": {
         "X": 0.5,
         "Y": 1.0
        },
        "handle_right": {
         "X": 0.5,
         "Y": 0.0
        },
        "handle_type": 0,
        "interpolation": 0
       }
      ]
     },
     "origin_y": {
      "Points": [
       {
        "co": {
         "X": 1.0,
         "Y": 0.5
        },
        "handle_left": {
         "X": 0.5,
         "Y": 1.0
        },
        "handle_right": {
         "X": 0.5,
         "Y": 0.0
        },
        "handle_type": 0,
        "interpolation": 0
       }
      ]
     },
     "parentObjectId": "",
     "perspective_c1_x": {
      "Points": [
       {
        "co": {
         "X": 1.0,
         "Y": -1.0
        },
        "handle_left": {
         "X": 0.5,
         "Y": 1.0
        },
        "handle_right": {
         "X": 0.5,
         "Y": 0.0
        },
        "handle_type": 0,
        "interpolation": 0
       }
      ]
     },
     "perspective_c1_y": {
      "Points": [
       {
        "co": {
         "X": 1.0,
         "Y": -1.0
        },
        "handle_left": {
         "X": 0.5,
         "Y": 1.0
        },
        "handle_right": {
         "X": 0.5,
         "Y": 0.0
        },
        "handle_type": 0,
        "interpolation": 0
       }
      ]
     },
     "perspective_c2_x": {
      "Points": [
       {
        "co": {
         "X": 1.0,
         "Y": -1.0
        },
        "handle_left": {
         "X": 0.5,
         "Y": 1.0
        },
        "handle_right": {
         "X": 0.5,
         "Y": 0.0
        },
        "handle_type": 0,
        "interpolation": 0
       }
      ]
     },
     "perspective_c2_y": {
      "Points": [
       {
        "co": {
         "X": 1.0,
         "Y": -1.0
        },
        "handle_left": {
         "X": 0.5,
         "Y": 1.0
        },
        "handle_right": {
         "X": 0.5,
         "Y": 0.0
        },
        "handle_type": 0,
        "interpolation": 0
       }
      ]
     },
     "perspective_c3_x": {
      "Points": [
       {
        "co": {
         "X": 1.0,
         "Y": -1.0
        },
        "handle_left": {
         "X": 0.5,
         "Y": 1.0
        },
        "handle_right": {
         "X": 0.5,
         "Y": 0.0
        },
        "handle_type": 0,
        "interpolation": 0
       }
      ]
     },
     "perspective_c3_y": {
      "Points": [
       {
        "co": {
         "X": 1.0,
         "Y": -1.0
        },
        "handle_left": {
         "X": 0.5,
         "Y": 1.0
        },
        "handle_right": {
         "X": 0.5,
         "Y": 0.0
        },
        "handle_type": 0,
        "interpolation": 0
       }
      ]
     },
     "perspective_c4_x": {
      "Points": [
       {
        "co": {
         "X": 1.0,
         "Y": -1.0
        },
        "handle_left": {
         "X": 0.5,
         "Y": 1.0
        },
        "handle_right": {
         "X": 0.5,
         "Y": 0.0
        },
        "handle_type": 0,
        "interpolation": 0
       }
      ]
     },
     "perspective_c4_y": {
      "Points": [
       {
        "co": {
         "X": 1.0,
         "Y": -1.0
        },
        "handle_left": {
         "X": 0.5,
         "Y": 1.0
        },
        "handle_right": {
         "X": 0.5,
         "Y": 0.0
        },
        "handle_type": 0,
        "interpolation": 0
       }
      ]
     },
     "position": 420.8666666666667,
     "reader": {
      "acodec": "",
      "audio_bit_rate": 0,
      "audio_stream_index": -1,
      "audio_timebase": {
       "den": 1,
       "num": 1
      },
      "channel_layout": 4,
      "channels": 0,
      "display_ratio": {
       "den": 383,
       "num": 686
      },
      "duration": 3600.0,
      "file_size": "4203808",
      "fps": {
       "den": 1,
       "num": 30
      },
      "has_audio": false,
      "has_single_image": true,
      "has_video": true,
      "height": 766,
      "interlaced_frame": false,
      "metadata": {},
      "path": "./Screenshot 2024-05-27 002441.png",
      "pixel_format": -1,
      "pixel_ratio": {
       "den": 1,
       "num": 1
      },
      "sample_rate": 0,
      "top_field_first": true,
      "type": "QtImageReader",
      "vcodec": "",
      "video_bit_rate": 0,
      "video_length": "108000",
      "video_stream_index": -1,
      "video_timebase": {
       "den": 30,
       "num": 1
      },
      "width": 1372,
      "media_type": "image",
      "id": "4ZK42BH5BC"
     },
     "rotation": {
      "Points": [
       {
        "co": {
         "X": 1.0,
         "Y": 0.0
        },
        "handle_left": {
         "X": 0.5,
         "Y": 1.0
        },
        "handle_right": {
         "X": 0.5,
         "Y": 0.0
        },
        "handle_type": 0,
        "interpolation": 0
       }
      ]
     },
     "scale": 1,
     "scale_x": {
      "Points": [
       {
        "co": {
         "X": 1,
         "Y": 1.0102213964348554
        },
        "handle_left": {
         "X": 0.5,
         "Y": 1.0
        },
        "handle_right": {
         "X": 0.5,
         "Y": 0.0
        },
        "handle_type": 0,
        "interpolation": 0
       }
      ]
     },
     "scale_y": {
      "Points": [
       {
        "co": {
         "X": 1,
         "Y": 1.0152671337127686
        },
        "handle_left": {
         "X": 0.5,
         "Y": 1.0
        },
        "handle_right": {
         "X": 0.5,
         "Y": 0.0
        },
        "handle_type": 0,
        "interpolation": 0
       }
      ]
     },
     "shear_x": {
      "Points": [
       {
        "co": {
         "X": 1.0,
         "Y": 0.0
        },
        "handle_left": {
         "X": 0.5,
         "Y": 1.0
        },
        "handle_right": {
         "X": 0.5,
         "Y": 0.0
        },
        "handle_type": 0,
        "interpolation": 0
       }
      ]
     },
     "shear_y": {
      "Points": [
       {
        "co": {
         "X": 1.0,
         "Y": 0.0
        },
        "handle_left": {
         "X": 0.5,
         "Y": 1.0
        },
        "handle_right": {
         "X": 0.5,
         "Y": 0.0
        },
        "handle_type": 0,
        "interpolation": 0
       }
      ]
     },
     "start": 0,
     "time": {
      "Points": [
       {
        "co": {
         "X": 1.0,
         "Y": 1.0
        },
        "handle_left": {
         "X": 0.5,
         "Y": 1.0
        },
        "handle_right": {
         "X": 0.5,
         "Y": 0.0
        },
        "handle_type": 0,
        "interpolation": 0
       }
      ]
     },
     "volume": {
      "Points": [
       {
        "co": {
         "X": 1.0,
         "Y": 1.0
        },
        "handle_left": {
         "X": 0.5,
         "Y": 1.0
        },
        "handle_right": {
         "X": 0.5,
         "Y": 0.0
        },
        "handle_type": 0,
        "interpolation": 0
       }
      ]
     },
     "wave_color": {
      "alpha": {
       "Points": [
        {
         "co": {
          "X": 1.0,
          "Y": 255.0
         },
         "handle_left": {
          "X": 0.5,
          "Y": 1.0
         },
         "handle_right": {
          "X": 0.5,
          "Y": 0.0
         },
         "handle_type": 0,
         "interpolation": 0
        }
       ]
      },
      "blue": {
       "Points": [
        {
         "co": {
          "X": 1.0,
          "Y": 255.0
         },
         "handle_left": {
          "X": 0.5,
          "Y": 1.0
         },
         "handle_right": {
          "X": 0.5,
          "Y": 0.0
         },
         "handle_type": 0,
         "interpolation": 0
        }
       ]
      },
      "green": {
       "Points": [
        {
         "co": {
          "X": 1.0,
          "Y": 123.0
         },
         "handle_left": {
          "X": 0.5,
          "Y": 1.0
         },
         "handle_right": {
          "X": 0.5,
          "Y": 0.0
         },
         "handle_type": 0,
         "interpolation": 0
        }
       ]
      },
      "red": {
       "Points": [
        {
         "co": {
          "X": 1.0,
          "Y": 0.0
         },
         "handle_left": {
          "X": 0.5,
          "Y": 1.0
         },
         "handle_right": {
          "X": 0.5,
          "Y": 0.0
         },
         "handle_type": 0,
         "interpolation": 0
        }
       ]
      }
     },
     "waveform": false,
     "file_id": "4ZK42BH5BC",
     "title": "Screenshot 2024-05-27 002441.png",
     "image": "Tutorial_assets/thumbnail/4ZK42BH5BC.png"
    },
    "transaction": "a682de7f-a74a-4d26-9afc-f091e105e512"
   },
   {
    "type": "update",
    "key": [
     "effects",
     {
      "id": "OX49IKX2Z1"
     }
    ],
    "value": {
     "id": "OX49IKX2Z1",
     "layer": 2000000,
     "position": 421.4,
     "start": 0,
     "end": 0.9583333333333212,
     "brightness": {
      "Points": [
       {
        "co": {
         "X": 1.0,
         "Y": 1.0
        },
        "handle_left": {
         "X": 0.5,
         "Y": 1.0
        },
        "handle_right": {
         "X": 0.5,
         "Y": 0.0
        },
        "handle_type": 0,
        "interpolation": 0
       },
       {
        "co": {
         "X": 29.0,
         "Y": -1.0
        },
        "handle_left": {
         "X": 0.5,
         "Y": 1.0
        },
        "handle_right": {
         "X": 0.5,
         "Y": 0.0
        },
        "handle_type": 0,
        "interpolation": 0
       }
      ]
     },
     "contrast": {
      "Points": [
       {
        "co": {
         "X": 1.0,
         "Y": 3.0
        },
        "handle_left": {
         "X": 0.5,
         "Y": 1.0
        },
        "handle_right": {
         "X": 0.5,
         "Y": 0.0
        },
        "handle_type": 0,
        "interpolation": 0
       },
       {
        "co": {
         "X": 29.0,
         "Y": 3.0
        },
        "handle_left": {
         "X": 0.5,
         "Y": 1.0
        },
        "handle_right": {
         "X": 0.5,
         "Y": 0.0
        },
        "handle_type": 0,
        "interpolation": 0
       }
      ]
     }
    },
    "old_values": {
     "layer": 2000000,
     "title": "Transition",
     "type": "Mask",
     "position": 421.4,
     "start": 0,
     "end": 0.9583333333333212,
     "brightness": {
      "Points": [
       {
        "co": {
         "X": 1.0,
         "Y": 1.0
        },
        "handle_left": {
         "X": 0.5,
         "Y": 1.0
        },
        "handle_right": {
         "X": 0.5,
         "Y": 0.0
        },
        "handle_type": 0,
        "interpolation": 0
       },
       {
        "co": {
         "X": 29.0,
         "Y": -1.0
        },
        "handle_left": {
         "X": 0.5,
         "Y": 1.0
        },
        "handle_right": {
         "X": 0.5,
         "Y": 0.0
        },
        "handle_type": 0,
        "interpolation": 0
       }
      ]
     },
     "contrast": {
      "Points": [
       {
        "co": {
         "X": 1.0,
         "Y": 3.0
        },
        "handle_left": {
         "X": 0.5,
         "Y": 1.0
        },
        "handle_right": {
         "X": 0.5,
         "Y": 0.0
        },
        "handle_type": 0,
        "interpolation": 0
       },
       {
        "co": {
         "X": 29.0,
         "Y": 3.0
        },
        "handle_left": {
         "X": 0.5,
         "Y": 1.0
        },
        "handle_right": {
         "X": 0.5,
         "Y": 0.0
        },
        "handle_type": 0,
        "interpolation": 0
       }
      ]
     },
     "reader": {
      "acodec": "",
      "audio_bit_rate": 0,
      "audio_stream_index": -1,
      "audio_timebase": {
       "den": 1,
       "num": 1
      },
      "channel_layout": 4,
      "channels": 0,
      "display_ratio": {
       "den": 4,
       "num": 5
      },
      "duration": 3600.0,
      "file_size": "5832000",
      "fps": {
       "den": 1,
       "num": 30
      },
      "has_audio": false,
      "has_single_image": true,
      "has_video": true,
      "height": 576,
      "interlaced_frame": false,
      "metadata": {},
      "path": "@transitions/common/fade.svg",
      "pixel_format": -1,
      "pixel_ratio": {
       "den": 1,
       "num": 1
      },
      "sample_rate": 0,
      "top_field_first": true,
      "type": "QtImageReader",
      "vcodec": "",
      "video_bit_rate": 0,
      "video_length": "108000",
      "video_stream_index": -1,
      "video_timebase": {
       "den": 30,
       "num": 1
      },
      "width": 720
     },
     "replace_image": false,
     "id": "OX49IKX2Z1"
    },
    "transaction": "4d110700-78f6-47cb-94da-8882b0ac17c8"
   },
   {
    "type": "insert",
    "key": [
     "effects"
    ],
    "value": {
     "layer": 2000000,
     "title": "Transition",
     "type": "Mask",
     "position": 424.8333333333333,
     "start": 0,
     "end": 0.9583333333333212,
     "brightness": {
      "Points": [
       {
        "co": {
         "X": 1.0,
         "Y": -1.0
        },
        "handle_left": {
         "X": 0.5,
         "Y": 1.0
        },
        "handle_right": {
         "X": 0.5,
         "Y": 0.0
        },
        "handle_type": 0,
        "interpolation": 0
       },
       {
        "co": {
         "X": 29.0,
         "Y": 1.0
        },
        "handle_left": {
         "X": 0.5,
         "Y": 1.0
        },
        "handle_right": {
         "X": 0.5,
         "Y": 0.0
        },
        "handle_type": 0,
        "interpolation": 0
       }
      ]
     },
     "contrast": {
      "Points": [
       {
        "co": {
         "X": 1.0,
         "Y": 3.0
        },
        "handle_left": {
         "X": 0.5,
         "Y": 1.0
        },
        "handle_right": {
         "X": 0.5,
         "Y": 0.0
        },
        "handle_type": 0,
        "interpolation": 0
       },
       {
        "co": {
         "X": 29.0,
         "Y": 3.0
        },
        "handle_left": {
         "X": 0.5,
         "Y": 1.0
        },
        "handle_right": {
         "X": 0.5,
         "Y": 0.0
        },
        "handle_type": 0,
        "interpolation": 0
       }
      ]
     },
     "reader": {
      "acodec": "",
      "audio_bit_rate": 0,
      "audio_stream_index": -1,
      "audio_timebase": {
       "den": 1,
       "num": 1
      },
      "channel_layout": 4,
      "channels": 0,
      "display_ratio": {
       "den": 4,
       "num": 5
      },
      "duration": 3600.0,
      "file_size": "5832000",
      "fps": {
       "den": 1,
       "num": 30
      },
      "has_audio": false,
      "has_single_image": true,
      "has_video": true,
      "height": 576,
      "interlaced_frame": false,
      "metadata": {},
      "path": "@transitions/common/fade.svg",
      "pixel_format": -1,
      "pixel_ratio": {
       "den": 1,
       "num": 1
      },
      "sample_rate": 0,
      "top_field_first": true,
      "type": "QtImageReader",
      "vcodec": "",
      "video_bit_rate": 0,
      "video_length": "108000",
      "video_stream_index": -1,
      "video_timebase": {
       "den": 30,
       "num": 1
      },
      "width": 720
     },
     "replace_image": false,
     "id": "6H3NHSU7NW"
    },
    "old_values": [
     {
      "id": "CCF0XFFI23",
      "layer": 2000000,
      "title": "Transition",
      "type": "Mask",
      "position": 0.8,
      "start": 0,
      "end": 1,
      "brightness": {
       "Points": [
        {
         "co": {
          "X": 1.0,
          "Y": 1.0
         },
         "handle_left": {
          "X": 0.5,
          "Y": 1.0
         },
         "handle_right": {
          "X": 0.5,
          "Y": 0.0
         },
         "handle_type": 0,
         "interpolation": 0
        },
        {
         "co": {
          "X": 30.0,
          "Y": -1.0
         },
         "handle_left": {
          "X": 0.5,
          "Y": 1.0
         },
         "handle_right": {
          "X": 0.5,
          "Y": 0.0
         },
         "handle_type": 0,
         "interpolation": 0
        }
       ]
      },
      "contrast": {
       "Points": [
        {
         "co": {
          "X": 1.0,
          "Y": 3.0
         },
         "handle_left": {
          "X": 0.5,
          "Y": 1.0
         },
         "handle_right": {
          "X": 0.5,
          "Y": 0.0
         },
         "handle_type": 0,
         "interpolation": 0
        },
        {
         "co": {
          "X": 30.0,
          "Y": 3.0
         },
         "handle_left": {
          "X": 0.5,
          "Y": 1.0
         },
         "handle_right": {
          "X": 0.5,
          "Y": 0.0
         },
         "handle_type": 0,
         "interpolation": 0
        }
       ]
      },
      "reader": {
       "acodec": "",
       "audio_bit_rate": 0,
       "audio_stream_index": -1,
       "audio_timebase": {
        "den": 1,
        "num": 1
       },
       "channel_layout": 4,
       "channels": 0,
       "display_ratio": {
        "den": 4,
        "num": 5
       },
       "duration": 3600.0,
       "file_size": "5832000",
       "fps": {
        "den": 1,
        "num": 30
       },
       "has_audio": false,
       "has_single_image": true,
       "has_video": true,
       "height": 576,
       "interlaced_frame": false,
       "metadata": {},
       "path": "@transitions/common/fade.svg",
       "pixel_format": -1,
       "pixel_ratio": {
        "den": 1,
        "num": 1
       },
       "sample_rate": 0,
       "top_field_first": true,
       "type": "QtImageReader",
       "vcodec": "",
       "video_bit_rate": 0,
       "video_length": "108000",
       "video_stream_index": -1,
       "video_timebase": {
        "den": 30,
        "num": 1
       },
       "width": 720
      },
      "replace_image": false
     },
     {
      "layer": 2000000,
      "title": "Transition",
      "type": "Mask",
      "position": 5.533333333333333,
      "start": 0,
      "end": 1,
      "brightness": {
       "Points": [
        {
         "co": {
          "X": 1.0,
          "Y": -1.0
         },
         "handle_left": {
          "X": 0.5,
          "Y": 1.0
         },
         "handle_right": {
          "X": 0.5,
          "Y": 0.0
         },
         "handle_type": 0,
         "interpolation": 0
        },
        {
         "co": {
          "X": 30.0,
          "Y": 1.0
         },
         "handle_left": {
          "X": 0.5,
          "Y": 1.0
         },
         "handle_right": {
          "X": 0.5,
          "Y": 0.0
         },
         "handle_type": 0,
         "interpolation": 0
        }
       ]
      },
      "contrast": {
       "Points": [
        {
         "co": {
          "X": 1.0,
          "Y": 3.0
         },
         "handle_left": {
          "X": 0.5,
          "Y": 1.0
         },
         "handle_right": {
          "X": 0.5,
          "Y": 0.0
         },
         "handle_type": 0,
         "interpolation": 0
        },
        {
         "co": {
          "X": 30.0,
          "Y": 3.0
         },
         "handle_left": {
          "X": 0.5,
          "Y": 1.0
         },
         "handle_right": {
          "X": 0.5,
          "Y": 0.0
         },
         "handle_type": 0,
         "interpolation": 0
        }
       ]
      },
      "reader": {
       "acodec": "",
       "audio_bit_rate": 0,
       "audio_stream_index": -1,
       "audio_timebase": {
        "den": 1,
        "num": 1
       },
       "channel_layout": 4,
       "channels": 0,
       "display_ratio": {
        "den": 4,
        "num": 5
       },
       "duration": 3600.0,
       "file_size": "5832000",
       "fps": {
        "den": 1,
        "num": 30
       },
       "has_audio": false,
       "has_single_image": true,
       "has_video": true,
       "height": 576,
       "interlaced_frame": false,
       "metadata": {},
       "path": "@transitions/common/fade.svg",
       "pixel_format": -1,
       "pixel_ratio": {
        "den": 1,
        "num": 1
       },
       "sample_rate": 0,
       "top_field_first": true,
       "type": "QtImageReader",
       "vcodec": "",
       "video_bit_rate": 0,
       "video_length": "108000",
       "video_stream_index": -1,
       "video_timebase": {
        "den": 30,
        "num": 1
       },
       "width": 720
      },
      "replace_image": false,
      "id": "XXA2JTVLMO"
     },
     {
      "layer": 2000000,
      "title": "Transition",
      "type": "Mask",
      "position": 11.433333333333334,
      "start": 0,
      "end": 1,
      "brightness": {
       "Points": [
        {
         "co": {
          "X": 1.0,
          "Y": 1.0
         },
         "handle_left": {
          "X": 0.5,
          "Y": 1.0
         },
         "handle_right": {
          "X": 0.5,
          "Y": 0.0
         },
         "handle_type": 0,
         "interpolation": 0
        },
        {
         "co": {
          "X": 30.0,
          "Y": -1.0
         },
         "handle_left": {
          "X": 0.5,
          "Y": 1.0
         },
         "handle_right": {
          "X": 0.5,
          "Y": 0.0
         },
         "handle_type": 0,
         "interpolation": 0
        }
       ]
      },
      "contrast": {
       "Points": [
        {
         "co": {
          "X": 1.0,
          "Y": 3.0
         },
         "handle_left": {
          "X": 0.5,
          "Y": 1.0
         },
         "handle_right": {
          "X": 0.5,
          "Y": 0.0
         },
         "handle_type": 0,
         "interpolation": 0
        },
        {
         "co": {
          "X": 30.0,
          "Y": 3.0
         },
         "handle_left": {
          "X": 0.5,
          "Y": 1.0
         },
         "handle_right": {
          "X": 0.5,
          "Y": 0.0
         },
         "handle_type": 0,
         "interpolation": 0
        }
       ]
      },
      "reader": {
       "acodec": "",
       "audio_bit_rate": 0,
       "audio_stream_index": -1,
       "audio_timebase": {
        "den": 1,
        "num": 1
       },
       "channel_layout": 4,
       "channels": 0,
       "display_ratio": {
        "den": 4,
        "num": 5
       },
       "duration": 3600.0,
       "file_size": "5832000",
       "fps": {
        "den": 1,
        "num": 30
       },
       "has_audio": false,
       "has_single_image": true,
       "has_video": true,
       "height": 576,
       "interlaced_frame": false,
       "metadata": {},
       "path": "@transitions/common/fade.svg",
       "pixel_format": -1,
       "pixel_ratio": {
        "den": 1,
        "num": 1
       },
       "sample_rate": 0,
       "top_field_first": true,
       "type": "QtImageReader",
       "vcodec": "",
       "video_bit_rate": 0,
       "video_length": "108000",
       "video_stream_index": -1,
       "video_timebase": {
        "den": 30,
        "num": 1
       },
       "width": 720
      },
      "replace_image": false,
      "id": "RN9POGRPKN"
     },
     {
      "layer": 2000000,
      "title": "Transition",
      "type": "Mask",
      "position": 19.333333333333332,
      "start": 0,
      "end": 1,
      "brightness": {
       "Points": [
        {
         "co": {
          "X": 1.0,
          "Y": -1.0
         },
         "handle_left": {
          "X": 0.5,
          "Y": 1.0
         },
         "handle_right": {
          "X": 0.5,
          "Y": 0.0
         },
         "handle_type": 0,
         "interpolation": 0
        },
        {
         "co": {
          "X": 30.0,
          "Y": 1.0
         },
         "handle_left": {
          "X": 0.5,
          "Y": 1.0
         },
         "handle_right": {
          "X": 0.5,
          "Y": 0.0
         },
         "handle_type": 0,
         "interpolation": 0
        }
       ]
      },
      "contrast": {
       "Points": [
        {
         "co": {
          "X": 1.0,
          "Y": 3.0
         },
         "handle_left": {
          "X": 0.5,
          "Y": 1.0
         },
         "handle_right": {
          "X": 0.5,
          "Y": 0.0
         },
         "handle_type": 0,
         "interpolation": 0
        },
        {
         "co": {
          "X": 30.0,
          "Y": 3.0
         },
         "handle_left": {
          "X": 0.5,
          "Y": 1.0
         },
         "handle_right": {
          "X": 0.5,
          "Y": 0.0
         },
         "handle_type": 0,
         "interpolation": 0
        }
       ]
      },
      "reader": {
       "acodec": "",
       "audio_bit_rate": 0,
       "audio_stream_index": -1,
       "audio_timebase": {
        "den": 1,
        "num": 1
       },
       "channel_layout": 4,
       "channels": 0,
       "display_ratio": {
        "den": 4,
        "num": 5
       },
       "duration": 3600.0,
       "file_size": "5832000",
       "fps": {
        "den": 1,
        "num": 30
       },
       "has_audio": false,
       "has_single_image": true,
       "has_video": true,
       "height": 576,
       "interlaced_frame": false,
       "metadata": {},
       "path": "@transitions/common/fade.svg",
       "pixel_format": -1,
       "pixel_ratio": {
        "den": 1,
        "num": 1
       },
       "sample_rate": 0,
       "top_field_first": true,
       "type": "QtImageReader",
       "vcodec": "",
       "video_bit_rate": 0,
       "video_length": "108000",
       "video_stream_index": -1,
       "video_timebase": {
        "den": 30,
        "num": 1
       },
       "width": 720
      },
      "replace_image": false,
      "id": "ADKB2ZG9IL"
     },
     {
      "layer": 2000000,
      "title": "Transition",
      "type": "Mask",
      "position": 20.966666666666665,
      "start": 0,
      "end": 1,
      "brightness": {
       "Points": [
        {
         "co": {
          "X": 1.0,
          "Y": 1.0
         },
         "handle_left": {
          "X": 0.5,
          "Y": 1.0
         },
         "handle_right": {
          "X": 0.5,
          "Y": 0.0
         },
         "handle_type": 0,
         "interpolation": 0
        },
        {
         "co": {
          "X": 30.0,
          "Y": -1.0
         },
         "handle_left": {
          "X": 0.5,
          "Y": 1.0
         },
         "handle_right": {
          "X": 0.5,
          "Y": 0.0
         },
         "handle_type": 0,
         "interpolation": 0
        }
       ]
      },
      "contrast": {
       "Points": [
        {
         "co": {
          "X": 1.0,
          "Y": 3.0
         },
         "handle_left": {
          "X": 0.5,
          "Y": 1.0
         },
         "handle_right": {
          "X": 0.5,
          "Y": 0.0
         },
         "handle_type": 0,
         "interpolation": 0
        },
        {
         "co": {
          "X": 30.0,
          "Y": 3.0
         },
         "handle_left": {
          "X": 0.5,
          "Y": 1.0
         },
         "handle_right": {
          "X": 0.5,
          "Y": 0.0
         },
         "handle_type": 0,
         "interpolation": 0
        }
       ]
      },
      "reader": {
       "acodec": "",
       "audio_bit_rate": 0,
       "audio_stream_index": -1,
       "audio_timebase": {
        "den": 1,
        "num": 1
       },
       "channel_layout": 4,
       "channels": 0,
       "display_ratio": {
        "den": 4,
        "num": 5
       },
       "duration": 3600.0,
       "file_size": "5832000",
       "fps": {
        "den": 1,
        "num": 30
       },
       "has_audio": false,
       "has_single_image": true,
       "has_video": true,
       "height": 576,
       "interlaced_frame": false,
       "metadata": {},
       "path": "@transitions/common/fade.svg",
       "pixel_format": -1,
       "pixel_ratio": {
        "den": 1,
        "num": 1
       },
       "sample_rate": 0,
       "top_field_first": true,
       "type": "QtImageReader",
       "vcodec": "",
       "video_bit_rate": 0,
       "video_length": "108000",
       "video_stream_index": -1,
       "video_timebase": {
        "den": 30,
        "num": 1
       },
       "width": 720
      },
      "replace_image": false,
      "id": "0W42OBC13Z"
     },
     {
      "layer": 3000000,
      "title": "Transition",
      "type": "Mask",
      "position": 21.966666666666665,
      "start": 0,
      "end": 1,
      "brightness": {
       "Points": [
        {
         "co": {
          "X": 1.0,
          "Y": 1.0
         },
         "handle_left": {
          "X": 0.5,
          "Y": 1.0
         },
         "handle_right": {
          "X": 0.5,
          "Y": 0.0
         },
         "handle_type": 0,
         "interpolation": 0
        },
        {
         "co": {
          "X": 30.0,
          "Y": -1.0
         },
         "handle_left": {
          "X": 0.5,
          "Y": 1.0
         },
         "handle_right": {
          "X": 0.5,
          "Y": 0.0
         },
         "handle_type": 0,
         "interpolation": 0
        }
       ]
      },
      "contrast": {
       "Points": [
        {
         "co": {
          "X": 1.0,
          "Y": 3.0
         },
         "handle_left": {
          "X": 0.5,
          "Y": 1.0
         },
         "handle_right": {
          "X": 0.5,
          "Y": 0.0
         },
         "handle_type": 0,
         "interpolation": 0
        },
        {
         "co": {
          "X": 30.0,
          "Y": 3.0
         },
         "handle_left": {
          "X": 0.5,
          "Y": 1.0
         },
         "handle_right": {
          "X": 0.5,
          "Y": 0.0
         },
         "handle_type": 0,
         "interpolation": 0
        }
       ]
      },
      "reader": {
       "acodec": "",
       "audio_bit_rate": 0,
       "audio_stream_index": -1,
       "audio_timebase": {
        "den": 1,
        "num": 1
       },
       "channel_layout": 4,
       "channels": 0,
       "display_ratio": {
        "den": 4,
        "num": 5
       },
       "duration": 3600.0,
       "file_size": "5832000",
       "fps": {
        "den": 1,
        "num": 30
       },
       "has_audio": false,
       "has_single_image": true,
       "has_video": true,
       "height": 576,
       "interlaced_frame": false,
       "metadata": {},
       "path": "@transitions/common/fade.svg",
       "pixel_format": -1,
       "pixel_ratio": {
        "den": 1,
        "num": 1
       },
       "sample_rate": 0,
       "top_field_first": true,
       "type": "QtImageReader",
       "vcodec": "",
       "video_bit_rate": 0,
       "video_length": "108000",
       "video_stream_index": -1,
       "video_timebase": {
        "den": 30,
        "num": 1
       },
       "width": 720
      },
      "replace_image": false,
      "id": "QSYGIBWS04"
     },
     {
      "layer": 4000000,
      "title": "Transition",
      "type": "Mask",
      "position": 21.966666666666665,
      "start": 0,
      "end": 1,
      "brightness": {
       "Points": [
        {
         "co": {
          "X": 1.0,
          "Y": 1.0
         },
         "handle_left": {
          "X": 0.5,
          "Y": 1.0
         },
         "handle_right": {
          "X": 0.5,
          "Y": 0.0
         },
         "handle_type": 0,
         "interpolation": 0
        },
        {
         "co": {
          "X": 30.0,
          "Y": -1.0
         },
         "handle_left": {
          "X": 0.5,
          "Y": 1.0
         },
         "handle_right": {
          "X": 0.5,
          "Y": 0.0
         },
         "handle_type": 0,
         "interpolation": 0
        }
       ]
      },
      "contrast": {
       "Points": [
        {
         "co": {
          "X": 1.0,
          "Y": 3.0
         },
         "handle_left": {
          "X": 0.5,
          "Y": 1.0
         },
         "handle_right": {
          "X": 0.5,
          "Y": 0.0
         },
         "handle_type": 0,
         "interpolation": 0
        },
        {
         "co": {
          "X": 30.0,
          "Y": 3.0
         },
         "handle_left": {
          "X": 0.5,
          "Y": 1.0
         },
         "handle_right": {
          "X": 0.5,
          "Y": 0.0
         },
         "handle_type": 0,
         "interpolation": 0
        }
       ]
      },
      "reader": {
       "acodec": "",
       "audio_bit_rate": 0,
       "audio_stream_index": -1,
       "audio_timebase": {
        "den": 1,
        "num": 1
       },
       "channel_layout": 4,
       "channels": 0,
       "display_ratio": {
        "den": 4,
        "num": 5
       },
       "duration": 3600.0,
       "file_size": "5832000",
       "fps": {
        "den": 1,
        "num": 30
       },
       "has_audio": false,
       "has_single_image": true,
       "has_video": true,
       "height": 576,
       "interlaced_frame": false,
       "metadata": {},
       "path": "@transitions/common/fade.svg",
       "pixel_format": -1,
       "pixel_ratio": {
        "den": 1,
        "num": 1
       },
       "sample_rate": 0,
       "top_field_first": true,
       "type": "QtImageReader",
       "vcodec": "",
       "video_bit_rate": 0,
       "video_length": "108000",
       "video_stream_index": -1,
       "video_timebase": {
        "den": 30,
        "num": 1
       },
       "width": 720
      },
      "replace_image": false,
      "id": "MUDX88MTT3"
     },
     {
      "layer": 7000000,
      "title": "Transition",
      "type": "Mask",
      "position": 21.966666666666665,
      "start": 0,
      "end": 1,
      "brightness": {
       "Points": [
        {
         "co": {
          "X": 1.0,
          "Y": 1.0
         },
         "handle_left": {
          "X": 0.5,
          "Y": 1.0
         },
         "handle_right": {
          "X": 0.5,
          "Y": 0.0
         },
         "handle_type": 0,
         "interpolation": 0
        },
        {
         "co": {
          "X": 30.0,
          "Y": -1.0
         },
         "handle_left": {
          "X": 0.5,
          "Y": 1.0
         },
         "handle_right": {
          "X": 0.5,
          "Y": 0.0
         },
         "handle_type": 0,
         "interpolation": 0
        }
       ]
      },
      "contrast": {
       "Points": [
        {
         "co": {
          "X": 1.0,
          "Y": 3.0
         },
         "handle_left": {
          "X": 0.5,
          "Y": 1.0
         },
         "handle_right": {
          "X": 0.5,
          "Y": 0.0
         },
         "handle_type": 0,
         "interpolation": 0
        },
        {
         "co": {
          "X": 30.0,
          "Y": 3.0
         },
         "handle_left": {
          "X": 0.5,
          "Y": 1.0
         },
         "handle_right": {
          "X": 0.5,
          "Y": 0.0
         },
         "handle_type": 0,
         "interpolation": 0
        }
       ]
      },
      "reader": {
       "acodec": "",
       "audio_bit_rate": 0,
       "audio_stream_index": -1,
       "audio_timebase": {
        "den": 1,
        "num": 1
       },
       "channel_layout": 4,
       "channels": 0,
       "display_ratio": {
        "den": 4,
        "num": 5
       },
       "duration": 3600.0,
       "file_size": "5832000",
       "fps": {
        "den": 1,
        "num": 30
       },
       "has_audio": false,
       "has_single_image": true,
       "has_video": true,
       "height": 576,
       "interlaced_frame": false,
       "metadata": {},
       "path": "@transitions/common/fade.svg",
       "pixel_format": -1,
       "pixel_ratio": {
        "den": 1,
        "num": 1
       },
       "sample_rate": 0,
       "top_field_first": true,
       "type": "QtImageReader",
       "vcodec": "",
       "video_bit_rate": 0,
       "video_length": "108000",
       "video_stream_index": -1,
       "video_timebase": {
        "den": 30,
        "num": 1
       },
       "width": 720
      },
      "replace_image": false,
      "id": "4L09X67XI2"
     },
     {
      "layer": 5000000,
      "title": "Transition",
      "type": "Mask",
      "position": 21.966666666666665,
      "start": 0,
      "end": 1,
      "brightness": {
       "Points": [
        {
         "co": {
          "X": 1.0,
          "Y": 1.0
         },
         "handle_left": {
          "X": 0.5,
          "Y": 1.0
         },
         "handle_right": {
          "X": 0.5,
          "Y": 0.0
         },
         "handle_type": 0,
         "interpolation": 0
        },
        {
         "co": {
          "X": 30.0,
          "Y": -1.0
         },
         "handle_left": {
          "X": 0.5,
          "Y": 1.0
         },
         "handle_right": {
          "X": 0.5,
          "Y": 0.0
         },
         "handle_type": 0,
         "interpolation": 0
        }
       ]
      },
      "contrast": {
       "Points": [
        {
         "co": {
          "X": 1.0,
          "Y": 3.0
         },
         "handle_left": {
          "X": 0.5,
          "Y": 1.0
         },
         "handle_right": {
          "X": 0.5,
          "Y": 0.0
         },
         "handle_type": 0,
         "interpolation": 0
        },
        {
         "co": {
          "X": 30.0,
          "Y": 3.0
         },
         "handle_left": {
          "X": 0.5,
          "Y": 1.0
         },
         "handle_right": {
          "X": 0.5,
          "Y": 0.0
         },
         "handle_type": 0,
         "interpolation": 0
        }
       ]
      },
      "reader": {
       "acodec": "",
       "audio_bit_rate": 0,
       "audio_stream_index": -1,
       "audio_timebase": {
        "den": 1,
        "num": 1
       },
       "channel_layout": 4,
       "channels": 0,
       "display_ratio": {
        "den": 4,
        "num": 5
       },
       "duration": 3600.0,
       "file_size": "5832000",
       "fps": {
        "den": 1,
        "num": 30
       },
       "has_audio": false,
       "has_single_image": true,
       "has_video": true,
       "height": 576,
       "interlaced_frame": false,
       "metadata": {},
       "path": "@transitions/common/fade.svg",
       "pixel_format": -1,
       "pixel_ratio": {
        "den": 1,
        "num": 1
       },
       "sample_rate": 0,
       "top_field_first": true,
       "type": "QtImageReader",
       "vcodec": "",
       "video_bit_rate": 0,
       "video_length": "108000",
       "video_stream_index": -1,
       "video_timebase": {
        "den": 30,
        "num": 1
       },
       "width": 720
      },
      "replace_image": false,
      "id": "O681WSL8AF"
     },
     {
      "layer": 6000000,
      "title": "Transition",
      "type": "Mask",
      "position": 21.966666666666665,
      "start": 0,
      "end": 1,
      "brightness": {
       "Points": [
        {
         "co": {
          "X": 1.0,
          "Y": 1.0
         },
         "handle_left": {
          "X": 0.5,
          "Y": 1.0
         },
         "handle_right": {
          "X": 0.5,
          "Y": 0.0
         },
         "handle_type": 0,
         "interpolation": 0
        },
        {
         "co": {
          "X": 30.0,
          "Y": -1.0
         },
         "handle_left": {
          "X": 0.5,
          "Y": 1.0
         },
         "handle_right": {
          "X": 0.5,
          "Y": 0.0
         },
         "handle_type": 0,
         "interpolation": 0
        }
       ]
      },
      "contrast": {
       "Points": [
        {
         "co": {
          "X": 1.0,
          "Y": 3.0
         },
         "handle_left": {
          "X": 0.5,
          "Y": 1.0
         },
         "handle_right": {
          "X": 0.5,
          "Y": 0.0
         },
         "handle_type": 0,
         "interpolation": 0
        },
        {
         "co": {
          "X": 30.0,
          "Y": 3.0
         },
         "handle_left": {
          "X": 0.5,
          "Y": 1.0
         },
         "handle_right": {
          "X": 0.5,
          "Y": 0.0
         },
         "handle_type": 0,
         "interpolation": 0
        }
       ]
      },
      "reader": {
       "acodec": "",
       "audio_bit_rate": 0,
       "audio_stream_index": -1,
       "audio_timebase": {
        "den": 1,
        "num": 1
       },
       "channel_layout": 4,
       "channels": 0,
       "display_ratio": {
        "den": 4,
        "num": 5
       },
       "duration": 3600.0,
       "file_size": "5832000",
       "fps": {
        "den": 1,
        "num": 30
       },
       "has_audio": false,
       "has_single_image": true,
       "has_video": true,
       "height": 576,
       "interlaced_frame": false,
       "metadata": {},
       "path": "@transitions/common/fade.svg",
       "pixel_format": -1,
       "pixel_ratio": {
        "den": 1,
        "num": 1
       },
       "sample_rate": 0,
       "top_field_first": true,
       "type": "QtImageReader",
       "vcodec": "",
       "video_bit_rate": 0,
       "video_length": "108000",
       "video_stream_index": -1,
       "video_timebase": {
        "den": 30,
        "num": 1
       },
       "width": 720
      },
      "replace_image": false,
      "id": "M088VM48FK"
     },
     {
      "layer": 6000000,
      "title": "Transition",
      "type": "Mask",
      "position": 25.266666666666666,
      "start": 0,
      "end": 1,
      "brightness": {
       "Points": [
        {
         "co": {
          "X": 1.0,
          "Y": -1.0
         },
         "handle_left": {
          "X": 0.5,
          "Y": 1.0
         },
         "handle_right": {
          "X": 0.5,
          "Y": 0.0
         },
         "handle_type": 0,
         "interpolation": 0
        },
        {
         "co": {
          "X": 30.0,
          "Y": 1.0
         },
         "handle_left": {
          "X": 0.5,
          "Y": 1.0
         },
         "handle_right": {
          "X": 0.5,
          "Y": 0.0
         },
         "handle_type": 0,
         "interpolation": 0
        }
       ]
      },
      "contrast": {
       "Points": [
        {
         "co": {
          "X": 1.0,
          "Y": 3.0
         },
         "handle_left": {
          "X": 0.5,
          "Y": 1.0
         },
         "handle_right": {
          "X": 0.5,
          "Y": 0.0
         },
         "handle_type": 0,
         "interpolation": 0
        },
        {
         "co": {
          "X": 30.0,
          "Y": 3.0
         },
         "handle_left": {
          "X": 0.5,
          "Y": 1.0
         },
         "handle_right": {
          "X": 0.5,
          "Y": 0.0
         },
         "handle_type": 0,
         "interpolation": 0
        }
       ]
      },
      "reader": {
       "acodec": "",
       "audio_bit_rate": 0,
       "audio_stream_index": -1,
       "audio_timebase": {
        "den": 1,
        "num": 1
       },
       "channel_layout": 4,
       "channels": 0,
       "display_ratio": {
        "den": 4,
        "num": 5
       },
       "duration": 3600.0,
       "file_size": "5832000",
       "fps": {
        "den": 1,
        "num": 30
       },
       "has_audio": false,
       "has_single_image": true,
       "has_video": true,
       "height": 576,
       "interlaced_frame": false,
       "metadata": {},
       "path": "@transitions/common/fade.svg",
       "pixel_format": -1,
       "pixel_ratio": {
        "den": 1,
        "num": 1
       },
       "sample_rate": 0,
       "top_field_first": true,
       "type": "QtImageReader",
       "vcodec": "",
       "video_bit_rate": 0,
       "video_length": "108000",
       "video_stream_index": -1,
       "video_timebase": {
        "den": 30,
        "num": 1
       },
       "width": 720
      },
      "replace_image": false,
      "id": "C9SIN6QZ8S"
     },
     {
      "layer": 5000000,
      "title": "Transition",
      "type": "Mask",
      "position": 25.266666666666666,
      "start": 0,
      "end": 1,
      "brightness": {
       "Points": [
        {
         "co": {
          "X": 1.0,
          "Y": -1.0
         },
         "handle_left": {
          "X": 0.5,
          "Y": 1.0
         },
         "handle_right": {
          "X": 0.5,
          "Y": 0.0
         },
         "handle_type": 0,
         "interpolation": 0
        },
        {
         "co": {
          "X": 30.0,
          "Y": 1.0
         },
         "handle_left": {
          "X": 0.5,
          "Y": 1.0
         },
         "handle_right": {
          "X": 0.5,
          "Y": 0.0
         },
         "handle_type": 0,
         "interpolation": 0
        }
       ]
      },
      "contrast": {
       "Points": [
        {
         "co": {
          "X": 1.0,
          "Y": 3.0
         },
         "handle_left": {
          "X": 0.5,
          "Y": 1.0
         },
         "handle_right": {
          "X": 0.5,
          "Y": 0.0
         },
         "handle_type": 0,
         "interpolation": 0
        },
        {
         "co": {
          "X": 30.0,
          "Y": 3.0
         },
         "handle_left": {
          "X": 0.5,
          "Y": 1.0
         },
         "handle_right": {
          "X": 0.5,
          "Y": 0.0
         },
         "handle_type": 0,
         "interpolation": 0
        }
       ]
      },
      "reader": {
       "acodec": "",
       "audio_bit_rate": 0,
       "audio_stream_index": -1,
       "audio_timebase": {
        "den": 1,
        "num": 1
       },
       "channel_layout": 4,
       "channels": 0,
       "display_ratio": {
        "den": 4,
        "num": 5
       },
       "duration": 3600.0,
       "file_size": "5832000",
       "fps": {
        "den": 1,
        "num": 30
       },
       "has_audio": false,
       "has_single_image": true,
       "has_video": true,
       "height": 576,
       "interlaced_frame": false,
       "metadata": {},
       "path": "@transitions/common/fade.svg",
       "pixel_format": -1,
       "pixel_ratio": {
        "den": 1,
        "num": 1
       },
       "sample_rate": 0,
       "top_field_first": true,
       "type": "QtImageReader",
       "vcodec": "",
       "video_bit_rate": 0,
       "video_length": "108000",
       "video_stream_index": -1,
       "video_timebase": {
        "den": 30,
        "num": 1
       },
       "width": 720
      },
      "replace_image": false,
      "id": "I6YLI3CQDR"
     },
     {
      "layer": 4000000,
      "title": "Transition",
      "type": "Mask",
      "position": 25.266666666666666,
      "start": 0,
      "end": 1,
      "brightness": {
       "Points": [
        {
         "co": {
          "X": 1.0,
          "Y": -1.0
         },
         "handle_left": {
          "X": 0.5,
          "Y": 1.0
         },
         "handle_right": {
          "X": 0.5,
          "Y": 0.0
         },
         "handle_type": 0,
         "interpolation": 0
        },
        {
         "co": {
          "X": 30.0,
          "Y": 1.0
         },
         "handle_left": {
          "X": 0.5,
          "Y": 1.0
         },
         "handle_right": {
          "X": 0.5,
          "Y": 0.0
         },
         "handle_type": 0,
         "interpolation": 0
        }
       ]
      },
      "contrast": {
       "Points": [
        {
         "co": {
          "X": 1.0,
          "Y": 3.0
         },
         "handle_left": {
          "X": 0.5,
          "Y": 1.0
         },
         "handle_right": {
          "X": 0.5,
          "Y": 0.0
         },
         "handle_type": 0,
         "interpolation": 0
        },
        {
         "co": {
          "X": 30.0,
          "Y": 3.0
         },
         "handle_left": {
          "X": 0.5,
          "Y": 1.0
         },
         "handle_right": {
          "X": 0.5,
          "Y": 0.0
         },
         "handle_type": 0,
         "interpolation": 0
        }
       ]
      },
      "reader": {
       "acodec": "",
       "audio_bit_rate": 0,
       "audio_stream_index": -1,
       "audio_timebase": {
        "den": 1,
        "num": 1
       },
       "channel_layout": 4,
       "channels": 0,
       "display_ratio": {
        "den": 4,
        "num": 5
       },
       "duration": 3600.0,
       "file_size": "5832000",
       "fps": {
        "den": 1,
        "num": 30
       },
       "has_audio": false,
       "has_single_image": true,
       "has_video": true,
       "height": 576,
       "interlaced_frame": false,
       "metadata": {},
       "path": "@transitions/common/fade.svg",
       "pixel_format": -1,
       "pixel_ratio": {
        "den": 1,
        "num": 1
       },
       "sample_rate": 0,
       "top_field_first": true,
       "type": "QtImageReader",
       "vcodec": "",
       "video_bit_rate": 0,
       "video_length": "108000",
       "video_stream_index": -1,
       "video_timebase": {
        "den": 30,
        "num": 1
       },
       "width": 720
      },
      "replace_image": false,
      "id": "G0XGWQG64E"
     },
     {
      "layer": 3000000,
      "title": "Transition",
      "type": "Mask",
      "position": 25.266666666666666,
      "start": 0,
      "end": 1,
      "brightness": {
       "Points": [
        {
         "co": {
          "X": 1.0,
          "Y": -1.0
         },
         "handle_left": {
          "X": 0.5,
          "Y": 1.0
         },
         "handle_right": {
          "X": 0.5,
          "Y": 0.0
         },
         "handle_type": 0,
         "interpolation": 0
        },
        {
         "co": {
          "X": 30.0,
          "Y": 1.0
         },
         "handle_left": {
          "X": 0.5,
          "Y": 1.0
         },
         "handle_right": {
          "X": 0.5,
          "Y": 0.0
         },
         "handle_type": 0,
         "interpolation": 0
        }
       ]
      },
      "contrast": {
       "Points": [
        {
         "co": {
          "X": 1.0,
          "Y": 3.0
         },
         "handle_left": {
          "X": 0.5,
          "Y": 1.0
         },
         "handle_right": {
          "X": 0.5,
          "Y": 0.0
         },
         "handle_type": 0,
         "interpolation": 0
        },
        {
         "co": {
          "X": 30.0,
          "Y": 3.0
         },
         "handle_left": {
          "X": 0.5,
          "Y": 1.0
         },
         "handle_right": {
          "X": 0.5,
          "Y": 0.0
         },
         "handle_type": 0,
         "interpolation": 0
        }
       ]
      },
      "reader": {
       "acodec": "",
       "audio_bit_rate": 0,
       "audio_stream_index": -1,
       "audio_timebase": {
        "den": 1,
        "num": 1
       },
       "channel_layout": 4,
       "channels": 0,
       "display_ratio": {
        "den": 4,
        "num": 5
       },
       "duration": 3600.0,
       "file_size": "5832000",
       "fps": {
        "den": 1,
        "num": 30
       },
       "has_audio": false,
       "has_single_image": true,
       "has_video": true,
       "height": 576,
       "interlaced_frame": false,
       "metadata": {},
       "path": "@transitions/common/fade.svg",
       "pixel_format": -1,
       "pixel_ratio": {
        "den": 1,
        "num": 1
       },
       "sample_rate": 0,
       "top_field_first": true,
       "type": "QtImageReader",
       "vcodec": "",
       "video_bit_rate": 0,
       "video_length": "108000",
       "video_stream_index": -1,
       "video_timebase": {
        "den": 30,
        "num": 1
       },
       "width": 720
      },
      "replace_image": false,
      "id": "SQUUWVPO2R"
     },
     {
      "layer": 7000000,
      "title": "Transition",
      "type": "Mask",
      "position": 25.266666666666666,
      "start": 0,
      "end": 1,
      "brightness": {
       "Points": [
        {
         "co": {
          "X": 1.0,
          "Y": -1.0
         },
         "handle_left": {
          "X": 0.5,
          "Y": 1.0
         },
         "handle_right": {
          "X": 0.5,
          "Y": 0.0
         },
         "handle_type": 0,
         "interpolation": 0
        },
        {
         "co": {
          "X": 30.0,
          "Y": 1.0
         },
         "handle_left": {
          "X": 0.5,
          "Y": 1.0
         },
         "handle_right": {
          "X": 0.5,
          "Y": 0.0
         },
         "handle_type": 0,
         "interpolation": 0
        }
       ]
      },
      "contrast": {
       "Points": [
        {
         "co": {
          "X": 1.0,
          "Y": 3.0
         },
         "handle_left": {
          "X": 0.5,
          "Y": 1.0
         },
         "handle_right": {
          "X": 0.5,
          "Y": 0.0
         },
         "handle_type": 0,
         "interpolation": 0
        },
        {
         "co": {
          "X": 30.0,
          "Y": 3.0
         },
         "handle_left": {
          "X": 0.5,
          "Y": 1.0
         },
         "handle_right": {
          "X": 0.5,
          "Y": 0.0
         },
         "handle_type": 0,
         "interpolation": 0
        }
       ]
      },
      "reader": {
       "acodec": "",
       "audio_bit_rate": 0,
       "audio_stream_index": -1,
       "audio_timebase": {
        "den": 1,
        "num": 1
       },
       "channel_layout": 4,
       "channels": 0,
       "display_ratio": {
        "den": 4,
        "num": 5
       },
       "duration": 3600.0,
       "file_size": "5832000",
       "fps": {
        "den": 1,
        "num": 30
       },
       "has_audio": false,
       "has_single_image": true,
       "has_video": true,
       "height": 576,
       "interlaced_frame": false,
       "metadata": {},
       "path": "@transitions/common/fade.svg",
       "pixel_format": -1,
       "pixel_ratio": {
        "den": 1,
        "num": 1
       },
       "sample_rate": 0,
       "top_field_first": true,
       "type": "QtImageReader",
       "vcodec": "",
       "video_bit_rate": 0,
       "video_length": "108000",
       "video_stream_index": -1,
       "video_timebase": {
        "den": 30,
        "num": 1
       },
       "width": 720
      },
      "replace_image": false,
      "id": "BHKYCUMDC6"
     },
     {
      "layer": 7000000,
      "title": "Transition",
      "type": "Mask",
      "position": 26.633333333333333,
      "start": 0,
      "end": 1,
      "brightness": {
       "Points": [
        {
         "co": {
          "X": 1.0,
          "Y": 1.0
         },
         "handle_left": {
          "X": 0.5,
          "Y": 1.0
         },
         "handle_right": {
          "X": 0.5,
          "Y": 0.0
         },
         "handle_type": 0,
         "interpolation": 0
        },
        {
         "co": {
          "X": 30.0,
          "Y": -1.0
         },
         "handle_left": {
          "X": 0.5,
          "Y": 1.0
         },
         "handle_right": {
          "X": 0.5,
          "Y": 0.0
         },
         "handle_type": 0,
         "interpolation": 0
        }
       ]
      },
      "contrast": {
       "Points": [
        {
         "co": {
          "X": 1.0,
          "Y": 3.0
         },
         "handle_left": {
          "X": 0.5,
          "Y": 1.0
         },
         "handle_right": {
          "X": 0.5,
          "Y": 0.0
         },
         "handle_type": 0,
         "interpolation": 0
        },
        {
         "co": {
          "X": 30.0,
          "Y": 3.0
         },
         "handle_left": {
          "X": 0.5,
          "Y": 1.0
         },
         "handle_right": {
          "X": 0.5,
          "Y": 0.0
         },
         "handle_type": 0,
         "interpolation": 0
        }
       ]
      },
      "reader": {
       "acodec": "",
       "audio_bit_rate": 0,
       "audio_stream_index": -1,
       "audio_timebase": {
        "den": 1,
        "num": 1
       },
       "channel_layout": 4,
       "channels": 0,
       "display_ratio": {
        "den": 4,
        "num": 5
       },
       "duration": 3600.0,
       "file_size": "5832000",
       "fps": {
        "den": 1,
        "num": 30
       },
       "has_audio": false,
       "has_single_image": true,
       "has_video": true,
       "height": 576,
       "interlaced_frame": false,
       "metadata": {},
       "path": "@transitions/common/fade.svg",
       "pixel_format": -1,
       "pixel_ratio": {
        "den": 1,
        "num": 1
       },
       "sample_rate": 0,
       "top_field_first": true,
       "type": "QtImageReader",
       "vcodec": "",
       "video_bit_rate": 0,
       "video_length": "108000",
       "video_stream_index": -1,
       "video_timebase": {
        "den": 30,
        "num": 1
       },
       "width": 720
      },
      "replace_image": false,
      "id": "Z4LPCLVXCA"
     },
     {
      "layer": 6000000,
      "title": "Transition",
      "type": "Mask",
      "position": 26.633333333333333,
      "start": 0,
      "end": 1,
      "brightness": {
       "Points": [
        {
         "co": {
          "X": 1.0,
          "Y": 1.0
         },
         "handle_left": {
          "X": 0.5,
          "Y": 1.0
         },
         "handle_right": {
          "X": 0.5,
          "Y": 0.0
         },
         "handle_type": 0,
         "interpolation": 0
        },
        {
         "co": {
          "X": 30.0,
          "Y": -1.0
         },
         "handle_left": {
          "X": 0.5,
          "Y": 1.0
         },
         "handle_right": {
          "X": 0.5,
          "Y": 0.0
         },
         "handle_type": 0,
         "interpolation": 0
        }
       ]
      },
      "contrast": {
       "Points": [
        {
         "co": {
          "X": 1.0,
          "Y": 3.0
         },
         "handle_left": {
          "X": 0.5,
          "Y": 1.0
         },
         "handle_right": {
          "X": 0.5,
          "Y": 0.0
         },
         "handle_type": 0,
         "interpolation": 0
        },
        {
         "co": {
          "X": 30.0,
          "Y": 3.0
         },
         "handle_left": {
          "X": 0.5,
          "Y": 1.0
         },
         "handle_right": {
          "X": 0.5,
          "Y": 0.0
         },
         "handle_type": 0,
         "interpolation": 0
        }
       ]
      },
      "reader": {
       "acodec": "",
       "audio_bit_rate": 0,
       "audio_stream_index": -1,
       "audio_timebase": {
        "den": 1,
        "num": 1
       },
       "channel_layout": 4,
       "channels": 0,
       "display_ratio": {
        "den": 4,
        "num": 5
       },
       "duration": 3600.0,
       "file_size": "5832000",
       "fps": {
        "den": 1,
        "num": 30
       },
       "has_audio": false,
       "has_single_image": true,
       "has_video": true,
       "height": 576,
       "interlaced_frame": false,
       "metadata": {},
       "path": "@transitions/common/fade.svg",
       "pixel_format": -1,
       "pixel_ratio": {
        "den": 1,
        "num": 1
       },
       "sample_rate": 0,
       "top_field_first": true,
       "type": "QtImageReader",
       "vcodec": "",
       "video_bit_rate": 0,
       "video_length": "108000",
       "video_stream_index": -1,
       "video_timebase": {
        "den": 30,
        "num": 1
       },
       "width": 720
      },
      "replace_image": false,
      "id": "MPAHNTV5UJ"
     },
     {
      "layer": 5000000,
      "title": "Transition",
      "type": "Mask",
      "position": 26.633333333333333,
      "start": 0,
      "end": 1,
      "brightness": {
       "Points": [
        {
         "co": {
          "X": 1.0,
          "Y": 1.0
         },
         "handle_left": {
          "X": 0.5,
          "Y": 1.0
         },
         "handle_right": {
          "X": 0.5,
          "Y": 0.0
         },
         "handle_type": 0,
         "interpolation": 0
        },
        {
         "co": {
          "X": 30.0,
          "Y": -1.0
         },
         "handle_left": {
          "X": 0.5,
          "Y": 1.0
         },
         "handle_right": {
          "X": 0.5,
          "Y": 0.0
         },
         "handle_type": 0,
         "interpolation": 0
        }
       ]
      },
      "contrast": {
       "Points": [
        {
         "co": {
          "X": 1.0,
          "Y": 3.0
         },
         "handle_left": {
          "X": 0.5,
          "Y": 1.0
         },
         "handle_right": {
          "X": 0.5,
          "Y": 0.0
         },
         "handle_type": 0,
         "interpolation": 0
        },
        {
         "co": {
          "X": 30.0,
          "Y": 3.0
         },
         "handle_left": {
          "X": 0.5,
          "Y": 1.0
         },
         "handle_right": {
          "X": 0.5,
          "Y": 0.0
         },
         "handle_type": 0,
         "interpolation": 0
        }
       ]
      },
      "reader": {
       "acodec": "",
       "audio_bit_rate": 0,
       "audio_stream_index": -1,
       "audio_timebase": {
        "den": 1,
        "num": 1
       },
       "channel_layout": 4,
       "channels": 0,
       "display_ratio": {
        "den": 4,
        "num": 5
       },
       "duration": 3600.0,
       "file_size": "5832000",
       "fps": {
        "den": 1,
        "num": 30
       },
       "has_audio": false,
       "has_single_image": true,
       "has_video": true,
       "height": 576,
       "interlaced_frame": false,
       "metadata": {},
       "path": "@transitions/common/fade.svg",
       "pixel_format": -1,
       "pixel_ratio": {
        "den": 1,
        "num": 1
       },
       "sample_rate": 0,
       "top_field_first": true,
       "type": "QtImageReader",
       "vcodec": "",
       "video_bit_rate": 0,
       "video_length": "108000",
       "video_stream_index": -1,
       "video_timebase": {
        "den": 30,
        "num": 1
       },
       "width": 720
      },
      "replace_image": false,
      "id": "47G933Z1X6"
     },
     {
      "layer": 4000000,
      "title": "Transition",
      "type": "Mask",
      "position": 26.633333333333333,
      "start": 0,
      "end": 1,
      "brightness": {
       "Points": [
        {
         "co": {
          "X": 1.0,
          "Y": 1.0
         },
         "handle_left": {
          "X": 0.5,
          "Y": 1.0
         },
         "handle_right": {
          "X": 0.5,
          "Y": 0.0
         },
         "handle_type": 0,
         "interpolation": 0
        },
        {
         "co": {
          "X": 30.0,
          "Y": -1.0
         },
         "handle_left": {
          "X": 0.5,
          "Y": 1.0
         },
         "handle_right": {
          "X": 0.5,
          "Y": 0.0
         },
         "handle_type": 0,
         "interpolation": 0
        }
       ]
      },
      "contrast": {
       "Points": [
        {
         "co": {
          "X": 1.0,
          "Y": 3.0
         },
         "handle_left": {
          "X": 0.5,
          "Y": 1.0
         },
         "handle_right": {
          "X": 0.5,
          "Y": 0.0
         },
         "handle_type": 0,
         "interpolation": 0
        },
        {
         "co": {
          "X": 30.0,
          "Y": 3.0
         },
         "handle_left": {
          "X": 0.5,
          "Y": 1.0
         },
         "handle_right": {
          "X": 0.5,
          "Y": 0.0
         },
         "handle_type": 0,
         "interpolation": 0
        }
       ]
      },
      "reader": {
       "acodec": "",
       "audio_bit_rate": 0,
       "audio_stream_index": -1,
       "audio_timebase": {
        "den": 1,
        "num": 1
       },
       "channel_layout": 4,
       "channels": 0,
       "display_ratio": {
        "den": 4,
        "num": 5
       },
       "duration": 3600.0,
       "file_size": "5832000",
       "fps": {
        "den": 1,
        "num": 30
       },
       "has_audio": false,
       "has_single_image": true,
       "has_video": true,
       "height": 576,
       "interlaced_frame": false,
       "metadata": {},
       "path": "@transitions/common/fade.svg",
       "pixel_format": -1,
       "pixel_ratio": {
        "den": 1,
        "num": 1
       },
       "sample_rate": 0,
       "top_field_first": true,
       "type": "QtImageReader",
       "vcodec": "",
       "video_bit_rate": 0,
       "video_length": "108000",
       "video_stream_index": -1,
       "video_timebase": {
        "den": 30,
        "num": 1
       },
       "width": 720
      },
      "replace_image": false,
      "id": "J3F6G7YKRA"
     },
     {
      "layer": 3000000,
      "title": "Transition",
      "type": "Mask",
      "position": 26.633333333333333,
      "start": 0,
      "end": 1,
      "brightness": {
       "Points": [
        {
         "co": {
          "X": 1.0,
          "Y": 1.0
         },
         "handle_left": {
          "X": 0.5,
          "Y": 1.0
         },
         "handle_right": {
          "X": 0.5,
          "Y": 0.0
         },
         "handle_type": 0,
         "interpolation": 0
        },
        {
         "co": {
          "X": 30.0,
          "Y": -1.0
         },
         "handle_left": {
          "X": 0.5,
          "Y": 1.0
         },
         "handle_right": {
          "X": 0.5,
          "Y": 0.0
         },
         "handle_type": 0,
         "interpolation": 0
        }
       ]
      },
      "contrast": {
       "Points": [
        {
         "co": {
          "X": 1.0,
          "Y": 3.0
         },
         "handle_left": {
          "X": 0.5,
          "Y": 1.0
         },
         "handle_right": {
          "X": 0.5,
          "Y": 0.0
         },
         "handle_type": 0,
         "interpolation": 0
        },
        {
         "co": {
          "X": 30.0,
          "Y": 3.0
         },
         "handle_left": {
          "X": 0.5,
          "Y": 1.0
         },
         "handle_right": {
          "X": 0.5,
          "Y": 0.0
         },
         "handle_type": 0,
         "interpolation": 0
        }
       ]
      },
      "reader": {
       "acodec": "",
       "audio_bit_rate": 0,
       "audio_stream_index": -1,
       "audio_timebase": {
        "den": 1,
        "num": 1
       },
       "channel_layout": 4,
       "channels": 0,
       "display_ratio": {
        "den": 4,
        "num": 5
       },
       "duration": 3600.0,
       "file_size": "5832000",
       "fps": {
        "den": 1,
        "num": 30
       },
       "has_audio": false,
       "has_single_image": true,
       "has_video": true,
       "height": 576,
       "interlaced_frame": false,
       "metadata": {},
       "path": "@transitions/common/fade.svg",
       "pixel_format": -1,
       "pixel_ratio": {
        "den": 1,
        "num": 1
       },
       "sample_rate": 0,
       "top_field_first": true,
       "type": "QtImageReader",
       "vcodec": "",
       "video_bit_rate": 0,
       "video_length": "108000",
       "video_stream_index": -1,
       "video_timebase": {
        "den": 30,
        "num": 1
       },
       "width": 720
      },
      "replace_image": false,
      "id": "YIVQE4FZQJ"
     },
     {
      "layer": 7000000,
      "title": "Transition",
      "type": "Mask",
      "position": 29.933333333333334,
      "start": 0,
      "end": 1,
      "brightness": {
       "Points": [
        {
         "co": {
          "X": 1.0,
          "Y": -1.0
         },
         "handle_left": {
          "X": 0.5,
          "Y": 1.0
         },
         "handle_right": {
          "X": 0.5,
          "Y": 0.0
         },
         "handle_type": 0,
         "interpolation": 0
        },
        {
         "co": {
          "X": 30.0,
          "Y": 1.0
         },
         "handle_left": {
          "X": 0.5,
          "Y": 1.0
         },
         "handle_right": {
          "X": 0.5,
          "Y": 0.0
         },
         "handle_type": 0,
         "interpolation": 0
        }
       ]
      },
      "contrast": {
       "Points": [
        {
         "co": {
          "X": 1.0,
          "Y": 3.0
         },
         "handle_left": {
          "X": 0.5,
          "Y": 1.0
         },
         "handle_right": {
          "X": 0.5,
          "Y": 0.0
         },
         "handle_type": 0,
         "interpolation": 0
        },
        {
         "co": {
          "X": 30.0,
          "Y": 3.0
         },
         "handle_left": {
          "X": 0.5,
          "Y": 1.0
         },
         "handle_right": {
          "X": 0.5,
          "Y": 0.0
         },
         "handle_type": 0,
         "interpolation": 0
        }
       ]
      },
      "reader": {
       "acodec": "",
       "audio_bit_rate": 0,
       "audio_stream_index": -1,
       "audio_timebase": {
        "den": 1,
        "num": 1
       },
       "channel_layout": 4,
       "channels": 0,
       "display_ratio": {
        "den": 4,
        "num": 5
       },
       "duration": 3600.0,
       "file_size": "5832000",
       "fps": {
        "den": 1,
        "num": 30
       },
       "has_audio": false,
       "has_single_image": true,
       "has_video": true,
       "height": 576,
       "interlaced_frame": false,
       "metadata": {},
       "path": "@transitions/common/fade.svg",
       "pixel_format": -1,
       "pixel_ratio": {
        "den": 1,
        "num": 1
       },
       "sample_rate": 0,
       "top_field_first": true,
       "type": "QtImageReader",
       "vcodec": "",
       "video_bit_rate": 0,
       "video_length": "108000",
       "video_stream_index": -1,
       "video_timebase": {
        "den": 30,
        "num": 1
       },
       "width": 720
      },
      "replace_image": false,
      "id": "IHGENV3HTQ"
     },
     {
      "layer": 6000000,
      "title": "Transition",
      "type": "Mask",
      "position": 29.933333333333334,
      "start": 0,
      "end": 1,
      "brightness": {
       "Points": [
        {
         "co": {
          "X": 1.0,
          "Y": -1.0
         },
         "handle_left": {
          "X": 0.5,
          "Y": 1.0
         },
         "handle_right": {
          "X": 0.5,
          "Y": 0.0
         },
         "handle_type": 0,
         "interpolation": 0
        },
        {
         "co": {
          "X": 30.0,
          "Y": 1.0
         },
         "handle_left": {
          "X": 0.5,
          "Y": 1.0
         },
         "handle_right": {
          "X": 0.5,
          "Y": 0.0
         },
         "handle_type": 0,
         "interpolation": 0
        }
       ]
      },
      "contrast": {
       "Points": [
        {
         "co": {
          "X": 1.0,
          "Y": 3.0
         },
         "handle_left": {
          "X": 0.5,
          "Y": 1.0
         },
         "handle_right": {
          "X": 0.5,
          "Y": 0.0
         },
         "handle_type": 0,
         "interpolation": 0
        },
        {
         "co": {
          "X": 30.0,
          "Y": 3.0
         },
         "handle_left": {
          "X": 0.5,
          "Y": 1.0
         },
         "handle_right": {
          "X": 0.5,
          "Y": 0.0
         },
         "handle_type": 0,
         "interpolation": 0
        }
       ]
      },
      "reader": {
       "acodec": "",
       "audio_bit_rate": 0,
       "audio_stream_index": -1,
       "audio_timebase": {
        "den": 1,
        "num": 1
       },
       "channel_layout": 4,
       "channels": 0,
       "display_ratio": {
        "den": 4,
        "num": 5
       },
       "duration": 3600.0,
       "file_size": "5832000",
       "fps": {
        "den": 1,
        "num": 30
       },
       "has_audio": false,
       "has_single_image": true,
       "has_video": true,
       "height": 576,
       "interlaced_frame": false,
       "metadata": {},
       "path": "@transitions/common/fade.svg",
       "pixel_format": -1,
       "pixel_ratio": {
        "den": 1,
        "num": 1
       },
       "sample_rate": 0,
       "top_field_first": true,
       "type": "QtImageReader",
       "vcodec": "",
       "video_bit_rate": 0,
       "video_length": "108000",
       "video_stream_index": -1,
       "video_timebase": {
        "den": 30,
        "num": 1
       },
       "width": 720
      },
      "replace_image": false,
      "id": "L0LNX9VSXM"
     },
     {
      "layer": 5000000,
      "title": "Transition",
      "type": "Mask",
      "position": 29.933333333333334,
      "start": 0,
      "end": 1,
      "brightness": {
       "Points": [
        {
         "co": {
          "X": 1.0,
          "Y": -1.0
         },
         "handle_left": {
          "X": 0.5,
          "Y": 1.0
         },
         "handle_right": {
          "X": 0.5,
          "Y": 0.0
         },
         "handle_type": 0,
         "interpolation": 0
        },
        {
         "co": {
          "X": 30.0,
          "Y": 1.0
         },
         "handle_left": {
          "X": 0.5,
          "Y": 1.0
         },
         "handle_right": {
          "X": 0.5,
          "Y": 0.0
         },
         "handle_type": 0,
         "interpolation": 0
        }
       ]
      },
      "contrast": {
       "Points": [
        {
         "co": {
          "X": 1.0,
          "Y": 3.0
         },
         "handle_left": {
          "X": 0.5,
          "Y": 1.0
         },
         "handle_right": {
          "X": 0.5,
          "Y": 0.0
         },
         "handle_type": 0,
         "interpolation": 0
        },
        {
         "co": {
          "X": 30.0,
          "Y": 3.0
         },
         "handle_left": {
          "X": 0.5,
          "Y": 1.0
         },
         "handle_right": {
          "X": 0.5,
          "Y": 0.0
         },
         "handle_type": 0,
         "interpolation": 0
        }
       ]
      },
      "reader": {
       "acodec": "",
       "audio_bit_rate": 0,
       "audio_stream_index": -1,
       "audio_timebase": {
        "den": 1,
        "num": 1
       },
       "channel_layout": 4,
       "channels": 0,
       "display_ratio": {
        "den": 4,
        "num": 5
       },
       "duration": 3600.0,
       "file_size": "5832000",
       "fps": {
        "den": 1,
        "num": 30
       },
       "has_audio": false,
       "has_single_image": true,
       "has_video": true,
       "height": 576,
       "interlaced_frame": false,
       "metadata": {},
       "path": "@transitions/common/fade.svg",
       "pixel_format": -1,
       "pixel_ratio": {
        "den": 1,
        "num": 1
       },
       "sample_rate": 0,
       "top_field_first": true,
       "type": "QtImageReader",
       "vcodec": "",
       "video_bit_rate": 0,
       "video_length": "108000",
       "video_stream_index": -1,
       "video_timebase": {
        "den": 30,
        "num": 1
       },
       "width": 720
      },
      "replace_image": false,
      "id": "9P08T43W0H"
     },
     {
      "layer": 4000000,
      "title": "Transition",
      "type": "Mask",
      "position": 29.933333333333334,
      "start": 0,
      "end": 1,
      "brightness": {
       "Points": [
        {
         "co": {
          "X": 1.0,
          "Y": -1.0
         },
         "handle_left": {
          "X": 0.5,
          "Y": 1.0
         },
         "handle_right": {
          "X": 0.5,
          "Y": 0.0
         },
         "handle_type": 0,
         "interpolation": 0
        },
        {
         "co": {
          "X": 30.0,
          "Y": 1.0
         },
         "handle_left": {
          "X": 0.5,
          "Y": 1.0
         },
         "handle_right": {
          "X": 0.5,
          "Y": 0.0
         },
         "handle_type": 0,
         "interpolation": 0
        }
       ]
      },
      "contrast": {
       "Points": [
        {
         "co": {
          "X": 1.0,
          "Y": 3.0
         },
         "handle_left": {
          "X": 0.5,
          "Y": 1.0
         },
         "handle_right": {
          "X": 0.5,
          "Y": 0.0
         },
         "handle_type": 0,
         "interpolation": 0
        },
        {
         "co": {
          "X": 30.0,
          "Y": 3.0
         },
         "handle_left": {
          "X": 0.5,
          "Y": 1.0
         },
         "handle_right": {
          "X": 0.5,
          "Y": 0.0
         },
         "handle_type": 0,
         "interpolation": 0
        }
       ]
      },
      "reader": {
       "acodec": "",
       "audio_bit_rate": 0,
       "audio_stream_index": -1,
       "audio_timebase": {
        "den": 1,
        "num": 1
       },
       "channel_layout": 4,
       "channels": 0,
       "display_ratio": {
        "den": 4,
        "num": 5
       },
       "duration": 3600.0,
       "file_size": "5832000",
       "fps": {
        "den": 1,
        "num": 30
       },
       "has_audio": false,
       "has_single_image": true,
       "has_video": true,
       "height": 576,
       "interlaced_frame": false,
       "metadata": {},
       "path": "@transitions/common/fade.svg",
       "pixel_format": -1,
       "pixel_ratio": {
        "den": 1,
        "num": 1
       },
       "sample_rate": 0,
       "top_field_first": true,
       "type": "QtImageReader",
       "vcodec": "",
       "video_bit_rate": 0,
       "video_length": "108000",
       "video_stream_index": -1,
       "video_timebase": {
        "den": 30,
        "num": 1
       },
       "width": 720
      },
      "replace_image": false,
      "id": "A0I8N96BOX"
     },
     {
      "layer": 3000000,
      "title": "Transition",
      "type": "Mask",
      "position": 29.933333333333334,
      "start": 0,
      "end": 0.9999999999999821,
      "brightness": {
       "Points": [
        {
         "co": {
          "X": 1.0,
          "Y": -1.0
         },
         "handle_left": {
          "X": 0.5,
          "Y": 1.0
         },
         "handle_right": {
          "X": 0.5,
          "Y": 0.0
         },
         "handle_type": 0,
         "interpolation": 0
        },
        {
         "co": {
          "X": 30.0,
          "Y": 1.0
         },
         "handle_left": {
          "X": 0.5,
          "Y": 1.0
         },
         "handle_right": {
          "X": 0.5,
          "Y": 0.0
         },
         "handle_type": 0,
         "interpolation": 0
        }
       ]
      },
      "contrast": {
       "Points": [
        {
         "co": {
          "X": 1.0,
          "Y": 3.0
         },
         "handle_left": {
          "X": 0.5,
          "Y": 1.0
         },
         "handle_right": {
          "X": 0.5,
          "Y": 0.0
         },
         "handle_type": 0,
         "interpolation": 0
        },
        {
         "co": {
          "X": 30.0,
          "Y": 3.0
         },
         "handle_left": {
          "X": 0.5,
          "Y": 1.0
         },
         "handle_right": {
          "X": 0.5,
          "Y": 0.0
         },
         "handle_type": 0,
         "interpolation": 0
        }
       ]
      },
      "reader": {
       "acodec": "",
       "audio_bit_rate": 0,
       "audio_stream_index": -1,
       "audio_timebase": {
        "den": 1,
        "num": 1
       },
       "channel_layout": 4,
       "channels": 0,
       "display_ratio": {
        "den": 4,
        "num": 5
       },
       "duration": 3600.0,
       "file_size": "5832000",
       "fps": {
        "den": 1,
        "num": 30
       },
       "has_audio": false,
       "has_single_image": true,
       "has_video": true,
       "height": 576,
       "interlaced_frame": false,
       "metadata": {},
       "path": "@transitions/common/fade.svg",
       "pixel_format": -1,
       "pixel_ratio": {
        "den": 1,
        "num": 1
       },
       "sample_rate": 0,
       "top_field_first": true,
       "type": "QtImageReader",
       "vcodec": "",
       "video_bit_rate": 0,
       "video_length": "108000",
       "video_stream_index": -1,
       "video_timebase": {
        "den": 30,
        "num": 1
       },
       "width": 720
      },
      "replace_image": false,
      "id": "6HFQOBFSG3"
     },
     {
      "layer": 2000000,
      "title": "Transition",
      "type": "Mask",
      "position": 29.933333333333334,
      "start": 0,
      "end": 0.9999999999999821,
      "brightness": {
       "Points": [
        {
         "co": {
          "X": 1.0,
          "Y": -1.0
         },
         "handle_left": {
          "X": 0.5,
          "Y": 1.0
         },
         "handle_right": {
          "X": 0.5,
          "Y": 0.0
         },
         "handle_type": 0,
         "interpolation": 0
        },
        {
         "co": {
          "X": 30.0,
          "Y": 1.0
         },
         "handle_left": {
          "X": 0.5,
          "Y": 1.0
         },
         "handle_right": {
          "X": 0.5,
          "Y": 0.0
         },
         "handle_type": 0,
         "interpolation": 0
        }
       ]
      },
      "contrast": {
       "Points": [
        {
         "co": {
          "X": 1.0,
          "Y": 3.0
         },
         "handle_left": {
          "X": 0.5,
          "Y": 1.0
         },
         "handle_right": {
          "X": 0.5,
          "Y": 0.0
         },
         "handle_type": 0,
         "interpolation": 0
        },
        {
         "co": {
          "X": 30.0,
          "Y": 3.0
         },
         "handle_left": {
          "X": 0.5,
          "Y": 1.0
         },
         "handle_right": {
          "X": 0.5,
          "Y": 0.0
         },
         "handle_type": 0,
         "interpolation": 0
        }
       ]
      },
      "reader": {
       "acodec": "",
       "audio_bit_rate": 0,
       "audio_stream_index": -1,
       "audio_timebase": {
        "den": 1,
        "num": 1
       },
       "channel_layout": 4,
       "channels": 0,
       "display_ratio": {
        "den": 4,
        "num": 5
       },
       "duration": 3600.0,
       "file_size": "5832000",
       "fps": {
        "den": 1,
        "num": 30
       },
       "has_audio": false,
       "has_single_image": true,
       "has_video": true,
       "height": 576,
       "interlaced_frame": false,
       "metadata": {},
       "path": "@transitions/common/fade.svg",
       "pixel_format": -1,
       "pixel_ratio": {
        "den": 1,
        "num": 1
       },
       "sample_rate": 0,
       "top_field_first": true,
       "type": "QtImageReader",
       "vcodec": "",
       "video_bit_rate": 0,
       "video_length": "108000",
       "video_stream_index": -1,
       "video_timebase": {
        "den": 30,
        "num": 1
       },
       "width": 720
      },
      "replace_image": false,
      "id": "ROR47Q4UPE"
     },
     {
      "layer": 5000000,
      "title": "Transition",
      "type": "Mask",
      "position": 35.333333333333336,
      "start": 0,
      "end": 1,
      "brightness": {
       "Points": [
        {
         "co": {
          "X": 1.0,
          "Y": -1.0
         },
         "handle_left": {
          "X": 0.5,
          "Y": 1.0
         },
         "handle_right": {
          "X": 0.5,
          "Y": 0.0
         },
         "handle_type": 0,
         "interpolation": 0
        },
        {
         "co": {
          "X": 30.0,
          "Y": 1.0
         },
         "handle_left": {
          "X": 0.5,
          "Y": 1.0
         },
         "handle_right": {
          "X": 0.5,
          "Y": 0.0
         },
         "handle_type": 0,
         "interpolation": 0
        }
       ]
      },
      "contrast": {
       "Points": [
        {
         "co": {
          "X": 1.0,
          "Y": 3.0
         },
         "handle_left": {
          "X": 0.5,
          "Y": 1.0
         },
         "handle_right": {
          "X": 0.5,
          "Y": 0.0
         },
         "handle_type": 0,
         "interpolation": 0
        },
        {
         "co": {
          "X": 30.0,
          "Y": 3.0
         },
         "handle_left": {
          "X": 0.5,
          "Y": 1.0
         },
         "handle_right": {
          "X": 0.5,
          "Y": 0.0
         },
         "handle_type": 0,
         "interpolation": 0
        }
       ]
      },
      "reader": {
       "acodec": "",
       "audio_bit_rate": 0,
       "audio_stream_index": -1,
       "audio_timebase": {
        "den": 1,
        "num": 1
       },
       "channel_layout": 4,
       "channels": 0,
       "display_ratio": {
        "den": 4,
        "num": 5
       },
       "duration": 3600.0,
       "file_size": "5832000",
       "fps": {
        "den": 1,
        "num": 30
       },
       "has_audio": false,
       "has_single_image": true,
       "has_video": true,
       "height": 576,
       "interlaced_frame": false,
       "metadata": {},
       "path": "@transitions/common/fade.svg",
       "pixel_format": -1,
       "pixel_ratio": {
        "den": 1,
        "num": 1
       },
       "sample_rate": 0,
       "top_field_first": true,
       "type": "QtImageReader",
       "vcodec": "",
       "video_bit_rate": 0,
       "video_length": "108000",
       "video_stream_index": -1,
       "video_timebase": {
        "den": 30,
        "num": 1
       },
       "width": 720
      },
      "replace_image": false,
      "id": "YSXTQ2ILB3"
     },
     {
      "layer": 7000000,
      "title": "Transition",
      "type": "Mask",
      "position": 35.333333333333336,
      "start": 0,
      "end": 1,
      "brightness": {
       "Points": [
        {
         "co": {
          "X": 1.0,
          "Y": -1.0
         },
         "handle_left": {
          "X": 0.5,
          "Y": 1.0
         },
         "handle_right": {
          "X": 0.5,
          "Y": 0.0
         },
         "handle_type": 0,
         "interpolation": 0
        },
        {
         "co": {
          "X": 30.0,
          "Y": 1.0
         },
         "handle_left": {
          "X": 0.5,
          "Y": 1.0
         },
         "handle_right": {
          "X": 0.5,
          "Y": 0.0
         },
         "handle_type": 0,
         "interpolation": 0
        }
       ]
      },
      "contrast": {
       "Points": [
        {
         "co": {
          "X": 1.0,
          "Y": 3.0
         },
         "handle_left": {
          "X": 0.5,
          "Y": 1.0
         },
         "handle_right": {
          "X": 0.5,
          "Y": 0.0
         },
         "handle_type": 0,
         "interpolation": 0
        },
        {
         "co": {
          "X": 30.0,
          "Y": 3.0
         },
         "handle_left": {
          "X": 0.5,
          "Y": 1.0
         },
         "handle_right": {
          "X": 0.5,
          "Y": 0.0
         },
         "handle_type": 0,
         "interpolation": 0
        }
       ]
      },
      "reader": {
       "acodec": "",
       "audio_bit_rate": 0,
       "audio_stream_index": -1,
       "audio_timebase": {
        "den": 1,
        "num": 1
       },
       "channel_layout": 4,
       "channels": 0,
       "display_ratio": {
        "den": 4,
        "num": 5
       },
       "duration": 3600.0,
       "file_size": "5832000",
       "fps": {
        "den": 1,
        "num": 30
       },
       "has_audio": false,
       "has_single_image": true,
       "has_video": true,
       "height": 576,
       "interlaced_frame": false,
       "metadata": {},
       "path": "@transitions/common/fade.svg",
       "pixel_format": -1,
       "pixel_ratio": {
        "den": 1,
        "num": 1
       },
       "sample_rate": 0,
       "top_field_first": true,
       "type": "QtImageReader",
       "vcodec": "",
       "video_bit_rate": 0,
       "video_length": "108000",
       "video_stream_index": -1,
       "video_timebase": {
        "den": 30,
        "num": 1
       },
       "width": 720
      },
      "replace_image": false,
      "id": "PXS500E3HN"
     },
     {
      "layer": 6000000,
      "title": "Transition",
      "type": "Mask",
      "position": 35.333333333333336,
      "start": 0,
      "end": 1,
      "brightness": {
       "Points": [
        {
         "co": {
          "X": 1.0,
          "Y": -1.0
         },
         "handle_left": {
          "X": 0.5,
          "Y": 1.0
         },
         "handle_right": {
          "X": 0.5,
          "Y": 0.0
         },
         "handle_type": 0,
         "interpolation": 0
        },
        {
         "co": {
          "X": 30.0,
          "Y": 1.0
         },
         "handle_left": {
          "X": 0.5,
          "Y": 1.0
         },
         "handle_right": {
          "X": 0.5,
          "Y": 0.0
         },
         "handle_type": 0,
         "interpolation": 0
        }
       ]
      },
      "contrast": {
       "Points": [
        {
         "co": {
          "X": 1.0,
          "Y": 3.0
         },
         "handle_left": {
          "X": 0.5,
          "Y": 1.0
         },
         "handle_right": {
          "X": 0.5,
          "Y": 0.0
         },
         "handle_type": 0,
         "interpolation": 0
        },
        {
         "co": {
          "X": 30.0,
          "Y": 3.0
         },
         "handle_left": {
          "X": 0.5,
          "Y": 1.0
         },
         "handle_right": {
          "X": 0.5,
          "Y": 0.0
         },
         "handle_type": 0,
         "interpolation": 0
        }
       ]
      },
      "reader": {
       "acodec": "",
       "audio_bit_rate": 0,
       "audio_stream_index": -1,
       "audio_timebase": {
        "den": 1,
        "num": 1
       },
       "channel_layout": 4,
       "channels": 0,
       "display_ratio": {
        "den": 4,
        "num": 5
       },
       "duration": 3600.0,
       "file_size": "5832000",
       "fps": {
        "den": 1,
        "num": 30
       },
       "has_audio": false,
       "has_single_image": true,
       "has_video": true,
       "height": 576,
       "interlaced_frame": false,
       "metadata": {},
       "path": "@transitions/common/fade.svg",
       "pixel_format": -1,
       "pixel_ratio": {
        "den": 1,
        "num": 1
       },
       "sample_rate": 0,
       "top_field_first": true,
       "type": "QtImageReader",
       "vcodec": "",
       "video_bit_rate": 0,
       "video_length": "108000",
       "video_stream_index": -1,
       "video_timebase": {
        "den": 30,
        "num": 1
       },
       "width": 720
      },
      "replace_image": false,
      "id": "6EFG5AZ2RX"
     },
     {
      "layer": 5000000,
      "title": "Transition",
      "type": "Mask",
      "position": 31.333333333333332,
      "start": 0,
      "end": 1,
      "brightness": {
       "Points": [
        {
         "co": {
          "X": 1.0,
          "Y": 1.0
         },
         "handle_left": {
          "X": 0.5,
          "Y": 1.0
         },
         "handle_right": {
          "X": 0.5,
          "Y": 0.0
         },
         "handle_type": 0,
         "interpolation": 0
        },
        {
         "co": {
          "X": 30.0,
          "Y": -1.0
         },
         "handle_left": {
          "X": 0.5,
          "Y": 1.0
         },
         "handle_right": {
          "X": 0.5,
          "Y": 0.0
         },
         "handle_type": 0,
         "interpolation": 0
        }
       ]
      },
      "contrast": {
       "Points": [
        {
         "co": {
          "X": 1.0,
          "Y": 3.0
         },
         "handle_left": {
          "X": 0.5,
          "Y": 1.0
         },
         "handle_right": {
          "X": 0.5,
          "Y": 0.0
         },
         "handle_type": 0,
         "interpolation": 0
        },
        {
         "co": {
          "X": 30.0,
          "Y": 3.0
         },
         "handle_left": {
          "X": 0.5,
          "Y": 1.0
         },
         "handle_right": {
          "X": 0.5,
          "Y": 0.0
         },
         "handle_type": 0,
         "interpolation": 0
        }
       ]
      },
      "reader": {
       "acodec": "",
       "audio_bit_rate": 0,
       "audio_stream_index": -1,
       "audio_timebase": {
        "den": 1,
        "num": 1
       },
       "channel_layout": 4,
       "channels": 0,
       "display_ratio": {
        "den": 4,
        "num": 5
       },
       "duration": 3600.0,
       "file_size": "5832000",
       "fps": {
        "den": 1,
        "num": 30
       },
       "has_audio": false,
       "has_single_image": true,
       "has_video": true,
       "height": 576,
       "interlaced_frame": false,
       "metadata": {},
       "path": "@transitions/common/fade.svg",
       "pixel_format": -1,
       "pixel_ratio": {
        "den": 1,
        "num": 1
       },
       "sample_rate": 0,
       "top_field_first": true,
       "type": "QtImageReader",
       "vcodec": "",
       "video_bit_rate": 0,
       "video_length": "108000",
       "video_stream_index": -1,
       "video_timebase": {
        "den": 30,
        "num": 1
       },
       "width": 720
      },
      "replace_image": false,
      "id": "16Q1Z8PQP3"
     },
     {
      "layer": 7000000,
      "title": "Transition",
      "type": "Mask",
      "position": 31.333333333333332,
      "start": 0,
      "end": 1,
      "brightness": {
       "Points": [
        {
         "co": {
          "X": 1.0,
          "Y": 1.0
         },
         "handle_left": {
          "X": 0.5,
          "Y": 1.0
         },
         "handle_right": {
          "X": 0.5,
          "Y": 0.0
         },
         "handle_type": 0,
         "interpolation": 0
        },
        {
         "co": {
          "X": 30.0,
          "Y": -1.0
         },
         "handle_left": {
          "X": 0.5,
          "Y": 1.0
         },
         "handle_right": {
          "X": 0.5,
          "Y": 0.0
         },
         "handle_type": 0,
         "interpolation": 0
        }
       ]
      },
      "contrast": {
       "Points": [
        {
         "co": {
          "X": 1.0,
          "Y": 3.0
         },
         "handle_left": {
          "X": 0.5,
          "Y": 1.0
         },
         "handle_right": {
          "X": 0.5,
          "Y": 0.0
         },
         "handle_type": 0,
         "interpolation": 0
        },
        {
         "co": {
          "X": 30.0,
          "Y": 3.0
         },
         "handle_left": {
          "X": 0.5,
          "Y": 1.0
         },
         "handle_right": {
          "X": 0.5,
          "Y": 0.0
         },
         "handle_type": 0,
         "interpolation": 0
        }
       ]
      },
      "reader": {
       "acodec": "",
       "audio_bit_rate": 0,
       "audio_stream_index": -1,
       "audio_timebase": {
        "den": 1,
        "num": 1
       },
       "channel_layout": 4,
       "channels": 0,
       "display_ratio": {
        "den": 4,
        "num": 5
       },
       "duration": 3600.0,
       "file_size": "5832000",
       "fps": {
        "den": 1,
        "num": 30
       },
       "has_audio": false,
       "has_single_image": true,
       "has_video": true,
       "height": 576,
       "interlaced_frame": false,
       "metadata": {},
       "path": "@transitions/common/fade.svg",
       "pixel_format": -1,
       "pixel_ratio": {
        "den": 1,
        "num": 1
       },
       "sample_rate": 0,
       "top_field_first": true,
       "type": "QtImageReader",
       "vcodec": "",
       "video_bit_rate": 0,
       "video_length": "108000",
       "video_stream_index": -1,
       "video_timebase": {
        "den": 30,
        "num": 1
       },
       "width": 720
      },
      "replace_image": false,
      "id": "ME3NXVINI9"
     },
     {
      "layer": 6000000,
      "title": "Transition",
      "type": "Mask",
      "position": 31.333333333333332,
      "start": 0,
      "end": 1,
      "brightness": {
       "Points": [
        {
         "co": {
          "X": 1.0,
          "Y": 1.0
         },
         "handle_left": {
          "X": 0.5,
          "Y": 1.0
         },
         "handle_right": {
          "X": 0.5,
          "Y": 0.0
         },
         "handle_type": 0,
         "interpolation": 0
        },
        {
         "co": {
          "X": 30.0,
          "Y": -1.0
         },
         "handle_left": {
          "X": 0.5,
          "Y": 1.0
         },
         "handle_right": {
          "X": 0.5,
          "Y": 0.0
         },
         "handle_type": 0,
         "interpolation": 0
        }
       ]
      },
      "contrast": {
       "Points": [
        {
         "co": {
          "X": 1.0,
          "Y": 3.0
         },
         "handle_left": {
          "X": 0.5,
          "Y": 1.0
         },
         "handle_right": {
          "X": 0.5,
          "Y": 0.0
         },
         "handle_type": 0,
         "interpolation": 0
        },
        {
         "co": {
          "X": 30.0,
          "Y": 3.0
         },
         "handle_left": {
          "X": 0.5,
          "Y": 1.0
         },
         "handle_right": {
          "X": 0.5,
          "Y": 0.0
         },
         "handle_type": 0,
         "interpolation": 0
        }
       ]
      },
      "reader": {
       "acodec": "",
       "audio_bit_rate": 0,
       "audio_stream_index": -1,
       "audio_timebase": {
        "den": 1,
        "num": 1
       },
       "channel_layout": 4,
       "channels": 0,
       "display_ratio": {
        "den": 4,
        "num": 5
       },
       "duration": 3600.0,
       "file_size": "5832000",
       "fps": {
        "den": 1,
        "num": 30
       },
       "has_audio": false,
       "has_single_image": true,
       "has_video": true,
       "height": 576,
       "interlaced_frame": false,
       "metadata": {},
       "path": "@transitions/common/fade.svg",
       "pixel_format": -1,
       "pixel_ratio": {
        "den": 1,
        "num": 1
       },
       "sample_rate": 0,
       "top_field_first": true,
       "type": "QtImageReader",
       "vcodec": "",
       "video_bit_rate": 0,
       "video_length": "108000",
       "video_stream_index": -1,
       "video_timebase": {
        "den": 30,
        "num": 1
       },
       "width": 720
      },
      "replace_image": false,
      "id": "1DK47L92IA"
     },
     {
      "layer": 2000000,
      "title": "Transition",
      "type": "Mask",
      "position": 36.7,
      "start": 0,
      "end": 1,
      "brightness": {
       "Points": [
        {
         "co": {
          "X": 1.0,
          "Y": 1.0
         },
         "handle_left": {
          "X": 0.5,
          "Y": 1.0
         },
         "handle_right": {
          "X": 0.5,
          "Y": 0.0
         },
         "handle_type": 0,
         "interpolation": 0
        },
        {
         "co": {
          "X": 30.0,
          "Y": -1.0
         },
         "handle_left": {
          "X": 0.5,
          "Y": 1.0
         },
         "handle_right": {
          "X": 0.5,
          "Y": 0.0
         },
         "handle_type": 0,
         "interpolation": 0
        }
       ]
      },
      "contrast": {
       "Points": [
        {
         "co": {
          "X": 1.0,
          "Y": 3.0
         },
         "handle_left": {
          "X": 0.5,
          "Y": 1.0
         },
         "handle_right": {
          "X": 0.5,
          "Y": 0.0
         },
         "handle_type": 0,
         "interpolation": 0
        },
        {
         "co": {
          "X": 30.0,
          "Y": 3.0
         },
         "handle_left": {
          "X": 0.5,
          "Y": 1.0
         },
         "handle_right": {
          "X": 0.5,
          "Y": 0.0
         },
         "handle_type": 0,
         "interpolation": 0
        }
       ]
      },
      "reader": {
       "acodec": "",
       "audio_bit_rate": 0,
       "audio_stream_index": -1,
       "audio_timebase": {
        "den": 1,
        "num": 1
       },
       "channel_layout": 4,
       "channels": 0,
       "display_ratio": {
        "den": 4,
        "num": 5
       },
       "duration": 3600.0,
       "file_size": "5832000",
       "fps": {
        "den": 1,
        "num": 30
       },
       "has_audio": false,
       "has_single_image": true,
       "has_video": true,
       "height": 576,
       "interlaced_frame": false,
       "metadata": {},
       "path": "@transitions/common/fade.svg",
       "pixel_format": -1,
       "pixel_ratio": {
        "den": 1,
        "num": 1
       },
       "sample_rate": 0,
       "top_field_first": true,
       "type": "QtImageReader",
       "vcodec": "",
       "video_bit_rate": 0,
       "video_length": "108000",
       "video_stream_index": -1,
       "video_timebase": {
        "den": 30,
        "num": 1
       },
       "width": 720
      },
      "replace_image": false,
      "id": "RT9O39UDSB"
     },
     {
      "layer": 4000000,
      "title": "Transition",
      "type": "Mask",
      "position": 40.63333333333333,
      "start": 0,
      "end": 1,
      "brightness": {
       "Points": [
        {
         "co": {
          "X": 1.0,
          "Y": 1.0
         },
         "handle_left": {
          "X": 0.5,
          "Y": 1.0
         },
         "handle_right": {
          "X": 0.5,
          "Y": 0.0
         },
         "handle_type": 0,
         "interpolation": 0
        },
        {
         "co": {
          "X": 30.0,
          "Y": -1.0
         },
         "handle_left": {
          "X": 0.5,
          "Y": 1.0
         },
         "handle_right": {
          "X": 0.5,
          "Y": 0.0
         },
         "handle_type": 0,
         "interpolation": 0
        }
       ]
      },
      "contrast": {
       "Points": [
        {
         "co": {
          "X": 1.0,
          "Y": 3.0
         },
         "handle_left": {
          "X": 0.5,
          "Y": 1.0
         },
         "handle_right": {
          "X": 0.5,
          "Y": 0.0
         },
         "handle_type": 0,
         "interpolation": 0
        },
        {
         "co": {
          "X": 30.0,
          "Y": 3.0
         },
         "handle_left": {
          "X": 0.5,
          "Y": 1.0
         },
         "handle_right": {
          "X": 0.5,
          "Y": 0.0
         },
         "handle_type": 0,
         "interpolation": 0
        }
       ]
      },
      "reader": {
       "acodec": "",
       "audio_bit_rate": 0,
       "audio_stream_index": -1,
       "audio_timebase": {
        "den": 1,
        "num": 1
       },
       "channel_layout": 4,
       "channels": 0,
       "display_ratio": {
        "den": 4,
        "num": 5
       },
       "duration": 3600.0,
       "file_size": "5832000",
       "fps": {
        "den": 1,
        "num": 30
       },
       "has_audio": false,
       "has_single_image": true,
       "has_video": true,
       "height": 576,
       "interlaced_frame": false,
       "metadata": {},
       "path": "@transitions/common/fade.svg",
       "pixel_format": -1,
       "pixel_ratio": {
        "den": 1,
        "num": 1
       },
       "sample_rate": 0,
       "top_field_first": true,
       "type": "QtImageReader",
       "vcodec": "",
       "video_bit_rate": 0,
       "video_length": "108000",
       "video_stream_index": -1,
       "video_timebase": {
        "den": 30,
        "num": 1
       },
       "width": 720
      },
      "replace_image": false,
      "id": "49J3IKSEQW"
     },
     {
      "layer": 5000000,
      "title": "Transition",
      "type": "Mask",
      "position": 40.63333333333333,
      "start": 0,
      "end": 1,
      "brightness": {
       "Points": [
        {
         "co": {
          "X": 1.0,
          "Y": 1.0
         },
         "handle_left": {
          "X": 0.5,
          "Y": 1.0
         },
         "handle_right": {
          "X": 0.5,
          "Y": 0.0
         },
         "handle_type": 0,
         "interpolation": 0
        },
        {
         "co": {
          "X": 30.0,
          "Y": -1.0
         },
         "handle_left": {
          "X": 0.5,
          "Y": 1.0
         },
         "handle_right": {
          "X": 0.5,
          "Y": 0.0
         },
         "handle_type": 0,
         "interpolation": 0
        }
       ]
      },
      "contrast": {
       "Points": [
        {
         "co": {
          "X": 1.0,
          "Y": 3.0
         },
         "handle_left": {
          "X": 0.5,
          "Y": 1.0
         },
         "handle_right": {
          "X": 0.5,
          "Y": 0.0
         },
         "handle_type": 0,
         "interpolation": 0
        },
        {
         "co": {
          "X": 30.0,
          "Y": 3.0
         },
         "handle_left": {
          "X": 0.5,
          "Y": 1.0
         },
         "handle_right": {
          "X": 0.5,
          "Y": 0.0
         },
         "handle_type": 0,
         "interpolation": 0
        }
       ]
      },
      "reader": {
       "acodec": "",
       "audio_bit_rate": 0,
       "audio_stream_index": -1,
       "audio_timebase": {
        "den": 1,
        "num": 1
       },
       "channel_layout": 4,
       "channels": 0,
       "display_ratio": {
        "den": 4,
        "num": 5
       },
       "duration": 3600.0,
       "file_size": "5832000",
       "fps": {
        "den": 1,
        "num": 30
       },
       "has_audio": false,
       "has_single_image": true,
       "has_video": true,
       "height": 576,
       "interlaced_frame": false,
       "metadata": {},
       "path": "@transitions/common/fade.svg",
       "pixel_format": -1,
       "pixel_ratio": {
        "den": 1,
        "num": 1
       },
       "sample_rate": 0,
       "top_field_first": true,
       "type": "QtImageReader",
       "vcodec": "",
       "video_bit_rate": 0,
       "video_length": "108000",
       "video_stream_index": -1,
       "video_timebase": {
        "den": 30,
        "num": 1
       },
       "width": 720
      },
      "replace_image": false,
      "id": "2N1BI0NL7T"
     },
     {
      "layer": 3000000,
      "title": "Transition",
      "type": "Mask",
      "position": 40.63333333333333,
      "start": 0,
      "end": 1,
      "brightness": {
       "Points": [
        {
         "co": {
          "X": 1.0,
          "Y": 1.0
         },
         "handle_left": {
          "X": 0.5,
          "Y": 1.0
         },
         "handle_right": {
          "X": 0.5,
          "Y": 0.0
         },
         "handle_type": 0,
         "interpolation": 0
        },
        {
         "co": {
          "X": 30.0,
          "Y": -1.0
         },
         "handle_left": {
          "X": 0.5,
          "Y": 1.0
         },
         "handle_right": {
          "X": 0.5,
          "Y": 0.0
         },
         "handle_type": 0,
         "interpolation": 0
        }
       ]
      },
      "contrast": {
       "Points": [
        {
         "co": {
          "X": 1.0,
          "Y": 3.0
         },
         "handle_left": {
          "X": 0.5,
          "Y": 1.0
         },
         "handle_right": {
          "X": 0.5,
          "Y": 0.0
         },
         "handle_type": 0,
         "interpolation": 0
        },
        {
         "co": {
          "X": 30.0,
          "Y": 3.0
         },
         "handle_left": {
          "X": 0.5,
          "Y": 1.0
         },
         "handle_right": {
          "X": 0.5,
          "Y": 0.0
         },
         "handle_type": 0,
         "interpolation": 0
        }
       ]
      },
      "reader": {
       "acodec": "",
       "audio_bit_rate": 0,
       "audio_stream_index": -1,
       "audio_timebase": {
        "den": 1,
        "num": 1
       },
       "channel_layout": 4,
       "channels": 0,
       "display_ratio": {
        "den": 4,
        "num": 5
       },
       "duration": 3600.0,
       "file_size": "5832000",
       "fps": {
        "den": 1,
        "num": 30
       },
       "has_audio": false,
       "has_single_image": true,
       "has_video": true,
       "height": 576,
       "interlaced_frame": false,
       "metadata": {},
       "path": "@transitions/common/fade.svg",
       "pixel_format": -1,
       "pixel_ratio": {
        "den": 1,
        "num": 1
       },
       "sample_rate": 0,
       "top_field_first": true,
       "type": "QtImageReader",
       "vcodec": "",
       "video_bit_rate": 0,
       "video_length": "108000",
       "video_stream_index": -1,
       "video_timebase": {
        "den": 30,
        "num": 1
       },
       "width": 720
      },
      "replace_image": false,
      "id": "G2WLUXC8I2"
     },
     {
      "layer": 6000000,
      "title": "Transition",
      "type": "Mask",
      "position": 43.9,
      "start": 0,
      "end": 1,
      "brightness": {
       "Points": [
        {
         "co": {
          "X": 1.0,
          "Y": 1.0
         },
         "handle_left": {
          "X": 0.5,
          "Y": 1.0
         },
         "handle_right": {
          "X": 0.5,
          "Y": 0.0
         },
         "handle_type": 0,
         "interpolation": 0
        },
        {
         "co": {
          "X": 30.0,
          "Y": -1.0
         },
         "handle_left": {
          "X": 0.5,
          "Y": 1.0
         },
         "handle_right": {
          "X": 0.5,
          "Y": 0.0
         },
         "handle_type": 0,
         "interpolation": 0
        }
       ]
      },
      "contrast": {
       "Points": [
        {
         "co": {
          "X": 1.0,
          "Y": 3.0
         },
         "handle_left": {
          "X": 0.5,
          "Y": 1.0
         },
         "handle_right": {
          "X": 0.5,
          "Y": 0.0
         },
         "handle_type": 0,
         "interpolation": 0
        },
        {
         "co": {
          "X": 30.0,
          "Y": 3.0
         },
         "handle_left": {
          "X": 0.5,
          "Y": 1.0
         },
         "handle_right": {
          "X": 0.5,
          "Y": 0.0
         },
         "handle_type": 0,
         "interpolation": 0
        }
       ]
      },
      "reader": {
       "acodec": "",
       "audio_bit_rate": 0,
       "audio_stream_index": -1,
       "audio_timebase": {
        "den": 1,
        "num": 1
       },
       "channel_layout": 4,
       "channels": 0,
       "display_ratio": {
        "den": 4,
        "num": 5
       },
       "duration": 3600.0,
       "file_size": "5832000",
       "fps": {
        "den": 1,
        "num": 30
       },
       "has_audio": false,
       "has_single_image": true,
       "has_video": true,
       "height": 576,
       "interlaced_frame": false,
       "metadata": {},
       "path": "@transitions/common/fade.svg",
       "pixel_format": -1,
       "pixel_ratio": {
        "den": 1,
        "num": 1
       },
       "sample_rate": 0,
       "top_field_first": true,
       "type": "QtImageReader",
       "vcodec": "",
       "video_bit_rate": 0,
       "video_length": "108000",
       "video_stream_index": -1,
       "video_timebase": {
        "den": 30,
        "num": 1
       },
       "width": 720
      },
      "replace_image": false,
      "id": "TXMFAXERBB"
     },
     {
      "layer": 7000000,
      "title": "Transition",
      "type": "Mask",
      "position": 43.9,
      "start": 0,
      "end": 1,
      "brightness": {
       "Points": [
        {
         "co": {
          "X": 1.0,
          "Y": 1.0
         },
         "handle_left": {
          "X": 0.5,
          "Y": 1.0
         },
         "handle_right": {
          "X": 0.5,
          "Y": 0.0
         },
         "handle_type": 0,
         "interpolation": 0
        },
        {
         "co": {
          "X": 30.0,
          "Y": -1.0
         },
         "handle_left": {
          "X": 0.5,
          "Y": 1.0
         },
         "handle_right": {
          "X": 0.5,
          "Y": 0.0
         },
         "handle_type": 0,
         "interpolation": 0
        }
       ]
      },
      "contrast": {
       "Points": [
        {
         "co": {
          "X": 1.0,
          "Y": 3.0
         },
         "handle_left": {
          "X": 0.5,
          "Y": 1.0
         },
         "handle_right": {
          "X": 0.5,
          "Y": 0.0
         },
         "handle_type": 0,
         "interpolation": 0
        },
        {
         "co": {
          "X": 30.0,
          "Y": 3.0
         },
         "handle_left": {
          "X": 0.5,
          "Y": 1.0
         },
         "handle_right": {
          "X": 0.5,
          "Y": 0.0
         },
         "handle_type": 0,
         "interpolation": 0
        }
       ]
      },
      "reader": {
       "acodec": "",
       "audio_bit_rate": 0,
       "audio_stream_index": -1,
       "audio_timebase": {
        "den": 1,
        "num": 1
       },
       "channel_layout": 4,
       "channels": 0,
       "display_ratio": {
        "den": 4,
        "num": 5
       },
       "duration": 3600.0,
       "file_size": "5832000",
       "fps": {
        "den": 1,
        "num": 30
       },
       "has_audio": false,
       "has_single_image": true,
       "has_video": true,
       "height": 576,
       "interlaced_frame": false,
       "metadata": {},
       "path": "@transitions/common/fade.svg",
       "pixel_format": -1,
       "pixel_ratio": {
        "den": 1,
        "num": 1
       },
       "sample_rate": 0,
       "top_field_first": true,
       "type": "QtImageReader",
       "vcodec": "",
       "video_bit_rate": 0,
       "video_length": "108000",
       "video_stream_index": -1,
       "video_timebase": {
        "den": 30,
        "num": 1
       },
       "width": 720
      },
      "replace_image": false,
      "id": "WB87SQALF3"
     },
     {
      "layer": 8000000,
      "title": "Transition",
      "type": "Mask",
      "position": 47.2,
      "start": 0,
      "end": 1,
      "brightness": {
       "Points": [
        {
         "co": {
          "X": 1.0,
          "Y": -1.0
         },
         "handle_left": {
          "X": 0.5,
          "Y": 1.0
         },
         "handle_right": {
          "X": 0.5,
          "Y": 0.0
         },
         "handle_type": 0,
         "interpolation": 0
        },
        {
         "co": {
          "X": 30.0,
          "Y": 1.0
         },
         "handle_left": {
          "X": 0.5,
          "Y": 1.0
         },
         "handle_right": {
          "X": 0.5,
          "Y": 0.0
         },
         "handle_type": 0,
         "interpolation": 0
        }
       ]
      },
      "contrast": {
       "Points": [
        {
         "co": {
          "X": 1.0,
          "Y": 3.0
         },
         "handle_left": {
          "X": 0.5,
          "Y": 1.0
         },
         "handle_right": {
          "X": 0.5,
          "Y": 0.0
         },
         "handle_type": 0,
         "interpolation": 0
        },
        {
         "co": {
          "X": 30.0,
          "Y": 3.0
         },
         "handle_left": {
          "X": 0.5,
          "Y": 1.0
         },
         "handle_right": {
          "X": 0.5,
          "Y": 0.0
         },
         "handle_type": 0,
         "interpolation": 0
        }
       ]
      },
      "reader": {
       "acodec": "",
       "audio_bit_rate": 0,
       "audio_stream_index": -1,
       "audio_timebase": {
        "den": 1,
        "num": 1
       },
       "channel_layout": 4,
       "channels": 0,
       "display_ratio": {
        "den": 4,
        "num": 5
       },
       "duration": 3600.0,
       "file_size": "5832000",
       "fps": {
        "den": 1,
        "num": 30
       },
       "has_audio": false,
       "has_single_image": true,
       "has_video": true,
       "height": 576,
       "interlaced_frame": false,
       "metadata": {},
       "path": "@transitions/common/fade.svg",
       "pixel_format": -1,
       "pixel_ratio": {
        "den": 1,
        "num": 1
       },
       "sample_rate": 0,
       "top_field_first": true,
       "type": "QtImageReader",
       "vcodec": "",
       "video_bit_rate": 0,
       "video_length": "108000",
       "video_stream_index": -1,
       "video_timebase": {
        "den": 30,
        "num": 1
       },
       "width": 720
      },
      "replace_image": false,
      "id": "6979AKA6UA"
     },
     {
      "layer": 8000000,
      "title": "Transition",
      "type": "Mask",
      "position": 43.9,
      "start": 0,
      "end": 1,
      "brightness": {
       "Points": [
        {
         "co": {
          "X": 1.0,
          "Y": 1.0
         },
         "handle_left": {
          "X": 0.5,
          "Y": 1.0
         },
         "handle_right": {
          "X": 0.5,
          "Y": 0.0
         },
         "handle_type": 0,
         "interpolation": 0
        },
        {
         "co": {
          "X": 30.0,
          "Y": -1.0
         },
         "handle_left": {
          "X": 0.5,
          "Y": 1.0
         },
         "handle_right": {
          "X": 0.5,
          "Y": 0.0
         },
         "handle_type": 0,
         "interpolation": 0
        }
       ]
      },
      "contrast": {
       "Points": [
        {
         "co": {
          "X": 1.0,
          "Y": 3.0
         },
         "handle_left": {
          "X": 0.5,
          "Y": 1.0
         },
         "handle_right": {
          "X": 0.5,
          "Y": 0.0
         },
         "handle_type": 0,
         "interpolation": 0
        },
        {
         "co": {
          "X": 30.0,
          "Y": 3.0
         },
         "handle_left": {
          "X": 0.5,
          "Y": 1.0
         },
         "handle_right": {
          "X": 0.5,
          "Y": 0.0
         },
         "handle_type": 0,
         "interpolation": 0
        }
       ]
      },
      "reader": {
       "acodec": "",
       "audio_bit_rate": 0,
       "audio_stream_index": -1,
       "audio_timebase": {
        "den": 1,
        "num": 1
       },
       "channel_layout": 4,
       "channels": 0,
       "display_ratio": {
        "den": 4,
        "num": 5
       },
       "duration": 3600.0,
       "file_size": "5832000",
       "fps": {
        "den": 1,
        "num": 30
       },
       "has_audio": false,
       "has_single_image": true,
       "has_video": true,
       "height": 576,
       "interlaced_frame": false,
       "metadata": {},
       "path": "@transitions/common/fade.svg",
       "pixel_format": -1,
       "pixel_ratio": {
        "den": 1,
        "num": 1
       },
       "sample_rate": 0,
       "top_field_first": true,
       "type": "QtImageReader",
       "vcodec": "",
       "video_bit_rate": 0,
       "video_length": "108000",
       "video_stream_index": -1,
       "video_timebase": {
        "den": 30,
        "num": 1
       },
       "width": 720
      },
      "replace_image": false,
      "id": "DH4JVZH7V8"
     },
     {
      "layer": 7000000,
      "title": "Transition",
      "type": "Mask",
      "position": 47.2,
      "start": 0,
      "end": 1,
      "brightness": {
       "Points": [
        {
         "co": {
          "X": 1.0,
          "Y": -1.0
         },
         "handle_left": {
          "X": 0.5,
          "Y": 1.0
         },
         "handle_right": {
          "X": 0.5,
          "Y": 0.0
         },
         "handle_type": 0,
         "interpolation": 0
        },
        {
         "co": {
          "X": 30.0,
          "Y": 1.0
         },
         "handle_left": {
          "X": 0.5,
          "Y": 1.0
         },
         "handle_right": {
          "X": 0.5,
          "Y": 0.0
         },
         "handle_type": 0,
         "interpolation": 0
        }
       ]
      },
      "contrast": {
       "Points": [
        {
         "co": {
          "X": 1.0,
          "Y": 3.0
         },
         "handle_left": {
          "X": 0.5,
          "Y": 1.0
         },
         "handle_right": {
          "X": 0.5,
          "Y": 0.0
         },
         "handle_type": 0,
         "interpolation": 0
        },
        {
         "co": {
          "X": 30.0,
          "Y": 3.0
         },
         "handle_left": {
          "X": 0.5,
          "Y": 1.0
         },
         "handle_right": {
          "X": 0.5,
          "Y": 0.0
         },
         "handle_type": 0,
         "interpolation": 0
        }
       ]
      },
      "reader": {
       "acodec": "",
       "audio_bit_rate": 0,
       "audio_stream_index": -1,
       "audio_timebase": {
        "den": 1,
        "num": 1
       },
       "channel_layout": 4,
       "channels": 0,
       "display_ratio": {
        "den": 4,
        "num": 5
       },
       "duration": 3600.0,
       "file_size": "5832000",
       "fps": {
        "den": 1,
        "num": 30
       },
       "has_audio": false,
       "has_single_image": true,
       "has_video": true,
       "height": 576,
       "interlaced_frame": false,
       "metadata": {},
       "path": "@transitions/common/fade.svg",
       "pixel_format": -1,
       "pixel_ratio": {
        "den": 1,
        "num": 1
       },
       "sample_rate": 0,
       "top_field_first": true,
       "type": "QtImageReader",
       "vcodec": "",
       "video_bit_rate": 0,
       "video_length": "108000",
       "video_stream_index": -1,
       "video_timebase": {
        "den": 30,
        "num": 1
       },
       "width": 720
      },
      "replace_image": false,
      "id": "7D211FLB43"
     },
     {
      "layer": 6000000,
      "title": "Transition",
      "type": "Mask",
      "position": 47.2,
      "start": 0,
      "end": 1,
      "brightness": {
       "Points": [
        {
         "co": {
          "X": 1.0,
          "Y": -1.0
         },
         "handle_left": {
          "X": 0.5,
          "Y": 1.0
         },
         "handle_right": {
          "X": 0.5,
          "Y": 0.0
         },
         "handle_type": 0,
         "interpolation": 0
        },
        {
         "co": {
          "X": 30.0,
          "Y": 1.0
         },
         "handle_left": {
          "X": 0.5,
          "Y": 1.0
         },
         "handle_right": {
          "X": 0.5,
          "Y": 0.0
         },
         "handle_type": 0,
         "interpolation": 0
        }
       ]
      },
      "contrast": {
       "Points": [
        {
         "co": {
          "X": 1.0,
          "Y": 3.0
         },
         "handle_left": {
          "X": 0.5,
          "Y": 1.0
         },
         "handle_right": {
          "X": 0.5,
          "Y": 0.0
         },
         "handle_type": 0,
         "interpolation": 0
        },
        {
         "co": {
          "X": 30.0,
          "Y": 3.0
         },
         "handle_left": {
          "X": 0.5,
          "Y": 1.0
         },
         "handle_right": {
          "X": 0.5,
          "Y": 0.0
         },
         "handle_type": 0,
         "interpolation": 0
        }
       ]
      },
      "reader": {
       "acodec": "",
       "audio_bit_rate": 0,
       "audio_stream_index": -1,
       "audio_timebase": {
        "den": 1,
        "num": 1
       },
       "channel_layout": 4,
       "channels": 0,
       "display_ratio": {
        "den": 4,
        "num": 5
       },
       "duration": 3600.0,
       "file_size": "5832000",
       "fps": {
        "den": 1,
        "num": 30
       },
       "has_audio": false,
       "has_single_image": true,
       "has_video": true,
       "height": 576,
       "interlaced_frame": false,
       "metadata": {},
       "path": "@transitions/common/fade.svg",
       "pixel_format": -1,
       "pixel_ratio": {
        "den": 1,
        "num": 1
       },
       "sample_rate": 0,
       "top_field_first": true,
       "type": "QtImageReader",
       "vcodec": "",
       "video_bit_rate": 0,
       "video_length": "108000",
       "video_stream_index": -1,
       "video_timebase": {
        "den": 30,
        "num": 1
       },
       "width": 720
      },
      "replace_image": false,
      "id": "Z3MQ059L4N"
     },
     {
      "layer": 5000000,
      "title": "Transition",
      "type": "Mask",
      "position": 47.2,
      "start": 0,
      "end": 1,
      "brightness": {
       "Points": [
        {
         "co": {
          "X": 1.0,
          "Y": -1.0
         },
         "handle_left": {
          "X": 0.5,
          "Y": 1.0
         },
         "handle_right": {
          "X": 0.5,
          "Y": 0.0
         },
         "handle_type": 0,
         "interpolation": 0
        },
        {
         "co": {
          "X": 30.0,
          "Y": 1.0
         },
         "handle_left": {
          "X": 0.5,
          "Y": 1.0
         },
         "handle_right": {
          "X": 0.5,
          "Y": 0.0
         },
         "handle_type": 0,
         "interpolation": 0
        }
       ]
      },
      "contrast": {
       "Points": [
        {
         "co": {
          "X": 1.0,
          "Y": 3.0
         },
         "handle_left": {
          "X": 0.5,
          "Y": 1.0
         },
         "handle_right": {
          "X": 0.5,
          "Y": 0.0
         },
         "handle_type": 0,
         "interpolation": 0
        },
        {
         "co": {
          "X": 30.0,
          "Y": 3.0
         },
         "handle_left": {
          "X": 0.5,
          "Y": 1.0
         },
         "handle_right": {
          "X": 0.5,
          "Y": 0.0
         },
         "handle_type": 0,
         "interpolation": 0
        }
       ]
      },
      "reader": {
       "acodec": "",
       "audio_bit_rate": 0,
       "audio_stream_index": -1,
       "audio_timebase": {
        "den": 1,
        "num": 1
       },
       "channel_layout": 4,
       "channels": 0,
       "display_ratio": {
        "den": 4,
        "num": 5
       },
       "duration": 3600.0,
       "file_size": "5832000",
       "fps": {
        "den": 1,
        "num": 30
       },
       "has_audio": false,
       "has_single_image": true,
       "has_video": true,
       "height": 576,
       "interlaced_frame": false,
       "metadata": {},
       "path": "@transitions/common/fade.svg",
       "pixel_format": -1,
       "pixel_ratio": {
        "den": 1,
        "num": 1
       },
       "sample_rate": 0,
       "top_field_first": true,
       "type": "QtImageReader",
       "vcodec": "",
       "video_bit_rate": 0,
       "video_length": "108000",
       "video_stream_index": -1,
       "video_timebase": {
        "den": 30,
        "num": 1
       },
       "width": 720
      },
      "replace_image": false,
      "id": "0V0YZT4K2H"
     },
     {
      "layer": 4000000,
      "title": "Transition",
      "type": "Mask",
      "position": 47.2,
      "start": 0,
      "end": 1,
      "brightness": {
       "Points": [
        {
         "co": {
          "X": 1.0,
          "Y": -1.0
         },
         "handle_left": {
          "X": 0.5,
          "Y": 1.0
         },
         "handle_right": {
          "X": 0.5,
          "Y": 0.0
         },
         "handle_type": 0,
         "interpolation": 0
        },
        {
         "co": {
          "X": 30.0,
          "Y": 1.0
         },
         "handle_left": {
          "X": 0.5,
          "Y": 1.0
         },
         "handle_right": {
          "X": 0.5,
          "Y": 0.0
         },
         "handle_type": 0,
         "interpolation": 0
        }
       ]
      },
      "contrast": {
       "Points": [
        {
         "co": {
          "X": 1.0,
          "Y": 3.0
         },
         "handle_left": {
          "X": 0.5,
          "Y": 1.0
         },
         "handle_right": {
          "X": 0.5,
          "Y": 0.0
         },
         "handle_type": 0,
         "interpolation": 0
        },
        {
         "co": {
          "X": 30.0,
          "Y": 3.0
         },
         "handle_left": {
          "X": 0.5,
          "Y": 1.0
         },
         "handle_right": {
          "X": 0.5,
          "Y": 0.0
         },
         "handle_type": 0,
         "interpolation": 0
        }
       ]
      },
      "reader": {
       "acodec": "",
       "audio_bit_rate": 0,
       "audio_stream_index": -1,
       "audio_timebase": {
        "den": 1,
        "num": 1
       },
       "channel_layout": 4,
       "channels": 0,
       "display_ratio": {
        "den": 4,
        "num": 5
       },
       "duration": 3600.0,
       "file_size": "5832000",
       "fps": {
        "den": 1,
        "num": 30
       },
       "has_audio": false,
       "has_single_image": true,
       "has_video": true,
       "height": 576,
       "interlaced_frame": false,
       "metadata": {},
       "path": "@transitions/common/fade.svg",
       "pixel_format": -1,
       "pixel_ratio": {
        "den": 1,
        "num": 1
       },
       "sample_rate": 0,
       "top_field_first": true,
       "type": "QtImageReader",
       "vcodec": "",
       "video_bit_rate": 0,
       "video_length": "108000",
       "video_stream_index": -1,
       "video_timebase": {
        "den": 30,
        "num": 1
       },
       "width": 720
      },
      "replace_image": false,
      "id": "4CLZWS3I80"
     },
     {
      "layer": 3000000,
      "title": "Transition",
      "type": "Mask",
      "position": 47.2,
      "start": 0,
      "end": 1,
      "brightness": {
       "Points": [
        {
         "co": {
          "X": 1.0,
          "Y": -1.0
         },
         "handle_left": {
          "X": 0.5,
          "Y": 1.0
         },
         "handle_right": {
          "X": 0.5,
          "Y": 0.0
         },
         "handle_type": 0,
         "interpolation": 0
        },
        {
         "co": {
          "X": 30.0,
          "Y": 1.0
         },
         "handle_left": {
          "X": 0.5,
          "Y": 1.0
         },
         "handle_right": {
          "X": 0.5,
          "Y": 0.0
         },
         "handle_type": 0,
         "interpolation": 0
        }
       ]
      },
      "contrast": {
       "Points": [
        {
         "co": {
          "X": 1.0,
          "Y": 3.0
         },
         "handle_left": {
          "X": 0.5,
          "Y": 1.0
         },
         "handle_right": {
          "X": 0.5,
          "Y": 0.0
         },
         "handle_type": 0,
         "interpolation": 0
        },
        {
         "co": {
          "X": 30.0,
          "Y": 3.0
         },
         "handle_left": {
          "X": 0.5,
          "Y": 1.0
         },
         "handle_right": {
          "X": 0.5,
          "Y": 0.0
         },
         "handle_type": 0,
         "interpolation": 0
        }
       ]
      },
      "reader": {
       "acodec": "",
       "audio_bit_rate": 0,
       "audio_stream_index": -1,
       "audio_timebase": {
        "den": 1,
        "num": 1
       },
       "channel_layout": 4,
       "channels": 0,
       "display_ratio": {
        "den": 4,
        "num": 5
       },
       "duration": 3600.0,
       "file_size": "5832000",
       "fps": {
        "den": 1,
        "num": 30
       },
       "has_audio": false,
       "has_single_image": true,
       "has_video": true,
       "height": 576,
       "interlaced_frame": false,
       "metadata": {},
       "path": "@transitions/common/fade.svg",
       "pixel_format": -1,
       "pixel_ratio": {
        "den": 1,
        "num": 1
       },
       "sample_rate": 0,
       "top_field_first": true,
       "type": "QtImageReader",
       "vcodec": "",
       "video_bit_rate": 0,
       "video_length": "108000",
       "video_stream_index": -1,
       "video_timebase": {
        "den": 30,
        "num": 1
       },
       "width": 720
      },
      "replace_image": false,
      "id": "J7NMJ0MM60"
     },
     {
      "layer": 2000000,
      "title": "Transition",
      "type": "Mask",
      "position": 47.2,
      "start": 0,
      "end": 1,
      "brightness": {
       "Points": [
        {
         "co": {
          "X": 1.0,
          "Y": -1.0
         },
         "handle_left": {
          "X": 0.5,
          "Y": 1.0
         },
         "handle_right": {
          "X": 0.5,
          "Y": 0.0
         },
         "handle_type": 0,
         "interpolation": 0
        },
        {
         "co": {
          "X": 30.0,
          "Y": 1.0
         },
         "handle_left": {
          "X": 0.5,
          "Y": 1.0
         },
         "handle_right": {
          "X": 0.5,
          "Y": 0.0
         },
         "handle_type": 0,
         "interpolation": 0
        }
       ]
      },
      "contrast": {
       "Points": [
        {
         "co": {
          "X": 1.0,
          "Y": 3.0
         },
         "handle_left": {
          "X": 0.5,
          "Y": 1.0
         },
         "handle_right": {
          "X": 0.5,
          "Y": 0.0
         },
         "handle_type": 0,
         "interpolation": 0
        },
        {
         "co": {
          "X": 30.0,
          "Y": 3.0
         },
         "handle_left": {
          "X": 0.5,
          "Y": 1.0
         },
         "handle_right": {
          "X": 0.5,
          "Y": 0.0
         },
         "handle_type": 0,
         "interpolation": 0
        }
       ]
      },
      "reader": {
       "acodec": "",
       "audio_bit_rate": 0,
       "audio_stream_index": -1,
       "audio_timebase": {
        "den": 1,
        "num": 1
       },
       "channel_layout": 4,
       "channels": 0,
       "display_ratio": {
        "den": 4,
        "num": 5
       },
       "duration": 3600.0,
       "file_size": "5832000",
       "fps": {
        "den": 1,
        "num": 30
       },
       "has_audio": false,
       "has_single_image": true,
       "has_video": true,
       "height": 576,
       "interlaced_frame": false,
       "metadata": {},
       "path": "@transitions/common/fade.svg",
       "pixel_format": -1,
       "pixel_ratio": {
        "den": 1,
        "num": 1
       },
       "sample_rate": 0,
       "top_field_first": true,
       "type": "QtImageReader",
       "vcodec": "",
       "video_bit_rate": 0,
       "video_length": "108000",
       "video_stream_index": -1,
       "video_timebase": {
        "den": 30,
        "num": 1
       },
       "width": 720
      },
      "replace_image": false,
      "id": "JE02QMYFT4"
     },
     {
      "layer": 2000000,
      "title": "Transition",
      "type": "Mask",
      "position": 49.63333333333333,
      "start": 0,
      "end": 1.5226666666666642,
      "brightness": {
       "Points": [
        {
         "co": {
          "X": 1.0,
          "Y": 1.0
         },
         "handle_left": {
          "X": 0.5,
          "Y": 1.0
         },
         "handle_right": {
          "X": 0.5,
          "Y": 0.0
         },
         "handle_type": 0,
         "interpolation": 0
        },
        {
         "co": {
          "X": 46.0,
          "Y": -1.0
         },
         "handle_left": {
          "X": 0.5,
          "Y": 1.0
         },
         "handle_right": {
          "X": 0.5,
          "Y": 0.0
         },
         "handle_type": 0,
         "interpolation": 0
        }
       ]
      },
      "contrast": {
       "Points": [
        {
         "co": {
          "X": 1.0,
          "Y": 3.0
         },
         "handle_left": {
          "X": 0.5,
          "Y": 1.0
         },
         "handle_right": {
          "X": 0.5,
          "Y": 0.0
         },
         "handle_type": 0,
         "interpolation": 0
        },
        {
         "co": {
          "X": 46.0,
          "Y": 3.0
         },
         "handle_left": {
          "X": 0.5,
          "Y": 1.0
         },
         "handle_right": {
          "X": 0.5,
          "Y": 0.0
         },
         "handle_type": 0,
         "interpolation": 0
        }
       ]
      },
      "reader": {
       "acodec": "",
       "audio_bit_rate": 0,
       "audio_stream_index": -1,
       "audio_timebase": {
        "den": 1,
        "num": 1
       },
       "channel_layout": 4,
       "channels": 0,
       "display_ratio": {
        "den": 4,
        "num": 5
       },
       "duration": 3600.0,
       "file_size": "5832000",
       "fps": {
        "den": 1,
        "num": 30
       },
       "has_audio": false,
       "has_single_image": true,
       "has_video": true,
       "height": 576,
       "interlaced_frame": false,
       "metadata": {},
       "path": "@transitions/common/fade.svg",
       "pixel_format": -1,
       "pixel_ratio": {
        "den": 1,
        "num": 1
       },
       "sample_rate": 0,
       "top_field_first": true,
       "type": "QtImageReader",
       "vcodec": "",
       "video_bit_rate": 0,
       "video_length": "108000",
       "video_stream_index": -1,
       "video_timebase": {
        "den": 30,
        "num": 1
       },
       "width": 720
      },
      "replace_image": false,
      "id": "NMY4YXNU1E"
     },
     {
      "id": "JVDJ759VY9",
      "layer": 1000000,
      "title": "Transition",
      "type": "Mask",
      "position": 48.53333333333333,
      "start": 0,
      "end": 1.6234375000000298,
      "brightness": {
       "Points": [
        {
         "co": {
          "X": 1.0,
          "Y": -1.0
         },
         "handle_left": {
          "X": 0.5,
          "Y": 1.0
         },
         "handle_right": {
          "X": 0.5,
          "Y": 0.0
         },
         "handle_type": 0,
         "interpolation": 0
        },
        {
         "co": {
          "X": 49.0,
          "Y": 1.0
         },
         "handle_left": {
          "X": 0.5,
          "Y": 1.0
         },
         "handle_right": {
          "X": 0.5,
          "Y": 0.0
         },
         "handle_type": 0,
         "interpolation": 0
        }
       ]
      },
      "contrast": {
       "Points": [
        {
         "co": {
          "X": 1.0,
          "Y": 3.0
         },
         "handle_left": {
          "X": 0.5,
          "Y": 1.0
         },
         "handle_right": {
          "X": 0.5,
          "Y": 0.0
         },
         "handle_type": 0,
         "interpolation": 0
        },
        {
         "co": {
          "X": 49.0,
          "Y": 3.0
         },
         "handle_left": {
          "X": 0.5,
          "Y": 1.0
         },
         "handle_right": {
          "X": 0.5,
          "Y": 0.0
         },
         "handle_type": 0,
         "interpolation": 0
        }
       ]
      },
      "reader": {
       "acodec": "",
       "audio_bit_rate": 0,
       "audio_stream_index": -1,
       "audio_timebase": {
        "den": 1,
        "num": 1
       },
       "channel_layout": 4,
       "channels": 0,
       "display_ratio": {
        "den": 4,
        "num": 5
       },
       "duration": 3600.0,
       "file_size": "5832000",
       "fps": {
        "den": 1,
        "num": 30
       },
       "has_audio": false,
       "has_single_image": true,
       "has_video": true,
       "height": 576,
       "interlaced_frame": false,
       "metadata": {},
       "path": "@transitions/common/fade.svg",
       "pixel_format": -1,
       "pixel_ratio": {
        "den": 1,
        "num": 1
       },
       "sample_rate": 0,
       "top_field_first": true,
       "type": "QtImageReader",
       "vcodec": "",
       "video_bit_rate": 0,
       "video_length": "108000",
       "video_stream_index": -1,
       "video_timebase": {
        "den": 30,
        "num": 1
       },
       "width": 720
      },
      "replace_image": false
     },
     {
      "layer": 1000000,
      "title": "Transition",
      "type": "Mask",
      "position": 52.13333333333333,
      "start": 0,
      "end": 1.6234375000000298,
      "brightness": {
       "Points": [
        {
         "co": {
          "X": 1.0,
          "Y": 1.0
         },
         "handle_left": {
          "X": 0.5,
          "Y": 1.0
         },
         "handle_right": {
          "X": 0.5,
          "Y": 0.0
         },
         "handle_type": 0,
         "interpolation": 0
        },
        {
         "co": {
          "X": 49.0,
          "Y": -1.0
         },
         "handle_left": {
          "X": 0.5,
          "Y": 1.0
         },
         "handle_right": {
          "X": 0.5,
          "Y": 0.0
         },
         "handle_type": 0,
         "interpolation": 0
        }
       ]
      },
      "contrast": {
       "Points": [
        {
         "co": {
          "X": 1.0,
          "Y": 3.0
         },
         "handle_left": {
          "X": 0.5,
          "Y": 1.0
         },
         "handle_right": {
          "X": 0.5,
          "Y": 0.0
         },
         "handle_type": 0,
         "interpolation": 0
        },
        {
         "co": {
          "X": 49.0,
          "Y": 3.0
         },
         "handle_left": {
          "X": 0.5,
          "Y": 1.0
         },
         "handle_right": {
          "X": 0.5,
          "Y": 0.0
         },
         "handle_type": 0,
         "interpolation": 0
        }
       ]
      },
      "reader": {
       "acodec": "",
       "audio_bit_rate": 0,
       "audio_stream_index": -1,
       "audio_timebase": {
        "den": 1,
        "num": 1
       },
       "channel_layout": 4,
       "channels": 0,
       "display_ratio": {
        "den": 4,
        "num": 5
       },
       "duration": 3600.0,
       "file_size": "5832000",
       "fps": {
        "den": 1,
        "num": 30
       },
       "has_audio": false,
       "has_single_image": true,
       "has_video": true,
       "height": 576,
       "interlaced_frame": false,
       "metadata": {},
       "path": "@transitions/common/fade.svg",
       "pixel_format": -1,
       "pixel_ratio": {
        "den": 1,
        "num": 1
       },
       "sample_rate": 0,
       "top_field_first": true,
       "type": "QtImageReader",
       "vcodec": "",
       "video_bit_rate": 0,
       "video_length": "108000",
       "video_stream_index": -1,
       "video_timebase": {
        "den": 30,
        "num": 1
       },
       "width": 720
      },
      "replace_image": false,
      "id": "ILTGUG6BXY"
     },
     {
      "layer": 2000000,
      "title": "Transition",
      "type": "Mask",
      "position": 51.166666666666664,
      "start": 0,
      "end": 1.5226666666666642,
      "brightness": {
       "Points": [
        {
         "co": {
          "X": 1.0,
          "Y": -1.0
         },
         "handle_left": {
          "X": 0.5,
          "Y": 1.0
         },
         "handle_right": {
          "X": 0.5,
          "Y": 0.0
         },
         "handle_type": 0,
         "interpolation": 0
        },
        {
         "co": {
          "X": 46.0,
          "Y": 1.0
         },
         "handle_left": {
          "X": 0.5,
          "Y": 1.0
         },
         "handle_right": {
          "X": 0.5,
          "Y": 0.0
         },
         "handle_type": 0,
         "interpolation": 0
        }
       ]
      },
      "contrast": {
       "Points": [
        {
         "co": {
          "X": 1.0,
          "Y": 3.0
         },
         "handle_left": {
          "X": 0.5,
          "Y": 1.0
         },
         "handle_right": {
          "X": 0.5,
          "Y": 0.0
         },
         "handle_type": 0,
         "interpolation": 0
        },
        {
         "co": {
          "X": 46.0,
          "Y": 3.0
         },
         "handle_left": {
          "X": 0.5,
          "Y": 1.0
         },
         "handle_right": {
          "X": 0.5,
          "Y": 0.0
         },
         "handle_type": 0,
         "interpolation": 0
        }
       ]
      },
      "reader": {
       "acodec": "",
       "audio_bit_rate": 0,
       "audio_stream_index": -1,
       "audio_timebase": {
        "den": 1,
        "num": 1
       },
       "channel_layout": 4,
       "channels": 0,
       "display_ratio": {
        "den": 4,
        "num": 5
       },
       "duration": 3600.0,
       "file_size": "5832000",
       "fps": {
        "den": 1,
        "num": 30
       },
       "has_audio": false,
       "has_single_image": true,
       "has_video": true,
       "height": 576,
       "interlaced_frame": false,
       "metadata": {},
       "path": "@transitions/common/fade.svg",
       "pixel_format": -1,
       "pixel_ratio": {
        "den": 1,
        "num": 1
       },
       "sample_rate": 0,
       "top_field_first": true,
       "type": "QtImageReader",
       "vcodec": "",
       "video_bit_rate": 0,
       "video_length": "108000",
       "video_stream_index": -1,
       "video_timebase": {
        "den": 30,
        "num": 1
       },
       "width": 720
      },
      "replace_image": false,
      "id": "KK7AG74HMV"
     },
     {
      "layer": 2000000,
      "title": "Transition",
      "type": "Mask",
      "position": 52.7,
      "start": 0,
      "end": 1.0567708333333552,
      "brightness": {
       "Points": [
        {
         "co": {
          "X": 1.0,
          "Y": 1.0
         },
         "handle_left": {
          "X": 0.5,
          "Y": 1.0
         },
         "handle_right": {
          "X": 0.5,
          "Y": 0.0
         },
         "handle_type": 0,
         "interpolation": 0
        },
        {
         "co": {
          "X": 32.0,
          "Y": -1.0
         },
         "handle_left": {
          "X": 0.5,
          "Y": 1.0
         },
         "handle_right": {
          "X": 0.5,
          "Y": 0.0
         },
         "handle_type": 0,
         "interpolation": 0
        }
       ]
      },
      "contrast": {
       "Points": [
        {
         "co": {
          "X": 1.0,
          "Y": 3.0
         },
         "handle_left": {
          "X": 0.5,
          "Y": 1.0
         },
         "handle_right": {
          "X": 0.5,
          "Y": 0.0
         },
         "handle_type": 0,
         "interpolation": 0
        },
        {
         "co": {
          "X": 32.0,
          "Y": 3.0
         },
         "handle_left": {
          "X": 0.5,
          "Y": 1.0
         },
         "handle_right": {
          "X": 0.5,
          "Y": 0.0
         },
         "handle_type": 0,
         "interpolation": 0
        }
       ]
      },
      "reader": {
       "acodec": "",
       "audio_bit_rate": 0,
       "audio_stream_index": -1,
       "audio_timebase": {
        "den": 1,
        "num": 1
       },
       "channel_layout": 4,
       "channels": 0,
       "display_ratio": {
        "den": 4,
        "num": 5
       },
       "duration": 3600.0,
       "file_size": "5832000",
       "fps": {
        "den": 1,
        "num": 30
       },
       "has_audio": false,
       "has_single_image": true,
       "has_video": true,
       "height": 576,
       "interlaced_frame": false,
       "metadata": {},
       "path": "@transitions/common/fade.svg",
       "pixel_format": -1,
       "pixel_ratio": {
        "den": 1,
        "num": 1
       },
       "sample_rate": 0,
       "top_field_first": true,
       "type": "QtImageReader",
       "vcodec": "",
       "video_bit_rate": 0,
       "video_length": "108000",
       "video_stream_index": -1,
       "video_timebase": {
        "den": 30,
        "num": 1
       },
       "width": 720
      },
      "replace_image": false,
      "id": "U5TVH4SEI2"
     },
     {
      "layer": 2000000,
      "title": "Transition",
      "type": "Mask",
      "position": 61.166666666666664,
      "start": 0,
      "end": 1.0916666666666583,
      "brightness": {
       "Points": [
        {
         "co": {
          "X": 1.0,
          "Y": -1.0
         },
         "handle_left": {
          "X": 0.5,
          "Y": 1.0
         },
         "handle_right": {
          "X": 0.5,
          "Y": 0.0
         },
         "handle_type": 0,
         "interpolation": 0
        },
        {
         "co": {
          "X": 33.0,
          "Y": 1.0
         },
         "handle_left": {
          "X": 0.5,
          "Y": 1.0
         },
         "handle_right": {
          "X": 0.5,
          "Y": 0.0
         },
         "handle_type": 0,
         "interpolation": 0
        }
       ]
      },
      "contrast": {
       "Points": [
        {
         "co": {
          "X": 1.0,
          "Y": 3.0
         },
         "handle_left": {
          "X": 0.5,
          "Y": 1.0
         },
         "handle_right": {
          "X": 0.5,
          "Y": 0.0
         },
         "handle_type": 0,
         "interpolation": 0
        },
        {
         "co": {
          "X": 33.0,
          "Y": 3.0
         },
         "handle_left": {
          "X": 0.5,
          "Y": 1.0
         },
         "handle_right": {
          "X": 0.5,
          "Y": 0.0
         },
         "handle_type": 0,
         "interpolation": 0
        }
       ]
      },
      "reader": {
       "acodec": "",
       "audio_bit_rate": 0,
       "audio_stream_index": -1,
       "audio_timebase": {
        "den": 1,
        "num": 1
       },
       "channel_layout": 4,
       "channels": 0,
       "display_ratio": {
        "den": 4,
        "num": 5
       },
       "duration": 3600.0,
       "file_size": "5832000",
       "fps": {
        "den": 1,
        "num": 30
       },
       "has_audio": false,
       "has_single_image": true,
       "has_video": true,
       "height": 576,
       "interlaced_frame": false,
       "metadata": {},
       "path": "@transitions/common/fade.svg",
       "pixel_format": -1,
       "pixel_ratio": {
        "den": 1,
        "num": 1
       },
       "sample_rate": 0,
       "top_field_first": true,
       "type": "QtImageReader",
       "vcodec": "",
       "video_bit_rate": 0,
       "video_length": "108000",
       "video_stream_index": -1,
       "video_timebase": {
        "den": 30,
        "num": 1
       },
       "width": 720
      },
      "replace_image": false,
      "id": "FOE18GBI58"
     },
     {
      "layer": 3000000,
      "title": "Transition",
      "type": "Mask",
      "position": 69.1,
      "start": 0,
      "end": 0.8666666666666696,
      "brightness": {
       "Points": [
        {
         "co": {
          "X": 1.0,
          "Y": 1.0
         },
         "handle_left": {
          "X": 0.5,
          "Y": 1.0
         },
         "handle_right": {
          "X": 0.5,
          "Y": 0.0
         },
         "handle_type": 0,
         "interpolation": 0
        },
        {
         "co": {
          "X": 26.0,
          "Y": -1.0
         },
         "handle_left": {
          "X": 0.5,
          "Y": 1.0
         },
         "handle_right": {
          "X": 0.5,
          "Y": 0.0
         },
         "handle_type": 0,
         "interpolation": 0
        }
       ]
      },
      "contrast": {
       "Points": [
        {
         "co": {
          "X": 1.0,
          "Y": 3.0
         },
         "handle_left": {
          "X": 0.5,
          "Y": 1.0
         },
         "handle_right": {
          "X": 0.5,
          "Y": 0.0
         },
         "handle_type": 0,
         "interpolation": 0
        },
        {
         "co": {
          "X": 26.0,
          "Y": 3.0
         },
         "handle_left": {
          "X": 0.5,
          "Y": 1.0
         },
         "handle_right": {
          "X": 0.5,
          "Y": 0.0
         },
         "handle_type": 0,
         "interpolation": 0
        }
       ]
      },
      "reader": {
       "acodec": "",
       "audio_bit_rate": 0,
       "audio_stream_index": -1,
       "audio_timebase": {
        "den": 1,
        "num": 1
       },
       "channel_layout": 4,
       "channels": 0,
       "display_ratio": {
        "den": 4,
        "num": 5
       },
       "duration": 3600.0,
       "file_size": "5832000",
       "fps": {
        "den": 1,
        "num": 30
       },
       "has_audio": false,
       "has_single_image": true,
       "has_video": true,
       "height": 576,
       "interlaced_frame": false,
       "metadata": {},
       "path": "@transitions/common/fade.svg",
       "pixel_format": -1,
       "pixel_ratio": {
        "den": 1,
        "num": 1
       },
       "sample_rate": 0,
       "top_field_first": true,
       "type": "QtImageReader",
       "vcodec": "",
       "video_bit_rate": 0,
       "video_length": "108000",
       "video_stream_index": -1,
       "video_timebase": {
        "den": 30,
        "num": 1
       },
       "width": 720
      },
      "replace_image": false,
      "id": "IWR2HQJ3Y9"
     },
     {
      "layer": 4000000,
      "title": "Transition",
      "type": "Mask",
      "position": 70.4,
      "start": 0,
      "end": 0.9583333333333212,
      "brightness": {
       "Points": [
        {
         "co": {
          "X": 1.0,
          "Y": 1.0
         },
         "handle_left": {
          "X": 0.5,
          "Y": 1.0
         },
         "handle_right": {
          "X": 0.5,
          "Y": 0.0
         },
         "handle_type": 0,
         "interpolation": 0
        },
        {
         "co": {
          "X": 29.0,
          "Y": -1.0
         },
         "handle_left": {
          "X": 0.5,
          "Y": 1.0
         },
         "handle_right": {
          "X": 0.5,
          "Y": 0.0
         },
         "handle_type": 0,
         "interpolation": 0
        }
       ]
      },
      "contrast": {
       "Points": [
        {
         "co": {
          "X": 1.0,
          "Y": 3.0
         },
         "handle_left": {
          "X": 0.5,
          "Y": 1.0
         },
         "handle_right": {
          "X": 0.5,
          "Y": 0.0
         },
         "handle_type": 0,
         "interpolation": 0
        },
        {
         "co": {
          "X": 29.0,
          "Y": 3.0
         },
         "handle_left": {
          "X": 0.5,
          "Y": 1.0
         },
         "handle_right": {
          "X": 0.5,
          "Y": 0.0
         },
         "handle_type": 0,
         "interpolation": 0
        }
       ]
      },
      "reader": {
       "acodec": "",
       "audio_bit_rate": 0,
       "audio_stream_index": -1,
       "audio_timebase": {
        "den": 1,
        "num": 1
       },
       "channel_layout": 4,
       "channels": 0,
       "display_ratio": {
        "den": 4,
        "num": 5
       },
       "duration": 3600.0,
       "file_size": "5832000",
       "fps": {
        "den": 1,
        "num": 30
       },
       "has_audio": false,
       "has_single_image": true,
       "has_video": true,
       "height": 576,
       "interlaced_frame": false,
       "metadata": {},
       "path": "@transitions/common/fade.svg",
       "pixel_format": -1,
       "pixel_ratio": {
        "den": 1,
        "num": 1
       },
       "sample_rate": 0,
       "top_field_first": true,
       "type": "QtImageReader",
       "vcodec": "",
       "video_bit_rate": 0,
       "video_length": "108000",
       "video_stream_index": -1,
       "video_timebase": {
        "den": 30,
        "num": 1
       },
       "width": 720
      },
      "replace_image": false,
      "id": "K0VNL052DB"
     },
     {
      "layer": 4000000,
      "title": "Transition",
      "type": "Mask",
      "position": 72.63333333333334,
      "start": 0,
      "end": 0.9583333333333212,
      "brightness": {
       "Points": [
        {
         "co": {
          "X": 1.0,
          "Y": -1.0
         },
         "handle_left": {
          "X": 0.5,
          "Y": 1.0
         },
         "handle_right": {
          "X": 0.5,
          "Y": 0.0
         },
         "handle_type": 0,
         "interpolation": 0
        },
        {
         "co": {
          "X": 29.0,
          "Y": 1.0
         },
         "handle_left": {
          "X": 0.5,
          "Y": 1.0
         },
         "handle_right": {
          "X": 0.5,
          "Y": 0.0
         },
         "handle_type": 0,
         "interpolation": 0
        }
       ]
      },
      "contrast": {
       "Points": [
        {
         "co": {
          "X": 1.0,
          "Y": 3.0
         },
         "handle_left": {
          "X": 0.5,
          "Y": 1.0
         },
         "handle_right": {
          "X": 0.5,
          "Y": 0.0
         },
         "handle_type": 0,
         "interpolation": 0
        },
        {
         "co": {
          "X": 29.0,
          "Y": 3.0
         },
         "handle_left": {
          "X": 0.5,
          "Y": 1.0
         },
         "handle_right": {
          "X": 0.5,
          "Y": 0.0
         },
         "handle_type": 0,
         "interpolation": 0
        }
       ]
      },
      "reader": {
       "acodec": "",
       "audio_bit_rate": 0,
       "audio_stream_index": -1,
       "audio_timebase": {
        "den": 1,
        "num": 1
       },
       "channel_layout": 4,
       "channels": 0,
       "display_ratio": {
        "den": 4,
        "num": 5
       },
       "duration": 3600.0,
       "file_size": "5832000",
       "fps": {
        "den": 1,
        "num": 30
       },
       "has_audio": false,
       "has_single_image": true,
       "has_video": true,
       "height": 576,
       "interlaced_frame": false,
       "metadata": {},
       "path": "@transitions/common/fade.svg",
       "pixel_format": -1,
       "pixel_ratio": {
        "den": 1,
        "num": 1
       },
       "sample_rate": 0,
       "top_field_first": true,
       "type": "QtImageReader",
       "vcodec": "",
       "video_bit_rate": 0,
       "video_length": "108000",
       "video_stream_index": -1,
       "video_timebase": {
        "den": 30,
        "num": 1
       },
       "width": 720
      },
      "replace_image": false,
      "id": "BC8CI4IOC9"
     },
     {
      "layer": 4000000,
      "title": "Transition",
      "type": "Mask",
      "position": 73.9,
      "start": 0,
      "end": 0.9583333333333212,
      "brightness": {
       "Points": [
        {
         "co": {
          "X": 1.0,
          "Y": 1.0
         },
         "handle_left": {
          "X": 0.5,
          "Y": 1.0
         },
         "handle_right": {
          "X": 0.5,
          "Y": 0.0
         },
         "handle_type": 0,
         "interpolation": 0
        },
        {
         "co": {
          "X": 29.0,
          "Y": -1.0
         },
         "handle_left": {
          "X": 0.5,
          "Y": 1.0
         },
         "handle_right": {
          "X": 0.5,
          "Y": 0.0
         },
         "handle_type": 0,
         "interpolation": 0
        }
       ]
      },
      "contrast": {
       "Points": [
        {
         "co": {
          "X": 1.0,
          "Y": 3.0
         },
         "handle_left": {
          "X": 0.5,
          "Y": 1.0
         },
         "handle_right": {
          "X": 0.5,
          "Y": 0.0
         },
         "handle_type": 0,
         "interpolation": 0
        },
        {
         "co": {
          "X": 29.0,
          "Y": 3.0
         },
         "handle_left": {
          "X": 0.5,
          "Y": 1.0
         },
         "handle_right": {
          "X": 0.5,
          "Y": 0.0
         },
         "handle_type": 0,
         "interpolation": 0
        }
       ]
      },
      "reader": {
       "acodec": "",
       "audio_bit_rate": 0,
       "audio_stream_index": -1,
       "audio_timebase": {
        "den": 1,
        "num": 1
       },
       "channel_layout": 4,
       "channels": 0,
       "display_ratio": {
        "den": 4,
        "num": 5
       },
       "duration": 3600.0,
       "file_size": "5832000",
       "fps": {
        "den": 1,
        "num": 30
       },
       "has_audio": false,
       "has_single_image": true,
       "has_video": true,
       "height": 576,
       "interlaced_frame": false,
       "metadata": {},
       "path": "@transitions/common/fade.svg",
       "pixel_format": -1,
       "pixel_ratio": {
        "den": 1,
        "num": 1
       },
       "sample_rate": 0,
       "top_field_first": true,
       "type": "QtImageReader",
       "vcodec": "",
       "video_bit_rate": 0,
       "video_length": "108000",
       "video_stream_index": -1,
       "video_timebase": {
        "den": 30,
        "num": 1
       },
       "width": 720
      },
      "replace_image": false,
      "id": "KPBY75IWTS"
     },
     {
      "layer": 4000000,
      "title": "Transition",
      "type": "Mask",
      "position": 79.56666666666666,
      "start": 0,
      "end": 0.9583333333333212,
      "brightness": {
       "Points": [
        {
         "co": {
          "X": 1.0,
          "Y": -1.0
         },
         "handle_left": {
          "X": 0.5,
          "Y": 1.0
         },
         "handle_right": {
          "X": 0.5,
          "Y": 0.0
         },
         "handle_type": 0,
         "interpolation": 0
        },
        {
         "co": {
          "X": 29.0,
          "Y": 1.0
         },
         "handle_left": {
          "X": 0.5,
          "Y": 1.0
         },
         "handle_right": {
          "X": 0.5,
          "Y": 0.0
         },
         "handle_type": 0,
         "interpolation": 0
        }
       ]
      },
      "contrast": {
       "Points": [
        {
         "co": {
          "X": 1.0,
          "Y": 3.0
         },
         "handle_left": {
          "X": 0.5,
          "Y": 1.0
         },
         "handle_right": {
          "X": 0.5,
          "Y": 0.0
         },
         "handle_type": 0,
         "interpolation": 0
        },
        {
         "co": {
          "X": 29.0,
          "Y": 3.0
         },
         "handle_left": {
          "X": 0.5,
          "Y": 1.0
         },
         "handle_right": {
          "X": 0.5,
          "Y": 0.0
         },
         "handle_type": 0,
         "interpolation": 0
        }
       ]
      },
      "reader": {
       "acodec": "",
       "audio_bit_rate": 0,
       "audio_stream_index": -1,
       "audio_timebase": {
        "den": 1,
        "num": 1
       },
       "channel_layout": 4,
       "channels": 0,
       "display_ratio": {
        "den": 4,
        "num": 5
       },
       "duration": 3600.0,
       "file_size": "5832000",
       "fps": {
        "den": 1,
        "num": 30
       },
       "has_audio": false,
       "has_single_image": true,
       "has_video": true,
       "height": 576,
       "interlaced_frame": false,
       "metadata": {},
       "path": "@transitions/common/fade.svg",
       "pixel_format": -1,
       "pixel_ratio": {
        "den": 1,
        "num": 1
       },
       "sample_rate": 0,
       "top_field_first": true,
       "type": "QtImageReader",
       "vcodec": "",
       "video_bit_rate": 0,
       "video_length": "108000",
       "video_stream_index": -1,
       "video_timebase": {
        "den": 30,
        "num": 1
       },
       "width": 720
      },
      "replace_image": false,
      "id": "N48U05ILNC"
     },
     {
      "layer": 4000000,
      "title": "Transition",
      "type": "Mask",
      "position": 80.76666666666667,
      "start": 0,
      "end": 0.9583333333333212,
      "brightness": {
       "Points": [
        {
         "co": {
          "X": 1.0,
          "Y": 1.0
         },
         "handle_left": {
          "X": 0.5,
          "Y": 1.0
         },
         "handle_right": {
          "X": 0.5,
          "Y": 0.0
         },
         "handle_type": 0,
         "interpolation": 0
        },
        {
         "co": {
          "X": 29.0,
          "Y": -1.0
         },
         "handle_left": {
          "X": 0.5,
          "Y": 1.0
         },
         "handle_right": {
          "X": 0.5,
          "Y": 0.0
         },
         "handle_type": 0,
         "interpolation": 0
        }
       ]
      },
      "contrast": {
       "Points": [
        {
         "co": {
          "X": 1.0,
          "Y": 3.0
         },
         "handle_left": {
          "X": 0.5,
          "Y": 1.0
         },
         "handle_right": {
          "X": 0.5,
          "Y": 0.0
         },
         "handle_type": 0,
         "interpolation": 0
        },
        {
         "co": {
          "X": 29.0,
          "Y": 3.0
         },
         "handle_left": {
          "X": 0.5,
          "Y": 1.0
         },
         "handle_right": {
          "X": 0.5,
          "Y": 0.0
         },
         "handle_type": 0,
         "interpolation": 0
        }
       ]
      },
      "reader": {
       "acodec": "",
       "audio_bit_rate": 0,
       "audio_stream_index": -1,
       "audio_timebase": {
        "den": 1,
        "num": 1
       },
       "channel_layout": 4,
       "channels": 0,
       "display_ratio": {
        "den": 4,
        "num": 5
       },
       "duration": 3600.0,
       "file_size": "5832000",
       "fps": {
        "den": 1,
        "num": 30
       },
       "has_audio": false,
       "has_single_image": true,
       "has_video": true,
       "height": 576,
       "interlaced_frame": false,
       "metadata": {},
       "path": "@transitions/common/fade.svg",
       "pixel_format": -1,
       "pixel_ratio": {
        "den": 1,
        "num": 1
       },
       "sample_rate": 0,
       "top_field_first": true,
       "type": "QtImageReader",
       "vcodec": "",
       "video_bit_rate": 0,
       "video_length": "108000",
       "video_stream_index": -1,
       "video_timebase": {
        "den": 30,
        "num": 1
       },
       "width": 720
      },
      "replace_image": false,
      "id": "LWSD6DDV86"
     },
     {
      "layer": 4000000,
      "title": "Transition",
      "type": "Mask",
      "position": 85.03333333333333,
      "start": 0,
      "end": 0.9583333333333212,
      "brightness": {
       "Points": [
        {
         "co": {
          "X": 1.0,
          "Y": -1.0
         },
         "handle_left": {
          "X": 0.5,
          "Y": 1.0
         },
         "handle_right": {
          "X": 0.5,
          "Y": 0.0
         },
         "handle_type": 0,
         "interpolation": 0
        },
        {
         "co": {
          "X": 29.0,
          "Y": 1.0
         },
         "handle_left": {
          "X": 0.5,
          "Y": 1.0
         },
         "handle_right": {
          "X": 0.5,
          "Y": 0.0
         },
         "handle_type": 0,
         "interpolation": 0
        }
       ]
      },
      "contrast": {
       "Points": [
        {
         "co": {
          "X": 1.0,
          "Y": 3.0
         },
         "handle_left": {
          "X": 0.5,
          "Y": 1.0
         },
         "handle_right": {
          "X": 0.5,
          "Y": 0.0
         },
         "handle_type": 0,
         "interpolation": 0
        },
        {
         "co": {
          "X": 29.0,
          "Y": 3.0
         },
         "handle_left": {
          "X": 0.5,
          "Y": 1.0
         },
         "handle_right": {
          "X": 0.5,
          "Y": 0.0
         },
         "handle_type": 0,
         "interpolation": 0
        }
       ]
      },
      "reader": {
       "acodec": "",
       "audio_bit_rate": 0,
       "audio_stream_index": -1,
       "audio_timebase": {
        "den": 1,
        "num": 1
       },
       "channel_layout": 4,
       "channels": 0,
       "display_ratio": {
        "den": 4,
        "num": 5
       },
       "duration": 3600.0,
       "file_size": "5832000",
       "fps": {
        "den": 1,
        "num": 30
       },
       "has_audio": false,
       "has_single_image": true,
       "has_video": true,
       "height": 576,
       "interlaced_frame": false,
       "metadata": {},
       "path": "@transitions/common/fade.svg",
       "pixel_format": -1,
       "pixel_ratio": {
        "den": 1,
        "num": 1
       },
       "sample_rate": 0,
       "top_field_first": true,
       "type": "QtImageReader",
       "vcodec": "",
       "video_bit_rate": 0,
       "video_length": "108000",
       "video_stream_index": -1,
       "video_timebase": {
        "den": 30,
        "num": 1
       },
       "width": 720
      },
      "replace_image": false,
      "id": "8MLWPBO4EQ"
     },
     {
      "layer": 4000000,
      "title": "Transition",
      "type": "Mask",
      "position": 86.43333333333334,
      "start": 0,
      "end": 1.4666666666666641,
      "brightness": {
       "Points": [
        {
         "co": {
          "X": 1.0,
          "Y": 1.0
         },
         "handle_left": {
          "X": 0.5,
          "Y": 1.0
         },
         "handle_right": {
          "X": 0.5,
          "Y": 0.0
         },
         "handle_type": 0,
         "interpolation": 0
        },
        {
         "co": {
          "X": 44.0,
          "Y": -1.0
         },
         "handle_left": {
          "X": 0.5,
          "Y": 1.0
         },
         "handle_right": {
          "X": 0.5,
          "Y": 0.0
         },
         "handle_type": 0,
         "interpolation": 0
        }
       ]
      },
      "contrast": {
       "Points": [
        {
         "co": {
          "X": 1.0,
          "Y": 3.0
         },
         "handle_left": {
          "X": 0.5,
          "Y": 1.0
         },
         "handle_right": {
          "X": 0.5,
          "Y": 0.0
         },
         "handle_type": 0,
         "interpolation": 0
        },
        {
         "co": {
          "X": 44.0,
          "Y": 3.0
         },
         "handle_left": {
          "X": 0.5,
          "Y": 1.0
         },
         "handle_right": {
          "X": 0.5,
          "Y": 0.0
         },
         "handle_type": 0,
         "interpolation": 0
        }
       ]
      },
      "reader": {
       "acodec": "",
       "audio_bit_rate": 0,
       "audio_stream_index": -1,
       "audio_timebase": {
        "den": 1,
        "num": 1
       },
       "channel_layout": 4,
       "channels": 0,
       "display_ratio": {
        "den": 4,
        "num": 5
       },
       "duration": 3600.0,
       "file_size": "5832000",
       "fps": {
        "den": 1,
        "num": 30
       },
       "has_audio": false,
       "has_single_image": true,
       "has_video": true,
       "height": 576,
       "interlaced_frame": false,
       "metadata": {},
       "path": "@transitions/common/fade.svg",
       "pixel_format": -1,
       "pixel_ratio": {
        "den": 1,
        "num": 1
       },
       "sample_rate": 0,
       "top_field_first": true,
       "type": "QtImageReader",
       "vcodec": "",
       "video_bit_rate": 0,
       "video_length": "108000",
       "video_stream_index": -1,
       "video_timebase": {
        "den": 30,
        "num": 1
       },
       "width": 720
      },
      "replace_image": false,
      "id": "8KLCS4PPAB"
     },
     {
      "layer": 4000000,
      "title": "Transition",
      "type": "Mask",
      "position": 89.66666666666667,
      "start": 0,
      "end": 0.9583333333333212,
      "brightness": {
       "Points": [
        {
         "co": {
          "X": 1.0,
          "Y": -1.0
         },
         "handle_left": {
          "X": 0.5,
          "Y": 1.0
         },
         "handle_right": {
          "X": 0.5,
          "Y": 0.0
         },
         "handle_type": 0,
         "interpolation": 0
        },
        {
         "co": {
          "X": 29.0,
          "Y": 1.0
         },
         "handle_left": {
          "X": 0.5,
          "Y": 1.0
         },
         "handle_right": {
          "X": 0.5,
          "Y": 0.0
         },
         "handle_type": 0,
         "interpolation": 0
        }
       ]
      },
      "contrast": {
       "Points": [
        {
         "co": {
          "X": 1.0,
          "Y": 3.0
         },
         "handle_left": {
          "X": 0.5,
          "Y": 1.0
         },
         "handle_right": {
          "X": 0.5,
          "Y": 0.0
         },
         "handle_type": 0,
         "interpolation": 0
        },
        {
         "co": {
          "X": 29.0,
          "Y": 3.0
         },
         "handle_left": {
          "X": 0.5,
          "Y": 1.0
         },
         "handle_right": {
          "X": 0.5,
          "Y": 0.0
         },
         "handle_type": 0,
         "interpolation": 0
        }
       ]
      },
      "reader": {
       "acodec": "",
       "audio_bit_rate": 0,
       "audio_stream_index": -1,
       "audio_timebase": {
        "den": 1,
        "num": 1
       },
       "channel_layout": 4,
       "channels": 0,
       "display_ratio": {
        "den": 4,
        "num": 5
       },
       "duration": 3600.0,
       "file_size": "5832000",
       "fps": {
        "den": 1,
        "num": 30
       },
       "has_audio": false,
       "has_single_image": true,
       "has_video": true,
       "height": 576,
       "interlaced_frame": false,
       "metadata": {},
       "path": "@transitions/common/fade.svg",
       "pixel_format": -1,
       "pixel_ratio": {
        "den": 1,
        "num": 1
       },
       "sample_rate": 0,
       "top_field_first": true,
       "type": "QtImageReader",
       "vcodec": "",
       "video_bit_rate": 0,
       "video_length": "108000",
       "video_stream_index": -1,
       "video_timebase": {
        "den": 30,
        "num": 1
       },
       "width": 720
      },
      "replace_image": false,
      "id": "7AYTGRXH6E"
     },
     {
      "layer": 4000000,
      "title": "Transition",
      "type": "Mask",
      "position": 90.86666666666666,
      "start": 0,
      "end": 0.9583333333333212,
      "brightness": {
       "Points": [
        {
         "co": {
          "X": 1.0,
          "Y": 1.0
         },
         "handle_left": {
          "X": 0.5,
          "Y": 1.0
         },
         "handle_right": {
          "X": 0.5,
          "Y": 0.0
         },
         "handle_type": 0,
         "interpolation": 0
        },
        {
         "co": {
          "X": 29.0,
          "Y": -1.0
         },
         "handle_left": {
          "X": 0.5,
          "Y": 1.0
         },
         "handle_right": {
          "X": 0.5,
          "Y": 0.0
         },
         "handle_type": 0,
         "interpolation": 0
        }
       ]
      },
      "contrast": {
       "Points": [
        {
         "co": {
          "X": 1.0,
          "Y": 3.0
         },
         "handle_left": {
          "X": 0.5,
          "Y": 1.0
         },
         "handle_right": {
          "X": 0.5,
          "Y": 0.0
         },
         "handle_type": 0,
         "interpolation": 0
        },
        {
         "co": {
          "X": 29.0,
          "Y": 3.0
         },
         "handle_left": {
          "X": 0.5,
          "Y": 1.0
         },
         "handle_right": {
          "X": 0.5,
          "Y": 0.0
         },
         "handle_type": 0,
         "interpolation": 0
        }
       ]
      },
      "reader": {
       "acodec": "",
       "audio_bit_rate": 0,
       "audio_stream_index": -1,
       "audio_timebase": {
        "den": 1,
        "num": 1
       },
       "channel_layout": 4,
       "channels": 0,
       "display_ratio": {
        "den": 4,
        "num": 5
       },
       "duration": 3600.0,
       "file_size": "5832000",
       "fps": {
        "den": 1,
        "num": 30
       },
       "has_audio": false,
       "has_single_image": true,
       "has_video": true,
       "height": 576,
       "interlaced_frame": false,
       "metadata": {},
       "path": "@transitions/common/fade.svg",
       "pixel_format": -1,
       "pixel_ratio": {
        "den": 1,
        "num": 1
       },
       "sample_rate": 0,
       "top_field_first": true,
       "type": "QtImageReader",
       "vcodec": "",
       "video_bit_rate": 0,
       "video_length": "108000",
       "video_stream_index": -1,
       "video_timebase": {
        "den": 30,
        "num": 1
       },
       "width": 720
      },
      "replace_image": false,
      "id": "UA7LEKK6UL"
     },
     {
      "layer": 4000000,
      "title": "Transition",
      "type": "Mask",
      "position": 96.96666666666667,
      "start": 0,
      "end": 0.9583333333333212,
      "brightness": {
       "Points": [
        {
         "co": {
          "X": 1.0,
          "Y": -1.0
         },
         "handle_left": {
          "X": 0.5,
          "Y": 1.0
         },
         "handle_right": {
          "X": 0.5,
          "Y": 0.0
         },
         "handle_type": 0,
         "interpolation": 0
        },
        {
         "co": {
          "X": 29.0,
          "Y": 1.0
         },
         "handle_left": {
          "X": 0.5,
          "Y": 1.0
         },
         "handle_right": {
          "X": 0.5,
          "Y": 0.0
         },
         "handle_type": 0,
         "interpolation": 0
        }
       ]
      },
      "contrast": {
       "Points": [
        {
         "co": {
          "X": 1.0,
          "Y": 3.0
         },
         "handle_left": {
          "X": 0.5,
          "Y": 1.0
         },
         "handle_right": {
          "X": 0.5,
          "Y": 0.0
         },
         "handle_type": 0,
         "interpolation": 0
        },
        {
         "co": {
          "X": 29.0,
          "Y": 3.0
         },
         "handle_left": {
          "X": 0.5,
          "Y": 1.0
         },
         "handle_right": {
          "X": 0.5,
          "Y": 0.0
         },
         "handle_type": 0,
         "interpolation": 0
        }
       ]
      },
      "reader": {
       "acodec": "",
       "audio_bit_rate": 0,
       "audio_stream_index": -1,
       "audio_timebase": {
        "den": 1,
        "num": 1
       },
       "channel_layout": 4,
       "channels": 0,
       "display_ratio": {
        "den": 4,
        "num": 5
       },
       "duration": 3600.0,
       "file_size": "5832000",
       "fps": {
        "den": 1,
        "num": 30
       },
       "has_audio": false,
       "has_single_image": true,
       "has_video": true,
       "height": 576,
       "interlaced_frame": false,
       "metadata": {},
       "path": "@transitions/common/fade.svg",
       "pixel_format": -1,
       "pixel_ratio": {
        "den": 1,
        "num": 1
       },
       "sample_rate": 0,
       "top_field_first": true,
       "type": "QtImageReader",
       "vcodec": "",
       "video_bit_rate": 0,
       "video_length": "108000",
       "video_stream_index": -1,
       "video_timebase": {
        "den": 30,
        "num": 1
       },
       "width": 720
      },
      "replace_image": false,
      "id": "PJNV20PXN2"
     },
     {
      "layer": 3000000,
      "title": "Transition",
      "type": "Mask",
      "position": 96.96666666666667,
      "start": 0,
      "end": 0.9583333333333212,
      "brightness": {
       "Points": [
        {
         "co": {
          "X": 1.0,
          "Y": -1.0
         },
         "handle_left": {
          "X": 0.5,
          "Y": 1.0
         },
         "handle_right": {
          "X": 0.5,
          "Y": 0.0
         },
         "handle_type": 0,
         "interpolation": 0
        },
        {
         "co": {
          "X": 29.0,
          "Y": 1.0
         },
         "handle_left": {
          "X": 0.5,
          "Y": 1.0
         },
         "handle_right": {
          "X": 0.5,
          "Y": 0.0
         },
         "handle_type": 0,
         "interpolation": 0
        }
       ]
      },
      "contrast": {
       "Points": [
        {
         "co": {
          "X": 1.0,
          "Y": 3.0
         },
         "handle_left": {
          "X": 0.5,
          "Y": 1.0
         },
         "handle_right": {
          "X": 0.5,
          "Y": 0.0
         },
         "handle_type": 0,
         "interpolation": 0
        },
        {
         "co": {
          "X": 29.0,
          "Y": 3.0
         },
         "handle_left": {
          "X": 0.5,
          "Y": 1.0
         },
         "handle_right": {
          "X": 0.5,
          "Y": 0.0
         },
         "handle_type": 0,
         "interpolation": 0
        }
       ]
      },
      "reader": {
       "acodec": "",
       "audio_bit_rate": 0,
       "audio_stream_index": -1,
       "audio_timebase": {
        "den": 1,
        "num": 1
       },
       "channel_layout": 4,
       "channels": 0,
       "display_ratio": {
        "den": 4,
        "num": 5
       },
       "duration": 3600.0,
       "file_size": "5832000",
       "fps": {
        "den": 1,
        "num": 30
       },
       "has_audio": false,
       "has_single_image": true,
       "has_video": true,
       "height": 576,
       "interlaced_frame": false,
       "metadata": {},
       "path": "@transitions/common/fade.svg",
       "pixel_format": -1,
       "pixel_ratio": {
        "den": 1,
        "num": 1
       },
       "sample_rate": 0,
       "top_field_first": true,
       "type": "QtImageReader",
       "vcodec": "",
       "video_bit_rate": 0,
       "video_length": "108000",
       "video_stream_index": -1,
       "video_timebase": {
        "den": 30,
        "num": 1
       },
       "width": 720
      },
      "replace_image": false,
      "id": "5D4SK0HM3Y"
     },
     {
      "layer": 4000000,
      "title": "Transition",
      "type": "Mask",
      "position": 100.33333333333333,
      "start": 0,
      "end": 0.9583333333333212,
      "brightness": {
       "Points": [
        {
         "co": {
          "X": 1.0,
          "Y": 1.0
         },
         "handle_left": {
          "X": 0.5,
          "Y": 1.0
         },
         "handle_right": {
          "X": 0.5,
          "Y": 0.0
         },
         "handle_type": 0,
         "interpolation": 0
        },
        {
         "co": {
          "X": 29.0,
          "Y": -1.0
         },
         "handle_left": {
          "X": 0.5,
          "Y": 1.0
         },
         "handle_right": {
          "X": 0.5,
          "Y": 0.0
         },
         "handle_type": 0,
         "interpolation": 0
        }
       ]
      },
      "contrast": {
       "Points": [
        {
         "co": {
          "X": 1.0,
          "Y": 3.0
         },
         "handle_left": {
          "X": 0.5,
          "Y": 1.0
         },
         "handle_right": {
          "X": 0.5,
          "Y": 0.0
         },
         "handle_type": 0,
         "interpolation": 0
        },
        {
         "co": {
          "X": 29.0,
          "Y": 3.0
         },
         "handle_left": {
          "X": 0.5,
          "Y": 1.0
         },
         "handle_right": {
          "X": 0.5,
          "Y": 0.0
         },
         "handle_type": 0,
         "interpolation": 0
        }
       ]
      },
      "reader": {
       "acodec": "",
       "audio_bit_rate": 0,
       "audio_stream_index": -1,
       "audio_timebase": {
        "den": 1,
        "num": 1
       },
       "channel_layout": 4,
       "channels": 0,
       "display_ratio": {
        "den": 4,
        "num": 5
       },
       "duration": 3600.0,
       "file_size": "5832000",
       "fps": {
        "den": 1,
        "num": 30
       },
       "has_audio": false,
       "has_single_image": true,
       "has_video": true,
       "height": 576,
       "interlaced_frame": false,
       "metadata": {},
       "path": "@transitions/common/fade.svg",
       "pixel_format": -1,
       "pixel_ratio": {
        "den": 1,
        "num": 1
       },
       "sample_rate": 0,
       "top_field_first": true,
       "type": "QtImageReader",
       "vcodec": "",
       "video_bit_rate": 0,
       "video_length": "108000",
       "video_stream_index": -1,
       "video_timebase": {
        "den": 30,
        "num": 1
       },
       "width": 720
      },
      "replace_image": false,
      "id": "CIVVK4Z0FJ"
     },
     {
      "layer": 4000000,
      "title": "Transition",
      "type": "Mask",
      "position": 109.36666666666666,
      "start": 0,
      "end": 0.9583333333333212,
      "brightness": {
       "Points": [
        {
         "co": {
          "X": 1.0,
          "Y": -1.0
         },
         "handle_left": {
          "X": 0.5,
          "Y": 1.0
         },
         "handle_right": {
          "X": 0.5,
          "Y": 0.0
         },
         "handle_type": 0,
         "interpolation": 0
        },
        {
         "co": {
          "X": 29.0,
          "Y": 1.0
         },
         "handle_left": {
          "X": 0.5,
          "Y": 1.0
         },
         "handle_right": {
          "X": 0.5,
          "Y": 0.0
         },
         "handle_type": 0,
         "interpolation": 0
        }
       ]
      },
      "contrast": {
       "Points": [
        {
         "co": {
          "X": 1.0,
          "Y": 3.0
         },
         "handle_left": {
          "X": 0.5,
          "Y": 1.0
         },
         "handle_right": {
          "X": 0.5,
          "Y": 0.0
         },
         "handle_type": 0,
         "interpolation": 0
        },
        {
         "co": {
          "X": 29.0,
          "Y": 3.0
         },
         "handle_left": {
          "X": 0.5,
          "Y": 1.0
         },
         "handle_right": {
          "X": 0.5,
          "Y": 0.0
         },
         "handle_type": 0,
         "interpolation": 0
        }
       ]
      },
      "reader": {
       "acodec": "",
       "audio_bit_rate": 0,
       "audio_stream_index": -1,
       "audio_timebase": {
        "den": 1,
        "num": 1
       },
       "channel_layout": 4,
       "channels": 0,
       "display_ratio": {
        "den": 4,
        "num": 5
       },
       "duration": 3600.0,
       "file_size": "5832000",
       "fps": {
        "den": 1,
        "num": 30
       },
       "has_audio": false,
       "has_single_image": true,
       "has_video": true,
       "height": 576,
       "interlaced_frame": false,
       "metadata": {},
       "path": "@transitions/common/fade.svg",
       "pixel_format": -1,
       "pixel_ratio": {
        "den": 1,
        "num": 1
       },
       "sample_rate": 0,
       "top_field_first": true,
       "type": "QtImageReader",
       "vcodec": "",
       "video_bit_rate": 0,
       "video_length": "108000",
       "video_stream_index": -1,
       "video_timebase": {
        "den": 30,
        "num": 1
       },
       "width": 720
      },
      "replace_image": false,
      "id": "6CRBT6371H"
     },
     {
      "layer": 4000000,
      "title": "Transition",
      "type": "Mask",
      "position": 110.5,
      "start": 0,
      "end": 0.9583333333333212,
      "brightness": {
       "Points": [
        {
         "co": {
          "X": 1.0,
          "Y": 1.0
         },
         "handle_left": {
          "X": 0.5,
          "Y": 1.0
         },
         "handle_right": {
          "X": 0.5,
          "Y": 0.0
         },
         "handle_type": 0,
         "interpolation": 0
        },
        {
         "co": {
          "X": 29.0,
          "Y": -1.0
         },
         "handle_left": {
          "X": 0.5,
          "Y": 1.0
         },
         "handle_right": {
          "X": 0.5,
          "Y": 0.0
         },
         "handle_type": 0,
         "interpolation": 0
        }
       ]
      },
      "contrast": {
       "Points": [
        {
         "co": {
          "X": 1.0,
          "Y": 3.0
         },
         "handle_left": {
          "X": 0.5,
          "Y": 1.0
         },
         "handle_right": {
          "X": 0.5,
          "Y": 0.0
         },
         "handle_type": 0,
         "interpolation": 0
        },
        {
         "co": {
          "X": 29.0,
          "Y": 3.0
         },
         "handle_left": {
          "X": 0.5,
          "Y": 1.0
         },
         "handle_right": {
          "X": 0.5,
          "Y": 0.0
         },
         "handle_type": 0,
         "interpolation": 0
        }
       ]
      },
      "reader": {
       "acodec": "",
       "audio_bit_rate": 0,
       "audio_stream_index": -1,
       "audio_timebase": {
        "den": 1,
        "num": 1
       },
       "channel_layout": 4,
       "channels": 0,
       "display_ratio": {
        "den": 4,
        "num": 5
       },
       "duration": 3600.0,
       "file_size": "5832000",
       "fps": {
        "den": 1,
        "num": 30
       },
       "has_audio": false,
       "has_single_image": true,
       "has_video": true,
       "height": 576,
       "interlaced_frame": false,
       "metadata": {},
       "path": "@transitions/common/fade.svg",
       "pixel_format": -1,
       "pixel_ratio": {
        "den": 1,
        "num": 1
       },
       "sample_rate": 0,
       "top_field_first": true,
       "type": "QtImageReader",
       "vcodec": "",
       "video_bit_rate": 0,
       "video_length": "108000",
       "video_stream_index": -1,
       "video_timebase": {
        "den": 30,
        "num": 1
       },
       "width": 720
      },
      "replace_image": false,
      "id": "6CLK4D1U3V"
     },
     {
      "layer": 4000000,
      "title": "Transition",
      "type": "Mask",
      "position": 119.53333333333333,
      "start": 0,
      "end": 0.9583333333333212,
      "brightness": {
       "Points": [
        {
         "co": {
          "X": 1.0,
          "Y": -1.0
         },
         "handle_left": {
          "X": 0.5,
          "Y": 1.0
         },
         "handle_right": {
          "X": 0.5,
          "Y": 0.0
         },
         "handle_type": 0,
         "interpolation": 0
        },
        {
         "co": {
          "X": 29.0,
          "Y": 1.0
         },
         "handle_left": {
          "X": 0.5,
          "Y": 1.0
         },
         "handle_right": {
          "X": 0.5,
          "Y": 0.0
         },
         "handle_type": 0,
         "interpolation": 0
        }
       ]
      },
      "contrast": {
       "Points": [
        {
         "co": {
          "X": 1.0,
          "Y": 3.0
         },
         "handle_left": {
          "X": 0.5,
          "Y": 1.0
         },
         "handle_right": {
          "X": 0.5,
          "Y": 0.0
         },
         "handle_type": 0,
         "interpolation": 0
        },
        {
         "co": {
          "X": 29.0,
          "Y": 3.0
         },
         "handle_left": {
          "X": 0.5,
          "Y": 1.0
         },
         "handle_right": {
          "X": 0.5,
          "Y": 0.0
         },
         "handle_type": 0,
         "interpolation": 0
        }
       ]
      },
      "reader": {
       "acodec": "",
       "audio_bit_rate": 0,
       "audio_stream_index": -1,
       "audio_timebase": {
        "den": 1,
        "num": 1
       },
       "channel_layout": 4,
       "channels": 0,
       "display_ratio": {
        "den": 4,
        "num": 5
       },
       "duration": 3600.0,
       "file_size": "5832000",
       "fps": {
        "den": 1,
        "num": 30
       },
       "has_audio": false,
       "has_single_image": true,
       "has_video": true,
       "height": 576,
       "interlaced_frame": false,
       "metadata": {},
       "path": "@transitions/common/fade.svg",
       "pixel_format": -1,
       "pixel_ratio": {
        "den": 1,
        "num": 1
       },
       "sample_rate": 0,
       "top_field_first": true,
       "type": "QtImageReader",
       "vcodec": "",
       "video_bit_rate": 0,
       "video_length": "108000",
       "video_stream_index": -1,
       "video_timebase": {
        "den": 30,
        "num": 1
       },
       "width": 720
      },
      "replace_image": false,
      "id": "T7M03LVI36"
     },
     {
      "layer": 4000000,
      "title": "Transition",
      "type": "Mask",
      "position": 122,
      "start": 0,
      "end": 0.9583333333333212,
      "brightness": {
       "Points": [
        {
         "co": {
          "X": 1.0,
          "Y": 1.0
         },
         "handle_left": {
          "X": 0.5,
          "Y": 1.0
         },
         "handle_right": {
          "X": 0.5,
          "Y": 0.0
         },
         "handle_type": 0,
         "interpolation": 0
        },
        {
         "co": {
          "X": 29.0,
          "Y": -1.0
         },
         "handle_left": {
          "X": 0.5,
          "Y": 1.0
         },
         "handle_right": {
          "X": 0.5,
          "Y": 0.0
         },
         "handle_type": 0,
         "interpolation": 0
        }
       ]
      },
      "contrast": {
       "Points": [
        {
         "co": {
          "X": 1.0,
          "Y": 3.0
         },
         "handle_left": {
          "X": 0.5,
          "Y": 1.0
         },
         "handle_right": {
          "X": 0.5,
          "Y": 0.0
         },
         "handle_type": 0,
         "interpolation": 0
        },
        {
         "co": {
          "X": 29.0,
          "Y": 3.0
         },
         "handle_left": {
          "X": 0.5,
          "Y": 1.0
         },
         "handle_right": {
          "X": 0.5,
          "Y": 0.0
         },
         "handle_type": 0,
         "interpolation": 0
        }
       ]
      },
      "reader": {
       "acodec": "",
       "audio_bit_rate": 0,
       "audio_stream_index": -1,
       "audio_timebase": {
        "den": 1,
        "num": 1
       },
       "channel_layout": 4,
       "channels": 0,
       "display_ratio": {
        "den": 4,
        "num": 5
       },
       "duration": 3600.0,
       "file_size": "5832000",
       "fps": {
        "den": 1,
        "num": 30
       },
       "has_audio": false,
       "has_single_image": true,
       "has_video": true,
       "height": 576,
       "interlaced_frame": false,
       "metadata": {},
       "path": "@transitions/common/fade.svg",
       "pixel_format": -1,
       "pixel_ratio": {
        "den": 1,
        "num": 1
       },
       "sample_rate": 0,
       "top_field_first": true,
       "type": "QtImageReader",
       "vcodec": "",
       "video_bit_rate": 0,
       "video_length": "108000",
       "video_stream_index": -1,
       "video_timebase": {
        "den": 30,
        "num": 1
       },
       "width": 720
      },
      "replace_image": false,
      "id": "H2KZP3RW5J"
     },
     {
      "id": "B9Z9HMO54D",
      "layer": 1000000,
      "title": "Transition",
      "type": "Mask",
      "position": 125.03333333333333,
      "start": 0,
      "end": 1.2633353678385504,
      "brightness": {
       "Points": [
        {
         "co": {
          "X": 1.0,
          "Y": 1.0
         },
         "handle_left": {
          "X": 0.5,
          "Y": 1.0
         },
         "handle_right": {
          "X": 0.5,
          "Y": 0.0
         },
         "handle_type": 0,
         "interpolation": 0
        },
        {
         "co": {
          "X": 38.0,
          "Y": -1.0
         },
         "handle_left": {
          "X": 0.5,
          "Y": 1.0
         },
         "handle_right": {
          "X": 0.5,
          "Y": 0.0
         },
         "handle_type": 0,
         "interpolation": 0
        }
       ]
      },
      "contrast": {
       "Points": [
        {
         "co": {
          "X": 1.0,
          "Y": 3.0
         },
         "handle_left": {
          "X": 0.5,
          "Y": 1.0
         },
         "handle_right": {
          "X": 0.5,
          "Y": 0.0
         },
         "handle_type": 0,
         "interpolation": 0
        },
        {
         "co": {
          "X": 38.0,
          "Y": 3.0
         },
         "handle_left": {
          "X": 0.5,
          "Y": 1.0
         },
         "handle_right": {
          "X": 0.5,
          "Y": 0.0
         },
         "handle_type": 0,
         "interpolation": 0
        }
       ]
      },
      "reader": {
       "acodec": "",
       "audio_bit_rate": 0,
       "audio_stream_index": -1,
       "audio_timebase": {
        "den": 1,
        "num": 1
       },
       "channel_layout": 4,
       "channels": 0,
       "display_ratio": {
        "den": 4,
        "num": 5
       },
       "duration": 3600.0,
       "file_size": "5832000",
       "fps": {
        "den": 1,
        "num": 30
       },
       "has_audio": false,
       "has_single_image": true,
       "has_video": true,
       "height": 576,
       "interlaced_frame": false,
       "metadata": {},
       "path": "@transitions/common/fade.svg",
       "pixel_format": -1,
       "pixel_ratio": {
        "den": 1,
        "num": 1
       },
       "sample_rate": 0,
       "top_field_first": true,
       "type": "QtImageReader",
       "vcodec": "",
       "video_bit_rate": 0,
       "video_length": "108000",
       "video_stream_index": -1,
       "video_timebase": {
        "den": 30,
        "num": 1
       },
       "width": 720
      },
      "replace_image": false
     },
     {
      "id": "QXV6SJOC9B",
      "layer": 1000000,
      "title": "Transition",
      "type": "Mask",
      "position": 110.5,
      "start": 0,
      "end": 2.0333333333333314,
      "brightness": {
       "Points": [
        {
         "co": {
          "X": 1.0,
          "Y": 1.0
         },
         "handle_left": {
          "X": 0.5,
          "Y": 1.0
         },
         "handle_right": {
          "X": 0.5,
          "Y": 0.0
         },
         "handle_type": 0,
         "interpolation": 0
        },
        {
         "co": {
          "X": 62.0,
          "Y": -1.0
         },
         "handle_left": {
          "X": 0.5,
          "Y": 1.0
         },
         "handle_right": {
          "X": 0.5,
          "Y": 0.0
         },
         "handle_type": 0,
         "interpolation": 0
        }
       ]
      },
      "contrast": {
       "Points": [
        {
         "co": {
          "X": 1.0,
          "Y": 3.0
         },
         "handle_left": {
          "X": 0.5,
          "Y": 1.0
         },
         "handle_right": {
          "X": 0.5,
          "Y": 0.0
         },
         "handle_type": 0,
         "interpolation": 0
        }
       ]
      },
      "reader": {
       "acodec": "",
       "audio_bit_rate": 0,
       "audio_stream_index": -1,
       "audio_timebase": {
        "den": 1,
        "num": 1
       },
       "channel_layout": 4,
       "channels": 0,
       "display_ratio": {
        "den": 4,
        "num": 5
       },
       "duration": 3600.0,
       "file_size": "5832000",
       "fps": {
        "den": 1,
        "num": 30
       },
       "has_audio": false,
       "has_single_image": true,
       "has_video": true,
       "height": 576,
       "interlaced_frame": false,
       "metadata": {},
       "path": "@transitions/common/fade.svg",
       "pixel_format": -1,
       "pixel_ratio": {
        "den": 1,
        "num": 1
       },
       "sample_rate": 0,
       "top_field_first": true,
       "type": "QtImageReader",
       "vcodec": "",
       "video_bit_rate": 0,
       "video_length": "108000",
       "video_stream_index": -1,
       "video_timebase": {
        "den": 30,
        "num": 1
       },
       "width": 720
      },
      "replace_image": false
     },
     {
      "id": "P0VCHPRAEW",
      "layer": 1000000,
      "title": "Transition",
      "type": "Mask",
      "position": 133.53333333333333,
      "start": 0,
      "end": 1.26666666666668,
      "brightness": {
       "Points": [
        {
         "co": {
          "X": 1.0,
          "Y": 1.0
         },
         "handle_left": {
          "X": 0.5,
          "Y": 1.0
         },
         "handle_right": {
          "X": 0.5,
          "Y": 0.0
         },
         "handle_type": 0,
         "interpolation": 0
        },
        {
         "co": {
          "X": 39.0,
          "Y": -1.0
         },
         "handle_left": {
          "X": 0.5,
          "Y": 1.0
         },
         "handle_right": {
          "X": 0.5,
          "Y": 0.0
         },
         "handle_type": 0,
         "interpolation": 0
        }
       ]
      },
      "contrast": {
       "Points": [
        {
         "co": {
          "X": 1.0,
          "Y": 3.0
         },
         "handle_left": {
          "X": 0.5,
          "Y": 1.0
         },
         "handle_right": {
          "X": 0.5,
          "Y": 0.0
         },
         "handle_type": 0,
         "interpolation": 0
        }
       ]
      },
      "reader": {
       "acodec": "",
       "audio_bit_rate": 0,
       "audio_stream_index": -1,
       "audio_timebase": {
        "den": 1,
        "num": 1
       },
       "channel_layout": 4,
       "channels": 0,
       "display_ratio": {
        "den": 4,
        "num": 5
       },
       "duration": 3600.0,
       "file_size": "5832000",
       "fps": {
        "den": 1,
        "num": 30
       },
       "has_audio": false,
       "has_single_image": true,
       "has_video": true,
       "height": 576,
       "interlaced_frame": false,
       "metadata": {},
       "path": "@transitions/common/fade.svg",
       "pixel_format": -1,
       "pixel_ratio": {
        "den": 1,
        "num": 1
       },
       "sample_rate": 0,
       "top_field_first": true,
       "type": "QtImageReader",
       "vcodec": "",
       "video_bit_rate": 0,
       "video_length": "108000",
       "video_stream_index": -1,
       "video_timebase": {
        "den": 30,
        "num": 1
       },
       "width": 720
      },
      "replace_image": false
     },
     {
      "layer": 4000000,
      "title": "Transition",
      "type": "Mask",
      "position": 142.6,
      "start": 0,
      "end": 0.9583333333333212,
      "brightness": {
       "Points": [
        {
         "co": {
          "X": 1.0,
          "Y": -1.0
         },
         "handle_left": {
          "X": 0.5,
          "Y": 1.0
         },
         "handle_right": {
          "X": 0.5,
          "Y": 0.0
         },
         "handle_type": 0,
         "interpolation": 0
        },
        {
         "co": {
          "X": 29.0,
          "Y": 1.0
         },
         "handle_left": {
          "X": 0.5,
          "Y": 1.0
         },
         "handle_right": {
          "X": 0.5,
          "Y": 0.0
         },
         "handle_type": 0,
         "interpolation": 0
        }
       ]
      },
      "contrast": {
       "Points": [
        {
         "co": {
          "X": 1.0,
          "Y": 3.0
         },
         "handle_left": {
          "X": 0.5,
          "Y": 1.0
         },
         "handle_right": {
          "X": 0.5,
          "Y": 0.0
         },
         "handle_type": 0,
         "interpolation": 0
        },
        {
         "co": {
          "X": 29.0,
          "Y": 3.0
         },
         "handle_left": {
          "X": 0.5,
          "Y": 1.0
         },
         "handle_right": {
          "X": 0.5,
          "Y": 0.0
         },
         "handle_type": 0,
         "interpolation": 0
        }
       ]
      },
      "reader": {
       "acodec": "",
       "audio_bit_rate": 0,
       "audio_stream_index": -1,
       "audio_timebase": {
        "den": 1,
        "num": 1
       },
       "channel_layout": 4,
       "channels": 0,
       "display_ratio": {
        "den": 4,
        "num": 5
       },
       "duration": 3600.0,
       "file_size": "5832000",
       "fps": {
        "den": 1,
        "num": 30
       },
       "has_audio": false,
       "has_single_image": true,
       "has_video": true,
       "height": 576,
       "interlaced_frame": false,
       "metadata": {},
       "path": "@transitions/common/fade.svg",
       "pixel_format": -1,
       "pixel_ratio": {
        "den": 1,
        "num": 1
       },
       "sample_rate": 0,
       "top_field_first": true,
       "type": "QtImageReader",
       "vcodec": "",
       "video_bit_rate": 0,
       "video_length": "108000",
       "video_stream_index": -1,
       "video_timebase": {
        "den": 30,
        "num": 1
       },
       "width": 720
      },
      "replace_image": false,
      "id": "HD7YD14ZFT"
     },
     {
      "layer": 4000000,
      "title": "Transition",
      "type": "Mask",
      "position": 131.03333333333333,
      "start": 0,
      "end": 0.9583333333333212,
      "brightness": {
       "Points": [
        {
         "co": {
          "X": 1.0,
          "Y": -1.0
         },
         "handle_left": {
          "X": 0.5,
          "Y": 1.0
         },
         "handle_right": {
          "X": 0.5,
          "Y": 0.0
         },
         "handle_type": 0,
         "interpolation": 0
        },
        {
         "co": {
          "X": 29.0,
          "Y": 1.0
         },
         "handle_left": {
          "X": 0.5,
          "Y": 1.0
         },
         "handle_right": {
          "X": 0.5,
          "Y": 0.0
         },
         "handle_type": 0,
         "interpolation": 0
        }
       ]
      },
      "contrast": {
       "Points": [
        {
         "co": {
          "X": 1.0,
          "Y": 3.0
         },
         "handle_left": {
          "X": 0.5,
          "Y": 1.0
         },
         "handle_right": {
          "X": 0.5,
          "Y": 0.0
         },
         "handle_type": 0,
         "interpolation": 0
        },
        {
         "co": {
          "X": 29.0,
          "Y": 3.0
         },
         "handle_left": {
          "X": 0.5,
          "Y": 1.0
         },
         "handle_right": {
          "X": 0.5,
          "Y": 0.0
         },
         "handle_type": 0,
         "interpolation": 0
        }
       ]
      },
      "reader": {
       "acodec": "",
       "audio_bit_rate": 0,
       "audio_stream_index": -1,
       "audio_timebase": {
        "den": 1,
        "num": 1
       },
       "channel_layout": 4,
       "channels": 0,
       "display_ratio": {
        "den": 4,
        "num": 5
       },
       "duration": 3600.0,
       "file_size": "5832000",
       "fps": {
        "den": 1,
        "num": 30
       },
       "has_audio": false,
       "has_single_image": true,
       "has_video": true,
       "height": 576,
       "interlaced_frame": false,
       "metadata": {},
       "path": "@transitions/common/fade.svg",
       "pixel_format": -1,
       "pixel_ratio": {
        "den": 1,
        "num": 1
       },
       "sample_rate": 0,
       "top_field_first": true,
       "type": "QtImageReader",
       "vcodec": "",
       "video_bit_rate": 0,
       "video_length": "108000",
       "video_stream_index": -1,
       "video_timebase": {
        "den": 30,
        "num": 1
       },
       "width": 720
      },
      "replace_image": false,
      "id": "W1VV6ZI143"
     },
     {
      "layer": 4000000,
      "title": "Transition",
      "type": "Mask",
      "position": 133.56666666666666,
      "start": 0,
      "end": 0.9583333333333212,
      "brightness": {
       "Points": [
        {
         "co": {
          "X": 1.0,
          "Y": 1.0
         },
         "handle_left": {
          "X": 0.5,
          "Y": 1.0
         },
         "handle_right": {
          "X": 0.5,
          "Y": 0.0
         },
         "handle_type": 0,
         "interpolation": 0
        },
        {
         "co": {
          "X": 29.0,
          "Y": -1.0
         },
         "handle_left": {
          "X": 0.5,
          "Y": 1.0
         },
         "handle_right": {
          "X": 0.5,
          "Y": 0.0
         },
         "handle_type": 0,
         "interpolation": 0
        }
       ]
      },
      "contrast": {
       "Points": [
        {
         "co": {
          "X": 1.0,
          "Y": 3.0
         },
         "handle_left": {
          "X": 0.5,
          "Y": 1.0
         },
         "handle_right": {
          "X": 0.5,
          "Y": 0.0
         },
         "handle_type": 0,
         "interpolation": 0
        },
        {
         "co": {
          "X": 29.0,
          "Y": 3.0
         },
         "handle_left": {
          "X": 0.5,
          "Y": 1.0
         },
         "handle_right": {
          "X": 0.5,
          "Y": 0.0
         },
         "handle_type": 0,
         "interpolation": 0
        }
       ]
      },
      "reader": {
       "acodec": "",
       "audio_bit_rate": 0,
       "audio_stream_index": -1,
       "audio_timebase": {
        "den": 1,
        "num": 1
       },
       "channel_layout": 4,
       "channels": 0,
       "display_ratio": {
        "den": 4,
        "num": 5
       },
       "duration": 3600.0,
       "file_size": "5832000",
       "fps": {
        "den": 1,
        "num": 30
       },
       "has_audio": false,
       "has_single_image": true,
       "has_video": true,
       "height": 576,
       "interlaced_frame": false,
       "metadata": {},
       "path": "@transitions/common/fade.svg",
       "pixel_format": -1,
       "pixel_ratio": {
        "den": 1,
        "num": 1
       },
       "sample_rate": 0,
       "top_field_first": true,
       "type": "QtImageReader",
       "vcodec": "",
       "video_bit_rate": 0,
       "video_length": "108000",
       "video_stream_index": -1,
       "video_timebase": {
        "den": 30,
        "num": 1
       },
       "width": 720
      },
      "replace_image": false,
      "id": "Z02J2TPUOT"
     },
     {
      "id": "0N4ZYD2NF2",
      "layer": 1000000,
      "title": "Transition",
      "type": "Mask",
      "position": 143.56666666666666,
      "start": 0,
      "end": 1.2333333333333485,
      "brightness": {
       "Points": [
        {
         "co": {
          "X": 1.0,
          "Y": 1.0
         },
         "handle_left": {
          "X": 0.5,
          "Y": 1.0
         },
         "handle_right": {
          "X": 0.5,
          "Y": 0.0
         },
         "handle_type": 0,
         "interpolation": 0
        },
        {
         "co": {
          "X": 38.0,
          "Y": -1.0
         },
         "handle_left": {
          "X": 0.5,
          "Y": 1.0
         },
         "handle_right": {
          "X": 0.5,
          "Y": 0.0
         },
         "handle_type": 0,
         "interpolation": 0
        }
       ]
      },
      "contrast": {
       "Points": [
        {
         "co": {
          "X": 1.0,
          "Y": 3.0
         },
         "handle_left": {
          "X": 0.5,
          "Y": 1.0
         },
         "handle_right": {
          "X": 0.5,
          "Y": 0.0
         },
         "handle_type": 0,
         "interpolation": 0
        }
       ]
      },
      "reader": {
       "acodec": "",
       "audio_bit_rate": 0,
       "audio_stream_index": -1,
       "audio_timebase": {
        "den": 1,
        "num": 1
       },
       "channel_layout": 4,
       "channels": 0,
       "display_ratio": {
        "den": 4,
        "num": 5
       },
       "duration": 3600.0,
       "file_size": "5832000",
       "fps": {
        "den": 1,
        "num": 30
       },
       "has_audio": false,
       "has_single_image": true,
       "has_video": true,
       "height": 576,
       "interlaced_frame": false,
       "metadata": {},
       "path": "@transitions/common/fade.svg",
       "pixel_format": -1,
       "pixel_ratio": {
        "den": 1,
        "num": 1
       },
       "sample_rate": 0,
       "top_field_first": true,
       "type": "QtImageReader",
       "vcodec": "",
       "video_bit_rate": 0,
       "video_length": "108000",
       "video_stream_index": -1,
       "video_timebase": {
        "den": 30,
        "num": 1
       },
       "width": 720
      },
      "replace_image": false
     },
     {
      "layer": 4000000,
      "title": "Transition",
      "type": "Mask",
      "position": 144.8,
      "start": 0,
      "end": 0.9583333333333212,
      "brightness": {
       "Points": [
        {
         "co": {
          "X": 1.0,
          "Y": 1.0
         },
         "handle_left": {
          "X": 0.5,
          "Y": 1.0
         },
         "handle_right": {
          "X": 0.5,
          "Y": 0.0
         },
         "handle_type": 0,
         "interpolation": 0
        },
        {
         "co": {
          "X": 29.0,
          "Y": -1.0
         },
         "handle_left": {
          "X": 0.5,
          "Y": 1.0
         },
         "handle_right": {
          "X": 0.5,
          "Y": 0.0
         },
         "handle_type": 0,
         "interpolation": 0
        }
       ]
      },
      "contrast": {
       "Points": [
        {
         "co": {
          "X": 1.0,
          "Y": 3.0
         },
         "handle_left": {
          "X": 0.5,
          "Y": 1.0
         },
         "handle_right": {
          "X": 0.5,
          "Y": 0.0
         },
         "handle_type": 0,
         "interpolation": 0
        },
        {
         "co": {
          "X": 29.0,
          "Y": 3.0
         },
         "handle_left": {
          "X": 0.5,
          "Y": 1.0
         },
         "handle_right": {
          "X": 0.5,
          "Y": 0.0
         },
         "handle_type": 0,
         "interpolation": 0
        }
       ]
      },
      "reader": {
       "acodec": "",
       "audio_bit_rate": 0,
       "audio_stream_index": -1,
       "audio_timebase": {
        "den": 1,
        "num": 1
       },
       "channel_layout": 4,
       "channels": 0,
       "display_ratio": {
        "den": 4,
        "num": 5
       },
       "duration": 3600.0,
       "file_size": "5832000",
       "fps": {
        "den": 1,
        "num": 30
       },
       "has_audio": false,
       "has_single_image": true,
       "has_video": true,
       "height": 576,
       "interlaced_frame": false,
       "metadata": {},
       "path": "@transitions/common/fade.svg",
       "pixel_format": -1,
       "pixel_ratio": {
        "den": 1,
        "num": 1
       },
       "sample_rate": 0,
       "top_field_first": true,
       "type": "QtImageReader",
       "vcodec": "",
       "video_bit_rate": 0,
       "video_length": "108000",
       "video_stream_index": -1,
       "video_timebase": {
        "den": 30,
        "num": 1
       },
       "width": 720
      },
      "replace_image": false,
      "id": "W0DEPAZ42R"
     },
     {
      "id": "TO45GHWLTA",
      "layer": 1000000,
      "title": "Transition",
      "type": "Mask",
      "position": 145.76666666666668,
      "start": 0,
      "end": 1,
      "brightness": {
       "Points": [
        {
         "co": {
          "X": 1.0,
          "Y": 1.0
         },
         "handle_left": {
          "X": 0.5,
          "Y": 1.0
         },
         "handle_right": {
          "X": 0.5,
          "Y": 0.0
         },
         "handle_type": 0,
         "interpolation": 0
        },
        {
         "co": {
          "X": 31.0,
          "Y": -1.0
         },
         "handle_left": {
          "X": 0.5,
          "Y": 1.0
         },
         "handle_right": {
          "X": 0.5,
          "Y": 0.0
         },
         "handle_type": 0,
         "interpolation": 0
        }
       ]
      },
      "contrast": {
       "Points": [
        {
         "co": {
          "X": 1.0,
          "Y": 3.0
         },
         "handle_left": {
          "X": 0.5,
          "Y": 1.0
         },
         "handle_right": {
          "X": 0.5,
          "Y": 0.0
         },
         "handle_type": 0,
         "interpolation": 0
        }
       ]
      },
      "reader": {
       "acodec": "",
       "audio_bit_rate": 0,
       "audio_stream_index": -1,
       "audio_timebase": {
        "den": 1,
        "num": 1
       },
       "channel_layout": 4,
       "channels": 0,
       "display_ratio": {
        "den": 4,
        "num": 5
       },
       "duration": 3600.0,
       "file_size": "5832000",
       "fps": {
        "den": 1,
        "num": 30
       },
       "has_audio": false,
       "has_single_image": true,
       "has_video": true,
       "height": 576,
       "interlaced_frame": false,
       "metadata": {},
       "path": "@transitions/common/fade.svg",
       "pixel_format": -1,
       "pixel_ratio": {
        "den": 1,
        "num": 1
       },
       "sample_rate": 0,
       "top_field_first": true,
       "type": "QtImageReader",
       "vcodec": "",
       "video_bit_rate": 0,
       "video_length": "108000",
       "video_stream_index": -1,
       "video_timebase": {
        "den": 30,
        "num": 1
       },
       "width": 720
      },
      "replace_image": false
     },
     {
      "id": "QQGQORIF73",
      "layer": 1000000,
      "title": "Transition",
      "type": "Mask",
      "position": 147.5,
      "start": 0,
      "end": 1.1666666666666572,
      "brightness": {
       "Points": [
        {
         "co": {
          "X": 1.0,
          "Y": 1.0
         },
         "handle_left": {
          "X": 0.5,
          "Y": 1.0
         },
         "handle_right": {
          "X": 0.5,
          "Y": 0.0
         },
         "handle_type": 0,
         "interpolation": 0
        },
        {
         "co": {
          "X": 35.0,
          "Y": -1.0
         },
         "handle_left": {
          "X": 0.5,
          "Y": 1.0
         },
         "handle_right": {
          "X": 0.5,
          "Y": 0.0
         },
         "handle_type": 0,
         "interpolation": 0
        }
       ]
      },
      "contrast": {
       "Points": [
        {
         "co": {
          "X": 1.0,
          "Y": 3.0
         },
         "handle_left": {
          "X": 0.5,
          "Y": 1.0
         },
         "handle_right": {
          "X": 0.5,
          "Y": 0.0
         },
         "handle_type": 0,
         "interpolation": 0
        },
        {
         "co": {
          "X": 35.0,
          "Y": 3.0
         },
         "handle_left": {
          "X": 0.5,
          "Y": 1.0
         },
         "handle_right": {
          "X": 0.5,
          "Y": 0.0
         },
         "handle_type": 0,
         "interpolation": 0
        }
       ]
      },
      "reader": {
       "acodec": "",
       "audio_bit_rate": 0,
       "audio_stream_index": -1,
       "audio_timebase": {
        "den": 1,
        "num": 1
       },
       "channel_layout": 4,
       "channels": 0,
       "display_ratio": {
        "den": 4,
        "num": 5
       },
       "duration": 3600.0,
       "file_size": "5832000",
       "fps": {
        "den": 1,
        "num": 30
       },
       "has_audio": false,
       "has_single_image": true,
       "has_video": true,
       "height": 576,
       "interlaced_frame": false,
       "metadata": {},
       "path": "@transitions/common/fade.svg",
       "pixel_format": -1,
       "pixel_ratio": {
        "den": 1,
        "num": 1
       },
       "sample_rate": 0,
       "top_field_first": true,
       "type": "QtImageReader",
       "vcodec": "",
       "video_bit_rate": 0,
       "video_length": "108000",
       "video_stream_index": -1,
       "video_timebase": {
        "den": 30,
        "num": 1
       },
       "width": 720
      },
      "replace_image": false
     },
     {
      "layer": 3000000,
      "title": "Transition",
      "type": "Mask",
      "position": 147.5,
      "start": 0,
      "end": 0.9583333333333212,
      "brightness": {
       "Points": [
        {
         "co": {
          "X": 1.0,
          "Y": 1.0
         },
         "handle_left": {
          "X": 0.5,
          "Y": 1.0
         },
         "handle_right": {
          "X": 0.5,
          "Y": 0.0
         },
         "handle_type": 0,
         "interpolation": 0
        },
        {
         "co": {
          "X": 29.0,
          "Y": -1.0
         },
         "handle_left": {
          "X": 0.5,
          "Y": 1.0
         },
         "handle_right": {
          "X": 0.5,
          "Y": 0.0
         },
         "handle_type": 0,
         "interpolation": 0
        }
       ]
      },
      "contrast": {
       "Points": [
        {
         "co": {
          "X": 1.0,
          "Y": 3.0
         },
         "handle_left": {
          "X": 0.5,
          "Y": 1.0
         },
         "handle_right": {
          "X": 0.5,
          "Y": 0.0
         },
         "handle_type": 0,
         "interpolation": 0
        },
        {
         "co": {
          "X": 29.0,
          "Y": 3.0
         },
         "handle_left": {
          "X": 0.5,
          "Y": 1.0
         },
         "handle_right": {
          "X": 0.5,
          "Y": 0.0
         },
         "handle_type": 0,
         "interpolation": 0
        }
       ]
      },
      "reader": {
       "acodec": "",
       "audio_bit_rate": 0,
       "audio_stream_index": -1,
       "audio_timebase": {
        "den": 1,
        "num": 1
       },
       "channel_layout": 4,
       "channels": 0,
       "display_ratio": {
        "den": 4,
        "num": 5
       },
       "duration": 3600.0,
       "file_size": "5832000",
       "fps": {
        "den": 1,
        "num": 30
       },
       "has_audio": false,
       "has_single_image": true,
       "has_video": true,
       "height": 576,
       "interlaced_frame": false,
       "metadata": {},
       "path": "@transitions/common/fade.svg",
       "pixel_format": -1,
       "pixel_ratio": {
        "den": 1,
        "num": 1
       },
       "sample_rate": 0,
       "top_field_first": true,
       "type": "QtImageReader",
       "vcodec": "",
       "video_bit_rate": 0,
       "video_length": "108000",
       "video_stream_index": -1,
       "video_timebase": {
        "den": 30,
        "num": 1
       },
       "width": 720
      },
      "replace_image": false,
      "id": "MQ9GMO4U7S"
     },
     {
      "layer": 3000000,
      "title": "Transition",
      "type": "Mask",
      "position": 151.5,
      "start": 0,
      "end": 0.9583333333333212,
      "brightness": {
       "Points": [
        {
         "co": {
          "X": 1.0,
          "Y": -1.0
         },
         "handle_left": {
          "X": 0.5,
          "Y": 1.0
         },
         "handle_right": {
          "X": 0.5,
          "Y": 0.0
         },
         "handle_type": 0,
         "interpolation": 0
        },
        {
         "co": {
          "X": 29.0,
          "Y": 1.0
         },
         "handle_left": {
          "X": 0.5,
          "Y": 1.0
         },
         "handle_right": {
          "X": 0.5,
          "Y": 0.0
         },
         "handle_type": 0,
         "interpolation": 0
        }
       ]
      },
      "contrast": {
       "Points": [
        {
         "co": {
          "X": 1.0,
          "Y": 3.0
         },
         "handle_left": {
          "X": 0.5,
          "Y": 1.0
         },
         "handle_right": {
          "X": 0.5,
          "Y": 0.0
         },
         "handle_type": 0,
         "interpolation": 0
        },
        {
         "co": {
          "X": 29.0,
          "Y": 3.0
         },
         "handle_left": {
          "X": 0.5,
          "Y": 1.0
         },
         "handle_right": {
          "X": 0.5,
          "Y": 0.0
         },
         "handle_type": 0,
         "interpolation": 0
        }
       ]
      },
      "reader": {
       "acodec": "",
       "audio_bit_rate": 0,
       "audio_stream_index": -1,
       "audio_timebase": {
        "den": 1,
        "num": 1
       },
       "channel_layout": 4,
       "channels": 0,
       "display_ratio": {
        "den": 4,
        "num": 5
       },
       "duration": 3600.0,
       "file_size": "5832000",
       "fps": {
        "den": 1,
        "num": 30
       },
       "has_audio": false,
       "has_single_image": true,
       "has_video": true,
       "height": 576,
       "interlaced_frame": false,
       "metadata": {},
       "path": "@transitions/common/fade.svg",
       "pixel_format": -1,
       "pixel_ratio": {
        "den": 1,
        "num": 1
       },
       "sample_rate": 0,
       "top_field_first": true,
       "type": "QtImageReader",
       "vcodec": "",
       "video_bit_rate": 0,
       "video_length": "108000",
       "video_stream_index": -1,
       "video_timebase": {
        "den": 30,
        "num": 1
       },
       "width": 720
      },
      "replace_image": false,
      "id": "48F1O1SI32"
     },
     {
      "layer": 3000000,
      "title": "Transition",
      "type": "Mask",
      "position": 152.96666666666667,
      "start": 0,
      "end": 0.9583333333333212,
      "brightness": {
       "Points": [
        {
         "co": {
          "X": 1.0,
          "Y": 1.0
         },
         "handle_left": {
          "X": 0.5,
          "Y": 1.0
         },
         "handle_right": {
          "X": 0.5,
          "Y": 0.0
         },
         "handle_type": 0,
         "interpolation": 0
        },
        {
         "co": {
          "X": 29.0,
          "Y": -1.0
         },
         "handle_left": {
          "X": 0.5,
          "Y": 1.0
         },
         "handle_right": {
          "X": 0.5,
          "Y": 0.0
         },
         "handle_type": 0,
         "interpolation": 0
        }
       ]
      },
      "contrast": {
       "Points": [
        {
         "co": {
          "X": 1.0,
          "Y": 3.0
         },
         "handle_left": {
          "X": 0.5,
          "Y": 1.0
         },
         "handle_right": {
          "X": 0.5,
          "Y": 0.0
         },
         "handle_type": 0,
         "interpolation": 0
        },
        {
         "co": {
          "X": 29.0,
          "Y": 3.0
         },
         "handle_left": {
          "X": 0.5,
          "Y": 1.0
         },
         "handle_right": {
          "X": 0.5,
          "Y": 0.0
         },
         "handle_type": 0,
         "interpolation": 0
        }
       ]
      },
      "reader": {
       "acodec": "",
       "audio_bit_rate": 0,
       "audio_stream_index": -1,
       "audio_timebase": {
        "den": 1,
        "num": 1
       },
       "channel_layout": 4,
       "channels": 0,
       "display_ratio": {
        "den": 4,
        "num": 5
       },
       "duration": 3600.0,
       "file_size": "5832000",
       "fps": {
        "den": 1,
        "num": 30
       },
       "has_audio": false,
       "has_single_image": true,
       "has_video": true,
       "height": 576,
       "interlaced_frame": false,
       "metadata": {},
       "path": "@transitions/common/fade.svg",
       "pixel_format": -1,
       "pixel_ratio": {
        "den": 1,
        "num": 1
       },
       "sample_rate": 0,
       "top_field_first": true,
       "type": "QtImageReader",
       "vcodec": "",
       "video_bit_rate": 0,
       "video_length": "108000",
       "video_stream_index": -1,
       "video_timebase": {
        "den": 30,
        "num": 1
       },
       "width": 720
      },
      "replace_image": false,
      "id": "T6EIC6ZKKI"
     },
     {
      "layer": 3000000,
      "title": "Transition",
      "type": "Mask",
      "position": 156.76666666666668,
      "start": 0,
      "end": 0.9583333333333212,
      "brightness": {
       "Points": [
        {
         "co": {
          "X": 1.0,
          "Y": -1.0
         },
         "handle_left": {
          "X": 0.5,
          "Y": 1.0
         },
         "handle_right": {
          "X": 0.5,
          "Y": 0.0
         },
         "handle_type": 0,
         "interpolation": 0
        },
        {
         "co": {
          "X": 29.0,
          "Y": 1.0
         },
         "handle_left": {
          "X": 0.5,
          "Y": 1.0
         },
         "handle_right": {
          "X": 0.5,
          "Y": 0.0
         },
         "handle_type": 0,
         "interpolation": 0
        }
       ]
      },
      "contrast": {
       "Points": [
        {
         "co": {
          "X": 1.0,
          "Y": 3.0
         },
         "handle_left": {
          "X": 0.5,
          "Y": 1.0
         },
         "handle_right": {
          "X": 0.5,
          "Y": 0.0
         },
         "handle_type": 0,
         "interpolation": 0
        },
        {
         "co": {
          "X": 29.0,
          "Y": 3.0
         },
         "handle_left": {
          "X": 0.5,
          "Y": 1.0
         },
         "handle_right": {
          "X": 0.5,
          "Y": 0.0
         },
         "handle_type": 0,
         "interpolation": 0
        }
       ]
      },
      "reader": {
       "acodec": "",
       "audio_bit_rate": 0,
       "audio_stream_index": -1,
       "audio_timebase": {
        "den": 1,
        "num": 1
       },
       "channel_layout": 4,
       "channels": 0,
       "display_ratio": {
        "den": 4,
        "num": 5
       },
       "duration": 3600.0,
       "file_size": "5832000",
       "fps": {
        "den": 1,
        "num": 30
       },
       "has_audio": false,
       "has_single_image": true,
       "has_video": true,
       "height": 576,
       "interlaced_frame": false,
       "metadata": {},
       "path": "@transitions/common/fade.svg",
       "pixel_format": -1,
       "pixel_ratio": {
        "den": 1,
        "num": 1
       },
       "sample_rate": 0,
       "top_field_first": true,
       "type": "QtImageReader",
       "vcodec": "",
       "video_bit_rate": 0,
       "video_length": "108000",
       "video_stream_index": -1,
       "video_timebase": {
        "den": 30,
        "num": 1
       },
       "width": 720
      },
      "replace_image": false,
      "id": "JB87W5WBEW"
     },
     {
      "layer": 3000000,
      "title": "Transition",
      "type": "Mask",
      "position": 159.4,
      "start": 0,
      "end": 0.9583333333333212,
      "brightness": {
       "Points": [
        {
         "co": {
          "X": 1.0,
          "Y": 1.0
         },
         "handle_left": {
          "X": 0.5,
          "Y": 1.0
         },
         "handle_right": {
          "X": 0.5,
          "Y": 0.0
         },
         "handle_type": 0,
         "interpolation": 0
        },
        {
         "co": {
          "X": 29.0,
          "Y": -1.0
         },
         "handle_left": {
          "X": 0.5,
          "Y": 1.0
         },
         "handle_right": {
          "X": 0.5,
          "Y": 0.0
         },
         "handle_type": 0,
         "interpolation": 0
        }
       ]
      },
      "contrast": {
       "Points": [
        {
         "co": {
          "X": 1.0,
          "Y": 3.0
         },
         "handle_left": {
          "X": 0.5,
          "Y": 1.0
         },
         "handle_right": {
          "X": 0.5,
          "Y": 0.0
         },
         "handle_type": 0,
         "interpolation": 0
        },
        {
         "co": {
          "X": 29.0,
          "Y": 3.0
         },
         "handle_left": {
          "X": 0.5,
          "Y": 1.0
         },
         "handle_right": {
          "X": 0.5,
          "Y": 0.0
         },
         "handle_type": 0,
         "interpolation": 0
        }
       ]
      },
      "reader": {
       "acodec": "",
       "audio_bit_rate": 0,
       "audio_stream_index": -1,
       "audio_timebase": {
        "den": 1,
        "num": 1
       },
       "channel_layout": 4,
       "channels": 0,
       "display_ratio": {
        "den": 4,
        "num": 5
       },
       "duration": 3600.0,
       "file_size": "5832000",
       "fps": {
        "den": 1,
        "num": 30
       },
       "has_audio": false,
       "has_single_image": true,
       "has_video": true,
       "height": 576,
       "interlaced_frame": false,
       "metadata": {},
       "path": "@transitions/common/fade.svg",
       "pixel_format": -1,
       "pixel_ratio": {
        "den": 1,
        "num": 1
       },
       "sample_rate": 0,
       "top_field_first": true,
       "type": "QtImageReader",
       "vcodec": "",
       "video_bit_rate": 0,
       "video_length": "108000",
       "video_stream_index": -1,
       "video_timebase": {
        "den": 30,
        "num": 1
       },
       "width": 720
      },
      "replace_image": false,
      "id": "CEA8AKF4RE"
     },
     {
      "layer": 3000000,
      "title": "Transition",
      "type": "Mask",
      "position": 163.2,
      "start": 0,
      "end": 0.9583333333333212,
      "brightness": {
       "Points": [
        {
         "co": {
          "X": 1.0,
          "Y": -1.0
         },
         "handle_left": {
          "X": 0.5,
          "Y": 1.0
         },
         "handle_right": {
          "X": 0.5,
          "Y": 0.0
         },
         "handle_type": 0,
         "interpolation": 0
        },
        {
         "co": {
          "X": 29.0,
          "Y": 1.0
         },
         "handle_left": {
          "X": 0.5,
          "Y": 1.0
         },
         "handle_right": {
          "X": 0.5,
          "Y": 0.0
         },
         "handle_type": 0,
         "interpolation": 0
        }
       ]
      },
      "contrast": {
       "Points": [
        {
         "co": {
          "X": 1.0,
          "Y": 3.0
         },
         "handle_left": {
          "X": 0.5,
          "Y": 1.0
         },
         "handle_right": {
          "X": 0.5,
          "Y": 0.0
         },
         "handle_type": 0,
         "interpolation": 0
        },
        {
         "co": {
          "X": 29.0,
          "Y": 3.0
         },
         "handle_left": {
          "X": 0.5,
          "Y": 1.0
         },
         "handle_right": {
          "X": 0.5,
          "Y": 0.0
         },
         "handle_type": 0,
         "interpolation": 0
        }
       ]
      },
      "reader": {
       "acodec": "",
       "audio_bit_rate": 0,
       "audio_stream_index": -1,
       "audio_timebase": {
        "den": 1,
        "num": 1
       },
       "channel_layout": 4,
       "channels": 0,
       "display_ratio": {
        "den": 4,
        "num": 5
       },
       "duration": 3600.0,
       "file_size": "5832000",
       "fps": {
        "den": 1,
        "num": 30
       },
       "has_audio": false,
       "has_single_image": true,
       "has_video": true,
       "height": 576,
       "interlaced_frame": false,
       "metadata": {},
       "path": "@transitions/common/fade.svg",
       "pixel_format": -1,
       "pixel_ratio": {
        "den": 1,
        "num": 1
       },
       "sample_rate": 0,
       "top_field_first": true,
       "type": "QtImageReader",
       "vcodec": "",
       "video_bit_rate": 0,
       "video_length": "108000",
       "video_stream_index": -1,
       "video_timebase": {
        "den": 30,
        "num": 1
       },
       "width": 720
      },
      "replace_image": false,
      "id": "6X5CANRLU0"
     },
     {
      "layer": 3000000,
      "title": "Transition",
      "type": "Mask",
      "position": 164.3,
      "start": 0,
      "end": 0.9583333333333212,
      "brightness": {
       "Points": [
        {
         "co": {
          "X": 1.0,
          "Y": 1.0
         },
         "handle_left": {
          "X": 0.5,
          "Y": 1.0
         },
         "handle_right": {
          "X": 0.5,
          "Y": 0.0
         },
         "handle_type": 0,
         "interpolation": 0
        },
        {
         "co": {
          "X": 29.0,
          "Y": -1.0
         },
         "handle_left": {
          "X": 0.5,
          "Y": 1.0
         },
         "handle_right": {
          "X": 0.5,
          "Y": 0.0
         },
         "handle_type": 0,
         "interpolation": 0
        }
       ]
      },
      "contrast": {
       "Points": [
        {
         "co": {
          "X": 1.0,
          "Y": 3.0
         },
         "handle_left": {
          "X": 0.5,
          "Y": 1.0
         },
         "handle_right": {
          "X": 0.5,
          "Y": 0.0
         },
         "handle_type": 0,
         "interpolation": 0
        },
        {
         "co": {
          "X": 29.0,
          "Y": 3.0
         },
         "handle_left": {
          "X": 0.5,
          "Y": 1.0
         },
         "handle_right": {
          "X": 0.5,
          "Y": 0.0
         },
         "handle_type": 0,
         "interpolation": 0
        }
       ]
      },
      "reader": {
       "acodec": "",
       "audio_bit_rate": 0,
       "audio_stream_index": -1,
       "audio_timebase": {
        "den": 1,
        "num": 1
       },
       "channel_layout": 4,
       "channels": 0,
       "display_ratio": {
        "den": 4,
        "num": 5
       },
       "duration": 3600.0,
       "file_size": "5832000",
       "fps": {
        "den": 1,
        "num": 30
       },
       "has_audio": false,
       "has_single_image": true,
       "has_video": true,
       "height": 576,
       "interlaced_frame": false,
       "metadata": {},
       "path": "@transitions/common/fade.svg",
       "pixel_format": -1,
       "pixel_ratio": {
        "den": 1,
        "num": 1
       },
       "sample_rate": 0,
       "top_field_first": true,
       "type": "QtImageReader",
       "vcodec": "",
       "video_bit_rate": 0,
       "video_length": "108000",
       "video_stream_index": -1,
       "video_timebase": {
        "den": 30,
        "num": 1
       },
       "width": 720
      },
      "replace_image": false,
      "id": "RQ98DT2VUD"
     },
     {
      "layer": 3000000,
      "title": "Transition",
      "type": "Mask",
      "position": 169.9,
      "start": 0,
      "end": 0.9583333333333212,
      "brightness": {
       "Points": [
        {
         "co": {
          "X": 1.0,
          "Y": -1.0
         },
         "handle_left": {
          "X": 0.5,
          "Y": 1.0
         },
         "handle_right": {
          "X": 0.5,
          "Y": 0.0
         },
         "handle_type": 0,
         "interpolation": 0
        },
        {
         "co": {
          "X": 29.0,
          "Y": 1.0
         },
         "handle_left": {
          "X": 0.5,
          "Y": 1.0
         },
         "handle_right": {
          "X": 0.5,
          "Y": 0.0
         },
         "handle_type": 0,
         "interpolation": 0
        }
       ]
      },
      "contrast": {
       "Points": [
        {
         "co": {
          "X": 1.0,
          "Y": 3.0
         },
         "handle_left": {
          "X": 0.5,
          "Y": 1.0
         },
         "handle_right": {
          "X": 0.5,
          "Y": 0.0
         },
         "handle_type": 0,
         "interpolation": 0
        },
        {
         "co": {
          "X": 29.0,
          "Y": 3.0
         },
         "handle_left": {
          "X": 0.5,
          "Y": 1.0
         },
         "handle_right": {
          "X": 0.5,
          "Y": 0.0
         },
         "handle_type": 0,
         "interpolation": 0
        }
       ]
      },
      "reader": {
       "acodec": "",
       "audio_bit_rate": 0,
       "audio_stream_index": -1,
       "audio_timebase": {
        "den": 1,
        "num": 1
       },
       "channel_layout": 4,
       "channels": 0,
       "display_ratio": {
        "den": 4,
        "num": 5
       },
       "duration": 3600.0,
       "file_size": "5832000",
       "fps": {
        "den": 1,
        "num": 30
       },
       "has_audio": false,
       "has_single_image": true,
       "has_video": true,
       "height": 576,
       "interlaced_frame": false,
       "metadata": {},
       "path": "@transitions/common/fade.svg",
       "pixel_format": -1,
       "pixel_ratio": {
        "den": 1,
        "num": 1
       },
       "sample_rate": 0,
       "top_field_first": true,
       "type": "QtImageReader",
       "vcodec": "",
       "video_bit_rate": 0,
       "video_length": "108000",
       "video_stream_index": -1,
       "video_timebase": {
        "den": 30,
        "num": 1
       },
       "width": 720
      },
      "replace_image": false,
      "id": "ED9VUNOGIJ"
     },
     {
      "layer": 3000000,
      "title": "Transition",
      "type": "Mask",
      "position": 171.36666666666667,
      "start": 0,
      "end": 0.9583333333333212,
      "brightness": {
       "Points": [
        {
         "co": {
          "X": 1.0,
          "Y": 1.0
         },
         "handle_left": {
          "X": 0.5,
          "Y": 1.0
         },
         "handle_right": {
          "X": 0.5,
          "Y": 0.0
         },
         "handle_type": 0,
         "interpolation": 0
        },
        {
         "co": {
          "X": 29.0,
          "Y": -1.0
         },
         "handle_left": {
          "X": 0.5,
          "Y": 1.0
         },
         "handle_right": {
          "X": 0.5,
          "Y": 0.0
         },
         "handle_type": 0,
         "interpolation": 0
        }
       ]
      },
      "contrast": {
       "Points": [
        {
         "co": {
          "X": 1.0,
          "Y": 3.0
         },
         "handle_left": {
          "X": 0.5,
          "Y": 1.0
         },
         "handle_right": {
          "X": 0.5,
          "Y": 0.0
         },
         "handle_type": 0,
         "interpolation": 0
        },
        {
         "co": {
          "X": 29.0,
          "Y": 3.0
         },
         "handle_left": {
          "X": 0.5,
          "Y": 1.0
         },
         "handle_right": {
          "X": 0.5,
          "Y": 0.0
         },
         "handle_type": 0,
         "interpolation": 0
        }
       ]
      },
      "reader": {
       "acodec": "",
       "audio_bit_rate": 0,
       "audio_stream_index": -1,
       "audio_timebase": {
        "den": 1,
        "num": 1
       },
       "channel_layout": 4,
       "channels": 0,
       "display_ratio": {
        "den": 4,
        "num": 5
       },
       "duration": 3600.0,
       "file_size": "5832000",
       "fps": {
        "den": 1,
        "num": 30
       },
       "has_audio": false,
       "has_single_image": true,
       "has_video": true,
       "height": 576,
       "interlaced_frame": false,
       "metadata": {},
       "path": "@transitions/common/fade.svg",
       "pixel_format": -1,
       "pixel_ratio": {
        "den": 1,
        "num": 1
       },
       "sample_rate": 0,
       "top_field_first": true,
       "type": "QtImageReader",
       "vcodec": "",
       "video_bit_rate": 0,
       "video_length": "108000",
       "video_stream_index": -1,
       "video_timebase": {
        "den": 30,
        "num": 1
       },
       "width": 720
      },
      "replace_image": false,
      "id": "5VBZGSOJG5"
     },
     {
      "layer": 3000000,
      "title": "Transition",
      "type": "Mask",
      "position": 176.86666666666667,
      "start": 0,
      "end": 0.9583333333333212,
      "brightness": {
       "Points": [
        {
         "co": {
          "X": 1.0,
          "Y": -1.0
         },
         "handle_left": {
          "X": 0.5,
          "Y": 1.0
         },
         "handle_right": {
          "X": 0.5,
          "Y": 0.0
         },
         "handle_type": 0,
         "interpolation": 0
        },
        {
         "co": {
          "X": 29.0,
          "Y": 1.0
         },
         "handle_left": {
          "X": 0.5,
          "Y": 1.0
         },
         "handle_right": {
          "X": 0.5,
          "Y": 0.0
         },
         "handle_type": 0,
         "interpolation": 0
        }
       ]
      },
      "contrast": {
       "Points": [
        {
         "co": {
          "X": 1.0,
          "Y": 3.0
         },
         "handle_left": {
          "X": 0.5,
          "Y": 1.0
         },
         "handle_right": {
          "X": 0.5,
          "Y": 0.0
         },
         "handle_type": 0,
         "interpolation": 0
        },
        {
         "co": {
          "X": 29.0,
          "Y": 3.0
         },
         "handle_left": {
          "X": 0.5,
          "Y": 1.0
         },
         "handle_right": {
          "X": 0.5,
          "Y": 0.0
         },
         "handle_type": 0,
         "interpolation": 0
        }
       ]
      },
      "reader": {
       "acodec": "",
       "audio_bit_rate": 0,
       "audio_stream_index": -1,
       "audio_timebase": {
        "den": 1,
        "num": 1
       },
       "channel_layout": 4,
       "channels": 0,
       "display_ratio": {
        "den": 4,
        "num": 5
       },
       "duration": 3600.0,
       "file_size": "5832000",
       "fps": {
        "den": 1,
        "num": 30
       },
       "has_audio": false,
       "has_single_image": true,
       "has_video": true,
       "height": 576,
       "interlaced_frame": false,
       "metadata": {},
       "path": "@transitions/common/fade.svg",
       "pixel_format": -1,
       "pixel_ratio": {
        "den": 1,
        "num": 1
       },
       "sample_rate": 0,
       "top_field_first": true,
       "type": "QtImageReader",
       "vcodec": "",
       "video_bit_rate": 0,
       "video_length": "108000",
       "video_stream_index": -1,
       "video_timebase": {
        "den": 30,
        "num": 1
       },
       "width": 720
      },
      "replace_image": false,
      "id": "8IG7CIW33F"
     },
     {
      "layer": 3000000,
      "title": "Transition",
      "type": "Mask",
      "position": 178.76666666666668,
      "start": 0,
      "end": 0.9583333333333212,
      "brightness": {
       "Points": [
        {
         "co": {
          "X": 1.0,
          "Y": 1.0
         },
         "handle_left": {
          "X": 0.5,
          "Y": 1.0
         },
         "handle_right": {
          "X": 0.5,
          "Y": 0.0
         },
         "handle_type": 0,
         "interpolation": 0
        },
        {
         "co": {
          "X": 29.0,
          "Y": -1.0
         },
         "handle_left": {
          "X": 0.5,
          "Y": 1.0
         },
         "handle_right": {
          "X": 0.5,
          "Y": 0.0
         },
         "handle_type": 0,
         "interpolation": 0
        }
       ]
      },
      "contrast": {
       "Points": [
        {
         "co": {
          "X": 1.0,
          "Y": 3.0
         },
         "handle_left": {
          "X": 0.5,
          "Y": 1.0
         },
         "handle_right": {
          "X": 0.5,
          "Y": 0.0
         },
         "handle_type": 0,
         "interpolation": 0
        },
        {
         "co": {
          "X": 29.0,
          "Y": 3.0
         },
         "handle_left": {
          "X": 0.5,
          "Y": 1.0
         },
         "handle_right": {
          "X": 0.5,
          "Y": 0.0
         },
         "handle_type": 0,
         "interpolation": 0
        }
       ]
      },
      "reader": {
       "acodec": "",
       "audio_bit_rate": 0,
       "audio_stream_index": -1,
       "audio_timebase": {
        "den": 1,
        "num": 1
       },
       "channel_layout": 4,
       "channels": 0,
       "display_ratio": {
        "den": 4,
        "num": 5
       },
       "duration": 3600.0,
       "file_size": "5832000",
       "fps": {
        "den": 1,
        "num": 30
       },
       "has_audio": false,
       "has_single_image": true,
       "has_video": true,
       "height": 576,
       "interlaced_frame": false,
       "metadata": {},
       "path": "@transitions/common/fade.svg",
       "pixel_format": -1,
       "pixel_ratio": {
        "den": 1,
        "num": 1
       },
       "sample_rate": 0,
       "top_field_first": true,
       "type": "QtImageReader",
       "vcodec": "",
       "video_bit_rate": 0,
       "video_length": "108000",
       "video_stream_index": -1,
       "video_timebase": {
        "den": 30,
        "num": 1
       },
       "width": 720
      },
      "replace_image": false,
      "id": "0ROA4SH20T"
     },
     {
      "layer": 3000000,
      "title": "Transition",
      "type": "Mask",
      "position": 184.9,
      "start": 0,
      "end": 0.9583333333333212,
      "brightness": {
       "Points": [
        {
         "co": {
          "X": 1.0,
          "Y": -1.0
         },
         "handle_left": {
          "X": 0.5,
          "Y": 1.0
         },
         "handle_right": {
          "X": 0.5,
          "Y": 0.0
         },
         "handle_type": 0,
         "interpolation": 0
        },
        {
         "co": {
          "X": 29.0,
          "Y": 1.0
         },
         "handle_left": {
          "X": 0.5,
          "Y": 1.0
         },
         "handle_right": {
          "X": 0.5,
          "Y": 0.0
         },
         "handle_type": 0,
         "interpolation": 0
        }
       ]
      },
      "contrast": {
       "Points": [
        {
         "co": {
          "X": 1.0,
          "Y": 3.0
         },
         "handle_left": {
          "X": 0.5,
          "Y": 1.0
         },
         "handle_right": {
          "X": 0.5,
          "Y": 0.0
         },
         "handle_type": 0,
         "interpolation": 0
        },
        {
         "co": {
          "X": 29.0,
          "Y": 3.0
         },
         "handle_left": {
          "X": 0.5,
          "Y": 1.0
         },
         "handle_right": {
          "X": 0.5,
          "Y": 0.0
         },
         "handle_type": 0,
         "interpolation": 0
        }
       ]
      },
      "reader": {
       "acodec": "",
       "audio_bit_rate": 0,
       "audio_stream_index": -1,
       "audio_timebase": {
        "den": 1,
        "num": 1
       },
       "channel_layout": 4,
       "channels": 0,
       "display_ratio": {
        "den": 4,
        "num": 5
       },
       "duration": 3600.0,
       "file_size": "5832000",
       "fps": {
        "den": 1,
        "num": 30
       },
       "has_audio": false,
       "has_single_image": true,
       "has_video": true,
       "height": 576,
       "interlaced_frame": false,
       "metadata": {},
       "path": "@transitions/common/fade.svg",
       "pixel_format": -1,
       "pixel_ratio": {
        "den": 1,
        "num": 1
       },
       "sample_rate": 0,
       "top_field_first": true,
       "type": "QtImageReader",
       "vcodec": "",
       "video_bit_rate": 0,
       "video_length": "108000",
       "video_stream_index": -1,
       "video_timebase": {
        "den": 30,
        "num": 1
       },
       "width": 720
      },
      "replace_image": false,
      "id": "EZA86GZMTM"
     },
     {
      "id": "F4A4DQ7U5X",
      "layer": 1000000,
      "title": "Transition",
      "type": "Mask",
      "position": 185.86666666666667,
      "start": 0,
      "end": 0.9000000000000057,
      "brightness": {
       "Points": [
        {
         "co": {
          "X": 1.0,
          "Y": 1.0
         },
         "handle_left": {
          "X": 0.5,
          "Y": 1.0
         },
         "handle_right": {
          "X": 0.5,
          "Y": 0.0
         },
         "handle_type": 0,
         "interpolation": 0
        },
        {
         "co": {
          "X": 28.0,
          "Y": -1.0
         },
         "handle_left": {
          "X": 0.5,
          "Y": 1.0
         },
         "handle_right": {
          "X": 0.5,
          "Y": 0.0
         },
         "handle_type": 0,
         "interpolation": 0
        }
       ]
      },
      "contrast": {
       "Points": [
        {
         "co": {
          "X": 1.0,
          "Y": 3.0
         },
         "handle_left": {
          "X": 0.5,
          "Y": 1.0
         },
         "handle_right": {
          "X": 0.5,
          "Y": 0.0
         },
         "handle_type": 0,
         "interpolation": 0
        }
       ]
      },
      "reader": {
       "acodec": "",
       "audio_bit_rate": 0,
       "audio_stream_index": -1,
       "audio_timebase": {
        "den": 1,
        "num": 1
       },
       "channel_layout": 4,
       "channels": 0,
       "display_ratio": {
        "den": 4,
        "num": 5
       },
       "duration": 3600.0,
       "file_size": "5832000",
       "fps": {
        "den": 1,
        "num": 30
       },
       "has_audio": false,
       "has_single_image": true,
       "has_video": true,
       "height": 576,
       "interlaced_frame": false,
       "metadata": {},
       "path": "@transitions/common/fade.svg",
       "pixel_format": -1,
       "pixel_ratio": {
        "den": 1,
        "num": 1
       },
       "sample_rate": 0,
       "top_field_first": true,
       "type": "QtImageReader",
       "vcodec": "",
       "video_bit_rate": 0,
       "video_length": "108000",
       "video_stream_index": -1,
       "video_timebase": {
        "den": 30,
        "num": 1
       },
       "width": 720
      },
      "replace_image": false
     },
     {
      "layer": 4000000,
      "title": "Transition",
      "type": "Mask",
      "position": 184.9,
      "start": 0,
      "end": 0.9583333333333212,
      "brightness": {
       "Points": [
        {
         "co": {
          "X": 1.0,
          "Y": -1.0
         },
         "handle_left": {
          "X": 0.5,
          "Y": 1.0
         },
         "handle_right": {
          "X": 0.5,
          "Y": 0.0
         },
         "handle_type": 0,
         "interpolation": 0
        },
        {
         "co": {
          "X": 29.0,
          "Y": 1.0
         },
         "handle_left": {
          "X": 0.5,
          "Y": 1.0
         },
         "handle_right": {
          "X": 0.5,
          "Y": 0.0
         },
         "handle_type": 0,
         "interpolation": 0
        }
       ]
      },
      "contrast": {
       "Points": [
        {
         "co": {
          "X": 1.0,
          "Y": 3.0
         },
         "handle_left": {
          "X": 0.5,
          "Y": 1.0
         },
         "handle_right": {
          "X": 0.5,
          "Y": 0.0
         },
         "handle_type": 0,
         "interpolation": 0
        },
        {
         "co": {
          "X": 29.0,
          "Y": 3.0
         },
         "handle_left": {
          "X": 0.5,
          "Y": 1.0
         },
         "handle_right": {
          "X": 0.5,
          "Y": 0.0
         },
         "handle_type": 0,
         "interpolation": 0
        }
       ]
      },
      "reader": {
       "acodec": "",
       "audio_bit_rate": 0,
       "audio_stream_index": -1,
       "audio_timebase": {
        "den": 1,
        "num": 1
       },
       "channel_layout": 4,
       "channels": 0,
       "display_ratio": {
        "den": 4,
        "num": 5
       },
       "duration": 3600.0,
       "file_size": "5832000",
       "fps": {
        "den": 1,
        "num": 30
       },
       "has_audio": false,
       "has_single_image": true,
       "has_video": true,
       "height": 576,
       "interlaced_frame": false,
       "metadata": {},
       "path": "@transitions/common/fade.svg",
       "pixel_format": -1,
       "pixel_ratio": {
        "den": 1,
        "num": 1
       },
       "sample_rate": 0,
       "top_field_first": true,
       "type": "QtImageReader",
       "vcodec": "",
       "video_bit_rate": 0,
       "video_length": "108000",
       "video_stream_index": -1,
       "video_timebase": {
        "den": 30,
        "num": 1
       },
       "width": 720
      },
      "replace_image": false,
      "id": "2ZYRXRS5AW"
     },
     {
      "layer": 4000000,
      "title": "Transition",
      "type": "Mask",
      "position": 186.63333333333333,
      "start": 0,
      "end": 0.9583333333333212,
      "brightness": {
       "Points": [
        {
         "co": {
          "X": 1.0,
          "Y": 1.0
         },
         "handle_left": {
          "X": 0.5,
          "Y": 1.0
         },
         "handle_right": {
          "X": 0.5,
          "Y": 0.0
         },
         "handle_type": 0,
         "interpolation": 0
        },
        {
         "co": {
          "X": 29.0,
          "Y": -1.0
         },
         "handle_left": {
          "X": 0.5,
          "Y": 1.0
         },
         "handle_right": {
          "X": 0.5,
          "Y": 0.0
         },
         "handle_type": 0,
         "interpolation": 0
        }
       ]
      },
      "contrast": {
       "Points": [
        {
         "co": {
          "X": 1.0,
          "Y": 3.0
         },
         "handle_left": {
          "X": 0.5,
          "Y": 1.0
         },
         "handle_right": {
          "X": 0.5,
          "Y": 0.0
         },
         "handle_type": 0,
         "interpolation": 0
        },
        {
         "co": {
          "X": 29.0,
          "Y": 3.0
         },
         "handle_left": {
          "X": 0.5,
          "Y": 1.0
         },
         "handle_right": {
          "X": 0.5,
          "Y": 0.0
         },
         "handle_type": 0,
         "interpolation": 0
        }
       ]
      },
      "reader": {
       "acodec": "",
       "audio_bit_rate": 0,
       "audio_stream_index": -1,
       "audio_timebase": {
        "den": 1,
        "num": 1
       },
       "channel_layout": 4,
       "channels": 0,
       "display_ratio": {
        "den": 4,
        "num": 5
       },
       "duration": 3600.0,
       "file_size": "5832000",
       "fps": {
        "den": 1,
        "num": 30
       },
       "has_audio": false,
       "has_single_image": true,
       "has_video": true,
       "height": 576,
       "interlaced_frame": false,
       "metadata": {},
       "path": "@transitions/common/fade.svg",
       "pixel_format": -1,
       "pixel_ratio": {
        "den": 1,
        "num": 1
       },
       "sample_rate": 0,
       "top_field_first": true,
       "type": "QtImageReader",
       "vcodec": "",
       "video_bit_rate": 0,
       "video_length": "108000",
       "video_stream_index": -1,
       "video_timebase": {
        "den": 30,
        "num": 1
       },
       "width": 720
      },
      "replace_image": false,
      "id": "Q9UGMHENC6"
     },
     {
      "layer": 3000000,
      "title": "Transition",
      "type": "Mask",
      "position": 191.86666666666667,
      "start": 0,
      "end": 0.9583333333333212,
      "brightness": {
       "Points": [
        {
         "co": {
          "X": 1.0,
          "Y": 1.0
         },
         "handle_left": {
          "X": 0.5,
          "Y": 1.0
         },
         "handle_right": {
          "X": 0.5,
          "Y": 0.0
         },
         "handle_type": 0,
         "interpolation": 0
        },
        {
         "co": {
          "X": 29.0,
          "Y": -1.0
         },
         "handle_left": {
          "X": 0.5,
          "Y": 1.0
         },
         "handle_right": {
          "X": 0.5,
          "Y": 0.0
         },
         "handle_type": 0,
         "interpolation": 0
        }
       ]
      },
      "contrast": {
       "Points": [
        {
         "co": {
          "X": 1.0,
          "Y": 3.0
         },
         "handle_left": {
          "X": 0.5,
          "Y": 1.0
         },
         "handle_right": {
          "X": 0.5,
          "Y": 0.0
         },
         "handle_type": 0,
         "interpolation": 0
        },
        {
         "co": {
          "X": 29.0,
          "Y": 3.0
         },
         "handle_left": {
          "X": 0.5,
          "Y": 1.0
         },
         "handle_right": {
          "X": 0.5,
          "Y": 0.0
         },
         "handle_type": 0,
         "interpolation": 0
        }
       ]
      },
      "reader": {
       "acodec": "",
       "audio_bit_rate": 0,
       "audio_stream_index": -1,
       "audio_timebase": {
        "den": 1,
        "num": 1
       },
       "channel_layout": 4,
       "channels": 0,
       "display_ratio": {
        "den": 4,
        "num": 5
       },
       "duration": 3600.0,
       "file_size": "5832000",
       "fps": {
        "den": 1,
        "num": 30
       },
       "has_audio": false,
       "has_single_image": true,
       "has_video": true,
       "height": 576,
       "interlaced_frame": false,
       "metadata": {},
       "path": "@transitions/common/fade.svg",
       "pixel_format": -1,
       "pixel_ratio": {
        "den": 1,
        "num": 1
       },
       "sample_rate": 0,
       "top_field_first": true,
       "type": "QtImageReader",
       "vcodec": "",
       "video_bit_rate": 0,
       "video_length": "108000",
       "video_stream_index": -1,
       "video_timebase": {
        "den": 30,
        "num": 1
       },
       "width": 720
      },
      "replace_image": false,
      "id": "G9LEMCYT5Q"
     },
     {
      "layer": 3000000,
      "title": "Transition",
      "type": "Mask",
      "position": 206.76666666666668,
      "start": 0,
      "end": 0.9583333333333212,
      "brightness": {
       "Points": [
        {
         "co": {
          "X": 1.0,
          "Y": -1.0
         },
         "handle_left": {
          "X": 0.5,
          "Y": 1.0
         },
         "handle_right": {
          "X": 0.5,
          "Y": 0.0
         },
         "handle_type": 0,
         "interpolation": 0
        },
        {
         "co": {
          "X": 29.0,
          "Y": 1.0
         },
         "handle_left": {
          "X": 0.5,
          "Y": 1.0
         },
         "handle_right": {
          "X": 0.5,
          "Y": 0.0
         },
         "handle_type": 0,
         "interpolation": 0
        }
       ]
      },
      "contrast": {
       "Points": [
        {
         "co": {
          "X": 1.0,
          "Y": 3.0
         },
         "handle_left": {
          "X": 0.5,
          "Y": 1.0
         },
         "handle_right": {
          "X": 0.5,
          "Y": 0.0
         },
         "handle_type": 0,
         "interpolation": 0
        },
        {
         "co": {
          "X": 29.0,
          "Y": 3.0
         },
         "handle_left": {
          "X": 0.5,
          "Y": 1.0
         },
         "handle_right": {
          "X": 0.5,
          "Y": 0.0
         },
         "handle_type": 0,
         "interpolation": 0
        }
       ]
      },
      "reader": {
       "acodec": "",
       "audio_bit_rate": 0,
       "audio_stream_index": -1,
       "audio_timebase": {
        "den": 1,
        "num": 1
       },
       "channel_layout": 4,
       "channels": 0,
       "display_ratio": {
        "den": 4,
        "num": 5
       },
       "duration": 3600.0,
       "file_size": "5832000",
       "fps": {
        "den": 1,
        "num": 30
       },
       "has_audio": false,
       "has_single_image": true,
       "has_video": true,
       "height": 576,
       "interlaced_frame": false,
       "metadata": {},
       "path": "@transitions/common/fade.svg",
       "pixel_format": -1,
       "pixel_ratio": {
        "den": 1,
        "num": 1
       },
       "sample_rate": 0,
       "top_field_first": true,
       "type": "QtImageReader",
       "vcodec": "",
       "video_bit_rate": 0,
       "video_length": "108000",
       "video_stream_index": -1,
       "video_timebase": {
        "den": 30,
        "num": 1
       },
       "width": 720
      },
      "replace_image": false,
      "id": "69Y42ETE8B"
     },
     {
      "layer": 3000000,
      "title": "Transition",
      "type": "Mask",
      "position": 199.83333333333334,
      "start": 0,
      "end": 0.9583333333333212,
      "brightness": {
       "Points": [
        {
         "co": {
          "X": 1.0,
          "Y": 1.0
         },
         "handle_left": {
          "X": 0.5,
          "Y": 1.0
         },
         "handle_right": {
          "X": 0.5,
          "Y": 0.0
         },
         "handle_type": 0,
         "interpolation": 0
        },
        {
         "co": {
          "X": 29.0,
          "Y": -1.0
         },
         "handle_left": {
          "X": 0.5,
          "Y": 1.0
         },
         "handle_right": {
          "X": 0.5,
          "Y": 0.0
         },
         "handle_type": 0,
         "interpolation": 0
        }
       ]
      },
      "contrast": {
       "Points": [
        {
         "co": {
          "X": 1.0,
          "Y": 3.0
         },
         "handle_left": {
          "X": 0.5,
          "Y": 1.0
         },
         "handle_right": {
          "X": 0.5,
          "Y": 0.0
         },
         "handle_type": 0,
         "interpolation": 0
        },
        {
         "co": {
          "X": 29.0,
          "Y": 3.0
         },
         "handle_left": {
          "X": 0.5,
          "Y": 1.0
         },
         "handle_right": {
          "X": 0.5,
          "Y": 0.0
         },
         "handle_type": 0,
         "interpolation": 0
        }
       ]
      },
      "reader": {
       "acodec": "",
       "audio_bit_rate": 0,
       "audio_stream_index": -1,
       "audio_timebase": {
        "den": 1,
        "num": 1
       },
       "channel_layout": 4,
       "channels": 0,
       "display_ratio": {
        "den": 4,
        "num": 5
       },
       "duration": 3600.0,
       "file_size": "5832000",
       "fps": {
        "den": 1,
        "num": 30
       },
       "has_audio": false,
       "has_single_image": true,
       "has_video": true,
       "height": 576,
       "interlaced_frame": false,
       "metadata": {},
       "path": "@transitions/common/fade.svg",
       "pixel_format": -1,
       "pixel_ratio": {
        "den": 1,
        "num": 1
       },
       "sample_rate": 0,
       "top_field_first": true,
       "type": "QtImageReader",
       "vcodec": "",
       "video_bit_rate": 0,
       "video_length": "108000",
       "video_stream_index": -1,
       "video_timebase": {
        "den": 30,
        "num": 1
       },
       "width": 720
      },
      "replace_image": false,
      "id": "LZDCN1H4RV"
     },
     {
      "layer": 3000000,
      "title": "Transition",
      "type": "Mask",
      "position": 209.83333333333334,
      "start": 0,
      "end": 0.9583333333333212,
      "brightness": {
       "Points": [
        {
         "co": {
          "X": 1.0,
          "Y": 1.0
         },
         "handle_left": {
          "X": 0.5,
          "Y": 1.0
         },
         "handle_right": {
          "X": 0.5,
          "Y": 0.0
         },
         "handle_type": 0,
         "interpolation": 0
        },
        {
         "co": {
          "X": 29.0,
          "Y": -1.0
         },
         "handle_left": {
          "X": 0.5,
          "Y": 1.0
         },
         "handle_right": {
          "X": 0.5,
          "Y": 0.0
         },
         "handle_type": 0,
         "interpolation": 0
        }
       ]
      },
      "contrast": {
       "Points": [
        {
         "co": {
          "X": 1.0,
          "Y": 3.0
         },
         "handle_left": {
          "X": 0.5,
          "Y": 1.0
         },
         "handle_right": {
          "X": 0.5,
          "Y": 0.0
         },
         "handle_type": 0,
         "interpolation": 0
        },
        {
         "co": {
          "X": 29.0,
          "Y": 3.0
         },
         "handle_left": {
          "X": 0.5,
          "Y": 1.0
         },
         "handle_right": {
          "X": 0.5,
          "Y": 0.0
         },
         "handle_type": 0,
         "interpolation": 0
        }
       ]
      },
      "reader": {
       "acodec": "",
       "audio_bit_rate": 0,
       "audio_stream_index": -1,
       "audio_timebase": {
        "den": 1,
        "num": 1
       },
       "channel_layout": 4,
       "channels": 0,
       "display_ratio": {
        "den": 4,
        "num": 5
       },
       "duration": 3600.0,
       "file_size": "5832000",
       "fps": {
        "den": 1,
        "num": 30
       },
       "has_audio": false,
       "has_single_image": true,
       "has_video": true,
       "height": 576,
       "interlaced_frame": false,
       "metadata": {},
       "path": "@transitions/common/fade.svg",
       "pixel_format": -1,
       "pixel_ratio": {
        "den": 1,
        "num": 1
       },
       "sample_rate": 0,
       "top_field_first": true,
       "type": "QtImageReader",
       "vcodec": "",
       "video_bit_rate": 0,
       "video_length": "108000",
       "video_stream_index": -1,
       "video_timebase": {
        "den": 30,
        "num": 1
       },
       "width": 720
      },
      "replace_image": false,
      "id": "58VK2RHQN2"
     },
     {
      "layer": 4000000,
      "title": "Transition",
      "type": "Mask",
      "position": 213.86666666666667,
      "start": 0,
      "end": 0.9583333333333212,
      "brightness": {
       "Points": [
        {
         "co": {
          "X": 1.0,
          "Y": -1.0
         },
         "handle_left": {
          "X": 0.5,
          "Y": 1.0
         },
         "handle_right": {
          "X": 0.5,
          "Y": 0.0
         },
         "handle_type": 0,
         "interpolation": 0
        },
        {
         "co": {
          "X": 29.0,
          "Y": 1.0
         },
         "handle_left": {
          "X": 0.5,
          "Y": 1.0
         },
         "handle_right": {
          "X": 0.5,
          "Y": 0.0
         },
         "handle_type": 0,
         "interpolation": 0
        }
       ]
      },
      "contrast": {
       "Points": [
        {
         "co": {
          "X": 1.0,
          "Y": 3.0
         },
         "handle_left": {
          "X": 0.5,
          "Y": 1.0
         },
         "handle_right": {
          "X": 0.5,
          "Y": 0.0
         },
         "handle_type": 0,
         "interpolation": 0
        },
        {
         "co": {
          "X": 29.0,
          "Y": 3.0
         },
         "handle_left": {
          "X": 0.5,
          "Y": 1.0
         },
         "handle_right": {
          "X": 0.5,
          "Y": 0.0
         },
         "handle_type": 0,
         "interpolation": 0
        }
       ]
      },
      "reader": {
       "acodec": "",
       "audio_bit_rate": 0,
       "audio_stream_index": -1,
       "audio_timebase": {
        "den": 1,
        "num": 1
       },
       "channel_layout": 4,
       "channels": 0,
       "display_ratio": {
        "den": 4,
        "num": 5
       },
       "duration": 3600.0,
       "file_size": "5832000",
       "fps": {
        "den": 1,
        "num": 30
       },
       "has_audio": false,
       "has_single_image": true,
       "has_video": true,
       "height": 576,
       "interlaced_frame": false,
       "metadata": {},
       "path": "@transitions/common/fade.svg",
       "pixel_format": -1,
       "pixel_ratio": {
        "den": 1,
        "num": 1
       },
       "sample_rate": 0,
       "top_field_first": true,
       "type": "QtImageReader",
       "vcodec": "",
       "video_bit_rate": 0,
       "video_length": "108000",
       "video_stream_index": -1,
       "video_timebase": {
        "den": 30,
        "num": 1
       },
       "width": 720
      },
      "replace_image": false,
      "id": "KWJRN4TR28"
     },
     {
      "layer": 3000000,
      "title": "Transition",
      "type": "Mask",
      "position": 213.86666666666667,
      "start": 0,
      "end": 0.9583333333333212,
      "brightness": {
       "Points": [
        {
         "co": {
          "X": 1.0,
          "Y": -1.0
         },
         "handle_left": {
          "X": 0.5,
          "Y": 1.0
         },
         "handle_right": {
          "X": 0.5,
          "Y": 0.0
         },
         "handle_type": 0,
         "interpolation": 0
        },
        {
         "co": {
          "X": 29.0,
          "Y": 1.0
         },
         "handle_left": {
          "X": 0.5,
          "Y": 1.0
         },
         "handle_right": {
          "X": 0.5,
          "Y": 0.0
         },
         "handle_type": 0,
         "interpolation": 0
        }
       ]
      },
      "contrast": {
       "Points": [
        {
         "co": {
          "X": 1.0,
          "Y": 3.0
         },
         "handle_left": {
          "X": 0.5,
          "Y": 1.0
         },
         "handle_right": {
          "X": 0.5,
          "Y": 0.0
         },
         "handle_type": 0,
         "interpolation": 0
        },
        {
         "co": {
          "X": 29.0,
          "Y": 3.0
         },
         "handle_left": {
          "X": 0.5,
          "Y": 1.0
         },
         "handle_right": {
          "X": 0.5,
          "Y": 0.0
         },
         "handle_type": 0,
         "interpolation": 0
        }
       ]
      },
      "reader": {
       "acodec": "",
       "audio_bit_rate": 0,
       "audio_stream_index": -1,
       "audio_timebase": {
        "den": 1,
        "num": 1
       },
       "channel_layout": 4,
       "channels": 0,
       "display_ratio": {
        "den": 4,
        "num": 5
       },
       "duration": 3600.0,
       "file_size": "5832000",
       "fps": {
        "den": 1,
        "num": 30
       },
       "has_audio": false,
       "has_single_image": true,
       "has_video": true,
       "height": 576,
       "interlaced_frame": false,
       "metadata": {},
       "path": "@transitions/common/fade.svg",
       "pixel_format": -1,
       "pixel_ratio": {
        "den": 1,
        "num": 1
       },
       "sample_rate": 0,
       "top_field_first": true,
       "type": "QtImageReader",
       "vcodec": "",
       "video_bit_rate": 0,
       "video_length": "108000",
       "video_stream_index": -1,
       "video_timebase": {
        "den": 30,
        "num": 1
       },
       "width": 720
      },
      "replace_image": false,
      "id": "29SVX90QJC"
     },
     {
      "layer": 3000000,
      "title": "Transition",
      "type": "Mask",
      "position": 216.8,
      "start": 0,
      "end": 0.9583333333333212,
      "brightness": {
       "Points": [
        {
         "co": {
          "X": 1.0,
          "Y": 1.0
         },
         "handle_left": {
          "X": 0.5,
          "Y": 1.0
         },
         "handle_right": {
          "X": 0.5,
          "Y": 0.0
         },
         "handle_type": 0,
         "interpolation": 0
        },
        {
         "co": {
          "X": 29.0,
          "Y": -1.0
         },
         "handle_left": {
          "X": 0.5,
          "Y": 1.0
         },
         "handle_right": {
          "X": 0.5,
          "Y": 0.0
         },
         "handle_type": 0,
         "interpolation": 0
        }
       ]
      },
      "contrast": {
       "Points": [
        {
         "co": {
          "X": 1.0,
          "Y": 3.0
         },
         "handle_left": {
          "X": 0.5,
          "Y": 1.0
         },
         "handle_right": {
          "X": 0.5,
          "Y": 0.0
         },
         "handle_type": 0,
         "interpolation": 0
        },
        {
         "co": {
          "X": 29.0,
          "Y": 3.0
         },
         "handle_left": {
          "X": 0.5,
          "Y": 1.0
         },
         "handle_right": {
          "X": 0.5,
          "Y": 0.0
         },
         "handle_type": 0,
         "interpolation": 0
        }
       ]
      },
      "reader": {
       "acodec": "",
       "audio_bit_rate": 0,
       "audio_stream_index": -1,
       "audio_timebase": {
        "den": 1,
        "num": 1
       },
       "channel_layout": 4,
       "channels": 0,
       "display_ratio": {
        "den": 4,
        "num": 5
       },
       "duration": 3600.0,
       "file_size": "5832000",
       "fps": {
        "den": 1,
        "num": 30
       },
       "has_audio": false,
       "has_single_image": true,
       "has_video": true,
       "height": 576,
       "interlaced_frame": false,
       "metadata": {},
       "path": "@transitions/common/fade.svg",
       "pixel_format": -1,
       "pixel_ratio": {
        "den": 1,
        "num": 1
       },
       "sample_rate": 0,
       "top_field_first": true,
       "type": "QtImageReader",
       "vcodec": "",
       "video_bit_rate": 0,
       "video_length": "108000",
       "video_stream_index": -1,
       "video_timebase": {
        "den": 30,
        "num": 1
       },
       "width": 720
      },
      "replace_image": false,
      "id": "QFKNEP6QJR"
     },
     {
      "layer": 3000000,
      "title": "Transition",
      "type": "Mask",
      "position": 223.9,
      "start": 0,
      "end": 0.9583333333333212,
      "brightness": {
       "Points": [
        {
         "co": {
          "X": 1.0,
          "Y": -1.0
         },
         "handle_left": {
          "X": 0.5,
          "Y": 1.0
         },
         "handle_right": {
          "X": 0.5,
          "Y": 0.0
         },
         "handle_type": 0,
         "interpolation": 0
        },
        {
         "co": {
          "X": 29.0,
          "Y": 1.0
         },
         "handle_left": {
          "X": 0.5,
          "Y": 1.0
         },
         "handle_right": {
          "X": 0.5,
          "Y": 0.0
         },
         "handle_type": 0,
         "interpolation": 0
        }
       ]
      },
      "contrast": {
       "Points": [
        {
         "co": {
          "X": 1.0,
          "Y": 3.0
         },
         "handle_left": {
          "X": 0.5,
          "Y": 1.0
         },
         "handle_right": {
          "X": 0.5,
          "Y": 0.0
         },
         "handle_type": 0,
         "interpolation": 0
        },
        {
         "co": {
          "X": 29.0,
          "Y": 3.0
         },
         "handle_left": {
          "X": 0.5,
          "Y": 1.0
         },
         "handle_right": {
          "X": 0.5,
          "Y": 0.0
         },
         "handle_type": 0,
         "interpolation": 0
        }
       ]
      },
      "reader": {
       "acodec": "",
       "audio_bit_rate": 0,
       "audio_stream_index": -1,
       "audio_timebase": {
        "den": 1,
        "num": 1
       },
       "channel_layout": 4,
       "channels": 0,
       "display_ratio": {
        "den": 4,
        "num": 5
       },
       "duration": 3600.0,
       "file_size": "5832000",
       "fps": {
        "den": 1,
        "num": 30
       },
       "has_audio": false,
       "has_single_image": true,
       "has_video": true,
       "height": 576,
       "interlaced_frame": false,
       "metadata": {},
       "path": "@transitions/common/fade.svg",
       "pixel_format": -1,
       "pixel_ratio": {
        "den": 1,
        "num": 1
       },
       "sample_rate": 0,
       "top_field_first": true,
       "type": "QtImageReader",
       "vcodec": "",
       "video_bit_rate": 0,
       "video_length": "108000",
       "video_stream_index": -1,
       "video_timebase": {
        "den": 30,
        "num": 1
       },
       "width": 720
      },
      "replace_image": false,
      "id": "KN6FJL1V3A"
     },
     {
      "id": "4AUCOQ0YNI",
      "layer": 1000000,
      "title": "Transition",
      "type": "Mask",
      "position": 214.36666666666667,
      "start": 0,
      "end": 0.9000000000000057,
      "brightness": {
       "Points": [
        {
         "co": {
          "X": 1.0,
          "Y": 1.0
         },
         "handle_left": {
          "X": 0.5,
          "Y": 1.0
         },
         "handle_right": {
          "X": 0.5,
          "Y": 0.0
         },
         "handle_type": 0,
         "interpolation": 0
        },
        {
         "co": {
          "X": 28.0,
          "Y": -1.0
         },
         "handle_left": {
          "X": 0.5,
          "Y": 1.0
         },
         "handle_right": {
          "X": 0.5,
          "Y": 0.0
         },
         "handle_type": 0,
         "interpolation": 0
        }
       ]
      },
      "contrast": {
       "Points": [
        {
         "co": {
          "X": 1.0,
          "Y": 3.0
         },
         "handle_left": {
          "X": 0.5,
          "Y": 1.0
         },
         "handle_right": {
          "X": 0.5,
          "Y": 0.0
         },
         "handle_type": 0,
         "interpolation": 0
        }
       ]
      },
      "reader": {
       "acodec": "",
       "audio_bit_rate": 0,
       "audio_stream_index": -1,
       "audio_timebase": {
        "den": 1,
        "num": 1
       },
       "channel_layout": 4,
       "channels": 0,
       "display_ratio": {
        "den": 4,
        "num": 5
       },
       "duration": 3600.0,
       "file_size": "5832000",
       "fps": {
        "den": 1,
        "num": 30
       },
       "has_audio": false,
       "has_single_image": true,
       "has_video": true,
       "height": 576,
       "interlaced_frame": false,
       "metadata": {},
       "path": "@transitions/common/fade.svg",
       "pixel_format": -1,
       "pixel_ratio": {
        "den": 1,
        "num": 1
       },
       "sample_rate": 0,
       "top_field_first": true,
       "type": "QtImageReader",
       "vcodec": "",
       "video_bit_rate": 0,
       "video_length": "108000",
       "video_stream_index": -1,
       "video_timebase": {
        "den": 30,
        "num": 1
       },
       "width": 720
      },
      "replace_image": false
     },
     {
      "id": "F0RIV30JL4",
      "layer": 1000000,
      "title": "Transition",
      "type": "Mask",
      "position": 225.93333333333334,
      "start": 0,
      "end": 1.8666666666666458,
      "brightness": {
       "Points": [
        {
         "co": {
          "X": 1.0,
          "Y": 1.0
         },
         "handle_left": {
          "X": 0.5,
          "Y": 1.0
         },
         "handle_right": {
          "X": 0.5,
          "Y": 0.0
         },
         "handle_type": 0,
         "interpolation": 0
        },
        {
         "co": {
          "X": 57.0,
          "Y": -1.0
         },
         "handle_left": {
          "X": 0.5,
          "Y": 1.0
         },
         "handle_right": {
          "X": 0.5,
          "Y": 0.0
         },
         "handle_type": 0,
         "interpolation": 0
        }
       ]
      },
      "contrast": {
       "Points": [
        {
         "co": {
          "X": 1.0,
          "Y": 3.0
         },
         "handle_left": {
          "X": 0.5,
          "Y": 1.0
         },
         "handle_right": {
          "X": 0.5,
          "Y": 0.0
         },
         "handle_type": 0,
         "interpolation": 0
        }
       ]
      },
      "reader": {
       "acodec": "",
       "audio_bit_rate": 0,
       "audio_stream_index": -1,
       "audio_timebase": {
        "den": 1,
        "num": 1
       },
       "channel_layout": 4,
       "channels": 0,
       "display_ratio": {
        "den": 4,
        "num": 5
       },
       "duration": 3600.0,
       "file_size": "5832000",
       "fps": {
        "den": 1,
        "num": 30
       },
       "has_audio": false,
       "has_single_image": true,
       "has_video": true,
       "height": 576,
       "interlaced_frame": false,
       "metadata": {},
       "path": "@transitions/common/fade.svg",
       "pixel_format": -1,
       "pixel_ratio": {
        "den": 1,
        "num": 1
       },
       "sample_rate": 0,
       "top_field_first": true,
       "type": "QtImageReader",
       "vcodec": "",
       "video_bit_rate": 0,
       "video_length": "108000",
       "video_stream_index": -1,
       "video_timebase": {
        "den": 30,
        "num": 1
       },
       "width": 720
      },
      "replace_image": false
     },
     {
      "layer": 3000000,
      "title": "Transition",
      "type": "Mask",
      "position": 197.1,
      "start": 0,
      "end": 0.9583333333333212,
      "brightness": {
       "Points": [
        {
         "co": {
          "X": 1.0,
          "Y": -1.0
         },
         "handle_left": {
          "X": 0.5,
          "Y": 1.0
         },
         "handle_right": {
          "X": 0.5,
          "Y": 0.0
         },
         "handle_type": 0,
         "interpolation": 0
        },
        {
         "co": {
          "X": 29.0,
          "Y": 1.0
         },
         "handle_left": {
          "X": 0.5,
          "Y": 1.0
         },
         "handle_right": {
          "X": 0.5,
          "Y": 0.0
         },
         "handle_type": 0,
         "interpolation": 0
        }
       ]
      },
      "contrast": {
       "Points": [
        {
         "co": {
          "X": 1.0,
          "Y": 3.0
         },
         "handle_left": {
          "X": 0.5,
          "Y": 1.0
         },
         "handle_right": {
          "X": 0.5,
          "Y": 0.0
         },
         "handle_type": 0,
         "interpolation": 0
        },
        {
         "co": {
          "X": 29.0,
          "Y": 3.0
         },
         "handle_left": {
          "X": 0.5,
          "Y": 1.0
         },
         "handle_right": {
          "X": 0.5,
          "Y": 0.0
         },
         "handle_type": 0,
         "interpolation": 0
        }
       ]
      },
      "reader": {
       "acodec": "",
       "audio_bit_rate": 0,
       "audio_stream_index": -1,
       "audio_timebase": {
        "den": 1,
        "num": 1
       },
       "channel_layout": 4,
       "channels": 0,
       "display_ratio": {
        "den": 4,
        "num": 5
       },
       "duration": 3600.0,
       "file_size": "5832000",
       "fps": {
        "den": 1,
        "num": 30
       },
       "has_audio": false,
       "has_single_image": true,
       "has_video": true,
       "height": 576,
       "interlaced_frame": false,
       "metadata": {},
       "path": "@transitions/common/fade.svg",
       "pixel_format": -1,
       "pixel_ratio": {
        "den": 1,
        "num": 1
       },
       "sample_rate": 0,
       "top_field_first": true,
       "type": "QtImageReader",
       "vcodec": "",
       "video_bit_rate": 0,
       "video_length": "108000",
       "video_stream_index": -1,
       "video_timebase": {
        "den": 30,
        "num": 1
       },
       "width": 720
      },
      "replace_image": false,
      "id": "WEB2RAE0H3"
     },
     {
      "layer": 2000000,
      "title": "Transition",
      "type": "Mask",
      "position": 228.73333333333332,
      "start": 0,
      "end": 0.9583333333333212,
      "brightness": {
       "Points": [
        {
         "co": {
          "X": 1.0,
          "Y": 1.0
         },
         "handle_left": {
          "X": 0.5,
          "Y": 1.0
         },
         "handle_right": {
          "X": 0.5,
          "Y": 0.0
         },
         "handle_type": 0,
         "interpolation": 0
        },
        {
         "co": {
          "X": 29.0,
          "Y": -1.0
         },
         "handle_left": {
          "X": 0.5,
          "Y": 1.0
         },
         "handle_right": {
          "X": 0.5,
          "Y": 0.0
         },
         "handle_type": 0,
         "interpolation": 0
        }
       ]
      },
      "contrast": {
       "Points": [
        {
         "co": {
          "X": 1.0,
          "Y": 3.0
         },
         "handle_left": {
          "X": 0.5,
          "Y": 1.0
         },
         "handle_right": {
          "X": 0.5,
          "Y": 0.0
         },
         "handle_type": 0,
         "interpolation": 0
        },
        {
         "co": {
          "X": 29.0,
          "Y": 3.0
         },
         "handle_left": {
          "X": 0.5,
          "Y": 1.0
         },
         "handle_right": {
          "X": 0.5,
          "Y": 0.0
         },
         "handle_type": 0,
         "interpolation": 0
        }
       ]
      },
      "reader": {
       "acodec": "",
       "audio_bit_rate": 0,
       "audio_stream_index": -1,
       "audio_timebase": {
        "den": 1,
        "num": 1
       },
       "channel_layout": 4,
       "channels": 0,
       "display_ratio": {
        "den": 4,
        "num": 5
       },
       "duration": 3600.0,
       "file_size": "5832000",
       "fps": {
        "den": 1,
        "num": 30
       },
       "has_audio": false,
       "has_single_image": true,
       "has_video": true,
       "height": 576,
       "interlaced_frame": false,
       "metadata": {},
       "path": "@transitions/common/fade.svg",
       "pixel_format": -1,
       "pixel_ratio": {
        "den": 1,
        "num": 1
       },
       "sample_rate": 0,
       "top_field_first": true,
       "type": "QtImageReader",
       "vcodec": "",
       "video_bit_rate": 0,
       "video_length": "108000",
       "video_stream_index": -1,
       "video_timebase": {
        "den": 30,
        "num": 1
       },
       "width": 720
      },
      "replace_image": false,
      "id": "AYWJNQ9Z2M"
     },
     {
      "layer": 2000000,
      "title": "Transition",
      "type": "Mask",
      "position": 241.23333333333332,
      "start": 0,
      "end": 0.9583333333333212,
      "brightness": {
       "Points": [
        {
         "co": {
          "X": 1.0,
          "Y": 1.0
         },
         "handle_left": {
          "X": 0.5,
          "Y": 1.0
         },
         "handle_right": {
          "X": 0.5,
          "Y": 0.0
         },
         "handle_type": 0,
         "interpolation": 0
        },
        {
         "co": {
          "X": 29.0,
          "Y": -1.0
         },
         "handle_left": {
          "X": 0.5,
          "Y": 1.0
         },
         "handle_right": {
          "X": 0.5,
          "Y": 0.0
         },
         "handle_type": 0,
         "interpolation": 0
        }
       ]
      },
      "contrast": {
       "Points": [
        {
         "co": {
          "X": 1.0,
          "Y": 3.0
         },
         "handle_left": {
          "X": 0.5,
          "Y": 1.0
         },
         "handle_right": {
          "X": 0.5,
          "Y": 0.0
         },
         "handle_type": 0,
         "interpolation": 0
        },
        {
         "co": {
          "X": 29.0,
          "Y": 3.0
         },
         "handle_left": {
          "X": 0.5,
          "Y": 1.0
         },
         "handle_right": {
          "X": 0.5,
          "Y": 0.0
         },
         "handle_type": 0,
         "interpolation": 0
        }
       ]
      },
      "reader": {
       "acodec": "",
       "audio_bit_rate": 0,
       "audio_stream_index": -1,
       "audio_timebase": {
        "den": 1,
        "num": 1
       },
       "channel_layout": 4,
       "channels": 0,
       "display_ratio": {
        "den": 4,
        "num": 5
       },
       "duration": 3600.0,
       "file_size": "5832000",
       "fps": {
        "den": 1,
        "num": 30
       },
       "has_audio": false,
       "has_single_image": true,
       "has_video": true,
       "height": 576,
       "interlaced_frame": false,
       "metadata": {},
       "path": "@transitions/common/fade.svg",
       "pixel_format": -1,
       "pixel_ratio": {
        "den": 1,
        "num": 1
       },
       "sample_rate": 0,
       "top_field_first": true,
       "type": "QtImageReader",
       "vcodec": "",
       "video_bit_rate": 0,
       "video_length": "108000",
       "video_stream_index": -1,
       "video_timebase": {
        "den": 30,
        "num": 1
       },
       "width": 720
      },
      "replace_image": false,
      "id": "RZBAESHWWX"
     },
     {
      "layer": 2000000,
      "title": "Transition",
      "type": "Mask",
      "position": 245.76666666666668,
      "start": 0,
      "end": 0.9583333333333212,
      "brightness": {
       "Points": [
        {
         "co": {
          "X": 1.0,
          "Y": -1.0
         },
         "handle_left": {
          "X": 0.5,
          "Y": 1.0
         },
         "handle_right": {
          "X": 0.5,
          "Y": 0.0
         },
         "handle_type": 0,
         "interpolation": 0
        },
        {
         "co": {
          "X": 29.0,
          "Y": 1.0
         },
         "handle_left": {
          "X": 0.5,
          "Y": 1.0
         },
         "handle_right": {
          "X": 0.5,
          "Y": 0.0
         },
         "handle_type": 0,
         "interpolation": 0
        }
       ]
      },
      "contrast": {
       "Points": [
        {
         "co": {
          "X": 1.0,
          "Y": 3.0
         },
         "handle_left": {
          "X": 0.5,
          "Y": 1.0
         },
         "handle_right": {
          "X": 0.5,
          "Y": 0.0
         },
         "handle_type": 0,
         "interpolation": 0
        },
        {
         "co": {
          "X": 29.0,
          "Y": 3.0
         },
         "handle_left": {
          "X": 0.5,
          "Y": 1.0
         },
         "handle_right": {
          "X": 0.5,
          "Y": 0.0
         },
         "handle_type": 0,
         "interpolation": 0
        }
       ]
      },
      "reader": {
       "acodec": "",
       "audio_bit_rate": 0,
       "audio_stream_index": -1,
       "audio_timebase": {
        "den": 1,
        "num": 1
       },
       "channel_layout": 4,
       "channels": 0,
       "display_ratio": {
        "den": 4,
        "num": 5
       },
       "duration": 3600.0,
       "file_size": "5832000",
       "fps": {
        "den": 1,
        "num": 30
       },
       "has_audio": false,
       "has_single_image": true,
       "has_video": true,
       "height": 576,
       "interlaced_frame": false,
       "metadata": {},
       "path": "@transitions/common/fade.svg",
       "pixel_format": -1,
       "pixel_ratio": {
        "den": 1,
        "num": 1
       },
       "sample_rate": 0,
       "top_field_first": true,
       "type": "QtImageReader",
       "vcodec": "",
       "video_bit_rate": 0,
       "video_length": "108000",
       "video_stream_index": -1,
       "video_timebase": {
        "den": 30,
        "num": 1
       },
       "width": 720
      },
      "replace_image": false,
      "id": "2HTULU3R5M"
     },
     {
      "layer": 3000000,
      "title": "Transition",
      "type": "Mask",
      "position": 227.1,
      "start": 0,
      "end": 0.9583333333333212,
      "brightness": {
       "Points": [
        {
         "co": {
          "X": 1.0,
          "Y": 1.0
         },
         "handle_left": {
          "X": 0.5,
          "Y": 1.0
         },
         "handle_right": {
          "X": 0.5,
          "Y": 0.0
         },
         "handle_type": 0,
         "interpolation": 0
        },
        {
         "co": {
          "X": 29.0,
          "Y": -1.0
         },
         "handle_left": {
          "X": 0.5,
          "Y": 1.0
         },
         "handle_right": {
          "X": 0.5,
          "Y": 0.0
         },
         "handle_type": 0,
         "interpolation": 0
        }
       ]
      },
      "contrast": {
       "Points": [
        {
         "co": {
          "X": 1.0,
          "Y": 3.0
         },
         "handle_left": {
          "X": 0.5,
          "Y": 1.0
         },
         "handle_right": {
          "X": 0.5,
          "Y": 0.0
         },
         "handle_type": 0,
         "interpolation": 0
        },
        {
         "co": {
          "X": 29.0,
          "Y": 3.0
         },
         "handle_left": {
          "X": 0.5,
          "Y": 1.0
         },
         "handle_right": {
          "X": 0.5,
          "Y": 0.0
         },
         "handle_type": 0,
         "interpolation": 0
        }
       ]
      },
      "reader": {
       "acodec": "",
       "audio_bit_rate": 0,
       "audio_stream_index": -1,
       "audio_timebase": {
        "den": 1,
        "num": 1
       },
       "channel_layout": 4,
       "channels": 0,
       "display_ratio": {
        "den": 4,
        "num": 5
       },
       "duration": 3600.0,
       "file_size": "5832000",
       "fps": {
        "den": 1,
        "num": 30
       },
       "has_audio": false,
       "has_single_image": true,
       "has_video": true,
       "height": 576,
       "interlaced_frame": false,
       "metadata": {},
       "path": "@transitions/common/fade.svg",
       "pixel_format": -1,
       "pixel_ratio": {
        "den": 1,
        "num": 1
       },
       "sample_rate": 0,
       "top_field_first": true,
       "type": "QtImageReader",
       "vcodec": "",
       "video_bit_rate": 0,
       "video_length": "108000",
       "video_stream_index": -1,
       "video_timebase": {
        "den": 30,
        "num": 1
       },
       "width": 720
      },
      "replace_image": false,
      "id": "F3SI4HCMCD"
     },
     {
      "layer": 2000000,
      "title": "Transition",
      "type": "Mask",
      "position": 236.23333333333332,
      "start": 0,
      "end": 0.9583333333333212,
      "brightness": {
       "Points": [
        {
         "co": {
          "X": 1.0,
          "Y": -1.0
         },
         "handle_left": {
          "X": 0.5,
          "Y": 1.0
         },
         "handle_right": {
          "X": 0.5,
          "Y": 0.0
         },
         "handle_type": 0,
         "interpolation": 0
        },
        {
         "co": {
          "X": 29.0,
          "Y": 1.0
         },
         "handle_left": {
          "X": 0.5,
          "Y": 1.0
         },
         "handle_right": {
          "X": 0.5,
          "Y": 0.0
         },
         "handle_type": 0,
         "interpolation": 0
        }
       ]
      },
      "contrast": {
       "Points": [
        {
         "co": {
          "X": 1.0,
          "Y": 3.0
         },
         "handle_left": {
          "X": 0.5,
          "Y": 1.0
         },
         "handle_right": {
          "X": 0.5,
          "Y": 0.0
         },
         "handle_type": 0,
         "interpolation": 0
        },
        {
         "co": {
          "X": 29.0,
          "Y": 3.0
         },
         "handle_left": {
          "X": 0.5,
          "Y": 1.0
         },
         "handle_right": {
          "X": 0.5,
          "Y": 0.0
         },
         "handle_type": 0,
         "interpolation": 0
        }
       ]
      },
      "reader": {
       "acodec": "",
       "audio_bit_rate": 0,
       "audio_stream_index": -1,
       "audio_timebase": {
        "den": 1,
        "num": 1
       },
       "channel_layout": 4,
       "channels": 0,
       "display_ratio": {
        "den": 4,
        "num": 5
       },
       "duration": 3600.0,
       "file_size": "5832000",
       "fps": {
        "den": 1,
        "num": 30
       },
       "has_audio": false,
       "has_single_image": true,
       "has_video": true,
       "height": 576,
       "interlaced_frame": false,
       "metadata": {},
       "path": "@transitions/common/fade.svg",
       "pixel_format": -1,
       "pixel_ratio": {
        "den": 1,
        "num": 1
       },
       "sample_rate": 0,
       "top_field_first": true,
       "type": "QtImageReader",
       "vcodec": "",
       "video_bit_rate": 0,
       "video_length": "108000",
       "video_stream_index": -1,
       "video_timebase": {
        "den": 30,
        "num": 1
       },
       "width": 720
      },
      "replace_image": false,
      "id": "5PQMVVOG5H"
     },
     {
      "id": "Z4SN9YM3FC",
      "layer": 1000000,
      "title": "Transition",
      "type": "Mask",
      "position": 248.8,
      "start": 0,
      "end": 1.1999999999999886,
      "brightness": {
       "Points": [
        {
         "co": {
          "X": 1.0,
          "Y": 1.0
         },
         "handle_left": {
          "X": 0.5,
          "Y": 1.0
         },
         "handle_right": {
          "X": 0.5,
          "Y": 0.0
         },
         "handle_type": 0,
         "interpolation": 0
        },
        {
         "co": {
          "X": 37.0,
          "Y": -1.0
         },
         "handle_left": {
          "X": 0.5,
          "Y": 1.0
         },
         "handle_right": {
          "X": 0.5,
          "Y": 0.0
         },
         "handle_type": 0,
         "interpolation": 0
        }
       ]
      },
      "contrast": {
       "Points": [
        {
         "co": {
          "X": 1.0,
          "Y": 3.0
         },
         "handle_left": {
          "X": 0.5,
          "Y": 1.0
         },
         "handle_right": {
          "X": 0.5,
          "Y": 0.0
         },
         "handle_type": 0,
         "interpolation": 0
        }
       ]
      },
      "reader": {
       "acodec": "",
       "audio_bit_rate": 0,
       "audio_stream_index": -1,
       "audio_timebase": {
        "den": 1,
        "num": 1
       },
       "channel_layout": 4,
       "channels": 0,
       "display_ratio": {
        "den": 4,
        "num": 5
       },
       "duration": 3600.0,
       "file_size": "5832000",
       "fps": {
        "den": 1,
        "num": 30
       },
       "has_audio": false,
       "has_single_image": true,
       "has_video": true,
       "height": 576,
       "interlaced_frame": false,
       "metadata": {},
       "path": "@transitions/common/fade.svg",
       "pixel_format": -1,
       "pixel_ratio": {
        "den": 1,
        "num": 1
       },
       "sample_rate": 0,
       "top_field_first": true,
       "type": "QtImageReader",
       "vcodec": "",
       "video_bit_rate": 0,
       "video_length": "108000",
       "video_stream_index": -1,
       "video_timebase": {
        "den": 30,
        "num": 1
       },
       "width": 720
      },
      "replace_image": false
     },
     {
      "layer": 3000000,
      "title": "Transition",
      "type": "Mask",
      "position": 248.8,
      "start": 0,
      "end": 0.9583333333333212,
      "brightness": {
       "Points": [
        {
         "co": {
          "X": 1.0,
          "Y": 1.0
         },
         "handle_left": {
          "X": 0.5,
          "Y": 1.0
         },
         "handle_right": {
          "X": 0.5,
          "Y": 0.0
         },
         "handle_type": 0,
         "interpolation": 0
        },
        {
         "co": {
          "X": 29.0,
          "Y": -1.0
         },
         "handle_left": {
          "X": 0.5,
          "Y": 1.0
         },
         "handle_right": {
          "X": 0.5,
          "Y": 0.0
         },
         "handle_type": 0,
         "interpolation": 0
        }
       ]
      },
      "contrast": {
       "Points": [
        {
         "co": {
          "X": 1.0,
          "Y": 3.0
         },
         "handle_left": {
          "X": 0.5,
          "Y": 1.0
         },
         "handle_right": {
          "X": 0.5,
          "Y": 0.0
         },
         "handle_type": 0,
         "interpolation": 0
        },
        {
         "co": {
          "X": 29.0,
          "Y": 3.0
         },
         "handle_left": {
          "X": 0.5,
          "Y": 1.0
         },
         "handle_right": {
          "X": 0.5,
          "Y": 0.0
         },
         "handle_type": 0,
         "interpolation": 0
        }
       ]
      },
      "reader": {
       "acodec": "",
       "audio_bit_rate": 0,
       "audio_stream_index": -1,
       "audio_timebase": {
        "den": 1,
        "num": 1
       },
       "channel_layout": 4,
       "channels": 0,
       "display_ratio": {
        "den": 4,
        "num": 5
       },
       "duration": 3600.0,
       "file_size": "5832000",
       "fps": {
        "den": 1,
        "num": 30
       },
       "has_audio": false,
       "has_single_image": true,
       "has_video": true,
       "height": 576,
       "interlaced_frame": false,
       "metadata": {},
       "path": "@transitions/common/fade.svg",
       "pixel_format": -1,
       "pixel_ratio": {
        "den": 1,
        "num": 1
       },
       "sample_rate": 0,
       "top_field_first": true,
       "type": "QtImageReader",
       "vcodec": "",
       "video_bit_rate": 0,
       "video_length": "108000",
       "video_stream_index": -1,
       "video_timebase": {
        "den": 30,
        "num": 1
       },
       "width": 720
      },
      "replace_image": false,
      "id": "TQC41VZ6RB"
     },
     {
      "layer": 3000000,
      "title": "Transition",
      "type": "Mask",
      "position": 245.76666666666668,
      "start": 0,
      "end": 0.9583333333333212,
      "brightness": {
       "Points": [
        {
         "co": {
          "X": 1.0,
          "Y": -1.0
         },
         "handle_left": {
          "X": 0.5,
          "Y": 1.0
         },
         "handle_right": {
          "X": 0.5,
          "Y": 0.0
         },
         "handle_type": 0,
         "interpolation": 0
        },
        {
         "co": {
          "X": 29.0,
          "Y": 1.0
         },
         "handle_left": {
          "X": 0.5,
          "Y": 1.0
         },
         "handle_right": {
          "X": 0.5,
          "Y": 0.0
         },
         "handle_type": 0,
         "interpolation": 0
        }
       ]
      },
      "contrast": {
       "Points": [
        {
         "co": {
          "X": 1.0,
          "Y": 3.0
         },
         "handle_left": {
          "X": 0.5,
          "Y": 1.0
         },
         "handle_right": {
          "X": 0.5,
          "Y": 0.0
         },
         "handle_type": 0,
         "interpolation": 0
        },
        {
         "co": {
          "X": 29.0,
          "Y": 3.0
         },
         "handle_left": {
          "X": 0.5,
          "Y": 1.0
         },
         "handle_right": {
          "X": 0.5,
          "Y": 0.0
         },
         "handle_type": 0,
         "interpolation": 0
        }
       ]
      },
      "reader": {
       "acodec": "",
       "audio_bit_rate": 0,
       "audio_stream_index": -1,
       "audio_timebase": {
        "den": 1,
        "num": 1
       },
       "channel_layout": 4,
       "channels": 0,
       "display_ratio": {
        "den": 4,
        "num": 5
       },
       "duration": 3600.0,
       "file_size": "5832000",
       "fps": {
        "den": 1,
        "num": 30
       },
       "has_audio": false,
       "has_single_image": true,
       "has_video": true,
       "height": 576,
       "interlaced_frame": false,
       "metadata": {},
       "path": "@transitions/common/fade.svg",
       "pixel_format": -1,
       "pixel_ratio": {
        "den": 1,
        "num": 1
       },
       "sample_rate": 0,
       "top_field_first": true,
       "type": "QtImageReader",
       "vcodec": "",
       "video_bit_rate": 0,
       "video_length": "108000",
       "video_stream_index": -1,
       "video_timebase": {
        "den": 30,
        "num": 1
       },
       "width": 720
      },
      "replace_image": false,
      "id": "X3YMVVAX5I"
     },
     {
      "layer": 2000000,
      "title": "Transition",
      "type": "Mask",
      "position": 250.66666666666666,
      "start": 0,
      "end": 0.9583333333333212,
      "brightness": {
       "Points": [
        {
         "co": {
          "X": 1.0,
          "Y": 1.0
         },
         "handle_left": {
          "X": 0.5,
          "Y": 1.0
         },
         "handle_right": {
          "X": 0.5,
          "Y": 0.0
         },
         "handle_type": 0,
         "interpolation": 0
        },
        {
         "co": {
          "X": 29.0,
          "Y": -1.0
         },
         "handle_left": {
          "X": 0.5,
          "Y": 1.0
         },
         "handle_right": {
          "X": 0.5,
          "Y": 0.0
         },
         "handle_type": 0,
         "interpolation": 0
        }
       ]
      },
      "contrast": {
       "Points": [
        {
         "co": {
          "X": 1.0,
          "Y": 3.0
         },
         "handle_left": {
          "X": 0.5,
          "Y": 1.0
         },
         "handle_right": {
          "X": 0.5,
          "Y": 0.0
         },
         "handle_type": 0,
         "interpolation": 0
        },
        {
         "co": {
          "X": 29.0,
          "Y": 3.0
         },
         "handle_left": {
          "X": 0.5,
          "Y": 1.0
         },
         "handle_right": {
          "X": 0.5,
          "Y": 0.0
         },
         "handle_type": 0,
         "interpolation": 0
        }
       ]
      },
      "reader": {
       "acodec": "",
       "audio_bit_rate": 0,
       "audio_stream_index": -1,
       "audio_timebase": {
        "den": 1,
        "num": 1
       },
       "channel_layout": 4,
       "channels": 0,
       "display_ratio": {
        "den": 4,
        "num": 5
       },
       "duration": 3600.0,
       "file_size": "5832000",
       "fps": {
        "den": 1,
        "num": 30
       },
       "has_audio": false,
       "has_single_image": true,
       "has_video": true,
       "height": 576,
       "interlaced_frame": false,
       "metadata": {},
       "path": "@transitions/common/fade.svg",
       "pixel_format": -1,
       "pixel_ratio": {
        "den": 1,
        "num": 1
       },
       "sample_rate": 0,
       "top_field_first": true,
       "type": "QtImageReader",
       "vcodec": "",
       "video_bit_rate": 0,
       "video_length": "108000",
       "video_stream_index": -1,
       "video_timebase": {
        "den": 30,
        "num": 1
       },
       "width": 720
      },
      "replace_image": false,
      "id": "NZV4OM49PR"
     },
     {
      "layer": 2000000,
      "title": "Transition",
      "type": "Mask",
      "position": 256.4,
      "start": 0,
      "end": 0.9583333333333212,
      "brightness": {
       "Points": [
        {
         "co": {
          "X": 1.0,
          "Y": -1.0
         },
         "handle_left": {
          "X": 0.5,
          "Y": 1.0
         },
         "handle_right": {
          "X": 0.5,
          "Y": 0.0
         },
         "handle_type": 0,
         "interpolation": 0
        },
        {
         "co": {
          "X": 29.0,
          "Y": 1.0
         },
         "handle_left": {
          "X": 0.5,
          "Y": 1.0
         },
         "handle_right": {
          "X": 0.5,
          "Y": 0.0
         },
         "handle_type": 0,
         "interpolation": 0
        }
       ]
      },
      "contrast": {
       "Points": [
        {
         "co": {
          "X": 1.0,
          "Y": 3.0
         },
         "handle_left": {
          "X": 0.5,
          "Y": 1.0
         },
         "handle_right": {
          "X": 0.5,
          "Y": 0.0
         },
         "handle_type": 0,
         "interpolation": 0
        },
        {
         "co": {
          "X": 29.0,
          "Y": 3.0
         },
         "handle_left": {
          "X": 0.5,
          "Y": 1.0
         },
         "handle_right": {
          "X": 0.5,
          "Y": 0.0
         },
         "handle_type": 0,
         "interpolation": 0
        }
       ]
      },
      "reader": {
       "acodec": "",
       "audio_bit_rate": 0,
       "audio_stream_index": -1,
       "audio_timebase": {
        "den": 1,
        "num": 1
       },
       "channel_layout": 4,
       "channels": 0,
       "display_ratio": {
        "den": 4,
        "num": 5
       },
       "duration": 3600.0,
       "file_size": "5832000",
       "fps": {
        "den": 1,
        "num": 30
       },
       "has_audio": false,
       "has_single_image": true,
       "has_video": true,
       "height": 576,
       "interlaced_frame": false,
       "metadata": {},
       "path": "@transitions/common/fade.svg",
       "pixel_format": -1,
       "pixel_ratio": {
        "den": 1,
        "num": 1
       },
       "sample_rate": 0,
       "top_field_first": true,
       "type": "QtImageReader",
       "vcodec": "",
       "video_bit_rate": 0,
       "video_length": "108000",
       "video_stream_index": -1,
       "video_timebase": {
        "den": 30,
        "num": 1
       },
       "width": 720
      },
      "replace_image": false,
      "id": "GHC8VAFC2M"
     },
     {
      "layer": 2000000,
      "title": "Transition",
      "type": "Mask",
      "position": 260.8333333333333,
      "start": 0,
      "end": 0.9583333333333212,
      "brightness": {
       "Points": [
        {
         "co": {
          "X": 1.0,
          "Y": 1.0
         },
         "handle_left": {
          "X": 0.5,
          "Y": 1.0
         },
         "handle_right": {
          "X": 0.5,
          "Y": 0.0
         },
         "handle_type": 0,
         "interpolation": 0
        },
        {
         "co": {
          "X": 29.0,
          "Y": -1.0
         },
         "handle_left": {
          "X": 0.5,
          "Y": 1.0
         },
         "handle_right": {
          "X": 0.5,
          "Y": 0.0
         },
         "handle_type": 0,
         "interpolation": 0
        }
       ]
      },
      "contrast": {
       "Points": [
        {
         "co": {
          "X": 1.0,
          "Y": 3.0
         },
         "handle_left": {
          "X": 0.5,
          "Y": 1.0
         },
         "handle_right": {
          "X": 0.5,
          "Y": 0.0
         },
         "handle_type": 0,
         "interpolation": 0
        },
        {
         "co": {
          "X": 29.0,
          "Y": 3.0
         },
         "handle_left": {
          "X": 0.5,
          "Y": 1.0
         },
         "handle_right": {
          "X": 0.5,
          "Y": 0.0
         },
         "handle_type": 0,
         "interpolation": 0
        }
       ]
      },
      "reader": {
       "acodec": "",
       "audio_bit_rate": 0,
       "audio_stream_index": -1,
       "audio_timebase": {
        "den": 1,
        "num": 1
       },
       "channel_layout": 4,
       "channels": 0,
       "display_ratio": {
        "den": 4,
        "num": 5
       },
       "duration": 3600.0,
       "file_size": "5832000",
       "fps": {
        "den": 1,
        "num": 30
       },
       "has_audio": false,
       "has_single_image": true,
       "has_video": true,
       "height": 576,
       "interlaced_frame": false,
       "metadata": {},
       "path": "@transitions/common/fade.svg",
       "pixel_format": -1,
       "pixel_ratio": {
        "den": 1,
        "num": 1
       },
       "sample_rate": 0,
       "top_field_first": true,
       "type": "QtImageReader",
       "vcodec": "",
       "video_bit_rate": 0,
       "video_length": "108000",
       "video_stream_index": -1,
       "video_timebase": {
        "den": 30,
        "num": 1
       },
       "width": 720
      },
      "replace_image": false,
      "id": "LEJIDFPPTU"
     },
     {
      "layer": 2000000,
      "title": "Transition",
      "type": "Mask",
      "position": 266.93333333333334,
      "start": 0,
      "end": 0.9583333333333212,
      "brightness": {
       "Points": [
        {
         "co": {
          "X": 1.0,
          "Y": -1.0
         },
         "handle_left": {
          "X": 0.5,
          "Y": 1.0
         },
         "handle_right": {
          "X": 0.5,
          "Y": 0.0
         },
         "handle_type": 0,
         "interpolation": 0
        },
        {
         "co": {
          "X": 29.0,
          "Y": 1.0
         },
         "handle_left": {
          "X": 0.5,
          "Y": 1.0
         },
         "handle_right": {
          "X": 0.5,
          "Y": 0.0
         },
         "handle_type": 0,
         "interpolation": 0
        }
       ]
      },
      "contrast": {
       "Points": [
        {
         "co": {
          "X": 1.0,
          "Y": 3.0
         },
         "handle_left": {
          "X": 0.5,
          "Y": 1.0
         },
         "handle_right": {
          "X": 0.5,
          "Y": 0.0
         },
         "handle_type": 0,
         "interpolation": 0
        },
        {
         "co": {
          "X": 29.0,
          "Y": 3.0
         },
         "handle_left": {
          "X": 0.5,
          "Y": 1.0
         },
         "handle_right": {
          "X": 0.5,
          "Y": 0.0
         },
         "handle_type": 0,
         "interpolation": 0
        }
       ]
      },
      "reader": {
       "acodec": "",
       "audio_bit_rate": 0,
       "audio_stream_index": -1,
       "audio_timebase": {
        "den": 1,
        "num": 1
       },
       "channel_layout": 4,
       "channels": 0,
       "display_ratio": {
        "den": 4,
        "num": 5
       },
       "duration": 3600.0,
       "file_size": "5832000",
       "fps": {
        "den": 1,
        "num": 30
       },
       "has_audio": false,
       "has_single_image": true,
       "has_video": true,
       "height": 576,
       "interlaced_frame": false,
       "metadata": {},
       "path": "@transitions/common/fade.svg",
       "pixel_format": -1,
       "pixel_ratio": {
        "den": 1,
        "num": 1
       },
       "sample_rate": 0,
       "top_field_first": true,
       "type": "QtImageReader",
       "vcodec": "",
       "video_bit_rate": 0,
       "video_length": "108000",
       "video_stream_index": -1,
       "video_timebase": {
        "den": 30,
        "num": 1
       },
       "width": 720
      },
      "replace_image": false,
      "id": "KK5BUO5VAF"
     },
     {
      "layer": 2000000,
      "title": "Transition",
      "type": "Mask",
      "position": 269.03333333333336,
      "start": 0,
      "end": 0.9583333333333212,
      "brightness": {
       "Points": [
        {
         "co": {
          "X": 1.0,
          "Y": 1.0
         },
         "handle_left": {
          "X": 0.5,
          "Y": 1.0
         },
         "handle_right": {
          "X": 0.5,
          "Y": 0.0
         },
         "handle_type": 0,
         "interpolation": 0
        },
        {
         "co": {
          "X": 29.0,
          "Y": -1.0
         },
         "handle_left": {
          "X": 0.5,
          "Y": 1.0
         },
         "handle_right": {
          "X": 0.5,
          "Y": 0.0
         },
         "handle_type": 0,
         "interpolation": 0
        }
       ]
      },
      "contrast": {
       "Points": [
        {
         "co": {
          "X": 1.0,
          "Y": 3.0
         },
         "handle_left": {
          "X": 0.5,
          "Y": 1.0
         },
         "handle_right": {
          "X": 0.5,
          "Y": 0.0
         },
         "handle_type": 0,
         "interpolation": 0
        },
        {
         "co": {
          "X": 29.0,
          "Y": 3.0
         },
         "handle_left": {
          "X": 0.5,
          "Y": 1.0
         },
         "handle_right": {
          "X": 0.5,
          "Y": 0.0
         },
         "handle_type": 0,
         "interpolation": 0
        }
       ]
      },
      "reader": {
       "acodec": "",
       "audio_bit_rate": 0,
       "audio_stream_index": -1,
       "audio_timebase": {
        "den": 1,
        "num": 1
       },
       "channel_layout": 4,
       "channels": 0,
       "display_ratio": {
        "den": 4,
        "num": 5
       },
       "duration": 3600.0,
       "file_size": "5832000",
       "fps": {
        "den": 1,
        "num": 30
       },
       "has_audio": false,
       "has_single_image": true,
       "has_video": true,
       "height": 576,
       "interlaced_frame": false,
       "metadata": {},
       "path": "@transitions/common/fade.svg",
       "pixel_format": -1,
       "pixel_ratio": {
        "den": 1,
        "num": 1
       },
       "sample_rate": 0,
       "top_field_first": true,
       "type": "QtImageReader",
       "vcodec": "",
       "video_bit_rate": 0,
       "video_length": "108000",
       "video_stream_index": -1,
       "video_timebase": {
        "den": 30,
        "num": 1
       },
       "width": 720
      },
      "replace_image": false,
      "id": "EOT619YF48"
     },
     {
      "layer": 2000000,
      "title": "Transition",
      "type": "Mask",
      "position": 271.2,
      "start": 0,
      "end": 0.9583333333333212,
      "brightness": {
       "Points": [
        {
         "co": {
          "X": 1.0,
          "Y": -1.0
         },
         "handle_left": {
          "X": 0.5,
          "Y": 1.0
         },
         "handle_right": {
          "X": 0.5,
          "Y": 0.0
         },
         "handle_type": 0,
         "interpolation": 0
        },
        {
         "co": {
          "X": 29.0,
          "Y": 1.0
         },
         "handle_left": {
          "X": 0.5,
          "Y": 1.0
         },
         "handle_right": {
          "X": 0.5,
          "Y": 0.0
         },
         "handle_type": 0,
         "interpolation": 0
        }
       ]
      },
      "contrast": {
       "Points": [
        {
         "co": {
          "X": 1.0,
          "Y": 3.0
         },
         "handle_left": {
          "X": 0.5,
          "Y": 1.0
         },
         "handle_right": {
          "X": 0.5,
          "Y": 0.0
         },
         "handle_type": 0,
         "interpolation": 0
        },
        {
         "co": {
          "X": 29.0,
          "Y": 3.0
         },
         "handle_left": {
          "X": 0.5,
          "Y": 1.0
         },
         "handle_right": {
          "X": 0.5,
          "Y": 0.0
         },
         "handle_type": 0,
         "interpolation": 0
        }
       ]
      },
      "reader": {
       "acodec": "",
       "audio_bit_rate": 0,
       "audio_stream_index": -1,
       "audio_timebase": {
        "den": 1,
        "num": 1
       },
       "channel_layout": 4,
       "channels": 0,
       "display_ratio": {
        "den": 4,
        "num": 5
       },
       "duration": 3600.0,
       "file_size": "5832000",
       "fps": {
        "den": 1,
        "num": 30
       },
       "has_audio": false,
       "has_single_image": true,
       "has_video": true,
       "height": 576,
       "interlaced_frame": false,
       "metadata": {},
       "path": "@transitions/common/fade.svg",
       "pixel_format": -1,
       "pixel_ratio": {
        "den": 1,
        "num": 1
       },
       "sample_rate": 0,
       "top_field_first": true,
       "type": "QtImageReader",
       "vcodec": "",
       "video_bit_rate": 0,
       "video_length": "108000",
       "video_stream_index": -1,
       "video_timebase": {
        "den": 30,
        "num": 1
       },
       "width": 720
      },
      "replace_image": false,
      "id": "PRGTH4OGVC"
     },
     {
      "layer": 2000000,
      "title": "Transition",
      "type": "Mask",
      "position": 273.3333333333333,
      "start": 0,
      "end": 0.9583333333333212,
      "brightness": {
       "Points": [
        {
         "co": {
          "X": 1.0,
          "Y": 1.0
         },
         "handle_left": {
          "X": 0.5,
          "Y": 1.0
         },
         "handle_right": {
          "X": 0.5,
          "Y": 0.0
         },
         "handle_type": 0,
         "interpolation": 0
        },
        {
         "co": {
          "X": 29.0,
          "Y": -1.0
         },
         "handle_left": {
          "X": 0.5,
          "Y": 1.0
         },
         "handle_right": {
          "X": 0.5,
          "Y": 0.0
         },
         "handle_type": 0,
         "interpolation": 0
        }
       ]
      },
      "contrast": {
       "Points": [
        {
         "co": {
          "X": 1.0,
          "Y": 3.0
         },
         "handle_left": {
          "X": 0.5,
          "Y": 1.0
         },
         "handle_right": {
          "X": 0.5,
          "Y": 0.0
         },
         "handle_type": 0,
         "interpolation": 0
        },
        {
         "co": {
          "X": 29.0,
          "Y": 3.0
         },
         "handle_left": {
          "X": 0.5,
          "Y": 1.0
         },
         "handle_right": {
          "X": 0.5,
          "Y": 0.0
         },
         "handle_type": 0,
         "interpolation": 0
        }
       ]
      },
      "reader": {
       "acodec": "",
       "audio_bit_rate": 0,
       "audio_stream_index": -1,
       "audio_timebase": {
        "den": 1,
        "num": 1
       },
       "channel_layout": 4,
       "channels": 0,
       "display_ratio": {
        "den": 4,
        "num": 5
       },
       "duration": 3600.0,
       "file_size": "5832000",
       "fps": {
        "den": 1,
        "num": 30
       },
       "has_audio": false,
       "has_single_image": true,
       "has_video": true,
       "height": 576,
       "interlaced_frame": false,
       "metadata": {},
       "path": "@transitions/common/fade.svg",
       "pixel_format": -1,
       "pixel_ratio": {
        "den": 1,
        "num": 1
       },
       "sample_rate": 0,
       "top_field_first": true,
       "type": "QtImageReader",
       "vcodec": "",
       "video_bit_rate": 0,
       "video_length": "108000",
       "video_stream_index": -1,
       "video_timebase": {
        "den": 30,
        "num": 1
       },
       "width": 720
      },
      "replace_image": false,
      "id": "2M2XXQ05FD"
     },
     {
      "layer": 2000000,
      "title": "Transition",
      "type": "Mask",
      "position": 277.23333333333335,
      "start": 0,
      "end": 0.9583333333333212,
      "brightness": {
       "Points": [
        {
         "co": {
          "X": 1.0,
          "Y": -1.0
         },
         "handle_left": {
          "X": 0.5,
          "Y": 1.0
         },
         "handle_right": {
          "X": 0.5,
          "Y": 0.0
         },
         "handle_type": 0,
         "interpolation": 0
        },
        {
         "co": {
          "X": 29.0,
          "Y": 1.0
         },
         "handle_left": {
          "X": 0.5,
          "Y": 1.0
         },
         "handle_right": {
          "X": 0.5,
          "Y": 0.0
         },
         "handle_type": 0,
         "interpolation": 0
        }
       ]
      },
      "contrast": {
       "Points": [
        {
         "co": {
          "X": 1.0,
          "Y": 3.0
         },
         "handle_left": {
          "X": 0.5,
          "Y": 1.0
         },
         "handle_right": {
          "X": 0.5,
          "Y": 0.0
         },
         "handle_type": 0,
         "interpolation": 0
        },
        {
         "co": {
          "X": 29.0,
          "Y": 3.0
         },
         "handle_left": {
          "X": 0.5,
          "Y": 1.0
         },
         "handle_right": {
          "X": 0.5,
          "Y": 0.0
         },
         "handle_type": 0,
         "interpolation": 0
        }
       ]
      },
      "reader": {
       "acodec": "",
       "audio_bit_rate": 0,
       "audio_stream_index": -1,
       "audio_timebase": {
        "den": 1,
        "num": 1
       },
       "channel_layout": 4,
       "channels": 0,
       "display_ratio": {
        "den": 4,
        "num": 5
       },
       "duration": 3600.0,
       "file_size": "5832000",
       "fps": {
        "den": 1,
        "num": 30
       },
       "has_audio": false,
       "has_single_image": true,
       "has_video": true,
       "height": 576,
       "interlaced_frame": false,
       "metadata": {},
       "path": "@transitions/common/fade.svg",
       "pixel_format": -1,
       "pixel_ratio": {
        "den": 1,
        "num": 1
       },
       "sample_rate": 0,
       "top_field_first": true,
       "type": "QtImageReader",
       "vcodec": "",
       "video_bit_rate": 0,
       "video_length": "108000",
       "video_stream_index": -1,
       "video_timebase": {
        "den": 30,
        "num": 1
       },
       "width": 720
      },
      "replace_image": false,
      "id": "AB25T9KHGQ"
     },
     {
      "layer": 2000000,
      "title": "Transition",
      "type": "Mask",
      "position": 281.73333333333335,
      "start": 0,
      "end": 0.9583333333333212,
      "brightness": {
       "Points": [
        {
         "co": {
          "X": 1.0,
          "Y": 1.0
         },
         "handle_left": {
          "X": 0.5,
          "Y": 1.0
         },
         "handle_right": {
          "X": 0.5,
          "Y": 0.0
         },
         "handle_type": 0,
         "interpolation": 0
        },
        {
         "co": {
          "X": 29.0,
          "Y": -1.0
         },
         "handle_left": {
          "X": 0.5,
          "Y": 1.0
         },
         "handle_right": {
          "X": 0.5,
          "Y": 0.0
         },
         "handle_type": 0,
         "interpolation": 0
        }
       ]
      },
      "contrast": {
       "Points": [
        {
         "co": {
          "X": 1.0,
          "Y": 3.0
         },
         "handle_left": {
          "X": 0.5,
          "Y": 1.0
         },
         "handle_right": {
          "X": 0.5,
          "Y": 0.0
         },
         "handle_type": 0,
         "interpolation": 0
        },
        {
         "co": {
          "X": 29.0,
          "Y": 3.0
         },
         "handle_left": {
          "X": 0.5,
          "Y": 1.0
         },
         "handle_right": {
          "X": 0.5,
          "Y": 0.0
         },
         "handle_type": 0,
         "interpolation": 0
        }
       ]
      },
      "reader": {
       "acodec": "",
       "audio_bit_rate": 0,
       "audio_stream_index": -1,
       "audio_timebase": {
        "den": 1,
        "num": 1
       },
       "channel_layout": 4,
       "channels": 0,
       "display_ratio": {
        "den": 4,
        "num": 5
       },
       "duration": 3600.0,
       "file_size": "5832000",
       "fps": {
        "den": 1,
        "num": 30
       },
       "has_audio": false,
       "has_single_image": true,
       "has_video": true,
       "height": 576,
       "interlaced_frame": false,
       "metadata": {},
       "path": "@transitions/common/fade.svg",
       "pixel_format": -1,
       "pixel_ratio": {
        "den": 1,
        "num": 1
       },
       "sample_rate": 0,
       "top_field_first": true,
       "type": "QtImageReader",
       "vcodec": "",
       "video_bit_rate": 0,
       "video_length": "108000",
       "video_stream_index": -1,
       "video_timebase": {
        "den": 30,
        "num": 1
       },
       "width": 720
      },
      "replace_image": false,
      "id": "ZEXFKXQ1SG"
     },
     {
      "layer": 2000000,
      "title": "Transition",
      "type": "Mask",
      "position": 286.3666666666667,
      "start": 0,
      "end": 0.9583333333333212,
      "brightness": {
       "Points": [
        {
         "co": {
          "X": 1.0,
          "Y": -1.0
         },
         "handle_left": {
          "X": 0.5,
          "Y": 1.0
         },
         "handle_right": {
          "X": 0.5,
          "Y": 0.0
         },
         "handle_type": 0,
         "interpolation": 0
        },
        {
         "co": {
          "X": 29.0,
          "Y": 1.0
         },
         "handle_left": {
          "X": 0.5,
          "Y": 1.0
         },
         "handle_right": {
          "X": 0.5,
          "Y": 0.0
         },
         "handle_type": 0,
         "interpolation": 0
        }
       ]
      },
      "contrast": {
       "Points": [
        {
         "co": {
          "X": 1.0,
          "Y": 3.0
         },
         "handle_left": {
          "X": 0.5,
          "Y": 1.0
         },
         "handle_right": {
          "X": 0.5,
          "Y": 0.0
         },
         "handle_type": 0,
         "interpolation": 0
        },
        {
         "co": {
          "X": 29.0,
          "Y": 3.0
         },
         "handle_left": {
          "X": 0.5,
          "Y": 1.0
         },
         "handle_right": {
          "X": 0.5,
          "Y": 0.0
         },
         "handle_type": 0,
         "interpolation": 0
        }
       ]
      },
      "reader": {
       "acodec": "",
       "audio_bit_rate": 0,
       "audio_stream_index": -1,
       "audio_timebase": {
        "den": 1,
        "num": 1
       },
       "channel_layout": 4,
       "channels": 0,
       "display_ratio": {
        "den": 4,
        "num": 5
       },
       "duration": 3600.0,
       "file_size": "5832000",
       "fps": {
        "den": 1,
        "num": 30
       },
       "has_audio": false,
       "has_single_image": true,
       "has_video": true,
       "height": 576,
       "interlaced_frame": false,
       "metadata": {},
       "path": "@transitions/common/fade.svg",
       "pixel_format": -1,
       "pixel_ratio": {
        "den": 1,
        "num": 1
       },
       "sample_rate": 0,
       "top_field_first": true,
       "type": "QtImageReader",
       "vcodec": "",
       "video_bit_rate": 0,
       "video_length": "108000",
       "video_stream_index": -1,
       "video_timebase": {
        "den": 30,
        "num": 1
       },
       "width": 720
      },
      "replace_image": false,
      "id": "NA5Q7HM0AA"
     },
     {
      "layer": 3000000,
      "title": "Transition",
      "type": "Mask",
      "position": 290.23333333333335,
      "start": 0,
      "end": 0.9583333333333212,
      "brightness": {
       "Points": [
        {
         "co": {
          "X": 1.0,
          "Y": -1.0
         },
         "handle_left": {
          "X": 0.5,
          "Y": 1.0
         },
         "handle_right": {
          "X": 0.5,
          "Y": 0.0
         },
         "handle_type": 0,
         "interpolation": 0
        },
        {
         "co": {
          "X": 29.0,
          "Y": 1.0
         },
         "handle_left": {
          "X": 0.5,
          "Y": 1.0
         },
         "handle_right": {
          "X": 0.5,
          "Y": 0.0
         },
         "handle_type": 0,
         "interpolation": 0
        }
       ]
      },
      "contrast": {
       "Points": [
        {
         "co": {
          "X": 1.0,
          "Y": 3.0
         },
         "handle_left": {
          "X": 0.5,
          "Y": 1.0
         },
         "handle_right": {
          "X": 0.5,
          "Y": 0.0
         },
         "handle_type": 0,
         "interpolation": 0
        },
        {
         "co": {
          "X": 29.0,
          "Y": 3.0
         },
         "handle_left": {
          "X": 0.5,
          "Y": 1.0
         },
         "handle_right": {
          "X": 0.5,
          "Y": 0.0
         },
         "handle_type": 0,
         "interpolation": 0
        }
       ]
      },
      "reader": {
       "acodec": "",
       "audio_bit_rate": 0,
       "audio_stream_index": -1,
       "audio_timebase": {
        "den": 1,
        "num": 1
       },
       "channel_layout": 4,
       "channels": 0,
       "display_ratio": {
        "den": 4,
        "num": 5
       },
       "duration": 3600.0,
       "file_size": "5832000",
       "fps": {
        "den": 1,
        "num": 30
       },
       "has_audio": false,
       "has_single_image": true,
       "has_video": true,
       "height": 576,
       "interlaced_frame": false,
       "metadata": {},
       "path": "@transitions/common/fade.svg",
       "pixel_format": -1,
       "pixel_ratio": {
        "den": 1,
        "num": 1
       },
       "sample_rate": 0,
       "top_field_first": true,
       "type": "QtImageReader",
       "vcodec": "",
       "video_bit_rate": 0,
       "video_length": "108000",
       "video_stream_index": -1,
       "video_timebase": {
        "den": 30,
        "num": 1
       },
       "width": 720
      },
      "replace_image": false,
      "id": "2MOTFUXKD2"
     },
     {
      "id": "WTQLA8YM9N",
      "layer": 1000000,
      "title": "Transition",
      "type": "Mask",
      "position": 297.26666666666665,
      "start": 0,
      "end": 1.3359143138669818,
      "brightness": {
       "Points": [
        {
         "co": {
          "X": 1.0,
          "Y": 1.0
         },
         "handle_left": {
          "X": 0.5,
          "Y": 1.0
         },
         "handle_right": {
          "X": 0.5,
          "Y": 0.0
         },
         "handle_type": 0,
         "interpolation": 0
        },
        {
         "co": {
          "X": 40.0,
          "Y": -1.0
         },
         "handle_left": {
          "X": 0.5,
          "Y": 1.0
         },
         "handle_right": {
          "X": 0.5,
          "Y": 0.0
         },
         "handle_type": 0,
         "interpolation": 0
        }
       ]
      },
      "contrast": {
       "Points": [
        {
         "co": {
          "X": 1.0,
          "Y": 3.0
         },
         "handle_left": {
          "X": 0.5,
          "Y": 1.0
         },
         "handle_right": {
          "X": 0.5,
          "Y": 0.0
         },
         "handle_type": 0,
         "interpolation": 0
        },
        {
         "co": {
          "X": 40.0,
          "Y": 3.0
         },
         "handle_left": {
          "X": 0.5,
          "Y": 1.0
         },
         "handle_right": {
          "X": 0.5,
          "Y": 0.0
         },
         "handle_type": 0,
         "interpolation": 0
        }
       ]
      },
      "reader": {
       "acodec": "",
       "audio_bit_rate": 0,
       "audio_stream_index": -1,
       "audio_timebase": {
        "den": 1,
        "num": 1
       },
       "channel_layout": 4,
       "channels": 0,
       "display_ratio": {
        "den": 4,
        "num": 5
       },
       "duration": 3600.0,
       "file_size": "5832000",
       "fps": {
        "den": 1,
        "num": 30
       },
       "has_audio": false,
       "has_single_image": true,
       "has_video": true,
       "height": 576,
       "interlaced_frame": false,
       "metadata": {},
       "path": "@transitions/common/fade.svg",
       "pixel_format": -1,
       "pixel_ratio": {
        "den": 1,
        "num": 1
       },
       "sample_rate": 0,
       "top_field_first": true,
       "type": "QtImageReader",
       "vcodec": "",
       "video_bit_rate": 0,
       "video_length": "108000",
       "video_stream_index": -1,
       "video_timebase": {
        "den": 30,
        "num": 1
       },
       "width": 720
      },
      "replace_image": false
     },
     {
      "layer": 3000000,
      "title": "Transition",
      "type": "Mask",
      "position": 298.8333333333333,
      "start": 0,
      "end": 0.9583333333333212,
      "brightness": {
       "Points": [
        {
         "co": {
          "X": 1.0,
          "Y": 1.0
         },
         "handle_left": {
          "X": 0.5,
          "Y": 1.0
         },
         "handle_right": {
          "X": 0.5,
          "Y": 0.0
         },
         "handle_type": 0,
         "interpolation": 0
        },
        {
         "co": {
          "X": 29.0,
          "Y": -1.0
         },
         "handle_left": {
          "X": 0.5,
          "Y": 1.0
         },
         "handle_right": {
          "X": 0.5,
          "Y": 0.0
         },
         "handle_type": 0,
         "interpolation": 0
        }
       ]
      },
      "contrast": {
       "Points": [
        {
         "co": {
          "X": 1.0,
          "Y": 3.0
         },
         "handle_left": {
          "X": 0.5,
          "Y": 1.0
         },
         "handle_right": {
          "X": 0.5,
          "Y": 0.0
         },
         "handle_type": 0,
         "interpolation": 0
        },
        {
         "co": {
          "X": 29.0,
          "Y": 3.0
         },
         "handle_left": {
          "X": 0.5,
          "Y": 1.0
         },
         "handle_right": {
          "X": 0.5,
          "Y": 0.0
         },
         "handle_type": 0,
         "interpolation": 0
        }
       ]
      },
      "reader": {
       "acodec": "",
       "audio_bit_rate": 0,
       "audio_stream_index": -1,
       "audio_timebase": {
        "den": 1,
        "num": 1
       },
       "channel_layout": 4,
       "channels": 0,
       "display_ratio": {
        "den": 4,
        "num": 5
       },
       "duration": 3600.0,
       "file_size": "5832000",
       "fps": {
        "den": 1,
        "num": 30
       },
       "has_audio": false,
       "has_single_image": true,
       "has_video": true,
       "height": 576,
       "interlaced_frame": false,
       "metadata": {},
       "path": "@transitions/common/fade.svg",
       "pixel_format": -1,
       "pixel_ratio": {
        "den": 1,
        "num": 1
       },
       "sample_rate": 0,
       "top_field_first": true,
       "type": "QtImageReader",
       "vcodec": "",
       "video_bit_rate": 0,
       "video_length": "108000",
       "video_stream_index": -1,
       "video_timebase": {
        "den": 30,
        "num": 1
       },
       "width": 720
      },
      "replace_image": false,
      "id": "2YX9MN7OBR"
     },
     {
      "layer": 2000000,
      "title": "Transition",
      "type": "Mask",
      "position": 300.6666666666667,
      "start": 0,
      "end": 0.9583333333333212,
      "brightness": {
       "Points": [
        {
         "co": {
          "X": 1.0,
          "Y": 1.0
         },
         "handle_left": {
          "X": 0.5,
          "Y": 1.0
         },
         "handle_right": {
          "X": 0.5,
          "Y": 0.0
         },
         "handle_type": 0,
         "interpolation": 0
        },
        {
         "co": {
          "X": 29.0,
          "Y": -1.0
         },
         "handle_left": {
          "X": 0.5,
          "Y": 1.0
         },
         "handle_right": {
          "X": 0.5,
          "Y": 0.0
         },
         "handle_type": 0,
         "interpolation": 0
        }
       ]
      },
      "contrast": {
       "Points": [
        {
         "co": {
          "X": 1.0,
          "Y": 3.0
         },
         "handle_left": {
          "X": 0.5,
          "Y": 1.0
         },
         "handle_right": {
          "X": 0.5,
          "Y": 0.0
         },
         "handle_type": 0,
         "interpolation": 0
        },
        {
         "co": {
          "X": 29.0,
          "Y": 3.0
         },
         "handle_left": {
          "X": 0.5,
          "Y": 1.0
         },
         "handle_right": {
          "X": 0.5,
          "Y": 0.0
         },
         "handle_type": 0,
         "interpolation": 0
        }
       ]
      },
      "reader": {
       "acodec": "",
       "audio_bit_rate": 0,
       "audio_stream_index": -1,
       "audio_timebase": {
        "den": 1,
        "num": 1
       },
       "channel_layout": 4,
       "channels": 0,
       "display_ratio": {
        "den": 4,
        "num": 5
       },
       "duration": 3600.0,
       "file_size": "5832000",
       "fps": {
        "den": 1,
        "num": 30
       },
       "has_audio": false,
       "has_single_image": true,
       "has_video": true,
       "height": 576,
       "interlaced_frame": false,
       "metadata": {},
       "path": "@transitions/common/fade.svg",
       "pixel_format": -1,
       "pixel_ratio": {
        "den": 1,
        "num": 1
       },
       "sample_rate": 0,
       "top_field_first": true,
       "type": "QtImageReader",
       "vcodec": "",
       "video_bit_rate": 0,
       "video_length": "108000",
       "video_stream_index": -1,
       "video_timebase": {
        "den": 30,
        "num": 1
       },
       "width": 720
      },
      "replace_image": false,
      "id": "NZZROKB146"
     },
     {
      "layer": 2000000,
      "title": "Transition",
      "type": "Mask",
      "position": 303.8333333333333,
      "start": 0,
      "end": 0.9583333333333212,
      "brightness": {
       "Points": [
        {
         "co": {
          "X": 1.0,
          "Y": -1.0
         },
         "handle_left": {
          "X": 0.5,
          "Y": 1.0
         },
         "handle_right": {
          "X": 0.5,
          "Y": 0.0
         },
         "handle_type": 0,
         "interpolation": 0
        },
        {
         "co": {
          "X": 29.0,
          "Y": 1.0
         },
         "handle_left": {
          "X": 0.5,
          "Y": 1.0
         },
         "handle_right": {
          "X": 0.5,
          "Y": 0.0
         },
         "handle_type": 0,
         "interpolation": 0
        }
       ]
      },
      "contrast": {
       "Points": [
        {
         "co": {
          "X": 1.0,
          "Y": 3.0
         },
         "handle_left": {
          "X": 0.5,
          "Y": 1.0
         },
         "handle_right": {
          "X": 0.5,
          "Y": 0.0
         },
         "handle_type": 0,
         "interpolation": 0
        },
        {
         "co": {
          "X": 29.0,
          "Y": 3.0
         },
         "handle_left": {
          "X": 0.5,
          "Y": 1.0
         },
         "handle_right": {
          "X": 0.5,
          "Y": 0.0
         },
         "handle_type": 0,
         "interpolation": 0
        }
       ]
      },
      "reader": {
       "acodec": "",
       "audio_bit_rate": 0,
       "audio_stream_index": -1,
       "audio_timebase": {
        "den": 1,
        "num": 1
       },
       "channel_layout": 4,
       "channels": 0,
       "display_ratio": {
        "den": 4,
        "num": 5
       },
       "duration": 3600.0,
       "file_size": "5832000",
       "fps": {
        "den": 1,
        "num": 30
       },
       "has_audio": false,
       "has_single_image": true,
       "has_video": true,
       "height": 576,
       "interlaced_frame": false,
       "metadata": {},
       "path": "@transitions/common/fade.svg",
       "pixel_format": -1,
       "pixel_ratio": {
        "den": 1,
        "num": 1
       },
       "sample_rate": 0,
       "top_field_first": true,
       "type": "QtImageReader",
       "vcodec": "",
       "video_bit_rate": 0,
       "video_length": "108000",
       "video_stream_index": -1,
       "video_timebase": {
        "den": 30,
        "num": 1
       },
       "width": 720
      },
      "replace_image": false,
      "id": "QSGPQIF0I4"
     },
     {
      "layer": 2000000,
      "title": "Transition",
      "type": "Mask",
      "position": 306.8666666666667,
      "start": 0,
      "end": 0.9583333333333212,
      "brightness": {
       "Points": [
        {
         "co": {
          "X": 1.0,
          "Y": 1.0
         },
         "handle_left": {
          "X": 0.5,
          "Y": 1.0
         },
         "handle_right": {
          "X": 0.5,
          "Y": 0.0
         },
         "handle_type": 0,
         "interpolation": 0
        },
        {
         "co": {
          "X": 29.0,
          "Y": -1.0
         },
         "handle_left": {
          "X": 0.5,
          "Y": 1.0
         },
         "handle_right": {
          "X": 0.5,
          "Y": 0.0
         },
         "handle_type": 0,
         "interpolation": 0
        }
       ]
      },
      "contrast": {
       "Points": [
        {
         "co": {
          "X": 1.0,
          "Y": 3.0
         },
         "handle_left": {
          "X": 0.5,
          "Y": 1.0
         },
         "handle_right": {
          "X": 0.5,
          "Y": 0.0
         },
         "handle_type": 0,
         "interpolation": 0
        },
        {
         "co": {
          "X": 29.0,
          "Y": 3.0
         },
         "handle_left": {
          "X": 0.5,
          "Y": 1.0
         },
         "handle_right": {
          "X": 0.5,
          "Y": 0.0
         },
         "handle_type": 0,
         "interpolation": 0
        }
       ]
      },
      "reader": {
       "acodec": "",
       "audio_bit_rate": 0,
       "audio_stream_index": -1,
       "audio_timebase": {
        "den": 1,
        "num": 1
       },
       "channel_layout": 4,
       "channels": 0,
       "display_ratio": {
        "den": 4,
        "num": 5
       },
       "duration": 3600.0,
       "file_size": "5832000",
       "fps": {
        "den": 1,
        "num": 30
       },
       "has_audio": false,
       "has_single_image": true,
       "has_video": true,
       "height": 576,
       "interlaced_frame": false,
       "metadata": {},
       "path": "@transitions/common/fade.svg",
       "pixel_format": -1,
       "pixel_ratio": {
        "den": 1,
        "num": 1
       },
       "sample_rate": 0,
       "top_field_first": true,
       "type": "QtImageReader",
       "vcodec": "",
       "video_bit_rate": 0,
       "video_length": "108000",
       "video_stream_index": -1,
       "video_timebase": {
        "den": 30,
        "num": 1
       },
       "width": 720
      },
      "replace_image": false,
      "id": "OHTIUW0RSR"
     },
     {
      "layer": 2000000,
      "title": "Transition",
      "type": "Mask",
      "position": 312.3,
      "start": 0,
      "end": 0.9583333333333212,
      "brightness": {
       "Points": [
        {
         "co": {
          "X": 1.0,
          "Y": -1.0
         },
         "handle_left": {
          "X": 0.5,
          "Y": 1.0
         },
         "handle_right": {
          "X": 0.5,
          "Y": 0.0
         },
         "handle_type": 0,
         "interpolation": 0
        },
        {
         "co": {
          "X": 29.0,
          "Y": 1.0
         },
         "handle_left": {
          "X": 0.5,
          "Y": 1.0
         },
         "handle_right": {
          "X": 0.5,
          "Y": 0.0
         },
         "handle_type": 0,
         "interpolation": 0
        }
       ]
      },
      "contrast": {
       "Points": [
        {
         "co": {
          "X": 1.0,
          "Y": 3.0
         },
         "handle_left": {
          "X": 0.5,
          "Y": 1.0
         },
         "handle_right": {
          "X": 0.5,
          "Y": 0.0
         },
         "handle_type": 0,
         "interpolation": 0
        },
        {
         "co": {
          "X": 29.0,
          "Y": 3.0
         },
         "handle_left": {
          "X": 0.5,
          "Y": 1.0
         },
         "handle_right": {
          "X": 0.5,
          "Y": 0.0
         },
         "handle_type": 0,
         "interpolation": 0
        }
       ]
      },
      "reader": {
       "acodec": "",
       "audio_bit_rate": 0,
       "audio_stream_index": -1,
       "audio_timebase": {
        "den": 1,
        "num": 1
       },
       "channel_layout": 4,
       "channels": 0,
       "display_ratio": {
        "den": 4,
        "num": 5
       },
       "duration": 3600.0,
       "file_size": "5832000",
       "fps": {
        "den": 1,
        "num": 30
       },
       "has_audio": false,
       "has_single_image": true,
       "has_video": true,
       "height": 576,
       "interlaced_frame": false,
       "metadata": {},
       "path": "@transitions/common/fade.svg",
       "pixel_format": -1,
       "pixel_ratio": {
        "den": 1,
        "num": 1
       },
       "sample_rate": 0,
       "top_field_first": true,
       "type": "QtImageReader",
       "vcodec": "",
       "video_bit_rate": 0,
       "video_length": "108000",
       "video_stream_index": -1,
       "video_timebase": {
        "den": 30,
        "num": 1
       },
       "width": 720
      },
      "replace_image": false,
      "id": "6SPUUOIG1O"
     },
     {
      "layer": 3000000,
      "title": "Transition",
      "type": "Mask",
      "position": 328.6,
      "start": 0,
      "end": 0.9583333333333212,
      "brightness": {
       "Points": [
        {
         "co": {
          "X": 1.0,
          "Y": -1.0
         },
         "handle_left": {
          "X": 0.5,
          "Y": 1.0
         },
         "handle_right": {
          "X": 0.5,
          "Y": 0.0
         },
         "handle_type": 0,
         "interpolation": 0
        },
        {
         "co": {
          "X": 29.0,
          "Y": 1.0
         },
         "handle_left": {
          "X": 0.5,
          "Y": 1.0
         },
         "handle_right": {
          "X": 0.5,
          "Y": 0.0
         },
         "handle_type": 0,
         "interpolation": 0
        }
       ]
      },
      "contrast": {
       "Points": [
        {
         "co": {
          "X": 1.0,
          "Y": 3.0
         },
         "handle_left": {
          "X": 0.5,
          "Y": 1.0
         },
         "handle_right": {
          "X": 0.5,
          "Y": 0.0
         },
         "handle_type": 0,
         "interpolation": 0
        },
        {
         "co": {
          "X": 29.0,
          "Y": 3.0
         },
         "handle_left": {
          "X": 0.5,
          "Y": 1.0
         },
         "handle_right": {
          "X": 0.5,
          "Y": 0.0
         },
         "handle_type": 0,
         "interpolation": 0
        }
       ]
      },
      "reader": {
       "acodec": "",
       "audio_bit_rate": 0,
       "audio_stream_index": -1,
       "audio_timebase": {
        "den": 1,
        "num": 1
       },
       "channel_layout": 4,
       "channels": 0,
       "display_ratio": {
        "den": 4,
        "num": 5
       },
       "duration": 3600.0,
       "file_size": "5832000",
       "fps": {
        "den": 1,
        "num": 30
       },
       "has_audio": false,
       "has_single_image": true,
       "has_video": true,
       "height": 576,
       "interlaced_frame": false,
       "metadata": {},
       "path": "@transitions/common/fade.svg",
       "pixel_format": -1,
       "pixel_ratio": {
        "den": 1,
        "num": 1
       },
       "sample_rate": 0,
       "top_field_first": true,
       "type": "QtImageReader",
       "vcodec": "",
       "video_bit_rate": 0,
       "video_length": "108000",
       "video_stream_index": -1,
       "video_timebase": {
        "den": 30,
        "num": 1
       },
       "width": 720
      },
      "replace_image": false,
      "id": "P8E8OYE1HL"
     },
     {
      "layer": 3000000,
      "title": "Transition",
      "type": "Mask",
      "position": 331.93333333333334,
      "start": 0,
      "end": 0.9583333333333212,
      "brightness": {
       "Points": [
        {
         "co": {
          "X": 1.0,
          "Y": 1.0
         },
         "handle_left": {
          "X": 0.5,
          "Y": 1.0
         },
         "handle_right": {
          "X": 0.5,
          "Y": 0.0
         },
         "handle_type": 0,
         "interpolation": 0
        },
        {
         "co": {
          "X": 29.0,
          "Y": -1.0
         },
         "handle_left": {
          "X": 0.5,
          "Y": 1.0
         },
         "handle_right": {
          "X": 0.5,
          "Y": 0.0
         },
         "handle_type": 0,
         "interpolation": 0
        }
       ]
      },
      "contrast": {
       "Points": [
        {
         "co": {
          "X": 1.0,
          "Y": 3.0
         },
         "handle_left": {
          "X": 0.5,
          "Y": 1.0
         },
         "handle_right": {
          "X": 0.5,
          "Y": 0.0
         },
         "handle_type": 0,
         "interpolation": 0
        },
        {
         "co": {
          "X": 29.0,
          "Y": 3.0
         },
         "handle_left": {
          "X": 0.5,
          "Y": 1.0
         },
         "handle_right": {
          "X": 0.5,
          "Y": 0.0
         },
         "handle_type": 0,
         "interpolation": 0
        }
       ]
      },
      "reader": {
       "acodec": "",
       "audio_bit_rate": 0,
       "audio_stream_index": -1,
       "audio_timebase": {
        "den": 1,
        "num": 1
       },
       "channel_layout": 4,
       "channels": 0,
       "display_ratio": {
        "den": 4,
        "num": 5
       },
       "duration": 3600.0,
       "file_size": "5832000",
       "fps": {
        "den": 1,
        "num": 30
       },
       "has_audio": false,
       "has_single_image": true,
       "has_video": true,
       "height": 576,
       "interlaced_frame": false,
       "metadata": {},
       "path": "@transitions/common/fade.svg",
       "pixel_format": -1,
       "pixel_ratio": {
        "den": 1,
        "num": 1
       },
       "sample_rate": 0,
       "top_field_first": true,
       "type": "QtImageReader",
       "vcodec": "",
       "video_bit_rate": 0,
       "video_length": "108000",
       "video_stream_index": -1,
       "video_timebase": {
        "den": 30,
        "num": 1
       },
       "width": 720
      },
      "replace_image": false,
      "id": "U8TADCPK80"
     },
     {
      "layer": 2000000,
      "title": "Transition",
      "type": "Mask",
      "position": 334.06666666666666,
      "start": 0,
      "end": 0.9583333333333212,
      "brightness": {
       "Points": [
        {
         "co": {
          "X": 1.0,
          "Y": 1.0
         },
         "handle_left": {
          "X": 0.5,
          "Y": 1.0
         },
         "handle_right": {
          "X": 0.5,
          "Y": 0.0
         },
         "handle_type": 0,
         "interpolation": 0
        },
        {
         "co": {
          "X": 29.0,
          "Y": -1.0
         },
         "handle_left": {
          "X": 0.5,
          "Y": 1.0
         },
         "handle_right": {
          "X": 0.5,
          "Y": 0.0
         },
         "handle_type": 0,
         "interpolation": 0
        }
       ]
      },
      "contrast": {
       "Points": [
        {
         "co": {
          "X": 1.0,
          "Y": 3.0
         },
         "handle_left": {
          "X": 0.5,
          "Y": 1.0
         },
         "handle_right": {
          "X": 0.5,
          "Y": 0.0
         },
         "handle_type": 0,
         "interpolation": 0
        },
        {
         "co": {
          "X": 29.0,
          "Y": 3.0
         },
         "handle_left": {
          "X": 0.5,
          "Y": 1.0
         },
         "handle_right": {
          "X": 0.5,
          "Y": 0.0
         },
         "handle_type": 0,
         "interpolation": 0
        }
       ]
      },
      "reader": {
       "acodec": "",
       "audio_bit_rate": 0,
       "audio_stream_index": -1,
       "audio_timebase": {
        "den": 1,
        "num": 1
       },
       "channel_layout": 4,
       "channels": 0,
       "display_ratio": {
        "den": 4,
        "num": 5
       },
       "duration": 3600.0,
       "file_size": "5832000",
       "fps": {
        "den": 1,
        "num": 30
       },
       "has_audio": false,
       "has_single_image": true,
       "has_video": true,
       "height": 576,
       "interlaced_frame": false,
       "metadata": {},
       "path": "@transitions/common/fade.svg",
       "pixel_format": -1,
       "pixel_ratio": {
        "den": 1,
        "num": 1
       },
       "sample_rate": 0,
       "top_field_first": true,
       "type": "QtImageReader",
       "vcodec": "",
       "video_bit_rate": 0,
       "video_length": "108000",
       "video_stream_index": -1,
       "video_timebase": {
        "den": 30,
        "num": 1
       },
       "width": 720
      },
      "replace_image": false,
      "id": "MJ858I17GB"
     },
     {
      "layer": 2000000,
      "title": "Transition",
      "type": "Mask",
      "position": 339.53333333333336,
      "start": 0,
      "end": 0.9583333333333212,
      "brightness": {
       "Points": [
        {
         "co": {
          "X": 1.0,
          "Y": -1.0
         },
         "handle_left": {
          "X": 0.5,
          "Y": 1.0
         },
         "handle_right": {
          "X": 0.5,
          "Y": 0.0
         },
         "handle_type": 0,
         "interpolation": 0
        },
        {
         "co": {
          "X": 29.0,
          "Y": 1.0
         },
         "handle_left": {
          "X": 0.5,
          "Y": 1.0
         },
         "handle_right": {
          "X": 0.5,
          "Y": 0.0
         },
         "handle_type": 0,
         "interpolation": 0
        }
       ]
      },
      "contrast": {
       "Points": [
        {
         "co": {
          "X": 1.0,
          "Y": 3.0
         },
         "handle_left": {
          "X": 0.5,
          "Y": 1.0
         },
         "handle_right": {
          "X": 0.5,
          "Y": 0.0
         },
         "handle_type": 0,
         "interpolation": 0
        },
        {
         "co": {
          "X": 29.0,
          "Y": 3.0
         },
         "handle_left": {
          "X": 0.5,
          "Y": 1.0
         },
         "handle_right": {
          "X": 0.5,
          "Y": 0.0
         },
         "handle_type": 0,
         "interpolation": 0
        }
       ]
      },
      "reader": {
       "acodec": "",
       "audio_bit_rate": 0,
       "audio_stream_index": -1,
       "audio_timebase": {
        "den": 1,
        "num": 1
       },
       "channel_layout": 4,
       "channels": 0,
       "display_ratio": {
        "den": 4,
        "num": 5
       },
       "duration": 3600.0,
       "file_size": "5832000",
       "fps": {
        "den": 1,
        "num": 30
       },
       "has_audio": false,
       "has_single_image": true,
       "has_video": true,
       "height": 576,
       "interlaced_frame": false,
       "metadata": {},
       "path": "@transitions/common/fade.svg",
       "pixel_format": -1,
       "pixel_ratio": {
        "den": 1,
        "num": 1
       },
       "sample_rate": 0,
       "top_field_first": true,
       "type": "QtImageReader",
       "vcodec": "",
       "video_bit_rate": 0,
       "video_length": "108000",
       "video_stream_index": -1,
       "video_timebase": {
        "den": 30,
        "num": 1
       },
       "width": 720
      },
      "replace_image": false,
      "id": "BRY9NYJBVJ"
     },
     {
      "layer": 3000000,
      "title": "Transition",
      "type": "Mask",
      "position": 342.3333333333333,
      "start": 0,
      "end": 0.9583333333333212,
      "brightness": {
       "Points": [
        {
         "co": {
          "X": 1.0,
          "Y": -1.0
         },
         "handle_left": {
          "X": 0.5,
          "Y": 1.0
         },
         "handle_right": {
          "X": 0.5,
          "Y": 0.0
         },
         "handle_type": 0,
         "interpolation": 0
        },
        {
         "co": {
          "X": 29.0,
          "Y": 1.0
         },
         "handle_left": {
          "X": 0.5,
          "Y": 1.0
         },
         "handle_right": {
          "X": 0.5,
          "Y": 0.0
         },
         "handle_type": 0,
         "interpolation": 0
        }
       ]
      },
      "contrast": {
       "Points": [
        {
         "co": {
          "X": 1.0,
          "Y": 3.0
         },
         "handle_left": {
          "X": 0.5,
          "Y": 1.0
         },
         "handle_right": {
          "X": 0.5,
          "Y": 0.0
         },
         "handle_type": 0,
         "interpolation": 0
        },
        {
         "co": {
          "X": 29.0,
          "Y": 3.0
         },
         "handle_left": {
          "X": 0.5,
          "Y": 1.0
         },
         "handle_right": {
          "X": 0.5,
          "Y": 0.0
         },
         "handle_type": 0,
         "interpolation": 0
        }
       ]
      },
      "reader": {
       "acodec": "",
       "audio_bit_rate": 0,
       "audio_stream_index": -1,
       "audio_timebase": {
        "den": 1,
        "num": 1
       },
       "channel_layout": 4,
       "channels": 0,
       "display_ratio": {
        "den": 4,
        "num": 5
       },
       "duration": 3600.0,
       "file_size": "5832000",
       "fps": {
        "den": 1,
        "num": 30
       },
       "has_audio": false,
       "has_single_image": true,
       "has_video": true,
       "height": 576,
       "interlaced_frame": false,
       "metadata": {},
       "path": "@transitions/common/fade.svg",
       "pixel_format": -1,
       "pixel_ratio": {
        "den": 1,
        "num": 1
       },
       "sample_rate": 0,
       "top_field_first": true,
       "type": "QtImageReader",
       "vcodec": "",
       "video_bit_rate": 0,
       "video_length": "108000",
       "video_stream_index": -1,
       "video_timebase": {
        "den": 30,
        "num": 1
       },
       "width": 720
      },
      "replace_image": false,
      "id": "S7KO8U24VG"
     },
     {
      "layer": 2000000,
      "title": "Transition",
      "type": "Mask",
      "position": 350.1,
      "start": 0,
      "end": 0.9583333333333212,
      "brightness": {
       "Points": [
        {
         "co": {
          "X": 1.0,
          "Y": 1.0
         },
         "handle_left": {
          "X": 0.5,
          "Y": 1.0
         },
         "handle_right": {
          "X": 0.5,
          "Y": 0.0
         },
         "handle_type": 0,
         "interpolation": 0
        },
        {
         "co": {
          "X": 29.0,
          "Y": -1.0
         },
         "handle_left": {
          "X": 0.5,
          "Y": 1.0
         },
         "handle_right": {
          "X": 0.5,
          "Y": 0.0
         },
         "handle_type": 0,
         "interpolation": 0
        }
       ]
      },
      "contrast": {
       "Points": [
        {
         "co": {
          "X": 1.0,
          "Y": 3.0
         },
         "handle_left": {
          "X": 0.5,
          "Y": 1.0
         },
         "handle_right": {
          "X": 0.5,
          "Y": 0.0
         },
         "handle_type": 0,
         "interpolation": 0
        },
        {
         "co": {
          "X": 29.0,
          "Y": 3.0
         },
         "handle_left": {
          "X": 0.5,
          "Y": 1.0
         },
         "handle_right": {
          "X": 0.5,
          "Y": 0.0
         },
         "handle_type": 0,
         "interpolation": 0
        }
       ]
      },
      "reader": {
       "acodec": "",
       "audio_bit_rate": 0,
       "audio_stream_index": -1,
       "audio_timebase": {
        "den": 1,
        "num": 1
       },
       "channel_layout": 4,
       "channels": 0,
       "display_ratio": {
        "den": 4,
        "num": 5
       },
       "duration": 3600.0,
       "file_size": "5832000",
       "fps": {
        "den": 1,
        "num": 30
       },
       "has_audio": false,
       "has_single_image": true,
       "has_video": true,
       "height": 576,
       "interlaced_frame": false,
       "metadata": {},
       "path": "@transitions/common/fade.svg",
       "pixel_format": -1,
       "pixel_ratio": {
        "den": 1,
        "num": 1
       },
       "sample_rate": 0,
       "top_field_first": true,
       "type": "QtImageReader",
       "vcodec": "",
       "video_bit_rate": 0,
       "video_length": "108000",
       "video_stream_index": -1,
       "video_timebase": {
        "den": 30,
        "num": 1
       },
       "width": 720
      },
      "replace_image": false,
      "id": "5AV58SED81"
     },
     {
      "layer": 1000000,
      "title": "Transition",
      "type": "Mask",
      "position": 349.46666666666664,
      "start": 0,
      "end": 0.9583333333333212,
      "brightness": {
       "Points": [
        {
         "co": {
          "X": 1.0,
          "Y": -1.0
         },
         "handle_left": {
          "X": 0.5,
          "Y": 1.0
         },
         "handle_right": {
          "X": 0.5,
          "Y": 0.0
         },
         "handle_type": 0,
         "interpolation": 0
        },
        {
         "co": {
          "X": 29.0,
          "Y": 1.0
         },
         "handle_left": {
          "X": 0.5,
          "Y": 1.0
         },
         "handle_right": {
          "X": 0.5,
          "Y": 0.0
         },
         "handle_type": 0,
         "interpolation": 0
        }
       ]
      },
      "contrast": {
       "Points": [
        {
         "co": {
          "X": 1.0,
          "Y": 3.0
         },
         "handle_left": {
          "X": 0.5,
          "Y": 1.0
         },
         "handle_right": {
          "X": 0.5,
          "Y": 0.0
         },
         "handle_type": 0,
         "interpolation": 0
        },
        {
         "co": {
          "X": 29.0,
          "Y": 3.0
         },
         "handle_left": {
          "X": 0.5,
          "Y": 1.0
         },
         "handle_right": {
          "X": 0.5,
          "Y": 0.0
         },
         "handle_type": 0,
         "interpolation": 0
        }
       ]
      },
      "reader": {
       "acodec": "",
       "audio_bit_rate": 0,
       "audio_stream_index": -1,
       "audio_timebase": {
        "den": 1,
        "num": 1
       },
       "channel_layout": 4,
       "channels": 0,
       "display_ratio": {
        "den": 4,
        "num": 5
       },
       "duration": 3600.0,
       "file_size": "5832000",
       "fps": {
        "den": 1,
        "num": 30
       },
       "has_audio": false,
       "has_single_image": true,
       "has_video": true,
       "height": 576,
       "interlaced_frame": false,
       "metadata": {},
       "path": "@transitions/common/fade.svg",
       "pixel_format": -1,
       "pixel_ratio": {
        "den": 1,
        "num": 1
       },
       "sample_rate": 0,
       "top_field_first": true,
       "type": "QtImageReader",
       "vcodec": "",
       "video_bit_rate": 0,
       "video_length": "108000",
       "video_stream_index": -1,
       "video_timebase": {
        "den": 30,
        "num": 1
       },
       "width": 720
      },
      "replace_image": false,
      "id": "8JGOS2299B"
     },
     {
      "layer": 2000000,
      "title": "Transition",
      "type": "Mask",
      "position": 351.8666666666667,
      "start": 0,
      "end": 0.9583333333333212,
      "brightness": {
       "Points": [
        {
         "co": {
          "X": 1.0,
          "Y": -1.0
         },
         "handle_left": {
          "X": 0.5,
          "Y": 1.0
         },
         "handle_right": {
          "X": 0.5,
          "Y": 0.0
         },
         "handle_type": 0,
         "interpolation": 0
        },
        {
         "co": {
          "X": 29.0,
          "Y": 1.0
         },
         "handle_left": {
          "X": 0.5,
          "Y": 1.0
         },
         "handle_right": {
          "X": 0.5,
          "Y": 0.0
         },
         "handle_type": 0,
         "interpolation": 0
        }
       ]
      },
      "contrast": {
       "Points": [
        {
         "co": {
          "X": 1.0,
          "Y": 3.0
         },
         "handle_left": {
          "X": 0.5,
          "Y": 1.0
         },
         "handle_right": {
          "X": 0.5,
          "Y": 0.0
         },
         "handle_type": 0,
         "interpolation": 0
        },
        {
         "co": {
          "X": 29.0,
          "Y": 3.0
         },
         "handle_left": {
          "X": 0.5,
          "Y": 1.0
         },
         "handle_right": {
          "X": 0.5,
          "Y": 0.0
         },
         "handle_type": 0,
         "interpolation": 0
        }
       ]
      },
      "reader": {
       "acodec": "",
       "audio_bit_rate": 0,
       "audio_stream_index": -1,
       "audio_timebase": {
        "den": 1,
        "num": 1
       },
       "channel_layout": 4,
       "channels": 0,
       "display_ratio": {
        "den": 4,
        "num": 5
       },
       "duration": 3600.0,
       "file_size": "5832000",
       "fps": {
        "den": 1,
        "num": 30
       },
       "has_audio": false,
       "has_single_image": true,
       "has_video": true,
       "height": 576,
       "interlaced_frame": false,
       "metadata": {},
       "path": "@transitions/common/fade.svg",
       "pixel_format": -1,
       "pixel_ratio": {
        "den": 1,
        "num": 1
       },
       "sample_rate": 0,
       "top_field_first": true,
       "type": "QtImageReader",
       "vcodec": "",
       "video_bit_rate": 0,
       "video_length": "108000",
       "video_stream_index": -1,
       "video_timebase": {
        "den": 30,
        "num": 1
       },
       "width": 720
      },
      "replace_image": false,
      "id": "5F68C2C237"
     },
     {
      "layer": 1000000,
      "title": "Transition",
      "type": "Mask",
      "position": 352.26666666666665,
      "start": 0,
      "end": 0.9583333333333212,
      "brightness": {
       "Points": [
        {
         "co": {
          "X": 1.0,
          "Y": 1.0
         },
         "handle_left": {
          "X": 0.5,
          "Y": 1.0
         },
         "handle_right": {
          "X": 0.5,
          "Y": 0.0
         },
         "handle_type": 0,
         "interpolation": 0
        },
        {
         "co": {
          "X": 29.0,
          "Y": -1.0
         },
         "handle_left": {
          "X": 0.5,
          "Y": 1.0
         },
         "handle_right": {
          "X": 0.5,
          "Y": 0.0
         },
         "handle_type": 0,
         "interpolation": 0
        }
       ]
      },
      "contrast": {
       "Points": [
        {
         "co": {
          "X": 1.0,
          "Y": 3.0
         },
         "handle_left": {
          "X": 0.5,
          "Y": 1.0
         },
         "handle_right": {
          "X": 0.5,
          "Y": 0.0
         },
         "handle_type": 0,
         "interpolation": 0
        },
        {
         "co": {
          "X": 29.0,
          "Y": 3.0
         },
         "handle_left": {
          "X": 0.5,
          "Y": 1.0
         },
         "handle_right": {
          "X": 0.5,
          "Y": 0.0
         },
         "handle_type": 0,
         "interpolation": 0
        }
       ]
      },
      "reader": {
       "acodec": "",
       "audio_bit_rate": 0,
       "audio_stream_index": -1,
       "audio_timebase": {
        "den": 1,
        "num": 1
       },
       "channel_layout": 4,
       "channels": 0,
       "display_ratio": {
        "den": 4,
        "num": 5
       },
       "duration": 3600.0,
       "file_size": "5832000",
       "fps": {
        "den": 1,
        "num": 30
       },
       "has_audio": false,
       "has_single_image": true,
       "has_video": true,
       "height": 576,
       "interlaced_frame": false,
       "metadata": {},
       "path": "@transitions/common/fade.svg",
       "pixel_format": -1,
       "pixel_ratio": {
        "den": 1,
        "num": 1
       },
       "sample_rate": 0,
       "top_field_first": true,
       "type": "QtImageReader",
       "vcodec": "",
       "video_bit_rate": 0,
       "video_length": "108000",
       "video_stream_index": -1,
       "video_timebase": {
        "den": 30,
        "num": 1
       },
       "width": 720
      },
      "replace_image": false,
      "id": "77AZRML20F"
     },
     {
      "layer": 3000000,
      "title": "Transition",
      "type": "Mask",
      "position": 353.6,
      "start": 0,
      "end": 0.9583333333333212,
      "brightness": {
       "Points": [
        {
         "co": {
          "X": 1.0,
          "Y": 1.0
         },
         "handle_left": {
          "X": 0.5,
          "Y": 1.0
         },
         "handle_right": {
          "X": 0.5,
          "Y": 0.0
         },
         "handle_type": 0,
         "interpolation": 0
        },
        {
         "co": {
          "X": 29.0,
          "Y": -1.0
         },
         "handle_left": {
          "X": 0.5,
          "Y": 1.0
         },
         "handle_right": {
          "X": 0.5,
          "Y": 0.0
         },
         "handle_type": 0,
         "interpolation": 0
        }
       ]
      },
      "contrast": {
       "Points": [
        {
         "co": {
          "X": 1.0,
          "Y": 3.0
         },
         "handle_left": {
          "X": 0.5,
          "Y": 1.0
         },
         "handle_right": {
          "X": 0.5,
          "Y": 0.0
         },
         "handle_type": 0,
         "interpolation": 0
        },
        {
         "co": {
          "X": 29.0,
          "Y": 3.0
         },
         "handle_left": {
          "X": 0.5,
          "Y": 1.0
         },
         "handle_right": {
          "X": 0.5,
          "Y": 0.0
         },
         "handle_type": 0,
         "interpolation": 0
        }
       ]
      },
      "reader": {
       "acodec": "",
       "audio_bit_rate": 0,
       "audio_stream_index": -1,
       "audio_timebase": {
        "den": 1,
        "num": 1
       },
       "channel_layout": 4,
       "channels": 0,
       "display_ratio": {
        "den": 4,
        "num": 5
       },
       "duration": 3600.0,
       "file_size": "5832000",
       "fps": {
        "den": 1,
        "num": 30
       },
       "has_audio": false,
       "has_single_image": true,
       "has_video": true,
       "height": 576,
       "interlaced_frame": false,
       "metadata": {},
       "path": "@transitions/common/fade.svg",
       "pixel_format": -1,
       "pixel_ratio": {
        "den": 1,
        "num": 1
       },
       "sample_rate": 0,
       "top_field_first": true,
       "type": "QtImageReader",
       "vcodec": "",
       "video_bit_rate": 0,
       "video_length": "108000",
       "video_stream_index": -1,
       "video_timebase": {
        "den": 30,
        "num": 1
       },
       "width": 720
      },
      "replace_image": false,
      "id": "MMJBZO0PWA"
     },
     {
      "layer": 2000000,
      "title": "Transition",
      "type": "Mask",
      "position": 354.56666666666666,
      "start": 0,
      "end": 0.9583333333333212,
      "brightness": {
       "Points": [
        {
         "co": {
          "X": 1.0,
          "Y": 1.0
         },
         "handle_left": {
          "X": 0.5,
          "Y": 1.0
         },
         "handle_right": {
          "X": 0.5,
          "Y": 0.0
         },
         "handle_type": 0,
         "interpolation": 0
        },
        {
         "co": {
          "X": 29.0,
          "Y": -1.0
         },
         "handle_left": {
          "X": 0.5,
          "Y": 1.0
         },
         "handle_right": {
          "X": 0.5,
          "Y": 0.0
         },
         "handle_type": 0,
         "interpolation": 0
        }
       ]
      },
      "contrast": {
       "Points": [
        {
         "co": {
          "X": 1.0,
          "Y": 3.0
         },
         "handle_left": {
          "X": 0.5,
          "Y": 1.0
         },
         "handle_right": {
          "X": 0.5,
          "Y": 0.0
         },
         "handle_type": 0,
         "interpolation": 0
        },
        {
         "co": {
          "X": 29.0,
          "Y": 3.0
         },
         "handle_left": {
          "X": 0.5,
          "Y": 1.0
         },
         "handle_right": {
          "X": 0.5,
          "Y": 0.0
         },
         "handle_type": 0,
         "interpolation": 0
        }
       ]
      },
      "reader": {
       "acodec": "",
       "audio_bit_rate": 0,
       "audio_stream_index": -1,
       "audio_timebase": {
        "den": 1,
        "num": 1
       },
       "channel_layout": 4,
       "channels": 0,
       "display_ratio": {
        "den": 4,
        "num": 5
       },
       "duration": 3600.0,
       "file_size": "5832000",
       "fps": {
        "den": 1,
        "num": 30
       },
       "has_audio": false,
       "has_single_image": true,
       "has_video": true,
       "height": 576,
       "interlaced_frame": false,
       "metadata": {},
       "path": "@transitions/common/fade.svg",
       "pixel_format": -1,
       "pixel_ratio": {
        "den": 1,
        "num": 1
       },
       "sample_rate": 0,
       "top_field_first": true,
       "type": "QtImageReader",
       "vcodec": "",
       "video_bit_rate": 0,
       "video_length": "108000",
       "video_stream_index": -1,
       "video_timebase": {
        "den": 30,
        "num": 1
       },
       "width": 720
      },
      "replace_image": false,
      "id": "5CAWVA5QQX"
     },
     {
      "layer": 3000000,
      "title": "Transition",
      "type": "Mask",
      "position": 361.3666666666667,
      "start": 0,
      "end": 0.9583333333333212,
      "brightness": {
       "Points": [
        {
         "co": {
          "X": 1.0,
          "Y": -1.0
         },
         "handle_left": {
          "X": 0.5,
          "Y": 1.0
         },
         "handle_right": {
          "X": 0.5,
          "Y": 0.0
         },
         "handle_type": 0,
         "interpolation": 0
        },
        {
         "co": {
          "X": 29.0,
          "Y": 1.0
         },
         "handle_left": {
          "X": 0.5,
          "Y": 1.0
         },
         "handle_right": {
          "X": 0.5,
          "Y": 0.0
         },
         "handle_type": 0,
         "interpolation": 0
        }
       ]
      },
      "contrast": {
       "Points": [
        {
         "co": {
          "X": 1.0,
          "Y": 3.0
         },
         "handle_left": {
          "X": 0.5,
          "Y": 1.0
         },
         "handle_right": {
          "X": 0.5,
          "Y": 0.0
         },
         "handle_type": 0,
         "interpolation": 0
        },
        {
         "co": {
          "X": 29.0,
          "Y": 3.0
         },
         "handle_left": {
          "X": 0.5,
          "Y": 1.0
         },
         "handle_right": {
          "X": 0.5,
          "Y": 0.0
         },
         "handle_type": 0,
         "interpolation": 0
        }
       ]
      },
      "reader": {
       "acodec": "",
       "audio_bit_rate": 0,
       "audio_stream_index": -1,
       "audio_timebase": {
        "den": 1,
        "num": 1
       },
       "channel_layout": 4,
       "channels": 0,
       "display_ratio": {
        "den": 4,
        "num": 5
       },
       "duration": 3600.0,
       "file_size": "5832000",
       "fps": {
        "den": 1,
        "num": 30
       },
       "has_audio": false,
       "has_single_image": true,
       "has_video": true,
       "height": 576,
       "interlaced_frame": false,
       "metadata": {},
       "path": "@transitions/common/fade.svg",
       "pixel_format": -1,
       "pixel_ratio": {
        "den": 1,
        "num": 1
       },
       "sample_rate": 0,
       "top_field_first": true,
       "type": "QtImageReader",
       "vcodec": "",
       "video_bit_rate": 0,
       "video_length": "108000",
       "video_stream_index": -1,
       "video_timebase": {
        "den": 30,
        "num": 1
       },
       "width": 720
      },
      "replace_image": false,
      "id": "DRFLC6XURC"
     },
     {
      "layer": 2000000,
      "title": "Transition",
      "type": "Mask",
      "position": 361.3666666666667,
      "start": 0,
      "end": 0.9583333333333212,
      "brightness": {
       "Points": [
        {
         "co": {
          "X": 1.0,
          "Y": -1.0
         },
         "handle_left": {
          "X": 0.5,
          "Y": 1.0
         },
         "handle_right": {
          "X": 0.5,
          "Y": 0.0
         },
         "handle_type": 0,
         "interpolation": 0
        },
        {
         "co": {
          "X": 29.0,
          "Y": 1.0
         },
         "handle_left": {
          "X": 0.5,
          "Y": 1.0
         },
         "handle_right": {
          "X": 0.5,
          "Y": 0.0
         },
         "handle_type": 0,
         "interpolation": 0
        }
       ]
      },
      "contrast": {
       "Points": [
        {
         "co": {
          "X": 1.0,
          "Y": 3.0
         },
         "handle_left": {
          "X": 0.5,
          "Y": 1.0
         },
         "handle_right": {
          "X": 0.5,
          "Y": 0.0
         },
         "handle_type": 0,
         "interpolation": 0
        },
        {
         "co": {
          "X": 29.0,
          "Y": 3.0
         },
         "handle_left": {
          "X": 0.5,
          "Y": 1.0
         },
         "handle_right": {
          "X": 0.5,
          "Y": 0.0
         },
         "handle_type": 0,
         "interpolation": 0
        }
       ]
      },
      "reader": {
       "acodec": "",
       "audio_bit_rate": 0,
       "audio_stream_index": -1,
       "audio_timebase": {
        "den": 1,
        "num": 1
       },
       "channel_layout": 4,
       "channels": 0,
       "display_ratio": {
        "den": 4,
        "num": 5
       },
       "duration": 3600.0,
       "file_size": "5832000",
       "fps": {
        "den": 1,
        "num": 30
       },
       "has_audio": false,
       "has_single_image": true,
       "has_video": true,
       "height": 576,
       "interlaced_frame": false,
       "metadata": {},
       "path": "@transitions/common/fade.svg",
       "pixel_format": -1,
       "pixel_ratio": {
        "den": 1,
        "num": 1
       },
       "sample_rate": 0,
       "top_field_first": true,
       "type": "QtImageReader",
       "vcodec": "",
       "video_bit_rate": 0,
       "video_length": "108000",
       "video_stream_index": -1,
       "video_timebase": {
        "den": 30,
        "num": 1
       },
       "width": 720
      },
      "replace_image": false,
      "id": "QF9XRRUE6J"
     },
     {
      "id": "FC1M7VZDMT",
      "layer": 1000000,
      "title": "Transition",
      "type": "Mask",
      "position": 366.1,
      "start": 0,
      "end": 0.8551973066132632,
      "brightness": {
       "Points": [
        {
         "co": {
          "X": 1.0,
          "Y": 1.0
         },
         "handle_left": {
          "X": 0.5,
          "Y": 1.0
         },
         "handle_right": {
          "X": 0.5,
          "Y": 0.0
         },
         "handle_type": 0,
         "interpolation": 0
        },
        {
         "co": {
          "X": 27.0,
          "Y": -1.0
         },
         "handle_left": {
          "X": 0.5,
          "Y": 1.0
         },
         "handle_right": {
          "X": 0.5,
          "Y": 0.0
         },
         "handle_type": 0,
         "interpolation": 0
        }
       ]
      },
      "contrast": {
       "Points": [
        {
         "co": {
          "X": 1.0,
          "Y": 3.0
         },
         "handle_left": {
          "X": 0.5,
          "Y": 1.0
         },
         "handle_right": {
          "X": 0.5,
          "Y": 0.0
         },
         "handle_type": 0,
         "interpolation": 0
        }
       ]
      },
      "reader": {
       "acodec": "",
       "audio_bit_rate": 0,
       "audio_stream_index": -1,
       "audio_timebase": {
        "den": 1,
        "num": 1
       },
       "channel_layout": 4,
       "channels": 0,
       "display_ratio": {
        "den": 4,
        "num": 5
       },
       "duration": 3600.0,
       "file_size": "5832000",
       "fps": {
        "den": 1,
        "num": 30
       },
       "has_audio": false,
       "has_single_image": true,
       "has_video": true,
       "height": 576,
       "interlaced_frame": false,
       "metadata": {},
       "path": "@transitions/common/fade.svg",
       "pixel_format": -1,
       "pixel_ratio": {
        "den": 1,
        "num": 1
       },
       "sample_rate": 0,
       "top_field_first": true,
       "type": "QtImageReader",
       "vcodec": "",
       "video_bit_rate": 0,
       "video_length": "108000",
       "video_stream_index": -1,
       "video_timebase": {
        "den": 30,
        "num": 1
       },
       "width": 720
      },
      "replace_image": false
     },
     {
      "layer": 2000000,
      "title": "Transition",
      "type": "Mask",
      "position": 367.93333333333334,
      "start": 0,
      "end": 0.9583333333333212,
      "brightness": {
       "Points": [
        {
         "co": {
          "X": 1.0,
          "Y": 1.0
         },
         "handle_left": {
          "X": 0.5,
          "Y": 1.0
         },
         "handle_right": {
          "X": 0.5,
          "Y": 0.0
         },
         "handle_type": 0,
         "interpolation": 0
        },
        {
         "co": {
          "X": 29.0,
          "Y": -1.0
         },
         "handle_left": {
          "X": 0.5,
          "Y": 1.0
         },
         "handle_right": {
          "X": 0.5,
          "Y": 0.0
         },
         "handle_type": 0,
         "interpolation": 0
        }
       ]
      },
      "contrast": {
       "Points": [
        {
         "co": {
          "X": 1.0,
          "Y": 3.0
         },
         "handle_left": {
          "X": 0.5,
          "Y": 1.0
         },
         "handle_right": {
          "X": 0.5,
          "Y": 0.0
         },
         "handle_type": 0,
         "interpolation": 0
        },
        {
         "co": {
          "X": 29.0,
          "Y": 3.0
         },
         "handle_left": {
          "X": 0.5,
          "Y": 1.0
         },
         "handle_right": {
          "X": 0.5,
          "Y": 0.0
         },
         "handle_type": 0,
         "interpolation": 0
        }
       ]
      },
      "reader": {
       "acodec": "",
       "audio_bit_rate": 0,
       "audio_stream_index": -1,
       "audio_timebase": {
        "den": 1,
        "num": 1
       },
       "channel_layout": 4,
       "channels": 0,
       "display_ratio": {
        "den": 4,
        "num": 5
       },
       "duration": 3600.0,
       "file_size": "5832000",
       "fps": {
        "den": 1,
        "num": 30
       },
       "has_audio": false,
       "has_single_image": true,
       "has_video": true,
       "height": 576,
       "interlaced_frame": false,
       "metadata": {},
       "path": "@transitions/common/fade.svg",
       "pixel_format": -1,
       "pixel_ratio": {
        "den": 1,
        "num": 1
       },
       "sample_rate": 0,
       "top_field_first": true,
       "type": "QtImageReader",
       "vcodec": "",
       "video_bit_rate": 0,
       "video_length": "108000",
       "video_stream_index": -1,
       "video_timebase": {
        "den": 30,
        "num": 1
       },
       "width": 720
      },
      "replace_image": false,
      "id": "OHK6WN896H"
     },
     {
      "layer": 3000000,
      "title": "Transition",
      "type": "Mask",
      "position": 366.96666666666664,
      "start": 0,
      "end": 0.9583333333333212,
      "brightness": {
       "Points": [
        {
         "co": {
          "X": 1.0,
          "Y": 1.0
         },
         "handle_left": {
          "X": 0.5,
          "Y": 1.0
         },
         "handle_right": {
          "X": 0.5,
          "Y": 0.0
         },
         "handle_type": 0,
         "interpolation": 0
        },
        {
         "co": {
          "X": 29.0,
          "Y": -1.0
         },
         "handle_left": {
          "X": 0.5,
          "Y": 1.0
         },
         "handle_right": {
          "X": 0.5,
          "Y": 0.0
         },
         "handle_type": 0,
         "interpolation": 0
        }
       ]
      },
      "contrast": {
       "Points": [
        {
         "co": {
          "X": 1.0,
          "Y": 3.0
         },
         "handle_left": {
          "X": 0.5,
          "Y": 1.0
         },
         "handle_right": {
          "X": 0.5,
          "Y": 0.0
         },
         "handle_type": 0,
         "interpolation": 0
        },
        {
         "co": {
          "X": 29.0,
          "Y": 3.0
         },
         "handle_left": {
          "X": 0.5,
          "Y": 1.0
         },
         "handle_right": {
          "X": 0.5,
          "Y": 0.0
         },
         "handle_type": 0,
         "interpolation": 0
        }
       ]
      },
      "reader": {
       "acodec": "",
       "audio_bit_rate": 0,
       "audio_stream_index": -1,
       "audio_timebase": {
        "den": 1,
        "num": 1
       },
       "channel_layout": 4,
       "channels": 0,
       "display_ratio": {
        "den": 4,
        "num": 5
       },
       "duration": 3600.0,
       "file_size": "5832000",
       "fps": {
        "den": 1,
        "num": 30
       },
       "has_audio": false,
       "has_single_image": true,
       "has_video": true,
       "height": 576,
       "interlaced_frame": false,
       "metadata": {},
       "path": "@transitions/common/fade.svg",
       "pixel_format": -1,
       "pixel_ratio": {
        "den": 1,
        "num": 1
       },
       "sample_rate": 0,
       "top_field_first": true,
       "type": "QtImageReader",
       "vcodec": "",
       "video_bit_rate": 0,
       "video_length": "108000",
       "video_stream_index": -1,
       "video_timebase": {
        "den": 30,
        "num": 1
       },
       "width": 720
      },
      "replace_image": false,
      "id": "OA6OCOHDKK"
     },
     {
      "layer": 2000000,
      "title": "Transition",
      "type": "Mask",
      "position": 377.6,
      "start": 0,
      "end": 0.9583333333333212,
      "brightness": {
       "Points": [
        {
         "co": {
          "X": 1.0,
          "Y": -1.0
         },
         "handle_left": {
          "X": 0.5,
          "Y": 1.0
         },
         "handle_right": {
          "X": 0.5,
          "Y": 0.0
         },
         "handle_type": 0,
         "interpolation": 0
        },
        {
         "co": {
          "X": 29.0,
          "Y": 1.0
         },
         "handle_left": {
          "X": 0.5,
          "Y": 1.0
         },
         "handle_right": {
          "X": 0.5,
          "Y": 0.0
         },
         "handle_type": 0,
         "interpolation": 0
        }
       ]
      },
      "contrast": {
       "Points": [
        {
         "co": {
          "X": 1.0,
          "Y": 3.0
         },
         "handle_left": {
          "X": 0.5,
          "Y": 1.0
         },
         "handle_right": {
          "X": 0.5,
          "Y": 0.0
         },
         "handle_type": 0,
         "interpolation": 0
        },
        {
         "co": {
          "X": 29.0,
          "Y": 3.0
         },
         "handle_left": {
          "X": 0.5,
          "Y": 1.0
         },
         "handle_right": {
          "X": 0.5,
          "Y": 0.0
         },
         "handle_type": 0,
         "interpolation": 0
        }
       ]
      },
      "reader": {
       "acodec": "",
       "audio_bit_rate": 0,
       "audio_stream_index": -1,
       "audio_timebase": {
        "den": 1,
        "num": 1
       },
       "channel_layout": 4,
       "channels": 0,
       "display_ratio": {
        "den": 4,
        "num": 5
       },
       "duration": 3600.0,
       "file_size": "5832000",
       "fps": {
        "den": 1,
        "num": 30
       },
       "has_audio": false,
       "has_single_image": true,
       "has_video": true,
       "height": 576,
       "interlaced_frame": false,
       "metadata": {},
       "path": "@transitions/common/fade.svg",
       "pixel_format": -1,
       "pixel_ratio": {
        "den": 1,
        "num": 1
       },
       "sample_rate": 0,
       "top_field_first": true,
       "type": "QtImageReader",
       "vcodec": "",
       "video_bit_rate": 0,
       "video_length": "108000",
       "video_stream_index": -1,
       "video_timebase": {
        "den": 30,
        "num": 1
       },
       "width": 720
      },
      "replace_image": false,
      "id": "421OPHR9MK"
     },
     {
      "layer": 3000000,
      "title": "Transition",
      "type": "Mask",
      "position": 377.6,
      "start": 0,
      "end": 0.9583333333333212,
      "brightness": {
       "Points": [
        {
         "co": {
          "X": 1.0,
          "Y": -1.0
         },
         "handle_left": {
          "X": 0.5,
          "Y": 1.0
         },
         "handle_right": {
          "X": 0.5,
          "Y": 0.0
         },
         "handle_type": 0,
         "interpolation": 0
        },
        {
         "co": {
          "X": 29.0,
          "Y": 1.0
         },
         "handle_left": {
          "X": 0.5,
          "Y": 1.0
         },
         "handle_right": {
          "X": 0.5,
          "Y": 0.0
         },
         "handle_type": 0,
         "interpolation": 0
        }
       ]
      },
      "contrast": {
       "Points": [
        {
         "co": {
          "X": 1.0,
          "Y": 3.0
         },
         "handle_left": {
          "X": 0.5,
          "Y": 1.0
         },
         "handle_right": {
          "X": 0.5,
          "Y": 0.0
         },
         "handle_type": 0,
         "interpolation": 0
        },
        {
         "co": {
          "X": 29.0,
          "Y": 3.0
         },
         "handle_left": {
          "X": 0.5,
          "Y": 1.0
         },
         "handle_right": {
          "X": 0.5,
          "Y": 0.0
         },
         "handle_type": 0,
         "interpolation": 0
        }
       ]
      },
      "reader": {
       "acodec": "",
       "audio_bit_rate": 0,
       "audio_stream_index": -1,
       "audio_timebase": {
        "den": 1,
        "num": 1
       },
       "channel_layout": 4,
       "channels": 0,
       "display_ratio": {
        "den": 4,
        "num": 5
       },
       "duration": 3600.0,
       "file_size": "5832000",
       "fps": {
        "den": 1,
        "num": 30
       },
       "has_audio": false,
       "has_single_image": true,
       "has_video": true,
       "height": 576,
       "interlaced_frame": false,
       "metadata": {},
       "path": "@transitions/common/fade.svg",
       "pixel_format": -1,
       "pixel_ratio": {
        "den": 1,
        "num": 1
       },
       "sample_rate": 0,
       "top_field_first": true,
       "type": "QtImageReader",
       "vcodec": "",
       "video_bit_rate": 0,
       "video_length": "108000",
       "video_stream_index": -1,
       "video_timebase": {
        "den": 30,
        "num": 1
       },
       "width": 720
      },
      "replace_image": false,
      "id": "H386U9MYCS"
     },
     {
      "id": "DEQDSRBIJG",
      "layer": 1000000,
      "title": "Transition",
      "type": "Mask",
      "position": 381.3666666666667,
      "start": 0,
      "end": 0.5666666666666629,
      "brightness": {
       "Points": [
        {
         "co": {
          "X": 1.0,
          "Y": 1.0
         },
         "handle_left": {
          "X": 0.5,
          "Y": 1.0
         },
         "handle_right": {
          "X": 0.5,
          "Y": 0.0
         },
         "handle_type": 0,
         "interpolation": 0
        },
        {
         "co": {
          "X": 18.0,
          "Y": -1.0
         },
         "handle_left": {
          "X": 0.5,
          "Y": 1.0
         },
         "handle_right": {
          "X": 0.5,
          "Y": 0.0
         },
         "handle_type": 0,
         "interpolation": 0
        }
       ]
      },
      "contrast": {
       "Points": [
        {
         "co": {
          "X": 1.0,
          "Y": 3.0
         },
         "handle_left": {
          "X": 0.5,
          "Y": 1.0
         },
         "handle_right": {
          "X": 0.5,
          "Y": 0.0
         },
         "handle_type": 0,
         "interpolation": 0
        }
       ]
      },
      "reader": {
       "acodec": "",
       "audio_bit_rate": 0,
       "audio_stream_index": -1,
       "audio_timebase": {
        "den": 1,
        "num": 1
       },
       "channel_layout": 4,
       "channels": 0,
       "display_ratio": {
        "den": 4,
        "num": 5
       },
       "duration": 3600.0,
       "file_size": "5832000",
       "fps": {
        "den": 1,
        "num": 30
       },
       "has_audio": false,
       "has_single_image": true,
       "has_video": true,
       "height": 576,
       "interlaced_frame": false,
       "metadata": {},
       "path": "@transitions/common/fade.svg",
       "pixel_format": -1,
       "pixel_ratio": {
        "den": 1,
        "num": 1
       },
       "sample_rate": 0,
       "top_field_first": true,
       "type": "QtImageReader",
       "vcodec": "",
       "video_bit_rate": 0,
       "video_length": "108000",
       "video_stream_index": -1,
       "video_timebase": {
        "den": 30,
        "num": 1
       },
       "width": 720
      },
      "replace_image": false
     },
     {
      "layer": 3000000,
      "title": "Transition",
      "type": "Mask",
      "position": 381.93333333333334,
      "start": 0,
      "end": 0.9583333333333212,
      "brightness": {
       "Points": [
        {
         "co": {
          "X": 1.0,
          "Y": 1.0
         },
         "handle_left": {
          "X": 0.5,
          "Y": 1.0
         },
         "handle_right": {
          "X": 0.5,
          "Y": 0.0
         },
         "handle_type": 0,
         "interpolation": 0
        },
        {
         "co": {
          "X": 29.0,
          "Y": -1.0
         },
         "handle_left": {
          "X": 0.5,
          "Y": 1.0
         },
         "handle_right": {
          "X": 0.5,
          "Y": 0.0
         },
         "handle_type": 0,
         "interpolation": 0
        }
       ]
      },
      "contrast": {
       "Points": [
        {
         "co": {
          "X": 1.0,
          "Y": 3.0
         },
         "handle_left": {
          "X": 0.5,
          "Y": 1.0
         },
         "handle_right": {
          "X": 0.5,
          "Y": 0.0
         },
         "handle_type": 0,
         "interpolation": 0
        },
        {
         "co": {
          "X": 29.0,
          "Y": 3.0
         },
         "handle_left": {
          "X": 0.5,
          "Y": 1.0
         },
         "handle_right": {
          "X": 0.5,
          "Y": 0.0
         },
         "handle_type": 0,
         "interpolation": 0
        }
       ]
      },
      "reader": {
       "acodec": "",
       "audio_bit_rate": 0,
       "audio_stream_index": -1,
       "audio_timebase": {
        "den": 1,
        "num": 1
       },
       "channel_layout": 4,
       "channels": 0,
       "display_ratio": {
        "den": 4,
        "num": 5
       },
       "duration": 3600.0,
       "file_size": "5832000",
       "fps": {
        "den": 1,
        "num": 30
       },
       "has_audio": false,
       "has_single_image": true,
       "has_video": true,
       "height": 576,
       "interlaced_frame": false,
       "metadata": {},
       "path": "@transitions/common/fade.svg",
       "pixel_format": -1,
       "pixel_ratio": {
        "den": 1,
        "num": 1
       },
       "sample_rate": 0,
       "top_field_first": true,
       "type": "QtImageReader",
       "vcodec": "",
       "video_bit_rate": 0,
       "video_length": "108000",
       "video_stream_index": -1,
       "video_timebase": {
        "den": 30,
        "num": 1
       },
       "width": 720
      },
      "replace_image": false,
      "id": "DFSNRTEII0"
     },
     {
      "layer": 2000000,
      "title": "Transition",
      "type": "Mask",
      "position": 382.6666666666667,
      "start": 0,
      "end": 0.9583333333333212,
      "brightness": {
       "Points": [
        {
         "co": {
          "X": 1.0,
          "Y": 1.0
         },
         "handle_left": {
          "X": 0.5,
          "Y": 1.0
         },
         "handle_right": {
          "X": 0.5,
          "Y": 0.0
         },
         "handle_type": 0,
         "interpolation": 0
        },
        {
         "co": {
          "X": 29.0,
          "Y": -1.0
         },
         "handle_left": {
          "X": 0.5,
          "Y": 1.0
         },
         "handle_right": {
          "X": 0.5,
          "Y": 0.0
         },
         "handle_type": 0,
         "interpolation": 0
        }
       ]
      },
      "contrast": {
       "Points": [
        {
         "co": {
          "X": 1.0,
          "Y": 3.0
         },
         "handle_left": {
          "X": 0.5,
          "Y": 1.0
         },
         "handle_right": {
          "X": 0.5,
          "Y": 0.0
         },
         "handle_type": 0,
         "interpolation": 0
        },
        {
         "co": {
          "X": 29.0,
          "Y": 3.0
         },
         "handle_left": {
          "X": 0.5,
          "Y": 1.0
         },
         "handle_right": {
          "X": 0.5,
          "Y": 0.0
         },
         "handle_type": 0,
         "interpolation": 0
        }
       ]
      },
      "reader": {
       "acodec": "",
       "audio_bit_rate": 0,
       "audio_stream_index": -1,
       "audio_timebase": {
        "den": 1,
        "num": 1
       },
       "channel_layout": 4,
       "channels": 0,
       "display_ratio": {
        "den": 4,
        "num": 5
       },
       "duration": 3600.0,
       "file_size": "5832000",
       "fps": {
        "den": 1,
        "num": 30
       },
       "has_audio": false,
       "has_single_image": true,
       "has_video": true,
       "height": 576,
       "interlaced_frame": false,
       "metadata": {},
       "path": "@transitions/common/fade.svg",
       "pixel_format": -1,
       "pixel_ratio": {
        "den": 1,
        "num": 1
       },
       "sample_rate": 0,
       "top_field_first": true,
       "type": "QtImageReader",
       "vcodec": "",
       "video_bit_rate": 0,
       "video_length": "108000",
       "video_stream_index": -1,
       "video_timebase": {
        "den": 30,
        "num": 1
       },
       "width": 720
      },
      "replace_image": false,
      "id": "P8FSUID5CI"
     },
     {
      "layer": 3000000,
      "title": "Transition",
      "type": "Mask",
      "position": 389.76666666666665,
      "start": 0,
      "end": 0.9583333333333212,
      "brightness": {
       "Points": [
        {
         "co": {
          "X": 1.0,
          "Y": -1.0
         },
         "handle_left": {
          "X": 0.5,
          "Y": 1.0
         },
         "handle_right": {
          "X": 0.5,
          "Y": 0.0
         },
         "handle_type": 0,
         "interpolation": 0
        },
        {
         "co": {
          "X": 29.0,
          "Y": 1.0
         },
         "handle_left": {
          "X": 0.5,
          "Y": 1.0
         },
         "handle_right": {
          "X": 0.5,
          "Y": 0.0
         },
         "handle_type": 0,
         "interpolation": 0
        }
       ]
      },
      "contrast": {
       "Points": [
        {
         "co": {
          "X": 1.0,
          "Y": 3.0
         },
         "handle_left": {
          "X": 0.5,
          "Y": 1.0
         },
         "handle_right": {
          "X": 0.5,
          "Y": 0.0
         },
         "handle_type": 0,
         "interpolation": 0
        },
        {
         "co": {
          "X": 29.0,
          "Y": 3.0
         },
         "handle_left": {
          "X": 0.5,
          "Y": 1.0
         },
         "handle_right": {
          "X": 0.5,
          "Y": 0.0
         },
         "handle_type": 0,
         "interpolation": 0
        }
       ]
      },
      "reader": {
       "acodec": "",
       "audio_bit_rate": 0,
       "audio_stream_index": -1,
       "audio_timebase": {
        "den": 1,
        "num": 1
       },
       "channel_layout": 4,
       "channels": 0,
       "display_ratio": {
        "den": 4,
        "num": 5
       },
       "duration": 3600.0,
       "file_size": "5832000",
       "fps": {
        "den": 1,
        "num": 30
       },
       "has_audio": false,
       "has_single_image": true,
       "has_video": true,
       "height": 576,
       "interlaced_frame": false,
       "metadata": {},
       "path": "@transitions/common/fade.svg",
       "pixel_format": -1,
       "pixel_ratio": {
        "den": 1,
        "num": 1
       },
       "sample_rate": 0,
       "top_field_first": true,
       "type": "QtImageReader",
       "vcodec": "",
       "video_bit_rate": 0,
       "video_length": "108000",
       "video_stream_index": -1,
       "video_timebase": {
        "den": 30,
        "num": 1
       },
       "width": 720
      },
      "replace_image": false,
      "id": "VBQ9Z01OL0"
     },
     {
      "layer": 2000000,
      "title": "Transition",
      "type": "Mask",
      "position": 389.76666666666665,
      "start": 0,
      "end": 0.9583333333333212,
      "brightness": {
       "Points": [
        {
         "co": {
          "X": 1.0,
          "Y": -1.0
         },
         "handle_left": {
          "X": 0.5,
          "Y": 1.0
         },
         "handle_right": {
          "X": 0.5,
          "Y": 0.0
         },
         "handle_type": 0,
         "interpolation": 0
        },
        {
         "co": {
          "X": 29.0,
          "Y": 1.0
         },
         "handle_left": {
          "X": 0.5,
          "Y": 1.0
         },
         "handle_right": {
          "X": 0.5,
          "Y": 0.0
         },
         "handle_type": 0,
         "interpolation": 0
        }
       ]
      },
      "contrast": {
       "Points": [
        {
         "co": {
          "X": 1.0,
          "Y": 3.0
         },
         "handle_left": {
          "X": 0.5,
          "Y": 1.0
         },
         "handle_right": {
          "X": 0.5,
          "Y": 0.0
         },
         "handle_type": 0,
         "interpolation": 0
        },
        {
         "co": {
          "X": 29.0,
          "Y": 3.0
         },
         "handle_left": {
          "X": 0.5,
          "Y": 1.0
         },
         "handle_right": {
          "X": 0.5,
          "Y": 0.0
         },
         "handle_type": 0,
         "interpolation": 0
        }
       ]
      },
      "reader": {
       "acodec": "",
       "audio_bit_rate": 0,
       "audio_stream_index": -1,
       "audio_timebase": {
        "den": 1,
        "num": 1
       },
       "channel_layout": 4,
       "channels": 0,
       "display_ratio": {
        "den": 4,
        "num": 5
       },
       "duration": 3600.0,
       "file_size": "5832000",
       "fps": {
        "den": 1,
        "num": 30
       },
       "has_audio": false,
       "has_single_image": true,
       "has_video": true,
       "height": 576,
       "interlaced_frame": false,
       "metadata": {},
       "path": "@transitions/common/fade.svg",
       "pixel_format": -1,
       "pixel_ratio": {
        "den": 1,
        "num": 1
       },
       "sample_rate": 0,
       "top_field_first": true,
       "type": "QtImageReader",
       "vcodec": "",
       "video_bit_rate": 0,
       "video_length": "108000",
       "video_stream_index": -1,
       "video_timebase": {
        "den": 30,
        "num": 1
       },
       "width": 720
      },
      "replace_image": false,
      "id": "IEZZK69CXI"
     },
     {
      "layer": 1000000,
      "title": "Transition",
      "type": "Mask",
      "position": 401.3666666666667,
      "start": 0,
      "end": 0.9583333333333212,
      "brightness": {
       "Points": [
        {
         "co": {
          "X": 1.0,
          "Y": -1.0
         },
         "handle_left": {
          "X": 0.5,
          "Y": 1.0
         },
         "handle_right": {
          "X": 0.5,
          "Y": 0.0
         },
         "handle_type": 0,
         "interpolation": 0
        },
        {
         "co": {
          "X": 29.0,
          "Y": 1.0
         },
         "handle_left": {
          "X": 0.5,
          "Y": 1.0
         },
         "handle_right": {
          "X": 0.5,
          "Y": 0.0
         },
         "handle_type": 0,
         "interpolation": 0
        }
       ]
      },
      "contrast": {
       "Points": [
        {
         "co": {
          "X": 1.0,
          "Y": 3.0
         },
         "handle_left": {
          "X": 0.5,
          "Y": 1.0
         },
         "handle_right": {
          "X": 0.5,
          "Y": 0.0
         },
         "handle_type": 0,
         "interpolation": 0
        },
        {
         "co": {
          "X": 29.0,
          "Y": 3.0
         },
         "handle_left": {
          "X": 0.5,
          "Y": 1.0
         },
         "handle_right": {
          "X": 0.5,
          "Y": 0.0
         },
         "handle_type": 0,
         "interpolation": 0
        }
       ]
      },
      "reader": {
       "acodec": "",
       "audio_bit_rate": 0,
       "audio_stream_index": -1,
       "audio_timebase": {
        "den": 1,
        "num": 1
       },
       "channel_layout": 4,
       "channels": 0,
       "display_ratio": {
        "den": 4,
        "num": 5
       },
       "duration": 3600.0,
       "file_size": "5832000",
       "fps": {
        "den": 1,
        "num": 30
       },
       "has_audio": false,
       "has_single_image": true,
       "has_video": true,
       "height": 576,
       "interlaced_frame": false,
       "metadata": {},
       "path": "@transitions/common/fade.svg",
       "pixel_format": -1,
       "pixel_ratio": {
        "den": 1,
        "num": 1
       },
       "sample_rate": 0,
       "top_field_first": true,
       "type": "QtImageReader",
       "vcodec": "",
       "video_bit_rate": 0,
       "video_length": "108000",
       "video_stream_index": -1,
       "video_timebase": {
        "den": 30,
        "num": 1
       },
       "width": 720
      },
      "replace_image": false,
      "id": "GJ22WRRCCZ"
     },
     {
      "layer": 3000000,
      "title": "Transition",
      "type": "Mask",
      "position": 402.3333333333333,
      "start": 0,
      "end": 0.9583333333333212,
      "brightness": {
       "Points": [
        {
         "co": {
          "X": 1.0,
          "Y": 1.0
         },
         "handle_left": {
          "X": 0.5,
          "Y": 1.0
         },
         "handle_right": {
          "X": 0.5,
          "Y": 0.0
         },
         "handle_type": 0,
         "interpolation": 0
        },
        {
         "co": {
          "X": 29.0,
          "Y": -1.0
         },
         "handle_left": {
          "X": 0.5,
          "Y": 1.0
         },
         "handle_right": {
          "X": 0.5,
          "Y": 0.0
         },
         "handle_type": 0,
         "interpolation": 0
        }
       ]
      },
      "contrast": {
       "Points": [
        {
         "co": {
          "X": 1.0,
          "Y": 3.0
         },
         "handle_left": {
          "X": 0.5,
          "Y": 1.0
         },
         "handle_right": {
          "X": 0.5,
          "Y": 0.0
         },
         "handle_type": 0,
         "interpolation": 0
        },
        {
         "co": {
          "X": 29.0,
          "Y": 3.0
         },
         "handle_left": {
          "X": 0.5,
          "Y": 1.0
         },
         "handle_right": {
          "X": 0.5,
          "Y": 0.0
         },
         "handle_type": 0,
         "interpolation": 0
        }
       ]
      },
      "reader": {
       "acodec": "",
       "audio_bit_rate": 0,
       "audio_stream_index": -1,
       "audio_timebase": {
        "den": 1,
        "num": 1
       },
       "channel_layout": 4,
       "channels": 0,
       "display_ratio": {
        "den": 4,
        "num": 5
       },
       "duration": 3600.0,
       "file_size": "5832000",
       "fps": {
        "den": 1,
        "num": 30
       },
       "has_audio": false,
       "has_single_image": true,
       "has_video": true,
       "height": 576,
       "interlaced_frame": false,
       "metadata": {},
       "path": "@transitions/common/fade.svg",
       "pixel_format": -1,
       "pixel_ratio": {
        "den": 1,
        "num": 1
       },
       "sample_rate": 0,
       "top_field_first": true,
       "type": "QtImageReader",
       "vcodec": "",
       "video_bit_rate": 0,
       "video_length": "108000",
       "video_stream_index": -1,
       "video_timebase": {
        "den": 30,
        "num": 1
       },
       "width": 720
      },
      "replace_image": false,
      "id": "4P7MOTCP3S"
     },
     {
      "layer": 2000000,
      "title": "Transition",
      "type": "Mask",
      "position": 403.3,
      "start": 0,
      "end": 0.9583333333333212,
      "brightness": {
       "Points": [
        {
         "co": {
          "X": 1.0,
          "Y": 1.0
         },
         "handle_left": {
          "X": 0.5,
          "Y": 1.0
         },
         "handle_right": {
          "X": 0.5,
          "Y": 0.0
         },
         "handle_type": 0,
         "interpolation": 0
        },
        {
         "co": {
          "X": 29.0,
          "Y": -1.0
         },
         "handle_left": {
          "X": 0.5,
          "Y": 1.0
         },
         "handle_right": {
          "X": 0.5,
          "Y": 0.0
         },
         "handle_type": 0,
         "interpolation": 0
        }
       ]
      },
      "contrast": {
       "Points": [
        {
         "co": {
          "X": 1.0,
          "Y": 3.0
         },
         "handle_left": {
          "X": 0.5,
          "Y": 1.0
         },
         "handle_right": {
          "X": 0.5,
          "Y": 0.0
         },
         "handle_type": 0,
         "interpolation": 0
        },
        {
         "co": {
          "X": 29.0,
          "Y": 3.0
         },
         "handle_left": {
          "X": 0.5,
          "Y": 1.0
         },
         "handle_right": {
          "X": 0.5,
          "Y": 0.0
         },
         "handle_type": 0,
         "interpolation": 0
        }
       ]
      },
      "reader": {
       "acodec": "",
       "audio_bit_rate": 0,
       "audio_stream_index": -1,
       "audio_timebase": {
        "den": 1,
        "num": 1
       },
       "channel_layout": 4,
       "channels": 0,
       "display_ratio": {
        "den": 4,
        "num": 5
       },
       "duration": 3600.0,
       "file_size": "5832000",
       "fps": {
        "den": 1,
        "num": 30
       },
       "has_audio": false,
       "has_single_image": true,
       "has_video": true,
       "height": 576,
       "interlaced_frame": false,
       "metadata": {},
       "path": "@transitions/common/fade.svg",
       "pixel_format": -1,
       "pixel_ratio": {
        "den": 1,
        "num": 1
       },
       "sample_rate": 0,
       "top_field_first": true,
       "type": "QtImageReader",
       "vcodec": "",
       "video_bit_rate": 0,
       "video_length": "108000",
       "video_stream_index": -1,
       "video_timebase": {
        "den": 30,
        "num": 1
       },
       "width": 720
      },
      "replace_image": false,
      "id": "PGG0YMHOIW"
     },
     {
      "layer": 1000000,
      "title": "Transition",
      "type": "Mask",
      "position": 409.93333333333334,
      "start": 0,
      "end": 0.9583333333333212,
      "brightness": {
       "Points": [
        {
         "co": {
          "X": 1.0,
          "Y": 1.0
         },
         "handle_left": {
          "X": 0.5,
          "Y": 1.0
         },
         "handle_right": {
          "X": 0.5,
          "Y": 0.0
         },
         "handle_type": 0,
         "interpolation": 0
        },
        {
         "co": {
          "X": 29.0,
          "Y": -1.0
         },
         "handle_left": {
          "X": 0.5,
          "Y": 1.0
         },
         "handle_right": {
          "X": 0.5,
          "Y": 0.0
         },
         "handle_type": 0,
         "interpolation": 0
        }
       ]
      },
      "contrast": {
       "Points": [
        {
         "co": {
          "X": 1.0,
          "Y": 3.0
         },
         "handle_left": {
          "X": 0.5,
          "Y": 1.0
         },
         "handle_right": {
          "X": 0.5,
          "Y": 0.0
         },
         "handle_type": 0,
         "interpolation": 0
        },
        {
         "co": {
          "X": 29.0,
          "Y": 3.0
         },
         "handle_left": {
          "X": 0.5,
          "Y": 1.0
         },
         "handle_right": {
          "X": 0.5,
          "Y": 0.0
         },
         "handle_type": 0,
         "interpolation": 0
        }
       ]
      },
      "reader": {
       "acodec": "",
       "audio_bit_rate": 0,
       "audio_stream_index": -1,
       "audio_timebase": {
        "den": 1,
        "num": 1
       },
       "channel_layout": 4,
       "channels": 0,
       "display_ratio": {
        "den": 4,
        "num": 5
       },
       "duration": 3600.0,
       "file_size": "5832000",
       "fps": {
        "den": 1,
        "num": 30
       },
       "has_audio": false,
       "has_single_image": true,
       "has_video": true,
       "height": 576,
       "interlaced_frame": false,
       "metadata": {},
       "path": "@transitions/common/fade.svg",
       "pixel_format": -1,
       "pixel_ratio": {
        "den": 1,
        "num": 1
       },
       "sample_rate": 0,
       "top_field_first": true,
       "type": "QtImageReader",
       "vcodec": "",
       "video_bit_rate": 0,
       "video_length": "108000",
       "video_stream_index": -1,
       "video_timebase": {
        "den": 30,
        "num": 1
       },
       "width": 720
      },
      "replace_image": false,
      "id": "YM3R94HVH1"
     },
     {
      "layer": 2000000,
      "title": "Transition",
      "type": "Mask",
      "position": 415.26666666666665,
      "start": 0,
      "end": 0.9583333333333212,
      "brightness": {
       "Points": [
        {
         "co": {
          "X": 1.0,
          "Y": -1.0
         },
         "handle_left": {
          "X": 0.5,
          "Y": 1.0
         },
         "handle_right": {
          "X": 0.5,
          "Y": 0.0
         },
         "handle_type": 0,
         "interpolation": 0
        },
        {
         "co": {
          "X": 29.0,
          "Y": 1.0
         },
         "handle_left": {
          "X": 0.5,
          "Y": 1.0
         },
         "handle_right": {
          "X": 0.5,
          "Y": 0.0
         },
         "handle_type": 0,
         "interpolation": 0
        }
       ]
      },
      "contrast": {
       "Points": [
        {
         "co": {
          "X": 1.0,
          "Y": 3.0
         },
         "handle_left": {
          "X": 0.5,
          "Y": 1.0
         },
         "handle_right": {
          "X": 0.5,
          "Y": 0.0
         },
         "handle_type": 0,
         "interpolation": 0
        },
        {
         "co": {
          "X": 29.0,
          "Y": 3.0
         },
         "handle_left": {
          "X": 0.5,
          "Y": 1.0
         },
         "handle_right": {
          "X": 0.5,
          "Y": 0.0
         },
         "handle_type": 0,
         "interpolation": 0
        }
       ]
      },
      "reader": {
       "acodec": "",
       "audio_bit_rate": 0,
       "audio_stream_index": -1,
       "audio_timebase": {
        "den": 1,
        "num": 1
       },
       "channel_layout": 4,
       "channels": 0,
       "display_ratio": {
        "den": 4,
        "num": 5
       },
       "duration": 3600.0,
       "file_size": "5832000",
       "fps": {
        "den": 1,
        "num": 30
       },
       "has_audio": false,
       "has_single_image": true,
       "has_video": true,
       "height": 576,
       "interlaced_frame": false,
       "metadata": {},
       "path": "@transitions/common/fade.svg",
       "pixel_format": -1,
       "pixel_ratio": {
        "den": 1,
        "num": 1
       },
       "sample_rate": 0,
       "top_field_first": true,
       "type": "QtImageReader",
       "vcodec": "",
       "video_bit_rate": 0,
       "video_length": "108000",
       "video_stream_index": -1,
       "video_timebase": {
        "den": 30,
        "num": 1
       },
       "width": 720
      },
      "replace_image": false,
      "id": "26OJ2CVQNP"
     },
     {
      "layer": 1000000,
      "title": "Transition",
      "type": "Mask",
      "position": 415.26666666666665,
      "start": 0,
      "end": 0.9583333333333212,
      "brightness": {
       "Points": [
        {
         "co": {
          "X": 1.0,
          "Y": -1.0
         },
         "handle_left": {
          "X": 0.5,
          "Y": 1.0
         },
         "handle_right": {
          "X": 0.5,
          "Y": 0.0
         },
         "handle_type": 0,
         "interpolation": 0
        },
        {
         "co": {
          "X": 29.0,
          "Y": 1.0
         },
         "handle_left": {
          "X": 0.5,
          "Y": 1.0
         },
         "handle_right": {
          "X": 0.5,
          "Y": 0.0
         },
         "handle_type": 0,
         "interpolation": 0
        }
       ]
      },
      "contrast": {
       "Points": [
        {
         "co": {
          "X": 1.0,
          "Y": 3.0
         },
         "handle_left": {
          "X": 0.5,
          "Y": 1.0
         },
         "handle_right": {
          "X": 0.5,
          "Y": 0.0
         },
         "handle_type": 0,
         "interpolation": 0
        },
        {
         "co": {
          "X": 29.0,
          "Y": 3.0
         },
         "handle_left": {
          "X": 0.5,
          "Y": 1.0
         },
         "handle_right": {
          "X": 0.5,
          "Y": 0.0
         },
         "handle_type": 0,
         "interpolation": 0
        }
       ]
      },
      "reader": {
       "acodec": "",
       "audio_bit_rate": 0,
       "audio_stream_index": -1,
       "audio_timebase": {
        "den": 1,
        "num": 1
       },
       "channel_layout": 4,
       "channels": 0,
       "display_ratio": {
        "den": 4,
        "num": 5
       },
       "duration": 3600.0,
       "file_size": "5832000",
       "fps": {
        "den": 1,
        "num": 30
       },
       "has_audio": false,
       "has_single_image": true,
       "has_video": true,
       "height": 576,
       "interlaced_frame": false,
       "metadata": {},
       "path": "@transitions/common/fade.svg",
       "pixel_format": -1,
       "pixel_ratio": {
        "den": 1,
        "num": 1
       },
       "sample_rate": 0,
       "top_field_first": true,
       "type": "QtImageReader",
       "vcodec": "",
       "video_bit_rate": 0,
       "video_length": "108000",
       "video_stream_index": -1,
       "video_timebase": {
        "den": 30,
        "num": 1
       },
       "width": 720
      },
      "replace_image": false,
      "id": "FAALAWUR0G"
     },
     {
      "layer": 2000000,
      "title": "Transition",
      "type": "Mask",
      "position": 416.23333333333335,
      "start": 0,
      "end": 0.9583333333333212,
      "brightness": {
       "Points": [
        {
         "co": {
          "X": 1.0,
          "Y": 1.0
         },
         "handle_left": {
          "X": 0.5,
          "Y": 1.0
         },
         "handle_right": {
          "X": 0.5,
          "Y": 0.0
         },
         "handle_type": 0,
         "interpolation": 0
        },
        {
         "co": {
          "X": 29.0,
          "Y": -1.0
         },
         "handle_left": {
          "X": 0.5,
          "Y": 1.0
         },
         "handle_right": {
          "X": 0.5,
          "Y": 0.0
         },
         "handle_type": 0,
         "interpolation": 0
        }
       ]
      },
      "contrast": {
       "Points": [
        {
         "co": {
          "X": 1.0,
          "Y": 3.0
         },
         "handle_left": {
          "X": 0.5,
          "Y": 1.0
         },
         "handle_right": {
          "X": 0.5,
          "Y": 0.0
         },
         "handle_type": 0,
         "interpolation": 0
        },
        {
         "co": {
          "X": 29.0,
          "Y": 3.0
         },
         "handle_left": {
          "X": 0.5,
          "Y": 1.0
         },
         "handle_right": {
          "X": 0.5,
          "Y": 0.0
         },
         "handle_type": 0,
         "interpolation": 0
        }
       ]
      },
      "reader": {
       "acodec": "",
       "audio_bit_rate": 0,
       "audio_stream_index": -1,
       "audio_timebase": {
        "den": 1,
        "num": 1
       },
       "channel_layout": 4,
       "channels": 0,
       "display_ratio": {
        "den": 4,
        "num": 5
       },
       "duration": 3600.0,
       "file_size": "5832000",
       "fps": {
        "den": 1,
        "num": 30
       },
       "has_audio": false,
       "has_single_image": true,
       "has_video": true,
       "height": 576,
       "interlaced_frame": false,
       "metadata": {},
       "path": "@transitions/common/fade.svg",
       "pixel_format": -1,
       "pixel_ratio": {
        "den": 1,
        "num": 1
       },
       "sample_rate": 0,
       "top_field_first": true,
       "type": "QtImageReader",
       "vcodec": "",
       "video_bit_rate": 0,
       "video_length": "108000",
       "video_stream_index": -1,
       "video_timebase": {
        "den": 30,
        "num": 1
       },
       "width": 720
      },
      "replace_image": false,
      "id": "ULXPUMT6PO"
     },
     {
      "layer": 2000000,
      "title": "Transition",
      "type": "Mask",
      "position": 419.9,
      "start": 0,
      "end": 0.9583333333333212,
      "brightness": {
       "Points": [
        {
         "co": {
          "X": 1.0,
          "Y": -1.0
         },
         "handle_left": {
          "X": 0.5,
          "Y": 1.0
         },
         "handle_right": {
          "X": 0.5,
          "Y": 0.0
         },
         "handle_type": 0,
         "interpolation": 0
        },
        {
         "co": {
          "X": 29.0,
          "Y": 1.0
         },
         "handle_left": {
          "X": 0.5,
          "Y": 1.0
         },
         "handle_right": {
          "X": 0.5,
          "Y": 0.0
         },
         "handle_type": 0,
         "interpolation": 0
        }
       ]
      },
      "contrast": {
       "Points": [
        {
         "co": {
          "X": 1.0,
          "Y": 3.0
         },
         "handle_left": {
          "X": 0.5,
          "Y": 1.0
         },
         "handle_right": {
          "X": 0.5,
          "Y": 0.0
         },
         "handle_type": 0,
         "interpolation": 0
        },
        {
         "co": {
          "X": 29.0,
          "Y": 3.0
         },
         "handle_left": {
          "X": 0.5,
          "Y": 1.0
         },
         "handle_right": {
          "X": 0.5,
          "Y": 0.0
         },
         "handle_type": 0,
         "interpolation": 0
        }
       ]
      },
      "reader": {
       "acodec": "",
       "audio_bit_rate": 0,
       "audio_stream_index": -1,
       "audio_timebase": {
        "den": 1,
        "num": 1
       },
       "channel_layout": 4,
       "channels": 0,
       "display_ratio": {
        "den": 4,
        "num": 5
       },
       "duration": 3600.0,
       "file_size": "5832000",
       "fps": {
        "den": 1,
        "num": 30
       },
       "has_audio": false,
       "has_single_image": true,
       "has_video": true,
       "height": 576,
       "interlaced_frame": false,
       "metadata": {},
       "path": "@transitions/common/fade.svg",
       "pixel_format": -1,
       "pixel_ratio": {
        "den": 1,
        "num": 1
       },
       "sample_rate": 0,
       "top_field_first": true,
       "type": "QtImageReader",
       "vcodec": "",
       "video_bit_rate": 0,
       "video_length": "108000",
       "video_stream_index": -1,
       "video_timebase": {
        "den": 30,
        "num": 1
       },
       "width": 720
      },
      "replace_image": false,
      "id": "DYLW8V9WX8"
     },
     {
      "layer": 3000000,
      "title": "Transition",
      "type": "Mask",
      "position": 419.9,
      "start": 0,
      "end": 0.9583333333333212,
      "brightness": {
       "Points": [
        {
         "co": {
          "X": 1.0,
          "Y": -1.0
         },
         "handle_left": {
          "X": 0.5,
          "Y": 1.0
         },
         "handle_right": {
          "X": 0.5,
          "Y": 0.0
         },
         "handle_type": 0,
         "interpolation": 0
        },
        {
         "co": {
          "X": 29.0,
          "Y": 1.0
         },
         "handle_left": {
          "X": 0.5,
          "Y": 1.0
         },
         "handle_right": {
          "X": 0.5,
          "Y": 0.0
         },
         "handle_type": 0,
         "interpolation": 0
        }
       ]
      },
      "contrast": {
       "Points": [
        {
         "co": {
          "X": 1.0,
          "Y": 3.0
         },
         "handle_left": {
          "X": 0.5,
          "Y": 1.0
         },
         "handle_right": {
          "X": 0.5,
          "Y": 0.0
         },
         "handle_type": 0,
         "interpolation": 0
        },
        {
         "co": {
          "X": 29.0,
          "Y": 3.0
         },
         "handle_left": {
          "X": 0.5,
          "Y": 1.0
         },
         "handle_right": {
          "X": 0.5,
          "Y": 0.0
         },
         "handle_type": 0,
         "interpolation": 0
        }
       ]
      },
      "reader": {
       "acodec": "",
       "audio_bit_rate": 0,
       "audio_stream_index": -1,
       "audio_timebase": {
        "den": 1,
        "num": 1
       },
       "channel_layout": 4,
       "channels": 0,
       "display_ratio": {
        "den": 4,
        "num": 5
       },
       "duration": 3600.0,
       "file_size": "5832000",
       "fps": {
        "den": 1,
        "num": 30
       },
       "has_audio": false,
       "has_single_image": true,
       "has_video": true,
       "height": 576,
       "interlaced_frame": false,
       "metadata": {},
       "path": "@transitions/common/fade.svg",
       "pixel_format": -1,
       "pixel_ratio": {
        "den": 1,
        "num": 1
       },
       "sample_rate": 0,
       "top_field_first": true,
       "type": "QtImageReader",
       "vcodec": "",
       "video_bit_rate": 0,
       "video_length": "108000",
       "video_stream_index": -1,
       "video_timebase": {
        "den": 30,
        "num": 1
       },
       "width": 720
      },
      "replace_image": false,
      "id": "CXGUT073SE"
     },
     {
      "layer": 1000000,
      "title": "Transition",
      "type": "Mask",
      "position": 420.8666666666667,
      "start": 0,
      "end": 0.9583333333333212,
      "brightness": {
       "Points": [
        {
         "co": {
          "X": 1.0,
          "Y": 1.0
         },
         "handle_left": {
          "X": 0.5,
          "Y": 1.0
         },
         "handle_right": {
          "X": 0.5,
          "Y": 0.0
         },
         "handle_type": 0,
         "interpolation": 0
        },
        {
         "co": {
          "X": 29.0,
          "Y": -1.0
         },
         "handle_left": {
          "X": 0.5,
          "Y": 1.0
         },
         "handle_right": {
          "X": 0.5,
          "Y": 0.0
         },
         "handle_type": 0,
         "interpolation": 0
        }
       ]
      },
      "contrast": {
       "Points": [
        {
         "co": {
          "X": 1.0,
          "Y": 3.0
         },
         "handle_left": {
          "X": 0.5,
          "Y": 1.0
         },
         "handle_right": {
          "X": 0.5,
          "Y": 0.0
         },
         "handle_type": 0,
         "interpolation": 0
        },
        {
         "co": {
          "X": 29.0,
          "Y": 3.0
         },
         "handle_left": {
          "X": 0.5,
          "Y": 1.0
         },
         "handle_right": {
          "X": 0.5,
          "Y": 0.0
         },
         "handle_type": 0,
         "interpolation": 0
        }
       ]
      },
      "reader": {
       "acodec": "",
       "audio_bit_rate": 0,
       "audio_stream_index": -1,
       "audio_timebase": {
        "den": 1,
        "num": 1
       },
       "channel_layout": 4,
       "channels": 0,
       "display_ratio": {
        "den": 4,
        "num": 5
       },
       "duration": 3600.0,
       "file_size": "5832000",
       "fps": {
        "den": 1,
        "num": 30
       },
       "has_audio": false,
       "has_single_image": true,
       "has_video": true,
       "height": 576,
       "interlaced_frame": false,
       "metadata": {},
       "path": "@transitions/common/fade.svg",
       "pixel_format": -1,
       "pixel_ratio": {
        "den": 1,
        "num": 1
       },
       "sample_rate": 0,
       "top_field_first": true,
       "type": "QtImageReader",
       "vcodec": "",
       "video_bit_rate": 0,
       "video_length": "108000",
       "video_stream_index": -1,
       "video_timebase": {
        "den": 30,
        "num": 1
       },
       "width": 720
      },
      "replace_image": false,
      "id": "UU98446Y5E"
     },
     {
      "layer": 2000000,
      "title": "Transition",
      "type": "Mask",
      "position": 421.4,
      "start": 0,
      "end": 0.9583333333333212,
      "brightness": {
       "Points": [
        {
         "co": {
          "X": 1.0,
          "Y": 1.0
         },
         "handle_left": {
          "X": 0.5,
          "Y": 1.0
         },
         "handle_right": {
          "X": 0.5,
          "Y": 0.0
         },
         "handle_type": 0,
         "interpolation": 0
        },
        {
         "co": {
          "X": 29.0,
          "Y": -1.0
         },
         "handle_left": {
          "X": 0.5,
          "Y": 1.0
         },
         "handle_right": {
          "X": 0.5,
          "Y": 0.0
         },
         "handle_type": 0,
         "interpolation": 0
        }
       ]
      },
      "contrast": {
       "Points": [
        {
         "co": {
          "X": 1.0,
          "Y": 3.0
         },
         "handle_left": {
          "X": 0.5,
          "Y": 1.0
         },
         "handle_right": {
          "X": 0.5,
          "Y": 0.0
         },
         "handle_type": 0,
         "interpolation": 0
        },
        {
         "co": {
          "X": 29.0,
          "Y": 3.0
         },
         "handle_left": {
          "X": 0.5,
          "Y": 1.0
         },
         "handle_right": {
          "X": 0.5,
          "Y": 0.0
         },
         "handle_type": 0,
         "interpolation": 0
        }
       ]
      },
      "reader": {
       "acodec": "",
       "audio_bit_rate": 0,
       "audio_stream_index": -1,
       "audio_timebase": {
        "den": 1,
        "num": 1
       },
       "channel_layout": 4,
       "channels": 0,
       "display_ratio": {
        "den": 4,
        "num": 5
       },
       "duration": 3600.0,
       "file_size": "5832000",
       "fps": {
        "den": 1,
        "num": 30
       },
       "has_audio": false,
       "has_single_image": true,
       "has_video": true,
       "height": 576,
       "interlaced_frame": false,
       "metadata": {},
       "path": "@transitions/common/fade.svg",
       "pixel_format": -1,
       "pixel_ratio": {
        "den": 1,
        "num": 1
       },
       "sample_rate": 0,
       "top_field_first": true,
       "type": "QtImageReader",
       "vcodec": "",
       "video_bit_rate": 0,
       "video_length": "108000",
       "video_stream_index": -1,
       "video_timebase": {
        "den": 30,
        "num": 1
       },
       "width": 720
      },
      "replace_image": false,
      "id": "OX49IKX2Z1"
     }
    ],
    "transaction": "b725452e-1564-43d2-a1a8-5151704ac194"
   },
   {
    "type": "update",
    "key": [
     "effects",
     {
      "id": "6H3NHSU7NW"
     }
    ],
    "value": {
     "id": "6H3NHSU7NW",
     "layer": 2000000,
     "position": 424.8333333333333,
     "start": 0,
     "end": 0.9583333333333212,
     "brightness": {
      "Points": [
       {
        "co": {
         "X": 1.0,
         "Y": -1.0
        },
        "handle_left": {
         "X": 0.5,
         "Y": 1.0
        },
        "handle_right": {
         "X": 0.5,
         "Y": 0.0
        },
        "handle_type": 0,
        "interpolation": 0
       },
       {
        "co": {
         "X": 29.0,
         "Y": 1.0
        },
        "handle_left": {
         "X": 0.5,
         "Y": 1.0
        },
        "handle_right": {
         "X": 0.5,
         "Y": 0.0
        },
        "handle_type": 0,
        "interpolation": 0
       }
      ]
     },
     "contrast": {
      "Points": [
       {
        "co": {
         "X": 1.0,
         "Y": 3.0
        },
        "handle_left": {
         "X": 0.5,
         "Y": 1.0
        },
        "handle_right": {
         "X": 0.5,
         "Y": 0.0
        },
        "handle_type": 0,
        "interpolation": 0
       },
       {
        "co": {
         "X": 29.0,
         "Y": 3.0
        },
        "handle_left": {
         "X": 0.5,
         "Y": 1.0
        },
        "handle_right": {
         "X": 0.5,
         "Y": 0.0
        },
        "handle_type": 0,
        "interpolation": 0
       }
      ]
     }
    },
    "old_values": {
     "layer": 2000000,
     "title": "Transition",
     "type": "Mask",
     "position": 425.8,
     "start": 0,
     "end": 0.9583333333333212,
     "brightness": {
      "Points": [
       {
        "co": {
         "X": 1.0,
         "Y": 1.0
        },
        "handle_left": {
         "X": 0.5,
         "Y": 1.0
        },
        "handle_right": {
         "X": 0.5,
         "Y": 0.0
        },
        "handle_type": 0,
        "interpolation": 0
       },
       {
        "co": {
         "X": 29.0,
         "Y": -1.0
        },
        "handle_left": {
         "X": 0.5,
         "Y": 1.0
        },
        "handle_right": {
         "X": 0.5,
         "Y": 0.0
        },
        "handle_type": 0,
        "interpolation": 0
       }
      ]
     },
     "contrast": {
      "Points": [
       {
        "co": {
         "X": 1.0,
         "Y": 3.0
        },
        "handle_left": {
         "X": 0.5,
         "Y": 1.0
        },
        "handle_right": {
         "X": 0.5,
         "Y": 0.0
        },
        "handle_type": 0,
        "interpolation": 0
       },
       {
        "co": {
         "X": 29.0,
         "Y": 3.0
        },
        "handle_left": {
         "X": 0.5,
         "Y": 1.0
        },
        "handle_right": {
         "X": 0.5,
         "Y": 0.0
        },
        "handle_type": 0,
        "interpolation": 0
       }
      ]
     },
     "reader": {
      "acodec": "",
      "audio_bit_rate": 0,
      "audio_stream_index": -1,
      "audio_timebase": {
       "den": 1,
       "num": 1
      },
      "channel_layout": 4,
      "channels": 0,
      "display_ratio": {
       "den": 4,
       "num": 5
      },
      "duration": 3600.0,
      "file_size": "5832000",
      "fps": {
       "den": 1,
       "num": 30
      },
      "has_audio": false,
      "has_single_image": true,
      "has_video": true,
      "height": 576,
      "interlaced_frame": false,
      "metadata": {},
      "path": "@transitions/common/fade.svg",
      "pixel_format": -1,
      "pixel_ratio": {
       "den": 1,
       "num": 1
      },
      "sample_rate": 0,
      "top_field_first": true,
      "type": "QtImageReader",
      "vcodec": "",
      "video_bit_rate": 0,
      "video_length": "108000",
      "video_stream_index": -1,
      "video_timebase": {
       "den": 30,
       "num": 1
      },
      "width": 720
     },
     "replace_image": false,
     "id": "6H3NHSU7NW"
    },
    "transaction": "191556f0-b798-4088-ab6c-5d8b850d2dcd"
   },
   {
    "type": "insert",
    "key": [
     "effects"
    ],
    "value": {
     "layer": 1000000,
     "title": "Transition",
     "type": "Mask",
     "position": 424.8333333333333,
     "start": 0,
     "end": 0.9583333333333212,
     "brightness": {
      "Points": [
       {
        "co": {
         "X": 1.0,
         "Y": -1.0
        },
        "handle_left": {
         "X": 0.5,
         "Y": 1.0
        },
        "handle_right": {
         "X": 0.5,
         "Y": 0.0
        },
        "handle_type": 0,
        "interpolation": 0
       },
       {
        "co": {
         "X": 29.0,
         "Y": 1.0
        },
        "handle_left": {
         "X": 0.5,
         "Y": 1.0
        },
        "handle_right": {
         "X": 0.5,
         "Y": 0.0
        },
        "handle_type": 0,
        "interpolation": 0
       }
      ]
     },
     "contrast": {
      "Points": [
       {
        "co": {
         "X": 1.0,
         "Y": 3.0
        },
        "handle_left": {
         "X": 0.5,
         "Y": 1.0
        },
        "handle_right": {
         "X": 0.5,
         "Y": 0.0
        },
        "handle_type": 0,
        "interpolation": 0
       },
       {
        "co": {
         "X": 29.0,
         "Y": 3.0
        },
        "handle_left": {
         "X": 0.5,
         "Y": 1.0
        },
        "handle_right": {
         "X": 0.5,
         "Y": 0.0
        },
        "handle_type": 0,
        "interpolation": 0
       }
      ]
     },
     "reader": {
      "acodec": "",
      "audio_bit_rate": 0,
      "audio_stream_index": -1,
      "audio_timebase": {
       "den": 1,
       "num": 1
      },
      "channel_layout": 4,
      "channels": 0,
      "display_ratio": {
       "den": 4,
       "num": 5
      },
      "duration": 3600.0,
      "file_size": "5832000",
      "fps": {
       "den": 1,
       "num": 30
      },
      "has_audio": false,
      "has_single_image": true,
      "has_video": true,
      "height": 576,
      "interlaced_frame": false,
      "metadata": {},
      "path": "@transitions/common/fade.svg",
      "pixel_format": -1,
      "pixel_ratio": {
       "den": 1,
       "num": 1
      },
      "sample_rate": 0,
      "top_field_first": true,
      "type": "QtImageReader",
      "vcodec": "",
      "video_bit_rate": 0,
      "video_length": "108000",
      "video_stream_index": -1,
      "video_timebase": {
       "den": 30,
       "num": 1
      },
      "width": 720
     },
     "replace_image": false,
     "id": "7AUAX2IQZJ"
    },
    "old_values": [
     {
      "id": "CCF0XFFI23",
      "layer": 2000000,
      "title": "Transition",
      "type": "Mask",
      "position": 0.8,
      "start": 0,
      "end": 1,
      "brightness": {
       "Points": [
        {
         "co": {
          "X": 1.0,
          "Y": 1.0
         },
         "handle_left": {
          "X": 0.5,
          "Y": 1.0
         },
         "handle_right": {
          "X": 0.5,
          "Y": 0.0
         },
         "handle_type": 0,
         "interpolation": 0
        },
        {
         "co": {
          "X": 30.0,
          "Y": -1.0
         },
         "handle_left": {
          "X": 0.5,
          "Y": 1.0
         },
         "handle_right": {
          "X": 0.5,
          "Y": 0.0
         },
         "handle_type": 0,
         "interpolation": 0
        }
       ]
      },
      "contrast": {
       "Points": [
        {
         "co": {
          "X": 1.0,
          "Y": 3.0
         },
         "handle_left": {
          "X": 0.5,
          "Y": 1.0
         },
         "handle_right": {
          "X": 0.5,
          "Y": 0.0
         },
         "handle_type": 0,
         "interpolation": 0
        },
        {
         "co": {
          "X": 30.0,
          "Y": 3.0
         },
         "handle_left": {
          "X": 0.5,
          "Y": 1.0
         },
         "handle_right": {
          "X": 0.5,
          "Y": 0.0
         },
         "handle_type": 0,
         "interpolation": 0
        }
       ]
      },
      "reader": {
       "acodec": "",
       "audio_bit_rate": 0,
       "audio_stream_index": -1,
       "audio_timebase": {
        "den": 1,
        "num": 1
       },
       "channel_layout": 4,
       "channels": 0,
       "display_ratio": {
        "den": 4,
        "num": 5
       },
       "duration": 3600.0,
       "file_size": "5832000",
       "fps": {
        "den": 1,
        "num": 30
       },
       "has_audio": false,
       "has_single_image": true,
       "has_video": true,
       "height": 576,
       "interlaced_frame": false,
       "metadata": {},
       "path": "@transitions/common/fade.svg",
       "pixel_format": -1,
       "pixel_ratio": {
        "den": 1,
        "num": 1
       },
       "sample_rate": 0,
       "top_field_first": true,
       "type": "QtImageReader",
       "vcodec": "",
       "video_bit_rate": 0,
       "video_length": "108000",
       "video_stream_index": -1,
       "video_timebase": {
        "den": 30,
        "num": 1
       },
       "width": 720
      },
      "replace_image": false
     },
     {
      "layer": 2000000,
      "title": "Transition",
      "type": "Mask",
      "position": 5.533333333333333,
      "start": 0,
      "end": 1,
      "brightness": {
       "Points": [
        {
         "co": {
          "X": 1.0,
          "Y": -1.0
         },
         "handle_left": {
          "X": 0.5,
          "Y": 1.0
         },
         "handle_right": {
          "X": 0.5,
          "Y": 0.0
         },
         "handle_type": 0,
         "interpolation": 0
        },
        {
         "co": {
          "X": 30.0,
          "Y": 1.0
         },
         "handle_left": {
          "X": 0.5,
          "Y": 1.0
         },
         "handle_right": {
          "X": 0.5,
          "Y": 0.0
         },
         "handle_type": 0,
         "interpolation": 0
        }
       ]
      },
      "contrast": {
       "Points": [
        {
         "co": {
          "X": 1.0,
          "Y": 3.0
         },
         "handle_left": {
          "X": 0.5,
          "Y": 1.0
         },
         "handle_right": {
          "X": 0.5,
          "Y": 0.0
         },
         "handle_type": 0,
         "interpolation": 0
        },
        {
         "co": {
          "X": 30.0,
          "Y": 3.0
         },
         "handle_left": {
          "X": 0.5,
          "Y": 1.0
         },
         "handle_right": {
          "X": 0.5,
          "Y": 0.0
         },
         "handle_type": 0,
         "interpolation": 0
        }
       ]
      },
      "reader": {
       "acodec": "",
       "audio_bit_rate": 0,
       "audio_stream_index": -1,
       "audio_timebase": {
        "den": 1,
        "num": 1
       },
       "channel_layout": 4,
       "channels": 0,
       "display_ratio": {
        "den": 4,
        "num": 5
       },
       "duration": 3600.0,
       "file_size": "5832000",
       "fps": {
        "den": 1,
        "num": 30
       },
       "has_audio": false,
       "has_single_image": true,
       "has_video": true,
       "height": 576,
       "interlaced_frame": false,
       "metadata": {},
       "path": "@transitions/common/fade.svg",
       "pixel_format": -1,
       "pixel_ratio": {
        "den": 1,
        "num": 1
       },
       "sample_rate": 0,
       "top_field_first": true,
       "type": "QtImageReader",
       "vcodec": "",
       "video_bit_rate": 0,
       "video_length": "108000",
       "video_stream_index": -1,
       "video_timebase": {
        "den": 30,
        "num": 1
       },
       "width": 720
      },
      "replace_image": false,
      "id": "XXA2JTVLMO"
     },
     {
      "layer": 2000000,
      "title": "Transition",
      "type": "Mask",
      "position": 11.433333333333334,
      "start": 0,
      "end": 1,
      "brightness": {
       "Points": [
        {
         "co": {
          "X": 1.0,
          "Y": 1.0
         },
         "handle_left": {
          "X": 0.5,
          "Y": 1.0
         },
         "handle_right": {
          "X": 0.5,
          "Y": 0.0
         },
         "handle_type": 0,
         "interpolation": 0
        },
        {
         "co": {
          "X": 30.0,
          "Y": -1.0
         },
         "handle_left": {
          "X": 0.5,
          "Y": 1.0
         },
         "handle_right": {
          "X": 0.5,
          "Y": 0.0
         },
         "handle_type": 0,
         "interpolation": 0
        }
       ]
      },
      "contrast": {
       "Points": [
        {
         "co": {
          "X": 1.0,
          "Y": 3.0
         },
         "handle_left": {
          "X": 0.5,
          "Y": 1.0
         },
         "handle_right": {
          "X": 0.5,
          "Y": 0.0
         },
         "handle_type": 0,
         "interpolation": 0
        },
        {
         "co": {
          "X": 30.0,
          "Y": 3.0
         },
         "handle_left": {
          "X": 0.5,
          "Y": 1.0
         },
         "handle_right": {
          "X": 0.5,
          "Y": 0.0
         },
         "handle_type": 0,
         "interpolation": 0
        }
       ]
      },
      "reader": {
       "acodec": "",
       "audio_bit_rate": 0,
       "audio_stream_index": -1,
       "audio_timebase": {
        "den": 1,
        "num": 1
       },
       "channel_layout": 4,
       "channels": 0,
       "display_ratio": {
        "den": 4,
        "num": 5
       },
       "duration": 3600.0,
       "file_size": "5832000",
       "fps": {
        "den": 1,
        "num": 30
       },
       "has_audio": false,
       "has_single_image": true,
       "has_video": true,
       "height": 576,
       "interlaced_frame": false,
       "metadata": {},
       "path": "@transitions/common/fade.svg",
       "pixel_format": -1,
       "pixel_ratio": {
        "den": 1,
        "num": 1
       },
       "sample_rate": 0,
       "top_field_first": true,
       "type": "QtImageReader",
       "vcodec": "",
       "video_bit_rate": 0,
       "video_length": "108000",
       "video_stream_index": -1,
       "video_timebase": {
        "den": 30,
        "num": 1
       },
       "width": 720
      },
      "replace_image": false,
      "id": "RN9POGRPKN"
     },
     {
      "layer": 2000000,
      "title": "Transition",
      "type": "Mask",
      "position": 19.333333333333332,
      "start": 0,
      "end": 1,
      "brightness": {
       "Points": [
        {
         "co": {
          "X": 1.0,
          "Y": -1.0
         },
         "handle_left": {
          "X": 0.5,
          "Y": 1.0
         },
         "handle_right": {
          "X": 0.5,
          "Y": 0.0
         },
         "handle_type": 0,
         "interpolation": 0
        },
        {
         "co": {
          "X": 30.0,
          "Y": 1.0
         },
         "handle_left": {
          "X": 0.5,
          "Y": 1.0
         },
         "handle_right": {
          "X": 0.5,
          "Y": 0.0
         },
         "handle_type": 0,
         "interpolation": 0
        }
       ]
      },
      "contrast": {
       "Points": [
        {
         "co": {
          "X": 1.0,
          "Y": 3.0
         },
         "handle_left": {
          "X": 0.5,
          "Y": 1.0
         },
         "handle_right": {
          "X": 0.5,
          "Y": 0.0
         },
         "handle_type": 0,
         "interpolation": 0
        },
        {
         "co": {
          "X": 30.0,
          "Y": 3.0
         },
         "handle_left": {
          "X": 0.5,
          "Y": 1.0
         },
         "handle_right": {
          "X": 0.5,
          "Y": 0.0
         },
         "handle_type": 0,
         "interpolation": 0
        }
       ]
      },
      "reader": {
       "acodec": "",
       "audio_bit_rate": 0,
       "audio_stream_index": -1,
       "audio_timebase": {
        "den": 1,
        "num": 1
       },
       "channel_layout": 4,
       "channels": 0,
       "display_ratio": {
        "den": 4,
        "num": 5
       },
       "duration": 3600.0,
       "file_size": "5832000",
       "fps": {
        "den": 1,
        "num": 30
       },
       "has_audio": false,
       "has_single_image": true,
       "has_video": true,
       "height": 576,
       "interlaced_frame": false,
       "metadata": {},
       "path": "@transitions/common/fade.svg",
       "pixel_format": -1,
       "pixel_ratio": {
        "den": 1,
        "num": 1
       },
       "sample_rate": 0,
       "top_field_first": true,
       "type": "QtImageReader",
       "vcodec": "",
       "video_bit_rate": 0,
       "video_length": "108000",
       "video_stream_index": -1,
       "video_timebase": {
        "den": 30,
        "num": 1
       },
       "width": 720
      },
      "replace_image": false,
      "id": "ADKB2ZG9IL"
     },
     {
      "layer": 2000000,
      "title": "Transition",
      "type": "Mask",
      "position": 20.966666666666665,
      "start": 0,
      "end": 1,
      "brightness": {
       "Points": [
        {
         "co": {
          "X": 1.0,
          "Y": 1.0
         },
         "handle_left": {
          "X": 0.5,
          "Y": 1.0
         },
         "handle_right": {
          "X": 0.5,
          "Y": 0.0
         },
         "handle_type": 0,
         "interpolation": 0
        },
        {
         "co": {
          "X": 30.0,
          "Y": -1.0
         },
         "handle_left": {
          "X": 0.5,
          "Y": 1.0
         },
         "handle_right": {
          "X": 0.5,
          "Y": 0.0
         },
         "handle_type": 0,
         "interpolation": 0
        }
       ]
      },
      "contrast": {
       "Points": [
        {
         "co": {
          "X": 1.0,
          "Y": 3.0
         },
         "handle_left": {
          "X": 0.5,
          "Y": 1.0
         },
         "handle_right": {
          "X": 0.5,
          "Y": 0.0
         },
         "handle_type": 0,
         "interpolation": 0
        },
        {
         "co": {
          "X": 30.0,
          "Y": 3.0
         },
         "handle_left": {
          "X": 0.5,
          "Y": 1.0
         },
         "handle_right": {
          "X": 0.5,
          "Y": 0.0
         },
         "handle_type": 0,
         "interpolation": 0
        }
       ]
      },
      "reader": {
       "acodec": "",
       "audio_bit_rate": 0,
       "audio_stream_index": -1,
       "audio_timebase": {
        "den": 1,
        "num": 1
       },
       "channel_layout": 4,
       "channels": 0,
       "display_ratio": {
        "den": 4,
        "num": 5
       },
       "duration": 3600.0,
       "file_size": "5832000",
       "fps": {
        "den": 1,
        "num": 30
       },
       "has_audio": false,
       "has_single_image": true,
       "has_video": true,
       "height": 576,
       "interlaced_frame": false,
       "metadata": {},
       "path": "@transitions/common/fade.svg",
       "pixel_format": -1,
       "pixel_ratio": {
        "den": 1,
        "num": 1
       },
       "sample_rate": 0,
       "top_field_first": true,
       "type": "QtImageReader",
       "vcodec": "",
       "video_bit_rate": 0,
       "video_length": "108000",
       "video_stream_index": -1,
       "video_timebase": {
        "den": 30,
        "num": 1
       },
       "width": 720
      },
      "replace_image": false,
      "id": "0W42OBC13Z"
     },
     {
      "layer": 3000000,
      "title": "Transition",
      "type": "Mask",
      "position": 21.966666666666665,
      "start": 0,
      "end": 1,
      "brightness": {
       "Points": [
        {
         "co": {
          "X": 1.0,
          "Y": 1.0
         },
         "handle_left": {
          "X": 0.5,
          "Y": 1.0
         },
         "handle_right": {
          "X": 0.5,
          "Y": 0.0
         },
         "handle_type": 0,
         "interpolation": 0
        },
        {
         "co": {
          "X": 30.0,
          "Y": -1.0
         },
         "handle_left": {
          "X": 0.5,
          "Y": 1.0
         },
         "handle_right": {
          "X": 0.5,
          "Y": 0.0
         },
         "handle_type": 0,
         "interpolation": 0
        }
       ]
      },
      "contrast": {
       "Points": [
        {
         "co": {
          "X": 1.0,
          "Y": 3.0
         },
         "handle_left": {
          "X": 0.5,
          "Y": 1.0
         },
         "handle_right": {
          "X": 0.5,
          "Y": 0.0
         },
         "handle_type": 0,
         "interpolation": 0
        },
        {
         "co": {
          "X": 30.0,
          "Y": 3.0
         },
         "handle_left": {
          "X": 0.5,
          "Y": 1.0
         },
         "handle_right": {
          "X": 0.5,
          "Y": 0.0
         },
         "handle_type": 0,
         "interpolation": 0
        }
       ]
      },
      "reader": {
       "acodec": "",
       "audio_bit_rate": 0,
       "audio_stream_index": -1,
       "audio_timebase": {
        "den": 1,
        "num": 1
       },
       "channel_layout": 4,
       "channels": 0,
       "display_ratio": {
        "den": 4,
        "num": 5
       },
       "duration": 3600.0,
       "file_size": "5832000",
       "fps": {
        "den": 1,
        "num": 30
       },
       "has_audio": false,
       "has_single_image": true,
       "has_video": true,
       "height": 576,
       "interlaced_frame": false,
       "metadata": {},
       "path": "@transitions/common/fade.svg",
       "pixel_format": -1,
       "pixel_ratio": {
        "den": 1,
        "num": 1
       },
       "sample_rate": 0,
       "top_field_first": true,
       "type": "QtImageReader",
       "vcodec": "",
       "video_bit_rate": 0,
       "video_length": "108000",
       "video_stream_index": -1,
       "video_timebase": {
        "den": 30,
        "num": 1
       },
       "width": 720
      },
      "replace_image": false,
      "id": "QSYGIBWS04"
     },
     {
      "layer": 4000000,
      "title": "Transition",
      "type": "Mask",
      "position": 21.966666666666665,
      "start": 0,
      "end": 1,
      "brightness": {
       "Points": [
        {
         "co": {
          "X": 1.0,
          "Y": 1.0
         },
         "handle_left": {
          "X": 0.5,
          "Y": 1.0
         },
         "handle_right": {
          "X": 0.5,
          "Y": 0.0
         },
         "handle_type": 0,
         "interpolation": 0
        },
        {
         "co": {
          "X": 30.0,
          "Y": -1.0
         },
         "handle_left": {
          "X": 0.5,
          "Y": 1.0
         },
         "handle_right": {
          "X": 0.5,
          "Y": 0.0
         },
         "handle_type": 0,
         "interpolation": 0
        }
       ]
      },
      "contrast": {
       "Points": [
        {
         "co": {
          "X": 1.0,
          "Y": 3.0
         },
         "handle_left": {
          "X": 0.5,
          "Y": 1.0
         },
         "handle_right": {
          "X": 0.5,
          "Y": 0.0
         },
         "handle_type": 0,
         "interpolation": 0
        },
        {
         "co": {
          "X": 30.0,
          "Y": 3.0
         },
         "handle_left": {
          "X": 0.5,
          "Y": 1.0
         },
         "handle_right": {
          "X": 0.5,
          "Y": 0.0
         },
         "handle_type": 0,
         "interpolation": 0
        }
       ]
      },
      "reader": {
       "acodec": "",
       "audio_bit_rate": 0,
       "audio_stream_index": -1,
       "audio_timebase": {
        "den": 1,
        "num": 1
       },
       "channel_layout": 4,
       "channels": 0,
       "display_ratio": {
        "den": 4,
        "num": 5
       },
       "duration": 3600.0,
       "file_size": "5832000",
       "fps": {
        "den": 1,
        "num": 30
       },
       "has_audio": false,
       "has_single_image": true,
       "has_video": true,
       "height": 576,
       "interlaced_frame": false,
       "metadata": {},
       "path": "@transitions/common/fade.svg",
       "pixel_format": -1,
       "pixel_ratio": {
        "den": 1,
        "num": 1
       },
       "sample_rate": 0,
       "top_field_first": true,
       "type": "QtImageReader",
       "vcodec": "",
       "video_bit_rate": 0,
       "video_length": "108000",
       "video_stream_index": -1,
       "video_timebase": {
        "den": 30,
        "num": 1
       },
       "width": 720
      },
      "replace_image": false,
      "id": "MUDX88MTT3"
     },
     {
      "layer": 7000000,
      "title": "Transition",
      "type": "Mask",
      "position": 21.966666666666665,
      "start": 0,
      "end": 1,
      "brightness": {
       "Points": [
        {
         "co": {
          "X": 1.0,
          "Y": 1.0
         },
         "handle_left": {
          "X": 0.5,
          "Y": 1.0
         },
         "handle_right": {
          "X": 0.5,
          "Y": 0.0
         },
         "handle_type": 0,
         "interpolation": 0
        },
        {
         "co": {
          "X": 30.0,
          "Y": -1.0
         },
         "handle_left": {
          "X": 0.5,
          "Y": 1.0
         },
         "handle_right": {
          "X": 0.5,
          "Y": 0.0
         },
         "handle_type": 0,
         "interpolation": 0
        }
       ]
      },
      "contrast": {
       "Points": [
        {
         "co": {
          "X": 1.0,
          "Y": 3.0
         },
         "handle_left": {
          "X": 0.5,
          "Y": 1.0
         },
         "handle_right": {
          "X": 0.5,
          "Y": 0.0
         },
         "handle_type": 0,
         "interpolation": 0
        },
        {
         "co": {
          "X": 30.0,
          "Y": 3.0
         },
         "handle_left": {
          "X": 0.5,
          "Y": 1.0
         },
         "handle_right": {
          "X": 0.5,
          "Y": 0.0
         },
         "handle_type": 0,
         "interpolation": 0
        }
       ]
      },
      "reader": {
       "acodec": "",
       "audio_bit_rate": 0,
       "audio_stream_index": -1,
       "audio_timebase": {
        "den": 1,
        "num": 1
       },
       "channel_layout": 4,
       "channels": 0,
       "display_ratio": {
        "den": 4,
        "num": 5
       },
       "duration": 3600.0,
       "file_size": "5832000",
       "fps": {
        "den": 1,
        "num": 30
       },
       "has_audio": false,
       "has_single_image": true,
       "has_video": true,
       "height": 576,
       "interlaced_frame": false,
       "metadata": {},
       "path": "@transitions/common/fade.svg",
       "pixel_format": -1,
       "pixel_ratio": {
        "den": 1,
        "num": 1
       },
       "sample_rate": 0,
       "top_field_first": true,
       "type": "QtImageReader",
       "vcodec": "",
       "video_bit_rate": 0,
       "video_length": "108000",
       "video_stream_index": -1,
       "video_timebase": {
        "den": 30,
        "num": 1
       },
       "width": 720
      },
      "replace_image": false,
      "id": "4L09X67XI2"
     },
     {
      "layer": 5000000,
      "title": "Transition",
      "type": "Mask",
      "position": 21.966666666666665,
      "start": 0,
      "end": 1,
      "brightness": {
       "Points": [
        {
         "co": {
          "X": 1.0,
          "Y": 1.0
         },
         "handle_left": {
          "X": 0.5,
          "Y": 1.0
         },
         "handle_right": {
          "X": 0.5,
          "Y": 0.0
         },
         "handle_type": 0,
         "interpolation": 0
        },
        {
         "co": {
          "X": 30.0,
          "Y": -1.0
         },
         "handle_left": {
          "X": 0.5,
          "Y": 1.0
         },
         "handle_right": {
          "X": 0.5,
          "Y": 0.0
         },
         "handle_type": 0,
         "interpolation": 0
        }
       ]
      },
      "contrast": {
       "Points": [
        {
         "co": {
          "X": 1.0,
          "Y": 3.0
         },
         "handle_left": {
          "X": 0.5,
          "Y": 1.0
         },
         "handle_right": {
          "X": 0.5,
          "Y": 0.0
         },
         "handle_type": 0,
         "interpolation": 0
        },
        {
         "co": {
          "X": 30.0,
          "Y": 3.0
         },
         "handle_left": {
          "X": 0.5,
          "Y": 1.0
         },
         "handle_right": {
          "X": 0.5,
          "Y": 0.0
         },
         "handle_type": 0,
         "interpolation": 0
        }
       ]
      },
      "reader": {
       "acodec": "",
       "audio_bit_rate": 0,
       "audio_stream_index": -1,
       "audio_timebase": {
        "den": 1,
        "num": 1
       },
       "channel_layout": 4,
       "channels": 0,
       "display_ratio": {
        "den": 4,
        "num": 5
       },
       "duration": 3600.0,
       "file_size": "5832000",
       "fps": {
        "den": 1,
        "num": 30
       },
       "has_audio": false,
       "has_single_image": true,
       "has_video": true,
       "height": 576,
       "interlaced_frame": false,
       "metadata": {},
       "path": "@transitions/common/fade.svg",
       "pixel_format": -1,
       "pixel_ratio": {
        "den": 1,
        "num": 1
       },
       "sample_rate": 0,
       "top_field_first": true,
       "type": "QtImageReader",
       "vcodec": "",
       "video_bit_rate": 0,
       "video_length": "108000",
       "video_stream_index": -1,
       "video_timebase": {
        "den": 30,
        "num": 1
       },
       "width": 720
      },
      "replace_image": false,
      "id": "O681WSL8AF"
     },
     {
      "layer": 6000000,
      "title": "Transition",
      "type": "Mask",
      "position": 21.966666666666665,
      "start": 0,
      "end": 1,
      "brightness": {
       "Points": [
        {
         "co": {
          "X": 1.0,
          "Y": 1.0
         },
         "handle_left": {
          "X": 0.5,
          "Y": 1.0
         },
         "handle_right": {
          "X": 0.5,
          "Y": 0.0
         },
         "handle_type": 0,
         "interpolation": 0
        },
        {
         "co": {
          "X": 30.0,
          "Y": -1.0
         },
         "handle_left": {
          "X": 0.5,
          "Y": 1.0
         },
         "handle_right": {
          "X": 0.5,
          "Y": 0.0
         },
         "handle_type": 0,
         "interpolation": 0
        }
       ]
      },
      "contrast": {
       "Points": [
        {
         "co": {
          "X": 1.0,
          "Y": 3.0
         },
         "handle_left": {
          "X": 0.5,
          "Y": 1.0
         },
         "handle_right": {
          "X": 0.5,
          "Y": 0.0
         },
         "handle_type": 0,
         "interpolation": 0
        },
        {
         "co": {
          "X": 30.0,
          "Y": 3.0
         },
         "handle_left": {
          "X": 0.5,
          "Y": 1.0
         },
         "handle_right": {
          "X": 0.5,
          "Y": 0.0
         },
         "handle_type": 0,
         "interpolation": 0
        }
       ]
      },
      "reader": {
       "acodec": "",
       "audio_bit_rate": 0,
       "audio_stream_index": -1,
       "audio_timebase": {
        "den": 1,
        "num": 1
       },
       "channel_layout": 4,
       "channels": 0,
       "display_ratio": {
        "den": 4,
        "num": 5
       },
       "duration": 3600.0,
       "file_size": "5832000",
       "fps": {
        "den": 1,
        "num": 30
       },
       "has_audio": false,
       "has_single_image": true,
       "has_video": true,
       "height": 576,
       "interlaced_frame": false,
       "metadata": {},
       "path": "@transitions/common/fade.svg",
       "pixel_format": -1,
       "pixel_ratio": {
        "den": 1,
        "num": 1
       },
       "sample_rate": 0,
       "top_field_first": true,
       "type": "QtImageReader",
       "vcodec": "",
       "video_bit_rate": 0,
       "video_length": "108000",
       "video_stream_index": -1,
       "video_timebase": {
        "den": 30,
        "num": 1
       },
       "width": 720
      },
      "replace_image": false,
      "id": "M088VM48FK"
     },
     {
      "layer": 6000000,
      "title": "Transition",
      "type": "Mask",
      "position": 25.266666666666666,
      "start": 0,
      "end": 1,
      "brightness": {
       "Points": [
        {
         "co": {
          "X": 1.0,
          "Y": -1.0
         },
         "handle_left": {
          "X": 0.5,
          "Y": 1.0
         },
         "handle_right": {
          "X": 0.5,
          "Y": 0.0
         },
         "handle_type": 0,
         "interpolation": 0
        },
        {
         "co": {
          "X": 30.0,
          "Y": 1.0
         },
         "handle_left": {
          "X": 0.5,
          "Y": 1.0
         },
         "handle_right": {
          "X": 0.5,
          "Y": 0.0
         },
         "handle_type": 0,
         "interpolation": 0
        }
       ]
      },
      "contrast": {
       "Points": [
        {
         "co": {
          "X": 1.0,
          "Y": 3.0
         },
         "handle_left": {
          "X": 0.5,
          "Y": 1.0
         },
         "handle_right": {
          "X": 0.5,
          "Y": 0.0
         },
         "handle_type": 0,
         "interpolation": 0
        },
        {
         "co": {
          "X": 30.0,
          "Y": 3.0
         },
         "handle_left": {
          "X": 0.5,
          "Y": 1.0
         },
         "handle_right": {
          "X": 0.5,
          "Y": 0.0
         },
         "handle_type": 0,
         "interpolation": 0
        }
       ]
      },
      "reader": {
       "acodec": "",
       "audio_bit_rate": 0,
       "audio_stream_index": -1,
       "audio_timebase": {
        "den": 1,
        "num": 1
       },
       "channel_layout": 4,
       "channels": 0,
       "display_ratio": {
        "den": 4,
        "num": 5
       },
       "duration": 3600.0,
       "file_size": "5832000",
       "fps": {
        "den": 1,
        "num": 30
       },
       "has_audio": false,
       "has_single_image": true,
       "has_video": true,
       "height": 576,
       "interlaced_frame": false,
       "metadata": {},
       "path": "@transitions/common/fade.svg",
       "pixel_format": -1,
       "pixel_ratio": {
        "den": 1,
        "num": 1
       },
       "sample_rate": 0,
       "top_field_first": true,
       "type": "QtImageReader",
       "vcodec": "",
       "video_bit_rate": 0,
       "video_length": "108000",
       "video_stream_index": -1,
       "video_timebase": {
        "den": 30,
        "num": 1
       },
       "width": 720
      },
      "replace_image": false,
      "id": "C9SIN6QZ8S"
     },
     {
      "layer": 5000000,
      "title": "Transition",
      "type": "Mask",
      "position": 25.266666666666666,
      "start": 0,
      "end": 1,
      "brightness": {
       "Points": [
        {
         "co": {
          "X": 1.0,
          "Y": -1.0
         },
         "handle_left": {
          "X": 0.5,
          "Y": 1.0
         },
         "handle_right": {
          "X": 0.5,
          "Y": 0.0
         },
         "handle_type": 0,
         "interpolation": 0
        },
        {
         "co": {
          "X": 30.0,
          "Y": 1.0
         },
         "handle_left": {
          "X": 0.5,
          "Y": 1.0
         },
         "handle_right": {
          "X": 0.5,
          "Y": 0.0
         },
         "handle_type": 0,
         "interpolation": 0
        }
       ]
      },
      "contrast": {
       "Points": [
        {
         "co": {
          "X": 1.0,
          "Y": 3.0
         },
         "handle_left": {
          "X": 0.5,
          "Y": 1.0
         },
         "handle_right": {
          "X": 0.5,
          "Y": 0.0
         },
         "handle_type": 0,
         "interpolation": 0
        },
        {
         "co": {
          "X": 30.0,
          "Y": 3.0
         },
         "handle_left": {
          "X": 0.5,
          "Y": 1.0
         },
         "handle_right": {
          "X": 0.5,
          "Y": 0.0
         },
         "handle_type": 0,
         "interpolation": 0
        }
       ]
      },
      "reader": {
       "acodec": "",
       "audio_bit_rate": 0,
       "audio_stream_index": -1,
       "audio_timebase": {
        "den": 1,
        "num": 1
       },
       "channel_layout": 4,
       "channels": 0,
       "display_ratio": {
        "den": 4,
        "num": 5
       },
       "duration": 3600.0,
       "file_size": "5832000",
       "fps": {
        "den": 1,
        "num": 30
       },
       "has_audio": false,
       "has_single_image": true,
       "has_video": true,
       "height": 576,
       "interlaced_frame": false,
       "metadata": {},
       "path": "@transitions/common/fade.svg",
       "pixel_format": -1,
       "pixel_ratio": {
        "den": 1,
        "num": 1
       },
       "sample_rate": 0,
       "top_field_first": true,
       "type": "QtImageReader",
       "vcodec": "",
       "video_bit_rate": 0,
       "video_length": "108000",
       "video_stream_index": -1,
       "video_timebase": {
        "den": 30,
        "num": 1
       },
       "width": 720
      },
      "replace_image": false,
      "id": "I6YLI3CQDR"
     },
     {
      "layer": 4000000,
      "title": "Transition",
      "type": "Mask",
      "position": 25.266666666666666,
      "start": 0,
      "end": 1,
      "brightness": {
       "Points": [
        {
         "co": {
          "X": 1.0,
          "Y": -1.0
         },
         "handle_left": {
          "X": 0.5,
          "Y": 1.0
         },
         "handle_right": {
          "X": 0.5,
          "Y": 0.0
         },
         "handle_type": 0,
         "interpolation": 0
        },
        {
         "co": {
          "X": 30.0,
          "Y": 1.0
         },
         "handle_left": {
          "X": 0.5,
          "Y": 1.0
         },
         "handle_right": {
          "X": 0.5,
          "Y": 0.0
         },
         "handle_type": 0,
         "interpolation": 0
        }
       ]
      },
      "contrast": {
       "Points": [
        {
         "co": {
          "X": 1.0,
          "Y": 3.0
         },
         "handle_left": {
          "X": 0.5,
          "Y": 1.0
         },
         "handle_right": {
          "X": 0.5,
          "Y": 0.0
         },
         "handle_type": 0,
         "interpolation": 0
        },
        {
         "co": {
          "X": 30.0,
          "Y": 3.0
         },
         "handle_left": {
          "X": 0.5,
          "Y": 1.0
         },
         "handle_right": {
          "X": 0.5,
          "Y": 0.0
         },
         "handle_type": 0,
         "interpolation": 0
        }
       ]
      },
      "reader": {
       "acodec": "",
       "audio_bit_rate": 0,
       "audio_stream_index": -1,
       "audio_timebase": {
        "den": 1,
        "num": 1
       },
       "channel_layout": 4,
       "channels": 0,
       "display_ratio": {
        "den": 4,
        "num": 5
       },
       "duration": 3600.0,
       "file_size": "5832000",
       "fps": {
        "den": 1,
        "num": 30
       },
       "has_audio": false,
       "has_single_image": true,
       "has_video": true,
       "height": 576,
       "interlaced_frame": false,
       "metadata": {},
       "path": "@transitions/common/fade.svg",
       "pixel_format": -1,
       "pixel_ratio": {
        "den": 1,
        "num": 1
       },
       "sample_rate": 0,
       "top_field_first": true,
       "type": "QtImageReader",
       "vcodec": "",
       "video_bit_rate": 0,
       "video_length": "108000",
       "video_stream_index": -1,
       "video_timebase": {
        "den": 30,
        "num": 1
       },
       "width": 720
      },
      "replace_image": false,
      "id": "G0XGWQG64E"
     },
     {
      "layer": 3000000,
      "title": "Transition",
      "type": "Mask",
      "position": 25.266666666666666,
      "start": 0,
      "end": 1,
      "brightness": {
       "Points": [
        {
         "co": {
          "X": 1.0,
          "Y": -1.0
         },
         "handle_left": {
          "X": 0.5,
          "Y": 1.0
         },
         "handle_right": {
          "X": 0.5,
          "Y": 0.0
         },
         "handle_type": 0,
         "interpolation": 0
        },
        {
         "co": {
          "X": 30.0,
          "Y": 1.0
         },
         "handle_left": {
          "X": 0.5,
          "Y": 1.0
         },
         "handle_right": {
          "X": 0.5,
          "Y": 0.0
         },
         "handle_type": 0,
         "interpolation": 0
        }
       ]
      },
      "contrast": {
       "Points": [
        {
         "co": {
          "X": 1.0,
          "Y": 3.0
         },
         "handle_left": {
          "X": 0.5,
          "Y": 1.0
         },
         "handle_right": {
          "X": 0.5,
          "Y": 0.0
         },
         "handle_type": 0,
         "interpolation": 0
        },
        {
         "co": {
          "X": 30.0,
          "Y": 3.0
         },
         "handle_left": {
          "X": 0.5,
          "Y": 1.0
         },
         "handle_right": {
          "X": 0.5,
          "Y": 0.0
         },
         "handle_type": 0,
         "interpolation": 0
        }
       ]
      },
      "reader": {
       "acodec": "",
       "audio_bit_rate": 0,
       "audio_stream_index": -1,
       "audio_timebase": {
        "den": 1,
        "num": 1
       },
       "channel_layout": 4,
       "channels": 0,
       "display_ratio": {
        "den": 4,
        "num": 5
       },
       "duration": 3600.0,
       "file_size": "5832000",
       "fps": {
        "den": 1,
        "num": 30
       },
       "has_audio": false,
       "has_single_image": true,
       "has_video": true,
       "height": 576,
       "interlaced_frame": false,
       "metadata": {},
       "path": "@transitions/common/fade.svg",
       "pixel_format": -1,
       "pixel_ratio": {
        "den": 1,
        "num": 1
       },
       "sample_rate": 0,
       "top_field_first": true,
       "type": "QtImageReader",
       "vcodec": "",
       "video_bit_rate": 0,
       "video_length": "108000",
       "video_stream_index": -1,
       "video_timebase": {
        "den": 30,
        "num": 1
       },
       "width": 720
      },
      "replace_image": false,
      "id": "SQUUWVPO2R"
     },
     {
      "layer": 7000000,
      "title": "Transition",
      "type": "Mask",
      "position": 25.266666666666666,
      "start": 0,
      "end": 1,
      "brightness": {
       "Points": [
        {
         "co": {
          "X": 1.0,
          "Y": -1.0
         },
         "handle_left": {
          "X": 0.5,
          "Y": 1.0
         },
         "handle_right": {
          "X": 0.5,
          "Y": 0.0
         },
         "handle_type": 0,
         "interpolation": 0
        },
        {
         "co": {
          "X": 30.0,
          "Y": 1.0
         },
         "handle_left": {
          "X": 0.5,
          "Y": 1.0
         },
         "handle_right": {
          "X": 0.5,
          "Y": 0.0
         },
         "handle_type": 0,
         "interpolation": 0
        }
       ]
      },
      "contrast": {
       "Points": [
        {
         "co": {
          "X": 1.0,
          "Y": 3.0
         },
         "handle_left": {
          "X": 0.5,
          "Y": 1.0
         },
         "handle_right": {
          "X": 0.5,
          "Y": 0.0
         },
         "handle_type": 0,
         "interpolation": 0
        },
        {
         "co": {
          "X": 30.0,
          "Y": 3.0
         },
         "handle_left": {
          "X": 0.5,
          "Y": 1.0
         },
         "handle_right": {
          "X": 0.5,
          "Y": 0.0
         },
         "handle_type": 0,
         "interpolation": 0
        }
       ]
      },
      "reader": {
       "acodec": "",
       "audio_bit_rate": 0,
       "audio_stream_index": -1,
       "audio_timebase": {
        "den": 1,
        "num": 1
       },
       "channel_layout": 4,
       "channels": 0,
       "display_ratio": {
        "den": 4,
        "num": 5
       },
       "duration": 3600.0,
       "file_size": "5832000",
       "fps": {
        "den": 1,
        "num": 30
       },
       "has_audio": false,
       "has_single_image": true,
       "has_video": true,
       "height": 576,
       "interlaced_frame": false,
       "metadata": {},
       "path": "@transitions/common/fade.svg",
       "pixel_format": -1,
       "pixel_ratio": {
        "den": 1,
        "num": 1
       },
       "sample_rate": 0,
       "top_field_first": true,
       "type": "QtImageReader",
       "vcodec": "",
       "video_bit_rate": 0,
       "video_length": "108000",
       "video_stream_index": -1,
       "video_timebase": {
        "den": 30,
        "num": 1
       },
       "width": 720
      },
      "replace_image": false,
      "id": "BHKYCUMDC6"
     },
     {
      "layer": 7000000,
      "title": "Transition",
      "type": "Mask",
      "position": 26.633333333333333,
      "start": 0,
      "end": 1,
      "brightness": {
       "Points": [
        {
         "co": {
          "X": 1.0,
          "Y": 1.0
         },
         "handle_left": {
          "X": 0.5,
          "Y": 1.0
         },
         "handle_right": {
          "X": 0.5,
          "Y": 0.0
         },
         "handle_type": 0,
         "interpolation": 0
        },
        {
         "co": {
          "X": 30.0,
          "Y": -1.0
         },
         "handle_left": {
          "X": 0.5,
          "Y": 1.0
         },
         "handle_right": {
          "X": 0.5,
          "Y": 0.0
         },
         "handle_type": 0,
         "interpolation": 0
        }
       ]
      },
      "contrast": {
       "Points": [
        {
         "co": {
          "X": 1.0,
          "Y": 3.0
         },
         "handle_left": {
          "X": 0.5,
          "Y": 1.0
         },
         "handle_right": {
          "X": 0.5,
          "Y": 0.0
         },
         "handle_type": 0,
         "interpolation": 0
        },
        {
         "co": {
          "X": 30.0,
          "Y": 3.0
         },
         "handle_left": {
          "X": 0.5,
          "Y": 1.0
         },
         "handle_right": {
          "X": 0.5,
          "Y": 0.0
         },
         "handle_type": 0,
         "interpolation": 0
        }
       ]
      },
      "reader": {
       "acodec": "",
       "audio_bit_rate": 0,
       "audio_stream_index": -1,
       "audio_timebase": {
        "den": 1,
        "num": 1
       },
       "channel_layout": 4,
       "channels": 0,
       "display_ratio": {
        "den": 4,
        "num": 5
       },
       "duration": 3600.0,
       "file_size": "5832000",
       "fps": {
        "den": 1,
        "num": 30
       },
       "has_audio": false,
       "has_single_image": true,
       "has_video": true,
       "height": 576,
       "interlaced_frame": false,
       "metadata": {},
       "path": "@transitions/common/fade.svg",
       "pixel_format": -1,
       "pixel_ratio": {
        "den": 1,
        "num": 1
       },
       "sample_rate": 0,
       "top_field_first": true,
       "type": "QtImageReader",
       "vcodec": "",
       "video_bit_rate": 0,
       "video_length": "108000",
       "video_stream_index": -1,
       "video_timebase": {
        "den": 30,
        "num": 1
       },
       "width": 720
      },
      "replace_image": false,
      "id": "Z4LPCLVXCA"
     },
     {
      "layer": 6000000,
      "title": "Transition",
      "type": "Mask",
      "position": 26.633333333333333,
      "start": 0,
      "end": 1,
      "brightness": {
       "Points": [
        {
         "co": {
          "X": 1.0,
          "Y": 1.0
         },
         "handle_left": {
          "X": 0.5,
          "Y": 1.0
         },
         "handle_right": {
          "X": 0.5,
          "Y": 0.0
         },
         "handle_type": 0,
         "interpolation": 0
        },
        {
         "co": {
          "X": 30.0,
          "Y": -1.0
         },
         "handle_left": {
          "X": 0.5,
          "Y": 1.0
         },
         "handle_right": {
          "X": 0.5,
          "Y": 0.0
         },
         "handle_type": 0,
         "interpolation": 0
        }
       ]
      },
      "contrast": {
       "Points": [
        {
         "co": {
          "X": 1.0,
          "Y": 3.0
         },
         "handle_left": {
          "X": 0.5,
          "Y": 1.0
         },
         "handle_right": {
          "X": 0.5,
          "Y": 0.0
         },
         "handle_type": 0,
         "interpolation": 0
        },
        {
         "co": {
          "X": 30.0,
          "Y": 3.0
         },
         "handle_left": {
          "X": 0.5,
          "Y": 1.0
         },
         "handle_right": {
          "X": 0.5,
          "Y": 0.0
         },
         "handle_type": 0,
         "interpolation": 0
        }
       ]
      },
      "reader": {
       "acodec": "",
       "audio_bit_rate": 0,
       "audio_stream_index": -1,
       "audio_timebase": {
        "den": 1,
        "num": 1
       },
       "channel_layout": 4,
       "channels": 0,
       "display_ratio": {
        "den": 4,
        "num": 5
       },
       "duration": 3600.0,
       "file_size": "5832000",
       "fps": {
        "den": 1,
        "num": 30
       },
       "has_audio": false,
       "has_single_image": true,
       "has_video": true,
       "height": 576,
       "interlaced_frame": false,
       "metadata": {},
       "path": "@transitions/common/fade.svg",
       "pixel_format": -1,
       "pixel_ratio": {
        "den": 1,
        "num": 1
       },
       "sample_rate": 0,
       "top_field_first": true,
       "type": "QtImageReader",
       "vcodec": "",
       "video_bit_rate": 0,
       "video_length": "108000",
       "video_stream_index": -1,
       "video_timebase": {
        "den": 30,
        "num": 1
       },
       "width": 720
      },
      "replace_image": false,
      "id": "MPAHNTV5UJ"
     },
     {
      "layer": 5000000,
      "title": "Transition",
      "type": "Mask",
      "position": 26.633333333333333,
      "start": 0,
      "end": 1,
      "brightness": {
       "Points": [
        {
         "co": {
          "X": 1.0,
          "Y": 1.0
         },
         "handle_left": {
          "X": 0.5,
          "Y": 1.0
         },
         "handle_right": {
          "X": 0.5,
          "Y": 0.0
         },
         "handle_type": 0,
         "interpolation": 0
        },
        {
         "co": {
          "X": 30.0,
          "Y": -1.0
         },
         "handle_left": {
          "X": 0.5,
          "Y": 1.0
         },
         "handle_right": {
          "X": 0.5,
          "Y": 0.0
         },
         "handle_type": 0,
         "interpolation": 0
        }
       ]
      },
      "contrast": {
       "Points": [
        {
         "co": {
          "X": 1.0,
          "Y": 3.0
         },
         "handle_left": {
          "X": 0.5,
          "Y": 1.0
         },
         "handle_right": {
          "X": 0.5,
          "Y": 0.0
         },
         "handle_type": 0,
         "interpolation": 0
        },
        {
         "co": {
          "X": 30.0,
          "Y": 3.0
         },
         "handle_left": {
          "X": 0.5,
          "Y": 1.0
         },
         "handle_right": {
          "X": 0.5,
          "Y": 0.0
         },
         "handle_type": 0,
         "interpolation": 0
        }
       ]
      },
      "reader": {
       "acodec": "",
       "audio_bit_rate": 0,
       "audio_stream_index": -1,
       "audio_timebase": {
        "den": 1,
        "num": 1
       },
       "channel_layout": 4,
       "channels": 0,
       "display_ratio": {
        "den": 4,
        "num": 5
       },
       "duration": 3600.0,
       "file_size": "5832000",
       "fps": {
        "den": 1,
        "num": 30
       },
       "has_audio": false,
       "has_single_image": true,
       "has_video": true,
       "height": 576,
       "interlaced_frame": false,
       "metadata": {},
       "path": "@transitions/common/fade.svg",
       "pixel_format": -1,
       "pixel_ratio": {
        "den": 1,
        "num": 1
       },
       "sample_rate": 0,
       "top_field_first": true,
       "type": "QtImageReader",
       "vcodec": "",
       "video_bit_rate": 0,
       "video_length": "108000",
       "video_stream_index": -1,
       "video_timebase": {
        "den": 30,
        "num": 1
       },
       "width": 720
      },
      "replace_image": false,
      "id": "47G933Z1X6"
     },
     {
      "layer": 4000000,
      "title": "Transition",
      "type": "Mask",
      "position": 26.633333333333333,
      "start": 0,
      "end": 1,
      "brightness": {
       "Points": [
        {
         "co": {
          "X": 1.0,
          "Y": 1.0
         },
         "handle_left": {
          "X": 0.5,
          "Y": 1.0
         },
         "handle_right": {
          "X": 0.5,
          "Y": 0.0
         },
         "handle_type": 0,
         "interpolation": 0
        },
        {
         "co": {
          "X": 30.0,
          "Y": -1.0
         },
         "handle_left": {
          "X": 0.5,
          "Y": 1.0
         },
         "handle_right": {
          "X": 0.5,
          "Y": 0.0
         },
         "handle_type": 0,
         "interpolation": 0
        }
       ]
      },
      "contrast": {
       "Points": [
        {
         "co": {
          "X": 1.0,
          "Y": 3.0
         },
         "handle_left": {
          "X": 0.5,
          "Y": 1.0
         },
         "handle_right": {
          "X": 0.5,
          "Y": 0.0
         },
         "handle_type": 0,
         "interpolation": 0
        },
        {
         "co": {
          "X": 30.0,
          "Y": 3.0
         },
         "handle_left": {
          "X": 0.5,
          "Y": 1.0
         },
         "handle_right": {
          "X": 0.5,
          "Y": 0.0
         },
         "handle_type": 0,
         "interpolation": 0
        }
       ]
      },
      "reader": {
       "acodec": "",
       "audio_bit_rate": 0,
       "audio_stream_index": -1,
       "audio_timebase": {
        "den": 1,
        "num": 1
       },
       "channel_layout": 4,
       "channels": 0,
       "display_ratio": {
        "den": 4,
        "num": 5
       },
       "duration": 3600.0,
       "file_size": "5832000",
       "fps": {
        "den": 1,
        "num": 30
       },
       "has_audio": false,
       "has_single_image": true,
       "has_video": true,
       "height": 576,
       "interlaced_frame": false,
       "metadata": {},
       "path": "@transitions/common/fade.svg",
       "pixel_format": -1,
       "pixel_ratio": {
        "den": 1,
        "num": 1
       },
       "sample_rate": 0,
       "top_field_first": true,
       "type": "QtImageReader",
       "vcodec": "",
       "video_bit_rate": 0,
       "video_length": "108000",
       "video_stream_index": -1,
       "video_timebase": {
        "den": 30,
        "num": 1
       },
       "width": 720
      },
      "replace_image": false,
      "id": "J3F6G7YKRA"
     },
     {
      "layer": 3000000,
      "title": "Transition",
      "type": "Mask",
      "position": 26.633333333333333,
      "start": 0,
      "end": 1,
      "brightness": {
       "Points": [
        {
         "co": {
          "X": 1.0,
          "Y": 1.0
         },
         "handle_left": {
          "X": 0.5,
          "Y": 1.0
         },
         "handle_right": {
          "X": 0.5,
          "Y": 0.0
         },
         "handle_type": 0,
         "interpolation": 0
        },
        {
         "co": {
          "X": 30.0,
          "Y": -1.0
         },
         "handle_left": {
          "X": 0.5,
          "Y": 1.0
         },
         "handle_right": {
          "X": 0.5,
          "Y": 0.0
         },
         "handle_type": 0,
         "interpolation": 0
        }
       ]
      },
      "contrast": {
       "Points": [
        {
         "co": {
          "X": 1.0,
          "Y": 3.0
         },
         "handle_left": {
          "X": 0.5,
          "Y": 1.0
         },
         "handle_right": {
          "X": 0.5,
          "Y": 0.0
         },
         "handle_type": 0,
         "interpolation": 0
        },
        {
         "co": {
          "X": 30.0,
          "Y": 3.0
         },
         "handle_left": {
          "X": 0.5,
          "Y": 1.0
         },
         "handle_right": {
          "X": 0.5,
          "Y": 0.0
         },
         "handle_type": 0,
         "interpolation": 0
        }
       ]
      },
      "reader": {
       "acodec": "",
       "audio_bit_rate": 0,
       "audio_stream_index": -1,
       "audio_timebase": {
        "den": 1,
        "num": 1
       },
       "channel_layout": 4,
       "channels": 0,
       "display_ratio": {
        "den": 4,
        "num": 5
       },
       "duration": 3600.0,
       "file_size": "5832000",
       "fps": {
        "den": 1,
        "num": 30
       },
       "has_audio": false,
       "has_single_image": true,
       "has_video": true,
       "height": 576,
       "interlaced_frame": false,
       "metadata": {},
       "path": "@transitions/common/fade.svg",
       "pixel_format": -1,
       "pixel_ratio": {
        "den": 1,
        "num": 1
       },
       "sample_rate": 0,
       "top_field_first": true,
       "type": "QtImageReader",
       "vcodec": "",
       "video_bit_rate": 0,
       "video_length": "108000",
       "video_stream_index": -1,
       "video_timebase": {
        "den": 30,
        "num": 1
       },
       "width": 720
      },
      "replace_image": false,
      "id": "YIVQE4FZQJ"
     },
     {
      "layer": 7000000,
      "title": "Transition",
      "type": "Mask",
      "position": 29.933333333333334,
      "start": 0,
      "end": 1,
      "brightness": {
       "Points": [
        {
         "co": {
          "X": 1.0,
          "Y": -1.0
         },
         "handle_left": {
          "X": 0.5,
          "Y": 1.0
         },
         "handle_right": {
          "X": 0.5,
          "Y": 0.0
         },
         "handle_type": 0,
         "interpolation": 0
        },
        {
         "co": {
          "X": 30.0,
          "Y": 1.0
         },
         "handle_left": {
          "X": 0.5,
          "Y": 1.0
         },
         "handle_right": {
          "X": 0.5,
          "Y": 0.0
         },
         "handle_type": 0,
         "interpolation": 0
        }
       ]
      },
      "contrast": {
       "Points": [
        {
         "co": {
          "X": 1.0,
          "Y": 3.0
         },
         "handle_left": {
          "X": 0.5,
          "Y": 1.0
         },
         "handle_right": {
          "X": 0.5,
          "Y": 0.0
         },
         "handle_type": 0,
         "interpolation": 0
        },
        {
         "co": {
          "X": 30.0,
          "Y": 3.0
         },
         "handle_left": {
          "X": 0.5,
          "Y": 1.0
         },
         "handle_right": {
          "X": 0.5,
          "Y": 0.0
         },
         "handle_type": 0,
         "interpolation": 0
        }
       ]
      },
      "reader": {
       "acodec": "",
       "audio_bit_rate": 0,
       "audio_stream_index": -1,
       "audio_timebase": {
        "den": 1,
        "num": 1
       },
       "channel_layout": 4,
       "channels": 0,
       "display_ratio": {
        "den": 4,
        "num": 5
       },
       "duration": 3600.0,
       "file_size": "5832000",
       "fps": {
        "den": 1,
        "num": 30
       },
       "has_audio": false,
       "has_single_image": true,
       "has_video": true,
       "height": 576,
       "interlaced_frame": false,
       "metadata": {},
       "path": "@transitions/common/fade.svg",
       "pixel_format": -1,
       "pixel_ratio": {
        "den": 1,
        "num": 1
       },
       "sample_rate": 0,
       "top_field_first": true,
       "type": "QtImageReader",
       "vcodec": "",
       "video_bit_rate": 0,
       "video_length": "108000",
       "video_stream_index": -1,
       "video_timebase": {
        "den": 30,
        "num": 1
       },
       "width": 720
      },
      "replace_image": false,
      "id": "IHGENV3HTQ"
     },
     {
      "layer": 6000000,
      "title": "Transition",
      "type": "Mask",
      "position": 29.933333333333334,
      "start": 0,
      "end": 1,
      "brightness": {
       "Points": [
        {
         "co": {
          "X": 1.0,
          "Y": -1.0
         },
         "handle_left": {
          "X": 0.5,
          "Y": 1.0
         },
         "handle_right": {
          "X": 0.5,
          "Y": 0.0
         },
         "handle_type": 0,
         "interpolation": 0
        },
        {
         "co": {
          "X": 30.0,
          "Y": 1.0
         },
         "handle_left": {
          "X": 0.5,
          "Y": 1.0
         },
         "handle_right": {
          "X": 0.5,
          "Y": 0.0
         },
         "handle_type": 0,
         "interpolation": 0
        }
       ]
      },
      "contrast": {
       "Points": [
        {
         "co": {
          "X": 1.0,
          "Y": 3.0
         },
         "handle_left": {
          "X": 0.5,
          "Y": 1.0
         },
         "handle_right": {
          "X": 0.5,
          "Y": 0.0
         },
         "handle_type": 0,
         "interpolation": 0
        },
        {
         "co": {
          "X": 30.0,
          "Y": 3.0
         },
         "handle_left": {
          "X": 0.5,
          "Y": 1.0
         },
         "handle_right": {
          "X": 0.5,
          "Y": 0.0
         },
         "handle_type": 0,
         "interpolation": 0
        }
       ]
      },
      "reader": {
       "acodec": "",
       "audio_bit_rate": 0,
       "audio_stream_index": -1,
       "audio_timebase": {
        "den": 1,
        "num": 1
       },
       "channel_layout": 4,
       "channels": 0,
       "display_ratio": {
        "den": 4,
        "num": 5
       },
       "duration": 3600.0,
       "file_size": "5832000",
       "fps": {
        "den": 1,
        "num": 30
       },
       "has_audio": false,
       "has_single_image": true,
       "has_video": true,
       "height": 576,
       "interlaced_frame": false,
       "metadata": {},
       "path": "@transitions/common/fade.svg",
       "pixel_format": -1,
       "pixel_ratio": {
        "den": 1,
        "num": 1
       },
       "sample_rate": 0,
       "top_field_first": true,
       "type": "QtImageReader",
       "vcodec": "",
       "video_bit_rate": 0,
       "video_length": "108000",
       "video_stream_index": -1,
       "video_timebase": {
        "den": 30,
        "num": 1
       },
       "width": 720
      },
      "replace_image": false,
      "id": "L0LNX9VSXM"
     },
     {
      "layer": 5000000,
      "title": "Transition",
      "type": "Mask",
      "position": 29.933333333333334,
      "start": 0,
      "end": 1,
      "brightness": {
       "Points": [
        {
         "co": {
          "X": 1.0,
          "Y": -1.0
         },
         "handle_left": {
          "X": 0.5,
          "Y": 1.0
         },
         "handle_right": {
          "X": 0.5,
          "Y": 0.0
         },
         "handle_type": 0,
         "interpolation": 0
        },
        {
         "co": {
          "X": 30.0,
          "Y": 1.0
         },
         "handle_left": {
          "X": 0.5,
          "Y": 1.0
         },
         "handle_right": {
          "X": 0.5,
          "Y": 0.0
         },
         "handle_type": 0,
         "interpolation": 0
        }
       ]
      },
      "contrast": {
       "Points": [
        {
         "co": {
          "X": 1.0,
          "Y": 3.0
         },
         "handle_left": {
          "X": 0.5,
          "Y": 1.0
         },
         "handle_right": {
          "X": 0.5,
          "Y": 0.0
         },
         "handle_type": 0,
         "interpolation": 0
        },
        {
         "co": {
          "X": 30.0,
          "Y": 3.0
         },
         "handle_left": {
          "X": 0.5,
          "Y": 1.0
         },
         "handle_right": {
          "X": 0.5,
          "Y": 0.0
         },
         "handle_type": 0,
         "interpolation": 0
        }
       ]
      },
      "reader": {
       "acodec": "",
       "audio_bit_rate": 0,
       "audio_stream_index": -1,
       "audio_timebase": {
        "den": 1,
        "num": 1
       },
       "channel_layout": 4,
       "channels": 0,
       "display_ratio": {
        "den": 4,
        "num": 5
       },
       "duration": 3600.0,
       "file_size": "5832000",
       "fps": {
        "den": 1,
        "num": 30
       },
       "has_audio": false,
       "has_single_image": true,
       "has_video": true,
       "height": 576,
       "interlaced_frame": false,
       "metadata": {},
       "path": "@transitions/common/fade.svg",
       "pixel_format": -1,
       "pixel_ratio": {
        "den": 1,
        "num": 1
       },
       "sample_rate": 0,
       "top_field_first": true,
       "type": "QtImageReader",
       "vcodec": "",
       "video_bit_rate": 0,
       "video_length": "108000",
       "video_stream_index": -1,
       "video_timebase": {
        "den": 30,
        "num": 1
       },
       "width": 720
      },
      "replace_image": false,
      "id": "9P08T43W0H"
     },
     {
      "layer": 4000000,
      "title": "Transition",
      "type": "Mask",
      "position": 29.933333333333334,
      "start": 0,
      "end": 1,
      "brightness": {
       "Points": [
        {
         "co": {
          "X": 1.0,
          "Y": -1.0
         },
         "handle_left": {
          "X": 0.5,
          "Y": 1.0
         },
         "handle_right": {
          "X": 0.5,
          "Y": 0.0
         },
         "handle_type": 0,
         "interpolation": 0
        },
        {
         "co": {
          "X": 30.0,
          "Y": 1.0
         },
         "handle_left": {
          "X": 0.5,
          "Y": 1.0
         },
         "handle_right": {
          "X": 0.5,
          "Y": 0.0
         },
         "handle_type": 0,
         "interpolation": 0
        }
       ]
      },
      "contrast": {
       "Points": [
        {
         "co": {
          "X": 1.0,
          "Y": 3.0
         },
         "handle_left": {
          "X": 0.5,
          "Y": 1.0
         },
         "handle_right": {
          "X": 0.5,
          "Y": 0.0
         },
         "handle_type": 0,
         "interpolation": 0
        },
        {
         "co": {
          "X": 30.0,
          "Y": 3.0
         },
         "handle_left": {
          "X": 0.5,
          "Y": 1.0
         },
         "handle_right": {
          "X": 0.5,
          "Y": 0.0
         },
         "handle_type": 0,
         "interpolation": 0
        }
       ]
      },
      "reader": {
       "acodec": "",
       "audio_bit_rate": 0,
       "audio_stream_index": -1,
       "audio_timebase": {
        "den": 1,
        "num": 1
       },
       "channel_layout": 4,
       "channels": 0,
       "display_ratio": {
        "den": 4,
        "num": 5
       },
       "duration": 3600.0,
       "file_size": "5832000",
       "fps": {
        "den": 1,
        "num": 30
       },
       "has_audio": false,
       "has_single_image": true,
       "has_video": true,
       "height": 576,
       "interlaced_frame": false,
       "metadata": {},
       "path": "@transitions/common/fade.svg",
       "pixel_format": -1,
       "pixel_ratio": {
        "den": 1,
        "num": 1
       },
       "sample_rate": 0,
       "top_field_first": true,
       "type": "QtImageReader",
       "vcodec": "",
       "video_bit_rate": 0,
       "video_length": "108000",
       "video_stream_index": -1,
       "video_timebase": {
        "den": 30,
        "num": 1
       },
       "width": 720
      },
      "replace_image": false,
      "id": "A0I8N96BOX"
     },
     {
      "layer": 3000000,
      "title": "Transition",
      "type": "Mask",
      "position": 29.933333333333334,
      "start": 0,
      "end": 0.9999999999999821,
      "brightness": {
       "Points": [
        {
         "co": {
          "X": 1.0,
          "Y": -1.0
         },
         "handle_left": {
          "X": 0.5,
          "Y": 1.0
         },
         "handle_right": {
          "X": 0.5,
          "Y": 0.0
         },
         "handle_type": 0,
         "interpolation": 0
        },
        {
         "co": {
          "X": 30.0,
          "Y": 1.0
         },
         "handle_left": {
          "X": 0.5,
          "Y": 1.0
         },
         "handle_right": {
          "X": 0.5,
          "Y": 0.0
         },
         "handle_type": 0,
         "interpolation": 0
        }
       ]
      },
      "contrast": {
       "Points": [
        {
         "co": {
          "X": 1.0,
          "Y": 3.0
         },
         "handle_left": {
          "X": 0.5,
          "Y": 1.0
         },
         "handle_right": {
          "X": 0.5,
          "Y": 0.0
         },
         "handle_type": 0,
         "interpolation": 0
        },
        {
         "co": {
          "X": 30.0,
          "Y": 3.0
         },
         "handle_left": {
          "X": 0.5,
          "Y": 1.0
         },
         "handle_right": {
          "X": 0.5,
          "Y": 0.0
         },
         "handle_type": 0,
         "interpolation": 0
        }
       ]
      },
      "reader": {
       "acodec": "",
       "audio_bit_rate": 0,
       "audio_stream_index": -1,
       "audio_timebase": {
        "den": 1,
        "num": 1
       },
       "channel_layout": 4,
       "channels": 0,
       "display_ratio": {
        "den": 4,
        "num": 5
       },
       "duration": 3600.0,
       "file_size": "5832000",
       "fps": {
        "den": 1,
        "num": 30
       },
       "has_audio": false,
       "has_single_image": true,
       "has_video": true,
       "height": 576,
       "interlaced_frame": false,
       "metadata": {},
       "path": "@transitions/common/fade.svg",
       "pixel_format": -1,
       "pixel_ratio": {
        "den": 1,
        "num": 1
       },
       "sample_rate": 0,
       "top_field_first": true,
       "type": "QtImageReader",
       "vcodec": "",
       "video_bit_rate": 0,
       "video_length": "108000",
       "video_stream_index": -1,
       "video_timebase": {
        "den": 30,
        "num": 1
       },
       "width": 720
      },
      "replace_image": false,
      "id": "6HFQOBFSG3"
     },
     {
      "layer": 2000000,
      "title": "Transition",
      "type": "Mask",
      "position": 29.933333333333334,
      "start": 0,
      "end": 0.9999999999999821,
      "brightness": {
       "Points": [
        {
         "co": {
          "X": 1.0,
          "Y": -1.0
         },
         "handle_left": {
          "X": 0.5,
          "Y": 1.0
         },
         "handle_right": {
          "X": 0.5,
          "Y": 0.0
         },
         "handle_type": 0,
         "interpolation": 0
        },
        {
         "co": {
          "X": 30.0,
          "Y": 1.0
         },
         "handle_left": {
          "X": 0.5,
          "Y": 1.0
         },
         "handle_right": {
          "X": 0.5,
          "Y": 0.0
         },
         "handle_type": 0,
         "interpolation": 0
        }
       ]
      },
      "contrast": {
       "Points": [
        {
         "co": {
          "X": 1.0,
          "Y": 3.0
         },
         "handle_left": {
          "X": 0.5,
          "Y": 1.0
         },
         "handle_right": {
          "X": 0.5,
          "Y": 0.0
         },
         "handle_type": 0,
         "interpolation": 0
        },
        {
         "co": {
          "X": 30.0,
          "Y": 3.0
         },
         "handle_left": {
          "X": 0.5,
          "Y": 1.0
         },
         "handle_right": {
          "X": 0.5,
          "Y": 0.0
         },
         "handle_type": 0,
         "interpolation": 0
        }
       ]
      },
      "reader": {
       "acodec": "",
       "audio_bit_rate": 0,
       "audio_stream_index": -1,
       "audio_timebase": {
        "den": 1,
        "num": 1
       },
       "channel_layout": 4,
       "channels": 0,
       "display_ratio": {
        "den": 4,
        "num": 5
       },
       "duration": 3600.0,
       "file_size": "5832000",
       "fps": {
        "den": 1,
        "num": 30
       },
       "has_audio": false,
       "has_single_image": true,
       "has_video": true,
       "height": 576,
       "interlaced_frame": false,
       "metadata": {},
       "path": "@transitions/common/fade.svg",
       "pixel_format": -1,
       "pixel_ratio": {
        "den": 1,
        "num": 1
       },
       "sample_rate": 0,
       "top_field_first": true,
       "type": "QtImageReader",
       "vcodec": "",
       "video_bit_rate": 0,
       "video_length": "108000",
       "video_stream_index": -1,
       "video_timebase": {
        "den": 30,
        "num": 1
       },
       "width": 720
      },
      "replace_image": false,
      "id": "ROR47Q4UPE"
     },
     {
      "layer": 5000000,
      "title": "Transition",
      "type": "Mask",
      "position": 35.333333333333336,
      "start": 0,
      "end": 1,
      "brightness": {
       "Points": [
        {
         "co": {
          "X": 1.0,
          "Y": -1.0
         },
         "handle_left": {
          "X": 0.5,
          "Y": 1.0
         },
         "handle_right": {
          "X": 0.5,
          "Y": 0.0
         },
         "handle_type": 0,
         "interpolation": 0
        },
        {
         "co": {
          "X": 30.0,
          "Y": 1.0
         },
         "handle_left": {
          "X": 0.5,
          "Y": 1.0
         },
         "handle_right": {
          "X": 0.5,
          "Y": 0.0
         },
         "handle_type": 0,
         "interpolation": 0
        }
       ]
      },
      "contrast": {
       "Points": [
        {
         "co": {
          "X": 1.0,
          "Y": 3.0
         },
         "handle_left": {
          "X": 0.5,
          "Y": 1.0
         },
         "handle_right": {
          "X": 0.5,
          "Y": 0.0
         },
         "handle_type": 0,
         "interpolation": 0
        },
        {
         "co": {
          "X": 30.0,
          "Y": 3.0
         },
         "handle_left": {
          "X": 0.5,
          "Y": 1.0
         },
         "handle_right": {
          "X": 0.5,
          "Y": 0.0
         },
         "handle_type": 0,
         "interpolation": 0
        }
       ]
      },
      "reader": {
       "acodec": "",
       "audio_bit_rate": 0,
       "audio_stream_index": -1,
       "audio_timebase": {
        "den": 1,
        "num": 1
       },
       "channel_layout": 4,
       "channels": 0,
       "display_ratio": {
        "den": 4,
        "num": 5
       },
       "duration": 3600.0,
       "file_size": "5832000",
       "fps": {
        "den": 1,
        "num": 30
       },
       "has_audio": false,
       "has_single_image": true,
       "has_video": true,
       "height": 576,
       "interlaced_frame": false,
       "metadata": {},
       "path": "@transitions/common/fade.svg",
       "pixel_format": -1,
       "pixel_ratio": {
        "den": 1,
        "num": 1
       },
       "sample_rate": 0,
       "top_field_first": true,
       "type": "QtImageReader",
       "vcodec": "",
       "video_bit_rate": 0,
       "video_length": "108000",
       "video_stream_index": -1,
       "video_timebase": {
        "den": 30,
        "num": 1
       },
       "width": 720
      },
      "replace_image": false,
      "id": "YSXTQ2ILB3"
     },
     {
      "layer": 7000000,
      "title": "Transition",
      "type": "Mask",
      "position": 35.333333333333336,
      "start": 0,
      "end": 1,
      "brightness": {
       "Points": [
        {
         "co": {
          "X": 1.0,
          "Y": -1.0
         },
         "handle_left": {
          "X": 0.5,
          "Y": 1.0
         },
         "handle_right": {
          "X": 0.5,
          "Y": 0.0
         },
         "handle_type": 0,
         "interpolation": 0
        },
        {
         "co": {
          "X": 30.0,
          "Y": 1.0
         },
         "handle_left": {
          "X": 0.5,
          "Y": 1.0
         },
         "handle_right": {
          "X": 0.5,
          "Y": 0.0
         },
         "handle_type": 0,
         "interpolation": 0
        }
       ]
      },
      "contrast": {
       "Points": [
        {
         "co": {
          "X": 1.0,
          "Y": 3.0
         },
         "handle_left": {
          "X": 0.5,
          "Y": 1.0
         },
         "handle_right": {
          "X": 0.5,
          "Y": 0.0
         },
         "handle_type": 0,
         "interpolation": 0
        },
        {
         "co": {
          "X": 30.0,
          "Y": 3.0
         },
         "handle_left": {
          "X": 0.5,
          "Y": 1.0
         },
         "handle_right": {
          "X": 0.5,
          "Y": 0.0
         },
         "handle_type": 0,
         "interpolation": 0
        }
       ]
      },
      "reader": {
       "acodec": "",
       "audio_bit_rate": 0,
       "audio_stream_index": -1,
       "audio_timebase": {
        "den": 1,
        "num": 1
       },
       "channel_layout": 4,
       "channels": 0,
       "display_ratio": {
        "den": 4,
        "num": 5
       },
       "duration": 3600.0,
       "file_size": "5832000",
       "fps": {
        "den": 1,
        "num": 30
       },
       "has_audio": false,
       "has_single_image": true,
       "has_video": true,
       "height": 576,
       "interlaced_frame": false,
       "metadata": {},
       "path": "@transitions/common/fade.svg",
       "pixel_format": -1,
       "pixel_ratio": {
        "den": 1,
        "num": 1
       },
       "sample_rate": 0,
       "top_field_first": true,
       "type": "QtImageReader",
       "vcodec": "",
       "video_bit_rate": 0,
       "video_length": "108000",
       "video_stream_index": -1,
       "video_timebase": {
        "den": 30,
        "num": 1
       },
       "width": 720
      },
      "replace_image": false,
      "id": "PXS500E3HN"
     },
     {
      "layer": 6000000,
      "title": "Transition",
      "type": "Mask",
      "position": 35.333333333333336,
      "start": 0,
      "end": 1,
      "brightness": {
       "Points": [
        {
         "co": {
          "X": 1.0,
          "Y": -1.0
         },
         "handle_left": {
          "X": 0.5,
          "Y": 1.0
         },
         "handle_right": {
          "X": 0.5,
          "Y": 0.0
         },
         "handle_type": 0,
         "interpolation": 0
        },
        {
         "co": {
          "X": 30.0,
          "Y": 1.0
         },
         "handle_left": {
          "X": 0.5,
          "Y": 1.0
         },
         "handle_right": {
          "X": 0.5,
          "Y": 0.0
         },
         "handle_type": 0,
         "interpolation": 0
        }
       ]
      },
      "contrast": {
       "Points": [
        {
         "co": {
          "X": 1.0,
          "Y": 3.0
         },
         "handle_left": {
          "X": 0.5,
          "Y": 1.0
         },
         "handle_right": {
          "X": 0.5,
          "Y": 0.0
         },
         "handle_type": 0,
         "interpolation": 0
        },
        {
         "co": {
          "X": 30.0,
          "Y": 3.0
         },
         "handle_left": {
          "X": 0.5,
          "Y": 1.0
         },
         "handle_right": {
          "X": 0.5,
          "Y": 0.0
         },
         "handle_type": 0,
         "interpolation": 0
        }
       ]
      },
      "reader": {
       "acodec": "",
       "audio_bit_rate": 0,
       "audio_stream_index": -1,
       "audio_timebase": {
        "den": 1,
        "num": 1
       },
       "channel_layout": 4,
       "channels": 0,
       "display_ratio": {
        "den": 4,
        "num": 5
       },
       "duration": 3600.0,
       "file_size": "5832000",
       "fps": {
        "den": 1,
        "num": 30
       },
       "has_audio": false,
       "has_single_image": true,
       "has_video": true,
       "height": 576,
       "interlaced_frame": false,
       "metadata": {},
       "path": "@transitions/common/fade.svg",
       "pixel_format": -1,
       "pixel_ratio": {
        "den": 1,
        "num": 1
       },
       "sample_rate": 0,
       "top_field_first": true,
       "type": "QtImageReader",
       "vcodec": "",
       "video_bit_rate": 0,
       "video_length": "108000",
       "video_stream_index": -1,
       "video_timebase": {
        "den": 30,
        "num": 1
       },
       "width": 720
      },
      "replace_image": false,
      "id": "6EFG5AZ2RX"
     },
     {
      "layer": 5000000,
      "title": "Transition",
      "type": "Mask",
      "position": 31.333333333333332,
      "start": 0,
      "end": 1,
      "brightness": {
       "Points": [
        {
         "co": {
          "X": 1.0,
          "Y": 1.0
         },
         "handle_left": {
          "X": 0.5,
          "Y": 1.0
         },
         "handle_right": {
          "X": 0.5,
          "Y": 0.0
         },
         "handle_type": 0,
         "interpolation": 0
        },
        {
         "co": {
          "X": 30.0,
          "Y": -1.0
         },
         "handle_left": {
          "X": 0.5,
          "Y": 1.0
         },
         "handle_right": {
          "X": 0.5,
          "Y": 0.0
         },
         "handle_type": 0,
         "interpolation": 0
        }
       ]
      },
      "contrast": {
       "Points": [
        {
         "co": {
          "X": 1.0,
          "Y": 3.0
         },
         "handle_left": {
          "X": 0.5,
          "Y": 1.0
         },
         "handle_right": {
          "X": 0.5,
          "Y": 0.0
         },
         "handle_type": 0,
         "interpolation": 0
        },
        {
         "co": {
          "X": 30.0,
          "Y": 3.0
         },
         "handle_left": {
          "X": 0.5,
          "Y": 1.0
         },
         "handle_right": {
          "X": 0.5,
          "Y": 0.0
         },
         "handle_type": 0,
         "interpolation": 0
        }
       ]
      },
      "reader": {
       "acodec": "",
       "audio_bit_rate": 0,
       "audio_stream_index": -1,
       "audio_timebase": {
        "den": 1,
        "num": 1
       },
       "channel_layout": 4,
       "channels": 0,
       "display_ratio": {
        "den": 4,
        "num": 5
       },
       "duration": 3600.0,
       "file_size": "5832000",
       "fps": {
        "den": 1,
        "num": 30
       },
       "has_audio": false,
       "has_single_image": true,
       "has_video": true,
       "height": 576,
       "interlaced_frame": false,
       "metadata": {},
       "path": "@transitions/common/fade.svg",
       "pixel_format": -1,
       "pixel_ratio": {
        "den": 1,
        "num": 1
       },
       "sample_rate": 0,
       "top_field_first": true,
       "type": "QtImageReader",
       "vcodec": "",
       "video_bit_rate": 0,
       "video_length": "108000",
       "video_stream_index": -1,
       "video_timebase": {
        "den": 30,
        "num": 1
       },
       "width": 720
      },
      "replace_image": false,
      "id": "16Q1Z8PQP3"
     },
     {
      "layer": 7000000,
      "title": "Transition",
      "type": "Mask",
      "position": 31.333333333333332,
      "start": 0,
      "end": 1,
      "brightness": {
       "Points": [
        {
         "co": {
          "X": 1.0,
          "Y": 1.0
         },
         "handle_left": {
          "X": 0.5,
          "Y": 1.0
         },
         "handle_right": {
          "X": 0.5,
          "Y": 0.0
         },
         "handle_type": 0,
         "interpolation": 0
        },
        {
         "co": {
          "X": 30.0,
          "Y": -1.0
         },
         "handle_left": {
          "X": 0.5,
          "Y": 1.0
         },
         "handle_right": {
          "X": 0.5,
          "Y": 0.0
         },
         "handle_type": 0,
         "interpolation": 0
        }
       ]
      },
      "contrast": {
       "Points": [
        {
         "co": {
          "X": 1.0,
          "Y": 3.0
         },
         "handle_left": {
          "X": 0.5,
          "Y": 1.0
         },
         "handle_right": {
          "X": 0.5,
          "Y": 0.0
         },
         "handle_type": 0,
         "interpolation": 0
        },
        {
         "co": {
          "X": 30.0,
          "Y": 3.0
         },
         "handle_left": {
          "X": 0.5,
          "Y": 1.0
         },
         "handle_right": {
          "X": 0.5,
          "Y": 0.0
         },
         "handle_type": 0,
         "interpolation": 0
        }
       ]
      },
      "reader": {
       "acodec": "",
       "audio_bit_rate": 0,
       "audio_stream_index": -1,
       "audio_timebase": {
        "den": 1,
        "num": 1
       },
       "channel_layout": 4,
       "channels": 0,
       "display_ratio": {
        "den": 4,
        "num": 5
       },
       "duration": 3600.0,
       "file_size": "5832000",
       "fps": {
        "den": 1,
        "num": 30
       },
       "has_audio": false,
       "has_single_image": true,
       "has_video": true,
       "height": 576,
       "interlaced_frame": false,
       "metadata": {},
       "path": "@transitions/common/fade.svg",
       "pixel_format": -1,
       "pixel_ratio": {
        "den": 1,
        "num": 1
       },
       "sample_rate": 0,
       "top_field_first": true,
       "type": "QtImageReader",
       "vcodec": "",
       "video_bit_rate": 0,
       "video_length": "108000",
       "video_stream_index": -1,
       "video_timebase": {
        "den": 30,
        "num": 1
       },
       "width": 720
      },
      "replace_image": false,
      "id": "ME3NXVINI9"
     },
     {
      "layer": 6000000,
      "title": "Transition",
      "type": "Mask",
      "position": 31.333333333333332,
      "start": 0,
      "end": 1,
      "brightness": {
       "Points": [
        {
         "co": {
          "X": 1.0,
          "Y": 1.0
         },
         "handle_left": {
          "X": 0.5,
          "Y": 1.0
         },
         "handle_right": {
          "X": 0.5,
          "Y": 0.0
         },
         "handle_type": 0,
         "interpolation": 0
        },
        {
         "co": {
          "X": 30.0,
          "Y": -1.0
         },
         "handle_left": {
          "X": 0.5,
          "Y": 1.0
         },
         "handle_right": {
          "X": 0.5,
          "Y": 0.0
         },
         "handle_type": 0,
         "interpolation": 0
        }
       ]
      },
      "contrast": {
       "Points": [
        {
         "co": {
          "X": 1.0,
          "Y": 3.0
         },
         "handle_left": {
          "X": 0.5,
          "Y": 1.0
         },
         "handle_right": {
          "X": 0.5,
          "Y": 0.0
         },
         "handle_type": 0,
         "interpolation": 0
        },
        {
         "co": {
          "X": 30.0,
          "Y": 3.0
         },
         "handle_left": {
          "X": 0.5,
          "Y": 1.0
         },
         "handle_right": {
          "X": 0.5,
          "Y": 0.0
         },
         "handle_type": 0,
         "interpolation": 0
        }
       ]
      },
      "reader": {
       "acodec": "",
       "audio_bit_rate": 0,
       "audio_stream_index": -1,
       "audio_timebase": {
        "den": 1,
        "num": 1
       },
       "channel_layout": 4,
       "channels": 0,
       "display_ratio": {
        "den": 4,
        "num": 5
       },
       "duration": 3600.0,
       "file_size": "5832000",
       "fps": {
        "den": 1,
        "num": 30
       },
       "has_audio": false,
       "has_single_image": true,
       "has_video": true,
       "height": 576,
       "interlaced_frame": false,
       "metadata": {},
       "path": "@transitions/common/fade.svg",
       "pixel_format": -1,
       "pixel_ratio": {
        "den": 1,
        "num": 1
       },
       "sample_rate": 0,
       "top_field_first": true,
       "type": "QtImageReader",
       "vcodec": "",
       "video_bit_rate": 0,
       "video_length": "108000",
       "video_stream_index": -1,
       "video_timebase": {
        "den": 30,
        "num": 1
       },
       "width": 720
      },
      "replace_image": false,
      "id": "1DK47L92IA"
     },
     {
      "layer": 2000000,
      "title": "Transition",
      "type": "Mask",
      "position": 36.7,
      "start": 0,
      "end": 1,
      "brightness": {
       "Points": [
        {
         "co": {
          "X": 1.0,
          "Y": 1.0
         },
         "handle_left": {
          "X": 0.5,
          "Y": 1.0
         },
         "handle_right": {
          "X": 0.5,
          "Y": 0.0
         },
         "handle_type": 0,
         "interpolation": 0
        },
        {
         "co": {
          "X": 30.0,
          "Y": -1.0
         },
         "handle_left": {
          "X": 0.5,
          "Y": 1.0
         },
         "handle_right": {
          "X": 0.5,
          "Y": 0.0
         },
         "handle_type": 0,
         "interpolation": 0
        }
       ]
      },
      "contrast": {
       "Points": [
        {
         "co": {
          "X": 1.0,
          "Y": 3.0
         },
         "handle_left": {
          "X": 0.5,
          "Y": 1.0
         },
         "handle_right": {
          "X": 0.5,
          "Y": 0.0
         },
         "handle_type": 0,
         "interpolation": 0
        },
        {
         "co": {
          "X": 30.0,
          "Y": 3.0
         },
         "handle_left": {
          "X": 0.5,
          "Y": 1.0
         },
         "handle_right": {
          "X": 0.5,
          "Y": 0.0
         },
         "handle_type": 0,
         "interpolation": 0
        }
       ]
      },
      "reader": {
       "acodec": "",
       "audio_bit_rate": 0,
       "audio_stream_index": -1,
       "audio_timebase": {
        "den": 1,
        "num": 1
       },
       "channel_layout": 4,
       "channels": 0,
       "display_ratio": {
        "den": 4,
        "num": 5
       },
       "duration": 3600.0,
       "file_size": "5832000",
       "fps": {
        "den": 1,
        "num": 30
       },
       "has_audio": false,
       "has_single_image": true,
       "has_video": true,
       "height": 576,
       "interlaced_frame": false,
       "metadata": {},
       "path": "@transitions/common/fade.svg",
       "pixel_format": -1,
       "pixel_ratio": {
        "den": 1,
        "num": 1
       },
       "sample_rate": 0,
       "top_field_first": true,
       "type": "QtImageReader",
       "vcodec": "",
       "video_bit_rate": 0,
       "video_length": "108000",
       "video_stream_index": -1,
       "video_timebase": {
        "den": 30,
        "num": 1
       },
       "width": 720
      },
      "replace_image": false,
      "id": "RT9O39UDSB"
     },
     {
      "layer": 4000000,
      "title": "Transition",
      "type": "Mask",
      "position": 40.63333333333333,
      "start": 0,
      "end": 1,
      "brightness": {
       "Points": [
        {
         "co": {
          "X": 1.0,
          "Y": 1.0
         },
         "handle_left": {
          "X": 0.5,
          "Y": 1.0
         },
         "handle_right": {
          "X": 0.5,
          "Y": 0.0
         },
         "handle_type": 0,
         "interpolation": 0
        },
        {
         "co": {
          "X": 30.0,
          "Y": -1.0
         },
         "handle_left": {
          "X": 0.5,
          "Y": 1.0
         },
         "handle_right": {
          "X": 0.5,
          "Y": 0.0
         },
         "handle_type": 0,
         "interpolation": 0
        }
       ]
      },
      "contrast": {
       "Points": [
        {
         "co": {
          "X": 1.0,
          "Y": 3.0
         },
         "handle_left": {
          "X": 0.5,
          "Y": 1.0
         },
         "handle_right": {
          "X": 0.5,
          "Y": 0.0
         },
         "handle_type": 0,
         "interpolation": 0
        },
        {
         "co": {
          "X": 30.0,
          "Y": 3.0
         },
         "handle_left": {
          "X": 0.5,
          "Y": 1.0
         },
         "handle_right": {
          "X": 0.5,
          "Y": 0.0
         },
         "handle_type": 0,
         "interpolation": 0
        }
       ]
      },
      "reader": {
       "acodec": "",
       "audio_bit_rate": 0,
       "audio_stream_index": -1,
       "audio_timebase": {
        "den": 1,
        "num": 1
       },
       "channel_layout": 4,
       "channels": 0,
       "display_ratio": {
        "den": 4,
        "num": 5
       },
       "duration": 3600.0,
       "file_size": "5832000",
       "fps": {
        "den": 1,
        "num": 30
       },
       "has_audio": false,
       "has_single_image": true,
       "has_video": true,
       "height": 576,
       "interlaced_frame": false,
       "metadata": {},
       "path": "@transitions/common/fade.svg",
       "pixel_format": -1,
       "pixel_ratio": {
        "den": 1,
        "num": 1
       },
       "sample_rate": 0,
       "top_field_first": true,
       "type": "QtImageReader",
       "vcodec": "",
       "video_bit_rate": 0,
       "video_length": "108000",
       "video_stream_index": -1,
       "video_timebase": {
        "den": 30,
        "num": 1
       },
       "width": 720
      },
      "replace_image": false,
      "id": "49J3IKSEQW"
     },
     {
      "layer": 5000000,
      "title": "Transition",
      "type": "Mask",
      "position": 40.63333333333333,
      "start": 0,
      "end": 1,
      "brightness": {
       "Points": [
        {
         "co": {
          "X": 1.0,
          "Y": 1.0
         },
         "handle_left": {
          "X": 0.5,
          "Y": 1.0
         },
         "handle_right": {
          "X": 0.5,
          "Y": 0.0
         },
         "handle_type": 0,
         "interpolation": 0
        },
        {
         "co": {
          "X": 30.0,
          "Y": -1.0
         },
         "handle_left": {
          "X": 0.5,
          "Y": 1.0
         },
         "handle_right": {
          "X": 0.5,
          "Y": 0.0
         },
         "handle_type": 0,
         "interpolation": 0
        }
       ]
      },
      "contrast": {
       "Points": [
        {
         "co": {
          "X": 1.0,
          "Y": 3.0
         },
         "handle_left": {
          "X": 0.5,
          "Y": 1.0
         },
         "handle_right": {
          "X": 0.5,
          "Y": 0.0
         },
         "handle_type": 0,
         "interpolation": 0
        },
        {
         "co": {
          "X": 30.0,
          "Y": 3.0
         },
         "handle_left": {
          "X": 0.5,
          "Y": 1.0
         },
         "handle_right": {
          "X": 0.5,
          "Y": 0.0
         },
         "handle_type": 0,
         "interpolation": 0
        }
       ]
      },
      "reader": {
       "acodec": "",
       "audio_bit_rate": 0,
       "audio_stream_index": -1,
       "audio_timebase": {
        "den": 1,
        "num": 1
       },
       "channel_layout": 4,
       "channels": 0,
       "display_ratio": {
        "den": 4,
        "num": 5
       },
       "duration": 3600.0,
       "file_size": "5832000",
       "fps": {
        "den": 1,
        "num": 30
       },
       "has_audio": false,
       "has_single_image": true,
       "has_video": true,
       "height": 576,
       "interlaced_frame": false,
       "metadata": {},
       "path": "@transitions/common/fade.svg",
       "pixel_format": -1,
       "pixel_ratio": {
        "den": 1,
        "num": 1
       },
       "sample_rate": 0,
       "top_field_first": true,
       "type": "QtImageReader",
       "vcodec": "",
       "video_bit_rate": 0,
       "video_length": "108000",
       "video_stream_index": -1,
       "video_timebase": {
        "den": 30,
        "num": 1
       },
       "width": 720
      },
      "replace_image": false,
      "id": "2N1BI0NL7T"
     },
     {
      "layer": 3000000,
      "title": "Transition",
      "type": "Mask",
      "position": 40.63333333333333,
      "start": 0,
      "end": 1,
      "brightness": {
       "Points": [
        {
         "co": {
          "X": 1.0,
          "Y": 1.0
         },
         "handle_left": {
          "X": 0.5,
          "Y": 1.0
         },
         "handle_right": {
          "X": 0.5,
          "Y": 0.0
         },
         "handle_type": 0,
         "interpolation": 0
        },
        {
         "co": {
          "X": 30.0,
          "Y": -1.0
         },
         "handle_left": {
          "X": 0.5,
          "Y": 1.0
         },
         "handle_right": {
          "X": 0.5,
          "Y": 0.0
         },
         "handle_type": 0,
         "interpolation": 0
        }
       ]
      },
      "contrast": {
       "Points": [
        {
         "co": {
          "X": 1.0,
          "Y": 3.0
         },
         "handle_left": {
          "X": 0.5,
          "Y": 1.0
         },
         "handle_right": {
          "X": 0.5,
          "Y": 0.0
         },
         "handle_type": 0,
         "interpolation": 0
        },
        {
         "co": {
          "X": 30.0,
          "Y": 3.0
         },
         "handle_left": {
          "X": 0.5,
          "Y": 1.0
         },
         "handle_right": {
          "X": 0.5,
          "Y": 0.0
         },
         "handle_type": 0,
         "interpolation": 0
        }
       ]
      },
      "reader": {
       "acodec": "",
       "audio_bit_rate": 0,
       "audio_stream_index": -1,
       "audio_timebase": {
        "den": 1,
        "num": 1
       },
       "channel_layout": 4,
       "channels": 0,
       "display_ratio": {
        "den": 4,
        "num": 5
       },
       "duration": 3600.0,
       "file_size": "5832000",
       "fps": {
        "den": 1,
        "num": 30
       },
       "has_audio": false,
       "has_single_image": true,
       "has_video": true,
       "height": 576,
       "interlaced_frame": false,
       "metadata": {},
       "path": "@transitions/common/fade.svg",
       "pixel_format": -1,
       "pixel_ratio": {
        "den": 1,
        "num": 1
       },
       "sample_rate": 0,
       "top_field_first": true,
       "type": "QtImageReader",
       "vcodec": "",
       "video_bit_rate": 0,
       "video_length": "108000",
       "video_stream_index": -1,
       "video_timebase": {
        "den": 30,
        "num": 1
       },
       "width": 720
      },
      "replace_image": false,
      "id": "G2WLUXC8I2"
     },
     {
      "layer": 6000000,
      "title": "Transition",
      "type": "Mask",
      "position": 43.9,
      "start": 0,
      "end": 1,
      "brightness": {
       "Points": [
        {
         "co": {
          "X": 1.0,
          "Y": 1.0
         },
         "handle_left": {
          "X": 0.5,
          "Y": 1.0
         },
         "handle_right": {
          "X": 0.5,
          "Y": 0.0
         },
         "handle_type": 0,
         "interpolation": 0
        },
        {
         "co": {
          "X": 30.0,
          "Y": -1.0
         },
         "handle_left": {
          "X": 0.5,
          "Y": 1.0
         },
         "handle_right": {
          "X": 0.5,
          "Y": 0.0
         },
         "handle_type": 0,
         "interpolation": 0
        }
       ]
      },
      "contrast": {
       "Points": [
        {
         "co": {
          "X": 1.0,
          "Y": 3.0
         },
         "handle_left": {
          "X": 0.5,
          "Y": 1.0
         },
         "handle_right": {
          "X": 0.5,
          "Y": 0.0
         },
         "handle_type": 0,
         "interpolation": 0
        },
        {
         "co": {
          "X": 30.0,
          "Y": 3.0
         },
         "handle_left": {
          "X": 0.5,
          "Y": 1.0
         },
         "handle_right": {
          "X": 0.5,
          "Y": 0.0
         },
         "handle_type": 0,
         "interpolation": 0
        }
       ]
      },
      "reader": {
       "acodec": "",
       "audio_bit_rate": 0,
       "audio_stream_index": -1,
       "audio_timebase": {
        "den": 1,
        "num": 1
       },
       "channel_layout": 4,
       "channels": 0,
       "display_ratio": {
        "den": 4,
        "num": 5
       },
       "duration": 3600.0,
       "file_size": "5832000",
       "fps": {
        "den": 1,
        "num": 30
       },
       "has_audio": false,
       "has_single_image": true,
       "has_video": true,
       "height": 576,
       "interlaced_frame": false,
       "metadata": {},
       "path": "@transitions/common/fade.svg",
       "pixel_format": -1,
       "pixel_ratio": {
        "den": 1,
        "num": 1
       },
       "sample_rate": 0,
       "top_field_first": true,
       "type": "QtImageReader",
       "vcodec": "",
       "video_bit_rate": 0,
       "video_length": "108000",
       "video_stream_index": -1,
       "video_timebase": {
        "den": 30,
        "num": 1
       },
       "width": 720
      },
      "replace_image": false,
      "id": "TXMFAXERBB"
     },
     {
      "layer": 7000000,
      "title": "Transition",
      "type": "Mask",
      "position": 43.9,
      "start": 0,
      "end": 1,
      "brightness": {
       "Points": [
        {
         "co": {
          "X": 1.0,
          "Y": 1.0
         },
         "handle_left": {
          "X": 0.5,
          "Y": 1.0
         },
         "handle_right": {
          "X": 0.5,
          "Y": 0.0
         },
         "handle_type": 0,
         "interpolation": 0
        },
        {
         "co": {
          "X": 30.0,
          "Y": -1.0
         },
         "handle_left": {
          "X": 0.5,
          "Y": 1.0
         },
         "handle_right": {
          "X": 0.5,
          "Y": 0.0
         },
         "handle_type": 0,
         "interpolation": 0
        }
       ]
      },
      "contrast": {
       "Points": [
        {
         "co": {
          "X": 1.0,
          "Y": 3.0
         },
         "handle_left": {
          "X": 0.5,
          "Y": 1.0
         },
         "handle_right": {
          "X": 0.5,
          "Y": 0.0
         },
         "handle_type": 0,
         "interpolation": 0
        },
        {
         "co": {
          "X": 30.0,
          "Y": 3.0
         },
         "handle_left": {
          "X": 0.5,
          "Y": 1.0
         },
         "handle_right": {
          "X": 0.5,
          "Y": 0.0
         },
         "handle_type": 0,
         "interpolation": 0
        }
       ]
      },
      "reader": {
       "acodec": "",
       "audio_bit_rate": 0,
       "audio_stream_index": -1,
       "audio_timebase": {
        "den": 1,
        "num": 1
       },
       "channel_layout": 4,
       "channels": 0,
       "display_ratio": {
        "den": 4,
        "num": 5
       },
       "duration": 3600.0,
       "file_size": "5832000",
       "fps": {
        "den": 1,
        "num": 30
       },
       "has_audio": false,
       "has_single_image": true,
       "has_video": true,
       "height": 576,
       "interlaced_frame": false,
       "metadata": {},
       "path": "@transitions/common/fade.svg",
       "pixel_format": -1,
       "pixel_ratio": {
        "den": 1,
        "num": 1
       },
       "sample_rate": 0,
       "top_field_first": true,
       "type": "QtImageReader",
       "vcodec": "",
       "video_bit_rate": 0,
       "video_length": "108000",
       "video_stream_index": -1,
       "video_timebase": {
        "den": 30,
        "num": 1
       },
       "width": 720
      },
      "replace_image": false,
      "id": "WB87SQALF3"
     },
     {
      "layer": 8000000,
      "title": "Transition",
      "type": "Mask",
      "position": 47.2,
      "start": 0,
      "end": 1,
      "brightness": {
       "Points": [
        {
         "co": {
          "X": 1.0,
          "Y": -1.0
         },
         "handle_left": {
          "X": 0.5,
          "Y": 1.0
         },
         "handle_right": {
          "X": 0.5,
          "Y": 0.0
         },
         "handle_type": 0,
         "interpolation": 0
        },
        {
         "co": {
          "X": 30.0,
          "Y": 1.0
         },
         "handle_left": {
          "X": 0.5,
          "Y": 1.0
         },
         "handle_right": {
          "X": 0.5,
          "Y": 0.0
         },
         "handle_type": 0,
         "interpolation": 0
        }
       ]
      },
      "contrast": {
       "Points": [
        {
         "co": {
          "X": 1.0,
          "Y": 3.0
         },
         "handle_left": {
          "X": 0.5,
          "Y": 1.0
         },
         "handle_right": {
          "X": 0.5,
          "Y": 0.0
         },
         "handle_type": 0,
         "interpolation": 0
        },
        {
         "co": {
          "X": 30.0,
          "Y": 3.0
         },
         "handle_left": {
          "X": 0.5,
          "Y": 1.0
         },
         "handle_right": {
          "X": 0.5,
          "Y": 0.0
         },
         "handle_type": 0,
         "interpolation": 0
        }
       ]
      },
      "reader": {
       "acodec": "",
       "audio_bit_rate": 0,
       "audio_stream_index": -1,
       "audio_timebase": {
        "den": 1,
        "num": 1
       },
       "channel_layout": 4,
       "channels": 0,
       "display_ratio": {
        "den": 4,
        "num": 5
       },
       "duration": 3600.0,
       "file_size": "5832000",
       "fps": {
        "den": 1,
        "num": 30
       },
       "has_audio": false,
       "has_single_image": true,
       "has_video": true,
       "height": 576,
       "interlaced_frame": false,
       "metadata": {},
       "path": "@transitions/common/fade.svg",
       "pixel_format": -1,
       "pixel_ratio": {
        "den": 1,
        "num": 1
       },
       "sample_rate": 0,
       "top_field_first": true,
       "type": "QtImageReader",
       "vcodec": "",
       "video_bit_rate": 0,
       "video_length": "108000",
       "video_stream_index": -1,
       "video_timebase": {
        "den": 30,
        "num": 1
       },
       "width": 720
      },
      "replace_image": false,
      "id": "6979AKA6UA"
     },
     {
      "layer": 8000000,
      "title": "Transition",
      "type": "Mask",
      "position": 43.9,
      "start": 0,
      "end": 1,
      "brightness": {
       "Points": [
        {
         "co": {
          "X": 1.0,
          "Y": 1.0
         },
         "handle_left": {
          "X": 0.5,
          "Y": 1.0
         },
         "handle_right": {
          "X": 0.5,
          "Y": 0.0
         },
         "handle_type": 0,
         "interpolation": 0
        },
        {
         "co": {
          "X": 30.0,
          "Y": -1.0
         },
         "handle_left": {
          "X": 0.5,
          "Y": 1.0
         },
         "handle_right": {
          "X": 0.5,
          "Y": 0.0
         },
         "handle_type": 0,
         "interpolation": 0
        }
       ]
      },
      "contrast": {
       "Points": [
        {
         "co": {
          "X": 1.0,
          "Y": 3.0
         },
         "handle_left": {
          "X": 0.5,
          "Y": 1.0
         },
         "handle_right": {
          "X": 0.5,
          "Y": 0.0
         },
         "handle_type": 0,
         "interpolation": 0
        },
        {
         "co": {
          "X": 30.0,
          "Y": 3.0
         },
         "handle_left": {
          "X": 0.5,
          "Y": 1.0
         },
         "handle_right": {
          "X": 0.5,
          "Y": 0.0
         },
         "handle_type": 0,
         "interpolation": 0
        }
       ]
      },
      "reader": {
       "acodec": "",
       "audio_bit_rate": 0,
       "audio_stream_index": -1,
       "audio_timebase": {
        "den": 1,
        "num": 1
       },
       "channel_layout": 4,
       "channels": 0,
       "display_ratio": {
        "den": 4,
        "num": 5
       },
       "duration": 3600.0,
       "file_size": "5832000",
       "fps": {
        "den": 1,
        "num": 30
       },
       "has_audio": false,
       "has_single_image": true,
       "has_video": true,
       "height": 576,
       "interlaced_frame": false,
       "metadata": {},
       "path": "@transitions/common/fade.svg",
       "pixel_format": -1,
       "pixel_ratio": {
        "den": 1,
        "num": 1
       },
       "sample_rate": 0,
       "top_field_first": true,
       "type": "QtImageReader",
       "vcodec": "",
       "video_bit_rate": 0,
       "video_length": "108000",
       "video_stream_index": -1,
       "video_timebase": {
        "den": 30,
        "num": 1
       },
       "width": 720
      },
      "replace_image": false,
      "id": "DH4JVZH7V8"
     },
     {
      "layer": 7000000,
      "title": "Transition",
      "type": "Mask",
      "position": 47.2,
      "start": 0,
      "end": 1,
      "brightness": {
       "Points": [
        {
         "co": {
          "X": 1.0,
          "Y": -1.0
         },
         "handle_left": {
          "X": 0.5,
          "Y": 1.0
         },
         "handle_right": {
          "X": 0.5,
          "Y": 0.0
         },
         "handle_type": 0,
         "interpolation": 0
        },
        {
         "co": {
          "X": 30.0,
          "Y": 1.0
         },
         "handle_left": {
          "X": 0.5,
          "Y": 1.0
         },
         "handle_right": {
          "X": 0.5,
          "Y": 0.0
         },
         "handle_type": 0,
         "interpolation": 0
        }
       ]
      },
      "contrast": {
       "Points": [
        {
         "co": {
          "X": 1.0,
          "Y": 3.0
         },
         "handle_left": {
          "X": 0.5,
          "Y": 1.0
         },
         "handle_right": {
          "X": 0.5,
          "Y": 0.0
         },
         "handle_type": 0,
         "interpolation": 0
        },
        {
         "co": {
          "X": 30.0,
          "Y": 3.0
         },
         "handle_left": {
          "X": 0.5,
          "Y": 1.0
         },
         "handle_right": {
          "X": 0.5,
          "Y": 0.0
         },
         "handle_type": 0,
         "interpolation": 0
        }
       ]
      },
      "reader": {
       "acodec": "",
       "audio_bit_rate": 0,
       "audio_stream_index": -1,
       "audio_timebase": {
        "den": 1,
        "num": 1
       },
       "channel_layout": 4,
       "channels": 0,
       "display_ratio": {
        "den": 4,
        "num": 5
       },
       "duration": 3600.0,
       "file_size": "5832000",
       "fps": {
        "den": 1,
        "num": 30
       },
       "has_audio": false,
       "has_single_image": true,
       "has_video": true,
       "height": 576,
       "interlaced_frame": false,
       "metadata": {},
       "path": "@transitions/common/fade.svg",
       "pixel_format": -1,
       "pixel_ratio": {
        "den": 1,
        "num": 1
       },
       "sample_rate": 0,
       "top_field_first": true,
       "type": "QtImageReader",
       "vcodec": "",
       "video_bit_rate": 0,
       "video_length": "108000",
       "video_stream_index": -1,
       "video_timebase": {
        "den": 30,
        "num": 1
       },
       "width": 720
      },
      "replace_image": false,
      "id": "7D211FLB43"
     },
     {
      "layer": 6000000,
      "title": "Transition",
      "type": "Mask",
      "position": 47.2,
      "start": 0,
      "end": 1,
      "brightness": {
       "Points": [
        {
         "co": {
          "X": 1.0,
          "Y": -1.0
         },
         "handle_left": {
          "X": 0.5,
          "Y": 1.0
         },
         "handle_right": {
          "X": 0.5,
          "Y": 0.0
         },
         "handle_type": 0,
         "interpolation": 0
        },
        {
         "co": {
          "X": 30.0,
          "Y": 1.0
         },
         "handle_left": {
          "X": 0.5,
          "Y": 1.0
         },
         "handle_right": {
          "X": 0.5,
          "Y": 0.0
         },
         "handle_type": 0,
         "interpolation": 0
        }
       ]
      },
      "contrast": {
       "Points": [
        {
         "co": {
          "X": 1.0,
          "Y": 3.0
         },
         "handle_left": {
          "X": 0.5,
          "Y": 1.0
         },
         "handle_right": {
          "X": 0.5,
          "Y": 0.0
         },
         "handle_type": 0,
         "interpolation": 0
        },
        {
         "co": {
          "X": 30.0,
          "Y": 3.0
         },
         "handle_left": {
          "X": 0.5,
          "Y": 1.0
         },
         "handle_right": {
          "X": 0.5,
          "Y": 0.0
         },
         "handle_type": 0,
         "interpolation": 0
        }
       ]
      },
      "reader": {
       "acodec": "",
       "audio_bit_rate": 0,
       "audio_stream_index": -1,
       "audio_timebase": {
        "den": 1,
        "num": 1
       },
       "channel_layout": 4,
       "channels": 0,
       "display_ratio": {
        "den": 4,
        "num": 5
       },
       "duration": 3600.0,
       "file_size": "5832000",
       "fps": {
        "den": 1,
        "num": 30
       },
       "has_audio": false,
       "has_single_image": true,
       "has_video": true,
       "height": 576,
       "interlaced_frame": false,
       "metadata": {},
       "path": "@transitions/common/fade.svg",
       "pixel_format": -1,
       "pixel_ratio": {
        "den": 1,
        "num": 1
       },
       "sample_rate": 0,
       "top_field_first": true,
       "type": "QtImageReader",
       "vcodec": "",
       "video_bit_rate": 0,
       "video_length": "108000",
       "video_stream_index": -1,
       "video_timebase": {
        "den": 30,
        "num": 1
       },
       "width": 720
      },
      "replace_image": false,
      "id": "Z3MQ059L4N"
     },
     {
      "layer": 5000000,
      "title": "Transition",
      "type": "Mask",
      "position": 47.2,
      "start": 0,
      "end": 1,
      "brightness": {
       "Points": [
        {
         "co": {
          "X": 1.0,
          "Y": -1.0
         },
         "handle_left": {
          "X": 0.5,
          "Y": 1.0
         },
         "handle_right": {
          "X": 0.5,
          "Y": 0.0
         },
         "handle_type": 0,
         "interpolation": 0
        },
        {
         "co": {
          "X": 30.0,
          "Y": 1.0
         },
         "handle_left": {
          "X": 0.5,
          "Y": 1.0
         },
         "handle_right": {
          "X": 0.5,
          "Y": 0.0
         },
         "handle_type": 0,
         "interpolation": 0
        }
       ]
      },
      "contrast": {
       "Points": [
        {
         "co": {
          "X": 1.0,
          "Y": 3.0
         },
         "handle_left": {
          "X": 0.5,
          "Y": 1.0
         },
         "handle_right": {
          "X": 0.5,
          "Y": 0.0
         },
         "handle_type": 0,
         "interpolation": 0
        },
        {
         "co": {
          "X": 30.0,
          "Y": 3.0
         },
         "handle_left": {
          "X": 0.5,
          "Y": 1.0
         },
         "handle_right": {
          "X": 0.5,
          "Y": 0.0
         },
         "handle_type": 0,
         "interpolation": 0
        }
       ]
      },
      "reader": {
       "acodec": "",
       "audio_bit_rate": 0,
       "audio_stream_index": -1,
       "audio_timebase": {
        "den": 1,
        "num": 1
       },
       "channel_layout": 4,
       "channels": 0,
       "display_ratio": {
        "den": 4,
        "num": 5
       },
       "duration": 3600.0,
       "file_size": "5832000",
       "fps": {
        "den": 1,
        "num": 30
       },
       "has_audio": false,
       "has_single_image": true,
       "has_video": true,
       "height": 576,
       "interlaced_frame": false,
       "metadata": {},
       "path": "@transitions/common/fade.svg",
       "pixel_format": -1,
       "pixel_ratio": {
        "den": 1,
        "num": 1
       },
       "sample_rate": 0,
       "top_field_first": true,
       "type": "QtImageReader",
       "vcodec": "",
       "video_bit_rate": 0,
       "video_length": "108000",
       "video_stream_index": -1,
       "video_timebase": {
        "den": 30,
        "num": 1
       },
       "width": 720
      },
      "replace_image": false,
      "id": "0V0YZT4K2H"
     },
     {
      "layer": 4000000,
      "title": "Transition",
      "type": "Mask",
      "position": 47.2,
      "start": 0,
      "end": 1,
      "brightness": {
       "Points": [
        {
         "co": {
          "X": 1.0,
          "Y": -1.0
         },
         "handle_left": {
          "X": 0.5,
          "Y": 1.0
         },
         "handle_right": {
          "X": 0.5,
          "Y": 0.0
         },
         "handle_type": 0,
         "interpolation": 0
        },
        {
         "co": {
          "X": 30.0,
          "Y": 1.0
         },
         "handle_left": {
          "X": 0.5,
          "Y": 1.0
         },
         "handle_right": {
          "X": 0.5,
          "Y": 0.0
         },
         "handle_type": 0,
         "interpolation": 0
        }
       ]
      },
      "contrast": {
       "Points": [
        {
         "co": {
          "X": 1.0,
          "Y": 3.0
         },
         "handle_left": {
          "X": 0.5,
          "Y": 1.0
         },
         "handle_right": {
          "X": 0.5,
          "Y": 0.0
         },
         "handle_type": 0,
         "interpolation": 0
        },
        {
         "co": {
          "X": 30.0,
          "Y": 3.0
         },
         "handle_left": {
          "X": 0.5,
          "Y": 1.0
         },
         "handle_right": {
          "X": 0.5,
          "Y": 0.0
         },
         "handle_type": 0,
         "interpolation": 0
        }
       ]
      },
      "reader": {
       "acodec": "",
       "audio_bit_rate": 0,
       "audio_stream_index": -1,
       "audio_timebase": {
        "den": 1,
        "num": 1
       },
       "channel_layout": 4,
       "channels": 0,
       "display_ratio": {
        "den": 4,
        "num": 5
       },
       "duration": 3600.0,
       "file_size": "5832000",
       "fps": {
        "den": 1,
        "num": 30
       },
       "has_audio": false,
       "has_single_image": true,
       "has_video": true,
       "height": 576,
       "interlaced_frame": false,
       "metadata": {},
       "path": "@transitions/common/fade.svg",
       "pixel_format": -1,
       "pixel_ratio": {
        "den": 1,
        "num": 1
       },
       "sample_rate": 0,
       "top_field_first": true,
       "type": "QtImageReader",
       "vcodec": "",
       "video_bit_rate": 0,
       "video_length": "108000",
       "video_stream_index": -1,
       "video_timebase": {
        "den": 30,
        "num": 1
       },
       "width": 720
      },
      "replace_image": false,
      "id": "4CLZWS3I80"
     },
     {
      "layer": 3000000,
      "title": "Transition",
      "type": "Mask",
      "position": 47.2,
      "start": 0,
      "end": 1,
      "brightness": {
       "Points": [
        {
         "co": {
          "X": 1.0,
          "Y": -1.0
         },
         "handle_left": {
          "X": 0.5,
          "Y": 1.0
         },
         "handle_right": {
          "X": 0.5,
          "Y": 0.0
         },
         "handle_type": 0,
         "interpolation": 0
        },
        {
         "co": {
          "X": 30.0,
          "Y": 1.0
         },
         "handle_left": {
          "X": 0.5,
          "Y": 1.0
         },
         "handle_right": {
          "X": 0.5,
          "Y": 0.0
         },
         "handle_type": 0,
         "interpolation": 0
        }
       ]
      },
      "contrast": {
       "Points": [
        {
         "co": {
          "X": 1.0,
          "Y": 3.0
         },
         "handle_left": {
          "X": 0.5,
          "Y": 1.0
         },
         "handle_right": {
          "X": 0.5,
          "Y": 0.0
         },
         "handle_type": 0,
         "interpolation": 0
        },
        {
         "co": {
          "X": 30.0,
          "Y": 3.0
         },
         "handle_left": {
          "X": 0.5,
          "Y": 1.0
         },
         "handle_right": {
          "X": 0.5,
          "Y": 0.0
         },
         "handle_type": 0,
         "interpolation": 0
        }
       ]
      },
      "reader": {
       "acodec": "",
       "audio_bit_rate": 0,
       "audio_stream_index": -1,
       "audio_timebase": {
        "den": 1,
        "num": 1
       },
       "channel_layout": 4,
       "channels": 0,
       "display_ratio": {
        "den": 4,
        "num": 5
       },
       "duration": 3600.0,
       "file_size": "5832000",
       "fps": {
        "den": 1,
        "num": 30
       },
       "has_audio": false,
       "has_single_image": true,
       "has_video": true,
       "height": 576,
       "interlaced_frame": false,
       "metadata": {},
       "path": "@transitions/common/fade.svg",
       "pixel_format": -1,
       "pixel_ratio": {
        "den": 1,
        "num": 1
       },
       "sample_rate": 0,
       "top_field_first": true,
       "type": "QtImageReader",
       "vcodec": "",
       "video_bit_rate": 0,
       "video_length": "108000",
       "video_stream_index": -1,
       "video_timebase": {
        "den": 30,
        "num": 1
       },
       "width": 720
      },
      "replace_image": false,
      "id": "J7NMJ0MM60"
     },
     {
      "layer": 2000000,
      "title": "Transition",
      "type": "Mask",
      "position": 47.2,
      "start": 0,
      "end": 1,
      "brightness": {
       "Points": [
        {
         "co": {
          "X": 1.0,
          "Y": -1.0
         },
         "handle_left": {
          "X": 0.5,
          "Y": 1.0
         },
         "handle_right": {
          "X": 0.5,
          "Y": 0.0
         },
         "handle_type": 0,
         "interpolation": 0
        },
        {
         "co": {
          "X": 30.0,
          "Y": 1.0
         },
         "handle_left": {
          "X": 0.5,
          "Y": 1.0
         },
         "handle_right": {
          "X": 0.5,
          "Y": 0.0
         },
         "handle_type": 0,
         "interpolation": 0
        }
       ]
      },
      "contrast": {
       "Points": [
        {
         "co": {
          "X": 1.0,
          "Y": 3.0
         },
         "handle_left": {
          "X": 0.5,
          "Y": 1.0
         },
         "handle_right": {
          "X": 0.5,
          "Y": 0.0
         },
         "handle_type": 0,
         "interpolation": 0
        },
        {
         "co": {
          "X": 30.0,
          "Y": 3.0
         },
         "handle_left": {
          "X": 0.5,
          "Y": 1.0
         },
         "handle_right": {
          "X": 0.5,
          "Y": 0.0
         },
         "handle_type": 0,
         "interpolation": 0
        }
       ]
      },
      "reader": {
       "acodec": "",
       "audio_bit_rate": 0,
       "audio_stream_index": -1,
       "audio_timebase": {
        "den": 1,
        "num": 1
       },
       "channel_layout": 4,
       "channels": 0,
       "display_ratio": {
        "den": 4,
        "num": 5
       },
       "duration": 3600.0,
       "file_size": "5832000",
       "fps": {
        "den": 1,
        "num": 30
       },
       "has_audio": false,
       "has_single_image": true,
       "has_video": true,
       "height": 576,
       "interlaced_frame": false,
       "metadata": {},
       "path": "@transitions/common/fade.svg",
       "pixel_format": -1,
       "pixel_ratio": {
        "den": 1,
        "num": 1
       },
       "sample_rate": 0,
       "top_field_first": true,
       "type": "QtImageReader",
       "vcodec": "",
       "video_bit_rate": 0,
       "video_length": "108000",
       "video_stream_index": -1,
       "video_timebase": {
        "den": 30,
        "num": 1
       },
       "width": 720
      },
      "replace_image": false,
      "id": "JE02QMYFT4"
     },
     {
      "layer": 2000000,
      "title": "Transition",
      "type": "Mask",
      "position": 49.63333333333333,
      "start": 0,
      "end": 1.5226666666666642,
      "brightness": {
       "Points": [
        {
         "co": {
          "X": 1.0,
          "Y": 1.0
         },
         "handle_left": {
          "X": 0.5,
          "Y": 1.0
         },
         "handle_right": {
          "X": 0.5,
          "Y": 0.0
         },
         "handle_type": 0,
         "interpolation": 0
        },
        {
         "co": {
          "X": 46.0,
          "Y": -1.0
         },
         "handle_left": {
          "X": 0.5,
          "Y": 1.0
         },
         "handle_right": {
          "X": 0.5,
          "Y": 0.0
         },
         "handle_type": 0,
         "interpolation": 0
        }
       ]
      },
      "contrast": {
       "Points": [
        {
         "co": {
          "X": 1.0,
          "Y": 3.0
         },
         "handle_left": {
          "X": 0.5,
          "Y": 1.0
         },
         "handle_right": {
          "X": 0.5,
          "Y": 0.0
         },
         "handle_type": 0,
         "interpolation": 0
        },
        {
         "co": {
          "X": 46.0,
          "Y": 3.0
         },
         "handle_left": {
          "X": 0.5,
          "Y": 1.0
         },
         "handle_right": {
          "X": 0.5,
          "Y": 0.0
         },
         "handle_type": 0,
         "interpolation": 0
        }
       ]
      },
      "reader": {
       "acodec": "",
       "audio_bit_rate": 0,
       "audio_stream_index": -1,
       "audio_timebase": {
        "den": 1,
        "num": 1
       },
       "channel_layout": 4,
       "channels": 0,
       "display_ratio": {
        "den": 4,
        "num": 5
       },
       "duration": 3600.0,
       "file_size": "5832000",
       "fps": {
        "den": 1,
        "num": 30
       },
       "has_audio": false,
       "has_single_image": true,
       "has_video": true,
       "height": 576,
       "interlaced_frame": false,
       "metadata": {},
       "path": "@transitions/common/fade.svg",
       "pixel_format": -1,
       "pixel_ratio": {
        "den": 1,
        "num": 1
       },
       "sample_rate": 0,
       "top_field_first": true,
       "type": "QtImageReader",
       "vcodec": "",
       "video_bit_rate": 0,
       "video_length": "108000",
       "video_stream_index": -1,
       "video_timebase": {
        "den": 30,
        "num": 1
       },
       "width": 720
      },
      "replace_image": false,
      "id": "NMY4YXNU1E"
     },
     {
      "id": "JVDJ759VY9",
      "layer": 1000000,
      "title": "Transition",
      "type": "Mask",
      "position": 48.53333333333333,
      "start": 0,
      "end": 1.6234375000000298,
      "brightness": {
       "Points": [
        {
         "co": {
          "X": 1.0,
          "Y": -1.0
         },
         "handle_left": {
          "X": 0.5,
          "Y": 1.0
         },
         "handle_right": {
          "X": 0.5,
          "Y": 0.0
         },
         "handle_type": 0,
         "interpolation": 0
        },
        {
         "co": {
          "X": 49.0,
          "Y": 1.0
         },
         "handle_left": {
          "X": 0.5,
          "Y": 1.0
         },
         "handle_right": {
          "X": 0.5,
          "Y": 0.0
         },
         "handle_type": 0,
         "interpolation": 0
        }
       ]
      },
      "contrast": {
       "Points": [
        {
         "co": {
          "X": 1.0,
          "Y": 3.0
         },
         "handle_left": {
          "X": 0.5,
          "Y": 1.0
         },
         "handle_right": {
          "X": 0.5,
          "Y": 0.0
         },
         "handle_type": 0,
         "interpolation": 0
        },
        {
         "co": {
          "X": 49.0,
          "Y": 3.0
         },
         "handle_left": {
          "X": 0.5,
          "Y": 1.0
         },
         "handle_right": {
          "X": 0.5,
          "Y": 0.0
         },
         "handle_type": 0,
         "interpolation": 0
        }
       ]
      },
      "reader": {
       "acodec": "",
       "audio_bit_rate": 0,
       "audio_stream_index": -1,
       "audio_timebase": {
        "den": 1,
        "num": 1
       },
       "channel_layout": 4,
       "channels": 0,
       "display_ratio": {
        "den": 4,
        "num": 5
       },
       "duration": 3600.0,
       "file_size": "5832000",
       "fps": {
        "den": 1,
        "num": 30
       },
       "has_audio": false,
       "has_single_image": true,
       "has_video": true,
       "height": 576,
       "interlaced_frame": false,
       "metadata": {},
       "path": "@transitions/common/fade.svg",
       "pixel_format": -1,
       "pixel_ratio": {
        "den": 1,
        "num": 1
       },
       "sample_rate": 0,
       "top_field_first": true,
       "type": "QtImageReader",
       "vcodec": "",
       "video_bit_rate": 0,
       "video_length": "108000",
       "video_stream_index": -1,
       "video_timebase": {
        "den": 30,
        "num": 1
       },
       "width": 720
      },
      "replace_image": false
     },
     {
      "layer": 1000000,
      "title": "Transition",
      "type": "Mask",
      "position": 52.13333333333333,
      "start": 0,
      "end": 1.6234375000000298,
      "brightness": {
       "Points": [
        {
         "co": {
          "X": 1.0,
          "Y": 1.0
         },
         "handle_left": {
          "X": 0.5,
          "Y": 1.0
         },
         "handle_right": {
          "X": 0.5,
          "Y": 0.0
         },
         "handle_type": 0,
         "interpolation": 0
        },
        {
         "co": {
          "X": 49.0,
          "Y": -1.0
         },
         "handle_left": {
          "X": 0.5,
          "Y": 1.0
         },
         "handle_right": {
          "X": 0.5,
          "Y": 0.0
         },
         "handle_type": 0,
         "interpolation": 0
        }
       ]
      },
      "contrast": {
       "Points": [
        {
         "co": {
          "X": 1.0,
          "Y": 3.0
         },
         "handle_left": {
          "X": 0.5,
          "Y": 1.0
         },
         "handle_right": {
          "X": 0.5,
          "Y": 0.0
         },
         "handle_type": 0,
         "interpolation": 0
        },
        {
         "co": {
          "X": 49.0,
          "Y": 3.0
         },
         "handle_left": {
          "X": 0.5,
          "Y": 1.0
         },
         "handle_right": {
          "X": 0.5,
          "Y": 0.0
         },
         "handle_type": 0,
         "interpolation": 0
        }
       ]
      },
      "reader": {
       "acodec": "",
       "audio_bit_rate": 0,
       "audio_stream_index": -1,
       "audio_timebase": {
        "den": 1,
        "num": 1
       },
       "channel_layout": 4,
       "channels": 0,
       "display_ratio": {
        "den": 4,
        "num": 5
       },
       "duration": 3600.0,
       "file_size": "5832000",
       "fps": {
        "den": 1,
        "num": 30
       },
       "has_audio": false,
       "has_single_image": true,
       "has_video": true,
       "height": 576,
       "interlaced_frame": false,
       "metadata": {},
       "path": "@transitions/common/fade.svg",
       "pixel_format": -1,
       "pixel_ratio": {
        "den": 1,
        "num": 1
       },
       "sample_rate": 0,
       "top_field_first": true,
       "type": "QtImageReader",
       "vcodec": "",
       "video_bit_rate": 0,
       "video_length": "108000",
       "video_stream_index": -1,
       "video_timebase": {
        "den": 30,
        "num": 1
       },
       "width": 720
      },
      "replace_image": false,
      "id": "ILTGUG6BXY"
     },
     {
      "layer": 2000000,
      "title": "Transition",
      "type": "Mask",
      "position": 51.166666666666664,
      "start": 0,
      "end": 1.5226666666666642,
      "brightness": {
       "Points": [
        {
         "co": {
          "X": 1.0,
          "Y": -1.0
         },
         "handle_left": {
          "X": 0.5,
          "Y": 1.0
         },
         "handle_right": {
          "X": 0.5,
          "Y": 0.0
         },
         "handle_type": 0,
         "interpolation": 0
        },
        {
         "co": {
          "X": 46.0,
          "Y": 1.0
         },
         "handle_left": {
          "X": 0.5,
          "Y": 1.0
         },
         "handle_right": {
          "X": 0.5,
          "Y": 0.0
         },
         "handle_type": 0,
         "interpolation": 0
        }
       ]
      },
      "contrast": {
       "Points": [
        {
         "co": {
          "X": 1.0,
          "Y": 3.0
         },
         "handle_left": {
          "X": 0.5,
          "Y": 1.0
         },
         "handle_right": {
          "X": 0.5,
          "Y": 0.0
         },
         "handle_type": 0,
         "interpolation": 0
        },
        {
         "co": {
          "X": 46.0,
          "Y": 3.0
         },
         "handle_left": {
          "X": 0.5,
          "Y": 1.0
         },
         "handle_right": {
          "X": 0.5,
          "Y": 0.0
         },
         "handle_type": 0,
         "interpolation": 0
        }
       ]
      },
      "reader": {
       "acodec": "",
       "audio_bit_rate": 0,
       "audio_stream_index": -1,
       "audio_timebase": {
        "den": 1,
        "num": 1
       },
       "channel_layout": 4,
       "channels": 0,
       "display_ratio": {
        "den": 4,
        "num": 5
       },
       "duration": 3600.0,
       "file_size": "5832000",
       "fps": {
        "den": 1,
        "num": 30
       },
       "has_audio": false,
       "has_single_image": true,
       "has_video": true,
       "height": 576,
       "interlaced_frame": false,
       "metadata": {},
       "path": "@transitions/common/fade.svg",
       "pixel_format": -1,
       "pixel_ratio": {
        "den": 1,
        "num": 1
       },
       "sample_rate": 0,
       "top_field_first": true,
       "type": "QtImageReader",
       "vcodec": "",
       "video_bit_rate": 0,
       "video_length": "108000",
       "video_stream_index": -1,
       "video_timebase": {
        "den": 30,
        "num": 1
       },
       "width": 720
      },
      "replace_image": false,
      "id": "KK7AG74HMV"
     },
     {
      "layer": 2000000,
      "title": "Transition",
      "type": "Mask",
      "position": 52.7,
      "start": 0,
      "end": 1.0567708333333552,
      "brightness": {
       "Points": [
        {
         "co": {
          "X": 1.0,
          "Y": 1.0
         },
         "handle_left": {
          "X": 0.5,
          "Y": 1.0
         },
         "handle_right": {
          "X": 0.5,
          "Y": 0.0
         },
         "handle_type": 0,
         "interpolation": 0
        },
        {
         "co": {
          "X": 32.0,
          "Y": -1.0
         },
         "handle_left": {
          "X": 0.5,
          "Y": 1.0
         },
         "handle_right": {
          "X": 0.5,
          "Y": 0.0
         },
         "handle_type": 0,
         "interpolation": 0
        }
       ]
      },
      "contrast": {
       "Points": [
        {
         "co": {
          "X": 1.0,
          "Y": 3.0
         },
         "handle_left": {
          "X": 0.5,
          "Y": 1.0
         },
         "handle_right": {
          "X": 0.5,
          "Y": 0.0
         },
         "handle_type": 0,
         "interpolation": 0
        },
        {
         "co": {
          "X": 32.0,
          "Y": 3.0
         },
         "handle_left": {
          "X": 0.5,
          "Y": 1.0
         },
         "handle_right": {
          "X": 0.5,
          "Y": 0.0
         },
         "handle_type": 0,
         "interpolation": 0
        }
       ]
      },
      "reader": {
       "acodec": "",
       "audio_bit_rate": 0,
       "audio_stream_index": -1,
       "audio_timebase": {
        "den": 1,
        "num": 1
       },
       "channel_layout": 4,
       "channels": 0,
       "display_ratio": {
        "den": 4,
        "num": 5
       },
       "duration": 3600.0,
       "file_size": "5832000",
       "fps": {
        "den": 1,
        "num": 30
       },
       "has_audio": false,
       "has_single_image": true,
       "has_video": true,
       "height": 576,
       "interlaced_frame": false,
       "metadata": {},
       "path": "@transitions/common/fade.svg",
       "pixel_format": -1,
       "pixel_ratio": {
        "den": 1,
        "num": 1
       },
       "sample_rate": 0,
       "top_field_first": true,
       "type": "QtImageReader",
       "vcodec": "",
       "video_bit_rate": 0,
       "video_length": "108000",
       "video_stream_index": -1,
       "video_timebase": {
        "den": 30,
        "num": 1
       },
       "width": 720
      },
      "replace_image": false,
      "id": "U5TVH4SEI2"
     },
     {
      "layer": 2000000,
      "title": "Transition",
      "type": "Mask",
      "position": 61.166666666666664,
      "start": 0,
      "end": 1.0916666666666583,
      "brightness": {
       "Points": [
        {
         "co": {
          "X": 1.0,
          "Y": -1.0
         },
         "handle_left": {
          "X": 0.5,
          "Y": 1.0
         },
         "handle_right": {
          "X": 0.5,
          "Y": 0.0
         },
         "handle_type": 0,
         "interpolation": 0
        },
        {
         "co": {
          "X": 33.0,
          "Y": 1.0
         },
         "handle_left": {
          "X": 0.5,
          "Y": 1.0
         },
         "handle_right": {
          "X": 0.5,
          "Y": 0.0
         },
         "handle_type": 0,
         "interpolation": 0
        }
       ]
      },
      "contrast": {
       "Points": [
        {
         "co": {
          "X": 1.0,
          "Y": 3.0
         },
         "handle_left": {
          "X": 0.5,
          "Y": 1.0
         },
         "handle_right": {
          "X": 0.5,
          "Y": 0.0
         },
         "handle_type": 0,
         "interpolation": 0
        },
        {
         "co": {
          "X": 33.0,
          "Y": 3.0
         },
         "handle_left": {
          "X": 0.5,
          "Y": 1.0
         },
         "handle_right": {
          "X": 0.5,
          "Y": 0.0
         },
         "handle_type": 0,
         "interpolation": 0
        }
       ]
      },
      "reader": {
       "acodec": "",
       "audio_bit_rate": 0,
       "audio_stream_index": -1,
       "audio_timebase": {
        "den": 1,
        "num": 1
       },
       "channel_layout": 4,
       "channels": 0,
       "display_ratio": {
        "den": 4,
        "num": 5
       },
       "duration": 3600.0,
       "file_size": "5832000",
       "fps": {
        "den": 1,
        "num": 30
       },
       "has_audio": false,
       "has_single_image": true,
       "has_video": true,
       "height": 576,
       "interlaced_frame": false,
       "metadata": {},
       "path": "@transitions/common/fade.svg",
       "pixel_format": -1,
       "pixel_ratio": {
        "den": 1,
        "num": 1
       },
       "sample_rate": 0,
       "top_field_first": true,
       "type": "QtImageReader",
       "vcodec": "",
       "video_bit_rate": 0,
       "video_length": "108000",
       "video_stream_index": -1,
       "video_timebase": {
        "den": 30,
        "num": 1
       },
       "width": 720
      },
      "replace_image": false,
      "id": "FOE18GBI58"
     },
     {
      "layer": 3000000,
      "title": "Transition",
      "type": "Mask",
      "position": 69.1,
      "start": 0,
      "end": 0.8666666666666696,
      "brightness": {
       "Points": [
        {
         "co": {
          "X": 1.0,
          "Y": 1.0
         },
         "handle_left": {
          "X": 0.5,
          "Y": 1.0
         },
         "handle_right": {
          "X": 0.5,
          "Y": 0.0
         },
         "handle_type": 0,
         "interpolation": 0
        },
        {
         "co": {
          "X": 26.0,
          "Y": -1.0
         },
         "handle_left": {
          "X": 0.5,
          "Y": 1.0
         },
         "handle_right": {
          "X": 0.5,
          "Y": 0.0
         },
         "handle_type": 0,
         "interpolation": 0
        }
       ]
      },
      "contrast": {
       "Points": [
        {
         "co": {
          "X": 1.0,
          "Y": 3.0
         },
         "handle_left": {
          "X": 0.5,
          "Y": 1.0
         },
         "handle_right": {
          "X": 0.5,
          "Y": 0.0
         },
         "handle_type": 0,
         "interpolation": 0
        },
        {
         "co": {
          "X": 26.0,
          "Y": 3.0
         },
         "handle_left": {
          "X": 0.5,
          "Y": 1.0
         },
         "handle_right": {
          "X": 0.5,
          "Y": 0.0
         },
         "handle_type": 0,
         "interpolation": 0
        }
       ]
      },
      "reader": {
       "acodec": "",
       "audio_bit_rate": 0,
       "audio_stream_index": -1,
       "audio_timebase": {
        "den": 1,
        "num": 1
       },
       "channel_layout": 4,
       "channels": 0,
       "display_ratio": {
        "den": 4,
        "num": 5
       },
       "duration": 3600.0,
       "file_size": "5832000",
       "fps": {
        "den": 1,
        "num": 30
       },
       "has_audio": false,
       "has_single_image": true,
       "has_video": true,
       "height": 576,
       "interlaced_frame": false,
       "metadata": {},
       "path": "@transitions/common/fade.svg",
       "pixel_format": -1,
       "pixel_ratio": {
        "den": 1,
        "num": 1
       },
       "sample_rate": 0,
       "top_field_first": true,
       "type": "QtImageReader",
       "vcodec": "",
       "video_bit_rate": 0,
       "video_length": "108000",
       "video_stream_index": -1,
       "video_timebase": {
        "den": 30,
        "num": 1
       },
       "width": 720
      },
      "replace_image": false,
      "id": "IWR2HQJ3Y9"
     },
     {
      "layer": 4000000,
      "title": "Transition",
      "type": "Mask",
      "position": 70.4,
      "start": 0,
      "end": 0.9583333333333212,
      "brightness": {
       "Points": [
        {
         "co": {
          "X": 1.0,
          "Y": 1.0
         },
         "handle_left": {
          "X": 0.5,
          "Y": 1.0
         },
         "handle_right": {
          "X": 0.5,
          "Y": 0.0
         },
         "handle_type": 0,
         "interpolation": 0
        },
        {
         "co": {
          "X": 29.0,
          "Y": -1.0
         },
         "handle_left": {
          "X": 0.5,
          "Y": 1.0
         },
         "handle_right": {
          "X": 0.5,
          "Y": 0.0
         },
         "handle_type": 0,
         "interpolation": 0
        }
       ]
      },
      "contrast": {
       "Points": [
        {
         "co": {
          "X": 1.0,
          "Y": 3.0
         },
         "handle_left": {
          "X": 0.5,
          "Y": 1.0
         },
         "handle_right": {
          "X": 0.5,
          "Y": 0.0
         },
         "handle_type": 0,
         "interpolation": 0
        },
        {
         "co": {
          "X": 29.0,
          "Y": 3.0
         },
         "handle_left": {
          "X": 0.5,
          "Y": 1.0
         },
         "handle_right": {
          "X": 0.5,
          "Y": 0.0
         },
         "handle_type": 0,
         "interpolation": 0
        }
       ]
      },
      "reader": {
       "acodec": "",
       "audio_bit_rate": 0,
       "audio_stream_index": -1,
       "audio_timebase": {
        "den": 1,
        "num": 1
       },
       "channel_layout": 4,
       "channels": 0,
       "display_ratio": {
        "den": 4,
        "num": 5
       },
       "duration": 3600.0,
       "file_size": "5832000",
       "fps": {
        "den": 1,
        "num": 30
       },
       "has_audio": false,
       "has_single_image": true,
       "has_video": true,
       "height": 576,
       "interlaced_frame": false,
       "metadata": {},
       "path": "@transitions/common/fade.svg",
       "pixel_format": -1,
       "pixel_ratio": {
        "den": 1,
        "num": 1
       },
       "sample_rate": 0,
       "top_field_first": true,
       "type": "QtImageReader",
       "vcodec": "",
       "video_bit_rate": 0,
       "video_length": "108000",
       "video_stream_index": -1,
       "video_timebase": {
        "den": 30,
        "num": 1
       },
       "width": 720
      },
      "replace_image": false,
      "id": "K0VNL052DB"
     },
     {
      "layer": 4000000,
      "title": "Transition",
      "type": "Mask",
      "position": 72.63333333333334,
      "start": 0,
      "end": 0.9583333333333212,
      "brightness": {
       "Points": [
        {
         "co": {
          "X": 1.0,
          "Y": -1.0
         },
         "handle_left": {
          "X": 0.5,
          "Y": 1.0
         },
         "handle_right": {
          "X": 0.5,
          "Y": 0.0
         },
         "handle_type": 0,
         "interpolation": 0
        },
        {
         "co": {
          "X": 29.0,
          "Y": 1.0
         },
         "handle_left": {
          "X": 0.5,
          "Y": 1.0
         },
         "handle_right": {
          "X": 0.5,
          "Y": 0.0
         },
         "handle_type": 0,
         "interpolation": 0
        }
       ]
      },
      "contrast": {
       "Points": [
        {
         "co": {
          "X": 1.0,
          "Y": 3.0
         },
         "handle_left": {
          "X": 0.5,
          "Y": 1.0
         },
         "handle_right": {
          "X": 0.5,
          "Y": 0.0
         },
         "handle_type": 0,
         "interpolation": 0
        },
        {
         "co": {
          "X": 29.0,
          "Y": 3.0
         },
         "handle_left": {
          "X": 0.5,
          "Y": 1.0
         },
         "handle_right": {
          "X": 0.5,
          "Y": 0.0
         },
         "handle_type": 0,
         "interpolation": 0
        }
       ]
      },
      "reader": {
       "acodec": "",
       "audio_bit_rate": 0,
       "audio_stream_index": -1,
       "audio_timebase": {
        "den": 1,
        "num": 1
       },
       "channel_layout": 4,
       "channels": 0,
       "display_ratio": {
        "den": 4,
        "num": 5
       },
       "duration": 3600.0,
       "file_size": "5832000",
       "fps": {
        "den": 1,
        "num": 30
       },
       "has_audio": false,
       "has_single_image": true,
       "has_video": true,
       "height": 576,
       "interlaced_frame": false,
       "metadata": {},
       "path": "@transitions/common/fade.svg",
       "pixel_format": -1,
       "pixel_ratio": {
        "den": 1,
        "num": 1
       },
       "sample_rate": 0,
       "top_field_first": true,
       "type": "QtImageReader",
       "vcodec": "",
       "video_bit_rate": 0,
       "video_length": "108000",
       "video_stream_index": -1,
       "video_timebase": {
        "den": 30,
        "num": 1
       },
       "width": 720
      },
      "replace_image": false,
      "id": "BC8CI4IOC9"
     },
     {
      "layer": 4000000,
      "title": "Transition",
      "type": "Mask",
      "position": 73.9,
      "start": 0,
      "end": 0.9583333333333212,
      "brightness": {
       "Points": [
        {
         "co": {
          "X": 1.0,
          "Y": 1.0
         },
         "handle_left": {
          "X": 0.5,
          "Y": 1.0
         },
         "handle_right": {
          "X": 0.5,
          "Y": 0.0
         },
         "handle_type": 0,
         "interpolation": 0
        },
        {
         "co": {
          "X": 29.0,
          "Y": -1.0
         },
         "handle_left": {
          "X": 0.5,
          "Y": 1.0
         },
         "handle_right": {
          "X": 0.5,
          "Y": 0.0
         },
         "handle_type": 0,
         "interpolation": 0
        }
       ]
      },
      "contrast": {
       "Points": [
        {
         "co": {
          "X": 1.0,
          "Y": 3.0
         },
         "handle_left": {
          "X": 0.5,
          "Y": 1.0
         },
         "handle_right": {
          "X": 0.5,
          "Y": 0.0
         },
         "handle_type": 0,
         "interpolation": 0
        },
        {
         "co": {
          "X": 29.0,
          "Y": 3.0
         },
         "handle_left": {
          "X": 0.5,
          "Y": 1.0
         },
         "handle_right": {
          "X": 0.5,
          "Y": 0.0
         },
         "handle_type": 0,
         "interpolation": 0
        }
       ]
      },
      "reader": {
       "acodec": "",
       "audio_bit_rate": 0,
       "audio_stream_index": -1,
       "audio_timebase": {
        "den": 1,
        "num": 1
       },
       "channel_layout": 4,
       "channels": 0,
       "display_ratio": {
        "den": 4,
        "num": 5
       },
       "duration": 3600.0,
       "file_size": "5832000",
       "fps": {
        "den": 1,
        "num": 30
       },
       "has_audio": false,
       "has_single_image": true,
       "has_video": true,
       "height": 576,
       "interlaced_frame": false,
       "metadata": {},
       "path": "@transitions/common/fade.svg",
       "pixel_format": -1,
       "pixel_ratio": {
        "den": 1,
        "num": 1
       },
       "sample_rate": 0,
       "top_field_first": true,
       "type": "QtImageReader",
       "vcodec": "",
       "video_bit_rate": 0,
       "video_length": "108000",
       "video_stream_index": -1,
       "video_timebase": {
        "den": 30,
        "num": 1
       },
       "width": 720
      },
      "replace_image": false,
      "id": "KPBY75IWTS"
     },
     {
      "layer": 4000000,
      "title": "Transition",
      "type": "Mask",
      "position": 79.56666666666666,
      "start": 0,
      "end": 0.9583333333333212,
      "brightness": {
       "Points": [
        {
         "co": {
          "X": 1.0,
          "Y": -1.0
         },
         "handle_left": {
          "X": 0.5,
          "Y": 1.0
         },
         "handle_right": {
          "X": 0.5,
          "Y": 0.0
         },
         "handle_type": 0,
         "interpolation": 0
        },
        {
         "co": {
          "X": 29.0,
          "Y": 1.0
         },
         "handle_left": {
          "X": 0.5,
          "Y": 1.0
         },
         "handle_right": {
          "X": 0.5,
          "Y": 0.0
         },
         "handle_type": 0,
         "interpolation": 0
        }
       ]
      },
      "contrast": {
       "Points": [
        {
         "co": {
          "X": 1.0,
          "Y": 3.0
         },
         "handle_left": {
          "X": 0.5,
          "Y": 1.0
         },
         "handle_right": {
          "X": 0.5,
          "Y": 0.0
         },
         "handle_type": 0,
         "interpolation": 0
        },
        {
         "co": {
          "X": 29.0,
          "Y": 3.0
         },
         "handle_left": {
          "X": 0.5,
          "Y": 1.0
         },
         "handle_right": {
          "X": 0.5,
          "Y": 0.0
         },
         "handle_type": 0,
         "interpolation": 0
        }
       ]
      },
      "reader": {
       "acodec": "",
       "audio_bit_rate": 0,
       "audio_stream_index": -1,
       "audio_timebase": {
        "den": 1,
        "num": 1
       },
       "channel_layout": 4,
       "channels": 0,
       "display_ratio": {
        "den": 4,
        "num": 5
       },
       "duration": 3600.0,
       "file_size": "5832000",
       "fps": {
        "den": 1,
        "num": 30
       },
       "has_audio": false,
       "has_single_image": true,
       "has_video": true,
       "height": 576,
       "interlaced_frame": false,
       "metadata": {},
       "path": "@transitions/common/fade.svg",
       "pixel_format": -1,
       "pixel_ratio": {
        "den": 1,
        "num": 1
       },
       "sample_rate": 0,
       "top_field_first": true,
       "type": "QtImageReader",
       "vcodec": "",
       "video_bit_rate": 0,
       "video_length": "108000",
       "video_stream_index": -1,
       "video_timebase": {
        "den": 30,
        "num": 1
       },
       "width": 720
      },
      "replace_image": false,
      "id": "N48U05ILNC"
     },
     {
      "layer": 4000000,
      "title": "Transition",
      "type": "Mask",
      "position": 80.76666666666667,
      "start": 0,
      "end": 0.9583333333333212,
      "brightness": {
       "Points": [
        {
         "co": {
          "X": 1.0,
          "Y": 1.0
         },
         "handle_left": {
          "X": 0.5,
          "Y": 1.0
         },
         "handle_right": {
          "X": 0.5,
          "Y": 0.0
         },
         "handle_type": 0,
         "interpolation": 0
        },
        {
         "co": {
          "X": 29.0,
          "Y": -1.0
         },
         "handle_left": {
          "X": 0.5,
          "Y": 1.0
         },
         "handle_right": {
          "X": 0.5,
          "Y": 0.0
         },
         "handle_type": 0,
         "interpolation": 0
        }
       ]
      },
      "contrast": {
       "Points": [
        {
         "co": {
          "X": 1.0,
          "Y": 3.0
         },
         "handle_left": {
          "X": 0.5,
          "Y": 1.0
         },
         "handle_right": {
          "X": 0.5,
          "Y": 0.0
         },
         "handle_type": 0,
         "interpolation": 0
        },
        {
         "co": {
          "X": 29.0,
          "Y": 3.0
         },
         "handle_left": {
          "X": 0.5,
          "Y": 1.0
         },
         "handle_right": {
          "X": 0.5,
          "Y": 0.0
         },
         "handle_type": 0,
         "interpolation": 0
        }
       ]
      },
      "reader": {
       "acodec": "",
       "audio_bit_rate": 0,
       "audio_stream_index": -1,
       "audio_timebase": {
        "den": 1,
        "num": 1
       },
       "channel_layout": 4,
       "channels": 0,
       "display_ratio": {
        "den": 4,
        "num": 5
       },
       "duration": 3600.0,
       "file_size": "5832000",
       "fps": {
        "den": 1,
        "num": 30
       },
       "has_audio": false,
       "has_single_image": true,
       "has_video": true,
       "height": 576,
       "interlaced_frame": false,
       "metadata": {},
       "path": "@transitions/common/fade.svg",
       "pixel_format": -1,
       "pixel_ratio": {
        "den": 1,
        "num": 1
       },
       "sample_rate": 0,
       "top_field_first": true,
       "type": "QtImageReader",
       "vcodec": "",
       "video_bit_rate": 0,
       "video_length": "108000",
       "video_stream_index": -1,
       "video_timebase": {
        "den": 30,
        "num": 1
       },
       "width": 720
      },
      "replace_image": false,
      "id": "LWSD6DDV86"
     },
     {
      "layer": 4000000,
      "title": "Transition",
      "type": "Mask",
      "position": 85.03333333333333,
      "start": 0,
      "end": 0.9583333333333212,
      "brightness": {
       "Points": [
        {
         "co": {
          "X": 1.0,
          "Y": -1.0
         },
         "handle_left": {
          "X": 0.5,
          "Y": 1.0
         },
         "handle_right": {
          "X": 0.5,
          "Y": 0.0
         },
         "handle_type": 0,
         "interpolation": 0
        },
        {
         "co": {
          "X": 29.0,
          "Y": 1.0
         },
         "handle_left": {
          "X": 0.5,
          "Y": 1.0
         },
         "handle_right": {
          "X": 0.5,
          "Y": 0.0
         },
         "handle_type": 0,
         "interpolation": 0
        }
       ]
      },
      "contrast": {
       "Points": [
        {
         "co": {
          "X": 1.0,
          "Y": 3.0
         },
         "handle_left": {
          "X": 0.5,
          "Y": 1.0
         },
         "handle_right": {
          "X": 0.5,
          "Y": 0.0
         },
         "handle_type": 0,
         "interpolation": 0
        },
        {
         "co": {
          "X": 29.0,
          "Y": 3.0
         },
         "handle_left": {
          "X": 0.5,
          "Y": 1.0
         },
         "handle_right": {
          "X": 0.5,
          "Y": 0.0
         },
         "handle_type": 0,
         "interpolation": 0
        }
       ]
      },
      "reader": {
       "acodec": "",
       "audio_bit_rate": 0,
       "audio_stream_index": -1,
       "audio_timebase": {
        "den": 1,
        "num": 1
       },
       "channel_layout": 4,
       "channels": 0,
       "display_ratio": {
        "den": 4,
        "num": 5
       },
       "duration": 3600.0,
       "file_size": "5832000",
       "fps": {
        "den": 1,
        "num": 30
       },
       "has_audio": false,
       "has_single_image": true,
       "has_video": true,
       "height": 576,
       "interlaced_frame": false,
       "metadata": {},
       "path": "@transitions/common/fade.svg",
       "pixel_format": -1,
       "pixel_ratio": {
        "den": 1,
        "num": 1
       },
       "sample_rate": 0,
       "top_field_first": true,
       "type": "QtImageReader",
       "vcodec": "",
       "video_bit_rate": 0,
       "video_length": "108000",
       "video_stream_index": -1,
       "video_timebase": {
        "den": 30,
        "num": 1
       },
       "width": 720
      },
      "replace_image": false,
      "id": "8MLWPBO4EQ"
     },
     {
      "layer": 4000000,
      "title": "Transition",
      "type": "Mask",
      "position": 86.43333333333334,
      "start": 0,
      "end": 1.4666666666666641,
      "brightness": {
       "Points": [
        {
         "co": {
          "X": 1.0,
          "Y": 1.0
         },
         "handle_left": {
          "X": 0.5,
          "Y": 1.0
         },
         "handle_right": {
          "X": 0.5,
          "Y": 0.0
         },
         "handle_type": 0,
         "interpolation": 0
        },
        {
         "co": {
          "X": 44.0,
          "Y": -1.0
         },
         "handle_left": {
          "X": 0.5,
          "Y": 1.0
         },
         "handle_right": {
          "X": 0.5,
          "Y": 0.0
         },
         "handle_type": 0,
         "interpolation": 0
        }
       ]
      },
      "contrast": {
       "Points": [
        {
         "co": {
          "X": 1.0,
          "Y": 3.0
         },
         "handle_left": {
          "X": 0.5,
          "Y": 1.0
         },
         "handle_right": {
          "X": 0.5,
          "Y": 0.0
         },
         "handle_type": 0,
         "interpolation": 0
        },
        {
         "co": {
          "X": 44.0,
          "Y": 3.0
         },
         "handle_left": {
          "X": 0.5,
          "Y": 1.0
         },
         "handle_right": {
          "X": 0.5,
          "Y": 0.0
         },
         "handle_type": 0,
         "interpolation": 0
        }
       ]
      },
      "reader": {
       "acodec": "",
       "audio_bit_rate": 0,
       "audio_stream_index": -1,
       "audio_timebase": {
        "den": 1,
        "num": 1
       },
       "channel_layout": 4,
       "channels": 0,
       "display_ratio": {
        "den": 4,
        "num": 5
       },
       "duration": 3600.0,
       "file_size": "5832000",
       "fps": {
        "den": 1,
        "num": 30
       },
       "has_audio": false,
       "has_single_image": true,
       "has_video": true,
       "height": 576,
       "interlaced_frame": false,
       "metadata": {},
       "path": "@transitions/common/fade.svg",
       "pixel_format": -1,
       "pixel_ratio": {
        "den": 1,
        "num": 1
       },
       "sample_rate": 0,
       "top_field_first": true,
       "type": "QtImageReader",
       "vcodec": "",
       "video_bit_rate": 0,
       "video_length": "108000",
       "video_stream_index": -1,
       "video_timebase": {
        "den": 30,
        "num": 1
       },
       "width": 720
      },
      "replace_image": false,
      "id": "8KLCS4PPAB"
     },
     {
      "layer": 4000000,
      "title": "Transition",
      "type": "Mask",
      "position": 89.66666666666667,
      "start": 0,
      "end": 0.9583333333333212,
      "brightness": {
       "Points": [
        {
         "co": {
          "X": 1.0,
          "Y": -1.0
         },
         "handle_left": {
          "X": 0.5,
          "Y": 1.0
         },
         "handle_right": {
          "X": 0.5,
          "Y": 0.0
         },
         "handle_type": 0,
         "interpolation": 0
        },
        {
         "co": {
          "X": 29.0,
          "Y": 1.0
         },
         "handle_left": {
          "X": 0.5,
          "Y": 1.0
         },
         "handle_right": {
          "X": 0.5,
          "Y": 0.0
         },
         "handle_type": 0,
         "interpolation": 0
        }
       ]
      },
      "contrast": {
       "Points": [
        {
         "co": {
          "X": 1.0,
          "Y": 3.0
         },
         "handle_left": {
          "X": 0.5,
          "Y": 1.0
         },
         "handle_right": {
          "X": 0.5,
          "Y": 0.0
         },
         "handle_type": 0,
         "interpolation": 0
        },
        {
         "co": {
          "X": 29.0,
          "Y": 3.0
         },
         "handle_left": {
          "X": 0.5,
          "Y": 1.0
         },
         "handle_right": {
          "X": 0.5,
          "Y": 0.0
         },
         "handle_type": 0,
         "interpolation": 0
        }
       ]
      },
      "reader": {
       "acodec": "",
       "audio_bit_rate": 0,
       "audio_stream_index": -1,
       "audio_timebase": {
        "den": 1,
        "num": 1
       },
       "channel_layout": 4,
       "channels": 0,
       "display_ratio": {
        "den": 4,
        "num": 5
       },
       "duration": 3600.0,
       "file_size": "5832000",
       "fps": {
        "den": 1,
        "num": 30
       },
       "has_audio": false,
       "has_single_image": true,
       "has_video": true,
       "height": 576,
       "interlaced_frame": false,
       "metadata": {},
       "path": "@transitions/common/fade.svg",
       "pixel_format": -1,
       "pixel_ratio": {
        "den": 1,
        "num": 1
       },
       "sample_rate": 0,
       "top_field_first": true,
       "type": "QtImageReader",
       "vcodec": "",
       "video_bit_rate": 0,
       "video_length": "108000",
       "video_stream_index": -1,
       "video_timebase": {
        "den": 30,
        "num": 1
       },
       "width": 720
      },
      "replace_image": false,
      "id": "7AYTGRXH6E"
     },
     {
      "layer": 4000000,
      "title": "Transition",
      "type": "Mask",
      "position": 90.86666666666666,
      "start": 0,
      "end": 0.9583333333333212,
      "brightness": {
       "Points": [
        {
         "co": {
          "X": 1.0,
          "Y": 1.0
         },
         "handle_left": {
          "X": 0.5,
          "Y": 1.0
         },
         "handle_right": {
          "X": 0.5,
          "Y": 0.0
         },
         "handle_type": 0,
         "interpolation": 0
        },
        {
         "co": {
          "X": 29.0,
          "Y": -1.0
         },
         "handle_left": {
          "X": 0.5,
          "Y": 1.0
         },
         "handle_right": {
          "X": 0.5,
          "Y": 0.0
         },
         "handle_type": 0,
         "interpolation": 0
        }
       ]
      },
      "contrast": {
       "Points": [
        {
         "co": {
          "X": 1.0,
          "Y": 3.0
         },
         "handle_left": {
          "X": 0.5,
          "Y": 1.0
         },
         "handle_right": {
          "X": 0.5,
          "Y": 0.0
         },
         "handle_type": 0,
         "interpolation": 0
        },
        {
         "co": {
          "X": 29.0,
          "Y": 3.0
         },
         "handle_left": {
          "X": 0.5,
          "Y": 1.0
         },
         "handle_right": {
          "X": 0.5,
          "Y": 0.0
         },
         "handle_type": 0,
         "interpolation": 0
        }
       ]
      },
      "reader": {
       "acodec": "",
       "audio_bit_rate": 0,
       "audio_stream_index": -1,
       "audio_timebase": {
        "den": 1,
        "num": 1
       },
       "channel_layout": 4,
       "channels": 0,
       "display_ratio": {
        "den": 4,
        "num": 5
       },
       "duration": 3600.0,
       "file_size": "5832000",
       "fps": {
        "den": 1,
        "num": 30
       },
       "has_audio": false,
       "has_single_image": true,
       "has_video": true,
       "height": 576,
       "interlaced_frame": false,
       "metadata": {},
       "path": "@transitions/common/fade.svg",
       "pixel_format": -1,
       "pixel_ratio": {
        "den": 1,
        "num": 1
       },
       "sample_rate": 0,
       "top_field_first": true,
       "type": "QtImageReader",
       "vcodec": "",
       "video_bit_rate": 0,
       "video_length": "108000",
       "video_stream_index": -1,
       "video_timebase": {
        "den": 30,
        "num": 1
       },
       "width": 720
      },
      "replace_image": false,
      "id": "UA7LEKK6UL"
     },
     {
      "layer": 4000000,
      "title": "Transition",
      "type": "Mask",
      "position": 96.96666666666667,
      "start": 0,
      "end": 0.9583333333333212,
      "brightness": {
       "Points": [
        {
         "co": {
          "X": 1.0,
          "Y": -1.0
         },
         "handle_left": {
          "X": 0.5,
          "Y": 1.0
         },
         "handle_right": {
          "X": 0.5,
          "Y": 0.0
         },
         "handle_type": 0,
         "interpolation": 0
        },
        {
         "co": {
          "X": 29.0,
          "Y": 1.0
         },
         "handle_left": {
          "X": 0.5,
          "Y": 1.0
         },
         "handle_right": {
          "X": 0.5,
          "Y": 0.0
         },
         "handle_type": 0,
         "interpolation": 0
        }
       ]
      },
      "contrast": {
       "Points": [
        {
         "co": {
          "X": 1.0,
          "Y": 3.0
         },
         "handle_left": {
          "X": 0.5,
          "Y": 1.0
         },
         "handle_right": {
          "X": 0.5,
          "Y": 0.0
         },
         "handle_type": 0,
         "interpolation": 0
        },
        {
         "co": {
          "X": 29.0,
          "Y": 3.0
         },
         "handle_left": {
          "X": 0.5,
          "Y": 1.0
         },
         "handle_right": {
          "X": 0.5,
          "Y": 0.0
         },
         "handle_type": 0,
         "interpolation": 0
        }
       ]
      },
      "reader": {
       "acodec": "",
       "audio_bit_rate": 0,
       "audio_stream_index": -1,
       "audio_timebase": {
        "den": 1,
        "num": 1
       },
       "channel_layout": 4,
       "channels": 0,
       "display_ratio": {
        "den": 4,
        "num": 5
       },
       "duration": 3600.0,
       "file_size": "5832000",
       "fps": {
        "den": 1,
        "num": 30
       },
       "has_audio": false,
       "has_single_image": true,
       "has_video": true,
       "height": 576,
       "interlaced_frame": false,
       "metadata": {},
       "path": "@transitions/common/fade.svg",
       "pixel_format": -1,
       "pixel_ratio": {
        "den": 1,
        "num": 1
       },
       "sample_rate": 0,
       "top_field_first": true,
       "type": "QtImageReader",
       "vcodec": "",
       "video_bit_rate": 0,
       "video_length": "108000",
       "video_stream_index": -1,
       "video_timebase": {
        "den": 30,
        "num": 1
       },
       "width": 720
      },
      "replace_image": false,
      "id": "PJNV20PXN2"
     },
     {
      "layer": 3000000,
      "title": "Transition",
      "type": "Mask",
      "position": 96.96666666666667,
      "start": 0,
      "end": 0.9583333333333212,
      "brightness": {
       "Points": [
        {
         "co": {
          "X": 1.0,
          "Y": -1.0
         },
         "handle_left": {
          "X": 0.5,
          "Y": 1.0
         },
         "handle_right": {
          "X": 0.5,
          "Y": 0.0
         },
         "handle_type": 0,
         "interpolation": 0
        },
        {
         "co": {
          "X": 29.0,
          "Y": 1.0
         },
         "handle_left": {
          "X": 0.5,
          "Y": 1.0
         },
         "handle_right": {
          "X": 0.5,
          "Y": 0.0
         },
         "handle_type": 0,
         "interpolation": 0
        }
       ]
      },
      "contrast": {
       "Points": [
        {
         "co": {
          "X": 1.0,
          "Y": 3.0
         },
         "handle_left": {
          "X": 0.5,
          "Y": 1.0
         },
         "handle_right": {
          "X": 0.5,
          "Y": 0.0
         },
         "handle_type": 0,
         "interpolation": 0
        },
        {
         "co": {
          "X": 29.0,
          "Y": 3.0
         },
         "handle_left": {
          "X": 0.5,
          "Y": 1.0
         },
         "handle_right": {
          "X": 0.5,
          "Y": 0.0
         },
         "handle_type": 0,
         "interpolation": 0
        }
       ]
      },
      "reader": {
       "acodec": "",
       "audio_bit_rate": 0,
       "audio_stream_index": -1,
       "audio_timebase": {
        "den": 1,
        "num": 1
       },
       "channel_layout": 4,
       "channels": 0,
       "display_ratio": {
        "den": 4,
        "num": 5
       },
       "duration": 3600.0,
       "file_size": "5832000",
       "fps": {
        "den": 1,
        "num": 30
       },
       "has_audio": false,
       "has_single_image": true,
       "has_video": true,
       "height": 576,
       "interlaced_frame": false,
       "metadata": {},
       "path": "@transitions/common/fade.svg",
       "pixel_format": -1,
       "pixel_ratio": {
        "den": 1,
        "num": 1
       },
       "sample_rate": 0,
       "top_field_first": true,
       "type": "QtImageReader",
       "vcodec": "",
       "video_bit_rate": 0,
       "video_length": "108000",
       "video_stream_index": -1,
       "video_timebase": {
        "den": 30,
        "num": 1
       },
       "width": 720
      },
      "replace_image": false,
      "id": "5D4SK0HM3Y"
     },
     {
      "layer": 4000000,
      "title": "Transition",
      "type": "Mask",
      "position": 100.33333333333333,
      "start": 0,
      "end": 0.9583333333333212,
      "brightness": {
       "Points": [
        {
         "co": {
          "X": 1.0,
          "Y": 1.0
         },
         "handle_left": {
          "X": 0.5,
          "Y": 1.0
         },
         "handle_right": {
          "X": 0.5,
          "Y": 0.0
         },
         "handle_type": 0,
         "interpolation": 0
        },
        {
         "co": {
          "X": 29.0,
          "Y": -1.0
         },
         "handle_left": {
          "X": 0.5,
          "Y": 1.0
         },
         "handle_right": {
          "X": 0.5,
          "Y": 0.0
         },
         "handle_type": 0,
         "interpolation": 0
        }
       ]
      },
      "contrast": {
       "Points": [
        {
         "co": {
          "X": 1.0,
          "Y": 3.0
         },
         "handle_left": {
          "X": 0.5,
          "Y": 1.0
         },
         "handle_right": {
          "X": 0.5,
          "Y": 0.0
         },
         "handle_type": 0,
         "interpolation": 0
        },
        {
         "co": {
          "X": 29.0,
          "Y": 3.0
         },
         "handle_left": {
          "X": 0.5,
          "Y": 1.0
         },
         "handle_right": {
          "X": 0.5,
          "Y": 0.0
         },
         "handle_type": 0,
         "interpolation": 0
        }
       ]
      },
      "reader": {
       "acodec": "",
       "audio_bit_rate": 0,
       "audio_stream_index": -1,
       "audio_timebase": {
        "den": 1,
        "num": 1
       },
       "channel_layout": 4,
       "channels": 0,
       "display_ratio": {
        "den": 4,
        "num": 5
       },
       "duration": 3600.0,
       "file_size": "5832000",
       "fps": {
        "den": 1,
        "num": 30
       },
       "has_audio": false,
       "has_single_image": true,
       "has_video": true,
       "height": 576,
       "interlaced_frame": false,
       "metadata": {},
       "path": "@transitions/common/fade.svg",
       "pixel_format": -1,
       "pixel_ratio": {
        "den": 1,
        "num": 1
       },
       "sample_rate": 0,
       "top_field_first": true,
       "type": "QtImageReader",
       "vcodec": "",
       "video_bit_rate": 0,
       "video_length": "108000",
       "video_stream_index": -1,
       "video_timebase": {
        "den": 30,
        "num": 1
       },
       "width": 720
      },
      "replace_image": false,
      "id": "CIVVK4Z0FJ"
     },
     {
      "layer": 4000000,
      "title": "Transition",
      "type": "Mask",
      "position": 109.36666666666666,
      "start": 0,
      "end": 0.9583333333333212,
      "brightness": {
       "Points": [
        {
         "co": {
          "X": 1.0,
          "Y": -1.0
         },
         "handle_left": {
          "X": 0.5,
          "Y": 1.0
         },
         "handle_right": {
          "X": 0.5,
          "Y": 0.0
         },
         "handle_type": 0,
         "interpolation": 0
        },
        {
         "co": {
          "X": 29.0,
          "Y": 1.0
         },
         "handle_left": {
          "X": 0.5,
          "Y": 1.0
         },
         "handle_right": {
          "X": 0.5,
          "Y": 0.0
         },
         "handle_type": 0,
         "interpolation": 0
        }
       ]
      },
      "contrast": {
       "Points": [
        {
         "co": {
          "X": 1.0,
          "Y": 3.0
         },
         "handle_left": {
          "X": 0.5,
          "Y": 1.0
         },
         "handle_right": {
          "X": 0.5,
          "Y": 0.0
         },
         "handle_type": 0,
         "interpolation": 0
        },
        {
         "co": {
          "X": 29.0,
          "Y": 3.0
         },
         "handle_left": {
          "X": 0.5,
          "Y": 1.0
         },
         "handle_right": {
          "X": 0.5,
          "Y": 0.0
         },
         "handle_type": 0,
         "interpolation": 0
        }
       ]
      },
      "reader": {
       "acodec": "",
       "audio_bit_rate": 0,
       "audio_stream_index": -1,
       "audio_timebase": {
        "den": 1,
        "num": 1
       },
       "channel_layout": 4,
       "channels": 0,
       "display_ratio": {
        "den": 4,
        "num": 5
       },
       "duration": 3600.0,
       "file_size": "5832000",
       "fps": {
        "den": 1,
        "num": 30
       },
       "has_audio": false,
       "has_single_image": true,
       "has_video": true,
       "height": 576,
       "interlaced_frame": false,
       "metadata": {},
       "path": "@transitions/common/fade.svg",
       "pixel_format": -1,
       "pixel_ratio": {
        "den": 1,
        "num": 1
       },
       "sample_rate": 0,
       "top_field_first": true,
       "type": "QtImageReader",
       "vcodec": "",
       "video_bit_rate": 0,
       "video_length": "108000",
       "video_stream_index": -1,
       "video_timebase": {
        "den": 30,
        "num": 1
       },
       "width": 720
      },
      "replace_image": false,
      "id": "6CRBT6371H"
     },
     {
      "layer": 4000000,
      "title": "Transition",
      "type": "Mask",
      "position": 110.5,
      "start": 0,
      "end": 0.9583333333333212,
      "brightness": {
       "Points": [
        {
         "co": {
          "X": 1.0,
          "Y": 1.0
         },
         "handle_left": {
          "X": 0.5,
          "Y": 1.0
         },
         "handle_right": {
          "X": 0.5,
          "Y": 0.0
         },
         "handle_type": 0,
         "interpolation": 0
        },
        {
         "co": {
          "X": 29.0,
          "Y": -1.0
         },
         "handle_left": {
          "X": 0.5,
          "Y": 1.0
         },
         "handle_right": {
          "X": 0.5,
          "Y": 0.0
         },
         "handle_type": 0,
         "interpolation": 0
        }
       ]
      },
      "contrast": {
       "Points": [
        {
         "co": {
          "X": 1.0,
          "Y": 3.0
         },
         "handle_left": {
          "X": 0.5,
          "Y": 1.0
         },
         "handle_right": {
          "X": 0.5,
          "Y": 0.0
         },
         "handle_type": 0,
         "interpolation": 0
        },
        {
         "co": {
          "X": 29.0,
          "Y": 3.0
         },
         "handle_left": {
          "X": 0.5,
          "Y": 1.0
         },
         "handle_right": {
          "X": 0.5,
          "Y": 0.0
         },
         "handle_type": 0,
         "interpolation": 0
        }
       ]
      },
      "reader": {
       "acodec": "",
       "audio_bit_rate": 0,
       "audio_stream_index": -1,
       "audio_timebase": {
        "den": 1,
        "num": 1
       },
       "channel_layout": 4,
       "channels": 0,
       "display_ratio": {
        "den": 4,
        "num": 5
       },
       "duration": 3600.0,
       "file_size": "5832000",
       "fps": {
        "den": 1,
        "num": 30
       },
       "has_audio": false,
       "has_single_image": true,
       "has_video": true,
       "height": 576,
       "interlaced_frame": false,
       "metadata": {},
       "path": "@transitions/common/fade.svg",
       "pixel_format": -1,
       "pixel_ratio": {
        "den": 1,
        "num": 1
       },
       "sample_rate": 0,
       "top_field_first": true,
       "type": "QtImageReader",
       "vcodec": "",
       "video_bit_rate": 0,
       "video_length": "108000",
       "video_stream_index": -1,
       "video_timebase": {
        "den": 30,
        "num": 1
       },
       "width": 720
      },
      "replace_image": false,
      "id": "6CLK4D1U3V"
     },
     {
      "layer": 4000000,
      "title": "Transition",
      "type": "Mask",
      "position": 119.53333333333333,
      "start": 0,
      "end": 0.9583333333333212,
      "brightness": {
       "Points": [
        {
         "co": {
          "X": 1.0,
          "Y": -1.0
         },
         "handle_left": {
          "X": 0.5,
          "Y": 1.0
         },
         "handle_right": {
          "X": 0.5,
          "Y": 0.0
         },
         "handle_type": 0,
         "interpolation": 0
        },
        {
         "co": {
          "X": 29.0,
          "Y": 1.0
         },
         "handle_left": {
          "X": 0.5,
          "Y": 1.0
         },
         "handle_right": {
          "X": 0.5,
          "Y": 0.0
         },
         "handle_type": 0,
         "interpolation": 0
        }
       ]
      },
      "contrast": {
       "Points": [
        {
         "co": {
          "X": 1.0,
          "Y": 3.0
         },
         "handle_left": {
          "X": 0.5,
          "Y": 1.0
         },
         "handle_right": {
          "X": 0.5,
          "Y": 0.0
         },
         "handle_type": 0,
         "interpolation": 0
        },
        {
         "co": {
          "X": 29.0,
          "Y": 3.0
         },
         "handle_left": {
          "X": 0.5,
          "Y": 1.0
         },
         "handle_right": {
          "X": 0.5,
          "Y": 0.0
         },
         "handle_type": 0,
         "interpolation": 0
        }
       ]
      },
      "reader": {
       "acodec": "",
       "audio_bit_rate": 0,
       "audio_stream_index": -1,
       "audio_timebase": {
        "den": 1,
        "num": 1
       },
       "channel_layout": 4,
       "channels": 0,
       "display_ratio": {
        "den": 4,
        "num": 5
       },
       "duration": 3600.0,
       "file_size": "5832000",
       "fps": {
        "den": 1,
        "num": 30
       },
       "has_audio": false,
       "has_single_image": true,
       "has_video": true,
       "height": 576,
       "interlaced_frame": false,
       "metadata": {},
       "path": "@transitions/common/fade.svg",
       "pixel_format": -1,
       "pixel_ratio": {
        "den": 1,
        "num": 1
       },
       "sample_rate": 0,
       "top_field_first": true,
       "type": "QtImageReader",
       "vcodec": "",
       "video_bit_rate": 0,
       "video_length": "108000",
       "video_stream_index": -1,
       "video_timebase": {
        "den": 30,
        "num": 1
       },
       "width": 720
      },
      "replace_image": false,
      "id": "T7M03LVI36"
     },
     {
      "layer": 4000000,
      "title": "Transition",
      "type": "Mask",
      "position": 122,
      "start": 0,
      "end": 0.9583333333333212,
      "brightness": {
       "Points": [
        {
         "co": {
          "X": 1.0,
          "Y": 1.0
         },
         "handle_left": {
          "X": 0.5,
          "Y": 1.0
         },
         "handle_right": {
          "X": 0.5,
          "Y": 0.0
         },
         "handle_type": 0,
         "interpolation": 0
        },
        {
         "co": {
          "X": 29.0,
          "Y": -1.0
         },
         "handle_left": {
          "X": 0.5,
          "Y": 1.0
         },
         "handle_right": {
          "X": 0.5,
          "Y": 0.0
         },
         "handle_type": 0,
         "interpolation": 0
        }
       ]
      },
      "contrast": {
       "Points": [
        {
         "co": {
          "X": 1.0,
          "Y": 3.0
         },
         "handle_left": {
          "X": 0.5,
          "Y": 1.0
         },
         "handle_right": {
          "X": 0.5,
          "Y": 0.0
         },
         "handle_type": 0,
         "interpolation": 0
        },
        {
         "co": {
          "X": 29.0,
          "Y": 3.0
         },
         "handle_left": {
          "X": 0.5,
          "Y": 1.0
         },
         "handle_right": {
          "X": 0.5,
          "Y": 0.0
         },
         "handle_type": 0,
         "interpolation": 0
        }
       ]
      },
      "reader": {
       "acodec": "",
       "audio_bit_rate": 0,
       "audio_stream_index": -1,
       "audio_timebase": {
        "den": 1,
        "num": 1
       },
       "channel_layout": 4,
       "channels": 0,
       "display_ratio": {
        "den": 4,
        "num": 5
       },
       "duration": 3600.0,
       "file_size": "5832000",
       "fps": {
        "den": 1,
        "num": 30
       },
       "has_audio": false,
       "has_single_image": true,
       "has_video": true,
       "height": 576,
       "interlaced_frame": false,
       "metadata": {},
       "path": "@transitions/common/fade.svg",
       "pixel_format": -1,
       "pixel_ratio": {
        "den": 1,
        "num": 1
       },
       "sample_rate": 0,
       "top_field_first": true,
       "type": "QtImageReader",
       "vcodec": "",
       "video_bit_rate": 0,
       "video_length": "108000",
       "video_stream_index": -1,
       "video_timebase": {
        "den": 30,
        "num": 1
       },
       "width": 720
      },
      "replace_image": false,
      "id": "H2KZP3RW5J"
     },
     {
      "id": "B9Z9HMO54D",
      "layer": 1000000,
      "title": "Transition",
      "type": "Mask",
      "position": 125.03333333333333,
      "start": 0,
      "end": 1.2633353678385504,
      "brightness": {
       "Points": [
        {
         "co": {
          "X": 1.0,
          "Y": 1.0
         },
         "handle_left": {
          "X": 0.5,
          "Y": 1.0
         },
         "handle_right": {
          "X": 0.5,
          "Y": 0.0
         },
         "handle_type": 0,
         "interpolation": 0
        },
        {
         "co": {
          "X": 38.0,
          "Y": -1.0
         },
         "handle_left": {
          "X": 0.5,
          "Y": 1.0
         },
         "handle_right": {
          "X": 0.5,
          "Y": 0.0
         },
         "handle_type": 0,
         "interpolation": 0
        }
       ]
      },
      "contrast": {
       "Points": [
        {
         "co": {
          "X": 1.0,
          "Y": 3.0
         },
         "handle_left": {
          "X": 0.5,
          "Y": 1.0
         },
         "handle_right": {
          "X": 0.5,
          "Y": 0.0
         },
         "handle_type": 0,
         "interpolation": 0
        },
        {
         "co": {
          "X": 38.0,
          "Y": 3.0
         },
         "handle_left": {
          "X": 0.5,
          "Y": 1.0
         },
         "handle_right": {
          "X": 0.5,
          "Y": 0.0
         },
         "handle_type": 0,
         "interpolation": 0
        }
       ]
      },
      "reader": {
       "acodec": "",
       "audio_bit_rate": 0,
       "audio_stream_index": -1,
       "audio_timebase": {
        "den": 1,
        "num": 1
       },
       "channel_layout": 4,
       "channels": 0,
       "display_ratio": {
        "den": 4,
        "num": 5
       },
       "duration": 3600.0,
       "file_size": "5832000",
       "fps": {
        "den": 1,
        "num": 30
       },
       "has_audio": false,
       "has_single_image": true,
       "has_video": true,
       "height": 576,
       "interlaced_frame": false,
       "metadata": {},
       "path": "@transitions/common/fade.svg",
       "pixel_format": -1,
       "pixel_ratio": {
        "den": 1,
        "num": 1
       },
       "sample_rate": 0,
       "top_field_first": true,
       "type": "QtImageReader",
       "vcodec": "",
       "video_bit_rate": 0,
       "video_length": "108000",
       "video_stream_index": -1,
       "video_timebase": {
        "den": 30,
        "num": 1
       },
       "width": 720
      },
      "replace_image": false
     },
     {
      "id": "QXV6SJOC9B",
      "layer": 1000000,
      "title": "Transition",
      "type": "Mask",
      "position": 110.5,
      "start": 0,
      "end": 2.0333333333333314,
      "brightness": {
       "Points": [
        {
         "co": {
          "X": 1.0,
          "Y": 1.0
         },
         "handle_left": {
          "X": 0.5,
          "Y": 1.0
         },
         "handle_right": {
          "X": 0.5,
          "Y": 0.0
         },
         "handle_type": 0,
         "interpolation": 0
        },
        {
         "co": {
          "X": 62.0,
          "Y": -1.0
         },
         "handle_left": {
          "X": 0.5,
          "Y": 1.0
         },
         "handle_right": {
          "X": 0.5,
          "Y": 0.0
         },
         "handle_type": 0,
         "interpolation": 0
        }
       ]
      },
      "contrast": {
       "Points": [
        {
         "co": {
          "X": 1.0,
          "Y": 3.0
         },
         "handle_left": {
          "X": 0.5,
          "Y": 1.0
         },
         "handle_right": {
          "X": 0.5,
          "Y": 0.0
         },
         "handle_type": 0,
         "interpolation": 0
        }
       ]
      },
      "reader": {
       "acodec": "",
       "audio_bit_rate": 0,
       "audio_stream_index": -1,
       "audio_timebase": {
        "den": 1,
        "num": 1
       },
       "channel_layout": 4,
       "channels": 0,
       "display_ratio": {
        "den": 4,
        "num": 5
       },
       "duration": 3600.0,
       "file_size": "5832000",
       "fps": {
        "den": 1,
        "num": 30
       },
       "has_audio": false,
       "has_single_image": true,
       "has_video": true,
       "height": 576,
       "interlaced_frame": false,
       "metadata": {},
       "path": "@transitions/common/fade.svg",
       "pixel_format": -1,
       "pixel_ratio": {
        "den": 1,
        "num": 1
       },
       "sample_rate": 0,
       "top_field_first": true,
       "type": "QtImageReader",
       "vcodec": "",
       "video_bit_rate": 0,
       "video_length": "108000",
       "video_stream_index": -1,
       "video_timebase": {
        "den": 30,
        "num": 1
       },
       "width": 720
      },
      "replace_image": false
     },
     {
      "id": "P0VCHPRAEW",
      "layer": 1000000,
      "title": "Transition",
      "type": "Mask",
      "position": 133.53333333333333,
      "start": 0,
      "end": 1.26666666666668,
      "brightness": {
       "Points": [
        {
         "co": {
          "X": 1.0,
          "Y": 1.0
         },
         "handle_left": {
          "X": 0.5,
          "Y": 1.0
         },
         "handle_right": {
          "X": 0.5,
          "Y": 0.0
         },
         "handle_type": 0,
         "interpolation": 0
        },
        {
         "co": {
          "X": 39.0,
          "Y": -1.0
         },
         "handle_left": {
          "X": 0.5,
          "Y": 1.0
         },
         "handle_right": {
          "X": 0.5,
          "Y": 0.0
         },
         "handle_type": 0,
         "interpolation": 0
        }
       ]
      },
      "contrast": {
       "Points": [
        {
         "co": {
          "X": 1.0,
          "Y": 3.0
         },
         "handle_left": {
          "X": 0.5,
          "Y": 1.0
         },
         "handle_right": {
          "X": 0.5,
          "Y": 0.0
         },
         "handle_type": 0,
         "interpolation": 0
        }
       ]
      },
      "reader": {
       "acodec": "",
       "audio_bit_rate": 0,
       "audio_stream_index": -1,
       "audio_timebase": {
        "den": 1,
        "num": 1
       },
       "channel_layout": 4,
       "channels": 0,
       "display_ratio": {
        "den": 4,
        "num": 5
       },
       "duration": 3600.0,
       "file_size": "5832000",
       "fps": {
        "den": 1,
        "num": 30
       },
       "has_audio": false,
       "has_single_image": true,
       "has_video": true,
       "height": 576,
       "interlaced_frame": false,
       "metadata": {},
       "path": "@transitions/common/fade.svg",
       "pixel_format": -1,
       "pixel_ratio": {
        "den": 1,
        "num": 1
       },
       "sample_rate": 0,
       "top_field_first": true,
       "type": "QtImageReader",
       "vcodec": "",
       "video_bit_rate": 0,
       "video_length": "108000",
       "video_stream_index": -1,
       "video_timebase": {
        "den": 30,
        "num": 1
       },
       "width": 720
      },
      "replace_image": false
     },
     {
      "layer": 4000000,
      "title": "Transition",
      "type": "Mask",
      "position": 142.6,
      "start": 0,
      "end": 0.9583333333333212,
      "brightness": {
       "Points": [
        {
         "co": {
          "X": 1.0,
          "Y": -1.0
         },
         "handle_left": {
          "X": 0.5,
          "Y": 1.0
         },
         "handle_right": {
          "X": 0.5,
          "Y": 0.0
         },
         "handle_type": 0,
         "interpolation": 0
        },
        {
         "co": {
          "X": 29.0,
          "Y": 1.0
         },
         "handle_left": {
          "X": 0.5,
          "Y": 1.0
         },
         "handle_right": {
          "X": 0.5,
          "Y": 0.0
         },
         "handle_type": 0,
         "interpolation": 0
        }
       ]
      },
      "contrast": {
       "Points": [
        {
         "co": {
          "X": 1.0,
          "Y": 3.0
         },
         "handle_left": {
          "X": 0.5,
          "Y": 1.0
         },
         "handle_right": {
          "X": 0.5,
          "Y": 0.0
         },
         "handle_type": 0,
         "interpolation": 0
        },
        {
         "co": {
          "X": 29.0,
          "Y": 3.0
         },
         "handle_left": {
          "X": 0.5,
          "Y": 1.0
         },
         "handle_right": {
          "X": 0.5,
          "Y": 0.0
         },
         "handle_type": 0,
         "interpolation": 0
        }
       ]
      },
      "reader": {
       "acodec": "",
       "audio_bit_rate": 0,
       "audio_stream_index": -1,
       "audio_timebase": {
        "den": 1,
        "num": 1
       },
       "channel_layout": 4,
       "channels": 0,
       "display_ratio": {
        "den": 4,
        "num": 5
       },
       "duration": 3600.0,
       "file_size": "5832000",
       "fps": {
        "den": 1,
        "num": 30
       },
       "has_audio": false,
       "has_single_image": true,
       "has_video": true,
       "height": 576,
       "interlaced_frame": false,
       "metadata": {},
       "path": "@transitions/common/fade.svg",
       "pixel_format": -1,
       "pixel_ratio": {
        "den": 1,
        "num": 1
       },
       "sample_rate": 0,
       "top_field_first": true,
       "type": "QtImageReader",
       "vcodec": "",
       "video_bit_rate": 0,
       "video_length": "108000",
       "video_stream_index": -1,
       "video_timebase": {
        "den": 30,
        "num": 1
       },
       "width": 720
      },
      "replace_image": false,
      "id": "HD7YD14ZFT"
     },
     {
      "layer": 4000000,
      "title": "Transition",
      "type": "Mask",
      "position": 131.03333333333333,
      "start": 0,
      "end": 0.9583333333333212,
      "brightness": {
       "Points": [
        {
         "co": {
          "X": 1.0,
          "Y": -1.0
         },
         "handle_left": {
          "X": 0.5,
          "Y": 1.0
         },
         "handle_right": {
          "X": 0.5,
          "Y": 0.0
         },
         "handle_type": 0,
         "interpolation": 0
        },
        {
         "co": {
          "X": 29.0,
          "Y": 1.0
         },
         "handle_left": {
          "X": 0.5,
          "Y": 1.0
         },
         "handle_right": {
          "X": 0.5,
          "Y": 0.0
         },
         "handle_type": 0,
         "interpolation": 0
        }
       ]
      },
      "contrast": {
       "Points": [
        {
         "co": {
          "X": 1.0,
          "Y": 3.0
         },
         "handle_left": {
          "X": 0.5,
          "Y": 1.0
         },
         "handle_right": {
          "X": 0.5,
          "Y": 0.0
         },
         "handle_type": 0,
         "interpolation": 0
        },
        {
         "co": {
          "X": 29.0,
          "Y": 3.0
         },
         "handle_left": {
          "X": 0.5,
          "Y": 1.0
         },
         "handle_right": {
          "X": 0.5,
          "Y": 0.0
         },
         "handle_type": 0,
         "interpolation": 0
        }
       ]
      },
      "reader": {
       "acodec": "",
       "audio_bit_rate": 0,
       "audio_stream_index": -1,
       "audio_timebase": {
        "den": 1,
        "num": 1
       },
       "channel_layout": 4,
       "channels": 0,
       "display_ratio": {
        "den": 4,
        "num": 5
       },
       "duration": 3600.0,
       "file_size": "5832000",
       "fps": {
        "den": 1,
        "num": 30
       },
       "has_audio": false,
       "has_single_image": true,
       "has_video": true,
       "height": 576,
       "interlaced_frame": false,
       "metadata": {},
       "path": "@transitions/common/fade.svg",
       "pixel_format": -1,
       "pixel_ratio": {
        "den": 1,
        "num": 1
       },
       "sample_rate": 0,
       "top_field_first": true,
       "type": "QtImageReader",
       "vcodec": "",
       "video_bit_rate": 0,
       "video_length": "108000",
       "video_stream_index": -1,
       "video_timebase": {
        "den": 30,
        "num": 1
       },
       "width": 720
      },
      "replace_image": false,
      "id": "W1VV6ZI143"
     },
     {
      "layer": 4000000,
      "title": "Transition",
      "type": "Mask",
      "position": 133.56666666666666,
      "start": 0,
      "end": 0.9583333333333212,
      "brightness": {
       "Points": [
        {
         "co": {
          "X": 1.0,
          "Y": 1.0
         },
         "handle_left": {
          "X": 0.5,
          "Y": 1.0
         },
         "handle_right": {
          "X": 0.5,
          "Y": 0.0
         },
         "handle_type": 0,
         "interpolation": 0
        },
        {
         "co": {
          "X": 29.0,
          "Y": -1.0
         },
         "handle_left": {
          "X": 0.5,
          "Y": 1.0
         },
         "handle_right": {
          "X": 0.5,
          "Y": 0.0
         },
         "handle_type": 0,
         "interpolation": 0
        }
       ]
      },
      "contrast": {
       "Points": [
        {
         "co": {
          "X": 1.0,
          "Y": 3.0
         },
         "handle_left": {
          "X": 0.5,
          "Y": 1.0
         },
         "handle_right": {
          "X": 0.5,
          "Y": 0.0
         },
         "handle_type": 0,
         "interpolation": 0
        },
        {
         "co": {
          "X": 29.0,
          "Y": 3.0
         },
         "handle_left": {
          "X": 0.5,
          "Y": 1.0
         },
         "handle_right": {
          "X": 0.5,
          "Y": 0.0
         },
         "handle_type": 0,
         "interpolation": 0
        }
       ]
      },
      "reader": {
       "acodec": "",
       "audio_bit_rate": 0,
       "audio_stream_index": -1,
       "audio_timebase": {
        "den": 1,
        "num": 1
       },
       "channel_layout": 4,
       "channels": 0,
       "display_ratio": {
        "den": 4,
        "num": 5
       },
       "duration": 3600.0,
       "file_size": "5832000",
       "fps": {
        "den": 1,
        "num": 30
       },
       "has_audio": false,
       "has_single_image": true,
       "has_video": true,
       "height": 576,
       "interlaced_frame": false,
       "metadata": {},
       "path": "@transitions/common/fade.svg",
       "pixel_format": -1,
       "pixel_ratio": {
        "den": 1,
        "num": 1
       },
       "sample_rate": 0,
       "top_field_first": true,
       "type": "QtImageReader",
       "vcodec": "",
       "video_bit_rate": 0,
       "video_length": "108000",
       "video_stream_index": -1,
       "video_timebase": {
        "den": 30,
        "num": 1
       },
       "width": 720
      },
      "replace_image": false,
      "id": "Z02J2TPUOT"
     },
     {
      "id": "0N4ZYD2NF2",
      "layer": 1000000,
      "title": "Transition",
      "type": "Mask",
      "position": 143.56666666666666,
      "start": 0,
      "end": 1.2333333333333485,
      "brightness": {
       "Points": [
        {
         "co": {
          "X": 1.0,
          "Y": 1.0
         },
         "handle_left": {
          "X": 0.5,
          "Y": 1.0
         },
         "handle_right": {
          "X": 0.5,
          "Y": 0.0
         },
         "handle_type": 0,
         "interpolation": 0
        },
        {
         "co": {
          "X": 38.0,
          "Y": -1.0
         },
         "handle_left": {
          "X": 0.5,
          "Y": 1.0
         },
         "handle_right": {
          "X": 0.5,
          "Y": 0.0
         },
         "handle_type": 0,
         "interpolation": 0
        }
       ]
      },
      "contrast": {
       "Points": [
        {
         "co": {
          "X": 1.0,
          "Y": 3.0
         },
         "handle_left": {
          "X": 0.5,
          "Y": 1.0
         },
         "handle_right": {
          "X": 0.5,
          "Y": 0.0
         },
         "handle_type": 0,
         "interpolation": 0
        }
       ]
      },
      "reader": {
       "acodec": "",
       "audio_bit_rate": 0,
       "audio_stream_index": -1,
       "audio_timebase": {
        "den": 1,
        "num": 1
       },
       "channel_layout": 4,
       "channels": 0,
       "display_ratio": {
        "den": 4,
        "num": 5
       },
       "duration": 3600.0,
       "file_size": "5832000",
       "fps": {
        "den": 1,
        "num": 30
       },
       "has_audio": false,
       "has_single_image": true,
       "has_video": true,
       "height": 576,
       "interlaced_frame": false,
       "metadata": {},
       "path": "@transitions/common/fade.svg",
       "pixel_format": -1,
       "pixel_ratio": {
        "den": 1,
        "num": 1
       },
       "sample_rate": 0,
       "top_field_first": true,
       "type": "QtImageReader",
       "vcodec": "",
       "video_bit_rate": 0,
       "video_length": "108000",
       "video_stream_index": -1,
       "video_timebase": {
        "den": 30,
        "num": 1
       },
       "width": 720
      },
      "replace_image": false
     },
     {
      "layer": 4000000,
      "title": "Transition",
      "type": "Mask",
      "position": 144.8,
      "start": 0,
      "end": 0.9583333333333212,
      "brightness": {
       "Points": [
        {
         "co": {
          "X": 1.0,
          "Y": 1.0
         },
         "handle_left": {
          "X": 0.5,
          "Y": 1.0
         },
         "handle_right": {
          "X": 0.5,
          "Y": 0.0
         },
         "handle_type": 0,
         "interpolation": 0
        },
        {
         "co": {
          "X": 29.0,
          "Y": -1.0
         },
         "handle_left": {
          "X": 0.5,
          "Y": 1.0
         },
         "handle_right": {
          "X": 0.5,
          "Y": 0.0
         },
         "handle_type": 0,
         "interpolation": 0
        }
       ]
      },
      "contrast": {
       "Points": [
        {
         "co": {
          "X": 1.0,
          "Y": 3.0
         },
         "handle_left": {
          "X": 0.5,
          "Y": 1.0
         },
         "handle_right": {
          "X": 0.5,
          "Y": 0.0
         },
         "handle_type": 0,
         "interpolation": 0
        },
        {
         "co": {
          "X": 29.0,
          "Y": 3.0
         },
         "handle_left": {
          "X": 0.5,
          "Y": 1.0
         },
         "handle_right": {
          "X": 0.5,
          "Y": 0.0
         },
         "handle_type": 0,
         "interpolation": 0
        }
       ]
      },
      "reader": {
       "acodec": "",
       "audio_bit_rate": 0,
       "audio_stream_index": -1,
       "audio_timebase": {
        "den": 1,
        "num": 1
       },
       "channel_layout": 4,
       "channels": 0,
       "display_ratio": {
        "den": 4,
        "num": 5
       },
       "duration": 3600.0,
       "file_size": "5832000",
       "fps": {
        "den": 1,
        "num": 30
       },
       "has_audio": false,
       "has_single_image": true,
       "has_video": true,
       "height": 576,
       "interlaced_frame": false,
       "metadata": {},
       "path": "@transitions/common/fade.svg",
       "pixel_format": -1,
       "pixel_ratio": {
        "den": 1,
        "num": 1
       },
       "sample_rate": 0,
       "top_field_first": true,
       "type": "QtImageReader",
       "vcodec": "",
       "video_bit_rate": 0,
       "video_length": "108000",
       "video_stream_index": -1,
       "video_timebase": {
        "den": 30,
        "num": 1
       },
       "width": 720
      },
      "replace_image": false,
      "id": "W0DEPAZ42R"
     },
     {
      "id": "TO45GHWLTA",
      "layer": 1000000,
      "title": "Transition",
      "type": "Mask",
      "position": 145.76666666666668,
      "start": 0,
      "end": 1,
      "brightness": {
       "Points": [
        {
         "co": {
          "X": 1.0,
          "Y": 1.0
         },
         "handle_left": {
          "X": 0.5,
          "Y": 1.0
         },
         "handle_right": {
          "X": 0.5,
          "Y": 0.0
         },
         "handle_type": 0,
         "interpolation": 0
        },
        {
         "co": {
          "X": 31.0,
          "Y": -1.0
         },
         "handle_left": {
          "X": 0.5,
          "Y": 1.0
         },
         "handle_right": {
          "X": 0.5,
          "Y": 0.0
         },
         "handle_type": 0,
         "interpolation": 0
        }
       ]
      },
      "contrast": {
       "Points": [
        {
         "co": {
          "X": 1.0,
          "Y": 3.0
         },
         "handle_left": {
          "X": 0.5,
          "Y": 1.0
         },
         "handle_right": {
          "X": 0.5,
          "Y": 0.0
         },
         "handle_type": 0,
         "interpolation": 0
        }
       ]
      },
      "reader": {
       "acodec": "",
       "audio_bit_rate": 0,
       "audio_stream_index": -1,
       "audio_timebase": {
        "den": 1,
        "num": 1
       },
       "channel_layout": 4,
       "channels": 0,
       "display_ratio": {
        "den": 4,
        "num": 5
       },
       "duration": 3600.0,
       "file_size": "5832000",
       "fps": {
        "den": 1,
        "num": 30
       },
       "has_audio": false,
       "has_single_image": true,
       "has_video": true,
       "height": 576,
       "interlaced_frame": false,
       "metadata": {},
       "path": "@transitions/common/fade.svg",
       "pixel_format": -1,
       "pixel_ratio": {
        "den": 1,
        "num": 1
       },
       "sample_rate": 0,
       "top_field_first": true,
       "type": "QtImageReader",
       "vcodec": "",
       "video_bit_rate": 0,
       "video_length": "108000",
       "video_stream_index": -1,
       "video_timebase": {
        "den": 30,
        "num": 1
       },
       "width": 720
      },
      "replace_image": false
     },
     {
      "id": "QQGQORIF73",
      "layer": 1000000,
      "title": "Transition",
      "type": "Mask",
      "position": 147.5,
      "start": 0,
      "end": 1.1666666666666572,
      "brightness": {
       "Points": [
        {
         "co": {
          "X": 1.0,
          "Y": 1.0
         },
         "handle_left": {
          "X": 0.5,
          "Y": 1.0
         },
         "handle_right": {
          "X": 0.5,
          "Y": 0.0
         },
         "handle_type": 0,
         "interpolation": 0
        },
        {
         "co": {
          "X": 35.0,
          "Y": -1.0
         },
         "handle_left": {
          "X": 0.5,
          "Y": 1.0
         },
         "handle_right": {
          "X": 0.5,
          "Y": 0.0
         },
         "handle_type": 0,
         "interpolation": 0
        }
       ]
      },
      "contrast": {
       "Points": [
        {
         "co": {
          "X": 1.0,
          "Y": 3.0
         },
         "handle_left": {
          "X": 0.5,
          "Y": 1.0
         },
         "handle_right": {
          "X": 0.5,
          "Y": 0.0
         },
         "handle_type": 0,
         "interpolation": 0
        },
        {
         "co": {
          "X": 35.0,
          "Y": 3.0
         },
         "handle_left": {
          "X": 0.5,
          "Y": 1.0
         },
         "handle_right": {
          "X": 0.5,
          "Y": 0.0
         },
         "handle_type": 0,
         "interpolation": 0
        }
       ]
      },
      "reader": {
       "acodec": "",
       "audio_bit_rate": 0,
       "audio_stream_index": -1,
       "audio_timebase": {
        "den": 1,
        "num": 1
       },
       "channel_layout": 4,
       "channels": 0,
       "display_ratio": {
        "den": 4,
        "num": 5
       },
       "duration": 3600.0,
       "file_size": "5832000",
       "fps": {
        "den": 1,
        "num": 30
       },
       "has_audio": false,
       "has_single_image": true,
       "has_video": true,
       "height": 576,
       "interlaced_frame": false,
       "metadata": {},
       "path": "@transitions/common/fade.svg",
       "pixel_format": -1,
       "pixel_ratio": {
        "den": 1,
        "num": 1
       },
       "sample_rate": 0,
       "top_field_first": true,
       "type": "QtImageReader",
       "vcodec": "",
       "video_bit_rate": 0,
       "video_length": "108000",
       "video_stream_index": -1,
       "video_timebase": {
        "den": 30,
        "num": 1
       },
       "width": 720
      },
      "replace_image": false
     },
     {
      "layer": 3000000,
      "title": "Transition",
      "type": "Mask",
      "position": 147.5,
      "start": 0,
      "end": 0.9583333333333212,
      "brightness": {
       "Points": [
        {
         "co": {
          "X": 1.0,
          "Y": 1.0
         },
         "handle_left": {
          "X": 0.5,
          "Y": 1.0
         },
         "handle_right": {
          "X": 0.5,
          "Y": 0.0
         },
         "handle_type": 0,
         "interpolation": 0
        },
        {
         "co": {
          "X": 29.0,
          "Y": -1.0
         },
         "handle_left": {
          "X": 0.5,
          "Y": 1.0
         },
         "handle_right": {
          "X": 0.5,
          "Y": 0.0
         },
         "handle_type": 0,
         "interpolation": 0
        }
       ]
      },
      "contrast": {
       "Points": [
        {
         "co": {
          "X": 1.0,
          "Y": 3.0
         },
         "handle_left": {
          "X": 0.5,
          "Y": 1.0
         },
         "handle_right": {
          "X": 0.5,
          "Y": 0.0
         },
         "handle_type": 0,
         "interpolation": 0
        },
        {
         "co": {
          "X": 29.0,
          "Y": 3.0
         },
         "handle_left": {
          "X": 0.5,
          "Y": 1.0
         },
         "handle_right": {
          "X": 0.5,
          "Y": 0.0
         },
         "handle_type": 0,
         "interpolation": 0
        }
       ]
      },
      "reader": {
       "acodec": "",
       "audio_bit_rate": 0,
       "audio_stream_index": -1,
       "audio_timebase": {
        "den": 1,
        "num": 1
       },
       "channel_layout": 4,
       "channels": 0,
       "display_ratio": {
        "den": 4,
        "num": 5
       },
       "duration": 3600.0,
       "file_size": "5832000",
       "fps": {
        "den": 1,
        "num": 30
       },
       "has_audio": false,
       "has_single_image": true,
       "has_video": true,
       "height": 576,
       "interlaced_frame": false,
       "metadata": {},
       "path": "@transitions/common/fade.svg",
       "pixel_format": -1,
       "pixel_ratio": {
        "den": 1,
        "num": 1
       },
       "sample_rate": 0,
       "top_field_first": true,
       "type": "QtImageReader",
       "vcodec": "",
       "video_bit_rate": 0,
       "video_length": "108000",
       "video_stream_index": -1,
       "video_timebase": {
        "den": 30,
        "num": 1
       },
       "width": 720
      },
      "replace_image": false,
      "id": "MQ9GMO4U7S"
     },
     {
      "layer": 3000000,
      "title": "Transition",
      "type": "Mask",
      "position": 151.5,
      "start": 0,
      "end": 0.9583333333333212,
      "brightness": {
       "Points": [
        {
         "co": {
          "X": 1.0,
          "Y": -1.0
         },
         "handle_left": {
          "X": 0.5,
          "Y": 1.0
         },
         "handle_right": {
          "X": 0.5,
          "Y": 0.0
         },
         "handle_type": 0,
         "interpolation": 0
        },
        {
         "co": {
          "X": 29.0,
          "Y": 1.0
         },
         "handle_left": {
          "X": 0.5,
          "Y": 1.0
         },
         "handle_right": {
          "X": 0.5,
          "Y": 0.0
         },
         "handle_type": 0,
         "interpolation": 0
        }
       ]
      },
      "contrast": {
       "Points": [
        {
         "co": {
          "X": 1.0,
          "Y": 3.0
         },
         "handle_left": {
          "X": 0.5,
          "Y": 1.0
         },
         "handle_right": {
          "X": 0.5,
          "Y": 0.0
         },
         "handle_type": 0,
         "interpolation": 0
        },
        {
         "co": {
          "X": 29.0,
          "Y": 3.0
         },
         "handle_left": {
          "X": 0.5,
          "Y": 1.0
         },
         "handle_right": {
          "X": 0.5,
          "Y": 0.0
         },
         "handle_type": 0,
         "interpolation": 0
        }
       ]
      },
      "reader": {
       "acodec": "",
       "audio_bit_rate": 0,
       "audio_stream_index": -1,
       "audio_timebase": {
        "den": 1,
        "num": 1
       },
       "channel_layout": 4,
       "channels": 0,
       "display_ratio": {
        "den": 4,
        "num": 5
       },
       "duration": 3600.0,
       "file_size": "5832000",
       "fps": {
        "den": 1,
        "num": 30
       },
       "has_audio": false,
       "has_single_image": true,
       "has_video": true,
       "height": 576,
       "interlaced_frame": false,
       "metadata": {},
       "path": "@transitions/common/fade.svg",
       "pixel_format": -1,
       "pixel_ratio": {
        "den": 1,
        "num": 1
       },
       "sample_rate": 0,
       "top_field_first": true,
       "type": "QtImageReader",
       "vcodec": "",
       "video_bit_rate": 0,
       "video_length": "108000",
       "video_stream_index": -1,
       "video_timebase": {
        "den": 30,
        "num": 1
       },
       "width": 720
      },
      "replace_image": false,
      "id": "48F1O1SI32"
     },
     {
      "layer": 3000000,
      "title": "Transition",
      "type": "Mask",
      "position": 152.96666666666667,
      "start": 0,
      "end": 0.9583333333333212,
      "brightness": {
       "Points": [
        {
         "co": {
          "X": 1.0,
          "Y": 1.0
         },
         "handle_left": {
          "X": 0.5,
          "Y": 1.0
         },
         "handle_right": {
          "X": 0.5,
          "Y": 0.0
         },
         "handle_type": 0,
         "interpolation": 0
        },
        {
         "co": {
          "X": 29.0,
          "Y": -1.0
         },
         "handle_left": {
          "X": 0.5,
          "Y": 1.0
         },
         "handle_right": {
          "X": 0.5,
          "Y": 0.0
         },
         "handle_type": 0,
         "interpolation": 0
        }
       ]
      },
      "contrast": {
       "Points": [
        {
         "co": {
          "X": 1.0,
          "Y": 3.0
         },
         "handle_left": {
          "X": 0.5,
          "Y": 1.0
         },
         "handle_right": {
          "X": 0.5,
          "Y": 0.0
         },
         "handle_type": 0,
         "interpolation": 0
        },
        {
         "co": {
          "X": 29.0,
          "Y": 3.0
         },
         "handle_left": {
          "X": 0.5,
          "Y": 1.0
         },
         "handle_right": {
          "X": 0.5,
          "Y": 0.0
         },
         "handle_type": 0,
         "interpolation": 0
        }
       ]
      },
      "reader": {
       "acodec": "",
       "audio_bit_rate": 0,
       "audio_stream_index": -1,
       "audio_timebase": {
        "den": 1,
        "num": 1
       },
       "channel_layout": 4,
       "channels": 0,
       "display_ratio": {
        "den": 4,
        "num": 5
       },
       "duration": 3600.0,
       "file_size": "5832000",
       "fps": {
        "den": 1,
        "num": 30
       },
       "has_audio": false,
       "has_single_image": true,
       "has_video": true,
       "height": 576,
       "interlaced_frame": false,
       "metadata": {},
       "path": "@transitions/common/fade.svg",
       "pixel_format": -1,
       "pixel_ratio": {
        "den": 1,
        "num": 1
       },
       "sample_rate": 0,
       "top_field_first": true,
       "type": "QtImageReader",
       "vcodec": "",
       "video_bit_rate": 0,
       "video_length": "108000",
       "video_stream_index": -1,
       "video_timebase": {
        "den": 30,
        "num": 1
       },
       "width": 720
      },
      "replace_image": false,
      "id": "T6EIC6ZKKI"
     },
     {
      "layer": 3000000,
      "title": "Transition",
      "type": "Mask",
      "position": 156.76666666666668,
      "start": 0,
      "end": 0.9583333333333212,
      "brightness": {
       "Points": [
        {
         "co": {
          "X": 1.0,
          "Y": -1.0
         },
         "handle_left": {
          "X": 0.5,
          "Y": 1.0
         },
         "handle_right": {
          "X": 0.5,
          "Y": 0.0
         },
         "handle_type": 0,
         "interpolation": 0
        },
        {
         "co": {
          "X": 29.0,
          "Y": 1.0
         },
         "handle_left": {
          "X": 0.5,
          "Y": 1.0
         },
         "handle_right": {
          "X": 0.5,
          "Y": 0.0
         },
         "handle_type": 0,
         "interpolation": 0
        }
       ]
      },
      "contrast": {
       "Points": [
        {
         "co": {
          "X": 1.0,
          "Y": 3.0
         },
         "handle_left": {
          "X": 0.5,
          "Y": 1.0
         },
         "handle_right": {
          "X": 0.5,
          "Y": 0.0
         },
         "handle_type": 0,
         "interpolation": 0
        },
        {
         "co": {
          "X": 29.0,
          "Y": 3.0
         },
         "handle_left": {
          "X": 0.5,
          "Y": 1.0
         },
         "handle_right": {
          "X": 0.5,
          "Y": 0.0
         },
         "handle_type": 0,
         "interpolation": 0
        }
       ]
      },
      "reader": {
       "acodec": "",
       "audio_bit_rate": 0,
       "audio_stream_index": -1,
       "audio_timebase": {
        "den": 1,
        "num": 1
       },
       "channel_layout": 4,
       "channels": 0,
       "display_ratio": {
        "den": 4,
        "num": 5
       },
       "duration": 3600.0,
       "file_size": "5832000",
       "fps": {
        "den": 1,
        "num": 30
       },
       "has_audio": false,
       "has_single_image": true,
       "has_video": true,
       "height": 576,
       "interlaced_frame": false,
       "metadata": {},
       "path": "@transitions/common/fade.svg",
       "pixel_format": -1,
       "pixel_ratio": {
        "den": 1,
        "num": 1
       },
       "sample_rate": 0,
       "top_field_first": true,
       "type": "QtImageReader",
       "vcodec": "",
       "video_bit_rate": 0,
       "video_length": "108000",
       "video_stream_index": -1,
       "video_timebase": {
        "den": 30,
        "num": 1
       },
       "width": 720
      },
      "replace_image": false,
      "id": "JB87W5WBEW"
     },
     {
      "layer": 3000000,
      "title": "Transition",
      "type": "Mask",
      "position": 159.4,
      "start": 0,
      "end": 0.9583333333333212,
      "brightness": {
       "Points": [
        {
         "co": {
          "X": 1.0,
          "Y": 1.0
         },
         "handle_left": {
          "X": 0.5,
          "Y": 1.0
         },
         "handle_right": {
          "X": 0.5,
          "Y": 0.0
         },
         "handle_type": 0,
         "interpolation": 0
        },
        {
         "co": {
          "X": 29.0,
          "Y": -1.0
         },
         "handle_left": {
          "X": 0.5,
          "Y": 1.0
         },
         "handle_right": {
          "X": 0.5,
          "Y": 0.0
         },
         "handle_type": 0,
         "interpolation": 0
        }
       ]
      },
      "contrast": {
       "Points": [
        {
         "co": {
          "X": 1.0,
          "Y": 3.0
         },
         "handle_left": {
          "X": 0.5,
          "Y": 1.0
         },
         "handle_right": {
          "X": 0.5,
          "Y": 0.0
         },
         "handle_type": 0,
         "interpolation": 0
        },
        {
         "co": {
          "X": 29.0,
          "Y": 3.0
         },
         "handle_left": {
          "X": 0.5,
          "Y": 1.0
         },
         "handle_right": {
          "X": 0.5,
          "Y": 0.0
         },
         "handle_type": 0,
         "interpolation": 0
        }
       ]
      },
      "reader": {
       "acodec": "",
       "audio_bit_rate": 0,
       "audio_stream_index": -1,
       "audio_timebase": {
        "den": 1,
        "num": 1
       },
       "channel_layout": 4,
       "channels": 0,
       "display_ratio": {
        "den": 4,
        "num": 5
       },
       "duration": 3600.0,
       "file_size": "5832000",
       "fps": {
        "den": 1,
        "num": 30
       },
       "has_audio": false,
       "has_single_image": true,
       "has_video": true,
       "height": 576,
       "interlaced_frame": false,
       "metadata": {},
       "path": "@transitions/common/fade.svg",
       "pixel_format": -1,
       "pixel_ratio": {
        "den": 1,
        "num": 1
       },
       "sample_rate": 0,
       "top_field_first": true,
       "type": "QtImageReader",
       "vcodec": "",
       "video_bit_rate": 0,
       "video_length": "108000",
       "video_stream_index": -1,
       "video_timebase": {
        "den": 30,
        "num": 1
       },
       "width": 720
      },
      "replace_image": false,
      "id": "CEA8AKF4RE"
     },
     {
      "layer": 3000000,
      "title": "Transition",
      "type": "Mask",
      "position": 163.2,
      "start": 0,
      "end": 0.9583333333333212,
      "brightness": {
       "Points": [
        {
         "co": {
          "X": 1.0,
          "Y": -1.0
         },
         "handle_left": {
          "X": 0.5,
          "Y": 1.0
         },
         "handle_right": {
          "X": 0.5,
          "Y": 0.0
         },
         "handle_type": 0,
         "interpolation": 0
        },
        {
         "co": {
          "X": 29.0,
          "Y": 1.0
         },
         "handle_left": {
          "X": 0.5,
          "Y": 1.0
         },
         "handle_right": {
          "X": 0.5,
          "Y": 0.0
         },
         "handle_type": 0,
         "interpolation": 0
        }
       ]
      },
      "contrast": {
       "Points": [
        {
         "co": {
          "X": 1.0,
          "Y": 3.0
         },
         "handle_left": {
          "X": 0.5,
          "Y": 1.0
         },
         "handle_right": {
          "X": 0.5,
          "Y": 0.0
         },
         "handle_type": 0,
         "interpolation": 0
        },
        {
         "co": {
          "X": 29.0,
          "Y": 3.0
         },
         "handle_left": {
          "X": 0.5,
          "Y": 1.0
         },
         "handle_right": {
          "X": 0.5,
          "Y": 0.0
         },
         "handle_type": 0,
         "interpolation": 0
        }
       ]
      },
      "reader": {
       "acodec": "",
       "audio_bit_rate": 0,
       "audio_stream_index": -1,
       "audio_timebase": {
        "den": 1,
        "num": 1
       },
       "channel_layout": 4,
       "channels": 0,
       "display_ratio": {
        "den": 4,
        "num": 5
       },
       "duration": 3600.0,
       "file_size": "5832000",
       "fps": {
        "den": 1,
        "num": 30
       },
       "has_audio": false,
       "has_single_image": true,
       "has_video": true,
       "height": 576,
       "interlaced_frame": false,
       "metadata": {},
       "path": "@transitions/common/fade.svg",
       "pixel_format": -1,
       "pixel_ratio": {
        "den": 1,
        "num": 1
       },
       "sample_rate": 0,
       "top_field_first": true,
       "type": "QtImageReader",
       "vcodec": "",
       "video_bit_rate": 0,
       "video_length": "108000",
       "video_stream_index": -1,
       "video_timebase": {
        "den": 30,
        "num": 1
       },
       "width": 720
      },
      "replace_image": false,
      "id": "6X5CANRLU0"
     },
     {
      "layer": 3000000,
      "title": "Transition",
      "type": "Mask",
      "position": 164.3,
      "start": 0,
      "end": 0.9583333333333212,
      "brightness": {
       "Points": [
        {
         "co": {
          "X": 1.0,
          "Y": 1.0
         },
         "handle_left": {
          "X": 0.5,
          "Y": 1.0
         },
         "handle_right": {
          "X": 0.5,
          "Y": 0.0
         },
         "handle_type": 0,
         "interpolation": 0
        },
        {
         "co": {
          "X": 29.0,
          "Y": -1.0
         },
         "handle_left": {
          "X": 0.5,
          "Y": 1.0
         },
         "handle_right": {
          "X": 0.5,
          "Y": 0.0
         },
         "handle_type": 0,
         "interpolation": 0
        }
       ]
      },
      "contrast": {
       "Points": [
        {
         "co": {
          "X": 1.0,
          "Y": 3.0
         },
         "handle_left": {
          "X": 0.5,
          "Y": 1.0
         },
         "handle_right": {
          "X": 0.5,
          "Y": 0.0
         },
         "handle_type": 0,
         "interpolation": 0
        },
        {
         "co": {
          "X": 29.0,
          "Y": 3.0
         },
         "handle_left": {
          "X": 0.5,
          "Y": 1.0
         },
         "handle_right": {
          "X": 0.5,
          "Y": 0.0
         },
         "handle_type": 0,
         "interpolation": 0
        }
       ]
      },
      "reader": {
       "acodec": "",
       "audio_bit_rate": 0,
       "audio_stream_index": -1,
       "audio_timebase": {
        "den": 1,
        "num": 1
       },
       "channel_layout": 4,
       "channels": 0,
       "display_ratio": {
        "den": 4,
        "num": 5
       },
       "duration": 3600.0,
       "file_size": "5832000",
       "fps": {
        "den": 1,
        "num": 30
       },
       "has_audio": false,
       "has_single_image": true,
       "has_video": true,
       "height": 576,
       "interlaced_frame": false,
       "metadata": {},
       "path": "@transitions/common/fade.svg",
       "pixel_format": -1,
       "pixel_ratio": {
        "den": 1,
        "num": 1
       },
       "sample_rate": 0,
       "top_field_first": true,
       "type": "QtImageReader",
       "vcodec": "",
       "video_bit_rate": 0,
       "video_length": "108000",
       "video_stream_index": -1,
       "video_timebase": {
        "den": 30,
        "num": 1
       },
       "width": 720
      },
      "replace_image": false,
      "id": "RQ98DT2VUD"
     },
     {
      "layer": 3000000,
      "title": "Transition",
      "type": "Mask",
      "position": 169.9,
      "start": 0,
      "end": 0.9583333333333212,
      "brightness": {
       "Points": [
        {
         "co": {
          "X": 1.0,
          "Y": -1.0
         },
         "handle_left": {
          "X": 0.5,
          "Y": 1.0
         },
         "handle_right": {
          "X": 0.5,
          "Y": 0.0
         },
         "handle_type": 0,
         "interpolation": 0
        },
        {
         "co": {
          "X": 29.0,
          "Y": 1.0
         },
         "handle_left": {
          "X": 0.5,
          "Y": 1.0
         },
         "handle_right": {
          "X": 0.5,
          "Y": 0.0
         },
         "handle_type": 0,
         "interpolation": 0
        }
       ]
      },
      "contrast": {
       "Points": [
        {
         "co": {
          "X": 1.0,
          "Y": 3.0
         },
         "handle_left": {
          "X": 0.5,
          "Y": 1.0
         },
         "handle_right": {
          "X": 0.5,
          "Y": 0.0
         },
         "handle_type": 0,
         "interpolation": 0
        },
        {
         "co": {
          "X": 29.0,
          "Y": 3.0
         },
         "handle_left": {
          "X": 0.5,
          "Y": 1.0
         },
         "handle_right": {
          "X": 0.5,
          "Y": 0.0
         },
         "handle_type": 0,
         "interpolation": 0
        }
       ]
      },
      "reader": {
       "acodec": "",
       "audio_bit_rate": 0,
       "audio_stream_index": -1,
       "audio_timebase": {
        "den": 1,
        "num": 1
       },
       "channel_layout": 4,
       "channels": 0,
       "display_ratio": {
        "den": 4,
        "num": 5
       },
       "duration": 3600.0,
       "file_size": "5832000",
       "fps": {
        "den": 1,
        "num": 30
       },
       "has_audio": false,
       "has_single_image": true,
       "has_video": true,
       "height": 576,
       "interlaced_frame": false,
       "metadata": {},
       "path": "@transitions/common/fade.svg",
       "pixel_format": -1,
       "pixel_ratio": {
        "den": 1,
        "num": 1
       },
       "sample_rate": 0,
       "top_field_first": true,
       "type": "QtImageReader",
       "vcodec": "",
       "video_bit_rate": 0,
       "video_length": "108000",
       "video_stream_index": -1,
       "video_timebase": {
        "den": 30,
        "num": 1
       },
       "width": 720
      },
      "replace_image": false,
      "id": "ED9VUNOGIJ"
     },
     {
      "layer": 3000000,
      "title": "Transition",
      "type": "Mask",
      "position": 171.36666666666667,
      "start": 0,
      "end": 0.9583333333333212,
      "brightness": {
       "Points": [
        {
         "co": {
          "X": 1.0,
          "Y": 1.0
         },
         "handle_left": {
          "X": 0.5,
          "Y": 1.0
         },
         "handle_right": {
          "X": 0.5,
          "Y": 0.0
         },
         "handle_type": 0,
         "interpolation": 0
        },
        {
         "co": {
          "X": 29.0,
          "Y": -1.0
         },
         "handle_left": {
          "X": 0.5,
          "Y": 1.0
         },
         "handle_right": {
          "X": 0.5,
          "Y": 0.0
         },
         "handle_type": 0,
         "interpolation": 0
        }
       ]
      },
      "contrast": {
       "Points": [
        {
         "co": {
          "X": 1.0,
          "Y": 3.0
         },
         "handle_left": {
          "X": 0.5,
          "Y": 1.0
         },
         "handle_right": {
          "X": 0.5,
          "Y": 0.0
         },
         "handle_type": 0,
         "interpolation": 0
        },
        {
         "co": {
          "X": 29.0,
          "Y": 3.0
         },
         "handle_left": {
          "X": 0.5,
          "Y": 1.0
         },
         "handle_right": {
          "X": 0.5,
          "Y": 0.0
         },
         "handle_type": 0,
         "interpolation": 0
        }
       ]
      },
      "reader": {
       "acodec": "",
       "audio_bit_rate": 0,
       "audio_stream_index": -1,
       "audio_timebase": {
        "den": 1,
        "num": 1
       },
       "channel_layout": 4,
       "channels": 0,
       "display_ratio": {
        "den": 4,
        "num": 5
       },
       "duration": 3600.0,
       "file_size": "5832000",
       "fps": {
        "den": 1,
        "num": 30
       },
       "has_audio": false,
       "has_single_image": true,
       "has_video": true,
       "height": 576,
       "interlaced_frame": false,
       "metadata": {},
       "path": "@transitions/common/fade.svg",
       "pixel_format": -1,
       "pixel_ratio": {
        "den": 1,
        "num": 1
       },
       "sample_rate": 0,
       "top_field_first": true,
       "type": "QtImageReader",
       "vcodec": "",
       "video_bit_rate": 0,
       "video_length": "108000",
       "video_stream_index": -1,
       "video_timebase": {
        "den": 30,
        "num": 1
       },
       "width": 720
      },
      "replace_image": false,
      "id": "5VBZGSOJG5"
     },
     {
      "layer": 3000000,
      "title": "Transition",
      "type": "Mask",
      "position": 176.86666666666667,
      "start": 0,
      "end": 0.9583333333333212,
      "brightness": {
       "Points": [
        {
         "co": {
          "X": 1.0,
          "Y": -1.0
         },
         "handle_left": {
          "X": 0.5,
          "Y": 1.0
         },
         "handle_right": {
          "X": 0.5,
          "Y": 0.0
         },
         "handle_type": 0,
         "interpolation": 0
        },
        {
         "co": {
          "X": 29.0,
          "Y": 1.0
         },
         "handle_left": {
          "X": 0.5,
          "Y": 1.0
         },
         "handle_right": {
          "X": 0.5,
          "Y": 0.0
         },
         "handle_type": 0,
         "interpolation": 0
        }
       ]
      },
      "contrast": {
       "Points": [
        {
         "co": {
          "X": 1.0,
          "Y": 3.0
         },
         "handle_left": {
          "X": 0.5,
          "Y": 1.0
         },
         "handle_right": {
          "X": 0.5,
          "Y": 0.0
         },
         "handle_type": 0,
         "interpolation": 0
        },
        {
         "co": {
          "X": 29.0,
          "Y": 3.0
         },
         "handle_left": {
          "X": 0.5,
          "Y": 1.0
         },
         "handle_right": {
          "X": 0.5,
          "Y": 0.0
         },
         "handle_type": 0,
         "interpolation": 0
        }
       ]
      },
      "reader": {
       "acodec": "",
       "audio_bit_rate": 0,
       "audio_stream_index": -1,
       "audio_timebase": {
        "den": 1,
        "num": 1
       },
       "channel_layout": 4,
       "channels": 0,
       "display_ratio": {
        "den": 4,
        "num": 5
       },
       "duration": 3600.0,
       "file_size": "5832000",
       "fps": {
        "den": 1,
        "num": 30
       },
       "has_audio": false,
       "has_single_image": true,
       "has_video": true,
       "height": 576,
       "interlaced_frame": false,
       "metadata": {},
       "path": "@transitions/common/fade.svg",
       "pixel_format": -1,
       "pixel_ratio": {
        "den": 1,
        "num": 1
       },
       "sample_rate": 0,
       "top_field_first": true,
       "type": "QtImageReader",
       "vcodec": "",
       "video_bit_rate": 0,
       "video_length": "108000",
       "video_stream_index": -1,
       "video_timebase": {
        "den": 30,
        "num": 1
       },
       "width": 720
      },
      "replace_image": false,
      "id": "8IG7CIW33F"
     },
     {
      "layer": 3000000,
      "title": "Transition",
      "type": "Mask",
      "position": 178.76666666666668,
      "start": 0,
      "end": 0.9583333333333212,
      "brightness": {
       "Points": [
        {
         "co": {
          "X": 1.0,
          "Y": 1.0
         },
         "handle_left": {
          "X": 0.5,
          "Y": 1.0
         },
         "handle_right": {
          "X": 0.5,
          "Y": 0.0
         },
         "handle_type": 0,
         "interpolation": 0
        },
        {
         "co": {
          "X": 29.0,
          "Y": -1.0
         },
         "handle_left": {
          "X": 0.5,
          "Y": 1.0
         },
         "handle_right": {
          "X": 0.5,
          "Y": 0.0
         },
         "handle_type": 0,
         "interpolation": 0
        }
       ]
      },
      "contrast": {
       "Points": [
        {
         "co": {
          "X": 1.0,
          "Y": 3.0
         },
         "handle_left": {
          "X": 0.5,
          "Y": 1.0
         },
         "handle_right": {
          "X": 0.5,
          "Y": 0.0
         },
         "handle_type": 0,
         "interpolation": 0
        },
        {
         "co": {
          "X": 29.0,
          "Y": 3.0
         },
         "handle_left": {
          "X": 0.5,
          "Y": 1.0
         },
         "handle_right": {
          "X": 0.5,
          "Y": 0.0
         },
         "handle_type": 0,
         "interpolation": 0
        }
       ]
      },
      "reader": {
       "acodec": "",
       "audio_bit_rate": 0,
       "audio_stream_index": -1,
       "audio_timebase": {
        "den": 1,
        "num": 1
       },
       "channel_layout": 4,
       "channels": 0,
       "display_ratio": {
        "den": 4,
        "num": 5
       },
       "duration": 3600.0,
       "file_size": "5832000",
       "fps": {
        "den": 1,
        "num": 30
       },
       "has_audio": false,
       "has_single_image": true,
       "has_video": true,
       "height": 576,
       "interlaced_frame": false,
       "metadata": {},
       "path": "@transitions/common/fade.svg",
       "pixel_format": -1,
       "pixel_ratio": {
        "den": 1,
        "num": 1
       },
       "sample_rate": 0,
       "top_field_first": true,
       "type": "QtImageReader",
       "vcodec": "",
       "video_bit_rate": 0,
       "video_length": "108000",
       "video_stream_index": -1,
       "video_timebase": {
        "den": 30,
        "num": 1
       },
       "width": 720
      },
      "replace_image": false,
      "id": "0ROA4SH20T"
     },
     {
      "layer": 3000000,
      "title": "Transition",
      "type": "Mask",
      "position": 184.9,
      "start": 0,
      "end": 0.9583333333333212,
      "brightness": {
       "Points": [
        {
         "co": {
          "X": 1.0,
          "Y": -1.0
         },
         "handle_left": {
          "X": 0.5,
          "Y": 1.0
         },
         "handle_right": {
          "X": 0.5,
          "Y": 0.0
         },
         "handle_type": 0,
         "interpolation": 0
        },
        {
         "co": {
          "X": 29.0,
          "Y": 1.0
         },
         "handle_left": {
          "X": 0.5,
          "Y": 1.0
         },
         "handle_right": {
          "X": 0.5,
          "Y": 0.0
         },
         "handle_type": 0,
         "interpolation": 0
        }
       ]
      },
      "contrast": {
       "Points": [
        {
         "co": {
          "X": 1.0,
          "Y": 3.0
         },
         "handle_left": {
          "X": 0.5,
          "Y": 1.0
         },
         "handle_right": {
          "X": 0.5,
          "Y": 0.0
         },
         "handle_type": 0,
         "interpolation": 0
        },
        {
         "co": {
          "X": 29.0,
          "Y": 3.0
         },
         "handle_left": {
          "X": 0.5,
          "Y": 1.0
         },
         "handle_right": {
          "X": 0.5,
          "Y": 0.0
         },
         "handle_type": 0,
         "interpolation": 0
        }
       ]
      },
      "reader": {
       "acodec": "",
       "audio_bit_rate": 0,
       "audio_stream_index": -1,
       "audio_timebase": {
        "den": 1,
        "num": 1
       },
       "channel_layout": 4,
       "channels": 0,
       "display_ratio": {
        "den": 4,
        "num": 5
       },
       "duration": 3600.0,
       "file_size": "5832000",
       "fps": {
        "den": 1,
        "num": 30
       },
       "has_audio": false,
       "has_single_image": true,
       "has_video": true,
       "height": 576,
       "interlaced_frame": false,
       "metadata": {},
       "path": "@transitions/common/fade.svg",
       "pixel_format": -1,
       "pixel_ratio": {
        "den": 1,
        "num": 1
       },
       "sample_rate": 0,
       "top_field_first": true,
       "type": "QtImageReader",
       "vcodec": "",
       "video_bit_rate": 0,
       "video_length": "108000",
       "video_stream_index": -1,
       "video_timebase": {
        "den": 30,
        "num": 1
       },
       "width": 720
      },
      "replace_image": false,
      "id": "EZA86GZMTM"
     },
     {
      "id": "F4A4DQ7U5X",
      "layer": 1000000,
      "title": "Transition",
      "type": "Mask",
      "position": 185.86666666666667,
      "start": 0,
      "end": 0.9000000000000057,
      "brightness": {
       "Points": [
        {
         "co": {
          "X": 1.0,
          "Y": 1.0
         },
         "handle_left": {
          "X": 0.5,
          "Y": 1.0
         },
         "handle_right": {
          "X": 0.5,
          "Y": 0.0
         },
         "handle_type": 0,
         "interpolation": 0
        },
        {
         "co": {
          "X": 28.0,
          "Y": -1.0
         },
         "handle_left": {
          "X": 0.5,
          "Y": 1.0
         },
         "handle_right": {
          "X": 0.5,
          "Y": 0.0
         },
         "handle_type": 0,
         "interpolation": 0
        }
       ]
      },
      "contrast": {
       "Points": [
        {
         "co": {
          "X": 1.0,
          "Y": 3.0
         },
         "handle_left": {
          "X": 0.5,
          "Y": 1.0
         },
         "handle_right": {
          "X": 0.5,
          "Y": 0.0
         },
         "handle_type": 0,
         "interpolation": 0
        }
       ]
      },
      "reader": {
       "acodec": "",
       "audio_bit_rate": 0,
       "audio_stream_index": -1,
       "audio_timebase": {
        "den": 1,
        "num": 1
       },
       "channel_layout": 4,
       "channels": 0,
       "display_ratio": {
        "den": 4,
        "num": 5
       },
       "duration": 3600.0,
       "file_size": "5832000",
       "fps": {
        "den": 1,
        "num": 30
       },
       "has_audio": false,
       "has_single_image": true,
       "has_video": true,
       "height": 576,
       "interlaced_frame": false,
       "metadata": {},
       "path": "@transitions/common/fade.svg",
       "pixel_format": -1,
       "pixel_ratio": {
        "den": 1,
        "num": 1
       },
       "sample_rate": 0,
       "top_field_first": true,
       "type": "QtImageReader",
       "vcodec": "",
       "video_bit_rate": 0,
       "video_length": "108000",
       "video_stream_index": -1,
       "video_timebase": {
        "den": 30,
        "num": 1
       },
       "width": 720
      },
      "replace_image": false
     },
     {
      "layer": 4000000,
      "title": "Transition",
      "type": "Mask",
      "position": 184.9,
      "start": 0,
      "end": 0.9583333333333212,
      "brightness": {
       "Points": [
        {
         "co": {
          "X": 1.0,
          "Y": -1.0
         },
         "handle_left": {
          "X": 0.5,
          "Y": 1.0
         },
         "handle_right": {
          "X": 0.5,
          "Y": 0.0
         },
         "handle_type": 0,
         "interpolation": 0
        },
        {
         "co": {
          "X": 29.0,
          "Y": 1.0
         },
         "handle_left": {
          "X": 0.5,
          "Y": 1.0
         },
         "handle_right": {
          "X": 0.5,
          "Y": 0.0
         },
         "handle_type": 0,
         "interpolation": 0
        }
       ]
      },
      "contrast": {
       "Points": [
        {
         "co": {
          "X": 1.0,
          "Y": 3.0
         },
         "handle_left": {
          "X": 0.5,
          "Y": 1.0
         },
         "handle_right": {
          "X": 0.5,
          "Y": 0.0
         },
         "handle_type": 0,
         "interpolation": 0
        },
        {
         "co": {
          "X": 29.0,
          "Y": 3.0
         },
         "handle_left": {
          "X": 0.5,
          "Y": 1.0
         },
         "handle_right": {
          "X": 0.5,
          "Y": 0.0
         },
         "handle_type": 0,
         "interpolation": 0
        }
       ]
      },
      "reader": {
       "acodec": "",
       "audio_bit_rate": 0,
       "audio_stream_index": -1,
       "audio_timebase": {
        "den": 1,
        "num": 1
       },
       "channel_layout": 4,
       "channels": 0,
       "display_ratio": {
        "den": 4,
        "num": 5
       },
       "duration": 3600.0,
       "file_size": "5832000",
       "fps": {
        "den": 1,
        "num": 30
       },
       "has_audio": false,
       "has_single_image": true,
       "has_video": true,
       "height": 576,
       "interlaced_frame": false,
       "metadata": {},
       "path": "@transitions/common/fade.svg",
       "pixel_format": -1,
       "pixel_ratio": {
        "den": 1,
        "num": 1
       },
       "sample_rate": 0,
       "top_field_first": true,
       "type": "QtImageReader",
       "vcodec": "",
       "video_bit_rate": 0,
       "video_length": "108000",
       "video_stream_index": -1,
       "video_timebase": {
        "den": 30,
        "num": 1
       },
       "width": 720
      },
      "replace_image": false,
      "id": "2ZYRXRS5AW"
     },
     {
      "layer": 4000000,
      "title": "Transition",
      "type": "Mask",
      "position": 186.63333333333333,
      "start": 0,
      "end": 0.9583333333333212,
      "brightness": {
       "Points": [
        {
         "co": {
          "X": 1.0,
          "Y": 1.0
         },
         "handle_left": {
          "X": 0.5,
          "Y": 1.0
         },
         "handle_right": {
          "X": 0.5,
          "Y": 0.0
         },
         "handle_type": 0,
         "interpolation": 0
        },
        {
         "co": {
          "X": 29.0,
          "Y": -1.0
         },
         "handle_left": {
          "X": 0.5,
          "Y": 1.0
         },
         "handle_right": {
          "X": 0.5,
          "Y": 0.0
         },
         "handle_type": 0,
         "interpolation": 0
        }
       ]
      },
      "contrast": {
       "Points": [
        {
         "co": {
          "X": 1.0,
          "Y": 3.0
         },
         "handle_left": {
          "X": 0.5,
          "Y": 1.0
         },
         "handle_right": {
          "X": 0.5,
          "Y": 0.0
         },
         "handle_type": 0,
         "interpolation": 0
        },
        {
         "co": {
          "X": 29.0,
          "Y": 3.0
         },
         "handle_left": {
          "X": 0.5,
          "Y": 1.0
         },
         "handle_right": {
          "X": 0.5,
          "Y": 0.0
         },
         "handle_type": 0,
         "interpolation": 0
        }
       ]
      },
      "reader": {
       "acodec": "",
       "audio_bit_rate": 0,
       "audio_stream_index": -1,
       "audio_timebase": {
        "den": 1,
        "num": 1
       },
       "channel_layout": 4,
       "channels": 0,
       "display_ratio": {
        "den": 4,
        "num": 5
       },
       "duration": 3600.0,
       "file_size": "5832000",
       "fps": {
        "den": 1,
        "num": 30
       },
       "has_audio": false,
       "has_single_image": true,
       "has_video": true,
       "height": 576,
       "interlaced_frame": false,
       "metadata": {},
       "path": "@transitions/common/fade.svg",
       "pixel_format": -1,
       "pixel_ratio": {
        "den": 1,
        "num": 1
       },
       "sample_rate": 0,
       "top_field_first": true,
       "type": "QtImageReader",
       "vcodec": "",
       "video_bit_rate": 0,
       "video_length": "108000",
       "video_stream_index": -1,
       "video_timebase": {
        "den": 30,
        "num": 1
       },
       "width": 720
      },
      "replace_image": false,
      "id": "Q9UGMHENC6"
     },
     {
      "layer": 3000000,
      "title": "Transition",
      "type": "Mask",
      "position": 191.86666666666667,
      "start": 0,
      "end": 0.9583333333333212,
      "brightness": {
       "Points": [
        {
         "co": {
          "X": 1.0,
          "Y": 1.0
         },
         "handle_left": {
          "X": 0.5,
          "Y": 1.0
         },
         "handle_right": {
          "X": 0.5,
          "Y": 0.0
         },
         "handle_type": 0,
         "interpolation": 0
        },
        {
         "co": {
          "X": 29.0,
          "Y": -1.0
         },
         "handle_left": {
          "X": 0.5,
          "Y": 1.0
         },
         "handle_right": {
          "X": 0.5,
          "Y": 0.0
         },
         "handle_type": 0,
         "interpolation": 0
        }
       ]
      },
      "contrast": {
       "Points": [
        {
         "co": {
          "X": 1.0,
          "Y": 3.0
         },
         "handle_left": {
          "X": 0.5,
          "Y": 1.0
         },
         "handle_right": {
          "X": 0.5,
          "Y": 0.0
         },
         "handle_type": 0,
         "interpolation": 0
        },
        {
         "co": {
          "X": 29.0,
          "Y": 3.0
         },
         "handle_left": {
          "X": 0.5,
          "Y": 1.0
         },
         "handle_right": {
          "X": 0.5,
          "Y": 0.0
         },
         "handle_type": 0,
         "interpolation": 0
        }
       ]
      },
      "reader": {
       "acodec": "",
       "audio_bit_rate": 0,
       "audio_stream_index": -1,
       "audio_timebase": {
        "den": 1,
        "num": 1
       },
       "channel_layout": 4,
       "channels": 0,
       "display_ratio": {
        "den": 4,
        "num": 5
       },
       "duration": 3600.0,
       "file_size": "5832000",
       "fps": {
        "den": 1,
        "num": 30
       },
       "has_audio": false,
       "has_single_image": true,
       "has_video": true,
       "height": 576,
       "interlaced_frame": false,
       "metadata": {},
       "path": "@transitions/common/fade.svg",
       "pixel_format": -1,
       "pixel_ratio": {
        "den": 1,
        "num": 1
       },
       "sample_rate": 0,
       "top_field_first": true,
       "type": "QtImageReader",
       "vcodec": "",
       "video_bit_rate": 0,
       "video_length": "108000",
       "video_stream_index": -1,
       "video_timebase": {
        "den": 30,
        "num": 1
       },
       "width": 720
      },
      "replace_image": false,
      "id": "G9LEMCYT5Q"
     },
     {
      "layer": 3000000,
      "title": "Transition",
      "type": "Mask",
      "position": 206.76666666666668,
      "start": 0,
      "end": 0.9583333333333212,
      "brightness": {
       "Points": [
        {
         "co": {
          "X": 1.0,
          "Y": -1.0
         },
         "handle_left": {
          "X": 0.5,
          "Y": 1.0
         },
         "handle_right": {
          "X": 0.5,
          "Y": 0.0
         },
         "handle_type": 0,
         "interpolation": 0
        },
        {
         "co": {
          "X": 29.0,
          "Y": 1.0
         },
         "handle_left": {
          "X": 0.5,
          "Y": 1.0
         },
         "handle_right": {
          "X": 0.5,
          "Y": 0.0
         },
         "handle_type": 0,
         "interpolation": 0
        }
       ]
      },
      "contrast": {
       "Points": [
        {
         "co": {
          "X": 1.0,
          "Y": 3.0
         },
         "handle_left": {
          "X": 0.5,
          "Y": 1.0
         },
         "handle_right": {
          "X": 0.5,
          "Y": 0.0
         },
         "handle_type": 0,
         "interpolation": 0
        },
        {
         "co": {
          "X": 29.0,
          "Y": 3.0
         },
         "handle_left": {
          "X": 0.5,
          "Y": 1.0
         },
         "handle_right": {
          "X": 0.5,
          "Y": 0.0
         },
         "handle_type": 0,
         "interpolation": 0
        }
       ]
      },
      "reader": {
       "acodec": "",
       "audio_bit_rate": 0,
       "audio_stream_index": -1,
       "audio_timebase": {
        "den": 1,
        "num": 1
       },
       "channel_layout": 4,
       "channels": 0,
       "display_ratio": {
        "den": 4,
        "num": 5
       },
       "duration": 3600.0,
       "file_size": "5832000",
       "fps": {
        "den": 1,
        "num": 30
       },
       "has_audio": false,
       "has_single_image": true,
       "has_video": true,
       "height": 576,
       "interlaced_frame": false,
       "metadata": {},
       "path": "@transitions/common/fade.svg",
       "pixel_format": -1,
       "pixel_ratio": {
        "den": 1,
        "num": 1
       },
       "sample_rate": 0,
       "top_field_first": true,
       "type": "QtImageReader",
       "vcodec": "",
       "video_bit_rate": 0,
       "video_length": "108000",
       "video_stream_index": -1,
       "video_timebase": {
        "den": 30,
        "num": 1
       },
       "width": 720
      },
      "replace_image": false,
      "id": "69Y42ETE8B"
     },
     {
      "layer": 3000000,
      "title": "Transition",
      "type": "Mask",
      "position": 199.83333333333334,
      "start": 0,
      "end": 0.9583333333333212,
      "brightness": {
       "Points": [
        {
         "co": {
          "X": 1.0,
          "Y": 1.0
         },
         "handle_left": {
          "X": 0.5,
          "Y": 1.0
         },
         "handle_right": {
          "X": 0.5,
          "Y": 0.0
         },
         "handle_type": 0,
         "interpolation": 0
        },
        {
         "co": {
          "X": 29.0,
          "Y": -1.0
         },
         "handle_left": {
          "X": 0.5,
          "Y": 1.0
         },
         "handle_right": {
          "X": 0.5,
          "Y": 0.0
         },
         "handle_type": 0,
         "interpolation": 0
        }
       ]
      },
      "contrast": {
       "Points": [
        {
         "co": {
          "X": 1.0,
          "Y": 3.0
         },
         "handle_left": {
          "X": 0.5,
          "Y": 1.0
         },
         "handle_right": {
          "X": 0.5,
          "Y": 0.0
         },
         "handle_type": 0,
         "interpolation": 0
        },
        {
         "co": {
          "X": 29.0,
          "Y": 3.0
         },
         "handle_left": {
          "X": 0.5,
          "Y": 1.0
         },
         "handle_right": {
          "X": 0.5,
          "Y": 0.0
         },
         "handle_type": 0,
         "interpolation": 0
        }
       ]
      },
      "reader": {
       "acodec": "",
       "audio_bit_rate": 0,
       "audio_stream_index": -1,
       "audio_timebase": {
        "den": 1,
        "num": 1
       },
       "channel_layout": 4,
       "channels": 0,
       "display_ratio": {
        "den": 4,
        "num": 5
       },
       "duration": 3600.0,
       "file_size": "5832000",
       "fps": {
        "den": 1,
        "num": 30
       },
       "has_audio": false,
       "has_single_image": true,
       "has_video": true,
       "height": 576,
       "interlaced_frame": false,
       "metadata": {},
       "path": "@transitions/common/fade.svg",
       "pixel_format": -1,
       "pixel_ratio": {
        "den": 1,
        "num": 1
       },
       "sample_rate": 0,
       "top_field_first": true,
       "type": "QtImageReader",
       "vcodec": "",
       "video_bit_rate": 0,
       "video_length": "108000",
       "video_stream_index": -1,
       "video_timebase": {
        "den": 30,
        "num": 1
       },
       "width": 720
      },
      "replace_image": false,
      "id": "LZDCN1H4RV"
     },
     {
      "layer": 3000000,
      "title": "Transition",
      "type": "Mask",
      "position": 209.83333333333334,
      "start": 0,
      "end": 0.9583333333333212,
      "brightness": {
       "Points": [
        {
         "co": {
          "X": 1.0,
          "Y": 1.0
         },
         "handle_left": {
          "X": 0.5,
          "Y": 1.0
         },
         "handle_right": {
          "X": 0.5,
          "Y": 0.0
         },
         "handle_type": 0,
         "interpolation": 0
        },
        {
         "co": {
          "X": 29.0,
          "Y": -1.0
         },
         "handle_left": {
          "X": 0.5,
          "Y": 1.0
         },
         "handle_right": {
          "X": 0.5,
          "Y": 0.0
         },
         "handle_type": 0,
         "interpolation": 0
        }
       ]
      },
      "contrast": {
       "Points": [
        {
         "co": {
          "X": 1.0,
          "Y": 3.0
         },
         "handle_left": {
          "X": 0.5,
          "Y": 1.0
         },
         "handle_right": {
          "X": 0.5,
          "Y": 0.0
         },
         "handle_type": 0,
         "interpolation": 0
        },
        {
         "co": {
          "X": 29.0,
          "Y": 3.0
         },
         "handle_left": {
          "X": 0.5,
          "Y": 1.0
         },
         "handle_right": {
          "X": 0.5,
          "Y": 0.0
         },
         "handle_type": 0,
         "interpolation": 0
        }
       ]
      },
      "reader": {
       "acodec": "",
       "audio_bit_rate": 0,
       "audio_stream_index": -1,
       "audio_timebase": {
        "den": 1,
        "num": 1
       },
       "channel_layout": 4,
       "channels": 0,
       "display_ratio": {
        "den": 4,
        "num": 5
       },
       "duration": 3600.0,
       "file_size": "5832000",
       "fps": {
        "den": 1,
        "num": 30
       },
       "has_audio": false,
       "has_single_image": true,
       "has_video": true,
       "height": 576,
       "interlaced_frame": false,
       "metadata": {},
       "path": "@transitions/common/fade.svg",
       "pixel_format": -1,
       "pixel_ratio": {
        "den": 1,
        "num": 1
       },
       "sample_rate": 0,
       "top_field_first": true,
       "type": "QtImageReader",
       "vcodec": "",
       "video_bit_rate": 0,
       "video_length": "108000",
       "video_stream_index": -1,
       "video_timebase": {
        "den": 30,
        "num": 1
       },
       "width": 720
      },
      "replace_image": false,
      "id": "58VK2RHQN2"
     },
     {
      "layer": 4000000,
      "title": "Transition",
      "type": "Mask",
      "position": 213.86666666666667,
      "start": 0,
      "end": 0.9583333333333212,
      "brightness": {
       "Points": [
        {
         "co": {
          "X": 1.0,
          "Y": -1.0
         },
         "handle_left": {
          "X": 0.5,
          "Y": 1.0
         },
         "handle_right": {
          "X": 0.5,
          "Y": 0.0
         },
         "handle_type": 0,
         "interpolation": 0
        },
        {
         "co": {
          "X": 29.0,
          "Y": 1.0
         },
         "handle_left": {
          "X": 0.5,
          "Y": 1.0
         },
         "handle_right": {
          "X": 0.5,
          "Y": 0.0
         },
         "handle_type": 0,
         "interpolation": 0
        }
       ]
      },
      "contrast": {
       "Points": [
        {
         "co": {
          "X": 1.0,
          "Y": 3.0
         },
         "handle_left": {
          "X": 0.5,
          "Y": 1.0
         },
         "handle_right": {
          "X": 0.5,
          "Y": 0.0
         },
         "handle_type": 0,
         "interpolation": 0
        },
        {
         "co": {
          "X": 29.0,
          "Y": 3.0
         },
         "handle_left": {
          "X": 0.5,
          "Y": 1.0
         },
         "handle_right": {
          "X": 0.5,
          "Y": 0.0
         },
         "handle_type": 0,
         "interpolation": 0
        }
       ]
      },
      "reader": {
       "acodec": "",
       "audio_bit_rate": 0,
       "audio_stream_index": -1,
       "audio_timebase": {
        "den": 1,
        "num": 1
       },
       "channel_layout": 4,
       "channels": 0,
       "display_ratio": {
        "den": 4,
        "num": 5
       },
       "duration": 3600.0,
       "file_size": "5832000",
       "fps": {
        "den": 1,
        "num": 30
       },
       "has_audio": false,
       "has_single_image": true,
       "has_video": true,
       "height": 576,
       "interlaced_frame": false,
       "metadata": {},
       "path": "@transitions/common/fade.svg",
       "pixel_format": -1,
       "pixel_ratio": {
        "den": 1,
        "num": 1
       },
       "sample_rate": 0,
       "top_field_first": true,
       "type": "QtImageReader",
       "vcodec": "",
       "video_bit_rate": 0,
       "video_length": "108000",
       "video_stream_index": -1,
       "video_timebase": {
        "den": 30,
        "num": 1
       },
       "width": 720
      },
      "replace_image": false,
      "id": "KWJRN4TR28"
     },
     {
      "layer": 3000000,
      "title": "Transition",
      "type": "Mask",
      "position": 213.86666666666667,
      "start": 0,
      "end": 0.9583333333333212,
      "brightness": {
       "Points": [
        {
         "co": {
          "X": 1.0,
          "Y": -1.0
         },
         "handle_left": {
          "X": 0.5,
          "Y": 1.0
         },
         "handle_right": {
          "X": 0.5,
          "Y": 0.0
         },
         "handle_type": 0,
         "interpolation": 0
        },
        {
         "co": {
          "X": 29.0,
          "Y": 1.0
         },
         "handle_left": {
          "X": 0.5,
          "Y": 1.0
         },
         "handle_right": {
          "X": 0.5,
          "Y": 0.0
         },
         "handle_type": 0,
         "interpolation": 0
        }
       ]
      },
      "contrast": {
       "Points": [
        {
         "co": {
          "X": 1.0,
          "Y": 3.0
         },
         "handle_left": {
          "X": 0.5,
          "Y": 1.0
         },
         "handle_right": {
          "X": 0.5,
          "Y": 0.0
         },
         "handle_type": 0,
         "interpolation": 0
        },
        {
         "co": {
          "X": 29.0,
          "Y": 3.0
         },
         "handle_left": {
          "X": 0.5,
          "Y": 1.0
         },
         "handle_right": {
          "X": 0.5,
          "Y": 0.0
         },
         "handle_type": 0,
         "interpolation": 0
        }
       ]
      },
      "reader": {
       "acodec": "",
       "audio_bit_rate": 0,
       "audio_stream_index": -1,
       "audio_timebase": {
        "den": 1,
        "num": 1
       },
       "channel_layout": 4,
       "channels": 0,
       "display_ratio": {
        "den": 4,
        "num": 5
       },
       "duration": 3600.0,
       "file_size": "5832000",
       "fps": {
        "den": 1,
        "num": 30
       },
       "has_audio": false,
       "has_single_image": true,
       "has_video": true,
       "height": 576,
       "interlaced_frame": false,
       "metadata": {},
       "path": "@transitions/common/fade.svg",
       "pixel_format": -1,
       "pixel_ratio": {
        "den": 1,
        "num": 1
       },
       "sample_rate": 0,
       "top_field_first": true,
       "type": "QtImageReader",
       "vcodec": "",
       "video_bit_rate": 0,
       "video_length": "108000",
       "video_stream_index": -1,
       "video_timebase": {
        "den": 30,
        "num": 1
       },
       "width": 720
      },
      "replace_image": false,
      "id": "29SVX90QJC"
     },
     {
      "layer": 3000000,
      "title": "Transition",
      "type": "Mask",
      "position": 216.8,
      "start": 0,
      "end": 0.9583333333333212,
      "brightness": {
       "Points": [
        {
         "co": {
          "X": 1.0,
          "Y": 1.0
         },
         "handle_left": {
          "X": 0.5,
          "Y": 1.0
         },
         "handle_right": {
          "X": 0.5,
          "Y": 0.0
         },
         "handle_type": 0,
         "interpolation": 0
        },
        {
         "co": {
          "X": 29.0,
          "Y": -1.0
         },
         "handle_left": {
          "X": 0.5,
          "Y": 1.0
         },
         "handle_right": {
          "X": 0.5,
          "Y": 0.0
         },
         "handle_type": 0,
         "interpolation": 0
        }
       ]
      },
      "contrast": {
       "Points": [
        {
         "co": {
          "X": 1.0,
          "Y": 3.0
         },
         "handle_left": {
          "X": 0.5,
          "Y": 1.0
         },
         "handle_right": {
          "X": 0.5,
          "Y": 0.0
         },
         "handle_type": 0,
         "interpolation": 0
        },
        {
         "co": {
          "X": 29.0,
          "Y": 3.0
         },
         "handle_left": {
          "X": 0.5,
          "Y": 1.0
         },
         "handle_right": {
          "X": 0.5,
          "Y": 0.0
         },
         "handle_type": 0,
         "interpolation": 0
        }
       ]
      },
      "reader": {
       "acodec": "",
       "audio_bit_rate": 0,
       "audio_stream_index": -1,
       "audio_timebase": {
        "den": 1,
        "num": 1
       },
       "channel_layout": 4,
       "channels": 0,
       "display_ratio": {
        "den": 4,
        "num": 5
       },
       "duration": 3600.0,
       "file_size": "5832000",
       "fps": {
        "den": 1,
        "num": 30
       },
       "has_audio": false,
       "has_single_image": true,
       "has_video": true,
       "height": 576,
       "interlaced_frame": false,
       "metadata": {},
       "path": "@transitions/common/fade.svg",
       "pixel_format": -1,
       "pixel_ratio": {
        "den": 1,
        "num": 1
       },
       "sample_rate": 0,
       "top_field_first": true,
       "type": "QtImageReader",
       "vcodec": "",
       "video_bit_rate": 0,
       "video_length": "108000",
       "video_stream_index": -1,
       "video_timebase": {
        "den": 30,
        "num": 1
       },
       "width": 720
      },
      "replace_image": false,
      "id": "QFKNEP6QJR"
     },
     {
      "layer": 3000000,
      "title": "Transition",
      "type": "Mask",
      "position": 223.9,
      "start": 0,
      "end": 0.9583333333333212,
      "brightness": {
       "Points": [
        {
         "co": {
          "X": 1.0,
          "Y": -1.0
         },
         "handle_left": {
          "X": 0.5,
          "Y": 1.0
         },
         "handle_right": {
          "X": 0.5,
          "Y": 0.0
         },
         "handle_type": 0,
         "interpolation": 0
        },
        {
         "co": {
          "X": 29.0,
          "Y": 1.0
         },
         "handle_left": {
          "X": 0.5,
          "Y": 1.0
         },
         "handle_right": {
          "X": 0.5,
          "Y": 0.0
         },
         "handle_type": 0,
         "interpolation": 0
        }
       ]
      },
      "contrast": {
       "Points": [
        {
         "co": {
          "X": 1.0,
          "Y": 3.0
         },
         "handle_left": {
          "X": 0.5,
          "Y": 1.0
         },
         "handle_right": {
          "X": 0.5,
          "Y": 0.0
         },
         "handle_type": 0,
         "interpolation": 0
        },
        {
         "co": {
          "X": 29.0,
          "Y": 3.0
         },
         "handle_left": {
          "X": 0.5,
          "Y": 1.0
         },
         "handle_right": {
          "X": 0.5,
          "Y": 0.0
         },
         "handle_type": 0,
         "interpolation": 0
        }
       ]
      },
      "reader": {
       "acodec": "",
       "audio_bit_rate": 0,
       "audio_stream_index": -1,
       "audio_timebase": {
        "den": 1,
        "num": 1
       },
       "channel_layout": 4,
       "channels": 0,
       "display_ratio": {
        "den": 4,
        "num": 5
       },
       "duration": 3600.0,
       "file_size": "5832000",
       "fps": {
        "den": 1,
        "num": 30
       },
       "has_audio": false,
       "has_single_image": true,
       "has_video": true,
       "height": 576,
       "interlaced_frame": false,
       "metadata": {},
       "path": "@transitions/common/fade.svg",
       "pixel_format": -1,
       "pixel_ratio": {
        "den": 1,
        "num": 1
       },
       "sample_rate": 0,
       "top_field_first": true,
       "type": "QtImageReader",
       "vcodec": "",
       "video_bit_rate": 0,
       "video_length": "108000",
       "video_stream_index": -1,
       "video_timebase": {
        "den": 30,
        "num": 1
       },
       "width": 720
      },
      "replace_image": false,
      "id": "KN6FJL1V3A"
     },
     {
      "id": "4AUCOQ0YNI",
      "layer": 1000000,
      "title": "Transition",
      "type": "Mask",
      "position": 214.36666666666667,
      "start": 0,
      "end": 0.9000000000000057,
      "brightness": {
       "Points": [
        {
         "co": {
          "X": 1.0,
          "Y": 1.0
         },
         "handle_left": {
          "X": 0.5,
          "Y": 1.0
         },
         "handle_right": {
          "X": 0.5,
          "Y": 0.0
         },
         "handle_type": 0,
         "interpolation": 0
        },
        {
         "co": {
          "X": 28.0,
          "Y": -1.0
         },
         "handle_left": {
          "X": 0.5,
          "Y": 1.0
         },
         "handle_right": {
          "X": 0.5,
          "Y": 0.0
         },
         "handle_type": 0,
         "interpolation": 0
        }
       ]
      },
      "contrast": {
       "Points": [
        {
         "co": {
          "X": 1.0,
          "Y": 3.0
         },
         "handle_left": {
          "X": 0.5,
          "Y": 1.0
         },
         "handle_right": {
          "X": 0.5,
          "Y": 0.0
         },
         "handle_type": 0,
         "interpolation": 0
        }
       ]
      },
      "reader": {
       "acodec": "",
       "audio_bit_rate": 0,
       "audio_stream_index": -1,
       "audio_timebase": {
        "den": 1,
        "num": 1
       },
       "channel_layout": 4,
       "channels": 0,
       "display_ratio": {
        "den": 4,
        "num": 5
       },
       "duration": 3600.0,
       "file_size": "5832000",
       "fps": {
        "den": 1,
        "num": 30
       },
       "has_audio": false,
       "has_single_image": true,
       "has_video": true,
       "height": 576,
       "interlaced_frame": false,
       "metadata": {},
       "path": "@transitions/common/fade.svg",
       "pixel_format": -1,
       "pixel_ratio": {
        "den": 1,
        "num": 1
       },
       "sample_rate": 0,
       "top_field_first": true,
       "type": "QtImageReader",
       "vcodec": "",
       "video_bit_rate": 0,
       "video_length": "108000",
       "video_stream_index": -1,
       "video_timebase": {
        "den": 30,
        "num": 1
       },
       "width": 720
      },
      "replace_image": false
     },
     {
      "id": "F0RIV30JL4",
      "layer": 1000000,
      "title": "Transition",
      "type": "Mask",
      "position": 225.93333333333334,
      "start": 0,
      "end": 1.8666666666666458,
      "brightness": {
       "Points": [
        {
         "co": {
          "X": 1.0,
          "Y": 1.0
         },
         "handle_left": {
          "X": 0.5,
          "Y": 1.0
         },
         "handle_right": {
          "X": 0.5,
          "Y": 0.0
         },
         "handle_type": 0,
         "interpolation": 0
        },
        {
         "co": {
          "X": 57.0,
          "Y": -1.0
         },
         "handle_left": {
          "X": 0.5,
          "Y": 1.0
         },
         "handle_right": {
          "X": 0.5,
          "Y": 0.0
         },
         "handle_type": 0,
         "interpolation": 0
        }
       ]
      },
      "contrast": {
       "Points": [
        {
         "co": {
          "X": 1.0,
          "Y": 3.0
         },
         "handle_left": {
          "X": 0.5,
          "Y": 1.0
         },
         "handle_right": {
          "X": 0.5,
          "Y": 0.0
         },
         "handle_type": 0,
         "interpolation": 0
        }
       ]
      },
      "reader": {
       "acodec": "",
       "audio_bit_rate": 0,
       "audio_stream_index": -1,
       "audio_timebase": {
        "den": 1,
        "num": 1
       },
       "channel_layout": 4,
       "channels": 0,
       "display_ratio": {
        "den": 4,
        "num": 5
       },
       "duration": 3600.0,
       "file_size": "5832000",
       "fps": {
        "den": 1,
        "num": 30
       },
       "has_audio": false,
       "has_single_image": true,
       "has_video": true,
       "height": 576,
       "interlaced_frame": false,
       "metadata": {},
       "path": "@transitions/common/fade.svg",
       "pixel_format": -1,
       "pixel_ratio": {
        "den": 1,
        "num": 1
       },
       "sample_rate": 0,
       "top_field_first": true,
       "type": "QtImageReader",
       "vcodec": "",
       "video_bit_rate": 0,
       "video_length": "108000",
       "video_stream_index": -1,
       "video_timebase": {
        "den": 30,
        "num": 1
       },
       "width": 720
      },
      "replace_image": false
     },
     {
      "layer": 3000000,
      "title": "Transition",
      "type": "Mask",
      "position": 197.1,
      "start": 0,
      "end": 0.9583333333333212,
      "brightness": {
       "Points": [
        {
         "co": {
          "X": 1.0,
          "Y": -1.0
         },
         "handle_left": {
          "X": 0.5,
          "Y": 1.0
         },
         "handle_right": {
          "X": 0.5,
          "Y": 0.0
         },
         "handle_type": 0,
         "interpolation": 0
        },
        {
         "co": {
          "X": 29.0,
          "Y": 1.0
         },
         "handle_left": {
          "X": 0.5,
          "Y": 1.0
         },
         "handle_right": {
          "X": 0.5,
          "Y": 0.0
         },
         "handle_type": 0,
         "interpolation": 0
        }
       ]
      },
      "contrast": {
       "Points": [
        {
         "co": {
          "X": 1.0,
          "Y": 3.0
         },
         "handle_left": {
          "X": 0.5,
          "Y": 1.0
         },
         "handle_right": {
          "X": 0.5,
          "Y": 0.0
         },
         "handle_type": 0,
         "interpolation": 0
        },
        {
         "co": {
          "X": 29.0,
          "Y": 3.0
         },
         "handle_left": {
          "X": 0.5,
          "Y": 1.0
         },
         "handle_right": {
          "X": 0.5,
          "Y": 0.0
         },
         "handle_type": 0,
         "interpolation": 0
        }
       ]
      },
      "reader": {
       "acodec": "",
       "audio_bit_rate": 0,
       "audio_stream_index": -1,
       "audio_timebase": {
        "den": 1,
        "num": 1
       },
       "channel_layout": 4,
       "channels": 0,
       "display_ratio": {
        "den": 4,
        "num": 5
       },
       "duration": 3600.0,
       "file_size": "5832000",
       "fps": {
        "den": 1,
        "num": 30
       },
       "has_audio": false,
       "has_single_image": true,
       "has_video": true,
       "height": 576,
       "interlaced_frame": false,
       "metadata": {},
       "path": "@transitions/common/fade.svg",
       "pixel_format": -1,
       "pixel_ratio": {
        "den": 1,
        "num": 1
       },
       "sample_rate": 0,
       "top_field_first": true,
       "type": "QtImageReader",
       "vcodec": "",
       "video_bit_rate": 0,
       "video_length": "108000",
       "video_stream_index": -1,
       "video_timebase": {
        "den": 30,
        "num": 1
       },
       "width": 720
      },
      "replace_image": false,
      "id": "WEB2RAE0H3"
     },
     {
      "layer": 2000000,
      "title": "Transition",
      "type": "Mask",
      "position": 228.73333333333332,
      "start": 0,
      "end": 0.9583333333333212,
      "brightness": {
       "Points": [
        {
         "co": {
          "X": 1.0,
          "Y": 1.0
         },
         "handle_left": {
          "X": 0.5,
          "Y": 1.0
         },
         "handle_right": {
          "X": 0.5,
          "Y": 0.0
         },
         "handle_type": 0,
         "interpolation": 0
        },
        {
         "co": {
          "X": 29.0,
          "Y": -1.0
         },
         "handle_left": {
          "X": 0.5,
          "Y": 1.0
         },
         "handle_right": {
          "X": 0.5,
          "Y": 0.0
         },
         "handle_type": 0,
         "interpolation": 0
        }
       ]
      },
      "contrast": {
       "Points": [
        {
         "co": {
          "X": 1.0,
          "Y": 3.0
         },
         "handle_left": {
          "X": 0.5,
          "Y": 1.0
         },
         "handle_right": {
          "X": 0.5,
          "Y": 0.0
         },
         "handle_type": 0,
         "interpolation": 0
        },
        {
         "co": {
          "X": 29.0,
          "Y": 3.0
         },
         "handle_left": {
          "X": 0.5,
          "Y": 1.0
         },
         "handle_right": {
          "X": 0.5,
          "Y": 0.0
         },
         "handle_type": 0,
         "interpolation": 0
        }
       ]
      },
      "reader": {
       "acodec": "",
       "audio_bit_rate": 0,
       "audio_stream_index": -1,
       "audio_timebase": {
        "den": 1,
        "num": 1
       },
       "channel_layout": 4,
       "channels": 0,
       "display_ratio": {
        "den": 4,
        "num": 5
       },
       "duration": 3600.0,
       "file_size": "5832000",
       "fps": {
        "den": 1,
        "num": 30
       },
       "has_audio": false,
       "has_single_image": true,
       "has_video": true,
       "height": 576,
       "interlaced_frame": false,
       "metadata": {},
       "path": "@transitions/common/fade.svg",
       "pixel_format": -1,
       "pixel_ratio": {
        "den": 1,
        "num": 1
       },
       "sample_rate": 0,
       "top_field_first": true,
       "type": "QtImageReader",
       "vcodec": "",
       "video_bit_rate": 0,
       "video_length": "108000",
       "video_stream_index": -1,
       "video_timebase": {
        "den": 30,
        "num": 1
       },
       "width": 720
      },
      "replace_image": false,
      "id": "AYWJNQ9Z2M"
     },
     {
      "layer": 2000000,
      "title": "Transition",
      "type": "Mask",
      "position": 241.23333333333332,
      "start": 0,
      "end": 0.9583333333333212,
      "brightness": {
       "Points": [
        {
         "co": {
          "X": 1.0,
          "Y": 1.0
         },
         "handle_left": {
          "X": 0.5,
          "Y": 1.0
         },
         "handle_right": {
          "X": 0.5,
          "Y": 0.0
         },
         "handle_type": 0,
         "interpolation": 0
        },
        {
         "co": {
          "X": 29.0,
          "Y": -1.0
         },
         "handle_left": {
          "X": 0.5,
          "Y": 1.0
         },
         "handle_right": {
          "X": 0.5,
          "Y": 0.0
         },
         "handle_type": 0,
         "interpolation": 0
        }
       ]
      },
      "contrast": {
       "Points": [
        {
         "co": {
          "X": 1.0,
          "Y": 3.0
         },
         "handle_left": {
          "X": 0.5,
          "Y": 1.0
         },
         "handle_right": {
          "X": 0.5,
          "Y": 0.0
         },
         "handle_type": 0,
         "interpolation": 0
        },
        {
         "co": {
          "X": 29.0,
          "Y": 3.0
         },
         "handle_left": {
          "X": 0.5,
          "Y": 1.0
         },
         "handle_right": {
          "X": 0.5,
          "Y": 0.0
         },
         "handle_type": 0,
         "interpolation": 0
        }
       ]
      },
      "reader": {
       "acodec": "",
       "audio_bit_rate": 0,
       "audio_stream_index": -1,
       "audio_timebase": {
        "den": 1,
        "num": 1
       },
       "channel_layout": 4,
       "channels": 0,
       "display_ratio": {
        "den": 4,
        "num": 5
       },
       "duration": 3600.0,
       "file_size": "5832000",
       "fps": {
        "den": 1,
        "num": 30
       },
       "has_audio": false,
       "has_single_image": true,
       "has_video": true,
       "height": 576,
       "interlaced_frame": false,
       "metadata": {},
       "path": "@transitions/common/fade.svg",
       "pixel_format": -1,
       "pixel_ratio": {
        "den": 1,
        "num": 1
       },
       "sample_rate": 0,
       "top_field_first": true,
       "type": "QtImageReader",
       "vcodec": "",
       "video_bit_rate": 0,
       "video_length": "108000",
       "video_stream_index": -1,
       "video_timebase": {
        "den": 30,
        "num": 1
       },
       "width": 720
      },
      "replace_image": false,
      "id": "RZBAESHWWX"
     },
     {
      "layer": 2000000,
      "title": "Transition",
      "type": "Mask",
      "position": 245.76666666666668,
      "start": 0,
      "end": 0.9583333333333212,
      "brightness": {
       "Points": [
        {
         "co": {
          "X": 1.0,
          "Y": -1.0
         },
         "handle_left": {
          "X": 0.5,
          "Y": 1.0
         },
         "handle_right": {
          "X": 0.5,
          "Y": 0.0
         },
         "handle_type": 0,
         "interpolation": 0
        },
        {
         "co": {
          "X": 29.0,
          "Y": 1.0
         },
         "handle_left": {
          "X": 0.5,
          "Y": 1.0
         },
         "handle_right": {
          "X": 0.5,
          "Y": 0.0
         },
         "handle_type": 0,
         "interpolation": 0
        }
       ]
      },
      "contrast": {
       "Points": [
        {
         "co": {
          "X": 1.0,
          "Y": 3.0
         },
         "handle_left": {
          "X": 0.5,
          "Y": 1.0
         },
         "handle_right": {
          "X": 0.5,
          "Y": 0.0
         },
         "handle_type": 0,
         "interpolation": 0
        },
        {
         "co": {
          "X": 29.0,
          "Y": 3.0
         },
         "handle_left": {
          "X": 0.5,
          "Y": 1.0
         },
         "handle_right": {
          "X": 0.5,
          "Y": 0.0
         },
         "handle_type": 0,
         "interpolation": 0
        }
       ]
      },
      "reader": {
       "acodec": "",
       "audio_bit_rate": 0,
       "audio_stream_index": -1,
       "audio_timebase": {
        "den": 1,
        "num": 1
       },
       "channel_layout": 4,
       "channels": 0,
       "display_ratio": {
        "den": 4,
        "num": 5
       },
       "duration": 3600.0,
       "file_size": "5832000",
       "fps": {
        "den": 1,
        "num": 30
       },
       "has_audio": false,
       "has_single_image": true,
       "has_video": true,
       "height": 576,
       "interlaced_frame": false,
       "metadata": {},
       "path": "@transitions/common/fade.svg",
       "pixel_format": -1,
       "pixel_ratio": {
        "den": 1,
        "num": 1
       },
       "sample_rate": 0,
       "top_field_first": true,
       "type": "QtImageReader",
       "vcodec": "",
       "video_bit_rate": 0,
       "video_length": "108000",
       "video_stream_index": -1,
       "video_timebase": {
        "den": 30,
        "num": 1
       },
       "width": 720
      },
      "replace_image": false,
      "id": "2HTULU3R5M"
     },
     {
      "layer": 3000000,
      "title": "Transition",
      "type": "Mask",
      "position": 227.1,
      "start": 0,
      "end": 0.9583333333333212,
      "brightness": {
       "Points": [
        {
         "co": {
          "X": 1.0,
          "Y": 1.0
         },
         "handle_left": {
          "X": 0.5,
          "Y": 1.0
         },
         "handle_right": {
          "X": 0.5,
          "Y": 0.0
         },
         "handle_type": 0,
         "interpolation": 0
        },
        {
         "co": {
          "X": 29.0,
          "Y": -1.0
         },
         "handle_left": {
          "X": 0.5,
          "Y": 1.0
         },
         "handle_right": {
          "X": 0.5,
          "Y": 0.0
         },
         "handle_type": 0,
         "interpolation": 0
        }
       ]
      },
      "contrast": {
       "Points": [
        {
         "co": {
          "X": 1.0,
          "Y": 3.0
         },
         "handle_left": {
          "X": 0.5,
          "Y": 1.0
         },
         "handle_right": {
          "X": 0.5,
          "Y": 0.0
         },
         "handle_type": 0,
         "interpolation": 0
        },
        {
         "co": {
          "X": 29.0,
          "Y": 3.0
         },
         "handle_left": {
          "X": 0.5,
          "Y": 1.0
         },
         "handle_right": {
          "X": 0.5,
          "Y": 0.0
         },
         "handle_type": 0,
         "interpolation": 0
        }
       ]
      },
      "reader": {
       "acodec": "",
       "audio_bit_rate": 0,
       "audio_stream_index": -1,
       "audio_timebase": {
        "den": 1,
        "num": 1
       },
       "channel_layout": 4,
       "channels": 0,
       "display_ratio": {
        "den": 4,
        "num": 5
       },
       "duration": 3600.0,
       "file_size": "5832000",
       "fps": {
        "den": 1,
        "num": 30
       },
       "has_audio": false,
       "has_single_image": true,
       "has_video": true,
       "height": 576,
       "interlaced_frame": false,
       "metadata": {},
       "path": "@transitions/common/fade.svg",
       "pixel_format": -1,
       "pixel_ratio": {
        "den": 1,
        "num": 1
       },
       "sample_rate": 0,
       "top_field_first": true,
       "type": "QtImageReader",
       "vcodec": "",
       "video_bit_rate": 0,
       "video_length": "108000",
       "video_stream_index": -1,
       "video_timebase": {
        "den": 30,
        "num": 1
       },
       "width": 720
      },
      "replace_image": false,
      "id": "F3SI4HCMCD"
     },
     {
      "layer": 2000000,
      "title": "Transition",
      "type": "Mask",
      "position": 236.23333333333332,
      "start": 0,
      "end": 0.9583333333333212,
      "brightness": {
       "Points": [
        {
         "co": {
          "X": 1.0,
          "Y": -1.0
         },
         "handle_left": {
          "X": 0.5,
          "Y": 1.0
         },
         "handle_right": {
          "X": 0.5,
          "Y": 0.0
         },
         "handle_type": 0,
         "interpolation": 0
        },
        {
         "co": {
          "X": 29.0,
          "Y": 1.0
         },
         "handle_left": {
          "X": 0.5,
          "Y": 1.0
         },
         "handle_right": {
          "X": 0.5,
          "Y": 0.0
         },
         "handle_type": 0,
         "interpolation": 0
        }
       ]
      },
      "contrast": {
       "Points": [
        {
         "co": {
          "X": 1.0,
          "Y": 3.0
         },
         "handle_left": {
          "X": 0.5,
          "Y": 1.0
         },
         "handle_right": {
          "X": 0.5,
          "Y": 0.0
         },
         "handle_type": 0,
         "interpolation": 0
        },
        {
         "co": {
          "X": 29.0,
          "Y": 3.0
         },
         "handle_left": {
          "X": 0.5,
          "Y": 1.0
         },
         "handle_right": {
          "X": 0.5,
          "Y": 0.0
         },
         "handle_type": 0,
         "interpolation": 0
        }
       ]
      },
      "reader": {
       "acodec": "",
       "audio_bit_rate": 0,
       "audio_stream_index": -1,
       "audio_timebase": {
        "den": 1,
        "num": 1
       },
       "channel_layout": 4,
       "channels": 0,
       "display_ratio": {
        "den": 4,
        "num": 5
       },
       "duration": 3600.0,
       "file_size": "5832000",
       "fps": {
        "den": 1,
        "num": 30
       },
       "has_audio": false,
       "has_single_image": true,
       "has_video": true,
       "height": 576,
       "interlaced_frame": false,
       "metadata": {},
       "path": "@transitions/common/fade.svg",
       "pixel_format": -1,
       "pixel_ratio": {
        "den": 1,
        "num": 1
       },
       "sample_rate": 0,
       "top_field_first": true,
       "type": "QtImageReader",
       "vcodec": "",
       "video_bit_rate": 0,
       "video_length": "108000",
       "video_stream_index": -1,
       "video_timebase": {
        "den": 30,
        "num": 1
       },
       "width": 720
      },
      "replace_image": false,
      "id": "5PQMVVOG5H"
     },
     {
      "id": "Z4SN9YM3FC",
      "layer": 1000000,
      "title": "Transition",
      "type": "Mask",
      "position": 248.8,
      "start": 0,
      "end": 1.1999999999999886,
      "brightness": {
       "Points": [
        {
         "co": {
          "X": 1.0,
          "Y": 1.0
         },
         "handle_left": {
          "X": 0.5,
          "Y": 1.0
         },
         "handle_right": {
          "X": 0.5,
          "Y": 0.0
         },
         "handle_type": 0,
         "interpolation": 0
        },
        {
         "co": {
          "X": 37.0,
          "Y": -1.0
         },
         "handle_left": {
          "X": 0.5,
          "Y": 1.0
         },
         "handle_right": {
          "X": 0.5,
          "Y": 0.0
         },
         "handle_type": 0,
         "interpolation": 0
        }
       ]
      },
      "contrast": {
       "Points": [
        {
         "co": {
          "X": 1.0,
          "Y": 3.0
         },
         "handle_left": {
          "X": 0.5,
          "Y": 1.0
         },
         "handle_right": {
          "X": 0.5,
          "Y": 0.0
         },
         "handle_type": 0,
         "interpolation": 0
        }
       ]
      },
      "reader": {
       "acodec": "",
       "audio_bit_rate": 0,
       "audio_stream_index": -1,
       "audio_timebase": {
        "den": 1,
        "num": 1
       },
       "channel_layout": 4,
       "channels": 0,
       "display_ratio": {
        "den": 4,
        "num": 5
       },
       "duration": 3600.0,
       "file_size": "5832000",
       "fps": {
        "den": 1,
        "num": 30
       },
       "has_audio": false,
       "has_single_image": true,
       "has_video": true,
       "height": 576,
       "interlaced_frame": false,
       "metadata": {},
       "path": "@transitions/common/fade.svg",
       "pixel_format": -1,
       "pixel_ratio": {
        "den": 1,
        "num": 1
       },
       "sample_rate": 0,
       "top_field_first": true,
       "type": "QtImageReader",
       "vcodec": "",
       "video_bit_rate": 0,
       "video_length": "108000",
       "video_stream_index": -1,
       "video_timebase": {
        "den": 30,
        "num": 1
       },
       "width": 720
      },
      "replace_image": false
     },
     {
      "layer": 3000000,
      "title": "Transition",
      "type": "Mask",
      "position": 248.8,
      "start": 0,
      "end": 0.9583333333333212,
      "brightness": {
       "Points": [
        {
         "co": {
          "X": 1.0,
          "Y": 1.0
         },
         "handle_left": {
          "X": 0.5,
          "Y": 1.0
         },
         "handle_right": {
          "X": 0.5,
          "Y": 0.0
         },
         "handle_type": 0,
         "interpolation": 0
        },
        {
         "co": {
          "X": 29.0,
          "Y": -1.0
         },
         "handle_left": {
          "X": 0.5,
          "Y": 1.0
         },
         "handle_right": {
          "X": 0.5,
          "Y": 0.0
         },
         "handle_type": 0,
         "interpolation": 0
        }
       ]
      },
      "contrast": {
       "Points": [
        {
         "co": {
          "X": 1.0,
          "Y": 3.0
         },
         "handle_left": {
          "X": 0.5,
          "Y": 1.0
         },
         "handle_right": {
          "X": 0.5,
          "Y": 0.0
         },
         "handle_type": 0,
         "interpolation": 0
        },
        {
         "co": {
          "X": 29.0,
          "Y": 3.0
         },
         "handle_left": {
          "X": 0.5,
          "Y": 1.0
         },
         "handle_right": {
          "X": 0.5,
          "Y": 0.0
         },
         "handle_type": 0,
         "interpolation": 0
        }
       ]
      },
      "reader": {
       "acodec": "",
       "audio_bit_rate": 0,
       "audio_stream_index": -1,
       "audio_timebase": {
        "den": 1,
        "num": 1
       },
       "channel_layout": 4,
       "channels": 0,
       "display_ratio": {
        "den": 4,
        "num": 5
       },
       "duration": 3600.0,
       "file_size": "5832000",
       "fps": {
        "den": 1,
        "num": 30
       },
       "has_audio": false,
       "has_single_image": true,
       "has_video": true,
       "height": 576,
       "interlaced_frame": false,
       "metadata": {},
       "path": "@transitions/common/fade.svg",
       "pixel_format": -1,
       "pixel_ratio": {
        "den": 1,
        "num": 1
       },
       "sample_rate": 0,
       "top_field_first": true,
       "type": "QtImageReader",
       "vcodec": "",
       "video_bit_rate": 0,
       "video_length": "108000",
       "video_stream_index": -1,
       "video_timebase": {
        "den": 30,
        "num": 1
       },
       "width": 720
      },
      "replace_image": false,
      "id": "TQC41VZ6RB"
     },
     {
      "layer": 3000000,
      "title": "Transition",
      "type": "Mask",
      "position": 245.76666666666668,
      "start": 0,
      "end": 0.9583333333333212,
      "brightness": {
       "Points": [
        {
         "co": {
          "X": 1.0,
          "Y": -1.0
         },
         "handle_left": {
          "X": 0.5,
          "Y": 1.0
         },
         "handle_right": {
          "X": 0.5,
          "Y": 0.0
         },
         "handle_type": 0,
         "interpolation": 0
        },
        {
         "co": {
          "X": 29.0,
          "Y": 1.0
         },
         "handle_left": {
          "X": 0.5,
          "Y": 1.0
         },
         "handle_right": {
          "X": 0.5,
          "Y": 0.0
         },
         "handle_type": 0,
         "interpolation": 0
        }
       ]
      },
      "contrast": {
       "Points": [
        {
         "co": {
          "X": 1.0,
          "Y": 3.0
         },
         "handle_left": {
          "X": 0.5,
          "Y": 1.0
         },
         "handle_right": {
          "X": 0.5,
          "Y": 0.0
         },
         "handle_type": 0,
         "interpolation": 0
        },
        {
         "co": {
          "X": 29.0,
          "Y": 3.0
         },
         "handle_left": {
          "X": 0.5,
          "Y": 1.0
         },
         "handle_right": {
          "X": 0.5,
          "Y": 0.0
         },
         "handle_type": 0,
         "interpolation": 0
        }
       ]
      },
      "reader": {
       "acodec": "",
       "audio_bit_rate": 0,
       "audio_stream_index": -1,
       "audio_timebase": {
        "den": 1,
        "num": 1
       },
       "channel_layout": 4,
       "channels": 0,
       "display_ratio": {
        "den": 4,
        "num": 5
       },
       "duration": 3600.0,
       "file_size": "5832000",
       "fps": {
        "den": 1,
        "num": 30
       },
       "has_audio": false,
       "has_single_image": true,
       "has_video": true,
       "height": 576,
       "interlaced_frame": false,
       "metadata": {},
       "path": "@transitions/common/fade.svg",
       "pixel_format": -1,
       "pixel_ratio": {
        "den": 1,
        "num": 1
       },
       "sample_rate": 0,
       "top_field_first": true,
       "type": "QtImageReader",
       "vcodec": "",
       "video_bit_rate": 0,
       "video_length": "108000",
       "video_stream_index": -1,
       "video_timebase": {
        "den": 30,
        "num": 1
       },
       "width": 720
      },
      "replace_image": false,
      "id": "X3YMVVAX5I"
     },
     {
      "layer": 2000000,
      "title": "Transition",
      "type": "Mask",
      "position": 250.66666666666666,
      "start": 0,
      "end": 0.9583333333333212,
      "brightness": {
       "Points": [
        {
         "co": {
          "X": 1.0,
          "Y": 1.0
         },
         "handle_left": {
          "X": 0.5,
          "Y": 1.0
         },
         "handle_right": {
          "X": 0.5,
          "Y": 0.0
         },
         "handle_type": 0,
         "interpolation": 0
        },
        {
         "co": {
          "X": 29.0,
          "Y": -1.0
         },
         "handle_left": {
          "X": 0.5,
          "Y": 1.0
         },
         "handle_right": {
          "X": 0.5,
          "Y": 0.0
         },
         "handle_type": 0,
         "interpolation": 0
        }
       ]
      },
      "contrast": {
       "Points": [
        {
         "co": {
          "X": 1.0,
          "Y": 3.0
         },
         "handle_left": {
          "X": 0.5,
          "Y": 1.0
         },
         "handle_right": {
          "X": 0.5,
          "Y": 0.0
         },
         "handle_type": 0,
         "interpolation": 0
        },
        {
         "co": {
          "X": 29.0,
          "Y": 3.0
         },
         "handle_left": {
          "X": 0.5,
          "Y": 1.0
         },
         "handle_right": {
          "X": 0.5,
          "Y": 0.0
         },
         "handle_type": 0,
         "interpolation": 0
        }
       ]
      },
      "reader": {
       "acodec": "",
       "audio_bit_rate": 0,
       "audio_stream_index": -1,
       "audio_timebase": {
        "den": 1,
        "num": 1
       },
       "channel_layout": 4,
       "channels": 0,
       "display_ratio": {
        "den": 4,
        "num": 5
       },
       "duration": 3600.0,
       "file_size": "5832000",
       "fps": {
        "den": 1,
        "num": 30
       },
       "has_audio": false,
       "has_single_image": true,
       "has_video": true,
       "height": 576,
       "interlaced_frame": false,
       "metadata": {},
       "path": "@transitions/common/fade.svg",
       "pixel_format": -1,
       "pixel_ratio": {
        "den": 1,
        "num": 1
       },
       "sample_rate": 0,
       "top_field_first": true,
       "type": "QtImageReader",
       "vcodec": "",
       "video_bit_rate": 0,
       "video_length": "108000",
       "video_stream_index": -1,
       "video_timebase": {
        "den": 30,
        "num": 1
       },
       "width": 720
      },
      "replace_image": false,
      "id": "NZV4OM49PR"
     },
     {
      "layer": 2000000,
      "title": "Transition",
      "type": "Mask",
      "position": 256.4,
      "start": 0,
      "end": 0.9583333333333212,
      "brightness": {
       "Points": [
        {
         "co": {
          "X": 1.0,
          "Y": -1.0
         },
         "handle_left": {
          "X": 0.5,
          "Y": 1.0
         },
         "handle_right": {
          "X": 0.5,
          "Y": 0.0
         },
         "handle_type": 0,
         "interpolation": 0
        },
        {
         "co": {
          "X": 29.0,
          "Y": 1.0
         },
         "handle_left": {
          "X": 0.5,
          "Y": 1.0
         },
         "handle_right": {
          "X": 0.5,
          "Y": 0.0
         },
         "handle_type": 0,
         "interpolation": 0
        }
       ]
      },
      "contrast": {
       "Points": [
        {
         "co": {
          "X": 1.0,
          "Y": 3.0
         },
         "handle_left": {
          "X": 0.5,
          "Y": 1.0
         },
         "handle_right": {
          "X": 0.5,
          "Y": 0.0
         },
         "handle_type": 0,
         "interpolation": 0
        },
        {
         "co": {
          "X": 29.0,
          "Y": 3.0
         },
         "handle_left": {
          "X": 0.5,
          "Y": 1.0
         },
         "handle_right": {
          "X": 0.5,
          "Y": 0.0
         },
         "handle_type": 0,
         "interpolation": 0
        }
       ]
      },
      "reader": {
       "acodec": "",
       "audio_bit_rate": 0,
       "audio_stream_index": -1,
       "audio_timebase": {
        "den": 1,
        "num": 1
       },
       "channel_layout": 4,
       "channels": 0,
       "display_ratio": {
        "den": 4,
        "num": 5
       },
       "duration": 3600.0,
       "file_size": "5832000",
       "fps": {
        "den": 1,
        "num": 30
       },
       "has_audio": false,
       "has_single_image": true,
       "has_video": true,
       "height": 576,
       "interlaced_frame": false,
       "metadata": {},
       "path": "@transitions/common/fade.svg",
       "pixel_format": -1,
       "pixel_ratio": {
        "den": 1,
        "num": 1
       },
       "sample_rate": 0,
       "top_field_first": true,
       "type": "QtImageReader",
       "vcodec": "",
       "video_bit_rate": 0,
       "video_length": "108000",
       "video_stream_index": -1,
       "video_timebase": {
        "den": 30,
        "num": 1
       },
       "width": 720
      },
      "replace_image": false,
      "id": "GHC8VAFC2M"
     },
     {
      "layer": 2000000,
      "title": "Transition",
      "type": "Mask",
      "position": 260.8333333333333,
      "start": 0,
      "end": 0.9583333333333212,
      "brightness": {
       "Points": [
        {
         "co": {
          "X": 1.0,
          "Y": 1.0
         },
         "handle_left": {
          "X": 0.5,
          "Y": 1.0
         },
         "handle_right": {
          "X": 0.5,
          "Y": 0.0
         },
         "handle_type": 0,
         "interpolation": 0
        },
        {
         "co": {
          "X": 29.0,
          "Y": -1.0
         },
         "handle_left": {
          "X": 0.5,
          "Y": 1.0
         },
         "handle_right": {
          "X": 0.5,
          "Y": 0.0
         },
         "handle_type": 0,
         "interpolation": 0
        }
       ]
      },
      "contrast": {
       "Points": [
        {
         "co": {
          "X": 1.0,
          "Y": 3.0
         },
         "handle_left": {
          "X": 0.5,
          "Y": 1.0
         },
         "handle_right": {
          "X": 0.5,
          "Y": 0.0
         },
         "handle_type": 0,
         "interpolation": 0
        },
        {
         "co": {
          "X": 29.0,
          "Y": 3.0
         },
         "handle_left": {
          "X": 0.5,
          "Y": 1.0
         },
         "handle_right": {
          "X": 0.5,
          "Y": 0.0
         },
         "handle_type": 0,
         "interpolation": 0
        }
       ]
      },
      "reader": {
       "acodec": "",
       "audio_bit_rate": 0,
       "audio_stream_index": -1,
       "audio_timebase": {
        "den": 1,
        "num": 1
       },
       "channel_layout": 4,
       "channels": 0,
       "display_ratio": {
        "den": 4,
        "num": 5
       },
       "duration": 3600.0,
       "file_size": "5832000",
       "fps": {
        "den": 1,
        "num": 30
       },
       "has_audio": false,
       "has_single_image": true,
       "has_video": true,
       "height": 576,
       "interlaced_frame": false,
       "metadata": {},
       "path": "@transitions/common/fade.svg",
       "pixel_format": -1,
       "pixel_ratio": {
        "den": 1,
        "num": 1
       },
       "sample_rate": 0,
       "top_field_first": true,
       "type": "QtImageReader",
       "vcodec": "",
       "video_bit_rate": 0,
       "video_length": "108000",
       "video_stream_index": -1,
       "video_timebase": {
        "den": 30,
        "num": 1
       },
       "width": 720
      },
      "replace_image": false,
      "id": "LEJIDFPPTU"
     },
     {
      "layer": 2000000,
      "title": "Transition",
      "type": "Mask",
      "position": 266.93333333333334,
      "start": 0,
      "end": 0.9583333333333212,
      "brightness": {
       "Points": [
        {
         "co": {
          "X": 1.0,
          "Y": -1.0
         },
         "handle_left": {
          "X": 0.5,
          "Y": 1.0
         },
         "handle_right": {
          "X": 0.5,
          "Y": 0.0
         },
         "handle_type": 0,
         "interpolation": 0
        },
        {
         "co": {
          "X": 29.0,
          "Y": 1.0
         },
         "handle_left": {
          "X": 0.5,
          "Y": 1.0
         },
         "handle_right": {
          "X": 0.5,
          "Y": 0.0
         },
         "handle_type": 0,
         "interpolation": 0
        }
       ]
      },
      "contrast": {
       "Points": [
        {
         "co": {
          "X": 1.0,
          "Y": 3.0
         },
         "handle_left": {
          "X": 0.5,
          "Y": 1.0
         },
         "handle_right": {
          "X": 0.5,
          "Y": 0.0
         },
         "handle_type": 0,
         "interpolation": 0
        },
        {
         "co": {
          "X": 29.0,
          "Y": 3.0
         },
         "handle_left": {
          "X": 0.5,
          "Y": 1.0
         },
         "handle_right": {
          "X": 0.5,
          "Y": 0.0
         },
         "handle_type": 0,
         "interpolation": 0
        }
       ]
      },
      "reader": {
       "acodec": "",
       "audio_bit_rate": 0,
       "audio_stream_index": -1,
       "audio_timebase": {
        "den": 1,
        "num": 1
       },
       "channel_layout": 4,
       "channels": 0,
       "display_ratio": {
        "den": 4,
        "num": 5
       },
       "duration": 3600.0,
       "file_size": "5832000",
       "fps": {
        "den": 1,
        "num": 30
       },
       "has_audio": false,
       "has_single_image": true,
       "has_video": true,
       "height": 576,
       "interlaced_frame": false,
       "metadata": {},
       "path": "@transitions/common/fade.svg",
       "pixel_format": -1,
       "pixel_ratio": {
        "den": 1,
        "num": 1
       },
       "sample_rate": 0,
       "top_field_first": true,
       "type": "QtImageReader",
       "vcodec": "",
       "video_bit_rate": 0,
       "video_length": "108000",
       "video_stream_index": -1,
       "video_timebase": {
        "den": 30,
        "num": 1
       },
       "width": 720
      },
      "replace_image": false,
      "id": "KK5BUO5VAF"
     },
     {
      "layer": 2000000,
      "title": "Transition",
      "type": "Mask",
      "position": 269.03333333333336,
      "start": 0,
      "end": 0.9583333333333212,
      "brightness": {
       "Points": [
        {
         "co": {
          "X": 1.0,
          "Y": 1.0
         },
         "handle_left": {
          "X": 0.5,
          "Y": 1.0
         },
         "handle_right": {
          "X": 0.5,
          "Y": 0.0
         },
         "handle_type": 0,
         "interpolation": 0
        },
        {
         "co": {
          "X": 29.0,
          "Y": -1.0
         },
         "handle_left": {
          "X": 0.5,
          "Y": 1.0
         },
         "handle_right": {
          "X": 0.5,
          "Y": 0.0
         },
         "handle_type": 0,
         "interpolation": 0
        }
       ]
      },
      "contrast": {
       "Points": [
        {
         "co": {
          "X": 1.0,
          "Y": 3.0
         },
         "handle_left": {
          "X": 0.5,
          "Y": 1.0
         },
         "handle_right": {
          "X": 0.5,
          "Y": 0.0
         },
         "handle_type": 0,
         "interpolation": 0
        },
        {
         "co": {
          "X": 29.0,
          "Y": 3.0
         },
         "handle_left": {
          "X": 0.5,
          "Y": 1.0
         },
         "handle_right": {
          "X": 0.5,
          "Y": 0.0
         },
         "handle_type": 0,
         "interpolation": 0
        }
       ]
      },
      "reader": {
       "acodec": "",
       "audio_bit_rate": 0,
       "audio_stream_index": -1,
       "audio_timebase": {
        "den": 1,
        "num": 1
       },
       "channel_layout": 4,
       "channels": 0,
       "display_ratio": {
        "den": 4,
        "num": 5
       },
       "duration": 3600.0,
       "file_size": "5832000",
       "fps": {
        "den": 1,
        "num": 30
       },
       "has_audio": false,
       "has_single_image": true,
       "has_video": true,
       "height": 576,
       "interlaced_frame": false,
       "metadata": {},
       "path": "@transitions/common/fade.svg",
       "pixel_format": -1,
       "pixel_ratio": {
        "den": 1,
        "num": 1
       },
       "sample_rate": 0,
       "top_field_first": true,
       "type": "QtImageReader",
       "vcodec": "",
       "video_bit_rate": 0,
       "video_length": "108000",
       "video_stream_index": -1,
       "video_timebase": {
        "den": 30,
        "num": 1
       },
       "width": 720
      },
      "replace_image": false,
      "id": "EOT619YF48"
     },
     {
      "layer": 2000000,
      "title": "Transition",
      "type": "Mask",
      "position": 271.2,
      "start": 0,
      "end": 0.9583333333333212,
      "brightness": {
       "Points": [
        {
         "co": {
          "X": 1.0,
          "Y": -1.0
         },
         "handle_left": {
          "X": 0.5,
          "Y": 1.0
         },
         "handle_right": {
          "X": 0.5,
          "Y": 0.0
         },
         "handle_type": 0,
         "interpolation": 0
        },
        {
         "co": {
          "X": 29.0,
          "Y": 1.0
         },
         "handle_left": {
          "X": 0.5,
          "Y": 1.0
         },
         "handle_right": {
          "X": 0.5,
          "Y": 0.0
         },
         "handle_type": 0,
         "interpolation": 0
        }
       ]
      },
      "contrast": {
       "Points": [
        {
         "co": {
          "X": 1.0,
          "Y": 3.0
         },
         "handle_left": {
          "X": 0.5,
          "Y": 1.0
         },
         "handle_right": {
          "X": 0.5,
          "Y": 0.0
         },
         "handle_type": 0,
         "interpolation": 0
        },
        {
         "co": {
          "X": 29.0,
          "Y": 3.0
         },
         "handle_left": {
          "X": 0.5,
          "Y": 1.0
         },
         "handle_right": {
          "X": 0.5,
          "Y": 0.0
         },
         "handle_type": 0,
         "interpolation": 0
        }
       ]
      },
      "reader": {
       "acodec": "",
       "audio_bit_rate": 0,
       "audio_stream_index": -1,
       "audio_timebase": {
        "den": 1,
        "num": 1
       },
       "channel_layout": 4,
       "channels": 0,
       "display_ratio": {
        "den": 4,
        "num": 5
       },
       "duration": 3600.0,
       "file_size": "5832000",
       "fps": {
        "den": 1,
        "num": 30
       },
       "has_audio": false,
       "has_single_image": true,
       "has_video": true,
       "height": 576,
       "interlaced_frame": false,
       "metadata": {},
       "path": "@transitions/common/fade.svg",
       "pixel_format": -1,
       "pixel_ratio": {
        "den": 1,
        "num": 1
       },
       "sample_rate": 0,
       "top_field_first": true,
       "type": "QtImageReader",
       "vcodec": "",
       "video_bit_rate": 0,
       "video_length": "108000",
       "video_stream_index": -1,
       "video_timebase": {
        "den": 30,
        "num": 1
       },
       "width": 720
      },
      "replace_image": false,
      "id": "PRGTH4OGVC"
     },
     {
      "layer": 2000000,
      "title": "Transition",
      "type": "Mask",
      "position": 273.3333333333333,
      "start": 0,
      "end": 0.9583333333333212,
      "brightness": {
       "Points": [
        {
         "co": {
          "X": 1.0,
          "Y": 1.0
         },
         "handle_left": {
          "X": 0.5,
          "Y": 1.0
         },
         "handle_right": {
          "X": 0.5,
          "Y": 0.0
         },
         "handle_type": 0,
         "interpolation": 0
        },
        {
         "co": {
          "X": 29.0,
          "Y": -1.0
         },
         "handle_left": {
          "X": 0.5,
          "Y": 1.0
         },
         "handle_right": {
          "X": 0.5,
          "Y": 0.0
         },
         "handle_type": 0,
         "interpolation": 0
        }
       ]
      },
      "contrast": {
       "Points": [
        {
         "co": {
          "X": 1.0,
          "Y": 3.0
         },
         "handle_left": {
          "X": 0.5,
          "Y": 1.0
         },
         "handle_right": {
          "X": 0.5,
          "Y": 0.0
         },
         "handle_type": 0,
         "interpolation": 0
        },
        {
         "co": {
          "X": 29.0,
          "Y": 3.0
         },
         "handle_left": {
          "X": 0.5,
          "Y": 1.0
         },
         "handle_right": {
          "X": 0.5,
          "Y": 0.0
         },
         "handle_type": 0,
         "interpolation": 0
        }
       ]
      },
      "reader": {
       "acodec": "",
       "audio_bit_rate": 0,
       "audio_stream_index": -1,
       "audio_timebase": {
        "den": 1,
        "num": 1
       },
       "channel_layout": 4,
       "channels": 0,
       "display_ratio": {
        "den": 4,
        "num": 5
       },
       "duration": 3600.0,
       "file_size": "5832000",
       "fps": {
        "den": 1,
        "num": 30
       },
       "has_audio": false,
       "has_single_image": true,
       "has_video": true,
       "height": 576,
       "interlaced_frame": false,
       "metadata": {},
       "path": "@transitions/common/fade.svg",
       "pixel_format": -1,
       "pixel_ratio": {
        "den": 1,
        "num": 1
       },
       "sample_rate": 0,
       "top_field_first": true,
       "type": "QtImageReader",
       "vcodec": "",
       "video_bit_rate": 0,
       "video_length": "108000",
       "video_stream_index": -1,
       "video_timebase": {
        "den": 30,
        "num": 1
       },
       "width": 720
      },
      "replace_image": false,
      "id": "2M2XXQ05FD"
     },
     {
      "layer": 2000000,
      "title": "Transition",
      "type": "Mask",
      "position": 277.23333333333335,
      "start": 0,
      "end": 0.9583333333333212,
      "brightness": {
       "Points": [
        {
         "co": {
          "X": 1.0,
          "Y": -1.0
         },
         "handle_left": {
          "X": 0.5,
          "Y": 1.0
         },
         "handle_right": {
          "X": 0.5,
          "Y": 0.0
         },
         "handle_type": 0,
         "interpolation": 0
        },
        {
         "co": {
          "X": 29.0,
          "Y": 1.0
         },
         "handle_left": {
          "X": 0.5,
          "Y": 1.0
         },
         "handle_right": {
          "X": 0.5,
          "Y": 0.0
         },
         "handle_type": 0,
         "interpolation": 0
        }
       ]
      },
      "contrast": {
       "Points": [
        {
         "co": {
          "X": 1.0,
          "Y": 3.0
         },
         "handle_left": {
          "X": 0.5,
          "Y": 1.0
         },
         "handle_right": {
          "X": 0.5,
          "Y": 0.0
         },
         "handle_type": 0,
         "interpolation": 0
        },
        {
         "co": {
          "X": 29.0,
          "Y": 3.0
         },
         "handle_left": {
          "X": 0.5,
          "Y": 1.0
         },
         "handle_right": {
          "X": 0.5,
          "Y": 0.0
         },
         "handle_type": 0,
         "interpolation": 0
        }
       ]
      },
      "reader": {
       "acodec": "",
       "audio_bit_rate": 0,
       "audio_stream_index": -1,
       "audio_timebase": {
        "den": 1,
        "num": 1
       },
       "channel_layout": 4,
       "channels": 0,
       "display_ratio": {
        "den": 4,
        "num": 5
       },
       "duration": 3600.0,
       "file_size": "5832000",
       "fps": {
        "den": 1,
        "num": 30
       },
       "has_audio": false,
       "has_single_image": true,
       "has_video": true,
       "height": 576,
       "interlaced_frame": false,
       "metadata": {},
       "path": "@transitions/common/fade.svg",
       "pixel_format": -1,
       "pixel_ratio": {
        "den": 1,
        "num": 1
       },
       "sample_rate": 0,
       "top_field_first": true,
       "type": "QtImageReader",
       "vcodec": "",
       "video_bit_rate": 0,
       "video_length": "108000",
       "video_stream_index": -1,
       "video_timebase": {
        "den": 30,
        "num": 1
       },
       "width": 720
      },
      "replace_image": false,
      "id": "AB25T9KHGQ"
     },
     {
      "layer": 2000000,
      "title": "Transition",
      "type": "Mask",
      "position": 281.73333333333335,
      "start": 0,
      "end": 0.9583333333333212,
      "brightness": {
       "Points": [
        {
         "co": {
          "X": 1.0,
          "Y": 1.0
         },
         "handle_left": {
          "X": 0.5,
          "Y": 1.0
         },
         "handle_right": {
          "X": 0.5,
          "Y": 0.0
         },
         "handle_type": 0,
         "interpolation": 0
        },
        {
         "co": {
          "X": 29.0,
          "Y": -1.0
         },
         "handle_left": {
          "X": 0.5,
          "Y": 1.0
         },
         "handle_right": {
          "X": 0.5,
          "Y": 0.0
         },
         "handle_type": 0,
         "interpolation": 0
        }
       ]
      },
      "contrast": {
       "Points": [
        {
         "co": {
          "X": 1.0,
          "Y": 3.0
         },
         "handle_left": {
          "X": 0.5,
          "Y": 1.0
         },
         "handle_right": {
          "X": 0.5,
          "Y": 0.0
         },
         "handle_type": 0,
         "interpolation": 0
        },
        {
         "co": {
          "X": 29.0,
          "Y": 3.0
         },
         "handle_left": {
          "X": 0.5,
          "Y": 1.0
         },
         "handle_right": {
          "X": 0.5,
          "Y": 0.0
         },
         "handle_type": 0,
         "interpolation": 0
        }
       ]
      },
      "reader": {
       "acodec": "",
       "audio_bit_rate": 0,
       "audio_stream_index": -1,
       "audio_timebase": {
        "den": 1,
        "num": 1
       },
       "channel_layout": 4,
       "channels": 0,
       "display_ratio": {
        "den": 4,
        "num": 5
       },
       "duration": 3600.0,
       "file_size": "5832000",
       "fps": {
        "den": 1,
        "num": 30
       },
       "has_audio": false,
       "has_single_image": true,
       "has_video": true,
       "height": 576,
       "interlaced_frame": false,
       "metadata": {},
       "path": "@transitions/common/fade.svg",
       "pixel_format": -1,
       "pixel_ratio": {
        "den": 1,
        "num": 1
       },
       "sample_rate": 0,
       "top_field_first": true,
       "type": "QtImageReader",
       "vcodec": "",
       "video_bit_rate": 0,
       "video_length": "108000",
       "video_stream_index": -1,
       "video_timebase": {
        "den": 30,
        "num": 1
       },
       "width": 720
      },
      "replace_image": false,
      "id": "ZEXFKXQ1SG"
     },
     {
      "layer": 2000000,
      "title": "Transition",
      "type": "Mask",
      "position": 286.3666666666667,
      "start": 0,
      "end": 0.9583333333333212,
      "brightness": {
       "Points": [
        {
         "co": {
          "X": 1.0,
          "Y": -1.0
         },
         "handle_left": {
          "X": 0.5,
          "Y": 1.0
         },
         "handle_right": {
          "X": 0.5,
          "Y": 0.0
         },
         "handle_type": 0,
         "interpolation": 0
        },
        {
         "co": {
          "X": 29.0,
          "Y": 1.0
         },
         "handle_left": {
          "X": 0.5,
          "Y": 1.0
         },
         "handle_right": {
          "X": 0.5,
          "Y": 0.0
         },
         "handle_type": 0,
         "interpolation": 0
        }
       ]
      },
      "contrast": {
       "Points": [
        {
         "co": {
          "X": 1.0,
          "Y": 3.0
         },
         "handle_left": {
          "X": 0.5,
          "Y": 1.0
         },
         "handle_right": {
          "X": 0.5,
          "Y": 0.0
         },
         "handle_type": 0,
         "interpolation": 0
        },
        {
         "co": {
          "X": 29.0,
          "Y": 3.0
         },
         "handle_left": {
          "X": 0.5,
          "Y": 1.0
         },
         "handle_right": {
          "X": 0.5,
          "Y": 0.0
         },
         "handle_type": 0,
         "interpolation": 0
        }
       ]
      },
      "reader": {
       "acodec": "",
       "audio_bit_rate": 0,
       "audio_stream_index": -1,
       "audio_timebase": {
        "den": 1,
        "num": 1
       },
       "channel_layout": 4,
       "channels": 0,
       "display_ratio": {
        "den": 4,
        "num": 5
       },
       "duration": 3600.0,
       "file_size": "5832000",
       "fps": {
        "den": 1,
        "num": 30
       },
       "has_audio": false,
       "has_single_image": true,
       "has_video": true,
       "height": 576,
       "interlaced_frame": false,
       "metadata": {},
       "path": "@transitions/common/fade.svg",
       "pixel_format": -1,
       "pixel_ratio": {
        "den": 1,
        "num": 1
       },
       "sample_rate": 0,
       "top_field_first": true,
       "type": "QtImageReader",
       "vcodec": "",
       "video_bit_rate": 0,
       "video_length": "108000",
       "video_stream_index": -1,
       "video_timebase": {
        "den": 30,
        "num": 1
       },
       "width": 720
      },
      "replace_image": false,
      "id": "NA5Q7HM0AA"
     },
     {
      "layer": 3000000,
      "title": "Transition",
      "type": "Mask",
      "position": 290.23333333333335,
      "start": 0,
      "end": 0.9583333333333212,
      "brightness": {
       "Points": [
        {
         "co": {
          "X": 1.0,
          "Y": -1.0
         },
         "handle_left": {
          "X": 0.5,
          "Y": 1.0
         },
         "handle_right": {
          "X": 0.5,
          "Y": 0.0
         },
         "handle_type": 0,
         "interpolation": 0
        },
        {
         "co": {
          "X": 29.0,
          "Y": 1.0
         },
         "handle_left": {
          "X": 0.5,
          "Y": 1.0
         },
         "handle_right": {
          "X": 0.5,
          "Y": 0.0
         },
         "handle_type": 0,
         "interpolation": 0
        }
       ]
      },
      "contrast": {
       "Points": [
        {
         "co": {
          "X": 1.0,
          "Y": 3.0
         },
         "handle_left": {
          "X": 0.5,
          "Y": 1.0
         },
         "handle_right": {
          "X": 0.5,
          "Y": 0.0
         },
         "handle_type": 0,
         "interpolation": 0
        },
        {
         "co": {
          "X": 29.0,
          "Y": 3.0
         },
         "handle_left": {
          "X": 0.5,
          "Y": 1.0
         },
         "handle_right": {
          "X": 0.5,
          "Y": 0.0
         },
         "handle_type": 0,
         "interpolation": 0
        }
       ]
      },
      "reader": {
       "acodec": "",
       "audio_bit_rate": 0,
       "audio_stream_index": -1,
       "audio_timebase": {
        "den": 1,
        "num": 1
       },
       "channel_layout": 4,
       "channels": 0,
       "display_ratio": {
        "den": 4,
        "num": 5
       },
       "duration": 3600.0,
       "file_size": "5832000",
       "fps": {
        "den": 1,
        "num": 30
       },
       "has_audio": false,
       "has_single_image": true,
       "has_video": true,
       "height": 576,
       "interlaced_frame": false,
       "metadata": {},
       "path": "@transitions/common/fade.svg",
       "pixel_format": -1,
       "pixel_ratio": {
        "den": 1,
        "num": 1
       },
       "sample_rate": 0,
       "top_field_first": true,
       "type": "QtImageReader",
       "vcodec": "",
       "video_bit_rate": 0,
       "video_length": "108000",
       "video_stream_index": -1,
       "video_timebase": {
        "den": 30,
        "num": 1
       },
       "width": 720
      },
      "replace_image": false,
      "id": "2MOTFUXKD2"
     },
     {
      "id": "WTQLA8YM9N",
      "layer": 1000000,
      "title": "Transition",
      "type": "Mask",
      "position": 297.26666666666665,
      "start": 0,
      "end": 1.3359143138669818,
      "brightness": {
       "Points": [
        {
         "co": {
          "X": 1.0,
          "Y": 1.0
         },
         "handle_left": {
          "X": 0.5,
          "Y": 1.0
         },
         "handle_right": {
          "X": 0.5,
          "Y": 0.0
         },
         "handle_type": 0,
         "interpolation": 0
        },
        {
         "co": {
          "X": 40.0,
          "Y": -1.0
         },
         "handle_left": {
          "X": 0.5,
          "Y": 1.0
         },
         "handle_right": {
          "X": 0.5,
          "Y": 0.0
         },
         "handle_type": 0,
         "interpolation": 0
        }
       ]
      },
      "contrast": {
       "Points": [
        {
         "co": {
          "X": 1.0,
          "Y": 3.0
         },
         "handle_left": {
          "X": 0.5,
          "Y": 1.0
         },
         "handle_right": {
          "X": 0.5,
          "Y": 0.0
         },
         "handle_type": 0,
         "interpolation": 0
        },
        {
         "co": {
          "X": 40.0,
          "Y": 3.0
         },
         "handle_left": {
          "X": 0.5,
          "Y": 1.0
         },
         "handle_right": {
          "X": 0.5,
          "Y": 0.0
         },
         "handle_type": 0,
         "interpolation": 0
        }
       ]
      },
      "reader": {
       "acodec": "",
       "audio_bit_rate": 0,
       "audio_stream_index": -1,
       "audio_timebase": {
        "den": 1,
        "num": 1
       },
       "channel_layout": 4,
       "channels": 0,
       "display_ratio": {
        "den": 4,
        "num": 5
       },
       "duration": 3600.0,
       "file_size": "5832000",
       "fps": {
        "den": 1,
        "num": 30
       },
       "has_audio": false,
       "has_single_image": true,
       "has_video": true,
       "height": 576,
       "interlaced_frame": false,
       "metadata": {},
       "path": "@transitions/common/fade.svg",
       "pixel_format": -1,
       "pixel_ratio": {
        "den": 1,
        "num": 1
       },
       "sample_rate": 0,
       "top_field_first": true,
       "type": "QtImageReader",
       "vcodec": "",
       "video_bit_rate": 0,
       "video_length": "108000",
       "video_stream_index": -1,
       "video_timebase": {
        "den": 30,
        "num": 1
       },
       "width": 720
      },
      "replace_image": false
     },
     {
      "layer": 3000000,
      "title": "Transition",
      "type": "Mask",
      "position": 298.8333333333333,
      "start": 0,
      "end": 0.9583333333333212,
      "brightness": {
       "Points": [
        {
         "co": {
          "X": 1.0,
          "Y": 1.0
         },
         "handle_left": {
          "X": 0.5,
          "Y": 1.0
         },
         "handle_right": {
          "X": 0.5,
          "Y": 0.0
         },
         "handle_type": 0,
         "interpolation": 0
        },
        {
         "co": {
          "X": 29.0,
          "Y": -1.0
         },
         "handle_left": {
          "X": 0.5,
          "Y": 1.0
         },
         "handle_right": {
          "X": 0.5,
          "Y": 0.0
         },
         "handle_type": 0,
         "interpolation": 0
        }
       ]
      },
      "contrast": {
       "Points": [
        {
         "co": {
          "X": 1.0,
          "Y": 3.0
         },
         "handle_left": {
          "X": 0.5,
          "Y": 1.0
         },
         "handle_right": {
          "X": 0.5,
          "Y": 0.0
         },
         "handle_type": 0,
         "interpolation": 0
        },
        {
         "co": {
          "X": 29.0,
          "Y": 3.0
         },
         "handle_left": {
          "X": 0.5,
          "Y": 1.0
         },
         "handle_right": {
          "X": 0.5,
          "Y": 0.0
         },
         "handle_type": 0,
         "interpolation": 0
        }
       ]
      },
      "reader": {
       "acodec": "",
       "audio_bit_rate": 0,
       "audio_stream_index": -1,
       "audio_timebase": {
        "den": 1,
        "num": 1
       },
       "channel_layout": 4,
       "channels": 0,
       "display_ratio": {
        "den": 4,
        "num": 5
       },
       "duration": 3600.0,
       "file_size": "5832000",
       "fps": {
        "den": 1,
        "num": 30
       },
       "has_audio": false,
       "has_single_image": true,
       "has_video": true,
       "height": 576,
       "interlaced_frame": false,
       "metadata": {},
       "path": "@transitions/common/fade.svg",
       "pixel_format": -1,
       "pixel_ratio": {
        "den": 1,
        "num": 1
       },
       "sample_rate": 0,
       "top_field_first": true,
       "type": "QtImageReader",
       "vcodec": "",
       "video_bit_rate": 0,
       "video_length": "108000",
       "video_stream_index": -1,
       "video_timebase": {
        "den": 30,
        "num": 1
       },
       "width": 720
      },
      "replace_image": false,
      "id": "2YX9MN7OBR"
     },
     {
      "layer": 2000000,
      "title": "Transition",
      "type": "Mask",
      "position": 300.6666666666667,
      "start": 0,
      "end": 0.9583333333333212,
      "brightness": {
       "Points": [
        {
         "co": {
          "X": 1.0,
          "Y": 1.0
         },
         "handle_left": {
          "X": 0.5,
          "Y": 1.0
         },
         "handle_right": {
          "X": 0.5,
          "Y": 0.0
         },
         "handle_type": 0,
         "interpolation": 0
        },
        {
         "co": {
          "X": 29.0,
          "Y": -1.0
         },
         "handle_left": {
          "X": 0.5,
          "Y": 1.0
         },
         "handle_right": {
          "X": 0.5,
          "Y": 0.0
         },
         "handle_type": 0,
         "interpolation": 0
        }
       ]
      },
      "contrast": {
       "Points": [
        {
         "co": {
          "X": 1.0,
          "Y": 3.0
         },
         "handle_left": {
          "X": 0.5,
          "Y": 1.0
         },
         "handle_right": {
          "X": 0.5,
          "Y": 0.0
         },
         "handle_type": 0,
         "interpolation": 0
        },
        {
         "co": {
          "X": 29.0,
          "Y": 3.0
         },
         "handle_left": {
          "X": 0.5,
          "Y": 1.0
         },
         "handle_right": {
          "X": 0.5,
          "Y": 0.0
         },
         "handle_type": 0,
         "interpolation": 0
        }
       ]
      },
      "reader": {
       "acodec": "",
       "audio_bit_rate": 0,
       "audio_stream_index": -1,
       "audio_timebase": {
        "den": 1,
        "num": 1
       },
       "channel_layout": 4,
       "channels": 0,
       "display_ratio": {
        "den": 4,
        "num": 5
       },
       "duration": 3600.0,
       "file_size": "5832000",
       "fps": {
        "den": 1,
        "num": 30
       },
       "has_audio": false,
       "has_single_image": true,
       "has_video": true,
       "height": 576,
       "interlaced_frame": false,
       "metadata": {},
       "path": "@transitions/common/fade.svg",
       "pixel_format": -1,
       "pixel_ratio": {
        "den": 1,
        "num": 1
       },
       "sample_rate": 0,
       "top_field_first": true,
       "type": "QtImageReader",
       "vcodec": "",
       "video_bit_rate": 0,
       "video_length": "108000",
       "video_stream_index": -1,
       "video_timebase": {
        "den": 30,
        "num": 1
       },
       "width": 720
      },
      "replace_image": false,
      "id": "NZZROKB146"
     },
     {
      "layer": 2000000,
      "title": "Transition",
      "type": "Mask",
      "position": 303.8333333333333,
      "start": 0,
      "end": 0.9583333333333212,
      "brightness": {
       "Points": [
        {
         "co": {
          "X": 1.0,
          "Y": -1.0
         },
         "handle_left": {
          "X": 0.5,
          "Y": 1.0
         },
         "handle_right": {
          "X": 0.5,
          "Y": 0.0
         },
         "handle_type": 0,
         "interpolation": 0
        },
        {
         "co": {
          "X": 29.0,
          "Y": 1.0
         },
         "handle_left": {
          "X": 0.5,
          "Y": 1.0
         },
         "handle_right": {
          "X": 0.5,
          "Y": 0.0
         },
         "handle_type": 0,
         "interpolation": 0
        }
       ]
      },
      "contrast": {
       "Points": [
        {
         "co": {
          "X": 1.0,
          "Y": 3.0
         },
         "handle_left": {
          "X": 0.5,
          "Y": 1.0
         },
         "handle_right": {
          "X": 0.5,
          "Y": 0.0
         },
         "handle_type": 0,
         "interpolation": 0
        },
        {
         "co": {
          "X": 29.0,
          "Y": 3.0
         },
         "handle_left": {
          "X": 0.5,
          "Y": 1.0
         },
         "handle_right": {
          "X": 0.5,
          "Y": 0.0
         },
         "handle_type": 0,
         "interpolation": 0
        }
       ]
      },
      "reader": {
       "acodec": "",
       "audio_bit_rate": 0,
       "audio_stream_index": -1,
       "audio_timebase": {
        "den": 1,
        "num": 1
       },
       "channel_layout": 4,
       "channels": 0,
       "display_ratio": {
        "den": 4,
        "num": 5
       },
       "duration": 3600.0,
       "file_size": "5832000",
       "fps": {
        "den": 1,
        "num": 30
       },
       "has_audio": false,
       "has_single_image": true,
       "has_video": true,
       "height": 576,
       "interlaced_frame": false,
       "metadata": {},
       "path": "@transitions/common/fade.svg",
       "pixel_format": -1,
       "pixel_ratio": {
        "den": 1,
        "num": 1
       },
       "sample_rate": 0,
       "top_field_first": true,
       "type": "QtImageReader",
       "vcodec": "",
       "video_bit_rate": 0,
       "video_length": "108000",
       "video_stream_index": -1,
       "video_timebase": {
        "den": 30,
        "num": 1
       },
       "width": 720
      },
      "replace_image": false,
      "id": "QSGPQIF0I4"
     },
     {
      "layer": 2000000,
      "title": "Transition",
      "type": "Mask",
      "position": 306.8666666666667,
      "start": 0,
      "end": 0.9583333333333212,
      "brightness": {
       "Points": [
        {
         "co": {
          "X": 1.0,
          "Y": 1.0
         },
         "handle_left": {
          "X": 0.5,
          "Y": 1.0
         },
         "handle_right": {
          "X": 0.5,
          "Y": 0.0
         },
         "handle_type": 0,
         "interpolation": 0
        },
        {
         "co": {
          "X": 29.0,
          "Y": -1.0
         },
         "handle_left": {
          "X": 0.5,
          "Y": 1.0
         },
         "handle_right": {
          "X": 0.5,
          "Y": 0.0
         },
         "handle_type": 0,
         "interpolation": 0
        }
       ]
      },
      "contrast": {
       "Points": [
        {
         "co": {
          "X": 1.0,
          "Y": 3.0
         },
         "handle_left": {
          "X": 0.5,
          "Y": 1.0
         },
         "handle_right": {
          "X": 0.5,
          "Y": 0.0
         },
         "handle_type": 0,
         "interpolation": 0
        },
        {
         "co": {
          "X": 29.0,
          "Y": 3.0
         },
         "handle_left": {
          "X": 0.5,
          "Y": 1.0
         },
         "handle_right": {
          "X": 0.5,
          "Y": 0.0
         },
         "handle_type": 0,
         "interpolation": 0
        }
       ]
      },
      "reader": {
       "acodec": "",
       "audio_bit_rate": 0,
       "audio_stream_index": -1,
       "audio_timebase": {
        "den": 1,
        "num": 1
       },
       "channel_layout": 4,
       "channels": 0,
       "display_ratio": {
        "den": 4,
        "num": 5
       },
       "duration": 3600.0,
       "file_size": "5832000",
       "fps": {
        "den": 1,
        "num": 30
       },
       "has_audio": false,
       "has_single_image": true,
       "has_video": true,
       "height": 576,
       "interlaced_frame": false,
       "metadata": {},
       "path": "@transitions/common/fade.svg",
       "pixel_format": -1,
       "pixel_ratio": {
        "den": 1,
        "num": 1
       },
       "sample_rate": 0,
       "top_field_first": true,
       "type": "QtImageReader",
       "vcodec": "",
       "video_bit_rate": 0,
       "video_length": "108000",
       "video_stream_index": -1,
       "video_timebase": {
        "den": 30,
        "num": 1
       },
       "width": 720
      },
      "replace_image": false,
      "id": "OHTIUW0RSR"
     },
     {
      "layer": 2000000,
      "title": "Transition",
      "type": "Mask",
      "position": 312.3,
      "start": 0,
      "end": 0.9583333333333212,
      "brightness": {
       "Points": [
        {
         "co": {
          "X": 1.0,
          "Y": -1.0
         },
         "handle_left": {
          "X": 0.5,
          "Y": 1.0
         },
         "handle_right": {
          "X": 0.5,
          "Y": 0.0
         },
         "handle_type": 0,
         "interpolation": 0
        },
        {
         "co": {
          "X": 29.0,
          "Y": 1.0
         },
         "handle_left": {
          "X": 0.5,
          "Y": 1.0
         },
         "handle_right": {
          "X": 0.5,
          "Y": 0.0
         },
         "handle_type": 0,
         "interpolation": 0
        }
       ]
      },
      "contrast": {
       "Points": [
        {
         "co": {
          "X": 1.0,
          "Y": 3.0
         },
         "handle_left": {
          "X": 0.5,
          "Y": 1.0
         },
         "handle_right": {
          "X": 0.5,
          "Y": 0.0
         },
         "handle_type": 0,
         "interpolation": 0
        },
        {
         "co": {
          "X": 29.0,
          "Y": 3.0
         },
         "handle_left": {
          "X": 0.5,
          "Y": 1.0
         },
         "handle_right": {
          "X": 0.5,
          "Y": 0.0
         },
         "handle_type": 0,
         "interpolation": 0
        }
       ]
      },
      "reader": {
       "acodec": "",
       "audio_bit_rate": 0,
       "audio_stream_index": -1,
       "audio_timebase": {
        "den": 1,
        "num": 1
       },
       "channel_layout": 4,
       "channels": 0,
       "display_ratio": {
        "den": 4,
        "num": 5
       },
       "duration": 3600.0,
       "file_size": "5832000",
       "fps": {
        "den": 1,
        "num": 30
       },
       "has_audio": false,
       "has_single_image": true,
       "has_video": true,
       "height": 576,
       "interlaced_frame": false,
       "metadata": {},
       "path": "@transitions/common/fade.svg",
       "pixel_format": -1,
       "pixel_ratio": {
        "den": 1,
        "num": 1
       },
       "sample_rate": 0,
       "top_field_first": true,
       "type": "QtImageReader",
       "vcodec": "",
       "video_bit_rate": 0,
       "video_length": "108000",
       "video_stream_index": -1,
       "video_timebase": {
        "den": 30,
        "num": 1
       },
       "width": 720
      },
      "replace_image": false,
      "id": "6SPUUOIG1O"
     },
     {
      "layer": 3000000,
      "title": "Transition",
      "type": "Mask",
      "position": 328.6,
      "start": 0,
      "end": 0.9583333333333212,
      "brightness": {
       "Points": [
        {
         "co": {
          "X": 1.0,
          "Y": -1.0
         },
         "handle_left": {
          "X": 0.5,
          "Y": 1.0
         },
         "handle_right": {
          "X": 0.5,
          "Y": 0.0
         },
         "handle_type": 0,
         "interpolation": 0
        },
        {
         "co": {
          "X": 29.0,
          "Y": 1.0
         },
         "handle_left": {
          "X": 0.5,
          "Y": 1.0
         },
         "handle_right": {
          "X": 0.5,
          "Y": 0.0
         },
         "handle_type": 0,
         "interpolation": 0
        }
       ]
      },
      "contrast": {
       "Points": [
        {
         "co": {
          "X": 1.0,
          "Y": 3.0
         },
         "handle_left": {
          "X": 0.5,
          "Y": 1.0
         },
         "handle_right": {
          "X": 0.5,
          "Y": 0.0
         },
         "handle_type": 0,
         "interpolation": 0
        },
        {
         "co": {
          "X": 29.0,
          "Y": 3.0
         },
         "handle_left": {
          "X": 0.5,
          "Y": 1.0
         },
         "handle_right": {
          "X": 0.5,
          "Y": 0.0
         },
         "handle_type": 0,
         "interpolation": 0
        }
       ]
      },
      "reader": {
       "acodec": "",
       "audio_bit_rate": 0,
       "audio_stream_index": -1,
       "audio_timebase": {
        "den": 1,
        "num": 1
       },
       "channel_layout": 4,
       "channels": 0,
       "display_ratio": {
        "den": 4,
        "num": 5
       },
       "duration": 3600.0,
       "file_size": "5832000",
       "fps": {
        "den": 1,
        "num": 30
       },
       "has_audio": false,
       "has_single_image": true,
       "has_video": true,
       "height": 576,
       "interlaced_frame": false,
       "metadata": {},
       "path": "@transitions/common/fade.svg",
       "pixel_format": -1,
       "pixel_ratio": {
        "den": 1,
        "num": 1
       },
       "sample_rate": 0,
       "top_field_first": true,
       "type": "QtImageReader",
       "vcodec": "",
       "video_bit_rate": 0,
       "video_length": "108000",
       "video_stream_index": -1,
       "video_timebase": {
        "den": 30,
        "num": 1
       },
       "width": 720
      },
      "replace_image": false,
      "id": "P8E8OYE1HL"
     },
     {
      "layer": 3000000,
      "title": "Transition",
      "type": "Mask",
      "position": 331.93333333333334,
      "start": 0,
      "end": 0.9583333333333212,
      "brightness": {
       "Points": [
        {
         "co": {
          "X": 1.0,
          "Y": 1.0
         },
         "handle_left": {
          "X": 0.5,
          "Y": 1.0
         },
         "handle_right": {
          "X": 0.5,
          "Y": 0.0
         },
         "handle_type": 0,
         "interpolation": 0
        },
        {
         "co": {
          "X": 29.0,
          "Y": -1.0
         },
         "handle_left": {
          "X": 0.5,
          "Y": 1.0
         },
         "handle_right": {
          "X": 0.5,
          "Y": 0.0
         },
         "handle_type": 0,
         "interpolation": 0
        }
       ]
      },
      "contrast": {
       "Points": [
        {
         "co": {
          "X": 1.0,
          "Y": 3.0
         },
         "handle_left": {
          "X": 0.5,
          "Y": 1.0
         },
         "handle_right": {
          "X": 0.5,
          "Y": 0.0
         },
         "handle_type": 0,
         "interpolation": 0
        },
        {
         "co": {
          "X": 29.0,
          "Y": 3.0
         },
         "handle_left": {
          "X": 0.5,
          "Y": 1.0
         },
         "handle_right": {
          "X": 0.5,
          "Y": 0.0
         },
         "handle_type": 0,
         "interpolation": 0
        }
       ]
      },
      "reader": {
       "acodec": "",
       "audio_bit_rate": 0,
       "audio_stream_index": -1,
       "audio_timebase": {
        "den": 1,
        "num": 1
       },
       "channel_layout": 4,
       "channels": 0,
       "display_ratio": {
        "den": 4,
        "num": 5
       },
       "duration": 3600.0,
       "file_size": "5832000",
       "fps": {
        "den": 1,
        "num": 30
       },
       "has_audio": false,
       "has_single_image": true,
       "has_video": true,
       "height": 576,
       "interlaced_frame": false,
       "metadata": {},
       "path": "@transitions/common/fade.svg",
       "pixel_format": -1,
       "pixel_ratio": {
        "den": 1,
        "num": 1
       },
       "sample_rate": 0,
       "top_field_first": true,
       "type": "QtImageReader",
       "vcodec": "",
       "video_bit_rate": 0,
       "video_length": "108000",
       "video_stream_index": -1,
       "video_timebase": {
        "den": 30,
        "num": 1
       },
       "width": 720
      },
      "replace_image": false,
      "id": "U8TADCPK80"
     },
     {
      "layer": 2000000,
      "title": "Transition",
      "type": "Mask",
      "position": 334.06666666666666,
      "start": 0,
      "end": 0.9583333333333212,
      "brightness": {
       "Points": [
        {
         "co": {
          "X": 1.0,
          "Y": 1.0
         },
         "handle_left": {
          "X": 0.5,
          "Y": 1.0
         },
         "handle_right": {
          "X": 0.5,
          "Y": 0.0
         },
         "handle_type": 0,
         "interpolation": 0
        },
        {
         "co": {
          "X": 29.0,
          "Y": -1.0
         },
         "handle_left": {
          "X": 0.5,
          "Y": 1.0
         },
         "handle_right": {
          "X": 0.5,
          "Y": 0.0
         },
         "handle_type": 0,
         "interpolation": 0
        }
       ]
      },
      "contrast": {
       "Points": [
        {
         "co": {
          "X": 1.0,
          "Y": 3.0
         },
         "handle_left": {
          "X": 0.5,
          "Y": 1.0
         },
         "handle_right": {
          "X": 0.5,
          "Y": 0.0
         },
         "handle_type": 0,
         "interpolation": 0
        },
        {
         "co": {
          "X": 29.0,
          "Y": 3.0
         },
         "handle_left": {
          "X": 0.5,
          "Y": 1.0
         },
         "handle_right": {
          "X": 0.5,
          "Y": 0.0
         },
         "handle_type": 0,
         "interpolation": 0
        }
       ]
      },
      "reader": {
       "acodec": "",
       "audio_bit_rate": 0,
       "audio_stream_index": -1,
       "audio_timebase": {
        "den": 1,
        "num": 1
       },
       "channel_layout": 4,
       "channels": 0,
       "display_ratio": {
        "den": 4,
        "num": 5
       },
       "duration": 3600.0,
       "file_size": "5832000",
       "fps": {
        "den": 1,
        "num": 30
       },
       "has_audio": false,
       "has_single_image": true,
       "has_video": true,
       "height": 576,
       "interlaced_frame": false,
       "metadata": {},
       "path": "@transitions/common/fade.svg",
       "pixel_format": -1,
       "pixel_ratio": {
        "den": 1,
        "num": 1
       },
       "sample_rate": 0,
       "top_field_first": true,
       "type": "QtImageReader",
       "vcodec": "",
       "video_bit_rate": 0,
       "video_length": "108000",
       "video_stream_index": -1,
       "video_timebase": {
        "den": 30,
        "num": 1
       },
       "width": 720
      },
      "replace_image": false,
      "id": "MJ858I17GB"
     },
     {
      "layer": 2000000,
      "title": "Transition",
      "type": "Mask",
      "position": 339.53333333333336,
      "start": 0,
      "end": 0.9583333333333212,
      "brightness": {
       "Points": [
        {
         "co": {
          "X": 1.0,
          "Y": -1.0
         },
         "handle_left": {
          "X": 0.5,
          "Y": 1.0
         },
         "handle_right": {
          "X": 0.5,
          "Y": 0.0
         },
         "handle_type": 0,
         "interpolation": 0
        },
        {
         "co": {
          "X": 29.0,
          "Y": 1.0
         },
         "handle_left": {
          "X": 0.5,
          "Y": 1.0
         },
         "handle_right": {
          "X": 0.5,
          "Y": 0.0
         },
         "handle_type": 0,
         "interpolation": 0
        }
       ]
      },
      "contrast": {
       "Points": [
        {
         "co": {
          "X": 1.0,
          "Y": 3.0
         },
         "handle_left": {
          "X": 0.5,
          "Y": 1.0
         },
         "handle_right": {
          "X": 0.5,
          "Y": 0.0
         },
         "handle_type": 0,
         "interpolation": 0
        },
        {
         "co": {
          "X": 29.0,
          "Y": 3.0
         },
         "handle_left": {
          "X": 0.5,
          "Y": 1.0
         },
         "handle_right": {
          "X": 0.5,
          "Y": 0.0
         },
         "handle_type": 0,
         "interpolation": 0
        }
       ]
      },
      "reader": {
       "acodec": "",
       "audio_bit_rate": 0,
       "audio_stream_index": -1,
       "audio_timebase": {
        "den": 1,
        "num": 1
       },
       "channel_layout": 4,
       "channels": 0,
       "display_ratio": {
        "den": 4,
        "num": 5
       },
       "duration": 3600.0,
       "file_size": "5832000",
       "fps": {
        "den": 1,
        "num": 30
       },
       "has_audio": false,
       "has_single_image": true,
       "has_video": true,
       "height": 576,
       "interlaced_frame": false,
       "metadata": {},
       "path": "@transitions/common/fade.svg",
       "pixel_format": -1,
       "pixel_ratio": {
        "den": 1,
        "num": 1
       },
       "sample_rate": 0,
       "top_field_first": true,
       "type": "QtImageReader",
       "vcodec": "",
       "video_bit_rate": 0,
       "video_length": "108000",
       "video_stream_index": -1,
       "video_timebase": {
        "den": 30,
        "num": 1
       },
       "width": 720
      },
      "replace_image": false,
      "id": "BRY9NYJBVJ"
     },
     {
      "layer": 3000000,
      "title": "Transition",
      "type": "Mask",
      "position": 342.3333333333333,
      "start": 0,
      "end": 0.9583333333333212,
      "brightness": {
       "Points": [
        {
         "co": {
          "X": 1.0,
          "Y": -1.0
         },
         "handle_left": {
          "X": 0.5,
          "Y": 1.0
         },
         "handle_right": {
          "X": 0.5,
          "Y": 0.0
         },
         "handle_type": 0,
         "interpolation": 0
        },
        {
         "co": {
          "X": 29.0,
          "Y": 1.0
         },
         "handle_left": {
          "X": 0.5,
          "Y": 1.0
         },
         "handle_right": {
          "X": 0.5,
          "Y": 0.0
         },
         "handle_type": 0,
         "interpolation": 0
        }
       ]
      },
      "contrast": {
       "Points": [
        {
         "co": {
          "X": 1.0,
          "Y": 3.0
         },
         "handle_left": {
          "X": 0.5,
          "Y": 1.0
         },
         "handle_right": {
          "X": 0.5,
          "Y": 0.0
         },
         "handle_type": 0,
         "interpolation": 0
        },
        {
         "co": {
          "X": 29.0,
          "Y": 3.0
         },
         "handle_left": {
          "X": 0.5,
          "Y": 1.0
         },
         "handle_right": {
          "X": 0.5,
          "Y": 0.0
         },
         "handle_type": 0,
         "interpolation": 0
        }
       ]
      },
      "reader": {
       "acodec": "",
       "audio_bit_rate": 0,
       "audio_stream_index": -1,
       "audio_timebase": {
        "den": 1,
        "num": 1
       },
       "channel_layout": 4,
       "channels": 0,
       "display_ratio": {
        "den": 4,
        "num": 5
       },
       "duration": 3600.0,
       "file_size": "5832000",
       "fps": {
        "den": 1,
        "num": 30
       },
       "has_audio": false,
       "has_single_image": true,
       "has_video": true,
       "height": 576,
       "interlaced_frame": false,
       "metadata": {},
       "path": "@transitions/common/fade.svg",
       "pixel_format": -1,
       "pixel_ratio": {
        "den": 1,
        "num": 1
       },
       "sample_rate": 0,
       "top_field_first": true,
       "type": "QtImageReader",
       "vcodec": "",
       "video_bit_rate": 0,
       "video_length": "108000",
       "video_stream_index": -1,
       "video_timebase": {
        "den": 30,
        "num": 1
       },
       "width": 720
      },
      "replace_image": false,
      "id": "S7KO8U24VG"
     },
     {
      "layer": 2000000,
      "title": "Transition",
      "type": "Mask",
      "position": 350.1,
      "start": 0,
      "end": 0.9583333333333212,
      "brightness": {
       "Points": [
        {
         "co": {
          "X": 1.0,
          "Y": 1.0
         },
         "handle_left": {
          "X": 0.5,
          "Y": 1.0
         },
         "handle_right": {
          "X": 0.5,
          "Y": 0.0
         },
         "handle_type": 0,
         "interpolation": 0
        },
        {
         "co": {
          "X": 29.0,
          "Y": -1.0
         },
         "handle_left": {
          "X": 0.5,
          "Y": 1.0
         },
         "handle_right": {
          "X": 0.5,
          "Y": 0.0
         },
         "handle_type": 0,
         "interpolation": 0
        }
       ]
      },
      "contrast": {
       "Points": [
        {
         "co": {
          "X": 1.0,
          "Y": 3.0
         },
         "handle_left": {
          "X": 0.5,
          "Y": 1.0
         },
         "handle_right": {
          "X": 0.5,
          "Y": 0.0
         },
         "handle_type": 0,
         "interpolation": 0
        },
        {
         "co": {
          "X": 29.0,
          "Y": 3.0
         },
         "handle_left": {
          "X": 0.5,
          "Y": 1.0
         },
         "handle_right": {
          "X": 0.5,
          "Y": 0.0
         },
         "handle_type": 0,
         "interpolation": 0
        }
       ]
      },
      "reader": {
       "acodec": "",
       "audio_bit_rate": 0,
       "audio_stream_index": -1,
       "audio_timebase": {
        "den": 1,
        "num": 1
       },
       "channel_layout": 4,
       "channels": 0,
       "display_ratio": {
        "den": 4,
        "num": 5
       },
       "duration": 3600.0,
       "file_size": "5832000",
       "fps": {
        "den": 1,
        "num": 30
       },
       "has_audio": false,
       "has_single_image": true,
       "has_video": true,
       "height": 576,
       "interlaced_frame": false,
       "metadata": {},
       "path": "@transitions/common/fade.svg",
       "pixel_format": -1,
       "pixel_ratio": {
        "den": 1,
        "num": 1
       },
       "sample_rate": 0,
       "top_field_first": true,
       "type": "QtImageReader",
       "vcodec": "",
       "video_bit_rate": 0,
       "video_length": "108000",
       "video_stream_index": -1,
       "video_timebase": {
        "den": 30,
        "num": 1
       },
       "width": 720
      },
      "replace_image": false,
      "id": "5AV58SED81"
     },
     {
      "layer": 1000000,
      "title": "Transition",
      "type": "Mask",
      "position": 349.46666666666664,
      "start": 0,
      "end": 0.9583333333333212,
      "brightness": {
       "Points": [
        {
         "co": {
          "X": 1.0,
          "Y": -1.0
         },
         "handle_left": {
          "X": 0.5,
          "Y": 1.0
         },
         "handle_right": {
          "X": 0.5,
          "Y": 0.0
         },
         "handle_type": 0,
         "interpolation": 0
        },
        {
         "co": {
          "X": 29.0,
          "Y": 1.0
         },
         "handle_left": {
          "X": 0.5,
          "Y": 1.0
         },
         "handle_right": {
          "X": 0.5,
          "Y": 0.0
         },
         "handle_type": 0,
         "interpolation": 0
        }
       ]
      },
      "contrast": {
       "Points": [
        {
         "co": {
          "X": 1.0,
          "Y": 3.0
         },
         "handle_left": {
          "X": 0.5,
          "Y": 1.0
         },
         "handle_right": {
          "X": 0.5,
          "Y": 0.0
         },
         "handle_type": 0,
         "interpolation": 0
        },
        {
         "co": {
          "X": 29.0,
          "Y": 3.0
         },
         "handle_left": {
          "X": 0.5,
          "Y": 1.0
         },
         "handle_right": {
          "X": 0.5,
          "Y": 0.0
         },
         "handle_type": 0,
         "interpolation": 0
        }
       ]
      },
      "reader": {
       "acodec": "",
       "audio_bit_rate": 0,
       "audio_stream_index": -1,
       "audio_timebase": {
        "den": 1,
        "num": 1
       },
       "channel_layout": 4,
       "channels": 0,
       "display_ratio": {
        "den": 4,
        "num": 5
       },
       "duration": 3600.0,
       "file_size": "5832000",
       "fps": {
        "den": 1,
        "num": 30
       },
       "has_audio": false,
       "has_single_image": true,
       "has_video": true,
       "height": 576,
       "interlaced_frame": false,
       "metadata": {},
       "path": "@transitions/common/fade.svg",
       "pixel_format": -1,
       "pixel_ratio": {
        "den": 1,
        "num": 1
       },
       "sample_rate": 0,
       "top_field_first": true,
       "type": "QtImageReader",
       "vcodec": "",
       "video_bit_rate": 0,
       "video_length": "108000",
       "video_stream_index": -1,
       "video_timebase": {
        "den": 30,
        "num": 1
       },
       "width": 720
      },
      "replace_image": false,
      "id": "8JGOS2299B"
     },
     {
      "layer": 2000000,
      "title": "Transition",
      "type": "Mask",
      "position": 351.8666666666667,
      "start": 0,
      "end": 0.9583333333333212,
      "brightness": {
       "Points": [
        {
         "co": {
          "X": 1.0,
          "Y": -1.0
         },
         "handle_left": {
          "X": 0.5,
          "Y": 1.0
         },
         "handle_right": {
          "X": 0.5,
          "Y": 0.0
         },
         "handle_type": 0,
         "interpolation": 0
        },
        {
         "co": {
          "X": 29.0,
          "Y": 1.0
         },
         "handle_left": {
          "X": 0.5,
          "Y": 1.0
         },
         "handle_right": {
          "X": 0.5,
          "Y": 0.0
         },
         "handle_type": 0,
         "interpolation": 0
        }
       ]
      },
      "contrast": {
       "Points": [
        {
         "co": {
          "X": 1.0,
          "Y": 3.0
         },
         "handle_left": {
          "X": 0.5,
          "Y": 1.0
         },
         "handle_right": {
          "X": 0.5,
          "Y": 0.0
         },
         "handle_type": 0,
         "interpolation": 0
        },
        {
         "co": {
          "X": 29.0,
          "Y": 3.0
         },
         "handle_left": {
          "X": 0.5,
          "Y": 1.0
         },
         "handle_right": {
          "X": 0.5,
          "Y": 0.0
         },
         "handle_type": 0,
         "interpolation": 0
        }
       ]
      },
      "reader": {
       "acodec": "",
       "audio_bit_rate": 0,
       "audio_stream_index": -1,
       "audio_timebase": {
        "den": 1,
        "num": 1
       },
       "channel_layout": 4,
       "channels": 0,
       "display_ratio": {
        "den": 4,
        "num": 5
       },
       "duration": 3600.0,
       "file_size": "5832000",
       "fps": {
        "den": 1,
        "num": 30
       },
       "has_audio": false,
       "has_single_image": true,
       "has_video": true,
       "height": 576,
       "interlaced_frame": false,
       "metadata": {},
       "path": "@transitions/common/fade.svg",
       "pixel_format": -1,
       "pixel_ratio": {
        "den": 1,
        "num": 1
       },
       "sample_rate": 0,
       "top_field_first": true,
       "type": "QtImageReader",
       "vcodec": "",
       "video_bit_rate": 0,
       "video_length": "108000",
       "video_stream_index": -1,
       "video_timebase": {
        "den": 30,
        "num": 1
       },
       "width": 720
      },
      "replace_image": false,
      "id": "5F68C2C237"
     },
     {
      "layer": 1000000,
      "title": "Transition",
      "type": "Mask",
      "position": 352.26666666666665,
      "start": 0,
      "end": 0.9583333333333212,
      "brightness": {
       "Points": [
        {
         "co": {
          "X": 1.0,
          "Y": 1.0
         },
         "handle_left": {
          "X": 0.5,
          "Y": 1.0
         },
         "handle_right": {
          "X": 0.5,
          "Y": 0.0
         },
         "handle_type": 0,
         "interpolation": 0
        },
        {
         "co": {
          "X": 29.0,
          "Y": -1.0
         },
         "handle_left": {
          "X": 0.5,
          "Y": 1.0
         },
         "handle_right": {
          "X": 0.5,
          "Y": 0.0
         },
         "handle_type": 0,
         "interpolation": 0
        }
       ]
      },
      "contrast": {
       "Points": [
        {
         "co": {
          "X": 1.0,
          "Y": 3.0
         },
         "handle_left": {
          "X": 0.5,
          "Y": 1.0
         },
         "handle_right": {
          "X": 0.5,
          "Y": 0.0
         },
         "handle_type": 0,
         "interpolation": 0
        },
        {
         "co": {
          "X": 29.0,
          "Y": 3.0
         },
         "handle_left": {
          "X": 0.5,
          "Y": 1.0
         },
         "handle_right": {
          "X": 0.5,
          "Y": 0.0
         },
         "handle_type": 0,
         "interpolation": 0
        }
       ]
      },
      "reader": {
       "acodec": "",
       "audio_bit_rate": 0,
       "audio_stream_index": -1,
       "audio_timebase": {
        "den": 1,
        "num": 1
       },
       "channel_layout": 4,
       "channels": 0,
       "display_ratio": {
        "den": 4,
        "num": 5
       },
       "duration": 3600.0,
       "file_size": "5832000",
       "fps": {
        "den": 1,
        "num": 30
       },
       "has_audio": false,
       "has_single_image": true,
       "has_video": true,
       "height": 576,
       "interlaced_frame": false,
       "metadata": {},
       "path": "@transitions/common/fade.svg",
       "pixel_format": -1,
       "pixel_ratio": {
        "den": 1,
        "num": 1
       },
       "sample_rate": 0,
       "top_field_first": true,
       "type": "QtImageReader",
       "vcodec": "",
       "video_bit_rate": 0,
       "video_length": "108000",
       "video_stream_index": -1,
       "video_timebase": {
        "den": 30,
        "num": 1
       },
       "width": 720
      },
      "replace_image": false,
      "id": "77AZRML20F"
     },
     {
      "layer": 3000000,
      "title": "Transition",
      "type": "Mask",
      "position": 353.6,
      "start": 0,
      "end": 0.9583333333333212,
      "brightness": {
       "Points": [
        {
         "co": {
          "X": 1.0,
          "Y": 1.0
         },
         "handle_left": {
          "X": 0.5,
          "Y": 1.0
         },
         "handle_right": {
          "X": 0.5,
          "Y": 0.0
         },
         "handle_type": 0,
         "interpolation": 0
        },
        {
         "co": {
          "X": 29.0,
          "Y": -1.0
         },
         "handle_left": {
          "X": 0.5,
          "Y": 1.0
         },
         "handle_right": {
          "X": 0.5,
          "Y": 0.0
         },
         "handle_type": 0,
         "interpolation": 0
        }
       ]
      },
      "contrast": {
       "Points": [
        {
         "co": {
          "X": 1.0,
          "Y": 3.0
         },
         "handle_left": {
          "X": 0.5,
          "Y": 1.0
         },
         "handle_right": {
          "X": 0.5,
          "Y": 0.0
         },
         "handle_type": 0,
         "interpolation": 0
        },
        {
         "co": {
          "X": 29.0,
          "Y": 3.0
         },
         "handle_left": {
          "X": 0.5,
          "Y": 1.0
         },
         "handle_right": {
          "X": 0.5,
          "Y": 0.0
         },
         "handle_type": 0,
         "interpolation": 0
        }
       ]
      },
      "reader": {
       "acodec": "",
       "audio_bit_rate": 0,
       "audio_stream_index": -1,
       "audio_timebase": {
        "den": 1,
        "num": 1
       },
       "channel_layout": 4,
       "channels": 0,
       "display_ratio": {
        "den": 4,
        "num": 5
       },
       "duration": 3600.0,
       "file_size": "5832000",
       "fps": {
        "den": 1,
        "num": 30
       },
       "has_audio": false,
       "has_single_image": true,
       "has_video": true,
       "height": 576,
       "interlaced_frame": false,
       "metadata": {},
       "path": "@transitions/common/fade.svg",
       "pixel_format": -1,
       "pixel_ratio": {
        "den": 1,
        "num": 1
       },
       "sample_rate": 0,
       "top_field_first": true,
       "type": "QtImageReader",
       "vcodec": "",
       "video_bit_rate": 0,
       "video_length": "108000",
       "video_stream_index": -1,
       "video_timebase": {
        "den": 30,
        "num": 1
       },
       "width": 720
      },
      "replace_image": false,
      "id": "MMJBZO0PWA"
     },
     {
      "layer": 2000000,
      "title": "Transition",
      "type": "Mask",
      "position": 354.56666666666666,
      "start": 0,
      "end": 0.9583333333333212,
      "brightness": {
       "Points": [
        {
         "co": {
          "X": 1.0,
          "Y": 1.0
         },
         "handle_left": {
          "X": 0.5,
          "Y": 1.0
         },
         "handle_right": {
          "X": 0.5,
          "Y": 0.0
         },
         "handle_type": 0,
         "interpolation": 0
        },
        {
         "co": {
          "X": 29.0,
          "Y": -1.0
         },
         "handle_left": {
          "X": 0.5,
          "Y": 1.0
         },
         "handle_right": {
          "X": 0.5,
          "Y": 0.0
         },
         "handle_type": 0,
         "interpolation": 0
        }
       ]
      },
      "contrast": {
       "Points": [
        {
         "co": {
          "X": 1.0,
          "Y": 3.0
         },
         "handle_left": {
          "X": 0.5,
          "Y": 1.0
         },
         "handle_right": {
          "X": 0.5,
          "Y": 0.0
         },
         "handle_type": 0,
         "interpolation": 0
        },
        {
         "co": {
          "X": 29.0,
          "Y": 3.0
         },
         "handle_left": {
          "X": 0.5,
          "Y": 1.0
         },
         "handle_right": {
          "X": 0.5,
          "Y": 0.0
         },
         "handle_type": 0,
         "interpolation": 0
        }
       ]
      },
      "reader": {
       "acodec": "",
       "audio_bit_rate": 0,
       "audio_stream_index": -1,
       "audio_timebase": {
        "den": 1,
        "num": 1
       },
       "channel_layout": 4,
       "channels": 0,
       "display_ratio": {
        "den": 4,
        "num": 5
       },
       "duration": 3600.0,
       "file_size": "5832000",
       "fps": {
        "den": 1,
        "num": 30
       },
       "has_audio": false,
       "has_single_image": true,
       "has_video": true,
       "height": 576,
       "interlaced_frame": false,
       "metadata": {},
       "path": "@transitions/common/fade.svg",
       "pixel_format": -1,
       "pixel_ratio": {
        "den": 1,
        "num": 1
       },
       "sample_rate": 0,
       "top_field_first": true,
       "type": "QtImageReader",
       "vcodec": "",
       "video_bit_rate": 0,
       "video_length": "108000",
       "video_stream_index": -1,
       "video_timebase": {
        "den": 30,
        "num": 1
       },
       "width": 720
      },
      "replace_image": false,
      "id": "5CAWVA5QQX"
     },
     {
      "layer": 3000000,
      "title": "Transition",
      "type": "Mask",
      "position": 361.3666666666667,
      "start": 0,
      "end": 0.9583333333333212,
      "brightness": {
       "Points": [
        {
         "co": {
          "X": 1.0,
          "Y": -1.0
         },
         "handle_left": {
          "X": 0.5,
          "Y": 1.0
         },
         "handle_right": {
          "X": 0.5,
          "Y": 0.0
         },
         "handle_type": 0,
         "interpolation": 0
        },
        {
         "co": {
          "X": 29.0,
          "Y": 1.0
         },
         "handle_left": {
          "X": 0.5,
          "Y": 1.0
         },
         "handle_right": {
          "X": 0.5,
          "Y": 0.0
         },
         "handle_type": 0,
         "interpolation": 0
        }
       ]
      },
      "contrast": {
       "Points": [
        {
         "co": {
          "X": 1.0,
          "Y": 3.0
         },
         "handle_left": {
          "X": 0.5,
          "Y": 1.0
         },
         "handle_right": {
          "X": 0.5,
          "Y": 0.0
         },
         "handle_type": 0,
         "interpolation": 0
        },
        {
         "co": {
          "X": 29.0,
          "Y": 3.0
         },
         "handle_left": {
          "X": 0.5,
          "Y": 1.0
         },
         "handle_right": {
          "X": 0.5,
          "Y": 0.0
         },
         "handle_type": 0,
         "interpolation": 0
        }
       ]
      },
      "reader": {
       "acodec": "",
       "audio_bit_rate": 0,
       "audio_stream_index": -1,
       "audio_timebase": {
        "den": 1,
        "num": 1
       },
       "channel_layout": 4,
       "channels": 0,
       "display_ratio": {
        "den": 4,
        "num": 5
       },
       "duration": 3600.0,
       "file_size": "5832000",
       "fps": {
        "den": 1,
        "num": 30
       },
       "has_audio": false,
       "has_single_image": true,
       "has_video": true,
       "height": 576,
       "interlaced_frame": false,
       "metadata": {},
       "path": "@transitions/common/fade.svg",
       "pixel_format": -1,
       "pixel_ratio": {
        "den": 1,
        "num": 1
       },
       "sample_rate": 0,
       "top_field_first": true,
       "type": "QtImageReader",
       "vcodec": "",
       "video_bit_rate": 0,
       "video_length": "108000",
       "video_stream_index": -1,
       "video_timebase": {
        "den": 30,
        "num": 1
       },
       "width": 720
      },
      "replace_image": false,
      "id": "DRFLC6XURC"
     },
     {
      "layer": 2000000,
      "title": "Transition",
      "type": "Mask",
      "position": 361.3666666666667,
      "start": 0,
      "end": 0.9583333333333212,
      "brightness": {
       "Points": [
        {
         "co": {
          "X": 1.0,
          "Y": -1.0
         },
         "handle_left": {
          "X": 0.5,
          "Y": 1.0
         },
         "handle_right": {
          "X": 0.5,
          "Y": 0.0
         },
         "handle_type": 0,
         "interpolation": 0
        },
        {
         "co": {
          "X": 29.0,
          "Y": 1.0
         },
         "handle_left": {
          "X": 0.5,
          "Y": 1.0
         },
         "handle_right": {
          "X": 0.5,
          "Y": 0.0
         },
         "handle_type": 0,
         "interpolation": 0
        }
       ]
      },
      "contrast": {
       "Points": [
        {
         "co": {
          "X": 1.0,
          "Y": 3.0
         },
         "handle_left": {
          "X": 0.5,
          "Y": 1.0
         },
         "handle_right": {
          "X": 0.5,
          "Y": 0.0
         },
         "handle_type": 0,
         "interpolation": 0
        },
        {
         "co": {
          "X": 29.0,
          "Y": 3.0
         },
         "handle_left": {
          "X": 0.5,
          "Y": 1.0
         },
         "handle_right": {
          "X": 0.5,
          "Y": 0.0
         },
         "handle_type": 0,
         "interpolation": 0
        }
       ]
      },
      "reader": {
       "acodec": "",
       "audio_bit_rate": 0,
       "audio_stream_index": -1,
       "audio_timebase": {
        "den": 1,
        "num": 1
       },
       "channel_layout": 4,
       "channels": 0,
       "display_ratio": {
        "den": 4,
        "num": 5
       },
       "duration": 3600.0,
       "file_size": "5832000",
       "fps": {
        "den": 1,
        "num": 30
       },
       "has_audio": false,
       "has_single_image": true,
       "has_video": true,
       "height": 576,
       "interlaced_frame": false,
       "metadata": {},
       "path": "@transitions/common/fade.svg",
       "pixel_format": -1,
       "pixel_ratio": {
        "den": 1,
        "num": 1
       },
       "sample_rate": 0,
       "top_field_first": true,
       "type": "QtImageReader",
       "vcodec": "",
       "video_bit_rate": 0,
       "video_length": "108000",
       "video_stream_index": -1,
       "video_timebase": {
        "den": 30,
        "num": 1
       },
       "width": 720
      },
      "replace_image": false,
      "id": "QF9XRRUE6J"
     },
     {
      "id": "FC1M7VZDMT",
      "layer": 1000000,
      "title": "Transition",
      "type": "Mask",
      "position": 366.1,
      "start": 0,
      "end": 0.8551973066132632,
      "brightness": {
       "Points": [
        {
         "co": {
          "X": 1.0,
          "Y": 1.0
         },
         "handle_left": {
          "X": 0.5,
          "Y": 1.0
         },
         "handle_right": {
          "X": 0.5,
          "Y": 0.0
         },
         "handle_type": 0,
         "interpolation": 0
        },
        {
         "co": {
          "X": 27.0,
          "Y": -1.0
         },
         "handle_left": {
          "X": 0.5,
          "Y": 1.0
         },
         "handle_right": {
          "X": 0.5,
          "Y": 0.0
         },
         "handle_type": 0,
         "interpolation": 0
        }
       ]
      },
      "contrast": {
       "Points": [
        {
         "co": {
          "X": 1.0,
          "Y": 3.0
         },
         "handle_left": {
          "X": 0.5,
          "Y": 1.0
         },
         "handle_right": {
          "X": 0.5,
          "Y": 0.0
         },
         "handle_type": 0,
         "interpolation": 0
        }
       ]
      },
      "reader": {
       "acodec": "",
       "audio_bit_rate": 0,
       "audio_stream_index": -1,
       "audio_timebase": {
        "den": 1,
        "num": 1
       },
       "channel_layout": 4,
       "channels": 0,
       "display_ratio": {
        "den": 4,
        "num": 5
       },
       "duration": 3600.0,
       "file_size": "5832000",
       "fps": {
        "den": 1,
        "num": 30
       },
       "has_audio": false,
       "has_single_image": true,
       "has_video": true,
       "height": 576,
       "interlaced_frame": false,
       "metadata": {},
       "path": "@transitions/common/fade.svg",
       "pixel_format": -1,
       "pixel_ratio": {
        "den": 1,
        "num": 1
       },
       "sample_rate": 0,
       "top_field_first": true,
       "type": "QtImageReader",
       "vcodec": "",
       "video_bit_rate": 0,
       "video_length": "108000",
       "video_stream_index": -1,
       "video_timebase": {
        "den": 30,
        "num": 1
       },
       "width": 720
      },
      "replace_image": false
     },
     {
      "layer": 2000000,
      "title": "Transition",
      "type": "Mask",
      "position": 367.93333333333334,
      "start": 0,
      "end": 0.9583333333333212,
      "brightness": {
       "Points": [
        {
         "co": {
          "X": 1.0,
          "Y": 1.0
         },
         "handle_left": {
          "X": 0.5,
          "Y": 1.0
         },
         "handle_right": {
          "X": 0.5,
          "Y": 0.0
         },
         "handle_type": 0,
         "interpolation": 0
        },
        {
         "co": {
          "X": 29.0,
          "Y": -1.0
         },
         "handle_left": {
          "X": 0.5,
          "Y": 1.0
         },
         "handle_right": {
          "X": 0.5,
          "Y": 0.0
         },
         "handle_type": 0,
         "interpolation": 0
        }
       ]
      },
      "contrast": {
       "Points": [
        {
         "co": {
          "X": 1.0,
          "Y": 3.0
         },
         "handle_left": {
          "X": 0.5,
          "Y": 1.0
         },
         "handle_right": {
          "X": 0.5,
          "Y": 0.0
         },
         "handle_type": 0,
         "interpolation": 0
        },
        {
         "co": {
          "X": 29.0,
          "Y": 3.0
         },
         "handle_left": {
          "X": 0.5,
          "Y": 1.0
         },
         "handle_right": {
          "X": 0.5,
          "Y": 0.0
         },
         "handle_type": 0,
         "interpolation": 0
        }
       ]
      },
      "reader": {
       "acodec": "",
       "audio_bit_rate": 0,
       "audio_stream_index": -1,
       "audio_timebase": {
        "den": 1,
        "num": 1
       },
       "channel_layout": 4,
       "channels": 0,
       "display_ratio": {
        "den": 4,
        "num": 5
       },
       "duration": 3600.0,
       "file_size": "5832000",
       "fps": {
        "den": 1,
        "num": 30
       },
       "has_audio": false,
       "has_single_image": true,
       "has_video": true,
       "height": 576,
       "interlaced_frame": false,
       "metadata": {},
       "path": "@transitions/common/fade.svg",
       "pixel_format": -1,
       "pixel_ratio": {
        "den": 1,
        "num": 1
       },
       "sample_rate": 0,
       "top_field_first": true,
       "type": "QtImageReader",
       "vcodec": "",
       "video_bit_rate": 0,
       "video_length": "108000",
       "video_stream_index": -1,
       "video_timebase": {
        "den": 30,
        "num": 1
       },
       "width": 720
      },
      "replace_image": false,
      "id": "OHK6WN896H"
     },
     {
      "layer": 3000000,
      "title": "Transition",
      "type": "Mask",
      "position": 366.96666666666664,
      "start": 0,
      "end": 0.9583333333333212,
      "brightness": {
       "Points": [
        {
         "co": {
          "X": 1.0,
          "Y": 1.0
         },
         "handle_left": {
          "X": 0.5,
          "Y": 1.0
         },
         "handle_right": {
          "X": 0.5,
          "Y": 0.0
         },
         "handle_type": 0,
         "interpolation": 0
        },
        {
         "co": {
          "X": 29.0,
          "Y": -1.0
         },
         "handle_left": {
          "X": 0.5,
          "Y": 1.0
         },
         "handle_right": {
          "X": 0.5,
          "Y": 0.0
         },
         "handle_type": 0,
         "interpolation": 0
        }
       ]
      },
      "contrast": {
       "Points": [
        {
         "co": {
          "X": 1.0,
          "Y": 3.0
         },
         "handle_left": {
          "X": 0.5,
          "Y": 1.0
         },
         "handle_right": {
          "X": 0.5,
          "Y": 0.0
         },
         "handle_type": 0,
         "interpolation": 0
        },
        {
         "co": {
          "X": 29.0,
          "Y": 3.0
         },
         "handle_left": {
          "X": 0.5,
          "Y": 1.0
         },
         "handle_right": {
          "X": 0.5,
          "Y": 0.0
         },
         "handle_type": 0,
         "interpolation": 0
        }
       ]
      },
      "reader": {
       "acodec": "",
       "audio_bit_rate": 0,
       "audio_stream_index": -1,
       "audio_timebase": {
        "den": 1,
        "num": 1
       },
       "channel_layout": 4,
       "channels": 0,
       "display_ratio": {
        "den": 4,
        "num": 5
       },
       "duration": 3600.0,
       "file_size": "5832000",
       "fps": {
        "den": 1,
        "num": 30
       },
       "has_audio": false,
       "has_single_image": true,
       "has_video": true,
       "height": 576,
       "interlaced_frame": false,
       "metadata": {},
       "path": "@transitions/common/fade.svg",
       "pixel_format": -1,
       "pixel_ratio": {
        "den": 1,
        "num": 1
       },
       "sample_rate": 0,
       "top_field_first": true,
       "type": "QtImageReader",
       "vcodec": "",
       "video_bit_rate": 0,
       "video_length": "108000",
       "video_stream_index": -1,
       "video_timebase": {
        "den": 30,
        "num": 1
       },
       "width": 720
      },
      "replace_image": false,
      "id": "OA6OCOHDKK"
     },
     {
      "layer": 2000000,
      "title": "Transition",
      "type": "Mask",
      "position": 377.6,
      "start": 0,
      "end": 0.9583333333333212,
      "brightness": {
       "Points": [
        {
         "co": {
          "X": 1.0,
          "Y": -1.0
         },
         "handle_left": {
          "X": 0.5,
          "Y": 1.0
         },
         "handle_right": {
          "X": 0.5,
          "Y": 0.0
         },
         "handle_type": 0,
         "interpolation": 0
        },
        {
         "co": {
          "X": 29.0,
          "Y": 1.0
         },
         "handle_left": {
          "X": 0.5,
          "Y": 1.0
         },
         "handle_right": {
          "X": 0.5,
          "Y": 0.0
         },
         "handle_type": 0,
         "interpolation": 0
        }
       ]
      },
      "contrast": {
       "Points": [
        {
         "co": {
          "X": 1.0,
          "Y": 3.0
         },
         "handle_left": {
          "X": 0.5,
          "Y": 1.0
         },
         "handle_right": {
          "X": 0.5,
          "Y": 0.0
         },
         "handle_type": 0,
         "interpolation": 0
        },
        {
         "co": {
          "X": 29.0,
          "Y": 3.0
         },
         "handle_left": {
          "X": 0.5,
          "Y": 1.0
         },
         "handle_right": {
          "X": 0.5,
          "Y": 0.0
         },
         "handle_type": 0,
         "interpolation": 0
        }
       ]
      },
      "reader": {
       "acodec": "",
       "audio_bit_rate": 0,
       "audio_stream_index": -1,
       "audio_timebase": {
        "den": 1,
        "num": 1
       },
       "channel_layout": 4,
       "channels": 0,
       "display_ratio": {
        "den": 4,
        "num": 5
       },
       "duration": 3600.0,
       "file_size": "5832000",
       "fps": {
        "den": 1,
        "num": 30
       },
       "has_audio": false,
       "has_single_image": true,
       "has_video": true,
       "height": 576,
       "interlaced_frame": false,
       "metadata": {},
       "path": "@transitions/common/fade.svg",
       "pixel_format": -1,
       "pixel_ratio": {
        "den": 1,
        "num": 1
       },
       "sample_rate": 0,
       "top_field_first": true,
       "type": "QtImageReader",
       "vcodec": "",
       "video_bit_rate": 0,
       "video_length": "108000",
       "video_stream_index": -1,
       "video_timebase": {
        "den": 30,
        "num": 1
       },
       "width": 720
      },
      "replace_image": false,
      "id": "421OPHR9MK"
     },
     {
      "layer": 3000000,
      "title": "Transition",
      "type": "Mask",
      "position": 377.6,
      "start": 0,
      "end": 0.9583333333333212,
      "brightness": {
       "Points": [
        {
         "co": {
          "X": 1.0,
          "Y": -1.0
         },
         "handle_left": {
          "X": 0.5,
          "Y": 1.0
         },
         "handle_right": {
          "X": 0.5,
          "Y": 0.0
         },
         "handle_type": 0,
         "interpolation": 0
        },
        {
         "co": {
          "X": 29.0,
          "Y": 1.0
         },
         "handle_left": {
          "X": 0.5,
          "Y": 1.0
         },
         "handle_right": {
          "X": 0.5,
          "Y": 0.0
         },
         "handle_type": 0,
         "interpolation": 0
        }
       ]
      },
      "contrast": {
       "Points": [
        {
         "co": {
          "X": 1.0,
          "Y": 3.0
         },
         "handle_left": {
          "X": 0.5,
          "Y": 1.0
         },
         "handle_right": {
          "X": 0.5,
          "Y": 0.0
         },
         "handle_type": 0,
         "interpolation": 0
        },
        {
         "co": {
          "X": 29.0,
          "Y": 3.0
         },
         "handle_left": {
          "X": 0.5,
          "Y": 1.0
         },
         "handle_right": {
          "X": 0.5,
          "Y": 0.0
         },
         "handle_type": 0,
         "interpolation": 0
        }
       ]
      },
      "reader": {
       "acodec": "",
       "audio_bit_rate": 0,
       "audio_stream_index": -1,
       "audio_timebase": {
        "den": 1,
        "num": 1
       },
       "channel_layout": 4,
       "channels": 0,
       "display_ratio": {
        "den": 4,
        "num": 5
       },
       "duration": 3600.0,
       "file_size": "5832000",
       "fps": {
        "den": 1,
        "num": 30
       },
       "has_audio": false,
       "has_single_image": true,
       "has_video": true,
       "height": 576,
       "interlaced_frame": false,
       "metadata": {},
       "path": "@transitions/common/fade.svg",
       "pixel_format": -1,
       "pixel_ratio": {
        "den": 1,
        "num": 1
       },
       "sample_rate": 0,
       "top_field_first": true,
       "type": "QtImageReader",
       "vcodec": "",
       "video_bit_rate": 0,
       "video_length": "108000",
       "video_stream_index": -1,
       "video_timebase": {
        "den": 30,
        "num": 1
       },
       "width": 720
      },
      "replace_image": false,
      "id": "H386U9MYCS"
     },
     {
      "id": "DEQDSRBIJG",
      "layer": 1000000,
      "title": "Transition",
      "type": "Mask",
      "position": 381.3666666666667,
      "start": 0,
      "end": 0.5666666666666629,
      "brightness": {
       "Points": [
        {
         "co": {
          "X": 1.0,
          "Y": 1.0
         },
         "handle_left": {
          "X": 0.5,
          "Y": 1.0
         },
         "handle_right": {
          "X": 0.5,
          "Y": 0.0
         },
         "handle_type": 0,
         "interpolation": 0
        },
        {
         "co": {
          "X": 18.0,
          "Y": -1.0
         },
         "handle_left": {
          "X": 0.5,
          "Y": 1.0
         },
         "handle_right": {
          "X": 0.5,
          "Y": 0.0
         },
         "handle_type": 0,
         "interpolation": 0
        }
       ]
      },
      "contrast": {
       "Points": [
        {
         "co": {
          "X": 1.0,
          "Y": 3.0
         },
         "handle_left": {
          "X": 0.5,
          "Y": 1.0
         },
         "handle_right": {
          "X": 0.5,
          "Y": 0.0
         },
         "handle_type": 0,
         "interpolation": 0
        }
       ]
      },
      "reader": {
       "acodec": "",
       "audio_bit_rate": 0,
       "audio_stream_index": -1,
       "audio_timebase": {
        "den": 1,
        "num": 1
       },
       "channel_layout": 4,
       "channels": 0,
       "display_ratio": {
        "den": 4,
        "num": 5
       },
       "duration": 3600.0,
       "file_size": "5832000",
       "fps": {
        "den": 1,
        "num": 30
       },
       "has_audio": false,
       "has_single_image": true,
       "has_video": true,
       "height": 576,
       "interlaced_frame": false,
       "metadata": {},
       "path": "@transitions/common/fade.svg",
       "pixel_format": -1,
       "pixel_ratio": {
        "den": 1,
        "num": 1
       },
       "sample_rate": 0,
       "top_field_first": true,
       "type": "QtImageReader",
       "vcodec": "",
       "video_bit_rate": 0,
       "video_length": "108000",
       "video_stream_index": -1,
       "video_timebase": {
        "den": 30,
        "num": 1
       },
       "width": 720
      },
      "replace_image": false
     },
     {
      "layer": 3000000,
      "title": "Transition",
      "type": "Mask",
      "position": 381.93333333333334,
      "start": 0,
      "end": 0.9583333333333212,
      "brightness": {
       "Points": [
        {
         "co": {
          "X": 1.0,
          "Y": 1.0
         },
         "handle_left": {
          "X": 0.5,
          "Y": 1.0
         },
         "handle_right": {
          "X": 0.5,
          "Y": 0.0
         },
         "handle_type": 0,
         "interpolation": 0
        },
        {
         "co": {
          "X": 29.0,
          "Y": -1.0
         },
         "handle_left": {
          "X": 0.5,
          "Y": 1.0
         },
         "handle_right": {
          "X": 0.5,
          "Y": 0.0
         },
         "handle_type": 0,
         "interpolation": 0
        }
       ]
      },
      "contrast": {
       "Points": [
        {
         "co": {
          "X": 1.0,
          "Y": 3.0
         },
         "handle_left": {
          "X": 0.5,
          "Y": 1.0
         },
         "handle_right": {
          "X": 0.5,
          "Y": 0.0
         },
         "handle_type": 0,
         "interpolation": 0
        },
        {
         "co": {
          "X": 29.0,
          "Y": 3.0
         },
         "handle_left": {
          "X": 0.5,
          "Y": 1.0
         },
         "handle_right": {
          "X": 0.5,
          "Y": 0.0
         },
         "handle_type": 0,
         "interpolation": 0
        }
       ]
      },
      "reader": {
       "acodec": "",
       "audio_bit_rate": 0,
       "audio_stream_index": -1,
       "audio_timebase": {
        "den": 1,
        "num": 1
       },
       "channel_layout": 4,
       "channels": 0,
       "display_ratio": {
        "den": 4,
        "num": 5
       },
       "duration": 3600.0,
       "file_size": "5832000",
       "fps": {
        "den": 1,
        "num": 30
       },
       "has_audio": false,
       "has_single_image": true,
       "has_video": true,
       "height": 576,
       "interlaced_frame": false,
       "metadata": {},
       "path": "@transitions/common/fade.svg",
       "pixel_format": -1,
       "pixel_ratio": {
        "den": 1,
        "num": 1
       },
       "sample_rate": 0,
       "top_field_first": true,
       "type": "QtImageReader",
       "vcodec": "",
       "video_bit_rate": 0,
       "video_length": "108000",
       "video_stream_index": -1,
       "video_timebase": {
        "den": 30,
        "num": 1
       },
       "width": 720
      },
      "replace_image": false,
      "id": "DFSNRTEII0"
     },
     {
      "layer": 2000000,
      "title": "Transition",
      "type": "Mask",
      "position": 382.6666666666667,
      "start": 0,
      "end": 0.9583333333333212,
      "brightness": {
       "Points": [
        {
         "co": {
          "X": 1.0,
          "Y": 1.0
         },
         "handle_left": {
          "X": 0.5,
          "Y": 1.0
         },
         "handle_right": {
          "X": 0.5,
          "Y": 0.0
         },
         "handle_type": 0,
         "interpolation": 0
        },
        {
         "co": {
          "X": 29.0,
          "Y": -1.0
         },
         "handle_left": {
          "X": 0.5,
          "Y": 1.0
         },
         "handle_right": {
          "X": 0.5,
          "Y": 0.0
         },
         "handle_type": 0,
         "interpolation": 0
        }
       ]
      },
      "contrast": {
       "Points": [
        {
         "co": {
          "X": 1.0,
          "Y": 3.0
         },
         "handle_left": {
          "X": 0.5,
          "Y": 1.0
         },
         "handle_right": {
          "X": 0.5,
          "Y": 0.0
         },
         "handle_type": 0,
         "interpolation": 0
        },
        {
         "co": {
          "X": 29.0,
          "Y": 3.0
         },
         "handle_left": {
          "X": 0.5,
          "Y": 1.0
         },
         "handle_right": {
          "X": 0.5,
          "Y": 0.0
         },
         "handle_type": 0,
         "interpolation": 0
        }
       ]
      },
      "reader": {
       "acodec": "",
       "audio_bit_rate": 0,
       "audio_stream_index": -1,
       "audio_timebase": {
        "den": 1,
        "num": 1
       },
       "channel_layout": 4,
       "channels": 0,
       "display_ratio": {
        "den": 4,
        "num": 5
       },
       "duration": 3600.0,
       "file_size": "5832000",
       "fps": {
        "den": 1,
        "num": 30
       },
       "has_audio": false,
       "has_single_image": true,
       "has_video": true,
       "height": 576,
       "interlaced_frame": false,
       "metadata": {},
       "path": "@transitions/common/fade.svg",
       "pixel_format": -1,
       "pixel_ratio": {
        "den": 1,
        "num": 1
       },
       "sample_rate": 0,
       "top_field_first": true,
       "type": "QtImageReader",
       "vcodec": "",
       "video_bit_rate": 0,
       "video_length": "108000",
       "video_stream_index": -1,
       "video_timebase": {
        "den": 30,
        "num": 1
       },
       "width": 720
      },
      "replace_image": false,
      "id": "P8FSUID5CI"
     },
     {
      "layer": 3000000,
      "title": "Transition",
      "type": "Mask",
      "position": 389.76666666666665,
      "start": 0,
      "end": 0.9583333333333212,
      "brightness": {
       "Points": [
        {
         "co": {
          "X": 1.0,
          "Y": -1.0
         },
         "handle_left": {
          "X": 0.5,
          "Y": 1.0
         },
         "handle_right": {
          "X": 0.5,
          "Y": 0.0
         },
         "handle_type": 0,
         "interpolation": 0
        },
        {
         "co": {
          "X": 29.0,
          "Y": 1.0
         },
         "handle_left": {
          "X": 0.5,
          "Y": 1.0
         },
         "handle_right": {
          "X": 0.5,
          "Y": 0.0
         },
         "handle_type": 0,
         "interpolation": 0
        }
       ]
      },
      "contrast": {
       "Points": [
        {
         "co": {
          "X": 1.0,
          "Y": 3.0
         },
         "handle_left": {
          "X": 0.5,
          "Y": 1.0
         },
         "handle_right": {
          "X": 0.5,
          "Y": 0.0
         },
         "handle_type": 0,
         "interpolation": 0
        },
        {
         "co": {
          "X": 29.0,
          "Y": 3.0
         },
         "handle_left": {
          "X": 0.5,
          "Y": 1.0
         },
         "handle_right": {
          "X": 0.5,
          "Y": 0.0
         },
         "handle_type": 0,
         "interpolation": 0
        }
       ]
      },
      "reader": {
       "acodec": "",
       "audio_bit_rate": 0,
       "audio_stream_index": -1,
       "audio_timebase": {
        "den": 1,
        "num": 1
       },
       "channel_layout": 4,
       "channels": 0,
       "display_ratio": {
        "den": 4,
        "num": 5
       },
       "duration": 3600.0,
       "file_size": "5832000",
       "fps": {
        "den": 1,
        "num": 30
       },
       "has_audio": false,
       "has_single_image": true,
       "has_video": true,
       "height": 576,
       "interlaced_frame": false,
       "metadata": {},
       "path": "@transitions/common/fade.svg",
       "pixel_format": -1,
       "pixel_ratio": {
        "den": 1,
        "num": 1
       },
       "sample_rate": 0,
       "top_field_first": true,
       "type": "QtImageReader",
       "vcodec": "",
       "video_bit_rate": 0,
       "video_length": "108000",
       "video_stream_index": -1,
       "video_timebase": {
        "den": 30,
        "num": 1
       },
       "width": 720
      },
      "replace_image": false,
      "id": "VBQ9Z01OL0"
     },
     {
      "layer": 2000000,
      "title": "Transition",
      "type": "Mask",
      "position": 389.76666666666665,
      "start": 0,
      "end": 0.9583333333333212,
      "brightness": {
       "Points": [
        {
         "co": {
          "X": 1.0,
          "Y": -1.0
         },
         "handle_left": {
          "X": 0.5,
          "Y": 1.0
         },
         "handle_right": {
          "X": 0.5,
          "Y": 0.0
         },
         "handle_type": 0,
         "interpolation": 0
        },
        {
         "co": {
          "X": 29.0,
          "Y": 1.0
         },
         "handle_left": {
          "X": 0.5,
          "Y": 1.0
         },
         "handle_right": {
          "X": 0.5,
          "Y": 0.0
         },
         "handle_type": 0,
         "interpolation": 0
        }
       ]
      },
      "contrast": {
       "Points": [
        {
         "co": {
          "X": 1.0,
          "Y": 3.0
         },
         "handle_left": {
          "X": 0.5,
          "Y": 1.0
         },
         "handle_right": {
          "X": 0.5,
          "Y": 0.0
         },
         "handle_type": 0,
         "interpolation": 0
        },
        {
         "co": {
          "X": 29.0,
          "Y": 3.0
         },
         "handle_left": {
          "X": 0.5,
          "Y": 1.0
         },
         "handle_right": {
          "X": 0.5,
          "Y": 0.0
         },
         "handle_type": 0,
         "interpolation": 0
        }
       ]
      },
      "reader": {
       "acodec": "",
       "audio_bit_rate": 0,
       "audio_stream_index": -1,
       "audio_timebase": {
        "den": 1,
        "num": 1
       },
       "channel_layout": 4,
       "channels": 0,
       "display_ratio": {
        "den": 4,
        "num": 5
       },
       "duration": 3600.0,
       "file_size": "5832000",
       "fps": {
        "den": 1,
        "num": 30
       },
       "has_audio": false,
       "has_single_image": true,
       "has_video": true,
       "height": 576,
       "interlaced_frame": false,
       "metadata": {},
       "path": "@transitions/common/fade.svg",
       "pixel_format": -1,
       "pixel_ratio": {
        "den": 1,
        "num": 1
       },
       "sample_rate": 0,
       "top_field_first": true,
       "type": "QtImageReader",
       "vcodec": "",
       "video_bit_rate": 0,
       "video_length": "108000",
       "video_stream_index": -1,
       "video_timebase": {
        "den": 30,
        "num": 1
       },
       "width": 720
      },
      "replace_image": false,
      "id": "IEZZK69CXI"
     },
     {
      "layer": 1000000,
      "title": "Transition",
      "type": "Mask",
      "position": 401.3666666666667,
      "start": 0,
      "end": 0.9583333333333212,
      "brightness": {
       "Points": [
        {
         "co": {
          "X": 1.0,
          "Y": -1.0
         },
         "handle_left": {
          "X": 0.5,
          "Y": 1.0
         },
         "handle_right": {
          "X": 0.5,
          "Y": 0.0
         },
         "handle_type": 0,
         "interpolation": 0
        },
        {
         "co": {
          "X": 29.0,
          "Y": 1.0
         },
         "handle_left": {
          "X": 0.5,
          "Y": 1.0
         },
         "handle_right": {
          "X": 0.5,
          "Y": 0.0
         },
         "handle_type": 0,
         "interpolation": 0
        }
       ]
      },
      "contrast": {
       "Points": [
        {
         "co": {
          "X": 1.0,
          "Y": 3.0
         },
         "handle_left": {
          "X": 0.5,
          "Y": 1.0
         },
         "handle_right": {
          "X": 0.5,
          "Y": 0.0
         },
         "handle_type": 0,
         "interpolation": 0
        },
        {
         "co": {
          "X": 29.0,
          "Y": 3.0
         },
         "handle_left": {
          "X": 0.5,
          "Y": 1.0
         },
         "handle_right": {
          "X": 0.5,
          "Y": 0.0
         },
         "handle_type": 0,
         "interpolation": 0
        }
       ]
      },
      "reader": {
       "acodec": "",
       "audio_bit_rate": 0,
       "audio_stream_index": -1,
       "audio_timebase": {
        "den": 1,
        "num": 1
       },
       "channel_layout": 4,
       "channels": 0,
       "display_ratio": {
        "den": 4,
        "num": 5
       },
       "duration": 3600.0,
       "file_size": "5832000",
       "fps": {
        "den": 1,
        "num": 30
       },
       "has_audio": false,
       "has_single_image": true,
       "has_video": true,
       "height": 576,
       "interlaced_frame": false,
       "metadata": {},
       "path": "@transitions/common/fade.svg",
       "pixel_format": -1,
       "pixel_ratio": {
        "den": 1,
        "num": 1
       },
       "sample_rate": 0,
       "top_field_first": true,
       "type": "QtImageReader",
       "vcodec": "",
       "video_bit_rate": 0,
       "video_length": "108000",
       "video_stream_index": -1,
       "video_timebase": {
        "den": 30,
        "num": 1
       },
       "width": 720
      },
      "replace_image": false,
      "id": "GJ22WRRCCZ"
     },
     {
      "layer": 3000000,
      "title": "Transition",
      "type": "Mask",
      "position": 402.3333333333333,
      "start": 0,
      "end": 0.9583333333333212,
      "brightness": {
       "Points": [
        {
         "co": {
          "X": 1.0,
          "Y": 1.0
         },
         "handle_left": {
          "X": 0.5,
          "Y": 1.0
         },
         "handle_right": {
          "X": 0.5,
          "Y": 0.0
         },
         "handle_type": 0,
         "interpolation": 0
        },
        {
         "co": {
          "X": 29.0,
          "Y": -1.0
         },
         "handle_left": {
          "X": 0.5,
          "Y": 1.0
         },
         "handle_right": {
          "X": 0.5,
          "Y": 0.0
         },
         "handle_type": 0,
         "interpolation": 0
        }
       ]
      },
      "contrast": {
       "Points": [
        {
         "co": {
          "X": 1.0,
          "Y": 3.0
         },
         "handle_left": {
          "X": 0.5,
          "Y": 1.0
         },
         "handle_right": {
          "X": 0.5,
          "Y": 0.0
         },
         "handle_type": 0,
         "interpolation": 0
        },
        {
         "co": {
          "X": 29.0,
          "Y": 3.0
         },
         "handle_left": {
          "X": 0.5,
          "Y": 1.0
         },
         "handle_right": {
          "X": 0.5,
          "Y": 0.0
         },
         "handle_type": 0,
         "interpolation": 0
        }
       ]
      },
      "reader": {
       "acodec": "",
       "audio_bit_rate": 0,
       "audio_stream_index": -1,
       "audio_timebase": {
        "den": 1,
        "num": 1
       },
       "channel_layout": 4,
       "channels": 0,
       "display_ratio": {
        "den": 4,
        "num": 5
       },
       "duration": 3600.0,
       "file_size": "5832000",
       "fps": {
        "den": 1,
        "num": 30
       },
       "has_audio": false,
       "has_single_image": true,
       "has_video": true,
       "height": 576,
       "interlaced_frame": false,
       "metadata": {},
       "path": "@transitions/common/fade.svg",
       "pixel_format": -1,
       "pixel_ratio": {
        "den": 1,
        "num": 1
       },
       "sample_rate": 0,
       "top_field_first": true,
       "type": "QtImageReader",
       "vcodec": "",
       "video_bit_rate": 0,
       "video_length": "108000",
       "video_stream_index": -1,
       "video_timebase": {
        "den": 30,
        "num": 1
       },
       "width": 720
      },
      "replace_image": false,
      "id": "4P7MOTCP3S"
     },
     {
      "layer": 2000000,
      "title": "Transition",
      "type": "Mask",
      "position": 403.3,
      "start": 0,
      "end": 0.9583333333333212,
      "brightness": {
       "Points": [
        {
         "co": {
          "X": 1.0,
          "Y": 1.0
         },
         "handle_left": {
          "X": 0.5,
          "Y": 1.0
         },
         "handle_right": {
          "X": 0.5,
          "Y": 0.0
         },
         "handle_type": 0,
         "interpolation": 0
        },
        {
         "co": {
          "X": 29.0,
          "Y": -1.0
         },
         "handle_left": {
          "X": 0.5,
          "Y": 1.0
         },
         "handle_right": {
          "X": 0.5,
          "Y": 0.0
         },
         "handle_type": 0,
         "interpolation": 0
        }
       ]
      },
      "contrast": {
       "Points": [
        {
         "co": {
          "X": 1.0,
          "Y": 3.0
         },
         "handle_left": {
          "X": 0.5,
          "Y": 1.0
         },
         "handle_right": {
          "X": 0.5,
          "Y": 0.0
         },
         "handle_type": 0,
         "interpolation": 0
        },
        {
         "co": {
          "X": 29.0,
          "Y": 3.0
         },
         "handle_left": {
          "X": 0.5,
          "Y": 1.0
         },
         "handle_right": {
          "X": 0.5,
          "Y": 0.0
         },
         "handle_type": 0,
         "interpolation": 0
        }
       ]
      },
      "reader": {
       "acodec": "",
       "audio_bit_rate": 0,
       "audio_stream_index": -1,
       "audio_timebase": {
        "den": 1,
        "num": 1
       },
       "channel_layout": 4,
       "channels": 0,
       "display_ratio": {
        "den": 4,
        "num": 5
       },
       "duration": 3600.0,
       "file_size": "5832000",
       "fps": {
        "den": 1,
        "num": 30
       },
       "has_audio": false,
       "has_single_image": true,
       "has_video": true,
       "height": 576,
       "interlaced_frame": false,
       "metadata": {},
       "path": "@transitions/common/fade.svg",
       "pixel_format": -1,
       "pixel_ratio": {
        "den": 1,
        "num": 1
       },
       "sample_rate": 0,
       "top_field_first": true,
       "type": "QtImageReader",
       "vcodec": "",
       "video_bit_rate": 0,
       "video_length": "108000",
       "video_stream_index": -1,
       "video_timebase": {
        "den": 30,
        "num": 1
       },
       "width": 720
      },
      "replace_image": false,
      "id": "PGG0YMHOIW"
     },
     {
      "layer": 1000000,
      "title": "Transition",
      "type": "Mask",
      "position": 409.93333333333334,
      "start": 0,
      "end": 0.9583333333333212,
      "brightness": {
       "Points": [
        {
         "co": {
          "X": 1.0,
          "Y": 1.0
         },
         "handle_left": {
          "X": 0.5,
          "Y": 1.0
         },
         "handle_right": {
          "X": 0.5,
          "Y": 0.0
         },
         "handle_type": 0,
         "interpolation": 0
        },
        {
         "co": {
          "X": 29.0,
          "Y": -1.0
         },
         "handle_left": {
          "X": 0.5,
          "Y": 1.0
         },
         "handle_right": {
          "X": 0.5,
          "Y": 0.0
         },
         "handle_type": 0,
         "interpolation": 0
        }
       ]
      },
      "contrast": {
       "Points": [
        {
         "co": {
          "X": 1.0,
          "Y": 3.0
         },
         "handle_left": {
          "X": 0.5,
          "Y": 1.0
         },
         "handle_right": {
          "X": 0.5,
          "Y": 0.0
         },
         "handle_type": 0,
         "interpolation": 0
        },
        {
         "co": {
          "X": 29.0,
          "Y": 3.0
         },
         "handle_left": {
          "X": 0.5,
          "Y": 1.0
         },
         "handle_right": {
          "X": 0.5,
          "Y": 0.0
         },
         "handle_type": 0,
         "interpolation": 0
        }
       ]
      },
      "reader": {
       "acodec": "",
       "audio_bit_rate": 0,
       "audio_stream_index": -1,
       "audio_timebase": {
        "den": 1,
        "num": 1
       },
       "channel_layout": 4,
       "channels": 0,
       "display_ratio": {
        "den": 4,
        "num": 5
       },
       "duration": 3600.0,
       "file_size": "5832000",
       "fps": {
        "den": 1,
        "num": 30
       },
       "has_audio": false,
       "has_single_image": true,
       "has_video": true,
       "height": 576,
       "interlaced_frame": false,
       "metadata": {},
       "path": "@transitions/common/fade.svg",
       "pixel_format": -1,
       "pixel_ratio": {
        "den": 1,
        "num": 1
       },
       "sample_rate": 0,
       "top_field_first": true,
       "type": "QtImageReader",
       "vcodec": "",
       "video_bit_rate": 0,
       "video_length": "108000",
       "video_stream_index": -1,
       "video_timebase": {
        "den": 30,
        "num": 1
       },
       "width": 720
      },
      "replace_image": false,
      "id": "YM3R94HVH1"
     },
     {
      "layer": 2000000,
      "title": "Transition",
      "type": "Mask",
      "position": 415.26666666666665,
      "start": 0,
      "end": 0.9583333333333212,
      "brightness": {
       "Points": [
        {
         "co": {
          "X": 1.0,
          "Y": -1.0
         },
         "handle_left": {
          "X": 0.5,
          "Y": 1.0
         },
         "handle_right": {
          "X": 0.5,
          "Y": 0.0
         },
         "handle_type": 0,
         "interpolation": 0
        },
        {
         "co": {
          "X": 29.0,
          "Y": 1.0
         },
         "handle_left": {
          "X": 0.5,
          "Y": 1.0
         },
         "handle_right": {
          "X": 0.5,
          "Y": 0.0
         },
         "handle_type": 0,
         "interpolation": 0
        }
       ]
      },
      "contrast": {
       "Points": [
        {
         "co": {
          "X": 1.0,
          "Y": 3.0
         },
         "handle_left": {
          "X": 0.5,
          "Y": 1.0
         },
         "handle_right": {
          "X": 0.5,
          "Y": 0.0
         },
         "handle_type": 0,
         "interpolation": 0
        },
        {
         "co": {
          "X": 29.0,
          "Y": 3.0
         },
         "handle_left": {
          "X": 0.5,
          "Y": 1.0
         },
         "handle_right": {
          "X": 0.5,
          "Y": 0.0
         },
         "handle_type": 0,
         "interpolation": 0
        }
       ]
      },
      "reader": {
       "acodec": "",
       "audio_bit_rate": 0,
       "audio_stream_index": -1,
       "audio_timebase": {
        "den": 1,
        "num": 1
       },
       "channel_layout": 4,
       "channels": 0,
       "display_ratio": {
        "den": 4,
        "num": 5
       },
       "duration": 3600.0,
       "file_size": "5832000",
       "fps": {
        "den": 1,
        "num": 30
       },
       "has_audio": false,
       "has_single_image": true,
       "has_video": true,
       "height": 576,
       "interlaced_frame": false,
       "metadata": {},
       "path": "@transitions/common/fade.svg",
       "pixel_format": -1,
       "pixel_ratio": {
        "den": 1,
        "num": 1
       },
       "sample_rate": 0,
       "top_field_first": true,
       "type": "QtImageReader",
       "vcodec": "",
       "video_bit_rate": 0,
       "video_length": "108000",
       "video_stream_index": -1,
       "video_timebase": {
        "den": 30,
        "num": 1
       },
       "width": 720
      },
      "replace_image": false,
      "id": "26OJ2CVQNP"
     },
     {
      "layer": 1000000,
      "title": "Transition",
      "type": "Mask",
      "position": 415.26666666666665,
      "start": 0,
      "end": 0.9583333333333212,
      "brightness": {
       "Points": [
        {
         "co": {
          "X": 1.0,
          "Y": -1.0
         },
         "handle_left": {
          "X": 0.5,
          "Y": 1.0
         },
         "handle_right": {
          "X": 0.5,
          "Y": 0.0
         },
         "handle_type": 0,
         "interpolation": 0
        },
        {
         "co": {
          "X": 29.0,
          "Y": 1.0
         },
         "handle_left": {
          "X": 0.5,
          "Y": 1.0
         },
         "handle_right": {
          "X": 0.5,
          "Y": 0.0
         },
         "handle_type": 0,
         "interpolation": 0
        }
       ]
      },
      "contrast": {
       "Points": [
        {
         "co": {
          "X": 1.0,
          "Y": 3.0
         },
         "handle_left": {
          "X": 0.5,
          "Y": 1.0
         },
         "handle_right": {
          "X": 0.5,
          "Y": 0.0
         },
         "handle_type": 0,
         "interpolation": 0
        },
        {
         "co": {
          "X": 29.0,
          "Y": 3.0
         },
         "handle_left": {
          "X": 0.5,
          "Y": 1.0
         },
         "handle_right": {
          "X": 0.5,
          "Y": 0.0
         },
         "handle_type": 0,
         "interpolation": 0
        }
       ]
      },
      "reader": {
       "acodec": "",
       "audio_bit_rate": 0,
       "audio_stream_index": -1,
       "audio_timebase": {
        "den": 1,
        "num": 1
       },
       "channel_layout": 4,
       "channels": 0,
       "display_ratio": {
        "den": 4,
        "num": 5
       },
       "duration": 3600.0,
       "file_size": "5832000",
       "fps": {
        "den": 1,
        "num": 30
       },
       "has_audio": false,
       "has_single_image": true,
       "has_video": true,
       "height": 576,
       "interlaced_frame": false,
       "metadata": {},
       "path": "@transitions/common/fade.svg",
       "pixel_format": -1,
       "pixel_ratio": {
        "den": 1,
        "num": 1
       },
       "sample_rate": 0,
       "top_field_first": true,
       "type": "QtImageReader",
       "vcodec": "",
       "video_bit_rate": 0,
       "video_length": "108000",
       "video_stream_index": -1,
       "video_timebase": {
        "den": 30,
        "num": 1
       },
       "width": 720
      },
      "replace_image": false,
      "id": "FAALAWUR0G"
     },
     {
      "layer": 2000000,
      "title": "Transition",
      "type": "Mask",
      "position": 416.23333333333335,
      "start": 0,
      "end": 0.9583333333333212,
      "brightness": {
       "Points": [
        {
         "co": {
          "X": 1.0,
          "Y": 1.0
         },
         "handle_left": {
          "X": 0.5,
          "Y": 1.0
         },
         "handle_right": {
          "X": 0.5,
          "Y": 0.0
         },
         "handle_type": 0,
         "interpolation": 0
        },
        {
         "co": {
          "X": 29.0,
          "Y": -1.0
         },
         "handle_left": {
          "X": 0.5,
          "Y": 1.0
         },
         "handle_right": {
          "X": 0.5,
          "Y": 0.0
         },
         "handle_type": 0,
         "interpolation": 0
        }
       ]
      },
      "contrast": {
       "Points": [
        {
         "co": {
          "X": 1.0,
          "Y": 3.0
         },
         "handle_left": {
          "X": 0.5,
          "Y": 1.0
         },
         "handle_right": {
          "X": 0.5,
          "Y": 0.0
         },
         "handle_type": 0,
         "interpolation": 0
        },
        {
         "co": {
          "X": 29.0,
          "Y": 3.0
         },
         "handle_left": {
          "X": 0.5,
          "Y": 1.0
         },
         "handle_right": {
          "X": 0.5,
          "Y": 0.0
         },
         "handle_type": 0,
         "interpolation": 0
        }
       ]
      },
      "reader": {
       "acodec": "",
       "audio_bit_rate": 0,
       "audio_stream_index": -1,
       "audio_timebase": {
        "den": 1,
        "num": 1
       },
       "channel_layout": 4,
       "channels": 0,
       "display_ratio": {
        "den": 4,
        "num": 5
       },
       "duration": 3600.0,
       "file_size": "5832000",
       "fps": {
        "den": 1,
        "num": 30
       },
       "has_audio": false,
       "has_single_image": true,
       "has_video": true,
       "height": 576,
       "interlaced_frame": false,
       "metadata": {},
       "path": "@transitions/common/fade.svg",
       "pixel_format": -1,
       "pixel_ratio": {
        "den": 1,
        "num": 1
       },
       "sample_rate": 0,
       "top_field_first": true,
       "type": "QtImageReader",
       "vcodec": "",
       "video_bit_rate": 0,
       "video_length": "108000",
       "video_stream_index": -1,
       "video_timebase": {
        "den": 30,
        "num": 1
       },
       "width": 720
      },
      "replace_image": false,
      "id": "ULXPUMT6PO"
     },
     {
      "layer": 2000000,
      "title": "Transition",
      "type": "Mask",
      "position": 419.9,
      "start": 0,
      "end": 0.9583333333333212,
      "brightness": {
       "Points": [
        {
         "co": {
          "X": 1.0,
          "Y": -1.0
         },
         "handle_left": {
          "X": 0.5,
          "Y": 1.0
         },
         "handle_right": {
          "X": 0.5,
          "Y": 0.0
         },
         "handle_type": 0,
         "interpolation": 0
        },
        {
         "co": {
          "X": 29.0,
          "Y": 1.0
         },
         "handle_left": {
          "X": 0.5,
          "Y": 1.0
         },
         "handle_right": {
          "X": 0.5,
          "Y": 0.0
         },
         "handle_type": 0,
         "interpolation": 0
        }
       ]
      },
      "contrast": {
       "Points": [
        {
         "co": {
          "X": 1.0,
          "Y": 3.0
         },
         "handle_left": {
          "X": 0.5,
          "Y": 1.0
         },
         "handle_right": {
          "X": 0.5,
          "Y": 0.0
         },
         "handle_type": 0,
         "interpolation": 0
        },
        {
         "co": {
          "X": 29.0,
          "Y": 3.0
         },
         "handle_left": {
          "X": 0.5,
          "Y": 1.0
         },
         "handle_right": {
          "X": 0.5,
          "Y": 0.0
         },
         "handle_type": 0,
         "interpolation": 0
        }
       ]
      },
      "reader": {
       "acodec": "",
       "audio_bit_rate": 0,
       "audio_stream_index": -1,
       "audio_timebase": {
        "den": 1,
        "num": 1
       },
       "channel_layout": 4,
       "channels": 0,
       "display_ratio": {
        "den": 4,
        "num": 5
       },
       "duration": 3600.0,
       "file_size": "5832000",
       "fps": {
        "den": 1,
        "num": 30
       },
       "has_audio": false,
       "has_single_image": true,
       "has_video": true,
       "height": 576,
       "interlaced_frame": false,
       "metadata": {},
       "path": "@transitions/common/fade.svg",
       "pixel_format": -1,
       "pixel_ratio": {
        "den": 1,
        "num": 1
       },
       "sample_rate": 0,
       "top_field_first": true,
       "type": "QtImageReader",
       "vcodec": "",
       "video_bit_rate": 0,
       "video_length": "108000",
       "video_stream_index": -1,
       "video_timebase": {
        "den": 30,
        "num": 1
       },
       "width": 720
      },
      "replace_image": false,
      "id": "DYLW8V9WX8"
     },
     {
      "layer": 3000000,
      "title": "Transition",
      "type": "Mask",
      "position": 419.9,
      "start": 0,
      "end": 0.9583333333333212,
      "brightness": {
       "Points": [
        {
         "co": {
          "X": 1.0,
          "Y": -1.0
         },
         "handle_left": {
          "X": 0.5,
          "Y": 1.0
         },
         "handle_right": {
          "X": 0.5,
          "Y": 0.0
         },
         "handle_type": 0,
         "interpolation": 0
        },
        {
         "co": {
          "X": 29.0,
          "Y": 1.0
         },
         "handle_left": {
          "X": 0.5,
          "Y": 1.0
         },
         "handle_right": {
          "X": 0.5,
          "Y": 0.0
         },
         "handle_type": 0,
         "interpolation": 0
        }
       ]
      },
      "contrast": {
       "Points": [
        {
         "co": {
          "X": 1.0,
          "Y": 3.0
         },
         "handle_left": {
          "X": 0.5,
          "Y": 1.0
         },
         "handle_right": {
          "X": 0.5,
          "Y": 0.0
         },
         "handle_type": 0,
         "interpolation": 0
        },
        {
         "co": {
          "X": 29.0,
          "Y": 3.0
         },
         "handle_left": {
          "X": 0.5,
          "Y": 1.0
         },
         "handle_right": {
          "X": 0.5,
          "Y": 0.0
         },
         "handle_type": 0,
         "interpolation": 0
        }
       ]
      },
      "reader": {
       "acodec": "",
       "audio_bit_rate": 0,
       "audio_stream_index": -1,
       "audio_timebase": {
        "den": 1,
        "num": 1
       },
       "channel_layout": 4,
       "channels": 0,
       "display_ratio": {
        "den": 4,
        "num": 5
       },
       "duration": 3600.0,
       "file_size": "5832000",
       "fps": {
        "den": 1,
        "num": 30
       },
       "has_audio": false,
       "has_single_image": true,
       "has_video": true,
       "height": 576,
       "interlaced_frame": false,
       "metadata": {},
       "path": "@transitions/common/fade.svg",
       "pixel_format": -1,
       "pixel_ratio": {
        "den": 1,
        "num": 1
       },
       "sample_rate": 0,
       "top_field_first": true,
       "type": "QtImageReader",
       "vcodec": "",
       "video_bit_rate": 0,
       "video_length": "108000",
       "video_stream_index": -1,
       "video_timebase": {
        "den": 30,
        "num": 1
       },
       "width": 720
      },
      "replace_image": false,
      "id": "CXGUT073SE"
     },
     {
      "layer": 1000000,
      "title": "Transition",
      "type": "Mask",
      "position": 420.8666666666667,
      "start": 0,
      "end": 0.9583333333333212,
      "brightness": {
       "Points": [
        {
         "co": {
          "X": 1.0,
          "Y": 1.0
         },
         "handle_left": {
          "X": 0.5,
          "Y": 1.0
         },
         "handle_right": {
          "X": 0.5,
          "Y": 0.0
         },
         "handle_type": 0,
         "interpolation": 0
        },
        {
         "co": {
          "X": 29.0,
          "Y": -1.0
         },
         "handle_left": {
          "X": 0.5,
          "Y": 1.0
         },
         "handle_right": {
          "X": 0.5,
          "Y": 0.0
         },
         "handle_type": 0,
         "interpolation": 0
        }
       ]
      },
      "contrast": {
       "Points": [
        {
         "co": {
          "X": 1.0,
          "Y": 3.0
         },
         "handle_left": {
          "X": 0.5,
          "Y": 1.0
         },
         "handle_right": {
          "X": 0.5,
          "Y": 0.0
         },
         "handle_type": 0,
         "interpolation": 0
        },
        {
         "co": {
          "X": 29.0,
          "Y": 3.0
         },
         "handle_left": {
          "X": 0.5,
          "Y": 1.0
         },
         "handle_right": {
          "X": 0.5,
          "Y": 0.0
         },
         "handle_type": 0,
         "interpolation": 0
        }
       ]
      },
      "reader": {
       "acodec": "",
       "audio_bit_rate": 0,
       "audio_stream_index": -1,
       "audio_timebase": {
        "den": 1,
        "num": 1
       },
       "channel_layout": 4,
       "channels": 0,
       "display_ratio": {
        "den": 4,
        "num": 5
       },
       "duration": 3600.0,
       "file_size": "5832000",
       "fps": {
        "den": 1,
        "num": 30
       },
       "has_audio": false,
       "has_single_image": true,
       "has_video": true,
       "height": 576,
       "interlaced_frame": false,
       "metadata": {},
       "path": "@transitions/common/fade.svg",
       "pixel_format": -1,
       "pixel_ratio": {
        "den": 1,
        "num": 1
       },
       "sample_rate": 0,
       "top_field_first": true,
       "type": "QtImageReader",
       "vcodec": "",
       "video_bit_rate": 0,
       "video_length": "108000",
       "video_stream_index": -1,
       "video_timebase": {
        "den": 30,
        "num": 1
       },
       "width": 720
      },
      "replace_image": false,
      "id": "UU98446Y5E"
     },
     {
      "layer": 2000000,
      "title": "Transition",
      "type": "Mask",
      "position": 421.4,
      "start": 0,
      "end": 0.9583333333333212,
      "brightness": {
       "Points": [
        {
         "co": {
          "X": 1.0,
          "Y": 1.0
         },
         "handle_left": {
          "X": 0.5,
          "Y": 1.0
         },
         "handle_right": {
          "X": 0.5,
          "Y": 0.0
         },
         "handle_type": 0,
         "interpolation": 0
        },
        {
         "co": {
          "X": 29.0,
          "Y": -1.0
         },
         "handle_left": {
          "X": 0.5,
          "Y": 1.0
         },
         "handle_right": {
          "X": 0.5,
          "Y": 0.0
         },
         "handle_type": 0,
         "interpolation": 0
        }
       ]
      },
      "contrast": {
       "Points": [
        {
         "co": {
          "X": 1.0,
          "Y": 3.0
         },
         "handle_left": {
          "X": 0.5,
          "Y": 1.0
         },
         "handle_right": {
          "X": 0.5,
          "Y": 0.0
         },
         "handle_type": 0,
         "interpolation": 0
        },
        {
         "co": {
          "X": 29.0,
          "Y": 3.0
         },
         "handle_left": {
          "X": 0.5,
          "Y": 1.0
         },
         "handle_right": {
          "X": 0.5,
          "Y": 0.0
         },
         "handle_type": 0,
         "interpolation": 0
        }
       ]
      },
      "reader": {
       "acodec": "",
       "audio_bit_rate": 0,
       "audio_stream_index": -1,
       "audio_timebase": {
        "den": 1,
        "num": 1
       },
       "channel_layout": 4,
       "channels": 0,
       "display_ratio": {
        "den": 4,
        "num": 5
       },
       "duration": 3600.0,
       "file_size": "5832000",
       "fps": {
        "den": 1,
        "num": 30
       },
       "has_audio": false,
       "has_single_image": true,
       "has_video": true,
       "height": 576,
       "interlaced_frame": false,
       "metadata": {},
       "path": "@transitions/common/fade.svg",
       "pixel_format": -1,
       "pixel_ratio": {
        "den": 1,
        "num": 1
       },
       "sample_rate": 0,
       "top_field_first": true,
       "type": "QtImageReader",
       "vcodec": "",
       "video_bit_rate": 0,
       "video_length": "108000",
       "video_stream_index": -1,
       "video_timebase": {
        "den": 30,
        "num": 1
       },
       "width": 720
      },
      "replace_image": false,
      "id": "OX49IKX2Z1"
     },
     {
      "layer": 2000000,
      "title": "Transition",
      "type": "Mask",
      "position": 424.8333333333333,
      "start": 0,
      "end": 0.9583333333333212,
      "brightness": {
       "Points": [
        {
         "co": {
          "X": 1.0,
          "Y": -1.0
         },
         "handle_left": {
          "X": 0.5,
          "Y": 1.0
         },
         "handle_right": {
          "X": 0.5,
          "Y": 0.0
         },
         "handle_type": 0,
         "interpolation": 0
        },
        {
         "co": {
          "X": 29.0,
          "Y": 1.0
         },
         "handle_left": {
          "X": 0.5,
          "Y": 1.0
         },
         "handle_right": {
          "X": 0.5,
          "Y": 0.0
         },
         "handle_type": 0,
         "interpolation": 0
        }
       ]
      },
      "contrast": {
       "Points": [
        {
         "co": {
          "X": 1.0,
          "Y": 3.0
         },
         "handle_left": {
          "X": 0.5,
          "Y": 1.0
         },
         "handle_right": {
          "X": 0.5,
          "Y": 0.0
         },
         "handle_type": 0,
         "interpolation": 0
        },
        {
         "co": {
          "X": 29.0,
          "Y": 3.0
         },
         "handle_left": {
          "X": 0.5,
          "Y": 1.0
         },
         "handle_right": {
          "X": 0.5,
          "Y": 0.0
         },
         "handle_type": 0,
         "interpolation": 0
        }
       ]
      },
      "reader": {
       "acodec": "",
       "audio_bit_rate": 0,
       "audio_stream_index": -1,
       "audio_timebase": {
        "den": 1,
        "num": 1
       },
       "channel_layout": 4,
       "channels": 0,
       "display_ratio": {
        "den": 4,
        "num": 5
       },
       "duration": 3600.0,
       "file_size": "5832000",
       "fps": {
        "den": 1,
        "num": 30
       },
       "has_audio": false,
       "has_single_image": true,
       "has_video": true,
       "height": 576,
       "interlaced_frame": false,
       "metadata": {},
       "path": "@transitions/common/fade.svg",
       "pixel_format": -1,
       "pixel_ratio": {
        "den": 1,
        "num": 1
       },
       "sample_rate": 0,
       "top_field_first": true,
       "type": "QtImageReader",
       "vcodec": "",
       "video_bit_rate": 0,
       "video_length": "108000",
       "video_stream_index": -1,
       "video_timebase": {
        "den": 30,
        "num": 1
       },
       "width": 720
      },
      "replace_image": false,
      "id": "6H3NHSU7NW"
     }
    ],
    "transaction": "76a18b17-5658-4319-aa71-8a10697deead"
   },
   {
    "type": "update",
    "key": [
     "effects",
     {
      "id": "7AUAX2IQZJ"
     }
    ],
    "value": {
     "id": "7AUAX2IQZJ",
     "layer": 1000000,
     "position": 424.8333333333333,
     "start": 0,
     "end": 0.9583333333333212,
     "brightness": {
      "Points": [
       {
        "co": {
         "X": 1.0,
         "Y": -1.0
        },
        "handle_left": {
         "X": 0.5,
         "Y": 1.0
        },
        "handle_right": {
         "X": 0.5,
         "Y": 0.0
        },
        "handle_type": 0,
        "interpolation": 0
       },
       {
        "co": {
         "X": 29.0,
         "Y": 1.0
        },
        "handle_left": {
         "X": 0.5,
         "Y": 1.0
        },
        "handle_right": {
         "X": 0.5,
         "Y": 0.0
        },
        "handle_type": 0,
        "interpolation": 0
       }
      ]
     },
     "contrast": {
      "Points": [
       {
        "co": {
         "X": 1.0,
         "Y": 3.0
        },
        "handle_left": {
         "X": 0.5,
         "Y": 1.0
        },
        "handle_right": {
         "X": 0.5,
         "Y": 0.0
        },
        "handle_type": 0,
        "interpolation": 0
       },
       {
        "co": {
         "X": 29.0,
         "Y": 3.0
        },
        "handle_left": {
         "X": 0.5,
         "Y": 1.0
        },
        "handle_right": {
         "X": 0.5,
         "Y": 0.0
        },
        "handle_type": 0,
        "interpolation": 0
       }
      ]
     }
    },
    "old_values": {
     "layer": 2000000,
     "title": "Transition",
     "type": "Mask",
     "position": 425.8,
     "start": 0,
     "end": 0.9583333333333212,
     "brightness": {
      "Points": [
       {
        "co": {
         "X": 1.0,
         "Y": 1.0
        },
        "handle_left": {
         "X": 0.5,
         "Y": 1.0
        },
        "handle_right": {
         "X": 0.5,
         "Y": 0.0
        },
        "handle_type": 0,
        "interpolation": 0
       },
       {
        "co": {
         "X": 29.0,
         "Y": -1.0
        },
        "handle_left": {
         "X": 0.5,
         "Y": 1.0
        },
        "handle_right": {
         "X": 0.5,
         "Y": 0.0
        },
        "handle_type": 0,
        "interpolation": 0
       }
      ]
     },
     "contrast": {
      "Points": [
       {
        "co": {
         "X": 1.0,
         "Y": 3.0
        },
        "handle_left": {
         "X": 0.5,
         "Y": 1.0
        },
        "handle_right": {
         "X": 0.5,
         "Y": 0.0
        },
        "handle_type": 0,
        "interpolation": 0
       },
       {
        "co": {
         "X": 29.0,
         "Y": 3.0
        },
        "handle_left": {
         "X": 0.5,
         "Y": 1.0
        },
        "handle_right": {
         "X": 0.5,
         "Y": 0.0
        },
        "handle_type": 0,
        "interpolation": 0
       }
      ]
     },
     "reader": {
      "acodec": "",
      "audio_bit_rate": 0,
      "audio_stream_index": -1,
      "audio_timebase": {
       "den": 1,
       "num": 1
      },
      "channel_layout": 4,
      "channels": 0,
      "display_ratio": {
       "den": 4,
       "num": 5
      },
      "duration": 3600.0,
      "file_size": "5832000",
      "fps": {
       "den": 1,
       "num": 30
      },
      "has_audio": false,
      "has_single_image": true,
      "has_video": true,
      "height": 576,
      "interlaced_frame": false,
      "metadata": {},
      "path": "@transitions/common/fade.svg",
      "pixel_format": -1,
      "pixel_ratio": {
       "den": 1,
       "num": 1
      },
      "sample_rate": 0,
      "top_field_first": true,
      "type": "QtImageReader",
      "vcodec": "",
      "video_bit_rate": 0,
      "video_length": "108000",
      "video_stream_index": -1,
      "video_timebase": {
       "den": 30,
       "num": 1
      },
      "width": 720
     },
     "replace_image": false,
     "id": "7AUAX2IQZJ"
    },
    "transaction": "633b7057-4911-448c-b04f-e6efc2fb8979"
   }
  ],
  "redo": []
 },
 "version": {
  "openshot-qt": "3.1.1",
  "libopenshot": "0.3.2"
 }
}