<?xml version="1.0" encoding="UTF-8" standalone="no"?>
<svg
   height="24px"
   viewBox="0 -960 960 960"
   width="24px"
   fill="#e8eaed"
   version="1.1"
   id="svg1"
   sodipodi:docname="pin_circle.svg"
   inkscape:version="1.3.2 (091e20e, 2023-11-25, custom)"
   xmlns:inkscape="http://www.inkscape.org/namespaces/inkscape"
   xmlns:sodipodi="http://sodipodi.sourceforge.net/DTD/sodipodi-0.dtd"
   xmlns="http://www.w3.org/2000/svg"
   xmlns:svg="http://www.w3.org/2000/svg">
  <defs
     id="defs1">
    <clipPath
       clipPathUnits="userSpaceOnUse"
       id="clipPath6">
      <path
         d="M 480.03808,-91.12884 C 374.10151,-178.58812 295.11103,-258.9644 243.06662,-332.25768 191.02221,-405.551 165,-477.92044 165,-549.36604 c 0,-98.37316 31.7317,-176.55065 95.19508,-234.53243 63.46338,-57.98179 136.74438,-86.97269 219.843,-86.97269 82.83376,0 156.20408,28.9909 220.11088,86.97268 C 764.04964,-725.91669 796,-647.73921 796,-549.36604 c 0,71.4456 -26.1762,143.81504 -78.52856,217.10836 -52.35236,73.29328 -131.4968,153.66956 -237.43336,241.12884 z"
         id="path6"
         style="fill:#56ff67;fill-opacity:1;fill-rule:nonzero;stroke-width:52.6604;stroke-dasharray:none;paint-order:markers fill stroke"
         sodipodi:nodetypes="csssscssc" />
    </clipPath>
    <clipPath
       clipPathUnits="userSpaceOnUse"
       id="clipPath7">
      <path
         d="M 480.03808,-91.12884 C 374.10151,-178.58812 295.11103,-258.9644 243.06662,-332.25768 191.02221,-405.551 165,-477.92044 165,-549.36604 c 0,-98.37316 31.7317,-176.55065 95.19508,-234.53243 63.46338,-57.98179 136.74438,-86.97269 219.843,-86.97269 82.83376,0 156.20408,28.9909 220.11088,86.97268 C 764.04964,-725.91669 796,-647.73921 796,-549.36604 c 0,71.4456 -26.1762,143.81504 -78.52856,217.10836 -52.35236,73.29328 -131.4968,153.66956 -237.43336,241.12884 z"
         id="path7"
         style="fill:#56ff67;fill-opacity:1;fill-rule:nonzero;stroke-width:52.6604;stroke-dasharray:none;paint-order:markers fill stroke"
         sodipodi:nodetypes="csssscssc" />
    </clipPath>
    <clipPath
       clipPathUnits="userSpaceOnUse"
       id="clipPath8">
      <path
         d="M 480.03808,-91.12884 C 374.10151,-178.58812 295.11103,-258.9644 243.06662,-332.25768 191.02221,-405.551 165,-477.92044 165,-549.36604 c 0,-98.37316 31.7317,-176.55065 95.19508,-234.53243 63.46338,-57.98179 136.74438,-86.97269 219.843,-86.97269 82.83376,0 156.20408,28.9909 220.11088,86.97268 C 764.04964,-725.91669 796,-647.73921 796,-549.36604 c 0,71.4456 -26.1762,143.81504 -78.52856,217.10836 -52.35236,73.29328 -131.4968,153.66956 -237.43336,241.12884 z"
         id="path8"
         style="fill:#56ff67;fill-opacity:1;fill-rule:nonzero;stroke-width:52.6604;stroke-dasharray:none;paint-order:markers fill stroke"
         sodipodi:nodetypes="csssscssc" />
    </clipPath>
    <clipPath
       clipPathUnits="userSpaceOnUse"
       id="clipPath9">
      <path
         d="M 480.03808,-91.12884 C 374.10151,-178.58812 295.11103,-258.9644 243.06662,-332.25768 191.02221,-405.551 165,-477.92044 165,-549.36604 c 0,-98.37316 31.7317,-176.55065 95.19508,-234.53243 63.46338,-57.98179 136.74438,-86.97269 219.843,-86.97269 82.83376,0 156.20408,28.9909 220.11088,86.97268 C 764.04964,-725.91669 796,-647.73921 796,-549.36604 c 0,71.4456 -26.1762,143.81504 -78.52856,217.10836 -52.35236,73.29328 -131.4968,153.66956 -237.43336,241.12884 z"
         id="path9"
         style="fill:#56ff67;fill-opacity:1;fill-rule:nonzero;stroke-width:52.6604;stroke-dasharray:none;paint-order:markers fill stroke"
         sodipodi:nodetypes="csssscssc" />
    </clipPath>
    <clipPath
       clipPathUnits="userSpaceOnUse"
       id="clipPath10">
      <path
         d="M 480.03808,-91.12884 C 374.10151,-178.58812 295.11103,-258.9644 243.06662,-332.25768 191.02221,-405.551 165,-477.92044 165,-549.36604 c 0,-98.37316 31.7317,-176.55065 95.19508,-234.53243 63.46338,-57.98179 136.74438,-86.97269 219.843,-86.97269 82.83376,0 156.20408,28.9909 220.11088,86.97268 C 764.04964,-725.91669 796,-647.73921 796,-549.36604 c 0,71.4456 -26.1762,143.81504 -78.52856,217.10836 -52.35236,73.29328 -131.4968,153.66956 -237.43336,241.12884 z"
         id="path10"
         style="fill:#56ff67;fill-opacity:1;fill-rule:nonzero;stroke-width:52.6604;stroke-dasharray:none;paint-order:markers fill stroke"
         sodipodi:nodetypes="csssscssc" />
    </clipPath>
  </defs>
  <sodipodi:namedview
     id="namedview1"
     pagecolor="#4473dd"
     bordercolor="#000000"
     borderopacity="0.25"
     inkscape:showpageshadow="2"
     inkscape:pageopacity="0.0"
     inkscape:pagecheckerboard="0"
     inkscape:deskcolor="#d1d1d1"
     inkscape:zoom="47.375"
     inkscape:cx="11.989446"
     inkscape:cy="12"
     inkscape:window-width="2560"
     inkscape:window-height="1351"
     inkscape:window-x="-9"
     inkscape:window-y="-9"
     inkscape:window-maximized="1"
     inkscape:current-layer="svg1" />
  <path
     d="M 480,-59 C 365.33333,-153.66667 279.83333,-240.66667 223.5,-320 167.16667,-399.33333 139,-477.66667 139,-555 139,-661.48 173.34667,-746.1 242.04,-808.86 310.73333,-871.62 390.05333,-903 480,-903 c 89.66,0 169.07667,31.38 238.25,94.14 C 787.41667,-746.1 822,-661.48 822,-555 c 0,77.33333 -28.33333,155.66667 -85,235 -56.66667,79.33333 -142.33333,166.33333 -257,261 z"
     id="path1"
     style="fill:#ffffff;fill-rule:nonzero;stroke-width:57;stroke-dasharray:none;paint-order:markers fill stroke"
     sodipodi:nodetypes="csssscssc" />
  <path
     d="M 480.03807,-91.128845 C 374.10151,-178.5881 295.11103,-258.96438 243.06662,-332.25769 191.02221,-405.551 165,-477.92046 165,-549.36603 c 0,-98.37317 31.7317,-176.55066 95.19508,-234.53244 63.46338,-57.98179 136.74438,-86.97269 219.84299,-86.97269 82.83376,0 156.20407,28.9909 220.11091,86.97268 C 764.04966,-725.91669 796,-647.73921 796,-549.36603 c 0,71.44558 -26.17618,143.81504 -78.52855,217.10834 -52.35237,73.29331 -131.49683,153.66959 -237.43338,241.128845 z"
     id="path1-6"
     style="fill:#56ff67;fill-opacity:1;fill-rule:nonzero;stroke-width:52.6603;stroke-dasharray:none;paint-order:markers fill stroke"
     sodipodi:nodetypes="csssscssc" />
  <rect
     style="fill:#52c543;fill-opacity:1;stroke:#000000;stroke-width:0;-inkscape-stroke:none;paint-order:markers fill stroke"
     id="rect1"
     width="800"
     height="78.875"
     x="80.5"
     y="-870.87115"
     clip-path="url(#clipPath10)" />
  <rect
     style="fill:#52c543;fill-opacity:1;stroke:#000000;stroke-width:0;-inkscape-stroke:none;paint-order:markers fill stroke"
     id="rect1-2"
     width="800"
     height="78.875"
     x="80.5"
     y="-713.13"
     clip-path="url(#clipPath9)" />
  <rect
     style="fill:#52c543;fill-opacity:1;stroke:#000000;stroke-width:0;-inkscape-stroke:none;paint-order:markers fill stroke"
     id="rect1-2-1"
     width="800"
     height="78.875"
     x="80.5"
     y="-555.38"
     clip-path="url(#clipPath8)" />
  <rect
     style="fill:#52c543;fill-opacity:1;stroke:#000000;stroke-width:0;-inkscape-stroke:none;paint-order:markers fill stroke"
     id="rect1-2-1-0"
     width="800"
     height="78.875"
     x="80.5"
     y="-397.63"
     clip-path="url(#clipPath7)" />
  <rect
     style="fill:#52c543;fill-opacity:1;stroke:#000000;stroke-width:0;-inkscape-stroke:none;paint-order:markers fill stroke"
     id="rect1-2-1-0-3"
     width="800"
     height="78.875"
     x="80.5"
     y="-239.88"
     clip-path="url(#clipPath6)" />
</svg>
