<?xml version="1.0" encoding="UTF-8" standalone="no"?>
<svg
   height="24px"
   viewBox="0 -960 960 960"
   width="24px"
   fill="#e8eaed"
   version="1.1"
   id="svg1"
   sodipodi:docname="pin_square2.svg"
   inkscape:version="1.3.2 (091e20e, 2023-11-25, custom)"
   xmlns:inkscape="http://www.inkscape.org/namespaces/inkscape"
   xmlns:sodipodi="http://sodipodi.sourceforge.net/DTD/sodipodi-0.dtd"
   xmlns="http://www.w3.org/2000/svg"
   xmlns:svg="http://www.w3.org/2000/svg">
  <defs
     id="defs1">
    <clipPath
       clipPathUnits="userSpaceOnUse"
       id="clipPath4">
      <path
         d="M 480.03808,-91.13548 C 374.10157,-178.59472 295.11106,-258.97108 243.06656,-332.26436 191.02219,-405.5576 165,-477.92708 165,-549.37272 V -870.88 c 1.28136,-0.3624 231.93943,0.002 315.03808,0.002 L 796,-870.88 v 321.50712 c 0,71.44564 -26.15768,143.81508 -78.51004,217.10836 -52.35236,73.29324 -131.51536,153.66964 -237.45188,241.12884 z m 0,0 C 374.10157,-178.59472 295.11106,-258.97108 243.06656,-332.26436 191.02219,-405.5576 165,-477.92708 165,-549.37272 V -870.88 c 1.28136,-0.3624 231.93943,0.002 315.03808,0.002 L 796,-870.88 v 321.50712 c 0,71.44564 -26.15768,143.81508 -78.51004,217.10836 -52.35236,73.29324 -131.51536,153.66964 -237.45188,241.12884 z"
         id="path4"
         style="fill:#ff56a9;fill-opacity:1;fill-rule:nonzero;stroke-width:52.6604;stroke-dasharray:none;paint-order:markers fill stroke"
         sodipodi:nodetypes="csscscsscccsscccsssc" />
    </clipPath>
  </defs>
  <sodipodi:namedview
     id="namedview1"
     pagecolor="#4473dd"
     bordercolor="#000000"
     borderopacity="0.25"
     inkscape:showpageshadow="2"
     inkscape:pageopacity="0.0"
     inkscape:pagecheckerboard="0"
     inkscape:deskcolor="#d1d1d1"
     inkscape:zoom="49.438549"
     inkscape:cx="11.185603"
     inkscape:cy="10.386632"
     inkscape:window-width="2560"
     inkscape:window-height="1351"
     inkscape:window-x="-9"
     inkscape:window-y="-9"
     inkscape:window-maximized="1"
     inkscape:current-layer="svg1"
     showguides="false" />
  <path
     d="M 480,-59 C 365.33333,-153.66667 279.83333,-240.66667 223.5,-320 167.16667,-399.33333 139,-477.66667 139,-555 v -348 c 1.38691,-0.39221 251.05333,0 341,0 89.66,0 342,0 342,0 0,0 0,241.52 0,348 0,77.33333 -28.31333,155.66667 -84.98,235 -56.66667,79.33333 -142.35333,166.33333 -257.02,261 z"
     id="path1"
     style="fill:#ffffff;fill-rule:nonzero;stroke-width:57;stroke-dasharray:none;paint-order:markers fill stroke"
     sodipodi:nodetypes="csscscssc" />
  <path
     d="M 480.03809,-91.135485 C 374.10157,-178.5947 295.11106,-258.97107 243.06656,-332.26434 191.02219,-405.55761 165,-477.92707 165,-549.3727 V -870.88 c 1.28135,-0.3623 231.93943,0.002 315.03809,0.002 L 796,-870.88 v 321.50711 c 0,71.44563 -26.15767,143.81509 -78.51003,217.10836 -52.35236,73.29327 -131.51536,153.66964 -237.45188,241.128855 z m 0,10e-7 C 374.10157,-178.5947 295.11106,-258.97107 243.06656,-332.26434 191.02219,-405.55761 165,-477.92707 165,-549.3727 V -870.88 c 1.28135,-0.3623 231.93943,0.002 315.03809,0.002 L 796,-870.88 v 321.50711 c 0,71.44563 -26.15767,143.81509 -78.51003,217.10836 -52.35236,73.29327 -131.51536,153.66964 -237.45188,241.128856 z"
     id="path1-6"
     style="fill:#ff56a9;fill-opacity:1;fill-rule:nonzero;stroke-width:52.6606;stroke-dasharray:none;paint-order:markers fill stroke"
     sodipodi:nodetypes="csscscsscccsscccsssc" />
  <path
     id="rect1"
     style="fill:#c543a1;stroke:#000000;stroke-width:0;paint-order:markers fill stroke"
     d="M 243.90625 -870.85938 L 243.90625 -792.03125 L 322.73438 -792.03125 L 322.73438 -870.85938 L 243.90625 -870.85938 z M 322.73438 -792.03125 L 322.73438 -713.125 L 401.64062 -713.125 L 401.64062 -792.03125 L 322.73438 -792.03125 z M 401.64062 -792.03125 L 480.46875 -792.03125 L 480.46875 -870.85938 L 401.64062 -870.85938 L 401.64062 -792.03125 z M 480.46875 -792.03125 L 480.46875 -713.125 L 559.375 -713.125 L 559.375 -792.03125 L 480.46875 -792.03125 z M 559.375 -792.03125 L 638.28125 -792.03125 L 638.28125 -870.85938 L 559.375 -870.85938 L 559.375 -792.03125 z M 638.28125 -792.03125 L 638.28125 -713.125 L 717.10938 -713.125 L 717.10938 -792.03125 L 638.28125 -792.03125 z M 717.10938 -792.03125 L 796.01562 -792.03125 L 796.01562 -870.85938 L 717.10938 -870.85938 L 717.10938 -792.03125 z M 717.10938 -713.125 L 717.10938 -634.21875 L 796.01562 -634.21875 L 796.01562 -713.125 L 717.10938 -713.125 z M 717.10938 -634.21875 L 638.28125 -634.21875 L 638.28125 -555.39062 L 717.10938 -555.39062 L 717.10938 -634.21875 z M 717.10938 -555.39062 L 717.10938 -476.48438 L 796.01562 -476.48438 L 796.01562 -555.39062 L 717.10938 -555.39062 z M 717.10938 -476.48438 L 638.28125 -476.48438 L 638.28125 -397.65625 L 717.10938 -397.65625 L 717.10938 -476.48438 z M 717.10938 -397.65625 L 717.10938 -318.75 L 796.01562 -318.75 L 796.01562 -397.65625 L 717.10938 -397.65625 z M 717.10938 -318.75 L 638.28125 -318.75 L 638.28125 -239.84375 L 717.10938 -239.84375 L 717.10938 -318.75 z M 717.10938 -239.84375 L 717.10938 -161.01562 L 796.01562 -161.01562 L 796.01562 -239.84375 L 717.10938 -239.84375 z M 717.10938 -161.01562 L 638.28125 -161.01562 L 638.28125 -48.203125 L 717.10938 -48.203125 L 717.10938 -161.01562 z M 638.28125 -161.01562 L 638.28125 -239.84375 L 559.375 -239.84375 L 559.375 -161.01562 L 638.28125 -161.01562 z M 559.375 -161.01562 L 480.46875 -161.01562 L 480.46875 -48.203125 L 559.375 -48.203125 L 559.375 -161.01562 z M 480.46875 -161.01562 L 480.46875 -239.84375 L 401.64062 -239.84375 L 401.64062 -161.01562 L 480.46875 -161.01562 z M 401.64062 -161.01562 L 322.73438 -161.01562 L 322.73438 -48.203125 L 401.64062 -48.203125 L 401.64062 -161.01562 z M 322.73438 -161.01562 L 322.73438 -239.84375 L 243.90625 -239.84375 L 243.90625 -161.01562 L 322.73438 -161.01562 z M 243.90625 -161.01562 L 165 -161.01562 L 165 -48.203125 L 243.90625 -48.203125 L 243.90625 -161.01562 z M 243.90625 -239.84375 L 243.90625 -318.75 L 165 -318.75 L 165 -239.84375 L 243.90625 -239.84375 z M 243.90625 -318.75 L 322.73438 -318.75 L 322.73438 -397.65625 L 243.90625 -397.65625 L 243.90625 -318.75 z M 243.90625 -397.65625 L 243.90625 -476.48438 L 165 -476.48438 L 165 -397.65625 L 243.90625 -397.65625 z M 243.90625 -476.48438 L 322.73438 -476.48438 L 322.73438 -555.39062 L 243.90625 -555.39062 L 243.90625 -476.48438 z M 243.90625 -555.39062 L 243.90625 -634.21875 L 165 -634.21875 L 165 -555.39062 L 243.90625 -555.39062 z M 243.90625 -634.21875 L 322.73438 -634.21875 L 322.73438 -713.125 L 243.90625 -713.125 L 243.90625 -634.21875 z M 243.90625 -713.125 L 243.90625 -792.03125 L 165 -792.03125 L 165 -713.125 L 243.90625 -713.125 z M 322.73438 -634.21875 L 322.73438 -555.39062 L 401.64062 -555.39062 L 401.64062 -634.21875 L 322.73438 -634.21875 z M 401.64062 -634.21875 L 480.46875 -634.21875 L 480.46875 -713.125 L 401.64062 -713.125 L 401.64062 -634.21875 z M 480.46875 -634.21875 L 480.46875 -555.39062 L 559.375 -555.39062 L 559.375 -634.21875 L 480.46875 -634.21875 z M 559.375 -634.21875 L 638.28125 -634.21875 L 638.28125 -713.125 L 559.375 -713.125 L 559.375 -634.21875 z M 559.375 -555.39062 L 559.375 -476.48438 L 638.28125 -476.48438 L 638.28125 -555.39062 L 559.375 -555.39062 z M 559.375 -476.48438 L 480.46875 -476.48438 L 480.46875 -397.65625 L 559.375 -397.65625 L 559.375 -476.48438 z M 559.375 -397.65625 L 559.375 -318.75 L 638.28125 -318.75 L 638.28125 -397.65625 L 559.375 -397.65625 z M 559.375 -318.75 L 480.46875 -318.75 L 480.46875 -239.84375 L 559.375 -239.84375 L 559.375 -318.75 z M 480.46875 -318.75 L 480.46875 -397.65625 L 401.64062 -397.65625 L 401.64062 -318.75 L 480.46875 -318.75 z M 401.64062 -318.75 L 322.73438 -318.75 L 322.73438 -239.84375 L 401.64062 -239.84375 L 401.64062 -318.75 z M 401.64062 -397.65625 L 401.64062 -476.48438 L 322.73438 -476.48438 L 322.73438 -397.65625 L 401.64062 -397.65625 z M 401.64062 -476.48438 L 480.46875 -476.48438 L 480.46875 -555.39062 L 401.64062 -555.39062 L 401.64062 -476.48438 z "
     clip-path="url(#clipPath4)" />
</svg>
